<svg xmlns="http://www.w3.org/2000/svg" width="177.91" height="505.98" viewBox="0 0 177.91 505.98" id="RPFace">
  <path id="Face" width="177.91" height="505.98" d="M85.4,506c0-1.16-2.5-116-2.5-128.39s12-83.57,19.42-101.51c2.49-5.21,28.08-15.85,46.52-20.59a56.48,56.48,0,0,0,16-6.75c13.39-8.38,14.51-23.23,9.69-34.23a53.29,53.29,0,0,0-5-8.63,2.55,2.55,0,0,1-.33-2.47l.75-2.62c.62-2.14,1.24-4.28,1.72-6.46,1.23-5.51.33-10-2.77-13.66a9.14,9.14,0,0,0,1.24-4.8,21.79,21.79,0,0,0-2.59-9.77c-.39-.8-.83-1.58-1.26-2.36a13.23,13.23,0,0,1-1.7-3.83,2.11,2.11,0,0,1,.74-2.34,24.53,24.53,0,0,1,3.19-2.24l1.09-.7a20.14,20.14,0,0,0,7.58-12.12,16.24,16.24,0,0,0-2.73-12.61c-2.39-4.13-14.5-14.08-20.56-17.91-.76-.48-2-1.22-3.37-2-2.16-1.29-4.68-2.78-5.84-3.6a10.52,10.52,0,0,1-4.78-9.86c.4-10-8.2-31.54-13.61-38.85l-.66-1c-2.89-4.43-10.58-16.21-35-33.28C72.46,10.69,37.88-2.72.05,1.19" fill="none" stroke="#231f20"/>
</svg>
