<svg width="1815px" height="1489px" viewBox="0 0 1815 1489" fill="none">
            <path d="M671.919232,793.638517 C682.753098,778.675017 694.07571,763.587371 704.800965,748.09237 C717.57042,729.645016 738.020166,722.13029 756.026183,711.143349 C766.972538,704.46273 771.41004,688.971609 766.161841,677.208754 C758.714285,660.518846 751.712807,643.611681 745.099223,626.572612 C741.096162,616.241318 747.65932,596.564141 755.913694,589.158043 C758.019956,587.272572 759.443525,583.245579 759.20691,580.363059 C758.140203,567.409176 750.878836,558.649108 738.148171,553.547474 C732.546988,556.833469 726.181656,560.561735 719.238362,564.635284 C712.54332,559.390105 705.797852,554.110011 698.199018,548.158752 C710.572821,532.931441 722.26781,518.42961 734.075289,504.024768 C752.496352,481.550421 771.887149,459.789916 788.997132,436.361195 C795.41677,427.566211 796.359351,414.852861 800.277075,404.102574 C803.085424,396.38999 805.711463,388.324364 810.114055,381.51572 C828.996711,352.271524 847.708694,322.852748 868.127409,294.698712 C878.197125,280.809853 891.587209,269.260374 903.961012,257.152237 C912.49467,248.807283 921.788598,241.230484 930.876943,233.467465 C958.560904,209.817609 990.418598,195.428286 1026.14747,188.115297 C1064.40929,180.286325 1102.5431,171.545655 1140.26962,161.474293 C1188.68649,148.543687 1236.68055,134.022458 1284.74832,119.815474 C1291.95538,117.69335 1292.57601,119.664171 1295.43091,126.302115 C1301.01269,139.279275 1301.07476,151.635704 1298.72412,164.791325 C1297.52165,171.50298 1300.61704,176.263212 1307.09486,178.028416 C1312.10257,179.397904 1313.6619,181.32605 1312.56028,186.850557 C1310.44626,197.437903 1307.50215,208.195949 1314.8217,218.55052 C1316.57498,221.029565 1314.9148,225.844111 1315.03892,229.576257 C1315.44233,241.769744 1321.0823,250.219447 1330.11247,258.987274 C1338.69267,267.324469 1342.73064,280.421896 1348.40165,291.606695 C1349.47999,293.72106 1349.83685,297.111804 1348.90203,299.187374 C1343.34351,311.582599 1348.55292,322.232017 1354.08816,332.644782 C1358.40154,340.756962 1358.51015,347.899249 1353.19213,355.681666 C1345.66312,366.695764 1347.31942,379.606972 1347.02462,392.033233 C1346.94704,395.261035 1347.79653,398.787564 1346.77637,401.662325 C1344.065,409.324475 1344.85242,415.13219 1352.12154,420.035966 C1354.09204,421.366659 1354.08816,425.758331 1354.79801,428.788275 C1357.19907,439.014821 1360.44186,448.2094 1367.21448,457.182845 C1372.69929,464.445399 1372.43165,476.208254 1373.99098,486.089518 C1374.17329,487.233991 1369.92974,489.4919 1367.4511,490.57818 C1360.71726,493.530532 1357.73436,497.282076 1359.4954,505.553318 C1361.61718,515.519933 1361.52796,525.963734 1362.24169,536.213557 C1362.31926,537.346391 1361.40384,538.560696 1360.92673,539.728447 C1354.80577,554.641512 1348.4288,569.465348 1342.75004,584.545235 C1341.5786,587.672168 1342.12553,592.090997 1343.34739,595.369234 C1349.05719,610.72845 1355.96945,625.668672 1361.11679,641.198589 C1365.86461,655.52584 1368.92897,670.411748 1372.69929,685.061003 C1373.3432,687.559446 1373.07555,690.651463 1374.47585,692.544692 C1384.49514,706.061113 1381.43078,722.200122 1383.5448,737.221816 C1384.35937,743.037291 1382.62937,749.209686 1381.78764,758.062864 C1394.49503,754.101823 1406.36845,750.474425 1418.17593,746.660809 C1420.7787,745.818942 1423.06339,743.642503 1425.67003,743.254546 C1434.62262,741.908336 1443.73423,741.516499 1452.62088,739.898719 C1458.19103,738.886151 1460.99162,739.336181 1461.75577,745.787905 C1463.14831,757.508085 1464.93649,769.220506 1467.38798,780.766105 C1468.33832,785.22761 1470.56095,790.461149 1473.94726,793.130293 C1479.2614,797.316349 1479.09073,802.138653 1479.02479,807.639883 C1478.3033,869.030192 1477.02326,930.420501 1477.384,991.803051 C1477.48097,1008.40761 1482.50031,1025.00829 1485.4483,1041.57405 C1493.532,1087.01933 1501.92602,1132.41417 1509.76923,1177.90212 C1513.03917,1196.84606 1515.20749,1215.9801 1517.93051,1235.02103 C1519.03988,1242.79568 1521.50688,1249.61209 1528.50836,1254.5081 C1533.73717,1258.16266 1538.07382,1263.10135 1542.3484,1267.04299 C1527.14298,1283.13933 1512.34484,1298.79727 1495.3008,1316.82951 C1500.89034,1321.52767 1506.91045,1326.69526 1513.04305,1331.71154 C1518.79551,1336.41746 1519.12134,1341.72471 1515.6846,1348.00573 C1511.35571,1355.92393 1507.18198,1363.94688 1503.34183,1372.1095 C1501.77474,1375.44593 1500.30462,1379.3061 1500.44039,1382.86366 C1500.8438,1393.75362 1502.25961,1404.70176 1488.62515,1409.52019 C1495.04091,1408.40287 1501.46055,1407.28555 1509.37745,1405.90055 C1502.2247,1393.21824 1508.55124,1385.89749 1518.05851,1379.86476 C1518.33004,1379.69406 1518.60156,1379.49232 1518.80327,1379.24791 C1529.22209,1366.58111 1542.36004,1361.37861 1558.79121,1363.56669 C1561.63059,1363.943 1566.90206,1361.46008 1567.68949,1359.15561 C1570.87409,1349.84853 1578.18589,1349.14245 1585.96315,1348.3355 C1596.82417,1347.20266 1607.69294,1346.04267 1618.49578,1344.45205 C1621.00933,1344.07961 1624.44994,1342.49286 1625.43519,1340.47161 C1634.36062,1322.20659 1652.14166,1317.25238 1669.04606,1311.6852 C1692.76963,1303.87175 1716.95867,1297.49762 1740.77145,1289.94409 C1745.65503,1288.38839 1750.65498,1285.13731 1754.04517,1281.29653 C1770.49573,1262.65132 1786.15111,1243.29227 1802.75684,1224.79836 C1805.90265,1221.29511 1812.09343,1220.53471 1816.88392,1218.51346 C1817.39982,1219.46783 1817.90796,1220.42221 1818.42386,1221.38046 C1817.7528,1222.67236 1817.41533,1224.4104 1816.36026,1225.18632 C1806.38364,1232.56914 1801.79486,1242.95863 1800.20838,1254.74088 C1798.83135,1264.91311 1791.93461,1271.02731 1785.27835,1277.57215 C1777.36145,1285.35068 1767.89685,1292.17097 1767.18312,1305.5516 C1778.49798,1301.77678 1789.25038,1298.07179 1796.27901,1287.22064 C1801.17035,1279.67099 1807.57059,1273.1184 1813.05929,1265.93732 C1825.02192,1250.29489 1840.60749,1244.48718 1859.74227,1248.76246 C1868.25266,1250.66345 1874.61411,1248.89825 1879.55199,1241.19342 C1883.19044,1235.52149 1887.89558,1230.52073 1892.24775,1225.3221 C1900.77753,1215.14599 1901.04517,1215.09944 1918,1217.8035 C1912.91084,1225.65575 1909.69132,1234.21796 1903.60139,1239.41658 C1867.51566,1270.24752 1831.1584,1300.80301 1793.98656,1330.30714 C1782.59025,1339.35429 1768.18777,1344.55679 1755.42607,1351.97065 C1738.479,1361.817 1721.78019,1372.09786 1704.99603,1382.22742 C1702.62988,1383.6551 1700.36458,1385.25348 1697.21489,1385.73843 L1701.94331,1380.61351 C1701.62524,1380.06649 1701.30717,1379.52723 1700.98909,1378.98409 C1642.40941,1408.57357 1583.82974,1438.16693 1525.2966,1467.73313 C1520.18805,1452.54461 1499.61805,1452.6998 1488.69885,1465.99896 C1491.47617,1469.16469 1494.30779,1472.39249 1498.24491,1476.88115 C1486.96497,1480.92367 1477.17066,1484.44243 1467.23282,1488 C1458.49358,1478.14201 1452.76052,1468.30343 1459.18015,1454.90339 C1463.12115,1446.6787 1465.60367,1437.76733 1469.01713,1429.27883 C1471.23201,1423.75821 1474.18775,1418.64881 1469.10247,1412.88765 C1467.81466,1411.42894 1468.21419,1408.10026 1468.50124,1405.70657 C1469.12187,1400.56226 1470.96436,1396.5663 1465.23129,1391.49571 C1461.40278,1388.10884 1462.19409,1378.9453 1461.83335,1372.31899 C1460.9218,1355.81918 1461.13514,1355.79203 1444.71561,1351.57882 C1423.93227,1346.24441 1402.93947,1341.62384 1382.40439,1335.46696 C1341.97813,1323.35495 1301.61781,1310.93644 1261.68417,1297.30364 C1254.19783,1294.75088 1248.30184,1286.42144 1242.69678,1279.87273 C1238.9187,1275.4539 1236.51764,1272.24938 1229.54719,1273.78181 C1222.28971,1275.38019 1214.42322,1274.49953 1206.84766,1274.162 C1205.16033,1274.09217 1203.63203,1271.67132 1201.92142,1270.49193 C1199.32641,1268.70733 1195.94786,1265.0489 1194.09373,1265.67739 C1179.85803,1270.52685 1177.47249,1256.56816 1169.83099,1251.129 C1169.58661,1250.95442 1169.47412,1250.59362 1169.26854,1250.34921 C1163.47729,1243.47461 1152.49602,1236.13834 1153.06235,1229.83792 C1153.99329,1219.41352 1148.79552,1212.05398 1147.24395,1203.21632 C1146.54574,1199.26303 1146.3867,1195.19725 1145.47515,1191.29828 C1145.00192,1189.26926 1143.39604,1185.83584 1142.35649,1185.85912 C1131.59632,1186.08802 1134.21072,1178.35603 1134.22236,1169.74339 C1126.28218,1168.40882 1118.1209,1165.42931 1110.23891,1166.04228 C1095.22743,1167.21779 1095.29337,1168.06742 1087.90012,1154.38029 C1080.58057,1140.82508 1063.69556,1133.59744 1048.78881,1137.4227 C1040.73227,1139.49051 1032.59814,1141.30226 1024.46789,1143.06747 C986.287532,1151.35423 948.076142,1159.49357 909.919057,1167.8618 C873.33294,1175.88863 836.867071,1184.50127 800.215012,1192.20998 C736.305677,1205.64881 672.268336,1218.50958 608.320211,1231.78935 C584.809985,1236.66984 561.412248,1242.09736 537.948569,1247.22227 C494.019629,1256.82809 450.210935,1267.05075 406.111321,1275.81858 C349.878398,1286.99562 293.370071,1296.80317 237.044053,1307.53018 C192.366478,1316.03808 147.793634,1325.07748 103.154848,1333.79099 C94.3496653,1335.51352 85.4940563,1337.25156 76.5802633,1338.00808 C74.322723,1338.20206 70.0442575,1335.01305 69.5787853,1332.77454 C64.6525377,1309.25271 60.0443627,1285.65717 56.0994856,1261.95688 C55.5021296,1258.36052 57.6782122,1253.04163 60.3934669,1250.3686 C74.6485536,1236.30128 89.9238002,1223.24653 103.981061,1208.99299 C112.704786,1200.13982 121.281112,1190.56892 127.433103,1179.89234 C135.450862,1165.96857 148.224196,1157.91458 160.310958,1149.139 C174.042388,1139.17238 184.899528,1128.07681 187.928976,1110.6847 C191.284255,1091.40324 205.98154,1079.846 219.212588,1067.92409 C227.862614,1060.12615 228.669432,1053.9072 222.467015,1044.49149 C215.946525,1034.57919 211.04743,1023.61552 205.093264,1013.31526 C202.226731,1008.35329 202.176305,1004.21379 205.124296,999.123799 C210.884514,989.180462 205.027322,980.044076 193.018139,979.64836 C186.233881,979.431104 179.372045,980.059594 172.696398,979.159534 C170.369037,978.849168 166.319428,974.41482 166.761627,973.049212 C171.416349,958.601695 163.220159,946.672018 159.570081,933.989705 C155.819151,920.96987 155.361436,921.14833 167.339588,915.74021 C196.625549,902.510878 226.365345,890.189365 255.011281,875.695293 C278.261618,863.932438 302.780367,858.194554 328.005083,853.744688 C348.478102,850.136688 368.679597,844.61994 389.265106,842.105979 C417.674427,838.637644 446.588009,835.42536 472.433354,853.034727 C482.134571,859.637754 491.405226,859.746382 501.564157,853.36449 C525.34203,838.424268 553.677651,839.762719 579.647122,832.527322 C595.046495,828.240398 610.957887,825.819546 626.558964,822.207667 C629.85218,821.443392 633.087212,819.546282 635.849014,817.486231 C644.38655,811.131496 652.501282,804.187066 661.166824,798.014671 C664.413492,795.698568 668.734626,794.883858 671.919232,793.638517 Z" stroke="#FFFFFF" opacity="0.199976679"></path>
	<g stroke="#EF4136" stroke-width="4" transform-origin="center center">
        <rect id="Rectangle-6" width="36" height="36" data-svg-origin="599 785" transform="translate(1490, 1350)" data-x="599" data-y="785"></rect>
        <rect width="49" height="49" data-svg-origin="215 1080" transform="translate(1490, 1350)" data-x="215" data-y="1080"></rect>
        <rect width="36" height="36" data-svg-origin="1412 673" transform="translate(1490, 1350)" data-x="1412" data-y="673"></rect>
        <rect width="16" height="16" data-svg-origin="248 1013" transform="translate(1490, 1350)" data-x="248" data-y="1013"></rect>
        <rect width="36" height="36" data-svg-origin="1040 785" transform="translate(1490, 1350)" data-x="1040" data-y="785"></rect>
        <rect width="36" height="36" data-svg-origin="562 893" transform="translate(1490, 1350)" data-x="562" data-y="893"></rect>
        <rect width="36" height="36" data-svg-origin="736 785" transform="translate(1490, 1350)" data-x="736" data-y="785"></rect>
        <rect width="36" height="36" data-svg-origin="1259 505" transform="translate(1490, 1350)" data-x="1259" data-y="505"></rect>
        <rect width="36" height="36" data-svg-origin="80 653" transform="translate(1490, 1350)" data-x="80" data-y="653"></rect>
        <rect width="22" height="22" data-svg-origin="576 127" transform="translate(1490, 1350)" data-x="576" data-y="127"></rect>
        <rect width="50" height="50" data-svg-origin="86 933" transform="translate(1490, 1350)" data-x="86" data-y="933"></rect>
        <rect width="16" height="16" data-svg-origin="1098 505" transform="translate(1490, 1350)" data-x="1098" data-y="505"></rect>
        <rect width="36" height="36" data-svg-origin="610 505" transform="translate(1490, 1350)" data-x="610" data-y="505"></rect>
        <rect width="36" height="36" data-svg-origin="696 639" transform="translate(1490, 1350)" data-x="696" data-y="639"></rect>
        <rect width="36" height="36" data-svg-origin="817 1014" transform="translate(1490, 1350)" data-x="817" data-y="1014"></rect>
        <rect width="36" height="36" data-svg-origin="2 1010" transform="translate(1490, 1350)" data-x="2" data-y="1010"></rect>
        <rect width="36" height="36" data-svg-origin="423 960" transform="translate(1490, 1350)" data-x="423" data-y="960"></rect>
        <rect width="20" height="20" data-svg-origin="1012 270" transform="translate(1490, 1350)" data-x="1012" data-y="270"></rect>
        <rect width="36" height="36" data-svg-origin="676 354" transform="translate(1490, 1350)" data-x="676" data-y="354"></rect>
        <rect width="24" height="24" data-svg-origin="676 1132" transform="translate(1490, 1350)" data-x="676" data-y="1132"></rect>
        <rect width="59" height="59" data-svg-origin="929 610" transform="translate(1490, 1350)" data-x="929" data-y="610"></rect>
        <rect width="36" height="36" data-svg-origin="817 785" transform="translate(1490, 1350)" data-x="817" data-y="785"></rect>
        <rect width="36" height="36" data-svg-origin="1058 66" transform="translate(1490, 1350)" data-x="1058" data-y="66"></rect>
        <rect width="36" height="36" data-svg-origin="948 434" transform="translate(1490, 1350)" data-x="948" data-y="434"></rect>
        <rect width="36" height="36" data-svg-origin="463 633" transform="translate(1490, 1350)" data-x="463" data-y="633"></rect>
        <rect width="36" height="36" data-svg-origin="858 2" transform="translate(1490, 1350)" data-x="858" data-y="2"></rect>
        <rect width="36" height="36" data-svg-origin="165 1298" transform="translate(1490, 1350)" data-x="165" data-y="1298"></rect>
        <rect width="25" height="25" data-svg-origin="817 224" transform="translate(1490, 1350)" data-x="817" data-y="224"></rect>
        <rect width="18" height="18" data-svg-origin="628 1278" transform="translate(1490, 1350)" data-x="628" data-y="1278"></rect>
        <rect width="36" height="36" data-svg-origin="300 873" transform="translate(1490, 1350)" data-x="300" data-y="873"></rect>
        <rect width="36" height="36" data-svg-origin="499 1140" transform="translate(1490, 1350)" data-x="499" data-y="1140"></rect>
        <rect width="17" height="17" data-svg-origin="939 1132" transform="translate(1490, 1350)" data-x="939" data-y="1132"></rect>
        <rect width="36" height="36" data-svg-origin="352 1186" transform="translate(1490, 1350)" data-x="352" data-y="1186"></rect>
        <rect width="24" height="24" data-svg-origin="1558 1389" transform="translate(1490, 1350)" data-x="1558" data-y="1389"></rect>
        <rect width="36" height="36" data-svg-origin="728 499" transform="translate(1490, 1350)" data-x="728" data-y="499"></rect>
        <rect width="36" height="36" data-svg-origin="536 505" transform="translate(1490, 1350)" data-x="536" data-y="505"></rect>
        <rect width="36" height="36" data-svg-origin="645 982" transform="translate(1490, 1350)" data-x="645" data-y="982"></rect>
        <rect width="36" height="36" data-svg-origin="1498 140" transform="translate(1490, 1350)" data-x="1498" data-y="140"></rect>
        <rect width="42" height="42" data-svg-origin="516 351" transform="translate(1490, 1350)" data-x="516" data-y="351"></rect>
        <rect width="36" height="36" data-svg-origin="22 1153" transform="translate(1490, 1350)" data-x="22" data-y="1153"></rect>
        <rect width="36" height="36" data-svg-origin="1161 294" transform="translate(1490, 1350)" data-x="1161" data-y="294"></rect>
        <rect width="36" height="36" data-svg-origin="260 785" transform="translate(1490, 1350)" data-x="260" data-y="785"></rect>
        <rect width="36" height="36" data-svg-origin="392 1338" transform="translate(1490, 1350)" data-x="392" data-y="1338"></rect>
    </g>
</svg>