<?xml version="1.0" standalone="no"?>
<!DOCTYPE svg PUBLIC "-//W3C//DTD SVG 1.1//EN" "http://www.w3.org/Graphics/SVG/1.1/DTD/svg11.dtd" >
<svg xmlns="http://www.w3.org/2000/svg" xmlns:xlink="http://www.w3.org/1999/xlink" version="1.1">
<metadata>
Created by FontForge 20170731 at Wed Dec 29 09:46:55 2021
 By Aleksey,,,
Copyright 2021 Dinamo (Johannes Breyer, Fabian Harb) &#38; Erkin Karamemet. All rights reserved.
</metadata>
<defs>
<font id="ABCWhyte-Light" horiz-adv-x="1269" >
  <font-face 
    font-family="ABC Whyte Light"
    font-weight="300"
    font-stretch="normal"
    units-per-em="2048"
    panose-1="2 11 0 4 4 2 2 6 2 3"
    ascent="1649"
    descent="-399"
    x-height="1010"
    cap-height="1434"
    bbox="-395 -604 2322 2013"
    underline-thickness="102"
    underline-position="-307"
    unicode-range="U+0020-FB02"
  />
<missing-glyph horiz-adv-x="1431" 
d="M1208 0h-985v1436h985v-1436zM346 1317v-1200h739v1200h-739z" />
    <glyph glyph-name="fi" unicode="fi" horiz-adv-x="1220" 
d="M1038 1010v-1010h-137v895h-483v-895h-135v895h-244v115h244v155q0 269 270 269h182v-119h-168q-77 0 -113 -37t-36 -113v-155h620zM897 1225v209h143v-209h-143z" />
    <glyph glyph-name="fl" unicode="fl" horiz-adv-x="1216" 
d="M1034 1434v-1434h-137v1315h-330q-77 0 -113 -37t-36 -113v-155h282v-115h-282v-895h-135v895h-244v115h244v155q0 269 270 269h481z" />
    <glyph glyph-name="f_f" unicode="ff" horiz-adv-x="1388" 
d="M1389 1434v-119h-168q-77 0 -113.5 -37t-36.5 -113v-155h283v-115h-283v-895h-135v895h-518v-895h-135v895h-244v115h244v155q0 269 270 269h182v-119h-168q-77 0 -113 -37t-36 -113v-155h518v155q0 269 270 269h183z" />
    <glyph glyph-name="f_f_i" unicode="ffi" horiz-adv-x="1916" 
d="M1735 1010v-1010h-138v895h-526v-895h-135v895h-518v-895h-135v895h-244v115h244v155q0 269 270 269h182v-119h-168q-77 0 -113 -37t-36 -113v-155h518v155q0 269 270 269h183v-119h-168q-77 0 -113.5 -37t-36.5 -113v-155h664zM1593 1225v209h144v-209h-144z" />
    <glyph glyph-name="f_f_l" unicode="ffl" horiz-adv-x="1908" 
d="M1724 1434v-1434h-135v1315h-368q-77 0 -113.5 -37t-36.5 -113v-155h283v-115h-283v-895h-135v895h-518v-895h-135v895h-244v115h244v155q0 269 270 269h182v-119h-168q-77 0 -113 -37t-36 -113v-155h518v155q0 269 270 269h518z" />
    <glyph glyph-name=".notdef" horiz-adv-x="1431" 
d="M1208 0h-985v1436h985v-1436zM346 1317v-1200h739v1200h-739z" />
    <glyph glyph-name=".null" horiz-adv-x="0" 
 />
    <glyph glyph-name="nonmarkingreturn" horiz-adv-x="682" 
 />
    <glyph glyph-name="space" unicode=" " horiz-adv-x="555" 
 />
    <glyph glyph-name="exclam" unicode="!" horiz-adv-x="542" 
d="M305 420h-69l-35 631v383h143v-387zM369 0h-193v225h193v-225z" />
    <glyph glyph-name="quotedbl" unicode="&#x22;" horiz-adv-x="774" 
d="M252 936h-76l-33 350v148h142v-148zM598 936h-76l-33 350v148h142v-148z" />
    <glyph glyph-name="numbersign" unicode="#" horiz-adv-x="1429" 
d="M387 0h-127l47 236q5 24 41 188h-153h-115v121h291l75 358h-264v123h291l84 408h129l-43 -211q-17 -74 -43 -197h150h208l86 408h130l-44 -211q-10 -49 -40 -197h151h109v-123h-287l-76 -358h260v-121h-282l-88 -424h-132l52 236l37 188h-156h-203zM575 903l-73 -358h358
l76 358h-361z" />
    <glyph glyph-name="dollar" unicode="$" horiz-adv-x="1212" 
d="M662 -219h-115v194q-179 17 -300 113.5t-171 255.5l133 62q34 -121 123 -201t215 -99v580l-60 16q-77 20 -136.5 48t-109 71t-76 107.5t-26.5 146.5q0 160 113.5 264t294.5 119v189h115v-189q95 -8 174.5 -41.5t130.5 -80.5t82.5 -95t44.5 -96l-129 -64q-9 28 -22.5 55.5
t-39 60.5t-57.5 58.5t-80 46t-104 27.5v-528l88 -27q366 -100 366 -393q0 -175 -119.5 -285.5t-334.5 -122.5v-192zM547 829v240v262q-122 -11 -196.5 -77.5t-74.5 -168.5q0 -101 63.5 -159t207.5 -97zM662 102q145 9 228 81.5t83 187.5q0 112 -73 178.5t-238 109.5v-264
v-293z" />
    <glyph glyph-name="percent" unicode="%" horiz-adv-x="1742" 
d="M418 610q-153 0 -241.5 114t-88.5 310q0 187 90.5 300.5t239.5 113.5q147 0 235 -113t88 -301q0 -196 -86.5 -310t-236.5 -114zM436 0h-143l1016 1434h141zM418 715q91 0 144.5 85t53.5 234q0 141 -54 225t-144 84q-94 0 -150.5 -84t-56.5 -225q0 -148 56 -233.5
t151 -85.5zM1329 -10q-153 0 -241.5 114t-88.5 310q0 187 90.5 300t239.5 113q148 0 236 -112.5t88 -300.5q0 -196 -87 -310t-237 -114zM1329 94q91 0 145 86t54 234q0 141 -54 225t-145 84q-94 0 -149.5 -84t-55.5 -225q0 -149 55.5 -234.5t149.5 -85.5z" />
    <glyph glyph-name="ampersand" unicode="&#x26;" horiz-adv-x="1337" 
d="M545 -27q-208 0 -325.5 107.5t-117.5 275.5q0 123 65 220t206 186q-97 186 -97 350t93.5 256t238.5 92q143 0 229.5 -82t86.5 -209q0 -132 -87.5 -230t-297.5 -214q59 -92 157 -201q110 -116 238 -215q94 142 135 359l129 -45q-48 -224 -156 -387q134 -89 267 -148
l-52 -115q-153 69 -292 164q-164 -164 -420 -164zM481 825l68 39q140 80 193 153.5t53 151.5q0 71 -49 126t-140 55q-93 0 -148 -64t-55 -172q0 -133 78 -289zM553 92q176 0 303 121q-171 135 -291 274q-66 74 -133 172q-190 -126 -190 -290q0 -125 88 -201t223 -76z" />
    <glyph glyph-name="quotesingle" unicode="'" horiz-adv-x="428" 
d="M252 936h-76l-33 350v148h142v-148z" />
    <glyph glyph-name="parenleft" unicode="(" horiz-adv-x="638" 
d="M582 -199v-129q-125 34 -217 123t-145 218.5t-78 279.5t-25 325t24.5 324.5t77.5 279.5t145 219.5t218 125.5v-131q-165 -53 -251.5 -272t-86.5 -546q0 -329 86.5 -546.5t251.5 -270.5z" />
    <glyph glyph-name="parenright" unicode=")" horiz-adv-x="638" 
d="M55 1438v129q126 -34 218.5 -123t145.5 -218.5t78 -279.5t25 -325q0 -138 -15 -261t-50 -237.5t-88 -203t-133 -153.5t-181 -94v131q166 53 253 272t87 546q-2 331 -88 547.5t-252 269.5z" />
    <glyph glyph-name="asterisk" unicode="*" horiz-adv-x="1058" 
d="M528 1110l-151 -281l-113 66l45 72q27 44 71 114.5t60 96.5q-129 -9 -254 -9h-75v125l319 -12l-168 270l111 68l37 -70q28 -54 118 -219q11 22 54.5 103t64.5 122l35 64l111 -66l-170 -272l325 10v-123h-78q-107 0 -254 7l121 -197l54 -82l-117 -66z" />
    <glyph glyph-name="plus" unicode="+" horiz-adv-x="1247" 
d="M690 170h-131v487h-477v131h477v488l131 -2v-486h477v-131h-477v-487z" />
    <glyph glyph-name="comma" unicode="," horiz-adv-x="520" 
d="M223 -258h-94l141 258h-102v225h192v-225z" />
    <glyph glyph-name="hyphen" unicode="-" horiz-adv-x="817" 
d="M666 561h-514v144h514v-144z" />
    <glyph glyph-name="period" unicode="." horiz-adv-x="495" 
d="M344 0h-192v225h192v-225z" />
    <glyph glyph-name="slash" unicode="/" horiz-adv-x="839" 
d="M209 -219h-137l559 1874h135z" />
    <glyph glyph-name="zero" unicode="0" horiz-adv-x="1390" 
d="M698 -27q-255 0 -412 197.5t-157 556.5q0 176 45 317.5t123.5 231t181 137t219.5 47.5t218.5 -47.5t179 -137t122 -231t44.5 -317.5q0 -182 -42 -326t-117 -237t-178 -142t-227 -49zM698 102q194 0 303 169.5t109 455.5q0 271 -110.5 437.5t-301.5 166.5
q-194 0 -305.5 -166.5t-111.5 -437.5q0 -286 110 -455.5t307 -169.5z" />
    <glyph glyph-name="one" unicode="1" horiz-adv-x="823" 
d="M598 0h-141v1010v209q-62 -102 -168 -179.5t-223 -103.5v151q131 39 242.5 126.5t183.5 220.5h106v-1434z" />
    <glyph glyph-name="two" unicode="2" horiz-adv-x="1165" 
d="M1047 0h-918v158q127 82 223.5 151.5t199.5 158.5t169 171t108.5 178.5t42.5 190.5q0 156 -86.5 239.5t-216.5 83.5q-47 0 -91 -12.5t-83.5 -40t-68.5 -68t-46 -100t-16 -131.5l-145 20q1 212 126 336.5t326 124.5q208 0 330.5 -121.5t122.5 -314.5q0 -210 -135 -387
q-179 -241 -598 -504h323h433v-133z" />
    <glyph glyph-name="three" unicode="3" horiz-adv-x="1189" 
d="M596 -27q-217 0 -349 116t-141 314l150 35q1 -154 94.5 -246t245.5 -92q138 0 226.5 78.5t88.5 204.5q0 133 -91 212t-234 79h-113v127h113q123 0 208 73.5t85 194.5q0 119 -82 191.5t-207 72.5q-130 0 -210.5 -80t-86.5 -211l-148 29q9 168 131.5 278.5t313.5 110.5
q201 0 318.5 -105.5t117.5 -264.5q0 -131 -77 -222t-195 -125q135 -27 221 -127t86 -247q0 -78 -30 -148.5t-86 -126t-146.5 -88.5t-202.5 -33z" />
    <glyph glyph-name="four" unicode="4" horiz-adv-x="1181" 
d="M879 0h-140v406h-676v133l601 895h215v-906h227v-122h-227v-406zM475 528h264v525v268l-532 -793h268z" />
    <glyph glyph-name="five" unicode="5" horiz-adv-x="1202" 
d="M604 -27q-211 0 -337 100t-156 255l145 51q22 -136 115 -207.5t227 -71.5q151 0 243.5 92t92.5 250q0 159 -89.5 249.5t-244.5 90.5q-194 0 -301 -174l-160 25l115 801h786v-134h-680l-45 -323q-15 -126 -34 -244q129 172 350 172q212 0 332 -126.5t120 -332.5
q0 -212 -131.5 -342.5t-347.5 -130.5z" />
    <glyph glyph-name="six" unicode="6" horiz-adv-x="1236" 
d="M647 -27q-111 0 -203.5 41t-163.5 123.5t-111 218.5t-40 314q0 172 42 315.5t122.5 250t206 165.5t284.5 59q152 0 265 -45v-143q-130 51 -258 51q-250 0 -389.5 -185.5t-131.5 -506.5q36 117 143 203t261 86q106 0 193.5 -37.5t144 -101.5t87.5 -147t31 -175
q0 -96 -32 -183t-91 -155t-152.5 -108t-207.5 -40zM647 100q141 0 236.5 95.5t95.5 253.5t-95.5 252t-236.5 94q-139 0 -235.5 -96.5t-96.5 -249.5q0 -155 96.5 -252t235.5 -97z" />
    <glyph glyph-name="seven" unicode="7" horiz-adv-x="1044" 
d="M438 0h-159q0 816 589 1300h-299h-514v134h949v-148q-141 -120 -243.5 -247.5t-164.5 -247t-98 -256.5t-48.5 -260.5t-11.5 -274.5z" />
    <glyph glyph-name="eight" unicode="8" horiz-adv-x="1232" 
d="M616 -27q-123 0 -218 33t-152.5 89.5t-87 128t-29.5 153.5q0 143 86 242.5t213 125.5q-112 35 -185 123t-73 219q0 163 122.5 268t323.5 105q202 0 325.5 -105t123.5 -268q0 -131 -73 -219t-183 -123q129 -29 213 -127.5t84 -240.5q0 -82 -29.5 -153.5t-88 -128
t-154 -89.5t-218.5 -33zM616 805q133 0 218.5 73t85.5 197q0 117 -85 188.5t-219 71.5q-132 0 -216.5 -71.5t-84.5 -188.5q0 -124 85 -197t216 -73zM616 100q156 0 247 78.5t91 210.5t-92 214.5t-246 82.5q-152 0 -244.5 -82.5t-92.5 -214.5t91.5 -210.5t245.5 -78.5z" />
    <glyph glyph-name="nine" unicode="9" horiz-adv-x="1236" 
d="M483 -27q-182 0 -295 62v147q127 -69 291 -69q201 0 328 139q161 172 158 541q-28 -88 -92 -151t-144 -92.5t-168 -29.5q-107 0 -194 36.5t-142 98.5t-84.5 143t-29.5 173q0 97 30.5 184.5t88 156t149 108.5t205.5 40q205 0 344 -133q178 -170 178 -555
q0 -372 -164.5 -585.5t-458.5 -213.5zM590 643q143 0 238.5 95t95.5 251q0 155 -95.5 249.5t-238.5 94.5t-237.5 -93t-94.5 -251q0 -161 94.5 -253.5t237.5 -92.5z" />
    <glyph glyph-name="colon" unicode=":" horiz-adv-x="495" 
d="M344 760h-192v227h192v-227zM344 0h-192v225h192v-225z" />
    <glyph glyph-name="semicolon" unicode=";" horiz-adv-x="548" 
d="M379 760h-195v227h195v-227zM242 -258h-95l142 258h-103v225h193v-225z" />
    <glyph glyph-name="less" unicode="&#x3c;" horiz-adv-x="1327" 
d="M80 821l1098 461v-149l-682 -283q-125 -50 -310 -127l312 -129l680 -283v-155l-1098 465v200z" />
    <glyph glyph-name="equal" unicode="=" horiz-adv-x="1419" 
d="M1260 866h-1100v131h1100v-131zM1260 442h-1100v131h1100v-131z" />
    <glyph glyph-name="greater" unicode="&#x3e;" horiz-adv-x="1327" 
d="M1247 616l-1097 -460v149l681 285q125 50 310 127q-132 52 -310 127l-681 284v154l1097 -463v-203z" />
    <glyph glyph-name="question" unicode="?" horiz-adv-x="970" 
d="M510 420h-133q0 88 19.5 151.5t53 107.5t93.5 97q110 100 154 165t44 151q0 110 -70.5 175.5t-185.5 65.5q-130 0 -200.5 -87.5t-67.5 -246.5l-137 23q-3 200 107.5 318t297.5 118q174 0 288 -100t114 -262q0 -112 -56 -200t-194 -208q-75 -64 -100 -117.5t-27 -150.5z
M541 0h-193v225h193v-225z" />
    <glyph glyph-name="at" unicode="@" horiz-adv-x="1843" 
d="M958 -244q-258 0 -450 100t-297 293t-105 457q0 156 41 291t116 237t178.5 174.5t231.5 110t271 37.5q240 0 428 -99.5t291.5 -274.5t103.5 -394q0 -118 -32 -217t-85 -164t-122 -101t-144 -36q-98 0 -146 47t-56 121q-46 -77 -119.5 -123.5t-169.5 -46.5
q-154 0 -249 118t-95 312q0 195 97.5 315.5t248.5 120.5q50 0 93.5 -12t73 -29t54.5 -40t38 -40.5t24 -35.5v131h120v-629q0 -98 97 -98q98 0 170.5 112.5t72.5 296.5q0 140 -50 260t-139.5 206t-219.5 134.5t-285 48.5q-154 0 -284 -49.5t-223.5 -142t-146 -231.5
t-52.5 -310q0 -231 90.5 -398t252 -251t377.5 -84q309 0 519 150l57 -109q-110 -73 -258 -115.5t-318 -42.5zM924 276q108 0 184 92t76 244q0 148 -69.5 233t-186.5 85q-111 0 -180.5 -88t-69.5 -236q0 -151 68.5 -240.5t177.5 -89.5z" />
    <glyph glyph-name="A" unicode="A" horiz-adv-x="1376" 
d="M1325 0h-162l-153 420h-650l-153 -420h-158l543 1434h196zM596 1069l-188 -518h555l-189 518q-23 66 -52 146t-36 100q-13 -32 -44 -118.5t-46 -127.5z" />
    <glyph glyph-name="B" unicode="B" horiz-adv-x="1425" 
d="M995 750q56 -11 108 -38t97 -69.5t72.5 -107.5t27.5 -142q0 -184 -122.5 -288.5t-317.5 -104.5h-637v1434h596q204 0 315 -97t111 -258q0 -71 -24 -131t-63 -99t-79.5 -63t-83.5 -36zM799 1300h-432v-491h432q140 0 218.5 69.5t78.5 182.5q0 110 -78 174.5t-219 64.5z
M367 133h471q145 0 228 77t83 198q0 122 -82.5 197t-226.5 75h-473v-547z" />
    <glyph glyph-name="C" unicode="C" horiz-adv-x="1499" 
d="M799 -27q-128 0 -237.5 38.5t-190.5 108t-138 164.5t-85.5 209.5t-28.5 241.5q0 209 82.5 373.5t238 258t359.5 93.5q109 0 204 -27.5t161.5 -70.5t118.5 -100t81.5 -111t44.5 -107l-143 -53q-13 44 -34.5 86.5t-61 89.5t-89 82t-123 57.5t-159.5 22.5
q-245 0 -386 -159.5t-141 -432.5q0 -183 62.5 -325.5t183 -225t281.5 -82.5q360 0 477 357l141 -55q-22 -67 -56 -126.5t-87 -116.5t-119.5 -98.5t-158 -66.5t-197.5 -25z" />
    <glyph glyph-name="D" unicode="D" horiz-adv-x="1484" 
d="M662 0h-439v1434h443q319 0 509.5 -193.5t190.5 -519.5q0 -333 -186 -527t-518 -194zM367 1300v-1167h268q287 0 433 151t146 437q0 272 -145.5 425.5t-425.5 153.5h-276z" />
    <glyph glyph-name="E" unicode="E" horiz-adv-x="1304" 
d="M1204 0h-981v1434h981v-134h-837v-489h628v-131h-628v-547h837v-133z" />
    <glyph glyph-name="F" unicode="F" horiz-adv-x="1286" 
d="M367 0h-144v1434h1016v-134h-872v-522h680v-131h-680v-647z" />
    <glyph glyph-name="G" unicode="G" horiz-adv-x="1599" 
d="M795 -27q-206 0 -360 94.5t-235 264t-81 391.5q0 160 54 298t147.5 234t223.5 150.5t279 54.5q112 0 210 -27.5t166.5 -71t122.5 -101.5t86 -114t50 -114l-143 -59q-23 69 -60.5 128t-95.5 112t-145 83.5t-193 30.5q-116 0 -216 -41t-174 -116.5t-116.5 -190
t-42.5 -254.5q0 -282 146 -451.5t393 -169.5q109 0 201 36t154.5 98t99 143.5t41.5 173.5h-525v133h670v-688h-139v299q-23 -58 -60.5 -110.5t-98 -103.5t-153.5 -81.5t-206 -30.5z" />
    <glyph glyph-name="H" unicode="H" horiz-adv-x="1572" 
d="M367 0h-144v1434h144v-623h841v623h144v-1434h-144v678h-841v-678z" />
    <glyph glyph-name="I" unicode="I" horiz-adv-x="587" 
d="M367 0h-144v1434h144v-1434z" />
    <glyph glyph-name="J" unicode="J" horiz-adv-x="1005" 
d="M430 -27q-182 0 -282 119t-93 336l148 39q-12 -181 49 -273t176 -92q229 0 229 332v1000h144v-1014q0 -447 -371 -447z" />
    <glyph glyph-name="K" unicode="K" horiz-adv-x="1370" 
d="M1376 0h-188l-590 733l-231 -239v-494h-144v1434h144v-439v-321l710 760h193l-574 -596z" />
    <glyph glyph-name="L" unicode="L" horiz-adv-x="1171" 
d="M1145 0h-922v1434h144v-1299h778v-135z" />
    <glyph glyph-name="M" unicode="M" horiz-adv-x="1890" 
d="M367 0h-144v1434h234l397 -961l96 -235l99 237l393 959h227v-1434h-143v903v383l-527 -1286h-104l-528 1286v-385v-901z" />
    <glyph glyph-name="N" unicode="N" horiz-adv-x="1622" 
d="M367 0h-144v1434h191l843 -1203v308v895h144v-1434h-152l-882 1257v-339v-918z" />
    <glyph glyph-name="O" unicode="O" horiz-adv-x="1636" 
d="M819 -27q-197 0 -357 93.5t-252.5 264.5t-92.5 388q0 163 54 302t148 235t223 150t277 54t277 -54t222.5 -150t147.5 -235t54 -302t-54 -302.5t-147.5 -236.5t-223 -152t-276.5 -55zM819 104q162 0 288 81.5t193.5 221.5t67.5 312t-68 311t-194 219t-287 80
q-162 0 -288 -80t-193.5 -218.5t-67.5 -311.5t67.5 -313t193.5 -221t288 -81z" />
    <glyph glyph-name="P" unicode="P" horiz-adv-x="1304" 
d="M367 0h-144v1434h549q218 0 339.5 -117t121.5 -303q0 -189 -122.5 -306.5t-342.5 -117.5h-401v-590zM367 1300v-583h374q166 0 253 84.5t87 212.5q0 127 -84.5 206.5t-255.5 79.5h-374z" />
    <glyph glyph-name="Q" unicode="Q" horiz-adv-x="1662" 
d="M819 -27q-197 0 -357 93.5t-252.5 264.5t-92.5 388q0 163 54 302t148 235t223 150t277 54t277 -54t222.5 -150t147.5 -235t54 -302q0 -287 -160 -490q56 -68 115.5 -95.5t150.5 -27.5v-133q-124 0 -206 37.5t-152 122.5q-193 -160 -449 -160zM819 104q209 0 359 140
l-76 112q-37 50 -65.5 80.5t-70.5 63t-93 45t-111 6.5v137q197 27 332 -129q69 -77 168 -213q106 156 106 373q0 172 -68 311t-194 219t-287 80q-162 0 -288 -80t-193.5 -218.5t-67.5 -311.5t67.5 -313t193.5 -221t288 -81z" />
    <glyph glyph-name="R" unicode="R" horiz-adv-x="1388" 
d="M367 0h-144v1434h568q202 0 324 -109t122 -281q0 -147 -89.5 -245.5t-234.5 -128.5q129 -22 191 -91.5t88 -197.5l84 -381h-156l-73 367q-27 134 -101.5 192.5t-226.5 58.5h-352v-618zM367 1300v-552h403q141 0 228 73t87 205q0 131 -87.5 202.5t-227.5 71.5h-403z" />
    <glyph glyph-name="S" unicode="S" horiz-adv-x="1257" 
d="M635 -27q-210 0 -351 99.5t-198 271.5l141 66q41 -137 149.5 -221.5t264.5 -84.5q164 0 259 73t95 196q0 203 -282 270l-205 53q-354 88 -354 379q0 173 132.5 279t338.5 106q111 0 202.5 -31.5t149.5 -82t93 -101t52 -102.5l-135 -64q-12 32 -28 61.5t-47 65.5
t-69.5 62.5t-98.5 44.5t-130 18q-143 0 -230 -68t-87 -180q0 -98 64 -156t204 -96l199 -49q177 -43 280 -143.5t103 -255.5q0 -185 -135.5 -297.5t-376.5 -112.5z" />
    <glyph glyph-name="T" unicode="T" horiz-adv-x="1263" 
d="M690 0h-143v1300h-520v134h1210v-134h-547v-1300z" />
    <glyph glyph-name="U" unicode="U" horiz-adv-x="1433" 
d="M719 -27q-247 0 -381.5 144t-134.5 422v895h143v-871q0 -219 92 -336.5t281 -117.5t280 117.5t91 336.5v871h143v-895q0 -272 -131.5 -419t-382.5 -147z" />
    <glyph glyph-name="V" unicode="V" horiz-adv-x="1308" 
d="M760 0h-213l-467 1434h158l313 -983q25 -78 47.5 -151t34 -110t20.5 -63q4 11 34.5 102.5t60.5 188.5l327 1016h156z" />
    <glyph glyph-name="W" unicode="W" horiz-adv-x="1984" 
d="M635 0h-193l-350 1434h152l215 -912q44 -196 86 -362q13 53 98 346l266 928h172l271 -973q49 -176 86 -301q9 38 35 145t53 219l223 910h149l-366 -1434h-189l-270 958q-64 228 -78 289q-11 -37 -37 -129t-45 -160z" />
    <glyph glyph-name="X" unicode="X" horiz-adv-x="1284" 
d="M207 0h-174l520 743l-483 691h178l260 -381q18 -25 137 -195q21 31 65.5 94t67.5 97l264 385h170l-481 -686l520 -748h-180l-295 432q-85 127 -137 199q-21 -29 -66.5 -96.5t-70.5 -102.5z" />
    <glyph glyph-name="Y" unicode="Y" horiz-adv-x="1312" 
d="M731 0h-143v616l-514 818h172l315 -514l98 -162q10 15 26.5 41t39 62.5t35.5 58.5l305 514h170l-504 -813v-621z" />
    <glyph glyph-name="Z" unicode="Z" horiz-adv-x="1234" 
d="M1165 0h-1087v166l887 1134h-209h-631v134h1010v-146l-906 -1155h205h731v-133z" />
    <glyph glyph-name="bracketleft" unicode="[" horiz-adv-x="673" 
d="M614 -307h-409v1853h409v-112h-280v-1629h280v-112z" />
    <glyph glyph-name="backslash" unicode="\" horiz-adv-x="841" 
d="M770 -219h-139l-559 1874h139z" />
    <glyph glyph-name="bracketright" unicode="]" horiz-adv-x="673" 
d="M59 1546h410v-1853h-410v112h281v1629h-281v112z" />
    <glyph glyph-name="asciicircum" unicode="^" horiz-adv-x="1011" 
d="M254 686h-150l314 748h174l317 -748h-147l-152 373q-41 95 -106 260q-9 -24 -46 -115.5t-57 -144.5z" />
    <glyph glyph-name="underscore" unicode="_" horiz-adv-x="1198" 
d="M1094 -266h-990v127h990v-127z" />
    <glyph glyph-name="grave" unicode="`" horiz-adv-x="552" 
d="M401 1161h-94l-217 264h182z" />
    <glyph glyph-name="a" unicode="a" horiz-adv-x="1099" 
d="M432 -27q-145 0 -231 74.5t-86 202.5q0 79 35.5 144t95.5 109.5t144.5 77t178 50t201.5 24.5v47q0 100 -61.5 159t-186.5 59q-230 0 -295 -193l-131 45q13 48 44.5 93t82 85t128 64t171.5 24q194 0 288.5 -94t94.5 -250v-487q0 -48 20 -68t60 -20h96v-119h-116
q-96 0 -137.5 43t-47.5 139q-112 -209 -348 -209zM461 88q58 0 111 20t98.5 60.5t72.5 110t27 159.5v115q-109 -8 -199.5 -28.5t-163 -55.5t-113 -88t-40.5 -121q0 -79 54.5 -125.5t152.5 -46.5z" />
    <glyph glyph-name="b" unicode="b" horiz-adv-x="1179" 
d="M657 -27q-125 0 -212.5 61t-129.5 148v-182h-131v1434h135v-408v-195q38 85 123.5 146t214.5 61q85 0 159.5 -34.5t132 -99t91 -167.5t33.5 -231t-33.5 -231t-91.5 -168t-132.5 -99.5t-158.5 -34.5zM625 92q137 0 222 102t85 312q0 211 -85 312.5t-222 101.5
q-138 0 -226 -105.5t-88 -308.5t88 -308.5t226 -105.5z" />
    <glyph glyph-name="c" unicode="c" horiz-adv-x="1073" 
d="M571 -27q-210 0 -338.5 145t-128.5 388q0 231 130 381.5t335 150.5q161 0 269 -83t143 -205l-129 -43q-29 93 -100.5 152t-184.5 59q-137 0 -228 -107.5t-91 -304.5q0 -199 90.5 -306.5t232.5 -107.5q65 0 117.5 21t87.5 57.5t57.5 77.5t34.5 88l131 -43
q-45 -143 -156 -231.5t-272 -88.5z" />
    <glyph glyph-name="d" unicode="d" horiz-adv-x="1179" 
d="M524 -27q-85 0 -159.5 34.5t-132.5 99t-92 167.5t-34 230q0 128 34 231t92 168.5t132.5 100t159.5 34.5q127 0 211.5 -61.5t126.5 -147.5v197v408h135v-1434h-133v182q-42 -87 -129.5 -148t-210.5 -61zM555 92q139 0 226 104.5t87 307.5q0 204 -87 310t-226 106
q-65 0 -119 -24t-97 -73t-67 -130.5t-24 -188.5q0 -210 85.5 -311t221.5 -101z" />
    <glyph glyph-name="e" unicode="e" horiz-adv-x="1091" 
d="M555 -27q-207 0 -328 140t-121 403q0 239 127 380.5t316 141.5q212 0 332.5 -156.5t97.5 -398.5h-735q2 -107 29 -186t72 -122.5t98 -64t116 -20.5q62 0 114.5 20.5t87.5 54t58 68.5t37 72l125 -47q-45 -126 -156.5 -205.5t-269.5 -79.5zM246 594h598q-1 81 -25.5 145.5
t-66 104.5t-93.5 61t-110 21q-127 0 -210.5 -92.5t-92.5 -239.5z" />
    <glyph glyph-name="f" unicode="f" horiz-adv-x="735" 
d="M418 895v-895h-135v895h-244v115h244v155q0 269 270 269h182v-119h-168q-77 0 -113 -37t-36 -113v-155h282v-115h-282z" />
    <glyph glyph-name="g" unicode="g" horiz-adv-x="1183" 
d="M813 -399h-475q-262 0 -262 198q0 70 41 126.5t98 90.5q-94 48 -94 152q0 68 45.5 124t112.5 95q-56 47 -89.5 119t-33.5 160q0 158 110.5 265t282.5 107q119 0 211 -55t131 -137q8 76 52 120t118 44h92v-115h-63q-34 0 -56.5 -5t-44 -20t-33 -48t-12.5 -85l-2 -65
q-7 -170 -116.5 -273.5t-276.5 -103.5q-113 0 -191 41q-52 -22 -84 -59t-32 -76q0 -37 27 -58.5t81 -21.5h453q137 0 222 -70t85 -190q0 -128 -84.5 -194t-212.5 -66zM549 406q118 0 190 72.5t72 187.5q0 114 -73 187t-187 73q-117 0 -187.5 -72.5t-70.5 -187.5
q0 -116 69.5 -188t186.5 -72zM375 -283h420q178 0 178 142q0 141 -191 141h-479q-38 -21 -71 -65t-33 -95q0 -62 40.5 -92.5t135.5 -30.5z" />
    <glyph glyph-name="h" unicode="h" horiz-adv-x="1187" 
d="M319 0h-135v1434h133v-430v-187q8 27 30.5 60t62.5 71.5t107.5 64t148.5 25.5q178 0 266 -108t88 -287v-643h-137v610q0 153 -67.5 230.5t-190.5 77.5q-58 0 -105 -17t-78 -44t-54.5 -66.5t-36 -78.5t-20.5 -85.5t-10 -81.5t-2 -74v-471z" />
    <glyph glyph-name="i" unicode="i" horiz-adv-x="501" 
d="M322 1225h-144v209h144v-209zM319 0h-137v1010h137v-1010z" />
    <glyph glyph-name="j" unicode="j" horiz-adv-x="518" 
d="M338 1225h-143v209h143v-209zM84 -399h-160v123h137q140 0 140 151v1135h133v-1151q0 -129 -65 -193.5t-185 -64.5z" />
    <glyph glyph-name="k" unicode="k" horiz-adv-x="1138" 
d="M1128 0h-176l-424 508l-209 -189v-319h-135v1434h135v-648v-313l582 537h182l-456 -414z" />
    <glyph glyph-name="l" unicode="l" horiz-adv-x="501" 
d="M319 0h-135v1434h135v-1434z" />
    <glyph glyph-name="m" unicode="m" horiz-adv-x="1832" 
d="M319 0h-135v1010h131v-172q13 31 34.5 60.5t59 63.5t96.5 55t130 21q120 0 206.5 -64t119.5 -173q12 33 28.5 63.5t46 63t65.5 56t89 39t115 15.5q172 0 266 -99t94 -275v-664h-135v627q0 147 -68.5 217.5t-187.5 70.5q-57 0 -102 -16.5t-74.5 -41t-50.5 -62.5t-32 -72.5
t-17 -79t-7.5 -73t-1.5 -64.5v-506h-133v623q0 150 -68 221t-184 71q-58 0 -103.5 -16.5t-75 -41t-50.5 -64.5t-31.5 -74t-16.5 -83t-7 -78.5t-1 -72.5v-485z" />
    <glyph glyph-name="n" unicode="n" horiz-adv-x="1187" 
d="M319 0h-135v1010h131v-193q8 27 31 60.5t63 71.5t106 63.5t144 25.5q183 0 272 -108t89 -287v-643h-137v610q0 153 -67.5 230.5t-190.5 77.5q-58 0 -105 -17t-78 -44t-54.5 -66.5t-36 -78.5t-20.5 -85.5t-10 -81.5t-2 -74v-471z" />
    <glyph glyph-name="o" unicode="o" horiz-adv-x="1150" 
d="M575 -27q-94 0 -179.5 37t-151 104t-104 168.5t-38.5 221.5q0 121 38 223t103 169t151 104.5t181 37.5t180.5 -37.5t150.5 -104.5t103 -169t38 -223t-38.5 -222.5t-104 -168t-150.5 -103.5t-179 -37zM575 92q143 0 236.5 106.5t93.5 303.5q0 199 -94 307.5t-236 108.5
t-235.5 -108.5t-93.5 -307.5q0 -197 93.5 -303.5t235.5 -106.5z" />
    <glyph glyph-name="p" unicode="p" horiz-adv-x="1179" 
d="M319 -399h-135v1409h131v-181q42 86 130 147.5t212 61.5q84 0 158.5 -34.5t132.5 -99t91.5 -167.5t33.5 -231t-33.5 -231t-91 -168t-132 -99.5t-159.5 -34.5q-129 0 -213.5 61t-124.5 146v-194v-385zM625 92q137 0 222 102t85 312q0 211 -85 312.5t-222 101.5
q-138 0 -226 -105.5t-88 -308.5q0 -202 88 -308t226 -106z" />
    <glyph glyph-name="q" unicode="q" horiz-adv-x="1179" 
d="M997 -399h-135v385v194q-42 -86 -126.5 -146.5t-211.5 -60.5q-85 0 -159.5 34.5t-132.5 99t-92 167.5t-34 230q0 128 34 231t92 168.5t132.5 100t159.5 34.5q123 0 210.5 -61.5t129.5 -149.5v183h133v-1409zM555 92q139 0 227 105t88 307q0 203 -88 309.5t-227 106.5
q-65 0 -119 -24t-97 -73t-67 -130.5t-24 -188.5q0 -209 85.5 -310.5t221.5 -101.5z" />
    <glyph glyph-name="r" unicode="r" horiz-adv-x="806" 
d="M317 0h-133v1010h131v-230q14 41 40 81t66 78t100 61.5t130 23.5q72 0 119 -14v-138q-94 13 -127 13q-167 0 -246.5 -114t-79.5 -314v-457z" />
    <glyph glyph-name="s" unicode="s" horiz-adv-x="995" 
d="M506 -27q-170 0 -282.5 79.5t-137.5 209.5l129 41q19 -92 92 -153.5t199 -61.5q124 0 190 46.5t66 123.5q0 139 -203 184l-135 29q-49 11 -88 24t-79.5 35.5t-67.5 51t-44.5 72t-17.5 96.5q0 125 103 206.5t259 81.5q161 0 257.5 -71t125.5 -176l-120 -48
q-19 70 -84 126.5t-179 56.5q-110 0 -169.5 -47.5t-59.5 -114.5q0 -61 40.5 -100t139.5 -60l135 -29q324 -78 324 -307q0 -133 -101 -214t-292 -81z" />
    <glyph glyph-name="t" unicode="t" horiz-adv-x="786" 
d="M743 0h-190q-270 0 -270 256v639h-248v115h248v305h135v-305h289v-115h-289v-627q0 -149 149 -149h176v-119z" />
    <glyph glyph-name="u" unicode="u" horiz-adv-x="1171" 
d="M514 -27q-174 0 -260 103.5t-86 285.5v648h135v-615q0 -155 66 -228t184 -73q84 0 144.5 38.5t93 104.5t47 140.5t14.5 161.5v471h137v-1010h-133v201q-11 -24 -24.5 -47.5t-43 -58.5t-64.5 -60t-90.5 -43.5t-119.5 -18.5z" />
    <glyph glyph-name="v" unicode="v" horiz-adv-x="1040" 
d="M610 0h-174l-375 1010h146l201 -561q20 -55 59.5 -169t56.5 -157q4 11 115 323l190 564h140z" />
    <glyph glyph-name="w" unicode="w" horiz-adv-x="1675" 
d="M563 0h-160l-337 1010h141l166 -516q110 -342 114 -355q12 40 25 81t36.5 116.5t47.5 150.5l162 523h157l172 -547q41 -138 99 -322q18 52 117 357l167 512h144l-344 -1010h-168l-176 567q-25 79 -53 172t-37 121q-12 -35 -40 -125.5t-53 -165.5z" />
    <glyph glyph-name="x" unicode="x" horiz-adv-x="978" 
d="M197 0h-150l361 520l-336 490h159l148 -215q51 -83 113 -172q32 45 114 170l148 217h153l-338 -490l365 -520h-166l-166 244q-58 84 -117 174l-118 -174z" />
    <glyph glyph-name="y" unicode="y" horiz-adv-x="1032" 
d="M618 424l203 586h146l-414 -1162q-47 -138 -111.5 -192.5t-197.5 -54.5h-168v123h166q71 0 112 27.5t70 109.5l61 168l-444 981h149l250 -574q77 -175 101 -233q20 53 77 221z" />
    <glyph glyph-name="z" unicode="z" horiz-adv-x="983" 
d="M907 0h-817v121l612 770h-202h-396v119h775v-103l-627 -788h215h440v-119z" />
    <glyph glyph-name="braceleft" unicode="{" horiz-adv-x="667" 
d="M602 -307h-108q-230 0 -230 280v320q0 56 -4 92.5t-17 71.5t-36.5 54.5t-63 31.5t-96.5 12v123q71 0 115 16t66 52.5t29 79t7 112.5v328q0 137 54.5 208.5t175.5 71.5h108v-112h-82q-66 0 -96.5 -37t-30.5 -119v-365q0 -123 -42 -191t-144 -106q102 -38 144 -106t42 -191
v-358q0 -82 30.5 -119t96.5 -37h82v-112z" />
    <glyph glyph-name="bar" unicode="|" horiz-adv-x="538" 
d="M334 -219h-129v1874h129v-1874z" />
    <glyph glyph-name="braceright" unicode="}" horiz-adv-x="667" 
d="M66 1542h110q230 0 230 -280v-322q0 -55 4 -91.5t16.5 -71.5t36 -54t63 -31t97.5 -12v-125q-72 0 -116 -15.5t-66 -52t-28.5 -78.5t-6.5 -112v-328q0 -137 -54.5 -208.5t-175.5 -71.5h-110v112h81q68 0 98.5 37t30.5 119v365q0 123 42 190.5t145 105.5
q-103 38 -145 105.5t-42 189.5v361q0 81 -30.5 117t-98.5 36h-81v115z" />
    <glyph glyph-name="asciitilde" unicode="~" horiz-adv-x="1325" 
d="M885 618q-78 0 -207 58l-66 29q-113 49 -174 49q-101 0 -202 -109l-82 100q66 75 142.5 111.5t149.5 36.5q82 0 207 -55l64 -29q106 -49 176 -49q100 0 203 108l82 -100q-64 -74 -142.5 -112t-150.5 -38z" />
    <glyph glyph-name="uni00A0" unicode="&#xa0;" horiz-adv-x="555" 
 />
    <glyph glyph-name="exclamdown" unicode="&#xa1;" horiz-adv-x="526" 
d="M168 1122h192v-225h-192v225zM231 702h70l35 -630v-383h-146v387z" />
    <glyph glyph-name="cent" unicode="&#xa2;" horiz-adv-x="1085" 
d="M618 -244h-108v221q-180 22 -288.5 164.5t-108.5 364.5q0 213 110 359t287 169v217h108v-213q138 -13 231.5 -90.5t133.5 -187.5l-127 -47q-65 181 -238 202v-553v-266q55 6 100 29t74.5 58.5t48 73.5t29.5 81l131 -45q-45 -136 -141.5 -221.5t-241.5 -98.5v-217z
M510 102v523v286q-113 -23 -183.5 -127t-70.5 -278q0 -175 69.5 -279t184.5 -125z" />
    <glyph glyph-name="sterling" unicode="&#xa3;" horiz-adv-x="1181" 
d="M348 133h248h475v-133h-942v129q24 7 45.5 14.5t66.5 31.5t76.5 54t56.5 81.5t25 113.5q0 114 -65 225h-201v115h127q-44 68 -68 130.5t-24 139.5q0 100 38 182t102 134t144 80t166 28q82 0 157 -24t138.5 -70.5t106.5 -122.5t55 -172l-141 -41q-21 155 -109.5 229
t-214.5 74q-124 0 -209.5 -79t-85.5 -218q0 -54 16.5 -106.5t33.5 -82t51 -81.5h393v-115h-326q47 -92 47 -209q0 -98 -47.5 -177.5t-134.5 -129.5z" />
    <glyph glyph-name="currency" unicode="&#xa4;" horiz-adv-x="1320" 
d="M395 360l-168 -163l-88 88l166 166q-82 113 -82 268q0 152 82 272l-166 168l88 86l170 -162q113 86 265 86q146 0 264 -88l168 164l88 -86l-166 -168q84 -115 84 -270q0 -151 -84 -270l166 -166l-88 -88l-168 165q-117 -90 -264 -90q-149 0 -267 88zM662 397
q130 0 216.5 88t86.5 236t-86 235.5t-217 87.5q-132 0 -219 -87.5t-87 -237.5q0 -148 87 -235t219 -87z" />
    <glyph glyph-name="yen" unicode="&#xa5;" horiz-adv-x="1302" 
d="M1065 1434h172l-434 -676h280v-115h-350v-199h350v-114h-350v-330h-143v330h-369v114h369v199h-369v115h293l-448 676h172l315 -496q10 -15 106 -174q19 31 54 91t49 83z" />
    <glyph glyph-name="brokenbar" unicode="&#xa6;" horiz-adv-x="538" 
d="M334 821h-129v834h129v-834zM334 -219h-129v835h129v-835z" />
    <glyph glyph-name="section" unicode="&#xa7;" horiz-adv-x="1216" 
d="M604 -424q-99 0 -178.5 25.5t-130.5 69t-82 95.5t-43 111l139 53q58 -229 295 -229q119 0 189.5 59.5t70.5 155.5q0 81 -49.5 136t-157.5 87l-286 90q-289 88 -289 326q0 108 68 193.5t176 123.5q-119 85 -119 254q0 142 106 238t289 96q100 0 180.5 -27t130.5 -72.5
t80.5 -95.5t42.5 -104l-139 -55q-13 48 -35 87t-56.5 72.5t-86.5 52.5t-117 19q-116 0 -183 -59t-67 -148q0 -88 47.5 -135t161.5 -82l287 -88q287 -89 287 -323q0 -109 -68 -196t-178 -124q123 -104 123 -262q0 -151 -111 -247.5t-297 -96.5zM776 244q93 26 152 89.5
t59 151.5q0 82 -53 134.5t-156 82.5l-248 76q-52 16 -90 31q-92 -24 -150.5 -88t-58.5 -154q0 -84 52.5 -134t156.5 -83l248 -76q43 -10 88 -30z" />
    <glyph glyph-name="dieresis" unicode="&#xa8;" horiz-adv-x="792" 
d="M285 1219h-154v182h154v-182zM659 1219h-151v182h151v-182z" />
    <glyph glyph-name="copyright" unicode="&#xa9;" horiz-adv-x="1804" 
d="M903 -61q-220 0 -402 105t-285 285.5t-103 395.5q0 216 103 397.5t285 288.5t402 107q165 0 312 -63t251.5 -169.5t165 -253t60.5 -307.5t-60.5 -306.5t-165 -250.5t-251.5 -167t-312 -62zM903 45q143 0 269 53.5t214.5 145t139.5 216.5t51 265t-51 266.5t-139.5 219
t-214.5 146.5t-269 54t-269.5 -54t-215 -146.5t-140 -219t-51.5 -266.5t51.5 -265t140.5 -216.5t215 -145t269 -53.5zM907 299q-180 0 -282.5 117t-102.5 323q0 185 108 303.5t281 118.5q130 0 221 -68.5t123 -179.5l-104 -30q-29 87 -91 136.5t-153 49.5
q-119 0 -194.5 -90.5t-75.5 -247.5t73.5 -245.5t196.5 -88.5q98 0 164 62t90 149l105 -30q-34 -125 -127.5 -202t-231.5 -77z" />
    <glyph glyph-name="ordfeminine" unicode="&#xaa;" horiz-adv-x="1032" 
d="M459 592q-69 0 -130 27.5t-109.5 80t-76.5 137.5t-28 191q0 206 101.5 316t250.5 110q97 0 170 -42t111 -114v136h118v-822h-118v144q-87 -164 -289 -164zM498 698q113 0 183.5 86t70.5 242q0 158 -70 241t-184 83q-112 0 -182 -83.5t-70 -240.5q0 -156 70.5 -242
t181.5 -86z" />
    <glyph glyph-name="guillemotleft" unicode="&#xab;" horiz-adv-x="1021" 
d="M367 938h147l-264 -416l268 -426h-153l-265 422zM907 938l-264 -418l268 -424h-153l-264 422l266 420h147z" />
    <glyph glyph-name="logicalnot" unicode="&#xac;" horiz-adv-x="1413" 
d="M1241 350h-133v318h-954v131h1087v-449z" />
    <glyph glyph-name="uni00AD" unicode="&#xad;" horiz-adv-x="817" 
d="M666 561h-514v144h514v-144z" />
    <glyph glyph-name="registered" unicode="&#xae;" horiz-adv-x="1198" 
d="M598 547q-101 0 -191.5 38t-155 102.5t-102.5 155t-38 191.5q0 206 140 345t347 139t349.5 -139.5t142.5 -344.5t-142.5 -346t-349.5 -141zM598 635q171 0 283 112.5t112 286.5q0 173 -112 284.5t-283 111.5q-169 0 -280 -111.5t-111 -284.5q0 -174 111 -286.5
t280 -112.5zM516 803h-88v469h219q64 0 107 -34t43 -87q0 -51 -32 -82.5t-89 -40.5q45 -8 67 -29.5t31 -70.5l25 -125h-97l-20 117q-6 45 -24.5 63t-63.5 18h-78v-198zM516 1200v-129h107q38 0 61 17.5t23 48.5q0 30 -23.5 46.5t-62.5 16.5h-105z" />
    <glyph glyph-name="macron" unicode="&#xaf;" horiz-adv-x="747" 
d="M682 1217h-616v108h616v-108z" />
    <glyph glyph-name="degree" unicode="&#xb0;" horiz-adv-x="862" 
d="M428 922q-141 0 -232.5 93t-91.5 228q0 137 92.5 230.5t233.5 93.5q143 0 235.5 -93.5t92.5 -230.5q0 -139 -93 -230t-237 -91zM430 1032q92 0 146.5 58.5t54.5 154.5q0 94 -54.5 151.5t-146.5 57.5q-87 0 -144 -58t-57 -151q0 -96 57 -154.5t144 -58.5z" />
    <glyph glyph-name="plusminus" unicode="&#xb1;" horiz-adv-x="1447" 
d="M791 479h-132v328h-487v129h487v340l132 -2v-338h485v-129h-485v-328zM1274 172h-1102v133h1102v-133z" />
    <glyph glyph-name="uni00B2" unicode="&#xb2;" horiz-adv-x="741" 
d="M643 811h-539v111q71 46 122 82t107.5 83.5t91.5 90t58 93.5t23 101q0 73 -39 115.5t-105 42.5t-108.5 -50t-32.5 -145l-123 21q-7 123 67.5 200.5t199.5 77.5q120 0 193 -70t73 -184q0 -112 -80 -219q-91 -123 -291 -243h291h92v-107z" />
    <glyph glyph-name="uni00B3" unicode="&#xb3;" horiz-adv-x="749" 
d="M375 797q-129 0 -206 70.5t-79 189.5l121 26q-2 -84 42 -133t122 -49q66 0 107.5 37t41.5 98q0 64 -44.5 102t-121.5 38h-67v102h67q68 0 108 35.5t40 93.5q0 56 -36.5 90.5t-96.5 34.5q-66 0 -104.5 -44.5t-37.5 -119.5l-120 27q-1 105 73 172t189 67q114 0 185 -60.5
t71 -156.5q0 -61 -34 -110t-99 -76q74 -26 113.5 -78.5t39.5 -122.5q0 -104 -76 -168.5t-198 -64.5z" />
    <glyph glyph-name="acute" unicode="&#xb4;" horiz-adv-x="555" 
d="M246 1161h-94l129 264h184z" />
    <glyph glyph-name="uni00B5" unicode="&#xb5;" horiz-adv-x="1230" 
d="M342 -399h-135v1409h135v-623q0 -150 67 -222.5t185 -72.5q64 0 114 21.5t81 60t52 82t31 98t13.5 97t3.5 88.5v471h135v-1010h-133v195q-7 -21 -20.5 -45.5t-41.5 -57.5t-63 -59t-89 -44t-116 -18q-140 0 -219 82v-452z" />
    <glyph glyph-name="paragraph" unicode="&#xb6;" horiz-adv-x="1247" 
d="M545 1434h590v-113h-150v-1720h-129v1720h-221v-1720h-129v1020h-33q-80 0 -154 31t-129.5 84t-88.5 127.5t-33 156.5q0 129 66.5 225t173.5 142.5t237 46.5z" />
    <glyph glyph-name="periodcentered" unicode="&#xb7;" horiz-adv-x="495" 
d="M344 575h-192v226h192v-226z" />
    <glyph glyph-name="cedilla" unicode="&#xb8;" horiz-adv-x="624" 
d="M313 -422q-72 0 -130 26t-93 66l64 78q64 -74 151 -74q50 0 79.5 20t29.5 60q0 34 -30 54t-71 20q-40 0 -80 -14l-47 59l125 135l97 -8l-54 -49q-14 -16 -53 -55q16 2 43 2q76 0 128 -40t52 -112q0 -74 -56.5 -121t-154.5 -47z" />
    <glyph glyph-name="uni00B9" unicode="&#xb9;" horiz-adv-x="557" 
d="M399 811h-118v414v221q-40 -55 -96 -88t-115 -41v110q164 47 237 193h92v-809z" />
    <glyph glyph-name="ordmasculine" unicode="&#xba;" horiz-adv-x="980" 
d="M489 592q-162 0 -270 117t-108 315q0 199 107.5 314.5t270.5 115.5q164 0 272.5 -115.5t108.5 -314.5q0 -198 -108.5 -315t-272.5 -117zM489 698q113 0 179.5 84t66.5 240q0 159 -66.5 242.5t-179.5 83.5q-112 0 -177.5 -83.5t-65.5 -242.5q0 -156 66 -240t177 -84z" />
    <glyph glyph-name="guillemotright" unicode="&#xbb;" horiz-adv-x="1021" 
d="M111 938h153l264 -422l-266 -420h-149l264 416zM504 938h153l265 -422l-267 -420h-147l264 416z" />
    <glyph glyph-name="onequarter" unicode="&#xbc;" horiz-adv-x="1642" 
d="M412 625h-119v413v222q-82 -113 -213 -130v111q162 45 239 193h93v-809zM301 0h-143l1016 1434h143zM1446 0h-113v219h-370v90l337 500h146v-490h123v-100h-123v-219zM1255 319h78v117v238l-241 -355h163z" />
    <glyph glyph-name="onehalf" unicode="&#xbd;" horiz-adv-x="1613" 
d="M410 625h-119v413v222q-40 -55 -96 -88.5t-115 -41.5v111q164 47 237 193h93v-809zM301 0h-145l1018 1434h141zM1532 0h-541v111q73 47 123 82.5t107.5 84t92 90.5t58 92.5t23.5 100.5q0 73 -39 115.5t-105 42.5t-108.5 -49.5t-32.5 -145.5l-123 21q-7 123 67 200.5
t199 77.5q120 0 193.5 -69.5t73.5 -182.5q0 -114 -80 -221q-89 -119 -291 -244h289h94v-106z" />
    <glyph glyph-name="threequarters" unicode="&#xbe;" horiz-adv-x="1832" 
d="M377 610q-129 0 -207.5 71t-79.5 189l121 27q-2 -84 42 -133t122 -49q66 0 107.5 37t41.5 98q0 64 -44.5 101.5t-121.5 37.5h-67v103h67q68 0 109 35.5t41 93.5q0 56 -37.5 90.5t-97.5 34.5q-65 0 -104 -45t-36 -119l-122 26q0 105 74 172.5t188 67.5t185 -60.5
t71 -156.5q0 -62 -33.5 -111t-97.5 -76q73 -26 112 -78t39 -122q0 -104 -76 -169t-196 -65zM494 0h-144l1016 1434h141zM1638 0h-114v219h-371v90l338 500h147v-490h121v-100h-121v-219zM1446 319h78v117v238l-240 -355h162z" />
    <glyph glyph-name="questiondown" unicode="&#xbf;" horiz-adv-x="964" 
d="M428 1122h193v-227h-193v227zM459 700h135q-1 -88 -20.5 -151.5t-52.5 -107.5t-93 -97q-111 -101 -155 -165t-44 -150q0 -109 70 -174.5t184 -65.5q130 0 201 87t68 247l139 -23q3 -201 -108.5 -319.5t-299.5 -118.5q-172 0 -285.5 101t-113.5 262q0 112 55.5 199.5
t192.5 207.5q75 66 100.5 119t26.5 149z" />
    <glyph glyph-name="Agrave" unicode="&#xc0;" horiz-adv-x="1376" 
d="M604 1855l141 -264h-104l-238 264h201zM1325 0h-162l-153 420h-650l-153 -420h-158l543 1434h196zM596 1069l-188 -518h555l-189 518q-23 66 -52 146t-36 100q-13 -32 -44 -118.5t-46 -127.5z" />
    <glyph glyph-name="Aacute" unicode="&#xc1;" horiz-adv-x="1376" 
d="M774 1855h205l-240 -264h-104zM1325 0h-162l-153 420h-650l-153 -420h-158l543 1434h196zM596 1069l-188 -518h555l-189 518q-23 66 -52 146t-36 100q-13 -32 -44 -118.5t-46 -127.5z" />
    <glyph glyph-name="Acircumflex" unicode="&#xc2;" horiz-adv-x="1376" 
d="M887 1591l-197 166l-201 -166h-147l238 244h219l237 -244h-149zM1325 0h-162l-153 420h-650l-153 -420h-158l543 1434h196zM596 1069l-188 -518h555l-189 518q-23 66 -52 146t-36 100q-13 -32 -44 -118.5t-46 -127.5z" />
    <glyph glyph-name="Atilde" unicode="&#xc3;" horiz-adv-x="1376" 
d="M444 1599h-120q-3 109 54 166.5t154 57.5q81 0 164 -51l64 -41q62 -41 106 -41q48 0 71 27t26 81h120q1 -109 -55 -164t-154 -55q-80 0 -165 53l-66 41q-29 18 -40.5 24.5t-28.5 11.5t-37 5q-93 0 -93 -115zM1325 0h-162l-153 420h-650l-153 -420h-158l543 1434h196z
M596 1069l-188 -518h555l-189 518q-23 66 -52 146t-36 100q-13 -32 -44 -118.5t-46 -127.5z" />
    <glyph glyph-name="Adieresis" unicode="&#xc4;" horiz-adv-x="1376" 
d="M395 1774h168v-183h-168v183zM809 1774h168v-183h-168v183zM1325 0h-162l-153 420h-650l-153 -420h-158l543 1434h196zM596 1069l-188 -518h555l-189 518q-23 66 -52 146t-36 100q-13 -32 -44 -118.5t-46 -127.5z" />
    <glyph glyph-name="Aring" unicode="&#xc5;" horiz-adv-x="1376" 
d="M690 1563q-98 0 -163.5 65.5t-65.5 161.5q0 93 66 158t163 65q95 0 160 -65.5t65 -159.5q0 -95 -65 -160t-160 -65zM690 1919q-55 0 -91 -38t-36 -91q0 -56 35 -95.5t92 -39.5q53 0 88 39.5t35 93.5t-35 92.5t-88 38.5zM1325 0h-162l-153 420h-650l-153 -420h-158
l543 1434h196zM596 1069l-188 -518h555l-189 518q-23 66 -52 146t-36 100q-13 -32 -44 -118.5t-46 -127.5z" />
    <glyph glyph-name="AE" unicode="&#xc6;" horiz-adv-x="1894" 
d="M1790 1434v-134h-725v-483h537v-129h-537v-555h725v-133h-866v422h-527l-247 -422h-173l867 1434h946zM924 553v401v363q-142 -235 -222 -375l-229 -389h451z" />
    <glyph glyph-name="Ccedilla" unicode="&#xc7;" horiz-adv-x="1499" 
d="M870 -25l-26 -24l-53 -55q14 2 43 2q75 0 127.5 -40t52.5 -112q0 -74 -57.5 -121t-153.5 -47q-72 0 -130 26t-93 66l61 78q69 -74 154 -74q49 0 78.5 20t29.5 60q0 34 -29.5 54t-70.5 20q-40 0 -80 -14l-47 59l92 100q-153 6 -277 68t-205 165t-124 238.5t-43 290.5
q0 209 82.5 373.5t238 258t359.5 93.5q109 0 204 -27.5t161.5 -70.5t118.5 -100t81.5 -111t44.5 -107l-143 -53q-13 44 -34.5 86.5t-61 89.5t-89 82t-123 57.5t-159.5 22.5q-245 0 -386 -159.5t-141 -432.5q0 -183 62.5 -325.5t183 -225t281.5 -82.5q360 0 477 357l141 -55
q-26 -78 -69.5 -147t-108.5 -130.5t-160 -102.5t-209 -51z" />
    <glyph glyph-name="Egrave" unicode="&#xc8;" horiz-adv-x="1304" 
d="M768 1591h-104l-238 264h201zM1204 0h-981v1434h981v-134h-837v-489h628v-131h-628v-547h837v-133z" />
    <glyph glyph-name="Eacute" unicode="&#xc9;" horiz-adv-x="1304" 
d="M762 1591h-105l142 264h202zM1204 0h-981v1434h981v-134h-837v-489h628v-131h-628v-547h837v-133z" />
    <glyph glyph-name="Ecircumflex" unicode="&#xca;" horiz-adv-x="1304" 
d="M512 1591h-147l237 244h219l238 -244h-148l-198 166zM1204 0h-981v1434h981v-134h-837v-489h628v-131h-628v-547h837v-133z" />
    <glyph glyph-name="Edieresis" unicode="&#xcb;" horiz-adv-x="1304" 
d="M586 1591h-168v183h168v-183zM999 1591h-168v183h168v-183zM1204 0h-981v1434h981v-134h-837v-489h628v-131h-628v-547h837v-133z" />
    <glyph glyph-name="Igrave" unicode="&#xcc;" horiz-adv-x="587" 
d="M348 1591h-102l-240 264h201zM367 0h-144v1434h144v-1434z" />
    <glyph glyph-name="Iacute" unicode="&#xcd;" horiz-adv-x="587" 
d="M342 1591h-102l139 264h203zM367 0h-144v1434h144v-1434z" />
    <glyph glyph-name="Icircumflex" unicode="&#xce;" horiz-adv-x="587" 
d="M94 1591h-147l235 244h221l236 -244h-147l-199 166zM367 0h-144v1434h144v-1434z" />
    <glyph glyph-name="Idieresis" unicode="&#xcf;" horiz-adv-x="587" 
d="M166 1591h-168v183h168v-183zM580 1591h-168v183h168v-183zM367 0h-144v1434h144v-1434z" />
    <glyph glyph-name="Eth" unicode="&#xd0;" horiz-adv-x="1497" 
d="M233 1434h443q319 0 509.5 -193.5t190.5 -519.5q0 -333 -186 -527t-518 -194h-439v678h-161v119h161v637zM377 133h268q287 0 433.5 151t146.5 437q0 271 -146 425t-426 154h-276v-503h342v-119h-342v-545z" />
    <glyph glyph-name="Ntilde" unicode="&#xd1;" horiz-adv-x="1622" 
d="M999 1579q-80 0 -165 53l-66 41q-38 24 -57.5 32.5t-48.5 8.5q-93 0 -93 -115h-120q-1 109 55 166.5t153 57.5q81 0 164 -51l64 -41q65 -41 108 -41q88 0 94 108h121q1 -109 -55 -164t-154 -55zM367 0h-144v1434h191l843 -1203v308v895h144v-1434h-152l-882 1257v-339
v-918z" />
    <glyph glyph-name="Ograve" unicode="&#xd2;" horiz-adv-x="1636" 
d="M874 1591h-102l-237 264h200zM819 -27q-197 0 -357 93.5t-252.5 264.5t-92.5 388q0 163 54 302t148 235t223 150t277 54t277 -54t222.5 -150t147.5 -235t54 -302t-54 -302.5t-147.5 -236.5t-223 -152t-276.5 -55zM819 104q162 0 288 81.5t193.5 221.5t67.5 312t-68 311
t-194 219t-287 80q-162 0 -288 -80t-193.5 -218.5t-67.5 -311.5t67.5 -313t193.5 -221t288 -81z" />
    <glyph glyph-name="Oacute" unicode="&#xd3;" horiz-adv-x="1636" 
d="M870 1591h-104l141 264h203zM819 -27q-197 0 -357 93.5t-252.5 264.5t-92.5 388q0 163 54 302t148 235t223 150t277 54t277 -54t222.5 -150t147.5 -235t54 -302t-54 -302.5t-147.5 -236.5t-223 -152t-276.5 -55zM819 104q162 0 288 81.5t193.5 221.5t67.5 312t-68 311
t-194 219t-287 80q-162 0 -288 -80t-193.5 -218.5t-67.5 -311.5t67.5 -313t193.5 -221t288 -81z" />
    <glyph glyph-name="Ocircumflex" unicode="&#xd4;" horiz-adv-x="1636" 
d="M623 1591h-148l236 244h221l235 -244h-147l-199 166zM819 -27q-197 0 -357 93.5t-252.5 264.5t-92.5 388q0 163 54 302t148 235t223 150t277 54t277 -54t222.5 -150t147.5 -235t54 -302t-54 -302.5t-147.5 -236.5t-223 -152t-276.5 -55zM819 104q162 0 288 81.5
t193.5 221.5t67.5 312t-68 311t-194 219t-287 80q-162 0 -288 -80t-193.5 -218.5t-67.5 -311.5t67.5 -313t193.5 -221t288 -81z" />
    <glyph glyph-name="Otilde" unicode="&#xd5;" horiz-adv-x="1636" 
d="M1006 1579q-80 0 -168 53l-66 41q-28 18 -39.5 24.5t-28 11.5t-36.5 5q-48 0 -71.5 -31t-21.5 -84h-120q-3 109 54.5 166.5t154.5 57.5q80 0 163 -51l62 -41q65 -41 108 -41q48 0 71 27t26 81h120q0 -109 -55.5 -164t-152.5 -55zM819 -27q-197 0 -357 93.5t-252.5 264.5
t-92.5 388q0 163 54 302t148 235t223 150t277 54t277 -54t222.5 -150t147.5 -235t54 -302t-54 -302.5t-147.5 -236.5t-223 -152t-276.5 -55zM819 104q162 0 288 81.5t193.5 221.5t67.5 312t-68 311t-194 219t-287 80q-162 0 -288 -80t-193.5 -218.5t-67.5 -311.5t67.5 -313
t193.5 -221t288 -81z" />
    <glyph glyph-name="Odieresis" unicode="&#xd6;" horiz-adv-x="1636" 
d="M694 1591h-168v183h168v-183zM1106 1591h-166v183h166v-183zM819 -27q-197 0 -357 93.5t-252.5 264.5t-92.5 388q0 163 54 302t148 235t223 150t277 54t277 -54t222.5 -150t147.5 -235t54 -302t-54 -302.5t-147.5 -236.5t-223 -152t-276.5 -55zM819 104q162 0 288 81.5
t193.5 221.5t67.5 312t-68 311t-194 219t-287 80q-162 0 -288 -80t-193.5 -218.5t-67.5 -311.5t67.5 -313t193.5 -221t288 -81z" />
    <glyph glyph-name="multiply" unicode="&#xd7;" horiz-adv-x="1241" 
d="M621 639l-390 -387l-90 90l389 387l-389 385l92 92l390 -385l385 385l90 -90l-385 -385l387 -389l-92 -92z" />
    <glyph glyph-name="Oslash" unicode="&#xd8;" horiz-adv-x="1642" 
d="M416 98l-123 -153l-103 80l127 159q-96 100 -148 237t-52 298q0 163 54 302t148 235t224 150t278 54q233 0 408 -127l129 164l102 -84l-133 -168q195 -205 195 -526q0 -163 -54 -303t-147.5 -237.5t-223 -152.5t-276.5 -55q-226 0 -405 127zM408 299l573 725
q21 26 76 94.5t84 106.5q-139 104 -322 104q-161 0 -287 -80t-194 -218.5t-68 -311.5q0 -249 138 -420zM819 104q162 0 288 81t193.5 221t67.5 313q0 238 -133 411l-545 -688q-136 -173 -186 -235q141 -103 315 -103z" />
    <glyph glyph-name="Ugrave" unicode="&#xd9;" horiz-adv-x="1433" 
d="M776 1591h-104l-238 264h201zM719 -27q-247 0 -381.5 144t-134.5 422v895h143v-871q0 -219 92 -336.5t281 -117.5t280 117.5t91 336.5v871h143v-895q0 -272 -131.5 -419t-382.5 -147z" />
    <glyph glyph-name="Uacute" unicode="&#xda;" horiz-adv-x="1433" 
d="M770 1591h-104l141 264h203zM719 -27q-247 0 -381.5 144t-134.5 422v895h143v-871q0 -219 92 -336.5t281 -117.5t280 117.5t91 336.5v871h143v-895q0 -272 -131.5 -419t-382.5 -147z" />
    <glyph glyph-name="Ucircumflex" unicode="&#xdb;" horiz-adv-x="1433" 
d="M520 1591h-147l237 244h219l238 -244h-147l-199 166zM719 -27q-247 0 -381.5 144t-134.5 422v895h143v-871q0 -219 92 -336.5t281 -117.5t280 117.5t91 336.5v871h143v-895q0 -272 -131.5 -419t-382.5 -147z" />
    <glyph glyph-name="Udieresis" unicode="&#xdc;" horiz-adv-x="1433" 
d="M594 1591h-168v183h168v-183zM1008 1591h-168v183h168v-183zM719 -27q-247 0 -381.5 144t-134.5 422v895h143v-871q0 -219 92 -336.5t281 -117.5t280 117.5t91 336.5v871h143v-895q0 -272 -131.5 -419t-382.5 -147z" />
    <glyph glyph-name="Yacute" unicode="&#xdd;" horiz-adv-x="1312" 
d="M719 1591h-105l142 264h202zM731 0h-143v616l-514 818h172l315 -514l98 -162q10 15 26.5 41t39 62.5t35.5 58.5l305 514h170l-504 -813v-621z" />
    <glyph glyph-name="Thorn" unicode="&#xde;" horiz-adv-x="1345" 
d="M367 1163h419q205 0 331 -118t126 -302q0 -182 -127 -303t-334 -121h-415v-319h-144v1434h144v-271zM367 453h393q162 0 247 81.5t85 208.5q0 128 -84 208.5t-248 80.5h-393v-579z" />
    <glyph glyph-name="germandbls" unicode="&#xdf;" horiz-adv-x="1204" 
d="M655 -18q-81 0 -163 18v125q81 -19 149 -19q143 0 231.5 78.5t88.5 216.5q0 140 -102.5 219.5t-248.5 79.5h-73v119h51q118 0 200 74.5t82 200.5q0 115 -75 181t-191 66q-136 0 -210.5 -85.5t-74.5 -229.5v-1026h-135v1028q0 202 115.5 317t306.5 115q184 0 293 -100
t109 -252q0 -120 -67.5 -209.5t-172.5 -124.5q144 -31 240 -132t96 -253q0 -191 -124 -299t-325 -108z" />
    <glyph glyph-name="agrave" unicode="&#xe0;" horiz-adv-x="1099" 
d="M567 1161h-92l-217 264h182zM432 -27q-145 0 -231 74.5t-86 202.5q0 79 35.5 144t95.5 109.5t144.5 77t178 50t201.5 24.5v47q0 100 -61.5 159t-186.5 59q-230 0 -295 -193l-131 45q13 48 44.5 93t82 85t128 64t171.5 24q194 0 288.5 -94t94.5 -250v-487q0 -48 20 -68
t60 -20h96v-119h-116q-96 0 -137.5 43t-47.5 139q-112 -209 -348 -209zM461 88q58 0 111 20t98.5 60.5t72.5 110t27 159.5v115q-109 -8 -199.5 -28.5t-163 -55.5t-113 -88t-40.5 -121q0 -79 54.5 -125.5t152.5 -46.5z" />
    <glyph glyph-name="aacute" unicode="&#xe1;" horiz-adv-x="1099" 
d="M569 1161h-94l129 264h184zM432 -27q-145 0 -231 74.5t-86 202.5q0 79 35.5 144t95.5 109.5t144.5 77t178 50t201.5 24.5v47q0 100 -61.5 159t-186.5 59q-230 0 -295 -193l-131 45q13 48 44.5 93t82 85t128 64t171.5 24q194 0 288.5 -94t94.5 -250v-487q0 -48 20 -68
t60 -20h96v-119h-116q-96 0 -137.5 43t-47.5 139q-112 -209 -348 -209zM461 88q58 0 111 20t98.5 60.5t72.5 110t27 159.5v115q-109 -8 -199.5 -28.5t-163 -55.5t-113 -88t-40.5 -121q0 -79 54.5 -125.5t152.5 -46.5z" />
    <glyph glyph-name="acircumflex" unicode="&#xe2;" horiz-adv-x="1099" 
d="M342 1161h-135l215 244h201l215 -244h-136l-180 166zM432 -27q-145 0 -231 74.5t-86 202.5q0 79 35.5 144t95.5 109.5t144.5 77t178 50t201.5 24.5v47q0 100 -61.5 159t-186.5 59q-230 0 -295 -193l-131 45q13 48 44.5 93t82 85t128 64t171.5 24q194 0 288.5 -94
t94.5 -250v-487q0 -48 20 -68t60 -20h96v-119h-116q-96 0 -137.5 43t-47.5 139q-112 -209 -348 -209zM461 88q58 0 111 20t98.5 60.5t72.5 110t27 159.5v115q-109 -8 -199.5 -28.5t-163 -55.5t-113 -88t-40.5 -121q0 -79 54.5 -125.5t152.5 -46.5z" />
    <glyph glyph-name="atilde" unicode="&#xe3;" horiz-adv-x="1099" 
d="M680 1171q-76 0 -152 54l-59 41q-2 2 -11 8t-11 7t-9.5 5.5t-9.5 5.5t-8 4.5t-9 4t-8.5 2.5t-9.5 2.5t-9 1t-11 0.5q-84 0 -84 -117h-111q-1 110 51 166.5t140 56.5q73 0 149 -51l57 -39q34 -24 54.5 -33.5t44.5 -9.5q80 0 86 111h110q0 -110 -51 -165t-139 -55zM432 -27
q-145 0 -231 74.5t-86 202.5q0 79 35.5 144t95.5 109.5t144.5 77t178 50t201.5 24.5v47q0 100 -61.5 159t-186.5 59q-230 0 -295 -193l-131 45q13 48 44.5 93t82 85t128 64t171.5 24q194 0 288.5 -94t94.5 -250v-487q0 -48 20 -68t60 -20h96v-119h-116q-96 0 -137.5 43
t-47.5 139q-112 -209 -348 -209zM461 88q58 0 111 20t98.5 60.5t72.5 110t27 159.5v115q-109 -8 -199.5 -28.5t-163 -55.5t-113 -88t-40.5 -121q0 -79 54.5 -125.5t152.5 -46.5z" />
    <glyph glyph-name="adieresis" unicode="&#xe4;" horiz-adv-x="1099" 
d="M412 1219h-154v182h154v-182zM786 1219h-153v182h153v-182zM432 -27q-145 0 -231 74.5t-86 202.5q0 79 35.5 144t95.5 109.5t144.5 77t178 50t201.5 24.5v47q0 100 -61.5 159t-186.5 59q-230 0 -295 -193l-131 45q13 48 44.5 93t82 85t128 64t171.5 24q194 0 288.5 -94
t94.5 -250v-487q0 -48 20 -68t60 -20h96v-119h-116q-96 0 -137.5 43t-47.5 139q-112 -209 -348 -209zM461 88q58 0 111 20t98.5 60.5t72.5 110t27 159.5v115q-109 -8 -199.5 -28.5t-163 -55.5t-113 -88t-40.5 -121q0 -79 54.5 -125.5t152.5 -46.5z" />
    <glyph glyph-name="aring" unicode="&#xe5;" horiz-adv-x="1099" 
d="M524 1120q-93 0 -155 63t-62 154q0 88 62.5 149.5t154.5 61.5q91 0 153 -62t62 -151q0 -91 -62 -153t-153 -62zM524 1208q51 0 85 38t34 89t-34 88t-85 37q-52 0 -86.5 -37t-34.5 -86q0 -53 33.5 -91t87.5 -38zM432 -27q-145 0 -231 74.5t-86 202.5q0 79 35.5 144
t95.5 109.5t144.5 77t178 50t201.5 24.5v47q0 100 -61.5 159t-186.5 59q-230 0 -295 -193l-131 45q13 48 44.5 93t82 85t128 64t171.5 24q194 0 288.5 -94t94.5 -250v-487q0 -48 20 -68t60 -20h96v-119h-116q-96 0 -137.5 43t-47.5 139q-112 -209 -348 -209zM461 88
q58 0 111 20t98.5 60.5t72.5 110t27 159.5v115q-109 -8 -199.5 -28.5t-163 -55.5t-113 -88t-40.5 -121q0 -79 54.5 -125.5t152.5 -46.5z" />
    <glyph glyph-name="ae" unicode="&#xe6;" horiz-adv-x="1744" 
d="M442 -27q-155 0 -241 75t-86 204q0 96 52 171t144.5 122.5t208 74.5t252.5 35v37q0 107 -62 167.5t-188 60.5q-220 0 -297 -193l-125 43q16 49 46.5 93t79 85t124 65.5t166.5 24.5q139 0 225.5 -58.5t118.5 -150.5q42 95 137 152t205 57q141 0 245 -73t152.5 -199
t34.5 -283h-737q2 -107 29.5 -186t73 -122.5t98 -64t112.5 -20.5q63 0 116 20t88.5 53.5t59 67.5t39.5 72l127 -47q-50 -126 -162.5 -204.5t-269.5 -78.5q-143 0 -245.5 75t-137.5 190q-35 -110 -137.5 -187.5t-245.5 -77.5zM901 592h596q-1 82 -25.5 147t-65.5 105
t-93.5 61t-112.5 21q-127 0 -209 -92.5t-90 -241.5zM467 88q56 0 108.5 20t97.5 60.5t72 111.5t27 164v109q-150 -8 -263 -40.5t-184 -97t-71 -155.5q0 -78 54.5 -125t158.5 -47z" />
    <glyph glyph-name="ccedilla" unicode="&#xe7;" horiz-adv-x="1073" 
d="M621 -25l-27 -24q-14 -16 -53 -55q16 2 43 2q76 0 128 -40t52 -112q0 -74 -57.5 -121t-153.5 -47q-72 0 -130 26t-93 66l63 78q64 -74 152 -74q49 0 78.5 20t29.5 60q0 34 -29.5 54t-70.5 20q-40 0 -80 -14l-47 59l94 102q-189 19 -302.5 161.5t-113.5 369.5
q0 231 130 381.5t335 150.5q161 0 269 -83t143 -205l-129 -43q-29 93 -100.5 152t-184.5 59q-137 0 -228 -107.5t-91 -304.5q0 -199 90.5 -306.5t232.5 -107.5q65 0 117.5 21t87.5 57.5t57.5 77.5t34.5 88l131 -43q-42 -132 -139.5 -218.5t-238.5 -99.5z" />
    <glyph glyph-name="egrave" unicode="&#xe8;" horiz-adv-x="1091" 
d="M594 1161h-92l-217 264h182zM555 -27q-207 0 -328 140t-121 403q0 239 127 380.5t316 141.5q212 0 332.5 -156.5t97.5 -398.5h-735q2 -107 29 -186t72 -122.5t98 -64t116 -20.5q62 0 114.5 20.5t87.5 54t58 68.5t37 72l125 -47q-45 -126 -156.5 -205.5t-269.5 -79.5z
M246 594h598q-1 81 -25.5 145.5t-66 104.5t-93.5 61t-110 21q-127 0 -210.5 -92.5t-92.5 -239.5z" />
    <glyph glyph-name="eacute" unicode="&#xe9;" horiz-adv-x="1091" 
d="M598 1161h-94l127 264h184zM555 -27q-207 0 -328 140t-121 403q0 239 127 380.5t316 141.5q212 0 332.5 -156.5t97.5 -398.5h-735q2 -107 29 -186t72 -122.5t98 -64t116 -20.5q62 0 114.5 20.5t87.5 54t58 68.5t37 72l125 -47q-45 -126 -156.5 -205.5t-269.5 -79.5z
M246 594h598q-1 81 -25.5 145.5t-66 104.5t-93.5 61t-110 21q-127 0 -210.5 -92.5t-92.5 -239.5z" />
    <glyph glyph-name="ecircumflex" unicode="&#xea;" horiz-adv-x="1091" 
d="M369 1161h-136l216 244h200l215 -244h-135l-180 166zM555 -27q-207 0 -328 140t-121 403q0 239 127 380.5t316 141.5q212 0 332.5 -156.5t97.5 -398.5h-735q2 -107 29 -186t72 -122.5t98 -64t116 -20.5q62 0 114.5 20.5t87.5 54t58 68.5t37 72l125 -47
q-45 -126 -156.5 -205.5t-269.5 -79.5zM246 594h598q-1 81 -25.5 145.5t-66 104.5t-93.5 61t-110 21q-127 0 -210.5 -92.5t-92.5 -239.5z" />
    <glyph glyph-name="edieresis" unicode="&#xeb;" horiz-adv-x="1091" 
d="M438 1219h-153v182h153v-182zM813 1219h-151v182h151v-182zM555 -27q-207 0 -328 140t-121 403q0 239 127 380.5t316 141.5q212 0 332.5 -156.5t97.5 -398.5h-735q2 -107 29 -186t72 -122.5t98 -64t116 -20.5q62 0 114.5 20.5t87.5 54t58 68.5t37 72l125 -47
q-45 -126 -156.5 -205.5t-269.5 -79.5zM246 594h598q-1 81 -25.5 145.5t-66 104.5t-93.5 61t-110 21q-127 0 -210.5 -92.5t-92.5 -239.5z" />
    <glyph glyph-name="igrave" unicode="&#xec;" horiz-adv-x="503" 
d="M297 1161h-94l-217 264h182zM319 0h-135v1010h135v-1010z" />
    <glyph glyph-name="iacute" unicode="&#xed;" horiz-adv-x="501" 
d="M295 1161h-94l127 264h184zM315 0h-137v1010h137v-1010z" />
    <glyph glyph-name="icircumflex" unicode="&#xee;" horiz-adv-x="503" 
d="M72 1161h-135l215 244h200l215 -244h-135l-180 166zM319 0h-135v1010h135v-1010z" />
    <glyph glyph-name="idieresis" unicode="&#xef;" horiz-adv-x="503" 
d="M141 1219h-153v182h153v-182zM516 1219h-154v182h154v-182zM319 0h-135v1010h135v-1010z" />
    <glyph glyph-name="eth" unicode="&#xf0;" horiz-adv-x="1146" 
d="M961 1391l-134 -119q92 -107 138.5 -265t46.5 -348q0 -177 -35 -310.5t-98.5 -214.5t-147 -121t-186.5 -40q-91 0 -164.5 26t-123.5 71t-84 107t-49 131t-15 145q0 90 24.5 170t72 146t129 105t185.5 39q125 0 227 -71.5t136 -204.5q3 362 -154 549l-172 -154l-61 78
l161 143q-113 88 -276 88q-120 0 -217 -43v121q103 41 237 41q211 0 355 -119l139 123zM543 92q137 0 216 94.5t79 255.5q0 164 -81 259.5t-214 95.5q-138 0 -216.5 -93.5t-78.5 -259.5q0 -161 79 -256.5t216 -95.5z" />
    <glyph glyph-name="ntilde" unicode="&#xf1;" horiz-adv-x="1187" 
d="M756 1171q-74 0 -150 54l-59 41q-5 3 -16.5 10.5t-15.5 10t-12 7t-12.5 6l-12 4t-14.5 3t-15 0.5q-42 0 -63 -31.5t-19 -85.5h-111q-1 110 50.5 166.5t139.5 56.5q76 0 148 -51l57 -39q34 -24 54.5 -33.5t44.5 -9.5q82 0 88 111h108q1 -110 -49.5 -165t-140.5 -55zM319 0
h-135v1010h131v-193q8 27 31 60.5t63 71.5t106 63.5t144 25.5q183 0 272 -108t89 -287v-643h-137v610q0 153 -67.5 230.5t-190.5 77.5q-58 0 -105 -17t-78 -44t-54.5 -66.5t-36 -78.5t-20.5 -85.5t-10 -81.5t-2 -74v-471z" />
    <glyph glyph-name="ograve" unicode="&#xf2;" horiz-adv-x="1150" 
d="M621 1161h-95l-217 264h183zM575 -27q-94 0 -179.5 37t-151 104t-104 168.5t-38.5 221.5q0 121 38 223t103 169t151 104.5t181 37.5t180.5 -37.5t150.5 -104.5t103 -169t38 -223t-38.5 -222.5t-104 -168t-150.5 -103.5t-179 -37zM575 92q143 0 236.5 106.5t93.5 303.5
q0 199 -94 307.5t-236 108.5t-235.5 -108.5t-93.5 -307.5q0 -197 93.5 -303.5t235.5 -106.5z" />
    <glyph glyph-name="oacute" unicode="&#xf3;" horiz-adv-x="1150" 
d="M623 1161h-95l127 264h185zM575 -27q-94 0 -179.5 37t-151 104t-104 168.5t-38.5 221.5q0 121 38 223t103 169t151 104.5t181 37.5t180.5 -37.5t150.5 -104.5t103 -169t38 -223t-38.5 -222.5t-104 -168t-150.5 -103.5t-179 -37zM575 92q143 0 236.5 106.5t93.5 303.5
q0 199 -94 307.5t-236 108.5t-235.5 -108.5t-93.5 -307.5q0 -197 93.5 -303.5t235.5 -106.5z" />
    <glyph glyph-name="ocircumflex" unicode="&#xf4;" horiz-adv-x="1150" 
d="M393 1161h-133l215 244h199l215 -244h-133l-181 166zM575 -27q-94 0 -179.5 37t-151 104t-104 168.5t-38.5 221.5q0 121 38 223t103 169t151 104.5t181 37.5t180.5 -37.5t150.5 -104.5t103 -169t38 -223t-38.5 -222.5t-104 -168t-150.5 -103.5t-179 -37zM575 92
q143 0 236.5 106.5t93.5 303.5q0 199 -94 307.5t-236 108.5t-235.5 -108.5t-93.5 -307.5q0 -197 93.5 -303.5t235.5 -106.5z" />
    <glyph glyph-name="otilde" unicode="&#xf5;" horiz-adv-x="1150" 
d="M731 1171q-75 0 -151 54l-60 41q-2 2 -11 8t-11 7t-9.5 5.5t-9.5 5.5t-8 4.5t-9 4t-8.5 2.5t-9.5 2.5t-9 1t-11 0.5q-84 0 -84 -117h-111q-1 110 51 166.5t140 56.5q73 0 149 -51l58 -39q24 -16 36 -23.5t28.5 -13.5t33.5 -6q80 0 86 111h111q0 -110 -51.5 -165
t-139.5 -55zM575 -27q-94 0 -179.5 37t-151 104t-104 168.5t-38.5 221.5q0 121 38 223t103 169t151 104.5t181 37.5t180.5 -37.5t150.5 -104.5t103 -169t38 -223t-38.5 -222.5t-104 -168t-150.5 -103.5t-179 -37zM575 92q143 0 236.5 106.5t93.5 303.5q0 199 -94 307.5
t-236 108.5t-235.5 -108.5t-93.5 -307.5q0 -197 93.5 -303.5t235.5 -106.5z" />
    <glyph glyph-name="odieresis" unicode="&#xf6;" horiz-adv-x="1150" 
d="M463 1219h-154v182h154v-182zM838 1219h-152v182h152v-182zM575 -27q-94 0 -179.5 37t-151 104t-104 168.5t-38.5 221.5q0 121 38 223t103 169t151 104.5t181 37.5t180.5 -37.5t150.5 -104.5t103 -169t38 -223t-38.5 -222.5t-104 -168t-150.5 -103.5t-179 -37zM575 92
q143 0 236.5 106.5t93.5 303.5q0 199 -94 307.5t-236 108.5t-235.5 -108.5t-93.5 -307.5q0 -197 93.5 -303.5t235.5 -106.5z" />
    <glyph glyph-name="divide" unicode="&#xf7;" horiz-adv-x="1400" 
d="M801 1026h-199v231h199v-231zM1251 657h-1104v131h1104v-131zM801 190h-199v232h199v-232z" />
    <glyph glyph-name="oslash" unicode="&#xf8;" horiz-adv-x="1163" 
d="M582 -27q-156 0 -277 95l-80 -105l-82 64l88 112q-120 143 -120 365q0 121 38 223t103 169t150 104.5t180 37.5q158 0 282 -98l74 92l80 -61l-82 -105q119 -145 119 -362q0 -121 -38.5 -222.5t-104 -168t-151 -103.5t-179.5 -37zM319 246l363 463q94 121 104 133
q-85 76 -204 76q-141 0 -235.5 -109t-94.5 -307q0 -153 67 -256zM584 92q141 0 235 106.5t94 303.5q0 150 -65 258l-346 -447q-11 -13 -53 -66.5t-66 -82.5q81 -72 201 -72z" />
    <glyph glyph-name="ugrave" unicode="&#xf9;" horiz-adv-x="1171" 
d="M623 1161h-95l-217 264h183zM514 -27q-174 0 -260 103.5t-86 285.5v648h135v-615q0 -155 66 -228t184 -73q84 0 144.5 38.5t93 104.5t47 140.5t14.5 161.5v471h137v-1010h-133v201q-11 -24 -24.5 -47.5t-43 -58.5t-64.5 -60t-90.5 -43.5t-119.5 -18.5z" />
    <glyph glyph-name="uacute" unicode="&#xfa;" horiz-adv-x="1171" 
d="M625 1161h-95l127 264h187zM514 -27q-174 0 -260 103.5t-86 285.5v648h135v-615q0 -155 66 -228t184 -73q84 0 144.5 38.5t93 104.5t47 140.5t14.5 161.5v471h137v-1010h-133v201q-11 -24 -24.5 -47.5t-43 -58.5t-64.5 -60t-90.5 -43.5t-119.5 -18.5z" />
    <glyph glyph-name="ucircumflex" unicode="&#xfb;" horiz-adv-x="1171" 
d="M395 1161h-133l215 244h201l213 -244h-133l-180 166zM514 -27q-174 0 -260 103.5t-86 285.5v648h135v-615q0 -155 66 -228t184 -73q84 0 144.5 38.5t93 104.5t47 140.5t14.5 161.5v471h137v-1010h-133v201q-11 -24 -24.5 -47.5t-43 -58.5t-64.5 -60t-90.5 -43.5
t-119.5 -18.5z" />
    <glyph glyph-name="udieresis" unicode="&#xfc;" horiz-adv-x="1171" 
d="M465 1219h-152v182h152v-182zM842 1219h-154v182h154v-182zM514 -27q-174 0 -260 103.5t-86 285.5v648h135v-615q0 -155 66 -228t184 -73q84 0 144.5 38.5t93 104.5t47 140.5t14.5 161.5v471h137v-1010h-133v201q-11 -24 -24.5 -47.5t-43 -58.5t-64.5 -60t-90.5 -43.5
t-119.5 -18.5z" />
    <glyph glyph-name="yacute" unicode="&#xfd;" horiz-adv-x="1032" 
d="M588 1425h184l-217 -264h-94zM618 424l203 586h146l-414 -1162q-47 -138 -111.5 -192.5t-197.5 -54.5h-168v123h166q71 0 112 27.5t70 109.5l61 168l-444 981h149l250 -574q77 -175 101 -233q20 53 77 221z" />
    <glyph glyph-name="thorn" unicode="&#xfe;" horiz-adv-x="1179" 
d="M319 -399h-135v1833h135v-410v-193q38 85 123 146t215 61q85 0 159.5 -34.5t132 -99.5t91 -168t33.5 -230q0 -128 -33.5 -231t-91.5 -168t-132.5 -99.5t-158.5 -34.5q-125 0 -211.5 61t-126.5 148v-194v-387zM625 92q137 0 222 102t85 312q0 211 -85 312.5t-222 101.5
q-138 0 -226 -105.5t-88 -308.5t88 -308.5t226 -105.5z" />
    <glyph glyph-name="ydieresis" unicode="&#xff;" horiz-adv-x="1032" 
d="M242 1401h153v-182h-153v182zM618 1401h152v-182h-152v182zM618 424l203 586h146l-414 -1162q-47 -138 -111.5 -192.5t-197.5 -54.5h-168v123h166q71 0 112 27.5t70 109.5l61 168l-444 981h149l250 -574q77 -175 101 -233q20 53 77 221z" />
    <glyph glyph-name="Amacron" unicode="&#x100;" horiz-adv-x="1376" 
d="M350 1747h678v-107h-678v107zM1325 0h-162l-153 420h-650l-153 -420h-158l543 1434h196zM596 1069l-188 -518h555l-189 518q-23 66 -52 146t-36 100q-13 -32 -44 -118.5t-46 -127.5z" />
    <glyph glyph-name="amacron" unicode="&#x101;" horiz-adv-x="1099" 
d="M829 1217h-614v108h614v-108zM432 -27q-145 0 -231 74.5t-86 202.5q0 79 35.5 144t95.5 109.5t144.5 77t178 50t201.5 24.5v47q0 100 -61.5 159t-186.5 59q-230 0 -295 -193l-131 45q13 48 44.5 93t82 85t128 64t171.5 24q194 0 288.5 -94t94.5 -250v-487q0 -48 20 -68
t60 -20h96v-119h-116q-96 0 -137.5 43t-47.5 139q-112 -209 -348 -209zM461 88q58 0 111 20t98.5 60.5t72.5 110t27 159.5v115q-109 -8 -199.5 -28.5t-163 -55.5t-113 -88t-40.5 -121q0 -79 54.5 -125.5t152.5 -46.5z" />
    <glyph glyph-name="Abreve" unicode="&#x102;" horiz-adv-x="1376" 
d="M686 1573q-146 0 -225 75t-84 185h125q9 -73 58 -114.5t126 -41.5q78 0 126.5 41t57.5 115h125q-5 -110 -84 -185t-225 -75zM1325 0h-162l-153 420h-650l-153 -420h-158l543 1434h196zM596 1069l-188 -518h555l-189 518q-23 66 -52 146t-36 100q-13 -32 -44 -118.5
t-46 -127.5z" />
    <glyph glyph-name="abreve" unicode="&#x103;" horiz-adv-x="1099" 
d="M522 1145q-133 0 -205 75t-75 185h114q6 -73 50.5 -114.5t115.5 -41.5t115.5 41.5t50.5 114.5h115q-3 -110 -75.5 -185t-205.5 -75zM432 -27q-145 0 -231 74.5t-86 202.5q0 79 35.5 144t95.5 109.5t144.5 77t178 50t201.5 24.5v47q0 100 -61.5 159t-186.5 59
q-230 0 -295 -193l-131 45q13 48 44.5 93t82 85t128 64t171.5 24q194 0 288.5 -94t94.5 -250v-487q0 -48 20 -68t60 -20h96v-119h-116q-96 0 -137.5 43t-47.5 139q-112 -209 -348 -209zM461 88q58 0 111 20t98.5 60.5t72.5 110t27 159.5v115q-109 -8 -199.5 -28.5
t-163 -55.5t-113 -88t-40.5 -121q0 -79 54.5 -125.5t152.5 -46.5z" />
    <glyph glyph-name="Aogonek" unicode="&#x104;" horiz-adv-x="1376" 
d="M1122 -205q0 -42 28 -67t87 -25q22 0 88 16v-108q-52 -19 -104 -19q-97 0 -154 44.5t-57 125.5q0 137 168 238h-15l-153 420h-650l-153 -420h-158l543 1434h196l537 -1434q-203 -89 -203 -205zM596 1069l-188 -518h555l-189 518q-23 66 -52 146t-36 100
q-13 -32 -44 -118.5t-46 -127.5z" />
    <glyph glyph-name="aogonek" unicode="&#x105;" horiz-adv-x="1099" 
d="M1081 119v-119q-202 -89 -202 -205q0 -92 114 -92q22 0 88 16v-108q-52 -19 -104 -19q-97 0 -154 44.5t-57 125.5q0 139 168 240q-78 6 -113 49t-41 131q-112 -209 -348 -209q-145 0 -231 74.5t-86 202.5q0 79 35.5 144t95.5 109.5t144.5 77t178 50t201.5 24.5v47
q0 100 -61.5 159t-186.5 59q-230 0 -295 -193l-131 45q13 48 44.5 93t82 85t128 64t171.5 24q194 0 288.5 -94t94.5 -250v-487q0 -48 20 -68t60 -20h96zM770 438v115q-109 -8 -199.5 -28.5t-163 -55.5t-113 -88t-40.5 -121q0 -79 54.5 -125.5t152.5 -46.5q58 0 111 20
t98.5 60.5t72.5 110t27 159.5z" />
    <glyph glyph-name="Cacute" unicode="&#x106;" horiz-adv-x="1499" 
d="M856 1591h-104l141 264h203zM799 -27q-128 0 -237.5 38.5t-190.5 108t-138 164.5t-85.5 209.5t-28.5 241.5q0 209 82.5 373.5t238 258t359.5 93.5q109 0 204 -27.5t161.5 -70.5t118.5 -100t81.5 -111t44.5 -107l-143 -53q-13 44 -34.5 86.5t-61 89.5t-89 82t-123 57.5
t-159.5 22.5q-245 0 -386 -159.5t-141 -432.5q0 -183 62.5 -325.5t183 -225t281.5 -82.5q360 0 477 357l141 -55q-22 -67 -56 -126.5t-87 -116.5t-119.5 -98.5t-158 -66.5t-197.5 -25z" />
    <glyph glyph-name="cacute" unicode="&#x107;" horiz-adv-x="1073" 
d="M616 1161h-94l129 264h185zM571 -27q-210 0 -338.5 145t-128.5 388q0 231 130 381.5t335 150.5q161 0 269 -83t143 -205l-129 -43q-29 93 -100.5 152t-184.5 59q-137 0 -228 -107.5t-91 -304.5q0 -199 90.5 -306.5t232.5 -107.5q65 0 117.5 21t87.5 57.5t57.5 77.5
t34.5 88l131 -43q-45 -143 -156 -231.5t-272 -88.5z" />
    <glyph glyph-name="Ccircumflex" unicode="&#x108;" horiz-adv-x="1499" 
d="M608 1591h-147l235 244h222l235 -244h-147l-199 166zM799 -27q-128 0 -237.5 38.5t-190.5 108t-138 164.5t-85.5 209.5t-28.5 241.5q0 209 82.5 373.5t238 258t359.5 93.5q109 0 204 -27.5t161.5 -70.5t118.5 -100t81.5 -111t44.5 -107l-143 -53q-13 44 -34.5 86.5
t-61 89.5t-89 82t-123 57.5t-159.5 22.5q-245 0 -386 -159.5t-141 -432.5q0 -183 62.5 -325.5t183 -225t281.5 -82.5q360 0 477 357l141 -55q-22 -67 -56 -126.5t-87 -116.5t-119.5 -98.5t-158 -66.5t-197.5 -25z" />
    <glyph glyph-name="ccircumflex" unicode="&#x109;" horiz-adv-x="1073" 
d="M389 1161h-135l215 244h201l215 -244h-135l-181 166zM571 -27q-210 0 -338.5 145t-128.5 388q0 231 130 381.5t335 150.5q161 0 269 -83t143 -205l-129 -43q-29 93 -100.5 152t-184.5 59q-137 0 -228 -107.5t-91 -304.5q0 -199 90.5 -306.5t232.5 -107.5q65 0 117.5 21
t87.5 57.5t57.5 77.5t34.5 88l131 -43q-45 -143 -156 -231.5t-272 -88.5z" />
    <glyph glyph-name="Cdotaccent" unicode="&#x10a;" horiz-adv-x="1499" 
d="M879 1591h-144v209h144v-209zM799 -27q-128 0 -237.5 38.5t-190.5 108t-138 164.5t-85.5 209.5t-28.5 241.5q0 209 82.5 373.5t238 258t359.5 93.5q109 0 204 -27.5t161.5 -70.5t118.5 -100t81.5 -111t44.5 -107l-143 -53q-13 44 -34.5 86.5t-61 89.5t-89 82t-123 57.5
t-159.5 22.5q-245 0 -386 -159.5t-141 -432.5q0 -183 62.5 -325.5t183 -225t281.5 -82.5q360 0 477 357l141 -55q-22 -67 -56 -126.5t-87 -116.5t-119.5 -98.5t-158 -66.5t-197.5 -25z" />
    <glyph glyph-name="cdotaccent" unicode="&#x10b;" horiz-adv-x="1073" 
d="M641 1225h-143v209h143v-209zM571 -27q-210 0 -338.5 145t-128.5 388q0 231 130 381.5t335 150.5q161 0 269 -83t143 -205l-129 -43q-29 93 -100.5 152t-184.5 59q-137 0 -228 -107.5t-91 -304.5q0 -199 90.5 -306.5t232.5 -107.5q65 0 117.5 21t87.5 57.5t57.5 77.5
t34.5 88l131 -43q-45 -143 -156 -231.5t-272 -88.5z" />
    <glyph glyph-name="Ccaron" unicode="&#x10c;" horiz-adv-x="1499" 
d="M1006 1833h147l-235 -244h-222l-235 244h147l199 -166zM799 -27q-128 0 -237.5 38.5t-190.5 108t-138 164.5t-85.5 209.5t-28.5 241.5q0 209 82.5 373.5t238 258t359.5 93.5q109 0 204 -27.5t161.5 -70.5t118.5 -100t81.5 -111t44.5 -107l-143 -53q-13 44 -34.5 86.5
t-61 89.5t-89 82t-123 57.5t-159.5 22.5q-245 0 -386 -159.5t-141 -432.5q0 -183 62.5 -325.5t183 -225t281.5 -82.5q360 0 477 357l141 -55q-22 -67 -56 -126.5t-87 -116.5t-119.5 -98.5t-158 -66.5t-197.5 -25z" />
    <glyph glyph-name="ccaron" unicode="&#x10d;" horiz-adv-x="1073" 
d="M668 1161h-201l-215 244h135l180 -168l181 168h135zM571 -27q-210 0 -338.5 145t-128.5 388q0 231 130 381.5t335 150.5q161 0 269 -83t143 -205l-129 -43q-29 93 -100.5 152t-184.5 59q-137 0 -228 -107.5t-91 -304.5q0 -199 90.5 -306.5t232.5 -107.5q65 0 117.5 21
t87.5 57.5t57.5 77.5t34.5 88l131 -43q-45 -143 -156 -231.5t-272 -88.5z" />
    <glyph glyph-name="Dcaron" unicode="&#x10e;" horiz-adv-x="1484" 
d="M842 1833h147l-237 -244h-220l-237 244h149l197 -166zM662 0h-439v1434h443q319 0 509.5 -193.5t190.5 -519.5q0 -333 -186 -527t-518 -194zM367 1300v-1167h268q287 0 433 151t146 437q0 272 -145.5 425.5t-425.5 153.5h-276z" />
    <glyph glyph-name="dcaron" unicode="&#x10f;" horiz-adv-x="1224" 
d="M524 -27q-85 0 -159.5 34.5t-132.5 99t-92 167.5t-34 230q0 128 34 231t92 168.5t132.5 100t159.5 34.5q127 0 211.5 -61.5t126.5 -147.5v197v408h135v-1434h-133v182q-42 -87 -129.5 -148t-210.5 -61zM1202 1022h-80l119 219h-88v193h164v-193zM555 92q139 0 226 104.5
t87 307.5q0 204 -87 310t-226 106q-65 0 -119 -24t-97 -73t-67 -130.5t-24 -188.5q0 -210 85.5 -311t221.5 -101z" />
    <glyph glyph-name="Dcroat" unicode="&#x110;" horiz-adv-x="1497" 
d="M233 1434h443q319 0 509.5 -193.5t190.5 -519.5q0 -333 -186 -527t-518 -194h-439v678h-161v119h161v637zM377 133h268q287 0 433.5 151t146.5 437q0 271 -146 425t-426 154h-276v-503h342v-119h-342v-545z" />
    <glyph glyph-name="dcroat" unicode="&#x111;" horiz-adv-x="1167" 
d="M997 1270h172v-101h-172v-1169h-133v182q-42 -87 -129.5 -148t-210.5 -61q-85 0 -159.5 34.5t-132.5 99t-92 167.5t-34 230q0 128 34 231t92 168.5t132.5 100t159.5 34.5q127 0 211.5 -61.5t126.5 -147.5v197v143h-364v101h364v164h135v-164zM555 92q139 0 226 104.5
t87 307.5q0 204 -87 310t-226 106q-65 0 -119 -24t-97 -73t-67 -130.5t-24 -188.5q0 -210 85.5 -311t221.5 -101z" />
    <glyph glyph-name="Emacron" unicode="&#x112;" horiz-adv-x="1304" 
d="M1051 1640h-678v107h678v-107zM1204 0h-981v1434h981v-134h-837v-489h628v-131h-628v-547h837v-133z" />
    <glyph glyph-name="emacron" unicode="&#x113;" horiz-adv-x="1091" 
d="M856 1217h-616v108h616v-108zM555 -27q-207 0 -328 140t-121 403q0 239 127 380.5t316 141.5q212 0 332.5 -156.5t97.5 -398.5h-735q2 -107 29 -186t72 -122.5t98 -64t116 -20.5q62 0 114.5 20.5t87.5 54t58 68.5t37 72l125 -47q-45 -126 -156.5 -205.5t-269.5 -79.5z
M246 594h598q-1 81 -25.5 145.5t-66 104.5t-93.5 61t-110 21q-127 0 -210.5 -92.5t-92.5 -239.5z" />
    <glyph glyph-name="Ebreve" unicode="&#x114;" horiz-adv-x="1304" 
d="M709 1573q-146 0 -225.5 75t-84.5 185h127q7 -73 56.5 -114.5t126.5 -41.5q78 0 127.5 41.5t56.5 114.5h125q-5 -110 -84 -185t-225 -75zM1204 0h-981v1434h981v-134h-837v-489h628v-131h-628v-547h837v-133z" />
    <glyph glyph-name="ebreve" unicode="&#x115;" horiz-adv-x="1091" 
d="M549 1145q-133 0 -205.5 75t-75.5 185h113q7 -73 52 -114.5t116 -41.5t115.5 41.5t50.5 114.5h114q-5 -110 -76 -185t-204 -75zM555 -27q-207 0 -328 140t-121 403q0 239 127 380.5t316 141.5q212 0 332.5 -156.5t97.5 -398.5h-735q2 -107 29 -186t72 -122.5t98 -64
t116 -20.5q62 0 114.5 20.5t87.5 54t58 68.5t37 72l125 -47q-45 -126 -156.5 -205.5t-269.5 -79.5zM246 594h598q-1 81 -25.5 145.5t-66 104.5t-93.5 61t-110 21q-127 0 -210.5 -92.5t-92.5 -239.5z" />
    <glyph glyph-name="Edotaccent" unicode="&#x116;" horiz-adv-x="1304" 
d="M784 1591h-143v209h143v-209zM1204 0h-981v1434h981v-134h-837v-489h628v-131h-628v-547h837v-133z" />
    <glyph glyph-name="edotaccent" unicode="&#x117;" horiz-adv-x="1091" 
d="M621 1225h-144v209h144v-209zM555 -27q-207 0 -328 140t-121 403q0 239 127 380.5t316 141.5q212 0 332.5 -156.5t97.5 -398.5h-735q2 -107 29 -186t72 -122.5t98 -64t116 -20.5q62 0 114.5 20.5t87.5 54t58 68.5t37 72l125 -47q-45 -126 -156.5 -205.5t-269.5 -79.5z
M246 594h598q-1 81 -25.5 145.5t-66 104.5t-93.5 61t-110 21q-127 0 -210.5 -92.5t-92.5 -239.5z" />
    <glyph glyph-name="Eogonek" unicode="&#x118;" horiz-adv-x="1304" 
d="M1204 1434v-134h-837v-489h628v-131h-628v-547h837v-133q-205 -90 -205 -205q0 -42 29 -67t88 -25q22 0 88 16v-108q-55 -19 -104 -19q-97 0 -154 44.5t-57 125.5q0 139 166 238h-832v1434h981z" />
    <glyph glyph-name="eogonek" unicode="&#x119;" horiz-adv-x="1091" 
d="M106 516q0 239 127 380.5t316 141.5q212 0 332.5 -156.5t97.5 -398.5h-735q2 -107 29 -186t72 -122.5t98 -64t116 -20.5t116 21t88 55t57.5 68.5t35.5 70.5l125 -47q-32 -90 -98.5 -157t-155.5 -101q-209 -84 -209 -203q0 -94 113 -94q26 0 92 16v-108q-55 -19 -109 -19
q-96 0 -151 45.5t-55 126.5q0 118 120 211q-199 8 -310.5 149t-111.5 392zM246 594h598q-1 81 -25.5 145.5t-66 104.5t-93.5 61t-110 21q-127 0 -210.5 -92.5t-92.5 -239.5z" />
    <glyph glyph-name="Ecaron" unicode="&#x11a;" horiz-adv-x="1304" 
d="M911 1833h148l-236 -244h-221l-235 244h147l199 -166zM1204 0h-981v1434h981v-134h-837v-489h628v-131h-628v-547h837v-133z" />
    <glyph glyph-name="ecaron" unicode="&#x11b;" horiz-adv-x="1091" 
d="M649 1161h-200l-216 244h134l182 -168l180 168h133zM555 -27q-207 0 -328 140t-121 403q0 239 127 380.5t316 141.5q212 0 332.5 -156.5t97.5 -398.5h-735q2 -107 29 -186t72 -122.5t98 -64t116 -20.5q62 0 114.5 20.5t87.5 54t58 68.5t37 72l125 -47
q-45 -126 -156.5 -205.5t-269.5 -79.5zM246 594h598q-1 81 -25.5 145.5t-66 104.5t-93.5 61t-110 21q-127 0 -210.5 -92.5t-92.5 -239.5z" />
    <glyph glyph-name="Gcircumflex" unicode="&#x11c;" horiz-adv-x="1599" 
d="M629 1591h-148l238 244h219l238 -244h-150l-197 166zM795 -27q-206 0 -360 94.5t-235 264t-81 391.5q0 160 54 298t147.5 234t223.5 150.5t279 54.5q112 0 210 -27.5t166.5 -71t122.5 -101.5t86 -114t50 -114l-143 -59q-23 69 -60.5 128t-95.5 112t-145 83.5t-193 30.5
q-116 0 -216 -41t-174 -116.5t-116.5 -190t-42.5 -254.5q0 -282 146 -451.5t393 -169.5q109 0 201 36t154.5 98t99 143.5t41.5 173.5h-525v133h670v-688h-139v299q-23 -58 -60.5 -110.5t-98 -103.5t-153.5 -81.5t-206 -30.5z" />
    <glyph glyph-name="gcircumflex" unicode="&#x11d;" horiz-adv-x="1196" 
d="M387 1161h-133l213 244h201l215 -244h-133l-181 166zM813 -399h-475q-262 0 -262 198q0 70 41 126.5t98 90.5q-94 48 -94 152q0 68 45.5 124t112.5 95q-56 47 -89.5 119t-33.5 160q0 158 110.5 265t282.5 107q119 0 211 -55t131 -137q8 76 52 120t118 44h92v-115h-63
q-34 0 -56.5 -5t-44 -20t-33 -48t-12.5 -85l-2 -65q-7 -170 -116.5 -273.5t-276.5 -103.5q-113 0 -191 41q-52 -22 -84 -59t-32 -76q0 -37 27 -58.5t81 -21.5h453q137 0 222 -70t85 -190q0 -128 -84.5 -194t-212.5 -66zM549 406q118 0 190 72.5t72 187.5q0 114 -73 187
t-187 73q-117 0 -187.5 -72.5t-70.5 -187.5q0 -116 69.5 -188t186.5 -72zM375 -283h420q178 0 178 142q0 141 -191 141h-479q-38 -21 -71 -65t-33 -95q0 -62 40.5 -92.5t135.5 -30.5z" />
    <glyph glyph-name="Gbreve" unicode="&#x11e;" horiz-adv-x="1599" 
d="M823 1573q-145 0 -224.5 75t-84.5 185h127q7 -73 56 -114.5t126 -41.5q78 0 128 41.5t57 114.5h125q-5 -110 -84.5 -185t-225.5 -75zM795 -27q-206 0 -360 94.5t-235 264t-81 391.5q0 160 54 298t147.5 234t223.5 150.5t279 54.5q112 0 210 -27.5t166.5 -71t122.5 -101.5
t86 -114t50 -114l-143 -59q-23 69 -60.5 128t-95.5 112t-145 83.5t-193 30.5q-116 0 -216 -41t-174 -116.5t-116.5 -190t-42.5 -254.5q0 -282 146 -451.5t393 -169.5q109 0 201 36t154.5 98t99 143.5t41.5 173.5h-525v133h670v-688h-139v299q-23 -58 -60.5 -110.5
t-98 -103.5t-153.5 -81.5t-206 -30.5z" />
    <glyph glyph-name="gbreve" unicode="&#x11f;" horiz-adv-x="1196" 
d="M567 1145q-133 0 -205 75t-75 185h114q6 -73 50.5 -114.5t115.5 -41.5t115.5 41.5t50.5 114.5h115q-3 -110 -75.5 -185t-205.5 -75zM813 -399h-475q-262 0 -262 198q0 70 41 126.5t98 90.5q-94 48 -94 152q0 68 45.5 124t112.5 95q-56 47 -89.5 119t-33.5 160
q0 158 110.5 265t282.5 107q119 0 211 -55t131 -137q8 76 52 120t118 44h92v-115h-63q-34 0 -56.5 -5t-44 -20t-33 -48t-12.5 -85l-2 -65q-7 -170 -116.5 -273.5t-276.5 -103.5q-113 0 -191 41q-52 -22 -84 -59t-32 -76q0 -37 27 -58.5t81 -21.5h453q137 0 222 -70t85 -190
q0 -128 -84.5 -194t-212.5 -66zM549 406q118 0 190 72.5t72 187.5q0 114 -73 187t-187 73q-117 0 -187.5 -72.5t-70.5 -187.5q0 -116 69.5 -188t186.5 -72zM375 -283h420q178 0 178 142q0 141 -191 141h-479q-38 -21 -71 -65t-33 -95q0 -62 40.5 -92.5t135.5 -30.5z" />
    <glyph glyph-name="Gdotaccent" unicode="&#x120;" horiz-adv-x="1599" 
d="M901 1591h-143v209h143v-209zM795 -27q-206 0 -360 94.5t-235 264t-81 391.5q0 160 54 298t147.5 234t223.5 150.5t279 54.5q112 0 210 -27.5t166.5 -71t122.5 -101.5t86 -114t50 -114l-143 -59q-23 69 -60.5 128t-95.5 112t-145 83.5t-193 30.5q-116 0 -216 -41
t-174 -116.5t-116.5 -190t-42.5 -254.5q0 -282 146 -451.5t393 -169.5q109 0 201 36t154.5 98t99 143.5t41.5 173.5h-525v133h670v-688h-139v299q-23 -58 -60.5 -110.5t-98 -103.5t-153.5 -81.5t-206 -30.5z" />
    <glyph glyph-name="gdotaccent" unicode="&#x121;" horiz-adv-x="1196" 
d="M641 1225h-143v209h143v-209zM813 -399h-475q-262 0 -262 198q0 70 41 126.5t98 90.5q-94 48 -94 152q0 68 45.5 124t112.5 95q-56 47 -89.5 119t-33.5 160q0 158 110.5 265t282.5 107q119 0 211 -55t131 -137q8 76 52 120t118 44h92v-115h-63q-34 0 -56.5 -5t-44 -20
t-33 -48t-12.5 -85l-2 -65q-7 -170 -116.5 -273.5t-276.5 -103.5q-113 0 -191 41q-52 -22 -84 -59t-32 -76q0 -37 27 -58.5t81 -21.5h453q137 0 222 -70t85 -190q0 -128 -84.5 -194t-212.5 -66zM549 406q118 0 190 72.5t72 187.5q0 114 -73 187t-187 73q-117 0 -187.5 -72.5
t-70.5 -187.5q0 -116 69.5 -188t186.5 -72zM375 -283h420q178 0 178 142q0 141 -191 141h-479q-38 -21 -71 -65t-33 -95q0 -62 40.5 -92.5t135.5 -30.5z" />
    <glyph glyph-name="uni0122" unicode="&#x122;" horiz-adv-x="1599" 
d="M795 -27q-206 0 -360 94.5t-235 264t-81 391.5q0 160 54 298t147.5 234t223.5 150.5t279 54.5q112 0 210 -27.5t166.5 -71t122.5 -101.5t86 -114t50 -114l-143 -59q-23 69 -60.5 128t-95.5 112t-145 83.5t-193 30.5q-116 0 -216 -41t-174 -116.5t-116.5 -190
t-42.5 -254.5q0 -282 146 -451.5t393 -169.5q109 0 201 36t154.5 98t99 143.5t41.5 173.5h-525v133h670v-688h-139v299q-23 -58 -60.5 -110.5t-98 -103.5t-153.5 -81.5t-206 -30.5zM805 -604h-80l119 219h-86v192h162v-192z" />
    <glyph glyph-name="uni0123" unicode="&#x123;" horiz-adv-x="1196" 
d="M602 1634h80l-119 -219h86v-192h-162v192zM813 -399h-475q-262 0 -262 198q0 70 41 126.5t98 90.5q-94 48 -94 152q0 68 45.5 124t112.5 95q-56 47 -89.5 119t-33.5 160q0 158 110.5 265t282.5 107q119 0 211 -55t131 -137q8 76 52 120t118 44h92v-115h-63
q-34 0 -56.5 -5t-44 -20t-33 -48t-12.5 -85l-2 -65q-7 -170 -116.5 -273.5t-276.5 -103.5q-113 0 -191 41q-52 -22 -84 -59t-32 -76q0 -37 27 -58.5t81 -21.5h453q137 0 222 -70t85 -190q0 -128 -84.5 -194t-212.5 -66zM549 406q118 0 190 72.5t72 187.5q0 114 -73 187
t-187 73q-117 0 -187.5 -72.5t-70.5 -187.5q0 -116 69.5 -188t186.5 -72zM375 -283h420q178 0 178 142q0 141 -191 141h-479q-38 -21 -71 -65t-33 -95q0 -62 40.5 -92.5t135.5 -30.5z" />
    <glyph glyph-name="Hcircumflex" unicode="&#x124;" horiz-adv-x="1572" 
d="M584 1591h-148l238 244h219l237 -244h-149l-197 166zM367 0h-144v1434h144v-623h841v623h144v-1434h-144v678h-841v-678z" />
    <glyph glyph-name="hcircumflex" unicode="&#x125;" horiz-adv-x="1187" 
d="M432 1583h-135l215 244h201l215 -244h-135l-181 166zM319 0h-135v1434h133v-430v-187q8 27 30.5 60t62.5 71.5t107.5 64t148.5 25.5q178 0 266 -108t88 -287v-643h-137v610q0 153 -67.5 230.5t-190.5 77.5q-58 0 -105 -17t-78 -44t-54.5 -66.5t-36 -78.5t-20.5 -85.5
t-10 -81.5t-2 -74v-471z" />
    <glyph glyph-name="Hbar" unicode="&#x126;" horiz-adv-x="1601" 
d="M1364 1231h164v-113h-164v-1118h-143v678h-842v-678h-143v1118h-170v113h170v203h143v-203h842v203h143v-203zM379 811h842v307h-842v-307z" />
    <glyph glyph-name="hbar" unicode="&#x127;" horiz-adv-x="1193" 
d="M666 1038q178 0 266 -108t88 -287v-643h-137v610q0 153 -67.5 230.5t-190.5 77.5q-58 0 -105 -17t-78 -44t-54.5 -66.5t-36 -78.5t-20.5 -85.5t-10 -81.5t-2 -74v-471h-135v1169h-155v101h155v164h133v-164h385v-101h-385v-165v-187q8 27 30.5 60t62.5 71.5t107.5 64
t148.5 25.5z" />
    <glyph glyph-name="Itilde" unicode="&#x128;" horiz-adv-x="587" 
d="M477 1579q-81 0 -166 53l-65 41q-37 24 -57.5 32.5t-49.5 8.5q-92 0 -92 -115h-121q-1 109 56 166.5t153 57.5q85 0 164 -51l63 -41q65 -41 109 -41q88 0 94 108h121q1 -109 -55 -164t-154 -55zM367 0h-144v1434h144v-1434z" />
    <glyph glyph-name="itilde" unicode="&#x129;" horiz-adv-x="503" 
d="M410 1171q-76 0 -152 54l-59 41q-27 18 -36.5 23.5t-26 11.5t-34.5 6q-84 0 -84 -117h-110q-1 110 50.5 166.5t139.5 56.5q74 0 150 -51l57 -39q24 -16 36 -23.5t28.5 -13.5t33.5 -6q80 0 86 111h111q0 -110 -51 -165t-139 -55zM319 0h-135v1010h135v-1010z" />
    <glyph glyph-name="Imacron" unicode="&#x12a;" horiz-adv-x="587" 
d="M633 1640h-678v107h678v-107zM367 0h-144v1434h144v-1434z" />
    <glyph glyph-name="imacron" unicode="&#x12b;" horiz-adv-x="503" 
d="M559 1217h-616v108h616v-108zM319 0h-135v1010h135v-1010z" />
    <glyph glyph-name="Ibreve" unicode="&#x12c;" horiz-adv-x="587" 
d="M291 1573q-146 0 -225 75t-84 185h124q7 -73 57 -114.5t128 -41.5t126.5 41.5t55.5 114.5h127q-5 -110 -84 -185t-225 -75zM367 0h-144v1434h144v-1434z" />
    <glyph glyph-name="ibreve" unicode="&#x12d;" horiz-adv-x="503" 
d="M250 1145q-132 0 -204 75t-77 185h115q7 -73 52 -114.5t114 -41.5q72 0 116 41t52 115h114q-5 -110 -77 -185t-205 -75zM319 0h-135v1010h135v-1010z" />
    <glyph glyph-name="Iogonek" unicode="&#x12e;" horiz-adv-x="589" 
d="M367 1434v-1434q-203 -89 -203 -205q0 -42 28 -67t87 -25q22 0 88 16v-108q-52 -19 -105 -19q-97 0 -154 44.5t-57 125.5q0 140 172 240v1432h144z" />
    <glyph glyph-name="iogonek" unicode="&#x12f;" horiz-adv-x="512" 
d="M182 1225v209h144v-209h-144zM119 -205q0 -92 114 -92q25 0 91 16v-108q-55 -19 -107 -19q-97 0 -154 44.5t-57 125.5q0 144 180 246v1002h136v-1010q-203 -89 -203 -205z" />
    <glyph glyph-name="Idotaccent" unicode="&#x130;" horiz-adv-x="587" 
d="M367 1591h-144v209h144v-209zM367 0h-144v1434h144v-1434z" />
    <glyph glyph-name="dotlessi" unicode="&#x131;" horiz-adv-x="503" 
d="M319 0h-135v1010h135v-1010z" />
    <glyph glyph-name="IJ" unicode="&#x132;" horiz-adv-x="1587" 
d="M367 0h-144v1434h144v-1434zM1012 -27q-181 0 -281.5 119t-91.5 336l145 39q-12 -181 49.5 -273t176.5 -92q229 0 229 332v1000h143v-1014q0 -447 -370 -447z" />
    <glyph glyph-name="ij" unicode="&#x133;" horiz-adv-x="1019" 
d="M322 1225h-144v209h144v-209zM840 1225h-142v209h142v-209zM319 0h-137v1010h137v-1010zM588 -399h-162v123h139q137 0 137 151v1135h136v-1151q0 -129 -65.5 -193.5t-184.5 -64.5z" />
    <glyph glyph-name="Jcircumflex" unicode="&#x134;" horiz-adv-x="1005" 
d="M530 1591h-147l238 244h219l237 -244h-147l-199 166zM430 -27q-182 0 -282 119t-93 336l148 39q-12 -181 49 -273t176 -92q229 0 229 332v1000h144v-1014q0 -447 -371 -447z" />
    <glyph glyph-name="jcircumflex" unicode="&#x135;" horiz-adv-x="503" 
d="M88 1161h-135l215 244h201l215 -244h-135l-181 166zM84 -399h-160v123h137q140 0 140 151v1135h135v-1151q0 -129 -66 -193.5t-186 -64.5z" />
    <glyph glyph-name="uni0136" unicode="&#x136;" horiz-adv-x="1370" 
d="M1270 1434l-574 -596l680 -838h-188l-590 733l-231 -239v-494h-144v1434h144v-439v-321l710 760h193zM782 -385h-86v192h164v-192l-117 -219h-79z" />
    <glyph glyph-name="uni0137" unicode="&#x137;" horiz-adv-x="1138" 
d="M1083 1010l-456 -414l501 -596h-176l-424 508l-209 -189v-319h-135v1434h135v-648v-313l582 537h182zM641 -385h-86v192h164v-192l-117 -219h-80z" />
    <glyph glyph-name="Lacute" unicode="&#x139;" horiz-adv-x="1171" 
d="M344 1591h-104l141 264h203zM1145 0h-922v1434h144v-1299h778v-135z" />
    <glyph glyph-name="lacute" unicode="&#x13a;" horiz-adv-x="499" 
d="M297 1583h-94l129 266h184zM319 0h-135v1434h135v-1434z" />
    <glyph glyph-name="uni013B" unicode="&#x13b;" horiz-adv-x="1171" 
d="M1145 0h-922v1434h144v-1299h778v-135zM643 -604h-80l119 219h-86v192h164v-192z" />
    <glyph glyph-name="uni013C" unicode="&#x13c;" horiz-adv-x="501" 
d="M319 0h-135v1434h135v-1434zM217 -604h-80l119 219h-86v192h164v-192z" />
    <glyph glyph-name="Lcaron" unicode="&#x13d;" horiz-adv-x="1173" 
d="M1145 0h-922v1434h144v-1299h778v-135zM727 981h-88l131 242h-96v211h180v-211z" />
    <glyph glyph-name="lcaron" unicode="&#x13e;" horiz-adv-x="550" 
d="M319 0h-135v1434h135v-1434zM522 1022h-80l119 219h-86v193h164v-193z" />
    <glyph glyph-name="Ldot" unicode="&#x13f;" horiz-adv-x="1175" 
d="M1145 0h-922v1434h144v-1299h778v-135zM946 641h-192v225h192v-225z" />
    <glyph glyph-name="ldot" unicode="&#x140;" horiz-adv-x="759" 
d="M319 0h-135v1434h135v-1434zM723 594h-195v227h195v-227z" />
    <glyph glyph-name="Lslash" unicode="&#x141;" horiz-adv-x="1218" 
d="M414 614v-479h780v-135h-924v526l-176 -106v137l176 109v768h144v-682l477 292v-139z" />
    <glyph glyph-name="lslash" unicode="&#x142;" horiz-adv-x="610" 
d="M375 889l168 121v-136l-168 -118v-756h-135v659l-152 -106v131l152 109v641h135v-545z" />
    <glyph glyph-name="Nacute" unicode="&#x143;" horiz-adv-x="1622" 
d="M864 1591h-104l141 264h203zM367 0h-144v1434h191l843 -1203v308v895h144v-1434h-152l-882 1257v-339v-918z" />
    <glyph glyph-name="nacute" unicode="&#x144;" horiz-adv-x="1187" 
d="M647 1161h-94l127 264h184zM319 0h-135v1010h131v-193q8 27 31 60.5t63 71.5t106 63.5t144 25.5q183 0 272 -108t89 -287v-643h-137v610q0 153 -67.5 230.5t-190.5 77.5q-58 0 -105 -17t-78 -44t-54.5 -66.5t-36 -78.5t-20.5 -85.5t-10 -81.5t-2 -74v-471z" />
    <glyph glyph-name="uni0145" unicode="&#x145;" horiz-adv-x="1622" 
d="M367 0h-144v1434h191l843 -1203v308v895h144v-1434h-152l-882 1257v-339v-918zM776 -604h-80l119 219h-86v192h164v-192z" />
    <glyph glyph-name="uni0146" unicode="&#x146;" horiz-adv-x="1187" 
d="M319 0h-135v1010h131v-193q8 27 31 60.5t63 71.5t106 63.5t144 25.5q183 0 272 -108t89 -287v-643h-137v610q0 153 -67.5 230.5t-190.5 77.5q-58 0 -105 -17t-78 -44t-54.5 -66.5t-36 -78.5t-20.5 -85.5t-10 -81.5t-2 -74v-471zM567 -604h-80l119 219h-86v192h162v-192z
" />
    <glyph glyph-name="Ncaron" unicode="&#x147;" horiz-adv-x="1622" 
d="M1016 1833h147l-237 -244h-219l-238 244h149l197 -166zM367 0h-144v1434h191l843 -1203v308v895h144v-1434h-152l-882 1257v-339v-918z" />
    <glyph glyph-name="ncaron" unicode="&#x148;" horiz-adv-x="1187" 
d="M698 1161h-200l-215 244h135l180 -168l180 168h135zM319 0h-135v1010h131v-193q8 27 31 60.5t63 71.5t106 63.5t144 25.5q183 0 272 -108t89 -287v-643h-137v610q0 153 -67.5 230.5t-190.5 77.5q-58 0 -105 -17t-78 -44t-54.5 -66.5t-36 -78.5t-20.5 -85.5t-10 -81.5
t-2 -74v-471z" />
    <glyph glyph-name="Eng" unicode="&#x14a;" horiz-adv-x="1622" 
d="M1104 -399h-98v129h84q77 0 122 48t45 128v92l-890 1259v-92v-247v-918h-144v1434h191l843 -1194v86v206v902h144v-1522q0 -158 -83 -234.5t-214 -76.5z" />
    <glyph glyph-name="eng" unicode="&#x14b;" horiz-adv-x="1187" 
d="M782 -399h-174v123h162q113 0 113 118v768q0 153 -67.5 230.5t-190.5 77.5q-58 0 -105 -17t-78 -44t-54.5 -66.5t-36 -78.5t-20.5 -85.5t-10 -81.5t-2 -74v-471h-135v1010h131v-193q8 27 31 60.5t63 71.5t106 63.5t144 25.5q184 0 272.5 -107.5t88.5 -287.5v-805
q0 -123 -59 -180t-179 -57z" />
    <glyph glyph-name="Omacron" unicode="&#x14c;" horiz-adv-x="1636" 
d="M1159 1640h-678v107h678v-107zM819 -27q-197 0 -357 93.5t-252.5 264.5t-92.5 388q0 163 54 302t148 235t223 150t277 54t277 -54t222.5 -150t147.5 -235t54 -302t-54 -302.5t-147.5 -236.5t-223 -152t-276.5 -55zM819 104q162 0 288 81.5t193.5 221.5t67.5 312t-68 311
t-194 219t-287 80q-162 0 -288 -80t-193.5 -218.5t-67.5 -311.5t67.5 -313t193.5 -221t288 -81z" />
    <glyph glyph-name="omacron" unicode="&#x14d;" horiz-adv-x="1150" 
d="M883 1217h-617v108h617v-108zM575 -27q-94 0 -179.5 37t-151 104t-104 168.5t-38.5 221.5q0 121 38 223t103 169t151 104.5t181 37.5t180.5 -37.5t150.5 -104.5t103 -169t38 -223t-38.5 -222.5t-104 -168t-150.5 -103.5t-179 -37zM575 92q143 0 236.5 106.5t93.5 303.5
q0 199 -94 307.5t-236 108.5t-235.5 -108.5t-93.5 -307.5q0 -197 93.5 -303.5t235.5 -106.5z" />
    <glyph glyph-name="Obreve" unicode="&#x14e;" horiz-adv-x="1636" 
d="M817 1573q-146 0 -225 75t-84 185h125q7 -73 56.5 -114.5t127.5 -41.5t126.5 41.5t55.5 114.5h127q-5 -110 -84 -185t-225 -75zM819 -27q-197 0 -357 93.5t-252.5 264.5t-92.5 388q0 163 54 302t148 235t223 150t277 54t277 -54t222.5 -150t147.5 -235t54 -302
t-54 -302.5t-147.5 -236.5t-223 -152t-276.5 -55zM819 104q162 0 288 81.5t193.5 221.5t67.5 312t-68 311t-194 219t-287 80q-162 0 -288 -80t-193.5 -218.5t-67.5 -311.5t67.5 -313t193.5 -221t288 -81z" />
    <glyph glyph-name="obreve" unicode="&#x14f;" horiz-adv-x="1150" 
d="M573 1145q-133 0 -204 75t-76 185h115q6 -73 50 -114.5t115 -41.5q72 0 116 41t52 115h113q-3 -110 -75.5 -185t-205.5 -75zM575 -27q-94 0 -179.5 37t-151 104t-104 168.5t-38.5 221.5q0 121 38 223t103 169t151 104.5t181 37.5t180.5 -37.5t150.5 -104.5t103 -169
t38 -223t-38.5 -222.5t-104 -168t-150.5 -103.5t-179 -37zM575 92q143 0 236.5 106.5t93.5 303.5q0 199 -94 307.5t-236 108.5t-235.5 -108.5t-93.5 -307.5q0 -197 93.5 -303.5t235.5 -106.5z" />
    <glyph glyph-name="Ohungarumlaut" unicode="&#x150;" horiz-adv-x="1636" 
d="M715 1591h-103l142 264h202zM1040 1591h-102l141 264h203zM819 -27q-197 0 -357 93.5t-252.5 264.5t-92.5 388q0 163 54 302t148 235t223 150t277 54t277 -54t222.5 -150t147.5 -235t54 -302t-54 -302.5t-147.5 -236.5t-223 -152t-276.5 -55zM819 104q162 0 288 81.5
t193.5 221.5t67.5 312t-68 311t-194 219t-287 80q-162 0 -288 -80t-193.5 -218.5t-67.5 -311.5t67.5 -313t193.5 -221t288 -81z" />
    <glyph glyph-name="ohungarumlaut" unicode="&#x151;" horiz-adv-x="1150" 
d="M475 1161h-92l127 264h184zM772 1161h-94l129 264h184zM575 -27q-94 0 -179.5 37t-151 104t-104 168.5t-38.5 221.5q0 121 38 223t103 169t151 104.5t181 37.5t180.5 -37.5t150.5 -104.5t103 -169t38 -223t-38.5 -222.5t-104 -168t-150.5 -103.5t-179 -37zM575 92
q143 0 236.5 106.5t93.5 303.5q0 199 -94 307.5t-236 108.5t-235.5 -108.5t-93.5 -307.5q0 -197 93.5 -303.5t235.5 -106.5z" />
    <glyph glyph-name="OE" unicode="&#x152;" horiz-adv-x="2412" 
d="M793 -27q-144 0 -269 55t-214 152t-140 236t-51 301q0 218 87 388t240.5 262.5t346.5 92.5q182 0 317 -84.5t209 -234.5v293h991v-134h-848v-479h623v-129h-623v-559h848v-133h-991v297q-71 -151 -207.5 -237.5t-318.5 -86.5zM799 104q159 0 279.5 81t182.5 220t62 314
t-62 313t-182 217.5t-280 79.5q-161 0 -281.5 -79.5t-183 -217.5t-62.5 -313t62.5 -314t183.5 -220t281 -81z" />
    <glyph glyph-name="oe" unicode="&#x153;" horiz-adv-x="1890" 
d="M573 -27q-92 0 -175.5 35.5t-149.5 101t-105 168t-39 226.5q0 122 38 224t102.5 169t150.5 104t183 37q125 0 232 -69t159 -197q48 131 148 198.5t231 67.5q141 0 245 -73.5t152 -200t33 -281.5h-736q4 -199 89.5 -296t216.5 -97q65 0 119.5 20t91 54t59.5 67.5t39 71.5
l125 -47q-53 -127 -164.5 -205t-271.5 -78q-133 0 -232.5 68.5t-144.5 198.5q-52 -128 -160.5 -197.5t-235.5 -69.5zM1044 592h596q0 161 -86 247.5t-215 86.5q-126 0 -206 -92t-89 -242zM582 92q139 0 231 106t92 304q0 200 -92 308t-231 108q-146 0 -241 -108t-95 -308
q0 -198 95 -304t241 -106z" />
    <glyph glyph-name="Racute" unicode="&#x154;" horiz-adv-x="1388" 
d="M723 1591h-102l139 264h203zM367 0h-144v1434h568q202 0 324 -109t122 -281q0 -147 -89.5 -245.5t-234.5 -128.5q129 -22 191 -91.5t88 -197.5l84 -381h-156l-73 367q-27 134 -101.5 192.5t-226.5 58.5h-352v-618zM367 1300v-552h403q141 0 228 73t87 205
q0 131 -87.5 202.5t-227.5 71.5h-403z" />
    <glyph glyph-name="racute" unicode="&#x155;" horiz-adv-x="806" 
d="M508 1161h-94l127 264h184zM317 0h-133v1010h131v-230q14 41 40 81t66 78t100 61.5t130 23.5q72 0 119 -14v-138q-94 13 -127 13q-167 0 -246.5 -114t-79.5 -314v-457z" />
    <glyph glyph-name="uni0156" unicode="&#x156;" horiz-adv-x="1388" 
d="M367 0h-144v1434h568q202 0 324 -109t122 -281q0 -147 -89.5 -245.5t-234.5 -128.5q129 -22 191 -91.5t88 -197.5l84 -381h-156l-73 367q-27 134 -101.5 192.5t-226.5 58.5h-352v-618zM367 1300v-552h403q141 0 228 73t87 205q0 131 -87.5 202.5t-227.5 71.5h-403z
M682 -604h-80l119 219h-86v192h164v-192z" />
    <glyph glyph-name="uni0157" unicode="&#x157;" horiz-adv-x="806" 
d="M317 0h-133v1010h131v-230q14 41 40 81t66 78t100 61.5t130 23.5q72 0 119 -14v-138q-94 13 -127 13q-167 0 -246.5 -114t-79.5 -314v-457zM219 -604h-80l119 219h-86v192h164v-192z" />
    <glyph glyph-name="Rcaron" unicode="&#x158;" horiz-adv-x="1388" 
d="M872 1833h148l-236 -244h-221l-235 244h147l199 -166zM367 0h-144v1434h568q202 0 324 -109t122 -281q0 -147 -89.5 -245.5t-234.5 -128.5q129 -22 191 -91.5t88 -197.5l84 -381h-156l-73 367q-27 134 -101.5 192.5t-226.5 58.5h-352v-618zM367 1300v-552h403
q141 0 228 73t87 205q0 131 -87.5 202.5t-227.5 71.5h-403z" />
    <glyph glyph-name="rcaron" unicode="&#x159;" horiz-adv-x="806" 
d="M559 1161h-199l-215 244h134l182 -168l180 168h133zM317 0h-133v1010h131v-230q14 41 40 81t66 78t100 61.5t130 23.5q72 0 119 -14v-138q-94 13 -127 13q-167 0 -246.5 -114t-79.5 -314v-457z" />
    <glyph glyph-name="Sacute" unicode="&#x15a;" horiz-adv-x="1257" 
d="M670 1591h-105l142 264h202zM635 -27q-210 0 -351 99.5t-198 271.5l141 66q41 -137 149.5 -221.5t264.5 -84.5q164 0 259 73t95 196q0 203 -282 270l-205 53q-354 88 -354 379q0 173 132.5 279t338.5 106q111 0 202.5 -31.5t149.5 -82t93 -101t52 -102.5l-135 -64
q-12 32 -28 61.5t-47 65.5t-69.5 62.5t-98.5 44.5t-130 18q-143 0 -230 -68t-87 -180q0 -98 64 -156t204 -96l199 -49q177 -43 280 -143.5t103 -255.5q0 -185 -135.5 -297.5t-376.5 -112.5z" />
    <glyph glyph-name="sacute" unicode="&#x15b;" horiz-adv-x="995" 
d="M557 1161h-96l129 264h184zM506 -27q-170 0 -282.5 79.5t-137.5 209.5l129 41q19 -92 92 -153.5t199 -61.5q124 0 190 46.5t66 123.5q0 139 -203 184l-135 29q-49 11 -88 24t-79.5 35.5t-67.5 51t-44.5 72t-17.5 96.5q0 125 103 206.5t259 81.5q161 0 257.5 -71
t125.5 -176l-120 -48q-19 70 -84 126.5t-179 56.5q-110 0 -169.5 -47.5t-59.5 -114.5q0 -61 40.5 -100t139.5 -60l135 -29q324 -78 324 -307q0 -133 -101 -214t-292 -81z" />
    <glyph glyph-name="Scircumflex" unicode="&#x15c;" horiz-adv-x="1257" 
d="M420 1591h-148l238 244h219l238 -244h-148l-198 166zM635 -27q-210 0 -351 99.5t-198 271.5l141 66q41 -137 149.5 -221.5t264.5 -84.5q164 0 259 73t95 196q0 203 -282 270l-205 53q-354 88 -354 379q0 173 132.5 279t338.5 106q111 0 202.5 -31.5t149.5 -82t93 -101
t52 -102.5l-135 -64q-12 32 -28 61.5t-47 65.5t-69.5 62.5t-98.5 44.5t-130 18q-143 0 -230 -68t-87 -180q0 -98 64 -156t204 -96l199 -49q177 -43 280 -143.5t103 -255.5q0 -185 -135.5 -297.5t-376.5 -112.5z" />
    <glyph glyph-name="scircumflex" unicode="&#x15d;" horiz-adv-x="995" 
d="M328 1161h-135l215 244h200l215 -244h-135l-180 166zM506 -27q-170 0 -282.5 79.5t-137.5 209.5l129 41q19 -92 92 -153.5t199 -61.5q124 0 190 46.5t66 123.5q0 139 -203 184l-135 29q-49 11 -88 24t-79.5 35.5t-67.5 51t-44.5 72t-17.5 96.5q0 125 103 206.5t259 81.5
q161 0 257.5 -71t125.5 -176l-120 -48q-19 70 -84 126.5t-179 56.5q-110 0 -169.5 -47.5t-59.5 -114.5q0 -61 40.5 -100t139.5 -60l135 -29q324 -78 324 -307q0 -133 -101 -214t-292 -81z" />
    <glyph glyph-name="Scedilla" unicode="&#x15e;" horiz-adv-x="1257" 
d="M688 -25l-24 -24l-54 -55q14 2 43 2q75 0 128 -40.5t53 -111.5q0 -74 -57.5 -121t-153.5 -47q-72 0 -130.5 26t-93.5 66l62 78q69 -74 153 -74q50 0 79.5 20t29.5 60q0 34 -29.5 54t-70.5 20q-40 0 -80 -14l-47 59l92 102q-191 10 -319.5 108.5t-182.5 260.5l141 66
q41 -137 149.5 -221.5t264.5 -84.5q164 0 259 73t95 196q0 203 -282 270l-205 53q-354 88 -354 379q0 173 132.5 279t338.5 106q111 0 202.5 -31.5t149.5 -82t93 -101t52 -102.5l-135 -64q-12 32 -28 61.5t-47 65.5t-69.5 62.5t-98.5 44.5t-130 18q-143 0 -230 -68t-87 -180
q0 -98 64 -156t204 -96l199 -49q177 -43 280 -143.5t103 -255.5q0 -174 -121 -285t-338 -123z" />
    <glyph glyph-name="scedilla" unicode="&#x15f;" horiz-adv-x="995" 
d="M555 -25l-27 -24q-14 -16 -53 -55q16 2 45 2q75 0 126.5 -40t51.5 -112q0 -74 -56.5 -121t-154.5 -47q-71 0 -129.5 26t-93.5 66l64 78q64 -74 151 -74q50 0 80.5 20t30.5 60q0 34 -31 54t-72 20q-39 0 -79 -14l-48 59l95 102q-150 12 -247.5 89.5t-121.5 197.5l129 41
q19 -92 92 -153.5t199 -61.5q124 0 190 46.5t66 123.5q0 139 -203 184l-135 29q-49 11 -88 24t-79.5 35.5t-67.5 51t-44.5 72t-17.5 96.5q0 125 103 206.5t259 81.5q161 0 257.5 -71t125.5 -176l-120 -48q-19 70 -84 126.5t-179 56.5q-110 0 -169.5 -47.5t-59.5 -114.5
q0 -61 40.5 -100t139.5 -60l135 -29q324 -78 324 -307q0 -124 -88 -203.5t-256 -89.5z" />
    <glyph glyph-name="Scaron" unicode="&#x160;" horiz-adv-x="1257" 
d="M819 1833h148l-236 -244h-221l-236 244h148l199 -166zM635 -27q-210 0 -351 99.5t-198 271.5l141 66q41 -137 149.5 -221.5t264.5 -84.5q164 0 259 73t95 196q0 203 -282 270l-205 53q-354 88 -354 379q0 173 132.5 279t338.5 106q111 0 202.5 -31.5t149.5 -82t93 -101
t52 -102.5l-135 -64q-12 32 -28 61.5t-47 65.5t-69.5 62.5t-98.5 44.5t-130 18q-143 0 -230 -68t-87 -180q0 -98 64 -156t204 -96l199 -49q177 -43 280 -143.5t103 -255.5q0 -185 -135.5 -297.5t-376.5 -112.5z" />
    <glyph glyph-name="scaron" unicode="&#x161;" horiz-adv-x="995" 
d="M608 1161h-200l-215 244h135l180 -168l180 168h135zM506 -27q-170 0 -282.5 79.5t-137.5 209.5l129 41q19 -92 92 -153.5t199 -61.5q124 0 190 46.5t66 123.5q0 139 -203 184l-135 29q-49 11 -88 24t-79.5 35.5t-67.5 51t-44.5 72t-17.5 96.5q0 125 103 206.5t259 81.5
q161 0 257.5 -71t125.5 -176l-120 -48q-19 70 -84 126.5t-179 56.5q-110 0 -169.5 -47.5t-59.5 -114.5q0 -61 40.5 -100t139.5 -60l135 -29q324 -78 324 -307q0 -133 -101 -214t-292 -81z" />
    <glyph glyph-name="uni0162" unicode="&#x162;" horiz-adv-x="1263" 
d="M690 1300v-1300l-51 -49l-53 -55q14 2 43 2q75 0 126.5 -40t51.5 -112q0 -74 -56.5 -121t-154.5 -47q-71 0 -129.5 26t-91.5 66l63 78q64 -74 152 -74q49 0 78.5 20t29.5 60q0 34 -30 54t-72 20q-40 0 -80 -14l-45 59l115 127h-39v1300h-520v134h1210v-134h-547z" />
    <glyph glyph-name="uni0163" unicode="&#x163;" horiz-adv-x="786" 
d="M743 0h-149l-51 -49l-54 -55q14 2 43 2q75 0 127 -40t52 -112q0 -74 -56.5 -121t-154.5 -47q-71 0 -128.5 26t-92.5 66l61 78q69 -74 154 -74q49 0 78.5 20t29.5 60q0 34 -29.5 54t-70.5 20q-40 0 -80 -14l-47 59l119 131q-211 23 -211 252v639h-248v115h248v305h135
v-305h289v-115h-289v-627q0 -149 149 -149h176v-119z" />
    <glyph glyph-name="Tcaron" unicode="&#x164;" horiz-adv-x="1263" 
d="M817 1833h148l-236 -244h-221l-236 244h148l198 -166zM690 0h-143v1300h-520v134h1210v-134h-547v-1300z" />
    <glyph glyph-name="tcaron" unicode="&#x165;" horiz-adv-x="786" 
d="M676 1100h-80l119 219h-86v192h164v-192zM743 0h-190q-270 0 -270 256v639h-248v115h248v305h135v-305h289v-115h-289v-627q0 -149 149 -149h176v-119z" />
    <glyph glyph-name="Tbar" unicode="&#x166;" horiz-adv-x="1300" 
d="M1255 1434v-134h-544v-456h342v-115h-342v-729h-144v729h-340v115h340v456h-522v134h1210z" />
    <glyph glyph-name="tbar" unicode="&#x167;" horiz-adv-x="823" 
d="M596 119h174v-119h-190q-269 0 -269 256v291h-250v110h250v238h-250v115h250v305h135v-305h287v-115h-287v-238h287v-110h-287v-279q0 -76 36.5 -112.5t113.5 -36.5z" />
    <glyph glyph-name="Utilde" unicode="&#x168;" horiz-adv-x="1433" 
d="M905 1579q-81 0 -166 53l-65 41q-37 24 -57.5 32.5t-49.5 8.5q-92 0 -92 -115h-121q-1 109 55.5 166.5t153.5 57.5q81 0 164 -51l64 -41q65 -41 108 -41q88 0 94 108h121q1 -109 -55 -164t-154 -55zM719 -27q-247 0 -381.5 144t-134.5 422v895h143v-871q0 -219 92 -336.5
t281 -117.5t280 117.5t91 336.5v871h143v-895q0 -272 -131.5 -419t-382.5 -147z" />
    <glyph glyph-name="utilde" unicode="&#x169;" horiz-adv-x="1171" 
d="M735 1171q-75 0 -151 54l-60 41q-2 2 -11 8t-11 7t-9.5 5.5t-9.5 5.5t-8 4.5t-9 4t-8.5 2.5t-9.5 2.5t-9 1t-11 0.5q-43 0 -64.5 -31.5t-19.5 -85.5h-111q-1 110 51 166.5t140 56.5q73 0 149 -51l56 -39q24 -16 36 -23.5t29 -13.5t35 -6q80 0 86 111h111
q0 -110 -51.5 -165t-139.5 -55zM514 -27q-174 0 -260 103.5t-86 285.5v648h135v-615q0 -155 66 -228t184 -73q84 0 144.5 38.5t93 104.5t47 140.5t14.5 161.5v471h137v-1010h-133v201q-11 -24 -24.5 -47.5t-43 -58.5t-64.5 -60t-90.5 -43.5t-119.5 -18.5z" />
    <glyph glyph-name="Umacron" unicode="&#x16a;" horiz-adv-x="1433" 
d="M1061 1640h-678v107h678v-107zM719 -27q-247 0 -381.5 144t-134.5 422v895h143v-871q0 -219 92 -336.5t281 -117.5t280 117.5t91 336.5v871h143v-895q0 -272 -131.5 -419t-382.5 -147z" />
    <glyph glyph-name="umacron" unicode="&#x16b;" horiz-adv-x="1171" 
d="M885 1217h-617v108h617v-108zM514 -27q-174 0 -260 103.5t-86 285.5v648h135v-615q0 -155 66 -228t184 -73q84 0 144.5 38.5t93 104.5t47 140.5t14.5 161.5v471h137v-1010h-133v201q-11 -24 -24.5 -47.5t-43 -58.5t-64.5 -60t-90.5 -43.5t-119.5 -18.5z" />
    <glyph glyph-name="Ubreve" unicode="&#x16c;" horiz-adv-x="1433" 
d="M717 1573q-146 0 -225 75t-84 185h127q7 -73 56 -114.5t126 -41.5q78 0 127.5 41.5t56.5 114.5h125q-5 -110 -84 -185t-225 -75zM719 -27q-247 0 -381.5 144t-134.5 422v895h143v-871q0 -219 92 -336.5t281 -117.5t280 117.5t91 336.5v871h143v-895q0 -272 -131.5 -419
t-382.5 -147z" />
    <glyph glyph-name="ubreve" unicode="&#x16d;" horiz-adv-x="1171" 
d="M575 1145q-132 0 -203.5 75t-76.5 185h115q8 -74 51.5 -115t113.5 -41q72 0 116 41t52 115h115q-5 -110 -77.5 -185t-205.5 -75zM514 -27q-174 0 -260 103.5t-86 285.5v648h135v-615q0 -155 66 -228t184 -73q84 0 144.5 38.5t93 104.5t47 140.5t14.5 161.5v471h137v-1010
h-133v201q-11 -24 -24.5 -47.5t-43 -58.5t-64.5 -60t-90.5 -43.5t-119.5 -18.5z" />
    <glyph glyph-name="Uring" unicode="&#x16e;" horiz-adv-x="1433" 
d="M721 1563q-98 0 -163.5 65.5t-65.5 161.5q0 93 66.5 158t162.5 65q95 0 160 -65.5t65 -159.5q0 -95 -65 -160t-160 -65zM721 1655q53 0 89 39.5t36 93.5q0 53 -36 92t-89 39q-55 0 -91 -38t-36 -91q0 -56 35 -95.5t92 -39.5zM719 -27q-247 0 -381.5 144t-134.5 422v895
h143v-871q0 -219 92 -336.5t281 -117.5t280 117.5t91 336.5v871h143v-895q0 -272 -131.5 -419t-382.5 -147z" />
    <glyph glyph-name="uring" unicode="&#x16f;" horiz-adv-x="1171" 
d="M580 1120q-93 0 -155.5 63t-62.5 154q0 88 63 149.5t155 61.5q91 0 153 -62t62 -151q0 -91 -62 -153t-153 -62zM580 1208q51 0 84.5 38t33.5 89t-33.5 88t-84.5 37q-52 0 -86.5 -37t-34.5 -86q0 -53 33.5 -91t87.5 -38zM514 -27q-174 0 -260 103.5t-86 285.5v648h135
v-615q0 -155 66 -228t184 -73q84 0 144.5 38.5t93 104.5t47 140.5t14.5 161.5v471h137v-1010h-133v201q-11 -24 -24.5 -47.5t-43 -58.5t-64.5 -60t-90.5 -43.5t-119.5 -18.5z" />
    <glyph glyph-name="Uhungarumlaut" unicode="&#x170;" horiz-adv-x="1433" 
d="M614 1591h-102l141 264h203zM942 1591h-104l141 264h203zM719 -27q-247 0 -381.5 144t-134.5 422v895h143v-871q0 -219 92 -336.5t281 -117.5t280 117.5t91 336.5v871h143v-895q0 -272 -131.5 -419t-382.5 -147z" />
    <glyph glyph-name="uhungarumlaut" unicode="&#x171;" horiz-adv-x="1171" 
d="M477 1161h-92l127 264h186zM774 1161h-92l127 264h184zM514 -27q-174 0 -260 103.5t-86 285.5v648h135v-615q0 -155 66 -228t184 -73q84 0 144.5 38.5t93 104.5t47 140.5t14.5 161.5v471h137v-1010h-133v201q-11 -24 -24.5 -47.5t-43 -58.5t-64.5 -60t-90.5 -43.5
t-119.5 -18.5z" />
    <glyph glyph-name="Uogonek" unicode="&#x172;" horiz-adv-x="1433" 
d="M801 -408q-94 0 -150.5 45.5t-56.5 124.5q0 116 121 211q-245 0 -378.5 143.5t-133.5 422.5v895h143v-871q0 -219 92 -336.5t281 -117.5t280 117.5t91 336.5v871h143v-895q0 -420 -313 -539q-213 -79 -213 -203q0 -94 112 -94q22 0 92 16v-108q-55 -19 -110 -19z" />
    <glyph glyph-name="uogonek" unicode="&#x173;" horiz-adv-x="1171" 
d="M989 1010v-1010q-205 -90 -205 -205q0 -42 28 -67t87 -25q24 0 90 16v-108q-55 -19 -104 -19q-97 0 -155 45t-58 125q0 145 184 248v191q-11 -24 -24.5 -47.5t-43 -58.5t-64.5 -60t-90.5 -43.5t-119.5 -18.5q-174 0 -260 103.5t-86 285.5v648h135v-615q0 -155 66 -228
t184 -73q84 0 144.5 38.5t93 104.5t47 140.5t14.5 161.5v471h137z" />
    <glyph glyph-name="Wcircumflex" unicode="&#x174;" horiz-adv-x="1984" 
d="M795 1591h-148l238 244h219l237 -244h-149l-197 166zM635 0h-193l-350 1434h152l215 -912q44 -196 86 -362q13 53 98 346l266 928h172l271 -973q49 -176 86 -301q9 38 35 145t53 219l223 910h149l-366 -1434h-189l-270 958q-64 228 -78 289q-11 -37 -37 -129t-45 -160z
" />
    <glyph glyph-name="wcircumflex" unicode="&#x175;" horiz-adv-x="1675" 
d="M657 1161h-133l213 244h201l215 -244h-133l-180 166zM563 0h-160l-337 1010h141l166 -516q110 -342 114 -355q12 40 25 81t36.5 116.5t47.5 150.5l162 523h157l172 -547q41 -138 99 -322q18 52 117 357l167 512h144l-344 -1010h-168l-176 567q-25 79 -53 172t-37 121
q-12 -35 -40 -125.5t-53 -165.5z" />
    <glyph glyph-name="Ycircumflex" unicode="&#x176;" horiz-adv-x="1312" 
d="M471 1591h-147l235 244h221l236 -244h-148l-198 166zM731 0h-143v616l-514 818h172l315 -514l98 -162q10 15 26.5 41t39 62.5t35.5 58.5l305 514h170l-504 -813v-621z" />
    <glyph glyph-name="ycircumflex" unicode="&#x177;" horiz-adv-x="1032" 
d="M688 1161l-180 166l-182 -166h-133l213 244h200l215 -244h-133zM618 424l203 586h146l-414 -1162q-47 -138 -111.5 -192.5t-197.5 -54.5h-168v123h166q71 0 112 27.5t70 109.5l61 168l-444 981h149l250 -574q77 -175 101 -233q20 53 77 221z" />
    <glyph glyph-name="Ydieresis" unicode="&#x178;" horiz-adv-x="1312" 
d="M543 1591h-168v183h168v-183zM954 1591h-166v183h166v-183zM731 0h-143v616l-514 818h172l315 -514l98 -162q10 15 26.5 41t39 62.5t35.5 58.5l305 514h170l-504 -813v-621z" />
    <glyph glyph-name="Zacute" unicode="&#x179;" horiz-adv-x="1234" 
d="M678 1591h-105l142 264h203zM1165 0h-1087v166l887 1134h-209h-631v134h1010v-146l-906 -1155h205h731v-133z" />
    <glyph glyph-name="zacute" unicode="&#x17a;" horiz-adv-x="983" 
d="M539 1161h-95l129 264h185zM907 0h-817v121l612 770h-202h-396v119h775v-103l-627 -788h215h440v-119z" />
    <glyph glyph-name="Zdotaccent" unicode="&#x17b;" horiz-adv-x="1234" 
d="M702 1591h-143v209h143v-209zM1165 0h-1087v166l887 1134h-209h-631v134h1010v-146l-906 -1155h205h731v-133z" />
    <glyph glyph-name="zdotaccent" unicode="&#x17c;" horiz-adv-x="983" 
d="M563 1225h-143v209h143v-209zM907 0h-817v121l612 770h-202h-396v119h775v-103l-627 -788h215h440v-119z" />
    <glyph glyph-name="Zcaron" unicode="&#x17d;" horiz-adv-x="1234" 
d="M829 1833h148l-238 -244h-219l-237 244h149l197 -166zM1165 0h-1087v166l887 1134h-209h-631v134h1010v-146l-906 -1155h205h731v-133z" />
    <glyph glyph-name="zcaron" unicode="&#x17e;" horiz-adv-x="983" 
d="M590 1161h-201l-215 244h135l180 -168l181 168h135zM907 0h-817v121l612 770h-202h-396v119h775v-103l-627 -788h215h440v-119z" />
    <glyph glyph-name="florin" unicode="&#x192;" horiz-adv-x="948" 
d="M57 -422q-105 0 -176 31v123q71 -31 156 -31q76 0 133 51.5t76 165.5l86 510q11 73 28.5 174.5t22.5 134.5h-182h-88v113h288l50 297q51 309 315 309q68 0 143 -16v-123q-61 12 -125 12q-93 0 -135.5 -52t-62.5 -171l-43 -256h270v-113h-289l-139 -829
q-29 -174 -117.5 -252t-210.5 -78z" />
    <glyph glyph-name="AEacute" unicode="&#x1fc;" horiz-adv-x="1894" 
d="M1327 1855h203l-240 -264h-102zM1790 1434v-134h-725v-483h537v-129h-537v-555h725v-133h-866v422h-527l-247 -422h-173l867 1434h946zM924 553v401v363q-142 -235 -222 -375l-229 -389h451z" />
    <glyph glyph-name="aeacute" unicode="&#x1fd;" horiz-adv-x="1744" 
d="M922 1161h-95l127 264h185zM442 -27q-155 0 -241 75t-86 204q0 96 52 171t144.5 122.5t208 74.5t252.5 35v37q0 107 -62 167.5t-188 60.5q-220 0 -297 -193l-125 43q16 49 46.5 93t79 85t124 65.5t166.5 24.5q139 0 225.5 -58.5t118.5 -150.5q42 95 137 152t205 57
q141 0 245 -73t152.5 -199t34.5 -283h-737q2 -107 29.5 -186t73 -122.5t98 -64t112.5 -20.5q63 0 116 20t88.5 53.5t59 67.5t39.5 72l127 -47q-50 -126 -162.5 -204.5t-269.5 -78.5q-143 0 -245.5 75t-137.5 190q-35 -110 -137.5 -187.5t-245.5 -77.5zM901 592h596
q-1 82 -25.5 147t-65.5 105t-93.5 61t-112.5 21q-127 0 -209 -92.5t-90 -241.5zM467 88q56 0 108.5 20t97.5 60.5t72 111.5t27 164v109q-150 -8 -263 -40.5t-184 -97t-71 -155.5q0 -78 54.5 -125t158.5 -47z" />
    <glyph glyph-name="Oslashacute" unicode="&#x1fe;" horiz-adv-x="1642" 
d="M870 1591h-104l141 264h203zM416 98l-123 -153l-103 80l127 159q-96 100 -148 237t-52 298q0 163 54 302t148 235t224 150t278 54q233 0 408 -127l129 164l102 -84l-133 -168q195 -205 195 -526q0 -163 -54 -303t-147.5 -237.5t-223 -152.5t-276.5 -55q-226 0 -405 127z
M408 299l573 725q21 26 76 94.5t84 106.5q-139 104 -322 104q-161 0 -287 -80t-194 -218.5t-68 -311.5q0 -249 138 -420zM819 104q162 0 288 81t193.5 221t67.5 313q0 238 -133 411l-545 -688q-136 -173 -186 -235q141 -103 315 -103z" />
    <glyph glyph-name="oslashacute" unicode="&#x1ff;" horiz-adv-x="1163" 
d="M649 1161h-94l127 264h186zM582 -27q-156 0 -277 95l-80 -105l-82 64l88 112q-120 143 -120 365q0 121 38 223t103 169t150 104.5t180 37.5q158 0 282 -98l74 92l80 -61l-82 -105q119 -145 119 -362q0 -121 -38.5 -222.5t-104 -168t-151 -103.5t-179.5 -37zM319 246
l363 463q94 121 104 133q-85 76 -204 76q-141 0 -235.5 -109t-94.5 -307q0 -153 67 -256zM584 92q141 0 235 106.5t94 303.5q0 150 -65 258l-346 -447q-11 -13 -53 -66.5t-66 -82.5q81 -72 201 -72z" />
    <glyph glyph-name="uni0218" unicode="&#x218;" horiz-adv-x="1257" 
d="M635 -27q-210 0 -351 99.5t-198 271.5l141 66q41 -137 149.5 -221.5t264.5 -84.5q164 0 259 73t95 196q0 203 -282 270l-205 53q-354 88 -354 379q0 173 132.5 279t338.5 106q111 0 202.5 -31.5t149.5 -82t93 -101t52 -102.5l-135 -64q-12 32 -28 61.5t-47 65.5
t-69.5 62.5t-98.5 44.5t-130 18q-143 0 -230 -68t-87 -180q0 -98 64 -156t204 -96l199 -49q177 -43 280 -143.5t103 -255.5q0 -185 -135.5 -297.5t-376.5 -112.5zM610 -604h-80l119 219h-86v192h164v-192z" />
    <glyph glyph-name="uni0219" unicode="&#x219;" horiz-adv-x="995" 
d="M506 -27q-170 0 -282.5 79.5t-137.5 209.5l129 41q19 -92 92 -153.5t199 -61.5q124 0 190 46.5t66 123.5q0 139 -203 184l-135 29q-49 11 -88 24t-79.5 35.5t-67.5 51t-44.5 72t-17.5 96.5q0 125 103 206.5t259 81.5q161 0 257.5 -71t125.5 -176l-120 -48
q-19 70 -84 126.5t-179 56.5q-110 0 -169.5 -47.5t-59.5 -114.5q0 -61 40.5 -100t139.5 -60l135 -29q324 -78 324 -307q0 -133 -101 -214t-292 -81zM477 -604h-80l119 219h-88v192h164v-192z" />
    <glyph glyph-name="uni021A" unicode="&#x21a;" horiz-adv-x="1263" 
d="M690 0h-143v1300h-520v134h1210v-134h-547v-1300zM586 -604h-80l119 219h-88v192h163v-192z" />
    <glyph glyph-name="uni021B" unicode="&#x21b;" horiz-adv-x="786" 
d="M743 0h-190q-270 0 -270 256v639h-248v115h248v305h135v-305h289v-115h-289v-627q0 -149 149 -149h176v-119zM487 -604h-79l118 219h-86v192h164v-192z" />
    <glyph glyph-name="uni0226" unicode="&#x226;" horiz-adv-x="1376" 
d="M618 1800h144v-209h-144v209zM1325 0h-162l-153 420h-650l-153 -420h-158l543 1434h196zM596 1069l-188 -518h555l-189 518q-23 66 -52 146t-36 100q-13 -32 -44 -118.5t-46 -127.5z" />
    <glyph glyph-name="uni0227" unicode="&#x227;" horiz-adv-x="1099" 
d="M594 1225h-143v209h143v-209zM432 -27q-145 0 -231 74.5t-86 202.5q0 79 35.5 144t95.5 109.5t144.5 77t178 50t201.5 24.5v47q0 100 -61.5 159t-186.5 59q-230 0 -295 -193l-131 45q13 48 44.5 93t82 85t128 64t171.5 24q194 0 288.5 -94t94.5 -250v-487q0 -48 20 -68
t60 -20h96v-119h-116q-96 0 -137.5 43t-47.5 139q-112 -209 -348 -209zM461 88q58 0 111 20t98.5 60.5t72.5 110t27 159.5v115q-109 -8 -199.5 -28.5t-163 -55.5t-113 -88t-40.5 -121q0 -79 54.5 -125.5t152.5 -46.5z" />
    <glyph glyph-name="uni0232" unicode="&#x232;" horiz-adv-x="1312" 
d="M1008 1640h-678v107h678v-107zM731 0h-143v616l-514 818h172l315 -514l98 -162q10 15 26.5 41t39 62.5t35.5 58.5l305 514h170l-504 -813v-621z" />
    <glyph glyph-name="uni0233" unicode="&#x233;" horiz-adv-x="1032" 
d="M199 1325h616v-108h-616v108zM618 424l203 586h146l-414 -1162q-47 -138 -111.5 -192.5t-197.5 -54.5h-168v123h166q71 0 112 27.5t70 109.5l61 168l-444 981h149l250 -574q77 -175 101 -233q20 53 77 221z" />
    <glyph glyph-name="uni0237" unicode="&#x237;" horiz-adv-x="518" 
d="M84 -399h-160v123h137q140 0 140 151v1135h135v-1151q0 -129 -66 -193.5t-186 -64.5z" />
    <glyph glyph-name="circumflex" unicode="&#x2c6;" horiz-adv-x="829" 
d="M233 1161h-133l213 244h201l215 -244h-133l-180 166z" />
    <glyph glyph-name="caron" unicode="&#x2c7;" horiz-adv-x="829" 
d="M514 1161h-201l-213 244h133l183 -168l180 168h133z" />
    <glyph glyph-name="breve" unicode="&#x2d8;" horiz-adv-x="761" 
d="M381 1145q-133 0 -205.5 75t-75.5 185h113q7 -73 52 -114.5t116 -41.5t115.5 41.5t50.5 114.5h115q-5 -110 -76.5 -185t-204.5 -75z" />
    <glyph glyph-name="dotaccent" unicode="&#x2d9;" horiz-adv-x="505" 
d="M326 1225h-144v209h144v-209z" />
    <glyph glyph-name="ring" unicode="&#x2da;" horiz-adv-x="606" 
d="M303 1120q-92 0 -154.5 63t-62.5 154q0 88 62.5 149.5t154.5 61.5q91 0 154 -62t63 -151q0 -91 -63 -153t-154 -62zM303 1208q51 0 85 38t34 89t-34 88t-85 37t-85 -37t-34 -86q0 -53 32.5 -91t86.5 -38z" />
    <glyph glyph-name="ogonek" unicode="&#x2db;" horiz-adv-x="507" 
d="M301 -408q-97 0 -154 44.5t-57 125.5q0 179 277 291l39 -53q-203 -91 -203 -205q0 -92 114 -92q25 0 91 16v-108q-55 -19 -107 -19z" />
    <glyph glyph-name="tilde" unicode="&#x2dc;" horiz-adv-x="823" 
d="M567 1171q-75 0 -151 54l-60 41q-2 2 -11 8t-11 7t-9.5 5.5t-9.5 5.5t-8 4.5t-9 4t-8.5 2.5t-9.5 2.5t-9 1t-11 0.5q-43 0 -64.5 -31.5t-19.5 -85.5h-110q-1 110 50.5 166.5t139.5 56.5q74 0 150 -51l55 -39q24 -16 36 -23.5t29 -13.5t35 -6q80 0 86 111h111
q0 -110 -51.5 -165t-139.5 -55z" />
    <glyph glyph-name="hungarumlaut" unicode="&#x2dd;" horiz-adv-x="770" 
d="M195 1161h-93l127 264h185zM492 1161h-95l129 264h185z" />
    <glyph glyph-name="uni0394" unicode="&#x394;" horiz-adv-x="1372" 
d="M590 1434h196l535 -1434h-1270zM573 1012l-317 -879h856l-317 877q-99 273 -111 303q-18 -46 -57.5 -154.5t-53.5 -146.5z" />
    <glyph glyph-name="uni03A9" unicode="&#x3a9;" horiz-adv-x="1632" 
d="M713 0h-539v133h111h235q-181 73 -283 232t-102 378q0 206 87 370t242.5 255.5t350.5 91.5q147 0 273 -53.5t215 -148t139.5 -227.5t50.5 -288q0 -220 -101 -378.5t-282 -231.5h233h109v-133h-539v154q200 38 314 195.5t114 389.5q0 166 -62.5 299t-183.5 212t-280 79
t-280 -79t-183.5 -212t-62.5 -299q0 -231 113.5 -388t310.5 -197v-154z" />
    <glyph glyph-name="uni03BC" unicode="&#x3bc;" horiz-adv-x="1183" 
d="M319 -399h-135v1409h135v-623q0 -150 67 -222.5t185 -72.5q64 0 114 21.5t81 59.5t52 81.5t31 98t13.5 97t3.5 89.5v471h135v-1010h-133v195q-7 -21 -20.5 -45.5t-41 -57.5t-62.5 -59t-89 -44t-116 -18q-146 0 -220 84v-454z" />
    <glyph glyph-name="pi" unicode="&#x3c0;" horiz-adv-x="1280" 
d="M408 0h-136v891h-231v119h1137v-119h-234v-662q0 -55 25.5 -82.5t87.5 -27.5h133v-119h-152q-231 0 -231 197v694h-399v-891z" />
    <glyph glyph-name="Wgrave" unicode="&#x1e80;" horiz-adv-x="1984" 
d="M1051 1591h-105l-237 264h200zM635 0h-193l-350 1434h152l215 -912q44 -196 86 -362q13 53 98 346l266 928h172l271 -973q49 -176 86 -301q9 38 35 145t53 219l223 910h149l-366 -1434h-189l-270 958q-64 228 -78 289q-11 -37 -37 -129t-45 -160z" />
    <glyph glyph-name="wgrave" unicode="&#x1e81;" horiz-adv-x="1675" 
d="M883 1161h-92l-218 264h183zM563 0h-160l-337 1010h141l166 -516q110 -342 114 -355q12 40 25 81t36.5 116.5t47.5 150.5l162 523h157l172 -547q41 -138 99 -322q18 52 117 357l167 512h144l-344 -1010h-168l-176 567q-25 79 -53 172t-37 121q-12 -35 -40 -125.5
t-53 -165.5z" />
    <glyph glyph-name="Wacute" unicode="&#x1e82;" horiz-adv-x="1984" 
d="M1044 1591h-104l139 264h205zM635 0h-193l-350 1434h152l215 -912q44 -196 86 -362q13 53 98 346l266 928h172l271 -973q49 -176 86 -301q9 38 35 145t53 219l223 910h149l-366 -1434h-189l-270 958q-64 228 -78 289q-11 -37 -37 -129t-45 -160z" />
    <glyph glyph-name="wacute" unicode="&#x1e83;" horiz-adv-x="1675" 
d="M887 1161h-94l127 264h184zM563 0h-160l-337 1010h141l166 -516q110 -342 114 -355q12 40 25 81t36.5 116.5t47.5 150.5l162 523h157l172 -547q41 -138 99 -322q18 52 117 357l167 512h144l-344 -1010h-168l-176 567q-25 79 -53 172t-37 121q-12 -35 -40 -125.5
t-53 -165.5z" />
    <glyph glyph-name="Wdieresis" unicode="&#x1e84;" horiz-adv-x="1984" 
d="M868 1591h-170v183h170v-183zM1280 1591h-168v183h168v-183zM635 0h-193l-350 1434h152l215 -912q44 -196 86 -362q13 53 98 346l266 928h172l271 -973q49 -176 86 -301q9 38 35 145t53 219l223 910h149l-366 -1434h-189l-270 958q-64 228 -78 289q-11 -37 -37 -129
t-45 -160z" />
    <glyph glyph-name="wdieresis" unicode="&#x1e85;" horiz-adv-x="1675" 
d="M727 1219h-154v182h154v-182zM1102 1219h-152v182h152v-182zM563 0h-160l-337 1010h141l166 -516q110 -342 114 -355q12 40 25 81t36.5 116.5t47.5 150.5l162 523h157l172 -547q41 -138 99 -322q18 52 117 357l167 512h144l-344 -1010h-168l-176 567q-25 79 -53 172
t-37 121q-12 -35 -40 -125.5t-53 -165.5z" />
    <glyph glyph-name="uni1E9E" unicode="&#x1e9e;" horiz-adv-x="1437" 
d="M831 -29q-203 0 -331 84v142q74 -49 146.5 -72t176.5 -23q154 0 249 77.5t95 215.5q0 123 -90 203t-260 80h-211v131h187q138 0 221.5 69.5t83.5 182.5q0 109 -80 174t-219 65h-432v-1300h-144v1434h594q206 0 318 -97.5t112 -259.5q0 -128 -78.5 -214t-179.5 -111
q135 -22 232.5 -120t97.5 -249q0 -178 -130 -295t-358 -117z" />
    <glyph glyph-name="Ygrave" unicode="&#x1ef2;" horiz-adv-x="1312" 
d="M723 1591h-102l-238 264h201zM731 0h-143v616l-514 818h172l315 -514l98 -162q10 15 26.5 41t39 62.5t35.5 58.5l305 514h170l-504 -813v-621z" />
    <glyph glyph-name="ygrave" unicode="&#x1ef3;" horiz-adv-x="1032" 
d="M424 1425l127 -264h-92l-217 264h182zM618 424l203 586h146l-414 -1162q-47 -138 -111.5 -192.5t-197.5 -54.5h-168v123h166q71 0 112 27.5t70 109.5l61 168l-444 981h149l250 -574q77 -175 101 -233q20 53 77 221z" />
    <glyph glyph-name="uni2002" unicode="&#x2002;" horiz-adv-x="1024" 
 />
    <glyph glyph-name="uni2003" unicode="&#x2003;" horiz-adv-x="2048" 
 />
    <glyph glyph-name="uni2009" unicode="&#x2009;" horiz-adv-x="256" 
 />
    <glyph glyph-name="uni200A" unicode="&#x200a;" horiz-adv-x="153" 
 />
    <glyph glyph-name="endash" unicode="&#x2013;" horiz-adv-x="1247" 
d="M1094 567h-940v125h940v-125z" />
    <glyph glyph-name="emdash" unicode="&#x2014;" horiz-adv-x="1972" 
d="M1819 567h-1665v125h1665v-125z" />
    <glyph glyph-name="quoteleft" unicode="&#x2018;" horiz-adv-x="487" 
d="M270 1434h90l-133 -244h99v-215h-185v215z" />
    <glyph glyph-name="quoteright" unicode="&#x2019;" horiz-adv-x="475" 
d="M229 975h-90l133 246h-98v215h184v-215z" />
    <glyph glyph-name="quotesinglbase" unicode="&#x201a;" horiz-adv-x="509" 
d="M221 -246h-90l133 246h-96v215h182v-215z" />
    <glyph glyph-name="quotedblleft" unicode="&#x201c;" horiz-adv-x="823" 
d="M270 1434h90l-133 -244h99v-215h-185v215zM608 1434h90l-133 -244h97v-215h-183v215z" />
    <glyph glyph-name="quotedblright" unicode="&#x201d;" horiz-adv-x="813" 
d="M229 975h-90l133 246h-98v215h184v-215zM565 975h-88l133 246h-98v215h184v-215z" />
    <glyph glyph-name="quotedblbase" unicode="&#x201e;" horiz-adv-x="847" 
d="M221 -246h-90l133 246h-96v215h182v-215zM559 -246h-90l133 246h-98v215h184v-215z" />
    <glyph glyph-name="dagger" unicode="&#x2020;" horiz-adv-x="1091" 
d="M616 -219h-143v1079h-405v131h405v443h143v-443h410v-131h-410v-1079z" />
    <glyph glyph-name="daggerdbl" unicode="&#x2021;" horiz-adv-x="1185" 
d="M666 -219h-144v442h-409v131h409v506h-409v131h409v443h144v-443h405v-131h-405v-506h405v-131h-405v-442z" />
    <glyph glyph-name="bullet" unicode="&#x2022;" horiz-adv-x="1058" 
d="M528 354q-150 0 -258 107.5t-108 255.5q0 153 107.5 260.5t258.5 107.5t259 -107.5t108 -260.5q0 -148 -108.5 -255.5t-258.5 -107.5z" />
    <glyph glyph-name="ellipsis" unicode="&#x2026;" horiz-adv-x="1484" 
d="M344 0h-192v225h192v-225zM840 0h-195v225h195v-225zM1333 0h-192v225h192v-225z" />
    <glyph glyph-name="perthousand" unicode="&#x2030;" horiz-adv-x="2267" 
d="M741 1034q0 -196 -86.5 -310t-236.5 -114q-153 0 -241.5 114t-88.5 310q0 187 90.5 300.5t239.5 113.5q147 0 235 -113t88 -301zM293 0l1016 1434h141l-1014 -1434h-143zM211 1034q0 -148 56 -233.5t151 -85.5q91 0 144.5 85t53.5 234q0 141 -54 225t-144 84
q-94 0 -150.5 -84t-56.5 -225zM1862 827q149 0 237 -112.5t88 -300.5q0 -195 -87.5 -309.5t-237.5 -114.5q-89 0 -158.5 41t-110.5 116q-86 -157 -264 -157q-153 0 -241.5 114t-88.5 310q0 187 90.5 300t239.5 113q87 0 154.5 -40.5t109.5 -116.5q43 75 112.5 116t156.5 41z
M1329 94q91 0 145 86t54 234q0 141 -54 225t-145 84q-94 0 -149.5 -84t-55.5 -225q0 -149 55.5 -234.5t149.5 -85.5zM1862 94q92 0 145 85.5t53 234.5q0 141 -53.5 225t-144.5 84q-93 0 -149 -84t-56 -225q0 -149 55.5 -234.5t149.5 -85.5z" />
    <glyph glyph-name="guilsinglleft" unicode="&#x2039;" horiz-adv-x="628" 
d="M514 938l-264 -416l268 -426h-153l-265 420l267 422h147z" />
    <glyph glyph-name="guilsinglright" unicode="&#x203a;" horiz-adv-x="628" 
d="M111 938h153l264 -420l-266 -422h-149l264 416z" />
    <glyph glyph-name="fraction" unicode="&#x2044;" horiz-adv-x="372" 
d="M-252 0h-143l1016 1434h143z" />
    <glyph glyph-name="uni2070" unicode="&#x2070;" horiz-adv-x="856" 
d="M430 797q-153 0 -241.5 114t-88.5 310q0 187 90.5 300t239.5 113q148 0 237 -113t89 -300q0 -195 -87.5 -309.5t-238.5 -114.5zM430 901q91 0 145 86t54 234q0 141 -54 225t-145 84q-93 0 -149 -84t-56 -225q0 -149 55.5 -234.5t149.5 -85.5z" />
    <glyph glyph-name="uni2074" unicode="&#x2074;" horiz-adv-x="747" 
d="M551 811h-113v219h-370v90l338 500h145v-490h123v-100h-123v-219zM360 1130h78v117v238l-241 -355h163z" />
    <glyph glyph-name="uni2075" unicode="&#x2075;" horiz-adv-x="761" 
d="M381 797q-120 0 -199 59t-92 160l119 37q9 -73 53 -112.5t115 -39.5q73 0 117.5 46.5t44.5 121.5q0 77 -42.5 120.5t-115.5 43.5q-100 0 -145 -96l-130 20l68 463h467v-107h-371l-18 -129q-10 -90 -14 -122q61 73 170 73q116 0 187 -73t71 -193q0 -121 -79.5 -196.5
t-205.5 -75.5z" />
    <glyph glyph-name="uni2076" unicode="&#x2076;" horiz-adv-x="776" 
d="M403 797q-143 0 -223 103.5t-80 289.5q0 204 101.5 324t275.5 120q98 0 164 -32v-115q-79 39 -162 39q-112 0 -179.5 -74.5t-76.5 -220.5q29 52 82 81t115 29q119 0 191.5 -73.5t72.5 -190.5q0 -123 -78.5 -201.5t-202.5 -78.5zM403 901q69 0 112.5 47t43.5 123
q0 75 -43.5 122.5t-112.5 47.5q-68 0 -112.5 -48.5t-44.5 -121.5q0 -75 44.5 -122.5t112.5 -47.5z" />
    <glyph glyph-name="uni2077" unicode="&#x2077;" horiz-adv-x="686" 
d="M319 811h-131q0 442 295 702h-114h-301v107h557v-104q-96 -80 -159 -164t-94.5 -174.5t-42.5 -174.5t-10 -192z" />
    <glyph glyph-name="uni2078" unicode="&#x2078;" horiz-adv-x="768" 
d="M383 797q-129 0 -206 63t-77 170q0 69 40.5 123t111.5 80q-129 57 -129 184q0 97 72 157t188 60q117 0 188.5 -60t71.5 -157q0 -62 -32 -110t-93 -74q70 -26 109 -80t39 -123q0 -107 -77 -170t-206 -63zM383 1270q62 0 100.5 39.5t38.5 99.5q0 56 -38 89.5t-101 33.5
q-62 0 -99.5 -34t-37.5 -89q0 -59 38 -99t99 -40zM383 901q74 0 116 36.5t42 100.5q0 65 -43 104.5t-115 39.5q-71 0 -113.5 -39.5t-42.5 -104.5q0 -64 42 -100.5t114 -36.5z" />
    <glyph glyph-name="uni2079" unicode="&#x2079;" horiz-adv-x="776" 
d="M317 797q-108 0 -182 41v120q86 -51 178 -51q103 0 166 72q71 77 76 221q-64 -108 -197 -108q-118 0 -192 72t-74 188q0 126 78 204t201 78q122 0 200 -78q105 -97 105 -311q0 -209 -96 -328.5t-263 -119.5zM373 1194q71 0 115 46.5t44 121.5t-44.5 122.5t-114.5 47.5
q-69 0 -112.5 -47t-43.5 -123t42.5 -122t113.5 -46z" />
    <glyph glyph-name="uni20A9" unicode="&#x20a9;" horiz-adv-x="2121" 
d="M2032 920v-109h-228l-49 -193h215v-110h-244l-129 -508h-190l-141 508h-420l-144 -508h-194l-123 508h-231v110h204l-47 193h-223v109h199l-125 514h151l121 -514h395l148 514h168l143 -514h398l124 514h152l-131 -514h201zM975 958l-10 -38h186l-10 38q-5 18 -35.5 128
t-46.5 169q-58 -215 -84 -297zM799 811h-340l45 -193h239zM934 811l-55 -193h356l-53 193h-248zM1372 618h242l47 193h-342zM612 152l99 356h-181q9 -40 25.5 -112t30 -132t26.5 -112zM1501 152q4 16 36 151t50 205h-184l2 -8q15 -52 96 -348z" />
    <glyph glyph-name="Euro" unicode="&#x20ac;" horiz-adv-x="1435" 
d="M817 -27q-224 0 -364 145.5t-179 395.5h-182v115h166q-6 105 0 200h-166v115h182q45 243 186.5 379.5t362.5 136.5q91 0 169 -25.5t132 -65.5t96.5 -94t67 -106t37.5 -106l-139 -49q-12 55 -36.5 106t-66.5 101.5t-111.5 81t-156.5 30.5q-153 0 -253.5 -100.5
t-137.5 -288.5h272h201v-115h-487q-10 -102 0 -200h487v-115h-199h-274q34 -196 135 -305t256 -109q70 0 127 19t96 49t70 75.5t49.5 91t34.5 103.5l141 -53q-19 -64 -47 -121.5t-73 -111.5t-100.5 -93t-131.5 -62.5t-164 -23.5z" />
    <glyph glyph-name="uni20B9" unicode="&#x20b9;" horiz-adv-x="1175" 
d="M1075 1434v-119h-147h-217q60 -24 105 -77t63 -128h196v-117h-186q-8 -121 -81.5 -208t-217.5 -115q69 -10 117.5 -33t81.5 -62.5t53 -84.5t39 -113l104 -377h-156l-102 381q-33 126 -108 181.5t-218 55.5h-274v132h317q124 0 206 63.5t95 179.5h-618v117h612
q-23 99 -101.5 152t-193.5 53h-317v119h948z" />
    <glyph glyph-name="uni20BA" unicode="&#x20ba;" horiz-adv-x="1198" 
d="M393 0h-78v356v191q-42 -21 -133 -72l-61 -35v131l194 111v162l-194 -107v133l194 109v457h144v-195v-184q66 35 172 94l272 154v-134l-444 -247v-164l444 252v-135l-444 -248v-492h26q38 2 79.5 11t93 29t100 57t93 88t80 129t54.5 174l141 -54q-19 -91 -54 -170.5
t-95 -154.5t-139.5 -128.5t-193.5 -85.5t-251 -32z" />
    <glyph glyph-name="uni20BD" unicode="&#x20bd;" horiz-adv-x="1255" 
d="M705 596h-297v-176h368v-119h-368v-301h-144v301h-158v119h158v176h-158v125h158v713h445q217 0 338.5 -117t121.5 -303t-122 -302t-342 -116zM682 1300h-274v-579h274q166 0 251 83t85 210q0 128 -82.5 207t-253.5 79z" />
    <glyph glyph-name="uni20BF" unicode="&#x20bf;" horiz-adv-x="1343" 
d="M1237 393q0 -174 -110 -277t-287 -114v-217h-113v215h-154v-215h-112v215h-238v1434h238v213h112v-213h154v213h113v-217q165 -20 254.5 -114t89.5 -237q0 -70 -23 -129t-61 -98t-80.5 -64.5t-87.5 -37.5q56 -11 108.5 -38t97.5 -69.5t72 -107.5t27 -142zM739 1300h-372
v-491h372q138 0 215.5 69.5t77.5 182.5q0 110 -77 174.5t-216 64.5zM367 133h411q143 0 225 76.5t82 198.5t-81.5 197t-225.5 75h-411v-547z" />
    <glyph glyph-name="uni2113" unicode="&#x2113;" horiz-adv-x="925" 
d="M506 -27q-52 0 -99 14t-90 44.5t-68.5 87t-25.5 133.5v190q-82 -13 -151 -16v119q79 6 151 18v580q0 60 17 115t50 101t90 73.5t130 27.5q160 0 248 -105.5t88 -275.5q0 -88 -27 -175t-81.5 -170.5t-150.5 -152.5t-222 -108v-225q0 -73 41.5 -111.5t97.5 -38.5
q142 0 196 207l123 -63q-23 -95 -76 -158t-113 -87t-128 -24zM365 604q169 65 251 192.5t82 282.5q0 113 -50.5 185.5t-137.5 72.5q-145 0 -145 -215v-250v-268z" />
    <glyph glyph-name="uni2116" unicode="&#x2116;" horiz-adv-x="2402" 
d="M1942 592q-162 0 -270.5 117t-108.5 315q0 199 108 314.5t271 115.5t271.5 -115.5t108.5 -314.5q0 -198 -109 -315t-271 -117zM371 0h-144v1434h191l844 -1203v308v895h143v-1434h-152l-882 1257v-339v-918zM1942 698q113 0 179 84t66 240q0 159 -66 242.5t-179 83.5
q-112 0 -178 -83.5t-66 -242.5q0 -156 66 -240t178 -84z" />
    <glyph glyph-name="uni2117" unicode="&#x2117;" horiz-adv-x="1804" 
d="M903 -61q-220 0 -402 105t-285 285.5t-103 395.5q0 216 103 397.5t285 288.5t402 107q165 0 312 -63t251.5 -169.5t165 -253t60.5 -307.5t-60.5 -306.5t-165 -250.5t-251.5 -167t-312 -62zM903 45q143 0 269 53.5t214.5 145t139.5 216.5t51 265t-51 266.5t-139.5 219
t-214.5 146.5t-269 54t-269.5 -54t-215 -146.5t-140 -219t-51.5 -266.5t51.5 -265t140.5 -216.5t215 -145t269 -53.5zM768 326h-106v821h313q59 0 111.5 -15.5t95.5 -46.5t68.5 -83t25.5 -119q0 -89 -44 -150.5t-110 -88t-147 -26.5h-207v-292zM768 1051v-340h174
q223 0 223 172q0 168 -223 168h-174z" />
    <glyph glyph-name="trademark" unicode="&#x2122;" horiz-adv-x="1792" 
d="M442 662h-116v667h-254v105h628v-105h-258v-667zM936 662h-117v772h189l135 -404q78 -222 80 -229l71 231l131 402h185v-772h-115v309v356l-217 -665h-115l-227 657v-348v-309z" />
    <glyph glyph-name="uni2126" unicode="&#x2126;" horiz-adv-x="1613" 
d="M705 0h-539v133h108h238q-182 73 -283.5 232t-101.5 378q0 155 51 288t140 227.5t215.5 148t273.5 53.5t273 -53.5t215 -148t139.5 -227.5t50.5 -288q0 -219 -101.5 -378t-281.5 -232h233h111v-133h-541v154q198 38 312 195.5t114 389.5q0 166 -62 299t-182.5 212
t-279.5 79t-280.5 -79t-184.5 -212t-63 -299q0 -231 113.5 -388t312.5 -197v-154z" />
    <glyph glyph-name="uni2153" unicode="&#x2153;" horiz-adv-x="1634" 
d="M412 625h-119v413v222q-40 -55 -96 -88.5t-115 -41.5v111q164 47 237 193h93v-809zM303 0h-145l1018 1434h141zM1268 -14q-130 0 -207.5 70.5t-79.5 189.5l121 26q-2 -84 42 -133t122 -49q66 0 107.5 37t41.5 98q0 65 -44 102.5t-122 37.5h-67v102h67q68 0 108 35.5
t40 93.5q0 56 -36.5 90.5t-96.5 34.5q-65 0 -104 -45t-36 -119l-123 27q-1 105 73.5 172t189.5 67q114 0 185 -60t71 -157q0 -61 -34 -109.5t-97 -74.5q73 -28 112 -80.5t39 -122.5q0 -104 -76 -168.5t-196 -64.5z" />
    <glyph glyph-name="uni2154" unicode="&#x2154;" horiz-adv-x="1822" 
d="M653 625h-540v110q71 46 122.5 82t108 83.5t91.5 90t58 94t23 101.5q0 73 -38.5 115t-104.5 42t-109 -49.5t-35 -144.5l-120 20q-8 123 66 201t198 78q120 0 194 -70t74 -184t-82 -219q-89 -124 -289 -244h289h94v-106zM492 0h-144l1016 1434h141zM1456 -14
q-129 0 -207 71t-78 189l121 26q-2 -84 42 -133t122 -49q67 0 108.5 37t41.5 98q0 65 -44 102.5t-122 37.5h-68v102h68q68 0 107.5 35.5t39.5 93.5q0 56 -36.5 90.5t-96.5 34.5q-66 0 -104.5 -44.5t-36.5 -119.5l-121 27q-1 105 73 172t189 67q113 0 184.5 -60.5
t71.5 -156.5q0 -61 -34 -109.5t-99 -74.5q74 -28 114 -80.5t40 -122.5q0 -104 -76.5 -168.5t-198.5 -64.5z" />
    <glyph glyph-name="uni2155" unicode="&#x2155;" horiz-adv-x="1667" 
d="M412 625h-119v413v222q-40 -55 -96 -88.5t-115 -41.5v111q164 47 237 193h93v-809zM303 0h-145l1018 1434h141zM1278 -14q-120 0 -199 59t-92 160l119 37q9 -73 53 -112.5t115 -39.5q73 0 117.5 46.5t44.5 121.5q0 77 -42.5 120.5t-115.5 43.5q-100 0 -145 -96l-129 20
l67 463h467v-104h-371l-18 -132q-9 -81 -14 -122q61 73 170 73q116 0 187 -72.5t71 -193.5t-79.5 -196.5t-205.5 -75.5z" />
    <glyph glyph-name="uni2156" unicode="&#x2156;" horiz-adv-x="1853" 
d="M653 625h-540v110q71 46 122.5 82t108 83.5t91.5 90t58 94t23 101.5q0 73 -38.5 115t-104.5 42t-109 -49.5t-35 -144.5l-120 20q-8 123 66 201t198 78q120 0 194 -70t74 -184t-82 -219q-89 -124 -289 -244h289h94v-106zM492 0h-144l1016 1434h141zM1466 -14
q-120 0 -198.5 59t-91.5 160l120 37q7 -73 51.5 -112.5t116.5 -39.5t116 46.5t44 121.5q0 77 -42.5 120.5t-115.5 43.5q-100 0 -145 -96l-129 20l68 463h466v-104h-370l-19 -132q-9 -81 -14 -122q64 73 170 73q116 0 187 -72.5t71 -193.5t-79.5 -196.5t-205.5 -75.5z" />
    <glyph glyph-name="uni2157" unicode="&#x2157;" horiz-adv-x="1853" 
d="M373 610q-129 0 -207.5 71t-79.5 189l123 27q-2 -84 42 -133t122 -49q66 0 107.5 37t41.5 98q0 64 -44.5 101.5t-121.5 37.5h-69v103h69q68 0 108 35.5t40 93.5q0 55 -37 90t-96 35q-66 0 -105.5 -45t-36.5 -119l-120 26q-1 105 73 172.5t189 67.5q112 0 184 -61t72 -156
q0 -61 -34 -110.5t-99 -76.5q74 -26 113.5 -78t39.5 -122q0 -104 -76 -169t-198 -65zM489 0h-143l1016 1434h143zM1466 -14q-120 0 -198.5 59t-91.5 160l118 37q7 -73 51.5 -112.5t116.5 -39.5q73 0 117.5 46.5t44.5 121.5q0 77 -43.5 120.5t-116.5 43.5q-97 0 -145 -96
l-127 20l65 463h467v-104h-368l-19 -132q-1 -9 -6.5 -52t-7.5 -70q61 73 170 73q115 0 185.5 -72.5t70.5 -193.5t-78.5 -196.5t-204.5 -75.5z" />
    <glyph glyph-name="uni2158" unicode="&#x2158;" horiz-adv-x="1843" 
d="M553 625h-113v219h-370v90l338 500h145v-490h123v-100h-123v-219zM473 0h-143l1016 1434h141zM362 944h78v117v237l-241 -354h163zM1448 -14q-120 0 -199 59t-92 160l121 37q7 -73 51.5 -112.5t116.5 -39.5t116 46.5t44 121.5q0 77 -42.5 120.5t-115.5 43.5
q-100 0 -145 -96l-129 20l67 463h467v-104h-371l-18 -132q-9 -81 -14 -122q64 73 170 73q116 0 187 -72.5t71 -193.5t-79.5 -196.5t-205.5 -75.5z" />
    <glyph glyph-name="uni2159" unicode="&#x2159;" horiz-adv-x="1660" 
d="M412 625h-119v413v222q-40 -55 -96 -88.5t-115 -41.5v111q164 47 237 193h93v-809zM303 0h-145l1018 1434h141zM1303 -14q-143 0 -222.5 103.5t-79.5 289.5q0 206 101 325t276 119q93 0 164 -30v-117q-79 39 -164 39q-111 0 -179 -75t-75 -220q29 52 82 82t115 30
q119 0 190.5 -74.5t71.5 -191.5q0 -123 -78 -201.5t-202 -78.5zM1303 90q69 0 113 47t44 123q0 75 -44 122.5t-113 47.5q-68 0 -113 -48.5t-45 -121.5q0 -74 45 -122t113 -48z" />
    <glyph glyph-name="uni215A" unicode="&#x215a;" horiz-adv-x="1869" 
d="M375 610q-120 0 -199 59t-92 160l121 37q7 -73 51 -112t117 -39q72 0 115.5 46.5t43.5 121.5q0 77 -42 120.5t-115 43.5q-100 0 -146 -97l-129 21l68 463h467v-107h-371l-18 -129q-6 -56 -15 -123q65 74 170 74q116 0 187 -73t71 -193q0 -121 -79 -197t-205 -76zM494 0
h-144l1016 1434h143zM1495 -14q-143 0 -223 103.5t-80 289.5q0 205 101.5 324.5t275.5 119.5q93 0 164 -30v-117q-79 39 -162 39q-112 0 -179.5 -74.5t-76.5 -220.5q29 52 82.5 82t115.5 30q117 0 190 -74.5t73 -191.5q0 -123 -78.5 -201.5t-202.5 -78.5zM1495 90
q69 0 113.5 47t44.5 123q0 75 -44.5 122.5t-113.5 47.5q-68 0 -113 -48.5t-45 -121.5q0 -74 45 -122t113 -48z" />
    <glyph glyph-name="oneeighth" unicode="&#x215b;" horiz-adv-x="1656" 
d="M412 625h-119v413v222q-40 -55 -96 -88.5t-115 -41.5v111q164 47 237 193h93v-809zM303 0h-145l1018 1434h141zM1280 -14q-129 0 -206 63t-77 170q0 69 41 123.5t111 79.5q-129 57 -129 184q0 97 72 157t188 60q117 0 188.5 -60t71.5 -157q0 -61 -32 -109t-93 -75
q70 -25 109 -79t39 -124q0 -107 -77 -170t-206 -63zM1280 459q62 0 100.5 39.5t38.5 99.5q0 56 -38 89.5t-101 33.5q-61 0 -98 -33.5t-37 -89.5q0 -60 37.5 -99.5t97.5 -39.5zM1280 90q73 0 115.5 37t42.5 100q0 65 -43 104.5t-115 39.5q-71 0 -113.5 -39.5t-42.5 -104.5
q0 -63 42 -100t114 -37z" />
    <glyph glyph-name="threeeighths" unicode="&#x215c;" horiz-adv-x="1843" 
d="M373 610q-129 0 -207.5 71t-79.5 189l123 27q-2 -84 42 -133t122 -49q66 0 107.5 37t41.5 98q0 64 -44.5 101.5t-121.5 37.5h-69v103h69q68 0 108 35.5t40 93.5q0 55 -37 90t-96 35q-66 0 -105.5 -45t-36.5 -119l-120 26q-1 105 73 172.5t189 67.5q112 0 184 -61t72 -156
q0 -61 -34 -110.5t-99 -76.5q74 -26 113.5 -78t39.5 -122q0 -104 -76 -169t-198 -65zM489 0h-143l1016 1434h143zM1468 -14q-129 0 -205.5 63t-76.5 170q0 70 39.5 124t109.5 79q-127 57 -127 184q0 97 72 157t188 60t188.5 -60t72.5 -157q0 -60 -33 -108t-94 -76
q71 -24 110 -78.5t39 -124.5q0 -107 -77 -170t-206 -63zM1468 459q62 0 100 39.5t38 99.5q0 56 -37.5 89.5t-100.5 33.5t-100 -33.5t-37 -89.5q0 -60 37.5 -99.5t99.5 -39.5zM1468 90q73 0 115.5 37t42.5 100q0 65 -43 104.5t-115 39.5t-114.5 -39.5t-42.5 -104.5
q0 -63 42 -100t115 -37z" />
    <glyph glyph-name="fiveeighths" unicode="&#x215d;" horiz-adv-x="1847" 
d="M375 610q-120 0 -199 59t-92 160l121 37q7 -73 51 -112t117 -39q72 0 115.5 46.5t43.5 121.5q0 77 -42 120.5t-115 43.5q-100 0 -146 -97l-129 21l68 463h467v-107h-371l-18 -129q-6 -56 -15 -123q65 74 170 74q116 0 187 -73t71 -193q0 -121 -79 -197t-205 -76zM494 0
h-144l1016 1434h143zM1473 -14q-129 0 -206 63t-77 170q0 70 39.5 124t109.5 79q-127 57 -127 184q0 97 72.5 157t188.5 60t188 -60t72 -157q0 -60 -33 -108t-94 -76q71 -24 110 -78.5t39 -124.5q0 -107 -76.5 -170t-205.5 -63zM1473 459q62 0 99.5 39.5t37.5 99.5
q0 56 -37 89.5t-100 33.5t-100.5 -33.5t-37.5 -89.5q0 -60 38 -99.5t100 -39.5zM1473 90q73 0 115 37t42 100q0 65 -42.5 104.5t-114.5 39.5t-115 -39.5t-43 -104.5q0 -63 42.5 -100t115.5 -37z" />
    <glyph glyph-name="seveneighths" unicode="&#x215e;" horiz-adv-x="1650" 
d="M328 625h-131q0 443 297 702h-115h-301v107h557v-105q-97 -80 -160 -163.5t-94.5 -174.5t-42.5 -174.5t-10 -191.5zM299 0h-145l1017 1434h142zM1276 -14q-129 0 -206 63t-77 170q0 69 41 123.5t111 79.5q-129 57 -129 184q0 97 72 157t188 60q117 0 188.5 -60t71.5 -157
q0 -61 -32 -109t-93 -75q70 -25 109 -79t39 -124q0 -107 -77 -170t-206 -63zM1276 459q62 0 100.5 39.5t38.5 99.5q0 56 -38 89.5t-101 33.5q-62 0 -99.5 -34t-37.5 -89q0 -59 38 -99t99 -40zM1276 90q73 0 115.5 37t42.5 100q0 65 -43 104.5t-115 39.5q-71 0 -113.5 -39.5
t-42.5 -104.5q0 -63 42 -100t114 -37z" />
    <glyph glyph-name="uni215F" unicode="&#x215f;" horiz-adv-x="696" 
d="M406 625h-119v413v222q-82 -113 -213 -130v111q79 22 141 71.5t98 121.5h93v-809zM297 0h-145l1017 1434h142z" />
    <glyph glyph-name="arrowleft" unicode="&#x2190;" horiz-adv-x="1720" 
d="M1626 786v-139h-1296q26 -28 83 -83t83 -83l245 -241l-98 -99l-569 576l569 575l98 -98l-245 -240q-29 -32 -87 -89t-79 -79h1296z" />
    <glyph glyph-name="arrowup" unicode="&#x2191;" horiz-adv-x="1265" 
d="M702 0h-139v1296q-24 -24 -52.5 -52t-62.5 -62.5t-51 -51.5l-243 -245l-97 98l576 569l575 -569l-98 -98l-240 245q-28 26 -168 166v-1296z" />
    <glyph glyph-name="arrowright" unicode="&#x2192;" horiz-adv-x="1720" 
d="M94 647v139h1295q-24 24 -51.5 52t-62 62t-52.5 52l-244 242l98 98l570 -575l-570 -576l-98 99l244 239q28 29 83.5 84.5t82.5 83.5h-1295z" />
    <glyph glyph-name="arrowdown" unicode="&#x2193;" horiz-adv-x="1265" 
d="M563 1434h139v-1297q17 17 51 51.5t62.5 62.5t52.5 52l242 246l98 -98l-575 -570l-576 570l97 98l241 -246q28 -26 84.5 -83t83.5 -83v1297z" />
    <glyph glyph-name="uni2196" unicode="&#x2196;" horiz-adv-x="1331" 
d="M391 1298l871 -870l-97 -96l-870 870v-250v-329h-135v811h809v-136h-328h-250z" />
    <glyph glyph-name="uni2197" unicode="&#x2197;" horiz-adv-x="1333" 
d="M1036 1202l-870 -870l-96 96l868 870h-248h-330v136h811v-809h-135v327v250z" />
    <glyph glyph-name="uni2198" unicode="&#x2198;" horiz-adv-x="1316" 
d="M926 135l-871 871l97 96l870 -871v250v330h135v-811h-809v135h328h250z" />
    <glyph glyph-name="uni2199" unicode="&#x2199;" horiz-adv-x="1320" 
d="M299 231l868 871l99 -96l-871 -871h248h330v-135h-811v809h137v-328v-250z" />
    <glyph glyph-name="uni21A4" unicode="&#x21a4;" horiz-adv-x="1863" 
d="M1495 786v424h133v-985h-133v422h-1163q37 -40 178 -176l233 -231l-100 -99l-567 576l567 575l100 -98l-235 -231q-149 -149 -176 -177h1163z" />
    <glyph glyph-name="uni21A5" unicode="&#x21a5;" horiz-adv-x="1290" 
d="M713 1296v-1163h422v-133h-983v133h421v1163q-25 -24 -55 -53.5t-66.5 -67t-56.5 -57.5l-231 -233l-96 100l575 567l574 -567l-97 -100l-231 235z" />
    <glyph glyph-name="uni21A6" unicode="&#x21a6;" horiz-adv-x="1861" 
d="M1120 1194l99 98l569 -575l-569 -576l-99 99l236 231q148 148 174 176h-1163v-424h-131v985h131v-422h1163q-64 68 -176 177z" />
    <glyph glyph-name="uni21A7" unicode="&#x21a7;" horiz-adv-x="1290" 
d="M893 315l231 234l99 -100l-576 -568l-575 568l98 100l231 -236q149 -149 177 -176v1163h-424v134h985v-134h-422v-1163q40 37 176 178z" />
    <glyph glyph-name="uni21B0" unicode="&#x21b0;" horiz-adv-x="1765" 
d="M322 786h1294v-786h-139v647h-1155q27 -28 165 -166l244 -241l-98 -99l-570 576l570 575l98 -98l-244 -240q-27 -28 -82.5 -84t-82.5 -84z" />
    <glyph glyph-name="uni21B1" unicode="&#x21b1;" horiz-adv-x="1765" 
d="M1034 1194l96 98l572 -575l-572 -576l-96 99l244 239q28 29 83.5 84.5t82.5 83.5h-1155v-647h-142v786h1297q-24 24 -51.5 52t-62 62t-52.5 52z" />
    <glyph glyph-name="uni21B2" unicode="&#x21b2;" horiz-adv-x="1765" 
d="M1477 786v648h139v-787h-1294q27 -28 165 -166l244 -241l-98 -99l-570 576l570 575l98 -98l-244 -240q-27 -28 -82.5 -84t-82.5 -84h1155z" />
    <glyph glyph-name="uni21B3" unicode="&#x21b3;" horiz-adv-x="1765" 
d="M1034 1194l99 98l569 -575l-569 -576l-99 99l244 239q28 29 83.5 84.5t82.5 83.5h-1294v787h139v-648h1155q-24 24 -51.5 52t-62 62t-52.5 52z" />
    <glyph glyph-name="partialdiff" unicode="&#x2202;" horiz-adv-x="1224" 
d="M584 -27q-117 0 -210.5 40.5t-151 109t-88 155.5t-30.5 185q0 93 29.5 174.5t85 145t143.5 100.5t197 37q135 0 245 -73t154 -208q7 335 -139 510.5t-403 175.5q-122 0 -234 -39v141q101 33 246 33q141 0 256 -44.5t191.5 -120t128 -178t74 -214t22.5 -233.5
q0 -180 -39 -316t-109.5 -218t-162.5 -122.5t-205 -40.5zM584 100q141 0 236 95.5t95 250.5q0 156 -95 252.5t-236 96.5q-143 0 -236.5 -93t-93.5 -253t94 -254.5t236 -94.5z" />
    <glyph glyph-name="uni2206" unicode="&#x2206;" horiz-adv-x="1388" 
d="M598 1434h197l534 -1434h-1270zM582 1012l-318 -879h856l-317 877l-111 303q-67 -184 -110 -301z" />
    <glyph glyph-name="product" unicode="&#x220f;" horiz-adv-x="1433" 
d="M78 1434h1278v-134h-197v-1519h-143v1519h-598v-1519h-144v1519h-196v134z" />
    <glyph glyph-name="summation" unicode="&#x2211;" horiz-adv-x="1132" 
d="M1053 -219h-971v135l555 688l-549 682v148h954v-131h-477h-307l559 -697l-563 -694h311h488v-131z" />
    <glyph glyph-name="minus" unicode="&#x2212;" horiz-adv-x="1406" 
d="M1247 657h-1087v131h1087v-131z" />
    <glyph glyph-name="uni2215" unicode="&#x2215;" horiz-adv-x="690" 
d="M133 -219h-135l557 1874h137z" />
    <glyph glyph-name="radical" unicode="&#x221a;" horiz-adv-x="1273" 
d="M719 -219h-182l-308 883h-196v131h299l184 -555q71 -220 113 -334l106 332l385 1196h152z" />
    <glyph glyph-name="infinity" unicode="&#x221e;" horiz-adv-x="1746" 
d="M487 350q-150 0 -258 109t-108 266q0 158 107.5 267.5t258.5 109.5q111 0 207 -58t180 -198q86 140 180.5 198t207.5 58q150 0 256 -109t106 -268q0 -157 -106 -266t-256 -109q-116 0 -210 57.5t-178 196.5q-157 -254 -387 -254zM500 473q90 0 156 58.5t149 195.5
q-77 131 -145.5 191.5t-159.5 60.5q-109 0 -177.5 -75t-68.5 -179q0 -103 68.5 -177.5t177.5 -74.5zM1247 473q109 0 177.5 74.5t68.5 177.5q0 104 -68.5 179t-177.5 75q-90 0 -158 -60t-147 -192q83 -137 149 -195.5t156 -58.5z" />
    <glyph glyph-name="integral" unicode="&#x222b;" horiz-adv-x="749" 
d="M197 -399h-187v127h168q58 0 91.5 35.5t33.5 101.5v1313q0 111 59 183.5t185 72.5h188v-127h-176q-52 0 -83.5 -39t-31.5 -107v-1304q0 -53 -13.5 -97.5t-41.5 -81t-77 -57t-115 -20.5z" />
    <glyph glyph-name="approxequal" unicode="&#x2248;" horiz-adv-x="1333" 
d="M887 815q-44 0 -88 12t-119 45l-64 29q-113 49 -174 49q-105 0 -202 -108l-82 98q64 75 141 111t152 36q87 0 204 -55l64 -28q118 -50 178 -50q100 0 201 109l82 -100q-63 -73 -142 -110.5t-151 -37.5zM887 365q-44 0 -88 12t-119 45l-64 29q-113 49 -174 49
q-105 0 -202 -109l-82 98q64 75 141.5 111.5t151.5 36.5q87 0 204 -55l64 -29q116 -49 178 -49q101 0 201 108l82 -100q-63 -73 -142 -110t-151 -37z" />
    <glyph glyph-name="notequal" unicode="&#x2260;" horiz-adv-x="1419" 
d="M444 164h-147l174 278h-311v131h389l88 144l94 149h-205h-366v131h651l166 269h145l-164 -269h302v-131h-381l-93 -149q-29 -48 -90 -144h189h375v-131h-642z" />
    <glyph glyph-name="lessequal" unicode="&#x2264;" horiz-adv-x="1427" 
d="M1255 528v-145l-1099 344v203l1099 348v-141l-682 -211q-206 -60 -329 -95q139 -42 329 -92zM1255 172h-1099v133h1099v-133z" />
    <glyph glyph-name="greaterequal" unicode="&#x2265;" horiz-adv-x="1427" 
d="M1272 727l-1098 -344v141l680 209q75 21 184.5 52.5t145.5 41.5q-256 73 -330 93l-680 213v145l1098 -346v-205zM1272 172h-1098v133h1098v-133z" />
    <glyph glyph-name="angleleft" unicode="&#x2329;" horiz-adv-x="673" 
d="M506 1567l117 -56l-428 -888l423 -899l-114 -56l-449 948z" />
    <glyph glyph-name="angleright" unicode="&#x232a;" horiz-adv-x="667" 
d="M53 1513l115 56l448 -951l-450 -950l-117 58l430 886z" />
    <glyph glyph-name="uni2460" unicode="&#x2460;" horiz-adv-x="1783" 
d="M893 -57q-219 0 -400.5 104.5t-285 284t-103.5 393.5q0 160 61 305t165.5 251t251.5 169t311 63q163 0 309 -63t250 -169t164.5 -251t60.5 -305q0 -214 -102.5 -393.5t-283 -284t-398.5 -104.5zM891 49q143 0 268.5 53t213.5 143.5t139 215t51 264.5t-51 266t-139 217.5
t-213.5 145t-268.5 53.5q-190 0 -344.5 -91t-241 -247t-86.5 -344q0 -187 86.5 -341.5t241 -244.5t344.5 -90zM985 324h-119v413v224q-40 -56 -96.5 -90t-114.5 -40v111q77 20 139.5 70t98.5 123h92v-811z" />
    <glyph glyph-name="uni2461" unicode="&#x2461;" horiz-adv-x="1783" 
d="M893 -57q-219 0 -400.5 104.5t-285 284t-103.5 393.5q0 160 61 305t165.5 251t251.5 169t311 63q163 0 309 -63t250 -169t164.5 -251t60.5 -305q0 -214 -102.5 -393.5t-283 -284t-398.5 -104.5zM891 49q143 0 268.5 53t213.5 143.5t139 215t51 264.5t-51 266t-139 217.5
t-213.5 145t-268.5 53.5q-190 0 -344.5 -91t-241 -247t-86.5 -344q0 -187 86.5 -341.5t241 -244.5t344.5 -90zM1165 324h-540v110q72 47 122.5 83t107.5 84t92 90.5t58 94t23 101.5q0 72 -38.5 114.5t-104.5 42.5t-109 -50t-33 -146l-122 20q-7 124 67 202.5t199 78.5
q120 0 193 -70t73 -184q0 -112 -80 -219q-89 -122 -291 -244h289h94v-108z" />
    <glyph glyph-name="uni2462" unicode="&#x2462;" horiz-adv-x="1783" 
d="M893 -57q-219 0 -400.5 104.5t-285 284t-103.5 393.5q0 160 61 305t165.5 251t251.5 169t311 63q163 0 309 -63t250 -169t164.5 -251t60.5 -305q0 -214 -102.5 -393.5t-283 -284t-398.5 -104.5zM891 49q143 0 268.5 53t213.5 143.5t139 215t51 264.5t-51 266t-139 217.5
t-213.5 145t-268.5 53.5q-190 0 -344.5 -91t-241 -247t-86.5 -344q0 -187 86.5 -341.5t241 -244.5t344.5 -90zM887 309q-129 0 -207 71.5t-80 190.5l121 27q-2 -84 42.5 -134t121.5 -50q66 0 107.5 38t41.5 99q0 63 -44 100t-122 37h-67v105h67q69 0 109.5 35t40.5 92
q0 55 -37.5 89.5t-97.5 34.5q-65 0 -104 -43.5t-36 -117.5l-122 24q0 106 74 174t188 68t185 -60.5t71 -156.5q0 -132 -131 -187q73 -26 112 -78.5t39 -123.5q0 -103 -76 -168.5t-196 -65.5z" />
    <glyph glyph-name="uni2463" unicode="&#x2463;" horiz-adv-x="1783" 
d="M893 -57q-219 0 -400.5 104.5t-285 284t-103.5 393.5q0 160 61 305t165.5 251t251.5 169t311 63q163 0 309 -63t250 -169t164.5 -251t60.5 -305q0 -214 -102.5 -393.5t-283 -284t-398.5 -104.5zM891 49q143 0 268.5 53t213.5 143.5t139 215t51 264.5t-51 266t-139 217.5
t-213.5 145t-268.5 53.5q-190 0 -344.5 -91t-241 -247t-86.5 -344q0 -187 86.5 -341.5t241 -244.5t344.5 -90zM1034 324h-112v221h-371v90l338 500h145v-490h123v-100h-123v-221zM844 645h78v117v237l-242 -354h164z" />
    <glyph glyph-name="uni2464" unicode="&#x2464;" horiz-adv-x="1783" 
d="M893 -57q-219 0 -400.5 104.5t-285 284t-103.5 393.5q0 160 61 305t165.5 251t251.5 169t311 63q163 0 309 -63t250 -169t164.5 -251t60.5 -305q0 -214 -102.5 -393.5t-283 -284t-398.5 -104.5zM891 49q143 0 268.5 53t213.5 143.5t139 215t51 264.5t-51 266t-139 217.5
t-213.5 145t-268.5 53.5q-190 0 -344.5 -91t-241 -247t-86.5 -344q0 -187 86.5 -341.5t241 -244.5t344.5 -90zM885 309q-120 0 -199 59t-92 160l119 37q7 -72 51.5 -111.5t116.5 -39.5q73 0 117 46.5t44 123.5q0 76 -43 120t-116 44q-100 0 -146 -97l-127 21l66 463h467
v-107h-369l-18 -131q-1 -14 -7 -55t-8 -66q63 72 170 72q115 0 185.5 -72.5t70.5 -191.5q0 -123 -78 -199t-204 -76z" />
    <glyph glyph-name="uni2465" unicode="&#x2465;" horiz-adv-x="1783" 
d="M893 -57q-219 0 -400.5 104.5t-285 284t-103.5 393.5q0 160 61 305t165.5 251t251.5 169t311 63q163 0 309 -63t250 -169t164.5 -251t60.5 -305q0 -214 -102.5 -393.5t-283 -284t-398.5 -104.5zM891 49q143 0 268.5 53t213.5 143.5t139 215t51 264.5t-51 266t-139 217.5
t-213.5 145t-268.5 53.5q-190 0 -344.5 -91t-241 -247t-86.5 -344q0 -187 86.5 -341.5t241 -244.5t344.5 -90zM872 309q-143 0 -222 104.5t-79 291.5q0 204 101.5 324t275.5 120q86 0 164 -33v-115q-86 39 -164 39q-111 0 -179 -75t-75 -222q29 53 82 83t115 30
q119 0 190.5 -74.5t71.5 -191.5q0 -122 -78.5 -201.5t-202.5 -79.5zM872 414q69 0 113.5 47.5t44.5 122.5q0 76 -44.5 124t-113.5 48q-67 0 -112 -49t-45 -123q0 -73 44.5 -121.5t112.5 -48.5z" />
    <glyph glyph-name="uni2466" unicode="&#x2466;" horiz-adv-x="1783" 
d="M893 -57q-219 0 -400.5 104.5t-285 284t-103.5 393.5q0 160 61 305t165.5 251t251.5 169t311 63q163 0 309 -63t250 -169t164.5 -251t60.5 -305q0 -214 -102.5 -393.5t-283 -284t-398.5 -104.5zM891 49q143 0 268.5 53t213.5 143.5t139 215t51 264.5t-51 266t-139 217.5
t-213.5 145t-268.5 53.5q-190 0 -344.5 -91t-241 -247t-86.5 -344q0 -187 86.5 -341.5t241 -244.5t344.5 -90zM887 324h-131q0 444 295 704h-115h-301v107h557v-105q-78 -65 -134 -134t-89 -133.5t-52 -140.5t-25 -144t-5 -154z" />
    <glyph glyph-name="uni2467" unicode="&#x2467;" horiz-adv-x="1783" 
d="M893 -57q-219 0 -400.5 104.5t-285 284t-103.5 393.5q0 160 61 305t165.5 251t251.5 169t311 63q163 0 309 -63t250 -169t164.5 -251t60.5 -305q0 -214 -102.5 -393.5t-283 -284t-398.5 -104.5zM891 49q143 0 268.5 53t213.5 143.5t139 215t51 264.5t-51 266t-139 217.5
t-213.5 145t-268.5 53.5q-190 0 -344.5 -91t-241 -247t-86.5 -344q0 -187 86.5 -341.5t241 -244.5t344.5 -90zM891 309q-129 0 -206 64t-77 172q0 69 40 123t110 80q-61 26 -94 73t-33 109q0 97 72.5 158t187.5 61t187.5 -61t72.5 -158q0 -60 -33 -108t-94 -74
q71 -26 110.5 -79.5t39.5 -123.5q0 -108 -77 -172t-206 -64zM891 784q62 0 99.5 39.5t37.5 98.5q0 56 -37 89t-100 33t-100 -33t-37 -89q0 -59 37.5 -98.5t99.5 -39.5zM891 414q73 0 115.5 37t42.5 100q0 66 -43 105.5t-115 39.5t-115 -39.5t-43 -105.5q0 -63 42.5 -100
t115.5 -37z" />
    <glyph glyph-name="uni2468" unicode="&#x2468;" horiz-adv-x="1783" 
d="M893 -57q-219 0 -400.5 104.5t-285 284t-103.5 393.5q0 160 61 305t165.5 251t251.5 169t311 63q163 0 309 -63t250 -169t164.5 -251t60.5 -305q0 -214 -102.5 -393.5t-283 -284t-398.5 -104.5zM891 49q143 0 268.5 53t213.5 143.5t139 215t51 264.5t-51 266t-139 217.5
t-213.5 145t-268.5 53.5q-190 0 -344.5 -91t-241 -247t-86.5 -344q0 -187 86.5 -341.5t241 -244.5t344.5 -90zM848 309q-109 0 -182 43v119q88 -49 178 -49q100 0 166 72q70 77 73 221q-65 -109 -196 -109q-117 0 -191.5 72.5t-74.5 187.5q0 126 77.5 204.5t200.5 78.5
q122 0 203 -78q102 -99 102 -311q0 -211 -95 -331t-261 -120zM901 709q71 0 116.5 46.5t45.5 121.5q0 74 -45.5 120.5t-116.5 46.5q-69 0 -112.5 -46t-43.5 -121q0 -76 43.5 -122t112.5 -46z" />
    <glyph glyph-name="uni24EA" unicode="&#x24ea;" horiz-adv-x="1783" 
d="M893 -57q-219 0 -400.5 104.5t-285 284t-103.5 393.5q0 160 61 305t165.5 251t251.5 169t311 63q163 0 309 -63t250 -169t164.5 -251t60.5 -305q0 -214 -102.5 -393.5t-283 -284t-398.5 -104.5zM891 49q143 0 268.5 53t213.5 143.5t139 215t51 264.5t-51 266t-139 217.5
t-213.5 145t-268.5 53.5q-190 0 -344.5 -91t-241 -247t-86.5 -344q0 -187 86.5 -341.5t241 -244.5t344.5 -90zM893 309q-153 0 -241.5 115t-88.5 311q0 187 90.5 300.5t239.5 113.5q148 0 236 -113t88 -301q0 -197 -87 -311.5t-237 -114.5zM893 416q92 0 145.5 85t53.5 234
q0 141 -54 225t-145 84q-94 0 -149.5 -84t-55.5 -225q0 -148 55.5 -233.5t149.5 -85.5z" />
    <glyph glyph-name="uni24FF" unicode="&#x24ff;" horiz-adv-x="1783" 
d="M893 -57q218 0 398.5 104.5t283 284t102.5 393.5q0 160 -60.5 305t-164.5 251t-250 169t-309 63q-164 0 -311 -63t-251.5 -169t-165.5 -251t-61 -305q0 -214 103.5 -393.5t285 -284t400.5 -104.5zM893 309q-153 0 -241.5 115t-88.5 311q0 187 90.5 300.5t239.5 113.5
q148 0 236 -113t88 -301q0 -197 -87 -311.5t-237 -114.5zM893 416q92 0 145.5 85t53.5 234q0 141 -54 225t-145 84q-94 0 -149.5 -84t-55.5 -225q0 -148 55.5 -233.5t149.5 -85.5z" />
    <glyph glyph-name="lozenge" unicode="&#x25ca;" horiz-adv-x="1265" 
d="M729 -2h-197l-452 715l457 721h196l453 -719zM786 340l234 375l-246 393l-139 223q-82 -123 -154 -239l-237 -375l245 -391l146 -228q16 25 67.5 109t83.5 133z" />
    <glyph glyph-name="uni274C" unicode="&#x274c;" horiz-adv-x="1579" 
d="M788 623l-630 -650l-95 93l633 649l-633 649l97 98l633 -651l632 651l93 -92l-633 -651l633 -649l-97 -97z" />
    <glyph glyph-name="uni2776" unicode="&#x2776;" horiz-adv-x="1783" 
d="M893 -57q218 0 398.5 104.5t283 284t102.5 393.5q0 160 -60.5 305t-164.5 251t-250 169t-309 63q-164 0 -311 -63t-251.5 -169t-165.5 -251t-61 -305q0 -214 103.5 -393.5t285 -284t400.5 -104.5zM985 324h-119v413v224q-40 -56 -96.5 -90t-114.5 -40v111q77 20 139.5 70
t98.5 123h92v-811z" />
    <glyph glyph-name="uni2777" unicode="&#x2777;" horiz-adv-x="1783" 
d="M893 -57q218 0 398.5 104.5t283 284t102.5 393.5q0 160 -60.5 305t-164.5 251t-250 169t-309 63q-164 0 -311 -63t-251.5 -169t-165.5 -251t-61 -305q0 -214 103.5 -393.5t285 -284t400.5 -104.5zM1165 324h-540v110q72 47 122.5 83t107.5 84t92 90.5t58 94t23 101.5
q0 72 -38.5 114.5t-104.5 42.5t-109 -50t-33 -146l-122 20q-7 124 67 202.5t199 78.5q120 0 193 -70t73 -184q0 -112 -80 -219q-89 -122 -291 -244h289h94v-108z" />
    <glyph glyph-name="uni2778" unicode="&#x2778;" horiz-adv-x="1783" 
d="M893 -57q218 0 398.5 104.5t283 284t102.5 393.5q0 160 -60.5 305t-164.5 251t-250 169t-309 63q-164 0 -311 -63t-251.5 -169t-165.5 -251t-61 -305q0 -214 103.5 -393.5t285 -284t400.5 -104.5zM887 309q-129 0 -207 71.5t-80 190.5l121 27q-2 -84 42.5 -134t121.5 -50
q66 0 107.5 38t41.5 99q0 63 -44 100t-122 37h-67v105h67q69 0 109.5 35t40.5 92q0 55 -37.5 89.5t-97.5 34.5q-65 0 -104 -43.5t-36 -117.5l-122 24q0 106 74 174t188 68t185 -60.5t71 -156.5q0 -132 -131 -187q73 -26 112 -78.5t39 -123.5q0 -103 -76 -168.5t-196 -65.5z
" />
    <glyph glyph-name="uni2779" unicode="&#x2779;" horiz-adv-x="1783" 
d="M893 -57q218 0 398.5 104.5t283 284t102.5 393.5q0 160 -60.5 305t-164.5 251t-250 169t-309 63q-164 0 -311 -63t-251.5 -169t-165.5 -251t-61 -305q0 -214 103.5 -393.5t285 -284t400.5 -104.5zM1034 324h-112v221h-371v90l338 500h145v-490h123v-100h-123v-221z
M844 645h78v117v237l-242 -354h164z" />
    <glyph glyph-name="uni277A" unicode="&#x277a;" horiz-adv-x="1783" 
d="M893 -57q218 0 398.5 104.5t283 284t102.5 393.5q0 160 -60.5 305t-164.5 251t-250 169t-309 63q-164 0 -311 -63t-251.5 -169t-165.5 -251t-61 -305q0 -214 103.5 -393.5t285 -284t400.5 -104.5zM885 309q-120 0 -199 59t-92 160l119 37q7 -72 51.5 -111.5t116.5 -39.5
q73 0 117 46.5t44 123.5q0 76 -43 120t-116 44q-100 0 -146 -97l-127 21l66 463h467v-107h-369l-18 -131q-1 -14 -7 -55t-8 -66q63 72 170 72q115 0 185.5 -72.5t70.5 -191.5q0 -123 -78 -199t-204 -76z" />
    <glyph glyph-name="uni277B" unicode="&#x277b;" horiz-adv-x="1783" 
d="M893 -57q218 0 398.5 104.5t283 284t102.5 393.5q0 160 -60.5 305t-164.5 251t-250 169t-309 63q-164 0 -311 -63t-251.5 -169t-165.5 -251t-61 -305q0 -214 103.5 -393.5t285 -284t400.5 -104.5zM872 309q-143 0 -222 104.5t-79 291.5q0 204 101.5 324t275.5 120
q86 0 164 -33v-115q-86 39 -164 39q-111 0 -179 -75t-75 -222q29 53 82 83t115 30q119 0 190.5 -74.5t71.5 -191.5q0 -122 -78.5 -201.5t-202.5 -79.5zM872 414q69 0 113.5 47.5t44.5 122.5q0 76 -44.5 124t-113.5 48q-67 0 -112 -49t-45 -123q0 -73 44.5 -121.5
t112.5 -48.5z" />
    <glyph glyph-name="uni277C" unicode="&#x277c;" horiz-adv-x="1783" 
d="M893 -57q218 0 398.5 104.5t283 284t102.5 393.5q0 160 -60.5 305t-164.5 251t-250 169t-309 63q-164 0 -311 -63t-251.5 -169t-165.5 -251t-61 -305q0 -214 103.5 -393.5t285 -284t400.5 -104.5zM887 324h-131q0 444 295 704h-115h-301v107h557v-105q-78 -65 -134 -134
t-89 -133.5t-52 -140.5t-25 -144t-5 -154z" />
    <glyph glyph-name="uni277D" unicode="&#x277d;" horiz-adv-x="1783" 
d="M893 -57q218 0 398.5 104.5t283 284t102.5 393.5q0 160 -60.5 305t-164.5 251t-250 169t-309 63q-164 0 -311 -63t-251.5 -169t-165.5 -251t-61 -305q0 -214 103.5 -393.5t285 -284t400.5 -104.5zM891 309q-129 0 -206 64t-77 172q0 69 40 123t110 80q-61 26 -94 73
t-33 109q0 97 72.5 158t187.5 61t187.5 -61t72.5 -158q0 -60 -33 -108t-94 -74q71 -26 110.5 -79.5t39.5 -123.5q0 -108 -77 -172t-206 -64zM891 784q62 0 99.5 39.5t37.5 98.5q0 56 -37 89t-100 33t-100 -33t-37 -89q0 -59 37.5 -98.5t99.5 -39.5zM891 414q73 0 115.5 37
t42.5 100q0 66 -43 105.5t-115 39.5t-115 -39.5t-43 -105.5q0 -63 42.5 -100t115.5 -37z" />
    <glyph glyph-name="uni277E" unicode="&#x277e;" horiz-adv-x="1783" 
d="M893 -57q218 0 398.5 104.5t283 284t102.5 393.5q0 160 -60.5 305t-164.5 251t-250 169t-309 63q-164 0 -311 -63t-251.5 -169t-165.5 -251t-61 -305q0 -214 103.5 -393.5t285 -284t400.5 -104.5zM848 309q-109 0 -182 43v119q88 -49 178 -49q103 0 166 72q70 76 75 221
q-65 -109 -196 -109q-118 0 -192 72t-74 188q0 126 77.5 204.5t200.5 78.5q120 0 201 -78q104 -101 104 -311q0 -211 -95.5 -331t-262.5 -120zM903 709q71 0 115.5 46.5t44.5 121.5t-44.5 121t-115.5 46q-69 0 -112 -46t-43 -121q0 -76 42 -122t113 -46z" />
    <glyph glyph-name="uni300A" unicode="&#x300a;" horiz-adv-x="1062" 
d="M506 1567l117 -56l-428 -888l423 -899l-114 -56l-449 948zM897 1567l115 -56l-426 -888l426 -899l-117 -56l-449 948z" />
    <glyph glyph-name="uni300B" unicode="&#x300b;" horiz-adv-x="1058" 
d="M51 1511l117 56l448 -949l-450 -950l-117 56l428 888zM442 1511l115 56l451 -949l-453 -950l-115 56l428 888z" />
    <glyph glyph-name="uni300C" unicode="&#x300c;" horiz-adv-x="702" 
d="M309 645h-129v901h490v-116h-361v-785z" />
    <glyph glyph-name="uni300D" unicode="&#x300d;" horiz-adv-x="579" 
d="M289 594h129v-901h-490v117h361v784z" />
    <glyph glyph-name="uni300E" unicode="&#x300e;" horiz-adv-x="933" 
d="M528 475h-346v1071h674v-354h-328v-717zM299 1434v-846h121v706h323v140h-444z" />
    <glyph glyph-name="uni300F" unicode="&#x300f;" horiz-adv-x="919" 
d="M401 764h344v-1071h-673v354h329v717zM629 -195v846h-119v-706h-326v-140h445z" />
    <glyph glyph-name="uni3010" unicode="&#x3010;" horiz-adv-x="722" 
d="M707 -307h-502v1853h502q-196 -225 -287.5 -450t-91.5 -480q0 -253 89 -471.5t290 -451.5z" />
    <glyph glyph-name="uni3011" unicode="&#x3011;" horiz-adv-x="722" 
d="M16 1546h502v-1853h-502q196 227 287.5 452t91.5 480q0 251 -89 469.5t-290 451.5z" />
    <glyph glyph-name="uni3014" unicode="&#x3014;" horiz-adv-x="600" 
d="M274 1171v-1103l283 -312l-96 -88l-316 352v1190l318 357l90 -86z" />
    <glyph glyph-name="uni3015" unicode="&#x3015;" horiz-adv-x="600" 
d="M43 1479l96 88l316 -355v-1189l-318 -355l-90 86l279 309v1104z" />
    <glyph glyph-name="plus.alt" unicode="&#xe000;" horiz-adv-x="1564" 
d="M852 0h-139v651h-641v131h641v654h139v-654h643v-131h-643v-651z" />
    <glyph glyph-name="minus.alt" unicode="&#xe001;" horiz-adv-x="1740" 
d="M1581 651h-1421v131h1421v-131z" />
    <glyph glyph-name="multiply.alt" unicode="&#xe002;" horiz-adv-x="1603" 
d="M801 623l-631 -650l-94 93l631 649l-633 649l98 98l633 -651l633 651l92 -92l-633 -651l631 -649l-96 -97z" />
    <glyph glyph-name="uniE003" unicode="&#xe003;" horiz-adv-x="1880" 
d="M1780 1337l-1022 -1368l-641 862l108 89l539 -725l909 1228z" />
    <glyph glyph-name="uniE004" unicode="&#xe004;" horiz-adv-x="1939" 
d="M1761 1237h-1585v133h1585v-133zM1761 657h-1585v134h1585v-134zM1761 76h-1585v133h1585v-133z" />
    <glyph glyph-name="uniE005" unicode="&#xe005;" horiz-adv-x="1880" 
d="M1657 0h-1434v1432h1434v-1432zM362 1307v-1182h1154v1182h-1154z" />
    <glyph glyph-name="uniE006" unicode="&#xe006;" horiz-adv-x="1880" 
d="M1688 1386l-746 -1060l-367 596l111 73l141 -229q44 -75 125 -207q16 23 66 93.5t78 113.5l485 700zM1657 0h-1434v1432h934v-125h-795v-1182h1154v543h141v-668z" />
    <glyph glyph-name="uniE007" unicode="&#xe007;" horiz-adv-x="1880" 
d="M1657 0h-1434v1432h1434v-1432zM362 1307v-1182h1154v1182h-1154zM1036 604h-192v225h192v-225z" />
    <glyph glyph-name="uniE008" unicode="&#xe008;" horiz-adv-x="1558" 
d="M1307 653l-531 -516l-528 516l98 99l182 -185q23 -23 84.5 -82.5t94.5 -93.5v1116h141v-1116q26 28 172 174l190 187zM1495 0h-1434v137h1434v-137z" />
    <glyph glyph-name="uniE009" unicode="&#xe009;" horiz-adv-x="1558" 
d="M1307 881l-531 -516l-528 516l98 96l182 -184q122 -118 179 -175v1115h141v-1115q77 80 172 175l190 184zM1495 0h-1434v137h1434v-137z" />
    <glyph glyph-name="uniF8FF" unicode="&#xf8ff;" horiz-adv-x="1589" 
d="M1462 35l-69 -10q-46 58 -99 120q21 -109 31 -180l-29 -20q-92 4 -142 64.5t-73 174.5q-23 117 -30 146q-19 -112 -70 -178q-130 81 -225 395q-3 11 -11 41t-11 41.5t-10 36t-11 36t-10.5 30.5t-12 30t-12.5 23.5t-14 21.5q-20 26 -46 46t-43.5 29.5t-58 28.5t-59.5 29
q-48 21 -81.5 50.5t-72.5 82.5l129 98l-55 58q-45 -10 -78 -10q-73 0 -124.5 30t-51.5 78q0 47 30 75t83 28q72 0 124 -27q-24 57 -24 104q0 35 24.5 56.5t67.5 21.5q52 0 78 -34.5t26 -90.5q0 -71 -40 -137l57 -59l86 65q65 -28 129.5 -88t116 -133.5t91 -143t68.5 -135.5
q150 -124 249 -274t141 -307q29 -113 32 -213z" />
    <glyph glyph-name="G.ss03" horiz-adv-x="1570" 
d="M803 -27q-212 0 -368 95.5t-236 264.5t-80 390q0 160 54 298t147.5 234t223.5 150.5t279 54.5q112 0 210 -27.5t166 -71t122.5 -101.5t86 -114t50.5 -114l-143 -59q-23 69 -60.5 128t-95.5 112t-145.5 83.5t-194.5 30.5q-115 0 -215 -41t-173.5 -116.5t-116 -190
t-42.5 -254.5q0 -280 143.5 -450.5t385.5 -170.5q221 0 347.5 122.5t137.5 328.5h-504v133h662q9 -159 -31.5 -291.5t-122.5 -226t-207 -145.5t-280 -52z" />
    <glyph glyph-name="Gbreve.ss03" horiz-adv-x="1570" 
d="M821 1573q-146 0 -225 75t-84 185h127q7 -73 56 -114.5t126 -41.5q78 0 128 41.5t57 114.5h124q-5 -110 -84 -185t-225 -75zM803 -27q-212 0 -368 95.5t-236 264.5t-80 390q0 160 54 298t147.5 234t223.5 150.5t279 54.5q112 0 210 -27.5t166 -71t122.5 -101.5t86 -114
t50.5 -114l-143 -59q-23 69 -60.5 128t-95.5 112t-145.5 83.5t-194.5 30.5q-115 0 -215 -41t-173.5 -116.5t-116 -190t-42.5 -254.5q0 -280 143.5 -450.5t385.5 -170.5q221 0 347.5 122.5t137.5 328.5h-504v133h662q9 -159 -31.5 -291.5t-122.5 -226t-207 -145.5t-280 -52z
" />
    <glyph glyph-name="Gcircumflex.ss03" horiz-adv-x="1570" 
d="M627 1591h-148l236 244h221l235 -244h-147l-199 166zM803 -27q-212 0 -368 95.5t-236 264.5t-80 390q0 160 54 298t147.5 234t223.5 150.5t279 54.5q112 0 210 -27.5t166 -71t122.5 -101.5t86 -114t50.5 -114l-143 -59q-23 69 -60.5 128t-95.5 112t-145.5 83.5
t-194.5 30.5q-115 0 -215 -41t-173.5 -116.5t-116 -190t-42.5 -254.5q0 -280 143.5 -450.5t385.5 -170.5q221 0 347.5 122.5t137.5 328.5h-504v133h662q9 -159 -31.5 -291.5t-122.5 -226t-207 -145.5t-280 -52z" />
    <glyph glyph-name="uni0122.ss03" horiz-adv-x="1570" 
d="M803 -27q-212 0 -368 95.5t-236 264.5t-80 390q0 160 54 298t147.5 234t223.5 150.5t279 54.5q112 0 210 -27.5t166 -71t122.5 -101.5t86 -114t50.5 -114l-143 -59q-23 69 -60.5 128t-95.5 112t-145.5 83.5t-194.5 30.5q-115 0 -215 -41t-173.5 -116.5t-116 -190
t-42.5 -254.5q0 -280 143.5 -450.5t385.5 -170.5q221 0 347.5 122.5t137.5 328.5h-504v133h662q9 -159 -31.5 -291.5t-122.5 -226t-207 -145.5t-280 -52zM805 -604h-80l119 219h-86v192h162v-192z" />
    <glyph glyph-name="Gdotaccent.ss03" horiz-adv-x="1570" 
d="M897 1591h-143v209h143v-209zM803 -27q-212 0 -368 95.5t-236 264.5t-80 390q0 160 54 298t147.5 234t223.5 150.5t279 54.5q112 0 210 -27.5t166 -71t122.5 -101.5t86 -114t50.5 -114l-143 -59q-23 69 -60.5 128t-95.5 112t-145.5 83.5t-194.5 30.5q-115 0 -215 -41
t-173.5 -116.5t-116 -190t-42.5 -254.5q0 -280 143.5 -450.5t385.5 -170.5q221 0 347.5 122.5t137.5 328.5h-504v133h662q9 -159 -31.5 -291.5t-122.5 -226t-207 -145.5t-280 -52z" />
    <glyph glyph-name="a.ss01" horiz-adv-x="1179" 
d="M524 -27q-85 0 -159.5 34.5t-132.5 99t-92 167.5t-34 230q0 128 34 231t92 168.5t132.5 100t159.5 34.5q127 0 211.5 -61.5t126.5 -147.5v181h135v-1010h-133v182q-42 -87 -129.5 -148t-210.5 -61zM555 92q139 0 226 104.5t87 307.5q0 204 -87 310t-226 106
q-65 0 -119 -24t-97 -73t-67 -130.5t-24 -188.5q0 -210 85.5 -311t221.5 -101z" />
    <glyph glyph-name="aacute.ss01" horiz-adv-x="1179" 
d="M616 1161h-96l129 264h185zM524 -27q-85 0 -159.5 34.5t-132.5 99t-92 167.5t-34 230q0 128 34 231t92 168.5t132.5 100t159.5 34.5q127 0 211.5 -61.5t126.5 -147.5v181h135v-1010h-133v182q-42 -87 -129.5 -148t-210.5 -61zM555 92q139 0 226 104.5t87 307.5
q0 204 -87 310t-226 106q-65 0 -119 -24t-97 -73t-67 -130.5t-24 -188.5q0 -210 85.5 -311t221.5 -101z" />
    <glyph glyph-name="abreve.ss01" horiz-adv-x="1179" 
d="M567 1145q-133 0 -205 75t-77 185h114q7 -73 52 -114.5t116 -41.5t115 41.5t51 114.5h115q-5 -110 -77 -185t-204 -75zM524 -27q-85 0 -159.5 34.5t-132.5 99t-92 167.5t-34 230q0 128 34 231t92 168.5t132.5 100t159.5 34.5q127 0 211.5 -61.5t126.5 -147.5v181h135
v-1010h-133v182q-42 -87 -129.5 -148t-210.5 -61zM555 92q139 0 226 104.5t87 307.5q0 204 -87 310t-226 106q-65 0 -119 -24t-97 -73t-67 -130.5t-24 -188.5q0 -210 85.5 -311t221.5 -101z" />
    <glyph glyph-name="acircumflex.ss01" horiz-adv-x="1179" 
d="M387 1161h-135l215 244h201l215 -244h-135l-181 166zM524 -27q-85 0 -159.5 34.5t-132.5 99t-92 167.5t-34 230q0 128 34 231t92 168.5t132.5 100t159.5 34.5q127 0 211.5 -61.5t126.5 -147.5v181h135v-1010h-133v182q-42 -87 -129.5 -148t-210.5 -61zM555 92
q139 0 226 104.5t87 307.5q0 204 -87 310t-226 106q-65 0 -119 -24t-97 -73t-67 -130.5t-24 -188.5q0 -210 85.5 -311t221.5 -101z" />
    <glyph glyph-name="adieresis.ss01" horiz-adv-x="1179" 
d="M455 1219h-154v182h154v-182zM829 1219h-151v182h151v-182zM524 -27q-85 0 -159.5 34.5t-132.5 99t-92 167.5t-34 230q0 128 34 231t92 168.5t132.5 100t159.5 34.5q127 0 211.5 -61.5t126.5 -147.5v181h135v-1010h-133v182q-42 -87 -129.5 -148t-210.5 -61zM555 92
q139 0 226 104.5t87 307.5q0 204 -87 310t-226 106q-65 0 -119 -24t-97 -73t-67 -130.5t-24 -188.5q0 -210 85.5 -311t221.5 -101z" />
    <glyph glyph-name="uni0227.ss01" horiz-adv-x="1179" 
d="M639 1225h-143v209h143v-209zM524 -27q-85 0 -159.5 34.5t-132.5 99t-92 167.5t-34 230q0 128 34 231t92 168.5t132.5 100t159.5 34.5q127 0 211.5 -61.5t126.5 -147.5v181h135v-1010h-133v182q-42 -87 -129.5 -148t-210.5 -61zM555 92q139 0 226 104.5t87 307.5
q0 204 -87 310t-226 106q-65 0 -119 -24t-97 -73t-67 -130.5t-24 -188.5q0 -210 85.5 -311t221.5 -101z" />
    <glyph glyph-name="agrave.ss01" horiz-adv-x="1179" 
d="M612 1161h-94l-215 264h182zM524 -27q-85 0 -159.5 34.5t-132.5 99t-92 167.5t-34 230q0 128 34 231t92 168.5t132.5 100t159.5 34.5q127 0 211.5 -61.5t126.5 -147.5v181h135v-1010h-133v182q-42 -87 -129.5 -148t-210.5 -61zM555 92q139 0 226 104.5t87 307.5
q0 204 -87 310t-226 106q-65 0 -119 -24t-97 -73t-67 -130.5t-24 -188.5q0 -210 85.5 -311t221.5 -101z" />
    <glyph glyph-name="amacron.ss01" horiz-adv-x="1179" 
d="M874 1217h-616v108h616v-108zM524 -27q-85 0 -159.5 34.5t-132.5 99t-92 167.5t-34 230q0 128 34 231t92 168.5t132.5 100t159.5 34.5q127 0 211.5 -61.5t126.5 -147.5v181h135v-1010h-133v182q-42 -87 -129.5 -148t-210.5 -61zM555 92q139 0 226 104.5t87 307.5
q0 204 -87 310t-226 106q-65 0 -119 -24t-97 -73t-67 -130.5t-24 -188.5q0 -210 85.5 -311t221.5 -101z" />
    <glyph glyph-name="aogonek.ss01" horiz-adv-x="1179" 
d="M997 1010v-1010q-202 -89 -202 -205q0 -92 114 -92q22 0 88 16v-108q-52 -19 -104 -19q-97 0 -154 44.5t-57 125.5q0 144 182 248v172q-42 -87 -129.5 -148t-210.5 -61q-85 0 -159.5 34.5t-132.5 99t-92 167.5t-34 230q0 128 34 231t92 168.5t132.5 100t159.5 34.5
q127 0 211.5 -61.5t126.5 -147.5v181h135zM555 92q139 0 226 104.5t87 307.5q0 204 -87 310t-226 106q-65 0 -119 -24t-97 -73t-67 -130.5t-24 -188.5q0 -210 85.5 -311t221.5 -101z" />
    <glyph glyph-name="aring.ss01" horiz-adv-x="1179" 
d="M569 1120q-93 0 -156 63t-63 154q0 88 63.5 149.5t155.5 61.5q91 0 153 -62t62 -151q0 -91 -62 -153t-153 -62zM569 1208q50 0 84.5 38t34.5 89q0 50 -34.5 87.5t-84.5 37.5q-52 0 -86 -37t-34 -86q0 -53 33 -91t87 -38zM524 -27q-85 0 -159.5 34.5t-132.5 99t-92 167.5
t-34 230q0 128 34 231t92 168.5t132.5 100t159.5 34.5q127 0 211.5 -61.5t126.5 -147.5v181h135v-1010h-133v182q-42 -87 -129.5 -148t-210.5 -61zM555 92q139 0 226 104.5t87 307.5q0 204 -87 310t-226 106q-65 0 -119 -24t-97 -73t-67 -130.5t-24 -188.5q0 -210 85.5 -311
t221.5 -101z" />
    <glyph glyph-name="atilde.ss01" horiz-adv-x="1179" 
d="M723 1171q-74 0 -150 54l-59 41q-5 3 -16.5 10.5t-15.5 10t-12 7t-12.5 6l-12 4t-14.5 3t-15 0.5q-42 0 -63 -31.5t-19 -85.5h-111q-1 110 51 166.5t140 56.5q75 0 147 -51l57 -39q34 -24 54.5 -33.5t44.5 -9.5q82 0 88 111h108q1 -110 -49.5 -165t-140.5 -55zM524 -27
q-85 0 -159.5 34.5t-132.5 99t-92 167.5t-34 230q0 128 34 231t92 168.5t132.5 100t159.5 34.5q127 0 211.5 -61.5t126.5 -147.5v181h135v-1010h-133v182q-42 -87 -129.5 -148t-210.5 -61zM555 92q139 0 226 104.5t87 307.5q0 204 -87 310t-226 106q-65 0 -119 -24t-97 -73
t-67 -130.5t-24 -188.5q0 -210 85.5 -311t221.5 -101z" />
    <glyph glyph-name="g.ss02" horiz-adv-x="1179" 
d="M532 -426q-189 0 -306 86.5t-144 226.5l135 45q19 -105 98 -172t217 -67q161 0 246.5 93t85.5 239v192q-41 -84 -129 -141.5t-211 -57.5q-182 0 -300 133.5t-118 372.5q0 242 117.5 378t300.5 136q127 0 213.5 -62t126.5 -147v181h131v-990q0 -129 -50.5 -228.5
t-156.5 -158.5t-256 -59zM555 133q138 0 225.5 101t87.5 290q0 190 -87.5 293t-225.5 103q-140 0 -223.5 -99t-83.5 -297t83 -294.5t224 -96.5z" />
    <glyph glyph-name="gbreve.ss02" horiz-adv-x="1179" 
d="M567 1145q-132 0 -203.5 75t-76.5 185h114q7 -73 51 -114.5t115 -41.5q72 0 116 41t52 115h115q-5 -110 -77.5 -185t-205.5 -75zM532 -426q-189 0 -306 86.5t-144 226.5l135 45q19 -105 98 -172t217 -67q161 0 246.5 93t85.5 239v192q-41 -84 -129 -141.5t-211 -57.5
q-182 0 -300 133.5t-118 372.5q0 242 117.5 378t300.5 136q127 0 213.5 -62t126.5 -147v181h131v-990q0 -129 -50.5 -228.5t-156.5 -158.5t-256 -59zM555 133q138 0 225.5 101t87.5 290q0 190 -87.5 293t-225.5 103q-140 0 -223.5 -99t-83.5 -297t83 -294.5t224 -96.5z" />
    <glyph glyph-name="gcircumflex.ss02" horiz-adv-x="1179" 
d="M387 1161h-133l215 244h201l213 -244h-133l-181 166zM532 -426q-189 0 -306 86.5t-144 226.5l135 45q19 -105 98 -172t217 -67q161 0 246.5 93t85.5 239v192q-41 -84 -129 -141.5t-211 -57.5q-182 0 -300 133.5t-118 372.5q0 242 117.5 378t300.5 136q127 0 213.5 -62
t126.5 -147v181h131v-990q0 -129 -50.5 -228.5t-156.5 -158.5t-256 -59zM555 133q138 0 225.5 101t87.5 290q0 190 -87.5 293t-225.5 103q-140 0 -223.5 -99t-83.5 -297t83 -294.5t224 -96.5z" />
    <glyph glyph-name="uni0123.ss02" horiz-adv-x="1179" 
d="M602 1634h80l-119 -219h86v-192h-164v192zM532 -426q-189 0 -306 86.5t-144 226.5l135 45q19 -105 98 -172t217 -67q161 0 246.5 93t85.5 239v192q-41 -84 -129 -141.5t-211 -57.5q-182 0 -300 133.5t-118 372.5q0 242 117.5 378t300.5 136q127 0 213.5 -62t126.5 -147
v181h131v-990q0 -129 -50.5 -228.5t-156.5 -158.5t-256 -59zM555 133q138 0 225.5 101t87.5 290q0 190 -87.5 293t-225.5 103q-140 0 -223.5 -99t-83.5 -297t83 -294.5t224 -96.5z" />
    <glyph glyph-name="gdotaccent.ss02" horiz-adv-x="1179" 
d="M641 1225h-143v209h143v-209zM532 -426q-189 0 -306 86.5t-144 226.5l135 45q19 -105 98 -172t217 -67q161 0 246.5 93t85.5 239v192q-41 -84 -129 -141.5t-211 -57.5q-182 0 -300 133.5t-118 372.5q0 242 117.5 378t300.5 136q127 0 213.5 -62t126.5 -147v181h131v-990
q0 -129 -50.5 -228.5t-156.5 -158.5t-256 -59zM555 133q138 0 225.5 101t87.5 290q0 190 -87.5 293t-225.5 103q-140 0 -223.5 -99t-83.5 -297t83 -294.5t224 -96.5z" />
    <glyph glyph-name="i.loclTRK" horiz-adv-x="509" 
d="M322 1225h-144v209h144v-209zM319 0h-137v1010h137v-1010z" />
    <glyph glyph-name="zero.osf" horiz-adv-x="1275" 
d="M639 -27q-227 0 -375.5 148.5t-148.5 380.5t148.5 380t375.5 148q228 0 374 -147.5t146 -380.5t-146 -381t-374 -148zM639 92q177 0 279 113.5t102 296.5q0 184 -101.5 295.5t-279.5 111.5q-176 0 -279.5 -112.5t-103.5 -294.5q0 -183 103.5 -296.5t279.5 -113.5z" />
    <glyph glyph-name="one.osf" horiz-adv-x="739" 
d="M545 0h-133v492v301q-56 -92 -140.5 -163t-185.5 -100v146q108 33 203.5 122t148.5 212h107v-1010z" />
    <glyph glyph-name="two.osf" horiz-adv-x="1030" 
d="M915 0h-782v139q89 44 148.5 75.5t130.5 72t116.5 73t92 73t72.5 78.5t42.5 82t16.5 91q0 108 -67 171t-175 63q-98 0 -169 -56.5t-81 -173.5l-139 23q17 150 123 238.5t266 88.5q176 0 280.5 -97.5t104.5 -235.5q0 -190 -170 -338q-132 -114 -410 -248h265h335v-119z
" />
    <glyph glyph-name="three.osf" horiz-adv-x="1114" 
d="M553 -426q-208 0 -332.5 114t-132.5 308l141 33q-2 -149 85.5 -242.5t238.5 -93.5q144 0 225.5 79.5t81.5 209.5q0 129 -87 205.5t-224 76.5h-88v123h86q122 0 203 74.5t81 195.5q0 118 -79.5 190.5t-198.5 72.5q-123 0 -202.5 -73.5t-88.5 -193.5l-133 23
q12 160 126 261t298 101q188 0 303 -103t115 -265q0 -126 -70.5 -213.5t-175.5 -124.5q116 -33 196 -127.5t80 -229.5q0 -83 -29 -155t-84 -127.5t-141 -87t-194 -31.5z" />
    <glyph glyph-name="four.osf" horiz-adv-x="1150" 
d="M874 -399h-135v399h-669v127l612 883h192v-891h209v-119h-209v-399zM215 119h291h233v456v310z" />
    <glyph glyph-name="five.osf" horiz-adv-x="1116" 
d="M569 -426q-199 0 -314.5 93t-148.5 241l136 43q23 -118 112 -188t203 -70q151 0 237.5 94t86.5 240q0 149 -86.5 238t-235.5 89q-101 0 -178.5 -55.5t-120.5 -140.5l-149 24l112 828h740v-123h-635l-47 -348l-33 -240q29 36 58 63.5t71 55t98.5 42.5t122.5 15
q182 0 303 -125t121 -317q0 -202 -129 -330.5t-324 -128.5z" />
    <glyph glyph-name="six.osf" horiz-adv-x="1220" 
d="M637 -27q-115 0 -207 39t-161.5 120t-107.5 214.5t-38 312.5q0 125 24 240t77 218t129.5 178.5t189 120t248.5 44.5q151 0 249 -37v-135q-123 43 -241 43q-121 0 -221 -43.5t-173.5 -126.5t-112 -213t-34.5 -293q50 125 159.5 192.5t246.5 67.5q133 0 238 -60.5
t161.5 -165.5t56.5 -234q0 -210 -131.5 -346t-351.5 -136zM637 92q148 0 245 95.5t97 256.5q0 155 -97.5 253t-244.5 98q-146 0 -244 -100t-98 -257t97 -251.5t245 -94.5z" />
    <glyph glyph-name="seven.osf" horiz-adv-x="1040" 
d="M444 -399h-143q-2 195 25 362.5t89.5 330.5t171.5 311.5t265 281.5h-299h-510v123h952v-133q-137 -118 -237.5 -244.5t-161 -246t-96 -256t-47 -259.5t-9.5 -270z" />
    <glyph glyph-name="eight.osf" horiz-adv-x="1181" 
d="M592 -27q-115 0 -205.5 32.5t-147.5 89t-86.5 129.5t-29.5 157q0 141 77 235t191 129q-100 39 -164.5 127.5t-64.5 210.5q0 166 118 271.5t312 105.5q193 0 310.5 -105.5t117.5 -271.5q0 -122 -64 -210.5t-165 -127.5q117 -37 192.5 -130t75.5 -234q0 -84 -29.5 -157
t-86 -129.5t-147 -89t-204.5 -32.5zM592 803q125 0 208 75.5t83 196.5q0 118 -82 192t-209 74q-128 0 -210.5 -74t-82.5 -192q0 -121 83.5 -196.5t209.5 -75.5zM592 92q147 0 236.5 82.5t89.5 216.5q0 130 -90.5 213.5t-235.5 83.5q-147 0 -237.5 -83.5t-90.5 -213.5
q0 -134 90.5 -216.5t237.5 -82.5z" />
    <glyph glyph-name="nine.osf" horiz-adv-x="1239" 
d="M467 -426q-66 0 -145 9.5t-127 25.5v137q121 -41 264 -41q118 0 214.5 38.5t169.5 116.5t111 208t33 301q-48 -134 -160 -205.5t-252 -71.5q-203 0 -329.5 131t-126.5 330q0 209 132.5 347t348.5 138q115 0 209 -39.5t166 -120t111.5 -213t39.5 -307.5q0 -164 -38.5 -303
t-116.5 -248t-207 -171t-297 -62zM600 217q148 0 245 97t97 255q0 155 -96.5 249.5t-245.5 94.5q-146 0 -243 -95t-97 -253q0 -154 97.5 -251t242.5 -97z" />
    <glyph glyph-name="zero.tf" 
d="M639 -27q-256 0 -412.5 197t-156.5 557q0 176 45 317.5t123.5 231t181 137t219.5 47.5q116 0 217 -47.5t178 -137t121.5 -231t44.5 -317.5q0 -361 -154 -557.5t-407 -196.5zM639 102q194 0 302 169t108 456q0 271 -110.5 437.5t-299.5 166.5q-194 0 -306 -166.5
t-112 -437.5q0 -286 110 -455.5t308 -169.5z" />
    <glyph glyph-name="one.tf" 
d="M786 1434v-1301h349v-133h-922v133h430v877v209q-61 -102 -166.5 -179.5t-224.5 -103.5v151q131 39 243.5 126.5t184.5 220.5h106z" />
    <glyph glyph-name="two.tf" 
d="M1098 0h-918v158q89 58 160.5 107.5t151 110.5t140 116.5t117.5 120.5t94 127t59 131t22 137q0 156 -86.5 239.5t-216.5 83.5q-60 0 -113.5 -20.5t-97.5 -61.5t-70 -111t-25 -159l-145 20q1 212 127 336.5t326 124.5q208 0 330 -121t122 -315q0 -210 -135 -387
q-179 -241 -598 -504h324h432v-133z" />
    <glyph glyph-name="three.tf" 
d="M635 -27q-217 0 -349 116t-141 314l150 35q1 -154 94.5 -246t245.5 -92q138 0 226.5 78.5t88.5 204.5q0 133 -91 212t-234 79h-113v127h113q123 0 208 73.5t85 194.5q0 119 -82.5 191.5t-206.5 72.5q-130 0 -210.5 -80t-86.5 -211l-148 29q8 168 130 278.5t315 110.5
q201 0 318.5 -105.5t117.5 -264.5q0 -131 -77 -222t-195 -125q135 -27 221 -127t86 -247q0 -78 -30 -148.5t-86 -126t-146.5 -88.5t-202.5 -33z" />
    <glyph glyph-name="four.tf" 
d="M920 0h-140v406h-669v133l594 895h215v-906h225v-122h-225v-406zM518 528h262v525v268l-526 -793h264z" />
    <glyph glyph-name="five.tf" 
d="M637 -27q-210 0 -337 100t-157 255l146 51q24 -137 117 -208t227 -71q151 0 243.5 92t92.5 250q0 159 -89.5 249.5t-244.5 90.5q-197 0 -301 -174l-160 25l115 801h784v-134h-678l-45 -323q-5 -45 -18 -128.5t-17 -115.5q129 172 349 172q213 0 333.5 -126t120.5 -333
q0 -211 -132.5 -342t-348.5 -131z" />
    <glyph glyph-name="six.tf" 
d="M664 -27q-111 0 -203.5 41t-164 123.5t-111.5 218.5t-40 314q0 137 26.5 257t80 218t131 168t184 108.5t234.5 38.5q151 0 264 -45v-143q-130 51 -258 51q-250 0 -389 -185t-131 -507q22 73 72.5 136.5t138 108t192.5 44.5q140 0 245.5 -65t157.5 -168.5t52 -227.5
q0 -96 -31.5 -183t-91 -155t-152 -108t-206.5 -40zM664 100q140 0 235.5 95.5t95.5 253.5t-95.5 252t-235.5 94q-139 0 -236.5 -96.5t-97.5 -249.5q0 -154 97.5 -251.5t236.5 -97.5z" />
    <glyph glyph-name="seven.tf" 
d="M559 0h-160q0 815 590 1300h-299h-514v134h948v-148q-141 -120 -243.5 -247.5t-164 -247t-97.5 -256.5t-48.5 -260.5t-11.5 -274.5z" />
    <glyph glyph-name="eight.tf" 
d="M635 -27q-123 0 -218.5 33t-153 89.5t-87 128t-29.5 153.5q0 143 85.5 242.5t213.5 125.5q-112 35 -186 123t-74 219q0 163 123.5 268t325.5 105t325 -105t123 -268q0 -131 -73 -219t-183 -123q129 -29 212 -127.5t83 -240.5q0 -82 -29.5 -153.5t-87 -128t-152.5 -89.5
t-218 -33zM635 805q132 0 216.5 72.5t84.5 197.5q0 117 -84 188.5t-217 71.5q-132 0 -216.5 -71.5t-84.5 -188.5q0 -124 85 -197t216 -73zM635 100q155 0 246.5 78.5t91.5 210.5t-92 214.5t-246 82.5t-246 -82.5t-92 -214.5t91.5 -210.5t246.5 -78.5z" />
    <glyph glyph-name="nine.tf" 
d="M500 -27q-182 0 -295 62v147q127 -69 291 -69q200 0 327 139q161 172 158 541q-29 -88 -92.5 -151t-143 -92.5t-167.5 -29.5q-107 0 -194 36.5t-142.5 98.5t-85 143t-29.5 173q0 97 30.5 184.5t88 156t149 108.5t205.5 40q205 0 344 -133q178 -170 178 -555
q0 -372 -164 -585.5t-458 -213.5zM606 643q143 0 238.5 95t95.5 251q0 155 -95.5 249.5t-238.5 94.5t-237.5 -93t-94.5 -251q0 -161 94.5 -253.5t237.5 -92.5z" />
    <glyph glyph-name="zero.subs" horiz-adv-x="856" 
d="M430 -236q-153 0 -241.5 114t-88.5 310q0 187 90.5 300.5t239.5 113.5q148 0 237 -112.5t89 -301.5q0 -195 -87.5 -309.5t-238.5 -114.5zM430 -131q91 0 145 85.5t54 233.5q0 141 -54 225.5t-145 84.5q-92 0 -148.5 -84.5t-56.5 -225.5q0 -147 55.5 -233t149.5 -86z" />
    <glyph glyph-name="one.subs" horiz-adv-x="557" 
d="M399 -221h-118v414v221q-40 -55 -96 -88t-115 -41v110q164 47 237 193h92v-809z" />
    <glyph glyph-name="two.subs" horiz-adv-x="741" 
d="M643 -221h-539v110q72 47 122.5 83t107 84t91.5 90.5t58 93t23 100.5q0 73 -39 115.5t-105 42.5t-108.5 -49.5t-32.5 -145.5l-123 21q-7 123 67.5 200.5t199.5 77.5q120 0 193 -69.5t73 -182.5q0 -114 -80 -221q-89 -119 -291 -244h291h92v-106z" />
    <glyph glyph-name="three.subs" horiz-adv-x="749" 
d="M375 -236q-129 0 -206 71t-79 190l121 26q-2 -84 42 -133t122 -49q66 0 107.5 37t41.5 98q0 65 -44 102t-122 37h-67v103h67q68 0 108 35.5t40 93.5q0 56 -36.5 90.5t-96.5 34.5q-66 0 -104.5 -44.5t-37.5 -119.5l-120 26q-1 105 73 172.5t189 67.5q114 0 185 -60
t71 -157q0 -61 -34 -109.5t-99 -74.5q74 -27 113.5 -80t39.5 -123q0 -104 -76 -169t-198 -65z" />
    <glyph glyph-name="four.subs" horiz-adv-x="747" 
d="M551 -221h-113v219h-370v90l338 500h145v-490h123v-100h-123v-219zM360 98h78v117v238l-241 -355h163z" />
    <glyph glyph-name="five.subs" horiz-adv-x="761" 
d="M383 -236q-120 0 -199 59.5t-92 160.5l119 36q7 -73 51 -112t117 -39t117.5 46.5t44.5 121.5q0 77 -43.5 120.5t-116.5 43.5q-97 0 -145 -97l-127 21l65 463h467v-105h-369l-18 -131q-1 -8 -6.5 -51.5t-7.5 -71.5q62 74 170 74q115 0 185.5 -72.5t70.5 -193.5
q0 -122 -78.5 -197.5t-204.5 -75.5z" />
    <glyph glyph-name="six.subs" horiz-adv-x="776" 
d="M403 -236q-143 0 -223 104t-80 290q0 206 101 325t276 119q91 0 164 -31v-116q-79 39 -162 39q-112 0 -179.5 -74.5t-76.5 -220.5q29 52 82 82t115 30q119 0 191.5 -74.5t72.5 -191.5q0 -123 -78.5 -202t-202.5 -79zM403 -131q69 0 112.5 47t43.5 123q0 75 -43.5 122.5
t-112.5 47.5q-68 0 -112.5 -48.5t-44.5 -121.5q0 -75 44.5 -122.5t112.5 -47.5z" />
    <glyph glyph-name="seven.subs" horiz-adv-x="686" 
d="M319 -221h-131q0 441 295 704h-114h-299v105h555v-105q-96 -80 -159 -163.5t-94.5 -174t-42.5 -174.5t-10 -192z" />
    <glyph glyph-name="eight.subs" horiz-adv-x="768" 
d="M383 -236q-129 0 -206 63.5t-77 170.5q0 69 41 123.5t111 79.5q-129 57 -129 184q0 97 72 157t188 60q117 0 188.5 -60t71.5 -157q0 -61 -32 -109t-93 -75q70 -25 109 -79t39 -124q0 -107 -77 -170.5t-206 -63.5zM383 238q62 0 100.5 39.5t38.5 99.5q0 56 -38 89.5
t-101 33.5q-62 0 -99.5 -34t-37.5 -89q0 -59 38 -99t99 -40zM383 -131q73 0 115.5 37t42.5 100q0 65 -43 104.5t-115 39.5q-71 0 -113.5 -39.5t-42.5 -104.5q0 -63 42 -100t114 -37z" />
    <glyph glyph-name="nine.subs" horiz-adv-x="776" 
d="M317 -236q-108 0 -182 41v121q86 -51 178 -51q103 0 166 72q71 77 76 221q-65 -109 -197 -109q-118 0 -192 73t-74 190q0 124 78 202t201 78q121 0 200 -76q105 -102 105 -313q0 -209 -96 -329t-263 -120zM373 164q71 0 115 45.5t44 120.5t-44.5 122.5t-114.5 47.5
q-69 0 -112.5 -47t-43.5 -123t42.5 -121t113.5 -45z" />
    <glyph glyph-name="zero.dnom" horiz-adv-x="856" 
d="M430 -14q-153 0 -241.5 114t-88.5 310q0 187 90.5 300t239.5 113q148 0 237 -112t89 -301q0 -195 -87.5 -309.5t-238.5 -114.5zM430 90q91 0 145 86t54 234q0 141 -54 225t-145 84q-93 0 -149 -84t-56 -225q0 -147 55.5 -233.5t149.5 -86.5z" />
    <glyph glyph-name="one.dnom" horiz-adv-x="557" 
d="M399 0h-118v414v221q-40 -55 -96 -88t-115 -41v110q164 47 237 193h92v-809z" />
    <glyph glyph-name="two.dnom" horiz-adv-x="741" 
d="M645 0h-541v111q73 47 123 82.5t107.5 84t92 90.5t58 92.5t23.5 100.5q0 73 -38.5 115.5t-104.5 42.5q-68 0 -110 -49.5t-34 -145.5l-121 21q-7 123 66.5 200.5t198.5 77.5q120 0 194 -69.5t74 -182.5q0 -112 -82 -221q-85 -118 -289 -244h289h94v-106z" />
    <glyph glyph-name="three.dnom" horiz-adv-x="749" 
d="M375 -14q-129 0 -206 70.5t-79 189.5l121 26q-2 -84 42 -133t122 -49q66 0 107.5 37t41.5 98q0 65 -44 102.5t-122 37.5h-67v102h67q68 0 108 35.5t40 93.5q0 56 -36.5 90.5t-96.5 34.5q-66 0 -104.5 -44.5t-37.5 -119.5l-120 27q-1 105 73 172t189 67q114 0 185 -60
t71 -157q0 -61 -34 -109.5t-99 -74.5q74 -27 113.5 -80t39.5 -123q0 -104 -76 -168.5t-198 -64.5z" />
    <glyph glyph-name="four.dnom" horiz-adv-x="747" 
d="M551 0h-113v219h-370v90l338 500h145v-490h123v-100h-123v-219zM360 319h78v117v238l-241 -355h163z" />
    <glyph glyph-name="five.dnom" horiz-adv-x="761" 
d="M383 -14q-120 0 -199 59t-92 160l119 37q9 -73 53 -112.5t115 -39.5q73 0 117.5 46.5t44.5 121.5q0 77 -42.5 120.5t-115.5 43.5q-100 0 -145 -96l-129 20l67 463h467v-104h-371l-18 -132q-9 -81 -14 -122q61 73 170 73q116 0 187 -72.5t71 -193.5t-79.5 -196.5
t-205.5 -75.5z" />
    <glyph glyph-name="six.dnom" horiz-adv-x="776" 
d="M403 -14q-143 0 -223 103.5t-80 289.5q0 206 101 325t276 119q93 0 164 -30v-117q-79 39 -162 39q-112 0 -179.5 -74.5t-76.5 -220.5q29 52 82 82t115 30q119 0 191.5 -74.5t72.5 -191.5q0 -123 -78.5 -201.5t-202.5 -78.5zM403 90q69 0 112.5 47t43.5 123
q0 75 -43.5 122.5t-112.5 47.5q-68 0 -112.5 -48.5t-44.5 -121.5q0 -75 44.5 -122.5t112.5 -47.5z" />
    <glyph glyph-name="seven.dnom" horiz-adv-x="686" 
d="M319 0h-131q0 442 295 705h-114h-301v104h557v-104q-96 -80 -159 -164t-94.5 -174.5t-42.5 -174.5t-10 -192z" />
    <glyph glyph-name="eight.dnom" horiz-adv-x="768" 
d="M383 -14q-129 0 -206 63t-77 170q0 69 41 123.5t111 79.5q-129 57 -129 184q0 97 72 157t188 60q117 0 188.5 -60t71.5 -157q0 -61 -32 -109t-93 -75q70 -25 109 -79t39 -124q0 -107 -77 -170t-206 -63zM383 459q62 0 100.5 39.5t38.5 99.5q0 56 -38 89.5t-101 33.5
q-62 0 -99.5 -34t-37.5 -89q0 -59 38 -99t99 -40zM383 90q73 0 115.5 37t42.5 100q0 65 -43 104.5t-115 39.5q-71 0 -113.5 -39.5t-42.5 -104.5q0 -63 42 -100t114 -37z" />
    <glyph glyph-name="nine.dnom" horiz-adv-x="776" 
d="M317 -14q-108 0 -182 41v120q86 -51 178 -51q103 0 166 72q71 77 76 221q-64 -108 -197 -108q-119 0 -192.5 72.5t-73.5 189.5q0 124 78 202t201 78q122 0 200 -75q105 -102 105 -314q0 -209 -96 -328.5t-263 -119.5zM373 385q71 0 115 45.5t44 120.5t-44.5 122.5
t-114.5 47.5q-69 0 -112.5 -47t-43.5 -123t42.5 -121t113.5 -45z" />
    <glyph glyph-name="zero.numr" horiz-adv-x="856" 
d="M430 610q-153 0 -241.5 114t-88.5 310q0 187 90.5 300.5t239.5 113.5q148 0 237 -113t89 -301q0 -195 -87.5 -309.5t-238.5 -114.5zM430 715q91 0 145 85.5t54 233.5q0 141 -54 225t-145 84q-93 0 -149 -84t-56 -225q0 -148 55.5 -233.5t149.5 -85.5z" />
    <glyph glyph-name="one.numr" horiz-adv-x="557" 
d="M399 625h-118v413v222q-40 -55 -96 -88.5t-115 -41.5v111q164 47 237 193h92v-809z" />
    <glyph glyph-name="two.numr" horiz-adv-x="741" 
d="M643 625h-539v110q90 58 152 104t124.5 104.5t94 119.5t31.5 123q0 73 -39 115t-105 42t-108.5 -49.5t-32.5 -144.5l-123 20q-7 123 67.5 201t199.5 78q120 0 193 -70t73 -184q0 -112 -80 -219q-93 -125 -291 -244h291h92v-106z" />
    <glyph glyph-name="three.numr" horiz-adv-x="749" 
d="M375 610q-129 0 -206 70.5t-79 189.5l121 27q-2 -84 42 -133t122 -49q66 0 107.5 37t41.5 98q0 64 -44.5 101.5t-121.5 37.5h-67v103h67q68 0 108 35.5t40 93.5q0 56 -36.5 90.5t-96.5 34.5q-66 0 -104.5 -44.5t-37.5 -119.5l-120 26q-1 105 73 172.5t189 67.5
q114 0 185 -60.5t71 -156.5q0 -61 -34 -110.5t-99 -76.5q74 -26 113.5 -78t39.5 -122q0 -104 -76 -169t-198 -65z" />
    <glyph glyph-name="four.numr" horiz-adv-x="747" 
d="M551 625h-113v219h-370v90l338 500h145v-490h123v-100h-123v-219zM360 944h78v117v237l-241 -354h163z" />
    <glyph glyph-name="five.numr" horiz-adv-x="761" 
d="M383 610q-120 0 -199 59t-92 160l119 37q7 -73 51 -112t117 -39t117.5 46.5t44.5 121.5q0 77 -43.5 120.5t-116.5 43.5q-97 0 -145 -97l-127 21l65 463h467v-107h-369l-18 -129q-1 -10 -6.5 -53.5t-7.5 -69.5q62 74 170 74q114 0 185 -73t71 -193q0 -122 -78.5 -197.5
t-204.5 -75.5z" />
    <glyph glyph-name="six.numr" horiz-adv-x="776" 
d="M403 610q-143 0 -223 104t-80 290q0 204 101.5 324t275.5 120q96 0 164 -33v-115q-79 39 -162 39q-112 0 -179.5 -74.5t-76.5 -220.5q29 52 82 81.5t115 29.5q119 0 191.5 -73.5t72.5 -190.5q0 -123 -78.5 -202t-202.5 -79zM403 715q69 0 112.5 47t43.5 123
q0 75 -43.5 122.5t-112.5 47.5q-68 0 -112.5 -48.5t-44.5 -121.5q0 -75 44.5 -122.5t112.5 -47.5z" />
    <glyph glyph-name="seven.numr" horiz-adv-x="686" 
d="M319 625h-131q0 442 295 702h-114h-301v107h557v-105q-96 -80 -159 -163.5t-94.5 -174t-42.5 -174.5t-10 -192z" />
    <glyph glyph-name="eight.numr" horiz-adv-x="768" 
d="M383 610q-129 0 -206 63.5t-77 170.5q0 69 40.5 123t111.5 80q-129 57 -129 184q0 97 72 157t188 60q117 0 188.5 -60t71.5 -157q0 -62 -32 -110t-93 -74q70 -26 109 -80t39 -123q0 -107 -77 -170.5t-206 -63.5zM383 1083q62 0 100.5 40t38.5 100q0 56 -38 89.5
t-101 33.5q-62 0 -99.5 -34t-37.5 -89q0 -60 38 -100t99 -40zM383 715q74 0 116 36.5t42 100.5q0 65 -43 104t-115 39t-114 -39t-42 -104q0 -64 42 -100.5t114 -36.5z" />
    <glyph glyph-name="nine.numr" horiz-adv-x="776" 
d="M317 610q-108 0 -182 41v121q86 -51 178 -51q103 0 166 72q71 77 76 221q-65 -109 -197 -109q-118 0 -192 72t-74 188q0 126 78 204.5t201 78.5q122 0 200 -78q105 -97 105 -311q0 -209 -96 -329t-263 -120zM373 1008q71 0 115 46.5t44 121.5t-44.5 122.5t-114.5 47.5
q-69 0 -112.5 -47t-43.5 -123t42.5 -122t113.5 -46z" />
    <glyph glyph-name="exclamdown.case" horiz-adv-x="577" 
d="M193 1434h192v-226h-192v226zM256 1014h70l34 -631v-383h-143v387z" />
    <glyph glyph-name="questiondown.case" horiz-adv-x="970" 
d="M430 1434h193v-226h-193v226zM461 1014h135q-1 -127 -39 -202t-127 -155q-111 -101 -155 -165t-44 -150q0 -110 70 -176t184 -66q130 0 201 87.5t68 246.5l139 -22q3 -200 -109 -318.5t-299 -118.5q-174 0 -286.5 100.5t-112.5 262.5q0 112 55.5 199.5t192.5 207.5
q75 64 100 118t27 151z" />
    <glyph glyph-name="period.tf" 
d="M752 0h-234v270h234v-270z" />
    <glyph glyph-name="comma.tf" 
d="M590 -309h-113l168 309h-123v270h232v-270z" />
    <glyph glyph-name="colon.tf" 
d="M752 791h-234v270h234v-270zM752 0h-234v270h234v-270z" />
    <glyph glyph-name="semicolon.tf" 
d="M760 791h-234v270h234v-270zM596 -309h-113l168 309h-123v270h232v-270z" />
    <glyph glyph-name="numbersign.tf" 
d="M336 0h-129l49 236q18 89 41 188h-150h-67v121h239l76 358h-254v123h281l84 408h129l-43 -213q-21 -81 -43 -195h139h158l86 408h129l-45 -213q-16 -71 -41 -195h147h70v-123h-242l-76 -358h248v-121h-272l-88 -424h-131l49 231q25 127 41 193h-146h-151zM524 903
l-75 -358h294l76 358h-295z" />
    <glyph glyph-name="parenleft.case" horiz-adv-x="649" 
d="M590 -96v-129q-126 34 -218.5 123t-145.5 218.5t-78 279.5t-25 325q0 138 15 260.5t50 237t88 203t133 153.5t181 94v-131q-166 -53 -253 -271.5t-87 -545.5q2 -331 88 -547.5t252 -269.5z" />
    <glyph glyph-name="parenright.case" horiz-adv-x="651" 
d="M61 1540v129q126 -34 218.5 -123t145.5 -218.5t78 -279.5t25 -325q0 -138 -15 -260.5t-50 -237t-88 -203t-133 -153.5t-181 -94v131q165 53 251.5 271.5t86.5 545.5q0 329 -86.5 546.5t-251.5 270.5z" />
    <glyph glyph-name="braceleft.case" horiz-adv-x="690" 
d="M618 -205h-108q-229 0 -229 281v319q0 55 -4 92t-17 72t-37 55t-63.5 31.5t-96.5 11.5v123q71 0 115.5 16t66.5 52.5t29 79t7 112.5v328q0 137 54 209t175 72h108v-113h-81q-66 0 -96.5 -37t-30.5 -119v-364q0 -122 -42.5 -190.5t-144.5 -106.5q102 -38 144.5 -106.5
t42.5 -190.5v-359q0 -81 30.5 -118t96.5 -37h81v-113z" />
    <glyph glyph-name="braceright.case" horiz-adv-x="690" 
d="M72 1651h110q230 0 230 -281v-321q0 -56 4 -92.5t16.5 -71.5t35.5 -54.5t62.5 -31t96.5 -11.5v-124q-57 0 -96.5 -11.5t-62.5 -30.5t-35.5 -53.5t-16.5 -70.5t-4 -92v-328q0 -281 -230 -281h-110v113h82q67 0 97 36.5t30 116.5v367q0 123 42 191t144 106
q-102 38 -144 106t-42 189v360q0 82 -30 118t-97 36h-82v115z" />
    <glyph glyph-name="bracketleft.case" horiz-adv-x="696" 
d="M631 -205h-408v1854h408v-113h-279v-1628h279v-113z" />
    <glyph glyph-name="bracketright.case" horiz-adv-x="696" 
d="M63 1649h410v-1854h-410v113h281v1626h-281v115z" />
    <glyph glyph-name="angleleft.case" horiz-adv-x="692" 
d="M520 1669l115 -55l-428 -891l426 -897l-115 -55l-450 948z" />
    <glyph glyph-name="angleright.case" horiz-adv-x="692" 
d="M59 1616l115 55l451 -950l-453 -950l-115 57l430 887z" />
    <glyph glyph-name="uni3010.case" horiz-adv-x="745" 
d="M723 -205h-500v1854h500q-195 -226 -286 -450.5t-91 -479.5q0 -253 88.5 -472.5t288.5 -451.5z" />
    <glyph glyph-name="uni3011.case" horiz-adv-x="745" 
d="M23 1649h501v-1854h-501q196 225 287 449.5t91 480.5q0 253 -88.5 472t-289.5 452z" />
    <glyph glyph-name="uni300C.case" horiz-adv-x="698" 
d="M305 748h-129v901h490v-117h-361v-784z" />
    <glyph glyph-name="uni300D.case" horiz-adv-x="704" 
d="M399 698h129v-901h-489v115h360v786z" />
    <glyph glyph-name="uni300A.case" horiz-adv-x="1083" 
d="M520 1669l115 -55l-428 -891l426 -897l-115 -55l-450 948zM909 1669l117 -55l-428 -891l426 -897l-117 -55l-448 948z" />
    <glyph glyph-name="uni300B.case" horiz-adv-x="1083" 
d="M59 1616l117 55l449 -950l-451 -950l-117 57l428 889zM451 1616l116 55l449 -950l-451 -950l-116 57l428 889z" />
    <glyph glyph-name="uni3014.case" horiz-adv-x="616" 
d="M283 1274v-1104l282 -311l-94 -88l-317 352v1190l317 356l92 -86z" />
    <glyph glyph-name="uni3015.case" horiz-adv-x="614" 
d="M49 1583l96 88l316 -354v-1190l-318 -354l-90 86l279 309v1104z" />
    <glyph glyph-name="uni300E.case" horiz-adv-x="933" 
d="M524 578h-344v1071h674v-355h-330v-716zM295 1536v-846h121v707h323v139h-444z" />
    <glyph glyph-name="uni300F.case" horiz-adv-x="958" 
d="M408 868h346v-1071h-674v355h328v716zM637 -90v846h-121v-707h-323v-139h444z" />
    <glyph glyph-name="hyphen.case" horiz-adv-x="831" 
d="M672 662h-512v143h512v-143z" />
    <glyph glyph-name="uni00AD.case" horiz-adv-x="831" 
d="M672 662h-512v143h512v-143z" />
    <glyph glyph-name="endash.case" horiz-adv-x="1247" 
d="M1096 670h-942v125h942v-125z" />
    <glyph glyph-name="emdash.case" horiz-adv-x="1972" 
d="M1821 670h-1667v125h1667v-125z" />
    <glyph glyph-name="guillemotleft.case" horiz-adv-x="1069" 
d="M383 1122h147l-264 -415l266 -426h-151l-266 421zM924 1122l-265 -415l269 -426h-154l-264 421l264 420h150z" />
    <glyph glyph-name="guillemotright.case" horiz-adv-x="1069" 
d="M141 1122h154l264 -422l-264 -419h-150l265 417zM535 1122h153l264 -422l-266 -419h-147l264 413z" />
    <glyph glyph-name="guilsinglleft.case" horiz-adv-x="675" 
d="M530 1122l-264 -415l266 -426h-151l-266 419l268 422h147z" />
    <glyph glyph-name="guilsinglright.case" horiz-adv-x="675" 
d="M143 1122h154l264 -420l-266 -421h-150l267 417z" />
    <glyph glyph-name="space.tf" 
 />
    <glyph glyph-name="uni20BF.tf" 
d="M1200 393q0 -174 -110 -277t-287 -114v-217h-113v215h-153v-215h-113v215h-238v1434h238v213h113v-213h153v213h113v-217q165 -20 254.5 -114t89.5 -237q0 -70 -23 -129t-61 -98t-80.5 -64.5t-87.5 -37.5q56 -11 108.5 -38t97.5 -69.5t72 -107.5t27 -142zM702 1300h-372
v-491h372q138 0 215.5 69.5t77.5 182.5q0 110 -77 174.5t-216 64.5zM330 133h411q143 0 225.5 77t82.5 198q0 122 -82 197t-226 75h-411v-547z" />
    <glyph glyph-name="cent.tf" 
d="M709 -244h-109v221q-180 22 -287.5 164t-107.5 365q0 214 109 359.5t286 168.5v217h109v-213q138 -13 231 -90t135 -188l-127 -47q-65 181 -239 202v-553v-266q56 6 101 29t75 58.5t48.5 73.5t29.5 81l131 -45q-45 -136 -142 -221.5t-243 -98.5v-217zM600 102v523v286
q-113 -23 -183.5 -127t-70.5 -278q0 -175 70 -279t184 -125z" />
    <glyph glyph-name="currency.tf" 
d="M371 360l-168 -163l-88 88l166 166q-82 113 -82 268q0 152 82 272l-166 168l88 86l168 -162q116 86 266 86q144 0 262 -88l168 164l90 -86l-168 -168q84 -111 84 -270q0 -156 -84 -270l168 -166l-90 -88l-168 165q-117 -90 -262 -90q-148 0 -266 88zM637 397
q130 0 216.5 88t86.5 236t-86 235.5t-217 87.5q-132 0 -218.5 -87.5t-86.5 -237.5q0 -148 86.5 -235t218.5 -87z" />
    <glyph glyph-name="dollar.tf" 
d="M690 -219h-115v194q-179 17 -300 113.5t-171 255.5l134 62q34 -122 122.5 -201.5t214.5 -98.5v580l-59 16q-77 20 -136 48t-108.5 71t-75.5 107.5t-26 146.5q0 161 112 264.5t293 118.5v189h115v-189q95 -8 174.5 -41.5t130.5 -80.5t82.5 -95t44.5 -96l-129 -64
q-11 36 -31 71.5t-55 74t-91 66t-126 36.5v-528l88 -27q367 -100 367 -393q0 -175 -120 -285.5t-335 -122.5v-192zM575 829v240v262q-122 -11 -196 -77.5t-74 -168.5q0 -101 63 -159t207 -97zM690 102q146 9 230 81.5t84 187.5q0 112 -73.5 178.5t-240.5 109.5v-264v-293z
" />
    <glyph glyph-name="Euro.tf" 
d="M719 -27q-207 0 -333 144.5t-161 396.5h-168l2 115h152q-7 112 0 202h-152v115h168q43 242 174 378t332 136q84 0 156 -25.5t121.5 -65.5t88.5 -93.5t61 -106.5t34 -108l-133 -43q-9 42 -23.5 81.5t-42 83t-63 75.5t-89 52.5t-116.5 20.5q-140 0 -230 -99.5t-126 -285.5
h245h181l-2 -115h-439q-11 -112 -2 -202h439v-115h-179h-247q30 -195 120 -303.5t230 -108.5q78 0 138 26.5t99.5 76.5t63.5 104.5t43 126.5l135 -49q-17 -65 -44 -123t-68.5 -112t-93 -93t-121.5 -62.5t-150 -23.5z" />
    <glyph glyph-name="liraturkish.tf" 
d="M432 0h-78v356v191q-84 -45 -131 -72l-61 -35v131l192 111v162l-192 -107v133l192 109v457h144v-195v-184l170 94l270 154v-134l-440 -247v-164l440 252v-135l-440 -248v-492h26q47 2 96.5 14t114 46t118 85t100.5 140t69 203l141 -54q-19 -91 -54 -171t-95 -154.5
t-139 -128t-193 -85.5t-250 -32z" />
    <glyph glyph-name="uni20BD.tf" 
d="M713 596h-297v-176h368v-119h-368v-301h-142v301h-157v119h157v176h-157v125h157v713h443q216 0 337.5 -117t121.5 -303t-122.5 -302t-340.5 -116zM690 1300h-274v-579h274q165 0 249.5 83t84.5 210t-82.5 206.5t-251.5 79.5z" />
    <glyph glyph-name="uni20B9.tf" 
d="M1122 1434v-119h-147h-217q60 -24 105 -77t63 -128h196v-117h-186q-8 -121 -81.5 -208t-217.5 -115q69 -10 117.5 -33t81.5 -62.5t53 -84.5t39 -113l104 -377h-155l-103 381q-32 125 -108 181t-217 56h-275v132h318q123 0 205.5 63.5t95.5 179.5h-619v117h612
q-23 99 -102 152t-192 53h-318v119h948z" />
    <glyph glyph-name="sterling.tf" 
d="M393 133h246h477v-133h-944v129q24 7 45.5 14.5t66.5 31.5t76.5 54t56.5 81.5t25 113.5q0 118 -63 225h-203v115h129q-45 67 -69.5 130t-24.5 140q0 100 38.5 182t102.5 134t144 80t166 28q111 0 206.5 -40.5t165 -130.5t86.5 -218l-141 -41q-11 79 -41.5 139t-75 95
t-96.5 52t-111 17q-124 0 -209.5 -79t-85.5 -218q0 -54 17 -107t32.5 -81t49.5 -82h395v-115h-326q47 -99 47 -209q0 -98 -47.5 -177.5t-134.5 -129.5z" />
    <glyph glyph-name="uni20A9.tf" 
d="M1227 909v-110h-193l-22 -193h198v-112h-211l-57 -494h-180l-84 481q-30 209 -43 299q-14 -84 -45 -299l-86 -481h-185l-51 494h-207v112h195l-20 193h-191v110h178l-55 525h137l66 -697q7 -97 24 -305.5t21 -267.5q30 178 57 348l80 465h166l78 -467l53 -346
q3 35 22.5 249.5t28.5 329.5l66 691h139l-59 -525h180z" />
    <glyph glyph-name="yen.tf" 
d="M1049 1434h170l-435 -676h283v-115h-352v-199h352v-114h-352v-330h-144v330h-368v114h368v199h-368v115h295l-449 676h172l314 -496q25 -37 108 -174q75 130 102 174z" />
    <glyph glyph-name="multiply.case.tf" 
d="M633 639l-387 -387l-90 90l389 387l-389 385l92 92l389 -385l385 385l90 -90l-385 -385l387 -389l-92 -92z" />
    <glyph glyph-name="plus.tf" 
d="M700 170h-131v487h-477v131h477v488l131 -2v-486h478v-131h-478v-487z" />
    <glyph glyph-name="minus.tf" 
d="M1122 657h-977v131h977v-131z" />
    <glyph glyph-name="multiply.tf" 
d="M633 639l-387 -387l-90 90l389 387l-389 385l92 92l389 -385l385 385l90 -90l-385 -385l387 -389l-92 -92z" />
    <glyph glyph-name="divide.tf" 
d="M725 1026h-178v231h178v-231zM1133 657h-994v131h994v-131zM725 190h-178v232h178v-232z" />
    <glyph glyph-name="equal.tf" 
d="M1130 866h-991v131h991v-131zM1130 442h-991v131h991v-131z" />
    <glyph glyph-name="notequal.tf" 
d="M395 164h-133l156 278h-279v131h350l80 144q23 41 84 149h-184h-330v131h586l149 269h132l-148 -269h270v-131h-342l-84 -149q-13 -23 -41.5 -75.5t-37.5 -68.5h168h337v-131h-577z" />
    <glyph glyph-name="greater.tf" 
d="M1163 616l-987 -460v149l612 285q136 61 279 127q-126 56 -279 127l-612 284v154l987 -463v-203z" />
    <glyph glyph-name="less.tf" 
d="M106 821l988 461v-149l-613 -283q-111 -50 -278 -127l278 -129l613 -283v-155l-988 465v200z" />
    <glyph glyph-name="greaterequal.tf" 
d="M1139 727l-989 -344v141l612 209q65 20 161.5 51t135.5 43q-287 90 -297 93l-612 213v145l989 -346v-205zM1139 172h-989v133h989v-133z" />
    <glyph glyph-name="lessequal.tf" 
d="M1120 528v-145l-989 344v203l989 348v-141l-612 -211q-210 -68 -297 -95q127 -43 297 -92zM1120 172h-989v133h989v-133z" />
    <glyph glyph-name="plusminus.tf" 
d="M694 479h-116v328h-439v129h439v340l116 -2v-338h439v-129h-439v-328zM1128 172h-989v133h989v-133z" />
    <glyph glyph-name="approxequal.tf" 
d="M856 815q-80 0 -207 57l-65 29q-113 49 -174 49q-103 0 -203 -108l-82 98q128 147 293 147q87 0 207 -55l63 -28q115 -50 176 -50q99 0 203 109l82 -100q-64 -73 -142.5 -110.5t-150.5 -37.5zM856 365q-80 0 -207 57l-65 29q-113 49 -174 49q-102 0 -203 -109l-82 98
q65 75 142 111.5t151 36.5q87 0 207 -55l63 -29q113 -49 176 -49q100 0 203 108l82 -100q-64 -73 -142.5 -110t-150.5 -37z" />
    <glyph glyph-name="logicalnot.tf" 
d="M1116 350h-121v318h-858v131h979v-449z" />
    <glyph glyph-name="percent.tf" 
d="M340 782q-119 0 -192.5 92t-73.5 250q0 155 73.5 246.5t192.5 91.5q118 0 191 -92t73 -246q0 -158 -71.5 -250t-192.5 -92zM342 0h-123l709 1434h121zM340 883q69 0 107 64t38 177q0 109 -39 172.5t-106 63.5q-69 0 -108 -63.5t-39 -172.5q0 -114 38 -177.5t109 -63.5z
M934 -27q-120 0 -194 92.5t-74 251.5q0 154 74 245t194 91q118 0 190 -91.5t72 -244.5q0 -159 -71 -251.5t-191 -92.5zM932 74q71 0 108 64t37 179q0 109 -38 171.5t-105 62.5q-70 0 -110 -63t-40 -171q0 -115 38 -179t110 -64z" />
    <glyph glyph-name="perthousand.tf" 
d="M244 782q-103 0 -161 91t-58 251q0 158 57.5 248t161.5 90q100 0 155.5 -90.5t55.5 -247.5q0 -161 -54 -251.5t-157 -90.5zM72 0l710 1434h117l-709 -1434h-118zM244 1360q-105 0 -105 -236q0 -241 103 -241q53 0 75.5 61t22.5 180q0 236 -96 236zM1040 653q97 0 151 -90
t54 -246q0 -162 -52.5 -253t-152.5 -91q-105 0 -159 101q-54 -101 -156 -101q-98 0 -154.5 91.5t-56.5 252.5q0 156 56.5 246t154.5 90q103 0 156 -94q54 94 159 94zM729 74q54 0 76 61.5t22 181.5q0 115 -22.5 174.5t-75.5 59.5q-100 0 -100 -234q0 -119 23 -181t77 -62z
M1032 74q55 0 78 62t23 181q0 115 -23 174.5t-76 59.5q-102 0 -102 -234q0 -119 23 -181t77 -62z" />
    <glyph glyph-name="at.case" horiz-adv-x="1855" 
d="M967 -141q-258 0 -450 100t-297 293t-105 457q0 194 63 355t175 269t265.5 167t333.5 59t334 -58t261 -160t168 -244t61 -306q0 -118 -32 -217t-85 -164.5t-122 -101.5t-144 -36q-99 0 -147.5 47t-55.5 121q-46 -77 -119.5 -123.5t-169.5 -46.5q-154 0 -249 118t-95 312
q0 195 96.5 316t247.5 121q191 0 285 -158v131h119v-629q0 -98 98 -98q97 0 169.5 113t72.5 297q0 187 -85.5 334.5t-243.5 231t-364 83.5q-154 0 -284 -49.5t-224.5 -142t-147 -231.5t-52.5 -310q0 -347 196.5 -540.5t526.5 -193.5q305 0 518 150l55 -109
q-107 -72 -255.5 -114.5t-317.5 -42.5zM930 379q109 0 185.5 92t76.5 244q0 148 -69.5 232.5t-186.5 84.5q-112 0 -182 -87t-70 -236q0 -151 68.5 -240.5t177.5 -89.5z" />
    <glyph glyph-name="registered.case" horiz-adv-x="1804" 
d="M903 -61q-220 0 -402 105t-285 285.5t-103 395.5q0 216 103 397.5t285 288.5t402 107q165 0 312 -63t251.5 -169.5t165 -253t60.5 -307.5t-60.5 -306.5t-165 -250.5t-251.5 -167t-312 -62zM903 45q143 0 269 53.5t214.5 145t139.5 216.5t51 265t-51 266.5t-139.5 219
t-214.5 146.5t-269 54t-269.5 -54t-215 -146.5t-140 -219t-51.5 -266.5t51.5 -265t140.5 -216.5t215 -145t269 -53.5zM731 326h-106v821h331q123 0 200 -57.5t77 -167.5q0 -49 -18.5 -88.5t-50 -63t-63.5 -37t-67 -20.5q63 -13 99.5 -58t58.5 -135l51 -194h-119l-49 206
q-19 81 -62 113.5t-130 32.5h-152v-352zM731 1051v-281h209q180 0 180 141q0 140 -180 140h-209z" />
    <glyph glyph-name="section.tf" 
d="M631 -424q-95 0 -171.5 25.5t-126 69.5t-79.5 95.5t-43 110.5l135 53q58 -229 285 -229q116 0 184 59.5t68 155.5q0 81 -47.5 136t-151.5 87l-276 90q-279 87 -279 326q0 108 64.5 193.5t168.5 123.5q-114 84 -114 254q0 142 103 238t280 96q96 0 173.5 -27t126.5 -72.5
t78.5 -95.5t41.5 -104l-136 -55q-28 102 -96.5 166.5t-187.5 64.5q-113 0 -177.5 -58.5t-64.5 -148.5q0 -88 45.5 -135t155.5 -82l276 -88q279 -88 279 -323q0 -109 -65.5 -196t-172.5 -124q119 -103 119 -262q0 -151 -107.5 -247.5t-287.5 -96.5zM799 244q89 26 145.5 90
t56.5 151q0 156 -200 217l-240 76q-57 18 -86 31q-90 -24 -146.5 -88t-56.5 -154q0 -84 50 -134t151 -83l240 -76q42 -11 86 -30z" />
    <glyph glyph-name="degree.tf" 
d="M633 922q-141 0 -232.5 93t-91.5 228q0 137 92.5 230.5t233.5 93.5q143 0 235.5 -93.5t92.5 -230.5q0 -139 -93 -230t-237 -91zM635 1032q92 0 146.5 58.5t54.5 154.5q0 94 -54.5 151.5t-146.5 57.5q-87 0 -144 -58t-57 -151q0 -96 57 -154.5t144 -58.5z" />
    </font>
</defs>
</svg>
