<?xml version="1.0" standalone="no"?>
<!DOCTYPE svg PUBLIC "-//W3C//DTD SVG 1.1//EN" "http://www.w3.org/Graphics/SVG/1.1/DTD/svg11.dtd" >
<svg xmlns="http://www.w3.org/2000/svg" xmlns:xlink="http://www.w3.org/1999/xlink" version="1.1">
<metadata>
Created by FontForge 20170731 at Wed Dec 29 09:47:04 2021
 By Aleksey,,,
Copyright 2021 Dinamo (Johannes Breyer, Fabian Harb) &#38; Erkin Karamemet. All rights reserved.
</metadata>
<defs>
<font id="ABCWhyte-SuperItalic" horiz-adv-x="1269" >
  <font-face 
    font-family="ABC Whyte Super"
    font-weight="900"
    font-style="italic"
    font-stretch="normal"
    units-per-em="2048"
    panose-1="2 11 0 4 4 2 2 6 2 3"
    ascent="1649"
    descent="-399"
    x-height="1034"
    cap-height="1434"
    bbox="-584 -791 2908.07 2165"
    underline-thickness="102"
    underline-position="-307"
    slope="-12"
    unicode-range="U+0020-FB02"
  />
<missing-glyph horiz-adv-x="1429" 
d="M1219 0h-1227l303 1434h1227zM639 1141l-180 -848h415l181 848h-416z" />
    <glyph glyph-name="fi" unicode="fi" horiz-adv-x="1648" 
d="M1208 1137l76 358h498l-76 -358h-498zM1683 1034l-221 -1034h-497l155 727h-405l-154 -727h-467l154 727h-172l65 307h172l17 76q39 185 136 271.5t275 86.5h426l-65 -307h-234q-61 0 -73 -61l-15 -66h903z" />
    <glyph glyph-name="fl" unicode="fl" horiz-adv-x="1581" 
d="M1708 1468l-66 -307l-245 -1161h-484l246 1161h-291q-61 0 -73 -61l-15 -66h230l-66 -307h-229l-154 -727h-467l154 727h-172l65 307h172l17 76q39 185 136 271.5t275 86.5h967z" />
    <glyph glyph-name="f_f" unicode="ff" horiz-adv-x="1748" 
d="M2005 1468l-66 -307h-233q-62 0 -74 -61l-14 -66h229l-65 -307h-230l-153 -727h-467l153 727h-370l-154 -727h-467l154 727h-172l65 307h172l17 76q39 185 136 271.5t275 86.5h426l-65 -307h-234q-61 0 -73 -61l-15 -66h371l16 76q39 185 136.5 271.5t275.5 86.5h426z
" />
    <glyph glyph-name="f_f_i" unicode="ffi" horiz-adv-x="2484" 
d="M2044 1137l76 358h497l-75 -358h-498zM2519 1034l-221 -1034h-498l156 727h-404l-153 -727h-467l153 727h-370l-154 -727h-467l154 727h-172l65 307h172l17 76q39 185 136 271.5t275 86.5h426l-65 -307h-234q-61 0 -73 -61l-15 -66h371l16 76q39 185 136.5 271.5
t275.5 86.5h426l-66 -307h-233q-62 0 -74 -61l-14 -66h901z" />
    <glyph glyph-name="f_f_l" unicode="ffl" horiz-adv-x="2402" 
d="M2529 1468l-65 -307l-246 -1161h-483l245 1161h-274q-62 0 -74 -61l-14 -66h229l-65 -307h-230l-153 -727h-467l153 727h-370l-154 -727h-467l154 727h-172l65 307h172l17 76q39 185 136 271.5t275 86.5h426l-65 -307h-234q-61 0 -73 -61l-15 -66h371l16 76
q39 185 136.5 271.5t275.5 86.5h950z" />
    <glyph glyph-name=".notdef" horiz-adv-x="1429" 
d="M1219 0h-1227l303 1434h1227zM639 1141l-180 -848h415l181 848h-416z" />
    <glyph glyph-name=".null" horiz-adv-x="0" 
 />
    <glyph glyph-name="nonmarkingreturn" horiz-adv-x="682" 
 />
    <glyph glyph-name="space" unicode=" " horiz-adv-x="366" 
 />
    <glyph glyph-name="exclam" unicode="!" horiz-adv-x="675" 
d="M489 561h-286l2 545l69 328h512l-69 -328zM483 0h-508l93 438h507z" />
    <glyph glyph-name="quotedbl" unicode="&#x22;" horiz-adv-x="1173" 
d="M436 602h-282l36 533l64 299h446l-63 -299zM1040 602h-282l37 533l63 299h447l-64 -299z" />
    <glyph glyph-name="numbersign" unicode="#" horiz-adv-x="1685" 
d="M465 0h-352l45 109q15 32 71 167h-125h-100l72 338h297l94 215h-244l72 338h317l113 267h352l-55 -134q-38 -86 -57 -133h96h119l112 267h353l-41 -99q-12 -28 -35.5 -84.5t-36.5 -83.5h139h98l-71 -338h-309l-93 -215h254l-71 -338h-328l-115 -276h-354l41 98
q13 30 38.5 89.5t37.5 88.5h-133h-84zM819 829l-92 -215h217l90 215h-215z" />
    <glyph glyph-name="dollar" unicode="$" horiz-adv-x="1449" 
d="M713 -162h-273l37 164q-422 72 -452 424l518 96q17 -172 168 -172q76 0 118.5 29t42.5 76q0 37 -27.5 61t-78.5 31l-117 16q-140 19 -234 57t-144 94.5t-69.5 119.5t-19.5 149q0 114 48 209t130.5 158.5t191.5 99.5t234 41l31 145h273l-35 -168q187 -41 289.5 -148.5
t115.5 -252.5l-528 -76q-20 139 -150 139q-55 0 -87.5 -26t-32.5 -66q0 -47 35.5 -71.5t121.5 -34.5l103 -12q216 -26 333 -136.5t117 -289.5q0 -159 -81.5 -274t-221 -173t-324.5 -63z" />
    <glyph glyph-name="percent" unicode="%" horiz-adv-x="2052" 
d="M508 618q-169 0 -262.5 86.5t-93.5 241.5q0 219 121.5 363.5t308.5 144.5q169 0 265.5 -91.5t96.5 -252.5q0 -216 -122 -354t-314 -138zM596 0h-354l1300 1434h352zM514 850q38 0 68 80.5t30 202.5q0 92 -39 92q-35 0 -64.5 -85t-29.5 -208q0 -82 35 -82zM1546 -20
q-169 0 -262.5 86t-93.5 241q0 219 121.5 363.5t308.5 144.5q169 0 265.5 -91.5t96.5 -252.5q0 -215 -122 -353t-314 -138zM1552 211q38 0 68.5 81t30.5 202q0 92 -39 92q-35 0 -64.5 -85t-29.5 -208q0 -82 34 -82z" />
    <glyph glyph-name="ampersand" unicode="&#x26;" horiz-adv-x="1593" 
d="M559 -37q-233 0 -390 110t-157 285q0 151 91 249.5t270 166.5q-78 118 -78 252q0 191 146 317.5t368 126.5q116 0 210 -30t153.5 -80.5t91.5 -114.5t32 -135q0 -83 -31 -152t-91.5 -122t-126 -91.5t-158.5 -78.5q4 -4 17.5 -16.5t29.5 -26t33 -27.5q43 -35 100 -72
q97 112 182 271l291 -168q-95 -164 -188 -275q91 -48 207 -96l-129 -289q-155 51 -334 148q-111 -78 -237.5 -115t-301.5 -37zM696 895l31 10q184 61 184 156q0 42 -30.5 65t-77.5 23q-64 0 -101.5 -42.5t-37.5 -107.5q0 -63 32 -104zM604 279q105 0 184 36q-50 38 -124 101
q-58 50 -115 106q-51 -22 -80 -58.5t-29 -80.5q0 -43 40 -73.5t124 -30.5z" />
    <glyph glyph-name="quotesingle" unicode="'" horiz-adv-x="569" 
d="M436 602h-282l36 533l64 299h446l-63 -299z" />
    <glyph glyph-name="parenleft" unicode="(" horiz-adv-x="790" 
d="M647 33l-76 -361q-120 9 -212 46t-151.5 95.5t-96.5 142.5t-52.5 178t-15.5 210q0 153 28 303.5t80 288.5t133 255t181.5 202.5t231 131.5t276.5 42l-76 -365q-104 -5 -193.5 -84.5t-147 -202.5t-90 -269.5t-32.5 -289.5q0 -305 213 -323z" />
    <glyph glyph-name="parenright" unicode=")" horiz-adv-x="790" 
d="M184 1206l76 361q120 -9 212 -46t151.5 -95.5t96.5 -142.5t52.5 -178t15.5 -210q0 -153 -27.5 -303.5t-80 -288.5t-133 -255t-181 -202.5t-231 -131.5t-276.5 -42l75 365q104 5 193.5 84.5t147 202.5t90 269.5t32.5 289.5q0 305 -213 323z" />
    <glyph glyph-name="asterisk" unicode="*" horiz-adv-x="1177" 
d="M686 922l-194 -277l-244 158l65 74l146 163l-178 -12l-117 -6l65 301l273 -16l-115 260l293 129l33 -99q5 -15 55 -163q49 69 96 131l99 135l249 -162l-204 -231l288 16l-65 -301l-125 6q-77 5 -166 16q5 -9 36 -76t48 -102l47 -96l-301 -125z" />
    <glyph glyph-name="plus" unicode="+" horiz-adv-x="1275" 
d="M866 164h-372v385h-371v348h371v385h372v-385h371v-348h-371v-385z" />
    <glyph glyph-name="comma" unicode="," horiz-adv-x="659" 
d="M139 -399h-243l354 399h-270l92 438h501l-92 -438z" />
    <glyph glyph-name="hyphen" unicode="-" horiz-adv-x="1064" 
d="M969 467h-895l78 369h895z" />
    <glyph glyph-name="period" unicode="." horiz-adv-x="659" 
d="M481 0h-501l94 438h501z" />
    <glyph glyph-name="slash" unicode="/" horiz-adv-x="1032" 
d="M297 -182h-406l928 1798h406z" />
    <glyph glyph-name="zero" unicode="0" horiz-adv-x="1492" 
d="M711 -37q-139 0 -251.5 35.5t-195.5 106.5t-128.5 184t-45.5 260q0 138 31 270.5t95 250.5t154 207t217.5 141t276.5 52q135 0 247 -39t195 -114.5t129 -194t46 -268.5q0 -139 -31 -269t-95 -243t-154.5 -197.5t-216.5 -133t-273 -48.5zM733 354q53 0 94.5 55.5
t64.5 142.5t34.5 177t11.5 174q0 180 -104 180q-53 0 -94.5 -55.5t-64.5 -142t-34.5 -176.5t-11.5 -174q0 -181 104 -181z" />
    <glyph glyph-name="one" unicode="1" horiz-adv-x="1040" 
d="M825 0h-497l147 696l51 236q-67 -136 -185.5 -222.5t-279.5 -86.5l109 503q344 19 479 308h479z" />
    <glyph glyph-name="two" unicode="2" horiz-adv-x="1380" 
d="M1198 0h-1190l98 465q793 244 793 508q0 55 -29.5 83.5t-81.5 28.5q-39 0 -69.5 -20.5t-49 -55.5t-29 -73t-13.5 -80l-502 62q7 49 21 98t41 104.5t63 104.5t90.5 94.5t121 78.5t157 52.5t194.5 19.5q263 0 419.5 -118.5t156.5 -319.5q0 -98 -42.5 -192.5t-121.5 -167.5
q-42 -39 -99.5 -76t-107.5 -62t-128 -55.5t-122.5 -45.5t-130.5 -44h448h195z" />
    <glyph glyph-name="three" unicode="3" horiz-adv-x="1347" 
d="M629 -37q-289 0 -449 115t-166 323l484 80q1 -69 36 -103t95 -34q67 0 108 35t41 92q0 45 -35.5 70.5t-93.5 25.5h-172l66 318h186q65 0 104 29t39 87q0 36 -29 59t-79 23q-53 0 -85.5 -27t-51.5 -85l-477 73q54 201 220.5 313.5t438.5 112.5q250 0 391 -101t141 -265
q0 -157 -104 -256.5t-276 -130.5q129 -21 215 -108.5t86 -207.5q0 -142 -85 -242.5t-225.5 -148t-322.5 -47.5z" />
    <glyph glyph-name="four" unicode="4" horiz-adv-x="1478" 
d="M1110 0h-457l54 252h-732l76 354l690 828h672l-174 -828h203l-76 -354h-203zM709 606h73l19 90l73 353l-366 -443h201z" />
    <glyph glyph-name="five" unicode="5" horiz-adv-x="1351" 
d="M641 -37q-139 0 -249 28t-177 71t-113 102t-65.5 112.5t-26.5 110.5l486 72q10 -51 42.5 -84t90.5 -33q69 0 111 46t42 118q0 59 -36 90t-84 31q-88 0 -130 -92l-428 57l246 842h1055l-82 -390h-678l-33 -110q-13 -52 -37 -121q43 46 119 71t162 25q82 0 156 -24
t135 -70.5t97 -124t36 -176.5q0 -135 -50 -241.5t-138 -173t-202.5 -101.5t-248.5 -35z" />
    <glyph glyph-name="six" unicode="6" horiz-adv-x="1386" 
d="M676 -37q-152 0 -266.5 43.5t-184 123t-103.5 185t-34 236.5q0 143 34.5 276t108 250.5t178.5 204.5t255.5 137.5t330.5 50.5q127 0 241.5 -25t156.5 -50l-80 -383q-62 27 -151 48t-179 21q-77 0 -147.5 -22t-131 -76.5t-83.5 -134.5q83 98 270 98q59 0 116 -12
t115.5 -42.5t102 -76t71 -120t27.5 -167.5q0 -119 -45 -222t-127 -179.5t-204.5 -120t-270.5 -43.5zM674 350q65 0 112.5 45t47.5 115q0 54 -35.5 87.5t-89.5 33.5q-68 0 -112 -46t-44 -116q0 -56 32 -87.5t89 -31.5z" />
    <glyph glyph-name="seven" unicode="7" horiz-adv-x="1175" 
d="M584 0h-539q27 139 82 267.5t115.5 222.5t141.5 182t144 142.5t140.5 107t111.5 72t77 42.5l6 3t4.5 2.5t4.5 2.5h-311h-414l82 390h1108l-102 -490q-145 -70 -260 -177t-191 -234.5t-124 -258t-76 -274.5z" />
    <glyph glyph-name="eight" unicode="8" horiz-adv-x="1370" 
d="M625 -37q-283 0 -436.5 96.5t-153.5 282.5q0 147 119 262.5t309 138.5q-131 26 -202 96t-71 171q0 110 51 199t140 145t204 86t246 30q247 0 399 -104t152 -270q0 -78 -32.5 -144.5t-88 -112.5t-126 -76t-148.5 -40q56 -10 107.5 -34t95 -61.5t70 -92t26.5 -117.5
q0 -110 -53.5 -198t-145.5 -143t-210 -84.5t-252 -29.5zM768 881q68 0 109 38t41 101q0 45 -31 72.5t-92 27.5q-67 0 -109.5 -39.5t-42.5 -101.5q0 -44 32 -71t93 -27zM653 338q69 0 118.5 45.5t49.5 108.5q0 49 -36.5 79.5t-100.5 30.5q-69 0 -116.5 -41t-47.5 -115
q0 -49 34.5 -78.5t98.5 -29.5z" />
    <glyph glyph-name="nine" unicode="9" horiz-adv-x="1372" 
d="M479 -37q-161 0 -269.5 34.5t-160.5 72.5l80 379q67 -45 158.5 -74t185.5 -29q160 0 260 68q83 57 105 180q-35 -45 -105 -79t-176 -34q-58 0 -113 12.5t-109 43.5t-94 78t-64.5 121.5t-24.5 168.5q0 120 40 222t116.5 179t195.5 120.5t268 43.5q274 0 432 -161
q78 -80 120 -192.5t42 -242.5q0 -144 -32.5 -275t-103 -248t-172.5 -202.5t-250.5 -135.5t-328.5 -50zM731 788q70 0 117 47.5t47 120.5q0 59 -35.5 94t-95.5 35q-69 0 -117.5 -46t-48.5 -119q0 -57 37.5 -94.5t95.5 -37.5z" />
    <glyph glyph-name="colon" unicode=":" horiz-adv-x="673" 
d="M614 653h-501l94 439h502zM477 0h-502l95 438h501z" />
    <glyph glyph-name="semicolon" unicode=";" horiz-adv-x="671" 
d="M614 653h-501l94 439h502zM135 -399h-244l355 399h-271l93 438h501l-92 -438z" />
    <glyph glyph-name="less" unicode="&#x3c;" horiz-adv-x="1370" 
d="M143 975l1100 278l-2 -393l-309 -61l-490 -99q83 -17 249 -50.5t249 -49.5l299 -59l4 -396l-1100 279v551z" />
    <glyph glyph-name="equal" unicode="=" horiz-adv-x="1339" 
d="M1235 786h-1061v328h1061v-328zM1235 315h-1061v328h1061v-328z" />
    <glyph glyph-name="greater" unicode="&#x3e;" horiz-adv-x="1370" 
d="M1305 424l-1100 -279l2 394l309 61l490 98q-83 16 -249 50l-249 51l-299 59l-4 395l1100 -278v-551z" />
    <glyph glyph-name="question" unicode="?" horiz-adv-x="1384" 
d="M907 561h-446q9 51 17.5 82.5t27 70.5t46 68t74 60.5t111.5 60.5q102 47 136 74t34 61t-25 54t-75 20q-128 0 -139 -164l-523 70q10 66 35.5 125.5t79 121t129.5 105.5t194.5 72t266.5 28q297 0 450.5 -102.5t153.5 -263.5q0 -56 -17.5 -105t-44 -84t-68.5 -67.5
t-80.5 -54t-90.5 -45.5q-112 -51 -158.5 -78t-63 -48.5t-24.5 -60.5zM821 0h-502l93 438h501z" />
    <glyph glyph-name="at" unicode="@" horiz-adv-x="2015" 
d="M1018 -365q-165 0 -310.5 33t-267.5 102.5t-209.5 169.5t-136.5 240t-49 309q0 155 45.5 300t136 268.5t215.5 215.5t294.5 144.5t363.5 52.5q156 0 297 -31t259 -93t204.5 -149t135 -205t48.5 -255q0 -179 -77 -317.5t-212.5 -212.5t-306.5 -74q-115 0 -184 48.5
t-82 125.5q-55 -82 -137.5 -128t-172.5 -46q-134 0 -207 89t-73 229q0 130 45.5 248t135 195t202.5 77q93 0 152.5 -38.5t86.5 -94.5l25 108h291l-94 -438q-12 -57 4 -82t63 -25q93 0 154 98t61 226q0 208 -165.5 333.5t-452.5 125.5q-178 0 -315.5 -52t-223.5 -145.5
t-130 -219.5t-44 -278q0 -139 48.5 -248t134 -178t199.5 -105t249 -36q308 0 571 154l131 -250q-146 -94 -332 -142.5t-370 -48.5zM1024 395q65 0 103 75t38 169q0 52 -20.5 80.5t-59.5 28.5q-67 0 -106 -76.5t-39 -161.5q0 -55 21.5 -85t62.5 -30z" />
    <glyph glyph-name="A" unicode="A" horiz-adv-x="1611" 
d="M1518 0h-523l-10 223h-448l-109 -223h-553l766 1434h719zM756 668l-37 -76h248l-4 88q-11 241 -15 393q-150 -319 -192 -405z" />
    <glyph glyph-name="B" unicode="B" horiz-adv-x="1449" 
d="M782 0h-790l303 1434h721q203 0 321.5 -86.5t118.5 -229.5q0 -146 -97 -249.5t-263 -131.5q135 -20 211.5 -99t76.5 -194q0 -144 -82 -246t-215.5 -150t-304.5 -48zM723 1069l-43 -197h160q60 0 96.5 31.5t36.5 85.5q0 33 -27.5 56.5t-71.5 23.5h-151zM616 571l-45 -206
h164q65 0 104.5 32.5t39.5 87.5q0 38 -27 62t-78 24h-158z" />
    <glyph glyph-name="C" unicode="C" horiz-adv-x="1652" 
d="M827 -37q-352 0 -546.5 167.5t-194.5 447.5q0 189 61 352t171.5 283t275.5 188.5t364 68.5q159 0 294 -41.5t227.5 -112.5t150 -163t74.5 -197l-576 -125q-29 230 -200 230q-67 0 -121.5 -41t-88 -106.5t-51.5 -142.5t-18 -155q0 -118 46 -181.5t128 -63.5q87 0 154 58.5
t119 184.5l544 -186q-98 -219 -298 -342t-515 -123z" />
    <glyph glyph-name="D" unicode="D" horiz-adv-x="1599" 
d="M729 0h-737l303 1434h596q326 0 516 -161.5t190 -430.5q0 -179 -63.5 -335t-176.5 -267.5t-275.5 -175.5t-352.5 -64zM737 1034l-135 -631h107q98 0 174.5 55.5t115.5 143t39 189.5q0 108 -59 175.5t-178 67.5h-64z" />
    <glyph glyph-name="E" unicode="E" horiz-adv-x="1331" 
d="M1145 0h-1153l303 1434h1153l-84 -396h-647l-31 -143h528l-73 -348h-529l-30 -150h647z" />
    <glyph glyph-name="F" unicode="F" horiz-adv-x="1316" 
d="M508 0h-516l303 1434h1157l-86 -410h-641l-45 -215h532l-82 -379h-532z" />
    <glyph glyph-name="G" unicode="G" horiz-adv-x="1677" 
d="M616 -37q-241 0 -386.5 156t-145.5 432q0 198 62.5 367t177 291.5t285.5 191.5t380 69q109 0 204.5 -17t165 -45t127 -66.5t95.5 -79t65.5 -85t41.5 -81.5t20 -72l-551 -147q-53 184 -209 184q-77 0 -139 -45.5t-99.5 -120.5t-57 -163t-19.5 -179q0 -122 55 -181t150 -59
q74 0 135 36.5t90 113.5h-256l72 338h776l-170 -801h-463q10 55 33 154q-64 -81 -176.5 -136t-262.5 -55z" />
    <glyph glyph-name="H" unicode="H" horiz-adv-x="1611" 
d="M530 0h-538l303 1434h539l-105 -498h332l104 498h539l-303 -1434h-539l111 526h-332z" />
    <glyph glyph-name="I" unicode="I" horiz-adv-x="741" 
d="M530 0h-538l303 1434h539z" />
    <glyph glyph-name="J" unicode="J" horiz-adv-x="1345" 
d="M582 -37q-331 0 -473 164.5t-86 466.5l512 111q-22 -87 -30.5 -149.5t-4.5 -110.5t27 -71.5t65 -23.5q107 0 141 158l197 926h520l-184 -867q-17 -79 -35 -140.5t-47 -126.5t-64.5 -113t-86.5 -92t-115 -72t-149 -44t-187 -16z" />
    <glyph glyph-name="K" unicode="K" horiz-adv-x="1665" 
d="M1165 1434h666l-678 -629l477 -805h-610l-287 537l-147 -129l-86 -408h-508l303 1434h506l-25 -119q-51 -242 -74 -350z" />
    <glyph glyph-name="L" unicode="L" horiz-adv-x="1308" 
d="M1174 0h-1182l303 1434h536l-217 -1024h646z" />
    <glyph glyph-name="M" unicode="M" horiz-adv-x="2105" 
d="M494 0h-502l303 1434h764v-263v-591q109 258 254 596l110 258h775l-304 -1434h-503l77 371q38 181 142 659l-477 -1030h-381l-39 1030q-65 -297 -140 -655z" />
    <glyph glyph-name="N" unicode="N" horiz-adv-x="1726" 
d="M487 0h-495l303 1434h663l211 -727q48 227 80 376l74 351h496l-303 -1434h-566l-270 907q-28 -125 -88 -409z" />
    <glyph glyph-name="O" unicode="O" horiz-adv-x="1775" 
d="M872 -37q-193 0 -343 47.5t-245 135t-143.5 206.5t-48.5 266q0 184 64 341.5t179 270t283 176.5t369 64q194 0 343.5 -47.5t244.5 -134.5t143.5 -205.5t48.5 -265.5q0 -184 -64 -341.5t-179 -271t-283 -177.5t-369 -64zM889 371q98 0 169.5 63t105.5 162t34 219t-57 185
t-170 65q-98 0 -169 -63.5t-104.5 -162t-33.5 -218.5t56 -185t169 -65z" />
    <glyph glyph-name="P" unicode="P" horiz-adv-x="1449" 
d="M510 0h-518l303 1434h696q104 0 195.5 -27t163.5 -79t113.5 -137t41.5 -194q0 -117 -44 -222.5t-123 -185t-197.5 -126.5t-259.5 -47h-283zM731 1044l-55 -260h153q73 0 116.5 45.5t43.5 104.5q0 110 -137 110h-121z" />
    <glyph glyph-name="Q" unicode="Q" horiz-adv-x="1796" 
d="M872 -37q-370 0 -575 172t-205 483q0 250 112.5 444t316.5 301t466 107q371 0 575.5 -171.5t204.5 -481.5q0 -301 -159 -514q47 -12 131 -12l-70 -328q-227 0 -364 94q-82 -44 -196 -69t-237 -25zM885 352q34 0 98 17l-16 20q-36 46 -87.5 67t-134.5 21l80 350
q72 0 114.5 -12t84.5 -37q69 -40 176 -166q27 93 27 205q0 126 -64.5 191t-187.5 65q-152 0 -247 -127t-95 -330q0 -129 64.5 -196.5t187.5 -67.5z" />
    <glyph glyph-name="R" unicode="R" horiz-adv-x="1576" 
d="M510 0h-518l303 1434h772q248 0 378 -102.5t130 -264.5q0 -90 -38.5 -167t-103.5 -128t-147.5 -81.5t-171.5 -35.5q58 -6 101.5 -19t73.5 -37t49.5 -48.5t33 -67t21 -78.5t16.5 -96l45 -309h-555l-25 354q-6 81 -31.5 111.5t-94.5 30.5h-134zM731 1049l-47 -226h188
q69 0 109.5 37.5t40.5 91.5q0 46 -29.5 71.5t-85.5 25.5h-176z" />
    <glyph glyph-name="S" unicode="S" horiz-adv-x="1560" 
d="M778 -37q-718 0 -770 443l574 96q22 -172 190 -172q84 0 130 28.5t46 75.5q0 37 -31 60.5t-88 31.5l-131 17q-125 16 -218 44t-152 65t-94.5 87t-49.5 103.5t-14 120.5q0 119 55.5 216t152 160t224 97t272.5 34q168 0 301 -32.5t219.5 -90.5t135.5 -134t59 -166l-583 -76
q-26 139 -170 139q-61 0 -97.5 -26.5t-36.5 -65.5q0 -47 41.5 -71.5t137.5 -35.5l114 -12q241 -26 374.5 -136.5t133.5 -289.5q0 -165 -93 -281.5t-254.5 -172.5t-377.5 -56z" />
    <glyph glyph-name="T" unicode="T" horiz-adv-x="1398" 
d="M860 0h-538l225 1065h-406l78 369h1350l-78 -369h-406z" />
    <glyph glyph-name="U" unicode="U" horiz-adv-x="1593" 
d="M729 -37q-373 0 -530.5 172.5t-89.5 495.5l170 803h530l-158 -750q-33 -160 -7 -226.5t122 -66.5q94 0 151.5 71.5t88.5 221.5l157 750h537l-170 -803q-74 -353 -260 -510.5t-541 -157.5z" />
    <glyph glyph-name="V" unicode="V" horiz-adv-x="1705" 
d="M1130 0h-770l-188 1434h567l41 -492q19 -232 39 -524q70 140 268 545l232 471h598z" />
    <glyph glyph-name="W" unicode="W" horiz-adv-x="2281" 
d="M862 0h-633l-39 1434h537l-6 -146q-15 -353 -29 -825q59 173 246 706l92 265h567l-12 -267l-26 -690q147 423 284 799l58 158h553l-596 -1434h-672l6 170q11 295 37 795q-208 -543 -295 -775z" />
    <glyph glyph-name="X" unicode="X" horiz-adv-x="1636" 
d="M512 0h-672l721 784l-342 650h565l68 -138q44 -89 82 -161l135 165l107 134h661l-645 -723l377 -711h-574l-92 182l-92 185q-88 -110 -152 -187z" />
    <glyph glyph-name="Y" unicode="Y" horiz-adv-x="1519" 
d="M915 0h-538l112 524l-319 910h539l26 -97l105 -381q140 208 260 383l65 95h576l-715 -918z" />
    <glyph glyph-name="Z" unicode="Z" horiz-adv-x="1376" 
d="M1204 0h-1247l92 434l750 600h-402h-196l84 400h1179l-94 -451l-704 -563h426h200z" />
    <glyph glyph-name="bracketleft" unicode="[" horiz-adv-x="802" 
d="M596 -307h-676l391 1853h676l-65 -313h-250l-260 -1227h250z" />
    <glyph glyph-name="backslash" unicode="\" horiz-adv-x="970" 
d="M793 -182h-365l-166 1798h365z" />
    <glyph glyph-name="bracketright" unicode="]" horiz-adv-x="802" 
d="M250 1546h676l-391 -1853h-676l65 313h250l260 1227h-250z" />
    <glyph glyph-name="asciicircum" unicode="^" horiz-adv-x="1394" 
d="M510 672h-414l447 762h413l430 -762h-430l-59 114q-138 268 -152 297q-91 -154 -170 -295z" />
    <glyph glyph-name="underscore" unicode="_" horiz-adv-x="1318" 
d="M1079 -399h-1226l65 307h1227z" />
    <glyph glyph-name="grave" unicode="`" horiz-adv-x="628" 
d="M725 1159h-309l-203 316h475z" />
    <glyph glyph-name="a" unicode="a" horiz-adv-x="1310" 
d="M350 -37q-153 0 -247.5 75.5t-94.5 199.5q0 68 25.5 126.5t83 110t144 89t214 62t287.5 31.5l6 27q12 50 -12 78.5t-78 28.5q-101 0 -127 -115l-485 51q18 70 65.5 130.5t124 109t192 76.5t257.5 28q277 0 411.5 -124.5t85.5 -350.5l-43 -201q-8 -35 1.5 -51t43.5 -16h58
l-70 -328h-231q-231 0 -234 154q-142 -191 -377 -191zM551 252q55 0 97.5 37.5t60.5 118.5l12 57q-104 -6 -172 -44t-68 -104q0 -29 18 -47t52 -18z" />
    <glyph glyph-name="b" unicode="b" horiz-adv-x="1351" 
d="M823 -37q-72 0 -130 18.5t-96.5 51t-63 67.5t-39.5 76q-12 -75 -35 -176h-494l305 1434h494l-84 -400q-9 -44 -31 -139q54 75 134 125.5t178 50.5q118 0 200 -58.5t119 -152.5t37 -217q0 -127 -34 -248t-95 -217.5t-156.5 -155.5t-208.5 -59zM633 274q69 0 116.5 103
t47.5 237q0 146 -90 146q-69 0 -116.5 -103t-47.5 -237q0 -146 90 -146z" />
    <glyph glyph-name="c" unicode="c" horiz-adv-x="1271" 
d="M602 -37q-268 0 -419.5 118t-151.5 339q0 187 84.5 335.5t237 232t345.5 83.5q250 0 399 -119t160 -299l-471 -69q0 73 -25 125.5t-83 52.5q-42 0 -75 -34.5t-51 -89t-27 -112t-9 -112.5q0 -69 24 -105.5t68 -36.5q51 0 92 46.5t62 132.5l469 -68q-16 -63 -45.5 -119.5
t-81 -113t-119 -97t-166.5 -65.5t-217 -25z" />
    <glyph glyph-name="d" unicode="d" horiz-adv-x="1349" 
d="M389 -37q-118 0 -200 58.5t-119 152.5t-37 217q0 127 33.5 248t94.5 217.5t156.5 155.5t208.5 59q68 0 124.5 -19t95.5 -51.5t64.5 -67.5t43.5 -75l37 166l86 410h491l-305 -1434h-491q14 69 30 139q-54 -75 -134.5 -125.5t-178.5 -50.5zM643 274q69 0 116.5 103
t47.5 237q0 146 -90 146q-69 0 -116.5 -103t-47.5 -237q0 -146 90 -146z" />
    <glyph glyph-name="e" unicode="e" horiz-adv-x="1259" 
d="M578 -37q-254 0 -400.5 121t-146.5 334q0 287 184 470t485 183q143 0 254.5 -47t174.5 -132t81.5 -202t-24.5 -258h-697q-7 -46 -6.5 -82.5t22.5 -59t66 -22.5q50 0 91 34.5t69 86.5l457 -110q-32 -65 -83.5 -119.5t-124.5 -99.5t-176.5 -71t-225.5 -26zM528 637h230
q17 69 -8 109t-80 40q-105 0 -142 -149z" />
    <glyph glyph-name="f" unicode="f" horiz-adv-x="911" 
d="M715 727l-154 -727h-467l154 727h-172l65 307h172l17 76q39 185 136 271.5t275 86.5h426l-65 -307h-234q-61 0 -73 -61l-15 -66h230l-66 -307h-229z" />
    <glyph glyph-name="g" unicode="g" horiz-adv-x="1409" 
d="M770 -399h-641q-125 0 -191.5 48t-66.5 134q0 158 195 237q-51 35 -78 78t-27 105q0 93 67 165.5t183 120.5q-55 62 -55 181q0 190 140.5 295.5t389.5 105.5q178 0 300.5 -60t174.5 -167q34 114 84.5 152t153.5 38h96l-72 -338h-174q-66 0 -90 -65l-16 -41
q-54 -137 -174.5 -197.5t-339.5 -60.5q-160 0 -260 49q-45 -32 -45 -66q0 -29 21.5 -42t72.5 -13h422q178 0 280.5 -78t102.5 -211q0 -169 -117 -269.5t-336 -100.5zM659 541q51 0 86 54.5t35 131.5q0 52 -23 82.5t-63 30.5q-51 0 -83.5 -53.5t-32.5 -133.5q0 -112 81 -112z
M328 -113h372q35 0 56.5 17t21.5 45q0 24 -17.5 37.5t-45.5 13.5h-432q-33 -29 -33 -66q0 -47 78 -47z" />
    <glyph glyph-name="h" unicode="h" horiz-adv-x="1306" 
d="M461 0h-494l299 1434h477l-81 -398q-19 -98 -37 -170q145 205 336 205q78 0 142.5 -26t110 -78.5t60.5 -131.5t-6 -184l-138 -651h-495l131 614q10 47 -9.5 77t-58.5 30q-37 0 -66.5 -29t-39.5 -78z" />
    <glyph glyph-name="i" unicode="i" horiz-adv-x="647" 
d="M705 1137h-498l76 358h497zM461 0h-498l221 1034h498z" />
    <glyph glyph-name="j" unicode="j" horiz-adv-x="641" 
d="M709 1137h-498l76 358h497zM27 -399h-301l69 327h109q60 0 73 62l222 1044h475l-230 -1085q-38 -180 -138.5 -264t-278.5 -84z" />
    <glyph glyph-name="k" unicode="k" horiz-adv-x="1425" 
d="M942 1034h602l-524 -418l354 -616h-545l-186 373l-154 -117l-53 -256h-471l303 1434h471l-67 -326l-82 -383z" />
    <glyph glyph-name="l" unicode="l" horiz-adv-x="632" 
d="M449 0h-484l303 1434h484z" />
    <glyph glyph-name="m" unicode="m" horiz-adv-x="1925" 
d="M457 0h-490l215 1034h477q-6 -29 -19 -89t-19 -89q60 94 151 154.5t207 60.5q98 0 174 -56t98 -159q130 215 338 215q57 0 107.5 -15t95.5 -47.5t71.5 -83.5t35 -123t-12.5 -167l-135 -635h-491l126 610q11 53 -8 82t-57 29q-35 0 -60.5 -28.5t-37.5 -82.5l-127 -610
h-475l127 610q11 52 -9 81.5t-57 29.5q-74 0 -98 -111z" />
    <glyph glyph-name="n" unicode="n" horiz-adv-x="1304" 
d="M461 0h-494l215 1034h477q-17 -83 -36 -168q64 95 153 150t193 55q109 0 185.5 -48.5t108.5 -148t3 -235.5l-136 -639h-493l127 596q13 64 -7.5 94.5t-62.5 30.5q-81 0 -106 -125z" />
    <glyph glyph-name="o" unicode="o" horiz-adv-x="1357" 
d="M637 -37q-287 0 -445.5 125t-158.5 346q0 289 191.5 463t498.5 174q285 0 441.5 -130t156.5 -353q0 -191 -86.5 -333.5t-240.5 -217t-357 -74.5zM643 272q50 0 87 53t53 127t16 154t-21 117t-71 37q-48 0 -84 -53t-52 -127t-16 -154q0 -81 20 -117.5t68 -36.5z" />
    <glyph glyph-name="p" unicode="p" horiz-adv-x="1349" 
d="M371 -399h-492l305 1433h492q-9 -44 -31 -139q54 75 134.5 125.5t178.5 50.5q89 0 158.5 -33t112 -92t64.5 -135.5t22 -167.5q0 -127 -34 -248t-95 -217.5t-156.5 -155.5t-208.5 -59q-68 0 -124.5 19t-95.5 51.5t-65 67.5t-44 75l-35 -166zM631 274q69 0 116.5 103
t47.5 237q0 146 -90 146q-69 0 -116.5 -103t-47.5 -237q0 -146 90 -146z" />
    <glyph glyph-name="q" unicode="q" horiz-adv-x="1349" 
d="M1079 -399h-493l84 399q14 69 30 139q-54 -75 -133.5 -125.5t-177.5 -50.5q-118 0 -200 58.5t-119 152.5t-37 217q0 127 33.5 248t94.5 217.5t156.5 155.5t208.5 59q68 0 125 -19t96 -51.5t65 -67.5t44 -75q12 75 35 176h493zM643 274q69 0 116.5 103t47.5 237
q0 146 -90 146q-69 0 -116.5 -103t-47.5 -237q0 -146 90 -146z" />
    <glyph glyph-name="r" unicode="r" horiz-adv-x="1019" 
d="M463 0h-498l219 1034h478q-30 -148 -62 -297q78 159 173.5 244.5t219.5 85.5q65 0 117 -12l-96 -451q-90 19 -160 19q-134 0 -211.5 -71t-103.5 -196z" />
    <glyph glyph-name="s" unicode="s" horiz-adv-x="1202" 
d="M549 -37q-277 0 -420 91.5t-149 256.5l464 33q5 -55 31.5 -84t89.5 -29q50 0 79.5 18.5t29.5 51.5q0 51 -88 70l-133 28q-187 39 -274 110t-87 193q0 175 147.5 272t397.5 97q261 0 396.5 -84.5t148.5 -214.5l-473 -53q-5 43 -33 69.5t-80 26.5q-40 0 -63 -16.5
t-23 -42.5q0 -27 27 -41.5t96 -26.5l119 -22q378 -69 378 -332q0 -97 -46 -170t-127 -116t-183.5 -64t-224.5 -21z" />
    <glyph glyph-name="t" unicode="t" horiz-adv-x="980" 
d="M850 0h-305q-243 0 -331.5 99t-41.5 325l64 303h-187l66 307h186l66 307h477l-66 -307h205l-65 -307h-205l-68 -317q-12 -62 49 -62h232z" />
    <glyph glyph-name="u" unicode="u" horiz-adv-x="1298" 
d="M299 -37q-67 0 -122.5 22t-97.5 68.5t-55 118t5 170.5l145 692h496l-129 -610q-10 -51 9.5 -81t57.5 -30q85 0 109 111l129 610h485l-215 -1034h-469l31 139q-55 -68 -158 -122t-221 -54z" />
    <glyph glyph-name="v" unicode="v" horiz-adv-x="1290" 
d="M860 0h-643l-127 1034h492l6 -192l18 -490l221 477l95 205h491z" />
    <glyph glyph-name="w" unicode="w" horiz-adv-x="1794" 
d="M668 0h-557l2 1034h436l-8 -119q-20 -307 -33 -559q129 365 199 553l45 125h483l-8 -114q-26 -348 -39 -555q99 270 201 540l49 129h463l-439 -1034h-573l10 238l19 424q-107 -275 -162 -426z" />
    <glyph glyph-name="x" unicode="x" horiz-adv-x="1351" 
d="M420 0h-570l531 575l-279 459h519l36 -67q50 -90 78 -138q51 62 107 134l55 71h563l-489 -532l321 -502h-536l-43 78q-38 69 -95 166q-86 -100 -139 -168z" />
    <glyph glyph-name="y" unicode="y" horiz-adv-x="1284" 
d="M840 887l78 147h491l-608 -1085q-34 -61 -58.5 -100.5t-54 -80t-56.5 -64.5t-62 -46t-74.5 -33t-89 -17.5t-111.5 -6.5h-383l74 348h286q31 0 45.5 11.5t30.5 43.5l35 66l-326 964h490l33 -149q29 -134 84 -334z" />
    <glyph glyph-name="z" unicode="z" horiz-adv-x="1091" 
d="M926 0h-983l80 375l507 332h-243h-185l70 327h954l-71 -327l-551 -359h387h108z" />
    <glyph glyph-name="braceleft" unicode="{" horiz-adv-x="837" 
d="M633 -307h-246q-189 0 -265 121t-30 340l41 190q15 73 -7 102.5t-95 28.5l59 289q74 0 107 22t45 78l77 357q41 186 134.5 255.5t300.5 69.5h274l-61 -289h-127q-60 0 -88 -28.5t-43 -102.5l-62 -284q-26 -120 -112.5 -175t-223.5 -63q276 -34 217 -315l-41 -193
q-13 -60 10.5 -87t84.5 -27h112z" />
    <glyph glyph-name="bar" unicode="|" horiz-adv-x="593" 
d="M352 -182h-407l381 1798h407z" />
    <glyph glyph-name="braceright" unicode="}" horiz-adv-x="837" 
d="M246 1544h246q189 0 264.5 -121t29.5 -340l-41 -190q-15 -73 7.5 -102.5t95.5 -28.5l-60 -289q-74 0 -106.5 -22t-44.5 -78l-78 -357q-41 -187 -134.5 -256t-299.5 -69h-275l62 289h127q60 0 88 28.5t43 102.5l61 284q26 120 112.5 175t223.5 63q-276 34 -217 315l41 193
q13 60 -10 87t-84 27h-113z" />
    <glyph glyph-name="asciitilde" unicode="~" horiz-adv-x="1372" 
d="M981 457q-112 0 -199 53l-61 37q-40 24 -55.5 32.5t-47 19.5t-59.5 11q-62 0 -104.5 -28.5t-75.5 -110.5l-305 166q48 167 152 259.5t249 92.5q49 0 95 -12.5t74.5 -26.5t66.5 -37l67 -41q58 -36 119 -36q62 0 104.5 28.5t75.5 110.5l305 -166q-48 -167 -152 -259.5
t-249 -92.5z" />
    <glyph glyph-name="uni00A0" unicode="&#xa0;" horiz-adv-x="366" 
 />
    <glyph glyph-name="exclamdown" unicode="&#xa1;" horiz-adv-x="681" 
d="M246 1272h508l-92 -438h-508zM240 711h286l-2 -545l-69 -328h-512l69 328z" />
    <glyph glyph-name="cent" unicode="&#xa2;" horiz-adv-x="1320" 
d="M639 272q51 0 92 46.5t62 132.5l469 -68q-20 -77 -60.5 -145t-108.5 -130t-175.5 -101t-243.5 -44l-39 -184h-232l43 201q-184 37 -284.5 149t-100.5 291q0 271 171.5 451.5t445.5 197.5l39 186h231l-43 -202q173 -39 273.5 -147t109.5 -253l-471 -69q0 73 -25 125.5
t-83 52.5q-42 0 -75 -34.5t-51 -89t-27 -112t-9 -112.5q0 -69 24 -105.5t68 -36.5z" />
    <glyph glyph-name="sterling" unicode="&#xa3;" horiz-adv-x="1388" 
d="M530 389h459h316l-82 -389h-1250l82 389q134 39 212.5 80.5t109.5 101.5h-283l56 265h174q-62 114 -62 196q0 207 157.5 322.5t428.5 115.5q268 0 422.5 -113.5t156.5 -307.5l-503 -93q5 74 -19.5 113t-73.5 39q-52 0 -82 -33t-30 -88q0 -67 49 -151h356l-55 -265h-283
q-30 -66 -91 -110.5t-165 -71.5z" />
    <glyph glyph-name="currency" unicode="&#xa4;" horiz-adv-x="1359" 
d="M428 262l-184 -156l-205 254l174 148q-20 59 -20 154q0 181 112 305l-125 151l248 207l123 -149q109 53 235 53q114 0 218 -49l172 145l215 -250l-181 -151q23 -56 23 -136q0 -76 -28.5 -159t-74.5 -150l134 -160l-248 -213l-133 162q-137 -53 -242 -53q-117 0 -213 47z
M698 582q65 0 106.5 46.5t41.5 110.5q0 53 -32.5 88t-86.5 35q-63 0 -106 -46t-43 -107q0 -54 32 -90.5t88 -36.5z" />
    <glyph glyph-name="yen" unicode="&#xa5;" horiz-adv-x="1638" 
d="M1225 1434h571l-504 -588h176l-55 -264h-326l-18 -93h322l-50 -235h-319l-49 -254h-539l49 254h-319l49 235h317l19 93h-313l55 264h172l-236 588h549l33 -134q47 -188 90 -346q109 164 234 346z" />
    <glyph glyph-name="brokenbar" unicode="&#xa6;" horiz-adv-x="593" 
d="M573 860h-407l160 756h407zM352 -182h-407l159 751h408z" />
    <glyph glyph-name="section" unicode="&#xa7;" horiz-adv-x="1425" 
d="M588 -442q-147 0 -261.5 34.5t-182.5 93t-102 128.5t-34 147l455 51q1 -74 36.5 -110.5t92.5 -36.5q50 0 78 22t28 58q0 33 -25.5 58t-99.5 52l-159 60q-178 67 -269.5 153t-91.5 209q0 232 299 344q-88 94 -88 230q0 182 148 300.5t397 118.5q128 0 230.5 -29
t168.5 -79.5t103.5 -116t44.5 -141.5l-443 -64q-3 59 -32.5 91t-81.5 32q-40 0 -64 -22.5t-24 -53.5q0 -33 24 -54.5t101 -49.5l211 -74q167 -59 247 -143.5t80 -204.5q0 -239 -295 -352q82 -91 82 -225q0 -185 -152 -305.5t-421 -120.5zM856 358q34 32 50 57t16 56
q0 27 -18.5 47t-59.5 39l-203 90q-19 7 -76 35q-37 -36 -52 -58.5t-15 -54.5q0 -28 18 -47.5t59 -38.5l199 -90q47 -19 82 -35z" />
    <glyph glyph-name="dieresis" unicode="&#xa8;" horiz-adv-x="1011" 
d="M582 1159h-404l66 316h403zM1108 1159h-403l65 316h404z" />
    <glyph glyph-name="copyright" unicode="&#xa9;" horiz-adv-x="1927" 
d="M995 -170q-185 0 -349 68t-280 184.5t-183.5 277.5t-67.5 340q0 181 67.5 340.5t184 274t280 180.5t348.5 66q248 0 453 -112.5t323.5 -310.5t118.5 -438q0 -179 -70 -340t-189 -277.5t-285 -184.5t-351 -68zM999 88q177 0 313 82t207.5 220.5t71.5 309.5t-71.5 307.5
t-207.5 216t-313 79.5t-311 -79.5t-204 -216t-70 -307.5q0 -128 41 -240t115.5 -194.5t185 -130t243.5 -47.5zM1014 260q-196 0 -323.5 123.5t-127.5 323.5q0 197 129.5 318.5t323.5 121.5q145 0 249.5 -69.5t147.5 -180.5l-274 -94q-42 133 -138 133q-69 0 -106 -57.5
t-37 -171.5q0 -116 37.5 -175t105.5 -59q104 0 146 143l280 -90q-48 -122 -157.5 -194t-255.5 -72z" />
    <glyph glyph-name="ordfeminine" unicode="&#xaa;" horiz-adv-x="1140" 
d="M434 582q-146 0 -221.5 100.5t-75.5 265.5q0 75 17 149t51.5 140t82 116.5t112.5 80.5t139 30q108 0 174 -50t98 -122q17 103 27 142h405l-174 -822h-403q20 104 22 111q-42 -60 -107.5 -100.5t-146.5 -40.5zM637 823q55 0 96 84t41 187q0 135 -76 135q-52 0 -90.5 -81
t-38.5 -185q0 -140 68 -140z" />
    <glyph glyph-name="guillemotleft" unicode="&#xab;" horiz-adv-x="1478" 
d="M408 1034h466l-401 -555l201 -479h-412l-207 516zM1075 1034h467l-467 -624l185 -410h-412l-193 446z" />
    <glyph glyph-name="logicalnot" unicode="&#xac;" horiz-adv-x="1298" 
d="M1190 291h-356v268h-705v348h1061v-616z" />
    <glyph glyph-name="uni00AD" unicode="&#xad;" horiz-adv-x="1064" 
d="M969 467h-895l78 369h895z" />
    <glyph glyph-name="registered" unicode="&#xae;" horiz-adv-x="1167" 
d="M694 549q-120 0 -219 41.5t-163.5 111.5t-100 161.5t-35.5 193.5q0 137 59.5 250t179 183.5t279.5 70.5q120 0 219.5 -40.5t164.5 -110t100.5 -160.5t35.5 -193t-35.5 -193.5t-100.5 -161.5t-164.5 -111.5t-219.5 -41.5zM694 705q111 0 190.5 51t115.5 129t36 172
q0 147 -89 247.5t-253 100.5t-253 -100.5t-89 -247.5q0 -94 36 -172t115.5 -129t190.5 -51zM655 825h-151v459h231q82 0 125 -33.5t43 -87.5q0 -52 -38 -83t-95 -38q62 -7 86 -29.5t33 -80.5l18 -107h-157l-15 119q-3 30 -15.5 40.5t-39.5 10.5h-25v-170zM655 1165v-69h58
q41 0 41 34q0 35 -41 35h-58z" />
    <glyph glyph-name="macron" unicode="&#xaf;" horiz-adv-x="770" 
d="M881 1180h-709l53 254h709z" />
    <glyph glyph-name="degree" unicode="&#xb0;" horiz-adv-x="1003" 
d="M643 762q-211 0 -341 126t-130 320t133 322.5t338 128.5q206 0 340.5 -128.5t134.5 -322.5q0 -197 -131.5 -321.5t-343.5 -124.5zM645 1053q63 0 108.5 44t45.5 115q0 68 -46 112t-108 44q-61 0 -107 -44t-46 -112q0 -72 44.5 -115.5t108.5 -43.5z" />
    <glyph glyph-name="plusminus" unicode="&#xb1;" horiz-adv-x="1349" 
d="M866 508h-356v194h-352v308h352v245h356v-245h353v-308h-353v-194zM1219 109h-1061v307h1061v-307z" />
    <glyph glyph-name="uni00B2" unicode="&#xb2;" horiz-adv-x="872" 
d="M858 825h-684l57 267q229 69 331 131.5t102 134.5q0 25 -14.5 39t-35.5 14q-34 0 -54 -31.5t-23 -85.5l-301 29q5 38 18 76.5t42.5 83.5t70.5 78.5t108 56t150 22.5q155 0 246.5 -66.5t91.5 -174.5q0 -116 -95 -205q-79 -73 -282 -137h239h82z" />
    <glyph glyph-name="uni00B3" unicode="&#xb3;" horiz-adv-x="856" 
d="M539 805q-168 0 -260.5 65t-100.5 179l295 47q1 -29 20.5 -46.5t49.5 -17.5q28 0 46.5 14.5t18.5 38.5q0 22 -17 35t-46 13h-70l39 184h74q31 0 50 15t19 40q0 19 -14 31t-37 12q-56 0 -67 -61l-287 39q28 118 126.5 182.5t250.5 64.5q140 0 224.5 -56t84.5 -150
q0 -77 -54 -133.5t-147 -73.5q158 -43 158 -174q0 -114 -97 -181t-259 -67z" />
    <glyph glyph-name="acute" unicode="&#xb4;" horiz-adv-x="628" 
d="M487 1159h-309l168 316h475z" />
    <glyph glyph-name="uni00B5" unicode="&#xb5;" horiz-adv-x="1482" 
d="M645 -399h-491v1433h501v-618q0 -48 25.5 -75.5t64.5 -27.5q38 0 61 27.5t23 75.5v618h492v-1034h-467v178q-54 -101 -149 -160q-22 -15 -60 -30v-387z" />
    <glyph glyph-name="paragraph" unicode="&#xb6;" horiz-adv-x="1966" 
d="M889 1434h1200l-78 -369h-205l-311 -1464h-387l311 1464h-162l-311 -1464h-385l131 614h-51q-249 0 -394 137.5t-145 356.5q0 212 102.5 378t281.5 256.5t403 90.5z" />
    <glyph glyph-name="periodcentered" unicode="&#xb7;" horiz-adv-x="663" 
d="M592 575h-502l94 439h502z" />
    <glyph glyph-name="cedilla" unicode="&#xb8;" horiz-adv-x="692" 
d="M152 -481q-61 0 -114.5 15t-89.5 38.5t-56.5 41.5t-34.5 36l166 151q13 -22 44.5 -44.5t71.5 -22.5q78 0 78 45q0 16 -15.5 27.5t-41.5 11.5t-47 -6l-47 127l374 139l80 -78l-92 -33l-152 -55q43 -5 89 -29q41 -24 64.5 -61t23.5 -80q0 -105 -80 -164t-221 -59z" />
    <glyph glyph-name="uni00B9" unicode="&#xb9;" horiz-adv-x="710" 
d="M676 825h-309l63 299q6 30 19.5 90t19.5 89q-50 -87 -122.5 -125.5t-149.5 -36.5l67 313q103 2 171.5 42t111.5 124h297z" />
    <glyph glyph-name="ordmasculine" unicode="&#xba;" horiz-adv-x="1105" 
d="M625 582q-230 0 -363 100t-133 268q0 233 158 373.5t403 140.5q232 0 364 -105t132 -288q0 -217 -159.5 -353t-401.5 -136zM633 844q60 0 97.5 77.5t37.5 174.5q0 137 -86 137q-59 0 -96 -80.5t-37 -191.5q0 -117 84 -117z" />
    <glyph glyph-name="guillemotright" unicode="&#xbb;" horiz-adv-x="1478" 
d="M219 1034h412l192 -446l-420 -588h-466l466 625zM805 1034h412l206 -516l-352 -518h-467l402 555z" />
    <glyph glyph-name="onequarter" unicode="&#xbc;" horiz-adv-x="2056" 
d="M618 639h-309l64 299q6 29 19.5 88.5t19.5 89.5q-50 -87 -123 -125.5t-150 -36.5l68 314q103 2 171 41.5t111 124.5h297zM528 0h-354l1301 1434h352zM1790 0h-283l29 135h-403l51 230l383 430h391l-94 -447h108l-45 -213h-108zM1556 348h25l8 41l33 150l-170 -191h104z
" />
    <glyph glyph-name="onehalf" unicode="&#xbd;" horiz-adv-x="1996" 
d="M618 639h-309l64 299q6 29 19.5 88.5t19.5 89.5q-50 -87 -123 -125.5t-150 -36.5l68 314q103 2 171 41.5t111 124.5h297zM528 0h-354l1301 1434h352zM1833 0h-684l57 266q229 69 330.5 131.5t101.5 134.5q0 25 -14 39.5t-35 14.5q-34 0 -54.5 -31.5t-23.5 -85.5l-301 29
q5 38 18 76.5t42.5 83.5t70.5 78.5t108 56t150 22.5q155 0 246.5 -67t91.5 -175q0 -116 -94 -204q-80 -74 -282 -138h239h82z" />
    <glyph glyph-name="threequarters" unicode="&#xbe;" horiz-adv-x="2179" 
d="M479 618q-167 0 -259.5 64.5t-100.5 179.5l295 47q1 -29 20 -46t49 -17q28 0 47 14.5t19 38.5q0 22 -17.5 34.5t-46.5 12.5h-69l39 184h73q31 0 50.5 15.5t19.5 40.5q0 19 -14 31t-37 12q-56 0 -68 -62l-286 39q28 119 126 183.5t250 64.5q140 0 225 -56.5t85 -150.5
q0 -77 -54 -133.5t-147 -73.5q158 -43 158 -174q0 -114 -97.5 -181t-259.5 -67zM651 0h-354l1300 1434h353zM1913 0h-283l29 135h-404l52 230l383 430h391l-94 -447h108l-45 -213h-108zM1679 348h25l8 41l33 150l-170 -191h104z" />
    <glyph glyph-name="questiondown" unicode="&#xbf;" horiz-adv-x="1386" 
d="M612 1274h502l-92 -438h-502zM526 713h447q-11 -63 -23.5 -102t-41 -84t-80 -82.5t-132.5 -73.5q-102 -47 -136 -74t-34 -61t25 -54t76 -20q128 0 139 164l522 -70q-8 -54 -27.5 -104.5t-54.5 -103t-90 -95.5t-128 -77.5t-176.5 -53.5t-227.5 -19q-297 0 -450.5 103
t-153.5 264q0 56 17.5 105t44 84t68.5 67.5t80.5 54t90.5 45.5q112 51 158.5 78t62.5 48.5t24 60.5z" />
    <glyph glyph-name="Agrave" unicode="&#xc0;" horiz-adv-x="1611" 
d="M1145 1874l39 -315h-340l-223 315h524zM1518 0h-523l-10 223h-448l-109 -223h-553l766 1434h719zM756 668l-37 -76h248l-4 88q-11 241 -15 393q-150 -319 -192 -405z" />
    <glyph glyph-name="Aacute" unicode="&#xc1;" horiz-adv-x="1611" 
d="M1026 1874h522l-366 -315h-340zM-125 0l766 1434h719l158 -1434h-523l-10 223h-448l-109 -223h-553zM756 668l-37 -76h248l-4 88q-11 241 -15 393q-150 -319 -192 -405z" />
    <glyph glyph-name="Acircumflex" unicode="&#xc2;" horiz-adv-x="1611" 
d="M1157 1559l-96 151l-162 -151h-422l330 315h563l189 -315h-402zM-125 0l766 1434h719l158 -1434h-523l-10 223h-448l-109 -223h-553zM756 668l-37 -76h248l-4 88q-11 241 -15 393q-150 -319 -192 -405z" />
    <glyph glyph-name="Atilde" unicode="&#xc3;" horiz-adv-x="1611" 
d="M901 1657q-36 0 -61.5 -27.5t-34.5 -73.5h-275q21 158 107.5 249t226.5 91q52 0 97.5 -11.5t64.5 -21.5t49 -28l45 -29q51 -28 88 -28q36 0 62 26.5t35 71.5h272q-21 -156 -109.5 -248t-228.5 -92q-55 0 -99 11.5t-61 20.5t-47 29l-45 27q-6 3 -16 9t-16 9.5t-15 7.5
t-18.5 5.5t-20.5 1.5zM-125 0l766 1434h719l158 -1434h-523l-10 223h-448l-109 -223h-553zM756 668l-37 -76h248l-4 88q-11 241 -15 393q-150 -319 -192 -405z" />
    <glyph glyph-name="Adieresis" unicode="&#xc4;" horiz-adv-x="1611" 
d="M586 1874h444l-72 -315h-444zM1094 1559l71 315h445l-72 -315h-444zM-125 0l766 1434h719l158 -1434h-523l-10 223h-448l-109 -223h-553zM756 668l-37 -76h248l-4 88q-11 241 -15 393q-150 -319 -192 -405z" />
    <glyph glyph-name="Aring" unicode="&#xc5;" horiz-adv-x="1611" 
d="M1038 1507q-84 0 -150.5 24.5t-107 66.5t-61.5 94t-21 110q0 67 26 131t73 116t120 84t160 32q164 0 249 -85.5t85 -211.5q0 -89 -42.5 -170t-130 -136t-200.5 -55zM1071 1933q-50 0 -80 -29.5t-30 -80.5q0 -36 23 -59t63 -23q48 0 78 30.5t30 79.5q0 36 -22.5 59
t-61.5 23zM1518 0h-523l-10 223h-448l-109 -223h-553l766 1434h719zM756 668l-37 -76h248l-4 88q-11 241 -15 393q-150 -319 -192 -405z" />
    <glyph glyph-name="AE" unicode="&#xc6;" horiz-adv-x="2129" 
d="M2247 1434l-84 -400h-641l-31 -143h522l-71 -342h-523l-33 -150h642l-84 -399h-1078l52 246h-338l-146 -246h-588l928 1434h1473zM995 614l35 162l74 346q-163 -262 -277 -454l-30 -54h198z" />
    <glyph glyph-name="Ccedilla" unicode="&#xc7;" horiz-adv-x="1652" 
d="M823 371q87 0 154 58.5t119 184.5l544 -186q-172 -390 -634 -453l-31 -12l-168 -59q51 -8 96 -33t71.5 -66t26.5 -90q0 -116 -87.5 -180.5t-243.5 -64.5q-66 0 -125 16.5t-98.5 42t-63 46.5t-37.5 40l182 166q13 -24 47.5 -49t79.5 -25q86 0 86 49q0 18 -16.5 30.5
t-46.5 12.5q-27 0 -51 -6l-52 139l105 39q-285 35 -439.5 197t-154.5 410q0 189 61 352t171.5 283t275.5 188.5t364 68.5q159 0 294 -41.5t227.5 -112.5t150 -163t74.5 -197l-576 -125q-29 230 -200 230q-67 0 -121.5 -41t-88 -106.5t-51.5 -142.5t-18 -155
q0 -118 46 -181.5t128 -63.5z" />
    <glyph glyph-name="Egrave" unicode="&#xc8;" horiz-adv-x="1331" 
d="M1055 1559h-340l-223 315h524zM1145 0h-1153l303 1434h1153l-84 -396h-647l-31 -143h528l-73 -348h-529l-30 -150h647z" />
    <glyph glyph-name="Eacute" unicode="&#xc9;" horiz-adv-x="1331" 
d="M1053 1559h-340l184 315h522zM1145 0h-1153l303 1434h1153l-84 -396h-647l-31 -143h528l-73 -348h-529l-30 -150h647z" />
    <glyph glyph-name="Ecircumflex" unicode="&#xca;" horiz-adv-x="1331" 
d="M770 1559h-422l330 315h563l189 -315h-402l-96 151zM1145 0h-1153l303 1434h1153l-84 -396h-647l-31 -143h528l-73 -348h-529l-30 -150h647z" />
    <glyph glyph-name="Edieresis" unicode="&#xcb;" horiz-adv-x="1331" 
d="M829 1559h-444l72 315h444zM1409 1559h-444l71 315h445zM1145 0h-1153l303 1434h1153l-84 -396h-647l-31 -143h528l-73 -348h-529l-30 -150h647z" />
    <glyph glyph-name="Igrave" unicode="&#xcc;" horiz-adv-x="741" 
d="M752 1559h-340l-224 315h525zM530 0h-538l303 1434h539z" />
    <glyph glyph-name="Iacute" unicode="&#xcd;" horiz-adv-x="741" 
d="M750 1559h-340l184 315h522zM530 0h-538l303 1434h539z" />
    <glyph glyph-name="Icircumflex" unicode="&#xce;" horiz-adv-x="741" 
d="M463 1559h-422l330 315h563l188 -315h-401l-96 151zM530 0h-538l303 1434h539z" />
    <glyph glyph-name="Idieresis" unicode="&#xcf;" horiz-adv-x="741" 
d="M522 1559h-444l72 315h444zM1102 1559h-445l72 315h445zM530 0h-538l303 1434h539z" />
    <glyph glyph-name="Eth" unicode="&#xd0;" horiz-adv-x="1640" 
d="M336 1434h596q326 0 516 -161.5t190 -430.5q0 -179 -63.5 -335t-176.5 -267.5t-275.5 -175.5t-352.5 -64h-737l121 567h-121l61 297h121zM643 403h107q98 0 174.5 55.5t115.5 143t39 189.5q0 108 -59 175.5t-178 67.5h-64l-37 -170h187l-62 -297h-188z" />
    <glyph glyph-name="Ntilde" unicode="&#xd1;" horiz-adv-x="1726" 
d="M1292 1536q-55 0 -99 11.5t-61 20.5t-47 29l-45 27q-6 3 -16 9t-16 9.5t-15 7.5t-18.5 5.5t-20.5 1.5q-36 0 -61.5 -27.5t-34.5 -73.5h-274q21 158 107.5 249t226.5 91q52 0 97 -11.5t63.5 -21t49.5 -28.5l46 -29q51 -28 88 -28q36 0 61.5 26.5t34.5 71.5h272
q-21 -156 -109.5 -248t-228.5 -92zM487 0h-495l303 1434h663l211 -727q48 227 80 376l74 351h496l-303 -1434h-566l-270 907q-28 -125 -88 -409z" />
    <glyph glyph-name="Ograve" unicode="&#xd2;" horiz-adv-x="1775" 
d="M1227 1559h-340l-223 315h524zM872 -37q-193 0 -343 47.5t-245 135t-143.5 206.5t-48.5 266q0 184 64 341.5t179 270t283 176.5t369 64q194 0 343.5 -47.5t244.5 -134.5t143.5 -205.5t48.5 -265.5q0 -184 -64 -341.5t-179 -271t-283 -177.5t-369 -64zM889 371
q98 0 169.5 63t105.5 162t34 219t-57 185t-170 65q-98 0 -169 -63.5t-104.5 -162t-33.5 -218.5t56 -185t169 -65z" />
    <glyph glyph-name="Oacute" unicode="&#xd3;" horiz-adv-x="1775" 
d="M1225 1559h-340l184 315h522zM872 -37q-193 0 -343 47.5t-245 135t-143.5 206.5t-48.5 266q0 184 64 341.5t179 270t283 176.5t369 64q194 0 343.5 -47.5t244.5 -134.5t143.5 -205.5t48.5 -265.5q0 -184 -64 -341.5t-179 -271t-283 -177.5t-369 -64zM889 371
q98 0 169.5 63t105.5 162t34 219t-57 185t-170 65q-98 0 -169 -63.5t-104.5 -162t-33.5 -218.5t56 -185t169 -65z" />
    <glyph glyph-name="Ocircumflex" unicode="&#xd4;" horiz-adv-x="1775" 
d="M942 1559h-422l330 315h563l189 -315h-402l-96 151zM872 -37q-193 0 -343 47.5t-245 135t-143.5 206.5t-48.5 266q0 184 64 341.5t179 270t283 176.5t369 64q194 0 343.5 -47.5t244.5 -134.5t143.5 -205.5t48.5 -265.5q0 -184 -64 -341.5t-179 -271t-283 -177.5t-369 -64
zM889 371q98 0 169.5 63t105.5 162t34 219t-57 185t-170 65q-98 0 -169 -63.5t-104.5 -162t-33.5 -218.5t56 -185t169 -65z" />
    <glyph glyph-name="Otilde" unicode="&#xd5;" horiz-adv-x="1775" 
d="M1282 1536q-55 0 -99 11.5t-61 20.5t-47 29l-45 27q-6 3 -16 9t-16 9.5t-15 7.5t-18.5 5.5t-20.5 1.5q-36 0 -61.5 -27.5t-34.5 -73.5h-275q21 158 107.5 249t226.5 91q52 0 97.5 -11.5t64.5 -21.5t49 -28l45 -29q51 -28 88 -28q36 0 62 26.5t35 71.5h272
q-21 -156 -109.5 -248t-228.5 -92zM872 -37q-193 0 -343 47.5t-245 135t-143.5 206.5t-48.5 266q0 184 64 341.5t179 270t283 176.5t369 64q194 0 343.5 -47.5t244.5 -134.5t143.5 -205.5t48.5 -265.5q0 -184 -64 -341.5t-179 -271t-283 -177.5t-369 -64zM889 371
q98 0 169.5 63t105.5 162t34 219t-57 185t-170 65q-98 0 -169 -63.5t-104.5 -162t-33.5 -218.5t56 -185t169 -65z" />
    <glyph glyph-name="Odieresis" unicode="&#xd6;" horiz-adv-x="1775" 
d="M1001 1559h-444l72 315h444zM1581 1559h-444l71 315h445zM872 -37q-193 0 -343 47.5t-245 135t-143.5 206.5t-48.5 266q0 184 64 341.5t179 270t283 176.5t369 64q194 0 343.5 -47.5t244.5 -134.5t143.5 -205.5t48.5 -265.5q0 -184 -64 -341.5t-179 -271t-283 -177.5
t-369 -64zM889 371q98 0 169.5 63t105.5 162t34 219t-57 185t-170 65q-98 0 -169 -63.5t-104.5 -162t-33.5 -218.5t56 -185t169 -65z" />
    <glyph glyph-name="multiply" unicode="&#xd7;" horiz-adv-x="1355" 
d="M715 461l-328 -322l-242 242l326 317l-328 322l246 240l328 -322l325 317l242 -235l-326 -320l326 -321l-244 -240z" />
    <glyph glyph-name="Oslash" unicode="&#xd8;" horiz-adv-x="1779" 
d="M360 90l-184 -139l-190 248l168 127q-60 135 -60 292q0 184 64 342t179 271t283 177.5t369 64.5q310 0 514 -125l189 143l186 -254l-168 -127q59 -124 59 -293q0 -184 -64 -341.5t-179 -271t-283 -177.5t-369 -64q-317 0 -514 127zM670 717l190 145l221 168
q-53 29 -129 29q-106 0 -174 -71.5t-94 -190.5q-7 -29 -14 -80zM895 352q111 0 187.5 76t107.5 197q11 48 14 104l-139 -106l-309 -234q60 -37 139 -37z" />
    <glyph glyph-name="Ugrave" unicode="&#xd9;" horiz-adv-x="1593" 
d="M1180 1559h-340l-224 315h525zM729 -37q-373 0 -530.5 172.5t-89.5 495.5l170 803h530l-158 -750q-33 -160 -7 -226.5t122 -66.5q94 0 151.5 71.5t88.5 221.5l157 750h537l-170 -803q-74 -353 -260 -510.5t-541 -157.5z" />
    <glyph glyph-name="Uacute" unicode="&#xda;" horiz-adv-x="1593" 
d="M1178 1559h-340l184 315h522zM729 -37q-373 0 -530.5 172.5t-89.5 495.5l170 803h530l-158 -750q-33 -160 -7 -226.5t122 -66.5q94 0 151.5 71.5t88.5 221.5l157 750h537l-170 -803q-74 -353 -260 -510.5t-541 -157.5z" />
    <glyph glyph-name="Ucircumflex" unicode="&#xdb;" horiz-adv-x="1593" 
d="M874 1559h-421l329 315h564l188 -315h-401l-97 151zM729 -37q-373 0 -530.5 172.5t-89.5 495.5l170 803h530l-158 -750q-33 -160 -7 -226.5t122 -66.5q94 0 151.5 71.5t88.5 221.5l157 750h537l-170 -803q-74 -353 -260 -510.5t-541 -157.5z" />
    <glyph glyph-name="Udieresis" unicode="&#xdc;" horiz-adv-x="1593" 
d="M934 1559h-445l72 315h445zM1513 1559h-444l72 315h444zM729 -37q-373 0 -530.5 172.5t-89.5 495.5l170 803h530l-158 -750q-33 -160 -7 -226.5t122 -66.5q94 0 151.5 71.5t88.5 221.5l157 750h537l-170 -803q-74 -353 -260 -510.5t-541 -157.5z" />
    <glyph glyph-name="Yacute" unicode="&#xdd;" horiz-adv-x="1519" 
d="M1130 1559h-339l184 315h522zM915 0h-538l112 524l-319 910h539l26 -97l105 -381q140 208 260 383l65 95h576l-715 -918z" />
    <glyph glyph-name="Thorn" unicode="&#xde;" horiz-adv-x="1478" 
d="M791 1227h178q83 0 158 -16.5t140.5 -51.5t113 -85.5t75 -123t27.5 -159.5q0 -117 -44 -223t-123.5 -185.5t-198 -126.5t-259.5 -47h-283l-45 -209h-538l303 1434h539zM653 578h154q73 0 116.5 45t43.5 104q0 111 -138 111h-122z" />
    <glyph glyph-name="germandbls" unicode="&#xdf;" horiz-adv-x="1357" 
d="M784 -37q-135 0 -243 33l80 377q50 -15 79 -15q60 0 98 34t38 87q0 40 -30.5 67t-82.5 27h-59l65 310h29q72 0 112.5 33t40.5 83q0 38 -27.5 64.5t-78.5 26.5q-65 0 -101.5 -43t-58.5 -142l-192 -905h-488l189 889q22 103 52 183t83 157.5t124 128t177.5 81.5t240.5 31
q113 0 204 -22.5t149 -58.5t97 -84.5t55 -98.5t16 -102q0 -141 -97 -243.5t-237 -133.5q45 -10 90 -33.5t87 -61.5t68.5 -98t26.5 -131q0 -196 -145 -318t-361 -122z" />
    <glyph glyph-name="agrave" unicode="&#xe0;" horiz-adv-x="1310" 
d="M913 1159h-309l-203 316h476zM350 -37q-153 0 -247.5 75.5t-94.5 199.5q0 68 25.5 126.5t83 110t144 89t214 62t287.5 31.5l6 27q12 50 -12 78.5t-78 28.5q-101 0 -127 -115l-485 51q18 70 65.5 130.5t124 109t192 76.5t257.5 28q277 0 411.5 -124.5t85.5 -350.5
l-43 -201q-8 -35 1.5 -51t43.5 -16h58l-70 -328h-231q-231 0 -234 154q-142 -191 -377 -191zM551 252q55 0 97.5 37.5t60.5 118.5l12 57q-104 -6 -172 -44t-68 -104q0 -29 18 -47t52 -18z" />
    <glyph glyph-name="aacute" unicode="&#xe1;" horiz-adv-x="1310" 
d="M907 1159h-309l168 316h475zM350 -37q-153 0 -247.5 75.5t-94.5 199.5q0 68 25.5 126.5t83 110t144 89t214 62t287.5 31.5l6 27q12 50 -12 78.5t-78 28.5q-101 0 -127 -115l-485 51q18 70 65.5 130.5t124 109t192 76.5t257.5 28q277 0 411.5 -124.5t85.5 -350.5l-43 -201
q-8 -35 1.5 -51t43.5 -16h58l-70 -328h-231q-231 0 -234 154q-142 -191 -377 -191zM551 252q55 0 97.5 37.5t60.5 118.5l12 57q-104 -6 -172 -44t-68 -104q0 -29 18 -47t52 -18z" />
    <glyph glyph-name="acircumflex" unicode="&#xe2;" horiz-adv-x="1310" 
d="M643 1159h-385l301 316h512l170 -316h-364l-89 152zM350 -37q-153 0 -247.5 75.5t-94.5 199.5q0 68 25.5 126.5t83 110t144 89t214 62t287.5 31.5l6 27q12 50 -12 78.5t-78 28.5q-101 0 -127 -115l-485 51q18 70 65.5 130.5t124 109t192 76.5t257.5 28
q277 0 411.5 -124.5t85.5 -350.5l-43 -201q-8 -35 1.5 -51t43.5 -16h58l-70 -328h-231q-231 0 -234 154q-142 -191 -377 -191zM551 252q55 0 97.5 37.5t60.5 118.5l12 57q-104 -6 -172 -44t-68 -104q0 -29 18 -47t52 -18z" />
    <glyph glyph-name="atilde" unicode="&#xe3;" horiz-adv-x="1310" 
d="M950 1139q-53 0 -96.5 11.5t-58 19.5t-45.5 28l-43 27q-4 2 -19 11t-21 11.5t-18.5 6t-25.5 3.5q-35 0 -60.5 -26.5t-34.5 -71.5h-264q19 155 103.5 245.5t220.5 90.5q50 0 93.5 -11.5t62.5 -21.5t47 -28l45 -29q49 -29 84 -29t60 27t34 72h262q-19 -154 -104.5 -245
t-221.5 -91zM350 -37q-153 0 -247.5 75.5t-94.5 199.5q0 68 25.5 126.5t83 110t144 89t214 62t287.5 31.5l6 27q12 50 -12 78.5t-78 28.5q-101 0 -127 -115l-485 51q18 70 65.5 130.5t124 109t192 76.5t257.5 28q277 0 411.5 -124.5t85.5 -350.5l-43 -201q-8 -35 1.5 -51
t43.5 -16h58l-70 -328h-231q-231 0 -234 154q-142 -191 -377 -191zM551 252q55 0 97.5 37.5t60.5 118.5l12 57q-104 -6 -172 -44t-68 -104q0 -29 18 -47t52 -18z" />
    <glyph glyph-name="adieresis" unicode="&#xe4;" horiz-adv-x="1310" 
d="M696 1159h-403l65 316h404zM1223 1159h-404l66 316h403zM350 -37q-153 0 -247.5 75.5t-94.5 199.5q0 68 25.5 126.5t83 110t144 89t214 62t287.5 31.5l6 27q12 50 -12 78.5t-78 28.5q-101 0 -127 -115l-485 51q18 70 65.5 130.5t124 109t192 76.5t257.5 28
q277 0 411.5 -124.5t85.5 -350.5l-43 -201q-8 -35 1.5 -51t43.5 -16h58l-70 -328h-231q-231 0 -234 154q-142 -191 -377 -191zM551 252q55 0 97.5 37.5t60.5 118.5l12 57q-104 -6 -172 -44t-68 -104q0 -29 18 -47t52 -18z" />
    <glyph glyph-name="aring" unicode="&#xe5;" horiz-adv-x="1310" 
d="M760 1118q-142 0 -217.5 74t-75.5 180q0 122 90.5 218t237.5 96q141 0 214.5 -74t73.5 -182q0 -77 -36.5 -147t-112 -117.5t-174.5 -47.5zM768 1319q41 0 67.5 26.5t26.5 69.5q0 31 -19.5 50.5t-54.5 19.5q-42 0 -68 -26t-26 -68q0 -32 20 -52t54 -20zM350 -37
q-153 0 -247.5 75.5t-94.5 199.5q0 68 25.5 126.5t83 110t144 89t214 62t287.5 31.5l6 27q12 50 -12 78.5t-78 28.5q-101 0 -127 -115l-485 51q18 70 65.5 130.5t124 109t192 76.5t257.5 28q277 0 411.5 -124.5t85.5 -350.5l-43 -201q-8 -35 1.5 -51t43.5 -16h58l-70 -328
h-231q-231 0 -234 154q-142 -191 -377 -191zM551 252q55 0 97.5 37.5t60.5 118.5l12 57q-104 -6 -172 -44t-68 -104q0 -29 18 -47t52 -18z" />
    <glyph glyph-name="ae" unicode="&#xe6;" horiz-adv-x="1951" 
d="M387 -37q-182 0 -288.5 70t-106.5 200q0 81 42.5 151.5t129.5 129t235 96.5t344 47l7 33q8 45 -17 73t-78 28q-106 0 -151 -117l-430 49q50 155 191.5 251.5t373.5 96.5q132 0 234.5 -36.5t158.5 -108.5q138 145 387 145q137 0 245 -47t169.5 -130.5t79.5 -199
t-25 -252.5h-696q-14 -86 2 -130t82 -44q54 0 92 31t72 90l432 -110q-31 -65 -81 -119.5t-121.5 -99.5t-171.5 -71t-218 -26q-137 0 -257 44.5t-181 125.5q-70 -76 -186 -123t-269 -47zM1231 637h235q17 66 -8.5 107.5t-81.5 41.5q-108 0 -145 -149zM528 252q128 0 162 156
l12 57q-106 -10 -172.5 -48t-66.5 -106q0 -27 17.5 -43t47.5 -16z" />
    <glyph glyph-name="ccedilla" unicode="&#xe7;" horiz-adv-x="1271" 
d="M608 272q51 0 92 46.5t62 132.5l469 -68q-18 -69 -53 -131t-91 -120t-143 -100t-196 -59l-19 -6l-151 -55q42 -5 88 -29q41 -24 64.5 -61t23.5 -80q0 -105 -80 -164t-221 -59q-61 0 -114.5 15t-89.5 38.5t-56.5 41.5t-34.5 36l166 151q13 -22 44.5 -44.5t71.5 -22.5
q78 0 78 45q0 16 -15.5 27.5t-41.5 11.5t-47 -6l-47 127l92 34q-204 30 -316 144t-112 303q0 187 84.5 335.5t237 232t345.5 83.5q250 0 399 -119t160 -299l-471 -69q0 73 -25 125.5t-83 52.5q-42 0 -75 -34.5t-51 -89t-27 -112t-9 -112.5q0 -69 24 -105.5t68 -36.5z" />
    <glyph glyph-name="egrave" unicode="&#xe8;" horiz-adv-x="1259" 
d="M913 1159h-309l-203 316h476zM578 -37q-254 0 -400.5 121t-146.5 334q0 287 184 470t485 183q143 0 254.5 -47t174.5 -132t81.5 -202t-24.5 -258h-697q-7 -46 -6.5 -82.5t22.5 -59t66 -22.5q50 0 91 34.5t69 86.5l457 -110q-32 -65 -83.5 -119.5t-124.5 -99.5t-176.5 -71
t-225.5 -26zM528 637h230q17 69 -8 109t-80 40q-105 0 -142 -149z" />
    <glyph glyph-name="eacute" unicode="&#xe9;" horiz-adv-x="1259" 
d="M907 1159h-309l168 316h475zM578 -37q-254 0 -400.5 121t-146.5 334q0 287 184 470t485 183q143 0 254.5 -47t174.5 -132t81.5 -202t-24.5 -258h-697q-7 -46 -6.5 -82.5t22.5 -59t66 -22.5q50 0 91 34.5t69 86.5l457 -110q-32 -65 -83.5 -119.5t-124.5 -99.5t-176.5 -71
t-225.5 -26zM528 637h230q17 69 -8 109t-80 40q-105 0 -142 -149z" />
    <glyph glyph-name="ecircumflex" unicode="&#xea;" horiz-adv-x="1259" 
d="M643 1159h-385l301 316h512l170 -316h-364l-89 152zM578 -37q-254 0 -400.5 121t-146.5 334q0 287 184 470t485 183q143 0 254.5 -47t174.5 -132t81.5 -202t-24.5 -258h-697q-7 -46 -6.5 -82.5t22.5 -59t66 -22.5q50 0 91 34.5t69 86.5l457 -110q-32 -65 -83.5 -119.5
t-124.5 -99.5t-176.5 -71t-225.5 -26zM528 637h230q17 69 -8 109t-80 40q-105 0 -142 -149z" />
    <glyph glyph-name="edieresis" unicode="&#xeb;" horiz-adv-x="1259" 
d="M696 1159h-403l65 316h404zM1223 1159h-404l66 316h403zM578 -37q-254 0 -400.5 121t-146.5 334q0 287 184 470t485 183q143 0 254.5 -47t174.5 -132t81.5 -202t-24.5 -258h-697q-7 -46 -6.5 -82.5t22.5 -59t66 -22.5q50 0 91 34.5t69 86.5l457 -110
q-32 -65 -83.5 -119.5t-124.5 -99.5t-176.5 -71t-225.5 -26zM528 637h230q17 69 -8 109t-80 40q-105 0 -142 -149z" />
    <glyph glyph-name="igrave" unicode="&#xec;" horiz-adv-x="647" 
d="M618 1159h-309l-203 316h476zM461 0h-498l221 1034h498z" />
    <glyph glyph-name="iacute" unicode="&#xed;" horiz-adv-x="647" 
d="M612 1159h-309l168 316h475zM461 0h-498l221 1034h498z" />
    <glyph glyph-name="icircumflex" unicode="&#xee;" horiz-adv-x="647" 
d="M348 1159h-385l301 316h512l170 -316h-364l-88 152zM461 0h-498l221 1034h498z" />
    <glyph glyph-name="idieresis" unicode="&#xef;" horiz-adv-x="647" 
d="M401 1159h-403l65 316h404zM928 1159h-404l66 316h403zM461 0h-498l221 1034h498z" />
    <glyph glyph-name="eth" unicode="&#xf0;" horiz-adv-x="1341" 
d="M1403 1247l-160 -69q79 -146 88 -340q13 -242 -77 -441.5t-269.5 -316.5t-413.5 -117q-80 0 -152 12t-145.5 44.5t-126.5 83.5t-86.5 135t-33.5 192q0 95 33 186.5t95 167t163 122t225 46.5q136 0 231 -51t141 -127q32 158 -38 248l-148 -64l-76 166h-22
q-173 0 -393 -100l79 379q189 70 365 70q217 0 365 -91l239 109zM614 307q82 0 128 64.5t46 140.5q0 72 -36 114t-105 42q-75 0 -123.5 -62t-48.5 -135q0 -75 37 -119.5t102 -44.5z" />
    <glyph glyph-name="ntilde" unicode="&#xf1;" horiz-adv-x="1304" 
d="M987 1139q-53 0 -96.5 11.5t-59 20t-45.5 27.5l-43 27q-4 2 -19 11t-21 11.5t-18.5 6t-25.5 3.5q-35 0 -60 -26.5t-34 -71.5h-264q19 155 103.5 245.5t220.5 90.5q50 0 93.5 -11.5t61.5 -21.5t47 -28l45 -29q49 -29 84 -29t60.5 27t34.5 72h262q-19 -154 -104.5 -245
t-221.5 -91zM461 0h-494l215 1034h477q-17 -83 -36 -168q64 95 153 150t193 55q109 0 185.5 -48.5t108.5 -148t3 -235.5l-136 -639h-493l127 596q13 64 -7.5 94.5t-62.5 30.5q-81 0 -106 -125z" />
    <glyph glyph-name="ograve" unicode="&#xf2;" horiz-adv-x="1357" 
d="M950 1159h-309l-203 316h475zM637 -37q-287 0 -445.5 125t-158.5 346q0 289 191.5 463t498.5 174q285 0 441.5 -130t156.5 -353q0 -191 -86.5 -333.5t-240.5 -217t-357 -74.5zM643 272q50 0 87 53t53 127t16 154t-21 117t-71 37q-48 0 -84 -53t-52 -127t-16 -154
q0 -81 20 -117.5t68 -36.5z" />
    <glyph glyph-name="oacute" unicode="&#xf3;" horiz-adv-x="1357" 
d="M944 1159h-309l168 316h475zM637 -37q-287 0 -445.5 125t-158.5 346q0 289 191.5 463t498.5 174q285 0 441.5 -130t156.5 -353q0 -191 -86.5 -333.5t-240.5 -217t-357 -74.5zM643 272q50 0 87 53t53 127t16 154t-21 117t-71 37q-48 0 -84 -53t-52 -127t-16 -154
q0 -81 20 -117.5t68 -36.5z" />
    <glyph glyph-name="ocircumflex" unicode="&#xf4;" horiz-adv-x="1357" 
d="M680 1159h-385l301 316h512l170 -316h-365l-88 152zM637 -37q-287 0 -445.5 125t-158.5 346q0 289 191.5 463t498.5 174q285 0 441.5 -130t156.5 -353q0 -191 -86.5 -333.5t-240.5 -217t-357 -74.5zM643 272q50 0 87 53t53 127t16 154t-21 117t-71 37q-48 0 -84 -53
t-52 -127t-16 -154q0 -81 20 -117.5t68 -36.5z" />
    <glyph glyph-name="otilde" unicode="&#xf5;" horiz-adv-x="1357" 
d="M987 1139q-53 0 -96.5 11.5t-59 20t-45.5 27.5l-43 27q-4 2 -19 11t-21 11.5t-18.5 6t-25.5 3.5q-35 0 -60 -26.5t-34 -71.5h-264q19 155 103.5 245.5t220.5 90.5q50 0 93.5 -11.5t61.5 -21.5t47 -28l45 -29q49 -29 84 -29t60.5 27t34.5 72h262q-19 -154 -104.5 -245
t-221.5 -91zM637 -37q-287 0 -445.5 125t-158.5 346q0 289 191.5 463t498.5 174q285 0 441.5 -130t156.5 -353q0 -191 -86.5 -333.5t-240.5 -217t-357 -74.5zM643 272q50 0 87 53t53 127t16 154t-21 117t-71 37q-48 0 -84 -53t-52 -127t-16 -154q0 -81 20 -117.5t68 -36.5z
" />
    <glyph glyph-name="odieresis" unicode="&#xf6;" horiz-adv-x="1357" 
d="M733 1159h-403l65 316h404zM1260 1159h-404l66 316h403zM637 -37q-287 0 -445.5 125t-158.5 346q0 289 191.5 463t498.5 174q285 0 441.5 -130t156.5 -353q0 -191 -86.5 -333.5t-240.5 -217t-357 -74.5zM643 272q50 0 87 53t53 127t16 154t-21 117t-71 37q-48 0 -84 -53
t-52 -127t-16 -154q0 -81 20 -117.5t68 -36.5z" />
    <glyph glyph-name="divide" unicode="&#xf7;" horiz-adv-x="1257" 
d="M860 969h-375v342h375v-342zM1223 569h-1102v308h1102v-308zM860 135h-375v342h375v-342z" />
    <glyph glyph-name="oslash" unicode="&#xf8;" horiz-adv-x="1370" 
d="M649 -37q-261 0 -428 107l-149 -97l-146 209l137 86q-24 74 -24 160q0 192 87 338.5t244 225.5t361 79q257 0 414 -108l164 110l143 -211l-149 -100q28 -79 28 -168q0 -191 -87 -335t-241 -220t-354 -76zM553 586l111 71q78 51 131 86q-28 54 -95 54q-50 0 -85 -35
t-50 -98q-10 -40 -12 -78zM651 231q106 0 148 134q8 25 12 81l-125 -81l-123 -80q21 -54 88 -54z" />
    <glyph glyph-name="ugrave" unicode="&#xf9;" horiz-adv-x="1298" 
d="M940 1159h-309l-203 316h475zM299 -37q-67 0 -122.5 22t-97.5 68.5t-55 118t5 170.5l145 692h496l-129 -610q-10 -51 9.5 -81t57.5 -30q85 0 109 111l129 610h485l-215 -1034h-469l31 139q-55 -68 -158 -122t-221 -54z" />
    <glyph glyph-name="uacute" unicode="&#xfa;" horiz-adv-x="1298" 
d="M934 1159h-309l168 316h475zM299 -37q-67 0 -122.5 22t-97.5 68.5t-55 118t5 170.5l145 692h496l-129 -610q-10 -51 9.5 -81t57.5 -30q85 0 109 111l129 610h485l-215 -1034h-469l31 139q-55 -68 -158 -122t-221 -54z" />
    <glyph glyph-name="ucircumflex" unicode="&#xfb;" horiz-adv-x="1298" 
d="M670 1159h-385l301 316h512l170 -316h-365l-88 152zM299 -37q-67 0 -122.5 22t-97.5 68.5t-55 118t5 170.5l145 692h496l-129 -610q-10 -51 9.5 -81t57.5 -30q85 0 109 111l129 610h485l-215 -1034h-469l31 139q-55 -68 -158 -122t-221 -54z" />
    <glyph glyph-name="udieresis" unicode="&#xfc;" horiz-adv-x="1298" 
d="M723 1159h-404l66 316h403zM1249 1159h-403l65 316h404zM299 -37q-67 0 -122.5 22t-97.5 68.5t-55 118t5 170.5l145 692h496l-129 -610q-10 -51 9.5 -81t57.5 -30q85 0 109 111l129 610h485l-215 -1034h-469l31 139q-55 -68 -158 -122t-221 -54z" />
    <glyph glyph-name="yacute" unicode="&#xfd;" horiz-adv-x="1284" 
d="M760 1475h475l-334 -316h-309zM840 887l78 147h491l-608 -1085q-34 -61 -58.5 -100.5t-54 -80t-56.5 -64.5t-62 -46t-74.5 -33t-89 -17.5t-111.5 -6.5h-383l74 348h286q31 0 45.5 11.5t30.5 43.5l35 66l-326 964h490l33 -149q29 -134 84 -334z" />
    <glyph glyph-name="thorn" unicode="&#xfe;" horiz-adv-x="1351" 
d="M373 -399h-492l389 1833h494l-86 -400q-9 -44 -31 -139q54 75 135 125.5t179 50.5q118 0 200 -58.5t119 -152.5t37 -217q0 -127 -34 -248t-95 -217.5t-156.5 -155.5t-208.5 -59q-68 0 -124.5 19t-95.5 51.5t-65 67.5t-44 75q-11 -57 -35 -166zM639 272q64 0 111 98.5
t47 227.5q0 162 -92 162q-66 0 -113 -98t-47 -228q0 -84 22.5 -123t71.5 -39z" />
    <glyph glyph-name="ydieresis" unicode="&#xff;" horiz-adv-x="1284" 
d="M352 1475h404l-66 -316h-403zM879 1475h403l-65 -316h-404zM840 887l78 147h491l-608 -1085q-34 -61 -58.5 -100.5t-54 -80t-56.5 -64.5t-62 -46t-74.5 -33t-89 -17.5t-111.5 -6.5h-383l74 348h286q31 0 45.5 11.5t30.5 43.5l35 66l-326 964h490l33 -149q29 -134 84 -334
z" />
    <glyph glyph-name="Amacron" unicode="&#x100;" horiz-adv-x="1611" 
d="M649 1812h850l-55 -253h-850zM1518 0h-523l-10 223h-448l-109 -223h-553l766 1434h719zM756 668l-37 -76h248l-4 88q-11 241 -15 393q-150 -319 -192 -405z" />
    <glyph glyph-name="amacron" unicode="&#x101;" horiz-adv-x="1310" 
d="M1114 1180h-708l53 254h708zM350 -37q-153 0 -247.5 75.5t-94.5 199.5q0 68 25.5 126.5t83 110t144 89t214 62t287.5 31.5l6 27q12 50 -12 78.5t-78 28.5q-101 0 -127 -115l-485 51q18 70 65.5 130.5t124 109t192 76.5t257.5 28q277 0 411.5 -124.5t85.5 -350.5l-43 -201
q-8 -35 1.5 -51t43.5 -16h58l-70 -328h-231q-231 0 -234 154q-142 -191 -377 -191zM551 252q55 0 97.5 37.5t60.5 118.5l12 57q-104 -6 -172 -44t-68 -104q0 -29 18 -47t52 -18z" />
    <glyph glyph-name="Abreve" unicode="&#x102;" horiz-adv-x="1611" 
d="M1061 1513q-217 0 -335 95.5t-112 267.5h306q0 -62 37.5 -98.5t111.5 -36.5q78 0 132.5 37t80.5 98h315q-120 -363 -536 -363zM-125 0l766 1434h719l158 -1434h-523l-10 223h-448l-109 -223h-553zM756 668l-37 -76h248l-4 88q-11 241 -15 393q-150 -319 -192 -405z" />
    <glyph glyph-name="abreve" unicode="&#x103;" horiz-adv-x="1310" 
d="M786 1130q-197 0 -304 91t-101 254h276q0 -59 35 -94t103 -35q70 0 119.5 35.5t72.5 93.5h287q-108 -345 -488 -345zM350 -37q-153 0 -247.5 75.5t-94.5 199.5q0 68 25.5 126.5t83 110t144 89t214 62t287.5 31.5l6 27q12 50 -12 78.5t-78 28.5q-101 0 -127 -115l-485 51
q18 70 65.5 130.5t124 109t192 76.5t257.5 28q277 0 411.5 -124.5t85.5 -350.5l-43 -201q-8 -35 1.5 -51t43.5 -16h58l-70 -328h-231q-231 0 -234 154q-142 -191 -377 -191zM551 252q55 0 97.5 37.5t60.5 118.5l12 57q-104 -6 -172 -44t-68 -104q0 -29 18 -47t52 -18z" />
    <glyph glyph-name="Aogonek" unicode="&#x104;" horiz-adv-x="1611" 
d="M1227 -129q0 -35 59 -35q84 0 207 47l-59 -276q-115 -56 -242 -56q-109 0 -180.5 48t-71.5 145q0 78 47.5 143.5t132.5 112.5h-125l-10 223h-448l-109 -223h-553l766 1434h719l158 -1434q-80 -20 -137 -38.5t-86 -31.5t-45.5 -25.5t-19.5 -19t-3 -14.5zM756 668l-37 -76
h248l-4 88q-11 241 -15 393q-150 -319 -192 -405z" />
    <glyph glyph-name="aogonek" unicode="&#x105;" horiz-adv-x="1310" 
d="M1262 328l-70 -328q-80 -20 -137 -38.5t-86 -31.5t-45.5 -25.5t-19.5 -19t-3 -14.5q0 -35 60 -35q83 0 206 47l-59 -276q-115 -56 -242 -56q-109 0 -180.5 48t-71.5 145q0 85 57 155t158 119q-99 33 -102 136q-142 -191 -377 -191q-153 0 -247.5 75.5t-94.5 199.5
q0 68 25.5 126.5t83 110t144 89t214 62t287.5 31.5l6 27q12 50 -12 78.5t-78 28.5q-101 0 -127 -115l-485 51q18 70 65.5 130.5t124 109t192 76.5t257.5 28q277 0 411.5 -124.5t85.5 -350.5l-43 -201q-8 -35 1.5 -51t43.5 -16h58zM709 408l12 57q-104 -6 -172 -44t-68 -104
q0 -29 18 -47t52 -18q55 0 97.5 37.5t60.5 118.5z" />
    <glyph glyph-name="Cacute" unicode="&#x106;" horiz-adv-x="1652" 
d="M1200 1559h-340l184 315h523zM827 -37q-352 0 -546.5 167.5t-194.5 447.5q0 189 61 352t171.5 283t275.5 188.5t364 68.5q159 0 294 -41.5t227.5 -112.5t150 -163t74.5 -197l-576 -125q-29 230 -200 230q-67 0 -121.5 -41t-88 -106.5t-51.5 -142.5t-18 -155
q0 -118 46 -181.5t128 -63.5q87 0 154 58.5t119 184.5l544 -186q-98 -219 -298 -342t-515 -123z" />
    <glyph glyph-name="cacute" unicode="&#x107;" horiz-adv-x="1271" 
d="M924 1159h-310l168 316h475zM602 -37q-268 0 -419.5 118t-151.5 339q0 187 84.5 335.5t237 232t345.5 83.5q250 0 399 -119t160 -299l-471 -69q0 73 -25 125.5t-83 52.5q-42 0 -75 -34.5t-51 -89t-27 -112t-9 -112.5q0 -69 24 -105.5t68 -36.5q51 0 92 46.5t62 132.5
l469 -68q-16 -63 -45.5 -119.5t-81 -113t-119 -97t-166.5 -65.5t-217 -25z" />
    <glyph glyph-name="Ccircumflex" unicode="&#x108;" horiz-adv-x="1652" 
d="M918 1559h-422l329 315h564l188 -315h-401l-97 151zM827 -37q-352 0 -546.5 167.5t-194.5 447.5q0 189 61 352t171.5 283t275.5 188.5t364 68.5q159 0 294 -41.5t227.5 -112.5t150 -163t74.5 -197l-576 -125q-29 230 -200 230q-67 0 -121.5 -41t-88 -106.5t-51.5 -142.5
t-18 -155q0 -118 46 -181.5t128 -63.5q87 0 154 58.5t119 184.5l544 -186q-98 -219 -298 -342t-515 -123z" />
    <glyph glyph-name="ccircumflex" unicode="&#x109;" horiz-adv-x="1271" 
d="M659 1159h-385l301 316h512l170 -316h-364l-88 152zM602 -37q-268 0 -419.5 118t-151.5 339q0 187 84.5 335.5t237 232t345.5 83.5q250 0 399 -119t160 -299l-471 -69q0 73 -25 125.5t-83 52.5q-42 0 -75 -34.5t-51 -89t-27 -112t-9 -112.5q0 -69 24 -105.5t68 -36.5
q51 0 92 46.5t62 132.5l469 -68q-16 -63 -45.5 -119.5t-81 -113t-119 -97t-166.5 -65.5t-217 -25z" />
    <glyph glyph-name="Cdotaccent" unicode="&#x10a;" horiz-adv-x="1652" 
d="M1243 1534h-405l77 358h406zM827 -37q-352 0 -546.5 167.5t-194.5 447.5q0 189 61 352t171.5 283t275.5 188.5t364 68.5q159 0 294 -41.5t227.5 -112.5t150 -163t74.5 -197l-576 -125q-29 230 -200 230q-67 0 -121.5 -41t-88 -106.5t-51.5 -142.5t-18 -155
q0 -118 46 -181.5t128 -63.5q87 0 154 58.5t119 184.5l544 -186q-98 -219 -298 -342t-515 -123z" />
    <glyph glyph-name="cdotaccent" unicode="&#x10b;" horiz-adv-x="1271" 
d="M979 1137h-406l78 358h406zM602 -37q-268 0 -419.5 118t-151.5 339q0 187 84.5 335.5t237 232t345.5 83.5q250 0 399 -119t160 -299l-471 -69q0 73 -25 125.5t-83 52.5q-42 0 -75 -34.5t-51 -89t-27 -112t-9 -112.5q0 -69 24 -105.5t68 -36.5q51 0 92 46.5t62 132.5
l469 -68q-16 -63 -45.5 -119.5t-81 -113t-119 -97t-166.5 -65.5t-217 -25z" />
    <glyph glyph-name="Ccaron" unicode="&#x10c;" horiz-adv-x="1652" 
d="M1229 1874h422l-330 -315h-563l-189 315h402l98 -152zM827 -37q-352 0 -546.5 167.5t-194.5 447.5q0 189 61 352t171.5 283t275.5 188.5t364 68.5q159 0 294 -41.5t227.5 -112.5t150 -163t74.5 -197l-576 -125q-29 230 -200 230q-67 0 -121.5 -41t-88 -106.5
t-51.5 -142.5t-18 -155q0 -118 46 -181.5t128 -63.5q87 0 154 58.5t119 184.5l544 -186q-98 -219 -298 -342t-515 -123z" />
    <glyph glyph-name="ccaron" unicode="&#x10d;" horiz-adv-x="1271" 
d="M1032 1159h-512l-170 316h365l82 -172l151 172h385zM602 -37q-268 0 -419.5 118t-151.5 339q0 187 84.5 335.5t237 232t345.5 83.5q250 0 399 -119t160 -299l-471 -69q0 73 -25 125.5t-83 52.5q-42 0 -75 -34.5t-51 -89t-27 -112t-9 -112.5q0 -69 24 -105.5t68 -36.5
q51 0 92 46.5t62 132.5l469 -68q-16 -63 -45.5 -119.5t-81 -113t-119 -97t-166.5 -65.5t-217 -25z" />
    <glyph glyph-name="Dcaron" unicode="&#x10e;" horiz-adv-x="1599" 
d="M1120 1874h422l-330 -315h-563l-188 315h401l99 -152zM729 0h-737l303 1434h596q326 0 516 -161.5t190 -430.5q0 -179 -63.5 -335t-176.5 -267.5t-275.5 -175.5t-352.5 -64zM737 1034l-135 -631h107q98 0 174.5 55.5t115.5 143t39 189.5q0 108 -59 175.5t-178 67.5h-64z
" />
    <glyph glyph-name="dcaron" unicode="&#x10f;" horiz-adv-x="1701" 
d="M389 -37q-118 0 -200 58.5t-119 152.5t-37 217q0 127 33.5 248t94.5 217.5t156.5 155.5t208.5 59q68 0 124.5 -19t95.5 -51.5t64.5 -67.5t43.5 -75l37 166l86 410h491l-305 -1434h-491q14 69 30 139q-54 -75 -134.5 -125.5t-178.5 -50.5zM1616 748h-205l297 327h-227
l78 359h421l-77 -359zM643 274q69 0 116.5 103t47.5 237q0 146 -90 146q-69 0 -116.5 -103t-47.5 -237q0 -146 90 -146z" />
    <glyph glyph-name="Dcroat" unicode="&#x110;" horiz-adv-x="1640" 
d="M336 1434h596q326 0 516 -161.5t190 -430.5q0 -179 -63.5 -335t-176.5 -267.5t-275.5 -175.5t-352.5 -64h-737l121 567h-121l61 297h121zM643 403h107q98 0 174.5 55.5t115.5 143t39 189.5q0 108 -59 175.5t-178 67.5h-64l-37 -170h187l-62 -297h-188z" />
    <glyph glyph-name="dcroat" unicode="&#x111;" horiz-adv-x="1349" 
d="M1442 1309h129l-45 -222h-131l-232 -1087h-491q14 69 30 139q-54 -75 -134.5 -125.5t-178.5 -50.5q-118 0 -200 58.5t-119 152.5t-37 217q0 127 33.5 248t94.5 217.5t156.5 155.5t208.5 59q68 0 124.5 -19t95.5 -51.5t64.5 -67.5t43.5 -75l37 166l14 63h-235l45 222h235
l27 125h491zM643 274q69 0 116.5 103t47.5 237q0 146 -90 146q-69 0 -116.5 -103t-47.5 -237q0 -146 90 -146z" />
    <glyph glyph-name="Emacron" unicode="&#x112;" horiz-adv-x="1331" 
d="M1315 1559h-850l55 253h850zM1145 0h-1153l303 1434h1153l-84 -396h-647l-31 -143h528l-73 -348h-529l-30 -150h647z" />
    <glyph glyph-name="emacron" unicode="&#x113;" horiz-adv-x="1259" 
d="M1114 1180h-708l53 254h708zM578 -37q-254 0 -400.5 121t-146.5 334q0 287 184 470t485 183q143 0 254.5 -47t174.5 -132t81.5 -202t-24.5 -258h-697q-7 -46 -6.5 -82.5t22.5 -59t66 -22.5q50 0 91 34.5t69 86.5l457 -110q-32 -65 -83.5 -119.5t-124.5 -99.5t-176.5 -71
t-225.5 -26zM528 637h230q17 69 -8 109t-80 40q-105 0 -142 -149z" />
    <glyph glyph-name="Ebreve" unicode="&#x114;" horiz-adv-x="1331" 
d="M932 1513q-217 0 -335 95.5t-112 267.5h306q0 -62 37.5 -98.5t111.5 -36.5q78 0 132.5 37t80.5 98h315q-120 -363 -536 -363zM1145 0h-1153l303 1434h1153l-84 -396h-647l-31 -143h528l-73 -348h-529l-30 -150h647z" />
    <glyph glyph-name="ebreve" unicode="&#x115;" horiz-adv-x="1259" 
d="M786 1130q-197 0 -304 91t-101 254h276q0 -59 35 -94t103 -35q70 0 119.5 35.5t72.5 93.5h287q-108 -345 -488 -345zM578 -37q-254 0 -400.5 121t-146.5 334q0 287 184 470t485 183q143 0 254.5 -47t174.5 -132t81.5 -202t-24.5 -258h-697q-7 -46 -6.5 -82.5t22.5 -59
t66 -22.5q50 0 91 34.5t69 86.5l457 -110q-32 -65 -83.5 -119.5t-124.5 -99.5t-176.5 -71t-225.5 -26zM528 637h230q17 69 -8 109t-80 40q-105 0 -142 -149z" />
    <glyph glyph-name="Edotaccent" unicode="&#x116;" horiz-adv-x="1331" 
d="M1096 1534h-406l78 358h406zM1145 0h-1153l303 1434h1153l-84 -396h-647l-31 -143h528l-73 -348h-529l-30 -150h647z" />
    <glyph glyph-name="edotaccent" unicode="&#x117;" horiz-adv-x="1259" 
d="M963 1137h-406l78 358h405zM578 -37q-254 0 -400.5 121t-146.5 334q0 287 184 470t485 183q143 0 254.5 -47t174.5 -132t81.5 -202t-24.5 -258h-697q-7 -46 -6.5 -82.5t22.5 -59t66 -22.5q50 0 91 34.5t69 86.5l457 -110q-32 -65 -83.5 -119.5t-124.5 -99.5t-176.5 -71
t-225.5 -26zM528 637h230q17 69 -8 109t-80 40q-105 0 -142 -149z" />
    <glyph glyph-name="Eogonek" unicode="&#x118;" horiz-adv-x="1331" 
d="M1448 1434l-84 -396h-647l-31 -143h528l-73 -348h-529l-30 -150h647l-84 -397q-80 -20 -137 -38.5t-86 -31.5t-45.5 -25.5t-19.5 -19t-3 -14.5q0 -35 59 -35q84 0 207 47l-59 -276q-115 -56 -242 -56q-109 0 -180.5 48t-71.5 145q0 78 48 143.5t133 112.5h-756l303 1434
h1153z" />
    <glyph glyph-name="eogonek" unicode="&#x119;" horiz-adv-x="1259" 
d="M31 418q0 287 184 470t485 183q143 0 254.5 -47t174.5 -132t81.5 -202t-24.5 -258h-697q-7 -46 -6.5 -82.5t22.5 -59t66 -22.5q50 0 91 34.5t69 86.5l457 -110q-119 -232 -430 -304q-90 -21 -138 -41t-59.5 -33t-11.5 -30q0 -35 59 -35q84 0 207 47l-59 -276
q-115 -56 -242 -56q-109 0 -180.5 48t-71.5 145q0 138 148 236q-180 37 -279.5 151t-99.5 287zM528 637h230q17 69 -8 109t-80 40q-105 0 -142 -149z" />
    <glyph glyph-name="Ecaron" unicode="&#x11a;" horiz-adv-x="1331" 
d="M1081 1874h422l-329 -315h-564l-188 315h401l99 -152zM1145 0h-1153l303 1434h1153l-84 -396h-647l-31 -143h528l-73 -348h-529l-30 -150h647z" />
    <glyph glyph-name="ecaron" unicode="&#x11b;" horiz-adv-x="1259" 
d="M1016 1159h-512l-170 316h364l82 -172l152 172h385zM578 -37q-254 0 -400.5 121t-146.5 334q0 287 184 470t485 183q143 0 254.5 -47t174.5 -132t81.5 -202t-24.5 -258h-697q-7 -46 -6.5 -82.5t22.5 -59t66 -22.5q50 0 91 34.5t69 86.5l457 -110q-32 -65 -83.5 -119.5
t-124.5 -99.5t-176.5 -71t-225.5 -26zM528 637h230q17 69 -8 109t-80 40q-105 0 -142 -149z" />
    <glyph glyph-name="Gcircumflex" unicode="&#x11c;" horiz-adv-x="1677" 
d="M938 1559h-422l330 315h563l188 -315h-401l-96 151zM616 -37q-241 0 -386.5 156t-145.5 432q0 198 62.5 367t177 291.5t285.5 191.5t380 69q109 0 204.5 -17t165 -45t127 -66.5t95.5 -79t65.5 -85t41.5 -81.5t20 -72l-551 -147q-53 184 -209 184q-77 0 -139 -45.5
t-99.5 -120.5t-57 -163t-19.5 -179q0 -122 55 -181t150 -59q74 0 135 36.5t90 113.5h-256l72 338h776l-170 -801h-463q10 55 33 154q-64 -81 -176.5 -136t-262.5 -55z" />
    <glyph glyph-name="gcircumflex" unicode="&#x11d;" horiz-adv-x="1409" 
d="M659 1159h-385l301 316h512l170 -316h-364l-88 152zM770 -399h-641q-125 0 -191.5 48t-66.5 134q0 158 195 237q-51 35 -78 78t-27 105q0 93 67 165.5t183 120.5q-55 62 -55 181q0 190 140.5 295.5t389.5 105.5q178 0 300.5 -60t174.5 -167q34 114 84.5 152t153.5 38h96
l-72 -338h-174q-66 0 -90 -65l-16 -41q-54 -137 -174.5 -197.5t-339.5 -60.5q-160 0 -260 49q-45 -32 -45 -66q0 -29 21.5 -42t72.5 -13h422q178 0 280.5 -78t102.5 -211q0 -169 -117 -269.5t-336 -100.5zM659 541q51 0 86 54.5t35 131.5q0 52 -23 82.5t-63 30.5
q-51 0 -83.5 -53.5t-32.5 -133.5q0 -112 81 -112zM328 -113h372q35 0 56.5 17t21.5 45q0 24 -17.5 37.5t-45.5 13.5h-432q-33 -29 -33 -66q0 -47 78 -47z" />
    <glyph glyph-name="Gbreve" unicode="&#x11e;" horiz-adv-x="1677" 
d="M1079 1513q-217 0 -334.5 95.5t-111.5 267.5h305q0 -62 37.5 -98.5t111.5 -36.5q78 0 132.5 37t80.5 98h316q-120 -363 -537 -363zM616 -37q-241 0 -386.5 156t-145.5 432q0 198 62.5 367t177 291.5t285.5 191.5t380 69q109 0 204.5 -17t165 -45t127 -66.5t95.5 -79
t65.5 -85t41.5 -81.5t20 -72l-551 -147q-53 184 -209 184q-77 0 -139 -45.5t-99.5 -120.5t-57 -163t-19.5 -179q0 -122 55 -181t150 -59q74 0 135 36.5t90 113.5h-256l72 338h776l-170 -801h-463q10 55 33 154q-64 -81 -176.5 -136t-262.5 -55z" />
    <glyph glyph-name="gbreve" unicode="&#x11f;" horiz-adv-x="1409" 
d="M803 1130q-197 0 -304.5 91t-101.5 254h277q0 -59 34.5 -94t102.5 -35q70 0 120 36t73 93h286q-108 -345 -487 -345zM770 -399h-641q-125 0 -191.5 48t-66.5 134q0 158 195 237q-51 35 -78 78t-27 105q0 93 67 165.5t183 120.5q-55 62 -55 181q0 190 140.5 295.5
t389.5 105.5q178 0 300.5 -60t174.5 -167q34 114 84.5 152t153.5 38h96l-72 -338h-174q-66 0 -90 -65l-16 -41q-54 -137 -174.5 -197.5t-339.5 -60.5q-160 0 -260 49q-45 -32 -45 -66q0 -29 21.5 -42t72.5 -13h422q178 0 280.5 -78t102.5 -211q0 -169 -117 -269.5
t-336 -100.5zM659 541q51 0 86 54.5t35 131.5q0 52 -23 82.5t-63 30.5q-51 0 -83.5 -53.5t-32.5 -133.5q0 -112 81 -112zM328 -113h372q35 0 56.5 17t21.5 45q0 24 -17.5 37.5t-45.5 13.5h-432q-33 -29 -33 -66q0 -47 78 -47z" />
    <glyph glyph-name="Gdotaccent" unicode="&#x120;" horiz-adv-x="1677" 
d="M1264 1534h-406l78 358h405zM616 -37q-241 0 -386.5 156t-145.5 432q0 198 62.5 367t177 291.5t285.5 191.5t380 69q109 0 204.5 -17t165 -45t127 -66.5t95.5 -79t65.5 -85t41.5 -81.5t20 -72l-551 -147q-53 184 -209 184q-77 0 -139 -45.5t-99.5 -120.5t-57 -163
t-19.5 -179q0 -122 55 -181t150 -59q74 0 135 36.5t90 113.5h-256l72 338h776l-170 -801h-463q10 55 33 154q-64 -81 -176.5 -136t-262.5 -55z" />
    <glyph glyph-name="gdotaccent" unicode="&#x121;" horiz-adv-x="1409" 
d="M979 1137h-406l78 358h406zM770 -399h-641q-125 0 -191.5 48t-66.5 134q0 158 195 237q-51 35 -78 78t-27 105q0 93 67 165.5t183 120.5q-55 62 -55 181q0 190 140.5 295.5t389.5 105.5q178 0 300.5 -60t174.5 -167q34 114 84.5 152t153.5 38h96l-72 -338h-174
q-66 0 -90 -65l-16 -41q-54 -137 -174.5 -197.5t-339.5 -60.5q-160 0 -260 49q-45 -32 -45 -66q0 -29 21.5 -42t72.5 -13h422q178 0 280.5 -78t102.5 -211q0 -169 -117 -269.5t-336 -100.5zM659 541q51 0 86 54.5t35 131.5q0 52 -23 82.5t-63 30.5q-51 0 -83.5 -53.5
t-32.5 -133.5q0 -112 81 -112zM328 -113h372q35 0 56.5 17t21.5 45q0 24 -17.5 37.5t-45.5 13.5h-432q-33 -29 -33 -66q0 -47 78 -47z" />
    <glyph glyph-name="uni0122" unicode="&#x122;" horiz-adv-x="1677" 
d="M616 -37q-241 0 -386.5 156t-145.5 432q0 198 62.5 367t177 291.5t285.5 191.5t380 69q109 0 204.5 -17t165 -45t127 -66.5t95.5 -79t65.5 -85t41.5 -81.5t20 -72l-551 -147q-53 184 -209 184q-77 0 -139 -45.5t-99.5 -120.5t-57 -163t-19.5 -179q0 -122 55 -181t150 -59
q74 0 135 36.5t90 113.5h-256l72 338h776l-170 -801h-463q10 55 33 154q-64 -81 -176.5 -136t-262.5 -55zM664 -791h-205l297 328h-228l78 359h422l-78 -359z" />
    <glyph glyph-name="uni0123" unicode="&#x123;" horiz-adv-x="1409" 
d="M918 1823h204l-297 -328h228l-78 -358h-422l78 358zM770 -399h-641q-125 0 -191.5 48t-66.5 134q0 158 195 237q-51 35 -78 78t-27 105q0 93 67 165.5t183 120.5q-55 62 -55 181q0 190 140.5 295.5t389.5 105.5q178 0 300.5 -60t174.5 -167q34 114 84.5 152t153.5 38h96
l-72 -338h-174q-66 0 -90 -65l-16 -41q-54 -137 -174.5 -197.5t-339.5 -60.5q-160 0 -260 49q-45 -32 -45 -66q0 -29 21.5 -42t72.5 -13h422q178 0 280.5 -78t102.5 -211q0 -169 -117 -269.5t-336 -100.5zM659 541q51 0 86 54.5t35 131.5q0 52 -23 82.5t-63 30.5
q-51 0 -83.5 -53.5t-32.5 -133.5q0 -112 81 -112zM328 -113h372q35 0 56.5 17t21.5 45q0 24 -17.5 37.5t-45.5 13.5h-432q-33 -29 -33 -66q0 -47 78 -47z" />
    <glyph glyph-name="Hcircumflex" unicode="&#x124;" horiz-adv-x="1611" 
d="M903 1559h-422l330 315h563l189 -315h-402l-96 151zM530 0h-538l303 1434h539l-105 -498h332l104 498h539l-303 -1434h-539l111 526h-332z" />
    <glyph glyph-name="hcircumflex" unicode="&#x125;" horiz-adv-x="1306" 
d="M774 1559h-385l301 315h512l170 -315h-364l-88 151zM461 0h-494l299 1434h477l-81 -398q-19 -98 -37 -170q145 205 336 205q78 0 142.5 -26t110 -78.5t60.5 -131.5t-6 -184l-138 -651h-495l131 614q10 47 -9.5 77t-58.5 30q-37 0 -66.5 -29t-39.5 -78z" />
    <glyph glyph-name="Hbar" unicode="&#x126;" horiz-adv-x="1697" 
d="M1718 1292h127l-53 -248h-125l-221 -1044h-539l111 526h-332l-111 -526h-538l221 1044h-129l53 248h127l31 142h539l-29 -142h332l28 142h539zM774 936h332l22 108h-331z" />
    <glyph glyph-name="hbar" unicode="&#x127;" horiz-adv-x="1306" 
d="M961 1071q78 0 142.5 -26t110 -78.5t60.5 -131.5t-6 -184l-138 -651h-495l131 614q10 47 -9.5 77t-58.5 30q-37 0 -66.5 -29t-39.5 -78l-131 -614h-494l228 1087h-150l45 222h150l26 125h477l-26 -125h229l-45 -222h-229l-10 -51q-19 -98 -37 -170q145 205 336 205z" />
    <glyph glyph-name="Itilde" unicode="&#x128;" horiz-adv-x="741" 
d="M801 1536q-55 0 -99 11.5t-61 20.5t-47 29l-45 27q-6 3 -16 9t-16 9.5t-15 7.5t-18.5 5.5t-20.5 1.5q-36 0 -61.5 -27.5t-34.5 -73.5h-275q21 158 107.5 249t226.5 91q52 0 97.5 -11.5t64.5 -21.5t49 -28l45 -29q51 -28 88 -28q36 0 61.5 26.5t34.5 71.5h273
q-21 -156 -109.5 -248t-228.5 -92zM530 0h-538l303 1434h539z" />
    <glyph glyph-name="itilde" unicode="&#x129;" horiz-adv-x="647" 
d="M655 1139q-53 0 -96.5 11.5t-58 19.5t-45.5 28l-43 27q-4 2 -19 11t-21 11.5t-18.5 6t-25.5 3.5q-35 0 -60.5 -26.5t-34.5 -71.5h-264q19 155 103.5 245.5t220.5 90.5q50 0 93.5 -11.5t62.5 -21.5t47 -28l45 -29q49 -29 84 -29t60 27t34 72h262q-19 -154 -104.5 -245
t-221.5 -91zM461 0h-498l221 1034h498z" />
    <glyph glyph-name="Imacron" unicode="&#x12a;" horiz-adv-x="741" 
d="M1008 1559h-850l55 253h850zM530 0h-538l303 1434h539z" />
    <glyph glyph-name="imacron" unicode="&#x12b;" horiz-adv-x="647" 
d="M819 1180h-708l53 254h708zM461 0h-498l221 1034h498z" />
    <glyph glyph-name="Ibreve" unicode="&#x12c;" horiz-adv-x="741" 
d="M625 1513q-217 0 -335 95.5t-112 267.5h305q0 -62 38 -98.5t112 -36.5q78 0 132.5 37t80.5 98h315q-120 -363 -536 -363zM530 0h-538l303 1434h539z" />
    <glyph glyph-name="ibreve" unicode="&#x12d;" horiz-adv-x="647" 
d="M492 1130q-197 0 -304.5 91t-101.5 254h276q0 -59 35 -94t103 -35q70 0 119.5 35.5t72.5 93.5h287q-108 -345 -487 -345zM461 0h-498l221 1034h498z" />
    <glyph glyph-name="Iogonek" unicode="&#x12e;" horiz-adv-x="741" 
d="M834 1434l-304 -1434q-80 -20 -137 -38.5t-86 -31.5t-45 -25.5t-19 -19t-3 -14.5q0 -35 59 -35q84 0 207 47l-60 -276q-115 -56 -241 -56q-109 0 -180.5 48t-71.5 145q0 78 47.5 143.5t132.5 112.5h-141l303 1434h539z" />
    <glyph glyph-name="iogonek" unicode="&#x12f;" horiz-adv-x="647" 
d="M203 1137l76 358h495l-76 -358h-495zM63 0h-100l221 1034h498l-221 -1034q-80 -20 -137 -38.5t-86 -31.5t-45.5 -25.5t-19.5 -19t-3 -14.5q0 -35 59 -35q84 0 207 47l-59 -276q-115 -56 -242 -56q-109 0 -180.5 48t-71.5 145q0 78 47.5 143.5t132.5 112.5z" />
    <glyph glyph-name="Idotaccent" unicode="&#x130;" horiz-adv-x="741" 
d="M852 1534h-539l78 358h541zM530 0h-538l303 1434h539z" />
    <glyph glyph-name="dotlessi" unicode="&#x131;" horiz-adv-x="647" 
d="M461 0h-498l221 1034h498z" />
    <glyph glyph-name="IJ" unicode="&#x132;" horiz-adv-x="2121" 
d="M530 0h-538l303 1434h539zM1358 -37q-331 0 -473 164.5t-86 466.5l512 111q-22 -87 -30.5 -149.5t-4.5 -110.5t27 -71.5t65 -23.5q107 0 141 158l197 926h520l-184 -867q-17 -79 -35 -140.5t-47 -126.5t-64.5 -113t-86.5 -92t-115 -72t-149 -44t-187 -16z" />
    <glyph glyph-name="ij" unicode="&#x133;" horiz-adv-x="1288" 
d="M705 1137h-498l76 358h497zM1356 1137h-498l76 358h498zM461 0h-498l221 1034h498zM674 -399h-301l69 327h109q61 0 74 62l221 1044h475l-229 -1085q-38 -180 -139 -264t-279 -84z" />
    <glyph glyph-name="Jcircumflex" unicode="&#x134;" horiz-adv-x="1345" 
d="M1083 1559h-421l329 315h563l189 -315h-402l-96 151zM582 -37q-331 0 -473 164.5t-86 466.5l512 111q-22 -87 -30.5 -149.5t-4.5 -110.5t27 -71.5t65 -23.5q107 0 141 158l197 926h520l-184 -867q-17 -79 -35 -140.5t-47 -126.5t-64.5 -113t-86.5 -92t-115 -72t-149 -44
t-187 -16z" />
    <glyph glyph-name="jcircumflex" unicode="&#x135;" horiz-adv-x="641" 
d="M354 1159h-385l301 316h512l170 -316h-364l-88 152zM45 -399h-319l69 327h125q44 0 60 70l219 1036h475l-221 -1046q-38 -183 -134.5 -285t-273.5 -102z" />
    <glyph glyph-name="uni0136" unicode="&#x136;" horiz-adv-x="1665" 
d="M1165 1434h666l-678 -629l477 -805h-610l-287 537l-147 -129l-86 -408h-508l303 1434h506l-25 -119q-51 -242 -74 -350zM694 -463h-227l78 359h422l-78 -359l-287 -328h-205z" />
    <glyph glyph-name="uni0137" unicode="&#x137;" horiz-adv-x="1425" 
d="M942 1034h602l-524 -418l354 -616h-545l-186 373l-154 -117l-53 -256h-471l303 1434h471l-67 -326l-82 -383zM563 -463h-227l78 359h422l-78 -359l-287 -328h-205z" />
    <glyph glyph-name="Lacute" unicode="&#x139;" horiz-adv-x="1308" 
d="M743 1559h-340l185 315h522zM1174 0h-1182l303 1434h536l-217 -1024h646z" />
    <glyph glyph-name="lacute" unicode="&#x13a;" horiz-adv-x="632" 
d="M688 1559h-309l168 315h475zM449 0h-484l303 1434h484z" />
    <glyph glyph-name="uni013B" unicode="&#x13b;" horiz-adv-x="1308" 
d="M1174 0h-1182l303 1434h536l-217 -1024h646zM446 -791h-204l297 328h-228l78 359h422l-78 -359z" />
    <glyph glyph-name="uni013C" unicode="&#x13c;" horiz-adv-x="632" 
d="M449 0h-484l303 1434h484zM49 -791h-205l297 328h-227l78 359h422l-78 -359z" />
    <glyph glyph-name="Lcaron" unicode="&#x13d;" horiz-adv-x="1357" 
d="M1016 680h-225l327 360h-250l86 396h463l-86 -396zM1174 0h-1182l303 1434h536l-217 -1024h646z" />
    <glyph glyph-name="lcaron" unicode="&#x13e;" horiz-adv-x="989" 
d="M449 0h-484l303 1434h484zM903 748h-205l297 327h-227l78 359h422l-78 -359z" />
    <glyph glyph-name="Ldot" unicode="&#x13f;" horiz-adv-x="1355" 
d="M1174 0h-1182l303 1434h536l-217 -1024h646zM1307 610h-502l94 439h502z" />
    <glyph glyph-name="ldot" unicode="&#x140;" horiz-adv-x="1155" 
d="M449 0h-484l303 1434h484zM1153 551h-502l94 438h502z" />
    <glyph glyph-name="Lslash" unicode="&#x141;" horiz-adv-x="1419" 
d="M784 686l-59 -276h645l-86 -410h-1182l97 453l-179 -70l74 344l176 70l136 637h536l-86 -410l438 172l-71 -336z" />
    <glyph glyph-name="lslash" unicode="&#x142;" horiz-adv-x="854" 
d="M782 1059l168 94l-76 -356l-167 -97l-148 -700h-483l82 389l-160 -92l76 365l162 90l143 682h483z" />
    <glyph glyph-name="Nacute" unicode="&#x143;" horiz-adv-x="1726" 
d="M1163 1559h-340l185 315h522zM487 0h-495l303 1434h663l211 -727q48 227 80 376l74 351h496l-303 -1434h-566l-270 907q-28 -125 -88 -409z" />
    <glyph glyph-name="nacute" unicode="&#x144;" horiz-adv-x="1304" 
d="M944 1159h-309l168 316h475zM461 0h-494l215 1034h477q-17 -83 -36 -168q64 95 153 150t193 55q109 0 185.5 -48.5t108.5 -148t3 -235.5l-136 -639h-493l127 596q13 64 -7.5 94.5t-62.5 30.5q-81 0 -106 -125z" />
    <glyph glyph-name="uni0145" unicode="&#x145;" horiz-adv-x="1726" 
d="M487 0h-495l303 1434h663l211 -727q48 227 80 376l74 351h496l-303 -1434h-566l-270 907q-28 -125 -88 -409zM600 -791h-205l297 328h-227l78 359h422l-78 -359z" />
    <glyph glyph-name="uni0146" unicode="&#x146;" horiz-adv-x="1304" 
d="M461 0h-494l215 1034h477q-17 -83 -36 -168q64 95 153 150t193 55q109 0 185.5 -48.5t108.5 -148t3 -235.5l-136 -639h-493l127 596q13 64 -7.5 94.5t-62.5 30.5q-81 0 -106 -125zM391 -791h-205l297 328h-227l78 359h422l-78 -359z" />
    <glyph glyph-name="Ncaron" unicode="&#x147;" horiz-adv-x="1726" 
d="M1264 1874h422l-330 -315h-563l-189 315h402l98 -152zM487 0h-495l303 1434h663l211 -727q48 227 80 376l74 351h496l-303 -1434h-566l-270 907q-28 -125 -88 -409z" />
    <glyph glyph-name="ncaron" unicode="&#x148;" horiz-adv-x="1304" 
d="M1053 1159h-512l-170 316h364l82 -172l152 172h385zM461 0h-494l215 1034h477q-17 -83 -36 -168q64 95 153 150t193 55q109 0 185.5 -48.5t108.5 -148t3 -235.5l-136 -639h-493l127 596q13 64 -7.5 94.5t-62.5 30.5q-81 0 -106 -125z" />
    <glyph glyph-name="Eng" unicode="&#x14a;" horiz-adv-x="1726" 
d="M1020 -399h-367l78 362h217q35 0 53.5 17.5t26.5 54.5l10 49l-358 823l-16 -69q-11 -52 -35 -167t-37 -177l-105 -494h-495l303 1434h625l272 -625l12 53q17 77 35 168l84 404h496l-314 -1483q-18 -83 -51 -145t-89 -109.5t-142.5 -71.5t-202.5 -24z" />
    <glyph glyph-name="eng" unicode="&#x14b;" horiz-adv-x="1304" 
d="M717 -399h-320l70 333h82q38 0 61 22.5t33 72.5l121 567q13 64 -7.5 94.5t-62.5 30.5q-81 0 -106 -125l-127 -596h-494l215 1034h477l-36 -168q64 95 153 150t193 55q109 0 185.5 -48.5t108.5 -148t3 -235.5l-142 -670q-20 -95 -46.5 -158t-72 -113t-116.5 -73.5
t-172 -23.5z" />
    <glyph glyph-name="Omacron" unicode="&#x14c;" horiz-adv-x="1775" 
d="M1487 1559h-850l55 253h850zM872 -37q-193 0 -343 47.5t-245 135t-143.5 206.5t-48.5 266q0 184 64 341.5t179 270t283 176.5t369 64q194 0 343.5 -47.5t244.5 -134.5t143.5 -205.5t48.5 -265.5q0 -184 -64 -341.5t-179 -271t-283 -177.5t-369 -64zM889 371
q98 0 169.5 63t105.5 162t34 219t-57 185t-170 65q-98 0 -169 -63.5t-104.5 -162t-33.5 -218.5t56 -185t169 -65z" />
    <glyph glyph-name="omacron" unicode="&#x14d;" horiz-adv-x="1357" 
d="M1151 1180h-709l54 254h708zM637 -37q-287 0 -445.5 125t-158.5 346q0 289 191.5 463t498.5 174q285 0 441.5 -130t156.5 -353q0 -191 -86.5 -333.5t-240.5 -217t-357 -74.5zM643 272q50 0 87 53t53 127t16 154t-21 117t-71 37q-48 0 -84 -53t-52 -127t-16 -154
q0 -81 20 -117.5t68 -36.5z" />
    <glyph glyph-name="Obreve" unicode="&#x14e;" horiz-adv-x="1775" 
d="M1104 1513q-217 0 -335 95.5t-112 267.5h306q0 -62 37.5 -98.5t111.5 -36.5q78 0 132.5 37t80.5 98h315q-120 -363 -536 -363zM872 -37q-193 0 -343 47.5t-245 135t-143.5 206.5t-48.5 266q0 184 64 341.5t179 270t283 176.5t369 64q194 0 343.5 -47.5t244.5 -134.5
t143.5 -205.5t48.5 -265.5q0 -184 -64 -341.5t-179 -271t-283 -177.5t-369 -64zM889 371q98 0 169.5 63t105.5 162t34 219t-57 185t-170 65q-98 0 -169 -63.5t-104.5 -162t-33.5 -218.5t56 -185t169 -65z" />
    <glyph glyph-name="obreve" unicode="&#x14f;" horiz-adv-x="1357" 
d="M823 1130q-197 0 -304 91t-101 254h276q0 -59 34.5 -94t102.5 -35q70 0 120 36t73 93h287q-108 -345 -488 -345zM637 -37q-287 0 -445.5 125t-158.5 346q0 289 191.5 463t498.5 174q285 0 441.5 -130t156.5 -353q0 -191 -86.5 -333.5t-240.5 -217t-357 -74.5zM643 272
q50 0 87 53t53 127t16 154t-21 117t-71 37q-48 0 -84 -53t-52 -127t-16 -154q0 -81 20 -117.5t68 -36.5z" />
    <glyph glyph-name="Ohungarumlaut" unicode="&#x150;" horiz-adv-x="1775" 
d="M930 1559h-338l182 315h522zM1489 1559h-342l186 315h520zM872 -37q-193 0 -343 47.5t-245 135t-143.5 206.5t-48.5 266q0 184 64 341.5t179 270t283 176.5t369 64q194 0 343.5 -47.5t244.5 -134.5t143.5 -205.5t48.5 -265.5q0 -184 -64 -341.5t-179 -271t-283 -177.5
t-369 -64zM889 371q98 0 169.5 63t105.5 162t34 219t-57 185t-170 65q-98 0 -169 -63.5t-104.5 -162t-33.5 -218.5t56 -185t169 -65z" />
    <glyph glyph-name="ohungarumlaut" unicode="&#x151;" horiz-adv-x="1357" 
d="M664 1159h-308l166 316h475zM1171 1159h-309l168 316h473zM637 -37q-287 0 -445.5 125t-158.5 346q0 289 191.5 463t498.5 174q285 0 441.5 -130t156.5 -353q0 -191 -86.5 -333.5t-240.5 -217t-357 -74.5zM643 272q50 0 87 53t53 127t16 154t-21 117t-71 37
q-48 0 -84 -53t-52 -127t-16 -154q0 -81 20 -117.5t68 -36.5z" />
    <glyph glyph-name="OE" unicode="&#x152;" horiz-adv-x="2310" 
d="M641 -37q-110 0 -201 32t-154.5 88.5t-107.5 135t-65 171.5t-21 198q0 191 55.5 354.5t155.5 279.5t244.5 182t316.5 66q294 0 443 -149l22 113h1096l-84 -402h-637l-29 -133h516l-75 -358h-517l-30 -142h637l-84 -399h-1096q20 84 27 119q-78 -75 -183.5 -115.5
t-228.5 -40.5zM877 371q98 0 169.5 63t105.5 162t34 219q0 119 -58 184.5t-172 65.5q-98 0 -168.5 -63.5t-103.5 -162t-33 -218.5t56.5 -185t169.5 -65z" />
    <glyph glyph-name="oe" unicode="&#x153;" horiz-adv-x="2082" 
d="M578 -37q-252 0 -398.5 123.5t-146.5 341.5q0 143 49.5 264t136.5 204t206.5 129t256.5 46q271 0 418 -147q80 69 188.5 108t231.5 39q119 0 215.5 -30t161 -85.5t102 -133.5t39.5 -173.5t-27 -206.5h-700q-14 -79 6 -126.5t78 -47.5q52 0 89.5 31t71.5 90l457 -115
q-70 -135 -219 -223t-371 -88q-147 0 -248.5 36t-168.5 114q-166 -150 -428 -150zM1352 637h235q17 66 -8.5 107.5t-81.5 41.5q-108 0 -145 -149zM647 272q67 0 110.5 100t43.5 234q0 154 -94 154q-65 0 -108.5 -101t-43.5 -233q0 -154 92 -154z" />
    <glyph glyph-name="Racute" unicode="&#x154;" horiz-adv-x="1576" 
d="M1092 1559h-340l184 315h522zM510 0h-518l303 1434h772q248 0 378 -102.5t130 -264.5q0 -90 -38.5 -167t-103.5 -128t-147.5 -81.5t-171.5 -35.5q58 -6 101.5 -19t73.5 -37t49.5 -48.5t33 -67t21 -78.5t16.5 -96l45 -309h-555l-25 354q-6 81 -31.5 111.5t-94.5 30.5h-134
zM731 1049l-47 -226h188q69 0 109.5 37.5t40.5 91.5q0 46 -29.5 71.5t-85.5 25.5h-176z" />
    <glyph glyph-name="racute" unicode="&#x155;" horiz-adv-x="1019" 
d="M786 1159h-309l168 316h475zM463 0h-498l219 1034h478q-30 -148 -62 -297q78 159 173.5 244.5t219.5 85.5q65 0 117 -12l-96 -451q-90 19 -160 19q-134 0 -211.5 -71t-103.5 -196z" />
    <glyph glyph-name="uni0156" unicode="&#x156;" horiz-adv-x="1576" 
d="M510 0h-518l303 1434h772q248 0 378 -102.5t130 -264.5q0 -90 -38.5 -167t-103.5 -128t-147.5 -81.5t-171.5 -35.5q58 -6 101.5 -19t73.5 -37t49.5 -48.5t33 -67t21 -78.5t16.5 -96l45 -309h-555l-25 354q-6 81 -31.5 111.5t-94.5 30.5h-134zM731 1049l-47 -226h188
q69 0 109.5 37.5t40.5 91.5q0 46 -29.5 71.5t-85.5 25.5h-176zM508 -791h-205l297 328h-227l78 359h421l-77 -359z" />
    <glyph glyph-name="uni0157" unicode="&#x157;" horiz-adv-x="1019" 
d="M463 0h-498l219 1034h478q-30 -148 -62 -297q78 159 173.5 244.5t219.5 85.5q65 0 117 -12l-96 -451q-90 19 -160 19q-134 0 -211.5 -71t-103.5 -196zM57 -791h-204l297 328h-228l78 359h422l-78 -359z" />
    <glyph glyph-name="Rcaron" unicode="&#x158;" horiz-adv-x="1576" 
d="M1141 1874h422l-330 -315h-563l-189 315h402l98 -152zM510 0h-518l303 1434h772q248 0 378 -102.5t130 -264.5q0 -90 -38.5 -167t-103.5 -128t-147.5 -81.5t-171.5 -35.5q58 -6 101.5 -19t73.5 -37t49.5 -48.5t33 -67t21 -78.5t16.5 -96l45 -309h-555l-25 354
q-6 81 -31.5 111.5t-94.5 30.5h-134zM731 1049l-47 -226h188q69 0 109.5 37.5t40.5 91.5q0 46 -29.5 71.5t-85.5 25.5h-176z" />
    <glyph glyph-name="rcaron" unicode="&#x159;" horiz-adv-x="1019" 
d="M895 1159h-512l-170 316h365l81 -172l152 172h385zM463 0h-498l219 1034h478q-30 -148 -62 -297q78 159 173.5 244.5t219.5 85.5q65 0 117 -12l-96 -451q-90 19 -160 19q-134 0 -211.5 -71t-103.5 -196z" />
    <glyph glyph-name="Sacute" unicode="&#x15a;" horiz-adv-x="1560" 
d="M1128 1559h-340l185 315h522zM778 -37q-718 0 -770 443l574 96q22 -172 190 -172q84 0 130 28.5t46 75.5q0 37 -31 60.5t-88 31.5l-131 17q-125 16 -218 44t-152 65t-94.5 87t-49.5 103.5t-14 120.5q0 119 55.5 216t152 160t224 97t272.5 34q168 0 301 -32.5t219.5 -90.5
t135.5 -134t59 -166l-583 -76q-26 139 -170 139q-61 0 -97.5 -26.5t-36.5 -65.5q0 -47 41.5 -71.5t137.5 -35.5l114 -12q241 -26 374.5 -136.5t133.5 -289.5q0 -165 -93 -281.5t-254.5 -172.5t-377.5 -56z" />
    <glyph glyph-name="sacute" unicode="&#x15b;" horiz-adv-x="1202" 
d="M858 1159h-309l168 316h475zM549 -37q-277 0 -420 91.5t-149 256.5l464 33q5 -55 31.5 -84t89.5 -29q50 0 79.5 18.5t29.5 51.5q0 51 -88 70l-133 28q-187 39 -274 110t-87 193q0 175 147.5 272t397.5 97q261 0 396.5 -84.5t148.5 -214.5l-473 -53q-5 43 -33 69.5
t-80 26.5q-40 0 -63 -16.5t-23 -42.5q0 -27 27 -41.5t96 -26.5l119 -22q378 -69 378 -332q0 -97 -46 -170t-127 -116t-183.5 -64t-224.5 -21z" />
    <glyph glyph-name="Scircumflex" unicode="&#x15c;" horiz-adv-x="1560" 
d="M846 1559h-422l330 315h563l188 -315h-401l-96 151zM778 -37q-718 0 -770 443l574 96q22 -172 190 -172q84 0 130 28.5t46 75.5q0 37 -31 60.5t-88 31.5l-131 17q-125 16 -218 44t-152 65t-94.5 87t-49.5 103.5t-14 120.5q0 119 55.5 216t152 160t224 97t272.5 34
q168 0 301 -32.5t219.5 -90.5t135.5 -134t59 -166l-583 -76q-26 139 -170 139q-61 0 -97.5 -26.5t-36.5 -65.5q0 -47 41.5 -71.5t137.5 -35.5l114 -12q241 -26 374.5 -136.5t133.5 -289.5q0 -165 -93 -281.5t-254.5 -172.5t-377.5 -56z" />
    <glyph glyph-name="scircumflex" unicode="&#x15d;" horiz-adv-x="1202" 
d="M594 1159h-385l301 316h512l170 -316h-365l-88 152zM549 -37q-277 0 -420 91.5t-149 256.5l464 33q5 -55 31.5 -84t89.5 -29q50 0 79.5 18.5t29.5 51.5q0 51 -88 70l-133 28q-187 39 -274 110t-87 193q0 175 147.5 272t397.5 97q261 0 396.5 -84.5t148.5 -214.5l-473 -53
q-5 43 -33 69.5t-80 26.5q-40 0 -63 -16.5t-23 -42.5q0 -27 27 -41.5t96 -26.5l119 -22q378 -69 378 -332q0 -97 -46 -170t-127 -116t-183.5 -64t-224.5 -21z" />
    <glyph glyph-name="Scedilla" unicode="&#x15e;" horiz-adv-x="1560" 
d="M881 911l114 -12q241 -26 374.5 -136.5t133.5 -289.5q0 -214 -151 -342t-412 -160l-25 -8l-167 -59q51 -8 96 -33t71.5 -66t26.5 -90q0 -116 -88 -180.5t-244 -64.5q-66 0 -125 16.5t-98.5 42t-62.5 46.5t-37 40l182 166q13 -24 47.5 -49t79.5 -25q86 0 86 49
q0 18 -17 30.5t-47 12.5q-27 0 -51 -6l-51 139l100 37q-562 47 -608 437l574 96q22 -172 190 -172q84 0 130 28.5t46 75.5q0 37 -31 60.5t-88 31.5l-131 17q-125 16 -218 44t-152 65t-94.5 87t-49.5 103.5t-14 120.5q0 119 55.5 216t152 160t224 97t272.5 34
q168 0 301 -32.5t219.5 -90.5t135.5 -134t59 -166l-583 -76q-26 139 -170 139q-61 0 -97.5 -26.5t-36.5 -65.5q0 -47 41.5 -71.5t137.5 -35.5z" />
    <glyph glyph-name="scedilla" unicode="&#x15f;" horiz-adv-x="1202" 
d="M633 688l119 -22q378 -69 378 -332q0 -109 -58.5 -187t-154 -119.5t-225.5 -56.5l-10 -4l-152 -55q42 -5 88 -29q41 -24 65 -61t24 -80q0 -105 -80 -164t-221 -59q-61 0 -114.5 15t-89.5 38.5t-56.5 41.5t-34.5 36l165 151q13 -22 45 -44.5t72 -22.5q78 0 78 45
q0 16 -15.5 27.5t-41.5 11.5t-47 -6l-48 127l87 32q-207 21 -314 109.5t-112 230.5l464 33q5 -55 31.5 -84t89.5 -29q50 0 79.5 18.5t29.5 51.5q0 51 -88 70l-133 28q-187 39 -274 110t-87 193q0 175 147.5 272t397.5 97q261 0 396.5 -84.5t148.5 -214.5l-473 -53
q-5 43 -33 69.5t-80 26.5q-40 0 -63 -16.5t-23 -42.5q0 -27 27 -41.5t96 -26.5z" />
    <glyph glyph-name="Scaron" unicode="&#x160;" horiz-adv-x="1560" 
d="M1157 1874h422l-330 -315h-563l-188 315h401l98 -152zM778 -37q-718 0 -770 443l574 96q22 -172 190 -172q84 0 130 28.5t46 75.5q0 37 -31 60.5t-88 31.5l-131 17q-125 16 -218 44t-152 65t-94.5 87t-49.5 103.5t-14 120.5q0 119 55.5 216t152 160t224 97t272.5 34
q168 0 301 -32.5t219.5 -90.5t135.5 -134t59 -166l-583 -76q-26 139 -170 139q-61 0 -97.5 -26.5t-36.5 -65.5q0 -47 41.5 -71.5t137.5 -35.5l114 -12q241 -26 374.5 -136.5t133.5 -289.5q0 -165 -93 -281.5t-254.5 -172.5t-377.5 -56z" />
    <glyph glyph-name="scaron" unicode="&#x161;" horiz-adv-x="1202" 
d="M967 1159h-512l-170 316h364l82 -172l152 172h385zM549 -37q-277 0 -420 91.5t-149 256.5l464 33q5 -55 31.5 -84t89.5 -29q50 0 79.5 18.5t29.5 51.5q0 51 -88 70l-133 28q-187 39 -274 110t-87 193q0 175 147.5 272t397.5 97q261 0 396.5 -84.5t148.5 -214.5l-473 -53
q-5 43 -33 69.5t-80 26.5q-40 0 -63 -16.5t-23 -42.5q0 -27 27 -41.5t96 -26.5l119 -22q378 -69 378 -332q0 -97 -46 -170t-127 -116t-183.5 -64t-224.5 -21z" />
    <glyph glyph-name="uni0162" unicode="&#x162;" horiz-adv-x="1398" 
d="M141 1065l78 369h1350l-78 -369h-406l-225 -1065l-92 -33l-152 -55q43 -5 89 -29q41 -24 64.5 -61t23.5 -80q0 -105 -80 -164t-221 -59q-61 0 -114.5 15t-89.5 38.5t-56.5 41.5t-34.5 36l165 151q13 -22 45 -44.5t72 -22.5q78 0 78 45q0 16 -15.5 27.5t-41.5 11.5t-47 -6
l-47 127l165 61h-249l225 1065h-406z" />
    <glyph glyph-name="uni0163" unicode="&#x163;" horiz-adv-x="980" 
d="M713 727l-68 -317q-12 -62 49 -62h232l-76 -348h-139l-93 -33l-151 -55q42 -5 88 -29q41 -24 64.5 -61t23.5 -80q0 -105 -80 -164t-221 -59q-61 0 -114.5 15t-89.5 38.5t-56.5 41.5t-34.5 36l166 151q13 -22 45 -44.5t72 -22.5q78 0 78 45q0 16 -15.5 27.5t-42.5 11.5
q-26 0 -47 -6l-47 127l180 67q-179 20 -242 119.5t-22 298.5l64 303h-187l66 307h186l66 307h477l-66 -307h205l-65 -307h-205z" />
    <glyph glyph-name="Tcaron" unicode="&#x164;" horiz-adv-x="1398" 
d="M1102 1874h422l-330 -315h-563l-189 315h402l98 -152zM860 0h-538l225 1065h-406l78 369h1350l-78 -369h-406z" />
    <glyph glyph-name="tcaron" unicode="&#x165;" horiz-adv-x="980" 
d="M1044 1118h-204l297 328h-228l78 358h422l-78 -358zM850 0h-305q-243 0 -331.5 99t-41.5 325l64 303h-187l66 307h186l66 307h477l-66 -307h205l-65 -307h-205l-68 -317q-12 -62 49 -62h232z" />
    <glyph glyph-name="Tbar" unicode="&#x166;" horiz-adv-x="1415" 
d="M1575 1434l-78 -369h-405l-43 -205h219l-66 -311h-219l-117 -549h-538l116 549h-215l66 311h215l43 205h-406l78 369h1350z" />
    <glyph glyph-name="tbar" unicode="&#x167;" horiz-adv-x="997" 
d="M670 444l-8 -34q-12 -62 49 -62h231l-76 -348h-305q-243 0 -331.5 99t-41.5 325l5 20h-187l45 222h189l12 61h-186l65 307h186l66 307h477l-65 -307h204l-65 -307h-205l-12 -61h205l-48 -222h-204z" />
    <glyph glyph-name="Utilde" unicode="&#x168;" horiz-adv-x="1593" 
d="M1214 1536q-55 0 -99 11.5t-60 20.5t-47 29l-45 27q-6 3 -16 9t-16 9.5t-15 7.5t-18.5 5.5t-20.5 1.5q-36 0 -62 -27.5t-35 -73.5h-274q21 158 107.5 249t226.5 91q52 0 97.5 -11.5t64.5 -21.5t49 -28l45 -29q51 -28 88 -28q36 0 61.5 26.5t34.5 71.5h272
q-21 -156 -109.5 -248t-228.5 -92zM729 -37q-373 0 -530.5 172.5t-89.5 495.5l170 803h530l-158 -750q-33 -160 -7 -226.5t122 -66.5q94 0 151.5 71.5t88.5 221.5l157 750h537l-170 -803q-74 -353 -260 -510.5t-541 -157.5z" />
    <glyph glyph-name="utilde" unicode="&#x169;" horiz-adv-x="1298" 
d="M977 1139q-53 0 -96.5 11.5t-59 20t-45.5 27.5l-43 27q-4 2 -19 11t-21 11.5t-18.5 6t-25.5 3.5q-35 0 -60 -26.5t-34 -71.5h-264q19 155 103 245.5t220 90.5q50 0 93.5 -11.5t62.5 -21.5t47 -28l45 -29q49 -29 84 -29t60 27t34 72h263q-19 -154 -104.5 -245t-221.5 -91z
M299 -37q-67 0 -122.5 22t-97.5 68.5t-55 118t5 170.5l145 692h496l-129 -610q-10 -51 9.5 -81t57.5 -30q85 0 109 111l129 610h485l-215 -1034h-469l31 139q-55 -68 -158 -122t-221 -54z" />
    <glyph glyph-name="Umacron" unicode="&#x16a;" horiz-adv-x="1593" 
d="M1419 1559h-850l56 253h850zM729 -37q-373 0 -530.5 172.5t-89.5 495.5l170 803h530l-158 -750q-33 -160 -7 -226.5t122 -66.5q94 0 151.5 71.5t88.5 221.5l157 750h537l-170 -803q-74 -353 -260 -510.5t-541 -157.5z" />
    <glyph glyph-name="umacron" unicode="&#x16b;" horiz-adv-x="1298" 
d="M1141 1180h-709l53 254h709zM299 -37q-67 0 -122.5 22t-97.5 68.5t-55 118t5 170.5l145 692h496l-129 -610q-10 -51 9.5 -81t57.5 -30q85 0 109 111l129 610h485l-215 -1034h-469l31 139q-55 -68 -158 -122t-221 -54z" />
    <glyph glyph-name="Ubreve" unicode="&#x16c;" horiz-adv-x="1593" 
d="M1036 1513q-217 0 -334.5 95.5t-111.5 267.5h305q0 -62 37.5 -98.5t111.5 -36.5q78 0 132.5 37t80.5 98h316q-120 -363 -537 -363zM729 -37q-373 0 -530.5 172.5t-89.5 495.5l170 803h530l-158 -750q-33 -160 -7 -226.5t122 -66.5q94 0 151.5 71.5t88.5 221.5l157 750
h537l-170 -803q-74 -353 -260 -510.5t-541 -157.5z" />
    <glyph glyph-name="ubreve" unicode="&#x16d;" horiz-adv-x="1298" 
d="M813 1130q-197 0 -304 91t-101 254h276q0 -59 34.5 -94t102.5 -35q70 0 120 36t73 93h286q-108 -345 -487 -345zM299 -37q-67 0 -122.5 22t-97.5 68.5t-55 118t5 170.5l145 692h496l-129 -610q-10 -51 9.5 -81t57.5 -30q85 0 109 111l129 610h485l-215 -1034h-469l31 139
q-55 -68 -158 -122t-221 -54z" />
    <glyph glyph-name="Uring" unicode="&#x16e;" horiz-adv-x="1593" 
d="M1014 1507q-84 0 -150.5 24.5t-107 66.5t-61.5 94t-21 110q0 67 26 131t73 116t120 84t160 32q84 0 149 -24t104.5 -66t59.5 -94.5t20 -112.5q0 -66 -25 -129.5t-71 -115.5t-118 -84t-158 -32zM1022 1741q48 0 78 30.5t30 79.5q0 36 -22 59t-61 23q-50 0 -80.5 -29.5
t-30.5 -80.5q0 -36 23 -59t63 -23zM729 -37q-373 0 -530.5 172.5t-89.5 495.5l170 803h530l-158 -750q-33 -160 -7 -226.5t122 -66.5q94 0 151.5 71.5t88.5 221.5l157 750h537l-170 -803q-74 -353 -260 -510.5t-541 -157.5z" />
    <glyph glyph-name="uring" unicode="&#x16f;" horiz-adv-x="1298" 
d="M786 1118q-142 0 -217 73.5t-75 180.5q0 78 37.5 148.5t114 118t175.5 47.5q141 0 215 -74t74 -182q0 -77 -36.5 -147t-112.5 -117.5t-175 -47.5zM795 1319q41 0 67.5 26.5t26.5 69.5q0 31 -19.5 50.5t-54.5 19.5q-42 0 -68 -26t-26 -68q0 -32 20 -52t54 -20zM299 -37
q-67 0 -122.5 22t-97.5 68.5t-55 118t5 170.5l145 692h496l-129 -610q-10 -51 9.5 -81t57.5 -30q85 0 109 111l129 610h485l-215 -1034h-469l31 139q-55 -68 -158 -122t-221 -54z" />
    <glyph glyph-name="Uhungarumlaut" unicode="&#x170;" horiz-adv-x="1593" 
d="M872 1559h-337l182 315h522zM1432 1559h-342l186 315h520zM729 -37q-373 0 -530.5 172.5t-89.5 495.5l170 803h530l-158 -750q-33 -160 -7 -226.5t122 -66.5q94 0 151.5 71.5t88.5 221.5l157 750h537l-170 -803q-74 -353 -260 -510.5t-541 -157.5z" />
    <glyph glyph-name="uhungarumlaut" unicode="&#x171;" horiz-adv-x="1298" 
d="M653 1159h-307l166 316h475zM1161 1159h-309l168 316h473zM299 -37q-67 0 -122.5 22t-97.5 68.5t-55 118t5 170.5l145 692h496l-129 -610q-10 -51 9.5 -81t57.5 -30q85 0 109 111l129 610h485l-215 -1034h-469l31 139q-55 -68 -158 -122t-221 -54z" />
    <glyph glyph-name="Uogonek" unicode="&#x172;" horiz-adv-x="1593" 
d="M639 -449q-109 0 -180.5 48t-71.5 145q0 138 145 233q-268 44 -375 211t-48 443l170 803h530l-158 -750q-33 -160 -7 -226.5t122 -66.5q94 0 151.5 71.5t88.5 221.5l157 750h537l-170 -803q-67 -321 -217.5 -471.5t-446.5 -196.5q-105 -17 -148.5 -39t-43.5 -53
q0 -35 59 -35q84 0 207 47l-59 -276q-115 -56 -242 -56z" />
    <glyph glyph-name="uogonek" unicode="&#x173;" horiz-adv-x="1298" 
d="M1331 1034l-215 -1034q-80 -20 -137 -38.5t-86 -31.5t-45.5 -25.5t-19.5 -19t-3 -14.5q0 -35 60 -35q84 0 207 47l-60 -276q-115 -56 -241 -56q-109 0 -180.5 48t-71.5 145q0 78 47.5 143.5t132.5 112.5h-72l31 139q-55 -68 -158 -122t-221 -54q-67 0 -122.5 22
t-97.5 68.5t-55 118t5 170.5l145 692h496l-129 -610q-10 -51 9.5 -81t57.5 -30q85 0 109 111l129 610h485z" />
    <glyph glyph-name="Wcircumflex" unicode="&#x174;" horiz-adv-x="2281" 
d="M1212 1559h-421l329 315h563l189 -315h-402l-96 151zM862 0h-633l-39 1434h537l-6 -146q-15 -353 -29 -825q59 173 246 706l92 265h567l-12 -267l-26 -690q147 423 284 799l58 158h553l-596 -1434h-672l6 170q11 295 37 795q-208 -543 -295 -775z" />
    <glyph glyph-name="wcircumflex" unicode="&#x175;" horiz-adv-x="1794" 
d="M907 1159h-385l301 316h512l170 -316h-364l-88 152zM668 0h-557l2 1034h436l-8 -119q-20 -307 -33 -559q129 365 199 553l45 125h483l-8 -114q-26 -348 -39 -555q99 270 201 540l49 129h463l-439 -1034h-573l10 238l19 424q-107 -275 -162 -426z" />
    <glyph glyph-name="Ycircumflex" unicode="&#x176;" horiz-adv-x="1519" 
d="M848 1559h-422l330 315h563l188 -315h-401l-96 151zM915 0h-538l112 524l-319 910h539l26 -97l105 -381q140 208 260 383l65 95h576l-715 -918z" />
    <glyph glyph-name="ycircumflex" unicode="&#x177;" horiz-adv-x="1284" 
d="M870 1159l-88 152l-145 -152h-385l301 316h512l170 -316h-365zM840 887l78 147h491l-608 -1085q-34 -61 -58.5 -100.5t-54 -80t-56.5 -64.5t-62 -46t-74.5 -33t-89 -17.5t-111.5 -6.5h-383l74 348h286q31 0 45.5 11.5t30.5 43.5l35 66l-326 964h490l33 -149
q29 -134 84 -334z" />
    <glyph glyph-name="Ydieresis" unicode="&#x178;" horiz-adv-x="1519" 
d="M907 1559h-444l72 315h444zM1487 1559h-445l72 315h445zM915 0h-538l112 524l-319 910h539l26 -97l105 -381q140 208 260 383l65 95h576l-715 -918z" />
    <glyph glyph-name="Zacute" unicode="&#x179;" horiz-adv-x="1376" 
d="M1034 1559h-340l185 315h522zM1204 0h-1247l92 434l750 600h-402h-196l84 400h1179l-94 -451l-704 -563h426h200z" />
    <glyph glyph-name="zacute" unicode="&#x17a;" horiz-adv-x="1091" 
d="M801 1159h-309l167 316h476zM926 0h-983l80 375l507 332h-243h-185l70 327h954l-71 -327l-551 -359h387h108z" />
    <glyph glyph-name="Zdotaccent" unicode="&#x17b;" horiz-adv-x="1376" 
d="M1077 1534h-405l78 358h405zM1204 0h-1247l92 434l750 600h-402h-196l84 400h1179l-94 -451l-704 -563h426h200z" />
    <glyph glyph-name="zdotaccent" unicode="&#x17c;" horiz-adv-x="1091" 
d="M856 1137h-405l77 358h406zM926 0h-983l80 375l507 332h-243h-185l70 327h954l-71 -327l-551 -359h387h108z" />
    <glyph glyph-name="Zcaron" unicode="&#x17d;" horiz-adv-x="1376" 
d="M1063 1874h422l-330 -315h-563l-189 315h402l98 -152zM1204 0h-1247l92 434l750 600h-402h-196l84 400h1179l-94 -451l-704 -563h426h200z" />
    <glyph glyph-name="zcaron" unicode="&#x17e;" horiz-adv-x="1091" 
d="M909 1159h-512l-170 316h365l82 -172l151 172h385zM926 0h-983l80 375l507 332h-243h-185l70 327h954l-71 -327l-551 -359h387h108z" />
    <glyph glyph-name="florin" unicode="&#x192;" horiz-adv-x="1001" 
d="M-119 -436q-85 0 -168 22l74 340q33 -8 72 -8q142 0 192 156l127 389l66 201h-88h-111l55 256h226l39 122q33 102 81 178.5t101.5 123.5t120 76t129.5 39.5t137 10.5q129 0 233 -38l-69 -328q-60 12 -107 12q-150 0 -188 -121l-25 -75h240l-55 -256h-267l-198 -611
q-83 -253 -233.5 -371t-383.5 -118z" />
    <glyph glyph-name="AEacute" unicode="&#x1fc;" horiz-adv-x="2129" 
d="M1544 1874h522l-366 -315h-340zM2247 1434l-84 -400h-641l-31 -143h522l-71 -342h-523l-33 -150h642l-84 -399h-1078l52 246h-338l-146 -246h-588l928 1434h1473zM995 614l35 162l74 346q-163 -262 -277 -454l-30 -54h198z" />
    <glyph glyph-name="aeacute" unicode="&#x1fd;" horiz-adv-x="1951" 
d="M1229 1159h-309l167 316h476zM387 -37q-182 0 -288.5 70t-106.5 200q0 81 42.5 151.5t129.5 129t235 96.5t344 47l7 33q8 45 -17 73t-78 28q-106 0 -151 -117l-430 49q50 155 191.5 251.5t373.5 96.5q132 0 234.5 -36.5t158.5 -108.5q138 145 387 145q137 0 245 -47
t169.5 -130.5t79.5 -199t-25 -252.5h-696q-14 -86 2 -130t82 -44q54 0 92 31t72 90l432 -110q-31 -65 -81 -119.5t-121.5 -99.5t-171.5 -71t-218 -26q-137 0 -257 44.5t-181 125.5q-70 -76 -186 -123t-269 -47zM1231 637h235q17 66 -8.5 107.5t-81.5 41.5q-108 0 -145 -149z
M528 252q128 0 162 156l12 57q-106 -10 -172.5 -48t-66.5 -106q0 -27 17.5 -43t47.5 -16z" />
    <glyph glyph-name="Oslashacute" unicode="&#x1fe;" horiz-adv-x="1779" 
d="M1257 1559h-339l184 315h522zM360 90l-184 -139l-190 248l168 127q-60 135 -60 292q0 184 64 342t179 271t283 177.5t369 64.5q310 0 514 -125l189 143l186 -254l-168 -127q59 -124 59 -293q0 -184 -64 -341.5t-179 -271t-283 -177.5t-369 -64q-317 0 -514 127zM670 717
l190 145l221 168q-53 29 -129 29q-106 0 -174 -71.5t-94 -190.5q-7 -29 -14 -80zM895 352q111 0 187.5 76t107.5 197q11 48 14 104l-139 -106l-309 -234q60 -37 139 -37z" />
    <glyph glyph-name="oslashacute" unicode="&#x1ff;" horiz-adv-x="1370" 
d="M934 1159h-309l168 316h475zM649 -37q-261 0 -428 107l-149 -97l-146 209l137 86q-24 74 -24 160q0 192 87 338.5t244 225.5t361 79q257 0 414 -108l164 110l143 -211l-149 -100q28 -79 28 -168q0 -191 -87 -335t-241 -220t-354 -76zM553 586l111 71q78 51 131 86
q-28 54 -95 54q-50 0 -85 -35t-50 -98q-10 -40 -12 -78zM651 231q106 0 148 134q8 25 12 81l-125 -81l-123 -80q21 -54 88 -54z" />
    <glyph glyph-name="uni0218" unicode="&#x218;" horiz-adv-x="1560" 
d="M778 -37q-718 0 -770 443l574 96q22 -172 190 -172q84 0 130 28.5t46 75.5q0 37 -31 60.5t-88 31.5l-131 17q-125 16 -218 44t-152 65t-94.5 87t-49.5 103.5t-14 120.5q0 119 55.5 216t152 160t224 97t272.5 34q168 0 301 -32.5t219.5 -90.5t135.5 -134t59 -166l-583 -76
q-26 139 -170 139q-61 0 -97.5 -26.5t-36.5 -65.5q0 -47 41.5 -71.5t137.5 -35.5l114 -12q241 -26 374.5 -136.5t133.5 -289.5q0 -165 -93 -281.5t-254.5 -172.5t-377.5 -56zM563 -791h-205l297 328h-227l78 359h422l-78 -359z" />
    <glyph glyph-name="uni0219" unicode="&#x219;" horiz-adv-x="1202" 
d="M549 -37q-277 0 -420 91.5t-149 256.5l464 33q5 -55 31.5 -84t89.5 -29q50 0 79.5 18.5t29.5 51.5q0 51 -88 70l-133 28q-187 39 -274 110t-87 193q0 175 147.5 272t397.5 97q261 0 396.5 -84.5t148.5 -214.5l-473 -53q-5 43 -33 69.5t-80 26.5q-40 0 -63 -16.5
t-23 -42.5q0 -27 27 -41.5t96 -26.5l119 -22q378 -69 378 -332q0 -97 -46 -170t-127 -116t-183.5 -64t-224.5 -21zM348 -791h-205l297 328h-227l78 359h422l-78 -359z" />
    <glyph glyph-name="uni021A" unicode="&#x21a;" horiz-adv-x="1398" 
d="M860 0h-538l225 1065h-406l78 369h1350l-78 -369h-406zM420 -791h-205l297 328h-227l77 359h422l-77 -359z" />
    <glyph glyph-name="uni021B" unicode="&#x21b;" horiz-adv-x="980" 
d="M850 0h-305q-243 0 -331.5 99t-41.5 325l64 303h-187l66 307h186l66 307h477l-66 -307h205l-65 -307h-205l-68 -317q-12 -62 49 -62h232zM285 -791h-205l297 328h-227l77 359h422l-78 -359z" />
    <glyph glyph-name="uni0226" unicode="&#x226;" horiz-adv-x="1611" 
d="M897 1892h406l-78 -358h-406zM1518 0h-523l-10 223h-448l-109 -223h-553l766 1434h719zM756 668l-37 -76h248l-4 88q-11 241 -15 393q-150 -319 -192 -405z" />
    <glyph glyph-name="uni0227" unicode="&#x227;" horiz-adv-x="1310" 
d="M963 1137h-406l78 358h405zM350 -37q-153 0 -247.5 75.5t-94.5 199.5q0 68 25.5 126.5t83 110t144 89t214 62t287.5 31.5l6 27q12 50 -12 78.5t-78 28.5q-101 0 -127 -115l-485 51q18 70 65.5 130.5t124 109t192 76.5t257.5 28q277 0 411.5 -124.5t85.5 -350.5l-43 -201
q-8 -35 1.5 -51t43.5 -16h58l-70 -328h-231q-231 0 -234 154q-142 -191 -377 -191zM551 252q55 0 97.5 37.5t60.5 118.5l12 57q-104 -6 -172 -44t-68 -104q0 -29 18 -47t52 -18z" />
    <glyph glyph-name="uni0232" unicode="&#x232;" horiz-adv-x="1519" 
d="M1393 1559h-850l55 253h850zM915 0h-538l112 524l-319 910h539l26 -97l105 -381q140 208 260 383l65 95h576l-715 -918z" />
    <glyph glyph-name="uni0233" unicode="&#x233;" horiz-adv-x="1284" 
d="M453 1434h708l-53 -254h-709zM840 887l78 147h491l-608 -1085q-34 -61 -58.5 -100.5t-54 -80t-56.5 -64.5t-62 -46t-74.5 -33t-89 -17.5t-111.5 -6.5h-383l74 348h286q31 0 45.5 11.5t30.5 43.5l35 66l-326 964h490l33 -149q29 -134 84 -334z" />
    <glyph glyph-name="uni0237" unicode="&#x237;" horiz-adv-x="641" 
d="M45 -399h-319l69 327h125q44 0 60 70l219 1036h475l-221 -1046q-38 -183 -134.5 -285t-273.5 -102z" />
    <glyph glyph-name="circumflex" unicode="&#x2c6;" horiz-adv-x="1064" 
d="M563 1159h-385l301 316h512l170 -316h-364l-88 152z" />
    <glyph glyph-name="caron" unicode="&#x2c7;" horiz-adv-x="1064" 
d="M926 1159h-512l-170 316h364l82 -172l152 172h385z" />
    <glyph glyph-name="breve" unicode="&#x2d8;" horiz-adv-x="974" 
d="M649 1130q-197 0 -304 91t-101 254h276q0 -59 34.5 -94t102.5 -35q70 0 120 36t73 93h287q-108 -345 -488 -345z" />
    <glyph glyph-name="dotaccent" unicode="&#x2d9;" horiz-adv-x="509" 
d="M588 1137h-406l78 358h406z" />
    <glyph glyph-name="ring" unicode="&#x2da;" horiz-adv-x="677" 
d="M508 1104q-142 0 -217.5 74t-75.5 180q0 122 90.5 217.5t237.5 95.5q141 0 214.5 -74t73.5 -182q0 -77 -36.5 -147t-112 -117t-174.5 -47zM516 1305q41 0 67.5 26.5t26.5 69.5q0 31 -19 50t-54 19q-42 0 -68.5 -26t-26.5 -68q0 -32 20 -51.5t54 -19.5z" />
    <glyph glyph-name="ogonek" unicode="&#x2db;" horiz-adv-x="630" 
d="M133 -449q-109 0 -180.5 48t-71.5 145q0 115 101 201t268 127l209 -72q-80 -20 -137 -38.5t-86 -31.5t-45.5 -25.5t-19.5 -19t-3 -14.5q0 -35 59 -35q84 0 207 47l-59 -276q-115 -56 -242 -56z" />
    <glyph glyph-name="tilde" unicode="&#x2dc;" horiz-adv-x="1011" 
d="M856 1139q-53 0 -96.5 11.5t-59 20t-45.5 27.5l-43 27q-4 2 -19 11t-21 11.5t-18.5 6t-25.5 3.5q-35 0 -60 -26.5t-34 -71.5h-264q19 155 103.5 245.5t220.5 90.5q50 0 93.5 -11.5t61.5 -21.5t47 -28l45 -29q49 -29 84 -29t60.5 27t34.5 72h262q-19 -154 -104.5 -245
t-221.5 -91z" />
    <glyph glyph-name="hungarumlaut" unicode="&#x2dd;" horiz-adv-x="1114" 
d="M471 1159h-307l166 316h475zM979 1159h-309l168 316h473z" />
    <glyph glyph-name="uni0394" unicode="&#x394;" horiz-adv-x="1644" 
d="M641 1434h743l166 -1434h-1675zM735 629l-106 -221h368l-14 237l-12 200t-15 228q-144 -281 -221 -444z" />
    <glyph glyph-name="uni03A9" unicode="&#x3a9;" horiz-adv-x="1773" 
d="M711 0h-772l81 385h74h252q-98 44 -154.5 149.5t-56.5 221.5q0 153 71 287t191 227t283 146.5t342 53.5q122 0 226.5 -18.5t181 -50t137.5 -76t100.5 -94.5t66 -106.5t37.5 -111t11 -110.5q0 -189 -110.5 -326.5t-301.5 -191.5h242h84l-82 -385h-772l80 373
q140 50 211 173.5t71 278.5q0 111 -56.5 173.5t-166.5 62.5q-75 0 -137.5 -41.5t-102 -108.5t-61 -149t-21.5 -166q0 -92 32 -143t100 -80z" />
    <glyph glyph-name="uni03BC" unicode="&#x3bc;" horiz-adv-x="1298" 
d="M367 -399h-496l303 1433h496l-129 -612q-10 -52 10 -80.5t57 -28.5t68 28.5t41 80.5l129 612h485l-215 -1034h-469l31 139q-54 -65 -143 -114q-52 -25 -89 -37z" />
    <glyph glyph-name="pi" unicode="&#x3c0;" horiz-adv-x="1533" 
d="M567 0h-456l143 672h-184l77 362h1430l-78 -362h-188l-51 -244q-6 -32 8.5 -50t48.5 -18h117l-78 -360h-203q-435 0 -336 457l47 215h-153z" />
    <glyph glyph-name="Wgrave" unicode="&#x1e80;" horiz-adv-x="2281" 
d="M1497 1559h-340l-223 315h524zM862 0h-633l-39 1434h537l-6 -146q-15 -353 -29 -825q59 173 246 706l92 265h567l-12 -267l-26 -690q147 423 284 799l58 158h553l-596 -1434h-672l6 170q11 295 37 795q-208 -543 -295 -775z" />
    <glyph glyph-name="wgrave" unicode="&#x1e81;" horiz-adv-x="1794" 
d="M1178 1159h-310l-202 316h475zM668 0h-557l2 1034h436l-8 -119q-20 -307 -33 -559q129 365 199 553l45 125h483l-8 -114q-26 -348 -39 -555q99 270 201 540l49 129h463l-439 -1034h-573l10 238l19 424q-107 -275 -162 -426z" />
    <glyph glyph-name="Wacute" unicode="&#x1e82;" horiz-adv-x="2281" 
d="M1495 1559h-340l184 315h523zM862 0h-633l-39 1434h537l-6 -146q-15 -353 -29 -825q59 173 246 706l92 265h567l-12 -267l-26 -690q147 423 284 799l58 158h553l-596 -1434h-672l6 170q11 295 37 795q-208 -543 -295 -775z" />
    <glyph glyph-name="wacute" unicode="&#x1e83;" horiz-adv-x="1794" 
d="M1171 1159h-309l168 316h475zM668 0h-557l2 1034h436l-8 -119q-20 -307 -33 -559q129 365 199 553l45 125h483l-8 -114q-26 -348 -39 -555q99 270 201 540l49 129h463l-439 -1034h-573l10 238l19 424q-107 -275 -162 -426z" />
    <glyph glyph-name="Wdieresis" unicode="&#x1e84;" horiz-adv-x="2281" 
d="M1272 1559h-445l72 315h444zM1851 1559h-444l72 315h444zM862 0h-633l-39 1434h537l-6 -146q-15 -353 -29 -825q59 173 246 706l92 265h567l-12 -267l-26 -690q147 423 284 799l58 158h553l-596 -1434h-672l6 170q11 295 37 795q-208 -543 -295 -775z" />
    <glyph glyph-name="wdieresis" unicode="&#x1e85;" horiz-adv-x="1794" 
d="M961 1159h-404l66 316h403zM1487 1159h-404l66 316h403zM668 0h-557l2 1034h436l-8 -119q-20 -307 -33 -559q129 365 199 553l45 125h483l-8 -114q-26 -348 -39 -555q99 270 201 540l49 129h463l-439 -1034h-573l10 238l19 424q-107 -275 -162 -426z" />
    <glyph glyph-name="uni1E9E" unicode="&#x1e9e;" horiz-adv-x="1546" 
d="M897 -37q-207 0 -311 55l84 388q63 -35 149 -35q72 0 115 30.5t43 81.5q0 38 -31.5 63t-93.5 25h-145l61 303h127q59 0 95 30.5t36 78.5q0 38 -30 61t-87 23h-188l-225 -1067h-506l305 1434h770q111 0 198 -27.5t139.5 -74t79.5 -104t27 -122.5q0 -127 -94.5 -232.5
t-259.5 -136.5q56 -6 112 -29t105.5 -62t80 -101t30.5 -137q0 -108 -46 -194t-126.5 -140t-186 -82.5t-227.5 -28.5z" />
    <glyph glyph-name="Ygrave" unicode="&#x1ef2;" horiz-adv-x="1519" 
d="M1133 1559h-340l-224 315h525zM915 0h-538l112 524l-319 910h539l26 -97l105 -381q140 208 260 383l65 95h576l-715 -918z" />
    <glyph glyph-name="ygrave" unicode="&#x1ef3;" horiz-adv-x="1284" 
d="M870 1475l37 -316h-309l-203 316h475zM840 887l78 147h491l-608 -1085q-34 -61 -58.5 -100.5t-54 -80t-56.5 -64.5t-62 -46t-74.5 -33t-89 -17.5t-111.5 -6.5h-383l74 348h286q31 0 45.5 11.5t30.5 43.5l35 66l-326 964h490l33 -149q29 -134 84 -334z" />
    <glyph glyph-name="uni2002" unicode="&#x2002;" horiz-adv-x="1024" 
 />
    <glyph glyph-name="uni2003" unicode="&#x2003;" horiz-adv-x="2048" 
 />
    <glyph glyph-name="uni2009" unicode="&#x2009;" horiz-adv-x="256" 
 />
    <glyph glyph-name="uni200A" unicode="&#x200a;" horiz-adv-x="153" 
 />
    <glyph glyph-name="endash" unicode="&#x2013;" horiz-adv-x="1411" 
d="M1323 492h-1247l74 348h1247z" />
    <glyph glyph-name="emdash" unicode="&#x2014;" horiz-adv-x="1841" 
d="M1751 502h-1671l74 338h1671z" />
    <glyph glyph-name="quoteleft" unicode="&#x2018;" horiz-adv-x="614" 
d="M500 1434h231l-336 -379h258l-88 -416h-477l88 416z" />
    <glyph glyph-name="quoteright" unicode="&#x2019;" horiz-adv-x="600" 
d="M334 639h-232l336 379h-256l86 416h477l-88 -416z" />
    <glyph glyph-name="quotesinglbase" unicode="&#x201a;" horiz-adv-x="634" 
d="M133 -379h-231l336 379h-258l88 416h477l-88 -416z" />
    <glyph glyph-name="quotedblleft" unicode="&#x201c;" horiz-adv-x="1202" 
d="M500 1434h231l-336 -379h258l-88 -416h-477l88 416zM1087 1434h232l-336 -379h258l-88 -416h-477l88 416z" />
    <glyph glyph-name="quotedblright" unicode="&#x201d;" horiz-adv-x="1187" 
d="M334 639h-232l336 379h-256l86 416h477l-88 -416zM922 639h-232l336 379h-256l86 416h477l-88 -416z" />
    <glyph glyph-name="quotedblbase" unicode="&#x201e;" horiz-adv-x="1222" 
d="M133 -379h-231l336 379h-258l88 416h477l-88 -416zM721 -379h-232l336 379h-256l86 416h478l-89 -416z" />
    <glyph glyph-name="dagger" unicode="&#x2020;" horiz-adv-x="1390" 
d="M981 -182h-430v872h-397v389h397v355h430v-355h399v-389h-399v-872z" />
    <glyph glyph-name="daggerdbl" unicode="&#x2021;" horiz-adv-x="1519" 
d="M997 -182h-430v334h-397v389h397v149h-397v389h397v355h430v-355h400v-389h-400v-149h400v-389h-400v-334z" />
    <glyph glyph-name="bullet" unicode="&#x2022;" horiz-adv-x="1247" 
d="M662 195q-105 0 -200.5 40.5t-164.5 109t-109.5 161.5t-40.5 194q0 102 40.5 195.5t109.5 161.5t164.5 108.5t200.5 40.5q139 0 257.5 -68.5t187.5 -185t69 -252.5q0 -135 -69 -251.5t-187.5 -185t-257.5 -68.5z" />
    <glyph glyph-name="ellipsis" unicode="&#x2026;" horiz-adv-x="2072" 
d="M481 0h-501l94 438h501zM1188 0h-502l94 438h502zM1894 0h-501l94 438h502z" />
    <glyph glyph-name="perthousand" unicode="&#x2030;" horiz-adv-x="2508" 
d="M944 1110q0 -216 -122 -354t-314 -138q-169 0 -262.5 86.5t-93.5 241.5q0 219 121.5 363.5t308.5 144.5q169 0 265.5 -91.5t96.5 -252.5zM242 0l1300 1434h352l-1298 -1434h-354zM479 932q0 -82 35 -82q38 0 68 80.5t30 202.5q0 92 -39 92q-35 0 -64.5 -85t-29.5 -208z
M2075 815q169 0 265.5 -91.5t96.5 -252.5q0 -215 -122 -353t-314 -138q-144 0 -232 61q-99 -61 -223 -61q-169 0 -262.5 86t-93.5 241q0 219 121.5 363.5t308.5 144.5q144 0 233 -65q100 65 222 65zM1552 211q38 0 68.5 81t30.5 202q0 92 -39 92q-35 0 -64.5 -85t-29.5 -208
q0 -82 34 -82zM2007 211q38 0 68 80.5t30 202.5q0 92 -39 92q-35 0 -64.5 -85t-29.5 -208q0 -82 35 -82z" />
    <glyph glyph-name="guilsinglleft" unicode="&#x2039;" horiz-adv-x="862" 
d="M473 1034h467l-471 -559l188 -475h-411l-193 522z" />
    <glyph glyph-name="guilsinglright" unicode="&#x203a;" horiz-adv-x="862" 
d="M205 1034h411l193 -522l-420 -512h-467l471 559z" />
    <glyph glyph-name="fraction" unicode="&#x2044;" horiz-adv-x="409" 
d="M-229 0h-355l1301 1434h352z" />
    <glyph glyph-name="uni2070" unicode="&#x2070;" horiz-adv-x="929" 
d="M573 805q-169 0 -262.5 86.5t-93.5 241.5q0 219 121.5 363t308.5 144q169 0 266 -91.5t97 -252.5q0 -215 -122.5 -353t-314.5 -138zM580 1036q38 0 68 80.5t30 202.5q0 92 -39 92q-35 0 -64.5 -85t-29.5 -208q0 -82 35 -82z" />
    <glyph glyph-name="uni2074" unicode="&#x2074;" horiz-adv-x="935" 
d="M821 825h-282l28 136h-403l51 229l383 430h391l-94 -446h109l-46 -213h-108zM588 1174h24l9 40l32 150l-170 -190h105z" />
    <glyph glyph-name="uni2075" unicode="&#x2075;" horiz-adv-x="858" 
d="M535 805q-81 0 -146 17.5t-103 43t-64.5 59.5t-37.5 63.5t-14 58.5l297 43q3 -28 22.5 -45t45.5 -17q30 0 50.5 21.5t20.5 56.5q0 29 -16 45t-41 16q-42 0 -60 -47l-264 33l135 467h611l-49 -231h-367l-8 -27q-1 -3 -8.5 -27t-14.5 -53q46 55 146 55q102 0 168.5 -62
t66.5 -161q0 -141 -100.5 -225t-269.5 -84z" />
    <glyph glyph-name="uni2076" unicode="&#x2076;" horiz-adv-x="872" 
d="M553 805q-162 0 -250 85.5t-88 242.5q0 227 135.5 367t360.5 140q76 0 147 -17t103 -36l-48 -227q-100 51 -200 51q-175 0 -195 -131q22 31 65.5 50.5t96.5 19.5q108 0 176 -61.5t68 -168.5q0 -139 -104 -227t-267 -88zM553 1030q31 0 51.5 22t20.5 56q0 26 -17 43.5
t-43 17.5q-27 0 -47 -21t-20 -54q0 -29 15 -46.5t40 -17.5z" />
    <glyph glyph-name="uni2077" unicode="&#x2077;" horiz-adv-x="761" 
d="M524 825h-331q22 119 74 220t118 168t128 109.5t122 66.5h-141h-246l49 231h639l-57 -279q-138 -63 -229 -195.5t-126 -320.5z" />
    <glyph glyph-name="uni2078" unicode="&#x2078;" horiz-adv-x="864" 
d="M528 805q-162 0 -252 56.5t-90 158.5q0 76 58.5 137t152.5 86q-127 42 -127 148q0 109 103 179t264 70q140 0 227.5 -59.5t87.5 -153.5q0 -75 -49 -125.5t-139 -72.5q67 -21 104 -66.5t37 -101.5q0 -114 -104 -185t-273 -71zM604 1319q27 0 44.5 17t17.5 46q0 50 -52 50
q-26 0 -42.5 -19t-16.5 -47q0 -47 49 -47zM545 1026q31 0 50 21t19 51q0 55 -57 55q-31 0 -50.5 -21t-19.5 -55q0 -51 58 -51z" />
    <glyph glyph-name="uni2079" unicode="&#x2079;" horiz-adv-x="868" 
d="M467 805q-170 0 -274 53l51 229q111 -59 207 -59q102 0 151 51q25 28 35 68q-60 -60 -148 -60q-110 0 -174.5 64t-64.5 174q0 144 93 229.5t253 85.5q77 0 144.5 -26t109.5 -70q96 -99 96 -254q0 -221 -126.5 -353t-352.5 -132zM584 1268q31 0 52 23t21 59q0 29 -17 47
t-46 18t-49.5 -23t-20.5 -59q0 -29 16 -47t44 -18z" />
    <glyph glyph-name="uni20A9" unicode="&#x20a9;" horiz-adv-x="2275" 
d="M2333 1083l-58 -266h-231l-47 -123h176l-55 -266h-226l-168 -428h-540l12 178l51 787q-173 -491 -280 -785l-66 -180h-541l2 428h-204l55 266h149l3 123h-250l57 266h193l2 351h467l-9 -146q-21 -405 -49 -825q123 363 273 817l51 154h459l-11 -154q-41 -649 -49 -803
q104 311 273 801l53 156h461l-138 -351h185z" />
    <glyph glyph-name="Euro" unicode="&#x20ac;" horiz-adv-x="1607" 
d="M803 -37q-253 0 -414 121.5t-194 351.5h-138l47 226h109l20 92h-108l47 225h127q85 243 261.5 367t418.5 124q91 0 175 -18t161.5 -59t136.5 -101t98 -150t47 -200l-473 -92q-2 46 -13.5 87.5t-32.5 77t-56 56.5t-80 21q-114 0 -156 -113h88h89l-48 -225h-215
q-11 -32 -20 -92h215l-47 -226h-82h-88q10 -60 40 -78t93 -18q77 0 144 62.5t112 181.5l477 -150q-52 -125 -131.5 -217.5t-177 -147t-205 -80.5t-227.5 -26z" />
    <glyph glyph-name="uni20B9" unicode="&#x20b9;" horiz-adv-x="1298" 
d="M993 0h-555l-20 326q-6 89 -37 125t-111 36h-194l71 336h273q64 0 102.5 32t38.5 85q0 47 -35 70.5t-90 23.5h-243l83 400h1158l-64 -301h-166h-209q41 -55 47 -123h301l-53 -256h-346q-109 -102 -276 -113q52 -9 87.5 -20t70.5 -33t57.5 -55t40 -84t26.5 -121z" />
    <glyph glyph-name="uni20BA" unicode="&#x20ba;" horiz-adv-x="1617" 
d="M723 0h-551l31 154q20 108 33 168q-54 -25 -138 -62l-45 -20l64 305l186 82l25 114l-187 -82l66 306l186 84l82 385h455l-6 -31l-29 -137v-2l213 94l215 94l-63 -305l-431 -186l-22 -113l428 186l-66 -307l-428 -186l-24 -115h88q55 0 109.5 22t99.5 58.5t78.5 73
t62.5 77.5l399 -292q-68 -109 -148.5 -180.5t-184.5 -112t-220.5 -56.5t-277.5 -16z" />
    <glyph glyph-name="uni20BD" unicode="&#x20bd;" horiz-adv-x="1501" 
d="M1012 592h-310l-20 -103h405l-57 -266h-401l-45 -223h-475l47 223h-142l58 266h141l20 103h-141l62 287h141l117 555h632q237 0 368.5 -100.5t131.5 -291.5q0 -204 -149 -327t-383 -123zM936 1085h-135l-41 -206h158q57 0 90.5 34.5t33.5 77.5q0 40 -27 67t-79 27z" />
    <glyph glyph-name="uni20BF" unicode="&#x20bf;" horiz-adv-x="1472" 
d="M1104 737q135 -20 212 -99t77 -194q0 -135 -72.5 -233.5t-192 -149t-274.5 -59.5l-45 -213h-277l46 211h-101l-45 -211h-276l45 211h-201l303 1434h203l39 182h276l-39 -182h101l39 182h276l-41 -193q145 -26 226 -106.5t81 -198.5q0 -146 -97 -249.5t-263 -131.5z
M688 872h160q60 0 96.5 31.5t36.5 85.5q0 33 -27 56.5t-71 23.5h-152zM580 365h163q65 0 104.5 32.5t39.5 87.5q0 38 -27 62t-78 24h-157z" />
    <glyph glyph-name="uni2113" unicode="&#x2113;" 
d="M598 -37q-154 0 -262 43.5t-159 135t-27 223.5l4 22q-74 -4 -134 -4l54 256q84 8 131 14l82 394q25 117 79.5 202t129 131.5t155.5 68t172 21.5q230 0 355 -104t125 -281q0 -236 -189.5 -398t-523.5 -238l-17 -74q-18 -84 45 -84q38 0 72.5 39t48.5 98l453 -92
q-17 -50 -42.5 -96t-74 -98.5t-110.5 -90t-157.5 -63t-209.5 -25.5zM657 776q101 49 158 124t57 171q0 43 -20 68.5t-51 25.5q-34 0 -53 -25.5t-31 -84.5l-27 -121z" />
    <glyph glyph-name="uni2116" unicode="&#x2116;" horiz-adv-x="2850" 
d="M2339 582q-230 0 -361.5 100t-128.5 268q3 154 78 272t203 180t289 62q231 0 361.5 -105t127.5 -288q-3 -144 -78.5 -256t-203.5 -172.5t-287 -60.5zM512 0h-496l303 1434h664l211 -727q48 227 80 376l74 351h495l-303 -1434h-565l-270 907q-48 -214 -89 -409zM2351 844
q60 0 98.5 77.5t40.5 174.5q3 137 -84 137q-59 0 -97 -80.5t-40 -191.5q-3 -117 82 -117z" />
    <glyph glyph-name="uni2117" unicode="&#x2117;" horiz-adv-x="1927" 
d="M995 -170q-185 0 -349 68t-280 184.5t-183.5 277.5t-67.5 340q0 181 67.5 340.5t184 274t280 180.5t348.5 66q248 0 453 -112.5t323.5 -310.5t118.5 -438q0 -179 -70 -340t-189 -277.5t-285 -184.5t-351 -68zM999 88q177 0 313 82t207.5 220.5t71.5 309.5t-71.5 307.5
t-207.5 216t-313 79.5t-311 -79.5t-204 -216t-70 -307.5q0 -128 41 -240t115.5 -194.5t185 -130t243.5 -47.5zM967 291h-260v835h387q136 0 223.5 -74t87.5 -196t-87.5 -196t-223.5 -74h-127v-295zM967 950v-188h55q100 0 100 94t-100 94h-55z" />
    <glyph glyph-name="trademark" unicode="&#x2122;" horiz-adv-x="1982" 
d="M553 659h-262l119 562h-213l45 213h688l-45 -213h-213zM1139 659h-252l164 775h391l2 -103q2 -113 10 -338q108 232 152 330l49 111h405l-164 -775h-249l34 162l80 377l-262 -539h-213l-33 539q-4 -17 -82 -385z" />
    <glyph glyph-name="uni2126" unicode="&#x2126;" horiz-adv-x="1974" 
d="M924 0h-772v385h73h252q-140 43 -227.5 166.5t-87.5 288.5q0 56 13.5 115t44.5 121t76.5 118.5t113 107.5t150 88t193 58.5t236.5 21.5q174 0 318 -41.5t236.5 -107t156 -150.5t90.5 -168t27 -163q0 -165 -88 -288t-228 -167h242h84v-385h-772v373q67 26 107.5 65
t63.5 109.5t23 175.5q0 161 -67 249.5t-193 88.5q-125 0 -188.5 -87.5t-63.5 -250.5q0 -156 44 -234t143 -116v-373z" />
    <glyph glyph-name="uni2153" unicode="&#x2153;" horiz-adv-x="1984" 
d="M618 639h-309l64 299q6 29 19.5 88.5t19.5 89.5q-50 -87 -123 -125.5t-150 -36.5l68 314q103 2 171 41.5t111 124.5h297zM528 0h-354l1301 1434h352zM1516 -20q-168 0 -260.5 64.5t-100.5 178.5l295 47q1 -29 20.5 -46t49.5 -17q28 0 46.5 14.5t18.5 38.5q0 22 -17 34.5
t-46 12.5h-70l39 185h74q31 0 50 15t19 40q0 19 -14 31t-37 12q-55 0 -67 -62l-287 39q28 118 126.5 183t250.5 65q140 0 224.5 -56.5t84.5 -150.5q0 -77 -54 -133.5t-147 -73.5q158 -43 158 -174q0 -113 -97 -180t-259 -67z" />
    <glyph glyph-name="uni2154" unicode="&#x2154;" horiz-adv-x="2154" 
d="M807 639h-684l57 266q229 69 330.5 131.5t101.5 134.5q0 25 -14 39.5t-35 14.5q-34 0 -54.5 -31.5t-23.5 -85.5l-301 29q5 38 18 76.5t42.5 83.5t70.5 78.5t108 56t150 22.5q155 0 246.5 -67t91.5 -175q0 -116 -94 -204q-80 -74 -282 -138h239h82zM698 0h-354l1301 1434
h352zM1686 -20q-168 0 -260.5 64.5t-100.5 178.5l295 47q1 -29 20.5 -46t49.5 -17q28 0 46.5 14.5t18.5 38.5q0 22 -17 34.5t-46 12.5h-70l39 185h74q31 0 50 15t19 40q0 19 -14 31t-37 12q-55 0 -67 -62l-287 39q28 118 126.5 183t250.5 65q140 0 224.5 -56.5t84.5 -150.5
q0 -77 -54 -133.5t-147 -73.5q158 -43 158 -174q0 -113 -97 -180t-259 -67z" />
    <glyph glyph-name="uni2155" unicode="&#x2155;" horiz-adv-x="1998" 
d="M618 639h-309l64 299q6 29 19.5 88.5t19.5 89.5q-50 -87 -123 -125.5t-150 -36.5l68 314q103 2 171 41.5t111 124.5h297zM528 0h-354l1301 1434h352zM1520 -20q-81 0 -146 17t-103 42.5t-64.5 60t-37.5 63.5t-14 58l297 43q3 -28 22.5 -44.5t45.5 -16.5q30 0 50.5 21.5
t20.5 56.5q0 29 -16 45t-41 16q-41 0 -59 -47l-265 33l136 467h610l-49 -232h-367l-8 -26q-1 -3 -8.5 -27t-14.5 -53q46 55 146 55q102 0 168.5 -62t66.5 -161q0 -141 -100.5 -225t-269.5 -84z" />
    <glyph glyph-name="uni2156" unicode="&#x2156;" horiz-adv-x="2162" 
d="M803 639h-684l57 266q229 69 330.5 131.5t101.5 134.5q0 25 -14 39.5t-35 14.5q-34 0 -54.5 -31.5t-23.5 -85.5l-301 29q5 38 18 76.5t42.5 83.5t70.5 78.5t108 56t150 22.5q155 0 246.5 -67t91.5 -175q0 -116 -94 -204q-80 -74 -283 -138h240h82zM694 0h-354l1300 1434
h353zM1686 -20q-81 0 -146 17t-103 42.5t-64.5 60t-37.5 63.5t-14 58l297 43q3 -28 22.5 -44.5t45.5 -16.5q30 0 50.5 21.5t20.5 56.5q0 29 -16 45t-41 16q-42 0 -60 -47l-264 33l135 467h611l-49 -232h-367l-8 -26q-1 -3 -8.5 -27t-14.5 -53q46 55 146 55q102 0 168.5 -62
t66.5 -161q0 -141 -100.5 -225t-269.5 -84z" />
    <glyph glyph-name="uni2157" unicode="&#x2157;" horiz-adv-x="2121" 
d="M479 618q-167 0 -259.5 64.5t-100.5 179.5l295 47q1 -29 20 -46t49 -17q28 0 47 14.5t19 38.5q0 22 -17.5 34.5t-46.5 12.5h-69l39 184h73q31 0 50.5 15.5t19.5 40.5q0 19 -14 31t-37 12q-56 0 -68 -62l-286 39q28 119 126 183.5t250 64.5q140 0 225 -56.5t85 -150.5
q0 -77 -54 -133.5t-147 -73.5q158 -43 158 -174q0 -114 -97.5 -181t-259.5 -67zM651 0h-354l1300 1434h353zM1642 -20q-81 0 -146 17t-103 42.5t-64.5 60t-37 63.5t-13.5 58l297 43q3 -28 22 -44.5t45 -16.5q30 0 51 22t21 56q0 29 -16 45t-41 16q-42 0 -60 -47l-264 33
l135 467h611l-49 -232h-367l-8 -26q-1 -3 -8.5 -27t-14.5 -53q46 55 146 55q102 0 168.5 -62t66.5 -161q0 -141 -101 -225t-270 -84z" />
    <glyph glyph-name="uni2158" unicode="&#x2158;" horiz-adv-x="2207" 
d="M756 639h-283l29 135h-404l52 230l382 430h392l-95 -447h109l-45 -213h-109zM733 0h-354l1300 1434h353zM522 987h25l8 41l33 150l-170 -191h104zM1724 -20q-81 0 -146 17t-103 42.5t-64.5 60t-37 63.5t-13.5 58l297 43q3 -28 22 -44.5t45 -16.5q30 0 51 22t21 56
q0 29 -16 45t-41 16q-42 0 -60 -47l-264 33l135 467h611l-50 -232h-366l-8 -26q-1 -3 -8.5 -27t-14.5 -53q46 55 146 55q102 0 168.5 -62t66.5 -161q0 -141 -101 -225t-270 -84z" />
    <glyph glyph-name="uni2159" unicode="&#x2159;" horiz-adv-x="1996" 
d="M618 639h-309l64 299q6 29 19.5 88.5t19.5 89.5q-50 -87 -123 -125.5t-150 -36.5l68 314q103 2 171 41.5t111 124.5h297zM528 0h-354l1301 1434h352zM1524 -20q-163 0 -250.5 85t-87.5 242q0 227 135.5 367.5t359.5 140.5q76 0 147 -17t103 -36l-47 -227q-100 51 -201 51
q-174 0 -194 -131q22 31 65.5 50t96.5 19q108 0 175.5 -61t67.5 -168q0 -139 -103.5 -227t-266.5 -88zM1524 205q31 0 51 22t20 56q0 26 -16.5 43.5t-42.5 17.5q-27 0 -47.5 -21.5t-20.5 -54.5q0 -29 15.5 -46t40.5 -17z" />
    <glyph glyph-name="uni215A" unicode="&#x215a;" horiz-adv-x="2101" 
d="M481 618q-81 0 -146 17.5t-103 43t-64.5 59.5t-37 63.5t-13.5 58.5l297 43q3 -28 22 -44.5t45 -16.5q30 0 51 22t21 56q0 29 -16 45t-41 16q-42 0 -60 -47l-264 33l135 467h611l-50 -232h-366l-8 -26q-1 -3 -8.5 -27t-14.5 -53q46 55 145 55q102 0 169 -62t67 -161
q0 -141 -101 -225.5t-270 -84.5zM631 0h-355l1301 1434h352zM1626 -20q-163 0 -250.5 85t-87.5 242q0 227 136 367.5t360 140.5q76 0 147 -17t103 -36l-47 -227q-100 51 -201 51q-175 0 -195 -131q22 31 65.5 50t96.5 19q108 0 176 -61t68 -168q0 -139 -104 -227t-267 -88z
M1626 205q31 0 51.5 22t20.5 56q0 26 -17 43.5t-43 17.5q-27 0 -47 -21.5t-20 -54.5q0 -29 15 -46t40 -17z" />
    <glyph glyph-name="oneeighth" unicode="&#x215b;" horiz-adv-x="1984" 
d="M618 639h-309l64 299q6 29 19.5 88.5t19.5 89.5q-50 -87 -123 -125.5t-150 -36.5l68 314q103 2 171 41.5t111 124.5h297zM528 0h-354l1301 1434h352zM1495 -20q-162 0 -252 56.5t-90 158.5q0 76 58.5 137t152.5 86q-127 42 -127 147q0 109 103 179.5t264 70.5
q140 0 227.5 -59.5t87.5 -153.5q0 -75 -49.5 -126t-138.5 -73q67 -22 104 -66.5t37 -100.5q0 -114 -104 -185t-273 -71zM1571 494q27 0 44 17t17 46q0 49 -51 49q-26 0 -42.5 -18.5t-16.5 -46.5q0 -47 49 -47zM1511 201q31 0 50.5 20.5t19.5 50.5q0 56 -57 56
q-31 0 -50.5 -21t-19.5 -55q0 -51 57 -51z" />
    <glyph glyph-name="threeeighths" unicode="&#x215c;" horiz-adv-x="2105" 
d="M479 618q-167 0 -259.5 64.5t-100.5 179.5l295 47q1 -29 20 -46t49 -17q28 0 47 14.5t19 38.5q0 22 -17.5 34.5t-46.5 12.5h-69l39 184h73q31 0 50.5 15.5t19.5 40.5q0 19 -14 31t-37 12q-56 0 -68 -62l-286 39q28 119 126 183.5t250 64.5q140 0 225 -56.5t85 -150.5
q0 -77 -54 -133.5t-147 -73.5q158 -43 158 -174q0 -114 -97.5 -181t-259.5 -67zM651 0h-354l1300 1434h353zM1618 -20q-162 0 -252 56.5t-90 158.5q0 76 58.5 137t152.5 86q-127 42 -127 147q0 109 102.5 179.5t263.5 70.5q141 0 228.5 -59.5t87.5 -153.5q0 -75 -49.5 -126
t-139.5 -73q67 -22 104.5 -66.5t37.5 -100.5q0 -114 -104 -185t-273 -71zM1694 494q27 0 44 17t17 46q0 49 -51 49q-26 0 -42.5 -18.5t-16.5 -46.5q0 -47 49 -47zM1634 201q31 0 50.5 20.5t19.5 50.5q0 56 -57 56q-31 0 -50.5 -21t-19.5 -55q0 -51 57 -51z" />
    <glyph glyph-name="fiveeighths" unicode="&#x215d;" horiz-adv-x="2088" 
d="M481 618q-81 0 -146 17.5t-103 43t-64.5 59.5t-37 63.5t-13.5 58.5l297 43q3 -28 22 -44.5t45 -16.5q30 0 51 22t21 56q0 29 -16 45t-41 16q-42 0 -60 -47l-264 33l135 467h611l-50 -232h-366l-8 -26q-1 -3 -8.5 -27t-14.5 -53q46 55 145 55q102 0 169 -62t67 -161
q0 -141 -101 -225.5t-270 -84.5zM631 0h-355l1301 1434h352zM1597 -20q-162 0 -252 56.5t-90 158.5q0 76 58.5 137t152.5 86q-127 42 -127 147q0 109 103 179.5t264 70.5q140 0 227.5 -59.5t87.5 -153.5q0 -75 -49.5 -126t-138.5 -73q67 -22 104 -66.5t37 -100.5
q0 -114 -104 -185t-273 -71zM1673 494q27 0 44.5 17t17.5 46q0 49 -52 49q-26 0 -42.5 -18.5t-16.5 -46.5q0 -47 49 -47zM1614 201q31 0 50 20.5t19 50.5q0 56 -57 56q-31 0 -50.5 -21t-19.5 -55q0 -51 58 -51z" />
    <glyph glyph-name="seveneighths" unicode="&#x215e;" horiz-adv-x="1882" 
d="M426 0h-354l1300 1434h352zM477 639h-332q18 96 57 181.5t85 145.5t102 109.5t104 78.5t95 48h-142h-245l49 232h639l-58 -279q-138 -63 -228.5 -195.5t-125.5 -320.5zM1393 -20q-162 0 -252 56.5t-90 158.5q0 76 58.5 137t152.5 86q-127 42 -127 147q0 109 102.5 179.5
t263.5 70.5q141 0 228.5 -59.5t87.5 -153.5q0 -75 -49.5 -126t-139.5 -73q67 -22 104 -66.5t37 -100.5q0 -114 -104 -185t-272 -71zM1468 494q27 0 44.5 17t17.5 46q0 49 -51 49q-26 0 -43 -18.5t-17 -46.5q0 -47 49 -47zM1409 201q31 0 50.5 20.5t19.5 50.5q0 26 -15 41
t-43 15q-31 0 -50 -21t-19 -55q0 -51 57 -51z" />
    <glyph glyph-name="uni215F" unicode="&#x215f;" horiz-adv-x="985" 
d="M580 639h-310l64 299q6 29 19.5 88.5t19.5 89.5q-50 -87 -123 -125.5t-150 -36.5l68 314q103 2 171.5 42t111.5 124h297zM489 0h-354l1301 1434h352z" />
    <glyph glyph-name="arrowleft" unicode="&#x2190;" horiz-adv-x="1748" 
d="M1692 942v-450h-828q170 -138 299 -267l58 -57l-299 -297l-848 846l848 848l299 -299l-52 -52q-116 -116 -305 -272h828z" />
    <glyph glyph-name="arrowup" unicode="&#x2191;" horiz-adv-x="1759" 
d="M1157 0h-450v827q-138 -170 -267 -299l-57 -57l-297 299l846 848l848 -848l-299 -299l-51 51q-121 121 -273 305v-827z" />
    <glyph glyph-name="arrowright" unicode="&#x2192;" horiz-adv-x="1746" 
d="M141 492v450h828q-175 142 -299 266l-58 58l299 297l848 -846l-848 -848l-299 299l52 51q121 121 305 273h-828z" />
    <glyph glyph-name="arrowdown" unicode="&#x2193;" horiz-adv-x="1759" 
d="M686 1434h451v-828q142 175 266 299l57 58l297 -299l-846 -848l-848 848l299 299l52 -52q116 -116 272 -305v828z" />
    <glyph glyph-name="uni2196" unicode="&#x2196;" horiz-adv-x="1619" 
d="M983 1034l586 -583l-318 -320l-585 586q22 -215 22 -402v-77h-422v1196h1198v-422h-71q-151 0 -410 22z" />
    <glyph glyph-name="uni2197" unicode="&#x2197;" horiz-adv-x="1556" 
d="M1036 717l-583 -586l-320 318l586 585q-215 -22 -402 -22h-77v422h1196v-1198h-422v71q0 151 22 410z" />
    <glyph glyph-name="uni2198" unicode="&#x2198;" horiz-adv-x="1619" 
d="M719 399l-586 584l318 320l585 -586q-22 215 -22 401v78h422v-1196h-1198v422h71q140 0 410 -23z" />
    <glyph glyph-name="uni2199" unicode="&#x2199;" horiz-adv-x="1554" 
d="M602 717l584 586l319 -318l-585 -586q225 23 401 23h78v-422h-1196v1198h422v-72q0 -139 -23 -409z" />
    <glyph glyph-name="uni21A4" unicode="&#x21a4;" horiz-adv-x="1964" 
d="M1341 942v492h431v-1434h-431v492h-489q170 -138 299 -267l61 -61l-292 -293l-848 846l848 848l294 -293l-57 -58q-116 -116 -305 -272h489z" />
    <glyph glyph-name="uni21A5" unicode="&#x21a5;" horiz-adv-x="1828" 
d="M1174 920v-490h491v-430h-1434v430h492v490q-142 -175 -266 -299l-62 -62l-293 293l846 848l848 -848l-293 -295l-57 57q-111 111 -272 306z" />
    <glyph glyph-name="uni21A6" unicode="&#x21a6;" horiz-adv-x="1964" 
d="M836 1270l292 293l848 -846l-848 -848l-294 293l57 57q121 121 305 273h-489v-492h-431v1434h431v-492h489q-175 142 -299 266z" />
    <glyph glyph-name="uni21A7" unicode="&#x21a7;" horiz-adv-x="1832" 
d="M1456 813l62 61l292 -292l-845 -848l-848 848l293 295l57 -58q116 -116 272 -305v490h-491v430h1433v-430h-491v-490q142 175 266 299z" />
    <glyph glyph-name="uni21B0" unicode="&#x21b0;" horiz-adv-x="1916" 
d="M1755 942v-942h-430v492h-459q170 -138 299 -267l58 -57l-299 -297l-848 846l848 848l299 -299l-52 -52q-116 -116 -305 -272h889z" />
    <glyph glyph-name="uni21B1" unicode="&#x21b1;" horiz-adv-x="1808" 
d="M674 1266l299 297l848 -846l-848 -848l-299 299l51 51q121 121 305 273h-446v-492h-430v942h876q-175 142 -299 266z" />
    <glyph glyph-name="uni21B2" unicode="&#x21b2;" horiz-adv-x="1810" 
d="M1309 942v492h430v-942h-877q170 -138 299 -267l58 -57l-299 -297l-848 846l848 848l299 -299l-52 -52q-116 -116 -305 -272h447z" />
    <glyph glyph-name="uni21B3" unicode="&#x21b3;" horiz-adv-x="1916" 
d="M778 1266l299 297l848 -846l-848 -848l-299 299l51 51q117 117 306 273h-889v942h430v-492h459q-175 142 -299 266z" />
    <glyph glyph-name="partialdiff" unicode="&#x2202;" horiz-adv-x="1427" 
d="M709 -37q-87 0 -169.5 17.5t-161 57.5t-137.5 98.5t-94.5 147t-35.5 197.5q0 107 30.5 192t77.5 136t109 84.5t118 46t111 12.5q115 0 196 -41.5t117 -93.5q4 52 -9 96.5t-46.5 84t-100.5 62.5t-161 23q-173 0 -334 -77v397q171 67 422 67q107 0 210 -24.5t203 -83.5
t174.5 -146.5t120.5 -223.5t46 -304q0 -70 -10 -139.5t-34 -142t-60 -136.5t-91.5 -121t-124.5 -97.5t-163 -64.5t-203 -24zM733 356q60 0 96.5 37.5t36.5 100.5q0 58 -37 94.5t-96 36.5q-56 0 -95.5 -37.5t-39.5 -93.5q0 -61 38.5 -99.5t96.5 -38.5z" />
    <glyph glyph-name="uni2206" unicode="&#x2206;" horiz-adv-x="1800" 
d="M453 1434h743l469 -1434h-1675zM694 629l-59 -221h369l-66 237q-70 262 -117 428q-75 -251 -127 -444z" />
    <glyph glyph-name="product" unicode="&#x220f;" horiz-adv-x="2048" 
d="M225 1434h1821v-410h-236v-1206h-501v1206h-346v-1206h-502v1206h-236v410z" />
    <glyph glyph-name="summation" unicode="&#x2211;" horiz-adv-x="1796" 
d="M1614 -182h-1387v432l447 373l-447 434v377h1366v-410h-157h-539l414 -397l-477 -402h550h230v-407z" />
    <glyph glyph-name="minus" unicode="&#x2212;" horiz-adv-x="1257" 
d="M1196 549h-1061v348h1061v-348z" />
    <glyph glyph-name="uni2215" unicode="&#x2215;" horiz-adv-x="851" 
d="M205 -182h-406l928 1798h406z" />
    <glyph glyph-name="radical" unicode="&#x221a;" horiz-adv-x="1572" 
d="M1081 -182h-557l-237 700h-230v400h525l61 -197l154 -492q37 106 174 486l260 719h518z" />
    <glyph glyph-name="infinity" unicode="&#x221e;" horiz-adv-x="1851" 
d="M569 268q-113 0 -204 37.5t-146.5 100.5t-85 140.5t-29.5 162.5t29.5 162.5t85 140t146.5 100t204 37.5q245 0 398 -203q65 90 165 146.5t232 56.5q113 0 204 -37.5t146.5 -100t85 -140t29.5 -162.5t-29.5 -162.5t-85 -140.5t-146.5 -100.5t-204 -37.5q-251 0 -397 201
q-146 -201 -398 -201zM596 582q37 0 70 24t96 107q-88 123 -166 123q-43 0 -80 -31.5t-37 -95.5t37 -95.5t80 -31.5zM1335 582q43 0 80 31.5t37 95.5t-37 95.5t-80 31.5q-78 0 -166 -123q63 -83 96 -107t70 -24z" />
    <glyph glyph-name="integral" unicode="&#x222b;" horiz-adv-x="813" 
d="M229 -399h-231v428h63q103 0 103 106v873q0 207 113.5 316.5t306.5 109.5h231v-428h-63q-103 0 -103 -107v-872q0 -207 -113.5 -316.5t-306.5 -109.5z" />
    <glyph glyph-name="approxequal" unicode="&#x2248;" horiz-adv-x="1501" 
d="M1040 713q-111 0 -198 53l-62 37q-40 24 -55.5 32.5t-47 19.5t-59.5 11q-62 0 -104.5 -28.5t-75.5 -110.5l-305 166q48 167 152.5 259.5t249.5 92.5q70 0 123 -20t112 -56l68 -41q58 -36 118 -36q62 0 105 28.5t76 110.5l305 -166q-48 -167 -152.5 -259.5t-249.5 -92.5z
M1040 139q-109 0 -198 54l-62 36q-2 1 -17.5 10.5t-18.5 11t-16.5 9.5t-18 9.5t-16.5 7t-18.5 7.5t-17 4.5t-20 3.5t-19.5 1q-62 0 -104.5 -28.5t-75.5 -110.5l-305 165q48 167 152.5 260t249.5 93q70 0 123 -20t112 -56l68 -41q60 -37 118 -37q62 0 105 28.5t76 110.5
l305 -165q-48 -167 -152.5 -260t-249.5 -93z" />
    <glyph glyph-name="notequal" unicode="&#x2260;" horiz-adv-x="1339" 
d="M555 162h-309l84 153h-156v328h338l18 33l60 110h-207h-209v328h598l84 154h309l-84 -154h154v-328h-336l-31 -55q-8 -14 -23.5 -43.5t-23.5 -44.5h168h246v-328h-596z" />
    <glyph glyph-name="lessequal" unicode="&#x2264;" horiz-adv-x="1368" 
d="M1235 791v-357l-1061 209v485l1061 244v-354l-180 -31q-118 -21 -339 -56.5t-255 -41.5q45 -6 258.5 -34.5t327.5 -41.5zM1235 109h-1061v307h1061v-307z" />
    <glyph glyph-name="greaterequal" unicode="&#x2265;" horiz-adv-x="1423" 
d="M1292 678l-1061 -244v354l181 31q50 9 594 99q-574 74 -586 75l-189 23v356l1061 -209v-485zM1292 109h-1061v307h1061v-307z" />
    <glyph glyph-name="angleleft" unicode="&#x2329;" horiz-adv-x="831" 
d="M680 1567l326 -248l-570 -758l256 -754l-389 -135l-299 946z" />
    <glyph glyph-name="angleright" unicode="&#x232a;" horiz-adv-x="821" 
d="M180 1432l389 135l299 -946l-675 -949l-326 248l569 758z" />
    <glyph glyph-name="uni2460" unicode="&#x2460;" horiz-adv-x="1884" 
d="M946 -170q-195 0 -356.5 56.5t-273 158.5t-173 248.5t-61.5 322.5q0 202 73.5 378.5t199 300.5t297 195t362.5 71q195 0 356.5 -56.5t273 -158.5t173 -249t61.5 -323q0 -202 -73.5 -378.5t-199 -300t-297 -194.5t-362.5 -71zM918 88q142 0 263.5 48t209.5 135t138 216.5
t50 286.5q0 109 -34 204t-99 168t-169 115t-235 42q-142 0 -263.5 -48t-209.5 -135.5t-138 -217t-50 -286.5q0 -109 34 -203.5t99 -167.5t169 -115t235 -42zM1120 299h-309l63 299q6 30 19.5 89.5t19.5 88.5q-50 -87 -122.5 -125.5t-149.5 -36.5l68 314q103 2 171 41.5
t111 124.5h297z" />
    <glyph glyph-name="uni2461" unicode="&#x2461;" horiz-adv-x="1884" 
d="M946 -170q-195 0 -356.5 56.5t-273 158.5t-173 248.5t-61.5 322.5q0 202 73.5 378.5t199 300.5t297 195t362.5 71q195 0 356.5 -56.5t273 -158.5t173 -249t61.5 -323q0 -202 -73.5 -378.5t-199 -300t-297 -194.5t-362.5 -71zM918 88q142 0 263.5 48t209.5 135t138 216.5
t50 286.5q0 109 -34 204t-99 168t-169 115t-235 42q-142 0 -263.5 -48t-209.5 -135.5t-138 -217t-50 -286.5q0 -109 34 -203.5t99 -167.5t169 -115t235 -42zM1243 299h-684l57 266q229 69 331 131.5t102 134.5q0 25 -14.5 39.5t-35.5 14.5q-34 0 -54 -31.5t-23 -85.5
l-301 29q5 38 18 76.5t42.5 83.5t70.5 78.5t108 56t150 22.5q155 0 246.5 -67t91.5 -175q0 -115 -95 -204q-80 -74 -282 -138h239h82z" />
    <glyph glyph-name="uni2462" unicode="&#x2462;" horiz-adv-x="1884" 
d="M946 -170q-195 0 -356.5 56.5t-273 158.5t-173 248.5t-61.5 322.5q0 202 73.5 378.5t199 300.5t297 195t362.5 71q195 0 356.5 -56.5t273 -158.5t173 -249t61.5 -323q0 -202 -73.5 -378.5t-199 -300t-297 -194.5t-362.5 -71zM918 88q142 0 263.5 48t209.5 135t138 216.5
t50 286.5q0 109 -34 204t-99 168t-169 115t-235 42q-142 0 -263.5 -48t-209.5 -135.5t-138 -217t-50 -286.5q0 -109 34 -203.5t99 -167.5t169 -115t235 -42zM934 279q-168 0 -260.5 64.5t-100.5 178.5l295 47q1 -29 20.5 -46t49.5 -17q28 0 47 14.5t19 38.5q0 22 -17.5 34.5
t-46.5 12.5h-70l39 185h74q31 0 50.5 15t19.5 40q0 19 -14.5 31t-37.5 12q-55 0 -67 -62l-287 39q28 118 126.5 183t250.5 65q140 0 224.5 -56.5t84.5 -150.5q0 -77 -53.5 -133.5t-146.5 -73.5q157 -43 157 -174q0 -113 -97 -180t-259 -67z" />
    <glyph glyph-name="uni2463" unicode="&#x2463;" horiz-adv-x="1884" 
d="M946 -170q-195 0 -356.5 56.5t-273 158.5t-173 248.5t-61.5 322.5q0 202 73.5 378.5t199 300.5t297 195t362.5 71q195 0 356.5 -56.5t273 -158.5t173 -249t61.5 -323q0 -202 -73.5 -378.5t-199 -300t-297 -194.5t-362.5 -71zM918 88q142 0 263.5 48t209.5 135t138 216.5
t50 286.5q0 109 -34 204t-99 168t-169 115t-235 42q-142 0 -263.5 -48t-209.5 -135.5t-138 -217t-50 -286.5q0 -109 34 -203.5t99 -167.5t169 -115t235 -42zM1155 299h-283l29 135h-403l51 230l383 430h391l-94 -447h108l-45 -213h-108zM922 647h24l8 41l33 150l-170 -191
h105z" />
    <glyph glyph-name="uni2464" unicode="&#x2464;" horiz-adv-x="1884" 
d="M946 -170q-195 0 -356.5 56.5t-273 158.5t-173 248.5t-61.5 322.5q0 202 73.5 378.5t199 300.5t297 195t362.5 71q195 0 356.5 -56.5t273 -158.5t173 -249t61.5 -323q0 -202 -73.5 -378.5t-199 -300t-297 -194.5t-362.5 -71zM918 88q142 0 263.5 48t209.5 135t138 216.5
t50 286.5q0 109 -34 204t-99 168t-169 115t-235 42q-142 0 -263.5 -48t-209.5 -135.5t-138 -217t-50 -286.5q0 -109 34 -203.5t99 -167.5t169 -115t235 -42zM926 279q-81 0 -146 17t-103 42.5t-64.5 60t-37.5 63.5t-14 58l297 43q3 -28 22.5 -44.5t45.5 -16.5
q30 0 50.5 21.5t20.5 56.5q0 29 -16 45t-41 16q-41 0 -59 -47l-265 33l136 467h610l-49 -232h-367l-8 -26q-1 -3 -8.5 -27t-14.5 -53q46 55 146 55q102 0 168.5 -62t66.5 -161q0 -141 -100.5 -225t-269.5 -84z" />
    <glyph glyph-name="uni2465" unicode="&#x2465;" horiz-adv-x="1884" 
d="M946 -170q-195 0 -356.5 56.5t-273 158.5t-173 248.5t-61.5 322.5q0 202 73.5 378.5t199 300.5t297 195t362.5 71q195 0 356.5 -56.5t273 -158.5t173 -249t61.5 -323q0 -202 -73.5 -378.5t-199 -300t-297 -194.5t-362.5 -71zM918 88q142 0 263.5 48t209.5 135t138 216.5
t50 286.5q0 109 -34 204t-99 168t-169 115t-235 42q-142 0 -263.5 -48t-209.5 -135.5t-138 -217t-50 -286.5q0 -109 34 -203.5t99 -167.5t169 -115t235 -42zM915 279q-162 0 -249.5 85t-87.5 242q0 227 135.5 367.5t359.5 140.5q76 0 147 -17t103 -36l-47 -227
q-100 51 -201 51q-174 0 -194 -131q22 31 65 50t96 19q108 0 176 -61t68 -168q0 -139 -104 -227t-267 -88zM915 504q31 0 51.5 22t20.5 56q0 26 -16.5 43.5t-42.5 17.5q-27 0 -47.5 -21.5t-20.5 -54.5q0 -29 15 -46t40 -17z" />
    <glyph glyph-name="uni2466" unicode="&#x2466;" horiz-adv-x="1884" 
d="M946 -170q-195 0 -356.5 56.5t-273 158.5t-173 248.5t-61.5 322.5q0 202 73.5 378.5t199 300.5t297 195t362.5 71q195 0 356.5 -56.5t273 -158.5t173 -249t61.5 -323q0 -202 -73.5 -378.5t-199 -300t-297 -194.5t-362.5 -71zM918 88q142 0 263.5 48t209.5 135t138 216.5
t50 286.5q0 109 -34 204t-99 168t-169 115t-235 42q-142 0 -263.5 -48t-209.5 -135.5t-138 -217t-50 -286.5q0 -109 34 -203.5t99 -167.5t169 -115t235 -42zM981 299h-332q18 96 57 181.5t85 145.5t102 109.5t104 78.5t95 48h-142h-245l49 232h639l-58 -279
q-138 -63 -228.5 -195.5t-125.5 -320.5z" />
    <glyph glyph-name="uni2467" unicode="&#x2467;" horiz-adv-x="1884" 
d="M946 -170q-195 0 -356.5 56.5t-273 158.5t-173 248.5t-61.5 322.5q0 202 73.5 378.5t199 300.5t297 195t362.5 71q195 0 356.5 -56.5t273 -158.5t173 -249t61.5 -323q0 -202 -73.5 -378.5t-199 -300t-297 -194.5t-362.5 -71zM918 88q142 0 263.5 48t209.5 135t138 216.5
t50 286.5q0 109 -34 204t-99 168t-169 115t-235 42q-142 0 -263.5 -48t-209.5 -135.5t-138 -217t-50 -286.5q0 -109 34 -203.5t99 -167.5t169 -115t235 -42zM918 279q-162 0 -252.5 56.5t-90.5 158.5q0 76 58.5 137t152.5 86q-127 42 -127 147q0 109 103 179.5t264 70.5
q140 0 227.5 -59.5t87.5 -153.5q0 -75 -49.5 -126t-138.5 -73q67 -22 104 -66.5t37 -100.5q0 -114 -104 -185t-272 -71zM993 793q27 0 44.5 17t17.5 46q0 49 -51 49q-26 0 -43 -18.5t-17 -46.5q0 -47 49 -47zM934 500q31 0 50.5 20.5t19.5 50.5q0 26 -15 41t-43 15
q-31 0 -50 -21t-19 -55q0 -51 57 -51z" />
    <glyph glyph-name="uni2468" unicode="&#x2468;" horiz-adv-x="1884" 
d="M946 -170q-195 0 -356.5 56.5t-273 158.5t-173 248.5t-61.5 322.5q0 202 73.5 378.5t199 300.5t297 195t362.5 71q195 0 356.5 -56.5t273 -158.5t173 -249t61.5 -323q0 -202 -73.5 -378.5t-199 -300t-297 -194.5t-362.5 -71zM918 88q142 0 263.5 48t209.5 135t138 216.5
t50 286.5q0 109 -34 204t-99 168t-169 115t-235 42q-142 0 -263.5 -48t-209.5 -135.5t-138 -217t-50 -286.5q0 -109 34 -203.5t99 -167.5t169 -115t235 -42zM883 279q-171 0 -275 53l51 229q111 -59 207 -59q103 0 152 51q25 28 35 68q-60 -60 -148 -60q-110 0 -174.5 64
t-64.5 174q0 144 93 229.5t253 85.5q77 0 144.5 -26t109.5 -70q96 -99 96 -254q0 -221 -126.5 -353t-352.5 -132zM999 741q31 0 52.5 23t21.5 59q0 30 -17 48t-46 18t-49.5 -23t-20.5 -59q0 -29 15.5 -47.5t43.5 -18.5z" />
    <glyph glyph-name="uni24EA" unicode="&#x24ea;" horiz-adv-x="1884" 
d="M946 -170q-195 0 -356.5 56.5t-273 158.5t-173 248.5t-61.5 322.5q0 202 73.5 378.5t199 300.5t297 195t362.5 71q195 0 356.5 -56.5t273 -158.5t173 -249t61.5 -323q0 -202 -73.5 -378.5t-199 -300t-297 -194.5t-362.5 -71zM918 88q142 0 263.5 48t209.5 135t138 216.5
t50 286.5q0 109 -34 204t-99 168t-169 115t-235 42q-142 0 -263.5 -48t-209.5 -135.5t-138 -217t-50 -286.5q0 -109 34 -203.5t99 -167.5t169 -115t235 -42zM930 279q-169 0 -263 86t-94 241q0 219 122 363.5t309 144.5q169 0 265.5 -91.5t96.5 -252.5q0 -215 -122 -353
t-314 -138zM936 510q38 0 68 80.5t30 202.5q0 92 -39 92q-35 0 -64.5 -85t-29.5 -208q0 -82 35 -82z" />
    <glyph glyph-name="uni24FF" unicode="&#x24ff;" horiz-adv-x="1880" 
d="M911 -170q157 0 303.5 47t266.5 135.5t210 208.5t139.5 273t49.5 321q0 154 -57 289t-161.5 237t-265.5 161t-356 59t-372.5 -74.5t-308 -203.5t-208 -314t-77.5 -394q0 -154 57 -289t161.5 -236.5t264.5 -160.5t354 -59zM926 279q-169 0 -263 86t-94 241
q0 219 121.5 363.5t308.5 144.5q169 0 266 -91.5t97 -252.5q0 -215 -122 -353t-314 -138zM932 510q38 0 68 80.5t30 202.5q0 92 -39 92q-35 0 -64.5 -85t-29.5 -208q0 -82 35 -82z" />
    <glyph glyph-name="lozenge" unicode="&#x25ca;" horiz-adv-x="1452" 
d="M1008 0h-490l-428 715l412 719h491l453 -719zM852 530l109 185l-105 180q-83 141 -106 178q-53 -101 -95 -176l-94 -182l98 -187l91 -166q46 73 102 168z" />
    <glyph glyph-name="uni274C" unicode="&#x274c;" horiz-adv-x="1611" 
d="M848 442l-477 -475l-277 273l479 475l-479 475l277 276l479 -475l479 475l270 -276l-473 -471l478 -473l-277 -279z" />
    <glyph glyph-name="uni2776" unicode="&#x2776;" horiz-adv-x="1880" 
d="M911 -170q157 0 303.5 47t266.5 135.5t210 208.5t139.5 273t49.5 321q0 154 -57 289t-161.5 237t-265.5 161t-356 59t-372.5 -74.5t-308 -203.5t-208 -314t-77.5 -394q0 -154 57 -289t161.5 -236.5t264.5 -160.5t354 -59zM1116 299h-309l63 299q6 30 19.5 89.5t19.5 88.5
q-50 -87 -122.5 -125.5t-149.5 -36.5l68 314q103 2 171 41.5t111 124.5h297z" />
    <glyph glyph-name="uni2777" unicode="&#x2777;" horiz-adv-x="1880" 
d="M911 -170q157 0 303.5 47t266.5 135.5t210 208.5t139.5 273t49.5 321q0 154 -57 289t-161.5 237t-265.5 161t-356 59t-372.5 -74.5t-308 -203.5t-208 -314t-77.5 -394q0 -154 57 -289t161.5 -236.5t264.5 -160.5t354 -59zM1239 299h-684l57 266q229 69 330.5 131.5
t101.5 134.5q0 25 -14 39.5t-35 14.5q-34 0 -54 -31.5t-23 -85.5l-302 29q5 38 18 76.5t42.5 83.5t71 78.5t108.5 56t150 22.5q155 0 246 -66.5t91 -175.5q0 -116 -94 -204q-80 -74 -282 -138h239h82z" />
    <glyph glyph-name="uni2778" unicode="&#x2778;" horiz-adv-x="1880" 
d="M911 -170q157 0 303.5 47t266.5 135.5t210 208.5t139.5 273t49.5 321q0 154 -57 289t-161.5 237t-265.5 161t-356 59t-372.5 -74.5t-308 -203.5t-208 -314t-77.5 -394q0 -154 57 -289t161.5 -236.5t264.5 -160.5t354 -59zM930 279q-168 0 -260.5 64.5t-100.5 178.5
l295 47q1 -29 20.5 -46t49.5 -17q28 0 46.5 14.5t18.5 38.5q0 22 -17 34.5t-46 12.5h-70l39 185h74q31 0 50.5 15t19.5 40q0 19 -14.5 31t-37.5 12q-55 0 -67 -62l-287 39q28 118 126.5 183t250.5 65q140 0 224.5 -56.5t84.5 -150.5q0 -77 -54 -133.5t-147 -73.5
q158 -43 158 -174q0 -113 -97 -180t-259 -67z" />
    <glyph glyph-name="uni2779" unicode="&#x2779;" horiz-adv-x="1880" 
d="M911 -170q157 0 303.5 47t266.5 135.5t210 208.5t139.5 273t49.5 321q0 154 -57 289t-161.5 237t-265.5 161t-356 59t-372.5 -74.5t-308 -203.5t-208 -314t-77.5 -394q0 -154 57 -289t161.5 -236.5t264.5 -160.5t354 -59zM1151 299h-283l29 135h-403l51 230l383 430h391
l-94 -447h108l-45 -213h-108zM918 647h24l8 41l33 150l-170 -191h105z" />
    <glyph glyph-name="uni277A" unicode="&#x277a;" horiz-adv-x="1880" 
d="M911 -170q157 0 303.5 47t266.5 135.5t210 208.5t139.5 273t49.5 321q0 154 -57 289t-161.5 237t-265.5 161t-356 59t-372.5 -74.5t-308 -203.5t-208 -314t-77.5 -394q0 -154 57 -289t161.5 -236.5t264.5 -160.5t354 -59zM922 279q-81 0 -146 17t-103 42.5t-64.5 60
t-37.5 63.5t-14 58l297 43q3 -28 22.5 -44.5t45.5 -16.5q30 0 50.5 21.5t20.5 56.5q0 29 -16 45t-41 16q-41 0 -59 -47l-265 33l136 467h610l-49 -232h-367l-8 -26q-1 -3 -8.5 -27t-14.5 -53q46 55 146 55q102 0 168.5 -62t66.5 -161q0 -141 -100.5 -225t-269.5 -84z" />
    <glyph glyph-name="uni277B" unicode="&#x277b;" horiz-adv-x="1880" 
d="M911 -170q157 0 303.5 47t266.5 135.5t210 208.5t139.5 273t49.5 321q0 154 -57 289t-161.5 237t-265.5 161t-356 59t-372.5 -74.5t-308 -203.5t-208 -314t-77.5 -394q0 -154 57 -289t161.5 -236.5t264.5 -160.5t354 -59zM909 279q-163 0 -250.5 85t-87.5 242
q0 227 136 367.5t360 140.5q76 0 147 -17t103 -36l-47 -227q-100 51 -201 51q-175 0 -195 -131q22 31 65.5 50t96.5 19q108 0 176 -61t68 -168q0 -139 -104 -227t-267 -88zM909 504q31 0 51.5 22t20.5 56q0 26 -16.5 43.5t-42.5 17.5q-27 0 -47.5 -21.5t-20.5 -54.5
q0 -29 15 -46t40 -17z" />
    <glyph glyph-name="uni277C" unicode="&#x277c;" horiz-adv-x="1880" 
d="M911 -170q157 0 303.5 47t266.5 135.5t210 208.5t139.5 273t49.5 321q0 154 -57 289t-161.5 237t-265.5 161t-356 59t-372.5 -74.5t-308 -203.5t-208 -314t-77.5 -394q0 -154 57 -289t161.5 -236.5t264.5 -160.5t354 -59zM977 299h-332q18 96 56.5 181.5t84.5 145.5
t102 109.5t104 78.5t95 48h-141h-246l50 232h639l-58 -279q-138 -63 -228.5 -195.5t-125.5 -320.5z" />
    <glyph glyph-name="uni277D" unicode="&#x277d;" horiz-adv-x="1880" 
d="M911 -170q157 0 303.5 47t266.5 135.5t210 208.5t139.5 273t49.5 321q0 154 -57 289t-161.5 237t-265.5 161t-356 59t-372.5 -74.5t-308 -203.5t-208 -314t-77.5 -394q0 -154 57 -289t161.5 -236.5t264.5 -160.5t354 -59zM913 279q-162 0 -252 56.5t-90 158.5
q0 76 58.5 137t152.5 86q-127 42 -127 147q0 109 103 179.5t264 70.5q140 0 227.5 -59.5t87.5 -153.5q0 -75 -49.5 -126t-138.5 -73q67 -22 104 -66.5t37 -100.5q0 -114 -104 -185t-273 -71zM989 793q27 0 44.5 17t17.5 46q0 49 -52 49q-26 0 -42.5 -18.5t-16.5 -46.5
q0 -47 49 -47zM930 500q31 0 50 20.5t19 50.5q0 56 -57 56q-31 0 -50.5 -21t-19.5 -55q0 -51 58 -51z" />
    <glyph glyph-name="uni277E" unicode="&#x277e;" horiz-adv-x="1880" 
d="M911 -170q157 0 303.5 47t266.5 135.5t210 208.5t139.5 273t49.5 321q0 154 -57 289t-161.5 237t-265.5 161t-356 59t-372.5 -74.5t-308 -203.5t-208 -314t-77.5 -394q0 -154 57 -289t161.5 -236.5t264.5 -160.5t354 -59zM874 279q-170 0 -274 53l51 229q111 -59 207 -59
q103 0 152 51q23 27 34 68q-60 -60 -147 -60q-110 0 -175 64t-65 174q0 143 93.5 229t253.5 86q76 0 143.5 -26t109.5 -70q97 -100 97 -254q0 -221 -126.5 -353t-353.5 -132zM991 741q31 0 52.5 23t21.5 59q0 29 -17.5 47.5t-46.5 18.5t-49 -23t-20 -59q0 -29 15.5 -47.5
t43.5 -18.5z" />
    <glyph glyph-name="uni300A" unicode="&#x300a;" horiz-adv-x="1603" 
d="M680 1567l326 -248l-570 -758l256 -754l-389 -135l-299 946zM1491 1567l326 -248l-666 -844l242 -668l-389 -135l-291 858z" />
    <glyph glyph-name="uni300B" unicode="&#x300b;" horiz-adv-x="1593" 
d="M252 1432l389 135l291 -858l-778 -1037l-326 248l666 844zM952 1432l389 135l299 -946l-675 -949l-326 248l569 758z" />
    <glyph glyph-name="uni300C" unicode="&#x300c;" horiz-adv-x="858" 
d="M537 608h-428l200 938h750l-78 -360h-322z" />
    <glyph glyph-name="uni300D" unicode="&#x300d;" horiz-adv-x="849" 
d="M360 629h428l-200 -938h-750l78 360h322z" />
    <glyph glyph-name="uni300E" unicode="&#x300e;" horiz-adv-x="1257" 
d="M834 270h-791l270 1276h1102l-158 -741h-311zM557 1249l-143 -682h211l100 475h276l43 207h-487z" />
    <glyph glyph-name="uni300F" unicode="&#x300f;" horiz-adv-x="1234" 
d="M455 969h790l-270 -1276h-1102l158 741h311zM731 -10l143 682h-210l-101 -475h-276l-43 -207h487z" />
    <glyph glyph-name="uni3010" unicode="&#x3010;" horiz-adv-x="870" 
d="M745 -307h-825l393 1853h826q-473 -422 -576 -923q-107 -511 182 -930z" />
    <glyph glyph-name="uni3011" unicode="&#x3011;" horiz-adv-x="868" 
d="M168 1546h825l-393 -1853h-825q472 421 575 923q107 511 -182 930z" />
    <glyph glyph-name="uni3014" unicode="&#x3014;" horiz-adv-x="823" 
d="M1008 1284l-455 -383l-129 -622l285 -377l-303 -230l-408 531l172 839l600 525z" />
    <glyph glyph-name="uni3015" unicode="&#x3015;" horiz-adv-x="823" 
d="M158 1337l303 230l407 -531l-172 -839l-600 -525l-237 283l454 383l129 623z" />
    <glyph glyph-name="plus.alt" unicode="&#xe000;" horiz-adv-x="1572" 
d="M1034 0h-416v530h-497v369h497v535h416v-535h500v-369h-500v-530z" />
    <glyph glyph-name="minus.alt" unicode="&#xe001;" horiz-adv-x="1617" 
d="M1550 530h-1413v369h1413v-369z" />
    <glyph glyph-name="multiply.alt" unicode="&#xe002;" horiz-adv-x="1773" 
d="M928 442l-477 -475l-277 273l479 475l-479 475l277 276l479 -475l479 475l270 -276l-473 -471l477 -473l-276 -279z" />
    <glyph glyph-name="uniE003" unicode="&#xe003;" horiz-adv-x="1830" 
d="M1872 1292l-1038 -1323l-660 826l322 262l356 -443l715 922z" />
    <glyph glyph-name="uniE004" unicode="&#xe004;" horiz-adv-x="1966" 
d="M1815 1018h-1586v336h1586v-336zM1815 549h-1586v315h1586v-315zM1815 59h-1586v336h1586v-336z" />
    <glyph glyph-name="uniE005" unicode="&#xe005;" horiz-adv-x="1830" 
d="M1671 0h-1433v1405h1433v-1405zM571 1100v-795h766v795h-766z" />
    <glyph glyph-name="uniE006" unicode="&#xe006;" horiz-adv-x="1830" 
d="M1819 1323l-826 -1001l-403 483l209 184l67 -82q41 -51 127 -153q83 105 181 223l417 524zM1681 0h-1433v1405h897v-305h-563v-795h766v359h333v-664z" />
    <glyph glyph-name="uniE007" unicode="&#xe007;" horiz-adv-x="1830" 
d="M1671 0h-1433v1405h1433v-1405zM571 1100v-795h766v795h-766zM1157 483h-405v439h405v-439z" />
    <glyph glyph-name="uniE008" unicode="&#xe008;" horiz-adv-x="1841" 
d="M1761 1198l-792 -788l-793 788l281 272l41 -43q164 -172 247 -301v772h447v-772q81 126 248 301l41 43zM1688 0h-1434v410h1434v-410z" />
    <glyph glyph-name="uniE009" unicode="&#xe009;" horiz-adv-x="1841" 
d="M1784 1382l-793 -788l-792 788l280 273l41 -43q167 -175 248 -301v772h446v-772q81 126 248 301l41 43zM1708 0h-1434v410h1434v-410z" />
    <glyph glyph-name="uniF8FF" unicode="&#xf8ff;" horiz-adv-x="1986" 
d="M1444 719q130 -78 195 -248t65 -356q0 -162 -49 -336l-105 2q-31 20 -86 102q-25 -134 -84 -221l-51 6q-81 36 -134 72.5t-94 89.5t-59 126.5t-18 174.5q0 38 4 148q-2 -1 -43.5 -43t-91.5 -74q-50 35 -80 78t-39 84.5t-12.5 88t0.5 89.5q4 116 -6 160q-8 35 -31 63.5
t-41 41.5t-59 38q-33 20 -46.5 29t-43.5 32t-47 44t-38 55t-36 75l262 105l-43 69q-56 11 -133 33q-99 28 -162.5 95t-63.5 145q0 79 48.5 131.5t128.5 52.5q96 0 177 -50.5t132 -143.5q-25 95 -25 168q0 94 36.5 151t111.5 57q87 0 157 -56t70 -134q0 -52 -29.5 -112
t-59.5 -97.5t-83 -97.5l49 -88l115 45q87 -73 156 -170.5t106.5 -186t55.5 -146t24 -91.5z" />
    <glyph glyph-name="G.ss03" horiz-adv-x="1681" 
d="M836 -37q-746 0 -746 649q0 177 62.5 333t176.5 272.5t286.5 184.5t379.5 68q150 0 273 -32t199.5 -80t132 -111t80.5 -117t34 -106l-551 -147q-8 32 -21 60t-37 58t-64 48t-91 18q-73 0 -134.5 -42t-98.5 -108.5t-57.5 -144t-20.5 -154.5q0 -145 58 -216.5t157 -71.5
q73 0 133 34t86 105h-260l72 338h776q0 -142 -28.5 -265t-91.5 -229.5t-157.5 -182t-234 -118.5t-313.5 -43z" />
    <glyph glyph-name="Gbreve.ss03" horiz-adv-x="1681" 
d="M1098 1513q-217 0 -335 95.5t-112 267.5h305q0 -62 38 -98.5t112 -36.5q78 0 132.5 37t80.5 98h315q-120 -363 -536 -363zM836 -37q-746 0 -746 649q0 177 62.5 333t176.5 272.5t286.5 184.5t379.5 68q150 0 273 -32t199.5 -80t132 -111t80.5 -117t34 -106l-551 -147
q-8 32 -21 60t-37 58t-64 48t-91 18q-73 0 -134.5 -42t-98.5 -108.5t-57.5 -144t-20.5 -154.5q0 -145 58 -216.5t157 -71.5q73 0 133 34t86 105h-260l72 338h776q0 -142 -28.5 -265t-91.5 -229.5t-157.5 -182t-234 -118.5t-313.5 -43z" />
    <glyph glyph-name="Gcircumflex.ss03" horiz-adv-x="1681" 
d="M936 1559h-422l330 315h563l188 -315h-401l-96 151zM836 -37q-746 0 -746 649q0 177 62.5 333t176.5 272.5t286.5 184.5t379.5 68q150 0 273 -32t199.5 -80t132 -111t80.5 -117t34 -106l-551 -147q-8 32 -21 60t-37 58t-64 48t-91 18q-73 0 -134.5 -42t-98.5 -108.5
t-57.5 -144t-20.5 -154.5q0 -145 58 -216.5t157 -71.5q73 0 133 34t86 105h-260l72 338h776q0 -142 -28.5 -265t-91.5 -229.5t-157.5 -182t-234 -118.5t-313.5 -43z" />
    <glyph glyph-name="uni0122.ss03" horiz-adv-x="1681" 
d="M836 -37q-746 0 -746 649q0 177 62.5 333t176.5 272.5t286.5 184.5t379.5 68q150 0 273 -32t199.5 -80t132 -111t80.5 -117t34 -106l-551 -147q-8 32 -21 60t-37 58t-64 48t-91 18q-73 0 -134.5 -42t-98.5 -108.5t-57.5 -144t-20.5 -154.5q0 -145 58 -216.5t157 -71.5
q73 0 133 34t86 105h-260l72 338h776q0 -142 -28.5 -265t-91.5 -229.5t-157.5 -182t-234 -118.5t-313.5 -43zM670 -791h-205l297 328h-227l77 359h422l-78 -359z" />
    <glyph glyph-name="Gdotaccent.ss03" horiz-adv-x="1681" 
d="M1262 1534h-406l78 358h405zM836 -37q-746 0 -746 649q0 177 62.5 333t176.5 272.5t286.5 184.5t379.5 68q150 0 273 -32t199.5 -80t132 -111t80.5 -117t34 -106l-551 -147q-8 32 -21 60t-37 58t-64 48t-91 18q-73 0 -134.5 -42t-98.5 -108.5t-57.5 -144t-20.5 -154.5
q0 -145 58 -216.5t157 -71.5q73 0 133 34t86 105h-260l72 338h776q0 -142 -28.5 -265t-91.5 -229.5t-157.5 -182t-234 -118.5t-313.5 -43z" />
    <glyph glyph-name="a.ss01" horiz-adv-x="1347" 
d="M389 -37q-118 0 -200 58.5t-119 152.5t-37 217q0 127 33.5 248t94.5 217.5t156.5 155.5t208.5 59q68 0 125 -19t96 -51.5t65 -67.5t44 -75l37 176h491l-221 -1034h-491q14 69 30 139q-54 -75 -134.5 -125.5t-178.5 -50.5zM645 274q66 0 111.5 97t50.5 229q6 162 -96 162
q-63 0 -108 -97.5t-50 -228.5q-6 -162 92 -162z" />
    <glyph glyph-name="aacute.ss01" horiz-adv-x="1347" 
d="M944 1159h-309l168 316h475zM389 -37q-118 0 -200 58.5t-119 152.5t-37 217q0 127 33.5 248t94.5 217.5t156.5 155.5t208.5 59q68 0 125 -19t96 -51.5t65 -67.5t44 -75l37 176h491l-221 -1034h-491q14 69 30 139q-54 -75 -134.5 -125.5t-178.5 -50.5zM645 274
q66 0 111.5 97t50.5 229q6 162 -96 162q-63 0 -108 -97.5t-50 -228.5q-6 -162 92 -162z" />
    <glyph glyph-name="abreve.ss01" horiz-adv-x="1347" 
d="M823 1130q-197 0 -304 91t-101 254h276q0 -59 34.5 -94t102.5 -35q70 0 120 36t73 93h287q-108 -345 -488 -345zM389 -37q-118 0 -200 58.5t-119 152.5t-37 217q0 127 33.5 248t94.5 217.5t156.5 155.5t208.5 59q68 0 125 -19t96 -51.5t65 -67.5t44 -75l37 176h491
l-221 -1034h-491q14 69 30 139q-54 -75 -134.5 -125.5t-178.5 -50.5zM645 274q66 0 111.5 97t50.5 229q6 162 -96 162q-63 0 -108 -97.5t-50 -228.5q-6 -162 92 -162z" />
    <glyph glyph-name="acircumflex.ss01" horiz-adv-x="1347" 
d="M680 1159h-385l301 316h512l170 -316h-365l-88 152zM389 -37q-118 0 -200 58.5t-119 152.5t-37 217q0 127 33.5 248t94.5 217.5t156.5 155.5t208.5 59q68 0 125 -19t96 -51.5t65 -67.5t44 -75l37 176h491l-221 -1034h-491q14 69 30 139q-54 -75 -134.5 -125.5
t-178.5 -50.5zM645 274q66 0 111.5 97t50.5 229q6 162 -96 162q-63 0 -108 -97.5t-50 -228.5q-6 -162 92 -162z" />
    <glyph glyph-name="adieresis.ss01" horiz-adv-x="1347" 
d="M733 1159h-403l65 316h404zM1260 1159h-404l66 316h403zM389 -37q-118 0 -200 58.5t-119 152.5t-37 217q0 127 33.5 248t94.5 217.5t156.5 155.5t208.5 59q68 0 125 -19t96 -51.5t65 -67.5t44 -75l37 176h491l-221 -1034h-491q14 69 30 139q-54 -75 -134.5 -125.5
t-178.5 -50.5zM645 274q66 0 111.5 97t50.5 229q6 162 -96 162q-63 0 -108 -97.5t-50 -228.5q-6 -162 92 -162z" />
    <glyph glyph-name="uni0227.ss01" horiz-adv-x="1347" 
d="M999 1137h-405l78 358h405zM389 -37q-118 0 -200 58.5t-119 152.5t-37 217q0 127 33.5 248t94.5 217.5t156.5 155.5t208.5 59q68 0 125 -19t96 -51.5t65 -67.5t44 -75l37 176h491l-221 -1034h-491q14 69 30 139q-54 -75 -134.5 -125.5t-178.5 -50.5zM645 274
q66 0 111.5 97t50.5 229q6 162 -96 162q-63 0 -108 -97.5t-50 -228.5q-6 -162 92 -162z" />
    <glyph glyph-name="agrave.ss01" horiz-adv-x="1347" 
d="M950 1159h-309l-203 316h475zM389 -37q-118 0 -200 58.5t-119 152.5t-37 217q0 127 33.5 248t94.5 217.5t156.5 155.5t208.5 59q68 0 125 -19t96 -51.5t65 -67.5t44 -75l37 176h491l-221 -1034h-491q14 69 30 139q-54 -75 -134.5 -125.5t-178.5 -50.5zM645 274
q66 0 111.5 97t50.5 229q6 162 -96 162q-63 0 -108 -97.5t-50 -228.5q-6 -162 92 -162z" />
    <glyph glyph-name="amacron.ss01" horiz-adv-x="1347" 
d="M1151 1180h-709l54 254h708zM389 -37q-118 0 -200 58.5t-119 152.5t-37 217q0 127 33.5 248t94.5 217.5t156.5 155.5t208.5 59q68 0 125 -19t96 -51.5t65 -67.5t44 -75l37 176h491l-221 -1034h-491q14 69 30 139q-54 -75 -134.5 -125.5t-178.5 -50.5zM645 274
q66 0 111.5 97t50.5 229q6 162 -96 162q-63 0 -108 -97.5t-50 -228.5q-6 -162 92 -162z" />
    <glyph glyph-name="aogonek.ss01" horiz-adv-x="1347" 
d="M1384 1034l-221 -1034q-80 -20 -137 -38.5t-86 -31.5t-45.5 -25.5t-19.5 -19t-3 -14.5q0 -35 60 -35q84 0 207 47l-60 -276q-115 -56 -241 -56q-109 0 -180.5 48t-71.5 145q0 78 47.5 143.5t132.5 112.5h-94q14 69 30 139q-54 -75 -134.5 -125.5t-178.5 -50.5
q-118 0 -200 58.5t-119 152.5t-37 217q0 127 33.5 248t94.5 217.5t156.5 155.5t208.5 59q68 0 125 -19t96 -51.5t65 -67.5t44 -75l37 176h491zM645 274q66 0 111.5 97t50.5 229q6 162 -96 162q-63 0 -108 -97.5t-50 -228.5q-6 -162 92 -162z" />
    <glyph glyph-name="aring.ss01" horiz-adv-x="1347" 
d="M797 1118q-142 0 -217.5 74t-75.5 180q0 78 37.5 148.5t114 118t175.5 47.5q141 0 215 -74t74 -182q0 -77 -36.5 -147t-112 -117.5t-174.5 -47.5zM805 1319q41 0 67.5 26.5t26.5 69.5q0 31 -19.5 50.5t-54.5 19.5q-42 0 -68 -26t-26 -68q0 -32 20 -52t54 -20zM389 -37
q-118 0 -200 58.5t-119 152.5t-37 217q0 127 33.5 248t94.5 217.5t156.5 155.5t208.5 59q68 0 125 -19t96 -51.5t65 -67.5t44 -75l37 176h491l-221 -1034h-491q14 69 30 139q-54 -75 -134.5 -125.5t-178.5 -50.5zM645 274q66 0 111.5 97t50.5 229q6 162 -96 162
q-63 0 -108 -97.5t-50 -228.5q-6 -162 92 -162z" />
    <glyph glyph-name="atilde.ss01" horiz-adv-x="1347" 
d="M987 1139q-53 0 -96.5 11.5t-59 20t-45.5 27.5l-43 27q-4 2 -19 11t-21 11.5t-18.5 6t-25.5 3.5q-35 0 -60 -26.5t-34 -71.5h-264q19 155 103.5 245.5t220.5 90.5q50 0 93.5 -11.5t61.5 -21.5t47 -28l45 -29q49 -29 84 -29t60.5 27t34.5 72h262q-19 -154 -104.5 -245
t-221.5 -91zM389 -37q-118 0 -200 58.5t-119 152.5t-37 217q0 127 33.5 248t94.5 217.5t156.5 155.5t208.5 59q68 0 125 -19t96 -51.5t65 -67.5t44 -75l37 176h491l-221 -1034h-491q14 69 30 139q-54 -75 -134.5 -125.5t-178.5 -50.5zM645 274q66 0 111.5 97t50.5 229
q6 162 -96 162q-63 0 -108 -97.5t-50 -228.5q-6 -162 92 -162z" />
    <glyph glyph-name="g.ss02" horiz-adv-x="1361" 
d="M895 1034h504l-207 -977q-25 -116 -68 -201t-101.5 -141.5t-140 -90t-175 -47t-215.5 -13.5q-132 0 -234 24.5t-162 61t-99.5 87t-54.5 95t-18 92.5l527 58q6 -97 94 -97q53 0 85 29.5t50 108.5q25 111 27 122q-48 -56 -127.5 -89t-184.5 -33q-167 0 -259.5 116
t-92.5 303q0 117 33.5 228t95 201t160 145t217.5 55q123 0 210.5 -60t102.5 -134zM662 334q50 0 85 51t49.5 116.5t14.5 131.5q0 108 -88 108q-40 0 -70 -26.5t-46 -69.5t-24 -90t-8 -96q0 -60 23 -92.5t64 -32.5z" />
    <glyph glyph-name="gbreve.ss02" horiz-adv-x="1361" 
d="M856 1130q-197 0 -304 91t-101 254h276q0 -59 34.5 -94t102.5 -35q70 0 120 36t73 93h286q-108 -345 -487 -345zM895 1034h504l-207 -977q-25 -116 -68 -201t-101.5 -141.5t-140 -90t-175 -47t-215.5 -13.5q-132 0 -234 24.5t-162 61t-99.5 87t-54.5 95t-18 92.5l527 58
q6 -97 94 -97q53 0 85 29.5t50 108.5q25 111 27 122q-48 -56 -127.5 -89t-184.5 -33q-167 0 -259.5 116t-92.5 303q0 117 33.5 228t95 201t160 145t217.5 55q123 0 210.5 -60t102.5 -134zM662 334q50 0 85 51t49.5 116.5t14.5 131.5q0 108 -88 108q-40 0 -70 -26.5
t-46 -69.5t-24 -90t-8 -96q0 -60 23 -92.5t64 -32.5z" />
    <glyph glyph-name="gcircumflex.ss02" horiz-adv-x="1361" 
d="M946 1159l-88 152l-145 -152h-385l301 316h512l170 -316h-365zM895 1034h504l-207 -977q-25 -116 -68 -201t-101.5 -141.5t-140 -90t-175 -47t-215.5 -13.5q-132 0 -234 24.5t-162 61t-99.5 87t-54.5 95t-18 92.5l527 58q6 -97 94 -97q53 0 85 29.5t50 108.5
q25 111 27 122q-48 -56 -127.5 -89t-184.5 -33q-167 0 -259.5 116t-92.5 303q0 117 33.5 228t95 201t160 145t217.5 55q123 0 210.5 -60t102.5 -134zM662 334q50 0 85 51t49.5 116.5t14.5 131.5q0 108 -88 108q-40 0 -70 -26.5t-46 -69.5t-24 -90t-8 -96q0 -60 23 -92.5
t64 -32.5z" />
    <glyph glyph-name="uni0123.ss02" horiz-adv-x="1361" 
d="M879 1495h227l-78 -358h-422l78 358l287 328h205zM895 1034h504l-207 -977q-25 -116 -68 -201t-101.5 -141.5t-140 -90t-175 -47t-215.5 -13.5q-132 0 -234 24.5t-162 61t-99.5 87t-54.5 95t-18 92.5l527 58q6 -97 94 -97q53 0 85 29.5t50 108.5q25 111 27 122
q-48 -56 -127.5 -89t-184.5 -33q-167 0 -259.5 116t-92.5 303q0 117 33.5 228t95 201t160 145t217.5 55q123 0 210.5 -60t102.5 -134zM662 334q50 0 85 51t49.5 116.5t14.5 131.5q0 108 -88 108q-40 0 -70 -26.5t-46 -69.5t-24 -90t-8 -96q0 -60 23 -92.5t64 -32.5z" />
    <glyph glyph-name="gdotaccent.ss02" horiz-adv-x="1361" 
d="M705 1495h405l-78 -358h-405zM895 1034h504l-207 -977q-25 -116 -68 -201t-101.5 -141.5t-140 -90t-175 -47t-215.5 -13.5q-132 0 -234 24.5t-162 61t-99.5 87t-54.5 95t-18 92.5l527 58q6 -97 94 -97q53 0 85 29.5t50 108.5q25 111 27 122q-48 -56 -127.5 -89
t-184.5 -33q-167 0 -259.5 116t-92.5 303q0 117 33.5 228t95 201t160 145t217.5 55q123 0 210.5 -60t102.5 -134zM662 334q50 0 85 51t49.5 116.5t14.5 131.5q0 108 -88 108q-40 0 -70 -26.5t-46 -69.5t-24 -90t-8 -96q0 -60 23 -92.5t64 -32.5z" />
    <glyph glyph-name="i.loclTRK" horiz-adv-x="647" 
d="M705 1137h-498l76 358h497zM461 0h-498l221 1034h498z" />
    <glyph glyph-name="zero.osf" horiz-adv-x="1435" 
d="M676 -37q-293 0 -462 125.5t-169 347.5q0 142 54.5 261.5t149 201t225 127t280.5 45.5q291 0 461.5 -131t170.5 -354q0 -188 -93.5 -331t-254 -217.5t-362.5 -74.5zM686 270q82 0 136.5 97t54.5 227q0 164 -134 164q-81 0 -134.5 -97.5t-53.5 -226.5q0 -164 131 -164z
" />
    <glyph glyph-name="one.osf" horiz-adv-x="1026" 
d="M827 0h-497l86 401l41 177q-54 -105 -134.5 -178t-160 -104t-158.5 -32l105 494q315 14 473 276h467z" />
    <glyph glyph-name="two.osf" horiz-adv-x="1243" 
d="M1071 0h-1085l73 340q65 15 106.5 25t102 24.5t99.5 26t90.5 27t84.5 29t70.5 30t61 33t44 35.5t29.5 39t9 42q0 43 -32 65.5t-79 22.5q-35 0 -62.5 -16.5t-42.5 -41.5t-23 -46.5t-11 -40.5l-438 63q15 88 59.5 161t118.5 130.5t186.5 90t253.5 32.5q236 0 374 -91
t138 -228q0 -167 -143 -267q-136 -95 -359 -149h355h94z" />
    <glyph glyph-name="three.osf" horiz-adv-x="1294" 
d="M516 -436q-276 0 -429 112t-171 308l459 88q3 -144 135 -144q69 0 113.5 36.5t44.5 94.5q0 46 -36 72.5t-95 28.5l-185 4l64 323h194q67 0 112.5 30t45.5 91q0 37 -29 60.5t-75 23.5q-53 0 -89.5 -28.5t-62.5 -92.5l-461 76q41 186 208 305t419 119q133 0 237.5 -30
t169.5 -81.5t98.5 -117t33.5 -140.5q0 -160 -104 -259t-279 -130q129 -19 216 -105.5t87 -205.5q0 -142 -82 -242t-220 -148t-319 -48z" />
    <glyph glyph-name="four.osf" horiz-adv-x="1427" 
d="M989 -401h-446l84 401h-701l70 330l645 704h651l-149 -704h203l-70 -330h-203zM430 330h193h73l23 106q11 52 31.5 146t29.5 137z" />
    <glyph glyph-name="five.osf" horiz-adv-x="1261" 
d="M520 -436q-126 0 -230 28t-171.5 73t-114.5 103.5t-67 116t-21 113.5l444 70q9 -53 42 -89t94 -36q70 0 114.5 47t44.5 119q0 57 -35.5 87.5t-80.5 30.5q-88 0 -142 -92l-401 58l274 841h965l-82 -389h-625l-34 -119q-7 -25 -35 -112q90 96 266 96q77 0 148 -26
t128.5 -74t92 -124t34.5 -169q0 -132 -49 -238.5t-133 -174.5t-193 -104t-233 -36z" />
    <glyph glyph-name="six.osf" horiz-adv-x="1355" 
d="M662 -39q-120 0 -216.5 29.5t-163.5 82t-112 127t-65.5 162t-20.5 189.5q0 143 33.5 275.5t105.5 250.5t175.5 205t253.5 137.5t329 50.5q125 0 239 -25.5t158 -49.5l-80 -371q-163 70 -335 70q-58 0 -113.5 -14t-107 -42t-91 -77.5t-57.5 -114.5q85 100 274 100
q60 0 117.5 -12t115 -41.5t100.5 -74t70 -115t27 -158.5q0 -260 -171 -422t-465 -162zM672 344q68 0 117 46.5t49 119.5q0 57 -37 92t-94 35q-72 0 -117 -48t-45 -122q0 -57 33.5 -90t93.5 -33z" />
    <glyph glyph-name="seven.osf" horiz-adv-x="1161" 
d="M479 -403h-514q28 135 77.5 259t106 218.5t127.5 180.5t135 145.5t136 113t122.5 84t102.5 57.5h-309h-412l80 379h1108l-100 -479q-249 -120 -418.5 -366t-241.5 -592z" />
    <glyph glyph-name="eight.osf" horiz-adv-x="1318" 
d="M598 -37q-272 0 -420.5 97.5t-148.5 281.5q0 150 113 264.5t315 136.5q-273 49 -273 267q0 110 49.5 199t135 145t197 86t239.5 30q237 0 383.5 -104t146.5 -270q0 -156 -110 -254t-285 -119q131 -20 215 -99t84 -206q0 -110 -52 -198t-141 -143t-203.5 -84.5
t-244.5 -29.5zM741 881q72 0 117 41t45 110q0 48 -34 78.5t-99 30.5q-73 0 -119.5 -43.5t-46.5 -110.5q0 -48 35 -77t102 -29zM621 311q76 0 131 49.5t55 118.5q0 55 -40.5 89t-111.5 34q-77 0 -129.5 -45t-52.5 -127q0 -54 39 -86.5t109 -32.5z" />
    <glyph glyph-name="nine.osf" horiz-adv-x="1308" 
d="M365 -436q-161 0 -268.5 34t-159.5 72l79 375q66 -45 158 -73.5t186 -28.5q322 0 365 247q-35 -45 -105 -78.5t-176 -33.5q-58 0 -111.5 12.5t-105 43.5t-89 78t-60.5 121.5t-23 168.5q0 119 39.5 222t113.5 180.5t189 122t258 44.5q176 0 307 -79.5t198 -214.5t67 -306
q0 -143 -31.5 -274t-100 -247t-168 -201.5t-244 -135t-318.5 -49.5zM614 385q71 0 117.5 47.5t46.5 120.5q0 59 -35.5 94t-95.5 35q-69 0 -116.5 -46.5t-47.5 -119.5q0 -57 36.5 -94t94.5 -37z" />
    <glyph glyph-name="zero.tf" 
d="M571 -37q-118 0 -211.5 35.5t-160.5 106.5t-99 184t-24 260q7 138 40 270.5t93.5 250.5t141.5 207t192 141t237 52q115 0 208 -39t160 -114.5t100 -194t26 -268.5q-8 -139 -41.5 -269t-94 -243t-142 -197.5t-191 -133t-234.5 -48.5zM612 354q45 0 83 55.5t62 142.5
t38.5 177t19.5 174q8 180 -80 180q-45 0 -83.5 -55.5t-62.5 -142t-38.5 -177t-18.5 -173.5q-11 -181 80 -181z" />
    <glyph glyph-name="one.tf" 
d="M1159 1434l-227 -1045h252l-78 -389h-1096l78 389h371l67 307q36 147 54 236q-66 -136 -180 -222.5t-267 -86.5l111 503q329 19 461 308h454z" />
    <glyph glyph-name="two.tf" 
d="M1085 0h-1071l97 465q719 244 723 508q0 55 -26 83.5t-73 28.5q-67 0 -104.5 -69t-44.5 -160l-451 62q10 71 33 140t72 146t115.5 134t172.5 94.5t236 37.5q236 0 374.5 -118.5t135.5 -319.5q-2 -98 -41.5 -192.5t-112.5 -167.5q-39 -39 -91.5 -76t-97.5 -62t-115 -55.5
t-110.5 -46t-117.5 -43.5h403h174z" />
    <glyph glyph-name="three.tf" 
d="M580 -37q-274 0 -423.5 115t-152.5 323l461 80q0 -70 32.5 -103.5t90.5 -33.5q63 0 102 35t41 92q1 45 -32.5 70.5t-88.5 25.5h-164l68 318h178q61 0 98.5 29t38.5 87q2 36 -25.5 59t-76.5 23q-50 0 -81 -27t-50 -85l-453 73q56 201 216 313.5t419 112.5q236 0 369 -101
t131 -265q-3 -157 -104 -256.5t-265 -130.5q121 -21 201.5 -108.5t79.5 -207.5q-2 -107 -49.5 -191.5t-130.5 -138t-192 -81t-238 -27.5z" />
    <glyph glyph-name="four.tf" 
d="M938 0h-397l53 252h-635l78 354l629 828h585l-180 -828h176l-78 -354h-178zM608 606h66l18 90l76 353l-334 -443h174z" />
    <glyph glyph-name="five.tf" 
d="M592 -37q-127 0 -228 28t-162 71t-102.5 102t-59 112.5t-22.5 110.5l449 72q8 -52 37.5 -84.5t83.5 -32.5q63 0 102 46t41 118q1 58 -32 89.5t-76 31.5q-82 0 -121 -92l-393 57l241 842h969l-82 -390h-623l-32 -110q-3 -12 -35 -121q40 46 110 71t148 25q75 0 143 -24
t123.5 -70.5t87.5 -124t31 -176.5q-3 -135 -51 -241.5t-130 -173t-188 -101.5t-229 -35z" />
    <glyph glyph-name="six.tf" 
d="M610 -37q-137 0 -239 43.5t-163 123t-89.5 185t-26.5 236.5q2 143 35.5 276t101.5 250.5t164 204.5t232.5 137.5t298.5 50.5q115 0 217.5 -25t138.5 -50l-78 -383q-53 27 -134 48t-161 21q-110 0 -204.5 -58t-127.5 -175q80 98 246 98q53 0 104 -12t103 -42.5t90.5 -76
t62 -120t21.5 -167.5q-1 -119 -43 -222t-117 -179.5t-186.5 -120t-245.5 -43.5zM616 350q59 0 102 45t44 115q1 54 -30 87.5t-81 33.5q-61 0 -101 -46.5t-40 -115.5q-2 -56 26 -87.5t80 -31.5z" />
    <glyph glyph-name="seven.tf" 
d="M631 0h-539q22 109 60 212t82 184.5t102 159t110 134t115.5 111t108.5 88.5t99.5 68.5t79 48t56.5 30.5q11 6 15 8h-312h-413l81 390h1108l-102 -490q-145 -70 -260 -177t-191 -234.5t-124 -258t-76 -274.5z" />
    <glyph glyph-name="eight.tf" 
d="M582 -37q-260 0 -401.5 97t-141.5 282q0 147 109.5 262.5t285.5 138.5q-122 26 -187 96t-65 171q0 146 82.5 252.5t214 157t293.5 50.5q227 0 367.5 -104t140.5 -270q0 -78 -30.5 -144.5t-82 -112.5t-116 -76t-136.5 -40q51 -10 98.5 -34t88 -61.5t64.5 -92t24 -117.5
q0 -88 -32 -162.5t-88.5 -128t-133.5 -91t-166.5 -55.5t-187.5 -18zM715 881q62 0 99.5 38t37.5 101q0 45 -29 72.5t-84 27.5q-63 0 -102 -39.5t-39 -101.5q0 -44 30 -71t87 -27zM608 338q63 0 109.5 45.5t46.5 108.5q0 48 -34 79t-93 31q-64 0 -108 -41t-44 -115
q0 -49 32 -78.5t91 -29.5z" />
    <glyph glyph-name="nine.tf" 
d="M434 -37q-153 0 -255 34.5t-152 72.5l79 379q64 -45 150 -74t176 -29q154 0 248 68q78 56 100 180q-34 -45 -99.5 -79t-166.5 -34q-71 0 -135 21.5t-122 68t-92.5 132.5t-33.5 202q2 120 41 222t112.5 179t187 120.5t255.5 43.5q259 0 408 -161q73 -79 112 -191.5
t39 -243.5q-2 -144 -34 -275t-100 -248t-166 -202.5t-239.5 -135.5t-312.5 -50zM682 788q65 0 110.5 47.5t45.5 120.5q1 58 -32.5 93.5t-90.5 35.5q-66 0 -112.5 -46t-47.5 -119q0 -57 36 -94.5t91 -37.5z" />
    <glyph glyph-name="zero.subs" horiz-adv-x="929" 
d="M350 -242q-169 0 -262.5 86.5t-93.5 241.5q0 219 121.5 363.5t308.5 144.5q169 0 265.5 -91.5t96.5 -252.5q0 -216 -122 -354t-314 -138zM356 -10q39 0 69 80.5t30 201.5q0 93 -39 93q-35 0 -64.5 -85t-29.5 -208q0 -82 34 -82z" />
    <glyph glyph-name="one.subs" horiz-adv-x="710" 
d="M455 -221h-310l64 299q6 30 19.5 89t19.5 89q-50 -87 -123 -125.5t-150 -36.5l68 314q103 2 172 41.5t111 123.5h297z" />
    <glyph glyph-name="two.subs" horiz-adv-x="872" 
d="M635 -221h-684l57 266q229 69 330.5 131.5t101.5 134.5q0 25 -14 39.5t-35 14.5q-34 0 -54.5 -31.5t-23.5 -85.5l-301 28q5 38 18 77t42.5 83.5t70.5 78.5t108 56.5t150 22.5q155 0 246.5 -67t91.5 -175q0 -117 -94 -205q-78 -72 -283 -137h240h82z" />
    <glyph glyph-name="three.subs" horiz-adv-x="856" 
d="M317 -242q-167 0 -259.5 64.5t-100.5 179.5l295 47q1 -29 20.5 -46t49.5 -17q28 0 46.5 14.5t18.5 38.5q0 22 -17 34.5t-46 12.5h-70l39 184h74q31 0 50 15.5t19 40.5q0 19 -14 31t-37 12q-56 0 -68 -62l-286 39q28 118 126.5 183t250.5 65q140 0 224.5 -56.5
t84.5 -150.5q0 -77 -54 -133.5t-147 -73.5q158 -43 158 -174q0 -114 -97.5 -181t-259.5 -67z" />
    <glyph glyph-name="four.subs" horiz-adv-x="935" 
d="M598 -221h-283l29 135h-403l51 229l383 430h391l-94 -446h108l-45 -213h-108zM365 127h24l8 41l33 149l-170 -190h105z" />
    <glyph glyph-name="five.subs" horiz-adv-x="858" 
d="M313 -242q-81 0 -146 17.5t-103 43t-64.5 59.5t-37 63.5t-13.5 58.5l297 43q3 -28 22 -44.5t45 -16.5q30 0 51 21.5t21 55.5q0 29 -16.5 45.5t-40.5 16.5q-42 0 -60 -47l-264 32l135 467h611l-50 -231h-366l-8 -27q-1 -3 -8.5 -26.5t-14.5 -52.5q46 55 146 55
q102 0 168.5 -62t66.5 -161q0 -141 -101 -225.5t-270 -84.5z" />
    <glyph glyph-name="six.subs" horiz-adv-x="872" 
d="M332 -242q-162 0 -250 85.5t-88 242.5q0 227 135.5 367.5t359.5 140.5q76 0 147 -17t103 -36l-47 -228q-102 52 -200 52q-175 0 -195 -132q22 31 65.5 50.5t96.5 19.5q108 0 175.5 -61t67.5 -168q0 -139 -103.5 -227.5t-266.5 -88.5zM332 -16q31 0 51 21.5t20 55.5
q0 27 -16.5 44.5t-42.5 17.5q-27 0 -47.5 -21.5t-20.5 -54.5q0 -29 15.5 -46t40.5 -17z" />
    <glyph glyph-name="seven.subs" horiz-adv-x="761" 
d="M301 -221h-332q18 96 57 181.5t85 145.5t102 109.5t104 78.5t95 48h-142h-245l49 231h639l-58 -278q-138 -63 -228.5 -195.5t-125.5 -320.5z" />
    <glyph glyph-name="eight.subs" horiz-adv-x="864" 
d="M307 -242q-162 0 -252 56.5t-90 158.5q0 76 58.5 137.5t152.5 86.5q-127 42 -127 147q0 109 103 179.5t264 70.5q140 0 227.5 -59.5t87.5 -153.5q0 -75 -49.5 -126t-138.5 -73q67 -21 104 -66.5t37 -101.5q0 -114 -104 -185t-273 -71zM383 272q27 0 44 17.5t17 46.5
q0 49 -51 49q-26 0 -42.5 -19t-16.5 -47q0 -47 49 -47zM324 -20q31 0 50 20.5t19 50.5q0 55 -57 55q-31 0 -50.5 -20.5t-19.5 -54.5q0 -51 58 -51z" />
    <glyph glyph-name="nine.subs" horiz-adv-x="868" 
d="M246 -242q-169 0 -275 54l52 229q111 -59 206 -59q103 0 152 51q25 29 35 67q-59 -59 -148 -59q-110 0 -174.5 64t-64.5 174q0 144 93 229.5t253 85.5q77 0 144.5 -26t109.5 -70q96 -99 96 -254q0 -221 -126.5 -353.5t-352.5 -132.5zM362 221q31 0 52.5 23t21.5 59
q0 30 -17 48t-46 18t-49.5 -23t-20.5 -59q0 -29 15.5 -47.5t43.5 -18.5z" />
    <glyph glyph-name="zero.dnom" horiz-adv-x="929" 
d="M397 -20q-169 0 -262.5 86t-93.5 241q0 219 121.5 363.5t308.5 144.5q169 0 266 -91.5t97 -252.5q0 -215 -122.5 -353t-314.5 -138zM403 211q38 0 68.5 81t30.5 202q0 92 -39 92q-35 0 -64.5 -85t-29.5 -208q0 -82 34 -82z" />
    <glyph glyph-name="one.dnom" horiz-adv-x="710" 
d="M502 0h-309l63 299q6 29 19.5 88.5t19.5 89.5q-50 -87 -122.5 -125.5t-149.5 -36.5l67 314q103 2 171.5 42t111.5 124h297z" />
    <glyph glyph-name="two.dnom" horiz-adv-x="872" 
d="M682 0h-684l57 266q229 69 330.5 131.5t101.5 134.5q0 25 -14 39.5t-35 14.5q-34 0 -54.5 -31.5t-23.5 -85.5l-301 29q5 38 18 76.5t42.5 83.5t71 78.5t108.5 56t150 22.5q155 0 246 -66.5t91 -175.5q0 -116 -94 -204q-80 -74 -282 -138h239h82z" />
    <glyph glyph-name="three.dnom" horiz-adv-x="856" 
d="M362 -20q-168 0 -260 64.5t-100 178.5l295 47q1 -29 20.5 -46t49.5 -17q28 0 46.5 14.5t18.5 38.5q0 22 -17 34.5t-46 12.5h-70l39 185h74q31 0 50 15t19 40q0 19 -14 31t-37 12q-56 0 -68 -62l-286 39q28 118 126.5 183t250.5 65q140 0 224.5 -56.5t84.5 -150.5
q0 -77 -54 -133.5t-147 -73.5q158 -43 158 -174q0 -113 -97.5 -180t-259.5 -67z" />
    <glyph glyph-name="four.dnom" horiz-adv-x="935" 
d="M641 0h-283l29 135h-403l51 230l383 430h391l-94 -447h108l-45 -213h-108zM408 348h24l8 41l33 150l-170 -191h105z" />
    <glyph glyph-name="five.dnom" horiz-adv-x="858" 
d="M360 -20q-81 0 -146 17t-103 42.5t-64.5 60t-37 63.5t-13.5 58l297 43q3 -28 22 -44.5t45 -16.5q30 0 51 22t21 56q0 29 -16 45t-41 16q-42 0 -60 -47l-264 33l135 467h611l-49 -232h-367l-8 -26q-1 -3 -8.5 -27t-14.5 -53q46 55 146 55q102 0 168.5 -62t66.5 -161
q0 -141 -101 -225t-270 -84z" />
    <glyph glyph-name="six.dnom" horiz-adv-x="872" 
d="M379 -20q-163 0 -250.5 85t-87.5 242q0 227 136 367.5t360 140.5q76 0 146 -17t103 -36l-47 -227q-100 51 -200 51q-175 0 -195 -131q22 31 65.5 50t96.5 19q108 0 176 -61t68 -168q0 -139 -104 -227t-267 -88zM379 205q31 0 51.5 22t20.5 56q0 26 -17 43.5t-43 17.5
q-27 0 -47 -21.5t-20 -54.5q0 -29 15 -46t40 -17z" />
    <glyph glyph-name="seven.dnom" horiz-adv-x="761" 
d="M348 0h-332q18 96 57 181.5t85 145.5t102 109.5t104 78.5t95 48h-142h-245l49 232h639l-58 -279q-138 -63 -228.5 -195.5t-125.5 -320.5z" />
    <glyph glyph-name="eight.dnom" horiz-adv-x="864" 
d="M354 -20q-162 0 -252 56.5t-90 158.5q0 76 58.5 137t152.5 86q-127 42 -127 147q0 109 103 179.5t264 70.5q140 0 227.5 -59.5t87.5 -153.5q0 -75 -49.5 -126t-138.5 -73q67 -22 104 -66.5t37 -100.5q0 -114 -104 -185t-273 -71zM430 494q27 0 44.5 17t17.5 46
q0 49 -52 49q-26 0 -42.5 -18.5t-16.5 -46.5q0 -47 49 -47zM371 201q31 0 50 20.5t19 50.5q0 56 -57 56q-31 0 -50.5 -21t-19.5 -55q0 -51 58 -51z" />
    <glyph glyph-name="nine.dnom" horiz-adv-x="868" 
d="M293 -20q-171 0 -275 53l52 229q111 -59 206 -59q103 0 152 51q25 28 35 68q-60 -60 -148 -60q-110 0 -174.5 64t-64.5 174q0 144 93 229.5t253 85.5q77 0 144.5 -26t109.5 -70q96 -99 96 -254q0 -221 -126.5 -353t-352.5 -132zM410 442q31 0 52 23t21 59q0 30 -17 48
t-46 18t-49.5 -23t-20.5 -59q0 -29 16 -47.5t44 -18.5z" />
    <glyph glyph-name="zero.numr" horiz-adv-x="929" 
d="M532 618q-169 0 -262.5 86.5t-93.5 241.5q0 219 121.5 363.5t308.5 144.5q169 0 266 -91.5t97 -252.5q0 -215 -122.5 -353.5t-314.5 -138.5zM539 850q38 0 68 80.5t30 202.5q0 92 -39 92q-35 0 -64.5 -85t-29.5 -208q0 -82 35 -82z" />
    <glyph glyph-name="one.numr" horiz-adv-x="710" 
d="M637 639h-309l63 299q6 29 19.5 88.5t19.5 89.5q-50 -87 -122.5 -125.5t-149.5 -36.5l67 314q103 2 171.5 42t111.5 124h297z" />
    <glyph glyph-name="two.numr" horiz-adv-x="872" 
d="M817 639h-684l57 266q229 69 331 131.5t102 134.5q0 25 -14.5 39.5t-35.5 14.5q-34 0 -54 -31.5t-23 -85.5l-301 29q5 38 18 76.5t42.5 83.5t70.5 78.5t108 56t150 22.5q155 0 246.5 -67t91.5 -175q0 -115 -95 -204q-80 -74 -282 -138h239h82z" />
    <glyph glyph-name="three.numr" horiz-adv-x="856" 
d="M498 618q-168 0 -260.5 65t-100.5 179l295 47q1 -29 20.5 -46t49.5 -17q28 0 46.5 14.5t18.5 38.5q0 22 -17 34.5t-46 12.5h-70l39 184h74q31 0 50 15.5t19 40.5q0 19 -14 31t-37 12q-55 0 -67 -62l-287 39q28 118 126.5 183t250.5 65q140 0 224.5 -56.5t84.5 -150.5
q0 -77 -54 -133.5t-147 -73.5q158 -43 158 -174q0 -114 -97 -181t-259 -67z" />
    <glyph glyph-name="four.numr" horiz-adv-x="935" 
d="M782 639h-282l28 135h-403l51 230l383 430h391l-94 -447h109l-45 -213h-109zM549 987h24l9 41l32 150l-170 -191h105z" />
    <glyph glyph-name="five.numr" horiz-adv-x="858" 
d="M496 618q-81 0 -146 17.5t-103 43t-64.5 59.5t-37.5 63.5t-14 58.5l297 43q3 -28 22.5 -44.5t45.5 -16.5q30 0 50.5 21.5t20.5 56.5q0 29 -16 45t-41 16q-41 0 -59 -47l-265 33l136 467h610l-49 -232h-367l-8 -26q-1 -3 -8.5 -27t-14.5 -53q46 55 146 55q102 0 168.5 -62
t66.5 -161q0 -141 -100.5 -225.5t-269.5 -84.5z" />
    <glyph glyph-name="six.numr" horiz-adv-x="872" 
d="M514 618q-162 0 -250 85.5t-88 242.5q0 227 136 367.5t360 140.5q76 0 147 -17t103 -36l-48 -227q-100 51 -200 51q-175 0 -195 -131q22 31 65.5 50t96.5 19q108 0 176 -61t68 -168q0 -139 -104 -227.5t-267 -88.5zM514 844q31 0 51.5 22t20.5 56q0 26 -17 43.5t-43 17.5
q-27 0 -47 -21.5t-20 -54.5q0 -29 15 -46t40 -17z" />
    <glyph glyph-name="seven.numr" horiz-adv-x="761" 
d="M485 639h-331q18 96 56.5 181.5t84.5 145.5t102 109.5t104 78.5t95 48h-141h-246l49 232h639l-57 -279q-138 -63 -229 -195.5t-126 -320.5z" />
    <glyph glyph-name="eight.numr" horiz-adv-x="864" 
d="M489 618q-162 0 -252 56.5t-90 159.5q0 76 58.5 137t152.5 86q-127 42 -127 147q0 109 103 179.5t264 70.5q140 0 227.5 -59.5t87.5 -153.5q0 -75 -49.5 -126t-138.5 -73q67 -21 104 -66.5t37 -101.5q0 -114 -104 -185t-273 -71zM565 1133q27 0 44.5 17t17.5 46
q0 49 -52 49q-26 0 -42.5 -18.5t-16.5 -46.5q0 -47 49 -47zM506 840q31 0 50 20.5t19 50.5q0 56 -57 56q-31 0 -50 -21t-19 -55q0 -51 57 -51z" />
    <glyph glyph-name="nine.numr" horiz-adv-x="868" 
d="M428 618q-168 0 -274 54l51 229q111 -59 207 -59q102 0 151 51q25 28 35 68q-60 -60 -147 -60q-110 0 -175 64t-65 174q0 144 93 229.5t253 85.5q77 0 144.5 -26t109.5 -70q96 -99 96 -254q0 -221 -126.5 -353.5t-352.5 -132.5zM545 1081q31 0 52 23t21 59q0 30 -17 48
t-46 18t-49.5 -23t-20.5 -59q0 -29 16 -47.5t44 -18.5z" />
    <glyph glyph-name="exclamdown.case" horiz-adv-x="694" 
d="M285 1434h508l-93 -439h-507zM279 872h286l-2 -544l-69 -328h-512l69 328z" />
    <glyph glyph-name="questiondown.case" horiz-adv-x="1384" 
d="M647 1434h502l-92 -439h-502zM561 872h447q-11 -63 -23.5 -102t-41 -84t-80 -82.5t-132.5 -73.5q-102 -47 -136 -74t-34 -61t25 -53.5t76 -19.5q128 0 139 163l522 -69q-10 -66 -35.5 -125.5t-79 -121t-129.5 -106t-194.5 -72.5t-266.5 -28q-297 0 -450.5 103t-153.5 264
q0 56 17.5 105t44 84t68.5 67.5t80.5 54t90.5 45.5q113 51 159 77.5t62.5 48t24.5 60.5z" />
    <glyph glyph-name="period.tf" 
d="M797 0h-541l111 526h542z" />
    <glyph glyph-name="comma.tf" 
d="M434 -479h-262l383 479h-293l100 526h541l-98 -526z" />
    <glyph glyph-name="colon.tf" 
d="M965 797h-541l111 526h542zM797 0h-541l111 526h542z" />
    <glyph glyph-name="semicolon.tf" 
d="M965 797h-541l111 526h542zM418 -479h-262l391 479h-293l108 526h543l-108 -526z" />
    <glyph glyph-name="numbersign.tf" 
d="M326 0h-338l39 109q37 81 65 167h-53h-31l70 338h147l84 215h-98l70 338h159l103 267h344l-51 -134q-34 -76 -54 -133h82h54l102 267h342l-39 -99q-11 -27 -30 -84t-31 -84h57h31l-70 -338h-152l-84 -215h101l-70 -338h-164l-104 -276h-342l39 98q16 47 67 178h-102h-35z
M651 829l-86 -215h137l84 215h-135z" />
    <glyph glyph-name="parenleft.case" horiz-adv-x="813" 
d="M678 135l-76 -360q-120 9 -212 46t-151.5 95.5t-96.5 142t-52.5 177.5t-15.5 210q0 153 28 303.5t80 288.5t133 255t181.5 202.5t231 131.5t276.5 42l-76 -364q-104 -5 -193.5 -84.5t-147 -202.5t-90 -269.5t-32.5 -289.5q0 -306 213 -324z" />
    <glyph glyph-name="parenright.case" horiz-adv-x="811" 
d="M221 1311l76 360q120 -9 212 -46t151.5 -95.5t96.5 -142.5t52.5 -178t15.5 -210q0 -153 -27.5 -303.5t-80 -288.5t-133 -254.5t-181 -202t-231 -131.5t-276.5 -42l75 364q104 5 193.5 84.5t147 202.5t90 269.5t32.5 289.5q0 306 -213 324z" />
    <glyph glyph-name="braceleft.case" horiz-adv-x="851" 
d="M659 -205h-245q-189 0 -265 121t-30 340l41 190q15 73 -7.5 103t-95.5 29l60 288q74 0 106.5 22.5t44.5 78.5l78 356q41 187 134.5 256.5t299.5 69.5h275l-62 -289h-127q-60 0 -88 -28.5t-43 -102.5l-61 -285q-26 -120 -112.5 -174.5t-223.5 -62.5q276 -34 217 -316
l-41 -192q-13 -61 10 -88t84 -27h113z" />
    <glyph glyph-name="braceright.case" horiz-adv-x="851" 
d="M279 1649h245q189 0 265 -121t30 -340l-41 -191q-15 -73 7.5 -102.5t95.5 -28.5l-60 -288q-74 0 -106.5 -22.5t-44.5 -78.5l-78 -356q-41 -187 -134.5 -256.5t-299.5 -69.5h-275l62 289h127q60 0 88 28.5t43 102.5l61 285q26 120 112.5 174.5t223.5 62.5
q-276 34 -217 316l41 192q13 61 -10 88t-84 27h-113z" />
    <glyph glyph-name="bracketleft.case" horiz-adv-x="825" 
d="M627 -205h-676l391 1854h676l-66 -314h-250l-260 -1226h250z" />
    <glyph glyph-name="bracketright.case" horiz-adv-x="825" 
d="M285 1649h676l-392 -1854h-675l65 314h250l260 1226h-250z" />
    <glyph glyph-name="angleleft.case" horiz-adv-x="860" 
d="M719 1671l325 -248l-569 -757l256 -754l-389 -135l-299 946z" />
    <glyph glyph-name="angleright.case" horiz-adv-x="862" 
d="M217 1536l389 135l299 -946l-676 -948l-325 248l569 757z" />
    <glyph glyph-name="uni3010.case" horiz-adv-x="884" 
d="M776 -203h-825l393 1854h825q-471 -421 -575 -924q-107 -511 182 -930z" />
    <glyph glyph-name="uni3011.case" horiz-adv-x="884" 
d="M197 1651h825l-393 -1854h-826q473 422 576 924q107 511 -182 930z" />
    <glyph glyph-name="uni300C.case" horiz-adv-x="872" 
d="M567 711h-428l201 938h750l-78 -361h-322z" />
    <glyph glyph-name="uni300D.case" horiz-adv-x="870" 
d="M393 735h428l-200 -938h-750l78 361h321z" />
    <glyph glyph-name="uni300A.case" horiz-adv-x="1626" 
d="M719 1671l325 -248l-569 -757l256 -754l-389 -135l-299 946zM1530 1671l325 -248l-665 -843l242 -668l-390 -135l-290 858z" />
    <glyph glyph-name="uni300B.case" horiz-adv-x="1626" 
d="M281 1536l389 135l291 -858l-779 -1036l-325 248l665 843zM981 1536l389 135l299 -946l-676 -948l-325 248l569 757z" />
    <glyph glyph-name="uni3014.case" horiz-adv-x="837" 
d="M1036 1389l-454 -383l-129 -623l284 -377l-303 -229l-407 530l172 840l600 524z" />
    <glyph glyph-name="uni3015.case" horiz-adv-x="839" 
d="M188 1442l304 229l407 -530l-172 -840l-600 -524l-238 282l455 383l129 623z" />
    <glyph glyph-name="uni300E.case" horiz-adv-x="1280" 
d="M864 373h-790l270 1276h1102l-158 -742h-311zM588 1352l-144 -682h211l101 475h276l43 207h-487z" />
    <glyph glyph-name="uni300F.case" horiz-adv-x="1253" 
d="M487 1073h791l-270 -1276h-1102l157 742h312zM764 94l143 682h-211l-100 -475h-277l-43 -207h488z" />
    <glyph glyph-name="hyphen.case" horiz-adv-x="1079" 
d="M999 586h-895l78 368h895z" />
    <glyph glyph-name="uni00AD.case" horiz-adv-x="1079" 
d="M999 586h-895l78 368h895z" />
    <glyph glyph-name="endash.case" horiz-adv-x="1427" 
d="M1352 594h-1248l74 348h1247z" />
    <glyph glyph-name="emdash.case" horiz-adv-x="1857" 
d="M1778 600h-1672l74 338h1671z" />
    <glyph glyph-name="guillemotleft.case" horiz-adv-x="1480" 
d="M442 1202h467l-401 -555l201 -479h-412l-207 516zM1110 1202h467l-467 -624l184 -410h-411l-193 446z" />
    <glyph glyph-name="guillemotright.case" horiz-adv-x="1480" 
d="M256 1202h412l192 -446l-420 -588h-467l467 625zM842 1202h411l207 -516l-352 -518h-467l401 555z" />
    <glyph glyph-name="guilsinglleft.case" horiz-adv-x="876" 
d="M510 1202h467l-471 -559l188 -475h-411l-193 522z" />
    <glyph glyph-name="guilsinglright.case" horiz-adv-x="878" 
d="M254 1202h412l192 -522l-420 -512h-467l471 559z" />
    <glyph glyph-name="space.tf" 
 />
    <glyph glyph-name="uni20BF.tf" 
d="M1309 1118q-3 -145 -93.5 -249t-240.5 -132q122 -20 188.5 -99t63.5 -194q-3 -102 -42.5 -184t-107 -135.5t-155 -84.5t-191.5 -38l-47 -213h-248l45 211h-90l-45 -211h-250l47 211h-182l311 1434h183l39 182h249l-41 -182h91l41 182h247l-41 -193q129 -26 200.5 -106.5
t68.5 -198.5zM870 989q2 33 -22 56.5t-64 23.5h-137l-43 -197h144q54 0 87.5 31.5t34.5 85.5zM772 485q2 38 -22 62t-70 24h-141l-45 -206h147q58 0 94 32.5t37 87.5z" />
    <glyph glyph-name="cent.tf" 
d="M614 272q45 0 82.5 46.5t55.5 132.5l422 -68q-17 -77 -54 -145t-98 -130t-158 -101t-219 -44l-35 -184h-209l39 201q-165 37 -255.5 149t-90.5 291q0 271 154.5 451.5t400.5 197.5l35 186h209l-39 -202q156 -37 246 -146t98 -254l-424 -69q0 45 -7.5 82.5t-30.5 66.5
t-60 29q-38 0 -67.5 -34.5t-45.5 -88.5t-24.5 -112t-8.5 -113q0 -69 22 -105.5t62 -36.5z" />
    <glyph glyph-name="currency.tf" 
d="M406 311l-175 -149l-194 241l166 142q-21 56 -21 145q0 170 107 289l-119 145l236 197l116 -143q108 51 226 51q105 0 204 -47l164 139l205 -238l-172 -145q22 -51 22 -127q0 -73 -27 -152.5t-71 -142.5l127 -151l-235 -203l-127 153q-128 -49 -230 -49q-113 0 -202 45z
M664 614q62 0 100.5 44.5t38.5 105.5q0 49 -31 83t-82 34q-60 0 -100.5 -43.5t-40.5 -102.5q0 -52 30.5 -86.5t84.5 -34.5z" />
    <glyph glyph-name="dollar.tf" 
d="M606 -162h-246l39 164q-379 72 -397 424l469 96q11 -172 147 -172q69 0 107.5 29t40.5 76q1 36 -23 60t-69 32l-105 16q-126 19 -209.5 57t-127 94.5t-59 119.5t-13.5 149q3 114 48.5 209t121.5 158.5t175.5 99.5t211.5 41l31 145h245l-37 -168q168 -41 258.5 -148.5
t96.5 -252.5l-477 -76q-14 139 -132 139q-49 0 -78.5 -26t-31.5 -66q-1 -47 30.5 -71t108.5 -35l92 -12q193 -26 295.5 -136.5t98.5 -289.5q-6 -238 -164 -370t-414 -140z" />
    <glyph glyph-name="Euro.tf" 
d="M670 -37q-212 0 -353.5 119.5t-169.5 353.5h-129l48 226h79q10 74 13 92h-74l47 225h82q50 144 129.5 251.5t199 173.5t263.5 66q94 0 179.5 -30t158.5 -91t117.5 -166t46.5 -241l-392 -92q-14 242 -137 242q-87 0 -139 -113h86h76l-47 -225h-183q-11 -42 -14 -92h176
l-47 -226h-55h-70q15 -96 101 -96q63 0 111.5 60t86.5 184l385 -150q-42 -124 -107.5 -217t-143 -147.5t-158.5 -80.5t-166 -26z" />
    <glyph glyph-name="liraturkish.tf" 
d="M547 0h-479l32 154q20 108 33 168q-58 -31 -121 -62l-39 -20l66 305l164 82l26 114l-166 -82l68 306l166 84l84 385h395l-6 -31l-29 -137v-2l189 94l190 94l-67 -305l-379 -186l-25 -113l379 186l-67 -307l-379 -186l-25 -115h76q48 0 96 22t88.5 58.5t71 73t57.5 77.5
l336 -292q-63 -109 -135.5 -180.5t-164 -112t-194 -56.5t-241.5 -16z" />
    <glyph glyph-name="uni20BD.tf" 
d="M373 1434h551q205 0 316.5 -100.5t105.5 -291.5q-5 -135 -69 -238t-171 -157.5t-240 -54.5h-268l-23 -103h353l-60 -266h-348l-47 -223h-414l50 223h-123l59 266h121l22 103h-122l63 287h123zM907 991q2 39 -21.5 66.5t-68.5 27.5h-117l-43 -206h138q50 0 80 34.5
t32 77.5z" />
    <glyph glyph-name="uni20B9.tf" 
d="M979 0h-555l-21 326q-6 89 -37 125t-110 36h-195l72 336h273q64 0 102.5 32t38.5 85q0 47 -35 70.5t-90 23.5h-244l84 400h1157l-63 -301h-166h-209q41 -55 47 -123h301l-53 -256h-346q-109 -102 -277 -113q66 -11 108 -27t80 -49.5t61 -91.5t34 -145z" />
    <glyph glyph-name="sterling.tf" 
d="M1309 1049l-455 -93q6 73 -15 112.5t-65 39.5q-46 0 -74 -33.5t-30 -87.5q-2 -58 41 -151h319l-55 -265h-256q-56 -130 -234 -182h412h285l-84 -389h-1125l84 389q121 39 193 80.5t102 101.5h-256l58 265h157q-53 113 -51 196q6 208 150 323t389 115q241 0 378 -113.5
t132 -307.5z" />
    <glyph glyph-name="uni20A9.tf" 
d="M1028 1434h305l-106 -396h98l-53 -254h-115l-33 -122h121l-53 -254h-137l-111 -408h-362l12 129q19 197 31 336q-68 -200 -113 -338l-41 -127h-362l61 408h-137l53 254h123l18 122h-114l53 254h100l60 396h305l-33 -174q-70 -367 -154 -830q78 212 162 453l53 151h172
l-12 -155q-20 -243 -31 -449q75 299 199 830z" />
    <glyph glyph-name="yen.tf" 
d="M1014 1434h514l-455 -588h160l-49 -264h-295l-17 -93h291l-45 -235h-287l-45 -254h-485l45 254h-287l43 235h287l17 93h-283l49 264h156l-211 588h493l29 -134q71 -302 82 -346q112 189 209 346z" />
    <glyph glyph-name="multiply.case.tf" 
d="M674 461l-312 -322l-231 242l311 317l-311 322l234 240l311 -322l309 317l229 -235l-309 -320l309 -321l-231 -240z" />
    <glyph glyph-name="plus.tf" 
d="M856 199h-354v366h-352v330h352v367h354v-367h352v-330h-352v-366z" />
    <glyph glyph-name="minus.tf" 
d="M1178 559h-1008v330h1008v-330z" />
    <glyph glyph-name="multiply.tf" 
d="M676 479l-311 -305l-232 229l311 302l-311 305l234 227l311 -305l309 301l230 -223l-310 -303l310 -306l-232 -227z" />
    <glyph glyph-name="divide.tf" 
d="M866 969h-374v342h374v-342zM1229 569h-1102v308h1102v-308zM866 135h-374v342h374v-342z" />
    <glyph glyph-name="equal.tf" 
d="M1149 786h-954v328h954v-328zM1149 315h-954v328h954v-328z" />
    <glyph glyph-name="notequal.tf" 
d="M535 162h-279l76 153h-139v328h303l16 33q9 19 26.5 55.5t26.5 54.5h-186h-186v328h536l76 154h278l-75 -154h139v-328h-303l-27 -55q-4 -7 -43 -88h152h221v-328h-537z" />
    <glyph glyph-name="greater.tf" 
d="M1198 424l-989 -279l2 394l278 61l441 98q-75 17 -224.5 50.5t-224.5 50.5l-268 59l-4 395l989 -278v-551z" />
    <glyph glyph-name="less.tf" 
d="M147 975l992 278l-2 -393l-279 -61l-440 -99q75 -16 224 -49.5t224 -50.5l269 -59l4 -396l-992 279v551z" />
    <glyph glyph-name="greaterequal.tf" 
d="M1165 678l-954 -244v354l162 31q83 16 534 99q-59 8 -166.5 24t-195.5 28.5t-166 22.5l-168 23v356l954 -209v-485zM1165 109h-954v307h954v-307z" />
    <glyph glyph-name="lessequal.tf" 
d="M1130 791v-357l-954 209v485l954 244v-354l-161 -31q-104 -20 -293 -54t-242 -44q60 -9 165.5 -24.5t194.5 -28.5t167 -23zM1130 109h-954v307h954v-307z" />
    <glyph glyph-name="plusminus.tf" 
d="M811 508h-322v194h-317v308h317v245h322v-245h317v-308h-317v-194zM1128 109h-956v307h956v-307z" />
    <glyph glyph-name="approxequal.tf" 
d="M885 698q-96 0 -170 50l-51 34q-32 22 -47.5 32t-41.5 20t-51 10q-51 0 -87.5 -28t-63.5 -105l-260 157q40 159 129 247.5t213 88.5q59 0 104.5 -19.5t93.5 -54.5l58 -38q58 -35 102 -35q51 0 88 28t66 105l258 -158q-40 -159 -128.5 -246.5t-211.5 -87.5zM885 154
q-97 0 -170 49l-51 35q-30 21 -46.5 31.5t-42.5 20t-51 9.5q-51 0 -87.5 -28t-63.5 -105l-260 158q40 159 129 247t213 88q60 0 105.5 -19.5t92.5 -53.5l58 -39q58 -35 102 -35q51 0 88 28t66 105l258 -158q-40 -159 -128.5 -246t-211.5 -87z" />
    <glyph glyph-name="logicalnot.tf" 
d="M1120 291h-319v268h-635v348h954v-616z" />
    <glyph glyph-name="percent.tf" 
d="M401 803q-274 0 -274 276q0 97 38 184.5t115.5 147t178.5 59.5q270 0 270 -276q0 -99 -37 -187t-113.5 -146t-177.5 -58zM270 0h-243l1060 1434h246zM410 989q34 0 58.5 33.5t35 79t10.5 92.5q0 90 -65 90q-49 0 -77 -64.5t-28 -136.5q0 -94 66 -94zM895 -37
q-274 0 -274 277q0 97 37.5 184.5t115 147t178.5 59.5q271 0 271 -277q0 -99 -37 -187t-113.5 -146t-177.5 -58zM903 150q34 0 59 33.5t35.5 78.5t10.5 92q0 90 -66 90q-35 0 -59.5 -34t-34.5 -77.5t-10 -88.5q0 -94 65 -94z" />
    <glyph glyph-name="perthousand.tf" 
d="M365 807q-101 0 -156 60.5t-55 166.5q0 105 39 205t110 165.5t154 65.5q105 0 157 -61.5t52 -167.5q0 -105 -38.5 -204.5t-109 -164.5t-153.5 -65zM-82 0l1075 1434h211l-1075 -1434h-211zM438 1284q-38 0 -66 -84t-28 -147q0 -60 35 -60q27 0 50 45t33.5 97.5t10.5 89.5
q0 59 -35 59zM1014 629q92 0 140 -65.5t48 -168.5q0 -104 -34.5 -202.5t-100 -164t-145.5 -65.5q-96 0 -142 72q-69 -72 -147 -72t-123 59t-45 160q0 106 33.5 208t98 170.5t142.5 68.5q86 0 138 -66q63 66 137 66zM680 152q33 0 59.5 90.5t26.5 154.5q0 43 -29 43
q-33 0 -58.5 -91t-25.5 -152q0 -45 27 -45zM926 152q34 0 61 90.5t27 154.5q0 43 -29 43q-34 0 -61 -88.5t-27 -152.5q0 -47 29 -47z" />
    <glyph glyph-name="at.case" horiz-adv-x="2027" 
d="M1047 -262q-165 0 -310.5 33t-267.5 102.5t-209.5 169.5t-136.5 240t-49 309q0 155 45.5 300t135.5 268.5t215 215.5t294.5 144.5t363.5 52.5q156 0 297.5 -31t259.5 -93t204.5 -149t135 -205t48.5 -255q0 -179 -77 -317.5t-212.5 -212.5t-306.5 -74q-116 0 -185 48.5
t-82 125.5q-55 -83 -137 -128.5t-172 -45.5q-134 0 -207 88.5t-73 228.5q0 130 45.5 248t135 195t202.5 77q93 0 152.5 -38.5t86.5 -94.5l25 109h291l-95 -439q-12 -57 4 -81.5t64 -24.5q93 0 154 97.5t61 225.5q0 208 -166 333.5t-453 125.5q-143 0 -260 -33.5t-200.5 -95
t-140.5 -148t-84 -191t-27 -226.5q0 -139 48.5 -248t134 -178t199.5 -105t249 -36q310 0 571 153l131 -250q-146 -93 -332 -141.5t-370 -48.5zM1053 498q65 0 103 74.5t38 168.5q0 52 -20.5 80.5t-59.5 28.5q-67 0 -106 -76.5t-39 -161.5q0 -54 21.5 -84t62.5 -30z" />
    <glyph glyph-name="registered.case" horiz-adv-x="1927" 
d="M995 -170q-185 0 -349 68t-280 184.5t-183.5 277.5t-67.5 340q0 181 67.5 340.5t184 274t280 180.5t348.5 66q248 0 453 -112.5t323.5 -310.5t118.5 -438q0 -179 -70 -340t-189 -277.5t-285 -184.5t-351 -68zM999 88q177 0 313 82t207.5 220.5t71.5 309.5t-71.5 307.5
t-207.5 216t-313 79.5t-311 -79.5t-204 -216t-70 -307.5q0 -128 41 -240t115.5 -194.5t185 -130t243.5 -47.5zM918 291h-254v835h411q128 0 209.5 -64.5t81.5 -164.5q0 -90 -51.5 -143.5t-134.5 -69.5q85 -9 126 -52t56 -140l31 -201h-273l-18 186q-8 76 -32 108.5t-83 32.5
h-69v-327zM918 950v-159h69q105 0 105 81q0 78 -105 78h-69z" />
    <glyph glyph-name="section.tf" 
d="M524 -442q-130 0 -231 34.5t-160 93t-89 128.5t-30 147l400 51q1 -74 32 -110.5t80 -36.5q44 0 69.5 22t25.5 58q0 33 -22.5 58t-88.5 52l-139 60q-158 66 -238 152t-80 210q0 232 262 344q-75 94 -75 230q0 183 129.5 301t349.5 118q221 0 344.5 -103.5t136.5 -262.5
l-389 -64q-3 59 -29.5 91t-72.5 32q-35 0 -56.5 -22.5t-21.5 -53.5q0 -33 21 -54.5t89 -49.5l187 -74q148 -59 218.5 -143.5t70.5 -204.5q0 -237 -261 -352q72 -90 72 -225q0 -185 -133.5 -305.5t-370.5 -120.5zM760 358q57 60 57 113q0 49 -67 86l-181 90q-40 20 -65 35
q-33 -35 -46.5 -57.5t-13.5 -55.5q0 -28 15.5 -47.5t52.5 -38.5l176 -90z" />
    <glyph glyph-name="degree.tf" 
d="M776 762q-211 0 -341 126t-130 320t133 322.5t338 128.5q206 0 340.5 -128.5t134.5 -322.5q0 -197 -131.5 -321.5t-343.5 -124.5zM778 1053q63 0 108.5 44t45.5 115q0 68 -46 112t-108 44q-61 0 -107 -44t-46 -112q0 -72 44.5 -115.5t108.5 -43.5z" />
    </font>
</defs>
</svg>
