<?xml version="1.0" standalone="no"?>
<!DOCTYPE svg PUBLIC "-//W3C//DTD SVG 1.1//EN" "http://www.w3.org/Graphics/SVG/1.1/DTD/svg11.dtd" >
<svg xmlns="http://www.w3.org/2000/svg" xmlns:xlink="http://www.w3.org/1999/xlink" version="1.1">
<metadata>
Created by FontForge 20170731 at Wed Dec 29 09:47:03 2021
 By Aleksey,,,
Copyright 2021 Dinamo (Johannes Breyer, Fabian Harb) &#38; Erkin Karamemet. All rights reserved.
</metadata>
<defs>
<font id="ABCWhyte-BoldItalic" horiz-adv-x="1269" >
  <font-face 
    font-family="ABC Whyte"
    font-weight="700"
    font-style="italic"
    font-stretch="normal"
    units-per-em="2048"
    panose-1="2 11 0 4 4 2 2 6 2 3"
    ascent="1649"
    descent="-399"
    x-height="1024"
    cap-height="1434"
    bbox="-555 -686 2675 2038"
    underline-thickness="102"
    underline-position="-307"
    slope="-12"
    unicode-range="U+0020-FB02"
  />
<missing-glyph horiz-adv-x="1435" 
d="M1149 0h-1079l307 1444h1077zM575 1239l-219 -1034h592l219 1034h-592z" />
    <glyph glyph-name="fi" unicode="fi" horiz-adv-x="1345" 
d="M1047 1163l59 275h305l-57 -275h-307zM1319 1024l-217 -1024h-289l172 803h-401l-172 -803h-289l172 803h-197l45 221h197l31 141q28 129 97 199t196 70h331l-49 -232h-188q-93 0 -111 -90l-18 -88h690z" />
    <glyph glyph-name="fl" unicode="fl" horiz-adv-x="1349" 
d="M1405 1434l-307 -1434h-287l258 1202h-311q-93 0 -111 -90l-18 -88h235l-45 -221h-235l-172 -803h-289l172 803h-197l45 221h197l31 141q28 129 97 199t196 70h741z" />
    <glyph glyph-name="f_f" unicode="ff" horiz-adv-x="1474" 
d="M1683 1434l-49 -232h-188q-93 0 -111 -90l-18 -88h235l-45 -221h-235l-172 -803h-289l172 803h-399l-172 -803h-289l172 803h-197l45 221h197l31 141q28 129 97 199t196 70h331l-49 -232h-188q-93 0 -111 -90l-18 -88h399l31 141q28 129 97 199t196 70h331z" />
    <glyph glyph-name="f_f_i" unicode="ffi" horiz-adv-x="2031" 
d="M1733 1163l59 275h305l-57 -275h-307zM2005 1024l-217 -1024h-289l172 803h-399l-172 -803h-289l172 803h-399l-172 -803h-289l172 803h-197l45 221h197l31 141q28 129 97 199t196 70h331l-49 -232h-188q-93 0 -111 -90l-18 -88h399l31 141q28 129 97 199t196 70h331
l-49 -232h-188q-93 0 -111 -90l-18 -88h688z" />
    <glyph glyph-name="f_f_l" unicode="ffl" horiz-adv-x="2037" 
d="M2093 1434l-307 -1434h-287l258 1202h-311q-93 0 -111 -90l-18 -88h235l-45 -221h-235l-172 -803h-289l172 803h-399l-172 -803h-289l172 803h-197l45 221h197l31 141q28 129 97 199t196 70h331l-49 -232h-188q-93 0 -111 -90l-18 -88h399l31 141q28 129 97 199t196 70
h741z" />
    <glyph glyph-name=".notdef" horiz-adv-x="1435" 
d="M1149 0h-1079l307 1444h1077zM575 1239l-219 -1034h592l219 1034h-592z" />
    <glyph glyph-name=".null" horiz-adv-x="0" 
 />
    <glyph glyph-name="nonmarkingreturn" horiz-adv-x="682" 
 />
    <glyph glyph-name="space" unicode=" " horiz-adv-x="485" 
 />
    <glyph glyph-name="exclam" unicode="!" horiz-adv-x="600" 
d="M369 514h-133l30 594l70 326h319l-69 -326zM358 0h-335l69 322h336z" />
    <glyph glyph-name="quotedbl" unicode="&#x22;" horiz-adv-x="870" 
d="M369 766h-131l-5 403l58 265h293l-56 -265zM768 766h-131l-4 403l57 265h293l-55 -265z" />
    <glyph glyph-name="numbersign" unicode="#" horiz-adv-x="1556" 
d="M383 0h-250l41 100q37 87 107 246h-187h-55l53 234h291l111 272h-246l55 256h301l137 326h250l-35 -82q-56 -125 -104 -244h188h80l137 326h250l-37 -82q-37 -81 -102 -244h182h56l-56 -256h-290l-111 -272h244l-52 -234h-294l-148 -346h-250l41 100q52 121 107 246h-189
h-78zM743 852l-112 -272h268l111 272h-267z" />
    <glyph glyph-name="dollar" unicode="$" horiz-adv-x="1277" 
d="M571 -203h-184l43 197q-167 44 -262 155.5t-113 256.5l273 83q9 -71 51 -135.5t108 -101.5l76 352l-41 17q-60 24 -95.5 41.5t-81 50.5t-70.5 71t-42.5 97.5t-17.5 134.5q0 205 144 327.5t393 122.5l39 170h184l-45 -196q97 -27 169 -85.5t112.5 -130t58.5 -157.5
l-262 -84q-32 136 -136 197l-73 -336l39 -15q56 -21 101 -43t91.5 -56.5t77.5 -74.5t50.5 -97t19.5 -124q0 -224 -147 -345.5t-423 -121.5zM627 897l18 82q24 100 53 238q-90 0 -139 -46t-49 -114q0 -59 26.5 -97.5t90.5 -62.5zM664 215q100 6 156.5 54t56.5 124
q0 58 -34 93t-106 63l-30 -143q-10 -50 -43 -191z" />
    <glyph glyph-name="percent" unicode="%" horiz-adv-x="1929" 
d="M506 592q-157 0 -244.5 93.5t-87.5 260.5q-1 135 50 251.5t140.5 185.5t194.5 69q155 0 244.5 -95t89.5 -261q0 -210 -112.5 -357t-274.5 -147zM487 0h-276l1325 1434h274zM502 780q62 0 109.5 95.5t47.5 218.5q0 170 -96 170q-60 0 -108.5 -97.5t-46.5 -216.5
q0 -170 94 -170zM1456 -18q-157 0 -244.5 93.5t-87.5 260.5q-1 135 50 251.5t140.5 185.5t194.5 69q155 0 244.5 -95.5t89.5 -261.5q0 -210 -112.5 -356.5t-274.5 -146.5zM1452 170q62 0 110 95t48 218q0 170 -97 170q-60 0 -108 -97.5t-47 -215.5q0 -170 94 -170z" />
    <glyph glyph-name="ampersand" unicode="&#x26;" horiz-adv-x="1462" 
d="M549 -33q-243 0 -371.5 108t-128.5 285q0 79 24.5 145t71.5 118t105 92.5t137 77.5q-25 92 -25 188q0 132 51 241.5t151.5 176.5t232.5 67q184 0 283.5 -86.5t99.5 -216.5q0 -156 -116.5 -268t-361.5 -209q54 -86 142 -174q46 -46 106 -90q90 111 146 303l235 -125
q-57 -176 -155 -313q103 -52 223 -90l-80 -226q-166 42 -332 131q-95 -64 -209.5 -99.5t-228.5 -35.5zM623 885l65 28q234 102 234 230q0 45 -33.5 76.5t-93.5 31.5q-86 0 -133.5 -77.5t-47.5 -200.5q0 -45 9 -88zM567 201q105 0 191 57q-59 47 -203 211q-40 45 -82 115
q-69 -38 -103 -91t-34 -110q0 -86 58.5 -134t172.5 -48z" />
    <glyph glyph-name="quotesingle" unicode="'" horiz-adv-x="497" 
d="M369 766h-131l-5 403l58 265h293l-56 -265z" />
    <glyph glyph-name="parenleft" unicode="(" horiz-adv-x="716" 
d="M537 -66l-56 -262q-105 19 -183.5 74t-125 137t-69.5 181t-23 217q0 154 24 309t69 300t115 270t157 217.5t200.5 143t239.5 46.5l-58 -262q-89 -4 -168.5 -71t-136.5 -173.5t-99.5 -239t-63.5 -271.5t-21 -267q0 -147 51 -238t148 -111z" />
    <glyph glyph-name="parenright" unicode=")" horiz-adv-x="714" 
d="M225 1305l56 262q105 -19 183.5 -74t125 -137t69.5 -181t23 -217q0 -154 -24 -309t-69 -300t-115 -270t-157 -217.5t-200.5 -143t-239.5 -46.5l57 262q89 4 168.5 71t137 173.5t100 239t63.5 271.5t21 267q0 147 -51 238t-148 111z" />
    <glyph glyph-name="asterisk" unicode="*" horiz-adv-x="1150" 
d="M674 1001l-176 -258l-181 146l72 88q28 35 119 139q-129 -14 -223 -14h-88l55 239l289 -18l-119 250l233 106l31 -88q19 -57 59 -166q61 94 125 185l48 69l190 -147l-186 -209l309 18l-51 -239h-80q-53 0 -230 14q43 -84 91 -186l38 -82l-239 -98z" />
    <glyph glyph-name="plus" unicode="+" horiz-adv-x="1263" 
d="M801 180h-246v420h-420v246h420v420h246v-420h420v-246h-420v-420z" />
    <glyph glyph-name="comma" unicode="," horiz-adv-x="589" 
d="M98 -338h-164l277 338h-178l69 324h334l-76 -342z" />
    <glyph glyph-name="hyphen" unicode="-" horiz-adv-x="968" 
d="M846 518h-723l57 266h721z" />
    <glyph glyph-name="period" unicode="." horiz-adv-x="581" 
d="M362 0h-335l69 324h334z" />
    <glyph glyph-name="slash" unicode="/" horiz-adv-x="960" 
d="M199 -205h-289l938 1854h291z" />
    <glyph glyph-name="zero" unicode="0" horiz-adv-x="1384" 
d="M686 -33q-260 0 -407.5 157t-147.5 451q0 161 47 319.5t129 286t206.5 206.5t268.5 79q259 0 408 -160t149 -454q0 -129 -28.5 -257t-85.5 -240.5t-134.5 -199.5t-182.5 -137.5t-222 -50.5zM676 225q85 0 155.5 62t112 158t64 201t22.5 202q0 183 -62 271.5t-175 88.5
q-68 0 -127 -42t-99.5 -108.5t-70 -150t-43 -166.5t-13.5 -157q0 -183 62 -271t174 -88z" />
    <glyph glyph-name="one" unicode="1" horiz-adv-x="894" 
d="M608 0h-284l194 924q8 41 31 137q-31 -38 -57 -66t-67.5 -61.5t-84 -55t-101 -36.5t-122.5 -15l65 312q149 13 273 86t207 209h249z" />
    <glyph glyph-name="two" unicode="2" horiz-adv-x="1271" 
d="M1049 0h-1037l68 315q366 180 502 261q252 151 328 287q40 71 40 147q0 94 -55 146t-147 52q-111 0 -176 -85t-80 -212l-299 72q15 93 55.5 175.5t108 153.5t173.5 112.5t238 41.5q235 0 368.5 -121t133.5 -305q0 -301 -361 -532q-164 -101 -491 -250h370h316z" />
    <glyph glyph-name="three" unicode="3" horiz-adv-x="1236" 
d="M567 -33q-236 0 -375.5 115.5t-146.5 349.5l297 33q2 -117 60 -180.5t169 -63.5q107 0 176.5 62.5t69.5 162.5q0 66 -50.5 111t-137.5 45h-146l54 244h129q105 0 174 57.5t69 153.5q0 70 -48 112.5t-124 42.5q-88 0 -149.5 -56.5t-79.5 -162.5l-291 70q17 83 58 154
t106 127.5t162 89t217 32.5q201 0 326.5 -97t125.5 -253q0 -149 -101 -259.5t-249 -137.5q105 -16 181.5 -97.5t76.5 -195.5q0 -200 -156.5 -329.5t-396.5 -129.5z" />
    <glyph glyph-name="four" unicode="4" horiz-adv-x="1339" 
d="M946 0h-280l71 342h-721l54 256l737 836h444l-178 -848h211l-51 -244h-213zM674 586h117l36 180l91 422l-525 -602h281z" />
    <glyph glyph-name="five" unicode="5" horiz-adv-x="1224" 
d="M551 -33q-222 0 -356.5 107.5t-149.5 287.5l289 68q7 -92 60.5 -150.5t156.5 -58.5q126 0 198 81t72 192q0 96 -59 150t-148 54q-126 0 -217 -108l-268 59l289 785h854l-55 -258h-637l-82 -220q-45 -123 -52 -143q55 43 115 68.5t146 25.5q189 0 304 -113t115 -298
q0 -156 -76 -277.5t-206.5 -186.5t-292.5 -65z" />
    <glyph glyph-name="six" unicode="6" horiz-adv-x="1308" 
d="M672 -33q-170 0 -294.5 77t-186.5 209.5t-62 303.5q0 201 57 370.5t160 288t251 184.5t325 66q238 0 385 -75l-60 -273q-55 30 -141.5 53t-181.5 23q-181 0 -312.5 -111t-165.5 -317q46 74 141.5 127t207.5 53q199 0 316.5 -122t117.5 -302q0 -167 -75.5 -295
t-201.5 -194t-280 -66zM651 221q117 0 192 84.5t75 198.5q0 98 -63.5 157.5t-152.5 59.5q-121 0 -193.5 -84t-72.5 -203q0 -93 61 -153t154 -60z" />
    <glyph glyph-name="seven" unicode="7" horiz-adv-x="1105" 
d="M455 0h-314q14 170 73.5 332.5t142 288t188.5 237t206 187.5t201 131h-368h-402l56 258h1019l-69 -328q-203 -112 -360.5 -291t-250 -386.5t-122.5 -428.5z" />
    <glyph glyph-name="eight" unicode="8" horiz-adv-x="1282" 
d="M592 -33q-244 0 -381 105.5t-137 273.5q0 145 101.5 264t252.5 148q-192 94 -192 282q0 179 152 302.5t384 123.5q212 0 348.5 -101.5t136.5 -272.5q0 -140 -89 -241t-214 -134q95 -40 153 -118t58 -183q0 -91 -39 -171.5t-110 -142.5t-181 -98.5t-243 -36.5zM729 825
q110 0 176 66.5t66 155.5q0 81 -59 127.5t-148 46.5q-106 0 -174 -62t-68 -153q0 -88 59 -134.5t148 -46.5zM602 217q115 0 185.5 65t70.5 160q0 89 -61.5 141t-159.5 52q-115 0 -185.5 -68t-70.5 -164q0 -88 61.5 -137t159.5 -49z" />
    <glyph glyph-name="nine" unicode="9" horiz-adv-x="1300" 
d="M479 -33q-239 0 -399 76l61 279q54 -29 137 -52.5t164 -23.5q136 0 240 49q214 102 256 385q-45 -73 -138 -124.5t-206 -51.5q-187 0 -304.5 119t-117.5 297q0 164 74 289.5t198 191t275 65.5q127 0 231 -43.5t174 -122.5q133 -153 133 -426q0 -202 -55.5 -370.5
t-156.5 -287t-246 -184t-320 -65.5zM694 733q116 0 186 81t70 196q0 87 -58.5 144.5t-146.5 57.5q-113 0 -183 -81.5t-70 -190.5q0 -94 58.5 -150.5t143.5 -56.5z" />
    <glyph glyph-name="colon" unicode=":" horiz-adv-x="581" 
d="M506 721h-336l70 323h333zM348 0h-336l70 324h334z" />
    <glyph glyph-name="semicolon" unicode=";" horiz-adv-x="616" 
d="M526 721h-336l70 323h334zM102 -338h-163l276 338h-178l69 324h334l-75 -342z" />
    <glyph glyph-name="less" unicode="&#x3c;" horiz-adv-x="1386" 
d="M150 907l1095 373v-264l-418 -137q-237 -77 -485 -164q239 -83 479 -158l424 -135v-270l-1095 364v391z" />
    <glyph glyph-name="equal" unicode="=" horiz-adv-x="1452" 
d="M1303 840h-1096v245h1096v-245zM1303 348h-1096v246h1096v-246z" />
    <glyph glyph-name="greater" unicode="&#x3e;" horiz-adv-x="1386" 
d="M1325 524l-1096 -372v264l418 137q249 80 486 164q-201 70 -480 157l-424 136v270l1096 -365v-391z" />
    <glyph glyph-name="question" unicode="?" horiz-adv-x="1107" 
d="M686 514h-266q16 77 30 120.5t40.5 86.5t66.5 76t107 75q44 27 69.5 45t53.5 44t40.5 54t12.5 60q0 70 -45.5 109t-118.5 39q-93 0 -151.5 -65t-67.5 -200l-285 52q16 202 153 329t365 127q111 0 199 -29t142.5 -79t83 -113t28.5 -135q0 -69 -20.5 -124.5t-66 -103
t-96.5 -83.5t-133 -84q-120 -71 -141 -201zM625 0h-334l67 322h336z" />
    <glyph glyph-name="at" unicode="@" horiz-adv-x="1933" 
d="M993 -264q-148 0 -281.5 30.5t-247 93t-196 152.5t-129.5 216t-47 276q0 128 33 251t93 229t149 195t196 152.5t238.5 99t273.5 35.5q143 0 270 -28.5t234.5 -88t185.5 -144.5t122 -204.5t44 -261.5q0 -108 -38 -212t-105 -186t-169 -132.5t-220 -50.5q-93 0 -159 48
t-81 122q-104 -170 -278 -170q-147 0 -224 102t-77 262q0 125 44 238.5t135.5 190.5t211.5 77q169 0 246 -154q4 21 9 41t11 46t10 45h240l-115 -549q-18 -84 62 -84q71 0 125.5 59.5t80 141.5t25.5 165q0 123 -46.5 220.5t-129 158.5t-189.5 93t-233 32q-163 0 -299 -61
t-224.5 -164t-137 -236t-48.5 -278q0 -128 48 -232t132.5 -172t200 -104.5t250.5 -36.5q155 0 275.5 27.5t246.5 91.5l86 -207q-256 -135 -604 -135zM963 373q59 0 106 50.5t69.5 118t22.5 132.5q0 79 -35.5 120.5t-105.5 41.5q-57 0 -99.5 -48.5t-61.5 -114t-19 -132.5
q0 -81 31 -124.5t92 -43.5z" />
    <glyph glyph-name="A" unicode="A" horiz-adv-x="1505" 
d="M1382 0h-323l-45 336h-578l-184 -336h-348l846 1434h399zM727 866l-149 -272h403l-33 240q-32 242 -43 350q-61 -107 -178 -318z" />
    <glyph glyph-name="B" unicode="B" horiz-adv-x="1490" 
d="M834 0h-768l305 1434h600q217 0 345 -87.5t128 -246.5q0 -142 -97 -242t-260 -129q126 -19 212.5 -109t86.5 -208q0 -190 -155.5 -301t-396.5 -111zM623 1176l-66 -310h334q112 0 171.5 46t59.5 124q0 140 -207 140h-292zM504 616l-74 -358h373q128 0 199 53t71 142
q0 163 -237 163h-332z" />
    <glyph glyph-name="C" unicode="C" horiz-adv-x="1558" 
d="M795 -33q-311 0 -490.5 167t-179.5 468q0 169 59.5 324.5t165 275.5t265.5 192t348 72q131 0 244 -37t192 -101t131.5 -145t75.5 -173l-303 -78q-87 276 -361 276q-93 0 -173.5 -35t-138 -94.5t-99 -137.5t-62 -164.5t-20.5 -174.5q0 -185 94.5 -280t259.5 -95
q140 0 241.5 77.5t161.5 195.5l283 -131q-48 -84 -110.5 -153t-147 -127t-196 -90t-240.5 -32z" />
    <glyph glyph-name="D" unicode="D" horiz-adv-x="1562" 
d="M680 0h-614l305 1434h460q208 0 363 -69.5t242.5 -209.5t87.5 -336q0 -164 -61.5 -313t-170 -261t-268 -178.5t-344.5 -66.5zM625 1176l-195 -918h238q128 0 230.5 44.5t168 122t100.5 178t35 216.5q0 173 -96 265t-275 92h-206z" />
    <glyph glyph-name="E" unicode="E" horiz-adv-x="1343" 
d="M1139 0h-1073l305 1434h1071l-56 -258h-763l-66 -312h578l-56 -254h-577l-74 -352h766z" />
    <glyph glyph-name="F" unicode="F" horiz-adv-x="1325" 
d="M373 0h-307l305 1434h1089l-55 -258h-782l-80 -373h626l-53 -258h-627z" />
    <glyph glyph-name="G" unicode="G" horiz-adv-x="1626" 
d="M725 -33q-120 0 -226.5 39t-191.5 113.5t-134.5 195.5t-49.5 273q0 132 34 259t103.5 239t166 197t231 134t288.5 49q133 0 247.5 -35.5t196 -97t136.5 -141.5t78 -172l-320 -90q-86 266 -352 266q-93 0 -173 -34t-136.5 -92t-97 -133.5t-60 -158.5t-19.5 -168
q0 -193 97 -291t264 -98q78 0 147.5 24.5t117.5 63.5t80 82.5t48 87.5h-455l54 258h762l-156 -737h-279q13 65 37 170q-27 -35 -64 -67t-90.5 -64.5t-127.5 -52t-156 -19.5z" />
    <glyph glyph-name="H" unicode="H" horiz-adv-x="1572" 
d="M375 0h-309l305 1434h307l-121 -568h608l123 568h307l-305 -1434h-307l127 608h-608z" />
    <glyph glyph-name="I" unicode="I" horiz-adv-x="655" 
d="M373 0h-307l305 1434h307z" />
    <glyph glyph-name="J" unicode="J" horiz-adv-x="1146" 
d="M457 -33q-240 0 -359.5 139.5t-81.5 376.5l306 56q-10 -91 -9.5 -160.5t36 -111.5t108.5 -42q89 0 138 66.5t79 204.5l198 938h310l-199 -938q-29 -135 -70 -231t-103 -164t-149.5 -101t-203.5 -33z" />
    <glyph glyph-name="K" unicode="K" horiz-adv-x="1474" 
d="M1198 1434h444l-712 -609l463 -825h-359l-340 623l-231 -197l-90 -426h-307l305 1434h309l-51 -238q-47 -222 -78 -358z" />
    <glyph glyph-name="L" unicode="L" horiz-adv-x="1271" 
d="M1139 0h-1073l305 1434h307l-248 -1170h764z" />
    <glyph glyph-name="M" unicode="M" horiz-adv-x="2025" 
d="M375 0h-309l305 1434h485l86 -703q31 -241 41 -301q64 108 172 305l387 699h506l-305 -1434h-307l123 588q109 515 122 575l-645 -1163h-270l-148 1149q-15 -69 -118 -559z" />
    <glyph glyph-name="N" unicode="N" horiz-adv-x="1722" 
d="M375 0h-309l305 1434h393l473 -936q16 85 74 354l125 582h309l-305 -1434h-269l-561 1112q-27 -120 -90 -420z" />
    <glyph glyph-name="O" unicode="O" horiz-adv-x="1718" 
d="M842 -33q-174 0 -312 50.5t-225 139t-132.5 204.5t-45.5 251q0 179 64.5 337.5t175.5 272t267.5 179t334.5 65.5q172 0 309 -50t223.5 -138.5t132 -204.5t45.5 -252q0 -180 -63.5 -338.5t-173.5 -271.5t-266 -178.5t-334 -65.5zM842 225q151 0 270 84.5t181.5 221
t62.5 294.5q0 169 -103 276t-284 107q-151 0 -270.5 -84.5t-182.5 -220.5t-63 -293q0 -171 103 -278t286 -107z" />
    <glyph glyph-name="P" unicode="P" horiz-adv-x="1388" 
d="M373 0h-307l305 1434h506q116 0 209.5 -22.5t157 -61t106 -93t61.5 -116.5t19 -133q0 -229 -167.5 -366.5t-428.5 -137.5h-353zM623 1176l-88 -414h294q117 0 197 64t80 171q0 77 -61 128t-168 51h-254z" />
    <glyph glyph-name="Q" unicode="Q" horiz-adv-x="1753" 
d="M842 -33q-175 0 -313 51t-225 140t-132 204.5t-45 249.5q0 241 109.5 436.5t302.5 306.5t430 111q172 0 308.5 -50.5t223 -139t131.5 -204.5t45 -251q0 -324 -188 -557q90 -49 203 -49l-54 -248q-210 0 -344 125q-202 -125 -452 -125zM842 225q138 0 258 76l-58 66
q-88 100 -148 126.5t-189 26.5l53 246q85 15 165 -5.5t140 -68.5q107 -89 203 -211q88 151 88 344q0 169 -102 276t-283 107q-151 0 -270.5 -84.5t-182.5 -220.5t-63 -293q0 -171 103 -278t286 -107z" />
    <glyph glyph-name="R" unicode="R" horiz-adv-x="1495" 
d="M375 0h-309l305 1434h614q224 0 354.5 -95t130.5 -272q0 -80 -26.5 -149t-70.5 -118t-102 -85t-119 -55.5t-124 -24.5q227 -38 254 -268l43 -367h-328l-26 317q-6 67 -16 106.5t-34.5 69t-65.5 41t-107 11.5h-256zM623 1176l-80 -379h327q133 0 206 60.5t73 154.5
q0 164 -221 164h-305z" />
    <glyph glyph-name="S" unicode="S" horiz-adv-x="1382" 
d="M688 -33q-151 0 -270.5 36t-195.5 98.5t-120.5 139t-58.5 165.5l299 83q8 -51 34 -99t68.5 -87.5t105.5 -63.5t138 -24q123 0 193.5 48.5t70.5 129.5q0 64 -46.5 101.5t-149.5 66.5l-156 43q-93 26 -156.5 55.5t-118 76t-81.5 116t-27 164.5q0 198 155 324t423 126
q133 0 240 -32t177.5 -89t114.5 -127t62 -153l-297 -82q-28 105 -106 170.5t-198 65.5q-113 0 -178 -49t-65 -123q0 -62 37 -98t120 -60l185 -51q396 -110 399 -404q0 -222 -163 -344.5t-435 -122.5z" />
    <glyph glyph-name="T" unicode="T" horiz-adv-x="1331" 
d="M711 0h-308l250 1176h-487l55 258h1282l-55 -258h-487z" />
    <glyph glyph-name="U" unicode="U" horiz-adv-x="1587" 
d="M764 -33q-340 0 -497 165.5t-93 467.5l178 834h310l-179 -826q-38 -178 37.5 -276.5t243.5 -98.5q162 0 250.5 97t126.5 278l176 826h309l-184 -865q-65 -306 -228 -454t-450 -148z" />
    <glyph glyph-name="V" unicode="V" horiz-adv-x="1470" 
d="M848 0h-440l-187 1434h330l78 -775q33 -306 41 -409q62 113 211 405l403 779h354z" />
    <glyph glyph-name="W" unicode="W" horiz-adv-x="2158" 
d="M668 0h-357l-78 1434h318l4 -611q2 -323 6 -454q68 142 215 454l287 611h410l24 -594q15 -353 23 -471q176 411 194 452l266 613h340l-690 -1434h-356l-35 614l-29 519q-19 -38 -249 -521z" />
    <glyph glyph-name="X" unicode="X" horiz-adv-x="1476" 
d="M279 0h-373l698 762l-405 672h348l96 -162l170 -285l258 285l146 162h372l-626 -684l452 -750h-354l-127 219l-178 309q-167 -186 -264 -292z" />
    <glyph glyph-name="Y" unicode="Y" horiz-adv-x="1378" 
d="M735 0h-307l125 584l-336 850h336l100 -279q61 -168 101 -283q60 84 213 285l211 277h368l-686 -850z" />
    <glyph glyph-name="Z" unicode="Z" horiz-adv-x="1351" 
d="M1169 0h-1187l67 313l950 863h-290h-463l55 258h1135l-66 -304l-954 -866h299h512z" />
    <glyph glyph-name="bracketleft" unicode="[" horiz-adv-x="739" 
d="M510 -307h-518l393 1853h520l-49 -225h-254l-299 -1403h256z" />
    <glyph glyph-name="backslash" unicode="\" horiz-adv-x="909" 
d="M709 -205h-267l-151 1854h266z" />
    <glyph glyph-name="bracketright" unicode="]" horiz-adv-x="739" 
d="M274 1546h519l-394 -1853h-520l49 225h254l299 1403h-256z" />
    <glyph glyph-name="asciicircum" unicode="^" horiz-adv-x="1191" 
d="M430 676h-297l377 758h283l374 -758h-305l-92 205l-121 276l-125 -274z" />
    <glyph glyph-name="underscore" unicode="_" horiz-adv-x="1327" 
d="M1059 -346h-1147l49 233h1147z" />
    <glyph glyph-name="grave" unicode="`" horiz-adv-x="528" 
d="M584 1159h-174l-174 316h315z" />
    <glyph glyph-name="a" unicode="a" horiz-adv-x="1173" 
d="M360 -33q-61 0 -116.5 16t-101.5 47.5t-73.5 84.5t-27.5 121q0 104 54.5 184.5t153.5 131t229 78t290 32.5l10 49q12 61 -29 98t-126 37q-94 0 -155 -45t-91 -113l-264 76q16 53 52.5 101.5t96.5 92.5t153.5 70.5t207.5 26.5q242 0 351.5 -110.5t65.5 -323.5l-73 -359
q-9 -41 32 -41h111l-47 -221h-178q-185 0 -185 139q-62 -82 -150.5 -127t-189.5 -45zM465 178q81 0 155.5 67.5t96.5 174.5l12 57q-387 -17 -387 -192q0 -51 33 -79t90 -28z" />
    <glyph glyph-name="b" unicode="b" horiz-adv-x="1273" 
d="M686 -33q-73 0 -132.5 19t-99 52t-64.5 66t-42 72l-39 -176h-276l305 1434h287l-82 -373q-27 -118 -35 -162q52 66 134 112t177 46q175 0 279 -128t104 -323q0 -141 -44 -262.5t-116.5 -203t-165 -127.5t-190.5 -46zM627 188q83 0 149 62.5t98.5 152.5t32.5 185
q0 248 -207 248q-63 0 -117 -36t-89.5 -93t-55.5 -126.5t-20 -138.5q0 -123 53 -188.5t156 -65.5z" />
    <glyph glyph-name="c" unicode="c" horiz-adv-x="1165" 
d="M557 -33q-220 0 -353.5 126.5t-133.5 348.5q0 158 73 297.5t209 227.5t303 88q189 0 320.5 -90t167.5 -238l-273 -80q-22 87 -79.5 132.5t-141.5 45.5q-69 0 -126 -35t-91.5 -91t-53 -122.5t-18.5 -134.5q0 -117 57.5 -180t157.5 -63q160 0 256 194l254 -119
q-171 -307 -528 -307z" />
    <glyph glyph-name="d" unicode="d" horiz-adv-x="1277" 
d="M449 -33q-171 0 -273 125t-102 324q0 144 42 266t112.5 203t163.5 126.5t196 45.5q240 0 332 -207q9 48 45 213l79 371h289l-307 -1434h-276q10 59 24 127q-54 -67 -138.5 -113.5t-186.5 -46.5zM580 188q83 0 149 62.5t98.5 152.5t32.5 185q0 248 -207 248
q-63 0 -117 -36t-89.5 -93t-55.5 -126.5t-20 -138.5q0 -123 53 -188.5t156 -65.5z" />
    <glyph glyph-name="e" unicode="e" horiz-adv-x="1155" 
d="M541 -33q-235 0 -355 114t-120 327q0 162 71 309.5t204 242.5t296 95q106 0 192 -31.5t141 -87t87 -132.5t30.5 -168.5t-28.5 -193.5h-719q-18 -122 31 -188t168 -66q78 0 144.5 51t107.5 128l241 -109q-29 -54 -69 -101t-98.5 -92t-142 -71.5t-181.5 -26.5zM383 647h434
q8 92 -39 145.5t-137 53.5q-89 0 -157.5 -52t-100.5 -147z" />
    <glyph glyph-name="f" unicode="f" horiz-adv-x="786" 
d="M584 803l-172 -803h-289l172 803h-197l45 221h197l31 141q28 129 97 199t196 70h331l-49 -232h-188q-93 0 -111 -90l-18 -88h235l-45 -221h-235z" />
    <glyph glyph-name="g" unicode="g" horiz-adv-x="1259" 
d="M600 -399h-412q-133 0 -203.5 62t-70.5 159q0 76 51 134t119 87q-66 63 -66 156q0 87 58.5 152t156.5 102q-59 81 -59 194q0 169 134.5 288.5t342.5 119.5q144 0 239.5 -53.5t141.5 -141.5q20 93 67.5 128.5t119.5 35.5h122l-47 -221h-108q-49 0 -71 -16t-40 -70l-31 -94
q-104 -314 -438 -314q-143 0 -256 49q-49 -11 -72.5 -33.5t-23.5 -48.5q0 -27 22.5 -38t71.5 -11h348q186 0 279.5 -82.5t93.5 -205.5q0 -158 -114.5 -248t-354.5 -90zM600 502q79 0 140 60.5t61 146.5q0 70 -39.5 108.5t-116.5 38.5q-79 0 -140 -60.5t-61 -146.5
q0 -70 39.5 -108.5t116.5 -38.5zM262 -188h377q141 0 141 106q0 82 -112 82h-459q-64 -48 -64 -104q0 -84 117 -84z" />
    <glyph glyph-name="h" unicode="h" horiz-adv-x="1214" 
d="M322 0h-289l307 1434h289l-80 -373q-6 -30 -19.5 -91.5t-19.5 -92.5q26 34 52 60t66 55.5t94 46t116 16.5q149 0 231.5 -113t40.5 -313l-135 -629h-289l129 602q23 103 -11 158t-118 55q-49 0 -90 -22t-67 -54.5t-48.5 -83t-34.5 -92.5t-24 -98z" />
    <glyph glyph-name="i" unicode="i" horiz-adv-x="565" 
d="M573 1163h-307l60 275h305zM322 0h-289l219 1024h287z" />
    <glyph glyph-name="j" unicode="j" horiz-adv-x="581" 
d="M586 1165h-299l57 269h299zM14 -399h-282l49 231h143q91 0 109 90l233 1102h283l-246 -1155q-29 -131 -94 -199.5t-195 -68.5z" />
    <glyph glyph-name="k" unicode="k" horiz-adv-x="1261" 
d="M948 1024h381l-520 -422l379 -602h-336l-262 424l-211 -170l-55 -254h-289l303 1434h289l-95 -457q-61 -299 -77 -367z" />
    <glyph glyph-name="l" unicode="l" horiz-adv-x="571" 
d="M319 0h-286l307 1434h287z" />
    <glyph glyph-name="m" unicode="m" horiz-adv-x="1824" 
d="M319 0h-286l219 1024h280l-28 -139q47 67 126.5 118.5t186.5 51.5q92 0 158 -45.5t100 -130.5q45 68 140.5 122t207.5 54q173 0 256.5 -110.5t40.5 -315.5l-135 -629h-287l129 602q23 104 -6 158.5t-108 54.5q-184 0 -260 -350l-97 -465h-286l129 602q23 104 -6 158.5
t-109 54.5q-179 0 -260 -350z" />
    <glyph glyph-name="n" unicode="n" horiz-adv-x="1214" 
d="M322 0h-289l219 1024h280l-30 -147q28 35 53.5 60.5t65.5 55t91.5 46t110.5 16.5q161 0 244.5 -115t42.5 -311l-135 -629h-289l129 602q23 103 -11.5 158t-119.5 55q-58 0 -104 -30t-76 -83.5t-48 -105t-32 -117.5z" />
    <glyph glyph-name="o" unicode="o" horiz-adv-x="1224" 
d="M575 -33q-235 0 -370 130t-135 341q0 170 76.5 312t208.5 223.5t288 81.5q237 0 373.5 -127.5t136.5 -347.5q0 -130 -45.5 -244.5t-123.5 -195t-184.5 -127t-224.5 -46.5zM575 199q81 0 147 58.5t100 145t34 177.5q0 119 -52.5 182t-158.5 63q-81 0 -147 -59.5
t-99.5 -147.5t-33.5 -180q0 -239 210 -239z" />
    <glyph glyph-name="p" unicode="p" horiz-adv-x="1277" 
d="M238 -399h-289l303 1423h276q-8 -49 -24 -125q51 66 134 111t181 45q175 0 281 -126.5t106 -318.5q0 -141 -44 -263.5t-116 -204.5t-165 -128.5t-191 -46.5q-237 0 -330 209q-38 -170 -47 -215zM629 188q83 0 149 62.5t98.5 152.5t32.5 185q0 248 -207 248
q-83 0 -149 -60.5t-99.5 -149.5t-33.5 -184q0 -123 53 -188.5t156 -65.5z" />
    <glyph glyph-name="q" unicode="q" horiz-adv-x="1275" 
d="M940 -399h-289l78 360q28 128 35 164q-52 -66 -132 -112t-175 -46q-175 0 -280 127t-105 320q0 141 44 263.5t116 204.5t165 128.5t191 46.5q240 0 338 -209q13 71 35 176h280zM578 188q83 0 149 62.5t98.5 152.5t32.5 185q0 248 -207 248q-63 0 -117 -36t-89.5 -93
t-55.5 -126.5t-20 -138.5q0 -123 53 -188.5t156 -65.5z" />
    <glyph glyph-name="r" unicode="r" horiz-adv-x="878" 
d="M322 0h-289l219 1024h283q-8 -39 -26 -116.5t-26 -116.5q84 138 169.5 198t211.5 60q32 0 90 -7l-65 -311q-60 8 -123 8q-85 0 -148.5 -26t-105 -77t-67.5 -113.5t-44 -147.5z" />
    <glyph glyph-name="s" unicode="s" horiz-adv-x="1060" 
d="M485 -33q-203 0 -332 81t-155 208l272 84q44 -166 215 -166q74 0 118 31.5t44 83.5q0 70 -108 100l-119 31q-142 36 -213.5 105t-71.5 177q0 154 118 253.5t318 99.5q79 0 147.5 -15.5t115.5 -40t84.5 -58.5t59.5 -66.5t36 -67.5l-248 -94q-20 62 -70 101.5t-123 39.5
q-72 0 -109.5 -29.5t-37.5 -74.5q0 -33 28 -54.5t95 -40.5l96 -26q316 -86 316 -303q0 -108 -64.5 -190.5t-172 -125.5t-239.5 -43z" />
    <glyph glyph-name="t" unicode="t" horiz-adv-x="892" 
d="M754 0h-295q-141 0 -217.5 91t-44.5 237l104 475h-215l47 221h213l70 322h289l-70 -322h262l-47 -221h-262l-105 -481q-18 -91 72 -91h248z" />
    <glyph glyph-name="u" unicode="u" horiz-adv-x="1204" 
d="M360 -33q-64 0 -118.5 27.5t-94 81.5t-52 134t8.5 185l136 629h288l-129 -600q-23 -105 6.5 -160t112.5 -55q187 0 264 348l101 467h288l-219 -1024h-282l30 147q-139 -180 -340 -180z" />
    <glyph glyph-name="v" unicode="v" horiz-adv-x="1157" 
d="M649 0h-348l-176 1024h293l53 -420q40 -323 45 -356q14 27 189 356l225 420h309z" />
    <glyph glyph-name="w" unicode="w" horiz-adv-x="1751" 
d="M567 0h-327l-107 1024h285l10 -276q11 -300 21 -478q15 31 184 392l168 362h344l18 -356l21 -392l192 416l154 332h307l-543 -1024h-344l-22 479l-15 264q-38 -79 -145 -307z" />
    <glyph glyph-name="x" unicode="x" horiz-adv-x="1110" 
d="M236 0h-334l504 535l-269 489h309l48 -94q65 -131 96 -189l178 191l84 92h338l-481 -500l290 -524h-313l-59 121q-60 123 -103 201q-81 -86 -186 -207z" />
    <glyph glyph-name="y" unicode="y" horiz-adv-x="1153" 
d="M715 639l205 385h319l-672 -1186q-76 -136 -151.5 -186.5t-220.5 -50.5h-310l52 231h251q54 0 88 26t70 93l29 55l-273 1018h306l84 -385q47 -217 65 -291q27 47 158 291z" />
    <glyph glyph-name="z" unicode="z" horiz-adv-x="1034" 
d="M856 0h-885l56 254l600 539h-271h-192l49 231h836l-43 -209l-654 -584h289h266z" />
    <glyph glyph-name="braceleft" unicode="{" horiz-adv-x="757" 
d="M528 -307h-104q-73 0 -130 19.5t-91 53.5t-55 79.5t-22 97t9 106.5l60 273q23 105 -13.5 142.5t-128.5 37.5l49 233q95 0 144 30.5t71 131.5l74 352q33 156 114.5 226.5t248.5 70.5h168l-48 -217h-69q-67 0 -105.5 -28.5t-54.5 -102.5l-70 -330q-11 -54 -36.5 -97.5
t-55 -70.5t-71 -48.5t-74.5 -32.5t-76 -21q24 -7 41.5 -13.5t41 -16.5t39.5 -22t33.5 -27.5t27.5 -35.5t16.5 -45t6 -56.5t-8.5 -68.5l-58 -270q-16 -76 9 -104.5t92 -28.5h71z" />
    <glyph glyph-name="bar" unicode="|" horiz-adv-x="593" 
d="M276 -205h-264l396 1854h262z" />
    <glyph glyph-name="braceright" unicode="}" horiz-adv-x="759" 
d="M276 1546h105q73 0 130 -19.5t91 -53.5t55 -79.5t22 -97t-9 -106.5l-60 -272q-23 -105 13.5 -143t128.5 -38l-50 -233q-95 0 -144 -30.5t-71 -131.5l-73 -352q-33 -156 -114.5 -226.5t-248.5 -70.5h-168l47 217h70q67 0 105.5 28.5t54.5 102.5l69 330q14 67 47 116.5
t81 79t89.5 45.5t96.5 29q-24 7 -41.5 13.5t-41 16.5t-39.5 22t-33.5 27.5t-27.5 35.5t-16.5 45t-6 56.5t8.5 68.5l57 270q16 76 -8.5 104.5t-91.5 28.5h-72z" />
    <glyph glyph-name="asciitilde" unicode="~" horiz-adv-x="1294" 
d="M897 532q-112 0 -227 62l-88 49q-55 31 -109 31q-99 0 -174 -113l-172 148q56 107 150 164t206 57q113 0 224 -60l81 -45q70 -37 121 -37q47 0 92.5 32.5t81.5 86.5l172 -153q-56 -107 -151.5 -164.5t-206.5 -57.5z" />
    <glyph glyph-name="uni00A0" unicode="&#xa0;" horiz-adv-x="485" 
 />
    <glyph glyph-name="exclamdown" unicode="&#xa1;" horiz-adv-x="598" 
d="M281 1206h335l-69 -321h-336zM270 692h133l-30 -594l-70 -325h-319l69 325z" />
    <glyph glyph-name="cent" unicode="&#xa2;" horiz-adv-x="1222" 
d="M557 -244h-174l49 230q-158 39 -248 160t-90 307q0 118 42.5 229.5t116 197t180.5 139.5t229 58l45 211h174l-50 -227q133 -32 222.5 -116.5t115.5 -203.5l-272 -82q-26 113 -115 160l-77 -377q-14 -63 -32.5 -145.5t-19.5 -87.5q124 30 205 192l252 -120
q-166 -305 -508 -314zM485 233l66 316l59 285q-107 -31 -166 -140.5t-59 -242.5q0 -159 100 -218z" />
    <glyph glyph-name="sterling" unicode="&#xa3;" horiz-adv-x="1208" 
d="M371 258h303h409l-55 -258h-1020l62 279q55 20 102.5 46t97.5 64.5t79 91.5t28 113v8h-238l39 182h137q-59 126 -59 234q0 135 70 238.5t185.5 156.5t256.5 53q224 0 342.5 -106.5t120.5 -298.5l-299 -70q7 93 -36 157t-140 64q-95 0 -149 -62.5t-54 -162.5
q0 -88 47 -203h307l-39 -182h-225q1 -123 -68 -206t-204 -138z" />
    <glyph glyph-name="currency" unicode="&#xa4;" horiz-adv-x="1337" 
d="M432 328l-217 -181l-156 199l211 172q-32 75 -32 160q0 166 106 311l-123 162l201 166l133 -172q93 41 199 41q137 0 223 -56l223 170l160 -200l-213 -172q37 -91 37 -174q0 -147 -101 -287l129 -162l-202 -168l-131 168q-96 -47 -209 -47q-135 0 -238 70zM684 504
q99 0 167.5 75t68.5 173q0 80 -49 134t-132 54q-100 0 -169.5 -75t-69.5 -173q0 -79 50 -133.5t134 -54.5z" />
    <glyph glyph-name="yen" unicode="&#xa5;" horiz-adv-x="1445" 
d="M1204 1434h375l-522 -617h235l-39 -182h-348l-28 -143h348l-39 -183h-348l-66 -309h-307l65 309h-366l39 183h366l29 143h-367l39 182h252l-272 617h330l108 -293l98 -271q132 174 205 275z" />
    <glyph glyph-name="brokenbar" unicode="&#xa6;" horiz-adv-x="593" 
d="M506 870h-264l166 779h262zM276 -205h-264l166 778h264z" />
    <glyph glyph-name="section" unicode="&#xa7;" horiz-adv-x="1320" 
d="M543 -426q-221 0 -343.5 98t-133.5 250l286 74q20 -166 191 -166q84 0 137 44.5t53 107.5q0 40 -23.5 69t-84.5 49l-240 80q-171 59 -239 138t-68 192q-1 112 70.5 197t191.5 133q-59 67 -59 213q0 78 37 152.5t101 132.5t159 93t204 35q221 0 344 -99t134 -253l-287 -74
q-21 172 -191 172q-84 0 -137 -46.5t-53 -110.5q0 -83 108 -119l240 -82q119 -41 187 -86t95.5 -96t28.5 -121q0 -113 -75.5 -210t-190.5 -146q59 -78 59 -211q0 -78 -37 -151.5t-101 -131t-159 -92.5t-204 -35zM813 319q50 21 86.5 60.5t36.5 89.5q0 47 -29.5 80.5
t-101.5 58.5l-162 58q-75 26 -131 51q-55 -25 -88.5 -64t-32.5 -88q0 -47 29.5 -80t99.5 -57l162 -57q84 -28 131 -52z" />
    <glyph glyph-name="dieresis" unicode="&#xa8;" horiz-adv-x="905" 
d="M504 1178h-271l54 245h270zM954 1178h-270l53 245h271z" />
    <glyph glyph-name="copyright" unicode="&#xa9;" horiz-adv-x="1822" 
d="M956 -80q-167 0 -317.5 63.5t-259 171.5t-172.5 258t-64 316t64 316t172.5 257.5t259 170.5t317.5 63q223 0 411 -107t297.5 -292.5t109.5 -407.5t-109.5 -408t-297.5 -293.5t-411 -107.5zM958 113q129 0 244 48.5t196 131.5t128 196.5t47 239.5q0 169 -79.5 310.5
t-221 224t-314.5 82.5t-314 -82.5t-220.5 -224t-79.5 -310.5q0 -168 79.5 -309.5t220.5 -224t314 -82.5zM961 289q-200 0 -314.5 120t-114.5 322q0 196 118.5 320.5t310.5 124.5q138 0 244.5 -76t144.5 -193l-199 -69q-50 184 -203 184q-94 0 -153.5 -78t-59.5 -213
q0 -134 58.5 -210.5t154.5 -76.5q161 0 205 181l197 -72q-42 -118 -148 -191t-241 -73z" />
    <glyph glyph-name="ordfeminine" unicode="&#xaa;" horiz-adv-x="1071" 
d="M487 592q-141 0 -224 99.5t-83 254.5q0 116 34.5 213.5t92.5 161t131.5 98.5t153.5 35q183 0 270 -162l31 142h237l-174 -822h-237q9 52 22 111q-106 -131 -254 -131zM586 770q99 0 164 95.5t65 211.5q0 94 -42 146.5t-124 52.5q-98 0 -162.5 -96t-64.5 -215
q0 -195 164 -195z" />
    <glyph glyph-name="guillemotleft" unicode="&#xab;" horiz-adv-x="1257" 
d="M465 1004h326l-426 -523l174 -454h-283l-182 489zM1001 1004h326l-479 -586l149 -391h-282l-158 424z" />
    <glyph glyph-name="logicalnot" unicode="&#xac;" horiz-adv-x="1376" 
d="M1233 315h-246v295h-840v246h1086v-541z" />
    <glyph glyph-name="uni00AD" unicode="&#xad;" horiz-adv-x="968" 
d="M846 518h-723l57 266h721z" />
    <glyph glyph-name="registered" unicode="&#xae;" horiz-adv-x="1173" 
d="M694 541q-218 0 -358.5 143.5t-140.5 355.5q0 210 140 353t359 143q145 0 260.5 -66.5t178.5 -179.5t63 -250q0 -139 -63.5 -252.5t-178.5 -180t-260 -66.5zM694 670q163 0 262 104t99 266q0 159 -99 262t-262 103t-259.5 -102.5t-96.5 -262.5q0 -163 96.5 -266.5
t259.5 -103.5zM635 805h-125v467h248q63 0 106 -33.5t43 -89.5t-40 -84t-97 -35q56 -7 80.5 -34.5t32.5 -82.5l16 -108h-131l-12 102q-6 46 -23.5 62t-56.5 16h-41v-180zM635 1178v-101h74q73 0 73 51q0 50 -75 50h-72z" />
    <glyph glyph-name="macron" unicode="&#xaf;" horiz-adv-x="743" 
d="M836 1186h-641l43 196h639z" />
    <glyph glyph-name="degree" unicode="&#xb0;" horiz-adv-x="921" 
d="M606 856q-171 0 -279 109.5t-108 271.5q0 163 110 273t279 110t279 -110t110 -273q0 -165 -109.5 -273t-281.5 -108zM608 1071q68 0 111 46.5t43 121.5q0 72 -43 117t-111 45q-67 0 -111 -45.5t-44 -116.5q0 -75 44 -121.5t111 -46.5z" />
    <glyph glyph-name="plusminus" unicode="&#xb1;" horiz-adv-x="1394" 
d="M848 520h-246v252h-420v225h420v269h246v-269h420v-225h-420v-252zM1253 180h-1095v246h1095v-246z" />
    <glyph glyph-name="uni00B2" unicode="&#xb2;" horiz-adv-x="827" 
d="M791 797h-627l45 209q245 120 325 172q134 89 142 175v11q0 41 -21.5 63.5t-56.5 22.5q-87 0 -111 -143l-227 28q19 139 111 221t239 82q137 0 221 -69.5t84 -179.5q0 -92 -51 -163.5t-159 -140.5q-88 -57 -207 -100h254h79z" />
    <glyph glyph-name="uni00B3" unicode="&#xb3;" horiz-adv-x="815" 
d="M510 778q-153 0 -239 74.5t-89 204.5l232 26q0 -118 98 -118q44 0 72 24t28 64q0 31 -23.5 50t-56.5 19h-53l39 181h41q50 0 79.5 22.5t29.5 63.5q0 28 -19.5 45.5t-50.5 17.5q-39 0 -64.5 -30t-33.5 -79l-224 35q25 122 111 191t223 69q123 0 202 -60t79 -155
q0 -74 -45 -132.5t-141 -86.5q135 -48 135 -172q0 -113 -93 -183.5t-237 -70.5z" />
    <glyph glyph-name="acute" unicode="&#xb4;" horiz-adv-x="530" 
d="M426 1159h-207l172 316h314z" />
    <glyph glyph-name="uni00B5" unicode="&#xb5;" horiz-adv-x="1298" 
d="M465 -399h-291v1423h291v-614q0 -197 153 -197q72 0 119.5 44t66.5 112t19 159v496h291v-1024h-291v168q-116 -201 -313 -201q-31 0 -45 2v-368z" />
    <glyph glyph-name="paragraph" unicode="&#xb6;" horiz-adv-x="1562" 
d="M799 1434h872l-49 -224h-176l-342 -1607h-264l342 1607h-162l-342 -1607h-262l180 843q-107 2 -193.5 37t-141.5 93.5t-84.5 134t-29.5 159.5q0 172 86 301.5t233 196t333 66.5z" />
    <glyph glyph-name="periodcentered" unicode="&#xb7;" horiz-adv-x="585" 
d="M473 575h-336l70 324h334z" />
    <glyph glyph-name="cedilla" unicode="&#xb8;" horiz-adv-x="667" 
d="M123 -481q-158 0 -252 94l104 131q70 -55 140 -55q86 0 86 47q0 16 -17.5 29.5t-46.5 13.5q-33 0 -51 -6l-51 98l192 158l148 -29l-80 -59l-62 -45h3q23 0 50 -8.5t55 -26t46.5 -51t18.5 -76.5q0 -98 -71 -156.5t-212 -58.5z" />
    <glyph glyph-name="uni00B9" unicode="&#xb9;" horiz-adv-x="626" 
d="M555 797h-219l76 348l45 211q-92 -131 -236 -115l47 219q178 3 267 160h194z" />
    <glyph glyph-name="ordmasculine" unicode="&#xba;" horiz-adv-x="1030" 
d="M569 592q-184 0 -289.5 98t-105.5 266q0 71 20 141.5t61.5 134.5t99 113.5t139 79t174.5 29.5q176 0 287.5 -104.5t111.5 -272.5q0 -93 -33 -179t-94 -155t-157.5 -110t-213.5 -41zM592 764q64 0 116 52.5t78.5 126t26.5 147.5q0 93 -41.5 142.5t-122.5 49.5
q-64 0 -116 -52.5t-78.5 -126.5t-26.5 -149q0 -190 164 -190z" />
    <glyph glyph-name="guillemotright" unicode="&#xbb;" horiz-adv-x="1255" 
d="M262 1004h283l157 -424l-444 -553h-326l480 585zM721 1004h283l182 -490l-391 -487h-326l426 522z" />
    <glyph glyph-name="onequarter" unicode="&#xbc;" horiz-adv-x="1880" 
d="M348 0h-276l1325 1434h274zM520 610h-219l76 348l45 211q-91 -130 -236 -114l47 219q178 3 267 160h194zM1591 0h-211l39 184h-385l43 193l414 446h274l-94 -458h115l-39 -181h-117zM1393 365h65l27 116l24 113l-215 -229h99z" />
    <glyph glyph-name="onehalf" unicode="&#xbd;" horiz-adv-x="1822" 
d="M342 0h-276l1325 1434h274zM514 610h-219l76 348l45 211q-91 -130 -236 -114l47 219q178 3 267 160h194zM1634 0h-626l45 209q245 120 325 172q134 89 142 175v11q0 41 -21.5 63.5t-56.5 22.5q-87 0 -111 -143l-227 29q19 139 111 221t239 82q137 0 221 -70t84 -180
q0 -91 -51 -162.5t-160 -140.5q-91 -59 -207 -101h254h80z" />
    <glyph glyph-name="threequarters" unicode="&#xbe;" horiz-adv-x="2045" 
d="M471 592q-153 0 -239 74t-89 204l232 27q0 -119 98 -119q44 0 72 24t28 64q0 31 -23 50.5t-56 19.5h-54l39 180h41q50 0 79.5 22.5t29.5 63.5q0 28 -19.5 46t-50.5 18q-39 0 -64.5 -30t-33.5 -79l-223 35q25 122 110.5 191t222.5 69q123 0 202 -60t79 -155
q0 -74 -45 -132.5t-141 -86.5q135 -48 135 -172q0 -113 -93 -183.5t-237 -70.5zM514 0h-276l1325 1434h274zM1757 0h-211l39 184h-385l43 193l414 446h274l-94 -458h115l-39 -181h-117zM1559 365h65l27 116l24 113l-215 -229h99z" />
    <glyph glyph-name="questiondown" unicode="&#xbf;" horiz-adv-x="1114" 
d="M528 1208h334l-67 -321h-336zM467 694h266q-16 -77 -30 -120.5t-40.5 -86.5t-66.5 -76t-107 -75q-44 -27 -69.5 -45t-53.5 -44t-40.5 -54t-12.5 -60q0 -70 45.5 -108.5t118.5 -38.5q93 0 151.5 64.5t67.5 199.5l285 -51q-16 -202 -153 -329.5t-365 -127.5q-111 0 -199 29
t-142.5 79t-83 113t-28.5 135q0 69 20.5 125t66 103.5t96.5 83.5t133 84q120 71 141 200z" />
    <glyph glyph-name="Agrave" unicode="&#xc0;" horiz-adv-x="1505" 
d="M1034 1884l35 -315h-190l-193 315h348zM1382 0h-323l-45 336h-578l-184 -336h-348l846 1434h399zM727 866l-149 -272h403l-33 240q-32 242 -43 350q-61 -107 -178 -318z" />
    <glyph glyph-name="Aacute" unicode="&#xc1;" horiz-adv-x="1505" 
d="M1055 1884h344l-307 -315h-228zM-96 0l846 1434h399l233 -1434h-323l-45 336h-578l-184 -336h-348zM727 866l-149 -272h403l-33 240q-32 242 -43 350q-61 -107 -178 -318z" />
    <glyph glyph-name="Acircumflex" unicode="&#xc2;" horiz-adv-x="1505" 
d="M1139 1569l-129 145l-203 -145h-283l310 264h383l184 -264h-262zM-96 0l846 1434h399l233 -1434h-323l-45 336h-578l-184 -336h-348zM727 866l-149 -272h403l-33 240q-32 242 -43 350q-61 -107 -178 -318z" />
    <glyph glyph-name="Atilde" unicode="&#xc3;" horiz-adv-x="1505" 
d="M1276 1833h229q-11 -76 -41 -132.5t-75 -88.5t-96 -47t-111 -15q-101 0 -197 54l-55 26q-5 3 -18 10t-20 10.5t-18.5 8t-21.5 6.5t-21 2q-83 0 -108 -98h-229q15 134 102 209t219 75q98 0 201 -55l49 -24q7 -3 25 -12.5t26 -13t22.5 -7.5t28.5 -4q38 0 67 25t42 71z
M-96 0l846 1434h399l233 -1434h-323l-45 336h-578l-184 -336h-348zM727 866l-149 -272h403l-33 240q-32 242 -43 350q-61 -107 -178 -318z" />
    <glyph glyph-name="Adieresis" unicode="&#xc4;" horiz-adv-x="1505" 
d="M639 1815h299l-59 -246h-297zM1135 1815h299l-60 -246h-297zM-96 0l846 1434h399l233 -1434h-323l-45 336h-578l-184 -336h-348zM727 866l-149 -272h403l-33 240q-32 242 -43 350q-61 -107 -178 -318z" />
    <glyph glyph-name="Aring" unicode="&#xc5;" horiz-adv-x="1505" 
d="M981 1518q-106 0 -181 64t-75 177q0 117 82 198t209 81q106 0 180 -67.5t74 -182.5q0 -118 -80.5 -194t-208.5 -76zM1006 1882q-47 0 -80 -33t-33 -84q0 -42 28.5 -68t69.5 -26q47 0 78 32.5t31 86.5q0 39 -28 65.5t-66 26.5zM1382 0h-323l-45 336h-578l-184 -336h-348
l846 1434h399zM727 866l-149 -272h403l-33 240q-32 242 -43 350q-61 -107 -178 -318z" />
    <glyph glyph-name="AE" unicode="&#xc6;" horiz-adv-x="1982" 
d="M2081 1434l-56 -258h-677l-68 -312h489l-55 -254h-487l-74 -352h680l-55 -258h-990l74 338h-401l-228 -338h-376l1038 1434h1186zM915 596l70 322q38 172 59 284q-52 -74 -270 -399l-139 -207h280z" />
    <glyph glyph-name="Ccedilla" unicode="&#xc7;" horiz-adv-x="1558" 
d="M803 227q140 0 241.5 77.5t161.5 195.5l283 -131q-92 -162 -243 -270.5t-365 -127.5l-41 -30l-62 -45h2q23 0 50 -8.5t55 -26t46.5 -51t18.5 -76.5q0 -98 -70.5 -156.5t-211.5 -58.5q-158 0 -252 94l104 131q70 -55 139 -55q86 0 86 47q0 16 -17 29.5t-46 13.5
q-33 0 -51 -6l-51 98l122 100q-270 25 -423.5 189t-153.5 442q0 169 59.5 324.5t165 275.5t265.5 192t348 72q131 0 244 -37t192 -101t131.5 -145t75.5 -173l-303 -78q-87 276 -361 276q-93 0 -173.5 -35t-138 -94.5t-99 -137.5t-62 -164.5t-20.5 -174.5q0 -185 94.5 -280
t259.5 -95z" />
    <glyph glyph-name="Egrave" unicode="&#xc8;" horiz-adv-x="1343" 
d="M1026 1569h-190l-193 315h348zM1139 0h-1073l305 1434h1071l-56 -258h-763l-66 -312h578l-56 -254h-577l-74 -352h766z" />
    <glyph glyph-name="Eacute" unicode="&#xc9;" horiz-adv-x="1343" 
d="M1049 1569h-228l191 315h344zM1139 0h-1073l305 1434h1071l-56 -258h-763l-66 -312h578l-56 -254h-577l-74 -352h766z" />
    <glyph glyph-name="Ecircumflex" unicode="&#xca;" horiz-adv-x="1386" 
d="M764 1569h-283l310 264h383l184 -264h-262l-129 145zM1139 0h-1073l305 1434h1071l-56 -258h-763l-66 -312h578l-56 -254h-577l-74 -352h766z" />
    <glyph glyph-name="Edieresis" unicode="&#xcb;" horiz-adv-x="1378" 
d="M836 1569h-297l57 246h299zM1331 1569h-297l58 246h299zM1139 0h-1073l305 1434h1071l-56 -258h-763l-66 -312h578l-56 -254h-577l-74 -352h766z" />
    <glyph glyph-name="Igrave" unicode="&#xcc;" horiz-adv-x="763" 
d="M643 1569h-190l-193 315h348zM373 0h-307l305 1434h307z" />
    <glyph glyph-name="Iacute" unicode="&#xcd;" horiz-adv-x="655" 
d="M666 1569h-228l191 315h344zM373 0h-307l305 1434h307z" />
    <glyph glyph-name="Icircumflex" unicode="&#xce;" horiz-adv-x="780" 
d="M381 1569h-283l310 264h383l184 -264h-262l-129 145zM373 0h-307l305 1434h307z" />
    <glyph glyph-name="Idieresis" unicode="&#xcf;" horiz-adv-x="829" 
d="M453 1569h-297l57 246h299zM948 1569h-297l58 246h299zM373 0h-307l305 1434h307z" />
    <glyph glyph-name="Eth" unicode="&#xd0;" horiz-adv-x="1622" 
d="M395 1434h461q208 0 363 -69.5t242 -209.5t87 -336q0 -164 -61.5 -313t-169.5 -261t-267.5 -178.5t-344.5 -66.5h-615l135 637h-155l45 213h155zM455 258h237q128 0 231 44.5t168.5 121.5t100.5 178t35 217q0 173 -96 265t-275 92h-207l-69 -326h256l-45 -213h-256z" />
    <glyph glyph-name="Ntilde" unicode="&#xd1;" horiz-adv-x="1722" 
d="M1288 1550q-100 0 -196 54l-56 26q-3 2 -22 12t-26 13t-22 7.5t-28 4.5q-40 0 -68.5 -25.5t-40.5 -72.5h-229q15 134 102.5 209t219.5 75q97 0 200 -55l49 -24q6 -3 25 -13t27 -13t22.5 -7t28.5 -4q38 0 66 25t42 71h230q-11 -76 -41 -132.5t-75 -88.5t-96.5 -47
t-111.5 -15zM375 0h-309l305 1434h393l473 -936q16 85 74 354l125 582h309l-305 -1434h-269l-561 1112q-27 -120 -90 -420z" />
    <glyph glyph-name="Ograve" unicode="&#xd2;" horiz-adv-x="1718" 
d="M1155 1569h-190l-193 315h348zM842 -33q-174 0 -312 50.5t-225 139t-132.5 204.5t-45.5 251q0 179 64.5 337.5t175.5 272t267.5 179t334.5 65.5q172 0 309 -50t223.5 -138.5t132 -204.5t45.5 -252q0 -180 -63.5 -338.5t-173.5 -271.5t-266 -178.5t-334 -65.5zM842 225
q151 0 270 84.5t181.5 221t62.5 294.5q0 169 -103 276t-284 107q-151 0 -270.5 -84.5t-182.5 -220.5t-63 -293q0 -171 103 -278t286 -107z" />
    <glyph glyph-name="Oacute" unicode="&#xd3;" horiz-adv-x="1718" 
d="M1178 1569h-228l191 315h344zM842 -33q-174 0 -312 50.5t-225 139t-132.5 204.5t-45.5 251q0 179 64.5 337.5t175.5 272t267.5 179t334.5 65.5q172 0 309 -50t223.5 -138.5t132 -204.5t45.5 -252q0 -180 -63.5 -338.5t-173.5 -271.5t-266 -178.5t-334 -65.5zM842 225
q151 0 270 84.5t181.5 221t62.5 294.5q0 169 -103 276t-284 107q-151 0 -270.5 -84.5t-182.5 -220.5t-63 -293q0 -171 103 -278t286 -107z" />
    <glyph glyph-name="Ocircumflex" unicode="&#xd4;" horiz-adv-x="1718" 
d="M893 1569h-283l310 264h383l184 -264h-262l-129 145zM842 -33q-174 0 -312 50.5t-225 139t-132.5 204.5t-45.5 251q0 179 64.5 337.5t175.5 272t267.5 179t334.5 65.5q172 0 309 -50t223.5 -138.5t132 -204.5t45.5 -252q0 -180 -63.5 -338.5t-173.5 -271.5t-266 -178.5
t-334 -65.5zM842 225q151 0 270 84.5t181.5 221t62.5 294.5q0 169 -103 276t-284 107q-151 0 -270.5 -84.5t-182.5 -220.5t-63 -293q0 -171 103 -278t286 -107z" />
    <glyph glyph-name="Otilde" unicode="&#xd5;" horiz-adv-x="1718" 
d="M1268 1550q-101 0 -197 54l-55 26q-3 2 -22 12t-26 13t-22 7.5t-28 4.5q-40 0 -68.5 -25.5t-40.5 -72.5h-229q15 134 102 209t219 75q98 0 201 -55l49 -24q7 -3 25 -12.5t26 -13t22.5 -7.5t28.5 -4q38 0 67 25t42 71h229q-11 -76 -41 -132.5t-75 -88.5t-96 -47t-111 -15z
M842 -33q-174 0 -312 50.5t-225 139t-132.5 204.5t-45.5 251q0 179 64.5 337.5t175.5 272t267.5 179t334.5 65.5q172 0 309 -50t223.5 -138.5t132 -204.5t45.5 -252q0 -180 -63.5 -338.5t-173.5 -271.5t-266 -178.5t-334 -65.5zM842 225q151 0 270 84.5t181.5 221
t62.5 294.5q0 169 -103 276t-284 107q-151 0 -270.5 -84.5t-182.5 -220.5t-63 -293q0 -171 103 -278t286 -107z" />
    <glyph glyph-name="Odieresis" unicode="&#xd6;" horiz-adv-x="1718" 
d="M965 1569h-297l57 246h299zM1460 1569h-297l58 246h299zM842 -33q-174 0 -312 50.5t-225 139t-132.5 204.5t-45.5 251q0 179 64.5 337.5t175.5 272t267.5 179t334.5 65.5q172 0 309 -50t223.5 -138.5t132 -204.5t45.5 -252q0 -180 -63.5 -338.5t-173.5 -271.5
t-266 -178.5t-334 -65.5zM842 225q151 0 270 84.5t181.5 221t62.5 294.5q0 169 -103 276t-284 107q-151 0 -270.5 -84.5t-182.5 -220.5t-63 -293q0 -171 103 -278t286 -107z" />
    <glyph glyph-name="multiply" unicode="&#xd7;" horiz-adv-x="1302" 
d="M694 549l-348 -348l-164 164l348 348l-350 350l166 166l350 -350l348 348l164 -164l-348 -348l348 -348l-166 -166z" />
    <glyph glyph-name="Oslash" unicode="&#xd8;" horiz-adv-x="1722" 
d="M440 57l-153 -153l-191 180l148 147q-117 159 -117 381q0 179 64.5 337.5t176.5 272t268.5 179t334.5 65.5q235 0 407 -96l152 154l188 -185l-145 -145q108 -159 108 -373q0 -180 -63.5 -338.5t-173.5 -271.5t-266 -178.5t-334 -65.5q-237 0 -404 90zM477 465l428 428
q90 90 266 270q-85 45 -200 45q-151 0 -271 -84.5t-183.5 -220.5t-63.5 -293q0 -78 24 -145zM844 225q151 0 270 84.5t181.5 221t62.5 294.5q0 63 -21 131l-385 -385q-203 -203 -303 -305q80 -41 195 -41z" />
    <glyph glyph-name="Ugrave" unicode="&#xd9;" horiz-adv-x="1587" 
d="M1106 1569h-191l-192 315h348zM764 -33q-340 0 -497 165.5t-93 467.5l178 834h310l-179 -826q-38 -178 37.5 -276.5t243.5 -98.5q162 0 250.5 97t126.5 278l176 826h309l-184 -865q-65 -306 -228 -454t-450 -148z" />
    <glyph glyph-name="Uacute" unicode="&#xda;" horiz-adv-x="1587" 
d="M1108 1569h-227l190 315h344zM764 -33q-340 0 -497 165.5t-93 467.5l178 834h310l-179 -826q-38 -178 37.5 -276.5t243.5 -98.5q162 0 250.5 97t126.5 278l176 826h309l-184 -865q-65 -306 -228 -454t-450 -148z" />
    <glyph glyph-name="Ucircumflex" unicode="&#xdb;" horiz-adv-x="1587" 
d="M823 1569h-282l309 264h383l184 -264h-262l-129 145zM764 -33q-340 0 -497 165.5t-93 467.5l178 834h310l-179 -826q-38 -178 37.5 -276.5t243.5 -98.5q162 0 250.5 97t126.5 278l176 826h309l-184 -865q-65 -306 -228 -454t-450 -148z" />
    <glyph glyph-name="Udieresis" unicode="&#xdc;" horiz-adv-x="1587" 
d="M895 1569h-297l57 246h299zM1391 1569h-297l57 246h299zM764 -33q-340 0 -497 165.5t-93 467.5l178 834h310l-179 -826q-38 -178 37.5 -276.5t243.5 -98.5q162 0 250.5 97t126.5 278l176 826h309l-184 -865q-65 -306 -228 -454t-450 -148z" />
    <glyph glyph-name="Yacute" unicode="&#xdd;" horiz-adv-x="1378" 
d="M1014 1569h-228l191 315h344zM735 0h-307l125 584l-336 850h336l100 -279q61 -168 101 -283q60 84 213 285l211 277h368l-686 -850z" />
    <glyph glyph-name="Thorn" unicode="&#xde;" horiz-adv-x="1406" 
d="M1376 758q1 -229 -166.5 -365.5t-429.5 -136.5h-352l-55 -256h-307l305 1434h307l-53 -248h198q144 0 253 -33.5t173 -93.5t95.5 -135.5t31.5 -165.5zM481 514h297q116 0 195.5 64t79.5 170q0 78 -61.5 129t-168.5 51h-254z" />
    <glyph glyph-name="germandbls" unicode="&#xdf;" horiz-adv-x="1300" 
d="M645 -23q-111 0 -182 23l51 240q60 -11 100 -11q123 0 210 65t87 175q0 78 -59 125t-160 47h-96l45 211h78q119 0 191.5 62.5t72.5 154.5q0 74 -50 119t-134 45q-101 0 -170 -61t-103 -220l-202 -954h-289l203 967q26 122 68.5 211t111 156t170 100.5t235.5 33.5
q124 0 225.5 -40.5t164.5 -123.5t63 -196q0 -128 -97 -235t-249 -128q42 -6 87 -29t88.5 -60t71 -96.5t27.5 -129.5q0 -133 -72.5 -236t-199.5 -158.5t-287 -56.5z" />
    <glyph glyph-name="agrave" unicode="&#xe0;" horiz-adv-x="1173" 
d="M768 1159h-174l-174 316h315zM360 -33q-61 0 -116.5 16t-101.5 47.5t-73.5 84.5t-27.5 121q0 104 54.5 184.5t153.5 131t229 78t290 32.5l10 49q12 61 -29 98t-126 37q-94 0 -155 -45t-91 -113l-264 76q16 53 52.5 101.5t96.5 92.5t153.5 70.5t207.5 26.5
q242 0 351.5 -110.5t65.5 -323.5l-73 -359q-9 -41 32 -41h111l-47 -221h-178q-185 0 -185 139q-62 -82 -150.5 -127t-189.5 -45zM465 178q81 0 155.5 67.5t96.5 174.5l12 57q-387 -17 -387 -192q0 -51 33 -79t90 -28z" />
    <glyph glyph-name="aacute" unicode="&#xe1;" horiz-adv-x="1173" 
d="M784 1159h-206l172 316h313zM360 -33q-61 0 -116.5 16t-101.5 47.5t-73.5 84.5t-27.5 121q0 104 54.5 184.5t153.5 131t229 78t290 32.5l10 49q12 61 -29 98t-126 37q-94 0 -155 -45t-91 -113l-264 76q16 53 52.5 101.5t96.5 92.5t153.5 70.5t207.5 26.5
q242 0 351.5 -110.5t65.5 -323.5l-73 -359q-9 -41 32 -41h111l-47 -221h-178q-185 0 -185 139q-62 -82 -150.5 -127t-189.5 -45zM465 178q81 0 155.5 67.5t96.5 174.5l12 57q-387 -17 -387 -192q0 -51 33 -79t90 -28z" />
    <glyph glyph-name="acircumflex" unicode="&#xe2;" horiz-adv-x="1173" 
d="M524 1159h-258l283 264h348l166 -264h-238l-116 146zM360 -33q-61 0 -116.5 16t-101.5 47.5t-73.5 84.5t-27.5 121q0 104 54.5 184.5t153.5 131t229 78t290 32.5l10 49q12 61 -29 98t-126 37q-94 0 -155 -45t-91 -113l-264 76q16 53 52.5 101.5t96.5 92.5t153.5 70.5
t207.5 26.5q242 0 351.5 -110.5t65.5 -323.5l-73 -359q-9 -41 32 -41h111l-47 -221h-178q-185 0 -185 139q-62 -82 -150.5 -127t-189.5 -45zM465 178q81 0 155.5 67.5t96.5 174.5l12 57q-387 -17 -387 -192q0 -51 33 -79t90 -28z" />
    <glyph glyph-name="atilde" unicode="&#xe3;" horiz-adv-x="1220" 
d="M852 1141q-93 0 -178 53l-49 27q-4 2 -16.5 9.5t-18.5 10.5t-16.5 7.5t-20 6.5t-18.5 2q-37 0 -63 -25.5t-36 -72.5h-209q13 134 92.5 209.5t200.5 75.5q89 0 182 -55l46 -25q5 -3 22 -13t24 -13t20.5 -7t25.5 -4q35 0 60.5 25t37.5 71h209q-19 -148 -99.5 -215
t-195.5 -67zM360 -33q-61 0 -116.5 16t-101.5 47.5t-73.5 84.5t-27.5 121q0 104 54.5 184.5t153.5 131t229 78t290 32.5l10 49q12 61 -29 98t-126 37q-94 0 -155 -45t-91 -113l-264 76q16 53 52.5 101.5t96.5 92.5t153.5 70.5t207.5 26.5q242 0 351.5 -110.5t65.5 -323.5
l-73 -359q-9 -41 32 -41h111l-47 -221h-178q-185 0 -185 139q-62 -82 -150.5 -127t-189.5 -45zM465 178q81 0 155.5 67.5t96.5 174.5l12 57q-387 -17 -387 -192q0 -51 33 -79t90 -28z" />
    <glyph glyph-name="adieresis" unicode="&#xe4;" horiz-adv-x="1173" 
d="M590 1178h-271l54 245h270zM1040 1178h-270l53 245h271zM360 -33q-61 0 -116.5 16t-101.5 47.5t-73.5 84.5t-27.5 121q0 104 54.5 184.5t153.5 131t229 78t290 32.5l10 49q12 61 -29 98t-126 37q-94 0 -155 -45t-91 -113l-264 76q16 53 52.5 101.5t96.5 92.5t153.5 70.5
t207.5 26.5q242 0 351.5 -110.5t65.5 -323.5l-73 -359q-9 -41 32 -41h111l-47 -221h-178q-185 0 -185 139q-62 -82 -150.5 -127t-189.5 -45zM465 178q81 0 155.5 67.5t96.5 174.5l12 57q-387 -17 -387 -192q0 -51 33 -79t90 -28z" />
    <glyph glyph-name="aring" unicode="&#xe5;" horiz-adv-x="1173" 
d="M692 1128q-101 0 -172 61.5t-71 170.5q0 111 77.5 187.5t198.5 76.5q101 0 171.5 -64t70.5 -174q0 -111 -76.5 -184.5t-198.5 -73.5zM702 1276q44 0 73.5 31t29.5 82q0 37 -27 62.5t-63 25.5q-44 0 -75.5 -31.5t-31.5 -79.5q0 -40 27.5 -65t66.5 -25zM360 -33
q-61 0 -116.5 16t-101.5 47.5t-73.5 84.5t-27.5 121q0 104 54.5 184.5t153.5 131t229 78t290 32.5l10 49q12 61 -29 98t-126 37q-94 0 -155 -45t-91 -113l-264 76q16 53 52.5 101.5t96.5 92.5t153.5 70.5t207.5 26.5q242 0 351.5 -110.5t65.5 -323.5l-73 -359q-9 -41 32 -41
h111l-47 -221h-178q-185 0 -185 139q-62 -82 -150.5 -127t-189.5 -45zM465 178q81 0 155.5 67.5t96.5 174.5l12 57q-387 -17 -387 -192q0 -51 33 -79t90 -28z" />
    <glyph glyph-name="ae" unicode="&#xe6;" horiz-adv-x="1812" 
d="M365 -31q-157 0 -245.5 70.5t-88.5 191.5q0 106 60 186.5t164.5 128.5t229 73t269.5 30l12 64q10 60 -30 96.5t-115 36.5q-79 0 -143 -47t-91 -111l-266 76q21 69 82.5 133.5t169 111t233.5 46.5q125 0 209.5 -37t142.5 -113q144 150 365 150q118 0 210 -47t143 -129.5
t64.5 -194.5t-26.5 -242h-719q-15 -125 33.5 -189.5t169.5 -64.5q75 0 141 51t107 128l246 -109q-31 -54 -70.5 -99.5t-99.5 -91.5t-145.5 -73t-186.5 -27q-145 0 -249 52.5t-157 148.5q-62 -92 -170 -145.5t-249 -53.5zM1038 643h437q6 95 -41 149t-136 54
q-91 0 -159.5 -52.5t-100.5 -150.5zM453 180q90 0 156.5 56.5t90.5 162.5l17 72q-387 -13 -387 -203q0 -39 33 -63.5t90 -24.5z" />
    <glyph glyph-name="ccedilla" unicode="&#xe7;" horiz-adv-x="1165" 
d="M575 199q160 0 256 194l254 -119q-139 -254 -405 -297l-49 -36l-62 -45h2q23 0 50 -8.5t55 -26t46.5 -51t18.5 -76.5q0 -98 -70.5 -156.5t-211.5 -58.5q-158 0 -252 94l104 131q70 -55 140 -55q86 0 86 47q0 16 -17.5 29.5t-46.5 13.5q-33 0 -51 -6l-51 98l121 100
q-193 18 -307.5 141.5t-114.5 329.5q0 158 73 297.5t209 227.5t303 88q189 0 320.5 -90t167.5 -238l-273 -80q-22 87 -79.5 132.5t-141.5 45.5q-69 0 -126 -35t-91.5 -91t-53 -122.5t-18.5 -134.5q0 -117 57.5 -180t157.5 -63z" />
    <glyph glyph-name="egrave" unicode="&#xe8;" horiz-adv-x="1155" 
d="M801 1159h-174l-174 316h315zM541 -33q-235 0 -355 114t-120 327q0 162 71 309.5t204 242.5t296 95q106 0 192 -31.5t141 -87t87 -132.5t30.5 -168.5t-28.5 -193.5h-719q-18 -122 31 -188t168 -66q78 0 144.5 51t107.5 128l241 -109q-29 -54 -69 -101t-98.5 -92
t-142 -71.5t-181.5 -26.5zM383 647h434q8 92 -39 145.5t-137 53.5q-89 0 -157.5 -52t-100.5 -147z" />
    <glyph glyph-name="eacute" unicode="&#xe9;" horiz-adv-x="1155" 
d="M817 1159h-207l172 316h314zM541 -33q-235 0 -355 114t-120 327q0 162 71 309.5t204 242.5t296 95q106 0 192 -31.5t141 -87t87 -132.5t30.5 -168.5t-28.5 -193.5h-719q-18 -122 31 -188t168 -66q78 0 144.5 51t107.5 128l241 -109q-29 -54 -69 -101t-98.5 -92
t-142 -71.5t-181.5 -26.5zM383 647h434q8 92 -39 145.5t-137 53.5q-89 0 -157.5 -52t-100.5 -147z" />
    <glyph glyph-name="ecircumflex" unicode="&#xea;" horiz-adv-x="1155" 
d="M557 1159h-258l283 264h348l166 -264h-238l-117 146zM541 -33q-235 0 -355 114t-120 327q0 162 71 309.5t204 242.5t296 95q106 0 192 -31.5t141 -87t87 -132.5t30.5 -168.5t-28.5 -193.5h-719q-18 -122 31 -188t168 -66q78 0 144.5 51t107.5 128l241 -109
q-29 -54 -69 -101t-98.5 -92t-142 -71.5t-181.5 -26.5zM383 647h434q8 92 -39 145.5t-137 53.5q-89 0 -157.5 -52t-100.5 -147z" />
    <glyph glyph-name="edieresis" unicode="&#xeb;" horiz-adv-x="1155" 
d="M623 1178h-271l54 245h270zM1073 1178h-270l53 245h270zM541 -33q-235 0 -355 114t-120 327q0 162 71 309.5t204 242.5t296 95q106 0 192 -31.5t141 -87t87 -132.5t30.5 -168.5t-28.5 -193.5h-719q-18 -122 31 -188t168 -66q78 0 144.5 51t107.5 128l241 -109
q-29 -54 -69 -101t-98.5 -92t-142 -71.5t-181.5 -26.5zM383 647h434q8 92 -39 145.5t-137 53.5q-89 0 -157.5 -52t-100.5 -147z" />
    <glyph glyph-name="igrave" unicode="&#xec;" horiz-adv-x="565" 
d="M506 1159h-174l-174 316h315zM315 0h-288l219 1024h286z" />
    <glyph glyph-name="iacute" unicode="&#xed;" horiz-adv-x="565" 
d="M514 1159h-207l172 316h314zM307 0h-289l220 1024h286z" />
    <glyph glyph-name="icircumflex" unicode="&#xee;" horiz-adv-x="571" 
d="M268 1159h-258l283 264h348l166 -264h-238l-116 146zM322 0h-289l219 1024h287z" />
    <glyph glyph-name="idieresis" unicode="&#xef;" horiz-adv-x="571" 
d="M334 1178h-271l54 245h270zM784 1178h-270l53 245h271zM322 0h-289l219 1024h287z" />
    <glyph glyph-name="eth" unicode="&#xf0;" 
d="M1212 1464l91 -145l-183 -113q103 -163 103 -368q0 -134 -28.5 -261.5t-85.5 -238t-136 -193.5t-187.5 -130.5t-232.5 -47.5q-232 0 -360 118t-130 327q0 98 37 192t101 167t157.5 118t198.5 45q135 0 236.5 -76.5t138.5 -187.5q38 108 31.5 213.5t-56.5 189.5l-176 -108
l-88 143l139 86q-89 53 -215 53q-123 0 -248 -51l48 227q130 43 270 43q215 0 371 -131zM573 199q114 0 185 84t71 198q0 99 -62.5 165.5t-154.5 66.5q-103 0 -181.5 -80t-78.5 -199q1 -113 64 -174t157 -61z" />
    <glyph glyph-name="ntilde" unicode="&#xf1;" horiz-adv-x="1214" 
d="M922 1141q-94 0 -179 53l-49 27q-4 2 -16.5 9.5t-18.5 10.5t-16.5 7.5t-20 6.5t-18.5 2q-76 0 -98 -98h-209q13 134 92.5 209.5t200.5 75.5q89 0 182 -55l45 -25q5 -3 22 -13t24 -13t20.5 -7t25.5 -4q35 0 61 25t38 71h209q-19 -148 -99.5 -215t-195.5 -67zM322 0h-289
l219 1024h280l-30 -147q28 35 53.5 60.5t65.5 55t91.5 46t110.5 16.5q161 0 244.5 -115t42.5 -311l-135 -629h-289l129 602q23 103 -11.5 158t-119.5 55q-58 0 -104 -30t-76 -83.5t-48 -105t-32 -117.5z" />
    <glyph glyph-name="ograve" unicode="&#xf2;" horiz-adv-x="1224" 
d="M813 1159h-174l-174 316h315zM575 -33q-235 0 -370 130t-135 341q0 170 76.5 312t208.5 223.5t288 81.5q237 0 373.5 -127.5t136.5 -347.5q0 -130 -45.5 -244.5t-123.5 -195t-184.5 -127t-224.5 -46.5zM575 199q81 0 147 58.5t100 145t34 177.5q0 119 -52.5 182
t-158.5 63q-81 0 -147 -59.5t-99.5 -147.5t-33.5 -180q0 -239 210 -239z" />
    <glyph glyph-name="oacute" unicode="&#xf3;" horiz-adv-x="1224" 
d="M829 1159h-206l172 316h313zM575 -33q-235 0 -370 130t-135 341q0 170 76.5 312t208.5 223.5t288 81.5q237 0 373.5 -127.5t136.5 -347.5q0 -130 -45.5 -244.5t-123.5 -195t-184.5 -127t-224.5 -46.5zM575 199q81 0 147 58.5t100 145t34 177.5q0 119 -52.5 182t-158.5 63
q-81 0 -147 -59.5t-99.5 -147.5t-33.5 -180q0 -239 210 -239z" />
    <glyph glyph-name="ocircumflex" unicode="&#xf4;" horiz-adv-x="1224" 
d="M569 1159h-258l283 264h348l166 -264h-238l-116 146zM575 -33q-235 0 -370 130t-135 341q0 170 76.5 312t208.5 223.5t288 81.5q237 0 373.5 -127.5t136.5 -347.5q0 -130 -45.5 -244.5t-123.5 -195t-184.5 -127t-224.5 -46.5zM575 199q81 0 147 58.5t100 145t34 177.5
q0 119 -52.5 182t-158.5 63q-81 0 -147 -59.5t-99.5 -147.5t-33.5 -180q0 -239 210 -239z" />
    <glyph glyph-name="otilde" unicode="&#xf5;" horiz-adv-x="1224" 
d="M897 1141q-93 0 -178 53l-49 27q-4 2 -16.5 9.5t-18.5 10.5t-16.5 7.5t-20 6.5t-18.5 2q-37 0 -63 -25.5t-36 -72.5h-209q13 134 92.5 209.5t200.5 75.5q90 0 183 -55l45 -25q5 -3 22 -13t24 -13t20.5 -7t25.5 -4q35 0 60.5 25t37.5 71h209q-19 -148 -99.5 -215
t-195.5 -67zM575 -33q-235 0 -370 130t-135 341q0 170 76.5 312t208.5 223.5t288 81.5q237 0 373.5 -127.5t136.5 -347.5q0 -130 -45.5 -244.5t-123.5 -195t-184.5 -127t-224.5 -46.5zM575 199q81 0 147 58.5t100 145t34 177.5q0 119 -52.5 182t-158.5 63q-81 0 -147 -59.5
t-99.5 -147.5t-33.5 -180q0 -239 210 -239z" />
    <glyph glyph-name="odieresis" unicode="&#xf6;" horiz-adv-x="1224" 
d="M635 1178h-270l53 245h270zM1085 1178h-270l53 245h271zM575 -33q-235 0 -370 130t-135 341q0 170 76.5 312t208.5 223.5t288 81.5q237 0 373.5 -127.5t136.5 -347.5q0 -130 -45.5 -244.5t-123.5 -195t-184.5 -127t-224.5 -46.5zM575 199q81 0 147 58.5t100 145t34 177.5
q0 119 -52.5 182t-158.5 63q-81 0 -147 -59.5t-99.5 -147.5t-33.5 -180q0 -239 210 -239z" />
    <glyph glyph-name="divide" unicode="&#xf7;" horiz-adv-x="1277" 
d="M854 983h-338v283h338v-283zM1227 600h-1086v246h1086v-246zM854 180h-338v283h338v-283z" />
    <glyph glyph-name="oslash" unicode="&#xf8;" horiz-adv-x="1228" 
d="M580 -33q-187 0 -318 88l-102 -96l-127 129l104 98q-65 114 -65 252q0 170 77 312t209.5 223.5t288.5 81.5q193 0 318 -84l110 104l123 -131l-108 -102q67 -115 67 -262q0 -130 -45.5 -244.5t-123 -195t-184 -127t-224.5 -46.5zM367 406l163 153q164 156 246 232
q-49 34 -127 34q-81 0 -147.5 -59.5t-100.5 -147.5t-34 -180v-32zM578 199q63 0 117.5 35t89 90.5t54 121.5t19.5 132v45l-166 -160q-95 -91 -250 -230q52 -34 136 -34z" />
    <glyph glyph-name="ugrave" unicode="&#xf9;" horiz-adv-x="1204" 
d="M817 1159h-174l-174 316h315zM360 -33q-64 0 -118.5 27.5t-94 81.5t-52 134t8.5 185l136 629h288l-129 -600q-23 -105 6.5 -160t112.5 -55q187 0 264 348l101 467h288l-219 -1024h-282l30 147q-139 -180 -340 -180z" />
    <glyph glyph-name="uacute" unicode="&#xfa;" horiz-adv-x="1204" 
d="M834 1159h-207l172 316h313zM360 -33q-64 0 -118.5 27.5t-94 81.5t-52 134t8.5 185l136 629h288l-129 -600q-23 -105 6.5 -160t112.5 -55q187 0 264 348l101 467h288l-219 -1024h-282l30 147q-139 -180 -340 -180z" />
    <glyph glyph-name="ucircumflex" unicode="&#xfb;" horiz-adv-x="1277" 
d="M573 1159h-258l283 264h348l166 -264h-238l-116 146zM360 -33q-64 0 -118.5 27.5t-94 81.5t-52 134t8.5 185l136 629h288l-129 -600q-23 -105 6.5 -160t112.5 -55q187 0 264 348l101 467h288l-219 -1024h-282l30 147q-139 -180 -340 -180z" />
    <glyph glyph-name="udieresis" unicode="&#xfc;" horiz-adv-x="1204" 
d="M639 1178h-270l53 245h270zM1090 1178h-271l53 245h271zM360 -33q-64 0 -118.5 27.5t-94 81.5t-52 134t8.5 185l136 629h288l-129 -600q-23 -105 6.5 -160t112.5 -55q187 0 264 348l101 467h288l-219 -1024h-282l30 147q-139 -180 -340 -180z" />
    <glyph glyph-name="yacute" unicode="&#xfd;" horiz-adv-x="1153" 
d="M752 1475h313l-279 -316h-206zM715 639l205 385h319l-672 -1186q-76 -136 -151.5 -186.5t-220.5 -50.5h-310l52 231h251q54 0 88 26t70 93l29 55l-273 1018h306l84 -385q47 -217 65 -291q27 47 158 291z" />
    <glyph glyph-name="thorn" unicode="&#xfe;" horiz-adv-x="1280" 
d="M238 -399h-289l389 1833h289l-68 -318l-45 -217q46 68 127.5 113t179.5 45q175 0 281 -127.5t106 -319.5q0 -141 -44 -263.5t-116 -204.5t-165 -128.5t-191 -46.5q-58 0 -107.5 13.5t-84 34t-63 49.5t-45.5 55.5t-30 56.5q-11 -52 -51 -237zM631 188q83 0 149 62.5
t98.5 152.5t32.5 185q0 248 -206 248q-83 0 -149.5 -60.5t-100 -149.5t-33.5 -184q0 -123 53 -188.5t156 -65.5z" />
    <glyph glyph-name="ydieresis" unicode="&#xff;" horiz-adv-x="1153" 
d="M375 1423h270l-53 -245h-270zM825 1423h271l-54 -245h-270zM715 639l205 385h319l-672 -1186q-76 -136 -151.5 -186.5t-220.5 -50.5h-310l52 231h251q54 0 88 26t70 93l29 55l-273 1018h306l84 -385q47 -217 65 -291q27 47 158 291z" />
    <glyph glyph-name="Amacron" unicode="&#x100;" horiz-adv-x="1505" 
d="M694 1786h703l-45 -197h-707zM-96 0l846 1434h399l233 -1434h-323l-45 336h-578l-184 -336h-348zM727 866l-149 -272h403l-33 240q-32 242 -43 350q-61 -107 -178 -318z" />
    <glyph glyph-name="amacron" unicode="&#x101;" horiz-adv-x="1173" 
d="M1006 1186h-641l43 196h639zM360 -33q-61 0 -116.5 16t-101.5 47.5t-73.5 84.5t-27.5 121q0 104 54.5 184.5t153.5 131t229 78t290 32.5l10 49q12 61 -29 98t-126 37q-94 0 -155 -45t-91 -113l-264 76q16 53 52.5 101.5t96.5 92.5t153.5 70.5t207.5 26.5
q242 0 351.5 -110.5t65.5 -323.5l-73 -359q-9 -41 32 -41h111l-47 -221h-178q-185 0 -185 139q-62 -82 -150.5 -127t-189.5 -45zM465 178q81 0 155.5 67.5t96.5 174.5l12 57q-387 -17 -387 -192q0 -51 33 -79t90 -28z" />
    <glyph glyph-name="Abreve" unicode="&#x102;" horiz-adv-x="1505" 
d="M991 1538q-173 0 -264.5 86t-77.5 209h215q-7 -47 30.5 -84t111.5 -37q139 0 186 121h225q-88 -295 -426 -295zM-96 0l846 1434h399l233 -1434h-323l-45 336h-578l-184 -336h-348zM727 866l-149 -272h403l-33 240q-32 242 -43 350q-61 -107 -178 -318z" />
    <glyph glyph-name="abreve" unicode="&#x103;" horiz-adv-x="1173" 
d="M700 1128q-158 0 -241 86t-70 209h195q-5 -47 28.5 -83.5t100.5 -36.5q71 0 112 35.5t58 84.5h204q-83 -295 -387 -295zM360 -33q-61 0 -116.5 16t-101.5 47.5t-73.5 84.5t-27.5 121q0 104 54.5 184.5t153.5 131t229 78t290 32.5l10 49q12 61 -29 98t-126 37
q-94 0 -155 -45t-91 -113l-264 76q16 53 52.5 101.5t96.5 92.5t153.5 70.5t207.5 26.5q242 0 351.5 -110.5t65.5 -323.5l-73 -359q-9 -41 32 -41h111l-47 -221h-178q-185 0 -185 139q-62 -82 -150.5 -127t-189.5 -45zM465 178q81 0 155.5 67.5t96.5 174.5l12 57
q-387 -17 -387 -192q0 -51 33 -79t90 -28z" />
    <glyph glyph-name="Aogonek" unicode="&#x104;" horiz-adv-x="1505" 
d="M1118 -168q0 -28 18.5 -43.5t67.5 -15.5q51 0 139 20l-45 -203q-87 -20 -174 -20q-106 0 -163.5 48.5t-57.5 125.5q0 80 55.5 146.5t159.5 109.5h-59l-45 336h-578l-184 -336h-348l846 1434h399l233 -1434q-137 -28 -200.5 -76t-63.5 -92zM727 866l-149 -272h403l-33 240
q-32 242 -43 350q-61 -107 -178 -318z" />
    <glyph glyph-name="aogonek" unicode="&#x105;" horiz-adv-x="1173" 
d="M1110 221l-47 -221q-137 -28 -200.5 -76t-63.5 -92q0 -28 18.5 -43.5t67.5 -15.5q51 0 139 20l-45 -203q-87 -20 -174 -20q-106 0 -163.5 48.5t-57.5 125.5q0 84 59.5 151.5t171.5 110.5q-115 22 -115 133q-62 -82 -150.5 -127t-189.5 -45q-61 0 -116.5 16t-101.5 47.5
t-73.5 84.5t-27.5 121q0 104 54.5 184.5t153.5 131t229 78t290 32.5l10 49q12 61 -29 98t-126 37q-94 0 -155 -45t-91 -113l-264 76q16 53 52.5 101.5t96.5 92.5t153.5 70.5t207.5 26.5q242 0 351.5 -110.5t65.5 -323.5l-73 -359q-9 -41 32 -41h111zM717 420l12 57
q-387 -17 -387 -192q0 -51 33 -79t90 -28q81 0 155.5 67.5t96.5 174.5z" />
    <glyph glyph-name="Cacute" unicode="&#x106;" horiz-adv-x="1558" 
d="M1147 1569h-227l190 315h344zM795 -33q-311 0 -490.5 167t-179.5 468q0 169 59.5 324.5t165 275.5t265.5 192t348 72q131 0 244 -37t192 -101t131.5 -145t75.5 -173l-303 -78q-87 276 -361 276q-93 0 -173.5 -35t-138 -94.5t-99 -137.5t-62 -164.5t-20.5 -174.5
q0 -185 94.5 -280t259.5 -95q140 0 241.5 77.5t161.5 195.5l283 -131q-48 -84 -110.5 -153t-147 -127t-196 -90t-240.5 -32z" />
    <glyph glyph-name="cacute" unicode="&#x107;" horiz-adv-x="1165" 
d="M831 1159h-206l172 316h313zM557 -33q-220 0 -353.5 126.5t-133.5 348.5q0 158 73 297.5t209 227.5t303 88q189 0 320.5 -90t167.5 -238l-273 -80q-22 87 -79.5 132.5t-141.5 45.5q-69 0 -126 -35t-91.5 -91t-53 -122.5t-18.5 -134.5q0 -117 57.5 -180t157.5 -63
q160 0 256 194l254 -119q-171 -307 -528 -307z" />
    <glyph glyph-name="Ccircumflex" unicode="&#x108;" horiz-adv-x="1558" 
d="M862 1569h-282l309 264h383l184 -264h-262l-129 145zM795 -33q-311 0 -490.5 167t-179.5 468q0 169 59.5 324.5t165 275.5t265.5 192t348 72q131 0 244 -37t192 -101t131.5 -145t75.5 -173l-303 -78q-87 276 -361 276q-93 0 -173.5 -35t-138 -94.5t-99 -137.5t-62 -164.5
t-20.5 -174.5q0 -185 94.5 -280t259.5 -95q140 0 241.5 77.5t161.5 195.5l283 -131q-48 -84 -110.5 -153t-147 -127t-196 -90t-240.5 -32z" />
    <glyph glyph-name="ccircumflex" unicode="&#x109;" horiz-adv-x="1165" 
d="M571 1159h-258l283 264h348l166 -264h-238l-116 146zM557 -33q-220 0 -353.5 126.5t-133.5 348.5q0 158 73 297.5t209 227.5t303 88q189 0 320.5 -90t167.5 -238l-273 -80q-22 87 -79.5 132.5t-141.5 45.5q-69 0 -126 -35t-91.5 -91t-53 -122.5t-18.5 -134.5
q0 -117 57.5 -180t157.5 -63q160 0 256 194l254 -119q-171 -307 -528 -307z" />
    <glyph glyph-name="Cdotaccent" unicode="&#x10a;" horiz-adv-x="1558" 
d="M1184 1569h-307l59 274h305zM795 -33q-311 0 -490.5 167t-179.5 468q0 169 59.5 324.5t165 275.5t265.5 192t348 72q131 0 244 -37t192 -101t131.5 -145t75.5 -173l-303 -78q-87 276 -361 276q-93 0 -173.5 -35t-138 -94.5t-99 -137.5t-62 -164.5t-20.5 -174.5
q0 -185 94.5 -280t259.5 -95q140 0 241.5 77.5t161.5 195.5l283 -131q-48 -84 -110.5 -153t-147 -127t-196 -90t-240.5 -32z" />
    <glyph glyph-name="cdotaccent" unicode="&#x10b;" horiz-adv-x="1165" 
d="M877 1159h-308l60 275h305zM557 -33q-220 0 -353.5 126.5t-133.5 348.5q0 158 73 297.5t209 227.5t303 88q189 0 320.5 -90t167.5 -238l-273 -80q-22 87 -79.5 132.5t-141.5 45.5q-69 0 -126 -35t-91.5 -91t-53 -122.5t-18.5 -134.5q0 -117 57.5 -180t157.5 -63
q160 0 256 194l254 -119q-171 -307 -528 -307z" />
    <glyph glyph-name="Ccaron" unicode="&#x10c;" horiz-adv-x="1558" 
d="M1264 1802h282l-309 -264h-383l-182 264h260l129 -145zM795 -33q-311 0 -490.5 167t-179.5 468q0 169 59.5 324.5t165 275.5t265.5 192t348 72q131 0 244 -37t192 -101t131.5 -145t75.5 -173l-303 -78q-87 276 -361 276q-93 0 -173.5 -35t-138 -94.5t-99 -137.5
t-62 -164.5t-20.5 -174.5q0 -185 94.5 -280t259.5 -95q140 0 241.5 77.5t161.5 195.5l283 -131q-48 -84 -110.5 -153t-147 -127t-196 -90t-240.5 -32z" />
    <glyph glyph-name="ccaron" unicode="&#x10d;" horiz-adv-x="1165" 
d="M911 1159h-350l-164 264h234l117 -145l182 145h262zM557 -33q-220 0 -353.5 126.5t-133.5 348.5q0 158 73 297.5t209 227.5t303 88q189 0 320.5 -90t167.5 -238l-273 -80q-22 87 -79.5 132.5t-141.5 45.5q-69 0 -126 -35t-91.5 -91t-53 -122.5t-18.5 -134.5
q0 -117 57.5 -180t157.5 -63q160 0 256 194l254 -119q-171 -307 -528 -307z" />
    <glyph glyph-name="Dcaron" unicode="&#x10e;" horiz-adv-x="1562" 
d="M1120 1802h283l-309 -264h-383l-183 264h260l130 -145zM680 0h-614l305 1434h460q208 0 363 -69.5t242.5 -209.5t87.5 -336q0 -164 -61.5 -313t-170 -261t-268 -178.5t-344.5 -66.5zM625 1176l-195 -918h238q128 0 230.5 44.5t168 122t100.5 178t35 216.5q0 173 -96 265
t-275 92h-206z" />
    <glyph glyph-name="dcaron" unicode="&#x10f;" horiz-adv-x="1470" 
d="M449 -33q-171 0 -273 125t-102 324q0 144 42 266t112.5 203t163.5 126.5t196 45.5q240 0 332 -207q9 48 45 213l79 371h289l-307 -1434h-276q10 59 24 127q-54 -67 -138.5 -113.5t-186.5 -46.5zM1473 872h-144l242 287h-156l62 275h288l-65 -291zM580 188q83 0 149 62.5
t98.5 152.5t32.5 185q0 248 -207 248q-63 0 -117 -36t-89.5 -93t-55.5 -126.5t-20 -138.5q0 -123 53 -188.5t156 -65.5z" />
    <glyph glyph-name="Dcroat" unicode="&#x110;" horiz-adv-x="1622" 
d="M395 1434h461q208 0 363 -69.5t242 -209.5t87 -336q0 -164 -61.5 -313t-169.5 -261t-267.5 -178.5t-344.5 -66.5h-615l135 637h-155l45 213h155zM455 258h237q128 0 231 44.5t168.5 121.5t100.5 178t35 217q0 173 -96 265t-275 92h-207l-69 -326h256l-45 -213h-256z" />
    <glyph glyph-name="dcroat" unicode="&#x111;" horiz-adv-x="1277" 
d="M1300 1280h162l-37 -172h-161l-238 -1108h-276q10 59 24 127q-54 -67 -138.5 -113.5t-186.5 -46.5q-171 0 -273 125t-102 324q0 144 42 266t112.5 203t163.5 126.5t196 45.5q240 0 332 -207q9 48 45 213l10 45h-313l36 172h314l32 154h289zM580 188q83 0 149 62.5
t98.5 152.5t32.5 185q0 248 -207 248q-63 0 -117 -36t-89.5 -93t-55.5 -126.5t-20 -138.5q0 -123 53 -188.5t156 -65.5z" />
    <glyph glyph-name="Emacron" unicode="&#x112;" horiz-adv-x="1343" 
d="M1309 1589h-707l49 197h703zM1139 0h-1073l305 1434h1071l-56 -258h-763l-66 -312h578l-56 -254h-577l-74 -352h766z" />
    <glyph glyph-name="emacron" unicode="&#x113;" horiz-adv-x="1155" 
d="M1038 1186h-641l43 196h639zM541 -33q-235 0 -355 114t-120 327q0 162 71 309.5t204 242.5t296 95q106 0 192 -31.5t141 -87t87 -132.5t30.5 -168.5t-28.5 -193.5h-719q-18 -122 31 -188t168 -66q78 0 144.5 51t107.5 128l241 -109q-29 -54 -69 -101t-98.5 -92
t-142 -71.5t-181.5 -26.5zM383 647h434q8 92 -39 145.5t-137 53.5q-89 0 -157.5 -52t-100.5 -147z" />
    <glyph glyph-name="Ebreve" unicode="&#x114;" horiz-adv-x="1343" 
d="M948 1538q-173 0 -264.5 86t-77.5 209h215q-7 -47 30.5 -84t111.5 -37q139 0 186 121h225q-88 -295 -426 -295zM1139 0h-1073l305 1434h1071l-56 -258h-763l-66 -312h578l-56 -254h-577l-74 -352h766z" />
    <glyph glyph-name="ebreve" unicode="&#x115;" horiz-adv-x="1155" 
d="M733 1128q-158 0 -241 86t-70 209h194q-5 -47 28.5 -83.5t100.5 -36.5q71 0 112 35.5t58 84.5h205q-83 -295 -387 -295zM541 -33q-235 0 -355 114t-120 327q0 162 71 309.5t204 242.5t296 95q106 0 192 -31.5t141 -87t87 -132.5t30.5 -168.5t-28.5 -193.5h-719
q-18 -122 31 -188t168 -66q78 0 144.5 51t107.5 128l241 -109q-29 -54 -69 -101t-98.5 -92t-142 -71.5t-181.5 -26.5zM383 647h434q8 92 -39 145.5t-137 53.5q-89 0 -157.5 -52t-100.5 -147z" />
    <glyph glyph-name="Edotaccent" unicode="&#x116;" horiz-adv-x="1343" 
d="M1085 1569h-307l60 274h305zM1139 0h-1073l305 1434h1071l-56 -258h-763l-66 -312h578l-56 -254h-577l-74 -352h766z" />
    <glyph glyph-name="edotaccent" unicode="&#x117;" horiz-adv-x="1155" 
d="M862 1159h-307l59 275h306zM541 -33q-235 0 -355 114t-120 327q0 162 71 309.5t204 242.5t296 95q106 0 192 -31.5t141 -87t87 -132.5t30.5 -168.5t-28.5 -193.5h-719q-18 -122 31 -188t168 -66q78 0 144.5 51t107.5 128l241 -109q-29 -54 -69 -101t-98.5 -92t-142 -71.5
t-181.5 -26.5zM383 647h434q8 92 -39 145.5t-137 53.5q-89 0 -157.5 -52t-100.5 -147z" />
    <glyph glyph-name="Eogonek" unicode="&#x118;" horiz-adv-x="1343" 
d="M1442 1434l-56 -258h-763l-66 -312h578l-56 -254h-577l-74 -352h766l-55 -258q-137 -28 -201 -76t-64 -92q0 -59 87 -59q51 0 139 20l-45 -203q-88 -20 -174 -20q-106 0 -164 48.5t-58 125.5q0 80 55.5 146.5t159.5 109.5h-808l305 1434h1071z" />
    <glyph glyph-name="eogonek" unicode="&#x119;" horiz-adv-x="1155" 
d="M66 408q0 162 71 309.5t204 242.5t296 95q106 0 192 -31.5t141 -87t87 -132.5t30.5 -168.5t-28.5 -193.5h-719q-18 -122 31 -188t168 -66q78 0 144.5 51t107.5 128l241 -109q-53 -98 -142.5 -174.5t-219.5 -106.5q-110 -25 -155.5 -66t-45.5 -79q0 -28 18.5 -43.5
t67.5 -15.5q51 0 139 20l-45 -203q-87 -20 -174 -20q-106 0 -163.5 48.5t-57.5 125.5q0 68 38.5 122.5t125.5 108.5q-184 36 -268 145.5t-84 287.5zM383 647h434q8 92 -39 145.5t-137 53.5q-89 0 -157.5 -52t-100.5 -147z" />
    <glyph glyph-name="Ecaron" unicode="&#x11a;" horiz-adv-x="1343" 
d="M1165 1802h283l-309 -264h-383l-183 264h261l129 -145zM1139 0h-1073l305 1434h1071l-56 -258h-763l-66 -312h578l-56 -254h-577l-74 -352h766z" />
    <glyph glyph-name="ecaron" unicode="&#x11b;" horiz-adv-x="1155" 
d="M897 1159h-350l-164 264h233l117 -145l182 145h263zM541 -33q-235 0 -355 114t-120 327q0 162 71 309.5t204 242.5t296 95q106 0 192 -31.5t141 -87t87 -132.5t30.5 -168.5t-28.5 -193.5h-719q-18 -122 31 -188t168 -66q78 0 144.5 51t107.5 128l241 -109
q-29 -54 -69 -101t-98.5 -92t-142 -71.5t-181.5 -26.5zM383 647h434q8 92 -39 145.5t-137 53.5q-89 0 -157.5 -52t-100.5 -147z" />
    <glyph glyph-name="Gcircumflex" unicode="&#x11c;" horiz-adv-x="1626" 
d="M870 1569h-282l309 264h383l184 -264h-262l-129 145zM725 -33q-120 0 -226.5 39t-191.5 113.5t-134.5 195.5t-49.5 273q0 132 34 259t103.5 239t166 197t231 134t288.5 49q133 0 247.5 -35.5t196 -97t136.5 -141.5t78 -172l-320 -90q-86 266 -352 266q-93 0 -173 -34
t-136.5 -92t-97 -133.5t-60 -158.5t-19.5 -168q0 -193 97 -291t264 -98q78 0 147.5 24.5t117.5 63.5t80 82.5t48 87.5h-455l54 258h762l-156 -737h-279q13 65 37 170q-27 -35 -64 -67t-90.5 -64.5t-127.5 -52t-156 -19.5z" />
    <glyph glyph-name="gcircumflex" unicode="&#x11d;" horiz-adv-x="1259" 
d="M563 1159h-258l283 264h348l166 -264h-238l-116 146zM600 -399h-412q-133 0 -203.5 62t-70.5 159q0 76 51 134t119 87q-66 63 -66 156q0 87 58.5 152t156.5 102q-59 81 -59 194q0 169 134.5 288.5t342.5 119.5q144 0 239.5 -53.5t141.5 -141.5q20 93 67.5 128.5
t119.5 35.5h122l-47 -221h-108q-49 0 -71 -16t-40 -70l-31 -94q-104 -314 -438 -314q-143 0 -256 49q-49 -11 -72.5 -33.5t-23.5 -48.5q0 -27 22.5 -38t71.5 -11h348q186 0 279.5 -82.5t93.5 -205.5q0 -158 -114.5 -248t-354.5 -90zM600 502q79 0 140 60.5t61 146.5
q0 70 -39.5 108.5t-116.5 38.5q-79 0 -140 -60.5t-61 -146.5q0 -70 39.5 -108.5t116.5 -38.5zM262 -188h377q141 0 141 106q0 82 -112 82h-459q-64 -48 -64 -104q0 -84 117 -84z" />
    <glyph glyph-name="Gbreve" unicode="&#x11e;" horiz-adv-x="1626" 
d="M1044 1538q-173 0 -264.5 86t-77.5 209h216q-7 -47 30 -84t111 -37q139 0 186 121h225q-88 -295 -426 -295zM725 -33q-120 0 -226.5 39t-191.5 113.5t-134.5 195.5t-49.5 273q0 132 34 259t103.5 239t166 197t231 134t288.5 49q133 0 247.5 -35.5t196 -97t136.5 -141.5
t78 -172l-320 -90q-86 266 -352 266q-93 0 -173 -34t-136.5 -92t-97 -133.5t-60 -158.5t-19.5 -168q0 -193 97 -291t264 -98q78 0 147.5 24.5t117.5 63.5t80 82.5t48 87.5h-455l54 258h762l-156 -737h-279q13 65 37 170q-27 -35 -64 -67t-90.5 -64.5t-127.5 -52t-156 -19.5z
" />
    <glyph glyph-name="gbreve" unicode="&#x11f;" horiz-adv-x="1259" 
d="M739 1128q-158 0 -241 86t-70 209h195q-5 -47 28.5 -83.5t100.5 -36.5q71 0 112 35.5t58 84.5h204q-83 -295 -387 -295zM600 -399h-412q-133 0 -203.5 62t-70.5 159q0 76 51 134t119 87q-66 63 -66 156q0 87 58.5 152t156.5 102q-59 81 -59 194q0 169 134.5 288.5
t342.5 119.5q144 0 239.5 -53.5t141.5 -141.5q20 93 67.5 128.5t119.5 35.5h122l-47 -221h-108q-49 0 -71 -16t-40 -70l-31 -94q-104 -314 -438 -314q-143 0 -256 49q-49 -11 -72.5 -33.5t-23.5 -48.5q0 -27 22.5 -38t71.5 -11h348q186 0 279.5 -82.5t93.5 -205.5
q0 -158 -114.5 -248t-354.5 -90zM600 502q79 0 140 60.5t61 146.5q0 70 -39.5 108.5t-116.5 38.5q-79 0 -140 -60.5t-61 -146.5q0 -70 39.5 -108.5t116.5 -38.5zM262 -188h377q141 0 141 106q0 82 -112 82h-459q-64 -48 -64 -104q0 -84 117 -84z" />
    <glyph glyph-name="Gdotaccent" unicode="&#x120;" horiz-adv-x="1626" 
d="M1192 1569h-307l59 274h305zM725 -33q-120 0 -226.5 39t-191.5 113.5t-134.5 195.5t-49.5 273q0 132 34 259t103.5 239t166 197t231 134t288.5 49q133 0 247.5 -35.5t196 -97t136.5 -141.5t78 -172l-320 -90q-86 266 -352 266q-93 0 -173 -34t-136.5 -92t-97 -133.5
t-60 -158.5t-19.5 -168q0 -193 97 -291t264 -98q78 0 147.5 24.5t117.5 63.5t80 82.5t48 87.5h-455l54 258h762l-156 -737h-279q13 65 37 170q-27 -35 -64 -67t-90.5 -64.5t-127.5 -52t-156 -19.5z" />
    <glyph glyph-name="gdotaccent" unicode="&#x121;" horiz-adv-x="1259" 
d="M868 1159h-307l60 275h305zM600 -399h-412q-133 0 -203.5 62t-70.5 159q0 76 51 134t119 87q-66 63 -66 156q0 87 58.5 152t156.5 102q-59 81 -59 194q0 169 134.5 288.5t342.5 119.5q144 0 239.5 -53.5t141.5 -141.5q20 93 67.5 128.5t119.5 35.5h122l-47 -221h-108
q-49 0 -71 -16t-40 -70l-31 -94q-104 -314 -438 -314q-143 0 -256 49q-49 -11 -72.5 -33.5t-23.5 -48.5q0 -27 22.5 -38t71.5 -11h348q186 0 279.5 -82.5t93.5 -205.5q0 -158 -114.5 -248t-354.5 -90zM600 502q79 0 140 60.5t61 146.5q0 70 -39.5 108.5t-116.5 38.5
q-79 0 -140 -60.5t-61 -146.5q0 -70 39.5 -108.5t116.5 -38.5zM262 -188h377q141 0 141 106q0 82 -112 82h-459q-64 -48 -64 -104q0 -84 117 -84z" />
    <glyph glyph-name="uni0122" unicode="&#x122;" horiz-adv-x="1626" 
d="M725 -33q-120 0 -226.5 39t-191.5 113.5t-134.5 195.5t-49.5 273q0 132 34 259t103.5 239t166 197t231 134t288.5 49q133 0 247.5 -35.5t196 -97t136.5 -141.5t78 -172l-320 -90q-86 266 -352 266q-93 0 -173 -34t-136.5 -92t-97 -133.5t-60 -158.5t-19.5 -168
q0 -193 97 -291t264 -98q78 0 147.5 24.5t117.5 63.5t80 82.5t48 87.5h-455l54 258h762l-156 -737h-279q13 65 37 170q-27 -35 -64 -67t-90.5 -64.5t-127.5 -52t-156 -19.5zM561 -686h-143l241 287h-155l61 274h289l-66 -291z" />
    <glyph glyph-name="uni0123" unicode="&#x123;" horiz-adv-x="1259" 
d="M864 1720h144l-242 -286h156l-62 -275h-289l66 291zM600 -399h-412q-133 0 -203.5 62t-70.5 159q0 76 51 134t119 87q-66 63 -66 156q0 87 58.5 152t156.5 102q-59 81 -59 194q0 169 134.5 288.5t342.5 119.5q144 0 239.5 -53.5t141.5 -141.5q20 93 67.5 128.5
t119.5 35.5h122l-47 -221h-108q-49 0 -71 -16t-40 -70l-31 -94q-104 -314 -438 -314q-143 0 -256 49q-49 -11 -72.5 -33.5t-23.5 -48.5q0 -27 22.5 -38t71.5 -11h348q186 0 279.5 -82.5t93.5 -205.5q0 -158 -114.5 -248t-354.5 -90zM600 502q79 0 140 60.5t61 146.5
q0 70 -39.5 108.5t-116.5 38.5q-79 0 -140 -60.5t-61 -146.5q0 -70 39.5 -108.5t116.5 -38.5zM262 -188h377q141 0 141 106q0 82 -112 82h-459q-64 -48 -64 -104q0 -84 117 -84z" />
    <glyph glyph-name="Hcircumflex" unicode="&#x124;" horiz-adv-x="1572" 
d="M846 1569h-283l309 264h383l185 -264h-262l-129 145zM375 0h-309l305 1434h307l-121 -568h608l123 568h307l-305 -1434h-307l127 608h-608z" />
    <glyph glyph-name="hcircumflex" unicode="&#x125;" horiz-adv-x="1214" 
d="M662 1569h-259l283 264h348l166 -264h-237l-117 145zM322 0h-289l307 1434h289l-80 -373q-6 -30 -19.5 -91.5t-19.5 -92.5q26 34 52 60t66 55.5t94 46t116 16.5q149 0 231.5 -113t40.5 -313l-135 -629h-289l129 602q23 103 -11 158t-118 55q-49 0 -90 -22t-67 -54.5
t-48.5 -83t-34.5 -92.5t-24 -98z" />
    <glyph glyph-name="Hbar" unicode="&#x126;" horiz-adv-x="1732" 
d="M1591 1249h158l-43 -205h-158l-223 -1044h-307l127 608h-608l-127 -608h-310l224 1044h-164l43 205h164l39 185h307l-39 -185h610l39 185h307zM592 866h608l39 178h-608z" />
    <glyph glyph-name="hbar" unicode="&#x127;" horiz-adv-x="1290" 
d="M838 1055q149 0 231.5 -113t40.5 -313l-135 -629h-289l129 602q23 103 -11 158t-118 55q-49 0 -90 -22t-67 -54.5t-48.5 -83t-34.5 -92.5t-24 -98l-100 -465h-289l237 1108h-159l36 172h160l33 154h289l-33 -154h315l-37 -172h-315l-10 -47q-6 -30 -19.5 -91.5
t-19.5 -92.5q26 34 52 60t66 55.5t94 46t116 16.5z" />
    <glyph glyph-name="Itilde" unicode="&#x128;" horiz-adv-x="722" 
d="M756 1550q-101 0 -197 54l-55 26q-3 2 -22 12t-26 13t-22 7.5t-28 4.5q-40 0 -68.5 -25.5t-40.5 -72.5h-229q15 134 102 209t219 75q98 0 201 -55l49 -24q7 -3 25 -12.5t26 -13t22.5 -7.5t28.5 -4q38 0 67 25t42 71h229q-11 -76 -41 -132.5t-75 -88.5t-96 -47t-111 -15z
M373 0h-307l305 1434h307z" />
    <glyph glyph-name="itilde" unicode="&#x129;" horiz-adv-x="647" 
d="M596 1141q-93 0 -178 53l-49 27q-4 2 -16.5 9.5t-18.5 10.5t-16.5 7.5t-20 6.5t-18.5 2q-37 0 -63 -25.5t-36 -72.5h-209q13 134 92.5 209.5t200.5 75.5q89 0 182 -55l46 -25q5 -3 22 -13t24 -13t20.5 -7t25.5 -4q35 0 60.5 25t37.5 71h209q-19 -148 -99.5 -215
t-195.5 -67zM322 0h-289l219 1024h287z" />
    <glyph glyph-name="Imacron" unicode="&#x12a;" horiz-adv-x="817" 
d="M909 1589h-706l49 197h702zM373 0h-307l305 1434h307z" />
    <glyph glyph-name="imacron" unicode="&#x12b;" horiz-adv-x="731" 
d="M750 1186h-641l43 196h639zM322 0h-289l219 1024h287z" />
    <glyph glyph-name="Ibreve" unicode="&#x12c;" horiz-adv-x="768" 
d="M565 1538q-173 0 -264.5 86t-77.5 209h215q-7 -47 30.5 -84t111.5 -37q139 0 186 121h225q-88 -295 -426 -295zM373 0h-307l305 1434h307z" />
    <glyph glyph-name="ibreve" unicode="&#x12d;" horiz-adv-x="571" 
d="M444 1128q-158 0 -241 86t-70 209h195q-5 -47 28.5 -83.5t100.5 -36.5q71 0 112 35.5t58 84.5h204q-83 -295 -387 -295zM322 0h-289l219 1024h287z" />
    <glyph glyph-name="Iogonek" unicode="&#x12e;" horiz-adv-x="585" 
d="M678 1434l-305 -1434q-137 -28 -200.5 -76t-63.5 -92q0 -28 18.5 -43.5t67.5 -15.5q51 0 139 20l-45 -203q-88 -20 -174 -20q-106 0 -163.5 48.5t-57.5 125.5q0 80 55.5 146.5t159.5 109.5h-43l305 1434h307z" />
    <glyph glyph-name="iogonek" unicode="&#x12f;" horiz-adv-x="573" 
d="M268 1159l60 275h305l-58 -275h-307zM59 0h-24l219 1024h287l-217 -1024q-137 -28 -201 -76t-64 -92q0 -28 18.5 -43.5t67.5 -15.5q52 0 140 20l-45 -203q-88 -20 -174 -20q-106 0 -164 48.5t-58 125.5q0 80 55.5 146.5t159.5 109.5z" />
    <glyph glyph-name="Idotaccent" unicode="&#x130;" horiz-adv-x="786" 
d="M702 1569h-307l60 274h305zM373 0h-307l305 1434h307z" />
    <glyph glyph-name="dotlessi" unicode="&#x131;" horiz-adv-x="571" 
d="M322 0h-289l219 1024h287z" />
    <glyph glyph-name="IJ" unicode="&#x132;" horiz-adv-x="1798" 
d="M373 0h-307l305 1434h307zM1108 -33q-240 0 -359 139.5t-81 376.5l305 56q-10 -91 -9.5 -160.5t36 -111.5t108.5 -42q89 0 138 66.5t79 204.5l199 938h309l-199 -938q-29 -135 -70 -231t-103 -164t-149.5 -101t-203.5 -33z" />
    <glyph glyph-name="ij" unicode="&#x133;" horiz-adv-x="1146" 
d="M573 1163h-307l60 275h305zM1151 1165h-299l57 269h299zM322 0h-289l219 1024h287zM580 -399h-283l49 231h143q91 0 109 90l233 1102h283l-246 -1155q-29 -131 -93.5 -199.5t-194.5 -68.5z" />
    <glyph glyph-name="Jcircumflex" unicode="&#x134;" horiz-adv-x="1146" 
d="M885 1569h-283l309 264h383l185 -264h-262l-130 145zM457 -33q-240 0 -359.5 139.5t-81.5 376.5l306 56q-10 -91 -9.5 -160.5t36 -111.5t108.5 -42q89 0 138 66.5t79 204.5l198 938h310l-199 -938q-29 -135 -70 -231t-103 -164t-149.5 -101t-203.5 -33z" />
    <glyph glyph-name="jcircumflex" unicode="&#x135;" horiz-adv-x="587" 
d="M283 1159h-258l282 264h348l166 -264h-237l-117 146zM14 -399h-286l49 231h145q49 0 75.5 22t35.5 68l235 1102h289l-248 -1155q-29 -131 -95.5 -199.5t-199.5 -68.5z" />
    <glyph glyph-name="uni0136" unicode="&#x136;" horiz-adv-x="1474" 
d="M1198 1434h444l-712 -609l463 -825h-359l-340 623l-231 -197l-90 -426h-307l305 1434h309l-51 -238q-47 -222 -78 -358zM633 -399h-156l62 274h288l-65 -291l-227 -270h-144z" />
    <glyph glyph-name="uni0137" unicode="&#x137;" horiz-adv-x="1261" 
d="M948 1024h381l-520 -422l379 -602h-336l-262 424l-211 -170l-55 -254h-289l303 1434h289l-95 -457q-61 -299 -77 -367zM516 -399h-156l62 274h289l-66 -291l-227 -270h-144z" />
    <glyph glyph-name="Lacute" unicode="&#x139;" horiz-adv-x="1271" 
d="M666 1569h-228l191 315h344zM1139 0h-1073l305 1434h307l-248 -1170h764z" />
    <glyph glyph-name="lacute" unicode="&#x13a;" horiz-adv-x="571" 
d="M616 1569h-206l172 315h313zM319 0h-286l307 1434h287z" />
    <glyph glyph-name="uni013B" unicode="&#x13b;" horiz-adv-x="1271" 
d="M1139 0h-1073l305 1434h307l-248 -1170h764zM426 -686h-143l241 287h-155l61 274h289l-66 -291z" />
    <glyph glyph-name="uni013C" unicode="&#x13c;" horiz-adv-x="544" 
d="M319 0h-286l307 1434h287zM2 -686h-143l241 287h-155l61 274h289l-66 -291z" />
    <glyph glyph-name="Lcaron" unicode="&#x13d;" horiz-adv-x="1275" 
d="M1139 0h-1073l305 1434h307l-248 -1170h764zM866 815h-157l264 318h-170l67 301h320l-74 -320z" />
    <glyph glyph-name="lcaron" unicode="&#x13e;" horiz-adv-x="786" 
d="M319 0h-286l307 1434h287zM782 862h-143l242 287h-156l61 274h289l-65 -290z" />
    <glyph glyph-name="Ldot" unicode="&#x13f;" horiz-adv-x="1277" 
d="M1139 0h-1073l305 1434h307l-248 -1170h764zM1108 627h-336l70 323h334z" />
    <glyph glyph-name="ldot" unicode="&#x140;" horiz-adv-x="946" 
d="M319 0h-286l307 1434h287zM936 582h-336l70 323h334z" />
    <glyph glyph-name="Lslash" unicode="&#x141;" horiz-adv-x="1288" 
d="M612 651l-82 -387h764l-55 -264h-1073l104 494l-219 -101l55 266l222 101l143 674h307l-108 -516l448 204l-55 -264z" />
    <glyph glyph-name="lslash" unicode="&#x142;" horiz-adv-x="774" 
d="M633 977l215 113l-53 -254l-217 -115l-154 -721h-287l119 551l-201 -107l54 254l200 107l135 629h287z" />
    <glyph glyph-name="Nacute" unicode="&#x143;" horiz-adv-x="1722" 
d="M1178 1569h-228l191 315h344zM375 0h-309l305 1434h393l473 -936q16 85 74 354l125 582h309l-305 -1434h-269l-561 1112q-27 -120 -90 -420z" />
    <glyph glyph-name="nacute" unicode="&#x144;" horiz-adv-x="1214" 
d="M854 1159h-207l172 316h314zM322 0h-289l219 1024h280l-30 -147q28 35 53.5 60.5t65.5 55t91.5 46t110.5 16.5q161 0 244.5 -115t42.5 -311l-135 -629h-289l129 602q23 103 -11.5 158t-119.5 55q-58 0 -104 -30t-76 -83.5t-48 -105t-32 -117.5z" />
    <glyph glyph-name="uni0145" unicode="&#x145;" horiz-adv-x="1722" 
d="M375 0h-309l305 1434h393l473 -936q16 85 74 354l125 582h309l-305 -1434h-269l-561 1112q-27 -120 -90 -420zM582 -686h-144l242 287h-156l62 274h288l-65 -291z" />
    <glyph glyph-name="uni0146" unicode="&#x146;" horiz-adv-x="1214" 
d="M322 0h-289l219 1024h280l-30 -147q28 35 53.5 60.5t65.5 55t91.5 46t110.5 16.5q161 0 244.5 -115t42.5 -311l-135 -629h-289l129 602q23 103 -11.5 158t-119.5 55q-58 0 -104 -30t-76 -83.5t-48 -105t-32 -117.5zM338 -686h-143l241 287h-155l61 274h289l-66 -291z" />
    <glyph glyph-name="Ncaron" unicode="&#x147;" horiz-adv-x="1722" 
d="M1315 1802h282l-309 -264h-383l-182 264h260l129 -145zM375 0h-309l305 1434h393l473 -936q16 85 74 354l125 582h309l-305 -1434h-269l-561 1112q-27 -120 -90 -420z" />
    <glyph glyph-name="ncaron" unicode="&#x148;" horiz-adv-x="1214" 
d="M934 1159h-350l-164 264h233l117 -145l182 145h262zM322 0h-289l219 1024h280l-30 -147q28 35 53.5 60.5t65.5 55t91.5 46t110.5 16.5q161 0 244.5 -115t42.5 -311l-135 -629h-289l129 602q23 103 -11.5 158t-119.5 55q-58 0 -104 -30t-76 -83.5t-48 -105t-32 -117.5z
" />
    <glyph glyph-name="Eng" unicode="&#x14a;" horiz-adv-x="1722" 
d="M983 -399h-182l55 254h113q59 0 103 33t58 104l13 63l-533 1057l-20 -92q-16 -74 -70 -328l-145 -692h-309l305 1434h393l473 -936l14 75l60 279l125 582h309l-309 -1454q-22 -105 -51 -171.5t-80.5 -116t-129 -70.5t-192.5 -21z" />
    <glyph glyph-name="eng" unicode="&#x14b;" horiz-adv-x="1214" 
d="M590 -399h-223l49 235h143q95 0 113 92l143 674q22 104 -12 158.5t-119 54.5q-58 0 -104 -30t-76 -83.5t-48 -105t-32 -117.5l-102 -479h-289l219 1024h280l-30 -147q28 35 53.5 60.5t65.5 55t91.5 46t110.5 16.5q161 0 244.5 -115t42.5 -311l-162 -754
q-32 -155 -109 -214.5t-249 -59.5z" />
    <glyph glyph-name="Omacron" unicode="&#x14c;" horiz-adv-x="1718" 
d="M1438 1589h-707l49 197h703zM842 -33q-174 0 -312 50.5t-225 139t-132.5 204.5t-45.5 251q0 179 64.5 337.5t175.5 272t267.5 179t334.5 65.5q172 0 309 -50t223.5 -138.5t132 -204.5t45.5 -252q0 -180 -63.5 -338.5t-173.5 -271.5t-266 -178.5t-334 -65.5zM842 225
q151 0 270 84.5t181.5 221t62.5 294.5q0 169 -103 276t-284 107q-151 0 -270.5 -84.5t-182.5 -220.5t-63 -293q0 -171 103 -278t286 -107z" />
    <glyph glyph-name="omacron" unicode="&#x14d;" horiz-adv-x="1224" 
d="M1051 1186h-641l43 196h639zM575 -33q-235 0 -370 130t-135 341q0 170 76.5 312t208.5 223.5t288 81.5q237 0 373.5 -127.5t136.5 -347.5q0 -130 -45.5 -244.5t-123.5 -195t-184.5 -127t-224.5 -46.5zM575 199q81 0 147 58.5t100 145t34 177.5q0 119 -52.5 182t-158.5 63
q-81 0 -147 -59.5t-99.5 -147.5t-33.5 -180q0 -239 210 -239z" />
    <glyph glyph-name="Obreve" unicode="&#x14e;" horiz-adv-x="1718" 
d="M1077 1538q-173 0 -264.5 86t-77.5 209h215q-7 -47 30.5 -84t111.5 -37q139 0 186 121h225q-88 -295 -426 -295zM842 -33q-174 0 -312 50.5t-225 139t-132.5 204.5t-45.5 251q0 179 64.5 337.5t175.5 272t267.5 179t334.5 65.5q172 0 309 -50t223.5 -138.5t132 -204.5
t45.5 -252q0 -180 -63.5 -338.5t-173.5 -271.5t-266 -178.5t-334 -65.5zM842 225q151 0 270 84.5t181.5 221t62.5 294.5q0 169 -103 276t-284 107q-151 0 -270.5 -84.5t-182.5 -220.5t-63 -293q0 -171 103 -278t286 -107z" />
    <glyph glyph-name="obreve" unicode="&#x14f;" horiz-adv-x="1224" 
d="M745 1128q-158 0 -241 86t-70 209h195q-5 -47 28.5 -83.5t100.5 -36.5q71 0 112 35.5t58 84.5h205q-83 -295 -388 -295zM575 -33q-235 0 -370 130t-135 341q0 170 76.5 312t208.5 223.5t288 81.5q237 0 373.5 -127.5t136.5 -347.5q0 -130 -45.5 -244.5t-123.5 -195
t-184.5 -127t-224.5 -46.5zM575 199q81 0 147 58.5t100 145t34 177.5q0 119 -52.5 182t-158.5 63q-81 0 -147 -59.5t-99.5 -147.5t-33.5 -180q0 -239 210 -239z" />
    <glyph glyph-name="Ohungarumlaut" unicode="&#x150;" horiz-adv-x="1718" 
d="M954 1569h-227l186 315h347zM1372 1569h-227l190 315h344zM842 -33q-174 0 -312 50.5t-225 139t-132.5 204.5t-45.5 251q0 179 64.5 337.5t175.5 272t267.5 179t334.5 65.5q172 0 309 -50t223.5 -138.5t132 -204.5t45.5 -252q0 -180 -63.5 -338.5t-173.5 -271.5
t-266 -178.5t-334 -65.5zM842 225q151 0 270 84.5t181.5 221t62.5 294.5q0 169 -103 276t-284 107q-151 0 -270.5 -84.5t-182.5 -220.5t-63 -293q0 -171 103 -278t286 -107z" />
    <glyph glyph-name="ohungarumlaut" unicode="&#x151;" horiz-adv-x="1224" 
d="M629 1159h-207l170 316h315zM1010 1159h-207l172 316h313zM575 -33q-235 0 -370 130t-135 341q0 170 76.5 312t208.5 223.5t288 81.5q237 0 373.5 -127.5t136.5 -347.5q0 -130 -45.5 -244.5t-123.5 -195t-184.5 -127t-224.5 -46.5zM575 199q81 0 147 58.5t100 145
t34 177.5q0 119 -52.5 182t-158.5 63q-81 0 -147 -59.5t-99.5 -147.5t-33.5 -180q0 -239 210 -239z" />
    <glyph glyph-name="OE" unicode="&#x152;" horiz-adv-x="2439" 
d="M748 -33q-188 0 -331 86.5t-216.5 231t-73.5 323.5q0 178 62 338t168 273.5t251.5 180t306.5 66.5q342 0 521 -192q20 97 34 160h1067l-57 -258h-756l-63 -302h569l-55 -251h-569l-76 -365h760l-56 -258h-1067q5 24 25 119q-81 -67 -183.5 -109.5t-260.5 -42.5zM842 225
q151 0 270 84.5t181.5 221t62.5 294.5q0 166 -103.5 274.5t-283.5 108.5q-151 0 -270.5 -84.5t-182.5 -220.5t-63 -293q0 -168 103.5 -276.5t285.5 -108.5z" />
    <glyph glyph-name="oe" unicode="&#x153;" horiz-adv-x="1951" 
d="M532 -33q-216 0 -338 129t-124 340q0 169 76 311.5t208.5 225t290.5 82.5q130 0 232 -53t165 -138q156 191 410 191q101 0 183.5 -31.5t135.5 -87t83.5 -132.5t29 -168.5t-28.5 -193.5h-718q-18 -122 30.5 -188t167.5 -66q78 0 144.5 51t107.5 128l242 -109
q-29 -54 -69 -101t-99 -92t-142.5 -71.5t-181.5 -26.5q-285 0 -395 170q-74 -77 -185 -123.5t-225 -46.5zM1180 643h434q8 94 -39 148.5t-137 54.5q-89 0 -157.5 -52.5t-100.5 -150.5zM573 199q83 0 149.5 59t100 146t33.5 178q0 118 -53 180.5t-156 62.5q-83 0 -150 -60.5
t-101 -148.5t-34 -180q3 -237 211 -237z" />
    <glyph glyph-name="Racute" unicode="&#x154;" horiz-adv-x="1495" 
d="M1024 1569h-227l190 315h344zM375 0h-309l305 1434h614q224 0 354.5 -95t130.5 -272q0 -80 -26.5 -149t-70.5 -118t-102 -85t-119 -55.5t-124 -24.5q227 -38 254 -268l43 -367h-328l-26 317q-6 67 -16 106.5t-34.5 69t-65.5 41t-107 11.5h-256zM623 1176l-80 -379h327
q133 0 206 60.5t73 154.5q0 164 -221 164h-305z" />
    <glyph glyph-name="racute" unicode="&#x155;" horiz-adv-x="878" 
d="M719 1159h-207l172 316h313zM322 0h-289l219 1024h283q-8 -39 -26 -116.5t-26 -116.5q84 138 169.5 198t211.5 60q32 0 90 -7l-65 -311q-60 8 -123 8q-85 0 -148.5 -26t-105 -77t-67.5 -113.5t-44 -147.5z" />
    <glyph glyph-name="uni0156" unicode="&#x156;" horiz-adv-x="1495" 
d="M375 0h-309l305 1434h614q224 0 354.5 -95t130.5 -272q0 -80 -26.5 -149t-70.5 -118t-102 -85t-119 -55.5t-124 -24.5q227 -38 254 -268l43 -367h-328l-26 317q-6 67 -16 106.5t-34.5 69t-65.5 41t-107 11.5h-256zM623 1176l-80 -379h327q133 0 206 60.5t73 154.5
q0 164 -221 164h-305zM498 -686h-144l242 287h-156l62 274h289l-66 -291z" />
    <glyph glyph-name="uni0157" unicode="&#x157;" horiz-adv-x="878" 
d="M322 0h-289l219 1024h283q-8 -39 -26 -116.5t-26 -116.5q84 138 169.5 198t211.5 60q32 0 90 -7l-65 -311q-60 8 -123 8q-85 0 -148.5 -26t-105 -77t-67.5 -113.5t-44 -147.5zM10 -686h-143l242 287h-156l61 274h289l-65 -291z" />
    <glyph glyph-name="Rcaron" unicode="&#x158;" horiz-adv-x="1495" 
d="M1165 1802h283l-309 -264h-383l-183 264h261l129 -145zM375 0h-309l305 1434h614q224 0 354.5 -95t130.5 -272q0 -80 -26.5 -149t-70.5 -118t-102 -85t-119 -55.5t-124 -24.5q227 -38 254 -268l43 -367h-328l-26 317q-6 67 -16 106.5t-34.5 69t-65.5 41t-107 11.5h-256z
M623 1176l-80 -379h327q133 0 206 60.5t73 154.5q0 164 -221 164h-305z" />
    <glyph glyph-name="rcaron" unicode="&#x159;" horiz-adv-x="878" 
d="M799 1159h-350l-164 264h233l117 -145l182 145h262zM322 0h-289l219 1024h283q-8 -39 -26 -116.5t-26 -116.5q84 138 169.5 198t211.5 60q32 0 90 -7l-65 -311q-60 8 -123 8q-85 0 -148.5 -26t-105 -77t-67.5 -113.5t-44 -147.5z" />
    <glyph glyph-name="Sacute" unicode="&#x15a;" horiz-adv-x="1382" 
d="M1006 1569h-228l191 315h344zM688 -33q-151 0 -270.5 36t-195.5 98.5t-120.5 139t-58.5 165.5l299 83q8 -51 34 -99t68.5 -87.5t105.5 -63.5t138 -24q123 0 193.5 48.5t70.5 129.5q0 64 -46.5 101.5t-149.5 66.5l-156 43q-93 26 -156.5 55.5t-118 76t-81.5 116t-27 164.5
q0 198 155 324t423 126q133 0 240 -32t177.5 -89t114.5 -127t62 -153l-297 -82q-28 105 -106 170.5t-198 65.5q-113 0 -178 -49t-65 -123q0 -62 37 -98t120 -60l185 -51q396 -110 399 -404q0 -222 -163 -344.5t-435 -122.5z" />
    <glyph glyph-name="sacute" unicode="&#x15b;" horiz-adv-x="1060" 
d="M772 1159h-207l172 316h314zM485 -33q-203 0 -332 81t-155 208l272 84q44 -166 215 -166q74 0 118 31.5t44 83.5q0 70 -108 100l-119 31q-142 36 -213.5 105t-71.5 177q0 154 118 253.5t318 99.5q79 0 147.5 -15.5t115.5 -40t84.5 -58.5t59.5 -66.5t36 -67.5l-248 -94
q-20 62 -70 101.5t-123 39.5q-72 0 -109.5 -29.5t-37.5 -74.5q0 -33 28 -54.5t95 -40.5l96 -26q316 -86 316 -303q0 -108 -64.5 -190.5t-172 -125.5t-239.5 -43z" />
    <glyph glyph-name="Scircumflex" unicode="&#x15c;" horiz-adv-x="1382" 
d="M721 1569h-283l310 264h382l185 -264h-262l-129 145zM688 -33q-151 0 -270.5 36t-195.5 98.5t-120.5 139t-58.5 165.5l299 83q8 -51 34 -99t68.5 -87.5t105.5 -63.5t138 -24q123 0 193.5 48.5t70.5 129.5q0 64 -46.5 101.5t-149.5 66.5l-156 43q-93 26 -156.5 55.5
t-118 76t-81.5 116t-27 164.5q0 198 155 324t423 126q133 0 240 -32t177.5 -89t114.5 -127t62 -153l-297 -82q-28 105 -106 170.5t-198 65.5q-113 0 -178 -49t-65 -123q0 -62 37 -98t120 -60l185 -51q396 -110 399 -404q0 -222 -163 -344.5t-435 -122.5z" />
    <glyph glyph-name="scircumflex" unicode="&#x15d;" horiz-adv-x="1060" 
d="M512 1159h-258l283 264h348l166 -264h-238l-117 146zM485 -33q-203 0 -332 81t-155 208l272 84q44 -166 215 -166q74 0 118 31.5t44 83.5q0 70 -108 100l-119 31q-142 36 -213.5 105t-71.5 177q0 154 118 253.5t318 99.5q79 0 147.5 -15.5t115.5 -40t84.5 -58.5
t59.5 -66.5t36 -67.5l-248 -94q-20 62 -70 101.5t-123 39.5q-72 0 -109.5 -29.5t-37.5 -74.5q0 -33 28 -54.5t95 -40.5l96 -26q316 -86 316 -303q0 -108 -64.5 -190.5t-172 -125.5t-239.5 -43z" />
    <glyph glyph-name="Scedilla" unicode="&#x15e;" horiz-adv-x="1382" 
d="M702 889l185 -51q396 -110 399 -404q0 -213 -149.5 -334.5t-403.5 -132.5l-37 -26l-61 -45h2q23 0 50 -8.5t55 -26t46.5 -51t18.5 -76.5q0 -98 -71 -156.5t-212 -58.5q-158 0 -252 94l105 131q70 -55 139 -55q86 0 86 47q0 16 -17 29.5t-46 13.5q-34 0 -52 -6l-51 98
l127 102q-120 14 -215 54.5t-157 100t-98.5 129.5t-49.5 149l299 83q8 -51 34 -99t68.5 -87.5t105.5 -63.5t138 -24q123 0 193.5 48.5t70.5 129.5q0 64 -46.5 101.5t-149.5 66.5l-156 43q-93 26 -156.5 55.5t-118 76t-81.5 116t-27 164.5q0 198 155 324t423 126
q133 0 240 -32t177.5 -89t114.5 -127t62 -153l-297 -82q-28 105 -106 170.5t-198 65.5q-113 0 -178 -49t-65 -123q0 -62 37 -98t120 -60z" />
    <glyph glyph-name="scedilla" unicode="&#x15f;" horiz-adv-x="1060" 
d="M549 655l96 -26q316 -86 316 -303q0 -150 -119 -246.5t-301 -110.5l-39 -28l-62 -45h2q23 0 50 -8.5t55 -26t46.5 -51t18.5 -76.5q0 -98 -70.5 -156.5t-211.5 -58.5q-158 0 -252 94l104 131q70 -55 140 -55q86 0 86 47q0 16 -17.5 29.5t-46.5 13.5q-33 0 -51 -6l-51 98
l127 104q-154 21 -251.5 97.5t-119.5 183.5l272 84q44 -166 215 -166q74 0 118 31.5t44 83.5q0 70 -108 100l-119 31q-142 36 -213.5 105t-71.5 177q0 154 118 253.5t318 99.5q79 0 147.5 -15.5t115.5 -40t84.5 -58.5t59.5 -66.5t36 -67.5l-248 -94q-20 62 -70 101.5
t-123 39.5q-72 0 -109.5 -29.5t-37.5 -74.5q0 -33 28 -54.5t95 -40.5z" />
    <glyph glyph-name="Scaron" unicode="&#x160;" horiz-adv-x="1382" 
d="M1130 1802h283l-309 -264h-383l-182 264h260l129 -145zM688 -33q-151 0 -270.5 36t-195.5 98.5t-120.5 139t-58.5 165.5l299 83q8 -51 34 -99t68.5 -87.5t105.5 -63.5t138 -24q123 0 193.5 48.5t70.5 129.5q0 64 -46.5 101.5t-149.5 66.5l-156 43q-93 26 -156.5 55.5
t-118 76t-81.5 116t-27 164.5q0 198 155 324t423 126q133 0 240 -32t177.5 -89t114.5 -127t62 -153l-297 -82q-28 105 -106 170.5t-198 65.5q-113 0 -178 -49t-65 -123q0 -62 37 -98t120 -60l185 -51q396 -110 399 -404q0 -222 -163 -344.5t-435 -122.5z" />
    <glyph glyph-name="scaron" unicode="&#x161;" horiz-adv-x="1099" 
d="M852 1159h-350l-164 264h233l117 -145l182 145h263zM485 -33q-203 0 -332 81t-155 208l272 84q44 -166 215 -166q74 0 118 31.5t44 83.5q0 70 -108 100l-119 31q-142 36 -213.5 105t-71.5 177q0 154 118 253.5t318 99.5q79 0 147.5 -15.5t115.5 -40t84.5 -58.5
t59.5 -66.5t36 -67.5l-248 -94q-20 62 -70 101.5t-123 39.5q-72 0 -109.5 -29.5t-37.5 -74.5q0 -33 28 -54.5t95 -40.5l96 -26q316 -86 316 -303q0 -108 -64.5 -190.5t-172 -125.5t-239.5 -43z" />
    <glyph glyph-name="uni0162" unicode="&#x162;" horiz-adv-x="1331" 
d="M166 1176l55 258h1282l-55 -258h-487l-250 -1176l-80 -59l-62 -45h2q23 0 50 -8.5t55 -26t46.5 -51t18.5 -76.5q0 -98 -70.5 -156.5t-211.5 -58.5q-158 0 -252 94l104 131q70 -55 140 -55q86 0 86 47q0 16 -17.5 29.5t-46.5 13.5q-33 0 -51 -6l-51 98l157 129h-125
l250 1176h-487z" />
    <glyph glyph-name="uni0163" unicode="&#x163;" horiz-adv-x="892" 
d="M850 803h-262l-105 -481q-18 -91 72 -91h248l-49 -231h-197l-80 -59l-61 -45h2q23 0 50 -8.5t55 -26t46.5 -51t18.5 -76.5q0 -98 -71 -156.5t-212 -58.5q-158 0 -252 94l105 131q70 -55 139 -55q86 0 86 47q0 16 -17.5 29.5t-46.5 13.5q-33 0 -51 -6l-51 98l168 137
q-109 24 -162 110t-26 210l104 475h-215l47 221h213l70 322h289l-70 -322h262z" />
    <glyph glyph-name="Tcaron" unicode="&#x164;" horiz-adv-x="1331" 
d="M1122 1802h283l-309 -264h-383l-183 264h261l129 -145zM711 0h-308l250 1176h-487l55 258h1282l-55 -258h-487z" />
    <glyph glyph-name="tcaron" unicode="&#x165;" horiz-adv-x="892" 
d="M932 1108h-144l242 287h-156l62 274h289l-66 -291zM754 0h-295q-141 0 -217.5 91t-44.5 237l104 475h-215l47 221h213l70 322h289l-70 -322h262l-47 -221h-262l-105 -481q-18 -91 72 -91h248z" />
    <glyph glyph-name="Tbar" unicode="&#x166;" horiz-adv-x="1355" 
d="M1513 1434l-55 -258h-487l-62 -285h289l-45 -213h-289l-143 -678h-307l143 678h-291l45 213h291l62 285h-488l55 258h1282z" />
    <glyph glyph-name="tbar" unicode="&#x167;" horiz-adv-x="911" 
d="M911 1024l-47 -221h-262l-24 -109h264l-45 -215h-265l-34 -157q-9 -46 7.5 -68.5t63.5 -22.5h248l-49 -231h-295q-141 0 -217.5 91t-44.5 237l33 151h-211l45 215h213l24 109h-215l47 221h213l70 322h289l-70 -322h262z" />
    <glyph glyph-name="Utilde" unicode="&#x168;" horiz-adv-x="1587" 
d="M1219 1550q-101 0 -197 54l-55 26q-5 3 -18 10t-20 10.5t-18.5 8t-21.5 6.5t-21 2q-83 0 -108 -98h-230q15 134 102.5 209t219.5 75q98 0 201 -55l49 -24q7 -3 25 -12.5t26 -13t22.5 -7.5t28.5 -4q38 0 67 25t42 71h229q-11 -76 -41 -132.5t-75 -88.5t-96 -47t-111 -15z
M764 -33q-340 0 -497 165.5t-93 467.5l178 834h310l-179 -826q-38 -178 37.5 -276.5t243.5 -98.5q162 0 250.5 97t126.5 278l176 826h309l-184 -865q-65 -306 -228 -454t-450 -148z" />
    <glyph glyph-name="utilde" unicode="&#x169;" horiz-adv-x="1271" 
d="M901 1141q-93 0 -178 53l-49 27q-4 2 -16.5 9.5t-18.5 10.5t-16.5 7.5t-20 6.5t-18.5 2q-37 0 -63 -25.5t-36 -72.5h-209q13 134 92.5 209.5t200.5 75.5q90 0 183 -55l45 -25q5 -3 22 -13t24 -13t20.5 -7t25.5 -4q35 0 60.5 25t37.5 71h209q-19 -148 -99.5 -215
t-195.5 -67zM360 -33q-64 0 -118.5 27.5t-94 81.5t-52 134t8.5 185l136 629h288l-129 -600q-23 -105 6.5 -160t112.5 -55q187 0 264 348l101 467h288l-219 -1024h-282l30 147q-139 -180 -340 -180z" />
    <glyph glyph-name="Umacron" unicode="&#x16a;" horiz-adv-x="1587" 
d="M1368 1589h-706l49 197h702zM764 -33q-340 0 -497 165.5t-93 467.5l178 834h310l-179 -826q-38 -178 37.5 -276.5t243.5 -98.5q162 0 250.5 97t126.5 278l176 826h309l-184 -865q-65 -306 -228 -454t-450 -148z" />
    <glyph glyph-name="umacron" unicode="&#x16b;" horiz-adv-x="1204" 
d="M1055 1186h-641l43 196h639zM360 -33q-64 0 -118.5 27.5t-94 81.5t-52 134t8.5 185l136 629h288l-129 -600q-23 -105 6.5 -160t112.5 -55q187 0 264 348l101 467h288l-219 -1024h-282l30 147q-139 -180 -340 -180z" />
    <glyph glyph-name="Ubreve" unicode="&#x16c;" horiz-adv-x="1587" 
d="M1008 1538q-173 0 -264.5 86t-77.5 209h215q-7 -47 30 -84t111 -37q139 0 186 121h226q-88 -295 -426 -295zM764 -33q-340 0 -497 165.5t-93 467.5l178 834h310l-179 -826q-38 -178 37.5 -276.5t243.5 -98.5q162 0 250.5 97t126.5 278l176 826h309l-184 -865
q-65 -306 -228 -454t-450 -148z" />
    <glyph glyph-name="ubreve" unicode="&#x16d;" horiz-adv-x="1204" 
d="M750 1128q-158 0 -241.5 86t-70.5 209h195q-5 -47 28.5 -83.5t100.5 -36.5q71 0 112 35.5t58 84.5h205q-83 -295 -387 -295zM360 -33q-64 0 -118.5 27.5t-94 81.5t-52 134t8.5 185l136 629h288l-129 -600q-23 -105 6.5 -160t112.5 -55q187 0 264 348l101 467h288
l-219 -1024h-282l30 147q-139 -180 -340 -180z" />
    <glyph glyph-name="Uring" unicode="&#x16e;" horiz-adv-x="1587" 
d="M997 1518q-106 0 -181 64t-75 177q0 117 82 198t209 81q106 0 180 -67.5t74 -182.5q0 -118 -80.5 -194t-208.5 -76zM1008 1671q47 0 77.5 32.5t30.5 86.5q0 39 -28 65.5t-66 26.5q-47 0 -80 -33t-33 -84q0 -42 29 -68t70 -26zM764 -33q-340 0 -497 165.5t-93 467.5
l178 834h310l-179 -826q-38 -178 37.5 -276.5t243.5 -98.5q162 0 250.5 97t126.5 278l176 826h309l-184 -865q-65 -306 -228 -454t-450 -148z" />
    <glyph glyph-name="uring" unicode="&#x16f;" horiz-adv-x="1204" 
d="M741 1128q-101 0 -172 61.5t-71 170.5q0 111 77.5 187.5t198.5 76.5q101 0 171.5 -64t70.5 -174q0 -111 -76.5 -184.5t-198.5 -73.5zM752 1276q44 0 73 31t29 82q0 37 -27 62.5t-63 25.5q-44 0 -75.5 -31.5t-31.5 -79.5q0 -40 27.5 -65t67.5 -25zM360 -33
q-64 0 -118.5 27.5t-94 81.5t-52 134t8.5 185l136 629h288l-129 -600q-23 -105 6.5 -160t112.5 -55q187 0 264 348l101 467h288l-219 -1024h-282l30 147q-139 -180 -340 -180z" />
    <glyph glyph-name="Uhungarumlaut" unicode="&#x170;" horiz-adv-x="1587" 
d="M885 1569h-228l187 315h346zM1303 1569h-228l191 315h344zM764 -33q-340 0 -497 165.5t-93 467.5l178 834h310l-179 -826q-38 -178 37.5 -276.5t243.5 -98.5q162 0 250.5 97t126.5 278l176 826h309l-184 -865q-65 -306 -228 -454t-450 -148z" />
    <glyph glyph-name="uhungarumlaut" unicode="&#x171;" horiz-adv-x="1204" 
d="M633 1159h-207l170 316h315zM1014 1159h-207l172 316h313zM360 -33q-64 0 -118.5 27.5t-94 81.5t-52 134t8.5 185l136 629h288l-129 -600q-23 -105 6.5 -160t112.5 -55q187 0 264 348l101 467h288l-219 -1024h-282l30 147q-139 -180 -340 -180z" />
    <glyph glyph-name="Uogonek" unicode="&#x172;" horiz-adv-x="1587" 
d="M748 -430q-106 0 -164 48.5t-58 125.5q0 132 152 227q-304 25 -433.5 188t-70.5 441l178 834h310l-179 -826q-38 -178 37.5 -276.5t243.5 -98.5q162 0 250.5 97t126.5 278l176 826h309l-184 -865q-102 -483 -459 -573q-242 -64 -242 -164q0 -28 18.5 -43.5t67.5 -15.5
q52 0 140 20l-45 -203q-88 -20 -174 -20z" />
    <glyph glyph-name="uogonek" unicode="&#x173;" horiz-adv-x="1204" 
d="M1171 1024l-219 -1024q-137 -28 -200.5 -76t-63.5 -92q0 -28 18.5 -43.5t67.5 -15.5q51 0 139 20l-45 -203q-88 -20 -174 -20q-106 0 -163.5 48.5t-57.5 125.5q0 80 55.5 146.5t159.5 109.5h-18l30 147q-139 -180 -340 -180q-64 0 -118.5 27.5t-94 81.5t-52 134t8.5 185
l136 629h288l-129 -600q-23 -105 6.5 -160t112.5 -55q187 0 264 348l101 467h288z" />
    <glyph glyph-name="Wcircumflex" unicode="&#x174;" horiz-adv-x="2158" 
d="M1124 1569h-282l309 264h383l184 -264h-262l-129 145zM668 0h-357l-78 1434h318l4 -611q2 -323 6 -454q68 142 215 454l287 611h410l24 -594q15 -353 23 -471q176 411 194 452l266 613h340l-690 -1434h-356l-35 614l-29 519q-19 -38 -249 -521z" />
    <glyph glyph-name="wcircumflex" unicode="&#x175;" horiz-adv-x="1751" 
d="M846 1159h-258l282 264h349l165 -264h-237l-117 146zM567 0h-327l-107 1024h285l10 -276q11 -300 21 -478q15 31 184 392l168 362h344l18 -356l21 -392l192 416l154 332h307l-543 -1024h-344l-22 479l-15 264q-38 -79 -145 -307z" />
    <glyph glyph-name="Ycircumflex" unicode="&#x176;" horiz-adv-x="1378" 
d="M729 1569h-283l310 264h383l184 -264h-262l-129 145zM735 0h-307l125 584l-336 850h336l100 -279q61 -168 101 -283q60 84 213 285l211 277h368l-686 -850z" />
    <glyph glyph-name="ycircumflex" unicode="&#x177;" horiz-adv-x="1153" 
d="M827 1159l-116 146l-185 -146h-258l283 264h348l166 -264h-238zM715 639l205 385h319l-672 -1186q-76 -136 -151.5 -186.5t-220.5 -50.5h-310l52 231h251q54 0 88 26t70 93l29 55l-273 1018h306l84 -385q47 -217 65 -291q27 47 158 291z" />
    <glyph glyph-name="Ydieresis" unicode="&#x178;" horiz-adv-x="1378" 
d="M801 1569h-297l57 246h299zM1296 1569h-297l58 246h299zM735 0h-307l125 584l-336 850h336l100 -279q61 -168 101 -283q60 84 213 285l211 277h368l-686 -850z" />
    <glyph glyph-name="Zacute" unicode="&#x179;" horiz-adv-x="1351" 
d="M983 1569h-227l190 315h344zM1169 0h-1187l67 313l950 863h-290h-463l55 258h1135l-66 -304l-954 -866h299h512z" />
    <glyph glyph-name="zacute" unicode="&#x17a;" horiz-adv-x="1034" 
d="M748 1159h-207l172 316h313zM856 0h-885l56 254l600 539h-271h-192l49 231h836l-43 -209l-654 -584h289h266z" />
    <glyph glyph-name="Zdotaccent" unicode="&#x17b;" horiz-adv-x="1351" 
d="M1020 1569h-307l59 274h305zM1169 0h-1187l67 313l950 863h-290h-463l55 258h1135l-66 -304l-954 -866h299h512z" />
    <glyph glyph-name="zdotaccent" unicode="&#x17c;" horiz-adv-x="1034" 
d="M793 1159h-308l60 275h305zM856 0h-885l56 254l600 539h-271h-192l49 231h836l-43 -209l-654 -584h289h266z" />
    <glyph glyph-name="Zcaron" unicode="&#x17d;" horiz-adv-x="1351" 
d="M1094 1802h282l-309 -264h-383l-182 264h260l129 -145zM1169 0h-1187l67 313l950 863h-290h-463l55 258h1135l-66 -304l-954 -866h299h512z" />
    <glyph glyph-name="zcaron" unicode="&#x17e;" horiz-adv-x="1034" 
d="M827 1159h-350l-164 264h234l117 -145l182 145h262zM856 0h-885l56 254l600 539h-271h-192l49 231h836l-43 -209l-654 -584h289h266z" />
    <glyph glyph-name="florin" unicode="&#x192;" horiz-adv-x="966" 
d="M-150 -426q-70 0 -147 18l47 224q64 -11 92 -11q174 0 244 193l131 360q23 64 66 184t63 175h-145h-76l39 182h248l80 221q66 181 178 263.5t288 82.5q78 0 166 -18l-51 -234q-58 7 -94 7q-82 0 -135.5 -30.5t-81.5 -107.5l-68 -184h271l-39 -182h-297l-267 -737
q-77 -210 -196 -308t-316 -98z" />
    <glyph glyph-name="AEacute" unicode="&#x1fc;" horiz-adv-x="1982" 
d="M1532 1884h344l-307 -315h-228zM2081 1434l-56 -258h-677l-68 -312h489l-55 -254h-487l-74 -352h680l-55 -258h-990l74 338h-401l-228 -338h-376l1038 1434h1186zM915 596l70 322q38 172 59 284q-52 -74 -270 -399l-139 -207h280z" />
    <glyph glyph-name="aeacute" unicode="&#x1fd;" horiz-adv-x="1812" 
d="M1112 1159h-207l172 316h314zM365 -31q-157 0 -245.5 70.5t-88.5 191.5q0 106 60 186.5t164.5 128.5t229 73t269.5 30l12 64q10 60 -30 96.5t-115 36.5q-79 0 -143 -47t-91 -111l-266 76q21 69 82.5 133.5t169 111t233.5 46.5q125 0 209.5 -37t142.5 -113
q144 150 365 150q118 0 210 -47t143 -129.5t64.5 -194.5t-26.5 -242h-719q-15 -125 33.5 -189.5t169.5 -64.5q75 0 141 51t107 128l246 -109q-31 -54 -70.5 -99.5t-99.5 -91.5t-145.5 -73t-186.5 -27q-145 0 -249 52.5t-157 148.5q-62 -92 -170 -145.5t-249 -53.5zM1038 643
h437q6 95 -41 149t-136 54q-91 0 -159.5 -52.5t-100.5 -150.5zM453 180q90 0 156.5 56.5t90.5 162.5l17 72q-387 -13 -387 -203q0 -39 33 -63.5t90 -24.5z" />
    <glyph glyph-name="Oslashacute" unicode="&#x1fe;" horiz-adv-x="1722" 
d="M1198 1569h-227l190 315h344zM440 57l-153 -153l-191 180l148 147q-117 159 -117 381q0 179 64.5 337.5t176.5 272t268.5 179t334.5 65.5q235 0 407 -96l152 154l188 -185l-145 -145q108 -159 108 -373q0 -180 -63.5 -338.5t-173.5 -271.5t-266 -178.5t-334 -65.5
q-237 0 -404 90zM477 465l428 428q90 90 266 270q-85 45 -200 45q-151 0 -271 -84.5t-183.5 -220.5t-63.5 -293q0 -78 24 -145zM844 225q151 0 270 84.5t181.5 221t62.5 294.5q0 63 -21 131l-385 -385q-203 -203 -303 -305q80 -41 195 -41z" />
    <glyph glyph-name="oslashacute" unicode="&#x1ff;" horiz-adv-x="1228" 
d="M852 1159h-207l172 316h313zM580 -33q-187 0 -318 88l-102 -96l-127 129l104 98q-65 114 -65 252q0 170 77 312t209.5 223.5t288.5 81.5q193 0 318 -84l110 104l123 -131l-108 -102q67 -115 67 -262q0 -130 -45.5 -244.5t-123 -195t-184 -127t-224.5 -46.5zM367 406
l163 153q164 156 246 232q-49 34 -127 34q-81 0 -147.5 -59.5t-100.5 -147.5t-34 -180v-32zM578 199q63 0 117.5 35t89 90.5t54 121.5t19.5 132v45l-166 -160q-95 -91 -250 -230q52 -34 136 -34z" />
    <glyph glyph-name="uni0218" unicode="&#x218;" horiz-adv-x="1382" 
d="M688 -33q-151 0 -270.5 36t-195.5 98.5t-120.5 139t-58.5 165.5l299 83q8 -51 34 -99t68.5 -87.5t105.5 -63.5t138 -24q123 0 193.5 48.5t70.5 129.5q0 64 -46.5 101.5t-149.5 66.5l-156 43q-93 26 -156.5 55.5t-118 76t-81.5 116t-27 164.5q0 198 155 324t423 126
q133 0 240 -32t177.5 -89t114.5 -127t62 -153l-297 -82q-28 105 -106 170.5t-198 65.5q-113 0 -178 -49t-65 -123q0 -62 37 -98t120 -60l185 -51q396 -110 399 -404q0 -222 -163 -344.5t-435 -122.5zM469 -686h-143l241 287h-155l61 274h289l-66 -291z" />
    <glyph glyph-name="uni0219" unicode="&#x219;" horiz-adv-x="1060" 
d="M485 -33q-203 0 -332 81t-155 208l272 84q44 -166 215 -166q74 0 118 31.5t44 83.5q0 70 -108 100l-119 31q-142 36 -213.5 105t-71.5 177q0 154 118 253.5t318 99.5q79 0 147.5 -15.5t115.5 -40t84.5 -58.5t59.5 -66.5t36 -67.5l-248 -94q-20 62 -70 101.5t-123 39.5
q-72 0 -109.5 -29.5t-37.5 -74.5q0 -33 28 -54.5t95 -40.5l96 -26q316 -86 316 -303q0 -108 -64.5 -190.5t-172 -125.5t-239.5 -43zM254 -686h-143l241 287h-155l61 274h289l-66 -291z" />
    <glyph glyph-name="uni021A" unicode="&#x21a;" horiz-adv-x="1331" 
d="M711 0h-308l250 1176h-487l55 258h1282l-55 -258h-487zM385 -686h-143l241 287h-155l61 274h289l-66 -291z" />
    <glyph glyph-name="uni021B" unicode="&#x21b;" horiz-adv-x="892" 
d="M754 0h-295q-141 0 -217.5 91t-44.5 237l104 475h-215l47 221h213l70 322h289l-70 -322h262l-47 -221h-262l-105 -481q-18 -91 72 -91h248zM229 -686h-143l242 287h-156l61 274h289l-65 -291z" />
    <glyph glyph-name="uni0226" unicode="&#x226;" horiz-adv-x="1505" 
d="M881 1843h305l-58 -274h-307zM1382 0h-323l-45 336h-578l-184 -336h-348l846 1434h399zM727 866l-149 -272h403l-33 240q-32 242 -43 350q-61 -107 -178 -318z" />
    <glyph glyph-name="uni0227" unicode="&#x227;" horiz-adv-x="1173" 
d="M829 1159h-307l60 275h305zM360 -33q-61 0 -116.5 16t-101.5 47.5t-73.5 84.5t-27.5 121q0 104 54.5 184.5t153.5 131t229 78t290 32.5l10 49q12 61 -29 98t-126 37q-94 0 -155 -45t-91 -113l-264 76q16 53 52.5 101.5t96.5 92.5t153.5 70.5t207.5 26.5
q242 0 351.5 -110.5t65.5 -323.5l-73 -359q-9 -41 32 -41h111l-47 -221h-178q-185 0 -185 139q-62 -82 -150.5 -127t-189.5 -45zM465 178q81 0 155.5 67.5t96.5 174.5l12 57q-387 -17 -387 -192q0 -51 33 -79t90 -28z" />
    <glyph glyph-name="uni0232" unicode="&#x232;" horiz-adv-x="1378" 
d="M1274 1589h-707l49 197h703zM735 0h-307l125 584l-336 850h336l100 -279q61 -168 101 -283q60 84 213 285l211 277h368l-686 -850z" />
    <glyph glyph-name="uni0233" unicode="&#x233;" horiz-adv-x="1153" 
d="M410 1382h639l-41 -196h-641zM715 639l205 385h319l-672 -1186q-76 -136 -151.5 -186.5t-220.5 -50.5h-310l52 231h251q54 0 88 26t70 93l29 55l-273 1018h306l84 -385q47 -217 65 -291q27 47 158 291z" />
    <glyph glyph-name="uni0237" unicode="&#x237;" horiz-adv-x="587" 
d="M14 -399h-286l49 231h145q49 0 75.5 22t35.5 68l235 1102h289l-248 -1155q-29 -131 -95.5 -199.5t-199.5 -68.5z" />
    <glyph glyph-name="circumflex" unicode="&#x2c6;" horiz-adv-x="919" 
d="M457 1159h-258l282 264h348l166 -264h-237l-117 146z" />
    <glyph glyph-name="caron" unicode="&#x2c7;" horiz-adv-x="917" 
d="M770 1159h-350l-164 264h233l117 -145l182 145h263z" />
    <glyph glyph-name="breve" unicode="&#x2d8;" horiz-adv-x="821" 
d="M567 1128q-158 0 -241 86t-70 209h195q-5 -47 28.5 -83.5t100.5 -36.5q71 0 112 35.5t58 84.5h204q-83 -295 -387 -295z" />
    <glyph glyph-name="dotaccent" unicode="&#x2d9;" horiz-adv-x="430" 
d="M506 1159h-307l59 275h305z" />
    <glyph glyph-name="ring" unicode="&#x2da;" horiz-adv-x="647" 
d="M492 1128q-101 0 -172.5 61.5t-71.5 170.5q0 111 77.5 187.5t198.5 76.5q101 0 171.5 -64t70.5 -174q0 -112 -76 -185t-198 -73zM502 1276q44 0 73 31t29 82q0 37 -27 62.5t-63 25.5q-44 0 -75 -31.5t-31 -79.5q0 -40 27.5 -65t66.5 -25z" />
    <glyph glyph-name="ogonek" unicode="&#x2db;" horiz-adv-x="589" 
d="M125 -430q-106 0 -163.5 48.5t-57.5 125.5q0 106 96 186.5t270 112.5l113 -43q-137 -28 -200.5 -76t-63.5 -92q0 -28 18.5 -43.5t67.5 -15.5q51 0 139 20l-45 -203q-87 -20 -174 -20z" />
    <glyph glyph-name="tilde" unicode="&#x2dc;" horiz-adv-x="968" 
d="M815 1141q-93 0 -178 53l-49 27q-18 12 -43.5 24t-46.5 12q-37 0 -63 -25.5t-36 -72.5h-209q13 134 92.5 209.5t200.5 75.5q90 0 183 -55l45 -25q5 -3 22 -13t24 -13t20.5 -7t25.5 -4q35 0 60.5 25t37.5 71h209q-19 -148 -99.5 -215t-195.5 -67z" />
    <glyph glyph-name="hungarumlaut" unicode="&#x2dd;" horiz-adv-x="874" 
d="M399 1159h-206l169 316h316zM780 1159h-207l172 316h314z" />
    <glyph glyph-name="uni0394" unicode="&#x394;" horiz-adv-x="1505" 
d="M750 1434h399l233 -1434h-1478zM727 866l-334 -608h631l-76 576q-32 242 -43 350q-61 -107 -178 -318z" />
    <glyph glyph-name="uni03A9" unicode="&#x3a9;" horiz-adv-x="1755" 
d="M651 0h-647l55 258h72h252q-112 73 -171.5 179t-59.5 263q0 118 36 231t106.5 209.5t167.5 169.5t226 114.5t275 41.5q133 0 244.5 -30.5t191 -85t135 -129t82 -163.5t26.5 -188q0 -193 -109.5 -357t-297.5 -255h233h72l-55 -258h-666l55 258q102 20 186 78.5
t137.5 138.5t82.5 171.5t29 182.5q0 182 -100 280.5t-267 98.5q-90 0 -168.5 -34t-134.5 -91.5t-97 -132t-61 -155.5t-20 -162q0 -307 246 -375z" />
    <glyph glyph-name="uni03BC" unicode="&#x3bc;" horiz-adv-x="1216" 
d="M240 -399h-291l303 1423h289l-127 -600q-45 -215 116 -215q188 0 265 348l100 467h289l-219 -1024h-283q2 11 31 147q-139 -180 -322 -180q-43 0 -74 8z" />
    <glyph glyph-name="pi" unicode="&#x3c0;" horiz-adv-x="1368" 
d="M412 0h-287l170 793h-203l47 231h1252l-50 -231h-202l-103 -474q-8 -46 10.5 -67t65.5 -21h109l-52 -231h-163q-141 0 -215.5 79.5t-45.5 213.5l107 500h-270z" />
    <glyph glyph-name="Wgrave" unicode="&#x1e80;" horiz-adv-x="2158" 
d="M1376 1569h-190l-193 315h348zM668 0h-357l-78 1434h318l4 -611q2 -323 6 -454q68 142 215 454l287 611h410l24 -594q15 -353 23 -471q176 411 194 452l266 613h340l-690 -1434h-356l-35 614l-29 519q-19 -38 -249 -521z" />
    <glyph glyph-name="wgrave" unicode="&#x1e81;" horiz-adv-x="1751" 
d="M1090 1159h-175l-174 316h316zM567 0h-327l-107 1024h285l10 -276q11 -300 21 -478q15 31 184 392l168 362h344l18 -356l21 -392l192 416l154 332h307l-543 -1024h-344l-22 479l-15 264q-38 -79 -145 -307z" />
    <glyph glyph-name="Wacute" unicode="&#x1e82;" horiz-adv-x="2158" 
d="M1409 1569h-227l190 315h344zM668 0h-357l-78 1434h318l4 -611q2 -323 6 -454q68 142 215 454l287 611h410l24 -594q15 -353 23 -471q176 411 194 452l266 613h340l-690 -1434h-356l-35 614l-29 519q-19 -38 -249 -521z" />
    <glyph glyph-name="wacute" unicode="&#x1e83;" horiz-adv-x="1751" 
d="M1106 1159h-207l172 316h313zM567 0h-327l-107 1024h285l10 -276q11 -300 21 -478q15 31 184 392l168 362h344l18 -356l21 -392l192 416l154 332h307l-543 -1024h-344l-22 479l-15 264q-38 -79 -145 -307z" />
    <glyph glyph-name="Wdieresis" unicode="&#x1e84;" horiz-adv-x="2158" 
d="M1196 1569h-297l57 246h299zM1692 1569h-297l57 246h299zM668 0h-357l-78 1434h318l4 -611q2 -323 6 -454q68 142 215 454l287 611h410l24 -594q15 -353 23 -471q176 411 194 452l266 613h340l-690 -1434h-356l-35 614l-29 519q-19 -38 -249 -521z" />
    <glyph glyph-name="wdieresis" unicode="&#x1e85;" horiz-adv-x="1751" 
d="M911 1178h-270l53 245h271zM1362 1178h-270l53 245h270zM567 0h-327l-107 1024h285l10 -276q11 -300 21 -478q15 31 184 392l168 362h344l18 -356l21 -392l192 416l154 332h307l-543 -1024h-344l-22 479l-15 264q-38 -79 -145 -307z" />
    <glyph glyph-name="uni1E9E" unicode="&#x1e9e;" horiz-adv-x="1519" 
d="M862 -33q-87 0 -172.5 20t-134.5 52l51 278q118 -65 242 -65q109 0 178.5 49.5t69.5 136.5q0 71 -54.5 113.5t-158.5 42.5h-170l57 272h121q112 0 171.5 46t59.5 124q0 140 -207 140h-290l-250 -1176h-309l305 1434h618q203 0 329 -88t126 -246q0 -135 -88 -232.5
t-236 -122.5q139 -34 216 -127t77 -204q0 -213 -147.5 -330t-403.5 -117z" />
    <glyph glyph-name="Ygrave" unicode="&#x1ef2;" horiz-adv-x="1378" 
d="M991 1569h-190l-193 315h348zM735 0h-307l125 584l-336 850h336l100 -279q61 -168 101 -283q60 84 213 285l211 277h368l-686 -850z" />
    <glyph glyph-name="ygrave" unicode="&#x1ef3;" horiz-adv-x="1153" 
d="M737 1475l33 -316h-174l-174 316h315zM715 639l205 385h319l-672 -1186q-76 -136 -151.5 -186.5t-220.5 -50.5h-310l52 231h251q54 0 88 26t70 93l29 55l-273 1018h306l84 -385q47 -217 65 -291q27 47 158 291z" />
    <glyph glyph-name="uni2002" unicode="&#x2002;" horiz-adv-x="1024" 
 />
    <glyph glyph-name="uni2003" unicode="&#x2003;" horiz-adv-x="2048" 
 />
    <glyph glyph-name="uni2009" unicode="&#x2009;" horiz-adv-x="256" 
 />
    <glyph glyph-name="uni200A" unicode="&#x200a;" horiz-adv-x="153" 
 />
    <glyph glyph-name="endash" unicode="&#x2013;" horiz-adv-x="1310" 
d="M1190 535h-1063l51 233h1061z" />
    <glyph glyph-name="emdash" unicode="&#x2014;" horiz-adv-x="1822" 
d="M1698 535h-1569l49 233h1569z" />
    <glyph glyph-name="quoteleft" unicode="&#x2018;" horiz-adv-x="552" 
d="M489 1436h156l-262 -322h170l-68 -307h-315l72 326z" />
    <glyph glyph-name="quoteright" unicode="&#x2019;" horiz-adv-x="538" 
d="M324 805h-156l262 321h-170l68 308h315l-72 -326z" />
    <glyph glyph-name="quotesinglbase" unicode="&#x201a;" horiz-adv-x="565" 
d="M92 -322h-155l262 322h-170l67 307h316l-72 -325z" />
    <glyph glyph-name="quotedblleft" unicode="&#x201c;" horiz-adv-x="983" 
d="M489 1436h156l-262 -322h170l-68 -307h-315l72 326zM920 1436h155l-262 -322h170l-68 -307h-315l72 326z" />
    <glyph glyph-name="quotedblright" unicode="&#x201d;" horiz-adv-x="968" 
d="M324 805h-156l262 321h-170l68 308h315l-72 -326zM754 805h-156l262 321h-170l68 308h315l-72 -326z" />
    <glyph glyph-name="quotedblbase" unicode="&#x201e;" horiz-adv-x="995" 
d="M92 -322h-155l262 322h-170l67 307h316l-72 -325zM522 -322h-155l262 322h-170l67 307h316l-72 -325z" />
    <glyph glyph-name="dagger" unicode="&#x2020;" horiz-adv-x="1320" 
d="M893 -203h-311v981h-420v258h420v398h311v-398h420v-258h-420v-981z" />
    <glyph glyph-name="daggerdbl" unicode="&#x2021;" horiz-adv-x="1447" 
d="M901 -203h-311v396h-420v258h420v327h-420v258h420v398h311v-398h420v-258h-420v-327h420v-258h-420v-396z" />
    <glyph glyph-name="bullet" unicode="&#x2022;" horiz-adv-x="1136" 
d="M612 289q-176 0 -302 126t-126 300q0 178 125.5 304t302.5 126t302.5 -126t125.5 -304q0 -174 -126 -300t-302 -126z" />
    <glyph glyph-name="ellipsis" unicode="&#x2026;" horiz-adv-x="1646" 
d="M362 0h-335l69 324h334zM895 0h-336l70 324h334zM1427 0h-335l69 324h334z" />
    <glyph glyph-name="perthousand" unicode="&#x2030;" horiz-adv-x="2408" 
d="M506 592q-157 0 -244.5 93.5t-87.5 260.5q-1 135 50 251.5t140.5 185.5t194.5 69q155 0 244.5 -95t89.5 -261q0 -210 -112.5 -357t-274.5 -147zM211 0l1325 1434h274l-1323 -1434h-276zM563 1264q-60 0 -108.5 -97.5t-46.5 -216.5q0 -170 94 -170q62 0 109.5 95.5
t47.5 218.5q0 170 -96 170zM1991 842q155 0 244 -95.5t89 -261.5q0 -210 -112.5 -356.5t-274.5 -146.5q-160 0 -249 98q-101 -98 -232 -98q-157 0 -244.5 93.5t-87.5 260.5q-1 135 50 251.5t140.5 185.5t194.5 69q159 0 250 -101q104 101 232 101zM1452 170q62 0 110 95
t48 218q0 170 -97 170q-60 0 -108 -97.5t-47 -215.5q0 -170 94 -170zM1933 170q62 0 110 95t48 218q0 170 -96 170q-60 0 -108.5 -97.5t-47.5 -215.5q0 -170 94 -170z" />
    <glyph glyph-name="guilsinglleft" unicode="&#x2039;" horiz-adv-x="743" 
d="M465 1004h326l-426 -523l174 -454h-283l-182 489z" />
    <glyph glyph-name="guilsinglright" unicode="&#x203a;" horiz-adv-x="739" 
d="M205 1004h282l183 -490l-391 -487h-326l426 522z" />
    <glyph glyph-name="fraction" unicode="&#x2044;" horiz-adv-x="409" 
d="M-279 0h-276l1325 1434h274z" />
    <glyph glyph-name="uni2070" unicode="&#x2070;" horiz-adv-x="884" 
d="M563 778q-157 0 -244.5 94t-87.5 261q-1 135 50 251.5t140.5 185t194.5 68.5q155 0 244.5 -95t89.5 -261q0 -210 -112.5 -357t-274.5 -147zM559 967q62 0 110 95t48 218q0 170 -96 170q-60 0 -108.5 -97.5t-47.5 -215.5q0 -170 94 -170z" />
    <glyph glyph-name="uni2074" unicode="&#x2074;" horiz-adv-x="866" 
d="M735 797h-211l39 184h-385l43 193l414 446h274l-94 -459h115l-39 -180h-117zM537 1161h65l27 117l24 113l-215 -230h99z" />
    <glyph glyph-name="uni2075" unicode="&#x2075;" horiz-adv-x="806" 
d="M500 778q-138 0 -224 69.5t-94 186.5l219 43q3 -51 29.5 -81.5t69.5 -30.5q50 0 81 34t31 88q0 40 -23 63.5t-61 23.5q-56 0 -98 -64l-199 45l170 465h527l-41 -188h-348l-17 -43l-35 -99q45 45 127 45q102 0 165 -67.5t63 -177.5q0 -136 -96 -224t-246 -88z" />
    <glyph glyph-name="uni2076" unicode="&#x2076;" horiz-adv-x="851" 
d="M555 778q-148 0 -237 93.5t-89 250.5q0 231 127 373.5t334 142.5q133 0 242 -53l-43 -203q-102 60 -219 60q-66 0 -117.5 -36.5t-67.5 -109.5q57 60 148 60q114 0 185 -70.5t71 -181.5q0 -143 -94 -234.5t-240 -91.5zM545 965q47 0 78.5 37.5t31.5 91.5q0 40 -23.5 66
t-60.5 26q-49 0 -79.5 -36t-30.5 -95q0 -40 23.5 -65t60.5 -25z" />
    <glyph glyph-name="uni2077" unicode="&#x2077;" horiz-adv-x="745" 
d="M473 797h-233q8 189 123.5 368t300.5 267h-150h-256l41 188h616l-45 -215q-160 -83 -267.5 -247.5t-129.5 -360.5z" />
    <glyph glyph-name="uni2078" unicode="&#x2078;" horiz-adv-x="829" 
d="M512 778q-141 0 -227 61.5t-86 164.5q0 88 62.5 147t150.5 80q-125 53 -125 160q0 103 94.5 175t230.5 72q130 0 210.5 -61.5t80.5 -157.5q0 -74 -48.5 -132t-137.5 -79q67 -27 102 -74.5t35 -101.5q0 -114 -96 -184t-246 -70zM586 1292q41 0 68.5 26.5t27.5 67.5
q0 32 -20.5 51t-57.5 19q-43 0 -70.5 -26t-27.5 -66q0 -72 80 -72zM516 963q48 0 77.5 27t29.5 71q0 37 -23.5 57.5t-64.5 20.5q-46 0 -75.5 -28.5t-29.5 -72.5q0 -35 22.5 -55t63.5 -20z" />
    <glyph glyph-name="uni2079" unicode="&#x2079;" horiz-adv-x="843" 
d="M459 778q-135 0 -250 53l43 201q34 -22 88 -37.5t98 -15.5q84 0 121 18q87 42 107 136q-56 -64 -146 -64q-114 0 -187 70t-73 178q0 139 93.5 230t236.5 91q73 0 136 -26.5t103 -73.5q82 -94 82 -244q0 -232 -123.5 -374t-328.5 -142zM575 1241q46 0 75.5 35.5t29.5 89.5
q0 37 -23 61.5t-57 24.5q-44 0 -73 -35.5t-29 -87.5q0 -38 21.5 -63t55.5 -25z" />
    <glyph glyph-name="uni20A9" unicode="&#x20a9;" horiz-adv-x="2523" 
d="M2554 991l-37 -174h-309l-60 -121h260l-34 -174h-310l-252 -522h-368l-19 522h-350l-244 -522h-346l-28 522h-305l34 174h263l-9 121h-309l37 174h264l-24 443h325l-6 -443h313l203 443h406l12 -443h313l187 443h344l-213 -443h262zM1399 1210l-103 -219h111
q-1 43 -4 117.5t-4 101.5zM961 817h-236q0 -82 -2 -121h182l51 113zM1169 723l-12 -27h262q-4 78 -4 121h-201zM1671 696h178q42 98 52 121h-234v-22q1 -16 2 -49t2 -50zM721 287q10 23 47 105t59 130h-104q0 -43 -1 -120.5t-1 -114.5zM1681 287q38 91 97 235h-103
q6 -123 6 -235z" />
    <glyph glyph-name="Euro" unicode="&#x20ac;" horiz-adv-x="1480" 
d="M788 -33q-231 0 -373 127t-171 357h-178l36 184h136q0 69 20 141h-125l39 185h139q42 108 104 198t141.5 159.5t179.5 108.5t210 39q227 0 367.5 -113.5t171.5 -326.5l-293 -72q-15 110 -80 182t-176 72q-101 0 -178.5 -67t-128.5 -180h186h105l-41 -185h-312
q-20 -70 -20 -141h303l-39 -184h-104h-152q39 -224 242 -224q220 0 319 301l279 -102q-73 -213 -229 -336t-378 -123z" />
    <glyph glyph-name="uni20B9" unicode="&#x20b9;" horiz-adv-x="1226" 
d="M1346 1434l-46 -215h-159h-258q66 -37 102 -113h291l-43 -205h-238q-32 -103 -132 -175.5t-242 -82.5q125 -12 185 -81.5t66 -194.5l21 -367h-324l-6 319q-3 129 -48 177.5t-175 48.5h-234l54 254h317q169 0 238 102h-533l43 205h510q-43 113 -209 113h-276l45 215h1051z
" />
    <glyph glyph-name="uni20BA" unicode="&#x20ba;" horiz-adv-x="1402" 
d="M573 0h-352l33 154q24 122 55 258l-147 -68l-78 -35l51 244l225 102l29 136l-225 -103l53 244l223 102l88 398h312l-25 -107l-29 -135q35 16 236 106l215 99l-51 -242l-453 -205l-28 -137l452 205l-53 -242l-451 -205l-61 -293h41q85 0 164 35t155.5 116.5t132.5 205.5
l252 -170q-216 -463 -764 -463z" />
    <glyph glyph-name="uni20BD" unicode="&#x20bd;" horiz-adv-x="1359" 
d="M807 559h-248l-24 -113h442l-47 -213h-441l-49 -233h-303l49 233h-145l47 213h143l25 113h-145l49 234h145l137 641h447q238 0 365.5 -113t127.5 -291q0 -227 -157.5 -349t-417.5 -122zM872 1176h-182l-82 -383h203q118 0 190 60.5t72 158.5q0 72 -57.5 118t-143.5 46z
" />
    <glyph glyph-name="uni20BF" unicode="&#x20bf;" horiz-adv-x="1443" 
d="M1042 729q126 -19 212.5 -109t86.5 -208q0 -190 -156 -301t-397 -111l-47 -213h-188l47 213h-98l-47 -213h-189l47 213h-241l305 1434h239l46 202h188l-45 -202h98l45 202h189l-47 -217q145 -30 227 -112t82 -207q0 -142 -97 -242t-260 -129zM563 866h283q112 0 171.5 46
t59.5 124q0 140 -207 140h-241zM436 258h322q128 0 199 53t71 142q0 163 -237 163h-281z" />
    <glyph glyph-name="uni2113" unicode="&#x2113;" horiz-adv-x="1093" 
d="M522 -33q-190 0 -289.5 97t-64.5 288l8 45q-45 -2 -141 -2l45 215q26 1 143 11l101 471q37 179 145.5 276.5t278.5 97.5q180 0 288.5 -98t108.5 -260q0 -148 -90.5 -282.5t-241.5 -231t-342 -150.5l-20 -102q-24 -129 71 -129q52 0 98 44t78 126l271 -115
q-10 -34 -31 -71.5t-59 -79.5t-86.5 -74.5t-119.5 -54t-151 -21.5zM524 696q147 58 231.5 160.5t84.5 245.5q0 64 -31.5 97.5t-77.5 33.5q-45 0 -75 -30.5t-46 -104.5l-28 -131q-52 -240 -58 -271z" />
    <glyph glyph-name="uni2116" unicode="&#x2116;" horiz-adv-x="2633" 
d="M2177 592q-184 0 -289.5 98t-105.5 266q0 71 20 141.5t61.5 134.5t98.5 113.5t138.5 79t174.5 29.5q176 0 288 -104.5t112 -272.5q0 -93 -33 -179t-94 -155t-157.5 -110t-213.5 -41zM395 0h-309l305 1434h393l473 -936q16 85 74 354l125 582h309l-305 -1434h-268
l-561 1112q-27 -120 -90 -420zM2200 764q64 0 116 52.5t78.5 126t26.5 147.5q0 93 -41.5 142.5t-122.5 49.5q-64 0 -116 -52.5t-78.5 -126.5t-26.5 -149q0 -190 164 -190z" />
    <glyph glyph-name="uni2117" unicode="&#x2117;" horiz-adv-x="1822" 
d="M956 -80q-167 0 -317.5 63.5t-259 171.5t-172.5 258t-64 316t64 316t172.5 257.5t259 170.5t317.5 63q223 0 411 -107t297.5 -292.5t109.5 -407.5t-109.5 -408t-297.5 -293.5t-411 -107.5zM958 113q129 0 244 48.5t196 131.5t128 196.5t47 239.5q0 169 -79.5 310.5
t-221 224t-314.5 82.5t-314 -82.5t-220.5 -224t-79.5 -310.5q0 -168 79.5 -309.5t220.5 -224t314 -82.5zM883 311h-193v850h395q120 0 197.5 -69.5t77.5 -178.5q0 -105 -75 -179.5t-204 -74.5h-198v-348zM883 1018v-219h147q63 0 97 27.5t34 82.5q0 109 -135 109h-143z" />
    <glyph glyph-name="trademark" unicode="&#x2122;" horiz-adv-x="1980" 
d="M535 655h-197l131 615h-244l35 164h686l-35 -164h-245zM1057 655h-195l166 779h311l29 -312q20 -207 23 -291q8 15 30.5 61.5t50.5 104.5t64 129l154 308h327l-166 -779h-192l59 279q67 311 76 358l-326 -637h-215l-61 639q-40 -184 -78 -364z" />
    <glyph glyph-name="uni2126" unicode="&#x2126;" horiz-adv-x="1828" 
d="M836 0h-666v258h90h232q-137 86 -222.5 220t-85.5 302q0 106 31 206.5t93.5 187t149.5 152t206 103t256 37.5q170 0 311.5 -57.5t232.5 -153.5t141 -219t50 -256q0 -170 -78.5 -304.5t-212.5 -217.5h233h72v-258h-665v258q151 31 239 149t88 320q0 218 -110.5 349.5
t-300.5 131.5t-301 -132t-111 -349q0 -202 87.5 -319.5t240.5 -149.5v-258z" />
    <glyph glyph-name="uni2153" unicode="&#x2153;" horiz-adv-x="1814" 
d="M344 0h-276l1325 1434h274zM516 610h-219l76 348l45 211q-91 -130 -236 -114l47 219q178 3 267 160h194zM1356 -18q-153 0 -239 74t-89 204l232 27q0 -119 98 -119q44 0 72 24t28 64q0 31 -23.5 50.5t-56.5 19.5h-53l39 180h41q50 0 79 22.5t29 63.5q0 28 -19 45.5
t-50 17.5q-39 0 -64.5 -29.5t-33.5 -78.5l-224 35q25 122 111 191t223 69q123 0 202 -60t79 -155q0 -74 -45.5 -132.5t-141.5 -86.5q136 -49 136 -172q0 -113 -93 -183.5t-237 -70.5z" />
    <glyph glyph-name="uni2154" unicode="&#x2154;" horiz-adv-x="2009" 
d="M745 610h-626l45 209q55 27 81 39.5t73 36.5t69.5 36.5t59.5 34t55 35t43.5 33t37.5 35t25 34.5t18 37.5t5 37.5q0 41 -21.5 63.5t-56.5 22.5q-86 0 -111 -144l-227 29q19 139 111 221t239 82q137 0 221 -70t84 -180q0 -91 -51 -162.5t-160 -140.5q-89 -58 -206 -100h254
h79zM539 0h-277l1325 1434h275zM1550 -18q-153 0 -238.5 74t-88.5 204l231 27q0 -119 98 -119q45 0 73 24.5t28 63.5q0 31 -23.5 50.5t-56.5 19.5h-53l39 180h40q50 0 79.5 22.5t29.5 63.5q0 28 -19.5 45.5t-50.5 17.5q-39 0 -64.5 -29.5t-33.5 -78.5l-223 35
q25 122 111 191t223 69q123 0 201.5 -60t78.5 -155q0 -74 -45 -132.5t-141 -86.5q135 -48 135 -172q0 -113 -93 -183.5t-237 -70.5z" />
    <glyph glyph-name="uni2155" unicode="&#x2155;" horiz-adv-x="1818" 
d="M342 0h-276l1325 1434h274zM514 610h-219l76 348l45 211q-91 -130 -236 -114l47 219q178 3 267 160h194zM1348 -18q-138 0 -224 69.5t-94 186.5l219 43q3 -51 30 -82t69 -31q49 0 80.5 34.5t31.5 88.5q0 40 -23 63t-61 23q-56 0 -98 -64l-199 45l170 465h527l-41 -188
h-349l-16 -43l-35 -98q45 45 127 45q101 0 164.5 -68t63.5 -178q0 -135 -96 -223t-246 -88z" />
    <glyph glyph-name="uni2156" unicode="&#x2156;" horiz-adv-x="2004" 
d="M739 610h-626l45 209q55 27 81 39.5t73 36.5t69.5 36.5t59.5 34t55 35t43.5 33t37.5 35t25 34.5t18 37.5t5 37.5q0 41 -21.5 63.5t-56.5 22.5q-86 0 -111 -144l-227 29q19 139 111 221t239 82q137 0 221 -70t84 -180q0 -91 -51 -162.5t-160 -140.5q-88 -57 -207 -100h254
h80zM532 0h-276l1325 1434h274zM1538 -18q-138 0 -223.5 69.5t-93.5 186.5l219 43q3 -51 29.5 -82t68.5 -31q50 0 81.5 34.5t31.5 88.5q0 40 -23 63t-61 23q-57 0 -99 -64l-198 45l170 465h526l-41 -188h-348l-16 -43l-35 -98q45 45 127 45q101 0 164 -68t63 -178
q0 -135 -96 -223t-246 -88z" />
    <glyph glyph-name="uni2157" unicode="&#x2157;" horiz-adv-x="1992" 
d="M469 592q-153 0 -239 74t-89 204l232 27q0 -119 98 -119q44 0 72 24t28 64q0 31 -23 50.5t-56 19.5h-54l39 180h41q50 0 79.5 22.5t29.5 63.5q0 28 -19.5 46t-50.5 18q-39 0 -64.5 -30t-33.5 -79l-223 35q25 122 110.5 191t222.5 69q123 0 202 -60t79 -155
q0 -74 -45 -132.5t-141 -86.5q135 -48 135 -172q0 -113 -93 -183.5t-237 -70.5zM512 0h-276l1325 1434h274zM1518 -18q-138 0 -224 69.5t-94 186.5l219 43q3 -51 30 -82t69 -31q49 0 80.5 34.5t31.5 88.5q0 40 -23 63t-61 23q-56 0 -98 -64l-199 45l170 465h527l-41 -188
h-349l-16 -43l-35 -98q45 45 127 45q101 0 164.5 -68t63.5 -178q0 -135 -96 -223t-246 -88z" />
    <glyph glyph-name="uni2158" unicode="&#x2158;" horiz-adv-x="2052" 
d="M692 610h-211l39 185h-385l43 192l414 447h274l-94 -459h115l-39 -180h-117zM567 0h-276l1325 1434h274zM494 975h65l27 117l24 112l-215 -229h99zM1573 -18q-138 0 -224 69.5t-94 186.5l220 43q3 -51 29.5 -82t68.5 -31q50 0 81.5 34.5t31.5 88.5q0 40 -23 63t-61 23
q-57 0 -99 -64l-198 45l170 465h526l-41 -188h-348l-17 -43l-34 -98q45 45 127 45q101 0 164 -68t63 -178q0 -135 -96 -223t-246 -88z" />
    <glyph glyph-name="uni2159" unicode="&#x2159;" horiz-adv-x="1859" 
d="M344 0h-276l1325 1434h274zM516 610h-219l76 348l45 211q-91 -130 -236 -114l47 219q178 3 267 160h194zM1407 -18q-148 0 -237 93.5t-89 250.5q0 231 127 373.5t334 142.5q131 0 242 -54l-43 -202q-100 59 -219 59q-66 0 -117.5 -36.5t-67.5 -108.5q56 59 148 59
q114 0 185 -70.5t71 -181.5q0 -142 -94 -233.5t-240 -91.5zM1397 168q47 0 78.5 37.5t31.5 91.5q0 40 -23.5 66t-60.5 26q-49 0 -79.5 -36t-30.5 -95q0 -40 23.5 -65t60.5 -25z" />
    <glyph glyph-name="uni215A" unicode="&#x215a;" horiz-adv-x="2025" 
d="M451 592q-138 0 -224 69.5t-94 186.5l219 43q3 -51 30 -82t69 -31q49 0 80.5 34.5t31.5 88.5q0 40 -23 63t-61 23q-30 0 -52.5 -14t-45.5 -49l-199 45l170 465h527l-41 -189h-349l-16 -43l-35 -98q45 45 127 45q101 0 164.5 -68t63.5 -178q0 -135 -96 -223t-246 -88z
M510 0h-277l1326 1434h274zM1573 -18q-148 0 -237 93.5t-89 250.5q0 231 127 373.5t334 142.5q131 0 242 -54l-43 -202q-100 59 -219 59q-66 0 -117.5 -36.5t-67.5 -108.5q56 59 148 59q114 0 185 -70.5t71 -181.5q0 -142 -94 -233.5t-240 -91.5zM1563 168q47 0 78.5 37.5
t31.5 91.5q0 40 -23.5 66t-60.5 26q-49 0 -79.5 -36t-30.5 -95q0 -40 23.5 -65t60.5 -25z" />
    <glyph glyph-name="oneeighth" unicode="&#x215b;" horiz-adv-x="1841" 
d="M344 0h-276l1325 1434h274zM516 610h-219l76 348l45 211q-91 -130 -236 -114l47 219q178 3 267 160h194zM1370 -18q-141 0 -227 61.5t-86 163.5q0 88 62.5 147t150.5 80q-125 53 -125 160q0 103 94.5 175.5t230.5 72.5q130 0 210.5 -61.5t80.5 -157.5q0 -74 -48.5 -132
t-137.5 -79q67 -27 102 -74.5t35 -101.5q0 -114 -96 -184t-246 -70zM1444 496q41 0 68.5 26.5t27.5 67.5q0 32 -20.5 50.5t-57.5 18.5q-43 0 -70.5 -26t-27.5 -66q0 -71 80 -71zM1374 166q48 0 77.5 27t29.5 71q0 37 -23.5 57.5t-64.5 20.5q-46 0 -75.5 -28t-29.5 -72
q0 -36 22.5 -56t63.5 -20z" />
    <glyph glyph-name="threeeighths" unicode="&#x215c;" horiz-adv-x="2009" 
d="M469 592q-153 0 -239 74t-89 204l232 27q0 -119 98 -119q44 0 72 24t28 64q0 31 -23 50.5t-56 19.5h-54l39 180h41q50 0 79.5 22.5t29.5 63.5q0 28 -19.5 46t-50.5 18q-39 0 -64.5 -30t-33.5 -79l-223 35q25 122 110.5 191t222.5 69q123 0 202 -60t79 -155
q0 -74 -45 -132.5t-141 -86.5q135 -48 135 -172q0 -113 -93 -183.5t-237 -70.5zM512 0h-276l1325 1434h274zM1538 -18q-141 0 -227 61.5t-86 163.5q0 88 62.5 147t150.5 80q-125 53 -125 160q0 103 94.5 175.5t230.5 72.5q130 0 210.5 -61.5t80.5 -157.5q0 -74 -48.5 -132
t-137.5 -79q67 -27 102 -74.5t35 -101.5q0 -114 -96 -184t-246 -70zM1612 496q41 0 68.5 26.5t27.5 67.5q0 32 -20.5 50.5t-57.5 18.5q-43 0 -70.5 -26t-27.5 -66q0 -71 80 -71zM1542 166q48 0 77.5 27t29.5 71q0 37 -23.5 57.5t-64.5 20.5q-46 0 -75.5 -28t-29.5 -72
q0 -36 22.5 -56t63.5 -20z" />
    <glyph glyph-name="fiveeighths" unicode="&#x215d;" horiz-adv-x="2007" 
d="M451 592q-138 0 -224 69.5t-94 186.5l219 43q3 -51 30 -82t69 -31q49 0 80.5 34.5t31.5 88.5q0 40 -23 63t-61 23q-30 0 -52.5 -14t-45.5 -49l-199 45l170 465h527l-41 -189h-349l-16 -43l-35 -98q45 45 127 45q101 0 164.5 -68t63.5 -178q0 -135 -96 -223t-246 -88z
M510 0h-277l1326 1434h274zM1536 -18q-141 0 -227 61.5t-86 163.5q0 88 62.5 147t150.5 80q-125 53 -125 160q0 103 94.5 175.5t230.5 72.5q130 0 210.5 -61.5t80.5 -157.5q0 -74 -48.5 -132t-137.5 -79q67 -27 102 -74.5t35 -101.5q0 -114 -96 -184t-246 -70zM1610 496
q41 0 68.5 26.5t27.5 67.5q0 32 -20.5 50.5t-57.5 18.5q-43 0 -70.5 -26t-27.5 -66q0 -71 80 -71zM1540 166q48 0 77.5 27t29.5 71q0 37 -23.5 57.5t-64.5 20.5q-46 0 -75.5 -28t-29.5 -72q0 -36 22.5 -56t63.5 -20z" />
    <glyph glyph-name="seveneighths" unicode="&#x215e;" horiz-adv-x="1859" 
d="M362 0h-276l1325 1434h275zM436 610h-233q8 189 123.5 368t300.5 267h-150h-256l41 189h617l-45 -215q-160 -84 -268 -248.5t-130 -360.5zM1389 -18q-142 0 -228 61.5t-86 163.5q0 88 62.5 147t150.5 80q-125 53 -125 160q0 103 95 175.5t231 72.5q130 0 210.5 -61.5
t80.5 -157.5q0 -73 -49 -131.5t-138 -79.5q68 -27 103 -74.5t35 -101.5q0 -114 -96 -184t-246 -70zM1462 496q42 0 69.5 26.5t27.5 67.5q0 32 -20.5 50.5t-57.5 18.5q-43 0 -71 -26t-28 -66q0 -71 80 -71zM1393 166q47 0 76.5 27t29.5 71q0 37 -23.5 57.5t-64.5 20.5
q-46 0 -75 -28t-29 -72q0 -36 22.5 -56t63.5 -20z" />
    <glyph glyph-name="uni215F" unicode="&#x215f;" horiz-adv-x="837" 
d="M326 0h-277l1325 1434h275zM498 610h-219l75 348l45 211q-91 -130 -235 -114l47 219q177 3 266 160h195z" />
    <glyph glyph-name="arrowleft" unicode="&#x2190;" horiz-adv-x="1738" 
d="M1688 868v-303h-1008q140 -136 209 -205l117 -116l-215 -215l-693 688l693 688l215 -215l-115 -113l-211 -209h1008z" />
    <glyph glyph-name="arrowup" unicode="&#x2191;" horiz-adv-x="1470" 
d="M967 0h-303v1008q-136 -140 -205 -209l-117 -117l-215 215l688 692l688 -692l-215 -215l-112 115l-209 211v-1008z" />
    <glyph glyph-name="arrowright" unicode="&#x2192;" horiz-adv-x="1742" 
d="M141 565v303h1008q-140 136 -209 205l-117 117l215 215l693 -688l-693 -688l-215 215l115 112l211 209h-1008z" />
    <glyph glyph-name="arrowdown" unicode="&#x2193;" horiz-adv-x="1468" 
d="M590 1434h303v-1008q136 140 205 209l116 117l216 -215l-689 -693l-688 693l215 215l113 -115l209 -211v1008z" />
    <glyph glyph-name="uni2196" unicode="&#x2196;" horiz-adv-x="1568" 
d="M782 1130l717 -714l-211 -211l-713 715v-314v-147h-305v975h975v-304h-145h-318z" />
    <glyph glyph-name="uni2197" unicode="&#x2197;" horiz-adv-x="1355" 
d="M973 922l-715 -717l-211 211l715 712h-313h-148v306h975v-975h-303v145v318z" />
    <glyph glyph-name="uni2198" unicode="&#x2198;" horiz-adv-x="1568" 
d="M874 303l-716 715l211 211l712 -715v313v148h305v-975h-974v303h145h317z" />
    <glyph glyph-name="uni2199" unicode="&#x2199;" horiz-adv-x="1355" 
d="M469 512l715 717l211 -211l-715 -713h313h148v-305h-975v975h303v-146v-317z" />
    <glyph glyph-name="uni21A4" unicode="&#x21a4;" horiz-adv-x="1869" 
d="M1378 868v447h316v-1196h-316v446h-696q26 -26 73 -71t85 -82t73 -72l97 -96l-215 -215l-693 688l693 688l215 -215l-99 -96q-38 -38 -114.5 -113t-114.5 -113h696z" />
    <glyph glyph-name="uni21A5" unicode="&#x21a5;" horiz-adv-x="1583" 
d="M969 1012v-697h446v-315h-1196v315h447v697q-26 -26 -71 -73t-82.5 -85.5t-72.5 -73.5l-96 -96l-215 215l688 692l688 -692l-215 -215l-96 98q-38 38 -112.5 115t-112.5 115z" />
    <glyph glyph-name="uni21A6" unicode="&#x21a6;" horiz-adv-x="1867" 
d="M948 1190l215 215l692 -688l-692 -688l-215 215l99 96q38 38 114.5 112.5t114.5 112.5h-696v-446h-316v1196h316v-447h696q-26 26 -73 71t-85.5 82.5t-73.5 72.5z" />
    <glyph glyph-name="uni21A7" unicode="&#x21a7;" horiz-adv-x="1585" 
d="M1233 653l96 97l215 -215l-688 -693l-688 693l215 215l96 -99q38 -38 113 -114.5t113 -114.5v696h-447v316h1196v-316h-446v-696q26 26 71 73t82 85t72 73z" />
    <glyph glyph-name="uni21B0" unicode="&#x21b0;" horiz-adv-x="1857" 
d="M684 868h1008v-868h-316v565h-692q140 -136 209 -205l117 -116l-215 -215l-693 688l693 688l215 -215l-115 -113z" />
    <glyph glyph-name="uni21B1" unicode="&#x21b1;" horiz-adv-x="1751" 
d="M831 1190l216 215l692 -688l-692 -688l-216 215l115 112l211 209h-692v-565h-315v868h1007q-140 136 -209 205z" />
    <glyph glyph-name="uni21B2" unicode="&#x21b2;" horiz-adv-x="1751" 
d="M1372 868v566h316v-869h-1008q140 -136 209 -205l117 -116l-215 -215l-693 688l693 688l215 -215l-115 -113l-211 -209h692z" />
    <glyph glyph-name="uni21B3" unicode="&#x21b3;" horiz-adv-x="1857" 
d="M936 1190l215 215l692 -688l-692 -688l-215 215l115 112l211 209h-1008v869h315v-566h693q-140 136 -209 205z" />
    <glyph glyph-name="partialdiff" unicode="&#x2202;" horiz-adv-x="1325" 
d="M668 -33q-237 0 -385 140.5t-148 369.5q0 109 38 199t102.5 148.5t149 90t179.5 31.5q129 0 225 -60.5t134 -156.5q-1 226 -124 345.5t-325 119.5q-135 0 -287 -64v283q132 53 326 53q322 0 511 -214t189 -590q0 -141 -38 -266t-110 -221t-184.5 -152t-252.5 -56z
M680 221q103 0 171.5 68.5t68.5 175.5q0 112 -71.5 183t-172.5 71q-99 0 -169.5 -67.5t-70.5 -178.5q0 -117 70.5 -184.5t173.5 -67.5z" />
    <glyph glyph-name="uni2206" unicode="&#x2206;" horiz-adv-x="1648" 
d="M561 1434h404l542 -1434h-1493zM666 907l-228 -649h637l-221 651l-94 275q-21 -67 -94 -277z" />
    <glyph glyph-name="product" unicode="&#x220f;" horiz-adv-x="1792" 
d="M240 1434h1503v-258h-205v-1379h-311v1379h-471v-1379h-312v1379h-204v258z" />
    <glyph glyph-name="summation" unicode="&#x2211;" horiz-adv-x="1599" 
d="M1403 -203h-1147v271l514 544l-524 557v265h1136v-258h-344h-395l524 -560l-530 -561h401h365v-258z" />
    <glyph glyph-name="minus" unicode="&#x2212;" horiz-adv-x="1396" 
d="M1280 600h-1085v246h1085v-246z" />
    <glyph glyph-name="uni2215" unicode="&#x2215;" horiz-adv-x="790" 
d="M115 -205h-289l938 1854h291z" />
    <glyph glyph-name="radical" unicode="&#x221a;" horiz-adv-x="1347" 
d="M877 -203h-349l-297 789h-165v258h374l150 -445q94 -284 112 -352q9 31 115 356l336 1031h311z" />
    <glyph glyph-name="infinity" unicode="&#x221e;" horiz-adv-x="1783" 
d="M555 322q-180 0 -298 117t-118 284t118 284t298 117q114 0 212 -50.5t171 -147.5q144 198 381 198q180 0 297 -117t117 -284t-117 -284t-297 -117q-238 0 -383 196q-73 -96 -172 -146t-209 -50zM571 537q60 0 110 38t126 152q-68 102 -121.5 142t-114.5 40
q-75 0 -125.5 -52t-50.5 -134t50.5 -134t125.5 -52zM1300 537q75 0 126 52t51 134t-51 134t-126 52q-59 0 -111.5 -39t-123.5 -143q76 -114 125.5 -152t109.5 -38z" />
    <glyph glyph-name="integral" unicode="&#x222b;" horiz-adv-x="722" 
d="M166 -397h-143v258h92q47 0 74.5 31.5t27.5 87.5v1124q0 66 18.5 123t57.5 104.5t107 75t159 27.5h143v-258h-92q-47 0 -74.5 -31.5t-27.5 -87.5v-1125q0 -65 -18.5 -122t-57.5 -104.5t-107 -75t-159 -27.5z" />
    <glyph glyph-name="approxequal" unicode="&#x2248;" horiz-adv-x="1310" 
d="M924 737q-113 0 -228 62l-88 49q-55 31 -108 31q-99 0 -174 -113l-172 147q56 107 150 164.5t206 57.5t223 -60l82 -45q70 -37 121 -37q47 0 92.5 32.5t81.5 86.5l172 -154q-56 -106 -151.5 -163.5t-206.5 -57.5zM924 287q-115 0 -228 61l-88 49q-55 31 -108 31
q-99 0 -174 -113l-172 148q56 107 150 164t206 57q114 0 223 -59l82 -45q70 -37 121 -37q47 0 92.5 32.5t81.5 86.5l172 -154q-56 -106 -151.5 -163.5t-206.5 -57.5z" />
    <glyph glyph-name="notequal" unicode="&#x2260;" horiz-adv-x="1452" 
d="M555 180h-256l98 168h-190v246h334l69 119q55 96 74 127h-264h-213v245h622l105 181h256l-107 -181h220v-245h-363l-70 -119l-73 -127h280h226v-246h-650z" />
    <glyph glyph-name="lessequal" unicode="&#x2264;" horiz-adv-x="1427" 
d="M1288 745v-260l-1095 205v391l1095 211v-243l-381 -66q-304 -53 -530 -90q277 -42 530 -84zM1288 180h-1095v246h1095v-246z" />
    <glyph glyph-name="greaterequal" unicode="&#x2265;" horiz-adv-x="1466" 
d="M1329 694l-1096 -211v244l381 66q291 51 531 90q-292 45 -531 84l-381 63v260l1096 -205v-391zM1329 180h-1096v246h1096v-246z" />
    <glyph glyph-name="angleleft" unicode="&#x2329;" horiz-adv-x="757" 
d="M711 1567l209 -164l-580 -819l227 -815l-256 -97l-254 946z" />
    <glyph glyph-name="angleright" unicode="&#x232a;" horiz-adv-x="755" 
d="M236 1470l256 97l253 -946l-653 -949l-209 164l580 819z" />
    <glyph glyph-name="uni2460" unicode="&#x2460;" horiz-adv-x="1808" 
d="M913 -80q-225 0 -404.5 96t-280.5 267.5t-101 386.5q0 136 39.5 264.5t115.5 236.5t179.5 189.5t239 127.5t286.5 46q161 0 306 -57t251 -155.5t168 -239.5t62 -302q0 -170 -63.5 -326.5t-174.5 -274.5t-273.5 -188.5t-349.5 -70.5zM922 111q134 0 256.5 56t208 148
t136 211.5t50.5 243.5q0 170 -79 301.5t-213.5 201.5t-301.5 70q-134 0 -256.5 -56.5t-208 -148.5t-136 -211.5t-50.5 -242.5q0 -171 79 -302.5t213.5 -201t301.5 -69.5zM1022 317h-219l76 349l45 211q-92 -131 -236 -115l47 219q177 3 266 160h195z" />
    <glyph glyph-name="uni2461" unicode="&#x2461;" horiz-adv-x="1808" 
d="M913 -80q-225 0 -404.5 96t-280.5 267.5t-101 386.5q0 136 39.5 264.5t115.5 236.5t179.5 189.5t239 127.5t286.5 46q161 0 306 -57t251 -155.5t168 -239.5t62 -302q0 -170 -63.5 -326.5t-174.5 -274.5t-273.5 -188.5t-349.5 -70.5zM922 111q134 0 256.5 56t208 148
t136 211.5t50.5 243.5q0 170 -79 301.5t-213.5 201.5t-301.5 70q-134 0 -256.5 -56.5t-208 -148.5t-136 -211.5t-50.5 -242.5q0 -171 79 -302.5t213.5 -201t301.5 -69.5zM1184 317h-627l45 209q55 27 81 39.5t73 36.5t69.5 36.5t59.5 34t55 35t43.5 33t37.5 35t25 34.5
t18 37.5t5 37.5q0 41 -21.5 63.5t-56.5 22.5q-85 0 -110 -144l-228 29q19 139 111.5 221t239.5 82q137 0 221 -70t84 -180q0 -91 -51 -162.5t-160 -140.5q-88 -57 -207 -100h254h80z" />
    <glyph glyph-name="uni2462" unicode="&#x2462;" horiz-adv-x="1808" 
d="M913 -80q-225 0 -404.5 96t-280.5 267.5t-101 386.5q0 136 39.5 264.5t115.5 236.5t179.5 189.5t239 127.5t286.5 46q161 0 306 -57t251 -155.5t168 -239.5t62 -302q0 -170 -63.5 -326.5t-174.5 -274.5t-273.5 -188.5t-349.5 -70.5zM922 111q134 0 256.5 56t208 148
t136 211.5t50.5 243.5q0 170 -79 301.5t-213.5 201.5t-301.5 70q-134 0 -256.5 -56.5t-208 -148.5t-136 -211.5t-50.5 -242.5q0 -171 79 -302.5t213.5 -201t301.5 -69.5zM891 299q-153 0 -239 74.5t-89 204.5l232 26q0 -119 98 -119q44 0 72 24t28 64q0 31 -23.5 50.5
t-56.5 19.5h-53l39 180h41q50 0 79.5 22.5t29.5 63.5q0 28 -19.5 46t-50.5 18q-39 0 -64.5 -30t-33.5 -79l-224 35q25 122 111 191t223 69q123 0 202 -60t79 -155q0 -74 -45.5 -132.5t-141.5 -86.5q136 -49 136 -172q0 -113 -93 -183.5t-237 -70.5z" />
    <glyph glyph-name="uni2463" unicode="&#x2463;" horiz-adv-x="1808" 
d="M913 -80q-225 0 -404.5 96t-280.5 267.5t-101 386.5q0 136 39.5 264.5t115.5 236.5t179.5 189.5t239 127.5t286.5 46q161 0 306 -57t251 -155.5t168 -239.5t62 -302q0 -170 -63.5 -326.5t-174.5 -274.5t-273.5 -188.5t-349.5 -70.5zM922 111q134 0 256.5 56t208 148
t136 211.5t50.5 243.5q0 170 -79 301.5t-213.5 201.5t-301.5 70q-134 0 -256.5 -56.5t-208 -148.5t-136 -211.5t-50.5 -242.5q0 -171 79 -302.5t213.5 -201t301.5 -69.5zM1077 317h-211l39 185h-385l43 192l414 447h274l-94 -459h115l-39 -180h-117zM879 682h65l27 117
l24 112l-215 -229h99z" />
    <glyph glyph-name="uni2464" unicode="&#x2464;" horiz-adv-x="1808" 
d="M913 -80q-225 0 -404.5 96t-280.5 267.5t-101 386.5q0 136 39.5 264.5t115.5 236.5t179.5 189.5t239 127.5t286.5 46q161 0 306 -57t251 -155.5t168 -239.5t62 -302q0 -170 -63.5 -326.5t-174.5 -274.5t-273.5 -188.5t-349.5 -70.5zM922 111q134 0 256.5 56t208 148
t136 211.5t50.5 243.5q0 170 -79 301.5t-213.5 201.5t-301.5 70q-134 0 -256.5 -56.5t-208 -148.5t-136 -211.5t-50.5 -242.5q0 -171 79 -302.5t213.5 -201t301.5 -69.5zM881 299q-138 0 -224 69.5t-94 186.5l219 43q3 -51 30 -82t69 -31q49 0 80.5 34.5t31.5 88.5
q0 40 -23 63t-61 23q-30 0 -52.5 -14t-45.5 -49l-199 45l170 465h527l-41 -189h-348l-17 -43l-35 -98q45 45 127 45q101 0 164.5 -68t63.5 -178q0 -135 -96 -223t-246 -88z" />
    <glyph glyph-name="uni2465" unicode="&#x2465;" horiz-adv-x="1808" 
d="M913 -80q-225 0 -404.5 96t-280.5 267.5t-101 386.5q0 136 39.5 264.5t115.5 236.5t179.5 189.5t239 127.5t286.5 46q161 0 306 -57t251 -155.5t168 -239.5t62 -302q0 -170 -63.5 -326.5t-174.5 -274.5t-273.5 -188.5t-349.5 -70.5zM922 111q134 0 256.5 56t208 148
t136 211.5t50.5 243.5q0 170 -79 301.5t-213.5 201.5t-301.5 70q-134 0 -256.5 -56.5t-208 -148.5t-136 -211.5t-50.5 -242.5q0 -171 79 -302.5t213.5 -201t301.5 -69.5zM893 299q-148 0 -237 93.5t-89 250.5q0 231 127 373.5t334 142.5q133 0 242 -53l-43 -203
q-102 60 -219 60q-66 0 -117.5 -36.5t-67.5 -109.5q57 60 148 60q114 0 185 -70.5t71 -181.5q0 -143 -94 -234.5t-240 -91.5zM883 485q47 0 78.5 37.5t31.5 91.5q0 40 -23.5 66.5t-60.5 26.5q-49 0 -79.5 -36.5t-30.5 -95.5q0 -40 23.5 -65t60.5 -25z" />
    <glyph glyph-name="uni2466" unicode="&#x2466;" horiz-adv-x="1808" 
d="M913 -80q-225 0 -404.5 96t-280.5 267.5t-101 386.5q0 136 39.5 264.5t115.5 236.5t179.5 189.5t239 127.5t286.5 46q161 0 306 -57t251 -155.5t168 -239.5t62 -302q0 -170 -63.5 -326.5t-174.5 -274.5t-273.5 -188.5t-349.5 -70.5zM922 111q134 0 256.5 56t208 148
t136 211.5t50.5 243.5q0 170 -79 301.5t-213.5 201.5t-301.5 70q-134 0 -256.5 -56.5t-208 -148.5t-136 -211.5t-50.5 -242.5q0 -171 79 -302.5t213.5 -201t301.5 -69.5zM909 317h-233q8 189 123.5 368t300.5 267h-150h-256l41 189h617l-45 -215q-160 -84 -268 -248.5
t-130 -360.5z" />
    <glyph glyph-name="uni2467" unicode="&#x2467;" horiz-adv-x="1808" 
d="M913 -80q-225 0 -404.5 96t-280.5 267.5t-101 386.5q0 136 39.5 264.5t115.5 236.5t179.5 189.5t239 127.5t286.5 46q161 0 306 -57t251 -155.5t168 -239.5t62 -302q0 -170 -63.5 -326.5t-174.5 -274.5t-273.5 -188.5t-349.5 -70.5zM922 111q134 0 256.5 56t208 148
t136 211.5t50.5 243.5q0 170 -79 301.5t-213.5 201.5t-301.5 70q-134 0 -256.5 -56.5t-208 -148.5t-136 -211.5t-50.5 -242.5q0 -171 79 -302.5t213.5 -201t301.5 -69.5zM907 299q-141 0 -227 61.5t-86 163.5q0 88 62.5 147.5t150.5 80.5q-125 53 -125 159q0 103 95 175.5
t231 72.5q129 0 209.5 -61.5t80.5 -157.5q0 -74 -48.5 -132t-137.5 -79q67 -27 102 -74.5t35 -101.5q0 -114 -96 -184t-246 -70zM981 813q41 0 68.5 26.5t27.5 67.5q0 32 -20.5 51t-57.5 19q-43 0 -70.5 -26t-27.5 -66q0 -72 80 -72zM911 483q47 0 77 27.5t30 71.5
q0 37 -23.5 57t-64.5 20q-46 0 -75.5 -28t-29.5 -72q0 -36 22.5 -56t63.5 -20z" />
    <glyph glyph-name="uni2468" unicode="&#x2468;" horiz-adv-x="1808" 
d="M913 -80q-225 0 -404.5 96t-280.5 267.5t-101 386.5q0 136 39.5 264.5t115.5 236.5t179.5 189.5t239 127.5t286.5 46q161 0 306 -57t251 -155.5t168 -239.5t62 -302q0 -170 -63.5 -326.5t-174.5 -274.5t-273.5 -188.5t-349.5 -70.5zM922 111q134 0 256.5 56t208 148
t136 211.5t50.5 243.5q0 170 -79 301.5t-213.5 201.5t-301.5 70q-134 0 -256.5 -56.5t-208 -148.5t-136 -211.5t-50.5 -242.5q0 -171 79 -302.5t213.5 -201t301.5 -69.5zM864 299q-135 0 -250 53l43 201q34 -22 88.5 -37.5t98.5 -15.5q84 0 121 18q39 19 66.5 49t39.5 86
q-55 -63 -145 -63q-114 0 -187 70t-73 178q0 139 93 230t236 91q74 0 137 -26.5t103 -73.5q82 -94 82 -244q0 -232 -124 -374t-329 -142zM981 762q46 0 75 35.5t29 89.5q0 37 -22.5 61.5t-56.5 24.5q-44 0 -73.5 -36t-29.5 -87q0 -38 22 -63t56 -25z" />
    <glyph glyph-name="uni24EA" unicode="&#x24ea;" horiz-adv-x="1808" 
d="M913 -80q-225 0 -404.5 96t-280.5 267.5t-101 386.5q0 136 39.5 264.5t115.5 236.5t179.5 189.5t239 127.5t286.5 46q161 0 306 -57t251 -155.5t168 -239.5t62 -302q0 -170 -63.5 -326.5t-174.5 -274.5t-273.5 -188.5t-349.5 -70.5zM922 111q134 0 256.5 56t208 148
t136 211.5t50.5 243.5q0 170 -79 301.5t-213.5 201.5t-301.5 70q-134 0 -256.5 -56.5t-208 -148.5t-136 -211.5t-50.5 -242.5q0 -171 79 -302.5t213.5 -201t301.5 -69.5zM911 299q-157 0 -244 93.5t-87 260.5q-1 135 50 251.5t140.5 185.5t194.5 69q155 0 244 -95t89 -261
q0 -210 -112.5 -357t-274.5 -147zM907 487q62 0 110 95.5t48 218.5q0 170 -96 170q-60 0 -108.5 -98t-47.5 -216q0 -170 94 -170z" />
    <glyph glyph-name="uni24FF" unicode="&#x24ff;" horiz-adv-x="1775" 
d="M879 -80q147 0 285.5 49.5t246.5 136t189.5 198.5t125 243.5t43.5 263.5q0 217 -97 382t-269 253t-393 88q-183 0 -350.5 -77t-284.5 -201.5t-186.5 -286t-69.5 -326.5q0 -218 97.5 -383t269.5 -252.5t393 -87.5zM905 299q-157 0 -244.5 93.5t-87.5 260.5
q-1 135 50 251.5t140.5 185.5t194.5 69q155 0 244.5 -95t89.5 -261q0 -210 -112.5 -357t-274.5 -147zM901 487q62 0 110 95.5t48 218.5q0 170 -96 170q-60 0 -108.5 -98t-47.5 -216q0 -170 94 -170z" />
    <glyph glyph-name="lozenge" unicode="&#x25ca;" horiz-adv-x="1351" 
d="M899 0h-360l-430 717l430 717h360l430 -717zM829 436l168 275l-170 288q-33 55 -108 189q-66 -122 -113 -197l-166 -270l172 -287q32 -55 107 -188q71 128 110 190z" />
    <glyph glyph-name="uni274C" unicode="&#x274c;" horiz-adv-x="1667" 
d="M872 537l-559 -570l-182 183l563 571l-553 567l189 189l551 -568l559 568l186 -177l-565 -575l555 -571l-191 -187z" />
    <glyph glyph-name="uni2776" unicode="&#x2776;" horiz-adv-x="1796" 
d="M879 -80q147 0 285.5 49.5t246.5 136t189.5 198.5t125 243.5t43.5 263.5q0 217 -97 382t-269 253t-393 88q-183 0 -350.5 -77t-284.5 -201.5t-186.5 -286t-69.5 -326.5q0 -218 97.5 -383t269.5 -252.5t393 -87.5zM1016 317h-219l75 349l46 211q-92 -131 -236 -115l47 219
q177 3 266 160h195z" />
    <glyph glyph-name="uni2777" unicode="&#x2777;" horiz-adv-x="1796" 
d="M879 -80q147 0 285.5 49.5t246.5 136t189.5 198.5t125 243.5t43.5 263.5q0 217 -97 382t-269 253t-393 88q-183 0 -350.5 -77t-284.5 -201.5t-186.5 -286t-69.5 -326.5q0 -218 97.5 -383t269.5 -252.5t393 -87.5zM1178 317h-627l45 209q55 27 81 39.5t73 36.5t69.5 36.5
t59.5 34t55 35t43.5 33t37.5 35t25 34.5t18 37.5t5 37.5q0 41 -21.5 63.5t-56.5 22.5q-86 0 -111 -144l-227 29q19 139 111 221t239 82q137 0 221.5 -70t84.5 -180q0 -91 -51 -162.5t-160 -140.5q-88 -57 -207 -100h254h80z" />
    <glyph glyph-name="uni2778" unicode="&#x2778;" horiz-adv-x="1796" 
d="M879 -80q147 0 285.5 49.5t246.5 136t189.5 198.5t125 243.5t43.5 263.5q0 217 -97 382t-269 253t-393 88q-183 0 -350.5 -77t-284.5 -201.5t-186.5 -286t-69.5 -326.5q0 -218 97.5 -383t269.5 -252.5t393 -87.5zM885 299q-153 0 -239 74.5t-89 204.5l231 26
q0 -119 99 -119q44 0 72 24t28 64q0 31 -23.5 50.5t-56.5 19.5h-53l39 180h41q50 0 79 22.5t29 63.5q0 28 -19 46t-50 18q-39 0 -65 -30t-34 -79l-223 35q25 122 111 191t223 69q123 0 202 -60t79 -155q0 -74 -45.5 -132.5t-141.5 -86.5q135 -48 135 -172
q0 -113 -92.5 -183.5t-236.5 -70.5z" />
    <glyph glyph-name="uni2779" unicode="&#x2779;" horiz-adv-x="1775" 
d="M879 -80q147 0 285.5 49.5t246.5 136t189.5 198.5t125 243.5t43.5 263.5q0 217 -97 382t-269 253t-393 88q-183 0 -350.5 -77t-284.5 -201.5t-186.5 -286t-69.5 -326.5q0 -218 97.5 -383t269.5 -252.5t393 -87.5zM1071 317h-211l39 185h-385l43 192l414 447h274l-94 -459
h115l-39 -180h-117zM872 682h66l27 117l24 112l-215 -229h98z" />
    <glyph glyph-name="uni277A" unicode="&#x277a;" horiz-adv-x="1775" 
d="M879 -80q147 0 285.5 49.5t246.5 136t189.5 198.5t125 243.5t43.5 263.5q0 217 -97 382t-269 253t-393 88q-183 0 -350.5 -77t-284.5 -201.5t-186.5 -286t-69.5 -326.5q0 -218 97.5 -383t269.5 -252.5t393 -87.5zM874 299q-138 0 -223.5 69.5t-93.5 186.5l219 43
q3 -51 29.5 -82t68.5 -31q50 0 81.5 34.5t31.5 88.5q0 40 -23 63t-61 23q-30 0 -52.5 -14t-45.5 -49l-199 45l170 465h527l-41 -189h-349l-16 -43l-35 -98q45 45 127 45q101 0 164.5 -68t63.5 -178q0 -135 -96.5 -223t-246.5 -88z" />
    <glyph glyph-name="uni277B" unicode="&#x277b;" horiz-adv-x="1775" 
d="M879 -80q147 0 285.5 49.5t246.5 136t189.5 198.5t125 243.5t43.5 263.5q0 217 -97 382t-269 253t-393 88q-183 0 -350.5 -77t-284.5 -201.5t-186.5 -286t-69.5 -326.5q0 -218 97.5 -383t269.5 -252.5t393 -87.5zM887 299q-148 0 -237 93.5t-89 250.5q0 231 127 373.5
t334 142.5q133 0 242 -53l-43 -203q-102 60 -220 60q-66 0 -117 -36.5t-67 -109.5q57 60 148 60q114 0 185 -70.5t71 -181.5q0 -143 -94 -234.5t-240 -91.5zM877 485q47 0 78.5 37.5t31.5 91.5q0 40 -23.5 66.5t-60.5 26.5q-49 0 -79.5 -36.5t-30.5 -95.5q0 -40 23.5 -65
t60.5 -25z" />
    <glyph glyph-name="uni277C" unicode="&#x277c;" horiz-adv-x="1796" 
d="M879 -80q147 0 285.5 49.5t246.5 136t189.5 198.5t125 243.5t43.5 263.5q0 217 -97 382t-269 253t-393 88q-183 0 -350.5 -77t-284.5 -201.5t-186.5 -286t-69.5 -326.5q0 -218 97.5 -383t269.5 -252.5t393 -87.5zM903 317h-233q8 189 123.5 368t300.5 267h-150h-256
l41 189h617l-46 -215q-160 -83 -267.5 -248t-129.5 -361z" />
    <glyph glyph-name="uni277D" unicode="&#x277d;" horiz-adv-x="1775" 
d="M879 -80q147 0 285.5 49.5t246.5 136t189.5 198.5t125 243.5t43.5 263.5q0 217 -97 382t-269 253t-393 88q-183 0 -350.5 -77t-284.5 -201.5t-186.5 -286t-69.5 -326.5q0 -218 97.5 -383t269.5 -252.5t393 -87.5zM901 299q-141 0 -227 61.5t-86 163.5q0 88 62.5 147.5
t150.5 80.5q-125 53 -125 159q0 103 94.5 175.5t230.5 72.5q130 0 210.5 -61.5t80.5 -157.5q0 -74 -48.5 -132t-137.5 -79q67 -27 102 -74.5t35 -101.5q0 -114 -96 -184t-246 -70zM975 813q41 0 68.5 26.5t27.5 67.5q0 32 -20.5 51t-57.5 19q-43 0 -70.5 -26t-27.5 -66
q0 -72 80 -72zM905 483q47 0 77 27.5t30 71.5q0 37 -23.5 57t-64.5 20q-46 0 -75.5 -28t-29.5 -72q0 -36 22.5 -56t63.5 -20z" />
    <glyph glyph-name="uni277E" unicode="&#x277e;" horiz-adv-x="1796" 
d="M879 -80q147 0 285.5 49.5t246.5 136t189.5 198.5t125 243.5t43.5 263.5q0 217 -97 382t-269 253t-393 88q-183 0 -350.5 -77t-284.5 -201.5t-186.5 -286t-69.5 -326.5q0 -218 97.5 -383t269.5 -252.5t393 -87.5zM864 299q-135 0 -250 53l43 201q34 -22 88.5 -37.5
t98.5 -15.5q84 0 121 18q39 19 66.5 49t39.5 86q-55 -63 -145 -63q-114 0 -187 70t-73 178q0 139 93 230t236 91q74 0 137 -26.5t103 -73.5q82 -94 82 -244q0 -232 -124 -374t-329 -142zM981 762q46 0 75 35.5t29 89.5q0 37 -22.5 61.5t-56.5 24.5q-44 0 -73.5 -36
t-29.5 -87q0 -38 22 -63t56 -25z" />
    <glyph glyph-name="uni300A" unicode="&#x300a;" horiz-adv-x="1298" 
d="M711 1567l209 -164l-580 -817l227 -817l-256 -97l-254 949zM1278 1567l209 -164l-637 -881l219 -753l-256 -97l-246 885z" />
    <glyph glyph-name="uni300B" unicode="&#x300b;" horiz-adv-x="1298" 
d="M276 1470l256 97l246 -885l-710 -1010l-209 164l637 881zM778 1470l256 97l254 -949l-653 -946l-209 164l580 817z" />
    <glyph glyph-name="uni300C" unicode="&#x300c;" horiz-adv-x="796" 
d="M446 623h-262l195 923h606l-49 -225h-340z" />
    <glyph glyph-name="uni300D" unicode="&#x300d;" horiz-adv-x="755" 
d="M389 616h262l-194 -923h-607l50 225h340z" />
    <glyph glyph-name="uni300E" unicode="&#x300e;" horiz-adv-x="1140" 
d="M702 397h-561l244 1149h905l-112 -532h-344zM565 1341l-157 -739h135l129 606h323l29 133h-459z" />
    <glyph glyph-name="uni300F" unicode="&#x300f;" horiz-adv-x="1124" 
d="M481 838h561l-243 -1149h-905l112 532h344zM618 -106l158 739h-135l-129 -606h-324l-28 -133h458z" />
    <glyph glyph-name="uni3010" unicode="&#x3010;" horiz-adv-x="792" 
d="M635 -307h-643l395 1853h641q-245 -224 -383 -447t-192 -476q-55 -244 -11.5 -473.5t193.5 -456.5z" />
    <glyph glyph-name="uni3011" unicode="&#x3011;" horiz-adv-x="792" 
d="M205 1546h643l-395 -1853h-641q245 224 383 447t192 476q55 244 11.5 473.5t-193.5 456.5z" />
    <glyph glyph-name="uni3014" unicode="&#x3014;" horiz-adv-x="718" 
d="M889 1378l-410 -358l-176 -838l250 -362l-221 -148l-309 432l219 1033l479 430z" />
    <glyph glyph-name="uni3015" unicode="&#x3015;" horiz-adv-x="720" 
d="M215 1417l221 148l309 -432l-219 -1033l-479 -430l-168 189l410 358l176 838z" />
    <glyph glyph-name="plus.alt" unicode="&#xe000;" horiz-adv-x="1583" 
d="M971 0h-266v598h-574v246h574v600h266v-600h573v-246h-573v-598z" />
    <glyph glyph-name="minus.alt" unicode="&#xe001;" horiz-adv-x="1720" 
d="M1604 598h-1414v246h1414v-246z" />
    <glyph glyph-name="multiply.alt" unicode="&#xe002;" horiz-adv-x="1812" 
d="M946 537l-559 -570l-182 183l563 571l-553 567l188 189l551 -568l559 568l187 -177l-565 -575l555 -571l-191 -187z" />
    <glyph glyph-name="uniE003" unicode="&#xe003;" horiz-adv-x="1869" 
d="M1896 1319l-1038 -1350l-659 846l209 170l460 -590l828 1086z" />
    <glyph glyph-name="uniE004" unicode="&#xe004;" horiz-adv-x="2019" 
d="M1847 1118h-1585v254h1585v-254zM1847 590h-1585v254h1585v-254zM1847 61h-1585v254h1585v-254z" />
    <glyph glyph-name="uniE005" unicode="&#xe005;" horiz-adv-x="1869" 
d="M1694 0h-1434v1423h1434v-1423zM526 1180v-936h901v936h-901z" />
    <glyph glyph-name="uniE006" unicode="&#xe006;" horiz-adv-x="1869" 
d="M1737 1311l-740 -987l-366 589l203 131l65 -102q17 -26 119 -190l139 190l385 516zM1712 0h-1433v1423h927v-243h-661v-936h901v424h266v-668z" />
    <glyph glyph-name="uniE007" unicode="&#xe007;" horiz-adv-x="1869" 
d="M1694 0h-1434v1423h1434v-1423zM526 1180v-936h901v936h-901zM1147 551h-338v323h338v-323z" />
    <glyph glyph-name="uniE008" unicode="&#xe008;" horiz-adv-x="1654" 
d="M1405 924l-612 -611l-613 611l207 204l66 -71q117 -130 192 -205v924h295v-924l188 201l70 75zM1505 0h-1433v313h1433v-313z" />
    <glyph glyph-name="uniE009" unicode="&#xe009;" horiz-adv-x="1654" 
d="M1417 1085l-612 -610l-612 610l206 205l66 -71q117 -130 192 -205v923h295v-923l189 200l69 76zM1518 0h-1434v313h1434v-313z" />
    <glyph glyph-name="uniF8FF" unicode="&#xf8ff;" horiz-adv-x="1763" 
d="M1286 762q258 -338 258 -694q0 -93 -22 -201l-88 6q-23 30 -82 115q-11 -101 -27 -178l-45 -17q-125 26 -181.5 110t-56.5 242q0 27 5 105q-31 -39 -55 -63t-70 -58q-35 27 -60 75t-36.5 105t-16 103.5t-4.5 91.5q0 157 -23 217q-18 43 -53 74t-106 71q-70 39 -102 81
t-68 122l204 96l-47 72q-50 0 -96 6q-91 12 -151 73t-60 134q0 51 37.5 85t89.5 34q55 0 126.5 -34.5t105.5 -80.5q-15 66 -15 113q0 157 107 157q83 0 117 -33.5t34 -105.5q0 -123 -94 -244l49 -81l105 49q70 -53 132 -138t100.5 -172t59 -143.5t29.5 -93.5z" />
    <glyph glyph-name="G.ss03" horiz-adv-x="1607" 
d="M795 -33q-114 0 -214.5 24t-185 74t-145 122.5t-94 175t-33.5 225.5q0 132 34 259t103.5 239t166 197t231 134t288.5 49q133 0 247.5 -35.5t196 -97t136.5 -141.5t78 -172l-320 -90q-86 266 -352 266q-93 0 -173 -34t-136.5 -92t-97 -133.5t-60 -158.5t-19.5 -168
q0 -191 100 -287t261 -96q135 0 234.5 67.5t132.5 184.5h-429l54 258h751q-4 -166 -57.5 -307.5t-149.5 -244t-237 -160.5t-311 -58z" />
    <glyph glyph-name="Gbreve.ss03" horiz-adv-x="1607" 
d="M1040 1538q-173 0 -264.5 86t-77.5 209h215q-7 -47 30.5 -84t111.5 -37q139 0 186 121h225q-88 -295 -426 -295zM795 -33q-114 0 -214.5 24t-185 74t-145 122.5t-94 175t-33.5 225.5q0 132 34 259t103.5 239t166 197t231 134t288.5 49q133 0 247.5 -35.5t196 -97
t136.5 -141.5t78 -172l-320 -90q-86 266 -352 266q-93 0 -173 -34t-136.5 -92t-97 -133.5t-60 -158.5t-19.5 -168q0 -191 100 -287t261 -96q135 0 234.5 67.5t132.5 184.5h-429l54 258h751q-4 -166 -57.5 -307.5t-149.5 -244t-237 -160.5t-311 -58z" />
    <glyph glyph-name="Gcircumflex.ss03" horiz-adv-x="1607" 
d="M856 1569h-283l310 264h383l184 -264h-262l-129 145zM795 -33q-114 0 -214.5 24t-185 74t-145 122.5t-94 175t-33.5 225.5q0 132 34 259t103.5 239t166 197t231 134t288.5 49q133 0 247.5 -35.5t196 -97t136.5 -141.5t78 -172l-320 -90q-86 266 -352 266q-93 0 -173 -34
t-136.5 -92t-97 -133.5t-60 -158.5t-19.5 -168q0 -191 100 -287t261 -96q135 0 234.5 67.5t132.5 184.5h-429l54 258h751q-4 -166 -57.5 -307.5t-149.5 -244t-237 -160.5t-311 -58z" />
    <glyph glyph-name="uni0122.ss03" horiz-adv-x="1607" 
d="M795 -33q-114 0 -214.5 24t-185 74t-145 122.5t-94 175t-33.5 225.5q0 132 34 259t103.5 239t166 197t231 134t288.5 49q133 0 247.5 -35.5t196 -97t136.5 -141.5t78 -172l-320 -90q-86 266 -352 266q-93 0 -173 -34t-136.5 -92t-97 -133.5t-60 -158.5t-19.5 -168
q0 -191 100 -287t261 -96q135 0 234.5 67.5t132.5 184.5h-429l54 258h751q-4 -166 -57.5 -307.5t-149.5 -244t-237 -160.5t-311 -58zM582 -686h-144l242 287h-156l62 274h288l-65 -291z" />
    <glyph glyph-name="Gdotaccent.ss03" horiz-adv-x="1607" 
d="M1178 1569h-308l60 274h305zM795 -33q-114 0 -214.5 24t-185 74t-145 122.5t-94 175t-33.5 225.5q0 132 34 259t103.5 239t166 197t231 134t288.5 49q133 0 247.5 -35.5t196 -97t136.5 -141.5t78 -172l-320 -90q-86 266 -352 266q-93 0 -173 -34t-136.5 -92t-97 -133.5
t-60 -158.5t-19.5 -168q0 -191 100 -287t261 -96q135 0 234.5 67.5t132.5 184.5h-429l54 258h751q-4 -166 -57.5 -307.5t-149.5 -244t-237 -160.5t-311 -58z" />
    <glyph glyph-name="a.ss01" horiz-adv-x="1275" 
d="M449 -33q-171 0 -273 125t-102 324q0 144 42 266t112.5 203t163.5 126.5t196 45.5q240 0 332 -207l36 174h289l-219 -1024h-276q10 59 24 127q-54 -67 -138.5 -113.5t-186.5 -46.5zM580 199q82 0 148 59t99 146t33 178q0 245 -211 245q-82 0 -147.5 -60.5t-98 -148.5
t-32.5 -180q0 -239 209 -239z" />
    <glyph glyph-name="aacute.ss01" horiz-adv-x="1275" 
d="M864 1159h-207l172 316h314zM449 -33q-171 0 -273 125t-102 324q0 144 42 266t112.5 203t163.5 126.5t196 45.5q240 0 332 -207l36 174h289l-219 -1024h-276q10 59 24 127q-54 -67 -138.5 -113.5t-186.5 -46.5zM580 199q82 0 148 59t99 146t33 178q0 245 -211 245
q-82 0 -147.5 -60.5t-98 -148.5t-32.5 -180q0 -239 209 -239z" />
    <glyph glyph-name="abreve.ss01" horiz-adv-x="1275" 
d="M780 1128q-158 0 -241 86t-70 209h195q-5 -47 28.5 -83.5t100.5 -36.5q71 0 112 35.5t58 84.5h204q-83 -295 -387 -295zM449 -33q-171 0 -273 125t-102 324q0 144 42 266t112.5 203t163.5 126.5t196 45.5q240 0 332 -207l36 174h289l-219 -1024h-276q10 59 24 127
q-54 -67 -138.5 -113.5t-186.5 -46.5zM580 199q82 0 148 59t99 146t33 178q0 245 -211 245q-82 0 -147.5 -60.5t-98 -148.5t-32.5 -180q0 -239 209 -239z" />
    <glyph glyph-name="acircumflex.ss01" horiz-adv-x="1275" 
d="M604 1159h-258l283 264h348l166 -264h-238l-117 146zM449 -33q-171 0 -273 125t-102 324q0 144 42 266t112.5 203t163.5 126.5t196 45.5q240 0 332 -207l36 174h289l-219 -1024h-276q10 59 24 127q-54 -67 -138.5 -113.5t-186.5 -46.5zM580 199q82 0 148 59t99 146
t33 178q0 245 -211 245q-82 0 -147.5 -60.5t-98 -148.5t-32.5 -180q0 -239 209 -239z" />
    <glyph glyph-name="adieresis.ss01" horiz-adv-x="1275" 
d="M670 1178h-271l54 245h270zM1120 1178h-270l53 245h271zM449 -33q-171 0 -273 125t-102 324q0 144 42 266t112.5 203t163.5 126.5t196 45.5q240 0 332 -207l36 174h289l-219 -1024h-276q10 59 24 127q-54 -67 -138.5 -113.5t-186.5 -46.5zM580 199q82 0 148 59t99 146
t33 178q0 245 -211 245q-82 0 -147.5 -60.5t-98 -148.5t-32.5 -180q0 -239 209 -239z" />
    <glyph glyph-name="uni0227.ss01" horiz-adv-x="1275" 
d="M909 1159h-307l60 275h305zM449 -33q-171 0 -273 125t-102 324q0 144 42 266t112.5 203t163.5 126.5t196 45.5q240 0 332 -207l36 174h289l-219 -1024h-276q10 59 24 127q-54 -67 -138.5 -113.5t-186.5 -46.5zM580 199q82 0 148 59t99 146t33 178q0 245 -211 245
q-82 0 -147.5 -60.5t-98 -148.5t-32.5 -180q0 -239 209 -239z" />
    <glyph glyph-name="agrave.ss01" horiz-adv-x="1275" 
d="M848 1159h-174l-174 316h315zM449 -33q-171 0 -273 125t-102 324q0 144 42 266t112.5 203t163.5 126.5t196 45.5q240 0 332 -207l36 174h289l-219 -1024h-276q10 59 24 127q-54 -67 -138.5 -113.5t-186.5 -46.5zM580 199q82 0 148 59t99 146t33 178q0 245 -211 245
q-82 0 -147.5 -60.5t-98 -148.5t-32.5 -180q0 -239 209 -239z" />
    <glyph glyph-name="amacron.ss01" horiz-adv-x="1275" 
d="M1085 1186h-641l43 196h639zM449 -33q-171 0 -273 125t-102 324q0 144 42 266t112.5 203t163.5 126.5t196 45.5q240 0 332 -207l36 174h289l-219 -1024h-276q10 59 24 127q-54 -67 -138.5 -113.5t-186.5 -46.5zM580 199q82 0 148 59t99 146t33 178q0 245 -211 245
q-82 0 -147.5 -60.5t-98 -148.5t-32.5 -180q0 -239 209 -239z" />
    <glyph glyph-name="aogonek.ss01" horiz-adv-x="1275" 
d="M956 1024h289l-219 -1024h-2q-137 -28 -200.5 -76t-63.5 -92q0 -28 18.5 -43.5t67.5 -15.5q51 0 139 20l-45 -203q-87 -20 -174 -20q-106 0 -163.5 48.5t-57.5 125.5q0 80 55.5 146.5t159.5 109.5h-10q10 59 24 127q-54 -67 -138.5 -113.5t-186.5 -46.5q-171 0 -273 125
t-102 324q0 144 42 266t112.5 203t163.5 126.5t196 45.5q240 0 332 -207zM580 199q82 0 148 59t99 146t33 178q0 245 -211 245q-82 0 -147.5 -60.5t-98 -148.5t-32.5 -180q0 -239 209 -239z" />
    <glyph glyph-name="aring.ss01" horiz-adv-x="1275" 
d="M772 1128q-101 0 -172.5 61.5t-71.5 170.5q0 111 78 187.5t199 76.5q101 0 171.5 -64t70.5 -174q0 -111 -76.5 -184.5t-198.5 -73.5zM782 1276q44 0 73.5 31t29.5 82q0 37 -27 62.5t-63 25.5q-44 0 -75.5 -31.5t-31.5 -79.5q0 -40 27.5 -65t66.5 -25zM449 -33
q-171 0 -273 125t-102 324q0 144 42 266t112.5 203t163.5 126.5t196 45.5q240 0 332 -207l36 174h289l-219 -1024h-276q10 59 24 127q-54 -67 -138.5 -113.5t-186.5 -46.5zM580 199q82 0 148 59t99 146t33 178q0 245 -211 245q-82 0 -147.5 -60.5t-98 -148.5t-32.5 -180
q0 -239 209 -239z" />
    <glyph glyph-name="atilde.ss01" horiz-adv-x="1275" 
d="M932 1141q-93 0 -178 53l-49 27q-3 2 -16.5 9.5t-19 10.5t-16.5 7.5t-20.5 6.5t-18.5 2q-76 0 -98 -98h-209q13 134 92.5 209.5t200.5 75.5q89 0 182 -55l45 -25q6 -3 18.5 -10.5t19 -10.5t16.5 -7.5t19.5 -6.5t19.5 -2q35 0 60.5 25t37.5 71h209q-19 -148 -99.5 -215
t-195.5 -67zM449 -33q-171 0 -273 125t-102 324q0 144 42 266t112.5 203t163.5 126.5t196 45.5q240 0 332 -207l36 174h289l-219 -1024h-276q10 59 24 127q-54 -67 -138.5 -113.5t-186.5 -46.5zM580 199q82 0 148 59t99 146t33 178q0 245 -211 245q-82 0 -147.5 -60.5
t-98 -148.5t-32.5 -180q0 -239 209 -239z" />
    <glyph glyph-name="g.ss02" horiz-adv-x="1294" 
d="M979 1024h283l-191 -895q-66 -315 -201 -439t-417 -124q-134 0 -233.5 26t-159 73t-89.5 107.5t-34 135.5l286 57q24 -192 238 -192q254 0 305 258q10 57 20 92q-121 -109 -299 -109q-183 0 -298 119t-115 305q0 119 39.5 230.5t108.5 198t171 138.5t219 52
q124 0 211.5 -52t126.5 -118zM594 229q91 0 159 55.5t100 139.5t32 182q0 111 -55 171.5t-150 60.5q-73 0 -130.5 -32t-91.5 -86.5t-51.5 -122t-17.5 -142.5q0 -116 55 -171t150 -55z" />
    <glyph glyph-name="gbreve.ss02" horiz-adv-x="1294" 
d="M776 1128q-158 0 -241 86t-70 209h194q-5 -47 28.5 -83.5t100.5 -36.5q71 0 112 35.5t58 84.5h205q-83 -295 -387 -295zM979 1024h283l-191 -895q-66 -315 -201 -439t-417 -124q-134 0 -233.5 26t-159 73t-89.5 107.5t-34 135.5l286 57q24 -192 238 -192q254 0 305 258
q10 57 20 92q-121 -109 -299 -109q-183 0 -298 119t-115 305q0 119 39.5 230.5t108.5 198t171 138.5t219 52q124 0 211.5 -52t126.5 -118zM594 229q91 0 159 55.5t100 139.5t32 182q0 111 -55 171.5t-150 60.5q-73 0 -130.5 -32t-91.5 -86.5t-51.5 -122t-17.5 -142.5
q0 -116 55 -171t150 -55z" />
    <glyph glyph-name="gcircumflex.ss02" horiz-adv-x="1294" 
d="M901 1159l-117 146l-184 -146h-258l283 264h348l166 -264h-238zM979 1024h283l-191 -895q-66 -315 -201 -439t-417 -124q-134 0 -233.5 26t-159 73t-89.5 107.5t-34 135.5l286 57q24 -192 238 -192q254 0 305 258q10 57 20 92q-121 -109 -299 -109q-183 0 -298 119
t-115 305q0 119 39.5 230.5t108.5 198t171 138.5t219 52q124 0 211.5 -52t126.5 -118zM594 229q91 0 159 55.5t100 139.5t32 182q0 111 -55 171.5t-150 60.5q-73 0 -130.5 -32t-91.5 -86.5t-51.5 -122t-17.5 -142.5q0 -116 55 -171t150 -55z" />
    <glyph glyph-name="uni0123.ss02" horiz-adv-x="1294" 
d="M803 1434h155l-61 -275h-289l66 291l227 270h143zM979 1024h283l-191 -895q-66 -315 -201 -439t-417 -124q-134 0 -233.5 26t-159 73t-89.5 107.5t-34 135.5l286 57q24 -192 238 -192q254 0 305 258q10 57 20 92q-121 -109 -299 -109q-183 0 -298 119t-115 305
q0 119 39.5 230.5t108.5 198t171 138.5t219 52q124 0 211.5 -52t126.5 -118zM594 229q91 0 159 55.5t100 139.5t32 182q0 111 -55 171.5t-150 60.5q-73 0 -130.5 -32t-91.5 -86.5t-51.5 -122t-17.5 -142.5q0 -116 55 -171t150 -55z" />
    <glyph glyph-name="gdotaccent.ss02" horiz-adv-x="1294" 
d="M657 1434h306l-58 -275h-307zM979 1024h283l-191 -895q-66 -315 -201 -439t-417 -124q-134 0 -233.5 26t-159 73t-89.5 107.5t-34 135.5l286 57q24 -192 238 -192q254 0 305 258q10 57 20 92q-121 -109 -299 -109q-183 0 -298 119t-115 305q0 119 39.5 230.5t108.5 198
t171 138.5t219 52q124 0 211.5 -52t126.5 -118zM594 229q91 0 159 55.5t100 139.5t32 182q0 111 -55 171.5t-150 60.5q-73 0 -130.5 -32t-91.5 -86.5t-51.5 -122t-17.5 -142.5q0 -116 55 -171t150 -55z" />
    <glyph glyph-name="i.loclTRK" horiz-adv-x="571" 
d="M573 1163h-307l60 275h305zM322 0h-289l219 1024h287z" />
    <glyph glyph-name="zero.osf" horiz-adv-x="1357" 
d="M645 -33q-157 0 -283.5 58t-201.5 169.5t-76 258.5q0 114 42.5 221t119.5 192.5t197.5 137t265.5 51.5q116 0 218 -35t178.5 -99t120.5 -159.5t44 -210.5q1 -89 -23 -172.5t-75.5 -158.5t-124 -131t-176.5 -89t-226 -33zM649 195q65 0 119 21t91 56.5t62.5 81.5t37.5 96
t12 101q0 139 -72.5 208.5t-191.5 69.5q-94 0 -169 -54t-114 -137.5t-39 -176.5q1 -134 73 -200t191 -66z" />
    <glyph glyph-name="one.osf" horiz-adv-x="890" 
d="M627 0h-283l102 479l39 183q-43 -54 -79 -89.5t-88 -71t-118.5 -53t-148.5 -16.5l68 301q148 11 272.5 83.5t206.5 207.5h246z" />
    <glyph glyph-name="two.osf" horiz-adv-x="1118" 
d="M907 0h-907l61 279q98 34 161.5 57t144 55t131 57t104.5 57.5t83.5 62.5t49 66t19.5 73q0 59 -39 89.5t-99 30.5q-48 0 -84 -18.5t-57 -50t-32 -59t-17 -58.5l-287 57q9 68 45 131t95.5 114t149 81.5t194.5 30.5q198 0 313 -85t117 -225q0 -191 -172 -313
q-154 -110 -469 -205h223h321z" />
    <glyph glyph-name="three.osf" horiz-adv-x="1204" 
d="M469 -432q-156 0 -273 49t-183 152.5t-58 248.5l291 31q-9 -115 49 -181.5t172 -66.5q107 0 176.5 65t69.5 165q0 73 -53 119.5t-150 46.5h-123l51 245h140q100 0 173.5 58t73.5 157q0 74 -51 122t-133 48q-96 0 -161.5 -63.5t-84.5 -179.5l-276 65q17 83 57 154.5
t104.5 129t160 91t212.5 33.5q204 0 328.5 -101.5t126.5 -263.5q0 -149 -96 -253t-246 -134q105 -25 175.5 -103t70.5 -198q0 -193 -147 -314.5t-396 -121.5z" />
    <glyph glyph-name="four.osf" horiz-adv-x="1327" 
d="M870 -399h-272l84 399h-735l49 219l760 805h418l-168 -797h213l-50 -227h-213zM332 227h276h123l51 242l68 313z" />
    <glyph glyph-name="five.osf" horiz-adv-x="1196" 
d="M461 -432q-219 0 -358.5 109t-149.5 290l276 80q5 -99 63.5 -170.5t160.5 -71.5q127 0 200.5 80.5t73.5 196.5q0 100 -61 157.5t-150 57.5q-122 0 -215 -107l-276 60l276 774h868l-53 -244h-645l-84 -231q-36 -100 -49 -137q122 106 285 106q176 0 292 -112t117 -289
q0 -247 -161 -398t-410 -151z" />
    <glyph glyph-name="six.osf" horiz-adv-x="1277" 
d="M631 -33q-246 0 -377 149t-131 402q0 151 29 288.5t91.5 258.5t153.5 209t222.5 139t289.5 51q217 0 371 -53l-57 -252q-66 28 -155.5 44t-160.5 16q-203 0 -333 -123.5t-154 -321.5q46 64 130 110t193 46q208 0 332.5 -119.5t124.5 -296.5q0 -245 -161 -396t-408 -151z
M637 199q122 0 197 82.5t75 199.5q0 102 -67.5 166t-159.5 64q-127 0 -201.5 -84.5t-74.5 -206.5q0 -97 66 -159t165 -62z" />
    <glyph glyph-name="seven.osf" horiz-adv-x="1093" 
d="M348 -399h-287q22 178 73 332t121.5 273t169.5 226t203.5 188t237.5 162h-383h-391l49 242h1020l-65 -309q-299 -186 -504.5 -489.5t-243.5 -624.5z" />
    <glyph glyph-name="eight.osf" horiz-adv-x="1257" 
d="M580 -33q-239 0 -372.5 106.5t-135.5 274.5q0 145 97 257.5t249 144.5q-35 17 -65.5 39.5t-60 55.5t-47 79.5t-18.5 99.5q0 188 151 315t382 127q210 0 340.5 -102.5t130.5 -280.5q1 -140 -83.5 -238t-203.5 -128q85 -41 141 -121.5t56 -185.5q1 -91 -36.5 -171
t-107 -140.5t-177.5 -96t-240 -35.5zM709 817q114 0 185 67.5t71 164.5q0 89 -59 139.5t-156 50.5q-112 0 -184 -68t-72 -163q1 -89 60.5 -140t154.5 -51zM588 201q119 0 190.5 68.5t71.5 164.5q0 90 -60 141.5t-163 51.5q-116 0 -190.5 -70t-74.5 -166q1 -89 62 -139.5
t164 -50.5z" />
    <glyph glyph-name="nine.osf" horiz-adv-x="1290" 
d="M389 -432q-240 0 -373 49l58 260q141 -63 297 -63q206 0 346 122.5t164 313.5q-52 -70 -144 -114t-205 -44q-194 0 -313 119t-119 295q0 162 75 289t198 193.5t270 66.5q246 0 388.5 -159.5t142.5 -414.5q0 -151 -29 -285.5t-91.5 -250t-153.5 -199t-221.5 -131
t-289.5 -47.5zM614 311q126 0 202.5 85.5t76.5 207.5q0 97 -66 159t-165 62q-122 0 -198.5 -84.5t-76.5 -201.5q0 -102 67 -165t160 -63z" />
    <glyph glyph-name="zero.tf" 
d="M629 -33q-260 0 -407.5 157t-147.5 451q0 161 47 319.5t129 286t206.5 206.5t268.5 79q259 0 408 -160t149 -454q0 -129 -28.5 -257t-85.5 -240.5t-134.5 -199.5t-182.5 -137.5t-222 -50.5zM618 225q85 0 155.5 62t112.5 158t64.5 201t22.5 202q0 183 -62.5 271.5
t-175.5 88.5q-68 0 -127 -42t-99.5 -108.5t-69.5 -150t-42.5 -166.5t-13.5 -157q0 -183 62 -271t173 -88z" />
    <glyph glyph-name="one.tf" 
d="M1075 1434l-248 -1174h303l-55 -260h-1036l55 260h449l139 664q8 41 31 137q-31 -38 -57 -66t-67.5 -61.5t-84 -55t-101 -36.5t-122.5 -15l65 312q148 12 272 85.5t207 209.5h250z" />
    <glyph glyph-name="two.tf" 
d="M1047 0h-1037l68 315q366 180 502 261q252 151 328 287q40 71 40 147q0 94 -55.5 146t-147.5 52q-111 0 -176 -85t-80 -212l-299 72q12 74 39 141.5t75 130.5t111.5 109t154 74t196.5 28q235 0 368.5 -121t133.5 -305q0 -301 -361 -532q-164 -101 -491 -250h370h316z" />
    <glyph glyph-name="three.tf" 
d="M584 -33q-236 0 -376 115.5t-147 349.5l297 33q2 -117 60.5 -180.5t169.5 -63.5q107 0 176.5 62.5t69.5 162.5q0 66 -51 111t-138 45h-145l53 244h129q105 0 174.5 57.5t69.5 153.5q0 70 -48 112.5t-124 42.5q-89 0 -150.5 -56.5t-79.5 -162.5l-291 70q17 83 58 154
t106 127.5t162 89t217 32.5q201 0 327 -97t126 -253q0 -149 -101 -259.5t-249 -137.5q105 -16 181.5 -97.5t76.5 -195.5q0 -200 -156.5 -329.5t-396.5 -129.5z" />
    <glyph glyph-name="four.tf" 
d="M877 0h-259l72 342h-663l53 256l694 836h408l-178 -848h194l-51 -244h-197zM637 586h106l37 180l90 422l-491 -602h258z" />
    <glyph glyph-name="five.tf" 
d="M573 -33q-222 0 -356 107.5t-149 287.5l288 68q7 -92 60.5 -150.5t156.5 -58.5q126 0 198.5 81t72.5 192q0 96 -59 150t-148 54q-126 0 -217 -108l-268 59l288 785h854l-55 -258h-637l-82 -220q-32 -86 -51 -143q55 44 114.5 69t145.5 25q189 0 304.5 -113t115.5 -298
q0 -156 -76.5 -277.5t-207 -186.5t-292.5 -65z" />
    <glyph glyph-name="six.tf" 
d="M651 -33q-170 0 -294 77t-186 209.5t-62 303.5q0 269 98 475.5t278 320t416 113.5q238 0 385 -75l-59 -273q-55 30 -142 53t-182 23q-181 0 -312 -111t-165 -317q46 74 141 127t207 53q199 0 316.5 -122t117.5 -302q0 -167 -75.5 -295t-201.5 -194t-280 -66zM631 221
q117 0 191.5 84.5t74.5 198.5q0 98 -63 157.5t-152 59.5q-121 0 -193.5 -84t-72.5 -203q0 -93 61 -153t154 -60z" />
    <glyph glyph-name="seven.tf" 
d="M541 0h-314q14 170 73.5 332.5t142 288t188.5 237t206 187.5t201 131h-368h-402l56 258h1019l-69 -328q-203 -112 -360.5 -291t-250 -386.5t-122.5 -428.5z" />
    <glyph glyph-name="eight.tf" 
d="M586 -33q-244 0 -381 105.5t-137 273.5q0 145 101.5 264t252.5 148q-193 94 -193 282q0 179 152.5 302.5t384.5 123.5q212 0 348.5 -101.5t136.5 -272.5q0 -140 -89 -241t-214 -134q95 -40 153 -118t58 -183q0 -91 -39 -171.5t-110 -142.5t-181 -98.5t-243 -36.5z
M723 825q110 0 176 66.5t66 155.5q0 81 -59 127.5t-148 46.5q-106 0 -174 -62t-68 -153q0 -88 59 -134.5t148 -46.5zM596 217q115 0 185.5 65t70.5 160q0 89 -61.5 141t-159.5 52q-115 0 -185.5 -68t-70.5 -164q0 -88 61.5 -137t159.5 -49z" />
    <glyph glyph-name="nine.tf" 
d="M463 -33q-240 0 -400 76l62 279q54 -29 137 -52.5t164 -23.5q136 0 240 49q214 102 256 385q-45 -73 -138 -124.5t-206 -51.5q-187 0 -304.5 119t-117.5 297q0 164 74 289.5t197.5 191t274.5 65.5q127 0 231.5 -43.5t174.5 -122.5q133 -153 133 -426q0 -202 -55.5 -370.5
t-156.5 -287t-246 -184t-320 -65.5zM678 733q116 0 186 81t70 196q0 87 -58.5 144.5t-146.5 57.5q-113 0 -183.5 -81.5t-70.5 -190.5q0 -94 59 -150.5t144 -56.5z" />
    <glyph glyph-name="zero.subs" horiz-adv-x="884" 
d="M346 -240q-157 0 -244.5 94t-87.5 261q-1 135 50 251.5t140.5 185.5t194.5 69q155 0 244.5 -95.5t89.5 -261.5q0 -210 -112.5 -357t-274.5 -147zM342 -51q62 0 110 95t48 218q0 170 -97 170q-60 0 -108 -97.5t-47 -215.5q0 -170 94 -170z" />
    <glyph glyph-name="one.subs" horiz-adv-x="630" 
d="M338 -221h-219l76 348l45 211q-92 -131 -236 -115l47 219q177 3 266 160h195z" />
    <glyph glyph-name="two.subs" horiz-adv-x="827" 
d="M573 -221h-626l45 209h1l1 1h1l1 1h1l1 1h1l2 1q242 119 322 173q132 94 136 181q0 41 -21.5 63.5t-56.5 22.5q-87 0 -111 -143l-227 28q19 139 111 221.5t239 82.5q137 0 221 -70t84 -180q0 -91 -51 -162.5t-160 -140.5q-93 -60 -206 -101h254h79z" />
    <glyph glyph-name="three.subs" horiz-adv-x="796" 
d="M293 -240q-153 0 -239 74.5t-89 204.5l232 27q0 -119 98 -119q44 0 72 24t28 64q0 31 -23.5 50t-56.5 19h-53l39 181h41q50 0 79.5 22.5t29.5 63.5q0 28 -19.5 45.5t-50.5 17.5q-39 0 -64.5 -29.5t-33.5 -78.5l-224 34q25 122 111 191.5t223 69.5q123 0 202 -60t79 -155
q0 -74 -45.5 -133t-141.5 -87q136 -49 136 -172q0 -113 -93 -183.5t-237 -70.5z" />
    <glyph glyph-name="four.subs" horiz-adv-x="866" 
d="M518 -221h-211l39 184h-385l43 193l414 446h274l-94 -459h115l-39 -180h-117zM319 143h66l27 117l24 113l-215 -230h98z" />
    <glyph glyph-name="five.subs" horiz-adv-x="786" 
d="M285 -240q-138 0 -224 69.5t-94 186.5l219 43q3 -51 29.5 -81.5t69.5 -30.5q49 0 80.5 34.5t31.5 88.5q0 40 -23 63t-61 23q-56 0 -98 -64l-199 45l170 465h527l-41 -188h-348l-17 -43l-35 -99q45 45 127 45q102 0 165 -67.5t63 -177.5q0 -136 -96 -224t-246 -88z" />
    <glyph glyph-name="six.subs" horiz-adv-x="851" 
d="M340 -240q-148 0 -237 93.5t-89 250.5q0 231 127 374t334 143q131 0 242 -54l-43 -202q-100 59 -219 59q-66 0 -117.5 -36.5t-67.5 -108.5q56 59 148 59q114 0 185 -70.5t71 -181.5q0 -143 -94 -234.5t-240 -91.5zM330 -53q47 0 78.5 37.5t31.5 91.5q0 40 -23.5 66
t-60.5 26q-49 0 -79.5 -36t-30.5 -95q0 -40 23.5 -65t60.5 -25z" />
    <glyph glyph-name="seven.subs" horiz-adv-x="747" 
d="M258 -221h-233q8 189 123.5 368t300.5 267h-150h-256l41 188h616l-45 -215q-160 -83 -267.5 -247.5t-129.5 -360.5z" />
    <glyph glyph-name="eight.subs" horiz-adv-x="827" 
d="M295 -240q-141 0 -227 61.5t-86 164.5q0 88 62.5 147t150.5 80q-125 53 -125 160q0 103 94.5 175.5t230.5 72.5q129 0 210 -62t81 -158q0 -74 -48.5 -132t-137.5 -79q67 -27 102 -74.5t35 -101.5q0 -114 -96 -184t-246 -70zM369 274q41 0 68.5 27t27.5 68
q0 32 -20.5 50.5t-57.5 18.5q-43 0 -70.5 -26t-27.5 -66q0 -72 80 -72zM299 -55q48 0 77.5 27t29.5 71q0 37 -24 57.5t-65 20.5q-46 0 -75 -28.5t-29 -72.5q0 -35 22.5 -55t63.5 -20z" />
    <glyph glyph-name="nine.subs" horiz-adv-x="843" 
d="M242 -240q-133 0 -250 54l43 200q34 -22 88 -37.5t98 -15.5q82 0 121 19t67 49t40 86q-56 -64 -146 -64q-114 0 -187 70t-73 178q0 139 93.5 230.5t236.5 91.5q73 0 136 -27t103 -74q82 -94 82 -244q0 -232 -123.5 -374t-328.5 -142zM358 223q46 0 75.5 35.5t29.5 89.5
q0 37 -23 61.5t-57 24.5q-44 0 -73 -35.5t-29 -87.5q0 -38 21.5 -63t55.5 -25z" />
    <glyph glyph-name="zero.dnom" horiz-adv-x="874" 
d="M393 -18q-157 0 -244.5 93.5t-87.5 260.5q-1 135 50 251.5t140.5 185.5t194.5 69q155 0 244.5 -95.5t89.5 -261.5q0 -210 -112.5 -356.5t-274.5 -146.5zM389 170q62 0 110 95t48 218q0 170 -96 170q-60 0 -108.5 -97.5t-47.5 -215.5q0 -170 94 -170z" />
    <glyph glyph-name="one.dnom" horiz-adv-x="626" 
d="M385 0h-219l76 348l45 211q-92 -131 -236 -115l47 220q178 3 267 159h194z" />
    <glyph glyph-name="two.dnom" horiz-adv-x="817" 
d="M621 0h-627l45 209h1l1 1h1l1 1h1l1 1h1l2 1q242 119 322 173q132 94 136 181q0 41 -21.5 63.5t-56.5 22.5q-87 0 -111 -143l-227 29q19 139 111 221t239 82q137 0 221 -70t84 -180q0 -92 -50.5 -163t-159.5 -140q-91 -59 -207 -101h254h80z" />
    <glyph glyph-name="three.dnom" horiz-adv-x="796" 
d="M340 -18q-153 0 -239 74t-89 204l232 27q0 -119 98 -119q44 0 72 24t28 64q0 31 -23.5 50.5t-56.5 19.5h-53l39 180h41q50 0 79.5 22.5t29.5 63.5q0 28 -19.5 45.5t-50.5 17.5q-39 0 -64.5 -29.5t-33.5 -78.5l-224 35q25 122 111 191t223 69q123 0 202 -60t79 -155
q0 -74 -45 -132.5t-141 -86.5q135 -48 135 -172q0 -113 -93 -183.5t-237 -70.5z" />
    <glyph glyph-name="four.dnom" horiz-adv-x="860" 
d="M565 0h-211l39 184h-385l43 193l414 446h274l-94 -458h115l-39 -181h-117zM367 365h65l27 116l24 113l-215 -229h99z" />
    <glyph glyph-name="five.dnom" horiz-adv-x="786" 
d="M330 -18q-138 0 -224 69.5t-94 186.5l219 43q3 -51 30 -82t69 -31q49 0 80.5 34.5t31.5 88.5q0 40 -23 63t-61 23q-56 0 -98 -64l-199 45l170 465h527l-41 -188h-348l-17 -43l-35 -98q45 45 127 45q101 0 164.5 -68t63.5 -178q0 -135 -96 -223t-246 -88z" />
    <glyph glyph-name="six.dnom" horiz-adv-x="843" 
d="M385 -18q-148 0 -237 93.5t-89 250.5q0 231 127 373.5t334 142.5q131 0 242 -54l-43 -202q-100 59 -219 59q-66 0 -117.5 -36.5t-67.5 -108.5q56 59 148 59q114 0 185 -70.5t71 -181.5q0 -142 -94 -233.5t-240 -91.5zM375 168q47 0 78.5 37.5t31.5 91.5q0 40 -23.5 66
t-60.5 26q-49 0 -79.5 -36t-30.5 -95q0 -40 23.5 -65t60.5 -25z" />
    <glyph glyph-name="seven.dnom" horiz-adv-x="747" 
d="M305 0h-233q8 189 123.5 368t300.5 267h-150h-256l41 188h617l-46 -215q-160 -83 -267.5 -247.5t-129.5 -360.5z" />
    <glyph glyph-name="eight.dnom" horiz-adv-x="827" 
d="M342 -18q-141 0 -227 61.5t-86 163.5q0 88 62.5 147t150.5 80q-125 53 -125 160q0 103 94.5 175.5t230.5 72.5q130 0 210.5 -61.5t80.5 -157.5q0 -74 -48.5 -132t-137.5 -79q67 -27 102 -74.5t35 -101.5q0 -114 -96 -184t-246 -70zM416 496q41 0 68.5 26.5t27.5 67.5
q0 32 -20.5 50.5t-57.5 18.5q-43 0 -70.5 -26t-27.5 -66q0 -71 80 -71zM346 166q48 0 77.5 27t29.5 71q0 37 -23.5 57.5t-64.5 20.5q-46 0 -75.5 -28t-29.5 -72q0 -36 22.5 -56t63.5 -20z" />
    <glyph glyph-name="nine.dnom" horiz-adv-x="843" 
d="M289 -18q-135 0 -250 53l43 201q34 -22 88 -38t98 -16q82 0 121 19t67 49t40 86q-56 -64 -146 -64q-114 0 -187 70t-73 178q0 139 93.5 230.5t236.5 91.5q73 0 136 -27t103 -74q82 -94 82 -243q0 -232 -123.5 -374t-328.5 -142zM406 444q46 0 75 35.5t29 89.5
q0 37 -23 61.5t-57 24.5q-44 0 -73 -35.5t-29 -87.5q0 -38 22 -63t56 -25z" />
    <glyph glyph-name="zero.numr" horiz-adv-x="884" 
d="M522 592q-157 0 -244.5 93.5t-87.5 260.5q-1 135 50 251.5t140.5 185.5t194.5 69q155 0 244.5 -95t89.5 -261q0 -210 -112.5 -357t-274.5 -147zM518 780q62 0 110 95.5t48 218.5q0 170 -96 170q-60 0 -108.5 -98t-47.5 -216q0 -170 94 -170z" />
    <glyph glyph-name="one.numr" horiz-adv-x="626" 
d="M516 610h-219l76 348l45 211q-91 -130 -236 -114l47 219q178 3 267 160h194z" />
    <glyph glyph-name="two.numr" horiz-adv-x="827" 
d="M750 610h-627l45 209q55 27 81 39.5t73 36.5t69.5 36.5t59.5 34t55 35t43.5 33t37.5 35t25 34.5t18 37.5t5 37.5q0 41 -21.5 63.5t-56.5 22.5q-86 0 -111 -144l-227 29q19 139 111 221t239 82q137 0 221 -70t84 -180q0 -92 -50.5 -163t-159.5 -140q-88 -57 -207 -100h254
h80z" />
    <glyph glyph-name="three.numr" horiz-adv-x="815" 
d="M469 592q-153 0 -239 74t-89 204l232 27q0 -119 98 -119q44 0 72 24t28 64q0 31 -23 50.5t-56 19.5h-54l39 180h41q50 0 79.5 22.5t29.5 63.5q0 28 -19.5 46t-50.5 18q-39 0 -64.5 -30t-33.5 -79l-223 35q25 122 110.5 191t222.5 69q123 0 202 -60t79 -155
q0 -74 -45 -132.5t-141 -86.5q135 -48 135 -172q0 -113 -93 -183.5t-237 -70.5z" />
    <glyph glyph-name="four.numr" horiz-adv-x="866" 
d="M694 610h-211l39 185h-385l43 192l414 447h274l-94 -459h115l-39 -180h-117zM496 975h65l27 117l24 112l-215 -229h99z" />
    <glyph glyph-name="five.numr" horiz-adv-x="806" 
d="M459 592q-138 0 -224 69.5t-94 186.5l219 43q3 -51 30 -82t69 -31q49 0 80.5 34.5t31.5 88.5q0 40 -23 63t-61 23q-30 0 -52.5 -14t-45.5 -49l-199 45l170 465h527l-41 -189h-348l-17 -43l-35 -98q45 45 127 45q101 0 164.5 -68t63.5 -178q0 -135 -96 -223t-246 -88z" />
    <glyph glyph-name="six.numr" horiz-adv-x="851" 
d="M516 592q-148 0 -237 93.5t-89 250.5q0 231 127 373.5t334 142.5q133 0 242 -53l-43 -203q-100 59 -219 59q-66 0 -117.5 -36.5t-67.5 -108.5q56 59 148 59q114 0 185 -70t71 -181q0 -143 -94 -234.5t-240 -91.5zM506 778q47 0 78.5 37.5t31.5 91.5q0 40 -23.5 66
t-60.5 26q-49 0 -79.5 -36t-30.5 -95q0 -40 23.5 -65t60.5 -25z" />
    <glyph glyph-name="seven.numr" horiz-adv-x="745" 
d="M434 610h-233q8 189 123.5 368t300.5 267h-150h-256l41 189h617l-46 -215q-160 -83 -267.5 -248t-129.5 -361z" />
    <glyph glyph-name="eight.numr" horiz-adv-x="829" 
d="M473 592q-141 0 -227 61.5t-86 163.5q0 88 62.5 147t150.5 80q-125 53 -125 160q0 103 94.5 175.5t230.5 72.5q130 0 210.5 -61.5t80.5 -157.5q0 -74 -48.5 -132t-137.5 -79q67 -27 102 -74.5t35 -101.5q0 -114 -96 -184t-246 -70zM547 1106q41 0 68.5 26.5t27.5 67.5
q0 32 -20.5 51t-57.5 19q-43 0 -70.5 -26t-27.5 -66q0 -72 80 -72zM477 776q48 0 77.5 27t29.5 71q0 37 -23.5 57.5t-64.5 20.5q-46 0 -75.5 -28t-29.5 -72q0 -36 22.5 -56t63.5 -20z" />
    <glyph glyph-name="nine.numr" horiz-adv-x="843" 
d="M420 592q-135 0 -250 53l43 201q34 -22 88 -37.5t98 -15.5q84 0 121 18q39 19 67 49t40 86q-55 -63 -146 -63q-114 0 -187 70t-73 177q0 139 93.5 230.5t236.5 91.5q74 0 137 -26.5t103 -73.5q81 -93 81 -244q0 -232 -123.5 -374t-328.5 -142zM537 1055q46 0 75 35.5
t29 89.5q0 37 -23 61.5t-57 24.5q-44 0 -73 -35.5t-29 -87.5q0 -38 22 -63t56 -25z" />
    <glyph glyph-name="exclamdown.case" horiz-adv-x="632" 
d="M346 1434h336l-70 -322h-336zM336 920h133l-31 -594l-69 -326h-320l70 326z" />
    <glyph glyph-name="questiondown.case" horiz-adv-x="1107" 
d="M571 1434h334l-67 -322h-336zM510 920h266q-16 -77 -30 -120.5t-40.5 -87t-66.5 -76.5t-107 -75q-44 -27 -69.5 -45t-53.5 -44t-40.5 -54t-12.5 -60q0 -70 45.5 -108.5t118.5 -38.5q93 0 151.5 64.5t67.5 199.5l285 -51q-16 -202 -153 -329.5t-365 -127.5
q-217 0 -335 103t-118 254q0 69 20.5 124.5t66 103t96.5 83.5t133 84q120 71 141 201z" />
    <glyph glyph-name="period.tf" 
d="M729 0h-403l84 389h401z" />
    <glyph glyph-name="comma.tf" 
d="M408 -406h-197l332 406h-213l84 389h399l-90 -412z" />
    <glyph glyph-name="colon.tf" 
d="M895 780h-403l83 389h402zM729 0h-403l84 389h401z" />
    <glyph glyph-name="semicolon.tf" 
d="M899 780h-403l84 389h401zM412 -406h-197l332 406h-213l84 389h399l-90 -412z" />
    <glyph glyph-name="numbersign.tf" 
d="M272 0h-262l41 100q39 93 107 246h-148h-14l51 234h211l113 272h-207l55 256h260l139 326h263l-35 -82q-46 -103 -105 -244h160h43l139 326h263l-35 -82l-105 -244h117h39l-55 -256h-209l-113 -272h205l-51 -234h-254l-148 -346h-262l43 104q70 164 105 242h-181h-22z
M633 852l-113 -272h203l113 272h-203z" />
    <glyph glyph-name="parenleft.case" horiz-adv-x="731" 
d="M565 37l-55 -262q-105 19 -183.5 73.5t-125 136.5t-69.5 181t-23 217q0 154 24 309t68.5 300.5t114.5 270t157 217t200.5 143t239.5 46.5l-57 -262q-89 -4 -168.5 -71t-136.5 -173.5t-99.5 -239t-63.5 -271.5t-21 -267q0 -147 50.5 -237.5t147.5 -110.5z" />
    <glyph glyph-name="parenright.case" horiz-adv-x="733" 
d="M256 1407l55 262q139 -26 231 -114t131.5 -212t39.5 -282q0 -154 -24 -309t-69 -300t-115 -270t-157 -217.5t-200.5 -143t-239.5 -46.5l57 262q89 4 168.5 71t137 173.5t100 239t63.5 271.5t21 267q0 146 -51 237t-148 111z" />
    <glyph glyph-name="braceleft.case" horiz-adv-x="776" 
d="M557 -205h-104q-73 0 -130 20t-91 54t-55 79.5t-22 97t9 106.5l59 272q23 105 -13 142.5t-128 37.5l49 234q47 0 77 5t59.5 21t48.5 49t30 86l74 353q33 156 114 226.5t248 70.5h168l-47 -217h-69q-67 0 -105.5 -29t-54.5 -103l-70 -329q-11 -54 -36.5 -97.5t-55 -71
t-71 -49t-74.5 -32.5t-76 -21q24 -7 41.5 -13.5t41 -16.5t39 -21.5t33 -27.5t27.5 -36t16.5 -44.5t6 -56t-8.5 -68.5l-57 -271q-16 -76 8.5 -104.5t91.5 -28.5h72z" />
    <glyph glyph-name="braceright.case" horiz-adv-x="776" 
d="M309 1649h105q73 0 130 -20t91 -54t54.5 -79.5t21.5 -97t-9 -106.5l-59 -272q-23 -105 13 -142.5t128 -37.5l-49 -234q-95 0 -144 -30.5t-71 -131.5l-74 -352q-33 -156 -114 -226.5t-248 -70.5h-168l47 217h70q67 0 105.5 28.5t54.5 102.5l69 330q11 54 36.5 97.5
t55 70.5t71 48.5t74.5 32.5t76 21q-24 7 -41.5 13.5t-40.5 16.5t-39.5 22t-33.5 27.5t-27 35.5t-16.5 45t-6 56.5t8.5 68.5l57 270q16 76 -8.5 105t-91.5 29h-72z" />
    <glyph glyph-name="bracketleft.case" horiz-adv-x="761" 
d="M547 -205h-518l393 1854h520l-49 -226h-254l-299 -1403h256z" />
    <glyph glyph-name="bracketright.case" horiz-adv-x="759" 
d="M303 1649h518l-393 -1854h-520l49 225h254l299 1403h-256z" />
    <glyph glyph-name="angleleft.case" horiz-adv-x="778" 
d="M737 1669l209 -164l-579 -819l227 -815l-256 -96l-254 946z" />
    <glyph glyph-name="angleright.case" horiz-adv-x="776" 
d="M274 1575l256 96l254 -946l-653 -948l-209 164l580 819z" />
    <glyph glyph-name="uni3010.case" horiz-adv-x="813" 
d="M672 -205h-643l395 1854h641q-245 -225 -383.5 -448t-192.5 -476q-55 -244 -11 -473.5t194 -456.5z" />
    <glyph glyph-name="uni3011.case" horiz-adv-x="811" 
d="M231 1649h643l-395 -1854h-641q245 225 383.5 448t192.5 476q55 244 11 473.5t-194 456.5z" />
    <glyph glyph-name="uni300C.case" horiz-adv-x="794" 
d="M459 725h-262l194 924h606l-49 -226h-340z" />
    <glyph glyph-name="uni300D.case" horiz-adv-x="784" 
d="M422 719h262l-195 -924h-606l49 225h340z" />
    <glyph glyph-name="uni300A.case" horiz-adv-x="1310" 
d="M737 1669l209 -164l-579 -817l227 -817l-256 -96l-254 948zM1305 1669l208 -164l-636 -880l219 -754l-256 -96l-246 884z" />
    <glyph glyph-name="uni300B.case" horiz-adv-x="1308" 
d="M305 1575l256 96l246 -885l-711 -1009l-209 164l637 880zM807 1575l256 96l254 -948l-653 -946l-209 164l579 817z" />
    <glyph glyph-name="uni3014.case" horiz-adv-x="733" 
d="M918 1481l-410 -359l-176 -837l250 -363l-222 -147l-309 432l219 1032l480 430z" />
    <glyph glyph-name="uni3015.case" horiz-adv-x="735" 
d="M244 1522l221 147l309 -432l-219 -1032l-479 -430l-168 188l409 359l177 837z" />
    <glyph glyph-name="uni300E.case" horiz-adv-x="1159" 
d="M737 500h-561l244 1149h905l-113 -533h-344zM600 1444l-158 -739h136l129 606h323l29 133h-459z" />
    <glyph glyph-name="uni300F.case" horiz-adv-x="1144" 
d="M510 942h561l-244 -1149h-905l113 533h344zM647 -2l158 739h-135l-129 -606h-324l-29 -133h459z" />
    <glyph glyph-name="hyphen.case" horiz-adv-x="991" 
d="M879 623h-723l57 266h721z" />
    <glyph glyph-name="uni00AD.case" horiz-adv-x="991" 
d="M879 623h-723l57 266h721z" />
    <glyph glyph-name="endash.case" horiz-adv-x="1339" 
d="M1225 637h-1063l51 233h1061z" />
    <glyph glyph-name="emdash.case" horiz-adv-x="1843" 
d="M1731 639h-1569l49 233h1569z" />
    <glyph glyph-name="guillemotleft.case" horiz-adv-x="1288" 
d="M508 1188h326l-426 -522l174 -455h-283l-182 489zM1044 1188h326l-479 -586l149 -391h-282l-158 424z" />
    <glyph glyph-name="guillemotright.case" horiz-adv-x="1286" 
d="M326 1188h282l158 -424l-444 -553h-326l479 586zM784 1188h283l182 -490l-391 -487h-326l426 522z" />
    <glyph glyph-name="guilsinglleft.case" horiz-adv-x="776" 
d="M508 1188h326l-426 -522l174 -455h-283l-182 489z" />
    <glyph glyph-name="guilsinglright.case" horiz-adv-x="774" 
d="M272 1188h283l182 -490l-391 -487h-326l426 522z" />
    <glyph glyph-name="space.tf" 
 />
    <glyph glyph-name="uni20BF.tf" 
d="M954 729q126 -19 212.5 -109t86.5 -208q0 -190 -156 -301t-397 -111l-47 -213h-188l47 213h-98l-47 -213h-189l47 213h-241l305 1434h239l45 202h189l-45 -202h98l45 202h189l-48 -217q146 -30 228 -112t82 -207q0 -142 -97 -242t-260 -129zM475 866h283q112 0 171.5 46
t59.5 124q0 140 -207 140h-241zM348 258h322q128 0 199 53t71 142q0 87 -65.5 125t-172.5 38h-280z" />
    <glyph glyph-name="cent.tf" 
d="M582 -244h-174l49 230q-158 39 -248 160t-90 307q0 159 71 299t202.5 229.5t293.5 95.5l45 211h174l-49 -227q133 -32 222.5 -116.5t115.5 -203.5l-272 -82q-26 113 -115 160l-78 -377q-32 -148 -51 -233q124 30 205 192l252 -120q-166 -305 -508 -314zM510 233l65 316
l60 285q-107 -31 -166 -140.5t-59 -242.5q0 -159 100 -218z" />
    <glyph glyph-name="currency.tf" 
d="M399 328l-217 -181l-155 199l211 172q-33 78 -33 160q0 166 106 311l-123 162l201 166l133 -172q93 41 199 41q137 0 223 -56l223 170l160 -200l-213 -172q37 -91 37 -174q0 -148 -100 -287l129 -162l-203 -168l-131 168q-96 -47 -209 -47q-135 0 -238 70zM651 504
q99 0 167.5 75t68.5 173q0 80 -48.5 134t-131.5 54q-100 0 -170 -75t-70 -173q0 -79 50 -133.5t134 -54.5z" />
    <glyph glyph-name="dollar.tf" 
d="M567 -203h-184l43 197q-167 44 -262 155.5t-113 256.5l273 83q9 -71 51 -135.5t108 -101.5l76 352l-41 17q-60 24 -95.5 41.5t-81 50.5t-70.5 71t-42.5 97.5t-17.5 134.5q0 205 144 327.5t393 122.5l38 170h185l-45 -196q97 -27 169 -85.5t112.5 -130t58.5 -157.5
l-262 -84q-32 136 -136 197l-73 -336l39 -15q56 -21 101 -43t91.5 -56.5t77.5 -74.5t50.5 -97t19.5 -124q0 -224 -147 -345.5t-423 -121.5zM623 897l18 82q24 100 53 238q-90 0 -139 -46t-49 -114q0 -59 26.5 -97.5t90.5 -62.5zM659 215q100 6 156.5 54t56.5 124
q0 58 -33.5 93.5t-105.5 62.5l-31 -143q-10 -50 -43 -191z" />
    <glyph glyph-name="Euro.tf" 
d="M662 -33q-196 0 -314 127.5t-133 356.5h-152l39 184h115q9 77 23 141h-107l39 185h117q67 223 215.5 364t341.5 141q187 0 305.5 -114t142.5 -326l-258 -65q-11 110 -63 178.5t-146 68.5q-90 0 -159.5 -67.5t-104.5 -179.5h156h88l-41 -185h-258q-9 -29 -17 -74.5
t-8 -66.5h254l-39 -184h-86h-129q21 -226 193 -226q176 0 280 291l242 -90q-69 -210 -207 -334.5t-329 -124.5z" />
    <glyph glyph-name="liraturkish.tf" 
d="M508 0h-352l32 154q16 82 56 258l-148 -68l-78 -35l52 244l225 102l29 136l-226 -103l54 244l223 102l88 398h311l-24 -107l-29 -135q54 25 235 106l215 99l-51 -242l-452 -205l-29 -137l453 205l-54 -242l-450 -205l-62 -293h41q85 0 164 35t156 116.5t133 205.5
l252 -170q-216 -463 -764 -463z" />
    <glyph glyph-name="uni20BD.tf" 
d="M432 1434h410q111 0 197.5 -31t141 -86t82.5 -128t27 -159q-3 -152 -73.5 -259.5t-189 -159.5t-275.5 -52h-228l-24 -113h407l-47 -213h-405l-49 -233h-279l49 233h-135l47 213h133l25 113h-135l49 234h135zM573 793h187q108 0 175.5 60t70.5 159q0 72 -52.5 118
t-130.5 46h-168z" />
    <glyph glyph-name="uni20B9.tf" 
d="M1368 1434l-45 -215h-160h-258q68 -38 103 -113h290l-43 -205h-237q-32 -103 -132.5 -175.5t-242.5 -82.5q125 -12 185.5 -82t66.5 -194l20 -367h-323l-6 319q-3 128 -48.5 177t-175.5 49h-233l53 254h318q168 0 237 102h-532l43 205h510q-43 113 -209 113h-277l45 215
h1051z" />
    <glyph glyph-name="sterling.tf" 
d="M401 258h304h409l-55 -258h-1020l61 279q55 21 102.5 46.5t97.5 64t79.5 91.5t28.5 113v8h-238l39 182h137q-59 126 -59 234q0 135 70 238.5t185.5 156.5t256.5 53q224 0 342.5 -106.5t120.5 -298.5l-299 -70q7 93 -36.5 157t-140.5 64q-95 0 -148.5 -62t-53.5 -163
q0 -88 47 -203h307l-39 -182h-225q1 -123 -68.5 -206t-204.5 -138z" />
    <glyph glyph-name="uni20A9.tf" 
d="M1087 1434h240l-143 -459h129l-39 -184h-148l-43 -142h160l-37 -184h-180l-145 -465h-297l22 164q52 394 66 522q-57 -197 -158 -514l-55 -172h-301l59 465h-170l37 184h156l18 142h-143l39 184h129l57 459h238l-50 -269q-71 -389 -147 -880q57 181 182 563l62 188h243
l-22 -194q-30 -239 -60 -557q155 585 232 880z" />
    <glyph glyph-name="yen.tf" 
d="M1116 1434h375l-522 -617h235l-39 -182h-348l-29 -143h349l-39 -183h-348l-66 -309h-307l65 309h-366l39 183h366l29 143h-367l39 182h252l-272 617h330l108 -293l98 -271q132 174 205 275z" />
    <glyph glyph-name="multiply.case.tf" 
d="M678 549l-348 -348l-164 164l348 348l-350 350l166 166l350 -350l348 348l164 -164l-348 -348l348 -348l-166 -166z" />
    <glyph glyph-name="plus.tf" 
d="M805 180h-246v420h-420v246h420v420h246v-420h420v-246h-420v-420z" />
    <glyph glyph-name="minus.tf" 
d="M1163 600h-977v246h977v-246z" />
    <glyph glyph-name="multiply.tf" 
d="M678 549l-348 -348l-164 164l348 348l-350 350l166 166l350 -350l348 348l164 -164l-348 -348l348 -348l-166 -166z" />
    <glyph glyph-name="divide.tf" 
d="M834 983h-304v283h304v-283zM1169 600h-976v246h976v-246zM834 180h-304v283h304v-283z" />
    <glyph glyph-name="equal.tf" 
d="M1157 840h-987v245h987v-245zM1157 348h-987v246h987v-246z" />
    <glyph glyph-name="notequal.tf" 
d="M483 180h-229l88 168h-172v246h301l61 119q61 115 68 127h-238h-192v245h561l94 181h230l-97 -181h199v-245h-328l-61 -119l-68 -127h254h203v-246h-586z" />
    <glyph glyph-name="greater.tf" 
d="M1210 524l-985 -372v264l377 137q231 84 436 164q-197 76 -432 157l-381 136v270l985 -365v-391z" />
    <glyph glyph-name="less.tf" 
d="M147 907l986 373v-264l-375 -137q-193 -69 -439 -164q189 -72 433 -158l381 -135v-270l-986 364v391z" />
    <glyph glyph-name="greaterequal.tf" 
d="M1176 694l-986 -211v244l342 66q236 46 478 90q-334 58 -478 84l-342 63v260l986 -205v-391zM1176 180h-986v246h986v-246z" />
    <glyph glyph-name="lessequal.tf" 
d="M1155 745v-260l-985 205v391l985 211v-243l-342 -66q-252 -49 -477 -90q314 -54 477 -84zM1155 180h-985v246h985v-246z" />
    <glyph glyph-name="plusminus.tf" 
d="M774 520h-221v252h-379v225h379v269h221v-269h377v-225h-377v-252zM1139 180h-987v246h987v-246z" />
    <glyph glyph-name="approxequal.tf" 
d="M881 737q-113 0 -228 62l-88 49q-55 31 -108 31q-99 0 -174 -113l-172 147q56 107 150 164.5t206 57.5t223 -60l82 -45q70 -37 121 -37q47 0 92.5 32.5t81.5 86.5l172 -154q-56 -106 -151.5 -163.5t-206.5 -57.5zM881 287q-115 0 -228 61l-88 49q-55 31 -108 31
q-99 0 -174 -113l-172 148q56 107 150 164t206 57q114 0 223 -59l82 -45q70 -37 121 -37q47 0 92.5 32.5t81.5 86.5l172 -154q-56 -106 -151.5 -163.5t-206.5 -57.5z" />
    <glyph glyph-name="logicalnot.tf" 
d="M1124 315h-221v295h-756v246h977v-541z" />
    <glyph glyph-name="percent.tf" 
d="M391 793q-128 0 -202 74.5t-74 213.5q0 101 36.5 187t112 142t174.5 56q130 0 201.5 -76t71.5 -210q0 -156 -88 -271.5t-232 -115.5zM238 0h-201l1081 1434h199zM385 946q46 0 79 40.5t46.5 94.5t13.5 111q0 121 -86 121q-49 0 -81.5 -43t-44 -97t-11.5 -114
q0 -113 84 -113zM922 -33q-128 0 -202.5 75t-74.5 214q0 100 36.5 186.5t111.5 142.5t174 56q130 0 202 -76.5t72 -210.5q0 -101 -37 -188.5t-111 -143t-171 -55.5zM915 121q67 0 103.5 77t36.5 169q0 120 -86 120q-49 0 -81.5 -43t-44.5 -97.5t-12 -113.5q0 -112 84 -112z
" />
    <glyph glyph-name="perthousand.tf" 
d="M338 793q-209 0 -209 241q0 103 35 200.5t105.5 164.5t160.5 67q105 0 159 -63t54 -176q0 -102 -37.5 -201t-109 -166t-158.5 -67zM-84 0l1102 1434h158l-1100 -1434h-160zM418 1313q-28 0 -51 -33.5t-37 -82.5t-21.5 -99t-7.5 -88q0 -64 49 -64q34 0 62 57t40.5 125.5
t12.5 122.5q0 62 -47 62zM1028 641q100 0 149.5 -64.5t49.5 -168.5q0 -115 -29 -212.5t-93.5 -163t-154.5 -65.5q-99 0 -143 78q-68 -78 -154 -78q-95 0 -138.5 58t-43.5 182q0 78 16 153t46 139t81 103t115 39q103 0 154 -82q63 82 145 82zM678 121q31 0 56.5 57
t36.5 125.5t11 122.5q0 30 -12 45.5t-31 15.5q-48 0 -77 -105.5t-29 -199.5q0 -61 45 -61zM956 121q24 0 45 33.5t34 82.5t20.5 99.5t7.5 89.5q0 30 -12 45.5t-31 15.5q-47 0 -77 -106.5t-30 -198.5q0 -61 43 -61z" />
    <glyph glyph-name="at.case" horiz-adv-x="1945" 
d="M1022 -162q-148 0 -281.5 30.5t-247 93t-196 152.5t-129.5 216t-47 276q0 154 46 298.5t134 264.5t207 210t272.5 140t323.5 50q143 0 270 -28.5t234.5 -88t185.5 -144.5t122 -204.5t44 -261.5q0 -108 -38 -212t-105.5 -186.5t-169.5 -133t-220 -50.5q-93 0 -158.5 48
t-80.5 122q-104 -170 -279 -170q-147 0 -224 102.5t-77 262.5q0 73 16 145.5t49 137t79 114.5t110 79t137 29q169 0 246 -153q5 25 15.5 66.5t15.5 64.5h240l-115 -549q-18 -84 61 -84q71 0 126 60t80.5 142t25.5 165q0 123 -46.5 220.5t-129 158.5t-189.5 93t-233 32
q-163 0 -299 -61.5t-224.5 -164.5t-137 -236t-48.5 -278q0 -128 48 -232t132.5 -172t200 -104.5t250.5 -36.5q155 0 275.5 27.5t246.5 91.5l86 -207q-256 -135 -604 -135zM991 475q59 0 106 50.5t70 118t23 132.5q0 79 -35.5 120.5t-105.5 41.5q-57 0 -100 -48.5t-62 -114
t-19 -132.5q0 -81 31 -124.5t92 -43.5z" />
    <glyph glyph-name="registered.case" horiz-adv-x="1822" 
d="M956 -80q-167 0 -317.5 63.5t-259 171.5t-172.5 258t-64 316t64 316t172.5 257.5t259 170.5t317.5 63q223 0 411 -107t297.5 -292.5t109.5 -407.5t-109.5 -408t-297.5 -293.5t-411 -107.5zM958 113q129 0 244 48.5t196 131.5t128 196.5t47 239.5q0 169 -79.5 310.5
t-221 224t-314.5 82.5t-314 -82.5t-220.5 -224t-79.5 -310.5q0 -168 79.5 -309.5t220.5 -224t314 -82.5zM817 311h-192v850h430q122 0 199 -61.5t77 -167.5q0 -89 -54 -148t-153 -79q73 -18 108.5 -67t49.5 -136l31 -191h-201l-27 189q-12 85 -49 122t-114 37h-105v-348z
M817 1020v-221h182q136 0 136 110q0 54 -36 82.5t-104 28.5h-178z" />
    <glyph glyph-name="section.tf" 
d="M530 -426q-102 0 -183 27.5t-133 75.5t-80.5 110t-33.5 135l258 74q17 -166 172 -166q75 0 123.5 44.5t48.5 107.5q0 40 -21.5 69t-76.5 49l-215 80q-155 58 -215.5 137.5t-60.5 192.5q-1 112 63 197t172 133q-53 64 -53 213q0 78 33 152.5t91 132.5t143.5 93t182.5 35
q200 0 310.5 -99t120.5 -253l-258 -74q-18 172 -173 172q-74 0 -123 -47t-49 -110q0 -82 99 -119l215 -82q107 -40 168.5 -85.5t86 -96.5t25.5 -121q0 -113 -67.5 -210t-171.5 -146q53 -79 53 -211q0 -77 -33.5 -151t-91 -131.5t-143.5 -92.5t-183 -35zM774 319
q45 21 78 60.5t33 89.5q0 46 -27 80t-92 59l-145 58q-68 26 -119 51q-112 -59 -109 -152q0 -46 27 -79.5t90 -57.5l145 -57q79 -30 119 -52z" />
    <glyph glyph-name="degree.tf" 
d="M780 856q-171 0 -279 109.5t-108 271.5q0 163 110 273t279 110t279 -110t110 -273q0 -165 -109.5 -273t-281.5 -108zM782 1071q68 0 111 46.5t43 121.5q0 72 -43 117t-111 45q-67 0 -111 -45.5t-44 -116.5q0 -75 44 -121.5t111 -46.5z" />
    </font>
</defs>
</svg>
