<svg xmlns="http://www.w3.org/2000/svg">
<defs>
<font id="a2db9a49d94ac9fa87cb876fe1aed7c2" horiz-adv-x='1024' >
  <font-face 
    font-family="GTSectra-Medium"
    font-weight="500"
    font-stretch="normal"
    units-per-em="2048"
    panose-1="2 0 6 3 0 0 0 2 0 3"
    ascent="1536"
    descent="-512"
    x-height="971"
    cap-height="1436"
    bbox="-328 -518 4309 2001"
    underline-thickness="102"
    underline-position="-102"
    unicode-range="U+000D-FB04"
  />
<missing-glyph horiz-adv-x="1280" 
d="M1083 791h11l10 14v14l-21 -8v-20zM944 1085l-16 -8v-18l16 -6l4 14zM786 1315l-16 -19v-39l25 -12l6 35zM377 1020l121 24l-9 25zM657 1065l-8 -25l101 -34l6 8zM895 735v-26l90 8l8 18h-98zM586 512h139v12l-139 8v-20zM745 639h-149v-21h149v21zM360 416l-151 102
l41 -47l102 -84zM745 575l-147 15l-12 -27l159 -8v20zM438 930l2 8l29 4l-27 12l4 15l-40 -2l6 -39l28 -31l25 -12l22 10l33 25l12 24l5 27l-45 -8l12 -21l-25 -27l-28 -2zM1145 639l-12 -6l-68 -55l80 -99v160zM688 932l-14 -23h-25l-10 15l23 16l-31 4v12l-47 9l6 -35
l16 -29l41 -18l27 -2l37 20l12 19l10 41l-61 4l14 -11zM825 688l9 62l-111 10l-6 -72h108zM815 1198l10 -12l39 22l17 -4l12 -49h27l12 12l-19 37l35 58l-30 18v10l-52 15v-41l-26 -11v-18l-19 -12zM1012 639l32 -25l17 4l41 31l26 27l23 37l-14 10h-29l-21 6l-28 14l-35 -6
q-4 -27 -7 -46q-3 -18 -5 -52zM717 438l-131 8v-104l131 -12v108zM360 678l-135 80v-15l-4 -26l2 -55v-99l131 -90l-2 123zM985 678l-111 2l-2 -49v-13l-4 -63l39 -6l-16 -125l-98 6l-17 -12l105 -10l-4 -19h-101l-8 -10l109 -14l-13 -72l56 -2l24 162l8 73l-30 6l-2 17
l41 2l10 6l-58 33l5 10l61 -12l-61 30l10 11l43 -11l8 21zM133 831h-43l39 -28l2 -23l-41 15l37 -37l-8 -15l6 -198l22 -25v369l117 -66l15 21l-140 78v36l121 -69l88 -58l58 -28l6 20l-211 131l-27 15l-84 67l4 -159l39 -35v-11zM1200 952l-16 76l-39 102l-41 74l-47 58
l-70 43h-22l34 -39l52 -21l22 -22l6 -68l-51 27l-31 -60l25 -16v-39l31 6l-25 53l31 -10l20 -41l-10 -24l-16 -15h-47l-7 23l-24 4l2 -45h-29l29 -37l-14 -20l-43 10l-7 -56l84 13l17 35l45 -5l12 -57l-33 -27v-30l17 -13l37 25h47l12 23l-37 12l-10 18l18 86h15l28 -41z

<glyph glyph-name="ff" unicode="ff" horiz-adv-x="1400" 
d="M457 983v-41h417v33q0 88 29 152.5t88 127.5l189 199h270v-180h-266l-35 -49q-23 -33 -31 -81t-8 -136v-66h258v-106h-258v-736l223 -16l-10 -86l-346 6l-195 -6l-10 82l102 20v736h-417v-736l170 -16l-11 -86l-292 6l-224 -6l-10 82l131 20v736h-172v41l66 75h106v6
q0 94 37 157t94 124l176 184h392l-164 -182h-226l-32 -49q-41 -59 -41 -209z" />
    <glyph glyph-name="fi" unicode="fi" horiz-adv-x="1271" 
d="M457 836v-736l149 -16l-10 -84l-270 4l-226 -6l-10 82l131 20v736h-172v41l66 75h106v23q0 88 30 152.5t89 127.5l188 199h566v-219h-56l-159 39h-347l-34 -49q-41 -59 -41 -217v-66h336l184 29l113 6v-877l141 -20l-10 -82l-244 6l-215 -6l-10 86l102 16v668l12 84
l-75 -16h-334z" />
    <glyph glyph-name="fl" unicode="fl" horiz-adv-x="1294" 
d="M221 975q0 88 30 152.5t89 127.5l188 199h328l168 8h86v-1362l139 -20l-10 -82l-244 6l-229 -6l-10 82l118 20v736h-417v-736l170 -16l-11 -86l-292 6l-224 -6l-10 82l131 20v736h-172v41l66 75h106v23zM874 942v373l-118 -41h-224l-34 -49q-41 -59 -41 -217v-66h417z
" />
    <glyph glyph-name="ffi" unicode="ffi" horiz-adv-x="1923" 
d="M874 836h-417v-736l170 -16l-11 -86l-292 6l-224 -6l-10 82l131 20v736h-172v41l66 75h106v6q0 94 37 157t94 124l176 184h392l-164 -182h-226l-32 -49q-41 -59 -41 -209v-41h417v33q0 88 29 152.5t88 127.5l189 199h565v-219h-55l-158 39h-346l-37 -49q-39 -64 -39 -217
v-66h334l186 29l113 6v-877l139 -20l-10 -82l-244 6l-213 -6l-10 86l102 16v668l11 84l-76 -16h-332v-736l147 -16l-10 -86l-268 6l-227 -6l-11 82l133 20v736z" />
    <glyph glyph-name="ffl" unicode="ffl" horiz-adv-x="1945" 
d="M1526 942v373l-119 -43h-223l-35 -49q-39 -53 -39 -215v-66h416zM874 836h-417v-736l170 -16l-11 -86l-292 6l-224 -6l-10 82l131 20v736h-172v41l66 75h106v6q0 94 37 157t94 124l176 184h392l-164 -182h-226l-32 -49q-41 -59 -41 -209v-41h417v33q0 88 29 152.5
t88 127.5l189 199h327l168 6h86v-1360l140 -20l-11 -82l-243 6l-230 -6l-10 82l119 20v736h-416v-736l168 -16l-10 -86l-291 6l-195 -6l-10 82l102 20v736z" />
    <glyph glyph-name="Th" unicode="Th" horiz-adv-x="2242" 
d="M1831 678q0 139 -121 139q-45 0 -96 -26.5t-105 -59.5l-55 -35v-594l102 -22l-10 -82l-205 6l-229 -6l-10 82l117 22v1237l-82 -16l-377 4v-1221l227 -26l-10 -82l-346 6l-355 -6l-10 82l236 26v1221l-283 -6l-98 -268h-90v385l604 -6l493 4l236 24l90 2v-655l303 194
q189 0 250 -73.5t61 -270.5v-555l140 -22l-10 -82l-244 6l-205 -6l-10 82l92 22v576z" />
    <glyph glyph-name="fb" unicode="fb" horiz-adv-x="1841" 
d="M1271.5 78q110.5 0 178.5 101.5t68 279.5t-55.5 266t-136.5 88t-179 -76l-53 -41v-540q67 -78 177.5 -78zM457 999v-57h260v-106h-260v-734l225 -16l-10 -88l-348 6l-224 -6l-10 82l131 22v734h-172v41l66 75h106v23q0 88 30 152.5t89 127.5l188 199h314l166 8h86v-655
l266 194q168 0 287.5 -128t119.5 -334q0 -373 -202.5 -462.5t-327.5 -107.5q-180 0 -263 37t-116 53v1256l-117 -41h-211l-34 -53q-39 -60 -39 -222z" />
    <glyph glyph-name="ffb" unicode="ffb" horiz-adv-x="2492" 
d="M1924 78q112 0 178.5 101.5t66.5 279.5t-55.5 266t-136.5 88t-179 -76l-53 -41v-540q67 -78 179 -78zM2419 539q0 -489 -531 -570q-180 0 -263 37t-116 53v1256l-116 -41h-209l-37 -53q-37 -57 -37 -222v-57h258v-106h-258v-734l223 -16l-10 -88l-346 6l-195 -6l-10 82
l102 20v736h-417v-736l170 -16l-11 -86l-292 6l-224 -6l-10 82l131 20v736h-172v41l66 75h106v6q0 94 37 157t94 124l176 184h392l-164 -182h-226l-32 -49q-41 -59 -41 -209v-41h417v33q0 88 29 152.5t88 127.5l189 199h313l166 8h86v-655l266 194q168 0 288 -128.5
t120 -333.5z" />
    <glyph glyph-name="ffh" unicode="ffh" horiz-adv-x="2549" 
d="M2136 678q0 139 -121 139q-45 0 -96 -26.5t-104 -59.5l-54 -35v-594l101 -22l-11 -82l-204 6l-230 -6l-10 82l119 22v1213l-119 -41h-223l-37 -53q-37 -57 -37 -222v-57h258v-106h-258v-734l168 -16l-10 -88l-291 6l-195 -6l-10 82l102 20v736h-417v-736l170 -16l-11 -86
l-292 6l-224 -6l-10 82l131 20v736h-172v41l66 75h106v6q0 94 37 157t94 124l176 184h392l-164 -182h-226l-32 -49q-41 -59 -41 -209v-41h417v33q0 88 29 152.5t88 127.5l189 199h327l168 8h86v-655l303 194q187 0 248.5 -74.5t61.5 -269.5v-555l141 -22l-10 -82l-244 6
l-207 -6l-10 82l92 22v576z" />
    <glyph glyph-name="ffj" unicode="ffj" horiz-adv-x="1859" 
d="M1245 -481v205h205l16 45q35 96 35 239v760l12 86l-77 -18h-326v-736l162 -16l-10 -86l-269 6l-211 -6l-10 82l102 20v736h-417v-736l170 -16l-11 -86l-292 6l-224 -6l-10 82l131 20v736h-172v41l66 75h106v6q0 94 37 157t94 124l176 184h392l-164 -182h-226l-32 -49
q-41 -59 -41 -209v-41h417v33q0 88 29 152.5t88 127.5l189 199h561v-219h-58l-157 39h-340l-37 -49q-39 -64 -39 -217v-66h328l186 27l113 8v-936q0 -119 -44 -196.5t-104 -141.5l-174 -184h-170z" />
    <glyph glyph-name="ffk" unicode="ffk" horiz-adv-x="2478" 
d="M1110 999v-57h258v-106h-258v-734l168 -16l-10 -88l-291 6l-225 -6l-11 82l133 22v734h-417v-736l170 -16l-11 -86l-292 6l-224 -6l-10 82l131 20v736h-172v41l66 75h106v6q0 94 37 157t94 124l176 184h392l-164 -182h-226l-32 -49q-41 -59 -41 -209v-41h417v33
q0 88 29 152.5t88 127.5l189 199h327l254 8v-901l56 25l329 282l-82 23v82l189 -6l168 6l10 -82l-113 -23l-374 -299l55 -32l381 -435l88 -22l-12 -82l-181 6l-129 -6l-358 465l-27 65v-426l99 -22l-11 -82l-213 6l-233 -6l-10 82l133 22v1213l-119 -41h-223l-37 -53
q-37 -57 -37 -222z" />
    <glyph glyph-name="fh" unicode="fh" horiz-adv-x="1898" 
d="M1485 678q0 139 -121 139q-45 0 -96 -26.5t-105 -59.5l-53 -35v-594l100 -22l-10 -82l-205 6l-229 -6l-10 82l118 22v1213l-118 -41h-226l-34 -53q-39 -60 -39 -222v-57h260v-106h-260v-734l170 -16l-11 -88l-292 6l-224 -6l-10 82l131 22v734h-172v41l66 75h106v23
q0 88 30 152.5t89 127.5l188 199h328l168 8h86v-655l303 194q187 0 248 -73.5t61 -270.5v-555l142 -22l-11 -82l-243 6l-207 -6l-10 82l92 22v576z" />
    <glyph glyph-name="fj" unicode="fj" horiz-adv-x="1208" 
d="M592 -481v205h205l18 45q33 91 33 239v760l12 86l-76 -18h-327v-736l164 -18l-11 -84l-268 6l-242 -6l-10 80l131 22v736h-172v41l66 75h106v23q0 88 30 152.5t89 127.5l188 199h559v-221h-55l-160 39h-340l-34 -49q-41 -55 -41 -215v-66h329l185 27l112 8v-936
q0 -119 -44 -196.5t-101 -141.5l-174 -184h-172z" />
    <glyph glyph-name="fk" unicode="fk" horiz-adv-x="1826" 
d="M457 999v-57h260v-106h-260v-734l170 -16l-11 -88l-292 6l-224 -6l-10 82l131 22v734h-172v41l66 75h106v23q0 88 30 152.5t89 127.5l188 199l328 -2l254 8v-899l55 25l330 282l-82 23v82l189 -6l167 6l11 -82l-113 -23l-375 -299l56 -32l381 -435l88 -22l-13 -82l-180 6
l-129 -6l-358 465l-27 65v-426l98 -22l-10 -82l-213 6l-233 -6l-11 82l133 22v1213l-118 -41h-226l-34 -53q-39 -60 -39 -222z" />
    <glyph glyph-name="ft" unicode="ft" horiz-adv-x="1449" 
d="M1098 262q0 -125 111 -125q64 0 169 56l39 -78l-266 -146q-158 0 -223.5 61.5t-65.5 211.5v594h-405v-734l211 -16l-11 -88l-331 6l-226 -6l-10 82l131 22v734h-172v41l66 75h106v23q0 88 30 152.5t89 127.5l188 199h420l-174 -180h-244l-34 -53q-39 -60 -39 -222v-57
h409v145l158 142h72v-289h295v-100h-293v-578z" />
    <glyph glyph-name="fu" unicode="fu" horiz-adv-x="1830" 
d="M1053 299q-1 -143 119 -143q56 0 106.5 25.5t101.5 60.5l39 26v566l-116 -11l-11 90l240 56l123 8v-707q0 -97 26 -149h95l8 -82l-297 -55l-57 172l-293 -187q-191 0 -256.5 70t-65.5 256v479l16 84l-81 -22h-293v-734l225 -16l-10 -88l-346 6l-226 -6l-10 82l131 22v734
h-172v41l66 75h106v23q0 88 30 152.5t89 127.5l188 199h269v-182h-267l-34 -51q-39 -64 -39 -222v-57h297l176 27l123 8v-678z" />
    <glyph glyph-name="fy" unicode="fy" horiz-adv-x="1726" 
d="M762 -481v235h205l204 295l-127 -39l-337 852h-250v-760l225 -16l-10 -88l-346 6l-226 -6l-10 82l131 22v734h-172v41l66 75h106v23q0 88 30 152.5t89 127.5l188 199h269v-180h-267l-34 -53q-39 -60 -39 -220v-30h616l10 -80l-122 -21l215 -571l20 -156l238 725l-95 21
l11 84l184 -6l172 6l10 -84l-127 -21l-315 -825l-236 -524h-276z" />
    <glyph glyph-name="gg" unicode="gg" horiz-adv-x="2068" 
d="M1679 602q0 131 -47 214t-136 83q-169 0 -169 -213q0 -102 47 -181t136 -79q90 0 129.5 54t39.5 122zM1284 -209q0 -66 66.5 -112t156.5 -46q151 0 233.5 65.5t82.5 160.5q0 49 -40 71.5t-132 22.5h-277q-82 -92 -86 -120t-4 -42zM2073 1001v-167h-125l-66 -31
q25 -49 25 -109q0 -141 -102.5 -229t-315.5 -143q-51 0 -90 6l-92 -103q0 -35 21.5 -55t60.5 -20h362q156 0 223.5 -57.5t67.5 -141.5q0 -286 -533 -455q-205 0 -321.5 68.5t-116.5 212.5v33l217 165q-157 49 -170.5 114t-13.5 106v22l205 137q-96 37 -152.5 110t-56.5 171
q0 139 103.5 226t316.5 140q206 0 313 -120l102 120h138zM678 602q0 129 -47.5 213t-136.5 84q-168 0 -168 -213q0 -172 70 -216t136 -44t106 54t40 122zM252 -209q0 -66 66.5 -112t183.5 -46t193.5 66t76.5 160q0 49 -40 71.5t-132 22.5h-250q-85 -90 -91.5 -119t-6.5 -43z
M387 150h313q156 0 223.5 -57.5t67.5 -141.5q0 -287 -514 -455q-205 0 -321.5 68.5t-116.5 212.5v33l225 165q-96 35 -129 85.5t-33 134.5v22l205 137q-96 37 -152.5 110t-56.5 171q0 139 102.5 226t317.5 140q206 0 313 -120l95 120h153l-32 -167h-109l-57 -31
q24 -60 24 -109q-2 -141 -104.5 -229t-315.5 -143q-47 0 -90 6l-90 -103q0 -35 21.5 -55t60.5 -20z" />
    <glyph glyph-name="ky" unicode="ky" horiz-adv-x="2093" 
d="M1130 -481v235h205l203 295l-125 -39l-340 862l-76 -4l-372 -299l53 -32l381 -435l88 -20l-12 -84l-181 4l-129 -4l-358 465l-27 59v-422l99 -20l-11 -82l-213 6l-233 -6l-10 82l133 20v1217l-133 -4l-11 82l265 59l114 8v-899l58 25l325 282l-80 31v70h699l10 -80
l-123 -21l215 -571l21 -156l237 725l-94 21l10 84l185 -6l170 6l10 -84l-125 -21l-322 -825l-231 -524h-275z" />
    <glyph glyph-name="tt" unicode="tt" horiz-adv-x="1458" 
d="M1106 262q0 -125 113 -125q66 0 170 56l38 -78l-268 -146q-156 0 -222.5 61.5t-66.5 211.5v598h-432v-578q0 -49 23.5 -87t83.5 -38t164 51l39 -77l-256 -142q-156 0 -222.5 61.5t-66.5 211.5v598h-193v34l76 76h121v137l158 142h71v-289h438v147l158 142h72v-289h326
v-100h-324v-578z" />
    <glyph glyph-name="ty" unicode="ty" horiz-adv-x="1744" 
d="M546 137q61 0 169 53l39 -79l-262 -142q-156 0 -222.5 61.5t-66.5 211.5v608h-193v35l76 76h121v126l158 142h71v-258h658l10 -80l-125 -21l215 -571l20 -156l240 725l-96 21l10 84l184 -6l172 6l11 -84l-127 -21l-320 -825l-231 -524h-277v235h205l205 295l-127 -39
l-338 858h-287v-606q0 -49 23.5 -87t84.5 -38z" />
    <glyph glyph-name="www" unicode="www" horiz-adv-x="4319" 
d="M2179 535l-10 137l-236 -641l-188 -60l-225 602l-2 123l-228 -665l-190 -60l-207 564l-10 137l-236 -641l-190 -60l-332 897l-115 23l10 82l242 -6l207 6l10 -82l-108 -23l192 -575l17 -137l225 620l-37 92l-84 23l10 82l211 -6l205 6l10 -82l-106 -23l192 -575l17 -137
l219 632l-29 80l-117 23l11 82l241 -6l207 6l10 -82l-108 -23l192 -575l17 -137l225 620l-37 92l-84 23l10 82l211 -6l207 6l10 -82l-108 -23l192 -575l17 -137l219 635l-29 77l-114 23l10 82l241 -6l205 6l11 -82l-109 -23l192 -575l17 -137l225 620l-35 92l-86 23l11 82
l211 -6l206 6l11 -82l-109 -23l193 -575l16 -137l246 712l-95 23l11 82l155 -6l187 6l10 -82l-125 -23l-321 -837l-189 -60l-207 564l-10 137l-235 -641l-191 -60l-223 602l-2 123l-230 -665l-190 -60z" />
    <glyph glyph-name=".notdef" horiz-adv-x="1280" 
d="M1083 791h11l10 14v14l-21 -8v-20zM944 1085l-16 -8v-18l16 -6l4 14zM786 1315l-16 -19v-39l25 -12l6 35zM377 1020l121 24l-9 25zM657 1065l-8 -25l101 -34l6 8zM895 735v-26l90 8l8 18h-98zM586 512h139v12l-139 8v-20zM745 639h-149v-21h149v21zM360 416l-151 102
l41 -47l102 -84zM745 575l-147 15l-12 -27l159 -8v20zM438 930l2 8l29 4l-27 12l4 15l-40 -2l6 -39l28 -31l25 -12l22 10l33 25l12 24l5 27l-45 -8l12 -21l-25 -27l-28 -2zM1145 639l-12 -6l-68 -55l80 -99v160zM688 932l-14 -23h-25l-10 15l23 16l-31 4v12l-47 9l6 -35
l16 -29l41 -18l27 -2l37 20l12 19l10 41l-61 4l14 -11zM825 688l9 62l-111 10l-6 -72h108zM815 1198l10 -12l39 22l17 -4l12 -49h27l12 12l-19 37l35 58l-30 18v10l-52 15v-41l-26 -11v-18l-19 -12zM1012 639l32 -25l17 4l41 31l26 27l23 37l-14 10h-29l-21 6l-28 14l-35 -6
q-4 -27 -7 -46q-3 -18 -5 -52zM717 438l-131 8v-104l131 -12v108zM360 678l-135 80v-15l-4 -26l2 -55v-99l131 -90l-2 123zM985 678l-111 2l-2 -49v-13l-4 -63l39 -6l-16 -125l-98 6l-17 -12l105 -10l-4 -19h-101l-8 -10l109 -14l-13 -72l56 -2l24 162l8 73l-30 6l-2 17
l41 2l10 6l-58 33l5 10l61 -12l-61 30l10 11l43 -11l8 21zM133 831h-43l39 -28l2 -23l-41 15l37 -37l-8 -15l6 -198l22 -25v369l117 -66l15 21l-140 78v36l121 -69l88 -58l58 -28l6 20l-211 131l-27 15l-84 67l4 -159l39 -35v-11zM1200 952l-16 76l-39 102l-41 74l-47 58
l-70 43h-22l34 -39l52 -21l22 -22l6 -68l-51 27l-31 -60l25 -16v-39l31 6l-25 53l31 -10l20 -41l-10 -24l-16 -15h-47l-7 23l-24 4l2 -45h-29l29 -37l-14 -20l-43 10l-7 -56l84 13l17 35l45 -5l12 -57l-33 -27v-30l17 -13l37 25h47l12 23l-37 12l-10 18l18 86h15l28 -41z
M672 1130h16l21 46l22 16l-10 12l-6 17l2 43l-62 -21l-20 -16l-17 10l9 43l28 20l23 23l78 -4l24 27l-8 16h-100l-92 -27l-109 -53l-59 -47l-52 -70l60 25l26 -31l-34 -41l-21 -6l35 -6h10l74 49h65l37 -25l17 7l8 28l14 11l21 -9v-37zM1014 817l-8 14h-420l-135 -6l-15 -18
l-12 -90l-98 41l-23 -8l117 -56l2 -92l-10 -149v-187l37 8l4 82l84 -6l6 19l-90 12v33l98 -13l2 19l-96 14l2 45l88 -6l6 12l-92 19l6 192h151l23 21h-162l4 18h152l16 15h-168l4 45l240 8l287 -8v22zM1239 942l-6 -84l-16 -72l-25 -63l-6 -320l-43 -14l-103 143l-55 -14
l-39 -287l-65 9l-15 -9l-8 -192l62 -39l32 -29l-6 -30l-61 2l-49 37h-29l-16 16l14 156l-8 96l-125 2l-6 -107l-4 -114v-41l-31 -13l-17 13l-61 -21h-66l-2 23l23 22l102 43l-12 197l-201 -12l-301 286l-8 236l-27 20l-20 74v53l31 17l-6 159l188 -127l18 97l21 73l45 72
l57 72l80 59l160 60h45l-139 45l8 34h14l162 -40l-8 104l33 25h65l39 -11l59 -51l66 -16l65 -21l31 -26v-41l-41 -64l62 -57l57 -66l37 -69l31 -84z" />
    <glyph glyph-name=".null" horiz-adv-x="0" 
 />
    <glyph glyph-name=".null" horiz-adv-x="0" 
 />
    <glyph glyph-name="nonmarkingreturn" unicode="&#xd;" horiz-adv-x="655" 
 />
    <glyph glyph-name="space" unicode=" " horiz-adv-x="489" 
 />
    <glyph glyph-name="exclam" unicode="!" horiz-adv-x="595" 
d="M176 242l174 12l66 -12l12 -129l-12 -111l-172 -12l-68 12l-10 129zM399 840l-45 -359h-114l-47 357l-15 616h238z" />
    <glyph glyph-name="quotedbl" unicode="&#x22;" horiz-adv-x="815" 
d="M115 1202l-13 129l13 111l172 12l67 -12l13 -127l-13 -113l-143 -311l-86 35q42 94 61 169.5t19 96.5zM471 1202l-12 129l12 111l172 12l68 -12l12 -127l-12 -113l-144 -311l-86 35q46 105 63 175t17 91z" />
    <glyph glyph-name="numbersign" unicode="#" horiz-adv-x="1288" 
d="M995 1341l-49 -399h260l-14 -113h-258l-39 -317h256l-14 -113h-258l-48 -399h-129l48 399h-285l-47 -399h-129l47 399h-254l14 113h254l39 317h-252l15 113h251l50 399h129l-50 -399h285l49 399h129zM479 512h287l39 317h-287z" />
    <glyph glyph-name="dollar" unicode="$" horiz-adv-x="1198" 
d="M373 1144q0 -79 50 -131.5t146 -94.5v425q-94 -12 -145 -66t-51 -133zM860 329q0 161 -184 249v-482q86 20 135 82t49 151zM676 -164h-107v127h-2q-240 0 -430 139l-45 301h158l69 -180q97 -115 250 -131v535l-157 73q-201 92 -238 187.5t-37 163.5q0 288 432 401v147
h107v-129q207 -8 364 -118v-295h-120l-60 186q-84 84 -184 100v-475l125 -55q143 -68 224 -155t79 -230q0 -306 -428 -436v-156z" />
    <glyph glyph-name="percent" unicode="%" horiz-adv-x="1632" 
d="M1223 66q133 0 133 251q0 145 -40 231.5t-112 86.5q-139 0 -139 -254q0 -145 40 -230t118 -85zM1550 359q0 -159 -91 -247.5t-275 -119.5q-139 0 -224.5 95t-85.5 253t92.5 247t272.5 120q139 0 225 -94.5t86 -253.5zM412 1372q-138 0 -138 -254q0 -145 40 -230t112 -85
q137 0 137 254q0 143 -39.5 229t-111.5 86zM758 1098q0 -158 -91.5 -247t-275.5 -122q-138 0 -223.5 94t-85.5 253t92 248t272 120q141 0 226.5 -94t85.5 -252zM406 -10h-158l1014 1454h157z" />
    <glyph glyph-name="ampersand" unicode="&#x26;" horiz-adv-x="1499" 
d="M745 1168q0 84 -39.5 138t-108.5 54t-117 -46t-48 -121t50 -150.5t108 -141.5q82 66 118.5 124.5t36.5 142.5zM475 698q-137 -115 -137 -270q0 -136 79.5 -217.5t187.5 -81.5q85 0 151 44.5t106 92.5zM92 342q0 219 131 310t178 126q-96 104 -145 179t-49 149
q0 136 95 217.5t325 146.5q148 0 245 -77.5t97 -187.5t-78.5 -191t-233.5 -189l340 -372l129 206l-90 15l11 78l176 -7l184 7l12 -78l-139 -21l-203 -284l248 -267l100 -20l-14 -82l-162 2l-141 -2l-168 184q-148 -148 -362 -221q-206 0 -346 105.5t-140 273.5z" />
    <glyph glyph-name="quotesingle" unicode="'" horiz-adv-x="448" 
d="M115 1202l-13 129l13 111l172 12l67 -12l13 -127l-13 -113l-143 -311l-86 35q42 94 61 169.5t19 96.5z" />
    <glyph glyph-name="parenleft" unicode="(" horiz-adv-x="577" 
d="M289 510q0 -272 59.5 -505.5t204.5 -438.5l-57 -53q-113 137 -191 246.5t-148.5 268.5t-70.5 481t70.5 481t148.5 264.5t191 232.5l57 -53q-211 -299 -237.5 -534.5t-26.5 -389.5z" />
    <glyph glyph-name="parenright" unicode=")" horiz-adv-x="577" 
d="M289 510q0 443 -96.5 632t-167.5 292l57 53q231 -256 320.5 -455.5t89.5 -522.5t-71 -481.5t-148.5 -268t-190.5 -246.5l-57 53q145 205 204.5 438.5t59.5 505.5z" />
    <glyph glyph-name="asterisk" unicode="*" horiz-adv-x="872" 
d="M317 811l-151 111l178 182l-252 43l58 176l227 -109l-35 250h186l-32 -250l225 109l59 -176l-250 -43l175 -182l-150 -111l-121 221z" />
    <glyph glyph-name="plus" unicode="+" 
d="M561 0v446h-455v144h455v465h146v-465h454v-144h-454v-446h-146z" />
    <glyph glyph-name="comma" unicode="," horiz-adv-x="454" 
d="M141 2l-10 129l10 111l174 12l66 -12l12 -129l-12 -111l-143 -311l-84 35q44 100 61.5 172.5t17.5 93.5z" />
    <glyph glyph-name="hyphen" unicode="-" horiz-adv-x="788" 
d="M82 639h625v-143h-625v143z" />
    <glyph glyph-name="period" unicode="." horiz-adv-x="483" 
d="M156 242l172 12l67 -12l13 -129l-13 -111l-174 -12l-65 12l-13 129z" />
    <glyph glyph-name="slash" unicode="/" horiz-adv-x="1019" 
d="M117 -471h-137l927 1941h133z" />
    <glyph glyph-name="zero" unicode="0" horiz-adv-x="1220" 
d="M421.5 218.5q77.5 -122.5 215.5 -122.5q109 0 173 91.5t64 216.5q0 228 -76.5 349t-215.5 121q-111 0 -174.5 -92t-63.5 -267q0 -174 77.5 -296.5zM82 469q0 411 551 532q214 0 360 -142t146 -355q0 -414 -551 -535q-213 0 -359.5 142.5t-146.5 357.5z" />
    <glyph glyph-name="one" unicode="1" horiz-adv-x="958" 
d="M621 981v-866l307 -35l-10 -82l-418 6l-420 -6l-10 82l305 35v633l10 36l-86 -41l-211 -45l-39 82l461 201h111z" />
    <glyph glyph-name="two" unicode="2" horiz-adv-x="1095" 
d="M1034 207v-74l-59 -133h-891l-43 92l358 270q149 112 218 190t69 158q0 79 -37 125t-113 46t-143 -35l-69 -232h-172v240l405 147q184 0 284.5 -74.5t100.5 -202.5t-92 -214.5t-301 -202.5l-303 -164l258 64h530z" />
    <glyph glyph-name="three" unicode="3" horiz-adv-x="995" 
d="M657 0q0 104 -86 177t-262 73l-20 65l86 39q227 98 227 304q0 108 -48 164.5t-109 56.5t-130 -33l-69 -232h-176v240l403 147q185 0 277 -78.5t92 -199.5q0 -239 -291 -358q172 -12 267 -105t95 -202t-36.5 -178.5t-99 -119t-143.5 -85t-169 -72.5l-176 -74h-238v207h451
q155 88 155 264z" />
    <glyph glyph-name="four" unicode="4" horiz-adv-x="1161" 
d="M858 129h272v-160h-272v-440h-223v440h-537l-78 103l670 899h223v-90l-700 -785l88 33h334v213l168 141h55v-354z" />
    <glyph glyph-name="five" unicode="5" horiz-adv-x="1009" 
d="M836.5 -200.5q-111.5 -99.5 -332.5 -192.5l-178 -78h-234v207h436q88 49 125 128t37 141q0 128 -70.5 208t-201.5 80q-93 0 -197 -43l-67 -27l-58 37l90 711h732v-74l-56 -131h-588l-53 -408l248 127q239 0 359 -122t120 -293t-111.5 -270.5z" />
    <glyph glyph-name="six" unicode="6" horiz-adv-x="1157" 
d="M815 420q0 156 -57.5 233.5t-132.5 77.5q-47 0 -89 -23.5t-90 -62.5l-77 -63q0 -350 80.5 -427t146.5 -77q100 0 159.5 93t59.5 249zM930.5 146q-134.5 -117 -383.5 -177q-210 0 -327.5 161.5t-117.5 418.5q0 629 781 928l30 -93q-300 -139 -413.5 -296.5t-126.5 -387.5
l282 220q202 0 306 -130t104 -328q0 -199 -134.5 -316z" />
    <glyph glyph-name="seven" unicode="7" horiz-adv-x="1034" 
d="M41 971h907l47 -53l-600 -1389h-213v88l576 1116l10 27h-727v211z" />
    <glyph glyph-name="eight" unicode="8" horiz-adv-x="1161" 
d="M141 1090q0 267 461 374q194 0 313 -84t119 -215t-86 -222t-221 -157q164 -84 251 -178t87 -213q0 -172 -131 -269t-377 -157q-195 0 -326 106.5t-131 262.5q0 115 68 214t238 173q-265 146 -265 365zM350 379q0 -123 65.5 -211t163.5 -88t164 64t66 173
q0 165 -136 246.5t-184 110.5q-139 -102 -139 -295zM784 1090q0 183 -76.5 223.5t-127.5 40.5q-86 0 -136.5 -54.5t-50.5 -146.5q0 -126 103.5 -202.5t150.5 -106.5q137 100 137 246z" />
    <glyph glyph-name="nine" unicode="9" horiz-adv-x="1148" 
d="M216.5 823.5q132.5 116.5 385.5 177.5q208 0 326.5 -159t118.5 -422q0 -452 -283 -644t-490 -270l-30 93q294 135 404 290t128 383l-282 -219q-202 0 -306 130t-104 327t132.5 313.5zM555 893q-100 0 -160.5 -89t-60.5 -244t55 -235.5t129 -80.5q51 0 91 22.5t93 63.5
l78 61q0 502 -225 502z" />
    <glyph glyph-name="colon" unicode=":" horiz-adv-x="520" 
d="M166 971l172 12l68 -12l12 -127l-12 -113l-175 -12l-65 12l-12 129zM166 242l172 12l68 -12l12 -129l-12 -111l-175 -12l-65 12l-12 129z" />
    <glyph glyph-name="semicolon" unicode=";" horiz-adv-x="561" 
d="M166 2l-12 129l12 111l172 12l68 -12l12 -129l-12 -111l-144 -311l-86 35q82 184 82 266zM166 971l172 12l68 -12l12 -127l-12 -113l-175 -12l-65 12l-12 129z" />
    <glyph glyph-name="less" unicode="&#x3c;" 
d="M1167 1122v-170l-866 -364l866 -365v-172l-1065 473v123z" />
    <glyph glyph-name="equal" unicode="=" 
d="M1161 229h-1055v146h1055v-146zM1161 629h-1055v145h1055v-145z" />
    <glyph glyph-name="greater" unicode="&#x3e;" 
d="M1167 647v-123l-1065 -473v172l867 365l-867 364v170z" />
    <glyph glyph-name="question" unicode="?" horiz-adv-x="880" 
d="M225 233l172 13l68 -13l12 -127l-12 -112l-174 -12l-66 12l-12 129zM516 1094q0 102 -44 172.5t-142 70.5l-39 -155h-158v243l211 23q221 -29 327.5 -130t106.5 -247q0 -196 -115.5 -265t-170.5 -93l-80 -37l-15 -213h-121l-12 278l80 45q78 45 125 125.5t47 182.5z" />
    <glyph glyph-name="at" unicode="@" horiz-adv-x="1884" 
d="M739 516q0 -68 40 -112t108 -44l233 261l66 245l-156 107q-156 -67 -223.5 -191.5t-67.5 -265.5zM543 471q0 170 99 312t267 214l224 101l245 -137l-168 -699q63 4 136 42t172.5 154t99.5 353q0 236 -150 376t-407 140q-137 0 -272.5 -50t-243 -147.5t-175 -238.5
t-67.5 -319q0 -333 209 -505.5t510 -172.5q119 0 211 33.5t151 62.5l35 -64q-257 -131 -487 -159q-371 0 -600.5 212.5t-229.5 546.5q0 291 195.5 520.5t521.5 329.5l189 56q369 0 576.5 -173t207.5 -444q0 -129 -52 -243.5t-138 -200.5t-196 -136.5t-226 -50.5l-121 127
l88 240q-16 -31 -305 -371q-121 0 -210 80.5t-89 210.5z" />
    <glyph glyph-name="A" unicode="A" horiz-adv-x="1521" 
d="M711 1116l-11 113l-223 -654h424zM442 473l-125 -367l170 -26l-10 -82l-235 6l-213 -6l-11 82l146 24l491 1309l185 45l512 -1356l151 -22l-10 -82l-319 6l-259 -6l-10 82l162 26l-129 367h-496z" />
    <glyph glyph-name="B" unicode="B" horiz-adv-x="1333" 
d="M997 410q0 129 -79.5 212t-225.5 83h-198v-601l161 -12q178 0 260 94.5t82 223.5zM494 801h153q122 0 196.5 87.5t74.5 202.5q0 116 -59.5 182t-182.5 68l-182 -12v-528zM1087 902q-95 -96 -245 -132q209 -10 315.5 -109.5t106.5 -244.5q0 -274 -214 -338t-333 -80
l-373 6l-272 -6l-11 82l175 26v1221l-175 27l11 82l272 -6l453 6q185 0 285 -93t100 -219t-95 -222z" />
    <glyph glyph-name="C" unicode="C" horiz-adv-x="1445" 
d="M76 692q0 663 798 778q204 0 325.5 -62t158.5 -87v-309h-127l-66 194q-117 146 -347 146q-84 0 -172.5 -40t-188 -160.5t-99.5 -397.5q0 -276 141.5 -472t377.5 -196q96 0 163.5 41t114.5 84l107 233h122l-47 -327q-151 -70 -295.5 -107t-218.5 -47q-310 0 -528.5 195.5
t-218.5 533.5z" />
    <glyph glyph-name="D" unicode="D" horiz-adv-x="1533" 
d="M1044 1172.5q-132 170.5 -368 166.5l-182 -10v-1214l237 -19q100 -2 183 45t172.5 177.5t89.5 407.5q0 276 -132 446.5zM1279.5 230.5q-176.5 -197.5 -525.5 -232.5l-416 6l-266 -6l-11 82l175 26v1221l-175 27l11 82l268 -6l430 6q323 0 504.5 -175.5t181.5 -503.5
q0 -329 -176.5 -526.5z" />
    <glyph glyph-name="E" unicode="E" horiz-adv-x="1304" 
d="M1190 1436l20 -379h-84l-118 266l-514 6v-528l264 8l82 217h86l-21 -266l21 -283h-86l-82 217l-264 8v-598l536 7l137 276h93l-70 -389l-836 6l-282 -6l-11 82l175 26v1221l-175 27l11 82l282 -6z" />
    <glyph glyph-name="F" unicode="F" horiz-adv-x="1241" 
d="M72 -2l-11 82l175 26v1221l-175 27l11 82l282 -6l836 6l20 -385h-84l-118 272l-514 6v-557l264 8l82 215h86l-21 -266l21 -283h-86l-82 218l-264 8v-566l245 -26l-10 -82l-375 6z" />
    <glyph glyph-name="G" unicode="G" horiz-adv-x="1531" 
d="M76 686q0 517 303 636.5t483 147.5q256 0 496 -151v-307h-119l-65 188q-45 55 -132.5 103.5t-203.5 48.5q-226 0 -353 -161t-127 -438q0 -276 140.5 -471.5t377.5 -195.5q126 0 228 92v385l-184 27l10 84l305 -6l240 6l12 -84l-123 -27v-440q-287 -120 -559 -160
q-143 0 -275.5 47t-293 195.5t-160.5 480.5z" />
    <glyph glyph-name="H" unicode="H" horiz-adv-x="1591" 
d="M494 799h612v528l-168 27l10 82l287 -6l285 6l10 -82l-166 -27v-1221l166 -26l-10 -82l-285 6l-287 -6l-10 82l168 26v580h-612v-580l159 -26l-10 -82l-278 6l-293 -6l-11 82l175 26v1221l-175 27l11 82l293 -6l278 6l10 -82l-159 -27v-528z" />
    <glyph glyph-name="I" unicode="I" horiz-adv-x="729" 
d="M365 4l-293 -6l-11 84l175 27v1218l-175 27l11 82l293 -6l292 6l11 -82l-174 -27v-1218l174 -27l-11 -84z" />
    <glyph glyph-name="J" unicode="J" horiz-adv-x="747" 
d="M532 240q0 -145 -43 -236.5t-106 -159.5l-186 -202h-195v211h223l19 43q26 71 28 155t2 144v1132l-225 27l10 82l347 -6l280 6l10 -82l-164 -27v-1087z" />
    <glyph glyph-name="K" unicode="K" horiz-adv-x="1484" 
d="M553 799l553 528l-150 27l11 82l221 -6l223 6l10 -82l-157 -31l-570 -545l68 -33l598 -643l106 -22l-10 -82l-174 6l-192 -6l-564 657l-32 68v-617l147 -26l-10 -82l-266 6l-293 -6l-11 82l175 26v1221l-175 27l11 82l293 -6l266 6l10 -82l-147 -27v-559z" />
    <glyph glyph-name="L" unicode="L" horiz-adv-x="1222" 
d="M354 4l-282 -6l-11 82l175 26v1221l-175 27l11 82l282 -6l303 6l11 -82l-174 -27v-1223l489 7l145 282h86l-71 -395z" />
    <glyph glyph-name="M" unicode="M" horiz-adv-x="1949" 
d="M1421 1436l250 -6l207 6l10 -82l-166 -27v-1221l158 -26l-10 -82l-264 6l-299 -6l-11 82l172 26v938l29 242l-498 -1286h-155l-404 1038l-69 244v-1176l170 -26l-15 -82l-219 6l-227 -6l-10 82l157 26v1217l-166 31l11 82l202 -6l275 6l407 -1055l9 -137z" />
    <glyph glyph-name="N" unicode="N" horiz-adv-x="1517" 
d="M1323 -4h-139l-764 1063l-41 162v-1115l164 -26l-8 -82l-222 6l-241 -6l-11 82l175 26v1211l-168 37l10 82l180 -6l182 6l690 -938l50 -146v975l-164 27l8 82l221 -6l242 6l10 -82l-174 -27v-1331z" />
    <glyph glyph-name="O" unicode="O" horiz-adv-x="1622" 
d="M442 348.5q84 -141.5 176.5 -202t212.5 -60.5q222 0 327.5 165t105.5 428q0 262 -119 465.5t-361 203.5q-211 0 -318.5 -164t-107.5 -429t84 -406.5zM1366 221q-180 -188 -578 -258q-317 0 -514.5 203t-197.5 530t179.5 515.5t578.5 258.5q318 0 515 -203t197 -531
q0 -327 -180 -515z" />
    <glyph glyph-name="P" unicode="P" horiz-adv-x="1249" 
d="M494 727h157q129 0 215 86t86 226t-74.5 222t-215.5 82l-168 -14v-602zM1233 1065q0 -319 -531 -453h-208v-506l245 -26l-10 -82l-364 6l-293 -6l-11 82l175 26v1221l-175 27l11 82l286 -6l430 6q304 0 374.5 -137.5t70.5 -233.5z" />
    <glyph glyph-name="Q" unicode="Q" horiz-adv-x="1622" 
d="M442 348.5q84 -141.5 176.5 -202t212.5 -60.5q222 0 327.5 165t105.5 428q0 262 -119 465.5t-361 203.5q-211 0 -318.5 -164t-107.5 -429t84 -406.5zM788 -37q-317 0 -514.5 203t-197.5 530t179.5 515.5t578.5 258.5q318 0 515 -203t197 -515q0 -311 -147.5 -493.5
t-470.5 -264.5l200 -76l209 -151l127 -33l-8 -80h-338z" />
    <glyph glyph-name="R" unicode="R" horiz-adv-x="1423" 
d="M494 760h139q141 0 230 85t89 222t-79.5 205.5t-196.5 70.5l-182 -14v-569zM494 655v-549l165 -26l-10 -82l-284 6l-293 -6l-11 82l175 26v1221l-175 27l11 82l293 -6l409 6q318 0 389.5 -133.5t71.5 -221.5q0 -158 -122 -255t-312 -140l176 -92l332 -485l104 -31l-8 -80
l-193 6l-153 -6l-418 635l-25 22h-122z" />
    <glyph glyph-name="S" unicode="S" horiz-adv-x="1171" 
d="M119 1051q0 310 508 419q104 0 209.5 -31.5t185.5 -86.5v-295h-121l-59 186q-41 43 -96.5 74t-159.5 31t-168 -56.5t-64 -141.5t49.5 -136t128.5 -88l250 -113q143 -68 224 -155.5t80 -237.5t-126.5 -271.5t-410.5 -185.5q-240 0 -430 139l-45 301h157l70 -180
q115 -133 301 -133q104 0 172 67t68 167t-54.5 160.5t-146.5 101.5l-248 114q-200 91 -237 187t-37 164z" />
    <glyph glyph-name="T" unicode="T" horiz-adv-x="1261" 
d="M31 1051v385l604 -6l596 6v-385h-92l-97 272l-282 4v-1221l227 -26l-10 -82l-346 6l-355 -6l-10 82l236 26v1221l-283 -4l-98 -272h-90z" />
    <glyph glyph-name="U" unicode="U" horiz-adv-x="1503" 
d="M471 489q0 -395 334 -395q160 0 242.5 104.5t82.5 297.5v831l-178 27l11 82l262 -6l237 6l11 -82l-170 -27v-819q0 -211 -110.5 -342.5t-406.5 -202.5q-453 0 -517 211t-64 334v819l-174 27l10 82l281 -6l301 6l10 -82l-162 -27v-838z" />
    <glyph glyph-name="V" unicode="V" horiz-adv-x="1495" 
d="M678 -33l-518 1362l-150 25l10 82l318 -6l260 6l10 -82l-164 -27l351 -977l6 -123l389 1100l-170 27l10 82l232 -6l213 6l10 -82l-146 -25l-499 -1313z" />
    <glyph glyph-name="W" unicode="W" horiz-adv-x="2060" 
d="M1335 -33l-284 867l-4 129l-295 -940l-164 -56l-449 1362l-121 25l11 82l286 -6l248 6l10 -82l-165 -27l292 -938l5 -131l258 852l-74 219l-117 25l10 82l283 -6l246 6l10 -82l-164 -27l293 -940l6 -129l320 1071l-172 25l10 82l223 -6l195 6l10 -82l-123 -25l-418 -1306
z" />
    <glyph glyph-name="X" unicode="X" horiz-adv-x="1480" 
d="M1460 82l-10 -84l-270 6l-324 -6l-10 84l164 27l-271 417l-34 86l-347 -506l158 -24l-10 -84l-252 6l-223 -6l-11 84l160 24l436 594l-421 631l-150 25l10 82l277 -8l323 8l11 -82l-162 -27l246 -399l26 -82l328 479l-168 27l10 82l252 -6l223 6l11 -82l-156 -25
l-410 -561l455 -662z" />
    <glyph glyph-name="Y" unicode="Y" horiz-adv-x="1468" 
d="M868 559l2 -453l230 -26l-10 -82l-349 6l-356 -6l-10 82l237 26v459l-452 766l-150 25l10 80l291 -6l285 6l10 -80l-164 -27l342 -577l11 -88l356 665l-168 27l10 80l236 -6l219 6l10 -80l-149 -23z" />
    <glyph glyph-name="Z" unicode="Z" horiz-adv-x="1196" 
d="M109 1061v373h995l22 -95l-755 -1165l-90 -72l630 11l144 280h110l-73 -393h-1031l-22 104l749 1153l91 72l-572 -10l-98 -258h-100z" />
    <glyph glyph-name="bracketleft" unicode="[" horiz-adv-x="681" 
d="M342 1034l-1 -92l-2 -226l3 -677q2 -190 6 -410l262 -20v-82l-276 6l-170 -6v1937l170 -6l276 6v-82l-262 -20q-4 -174 -6 -328z" />
    <glyph glyph-name="backslash" unicode="\" horiz-adv-x="897" 
d="M-82 1470h133l928 -1941h-137z" />
    <glyph glyph-name="bracketright" unicode="]" horiz-adv-x="681" 
d="M338 39l6 551l-6 444q-2 154 -4 328l-262 20v82l276 -6l170 6v-1937l-170 6l-276 -6v82l262 20q2 219 4 410z" />
    <glyph glyph-name="asciicircum" unicode="^" horiz-adv-x="800" 
d="M281 942h-179l252 502h92l252 -502h-178l-119 289z" />
    <glyph glyph-name="underscore" unicode="_" horiz-adv-x="1157" 
d="M10 -147h1137v-125h-1137v125z" />
    <glyph glyph-name="grave" unicode="`" horiz-adv-x="1024" 
d="M532 1124l-239 357h248l92 -357h-101z" />
    <glyph glyph-name="a" unicode="a" horiz-adv-x="991" 
d="M838 281q0 -104 32 -154h101l10 -82l-303 -61l-66 161l-239 -176q-137 0 -224.5 72t-87.5 186t80 207l459 150v110q0 92 -21.5 136t-93.5 44t-147 -34l-33 -178h-211v172l393 167q208 0 279.5 -66.5t71.5 -254.5v-399zM332 157.5q35 -30.5 82 -30.5t114 47l72 49v275
l-260 -107q-43 -47 -43 -125t35 -108.5z" />
    <glyph glyph-name="b" unicode="b" horiz-adv-x="1144" 
d="M823 459q0 178 -56 266t-138 88t-176 -76l-54 -41v-540q66 -78 178 -78t179 101.5t67 279.5zM1071 539q0 -489 -530 -570q-185 0 -264.5 37t-112.5 53v1258l-133 -4l-11 82l267 59l112 8v-655l265 194q168 0 287.5 -128t119.5 -334z" />
    <glyph glyph-name="c" unicode="c" horiz-adv-x="950" 
d="M547 -31q-211 0 -342 131t-131 356t142 359t362 186q84 0 166.5 -29.5t132.5 -72.5v-231h-189l-47 186q-36 29 -98 29q-92 0 -155.5 -97.5t-63.5 -262.5t86.5 -270.5t226.5 -105.5q104 0 221 80l41 -84q-139 -106 -352 -174z" />
    <glyph glyph-name="d" unicode="d" horiz-adv-x="1161" 
d="M317 511q0 -171 56.5 -263t140.5 -92t174 71l53 41v541q-61 74 -177 74t-181.5 -100.5t-65.5 -271.5zM977 268q0 -100 35 -145h102l8 -84l-303 -55l-63 166l-258 -181q-194 0 -311 131.5t-117 350.5q0 359 192.5 445.5t302.5 104.5q66 0 176 -55v367l-133 -4l-10 82
l258 63l121 8v-1194z" />
    <glyph glyph-name="e" unicode="e" horiz-adv-x="989" 
d="M514 887q-94 0 -144.5 -77t-60.5 -206l365 21q0 119 -33 190.5t-127 71.5zM66 455q0 219 116.5 353t360.5 193q289 0 333 -154.5t44 -234.5v-96h-611q0 -160 85.5 -264.5t218.5 -104.5t270 84l39 -84q-145 -110 -373 -178q-204 0 -343.5 133.5t-139.5 352.5z" />
    <glyph glyph-name="f" unicode="f" horiz-adv-x="751" 
d="M457 942h260v-106h-260v-734l225 -16l-10 -88l-346 6l-226 -6l-10 82l131 22v734h-172v41l66 75h106v23q0 88 30 152.5t89 127.5l188 199h269v-182h-267l-34 -51q-39 -60 -39 -222v-57z" />
    <glyph glyph-name="g" unicode="g" horiz-adv-x="1091" 
d="M1081 1001v-186h-141l-53 -31q16 -45 16 -90q0 -141 -102.5 -229t-315.5 -143q-50 0 -96 8l-90 -109q0 -72 88 -71h377q137 0 205.5 -61t68.5 -145t-81.5 -205.5t-462.5 -240.5q-455 0 -455 271v41l231 161q-140 48 -156 115.5t-16 103.5v27l211 137q-98 37 -155.5 110
t-57.5 171q0 139 103.5 226t316.5 140q226 0 332 -143l102 143h131zM254 -209q0 -62 68.5 -110t197.5 -48t212 64t83 153q0 107 -174 107h-291q-96 -104 -96 -166zM676 602q0 132 -46.5 214.5t-135.5 82.5t-129.5 -59.5t-40.5 -129.5q0 -133 46 -208.5t135 -75.5t130 54
t41 122z" />
    <glyph glyph-name="h" unicode="h" horiz-adv-x="1228" 
d="M815 678q0 139 -121 139q-45 0 -96 -26.5t-104 -59.5l-56 -35v-594l103 -22l-11 -82l-204 6l-244 -6l-10 82l131 22v1213l-133 -4l-11 82l267 61l112 8v-655l305 194q187 0 248.5 -74.5t61.5 -269.5v-555l141 -22l-10 -82l-244 6l-207 -6l-10 82l92 22v576z" />
    <glyph glyph-name="i" unicode="i" horiz-adv-x="620" 
d="M215 1417l168 13l61 -13l13 -125l-25 -106l-166 -12l-61 12l-12 125zM326 4l-244 -6l-10 82l133 22v734l-133 -9l-11 82l267 60l112 8v-875l140 -22l-11 -82z" />
    <glyph glyph-name="j" unicode="j" horiz-adv-x="577" 
d="M207 8v828l-133 -9l-11 82l267 60l112 8v-936q0 -119 -44 -196.5t-103 -141.5l-172 -184h-172v205h205l18 45q33 91 33 239zM217 1417l168 13l61 -13l13 -125l-25 -106l-166 -12l-61 12l-12 125z" />
    <glyph glyph-name="k" unicode="k" horiz-adv-x="1159" 
d="M956 4l-129 -6l-358 465l-27 65v-426l99 -22l-11 -82l-211 6l-235 -6l-10 82l133 22v1211l-135 -4l-11 84l267 61l114 8v-901l56 25l329 282l-82 23v82l189 -6l168 6l12 -82l-115 -23l-372 -299l53 -32l381 -435l88 -22l-12 -82z" />
    <glyph glyph-name="l" unicode="l" horiz-adv-x="610" 
d="M326 4l-244 -6l-10 82l131 22v1211l-133 -4l-11 84l267 61l112 8v-1360l142 -22l-11 -82z" />
    <glyph glyph-name="m" unicode="m" horiz-adv-x="1804" 
d="M797 678q0 139 -109 139q-72 0 -190 -84l-56 -39v-592l93 -22l-11 -82l-202 6l-238 -6l-10 82l133 22v732l-135 -11l-11 84l263 62l102 6l10 -168l283 194q150 0 218.5 -45t88.5 -153l289 198q188 0 250.5 -73t62.5 -271v-555l141 -22l-10 -82l-239 6l-211 -6l-11 82
l93 22v576q0 139 -109 139q-74 0 -192 -84l-54 -39v-592l84 -22l-10 -82l-192 6l-195 -6l-10 82l84 22v576z" />
    <glyph glyph-name="n" unicode="n" horiz-adv-x="1232" 
d="M1057 676v-574l141 -22l-10 -82l-244 6l-211 -6l-10 82l94 22v576q0 139 -123 139q-51 0 -100 -26.5t-98 -59.5l-54 -37v-592l101 -22l-11 -82l-204 6l-244 -6l-10 82l133 22v732l-135 -11l-11 84l267 62l104 6l6 -170l307 196q187 0 249.5 -69t62.5 -256z" />
    <glyph glyph-name="o" unicode="o" horiz-adv-x="1114" 
d="M534 893q-218 0 -219 -382q0 -185 75 -309t186 -124q219 0 219 388q0 192 -75.5 309.5t-185.5 117.5zM908.5 145.5q-138.5 -132.5 -384.5 -176.5q-199 0 -328.5 138t-129.5 354q0 346 202.5 431.5t319.5 108.5q199 0 329 -138t130 -362q0 -223 -138.5 -355.5z" />
    <glyph glyph-name="p" unicode="p" horiz-adv-x="1144" 
d="M834 460q0 181 -57.5 271t-133.5 90t-180 -82l-53 -41v-520q70 -100 196 -100q100 0 164 100.5t64 281.5zM1081 532q0 -370 -201.5 -458.5t-324.5 -104.5q-71 0 -145 37v-375l202 -22l-10 -82l-309 6l-242 -6l-10 82l133 22v1207l-133 -11l-10 80l262 62l100 6l13 -170
l266 196q180 0 294.5 -127t114.5 -342z" />
    <glyph glyph-name="q" unicode="q" horiz-adv-x="1120" 
d="M979 991v-1362l131 -20l-10 -82l-238 6l-313 -6l-10 82l204 20v512l-233 -172q-201 0 -320.5 132t-119.5 362t131.5 365t373.5 173q128 0 281 -83l74 73h49zM537 147q50 0 112 39l94 64v524q-23 49 -61.5 80t-108.5 31q-121 0 -188.5 -99.5t-67.5 -271.5t64 -269.5
t156 -97.5z" />
    <glyph glyph-name="r" unicode="r" horiz-adv-x="854" 
d="M825 991v-239h-176q-73 -20 -178 -140l-35 -41v-465l217 -20l-10 -88l-319 6l-242 -6l-10 82l133 22v732l-133 -11l-11 84l256 62l95 8l12 -293l225 307h176z" />
    <glyph glyph-name="s" unicode="s" horiz-adv-x="892" 
d="M474 891q-58 0 -102 -30t-44 -80t34.5 -81.5t112.5 -70.5l156 -78q192 -96 192 -256q0 -82 -27.5 -132t-96.5 -99t-277 -95q-126 0 -320 86l-39 258h134l63 -163q80 -66 165 -66t124 38t39 95t-31 90t-108 72l-158 82q-76 39 -130.5 98t-54.5 159t92.5 168t295.5 115
q104 0 181 -27.5t118 -55.5v-230h-113l-47 148q-18 16 -59.5 35.5t-99.5 19.5z" />
    <glyph glyph-name="t" unicode="t" horiz-adv-x="759" 
d="M438 262q0 -125 110 -125q63 0 159 49l38 -77l-253 -140q-156 0 -222.5 61.5t-66.5 211.5v598h-193v34l76 78h121v135l158 142h71v-289h295v-100h-293v-578z" />
    <glyph glyph-name="u" unicode="u" horiz-adv-x="1181" 
d="M401 299q1 -143 121 -143q56 0 106 25.5t101 60.5l39 26v566l-115 -11l-10 90l238 56l123 8v-707q0 -97 26 -149h94l9 -82l-295 -55l-60 172l-293 -187q-190 0 -255.5 69t-65.5 257v539l-131 -11l-10 90l256 56l122 8v-678z" />
    <glyph glyph-name="v" unicode="v" horiz-adv-x="1132" 
d="M606 150l240 718l-96 23l10 82l186 -6l166 6l10 -82l-127 -23l-327 -839l-181 -60l-360 899l-117 23l10 82l252 -6l224 6l10 -82l-125 -23l209 -569z" />
    <glyph glyph-name="w" unicode="w" horiz-adv-x="1744" 
d="M893 535l-10 137l-236 -641l-190 -60l-332 897l-115 23l10 82l242 -6l207 6l10 -82l-108 -23l192 -575l17 -137l225 620l-37 92l-84 23l10 82l211 -6l205 6l10 -82l-106 -23l192 -575l17 -137l245 712l-94 23l10 82l156 -6l184 6l11 -82l-125 -23l-320 -837l-190 -60z
" />
    <glyph glyph-name="x" unicode="x" horiz-adv-x="1140" 
d="M418 80l-10 -82l-181 6l-196 -6l-11 82l132 20l305 361l-297 407l-123 21l10 84l238 -6l233 6l10 -84l-82 -21l142 -209l16 -59l201 268l-90 21l10 84l170 -6l197 6l10 -84l-135 -21l-275 -321l324 -447l114 -20l-10 -82l-229 6l-234 -6l-12 82l86 20l-172 238l-20 57
l-217 -295z" />
    <glyph glyph-name="y" unicode="y" horiz-adv-x="1132" 
d="M176 -481v235h205l203 295l-125 -39l-332 860l-117 21l10 82l252 -6l224 6l10 -82l-125 -21l209 -571l20 -156l232 725l-97 21l11 84l184 -6l172 6l10 -84l-127 -21l-311 -825l-231 -524h-277z" />
    <glyph glyph-name="z" unicode="z" horiz-adv-x="985" 
d="M125 676v295h768l33 -66l-527 -758l-75 -57l403 14l107 215h100l-57 -319h-785l-29 68l527 751l80 62l-385 -13l-68 -192h-92z" />
    <glyph glyph-name="braceleft" unicode="{" horiz-adv-x="714" 
d="M539 1464h98v-82h-88q-98 0 -118.5 -76.5t-18.5 -138.5l12 -379q0 -85 -32 -145.5t-130 -105.5l162 -107l-12 -604q-4 -111 35 -163t102 -52h88v-82h-105q-131 0 -217 78t-86 209l2 583l-135 123v29q127 41 131 119t4 118l-2 390q0 131 89 208.5t221 77.5z" />
    <glyph glyph-name="bar" unicode="|" horiz-adv-x="579" 
d="M225 1470h129v-1972h-129v1972z" />
    <glyph glyph-name="braceright" unicode="}" horiz-adv-x="714" 
d="M164 1382h-88v82h98q131 0 220 -77.5t89 -208.5l-2 -521l135 -122v-29q-127 -41 -131 -119t-4 -119l2 -452q0 -131 -86 -209t-217 -78h-104v82h88q97 0 118 76.5t19 138.5l-12 442q0 86 32 147.5t130 104.5l-162 107l12 540q4 113 -35 164t-102 51z" />
    <glyph glyph-name="asciitilde" unicode="~" horiz-adv-x="1370" 
d="M1186 653h82l-80 -196l-191 -58l-725 115l-88 -108h-82l76 186l201 65l719 -114z" />
    <glyph glyph-name="exclamdown" unicode="&#xa1;" horiz-adv-x="575" 
d="M410 727l-174 -12l-66 12l-12 127l12 113l172 12l68 -12l10 -129zM186 127l45 360h115l47 -358l15 -614h-238z" />
    <glyph glyph-name="cent" unicode="&#xa2;" horiz-adv-x="980" 
d="M680 147q92 0 209 80l41 -84q-129 -98 -312 -161v-146h-124v139q-186 25 -299 152.5t-113 326t115.5 325.5t308.5 192v155h125v-127q80 -4 155.5 -31.5t120.5 -68.5v-231h-188l-47 186q-36 29 -95 29q-110 0 -177.5 -100.5t-67.5 -261.5t91.5 -267.5t256.5 -106.5z" />
    <glyph glyph-name="sterling" unicode="&#xa3;" horiz-adv-x="1191" 
d="M1028 1167h-139l-33 138q-53 57 -124 57q-70 0 -142 -50t-72 -231v-317h348v-119h-348v-276q0 -191 -72 -263l459 7l96 204h109l-51 -317l-680 6l-283 -6l-10 72l195 92v481h-181v35l80 84h101v256q0 185 108 283.5t363 160.5q202 0 276 -100v-197z" />
    <glyph glyph-name="currency" unicode="&#xa4;" 
d="M188 721q0 152 97 274l-123 123l94 94l125 -127q116 82 255.5 82t258.5 -80l121 121l96 -96l-119 -119q97 -123 97 -271t-82 -263l108 -107l-94 -94l-104 104q-121 -96 -277 -96t-281 94l-110 -110l-96 96l114 115q-80 108 -80 260zM305 716.5q0 -67.5 26.5 -129
t72 -106.5t106.5 -71.5t129 -26.5t129 26.5t106.5 71.5t72 106.5t26.5 129t-26.5 129t-72 106.5t-106.5 72t-129 27t-129 -27t-106.5 -72t-72 -106.5t-26.5 -129z" />
    <glyph glyph-name="yen" unicode="&#xa5;" horiz-adv-x="1396" 
d="M1145 557v-98h-303v-101h303v-98h-303v-154l231 -26l-10 -82l-346 6l-355 -6l-10 82l238 26v154h-297v98h297v101h-297v98h293l-396 774l-149 23l10 84l291 -6l285 6l10 -84l-164 -27l277 -596l14 -98l285 694l-168 27l10 84l237 -6l218 6l10 -82l-150 -23l-360 -776h299
z" />
    <glyph glyph-name="brokenbar" unicode="&#xa6;" horiz-adv-x="577" 
d="M225 379h127v-881h-127v881zM225 1470h127v-880h-127v880z" />
    <glyph glyph-name="section" unicode="&#xa7;" horiz-adv-x="1124" 
d="M375 770q-99 -51 -99 -149t65.5 -166t225.5 -185l178 -129q41 37 76 93.5t35 152.5v31l-332 233q-39 29 -72.5 53.5t-76.5 65.5zM1042 494q0 -289 -231 -418q53 -51 88 -98.5t35 -129.5q0 -135 -101.5 -222t-324.5 -128q-111 0 -203 39t-133 84v225h131l29 -145
q44 -62 102 -82t94 -20q94 0 146.5 45.5t52.5 111.5t-28.5 111t-71.5 83t-95 70.5t-106 70.5q-153 107 -248.5 208.5t-95.5 222.5q0 202 231 309q-93 109 -110 160t-17 94q0 295 441 381q104 0 181 -26.5t112 -73.5v-221h-132l-26 147q-55 74 -158 74q-139 0 -175 -67.5
t-36 -118.5q0 -96 68.5 -176t216.5 -183l364 -246v-81z" />
    <glyph glyph-name="dieresis" unicode="&#xa8;" horiz-adv-x="1024" 
d="M606 1415l133 10l58 -10l10 -108l-23 -90l-131 -13l-55 13l-12 108zM225 1415l135 10l56 -10l12 -108l-22 -90l-132 -13l-57 13l-10 108z" />
    <glyph glyph-name="copyright" unicode="&#xa9;" horiz-adv-x="1703" 
d="M1182 881h-78l-37 108q-65 82 -183 82t-193 -85t-75 -245t78.5 -268t208.5 -108q83 0 158 67l61 135h76l-27 -190q-157 -68 -299 -88q-178 0 -304 110t-126 301q0 292 177.5 360t279.5 85q151 0 283 -84v-180zM102 720q0 324 200.5 509t547.5 235q150 -2 287 -53
t301 -207t164 -485t-199.5 -513.5t-548.5 -236.5q-317 4 -473 151.5t-217.5 288t-61.5 311.5zM866 61q108 0 219 43t246 175t135 426q0 172 -60 297.5t-152.5 207.5t-200 122t-215.5 40t-219 -43t-246 -175t-135 -425q0 -172 60 -298t152.5 -208t200 -122t215.5 -40z" />
    <glyph glyph-name="ordfeminine" unicode="&#xaa;" horiz-adv-x="890" 
d="M705 887q0 -75 24 -123h82l8 -68l-244 -47l-51 129l-192 -141q-111 0 -180.5 57.5t-69.5 145.5t63 172l369 118v89q0 74 -16.5 109.5t-74.5 35.5t-120 -27l-24 -145h-170v139l315 135q162 0 221.5 -54.5t59.5 -203.5v-321zM270 878q0 -64 28 -89t60.5 -25t57 13.5
t41.5 23.5l57 41v219l-211 -86q-33 -33 -33 -97z" />
    <glyph glyph-name="guillemotleft" unicode="&#xab;" horiz-adv-x="1005" 
d="M401 31l-370 450l372 451h132l-261 -453l261 -448h-134zM811 31l-371 450l373 451h131l-260 -453l260 -448h-133z" />
    <glyph glyph-name="logicalnot" unicode="&#xac;" 
d="M1161 369h-143v256h-912v143h1055v-399z" />
    <glyph glyph-name="softhyphen" unicode="&#xad;" horiz-adv-x="747" 
d="M76 639h596v-135h-596v135z" />
    <glyph glyph-name="registered" unicode="&#xae;" horiz-adv-x="1218" 
d="M537 920h53q45 0 76.5 27.5t31.5 79.5t-29.5 77.5t-72.5 25.5l-59 -6v-204zM229 1240q137 127 377 163q214 0 367 -140t153 -380q0 -321 -199.5 -404.5t-316.5 -99.5q-214 0 -366 141.5t-152 367.5q0 225 137 352zM842 1034q0 -111 -187 -145l95 -41l122 -178l39 -11
l-2 -43l-96 2l-70 -2l-161 244l-11 8h-34v-200l61 -9l-4 -43l-125 2l-129 -2l-4 43l65 9v454l-65 8l4 41l127 -2l192 2q78 0 130.5 -35.5t52.5 -101.5zM618 436q74 0 151 31t171 121t94 301t-136.5 334t-297.5 123q-74 0 -151.5 -31t-171 -123t-93.5 -301t137 -332t297 -123
z" />
    <glyph glyph-name="macron" unicode="&#xaf;" horiz-adv-x="1024" 
d="M219 1401h586v-127h-586v127z" />
    <glyph glyph-name="degree" unicode="&#xb0;" horiz-adv-x="841" 
d="M739 1226q0 -132 -74.5 -207t-242.5 -114q-133 0 -226.5 93.5t-93.5 225.5t82 202.5t238 115.5q133 0 225 -92t92 -224zM227 1224q0 -87 57.5 -143.5t135.5 -56.5t136 55t58 142.5t-57 144.5t-136 57t-136.5 -56t-57.5 -143z" />
    <glyph glyph-name="plusminus" unicode="&#xb1;" 
d="M98 143h1065v-143h-1065v143zM555 283v446h-457v143h457v465h143v-465h455v-143h-455v-446h-143z" />
    <glyph glyph-name="twosuperior" unicode="&#xb2;" horiz-adv-x="751" 
d="M670 963v-54l-41 -90h-559l-29 55l227 228q178 182 178 313t-96 131q-39 0 -74 -14l-36 -148h-148v156l285 84q123 0 197.5 -57.5t74.5 -157.5t-69.5 -180t-196.5 -168l-215 -146l145 48h357z" />
    <glyph glyph-name="threesuperior" unicode="&#xb3;" horiz-adv-x="669" 
d="M416 1076q0 60 -43 97t-135 37l-13 47l45 19q115 46 115 152q0 58 -22.5 86t-57.5 28t-59 -12l-37 -146h-148v156l285 84q177 0 202 -60.5t25 -90.5q0 -66 -47 -110t-143 -73q123 -8 179 -59t56 -109t-27.5 -93.5t-69.5 -62t-94 -49t-101 -45.5l-111 -53h-147v156h301
q47 41 47 101z" />
    <glyph glyph-name="acute" unicode="&#xb4;" horiz-adv-x="1024" 
d="M293 1124l92 357h248l-240 -357h-100z" />
    <glyph glyph-name="uni00B5" unicode="&#xb5;" 
d="M137 -471v1442h236v-629q0 -98 42 -143t97 -45t103.5 27.5t97.5 60.5l39 24v705h235v-723q0 -82 35 -120t108 -56l-12 -72h-268l-92 152l-228 -183q-206 0 -251 99v-136l122 -403h-264z" />
    <glyph glyph-name="paragraph" unicode="&#xb6;" horiz-adv-x="1036" 
d="M371 813q-132 0 -221 76t-89 204t123 214t189 127h581v-109l-106 -20v-1631h-133v1631h-211v-1631h-133v1139z" />
    <glyph glyph-name="periodcentered" unicode="&#xb7;" horiz-adv-x="483" 
d="M125 942l166 12l67 -12l13 -125l-13 -110l-168 -11l-65 11l-12 127z" />
    <glyph glyph-name="cedilla" unicode="&#xb8;" horiz-adv-x="1024" 
d="M524 -410q58 40 58 112.5t-45 103t-107 30.5l154 205l61 -33l-70 -104q66 0 116 -35t50 -93q0 -96 -58.5 -153.5t-137.5 -83.5l-105 -37h-123l60 88h147z" />
    <glyph glyph-name="onesuperior" unicode="&#xb9;" horiz-adv-x="643" 
d="M440 1614v-715l172 -20l-6 -62l-260 4l-266 -4l-6 62l172 20v559l12 35l-57 -37l-111 -16l-29 55l277 119h102z" />
    <glyph glyph-name="ordmasculine" unicode="&#xba;" horiz-adv-x="917" 
d="M473 735q176 1 176 307q0 152 -60.5 244t-148.5 92t-131 -77.5t-43 -184.5q0 -186 59.5 -283.5t147.5 -97.5zM737.5 788.5q-108.5 -105.5 -303.5 -141.5q-159 0 -260.5 109.5t-101.5 279.5q0 273 159.5 342.5t251.5 85.5q160 0 261.5 -109t101.5 -285t-108.5 -281.5z" />
    <glyph glyph-name="guillemotright" unicode="&#xbb;" horiz-adv-x="1005" 
d="M471 31l260 448l-260 453h131l373 -451l-371 -450h-133zM61 31l261 448l-261 453h132l372 -451l-370 -450h-134z" />
    <glyph glyph-name="onequarter" unicode="&#xbc;" horiz-adv-x="1703" 
d="M1477 313h145v-125h-145v-188h-170v188h-303l-54 86l402 514h153v-71l-428 -426l62 22h168v113l133 109h37v-222zM461 1440v-715l172 -20l-6 -62l-260 4l-267 -4l-6 62l172 20v559l13 35l-58 -37l-110 -16l-29 55l276 119h103zM530 -102h-129l793 1556h125z" />
    <glyph glyph-name="onehalf" unicode="&#xbd;" horiz-adv-x="1742" 
d="M1438 598q0 129 -95 129q-41 0 -73 -14l-39 -148h-148v156l285 84q123 0 197.5 -57.5t74.5 -157.5t-69.5 -180t-196.5 -168l-215 -146l148 47h354v-53l-41 -90h-559l-29 55l228 228q94 96 136 169.5t42 145.5zM461 1440v-715l172 -20l-6 -62l-260 4l-267 -4l-6 62l172 20
v559l13 35l-58 -37l-110 -16l-29 55l276 119h103zM530 -102h-129l793 1556h125z" />
    <glyph glyph-name="threequarters" unicode="&#xbe;" horiz-adv-x="1673" 
d="M436 902q0 60 -43 97t-135 37l-12 47l45 19q115 46 115 151q0 57 -23 86t-57 29t-60 -12l-37 -146h-147v156l285 84q174 0 200.5 -60.5t26.5 -91.5q0 -66 -47 -109.5t-144 -72.5q123 -8 179.5 -59t56.5 -109t-27.5 -93.5t-69.5 -62t-94.5 -49t-101.5 -45.5l-110 -53h-148
v156h301q47 41 47 101zM1444 313h147v-125h-147v-188h-168v188h-305l-51 86l401 514h154v-71l-431 -426l64 22h168v113l131 109h37v-222zM500 -102h-131l792 1556h127z" />
    <glyph glyph-name="questiondown" unicode="&#xbf;" horiz-adv-x="808" 
d="M596 725l-174 -12l-66 12l-12 127l12 113l172 10l68 -10l10 -131zM303 -136q0 -104 44 -173.5t142 -69.5l39 156h158v-244l-209 -22q-223 29 -329.5 130t-106.5 246q0 199 115.5 266.5t171.5 92.5l80 35l14 213h121l12 -279l-80 -45q-78 -45 -125 -123.5t-47 -182.5z" />
    <glyph glyph-name="Agrave" unicode="&#xc0;" horiz-adv-x="1521" 
d="M711 1116l-11 113l-223 -654h424zM442 473l-125 -367l170 -26l-10 -82l-235 6l-213 -6l-11 82l146 24l491 1309l185 45l512 -1356l151 -22l-10 -82l-319 6l-259 -6l-10 82l162 26l-129 367h-496zM666 1573l-240 274h252l123 -274h-135z" />
    <glyph glyph-name="Aacute" unicode="&#xc1;" horiz-adv-x="1521" 
d="M711 1116l-11 113l-223 -654h424zM442 473l-125 -367l170 -26l-10 -82l-235 6l-213 -6l-11 82l146 24l491 1309l185 45l512 -1356l151 -22l-10 -82l-319 6l-259 -6l-10 82l162 26l-129 367h-496zM688 1573l123 274h254l-242 -274h-135z" />
    <glyph glyph-name="Acircumflex" unicode="&#xc2;" horiz-adv-x="1521" 
d="M711 1116l-11 113l-223 -654h424zM442 473l-125 -367l170 -26l-10 -82l-235 6l-213 -6l-11 82l146 24l491 1309l185 45l512 -1356l151 -22l-10 -82l-319 6l-259 -6l-10 82l162 26l-129 367h-496zM430 1573l227 274h181l227 -274h-141l-146 121l-33 37l-28 -37l-146 -121
h-141z" />
    <glyph glyph-name="Atilde" unicode="&#xc3;" horiz-adv-x="1521" 
d="M711 1116l-11 113l-223 -654h424zM442 473l-125 -367l170 -26l-10 -82l-235 6l-213 -6l-11 82l146 24l491 1309l185 45l512 -1356l151 -22l-10 -82l-319 6l-259 -6l-10 82l162 26l-129 367h-496zM477 1784l154 45l336 -103l69 107h60l-54 -211l-153 -41l-336 102
l-70 -106h-59z" />
    <glyph glyph-name="Adieresis" unicode="&#xc4;" horiz-adv-x="1521" 
d="M711 1116l-11 113l-223 -654h424zM442 473l-125 -367l170 -26l-10 -82l-235 6l-213 -6l-11 82l146 24l491 1309l185 45l512 -1356l151 -22l-10 -82l-319 6l-259 -6l-10 82l162 26l-129 367h-496zM893 1794l133 10l57 -10l11 -106l-21 -93l-133 -12l-55 12l-13 109z
M430 1794l135 10l56 -10l12 -106l-23 -93l-131 -12l-57 12l-10 109z" />
    <glyph glyph-name="Aring" unicode="&#xc5;" horiz-adv-x="1521" 
d="M711 1116l-11 113l-223 -654h424zM442 473l-125 -367l170 -26l-10 -82l-235 6l-213 -6l-11 82l146 24l491 1309l185 45l512 -1356l151 -22l-10 -82l-319 6l-259 -6l-10 82l162 26l-129 367h-496zM621 1698q0 -53 33.5 -85t87 -32t86 32t32.5 85t-32.5 87t-86 34t-87 -34
t-33.5 -87zM963 1704q0 -94 -54.5 -134t-167.5 -71q-89 0 -156 48t-67 141t54 135.5t169 77.5q148 0 185 -72t37 -125z" />
    <glyph glyph-name="AE" unicode="&#xc6;" horiz-adv-x="2095" 
d="M1061 639h-412l-327 -533l151 -26l-10 -82l-230 6l-213 -6l-10 82l150 22l862 1334l164 -4l790 4l21 -371h-80l-119 258l-483 6v-590l237 9l82 217h80l-20 -267l20 -282h-80l-82 217l-237 8v-537l502 7l141 268h86l-72 -381l-792 6l-283 -6l-10 82l174 26v533zM1061 735
v594l-359 -594h359z" />
    <glyph glyph-name="Ccedilla" unicode="&#xc7;" horiz-adv-x="1445" 
d="M707 -410q59 41 59 113.5t-46.5 102.5t-107.5 30l107 133q-273 30 -458 221.5t-185 501.5q0 663 798 778q204 0 325.5 -62t158.5 -87v-309h-127l-66 194q-117 146 -347 146q-84 0 -172.5 -40t-188 -160.5t-99.5 -397.5q0 -276 141.5 -472t377.5 -196q96 0 163.5 41
t114.5 84l107 233h122l-47 -327q-151 -70 -295.5 -107t-218.5 -47h-18l-45 -59q66 0 116 -35t50 -93q0 -98 -61.5 -155.5t-137.5 -81.5l-104 -37h-121l59 88h146z" />
    <glyph glyph-name="Egrave" unicode="&#xc8;" horiz-adv-x="1304" 
d="M1190 1436l20 -379h-84l-118 266l-514 6v-528l264 8l82 217h86l-21 -266l21 -283h-86l-82 217l-264 8v-598l536 7l137 276h93l-70 -389l-836 6l-282 -6l-11 82l175 26v1221l-175 27l11 82l282 -6zM635 1573l-240 274h252l123 -274h-135z" />
    <glyph glyph-name="Eacute" unicode="&#xc9;" horiz-adv-x="1304" 
d="M1190 1436l20 -379h-84l-118 266l-514 6v-528l264 8l82 217h86l-21 -266l21 -283h-86l-82 217l-264 8v-598l536 7l137 276h93l-70 -389l-836 6l-282 -6l-11 82l175 26v1221l-175 27l11 82l282 -6zM600 1573l123 274h252l-240 -274h-135z" />
    <glyph glyph-name="Ecircumflex" unicode="&#xca;" horiz-adv-x="1304" 
d="M1190 1436l20 -379h-84l-118 266l-514 6v-528l264 8l82 217h86l-21 -266l21 -283h-86l-82 217l-264 8v-598l536 7l137 276h93l-70 -389l-836 6l-282 -6l-11 82l175 26v1221l-175 27l11 82l282 -6zM379 1573l225 274h182l226 -274h-142l-145 121l-31 37l-28 -37l-148 -121
h-139z" />
    <glyph glyph-name="Edieresis" unicode="&#xcb;" horiz-adv-x="1304" 
d="M1190 1436l20 -379h-84l-118 266l-514 6v-528l264 8l82 217h86l-21 -266l21 -283h-86l-82 217l-264 8v-598l536 7l137 276h93l-70 -389l-836 6l-282 -6l-11 82l175 26v1221l-175 27l11 82l282 -6zM844 1794l133 10l55 -10l12 -106l-22 -93l-133 -12l-55 12l-13 109z
M381 1794l135 10l55 -10l11 -106l-23 -93l-131 -12l-55 12l-13 109z" />
    <glyph glyph-name="Igrave" unicode="&#xcc;" horiz-adv-x="735" 
d="M373 4l-293 -6l-10 84l174 27v1218l-174 27l10 82l293 -6l293 6l10 -82l-174 -27v-1218l174 -27l-10 -84zM328 1573l-240 274h252l123 -274h-135z" />
    <glyph glyph-name="Iacute" unicode="&#xcd;" horiz-adv-x="735" 
d="M373 4l-293 -6l-10 84l174 27v1218l-174 27l10 82l293 -6l293 6l10 -82l-174 -27v-1218l174 -27l-10 -84zM303 1573l123 274h252l-240 -274h-135z" />
    <glyph glyph-name="Icircumflex" unicode="&#xce;" horiz-adv-x="735" 
d="M373 4l-293 -6l-10 84l174 27v1218l-174 27l10 82l293 -6l293 6l10 -82l-174 -27v-1218l174 -27l-10 -84zM55 1573l226 274h182l225 -274h-139l-148 121l-30 37l-29 -37l-145 -121h-142z" />
    <glyph glyph-name="Idieresis" unicode="&#xcf;" horiz-adv-x="735" 
d="M373 4l-293 -6l-10 84l174 27v1218l-174 27l10 82l293 -6l293 6l10 -82l-174 -27v-1218l174 -27l-10 -84zM483 1794l133 10l56 -10l12 -106l-22 -93l-134 -12l-55 12l-10 109zM72 1794l135 10l55 -10l12 -106l-22 -93l-133 -12l-56 12l-10 109z" />
    <glyph glyph-name="Eth" unicode="&#xd0;" horiz-adv-x="1533" 
d="M494 791h241v-95h-241v-581l237 -19q100 -2 183 45t172.5 177.5t89.5 407.5q0 276 -132 446.5t-368 166.5l-182 -10v-538zM1279.5 230.5q-176.5 -197.5 -525.5 -232.5l-416 6l-266 -6l-11 82l175 26v590h-156v95h156v536l-175 27l11 82l268 -6l430 6q323 0 504.5 -175.5
t181.5 -503.5q0 -329 -176.5 -526.5z" />
    <glyph glyph-name="Ntilde" unicode="&#xd1;" horiz-adv-x="1517" 
d="M1323 -4h-139l-764 1063l-41 162v-1115l164 -26l-8 -82l-222 6l-241 -6l-11 82l175 26v1211l-168 37l10 82l180 -6l182 6l690 -938l50 -146v975l-164 27l8 82l221 -6l242 6l10 -82l-174 -27v-1331zM508 1784l154 45l335 -103l70 107h59l-53 -211l-153 -41l-336 102
l-68 -106h-59z" />
    <glyph glyph-name="Ograve" unicode="&#xd2;" horiz-adv-x="1622" 
d="M442 348.5q84 -141.5 176.5 -202t212.5 -60.5q222 0 327.5 165t105.5 428q0 262 -119 465.5t-361 203.5q-211 0 -318.5 -164t-107.5 -429t84 -406.5zM1366 221q-180 -188 -578 -258q-317 0 -514.5 203t-197.5 530t179.5 515.5t578.5 258.5q318 0 515 -203t197 -531
q0 -327 -180 -515zM774 1573l-239 274h251l123 -274h-135z" />
    <glyph glyph-name="Oacute" unicode="&#xd3;" horiz-adv-x="1622" 
d="M442 348.5q84 -141.5 176.5 -202t212.5 -60.5q222 0 327.5 165t105.5 428q0 262 -119 465.5t-361 203.5q-211 0 -318.5 -164t-107.5 -429t84 -406.5zM1366 221q-180 -188 -578 -258q-317 0 -514.5 203t-197.5 530t179.5 515.5t578.5 258.5q318 0 515 -203t197 -531
q0 -327 -180 -515zM735 1573l123 274h252l-240 -274h-135z" />
    <glyph glyph-name="Ocircumflex" unicode="&#xd4;" horiz-adv-x="1622" 
d="M442 348.5q84 -141.5 176.5 -202t212.5 -60.5q222 0 327.5 165t105.5 428q0 262 -119 465.5t-361 203.5q-211 0 -318.5 -164t-107.5 -429t84 -406.5zM1366 221q-180 -188 -578 -258q-317 0 -514.5 203t-197.5 530t179.5 515.5t578.5 258.5q318 0 515 -203t197 -531
q0 -327 -180 -515zM512 1573l227 274h181l227 -274h-141l-146 121l-31 37l-30 -37l-146 -121h-141z" />
    <glyph glyph-name="Otilde" unicode="&#xd5;" horiz-adv-x="1622" 
d="M442 348.5q84 -141.5 176.5 -202t212.5 -60.5q222 0 327.5 165t105.5 428q0 262 -119 465.5t-361 203.5q-211 0 -318.5 -164t-107.5 -429t84 -406.5zM1366 221q-180 -188 -578 -258q-317 0 -514.5 203t-197.5 530t179.5 515.5t578.5 258.5q318 0 515 -203t197 -531
q0 -327 -180 -515zM565 1784l154 45l336 -103l69 107h60l-54 -211l-153 -41l-336 102l-70 -106h-59z" />
    <glyph glyph-name="Odieresis" unicode="&#xd6;" horiz-adv-x="1622" 
d="M442 348.5q84 -141.5 176.5 -202t212.5 -60.5q222 0 327.5 165t105.5 428q0 262 -119 465.5t-361 203.5q-211 0 -318.5 -164t-107.5 -429t84 -406.5zM1366 221q-180 -188 -578 -258q-317 0 -514.5 203t-197.5 530t179.5 515.5t578.5 258.5q318 0 515 -203t197 -531
q0 -327 -180 -515zM967 1794l133 10l55 -10l12 -106l-22 -93l-133 -12l-56 12l-12 109zM504 1794l135 10l55 -10l11 -106l-23 -93l-131 -12l-55 12l-13 109z" />
    <glyph glyph-name="multiply" unicode="&#xd7;" 
d="M967 25l-332 331l-334 -333l-102 102l336 332l-336 336l100 102l336 -336l334 334l100 -102l-334 -334l334 -332z" />
    <glyph glyph-name="Oslash" unicode="&#xd8;" horiz-adv-x="1622" 
d="M1116 1184q-126 164 -334.5 164t-316 -164t-107.5 -415t88 -423zM504 250q131 -164 340 -164t314.5 165t105.5 414t-90 427zM1329 1286q217 -204 217 -541q0 -336 -180 -524t-578 -258q-241 0 -417 121l-90 -115h-136l144 181q-213 205 -213 539q0 335 179.5 523
t578.5 258q238 0 413 -120l92 114h131z" />
    <glyph glyph-name="Ugrave" unicode="&#xd9;" horiz-adv-x="1503" 
d="M473 489q0 -395 334 -395q160 0 243 104.5t83 297.5v831l-179 27l11 82l262 -6l237 6l11 -82l-170 -27v-819q0 -211 -110.5 -342.5t-406.5 -202.5q-453 0 -517 211t-64 334v819l-174 27l10 82l281 -6l301 6l10 -82l-162 -27v-838zM737 1573l-239 274h254l120 -274h-135z
" />
    <glyph glyph-name="Uacute" unicode="&#xda;" horiz-adv-x="1503" 
d="M473 489q0 -395 334 -395q160 0 243 104.5t83 297.5v831l-179 27l11 82l262 -6l237 6l11 -82l-170 -27v-819q0 -211 -110.5 -342.5t-406.5 -202.5q-453 0 -517 211t-64 334v819l-174 27l10 82l281 -6l301 6l10 -82l-162 -27v-838zM698 1573l123 274h254l-241 -274h-136z
" />
    <glyph glyph-name="Ucircumflex" unicode="&#xdb;" horiz-adv-x="1503" 
d="M473 489q0 -395 334 -395q160 0 243 104.5t83 297.5v831l-179 27l11 82l262 -6l237 6l11 -82l-170 -27v-819q0 -211 -110.5 -342.5t-406.5 -202.5q-453 0 -517 211t-64 334v819l-174 27l10 82l281 -6l301 6l10 -82l-162 -27v-838zM975 1573l-146 121l-30 37l-31 -37
l-145 -121h-142l228 274h180l227 -274h-141z" />
    <glyph glyph-name="Udieresis" unicode="&#xdc;" horiz-adv-x="1503" 
d="M473 489q0 -395 334 -395q160 0 243 104.5t83 297.5v831l-179 27l11 82l262 -6l237 6l11 -82l-170 -27v-819q0 -211 -110.5 -342.5t-406.5 -202.5q-453 0 -517 211t-64 334v819l-174 27l10 82l281 -6l301 6l10 -82l-162 -27v-838zM940 1794l133 10l57 -10l11 -106
l-23 -93l-131 -12l-55 12l-12 109zM477 1794l135 10l56 -10l12 -106l-23 -93l-133 -12l-55 12l-12 109z" />
    <glyph glyph-name="Yacute" unicode="&#xdd;" horiz-adv-x="1468" 
d="M868 559l2 -453l230 -26l-10 -82l-349 6l-356 -6l-10 82l237 26v459l-452 766l-150 25l10 80l291 -6l285 6l10 -80l-164 -27l342 -577l11 -88l356 665l-168 27l10 80l236 -6l219 6l10 -80l-149 -23zM717 1573l123 274h252l-240 -274h-135z" />
    <glyph glyph-name="Thorn" unicode="&#xde;" horiz-adv-x="1210" 
d="M479 434h160q131 0 216 89t85 228q0 138 -74.5 220t-218.5 82l-168 -15v-604zM1219 774q0 -320 -531 -455h-209v-210l240 -27l-10 -84l-357 6l-295 -6l-10 84l174 27v1218l-174 27l10 82l295 -6l312 6l10 -82l-195 -27v-186l295 4q197 0 321 -94.5t124 -276.5z" />
    <glyph glyph-name="germandbls" unicode="&#xdf;" horiz-adv-x="1290" 
d="M463 1022v-1022l-135 4l-226 -6l-10 76l133 20v742h-174v41l66 75h108v82q0 98 67.5 195.5t217.5 167.5l158 73q316 0 382 -106.5t66 -171.5q0 -118 -77.5 -194t-250.5 -162q0 -57 29 -103.5t117 -93.5l137 -76q178 -97 178 -260q0 -187 -148.5 -251t-232.5 -89
q-130 0 -284 92l-15 228h109l49 -146q74 -59 142 -59t110.5 41t42.5 97t-27.5 101t-97.5 91l-131 79q-92 53 -129 132t-37 188l135 88q135 92 135 276q0 78 -49 137.5t-141 59.5q-217 0 -217 -346z" />
    <glyph glyph-name="agrave" unicode="&#xe0;" horiz-adv-x="991" 
d="M838 281q0 -104 32 -154h101l10 -82l-303 -61l-66 161l-239 -176q-137 0 -224.5 72t-87.5 186t80 207l459 150v110q0 92 -21.5 136t-93.5 44t-147 -34l-33 -178h-211v172l393 167q208 0 279.5 -66.5t71.5 -254.5v-399zM332 157.5q35 -30.5 82 -30.5t114 47l72 49v275
l-260 -107q-43 -47 -43 -125t35 -108.5zM520 1124l-239 357h245l95 -357h-101z" />
    <glyph glyph-name="aacute" unicode="&#xe1;" horiz-adv-x="991" 
d="M838 281q0 -104 32 -154h101l10 -82l-303 -61l-66 161l-239 -176q-137 0 -224.5 72t-87.5 186t80 207l459 150v110q0 92 -21.5 136t-93.5 44t-147 -34l-33 -178h-211v172l393 167q208 0 279.5 -66.5t71.5 -254.5v-399zM332 157.5q35 -30.5 82 -30.5t114 47l72 49v275
l-260 -107q-43 -47 -43 -125t35 -108.5zM451 1124l92 357h248l-240 -357h-100z" />
    <glyph glyph-name="acircumflex" unicode="&#xe2;" horiz-adv-x="991" 
d="M838 281q0 -104 32 -154h101l10 -82l-303 -61l-66 161l-239 -176q-137 0 -224.5 72t-87.5 186t80 207l459 150v110q0 92 -21.5 136t-93.5 44t-147 -34l-33 -178h-211v172l393 167q208 0 279.5 -66.5t71.5 -254.5v-399zM332 157.5q35 -30.5 82 -30.5t114 47l72 49v275
l-260 -107q-43 -47 -43 -125t35 -108.5zM201 1124l223 357h143l224 -357h-101l-158 170l-36 47l-37 -47l-158 -170h-100z" />
    <glyph glyph-name="atilde" unicode="&#xe3;" horiz-adv-x="991" 
d="M838 281q0 -104 32 -154h101l10 -82l-303 -61l-66 161l-239 -176q-137 0 -224.5 72t-87.5 186t80 207l459 150v110q0 92 -21.5 136t-93.5 44t-147 -34l-33 -178h-211v172l393 167q208 0 279.5 -66.5t71.5 -254.5v-399zM332 157.5q35 -30.5 82 -30.5t114 47l72 49v275
l-260 -107q-43 -47 -43 -125t35 -108.5zM215 1405l154 45l338 -111l59 107h68l-56 -217l-151 -35l-340 113l-58 -109h-67z" />
    <glyph glyph-name="adieresis" unicode="&#xe4;" horiz-adv-x="991" 
d="M838 281q0 -104 32 -154h101l10 -82l-303 -61l-66 161l-239 -176q-137 0 -224.5 72t-87.5 186t80 207l459 150v110q0 92 -21.5 136t-93.5 44t-147 -34l-33 -178h-211v172l393 167q208 0 279.5 -66.5t71.5 -254.5v-399zM332 157.5q35 -30.5 82 -30.5t114 47l72 49v275
l-260 -107q-43 -47 -43 -125t35 -108.5zM598 1415l135 10l55 -10l13 -108l-23 -90l-133 -13l-55 13l-12 108zM219 1415l133 10l56 -10l12 -108l-23 -90l-131 -13l-57 13l-10 108z" />
    <glyph glyph-name="aring" unicode="&#xe5;" horiz-adv-x="991" 
d="M838 281q0 -104 32 -154h101l10 -82l-303 -61l-66 161l-239 -176q-137 0 -224.5 72t-87.5 186t80 207l459 150v110q0 92 -21.5 136t-93.5 44t-147 -34l-33 -178h-211v172l393 167q208 0 279.5 -66.5t71.5 -254.5v-399zM332 157.5q35 -30.5 82 -30.5t114 47l72 49v275
l-260 -107q-43 -47 -43 -125t35 -108.5zM387 1308.5q0 -53.5 33 -85t86 -31.5t87 31.5t34 85t-34 87.5t-87 34t-86 -34t-33 -87.5zM727 1315q0 -94 -54.5 -134t-164.5 -71q-151 0 -188 71t-37 123q0 88 57 132t166 75q148 0 184.5 -71.5t36.5 -124.5z" />
    <glyph glyph-name="ae" unicode="&#xe6;" horiz-adv-x="1482" 
d="M297 267q0 -75 35 -105.5t73 -30.5t69.5 18.5t49.5 30.5l66 47v265l-250 -107q-43 -43 -43 -118zM1016 885q-96 0 -146.5 -78t-60.5 -199l367 19q0 119 -32 188.5t-128 69.5zM375 -31q-136 0 -225 72t-89 186t80 207l449 150v108q0 90 -18.5 136t-70.5 46q-85 0 -165 -34
l-33 -170h-207v164l383 167q123 0 196 -23.5t107 -84.5q104 72 258 108q195 0 283 -109.5t88 -285.5v-90h-602q0 -168 90 -270.5t223 -102.5t254 84l41 -84q-154 -113 -364 -174q-125 0 -230.5 50.5t-171.5 148.5z" />
    <glyph glyph-name="ccedilla" unicode="&#xe7;" horiz-adv-x="950" 
d="M440 -410q60 39 60 112t-45 103.5t-107 30.5l107 141q-171 24 -276 152t-105 340t142 346t362 186q84 0 166.5 -29.5t132.5 -72.5v-231h-189l-47 186q-36 29 -98 29q-92 0 -155.5 -97.5t-63.5 -262.5t86.5 -270.5t226.5 -105.5q104 0 221 80l41 -84q-139 -106 -352 -174
h-8l-43 -65q66 0 114.5 -35t48.5 -93q0 -97 -59 -154t-139 -83l-105 -37h-120l59 88h145z" />
    <glyph glyph-name="egrave" unicode="&#xe8;" horiz-adv-x="989" 
d="M514 887q-94 0 -144.5 -77t-60.5 -206l365 21q0 119 -33 190.5t-127 71.5zM66 455q0 219 116.5 353t360.5 193q289 0 333 -154.5t44 -234.5v-96h-611q0 -160 85.5 -264.5t218.5 -104.5t270 84l39 -84q-145 -110 -373 -178q-204 0 -343.5 133.5t-139.5 352.5zM508 1124
l-240 357h248l92 -357h-100z" />
    <glyph glyph-name="eacute" unicode="&#xe9;" horiz-adv-x="989" 
d="M514 887q-94 0 -144.5 -77t-60.5 -206l365 21q0 119 -33 190.5t-127 71.5zM66 455q0 219 116.5 353t360.5 193q289 0 333 -154.5t44 -234.5v-96h-611q0 -160 85.5 -264.5t218.5 -104.5t270 84l39 -84q-145 -110 -373 -178q-204 0 -343.5 133.5t-139.5 352.5zM520 1124
l92 357h248l-239 -357h-101z" />
    <glyph glyph-name="ecircumflex" unicode="&#xea;" horiz-adv-x="989" 
d="M514 887q-94 0 -144.5 -77t-60.5 -206l365 21q0 119 -33 190.5t-127 71.5zM66 455q0 219 116.5 353t360.5 193q289 0 333 -154.5t44 -234.5v-96h-611q0 -160 85.5 -264.5t218.5 -104.5t270 84l39 -84q-145 -110 -373 -178q-204 0 -343.5 133.5t-139.5 352.5zM252 1124
l223 357h141l226 -357h-101l-159 170l-35 47l-37 -47l-160 -170h-98z" />
    <glyph glyph-name="edieresis" unicode="&#xeb;" horiz-adv-x="989" 
d="M514 887q-94 0 -144.5 -77t-60.5 -206l365 21q0 119 -33 190.5t-127 71.5zM66 455q0 219 116.5 353t360.5 193q289 0 333 -154.5t44 -234.5v-96h-611q0 -160 85.5 -264.5t218.5 -104.5t270 84l39 -84q-145 -110 -373 -178q-204 0 -343.5 133.5t-139.5 352.5zM633 1415
l133 10l57 -10l11 -108l-23 -90l-131 -13l-55 13l-13 108zM252 1415l135 10l55 -10l13 -108l-23 -90l-133 -13l-55 13l-13 108z" />
    <glyph glyph-name="igrave" unicode="&#xec;" horiz-adv-x="620" 
d="M326 4l-244 -6l-10 84l133 20v736l-133 -11l-11 82l267 62l112 6v-875l140 -20l-11 -84zM307 1124l-239 357h247l93 -357h-101z" />
    <glyph glyph-name="iacute" unicode="&#xed;" horiz-adv-x="620" 
d="M326 4l-244 -6l-10 84l133 20v736l-133 -11l-11 82l267 62l112 6v-875l140 -20l-11 -84zM256 1124l92 357h248l-240 -357h-100z" />
    <glyph glyph-name="icircumflex" unicode="&#xee;" horiz-adv-x="620" 
d="M326 4l-244 -6l-10 84l133 20v736l-133 -11l-11 82l267 62l112 6v-875l140 -20l-11 -84zM18 1124l224 357h141l225 -357h-100l-160 170l-35 47l-37 -47l-159 -170h-99z" />
    <glyph glyph-name="idieresis" unicode="&#xef;" horiz-adv-x="618" 
d="M324 4l-244 -6l-10 84l133 20v736l-133 -11l-11 82l267 62l112 6v-875l140 -20l-11 -84zM410 1415l135 10l55 -10l12 -108l-22 -90l-133 -13l-56 13l-12 108zM31 1415l133 10l57 -10l10 -108l-22 -90l-131 -13l-55 13l-13 108z" />
    <glyph glyph-name="eth" unicode="&#xf0;" horiz-adv-x="1116" 
d="M546 842q-227 0 -227 -344q0 -184 69.5 -301t179.5 -117q228 0 229 344q0 182 -71 300t-180 118zM1044 502q0 -237 -141.5 -366.5t-386.5 -166.5q-196 0 -320 132t-124 348q0 430 528 503l191 -88q-44 186 -211 344l-238 -116v112l147 72l-23 15q-24 15 -65 41t-86 50
l52 93q63 -29 106 -48.5t72.5 -35t49 -26.5t34.5 -19l229 110v-113l-137 -67q323 -262 323 -774z" />
    <glyph glyph-name="ntilde" unicode="&#xf1;" horiz-adv-x="1232" 
d="M1057 676v-574l141 -22l-10 -82l-244 6l-211 -6l-10 82l94 22v576q0 139 -123 139q-51 0 -100 -26.5t-98 -59.5l-54 -37v-592l101 -22l-11 -82l-204 6l-244 -6l-10 82l133 22v732l-135 -11l-11 84l267 62l104 6l6 -170l307 196q187 0 249.5 -69t62.5 -256zM346 1405
l154 45l338 -111l59 107h66l-56 -217l-151 -35l-340 113l-58 -109h-65z" />
    <glyph glyph-name="ograve" unicode="&#xf2;" horiz-adv-x="1114" 
d="M534 893q-218 0 -219 -382q0 -185 75 -309t186 -124q219 0 219 388q0 192 -75.5 309.5t-185.5 117.5zM908.5 145.5q-138.5 -132.5 -384.5 -176.5q-199 0 -328.5 138t-129.5 354q0 346 202.5 431.5t319.5 108.5q199 0 329 -138t130 -362q0 -223 -138.5 -355.5zM561 1124
l-239 357h247l93 -357h-101z" />
    <glyph glyph-name="oacute" unicode="&#xf3;" horiz-adv-x="1114" 
d="M534 893q-218 0 -219 -382q0 -185 75 -309t186 -124q219 0 219 388q0 192 -75.5 309.5t-185.5 117.5zM908.5 145.5q-138.5 -132.5 -384.5 -176.5q-199 0 -328.5 138t-129.5 354q0 346 202.5 431.5t319.5 108.5q199 0 329 -138t130 -362q0 -223 -138.5 -355.5zM524 1124
l92 357h248l-239 -357h-101z" />
    <glyph glyph-name="ocircumflex" unicode="&#xf4;" horiz-adv-x="1114" 
d="M534 893q-218 0 -219 -382q0 -185 75 -309t186 -124q219 0 219 388q0 192 -75.5 309.5t-185.5 117.5zM908.5 145.5q-138.5 -132.5 -384.5 -176.5q-199 0 -328.5 138t-129.5 354q0 346 202.5 431.5t319.5 108.5q199 0 329 -138t130 -362q0 -223 -138.5 -355.5zM276 1124
l224 357h143l223 -357h-100l-158 170l-37 47l-36 -47l-158 -170h-101z" />
    <glyph glyph-name="otilde" unicode="&#xf5;" horiz-adv-x="1114" 
d="M534 893q-218 0 -219 -382q0 -185 75 -309t186 -124q219 0 219 388q0 192 -75.5 309.5t-185.5 117.5zM908.5 145.5q-138.5 -132.5 -384.5 -176.5q-199 0 -328.5 138t-129.5 354q0 346 202.5 431.5t319.5 108.5q199 0 329 -138t130 -362q0 -223 -138.5 -355.5zM293 1405
l153 45l338 -111l60 107h67l-55 -217l-151 -35l-340 113l-58 -109h-67z" />
    <glyph glyph-name="odieresis" unicode="&#xf6;" horiz-adv-x="1114" 
d="M534 893q-218 0 -219 -382q0 -185 75 -309t186 -124q219 0 219 388q0 192 -75.5 309.5t-185.5 117.5zM908.5 145.5q-138.5 -132.5 -384.5 -176.5q-199 0 -328.5 138t-129.5 354q0 346 202.5 431.5t319.5 108.5q199 0 329 -138t130 -362q0 -223 -138.5 -355.5zM664 1415
l133 10l57 -10l10 -108l-20 -90l-133 -13l-56 13l-12 108zM285 1415l133 10l55 -10l12 -108l-22 -90l-131 -13l-58 13l-10 108z" />
    <glyph glyph-name="divide" unicode="&#xf7;" 
d="M96 582h1075v-144h-1075v144zM520 995l168 13l66 -13l12 -125l-12 -110l-168 -10l-66 10l-12 127zM520 233l168 13l66 -13l12 -122l-12 -111l-168 -12l-66 12l-12 127z" />
    <glyph glyph-name="oslash" unicode="&#xf8;" horiz-adv-x="1126" 
d="M799 420q0 146 -29 242l-383 -449q72 -135 199 -135q104 0 158.5 98t54.5 244zM319 550q0 -146 29 -243l385 449q-77 137 -191 137t-168.5 -98.5t-54.5 -244.5zM1051 508q0 -341 -203 -429.5t-320 -109.5q-156 0 -274 88l-68 -77h-120l120 141q-116 139 -116 340
q0 346 202.5 431.5t319.5 108.5q159 0 274 -90l68 78h117l-119 -139q119 -143 119 -342z" />
    <glyph glyph-name="ugrave" unicode="&#xf9;" horiz-adv-x="1181" 
d="M401 299q1 -143 121 -143q56 0 106 25.5t101 60.5l39 26v566l-115 -11l-10 90l238 56l123 8v-707q0 -97 26 -149h94l9 -82l-295 -55l-60 172l-293 -187q-190 0 -255.5 69t-65.5 257v539l-131 -11l-10 90l256 56l122 8v-678zM545 1124l-242 357h248l92 -357h-98z" />
    <glyph glyph-name="uacute" unicode="&#xfa;" horiz-adv-x="1181" 
d="M401 299q1 -143 121 -143q56 0 106 25.5t101 60.5l39 26v566l-115 -11l-10 90l238 56l123 8v-707q0 -97 26 -149h94l9 -82l-295 -55l-60 172l-293 -187q-190 0 -255.5 69t-65.5 257v539l-131 -11l-10 90l256 56l122 8v-678zM528 1124l93 357h247l-241 -357h-99z" />
    <glyph glyph-name="ucircumflex" unicode="&#xfb;" horiz-adv-x="1181" 
d="M401 299q1 -143 121 -143q56 0 106 25.5t101 60.5l39 26v566l-115 -11l-10 90l238 56l123 8v-707q0 -97 26 -149h94l9 -82l-295 -55l-60 172l-293 -187q-190 0 -255.5 69t-65.5 257v539l-131 -11l-10 90l256 56l122 8v-678zM780 1124l-159 170l-37 47l-35 -47l-160 -170
h-100l225 357h141l224 -357h-99z" />
    <glyph glyph-name="udieresis" unicode="&#xfc;" horiz-adv-x="1181" 
d="M401 299q1 -143 121 -143q56 0 106 25.5t101 60.5l39 26v566l-115 -11l-10 90l238 56l123 8v-707q0 -97 26 -149h94l9 -82l-295 -55l-60 172l-293 -187q-190 0 -255.5 69t-65.5 257v539l-131 -11l-10 90l256 56l122 8v-678zM686 1415l135 10l56 -10l12 -108l-23 -90
l-133 -13l-55 13l-12 108zM307 1415l133 10l58 -10l10 -108l-23 -90l-131 -13l-55 13l-12 108z" />
    <glyph glyph-name="yacute" unicode="&#xfd;" horiz-adv-x="1132" 
d="M176 -481v235h205l203 295l-125 -39l-332 860l-117 21l10 82l252 -6l224 6l10 -82l-125 -21l209 -571l20 -156l232 725l-97 21l11 84l184 -6l172 6l10 -84l-127 -21l-311 -825l-231 -524h-277zM580 1124l92 357h248l-240 -357h-100z" />
    <glyph glyph-name="thorn" unicode="&#xfe;" horiz-adv-x="1153" 
d="M834 460q0 181 -57.5 271t-133.5 90t-180 -82l-53 -41v-520q70 -100 196 -100q100 0 164 100.5t64 281.5zM1081 532q0 -370 -201.5 -458.5t-324.5 -104.5q-71 0 -145 37v-375l202 -22l-10 -82l-309 6l-242 -6l-10 82l133 22v1690l-133 -8l-10 82l266 59l113 8v-655
l262 194q180 0 294.5 -127t114.5 -342z" />
    <glyph glyph-name="ydieresis" unicode="&#xff;" horiz-adv-x="1132" 
d="M176 -481v235h205l203 295l-125 -39l-332 860l-117 21l10 82l252 -6l224 6l10 -82l-125 -21l209 -571l20 -156l232 725l-97 21l11 84l184 -6l172 6l10 -84l-127 -21l-311 -825l-231 -524h-277zM705 1415l133 10l57 -10l10 -108l-22 -90l-131 -13l-56 13l-12 108z
M324 1415l135 10l55 -10l12 -108l-22 -90l-133 -13l-56 13l-12 108z" />
    <glyph glyph-name="Amacron" unicode="&#x100;" horiz-adv-x="1521" 
d="M711 1116l-11 113l-223 -654h424zM442 473l-125 -367l170 -26l-10 -82l-235 6l-213 -6l-11 82l146 24l491 1309l185 45l512 -1356l151 -22l-10 -82l-319 6l-259 -6l-10 82l162 26l-129 367h-496zM455 1757h583v-125h-583v125z" />
    <glyph glyph-name="amacron" unicode="&#x101;" horiz-adv-x="991" 
d="M838 281q0 -104 32 -154h101l10 -82l-303 -61l-66 161l-239 -176q-137 0 -224.5 72t-87.5 186t80 207l459 150v110q0 92 -21.5 136t-93.5 44t-147 -34l-33 -178h-211v172l393 167q208 0 279.5 -66.5t71.5 -254.5v-399zM332 157.5q35 -30.5 82 -30.5t114 47l72 49v275
l-260 -107q-43 -47 -43 -125t35 -108.5zM201 1401h585v-127h-585v127z" />
    <glyph glyph-name="Abreve" unicode="&#x102;" horiz-adv-x="1521" 
d="M711 1116l-11 113l-223 -654h424zM442 473l-125 -367l170 -26l-10 -82l-235 6l-213 -6l-11 82l146 24l491 1309l185 45l512 -1356l151 -22l-10 -82l-319 6l-259 -6l-10 82l162 26l-129 367h-496zM758 1688q129 0 229 135l57 -45q-16 -27 -55 -94.5t-205 -133.5
q-200 0 -323 228l63 45q105 -135 234 -135z" />
    <glyph glyph-name="abreve" unicode="&#x103;" horiz-adv-x="991" 
d="M838 281q0 -104 32 -154h101l10 -82l-303 -61l-66 161l-239 -176q-137 0 -224.5 72t-87.5 186t80 207l459 150v110q0 92 -21.5 136t-93.5 44t-147 -34l-33 -178h-211v172l393 167q208 0 279.5 -66.5t71.5 -254.5v-399zM332 157.5q35 -30.5 82 -30.5t114 47l72 49v275
l-260 -107q-43 -47 -43 -125t35 -108.5zM498 1274q141 0 229 151l64 -47q-35 -72 -92.5 -130t-166.5 -111q-117 0 -203 73.5t-120 167.5l63 47q85 -151 226 -151z" />
    <glyph glyph-name="Aogonek" unicode="&#x104;" horiz-adv-x="1521" 
d="M711 1116l-11 113l-223 -654h424zM1051 -287q0 -66 45 -100.5t151 -34.5v-76q-305 0 -346 78t-41 129v123l221 231l-143 410h-496l-125 -367l170 -26l-10 -82l-235 6l-213 -6l-11 82l146 24l491 1309l185 45l512 -1356l151 -22l-10 -82l-356 6l-86 -223v-68z" />
    <glyph glyph-name="aogonek" unicode="&#x105;" horiz-adv-x="991" 
d="M332 157.5q35 -30.5 82 -30.5t114 47l72 49v275l-260 -107q-43 -47 -43 -125t35 -108.5zM838 281q0 -104 32 -154h101l10 -82l-193 -39l-139 -242v-51q0 -66 45 -100.5t152 -34.5v-76q-303 0 -346 78t-43 129v107l217 176l-62 153l-239 -176q-137 0 -224.5 72t-87.5 186
t80 207l459 150v110q0 92 -21.5 136t-93.5 44t-147 -34l-33 -178h-211v172l393 167q208 0 279.5 -66.5t71.5 -254.5v-399z" />
    <glyph glyph-name="Cacute" unicode="&#x106;" horiz-adv-x="1445" 
d="M76 692q0 663 798 778q204 0 325.5 -62t158.5 -87v-309h-127l-66 194q-117 146 -347 146q-84 0 -172.5 -40t-188 -160.5t-99.5 -397.5q0 -276 141.5 -472t377.5 -196q96 0 163.5 41t114.5 84l107 233h122l-47 -327q-151 -70 -295.5 -107t-218.5 -47q-310 0 -528.5 195.5
t-218.5 533.5zM770 1573l123 274h252l-240 -274h-135z" />
    <glyph glyph-name="cacute" unicode="&#x107;" horiz-adv-x="950" 
d="M547 -31q-211 0 -342 131t-131 356t142 359t362 186q84 0 166.5 -29.5t132.5 -72.5v-231h-189l-47 186q-36 29 -98 29q-92 0 -155.5 -97.5t-63.5 -262.5t86.5 -270.5t226.5 -105.5q104 0 221 80l41 -84q-139 -106 -352 -174zM487 1124l93 357h247l-239 -357h-101z" />
    <glyph glyph-name="Ccircumflex" unicode="&#x108;" horiz-adv-x="1445" 
d="M76 692q0 663 798 778q204 0 325.5 -62t158.5 -87v-309h-127l-66 194q-117 146 -347 146q-84 0 -172.5 -40t-188 -160.5t-99.5 -397.5q0 -276 141.5 -472t377.5 -196q96 0 163.5 41t114.5 84l107 233h122l-47 -327q-151 -70 -295.5 -107t-218.5 -47q-310 0 -528.5 195.5
t-218.5 533.5zM539 1573l225 274h182l225 -274h-139l-147 121l-31 37l-29 -37l-145 -121h-141z" />
    <glyph glyph-name="ccircumflex" unicode="&#x109;" horiz-adv-x="950" 
d="M547 -31q-211 0 -342 131t-131 356t142 359t362 186q84 0 166.5 -29.5t132.5 -72.5v-231h-189l-47 186q-36 29 -98 29q-92 0 -155.5 -97.5t-63.5 -262.5t86.5 -270.5t226.5 -105.5q104 0 221 80l41 -84q-139 -106 -352 -174zM264 1124l225 357h142l223 -357h-98l-160 170
l-37 47l-35 -47l-159 -170h-101z" />
    <glyph glyph-name="Cdotaccent" unicode="&#x10a;" horiz-adv-x="1445" 
d="M76 692q0 663 798 778q204 0 325.5 -62t158.5 -87v-309h-127l-66 194q-117 146 -347 146q-84 0 -172.5 -40t-188 -160.5t-99.5 -397.5q0 -276 141.5 -472t377.5 -196q96 0 163.5 41t114.5 84l107 233h122l-47 -327q-151 -70 -295.5 -107t-218.5 -47q-310 0 -528.5 195.5
t-218.5 533.5zM741 1821l146 10l74 -12l10 -123l-25 -105l-141 -12l-74 12l-12 123z" />
    <glyph glyph-name="cdotaccent" unicode="&#x10b;" horiz-adv-x="950" 
d="M547 -31q-211 0 -342 131t-131 356t142 359t362 186q84 0 166.5 -29.5t132.5 -72.5v-231h-189l-47 186q-36 29 -98 29q-92 0 -155.5 -97.5t-63.5 -262.5t86.5 -270.5t226.5 -105.5q104 0 221 80l41 -84q-139 -106 -352 -174zM455 1454l147 10l72 -10l10 -123l-25 -104
l-141 -15l-72 15l-14 123z" />
    <glyph glyph-name="Ccaron" unicode="&#x10c;" horiz-adv-x="1445" 
d="M76 692q0 663 798 778q204 0 325.5 -62t158.5 -87v-309h-127l-66 194q-117 146 -347 146q-84 0 -172.5 -40t-188 -160.5t-99.5 -397.5q0 -276 141.5 -472t377.5 -196q96 0 163.5 41t114.5 84l107 233h122l-47 -327q-151 -70 -295.5 -107t-218.5 -47q-310 0 -528.5 195.5
t-218.5 533.5zM664 1847l147 -118l29 -39l30 39l146 118h141l-225 -274h-182l-226 274h140z" />
    <glyph glyph-name="ccaron" unicode="&#x10d;" horiz-adv-x="950" 
d="M547 -31q-211 0 -342 131t-131 356t142 359t362 186q84 0 166.5 -29.5t132.5 -72.5v-231h-189l-47 186q-36 29 -98 29q-92 0 -155.5 -97.5t-63.5 -262.5t86.5 -270.5t226.5 -105.5q104 0 221 80l41 -84q-139 -106 -352 -174zM365 1495l159 -170l35 -47l37 47l160 170h98
l-223 -356h-142l-225 356h101z" />
    <glyph glyph-name="Dcaron" unicode="&#x10e;" horiz-adv-x="1533" 
d="M1044 1172.5q-132 170.5 -368 166.5l-182 -10v-1214l237 -19q100 -2 183 45t172.5 177.5t89.5 407.5q0 276 -132 446.5zM1279.5 230.5q-176.5 -197.5 -525.5 -232.5l-416 6l-266 -6l-11 82l175 26v1221l-175 27l11 82l268 -6l430 6q323 0 504.5 -175.5t181.5 -503.5
q0 -329 -176.5 -526.5zM1044 1847l-225 -274h-182l-225 274h139l147 -118l29 -39l31 39l145 118h141z" />
    <glyph glyph-name="dcaron" unicode="&#x10f;" horiz-adv-x="1304" 
d="M317 511q0 -171 56.5 -263t140.5 -92t174 71l53 41v541q-61 74 -177 74t-181.5 -100.5t-65.5 -271.5zM977 268q0 -100 35 -145h102l8 -84l-303 -55l-63 166l-258 -181q-194 0 -311 131.5t-117 350.5q0 359 192.5 445.5t302.5 104.5q66 0 176 -55v367l-133 -4l-10 82
l258 63l121 8v-1194zM1057 1479h227v-164l-139 -236l-88 21l47 225l-47 72v82z" />
    <glyph glyph-name="Dcroat" unicode="&#x110;" horiz-adv-x="1533" 
d="M494 797h241v-107h-241v-575l237 -19q100 -2 183 45t172.5 177.5t89.5 407.5q0 276 -132 446.5t-368 166.5l-182 -10v-532zM1279.5 230.5q-176.5 -197.5 -525.5 -232.5l-416 6l-266 -6l-11 82l175 26v584h-156v107h156v530l-175 27l11 82l268 -6l430 6
q323 0 504.5 -175.5t181.5 -503.5q0 -329 -176.5 -526.5z" />
    <glyph glyph-name="dcroat" unicode="&#x111;" horiz-adv-x="1161" 
d="M317 511q0 -171 56.5 -263t140.5 -92t174 71l53 41v541q-61 74 -177 74t-181.5 -100.5t-65.5 -271.5zM741 1133h-258v88h258v92l-133 -4l-10 82l258 63l121 8v-241h147v-88h-147v-865q0 -100 35 -145h102l8 -84l-303 -55l-63 166l-258 -181q-194 0 -311 131.5t-117 350.5
q0 359 192.5 445.5t302.5 104.5q66 0 176 -55v187z" />
    <glyph glyph-name="Emacron" unicode="&#x112;" horiz-adv-x="1304" 
d="M1190 1436l20 -379h-84l-118 266l-514 6v-528l264 8l82 217h86l-21 -266l21 -283h-86l-82 217l-264 8v-598l536 7l137 276h93l-70 -389l-836 6l-282 -6l-11 82l175 26v1221l-175 27l11 82l282 -6zM399 1757h584v-125h-584v125z" />
    <glyph glyph-name="emacron" unicode="&#x113;" horiz-adv-x="989" 
d="M514 887q-94 0 -144.5 -77t-60.5 -206l365 21q0 119 -33 190.5t-127 71.5zM66 455q0 219 116.5 353t360.5 193q289 0 333 -154.5t44 -234.5v-96h-611q0 -160 85.5 -264.5t218.5 -104.5t270 84l39 -84q-145 -110 -373 -178q-204 0 -343.5 133.5t-139.5 352.5zM246 1401
h583v-127h-583v127z" />
    <glyph glyph-name="Ebreve" unicode="&#x114;" horiz-adv-x="1304" 
d="M1190 1436l20 -379h-84l-118 266l-514 6v-528l264 8l82 217h86l-21 -266l21 -283h-86l-82 217l-264 8v-598l536 7l137 276h93l-70 -389l-836 6l-282 -6l-11 82l175 26v1221l-175 27l11 82l282 -6zM678 1688q136 0 235 135l58 -45q-48 -81 -96 -131t-166 -97
q-205 0 -322 228l62 45q46 -59 97 -97t132 -38z" />
    <glyph glyph-name="ebreve" unicode="&#x115;" horiz-adv-x="989" 
d="M514 887q-94 0 -144.5 -77t-60.5 -206l365 21q0 119 -33 190.5t-127 71.5zM66 455q0 219 116.5 353t360.5 193q289 0 333 -154.5t44 -234.5v-96h-611q0 -160 85.5 -264.5t218.5 -104.5t270 84l39 -84q-145 -110 -373 -178q-204 0 -343.5 133.5t-139.5 352.5zM535 1276
q130 0 223 149l63 -45q-35 -72 -92 -130t-164 -113q-116 0 -203.5 73.5t-121.5 169.5l63 45q54 -96 119.5 -122.5t112.5 -26.5z" />
    <glyph glyph-name="Edotaccent" unicode="&#x116;" horiz-adv-x="1304" 
d="M1190 1436l20 -379h-84l-118 266l-514 6v-528l264 8l82 217h86l-21 -266l21 -283h-86l-82 217l-264 8v-598l536 7l137 276h93l-70 -389l-836 6l-282 -6l-11 82l175 26v1221l-175 27l11 82l282 -6zM592 1808l147 11l72 -11l10 -122l-22 -107l-144 -12l-71 12l-15 125z" />
    <glyph glyph-name="edotaccent" unicode="&#x117;" horiz-adv-x="989" 
d="M514 887q-94 0 -144.5 -77t-60.5 -206l365 21q0 119 -33 190.5t-127 71.5zM66 455q0 219 116.5 353t360.5 193q289 0 333 -154.5t44 -234.5v-96h-611q0 -160 85.5 -264.5t218.5 -104.5t270 84l39 -84q-145 -110 -373 -178q-204 0 -343.5 133.5t-139.5 352.5zM430 1454
l148 10l71 -10l13 -123l-25 -104l-143 -15l-72 15l-12 123z" />
    <glyph glyph-name="Eogonek" unicode="&#x118;" horiz-adv-x="1304" 
d="M971 -287q0 -66 45 -100.5t151 -34.5v-76q-211 0 -299 51.5t-88 155.5v107l187 184l-613 4l-282 -6l-11 82l175 26v1221l-175 27l11 82l282 -6l836 6l20 -379h-84l-118 266l-514 6v-528l264 8l82 217h86l-21 -266l21 -283h-86l-82 217l-264 8v-598l536 7l137 276h93
l-70 -389l-135 2l-84 -236v-51z" />
    <glyph glyph-name="eogonek" unicode="&#x119;" horiz-adv-x="989" 
d="M514 887q-94 0 -144.5 -77t-60.5 -206l365 21q0 119 -33 190.5t-127 71.5zM569 -287q0 -135 211 -135v-76q-219 0 -310 52.5t-91 154.5v107l170 153q-204 0 -343.5 133t-139.5 353q0 219 116.5 353t360.5 193q289 0 333 -154.5t44 -234.5v-96h-611q0 -160 85.5 -264.5
t218.5 -104.5t270 84l39 -84q-102 -76 -224 -124l-129 -228v-82z" />
    <glyph glyph-name="Ecaron" unicode="&#x11a;" horiz-adv-x="1304" 
d="M1190 1436l20 -379h-84l-118 266l-514 6v-528l264 8l82 217h86l-21 -266l21 -283h-86l-82 217l-264 8v-598l536 7l137 276h93l-70 -389l-836 6l-282 -6l-11 82l175 26v1221l-175 27l11 82l282 -6zM504 1847l145 -118l31 -39l31 39l145 118h141l-227 -274h-180l-228 274
h142z" />
    <glyph glyph-name="ecaron" unicode="&#x11b;" horiz-adv-x="989" 
d="M514 887q-94 0 -144.5 -77t-60.5 -206l365 21q0 119 -33 190.5t-127 71.5zM66 455q0 219 116.5 353t360.5 193q289 0 333 -154.5t44 -234.5v-96h-611q0 -160 85.5 -264.5t218.5 -104.5t270 84l39 -84q-145 -110 -373 -178q-204 0 -343.5 133.5t-139.5 352.5zM336 1495
l160 -170l34 -47l37 47l160 170h98l-223 -356h-143l-223 356h100z" />
    <glyph glyph-name="Gcircumflex" unicode="&#x11c;" horiz-adv-x="1531" 
d="M76 686q0 517 303 636.5t483 147.5q256 0 496 -151v-307h-119l-65 188q-45 55 -132.5 103.5t-203.5 48.5q-226 0 -353 -161t-127 -438q0 -276 140.5 -471.5t377.5 -195.5q126 0 228 92v385l-184 27l10 84l305 -6l240 6l12 -84l-123 -27v-440q-287 -120 -559 -160
q-143 0 -275.5 47t-293 195.5t-160.5 480.5zM539 1573l227 274h180l228 -274h-142l-145 121l-31 37l-31 -37l-145 -121h-141z" />
    <glyph glyph-name="gcircumflex" unicode="&#x11d;" horiz-adv-x="1091" 
d="M1081 1001v-186h-141l-53 -31q16 -45 16 -90q0 -141 -102.5 -229t-315.5 -143q-50 0 -96 8l-90 -109q0 -72 88 -71h377q137 0 205.5 -61t68.5 -145t-81.5 -205.5t-462.5 -240.5q-455 0 -455 271v41l231 161q-140 48 -156 115.5t-16 103.5v27l211 137q-98 37 -155.5 110
t-57.5 171q0 139 103.5 226t316.5 140q226 0 332 -143l102 143h131zM254 -209q0 -62 68.5 -110t197.5 -48t212 64t83 153q0 107 -174 107h-291q-96 -104 -96 -166zM676 602q0 132 -46.5 214.5t-135.5 82.5t-129.5 -59.5t-40.5 -129.5q0 -133 46 -208.5t135 -75.5t130 54
t41 122zM264 1124l223 357h144l223 -357h-100l-158 170l-37 47l-37 -47l-157 -170h-101z" />
    <glyph glyph-name="Gbreve" unicode="&#x11e;" horiz-adv-x="1531" 
d="M76 686q0 517 303 636.5t483 147.5q256 0 496 -151v-307h-119l-65 188q-45 55 -132.5 103.5t-203.5 48.5q-226 0 -353 -161t-127 -438q0 -276 140.5 -471.5t377.5 -195.5q126 0 228 92v385l-184 27l10 84l305 -6l240 6l12 -84l-123 -27v-440q-287 -120 -559 -160
q-143 0 -275.5 47t-293 195.5t-160.5 480.5zM1071 1823l57 -45q-37 -71 -89 -126t-171 -102q-165 0 -234 95.5t-87 132.5l61 45q105 -135 234 -135q130 0 229 135z" />
    <glyph glyph-name="gbreve" unicode="&#x11f;" horiz-adv-x="1091" 
d="M1081 1001v-186h-141l-53 -31q16 -45 16 -90q0 -141 -102.5 -229t-315.5 -143q-50 0 -96 8l-90 -109q0 -72 88 -71h377q137 0 205.5 -61t68.5 -145t-81.5 -205.5t-462.5 -240.5q-455 0 -455 271v41l231 161q-140 48 -156 115.5t-16 103.5v27l211 137q-98 37 -155.5 110
t-57.5 171q0 139 103.5 226t316.5 140q226 0 332 -143l102 143h131zM254 -209q0 -62 68.5 -110t197.5 -48t212 64t83 153q0 107 -174 107h-291q-96 -104 -96 -166zM676 602q0 132 -46.5 214.5t-135.5 82.5t-129.5 -59.5t-40.5 -129.5q0 -133 46 -208.5t135 -75.5t130 54
t41 122zM543 1276q134 0 221 149l65 -45q-35 -72 -92 -130t-166 -113q-116 0 -203.5 73.5t-121.5 169.5l65 45q54 -96 119.5 -122.5t112.5 -26.5z" />
    <glyph glyph-name="Gdotaccent" unicode="&#x120;" horiz-adv-x="1531" 
d="M76 686q0 517 303 636.5t483 147.5q256 0 496 -151v-307h-119l-65 188q-45 55 -132.5 103.5t-203.5 48.5q-226 0 -353 -161t-127 -438q0 -276 140.5 -471.5t377.5 -195.5q126 0 228 92v385l-184 27l10 84l305 -6l240 6l12 -84l-123 -27v-440q-287 -120 -559 -160
q-143 0 -275.5 47t-293 195.5t-160.5 480.5zM758 1815l145 10l72 -13l12 -122l-24 -105l-142 -12l-73 12l-13 123z" />
    <glyph glyph-name="gdotaccent" unicode="&#x121;" horiz-adv-x="1091" 
d="M1081 1001v-186h-141l-53 -31q16 -45 16 -90q0 -141 -102.5 -229t-315.5 -143q-50 0 -96 8l-90 -109q0 -72 88 -71h377q137 0 205.5 -61t68.5 -145t-81.5 -205.5t-462.5 -240.5q-455 0 -455 271v41l231 161q-140 48 -156 115.5t-16 103.5v27l211 137q-98 37 -155.5 110
t-57.5 171q0 139 103.5 226t316.5 140q226 0 332 -143l102 143h131zM254 -209q0 -62 68.5 -110t197.5 -48t212 64t83 153q0 107 -174 107h-291q-96 -104 -96 -166zM676 602q0 132 -46.5 214.5t-135.5 82.5t-129.5 -59.5t-40.5 -129.5q0 -133 46 -208.5t135 -75.5t130 54
t41 122zM436 1454l146 10l73 -10l11 -123l-25 -104l-141 -15l-74 15l-12 123z" />
    <glyph glyph-name="Gcommaaccent" unicode="&#x122;" horiz-adv-x="1531" 
d="M76 686q0 517 303 636.5t483 147.5q256 0 496 -151v-307h-119l-65 188q-45 55 -132.5 103.5t-203.5 48.5q-226 0 -353 -161t-127 -438q0 -276 140.5 -471.5t377.5 -195.5q126 0 228 92v385l-184 27l10 84l305 -6l240 6l12 -84l-123 -27v-440q-287 -120 -559 -160
q-143 0 -275.5 47t-293 195.5t-160.5 480.5zM690 -102h225v-164l-139 -236l-86 21l47 225l-47 72v82z" />
    <glyph glyph-name="gcommaaccent" unicode="&#x123;" horiz-adv-x="1091" 
d="M1081 1001v-186h-141l-53 -31q16 -45 16 -90q0 -141 -102.5 -229t-315.5 -143q-50 0 -96 8l-90 -109q0 -72 88 -71h377q137 0 205.5 -61t68.5 -145t-81.5 -205.5t-462.5 -240.5q-455 0 -455 271v41l231 161q-140 48 -156 115.5t-16 103.5v27l211 137q-98 37 -155.5 110
t-57.5 171q0 139 103.5 226t316.5 140q226 0 332 -143l102 143h131zM254 -209q0 -62 68.5 -110t197.5 -48t212 64t83 153q0 107 -174 107h-291q-96 -104 -96 -166zM676 602q0 132 -46.5 214.5t-135.5 82.5t-129.5 -59.5t-40.5 -129.5q0 -133 46 -208.5t135 -75.5t130 54
t41 122zM655 1139h-227v164l141 245l86 -20l-47 -236l47 -71v-82z" />
    <glyph glyph-name="Hcircumflex" unicode="&#x124;" horiz-adv-x="1591" 
d="M494 799h612v528l-168 27l10 82l287 -6l285 6l10 -82l-166 -27v-1221l166 -26l-10 -82l-285 6l-287 -6l-10 82l168 26v580h-612v-580l159 -26l-10 -82l-278 6l-293 -6l-11 82l175 26v1221l-175 27l11 82l293 -6l278 6l10 -82l-159 -27v-528zM479 1573l228 274h182
l225 -274h-141l-146 121l-30 37l-31 -37l-145 -121h-142z" />
    <glyph glyph-name="hcircumflex" unicode="&#x125;" horiz-adv-x="1228" 
d="M815 678q0 139 -121 139q-45 0 -96 -26.5t-104 -59.5l-56 -35v-594l103 -22l-11 -82l-204 6l-244 -6l-10 82l131 22v1213l-133 -4l-11 82l267 61l112 8v-655l305 194q187 0 248.5 -74.5t61.5 -269.5v-555l141 -22l-10 -82l-244 6l-207 -6l-10 82l92 22v576zM2 1573
l225 274h183l225 -274h-139l-148 121l-31 37l-28 -37l-148 -121h-139z" />
    <glyph glyph-name="Hbar" unicode="&#x126;" horiz-adv-x="1591" 
d="M1106 799v164h-612v-164h612zM494 1051h612v276l-168 27l10 82l287 -6l285 6l10 -82l-166 -27v-1221l166 -26l-10 -82l-285 6l-287 -6l-10 82l168 26v580h-612v-580l159 -26l-10 -82l-278 6l-293 -6l-11 82l175 26v1221l-175 27l11 82l293 -6l278 6l10 -82l-159 -27v-276
z" />
    <glyph glyph-name="hbar" unicode="&#x127;" horiz-adv-x="1226" 
d="M813 678q0 139 -121 139q-45 0 -96 -26.5t-104 -59.5l-56 -35v-594l103 -22l-11 -82l-204 6l-244 -6l-10 82l131 22v1028h-144v87h144v98l-133 -4l-11 82l267 61l112 8v-245h246v-87h-246v-323l305 194q187 0 248.5 -74.5t61.5 -269.5v-555l141 -22l-10 -82l-244 6
l-207 -6l-10 82l92 22v576z" />
    <glyph glyph-name="Itilde" unicode="&#x128;" horiz-adv-x="735" 
d="M373 4l-293 -6l-10 84l174 27v1218l-174 27l10 82l293 -6l293 6l10 -82l-174 -27v-1218l174 -27l-10 -84zM94 1784l154 45l336 -103l69 107h60l-54 -211l-153 -41l-336 102l-70 -106h-59z" />
    <glyph glyph-name="itilde" unicode="&#x129;" horiz-adv-x="620" 
d="M326 4l-244 -6l-10 84l133 20v736l-133 -11l-11 82l267 62l112 6v-875l140 -20l-11 -84zM35 1405l153 45l338 -111l60 107h65l-55 -217l-152 -35l-340 113l-57 -109h-65z" />
    <glyph glyph-name="Imacron" unicode="&#x12a;" horiz-adv-x="735" 
d="M373 4l-293 -6l-10 84l174 27v1218l-174 27l10 82l293 -6l293 6l10 -82l-174 -27v-1218l174 -27l-10 -84zM78 1757h586v-125h-586v125z" />
    <glyph glyph-name="imacron" unicode="&#x12b;" horiz-adv-x="620" 
d="M326 4l-244 -6l-10 84l133 20v736l-133 -11l-11 82l267 62l112 6v-875l140 -20l-11 -84zM23 1401h585v-127h-585v127z" />
    <glyph glyph-name="Ibreve" unicode="&#x12c;" horiz-adv-x="735" 
d="M373 4l-293 -6l-10 84l174 27v1218l-174 27l10 82l293 -6l293 6l10 -82l-174 -27v-1218l174 -27l-10 -84zM367 1688q134 0 233 135l57 -45q-16 -27 -55 -94.5t-205 -133.5q-200 0 -323 228l61 45q47 -60 100 -97.5t132 -37.5z" />
    <glyph glyph-name="ibreve" unicode="&#x12d;" horiz-adv-x="620" 
d="M326 4l-244 -6l-10 84l133 20v736l-133 -11l-11 82l267 62l112 6v-875l140 -20l-11 -84zM317 1276q131 0 224 149l63 -45q-35 -72 -92 -130t-166 -113q-118 0 -203.5 74t-119.5 169l63 45q54 -96 119 -122.5t112 -26.5z" />
    <glyph glyph-name="Iogonek" unicode="&#x12e;" horiz-adv-x="729" 
d="M326 -287q0 -135 194 -135v-76q-211 0 -299 51.5t-88 155.5v103l186 190l-247 -4l-11 84l175 27v1218l-175 27l11 82l295 -6l290 6l11 -82l-174 -27v-1218l174 -27l-11 -84l-247 4l-84 -238v-51z" />
    <glyph glyph-name="iogonek" unicode="&#x12f;" horiz-adv-x="620" 
d="M215 1417l168 13l61 -13l13 -125l-25 -106l-166 -12l-61 12l-12 125zM287 -287q0 -66 45 -100.5t151 -34.5v-76q-305 0 -346 78t-41 129v103l187 192l-201 -6l-10 84l133 20v736l-133 -11l-11 82l267 62l112 6v-875l140 -20l-11 -84l-198 4l-84 -238v-51z" />
    <glyph glyph-name="Idotaccent" unicode="&#x130;" horiz-adv-x="735" 
d="M373 4l-293 -6l-10 84l174 27v1218l-174 27l10 82l293 -6l293 6l10 -82l-174 -27v-1218l174 -27l-10 -84zM270 1815l148 10l71 -13l11 -122l-23 -105l-143 -12l-72 12l-14 123z" />
    <glyph glyph-name="dotlessi" unicode="&#x131;" horiz-adv-x="620" 
d="M326 4l-244 -6l-10 84l133 20v736l-133 -11l-11 82l267 62l112 6v-875l140 -20l-11 -84z" />
    <glyph glyph-name="IJ" unicode="&#x132;" horiz-adv-x="1302" 
d="M373 6l-293 -6l-10 82l172 27v1218l-172 27l10 82l293 -6l227 6l10 -82l-108 -27v-1218l153 -27l-10 -82zM1087 240q0 -202 -56 -282.5t-87 -113.5l-188 -202h-199v200h199l26 41q32 58 39.5 124t7.5 181v1139l-122 29l10 80l244 -6l280 6l10 -82l-164 -27v-1087z" />
    <glyph glyph-name="ij" unicode="&#x133;" horiz-adv-x="1054" 
d="M328 4l-244 -6l-10 84l133 20v736l-133 -11l-11 82l267 62l112 6v-875l140 -20l-11 -84zM684 6v830l-133 -9l-10 82l266 60l113 8v-938q0 -119 -44.5 -197t-103.5 -141l-174 -184h-170v202h205l16 45q35 96 35 242zM692 1417l168 13l62 -13l12 -125l-25 -106l-166 -12
l-59 12l-14 125zM215 1417l168 13l61 -13l13 -125l-25 -106l-166 -12l-59 12l-14 125z" />
    <glyph glyph-name="Jcircumflex" unicode="&#x134;" horiz-adv-x="747" 
d="M532 240q0 -145 -43 -236.5t-106 -159.5l-186 -202h-195v211h223l19 43q26 71 28 155t2 144v1132l-225 27l10 82l347 -6l280 6l10 -82l-164 -27v-1087zM68 1573l225 274h182l225 -274h-141l-145 121l-31 37l-29 -37l-147 -121h-139z" />
    <glyph glyph-name="jcircumflex" unicode="&#x135;" horiz-adv-x="577" 
d="M207 4v832l-133 -11l-11 84l267 60l112 8v-940q0 -119 -44 -197t-103 -139l-170 -186h-174v204h201l20 45l18 46q17 47 17 194zM10 1124l223 357h142l223 -357h-98l-160 170l-37 47l-35 -47l-159 -170h-99z" />
    <glyph glyph-name="Kcommaaccent" unicode="&#x136;" horiz-adv-x="1484" 
d="M553 799l553 528l-150 27l11 82l221 -6l223 6l10 -82l-157 -31l-570 -545l68 -33l598 -643l106 -22l-10 -82l-174 6l-192 -6l-564 657l-32 68v-617l147 -26l-10 -82l-266 6l-293 -6l-11 82l175 26v1221l-175 27l11 82l293 -6l266 6l10 -82l-147 -27v-559zM616 -102h228
v-164l-139 -236l-89 21l48 225l-48 72v82z" />
    <glyph glyph-name="kcommaaccent" unicode="&#x137;" horiz-adv-x="1159" 
d="M956 4l-129 -6l-358 465l-27 65v-426l99 -22l-11 -82l-211 6l-235 -6l-10 82l133 22v1211l-135 -4l-11 84l267 61l114 8v-901l56 25l329 282l-82 23v82l189 -6l168 6l12 -82l-115 -23l-372 -299l53 -32l381 -435l88 -22l-12 -82zM473 -102h227v-164l-141 -236l-86 21
l47 225l-47 72v82z" />
    <glyph glyph-name="kgreenlandic" unicode="&#x138;" horiz-adv-x="1159" 
d="M956 4l-129 -6l-358 465l-27 65v-426l99 -22l-11 -82l-211 6l-235 -6l-10 82l133 22v732l-135 -11l-11 84l267 62l114 8v-416l56 25l329 282l-82 23v82l189 -6l168 6l12 -82l-115 -23l-372 -299l53 -32l381 -435l88 -22l-12 -82z" />
    <glyph glyph-name="Lacute" unicode="&#x139;" horiz-adv-x="1222" 
d="M354 4l-282 -6l-11 82l175 26v1221l-175 27l11 82l282 -6l303 6l11 -82l-174 -27v-1223l489 7l145 282h86l-71 -395zM303 1573l123 274h252l-240 -274h-135z" />
    <glyph glyph-name="lacute" unicode="&#x13a;" horiz-adv-x="610" 
d="M326 4l-244 -6l-10 82l131 22v1211l-133 -4l-11 84l267 61l112 8v-1360l142 -22l-11 -82zM260 1542l92 336h254l-241 -336h-105z" />
    <glyph glyph-name="Lcommaaccent" unicode="&#x13b;" horiz-adv-x="1222" 
d="M354 4l-282 -6l-11 82l175 26v1221l-175 27l11 82l282 -6l303 6l11 -82l-174 -27v-1223l489 7l145 282h86l-71 -395zM526 -102h228v-164l-142 -236l-86 21l47 225l-47 72v82z" />
    <glyph glyph-name="lcommaaccent" unicode="&#x13c;" horiz-adv-x="610" 
d="M326 4l-244 -6l-10 82l131 22v1211l-133 -4l-11 84l267 61l112 8v-1360l142 -22l-11 -82zM199 -102h225v-164l-139 -236l-86 21l47 225l-47 72v82z" />
    <glyph glyph-name="Lcaron" unicode="&#x13d;" horiz-adv-x="1232" 
d="M354 4l-282 -6l-11 82l175 26v1221l-175 27l11 82l282 -6l303 6l11 -82l-174 -27v-1223l489 7l145 282h86l-71 -395zM977 1208l-10 127l10 107l168 12l65 -12l13 -125l-13 -109l-139 -311l-86 35q82 184 82 266z" />
    <glyph glyph-name="lcaron" unicode="&#x13e;" horiz-adv-x="774" 
d="M326 4l-244 -6l-10 82l131 22v1211l-133 -4l-11 84l267 61l112 8v-1360l142 -22l-11 -82zM526 1479h228v-164l-142 -236l-86 21l47 225l-47 72v82z" />
    <glyph glyph-name="Ldot" unicode="&#x13f;" horiz-adv-x="1222" 
d="M354 4l-282 -6l-11 82l175 26v1221l-175 27l11 82l282 -6l303 6l11 -82l-174 -27v-1223l489 7l145 282h86l-71 -395zM688 942l164 12l63 -12l13 -125l-21 -108l-162 -13l-63 13l-12 125z" />
    <glyph glyph-name="ldot" unicode="&#x140;" horiz-adv-x="829" 
d="M326 4l-244 -6l-10 82l131 22v1211l-133 -4l-11 84l267 61l112 8v-1360l142 -22l-11 -82zM580 942l163 12l64 -12l12 -125l-22 -108l-162 -13l-62 13l-12 125z" />
    <glyph glyph-name="Lslash" unicode="&#x141;" horiz-adv-x="1222" 
d="M354 4l-282 -6l-11 82l175 26v551l-164 -79v118l164 80v551l-175 27l11 82l282 -6l303 6l11 -82l-174 -27v-422l182 90v-118l-182 -91v-682l489 7l145 282h86l-71 -395z" />
    <glyph glyph-name="lslash" unicode="&#x142;" horiz-adv-x="610" 
d="M326 4l-244 -6l-10 82l131 22v582l-156 -76v113l156 76v516l-133 -4l-11 84l267 61l112 8v-551l158 78v-110l-158 -78v-699l142 -22l-11 -82z" />
    <glyph glyph-name="Nacute" unicode="&#x143;" horiz-adv-x="1517" 
d="M1323 -4h-139l-764 1063l-41 162v-1115l164 -26l-8 -82l-222 6l-241 -6l-11 82l175 26v1211l-168 37l10 82l180 -6l182 6l690 -938l50 -146v975l-164 27l8 82l221 -6l242 6l10 -82l-174 -27v-1331zM682 1573l123 274h252l-240 -274h-135z" />
    <glyph glyph-name="nacute" unicode="&#x144;" horiz-adv-x="1232" 
d="M1057 676v-574l141 -22l-10 -82l-244 6l-211 -6l-10 82l94 22v576q0 139 -123 139q-51 0 -100 -26.5t-98 -59.5l-54 -37v-592l101 -22l-11 -82l-204 6l-244 -6l-10 82l133 22v732l-135 -11l-11 84l267 62l104 6l6 -170l307 196q187 0 249.5 -69t62.5 -256zM557 1124
l92 357h246l-240 -357h-98z" />
    <glyph glyph-name="Ncommaaccent" unicode="&#x145;" horiz-adv-x="1517" 
d="M1323 -4h-139l-764 1063l-41 162v-1115l164 -26l-8 -82l-222 6l-241 -6l-11 82l175 26v1211l-168 37l10 82l180 -6l182 6l690 -938l50 -146v975l-164 27l8 82l221 -6l242 6l10 -82l-174 -27v-1331zM664 -102h225v-164l-139 -236l-86 21l47 225l-47 72v82z" />
    <glyph glyph-name="ncommaaccent" unicode="&#x146;" horiz-adv-x="1232" 
d="M1057 676v-574l141 -22l-10 -82l-244 6l-211 -6l-10 82l94 22v576q0 139 -123 139q-51 0 -100 -26.5t-98 -59.5l-54 -37v-592l101 -22l-11 -82l-204 6l-244 -6l-10 82l133 22v732l-135 -11l-11 84l267 62l104 6l6 -170l307 196q187 0 249.5 -69t62.5 -256zM504 -102h227
v-164l-141 -236l-86 21l47 225l-47 72v82z" />
    <glyph glyph-name="Ncaron" unicode="&#x147;" horiz-adv-x="1517" 
d="M1323 -4h-139l-764 1063l-41 162v-1115l164 -26l-8 -82l-222 6l-241 -6l-11 82l175 26v1211l-168 37l10 82l180 -6l182 6l690 -938l50 -146v975l-164 27l8 82l221 -6l242 6l10 -82l-174 -27v-1331zM592 1847l145 -118l29 -39l31 39l147 118h139l-225 -274h-182l-225 274
h141z" />
    <glyph glyph-name="ncaron" unicode="&#x148;" horiz-adv-x="1232" 
d="M1057 676v-574l141 -22l-10 -82l-244 6l-211 -6l-10 82l94 22v576q0 139 -123 139q-51 0 -100 -26.5t-98 -59.5l-54 -37v-592l101 -22l-11 -82l-204 6l-244 -6l-10 82l133 22v732l-135 -11l-11 84l267 62l104 6l6 -170l307 196q187 0 249.5 -69t62.5 -256zM422 1495
l158 -170l36 -47l37 47l158 170h100l-223 -356h-143l-223 356h100z" />
    <glyph glyph-name="napostrophe" unicode="&#x149;" horiz-adv-x="1232" 
d="M1057 676v-574l141 -22l-10 -82l-244 6l-211 -6l-10 82l94 22v576q0 139 -123 139q-51 0 -100 -26.5t-98 -59.5l-54 -37v-592l101 -22l-11 -82l-204 6l-244 -6l-10 82l133 22v732l-135 -11l-11 84l267 62l104 6l6 -170l307 196q187 0 249.5 -69t62.5 -256zM190 1479h228
v-164l-139 -236l-89 21l48 225l-48 72v82z" />
    <glyph glyph-name="Eng" unicode="&#x14a;" horiz-adv-x="1517" 
d="M868 -481v180h144l137 240l86 57h-45l-770 1063l-41 145v-1098l174 -26l-10 -82l-226 6l-245 -6l-11 82l175 26v1211l-168 37l10 82l180 -6l176 6l696 -938l50 -133v962l-164 27l10 82l215 -6l246 6l10 -82l-174 -27v-1331l-193 -477h-262z" />
    <glyph glyph-name="eng" unicode="&#x14b;" horiz-adv-x="1179" 
d="M561 -481v205h205l18 45q33 91 33 239v670q0 139 -123 139q-51 0 -100 -27.5t-98 -58.5l-54 -37v-592l101 -22l-11 -82l-204 6l-244 -6l-10 82l133 22v732l-135 -11l-11 84l267 62l104 6l6 -170l307 196q187 0 249.5 -69t62.5 -256v-635q0 -119 -44 -196.5t-104 -141.5
l-174 -184h-174z" />
    <glyph glyph-name="Omacron" unicode="&#x14c;" horiz-adv-x="1622" 
d="M442 348.5q84 -141.5 176.5 -202t212.5 -60.5q222 0 327.5 165t105.5 428q0 262 -119 465.5t-361 203.5q-211 0 -318.5 -164t-107.5 -429t84 -406.5zM1366 221q-180 -188 -578 -258q-317 0 -514.5 203t-197.5 530t179.5 515.5t578.5 258.5q318 0 515 -203t197 -531
q0 -327 -180 -515zM530 1757h584v-125h-584v125z" />
    <glyph glyph-name="omacron" unicode="&#x14d;" horiz-adv-x="1114" 
d="M534 893q-218 0 -219 -382q0 -185 75 -309t186 -124q219 0 219 388q0 192 -75.5 309.5t-185.5 117.5zM908.5 145.5q-138.5 -132.5 -384.5 -176.5q-199 0 -328.5 138t-129.5 354q0 346 202.5 431.5t319.5 108.5q199 0 329 -138t130 -362q0 -223 -138.5 -355.5zM262 1401
h584v-127h-584v127z" />
    <glyph glyph-name="Obreve" unicode="&#x14e;" horiz-adv-x="1622" 
d="M442 348.5q84 -141.5 176.5 -202t212.5 -60.5q222 0 327.5 165t105.5 428q0 262 -119 465.5t-361 203.5q-211 0 -318.5 -164t-107.5 -429t84 -406.5zM1366 221q-180 -188 -578 -258q-317 0 -514.5 203t-197.5 530t179.5 515.5t578.5 258.5q318 0 515 -203t197 -531
q0 -327 -180 -515zM841 1688q130 0 230 135l57 -45q-48 -81 -95.5 -131t-166.5 -97q-198 0 -321 228l61 45q105 -135 235 -135z" />
    <glyph glyph-name="obreve" unicode="&#x14f;" horiz-adv-x="1114" 
d="M534 893q-218 0 -219 -382q0 -185 75 -309t186 -124q219 0 219 388q0 192 -75.5 309.5t-185.5 117.5zM908.5 145.5q-138.5 -132.5 -384.5 -176.5q-199 0 -328.5 138t-129.5 354q0 346 202.5 431.5t319.5 108.5q199 0 329 -138t130 -362q0 -223 -138.5 -355.5zM557 1276
q136 0 223 149l64 -45q-35 -72 -92.5 -130t-163.5 -113q-116 0 -204 74t-122 169l64 45q54 -97 119 -123t112 -26z" />
    <glyph glyph-name="Ohungarumlaut" unicode="&#x150;" horiz-adv-x="1622" 
d="M442 348.5q84 -141.5 176.5 -202t212.5 -60.5q222 0 327.5 165t105.5 428q0 262 -119 465.5t-361 203.5q-211 0 -318.5 -164t-107.5 -429t84 -406.5zM1366 221q-180 -188 -578 -258q-317 0 -514.5 203t-197.5 530t179.5 515.5t578.5 258.5q318 0 515 -203t197 -531
q0 -327 -180 -515zM944 1573l123 274h252l-240 -274h-135zM592 1573l123 274h252l-240 -274h-135z" />
    <glyph glyph-name="ohungarumlaut" unicode="&#x151;" horiz-adv-x="1114" 
d="M534 893q-218 0 -219 -382q0 -185 75 -309t186 -124q219 0 219 388q0 192 -75.5 309.5t-185.5 117.5zM908.5 145.5q-138.5 -132.5 -384.5 -176.5q-199 0 -328.5 138t-129.5 354q0 346 202.5 431.5t319.5 108.5q199 0 329 -138t130 -362q0 -223 -138.5 -355.5zM694 1124
l92 351h246l-239 -351h-99zM340 1124l92 351h248l-240 -351h-100z" />
    <glyph glyph-name="OE" unicode="&#x152;" horiz-adv-x="2007" 
d="M245 1198.5q169 176.5 584 259.5l271 -26l801 4l20 -371h-80l-117 258l-491 6v-528l237 8l82 217h80l-20 -266l20 -283h-80l-82 217l-237 8v-598l502 7l141 270h86l-72 -383l-796 4l-308 -27q-316 0 -513 200.5t-197 523.5t169 499.5zM499 287.5q143 -191.5 351 -191.5
l123 6v1221l-211 14q-202 0 -304 -163.5t-102 -429.5q0 -265 143 -456.5z" />
    <glyph glyph-name="oe" unicode="&#x153;" horiz-adv-x="1705" 
d="M1239 885q-96 0 -145.5 -78t-59.5 -199l365 19q0 119 -32 188.5t-128 69.5zM574 78q223 0 223 388q0 192 -75.5 308.5t-187.5 116.5q-220 0 -221 -377q0 -182 74.5 -309t186.5 -127zM1636 606v-90h-604q0 -168 90 -270.5t223 -102.5t257 84l38 -84q-150 -111 -364 -174
q-243 0 -375 168q-137 -129 -377 -168q-200 0 -329 139.5t-129 358.5q0 341 202.5 427.5t319.5 104.5q217 0 348 -163q117 117 328 165q193 0 282.5 -108.5t89.5 -286.5z" />
    <glyph glyph-name="Racute" unicode="&#x154;" horiz-adv-x="1423" 
d="M494 760h139q141 0 230 85t89 222t-79.5 205.5t-196.5 70.5l-182 -14v-569zM494 655v-549l165 -26l-10 -82l-284 6l-293 -6l-11 82l175 26v1221l-175 27l11 82l293 -6l409 6q318 0 389.5 -133.5t71.5 -221.5q0 -158 -122 -255t-312 -140l176 -92l332 -485l104 -31l-8 -80
l-193 6l-153 -6l-418 635l-25 22h-122zM586 1573l123 274h252l-240 -274h-135z" />
    <glyph glyph-name="racute" unicode="&#x155;" horiz-adv-x="854" 
d="M825 991v-239h-176q-73 -20 -178 -140l-35 -41v-465l217 -20l-10 -88l-319 6l-242 -6l-10 82l133 22v732l-133 -11l-11 84l256 62l95 8l12 -293l225 307h176zM438 1124l92 357h248l-239 -357h-101z" />
    <glyph glyph-name="Rcommaaccent" unicode="&#x156;" horiz-adv-x="1423" 
d="M494 760h139q141 0 230 85t89 222t-79.5 205.5t-196.5 70.5l-182 -14v-569zM494 655v-549l165 -26l-10 -82l-284 6l-293 -6l-11 82l175 26v1221l-175 27l11 82l293 -6l409 6q318 0 389.5 -133.5t71.5 -221.5q0 -158 -122 -255t-312 -140l176 -92l332 -485l104 -31l-8 -80
l-193 6l-153 -6l-418 635l-25 22h-122zM623 -102h225v-164l-139 -236l-86 21l47 225l-47 72v82z" />
    <glyph glyph-name="rcommaaccent" unicode="&#x157;" horiz-adv-x="854" 
d="M825 991v-239h-176q-73 -20 -178 -140l-35 -41v-465l217 -20l-10 -88l-319 6l-242 -6l-10 82l133 22v732l-133 -11l-11 84l256 62l95 8l12 -293l225 307h176zM211 -102h225v-164l-139 -236l-86 21l47 225l-47 72v82z" />
    <glyph glyph-name="Rcaron" unicode="&#x158;" horiz-adv-x="1423" 
d="M494 760h139q141 0 230 85t89 222t-79.5 205.5t-196.5 70.5l-182 -14v-569zM494 655v-549l165 -26l-10 -82l-284 6l-293 -6l-11 82l175 26v1221l-175 27l11 82l293 -6l409 6q318 0 389.5 -133.5t71.5 -221.5q0 -158 -122 -255t-312 -140l176 -92l332 -485l104 -31l-8 -80
l-193 6l-153 -6l-418 635l-25 22h-122zM489 1847l148 -118l29 -39l30 39l146 118h141l-225 -274h-183l-225 274h139z" />
    <glyph glyph-name="rcaron" unicode="&#x159;" horiz-adv-x="854" 
d="M825 991v-239h-176q-73 -20 -178 -140l-35 -41v-465l217 -20l-10 -88l-319 6l-242 -6l-10 82l133 22v732l-133 -11l-11 84l256 62l95 8l12 -293l225 307h176zM272 1495l160 -170l35 -47l37 47l160 170h98l-223 -356h-142l-225 356h100z" />
    <glyph glyph-name="Sacute" unicode="&#x15a;" horiz-adv-x="1171" 
d="M119 1051q0 310 508 419q104 0 209.5 -31.5t185.5 -86.5v-295h-121l-59 186q-41 43 -96.5 74t-159.5 31t-168 -56.5t-64 -141.5t49.5 -136t128.5 -88l250 -113q143 -68 224 -155.5t80 -237.5t-126.5 -271.5t-410.5 -185.5q-240 0 -430 139l-45 301h157l70 -180
q115 -133 301 -133q104 0 172 67t68 167t-54.5 160.5t-146.5 101.5l-248 114q-200 91 -237 187t-37 164zM547 1573l123 274h252l-240 -274h-135z" />
    <glyph glyph-name="sacute" unicode="&#x15b;" horiz-adv-x="892" 
d="M474 891q-58 0 -102 -30t-44 -80t34.5 -81.5t112.5 -70.5l156 -78q192 -96 192 -256q0 -82 -27.5 -132t-96.5 -99t-277 -95q-126 0 -320 86l-39 258h134l63 -163q80 -66 165 -66t124 38t39 95t-31 90t-108 72l-158 82q-76 39 -130.5 98t-54.5 159t92.5 168t295.5 115
q104 0 181 -27.5t118 -55.5v-230h-113l-47 148q-18 16 -59.5 35.5t-99.5 19.5zM397 1124l92 357h248l-239 -357h-101z" />
    <glyph glyph-name="Scircumflex" unicode="&#x15c;" horiz-adv-x="1171" 
d="M119 1051q0 310 508 419q104 0 209.5 -31.5t185.5 -86.5v-295h-121l-59 186q-41 43 -96.5 74t-159.5 31t-168 -56.5t-64 -141.5t49.5 -136t128.5 -88l250 -113q143 -68 224 -155.5t80 -237.5t-126.5 -271.5t-410.5 -185.5q-240 0 -430 139l-45 301h157l70 -180
q115 -133 301 -133q104 0 172 67t68 167t-54.5 160.5t-146.5 101.5l-248 114q-200 91 -237 187t-37 164zM315 1573l228 274h180l227 -274h-141l-145 121l-33 37l-29 -37l-145 -121h-142z" />
    <glyph glyph-name="scircumflex" unicode="&#x15d;" horiz-adv-x="892" 
d="M474 891q-58 0 -102 -30t-44 -80t34.5 -81.5t112.5 -70.5l156 -78q192 -96 192 -256q0 -82 -27.5 -132t-96.5 -99t-277 -95q-126 0 -320 86l-39 258h134l63 -163q80 -66 165 -66t124 38t39 95t-31 90t-108 72l-158 82q-76 39 -130.5 98t-54.5 159t92.5 168t295.5 115
q104 0 181 -27.5t118 -55.5v-230h-113l-47 148q-18 16 -59.5 35.5t-99.5 19.5zM186 1124l224 357h143l223 -357h-100l-158 170l-37 47l-37 -47l-157 -170h-101z" />
    <glyph glyph-name="Scedilla" unicode="&#x15e;" horiz-adv-x="1171" 
d="M500 -410q59 41 59 113.5t-46.5 102.5t-106.5 30l98 129q-218 11 -385 137l-45 301h157l70 -180q115 -133 301 -133q104 0 172 67t68 167t-54.5 160.5t-146.5 101.5l-248 114q-200 91 -237 187t-37 164q0 310 508 419q104 0 209.5 -31.5t185.5 -86.5v-295h-121l-59 186
q-41 43 -96.5 74t-159.5 31t-168 -56.5t-64 -141.5t49.5 -136t128.5 -88l250 -113q143 -68 224 -154.5t80 -234.5t-114.5 -265.5t-371.5 -183.5l-49 -71q66 0 116 -35t50 -93q0 -96 -59 -153.5t-138 -83.5l-104 -37h-121l59 88h146z" />
    <glyph glyph-name="scedilla" unicode="&#x15f;" horiz-adv-x="892" 
d="M389 -410q60 41 60 113.5t-46.5 102.5t-107.5 30l98 135q-129 6 -291 84l-39 258h134l63 -163q80 -66 165 -66t124 38t39 95t-31 90t-108 72l-158 82q-76 39 -130.5 98t-54.5 159t92.5 168t295.5 115q104 0 181 -27.5t118 -55.5v-230h-113l-47 148q-18 16 -59.5 35.5
t-99.5 19.5t-102 -30t-44 -80t34.5 -81.5t112.5 -70.5l156 -78q98 -49 145 -111.5t47 -154.5q0 -127 -86 -192.5t-241 -104.5l-56 -84q66 0 116 -35t50 -93q0 -96 -58.5 -153.5t-137.5 -83.5l-105 -37h-121l60 88h145z" />
    <glyph glyph-name="Scaron" unicode="&#x160;" horiz-adv-x="1171" 
d="M119 1051q0 310 508 419q104 0 209.5 -31.5t185.5 -86.5v-295h-121l-59 186q-41 43 -96.5 74t-159.5 31t-168 -56.5t-64 -141.5t49.5 -136t128.5 -88l250 -113q143 -68 224 -155.5t80 -237.5t-126.5 -271.5t-410.5 -185.5q-240 0 -430 139l-45 301h157l70 -180
q115 -133 301 -133q104 0 172 67t68 167t-54.5 160.5t-146.5 101.5l-248 114q-200 91 -237 187t-37 164zM449 1847l145 -118l29 -39l30 39l148 118h139l-225 -274h-183l-225 274h142z" />
    <glyph glyph-name="scaron" unicode="&#x161;" horiz-adv-x="892" 
d="M474 891q-58 0 -102 -30t-44 -80t34.5 -81.5t112.5 -70.5l156 -78q192 -96 192 -256q0 -82 -27.5 -132t-96.5 -99t-277 -95q-126 0 -320 86l-39 258h134l63 -163q80 -66 165 -66t124 38t39 95t-31 90t-108 72l-158 82q-76 39 -130.5 98t-54.5 159t92.5 168t295.5 115
q104 0 181 -27.5t118 -55.5v-230h-113l-47 148q-18 16 -59.5 35.5t-99.5 19.5zM283 1495l159 -170l37 -47l35 47l160 170h100l-225 -356h-141l-224 356h99z" />
    <glyph glyph-name="Tcommaaccent" unicode="&#x162;" horiz-adv-x="1261" 
d="M31 1051v385l604 -6l596 6v-385h-92l-97 272l-282 4v-1221l227 -26l-10 -82l-346 6l-355 -6l-10 82l236 26v1221l-283 -4l-98 -272h-90zM516 -102h227v-164l-141 -236l-86 21l47 225l-47 72v82z" />
    <glyph glyph-name="tcommaaccent" unicode="&#x163;" horiz-adv-x="759" 
d="M438 262q0 -125 110 -125q63 0 159 49l38 -77l-253 -140q-156 0 -222.5 61.5t-66.5 211.5v598h-193v34l76 78h121v135l158 142h71v-289h295v-100h-293v-578zM274 -102h226v-164l-140 -236l-86 21l48 225l-48 72v82z" />
    <glyph glyph-name="Tcaron" unicode="&#x164;" horiz-adv-x="1261" 
d="M31 1051v385l604 -6l596 6v-385h-92l-97 272l-282 4v-1221l227 -26l-10 -82l-346 6l-355 -6l-10 82l236 26v1221l-283 -4l-98 -272h-90zM453 1847l145 -118l31 -39l30 39l146 118h141l-225 -274h-182l-228 274h142z" />
    <glyph glyph-name="tcaron" unicode="&#x165;" horiz-adv-x="778" 
d="M438 262q0 -125 110 -125q63 0 159 49l38 -77l-253 -140q-156 0 -222.5 61.5t-66.5 211.5v598h-193v34l76 78h121v135l158 142h71v-289h295v-100h-293v-578zM539 1479h227v-164l-141 -236l-86 21l47 225l-47 72v82z" />
    <glyph glyph-name="Tbar" unicode="&#x166;" horiz-adv-x="1261" 
d="M502 864h-197v92h197v371l-283 -4l-98 -272h-90v385l604 -6l596 6v-385h-92l-97 272l-282 4v-371h194v-92h-194v-758l227 -26l-10 -82l-346 6l-355 -6l-10 82l236 26v758z" />
    <glyph glyph-name="tbar" unicode="&#x167;" horiz-adv-x="759" 
d="M438 262q0 -125 110 -125q63 0 159 49l38 -77l-253 -140q-156 0 -222.5 61.5t-66.5 211.5v344h-168v90h168v164h-193v34l76 78h121v135l158 142h71v-289h295v-100h-293v-164h238v-90h-238v-324z" />
    <glyph glyph-name="Utilde" unicode="&#x168;" horiz-adv-x="1503" 
d="M473 489q0 -395 334 -395q160 0 243 104.5t83 297.5v831l-179 27l11 82l262 -6l237 6l11 -82l-170 -27v-819q0 -211 -110.5 -342.5t-406.5 -202.5q-453 0 -517 211t-64 334v819l-174 27l10 82l281 -6l301 6l10 -82l-162 -27v-838zM510 1784l154 45l333 -103l70 107h59
l-53 -211l-151 -41l-336 102l-70 -106h-59z" />
    <glyph glyph-name="utilde" unicode="&#x169;" horiz-adv-x="1181" 
d="M401 299q1 -143 121 -143q56 0 106 25.5t101 60.5l39 26v566l-115 -11l-10 90l238 56l123 8v-707q0 -97 26 -149h94l9 -82l-295 -55l-60 172l-293 -187q-190 0 -255.5 69t-65.5 257v539l-131 -11l-10 90l256 56l122 8v-678zM313 1405l154 45l338 -111l59 107h68l-55 -217
l-152 -35l-340 113l-57 -109h-68z" />
    <glyph glyph-name="Umacron" unicode="&#x16a;" horiz-adv-x="1503" 
d="M473 489q0 -395 334 -395q160 0 243 104.5t83 297.5v831l-179 27l11 82l262 -6l237 6l11 -82l-170 -27v-819q0 -211 -110.5 -342.5t-406.5 -202.5q-453 0 -517 211t-64 334v819l-174 27l10 82l281 -6l301 6l10 -82l-162 -27v-838zM496 1757h583v-125h-583v125z" />
    <glyph glyph-name="umacron" unicode="&#x16b;" horiz-adv-x="1181" 
d="M401 299q1 -143 121 -143q56 0 106 25.5t101 60.5l39 26v566l-115 -11l-10 90l238 56l123 8v-707q0 -97 26 -149h94l9 -82l-295 -55l-60 172l-293 -187q-190 0 -255.5 69t-65.5 257v539l-131 -11l-10 90l256 56l122 8v-678zM299 1401h584v-127h-584v127z" />
    <glyph glyph-name="Ubreve" unicode="&#x16c;" horiz-adv-x="1503" 
d="M473 489q0 -395 334 -395q160 0 243 104.5t83 297.5v831l-179 27l11 82l262 -6l237 6l11 -82l-170 -27v-819q0 -211 -110.5 -342.5t-406.5 -202.5q-453 0 -517 211t-64 334v819l-174 27l10 82l281 -6l301 6l10 -82l-162 -27v-838zM780 1688q129 0 236 135l57 -45
q-48 -81 -95.5 -131t-166.5 -97q-165 0 -233 95.5t-89 132.5l62 45q46 -60 97.5 -97.5t131.5 -37.5z" />
    <glyph glyph-name="ubreve" unicode="&#x16d;" horiz-adv-x="1181" 
d="M401 299q1 -143 121 -143q56 0 106 25.5t101 60.5l39 26v566l-115 -11l-10 90l238 56l123 8v-707q0 -97 26 -149h94l9 -82l-295 -55l-60 172l-293 -187q-190 0 -255.5 69t-65.5 257v539l-131 -11l-10 90l256 56l122 8v-678zM592 1276q134 0 221 149l66 -45
q-35 -72 -92.5 -130t-165.5 -113q-116 0 -204 74t-122 169l65 45q54 -96 119.5 -122.5t112.5 -26.5z" />
    <glyph glyph-name="Uring" unicode="&#x16e;" horiz-adv-x="1503" 
d="M473 489q0 -395 334 -395q160 0 243 104.5t83 297.5v831l-179 27l11 82l262 -6l237 6l11 -82l-170 -27v-819q0 -211 -110.5 -342.5t-406.5 -202.5q-453 0 -517 211t-64 334v819l-174 27l10 82l281 -6l301 6l10 -82l-162 -27v-838zM670 1720.5q0 -53.5 32.5 -85t86 -31.5
t87 31.5t33.5 85t-33.5 87t-87 33.5t-86 -33.5t-32.5 -87zM1010 1726q0 -92 -54 -132.5t-165 -71.5q-151 0 -187.5 71.5t-36.5 122.5q0 91 57 134t164 73q148 0 185 -72t37 -125z" />
    <glyph glyph-name="uring" unicode="&#x16f;" horiz-adv-x="1181" 
d="M401 299q1 -143 121 -143q56 0 106 25.5t101 60.5l39 26v566l-115 -11l-10 90l238 56l123 8v-707q0 -97 26 -149h94l9 -82l-295 -55l-60 172l-293 -187q-190 0 -255.5 69t-65.5 257v539l-131 -11l-10 90l256 56l122 8v-678zM473 1306.5q0 -49.5 35 -79t83 -29.5t83 29.5
t35 79t-35 83t-83 33.5t-83 -33.5t-35 -83zM811 1307q0 -96 -48 -127.5t-169 -69.5q-153 0 -189 69t-36 123q0 92 55 134.5t164 74.5q223 0 223 -204z" />
    <glyph glyph-name="Uhungarumlaut" unicode="&#x170;" horiz-adv-x="1503" 
d="M473 489q0 -395 334 -395q160 0 243 104.5t83 297.5v831l-179 27l11 82l262 -6l237 6l11 -82l-170 -27v-819q0 -211 -110.5 -342.5t-406.5 -202.5q-453 0 -517 211t-64 334v819l-174 27l10 82l281 -6l301 6l10 -82l-162 -27v-838zM883 1573l123 274h251l-239 -274h-135z
M530 1573l123 274h252l-239 -274h-136z" />
    <glyph glyph-name="uhungarumlaut" unicode="&#x171;" horiz-adv-x="1181" 
d="M401 299q1 -143 121 -143q56 0 106 25.5t101 60.5l39 26v566l-115 -11l-10 90l238 56l123 8v-707q0 -97 26 -149h94l9 -82l-295 -55l-60 172l-293 -187q-190 0 -255.5 69t-65.5 257v539l-131 -11l-10 90l256 56l122 8v-678zM698 1124l95 351h245l-239 -351h-101z
M346 1124l92 351h248l-242 -351h-98z" />
    <glyph glyph-name="Uogonek" unicode="&#x172;" horiz-adv-x="1503" 
d="M205 508v819l-174 27l10 82l281 -6l301 6l10 -82l-162 -27v-838q0 -184 81 -286.5t247 -102.5t248.5 102.5t82.5 293.5v831l-178 27l11 82l262 -6l237 6l11 -82l-170 -27v-819q0 -167 -66 -278.5t-223 -184.5l-166 -281v-51q0 -66 37 -100.5t127 -34.5v-76
q-193 0 -275 51.5t-82 155.5v103l217 182l-86 -27q-581 0 -581 541z" />
    <glyph glyph-name="uogonek" unicode="&#x173;" horiz-adv-x="1181" 
d="M401 299q1 -143 121 -143q56 0 106 25.5t101 60.5l39 26v566l-115 -11l-10 90l238 56l123 8v-707q0 -97 26 -149h94l9 -82l-187 -35l-137 -240v-51q0 -135 195 -135v-76q-211 0 -299.5 51.5t-88.5 155.5v107l218 176l-56 164l-293 -187q-190 0 -255.5 69t-65.5 257v539
l-131 -11l-10 90l256 56l122 8v-678z" />
    <glyph glyph-name="Wcircumflex" unicode="&#x174;" horiz-adv-x="2060" 
d="M1335 -33l-284 867l-4 129l-295 -940l-164 -56l-449 1362l-121 25l11 82l286 -6l248 6l10 -82l-165 -27l292 -938l5 -131l258 852l-74 219l-117 25l10 82l283 -6l246 6l10 -82l-164 -27l293 -940l6 -129l320 1071l-172 25l10 82l223 -6l195 6l10 -82l-123 -25l-418 -1306
zM1219 1573l-148 121l-31 37l-28 -37l-148 -121h-139l225 274h183l225 -274h-139z" />
    <glyph glyph-name="wcircumflex" unicode="&#x175;" horiz-adv-x="1744" 
d="M893 535l-10 137l-236 -641l-190 -60l-332 897l-115 23l10 82l242 -6l207 6l10 -82l-108 -23l192 -575l17 -137l225 620l-37 92l-84 23l10 82l211 -6l205 6l10 -82l-106 -23l192 -575l17 -137l245 712l-94 23l10 82l156 -6l184 6l11 -82l-125 -23l-320 -837l-190 -60z
M596 1124l223 357h144l223 -357h-99l-159 170l-37 47l-35 -47l-160 -170h-100z" />
    <glyph glyph-name="Ycircumflex" unicode="&#x176;" horiz-adv-x="1468" 
d="M868 559l2 -453l230 -26l-10 -82l-349 6l-356 -6l-10 82l237 26v459l-452 766l-150 25l10 80l291 -6l285 6l10 -80l-164 -27l342 -577l11 -88l356 665l-168 27l10 80l236 -6l219 6l10 -80l-149 -23zM956 1573l-147 121l-31 37l-28 -37l-148 -121h-139l225 274h182
l226 -274h-140z" />
    <glyph glyph-name="ycircumflex" unicode="&#x177;" horiz-adv-x="1132" 
d="M176 -481v235h205l203 295l-125 -39l-332 860l-117 21l10 82l252 -6l224 6l10 -82l-125 -21l209 -571l20 -156l232 725l-97 21l11 84l184 -6l172 6l10 -84l-127 -21l-311 -825l-231 -524h-277zM313 1124l224 357h143l223 -357h-100l-158 170l-37 47l-37 -47l-157 -170
h-101z" />
    <glyph glyph-name="Ydieresis" unicode="&#x178;" horiz-adv-x="1468" 
d="M868 559l2 -453l230 -26l-10 -82l-349 6l-356 -6l-10 82l237 26v459l-452 766l-150 25l10 80l291 -6l285 6l10 -80l-164 -27l342 -577l11 -88l356 665l-168 27l10 80l236 -6l219 6l10 -80l-149 -23zM934 1794l135 10l55 -10l13 -106l-23 -93l-133 -12l-55 12l-13 109z
M473 1794l133 10l56 -10l12 -106l-23 -93l-131 -12l-57 12l-10 109z" />
    <glyph glyph-name="Zacute" unicode="&#x179;" horiz-adv-x="1196" 
d="M109 1061v373h995l22 -95l-755 -1165l-90 -72l630 11l144 280h110l-73 -393h-1031l-22 104l749 1153l91 72l-572 -10l-98 -258h-100zM532 1573l123 274h252l-239 -274h-136z" />
    <glyph glyph-name="zacute" unicode="&#x17a;" horiz-adv-x="985" 
d="M125 676v295h768l33 -66l-527 -758l-75 -57l403 14l107 215h100l-57 -319h-785l-29 68l527 751l80 62l-385 -13l-68 -192h-92zM444 1124l93 357h247l-241 -357h-99z" />
    <glyph glyph-name="Zdotaccent" unicode="&#x17b;" horiz-adv-x="1196" 
d="M109 1061v373h995l22 -95l-755 -1165l-90 -72l630 11l144 280h110l-73 -393h-1031l-22 104l749 1153l91 72l-572 -10l-98 -258h-100zM512 1808l145 11l72 -11l12 -122l-24 -107l-142 -12l-73 12l-13 125z" />
    <glyph glyph-name="zdotaccent" unicode="&#x17c;" horiz-adv-x="985" 
d="M125 676v295h768l33 -66l-527 -758l-75 -57l403 14l107 215h100l-57 -319h-785l-29 68l527 751l80 62l-385 -13l-68 -192h-92zM430 1454l148 10l71 -10l13 -123l-25 -104l-143 -15l-72 15l-12 123z" />
    <glyph glyph-name="Zcaron" unicode="&#x17d;" horiz-adv-x="1196" 
d="M109 1061v373h995l22 -95l-755 -1165l-90 -72l630 11l144 280h110l-73 -393h-1031l-22 104l749 1153l91 72l-572 -10l-98 -258h-100zM940 1847l-225 -274h-183l-227 274h141l146 -118l31 -39l30 39l146 118h141z" />
    <glyph glyph-name="zcaron" unicode="&#x17e;" horiz-adv-x="985" 
d="M125 676v295h768l33 -66l-527 -758l-75 -57l403 14l107 215h100l-57 -319h-785l-29 68l527 751l80 62l-385 -13l-68 -192h-92zM322 1491l159 -170l35 -49l37 49l160 170h98l-223 -358h-142l-223 358h99z" />
    <glyph glyph-name="longs" unicode="&#x17f;" horiz-adv-x="759" 
d="M221 836h-172v41l66 75h106v23q0 88 30 152.5t89 127.5l188 199h269v-182h-267l-34 -51q-39 -60 -39 -222v-897l225 -16l-10 -88l-346 6l-226 -6l-10 82l131 22v734z" />
    <glyph glyph-name="florin" unicode="&#x192;" horiz-adv-x="724" 
d="M195 836h-172v41l65 75h107v23q0 88 29.5 152.5t88.5 127.5l189 199h268v-174h-260l-39 -55q-41 -59 -41 -217v-66h260v-106h-260v-795q0 -119 -44 -196.5t-101 -141.5l-172 -184h-152v196h166l29 47q39 60 39 238v836z" />
    <glyph glyph-name="Aringacute" unicode="&#x1fa;" horiz-adv-x="1521" 
d="M711 1116l-11 113l-223 -654h424zM442 473l-125 -367l170 -26l-10 -82l-235 6l-213 -6l-11 82l146 24l491 1309l185 45l512 -1356l151 -22l-10 -82l-319 6l-259 -6l-10 82l162 26l-129 367h-496zM614 1695q0 -52 37 -86t90.5 -34t89 33.5t35.5 85.5t-35.5 87.5t-89 35.5
t-90.5 -35t-37 -87zM574 1819.5q56 43.5 169 74.5l80 107h187l-168 -125q51 -18 86 -61t35 -105q0 -105 -55 -143.5t-167 -69.5q-87 0 -155 46.5t-68 139.5t56 136.5z" />
    <glyph glyph-name="aringacute" unicode="&#x1fb;" horiz-adv-x="991" 
d="M838 281q0 -104 32 -154h101l10 -82l-303 -61l-66 161l-239 -176q-137 0 -224.5 72t-87.5 186t80 207l459 150v110q0 92 -21.5 136t-93.5 44t-147 -34l-33 -178h-211v172l393 167q208 0 279.5 -66.5t71.5 -254.5v-399zM332 157.5q35 -30.5 82 -30.5t114 47l72 49v275
l-260 -107q-43 -47 -43 -125t35 -108.5zM387 1308.5q0 -53.5 33 -85t86 -31.5t87 31.5t34 85t-34 87.5t-87 34t-86 -34t-33 -87.5zM631 1485q96 -54 96 -178t-88 -154.5t-131 -42.5q-151 0 -188 71t-37 123q0 88 56 132t169 75l41 88h229z" />
    <glyph glyph-name="AEacute" unicode="&#x1fc;" horiz-adv-x="2088" 
d="M1061 639h-412l-327 -533l151 -26l-10 -82l-230 6l-213 -6l-10 82l150 22l862 1334l164 -4l790 4l21 -371h-80l-119 258l-483 6v-590l237 9l82 217h80l-20 -267l20 -282h-80l-82 217l-237 8v-537l502 7l141 268h86l-72 -381l-792 6l-283 -6l-10 82l174 26v533zM1061 735
v594l-359 -594h359zM1137 1573l123 274h251l-239 -274h-135z" />
    <glyph glyph-name="aeacute" unicode="&#x1fd;" horiz-adv-x="1482" 
d="M297 267q0 -75 35 -105.5t73 -30.5t69.5 18.5t49.5 30.5l66 47v265l-250 -107q-43 -43 -43 -118zM1016 885q-96 0 -146.5 -78t-60.5 -199l367 19q0 119 -32 188.5t-128 69.5zM375 -31q-136 0 -225 72t-89 186t80 207l449 150v108q0 90 -18.5 136t-70.5 46q-85 0 -165 -34
l-33 -170h-207v164l383 167q123 0 196 -23.5t107 -84.5q104 72 258 108q195 0 283 -109.5t88 -285.5v-90h-602q0 -168 90 -270.5t223 -102.5t254 84l41 -84q-154 -113 -364 -174q-125 0 -230.5 50.5t-171.5 148.5zM727 1124l92 357h248l-240 -357h-100z" />
    <glyph glyph-name="Oslashacute" unicode="&#x1fe;" horiz-adv-x="1622" 
d="M735 1573l123 274h252l-240 -274h-135zM1116 1184q-126 164 -334.5 164t-316 -164t-107.5 -415t88 -423zM504 250q131 -164 340 -164t314.5 165t105.5 414t-90 427zM1329 1286q217 -204 217 -541q0 -336 -180 -524t-578 -258q-241 0 -417 121l-90 -115h-136l144 181
q-213 205 -213 539q0 335 179.5 523t578.5 258q238 0 413 -120l92 114h131z" />
    <glyph glyph-name="oslashacute" unicode="&#x1ff;" horiz-adv-x="1126" 
d="M551 1124l92 357h246l-240 -357h-98zM799 420q0 146 -29 242l-383 -449q72 -135 199 -135q104 0 158.5 98t54.5 244zM319 550q0 -146 29 -243l385 449q-77 137 -191 137t-168.5 -98.5t-54.5 -244.5zM1051 508q0 -341 -203 -429.5t-320 -109.5q-156 0 -274 88l-68 -77
h-120l120 141q-116 139 -116 340q0 346 202.5 431.5t319.5 108.5q159 0 274 -90l68 78h117l-119 -139q119 -143 119 -342z" />
    <glyph glyph-name="Scommaaccent" unicode="&#x218;" horiz-adv-x="1171" 
d="M119 1051q0 310 508 419q104 0 209.5 -31.5t185.5 -86.5v-295h-121l-59 186q-41 43 -96.5 74t-159.5 31t-168 -56.5t-64 -141.5t49.5 -136t128.5 -88l250 -113q143 -68 224 -155.5t80 -237.5t-126.5 -271.5t-410.5 -185.5q-240 0 -430 139l-45 301h157l70 -180
q115 -133 301 -133q104 0 172 67t68 167t-54.5 160.5t-146.5 101.5l-248 114q-200 91 -237 187t-37 164zM465 -102h225v-164l-139 -236l-86 21l47 225l-47 72v82z" />
    <glyph glyph-name="scommaaccent" unicode="&#x219;" horiz-adv-x="892" 
d="M474 891q-58 0 -102 -30t-44 -80t34.5 -81.5t112.5 -70.5l156 -78q192 -96 192 -256q0 -82 -27.5 -132t-96.5 -99t-277 -95q-126 0 -320 86l-39 258h134l63 -163q80 -66 165 -66t124 38t39 95t-31 90t-108 72l-158 82q-76 39 -130.5 98t-54.5 159t92.5 168t295.5 115
q104 0 181 -27.5t118 -55.5v-230h-113l-47 148q-18 16 -59.5 35.5t-99.5 19.5zM328 -102h227v-164l-141 -236l-86 21l47 225l-47 72v82z" />
    <glyph glyph-name="uni021A" unicode="&#x21a;" horiz-adv-x="1261" 
d="M31 1051v385l604 -6l596 6v-385h-92l-97 272l-282 4v-1221l227 -26l-10 -82l-346 6l-355 -6l-10 82l236 26v1221l-283 -4l-98 -272h-90zM516 -102h227v-164l-141 -236l-86 21l47 225l-47 72v82z" />
    <glyph glyph-name="uni021B" unicode="&#x21b;" horiz-adv-x="759" 
d="M438 262q0 -125 110 -125q63 0 159 49l38 -77l-253 -140q-156 0 -222.5 61.5t-66.5 211.5v598h-193v34l76 78h121v135l158 142h71v-289h295v-100h-293v-578zM274 -102h226v-164l-140 -236l-86 21l48 225l-48 72v82z" />
    <glyph glyph-name="hsuperior" unicode="&#x2b0;" horiz-adv-x="831" 
d="M719 1212v-319l67 -14l-6 -62l-155 4l-142 -4l-6 62l47 14v301q0 57 -59 57q-41 0 -103 -39l-24 -12v-307l49 -14l-6 -62l-137 4l-156 -4l-6 62l65 14v637l-69 -2l-6 61l184 31l82 2v-346l188 104q104 0 148.5 -33.5t44.5 -134.5z" />
    <glyph glyph-name="jsuperior" unicode="&#x2b2;" horiz-adv-x="397" 
d="M123 879v399l-68 -2l-6 61l184 27l80 4v-469q0 -127 -55 -182t-74 -72l-106 -90h-109v145h133l7 25q14 47 14 154zM139 1606l125 8l41 -8l10 -84l-18 -70l-123 -8l-41 8l-8 82z" />
    <glyph glyph-name="wsuperior" unicode="&#x2b7;" horiz-adv-x="1089" 
d="M563 1085l-8 82l-133 -333l-143 -31l-213 487l-56 17l6 59l164 -4l137 4l7 -59l-58 -17l105 -268l8 -98l125 303l-29 63l-49 17l6 59l160 -4l135 4l6 -59l-55 -17l102 -268l11 -98l133 366l-58 17l6 59l107 -4l94 4l6 -59l-67 -17l-181 -456l-145 -31z" />
    <glyph glyph-name="ysuperior" unicode="&#x2b8;" horiz-adv-x="714" 
d="M113 555v174h155l125 141l-129 -43l-196 467l-58 11l6 61l170 -4l144 4l6 -61l-62 -11l115 -272l17 -107l124 375l-59 13l6 63l117 -4l104 4l7 -63l-70 -13l-178 -436l-142 -299h-202z" />
    <glyph glyph-name="apostrophemod" unicode="&#x2bc;" horiz-adv-x="421" 
d="M100 1202l-10 129l10 111l174 12l66 -12l12 -127l-12 -113l-143 -311l-84 35q42 94 61 169.5t19 96.5z" />
    <glyph glyph-name="circumflex" unicode="&#x2c6;" horiz-adv-x="1024" 
d="M207 1124l215 357h160l215 -357h-101l-194 183l-195 -183h-100z" />
    <glyph glyph-name="caron" unicode="&#x2c7;" horiz-adv-x="1024" 
d="M307 1491l195 -178l194 178h101l-215 -352h-160l-215 352h100z" />
    <glyph glyph-name="breve" unicode="&#x2d8;" horiz-adv-x="1024" 
d="M283 1452q101 -145 221 -145t168.5 62.5t62.5 82.5l66 -47q-16 -29 -55.5 -109t-204.5 -159q-114 0 -189.5 74t-134.5 194z" />
    <glyph glyph-name="dotaccent" unicode="&#x2d9;" horiz-adv-x="1024" 
d="M414 1448l137 10l67 -12l11 -115l-23 -98l-133 -12l-70 12l-10 117z" />
    <glyph glyph-name="ring" unicode="&#x2da;" horiz-adv-x="1024" 
d="M395 1306.5q0 -49.5 34 -79t83 -29.5t83 29.5t34 79t-34 83t-83 33.5t-83 -33.5t-34 -83zM733 1307q0 -94 -47 -125t-86 -43.5t-84 -28.5q-153 0 -189 69t-36 123q0 92 56.5 135.5t162.5 73.5q223 0 223 -204z" />
    <glyph glyph-name="ogonek" unicode="&#x2db;" horiz-adv-x="1024" 
d="M524 -287q0 -66 45 -100.5t152 -34.5v-76q-305 0 -346 78t-41 129v123l223 234h78l-111 -285v-68z" />
    <glyph glyph-name="tilde" unicode="&#x2dc;" horiz-adv-x="1024" 
d="M229 1405l154 45l338 -111l59 107h66l-53 -217l-152 -35l-340 113l-57 -109h-68z" />
    <glyph glyph-name="hungarumlaut" unicode="&#x2dd;" horiz-adv-x="1024" 
d="M455 1124l92 351h248l-240 -351h-100zM100 1124l95 351h245l-239 -351h-101z" />
    <glyph glyph-name="xsuperior" unicode="&#x2e3;" horiz-adv-x="757" 
d="M279 879l-7 -62l-135 4l-98 -4l-6 62l63 12l185 180l-179 223l-67 11l6 61l145 -4l185 4l6 -61l-49 -11l69 -90l13 -43l127 133l-41 11l6 61l112 -4l101 4l6 -61l-66 -11l-170 -168l197 -235l55 -12l-6 -62l-129 4l-188 -4l-8 62l53 12l-90 92l-19 45l-131 -137z" />
    <glyph glyph-name="Delta" unicode="&#x394;" horiz-adv-x="1384" 
d="M190 113h863l-385 907l-15 113zM41 0v113l621 1310l92 41l589 -1349v-115h-1302z" />
    <glyph glyph-name="Omega" unicode="&#x3a9;" horiz-adv-x="1474" 
d="M61 0v338h80l49 -129l340 -64v105q-183 40 -315.5 190.5t-132.5 392.5t160 394t516 237q278 0 456.5 -173t178.5 -414q0 -354 -176.5 -462t-278.5 -147v-123l346 64l49 129h80v-338h-604v338q204 35 259.5 196.5t55.5 289.5q0 243 -112 382.5t-280 139.5t-275 -129.5
t-107 -351.5q0 -223 98 -366.5t218 -160.5v-338h-605z" />
    <glyph glyph-name="mu" unicode="&#x3bc;" 
d="M137 -471v1442h236v-629q0 -98 42 -143t97 -45t103.5 27.5t97.5 60.5l39 24v705h235v-723q0 -82 35 -120t108 -56l-12 -72h-268l-92 152l-228 -183q-206 0 -251 99v-136l122 -403h-264z" />
    <glyph glyph-name="pi" unicode="&#x3c0;" 
d="M993 272q0 -82 30 -130t116 -70l-15 -72h-276l-88 152v688h-242v-840h-231v840h-101l-67 -185h-78v308h1188v-123h-236v-568z" />
    <glyph glyph-name="Wgrave" unicode="&#x1e80;" horiz-adv-x="2060" 
d="M1335 -33l-284 867l-4 129l-295 -940l-164 -56l-449 1362l-121 25l11 82l286 -6l248 6l10 -82l-165 -27l292 -938l5 -131l258 852l-74 219l-117 25l10 82l283 -6l246 6l10 -82l-164 -27l293 -940l6 -129l320 1071l-172 25l10 82l223 -6l195 6l10 -82l-123 -25l-418 -1306
zM979 1573l-240 274h254l121 -274h-135z" />
    <glyph glyph-name="wgrave" unicode="&#x1e81;" horiz-adv-x="1744" 
d="M893 535l-10 137l-236 -641l-190 -60l-332 897l-115 23l10 82l242 -6l207 6l10 -82l-108 -23l192 -575l17 -137l225 620l-37 92l-84 23l10 82l211 -6l205 6l10 -82l-106 -23l192 -575l17 -137l245 712l-94 23l10 82l156 -6l184 6l11 -82l-125 -23l-320 -837l-190 -60z
M868 1124l-239 357h248l92 -357h-101z" />
    <glyph glyph-name="Wacute" unicode="&#x1e82;" horiz-adv-x="2060" 
d="M1335 -33l-284 867l-4 129l-295 -940l-164 -56l-449 1362l-121 25l11 82l286 -6l248 6l10 -82l-165 -27l292 -938l5 -131l258 852l-74 219l-117 25l10 82l283 -6l246 6l10 -82l-164 -27l293 -940l6 -129l320 1071l-172 25l10 82l223 -6l195 6l10 -82l-123 -25l-418 -1306
zM950 1573l123 274h252l-240 -274h-135z" />
    <glyph glyph-name="wacute" unicode="&#x1e83;" horiz-adv-x="1744" 
d="M893 535l-10 137l-236 -641l-190 -60l-332 897l-115 23l10 82l242 -6l207 6l10 -82l-108 -23l192 -575l17 -137l225 620l-37 92l-84 23l10 82l211 -6l205 6l10 -82l-106 -23l192 -575l17 -137l245 712l-94 23l10 82l156 -6l184 6l11 -82l-125 -23l-320 -837l-190 -60z
M862 1124l94 357h246l-239 -357h-101z" />
    <glyph glyph-name="Wdieresis" unicode="&#x1e84;" horiz-adv-x="2060" 
d="M1335 -33l-284 867l-4 129l-295 -940l-164 -56l-449 1362l-121 25l11 82l286 -6l248 6l10 -82l-165 -27l292 -938l5 -131l258 852l-74 219l-117 25l10 82l283 -6l246 6l10 -82l-164 -27l293 -940l6 -129l320 1071l-172 25l10 82l223 -6l195 6l10 -82l-123 -25l-418 -1306
zM1190 1794l135 10l55 -10l13 -106l-23 -93l-133 -12l-55 12l-13 109zM729 1794l133 10l58 -10l10 -106l-23 -93l-131 -12l-55 12l-12 109z" />
    <glyph glyph-name="wdieresis" unicode="&#x1e85;" horiz-adv-x="1744" 
d="M893 535l-10 137l-236 -641l-190 -60l-332 897l-115 23l10 82l242 -6l207 6l10 -82l-108 -23l192 -575l17 -137l225 620l-37 92l-84 23l10 82l211 -6l205 6l10 -82l-106 -23l192 -575l17 -137l245 712l-94 23l10 82l156 -6l184 6l11 -82l-125 -23l-320 -837l-190 -60z
M997 1415l136 10l55 -10l12 -108l-22 -90l-134 -13l-55 13l-12 108zM618 1415l134 10l57 -10l10 -108l-22 -90l-131 -13l-56 13l-12 108z" />
    <glyph glyph-name="Ygrave" unicode="&#x1ef2;" horiz-adv-x="1468" 
d="M868 559l2 -453l230 -26l-10 -82l-349 6l-356 -6l-10 82l237 26v459l-452 766l-150 25l10 80l291 -6l285 6l10 -80l-164 -27l342 -577l11 -88l356 665l-168 27l10 80l236 -6l219 6l10 -80l-149 -23zM725 1573l-240 274h252l123 -274h-135z" />
    <glyph glyph-name="ygrave" unicode="&#x1ef3;" horiz-adv-x="1132" 
d="M176 -481v235h205l203 295l-125 -39l-332 860l-117 21l10 82l252 -6l224 6l10 -82l-125 -21l209 -571l20 -156l232 725l-97 21l11 84l184 -6l172 6l10 -84l-127 -21l-311 -825l-231 -524h-277zM582 1124l-242 357h248l92 -357h-98z" />
    <glyph glyph-name="endash" unicode="&#x2013;" horiz-adv-x="1095" 
d="M82 625h932v-115h-932v115z" />
    <glyph glyph-name="emdash" unicode="&#x2014;" horiz-adv-x="2027" 
d="M580 586h868v-37h-868v37z" />
    <glyph glyph-name="quoteleft" unicode="&#x2018;" horiz-adv-x="401" 
d="M334 1163l12 -129l-12 -110l-174 -13l-66 13l-12 127l12 112l144 310l84 -33q-47 -106 -63.5 -176t-16.5 -90z" />
    <glyph glyph-name="quoteright" unicode="&#x2019;" horiz-adv-x="421" 
d="M100 1202l-10 129l10 111l174 12l66 -12l12 -127l-12 -113l-143 -311l-84 35q42 94 61 169.5t19 96.5z" />
    <glyph glyph-name="quotesinglbase" unicode="&#x201a;" horiz-adv-x="442" 
d="M119 0l-10 129l10 111l174 12l65 -12l13 -127l-13 -113l-143 -311l-84 35q46 105 63 175t17 91z" />
    <glyph glyph-name="quotedblleft" unicode="&#x201c;" horiz-adv-x="757" 
d="M690 1163l12 -129l-12 -110l-172 -13l-67 13l-13 127l13 112l143 310l86 -33q-82 -185 -82 -266zM334 1163l12 -129l-12 -110l-174 -13l-66 13l-12 127l12 112l144 310l84 -33q-47 -106 -63.5 -176t-16.5 -90z" />
    <glyph glyph-name="quotedblright" unicode="&#x201d;" horiz-adv-x="778" 
d="M106 1202l-12 129l12 111l173 12l67 -12l12 -127l-12 -113l-143 -311l-84 35q42 94 61 169.5t19 96.5zM463 1202l-12 129l12 111l174 12l65 -12l13 -127l-13 -113l-143 -311l-84 35q46 105 63 175t17 91z" />
    <glyph glyph-name="quotedblbase" unicode="&#x201e;" horiz-adv-x="798" 
d="M119 0l-10 129l10 111l174 12l65 -12l13 -127l-13 -113l-143 -311l-84 35q46 105 63 175t17 91zM475 0l-10 129l10 111l174 12l66 -12l12 -127l-12 -113l-142 -311l-86 35q46 105 63 175t17 91z" />
    <glyph glyph-name="dagger" unicode="&#x2020;" horiz-adv-x="880" 
d="M45 1133l332 -62l-62 383h238l-61 -383l344 62v-228l-344 62l24 -209l57 -84l-57 -211l-53 -586h-55l-54 586l-57 211l57 84l25 209l-334 -62v228z" />
    <glyph glyph-name="daggerdbl" unicode="&#x2021;" horiz-adv-x="911" 
d="M371 758l22 209l-332 -62v228l330 -62l-61 383h239l-61 -383l342 62v-228l-342 62l24 -209l58 -84l-58 -84l-24 -209l342 61v-227l-342 61l61 -382h-239l61 382l-330 -61v227l332 -61l-22 209l-60 84z" />
    <glyph glyph-name="bullet" unicode="&#x2022;" horiz-adv-x="497" 
d="M115 756l182 12l86 -12l12 -142l-12 -127l-182 -12l-86 12l-13 144z" />
    <glyph glyph-name="ellipsis" unicode="&#x2026;" horiz-adv-x="1632" 
d="M1233 236l168 12l65 -12l13 -125l-13 -109l-168 -12l-65 12l-12 127zM698 236l168 12l66 -12l12 -125l-12 -109l-168 -12l-66 12l-12 127zM166 236l166 12l67 -12l13 -125l-13 -109l-168 -12l-65 12l-12 127z" />
    <glyph glyph-name="perthousand" unicode="&#x2030;" horiz-adv-x="2390" 
d="M1223 66q133 0 133 251q0 145 -40 231.5t-112 86.5q-139 0 -139 -254q0 -145 40 -230t118 -85zM1962 635q-137 0 -137 -254q0 -145 39.5 -230t111.5 -85q138 0 138 251q0 145 -40 231.5t-112 86.5zM1550 359q0 -159 -91 -247.5t-275 -119.5q-139 0 -224.5 95t-85.5 253
t92.5 247t272.5 120q139 0 225 -94.5t86 -253.5zM2308 359q0 -159 -91 -247.5t-275 -119.5q-139 0 -224.5 94t-85.5 253t92.5 248t272.5 120q139 0 225 -94.5t86 -253.5zM412 1372q-138 0 -138 -254q0 -145 40 -230t112 -85q137 0 137 254q0 143 -39.5 229t-111.5 86z
M758 1098q0 -158 -91.5 -247t-275.5 -122q-138 0 -223.5 94t-85.5 253t92 248t272 120q141 0 226.5 -94t85.5 -252zM406 -10h-158l1014 1454h157z" />
    <glyph glyph-name="guilsinglleft" unicode="&#x2039;" horiz-adv-x="595" 
d="M401 31l-370 450l372 451h132l-261 -453l261 -448h-134z" />
    <glyph glyph-name="guilsinglright" unicode="&#x203a;" horiz-adv-x="595" 
d="M61 31l261 448l-261 453h132l372 -451l-370 -450h-134z" />
    <glyph glyph-name="fraction" unicode="&#x2044;" horiz-adv-x="262" 
d="M-199 -102h-129l793 1556h125z" />
    <glyph glyph-name="zerosuperior" unicode="&#x2070;" horiz-adv-x="860" 
d="M559 1162q0 384 -141 384q-87 0 -102 -123t-15 -193t8 -134t24.5 -112t44 -75.5t61.5 -27.5q63 0 91.5 88.5t28.5 192.5zM92 1202q0 176 83 281.5t280 140.5q146 0 229.5 -112t83.5 -287q0 -176 -83 -282.5t-279 -139.5q-147 0 -230.5 111.5t-83.5 287.5z" />
    <glyph glyph-name="foursuperior" unicode="&#x2074;" horiz-adv-x="733" 
d="M555 1133h147v-125h-147v-189h-168v189h-305l-51 86l401 514h154v-72l-430 -426l63 23h168v112l131 109h37v-221z" />
    <glyph glyph-name="fivesuperior" unicode="&#x2075;" horiz-adv-x="710" 
d="M426 1094q0 138 -137 137q-41 0 -121 -29l-41 -18l-33 28l51 396h473v-56l-40 -88h-381l-27 -204l192 88q117 0 192 -50.5t75 -146.5q0 -126 -105.5 -183t-158.5 -83l-127 -66h-146v154h277q57 57 57 121z" />
    <glyph glyph-name="sixsuperior" unicode="&#x2076;" horiz-adv-x="770" 
d="M401 874q43 0 70 40t27 121t-22.5 121t-54.5 40t-52.5 -12.5t-42.5 -28.5l-35 -25q0 -256 110 -256zM698 1078q0 -215 -336 -275q-131 0 -205.5 85t-74.5 232q0 254 183.5 361.5t320.5 150.5l18 -63q-248 -87 -276.5 -195t-32.5 -166l154 121q117 0 183 -71t66 -180z" />
    <glyph glyph-name="sevensuperior" unicode="&#x2077;" horiz-adv-x="673" 
d="M41 1608h551l41 -45l-371 -744h-156v78l371 580l-39 -23h-397v154z" />
    <glyph glyph-name="eightsuperior" unicode="&#x2078;" horiz-adv-x="747" 
d="M270 1032q0 -63 30 -110.5t74 -47.5t73.5 30t29.5 77q0 77 -42 117t-109 71q-56 -39 -56 -137zM469 1414.5q0 64.5 -23.5 102t-66.5 37.5q-86 0 -86 -102q0 -53 32.5 -85t80.5 -60q63 43 63 107.5zM676 1038q0 -94 -82 -149t-236 -86q-126 0 -206 59t-80 134t37.5 123
t146.5 89q-162 77 -162 203q0 150 291 213q127 0 202 -49t75 -120t-51.5 -114t-139.5 -77q205 -89 205 -226z" />
    <glyph glyph-name="ninesuperior" unicode="&#x2079;" horiz-adv-x="718" 
d="M377 1624q131 0 205.5 -84t74.5 -229q0 -354 -503 -512l-19 65q250 88 277.5 195.5t31.5 163.5l-153 -119q-123 0 -186.5 70t-63.5 182q0 209 336 268zM338 1552q-43 0 -69.5 -38.5t-26.5 -117.5t22.5 -119t54.5 -40t52 11.5t43 25.5l35 26q0 252 -111 252z" />
    <glyph glyph-name="plussuperior" unicode="&#x207a;" horiz-adv-x="837" 
d="M371 891v239h-269v95h269v245h98v-245h266v-95h-266v-239h-98z" />
    <glyph glyph-name="minussuperior" unicode="&#x207b;" horiz-adv-x="849" 
d="M102 1257h646v-96h-646v96z" />
    <glyph glyph-name="equalsuperior" unicode="&#x207c;" horiz-adv-x="837" 
d="M735 1012h-633v92h633v-92zM735 1231h-633v94h633v-94z" />
    <glyph glyph-name="parenleftsuperior" unicode="&#x207d;" horiz-adv-x="456" 
d="M290.5 899q34.5 -112 125.5 -240l-41 -36q-150 138 -211.5 256.5t-61.5 288.5t61 285.5t212 254.5l41 -35q-91 -125 -125.5 -237.5t-34.5 -268.5t34.5 -268z" />
    <glyph glyph-name="parenrightsuperior" unicode="&#x207e;" horiz-adv-x="395" 
d="M163.5 1440q-37.5 117 -122.5 233l41 35q150 -134 211 -252t61 -290q0 -173 -61 -290t-211 -253l-41 36q83 115 121.5 233.5t38.5 274.5t-37.5 273z" />
    <glyph glyph-name="nsuperior" unicode="&#x207f;" horiz-adv-x="817" 
d="M709 1212v-319l67 -14l-6 -62l-156 4l-141 -4l-6 62l47 14v301q0 57 -61 57q-48 0 -101 -39l-24 -12v-307l49 -14l-6 -62l-138 4l-155 -4l-6 62l65 14v381l-69 -2l-7 63l185 29l82 4v-92l188 104q104 0 148.5 -33.5t44.5 -134.5z" />
    <glyph glyph-name="zeroinferior" unicode="&#x2080;" horiz-adv-x="860" 
d="M559 35q0 385 -141 385q-87 0 -102 -123t-15 -193t8 -134t24.5 -112t44 -76t61.5 -28q63 0 91.5 88t28.5 193zM92 75q0 177 83 282.5t280 140.5q145 0 229 -111.5t84 -287.5q0 -177 -83 -283.5t-279 -139.5q-146 0 -230 111t-84 288z" />
    <glyph glyph-name="oneinferior" unicode="&#x2081;" horiz-adv-x="643" 
d="M440 487v-714l172 -21l-6 -61l-260 4l-266 -4l-6 61l172 21v559l12 35l-57 -37l-111 -17l-29 56l277 118h102z" />
    <glyph glyph-name="twoinferior" unicode="&#x2082;" horiz-adv-x="751" 
d="M670 -164v-53l-41 -90h-559l-29 55l227 225q178 186 178 316q0 131 -96 131q-39 0 -74 -14l-36 -148h-148v156l285 84q123 0 197.5 -57.5t74.5 -157.5t-69.5 -180t-196.5 -169l-215 -145l145 47h357z" />
    <glyph glyph-name="threeinferior" unicode="&#x2083;" horiz-adv-x="669" 
d="M416 -50q0 60 -43 97t-135 37l-13 47l45 19q115 46 115 151q0 57 -22.5 86t-57.5 29t-59 -13l-37 -145h-148v156l285 84q177 0 202 -60.5t25 -91.5q0 -66 -47 -109.5t-143 -72.5q123 -8 179 -59.5t56 -108.5t-27.5 -93t-69.5 -62.5t-94 -49t-101 -45.5l-111 -53h-147v153
h301q47 44 47 104z" />
    <glyph glyph-name="fourinferior" unicode="&#x2084;" horiz-adv-x="733" 
d="M555 6h147v-125h-147v-188h-168v188h-305l-51 86l401 514h154v-71l-430 -426l63 22h168v113l131 108h37v-221z" />
    <glyph glyph-name="fiveinferior" unicode="&#x2085;" horiz-adv-x="710" 
d="M426 -34q0 138 -137 138q-44 0 -121 -28l-41 -19l-33 29l51 395h473v-55l-40 -88h-381l-27 -205l192 88q117 0 192 -50t75 -146q0 -128 -105.5 -184t-158.5 -83l-127 -65h-146v153h277q57 56 57 120z" />
    <glyph glyph-name="sixinferior" unicode="&#x2086;" horiz-adv-x="770" 
d="M609 -231q-89 -63 -247 -93q-131 0 -205.5 85t-74.5 233q0 252 183.5 360.5t320.5 151.5l18 -64q-248 -87 -276.5 -195t-32.5 -165l154 121q118 0 183.5 -72t65.5 -186q0 -113 -89 -176zM401 -252q43 0 70 40t27 121t-22.5 121t-54.5 40t-52.5 -12.5t-42.5 -28.5l-35 -25
q0 -256 110 -256z" />
    <glyph glyph-name="seveninferior" unicode="&#x2087;" horiz-adv-x="673" 
d="M41 481h551l41 -45l-371 -743h-156v78l371 579l-39 -22h-397v153z" />
    <glyph glyph-name="eightinferior" unicode="&#x2088;" horiz-adv-x="747" 
d="M469 287.5q0 64.5 -23.5 102.5t-66.5 38q-86 0 -86 -102q0 -53 32.5 -85t80.5 -61q63 43 63 107.5zM676 -88q0 -94 -82 -149.5t-236 -86.5q-126 0 -206 59t-80 134t37.5 123.5t146.5 89.5q-162 77 -162 203q0 150 291 213q127 0 202 -50t75 -120t-51.5 -113t-139.5 -78
q205 -89 205 -225zM270 -94q0 -63 30 -110.5t74 -47.5t73.5 29t29.5 77q0 78 -42 118t-109 71q-56 -39 -56 -137z" />
    <glyph glyph-name="nineinferior" unicode="&#x2089;" horiz-adv-x="718" 
d="M128.5 405.5q87.5 61.5 248.5 92.5q131 0 205.5 -84t74.5 -230q0 -255 -183 -362t-320 -150l-19 66q250 88 277.5 195.5t31.5 162.5l-153 -119q-123 0 -186.5 70.5t-63.5 183.5t87.5 174.5zM338 426q-43 0 -69.5 -39t-26.5 -118t22.5 -118.5t54.5 -39.5t52 11t43 25
l35 27q0 252 -111 252z" />
    <glyph glyph-name="parenleftinferior" unicode="&#x208d;" horiz-adv-x="456" 
d="M292 -248.5q36 -116.5 124 -232.5l-41 -37q-149 137 -211 254.5t-62 324.5t99.5 323t173.5 183l41 -37q-91 -124 -125.5 -234.5t-34.5 -269.5q0 -158 36 -274.5z" />
    <glyph glyph-name="parenrightinferior" unicode="&#x208e;" horiz-adv-x="395" 
d="M201 25q0 160 -38 275t-122 230l41 37q150 -134 211 -251.5t61 -290t-61 -290t-211 -253.5l-41 37q160 212 160 506z" />
    <glyph glyph-name="Euro" unicode="&#x20ac;" horiz-adv-x="1413" 
d="M92 516v125h127v65q0 64 2 87h-129v125h146q71 336 294.5 427t360.5 119q215 0 311 -67.5t127 -91.5v-287h-117l-53 201q-103 129 -297 129q-124 0 -225.5 -114t-136.5 -316h604l-72 -125h-545v-45q0 -55 7 -107h477l-74 -125h-385q42 -175 150 -279t277 -104
q168 0 329 98l47 -88q-102 -65 -228 -111t-192 -63q-262 0 -436 137.5t-228 409.5h-141z" />
    <glyph glyph-name="afii61289" unicode="&#x2113;" horiz-adv-x="944" 
d="M471 705q176 131 176 337q0 99 -25.5 177.5t-82.5 78.5l-68 -20v-573zM862 1130q0 -208 -102 -337.5t-289 -235.5v-414l297 97l51 -66l-381 -209l-180 45v453l-176 -74v125q127 51 176 76v661l320 222q143 -4 213.5 -114.5t70.5 -228.5z" />
    <glyph glyph-name="afii61352" unicode="&#x2116;" horiz-adv-x="2066" 
d="M1245 143h729v-143h-729v143zM1604 881q-142 1 -142 -223q0 -114 46 -201.5t134 -87.5q53 0 84 54.5t31 168.5t-41.5 201.5t-111.5 87.5zM1870.5 375.5q-101.5 -88.5 -289.5 -119.5q-153 0 -244.5 97.5t-91.5 256.5q0 257 160 313t252 70q144 0 229.5 -98.5t85.5 -264.5
t-101.5 -254.5zM1114 0h-162l-528 1014l-55 209v-1223h-291l-10 72q92 31 135 83t43 87v1069l-170 41l10 82l184 -7l199 7l463 -867l57 -209v1076h283l10 -72q-44 -13 -106 -61.5t-62 -108.5v-1192z" />
    <glyph glyph-name="trademark" unicode="&#x2122;" horiz-adv-x="2138" 
d="M102 1184v252l387 -2l369 2v-252h-65l-64 172l-143 4v-637l129 -14l-6 -66l-228 4l-229 -4l-6 66l131 14v637l-144 -4l-63 -172h-68zM1714 1436l172 -4l144 4l6 -64l-88 -14v-635l86 -14l-4 -66l-183 2l-182 -2l-6 66l90 14v502l18 139l-274 -721h-127l-233 571l-33 144
v-635l88 -14l-4 -66l-135 2l-131 -2l-7 66l90 14v635l-92 14l6 64l113 -4l221 4l219 -533v-110z" />
    <glyph glyph-name="uni2126" unicode="&#x2126;" horiz-adv-x="1474" 
d="M61 0v338h80l49 -129l340 -64v105q-183 40 -315.5 190.5t-132.5 392.5t160 394t516 237q278 0 456.5 -173t178.5 -414q0 -354 -176.5 -462t-278.5 -147v-123l346 64l49 129h80v-338h-604v338q204 35 259.5 196.5t55.5 289.5q0 243 -112 382.5t-280 139.5t-275 -129.5
t-107 -351.5q0 -223 98 -366.5t218 -160.5v-338h-605z" />
    <glyph glyph-name="estimated" unicode="&#x212e;" horiz-adv-x="1699" 
d="M383 788h928v150q-51 188 -185.5 295.5t-309.5 107.5t-281.5 -89t-151.5 -228v-236zM273 1182.5q171 166.5 597 281.5q312 0 513.5 -194t213.5 -492v-98h-1214v-178q53 -190 187.5 -300t309.5 -110t283 97.5t148 261.5h237q-71 -199 -238.5 -304t-480.5 -178
q-322 0 -524.5 204.5t-202.5 523.5t171 485.5z" />
    <glyph glyph-name="arrowleft" unicode="&#x2190;" horiz-adv-x="1249" 
d="M1147 676v-144h-821l82 -38l247 -242v-201l-553 553l553 553v-201l-247 -239l-82 -41h821z" />
    <glyph glyph-name="arrowup" unicode="&#x2191;" horiz-adv-x="1310" 
d="M727 82h-143v821l-41 -82l-240 -248h-201l553 553l553 -553h-200l-240 248l-41 82v-821z" />
    <glyph glyph-name="arrowright" unicode="&#x2192;" horiz-adv-x="1249" 
d="M102 532v144h822l-82 41l-248 239v201l553 -553l-553 -553v201l248 242l82 38h-822z" />
    <glyph glyph-name="arrowdown" unicode="&#x2193;" horiz-adv-x="1310" 
d="M584 1126h143v-821l41 82l240 248h200l-553 -553l-553 553h201l240 -248l41 -82v821z" />
    <glyph glyph-name="uni2196" unicode="&#x2196;" horiz-adv-x="995" 
d="M102 973h783l-144 -142l-344 7l-88 28l584 -579l-105 -105l-579 584l29 -86l6 -346l-142 -144v783z" />
    <glyph glyph-name="uni2197" unicode="&#x2197;" horiz-adv-x="995" 
d="M893 973v-783l-141 144l4 346l30 86l-581 -584l-103 105l582 579l-86 -28l-346 -7l-141 142h782z" />
    <glyph glyph-name="uni2198" unicode="&#x2198;" horiz-adv-x="995" 
d="M893 182h-782l141 142l346 -7l86 -28l-582 581l103 103l581 -582l-30 86l-4 346l141 142v-783z" />
    <glyph glyph-name="uni2199" unicode="&#x2199;" horiz-adv-x="995" 
d="M102 182v783l142 -142l-6 -346l-29 -86l579 582l105 -103l-584 -581l88 28l344 7l144 -142h-783z" />
    <glyph glyph-name="partialdiff" unicode="&#x2202;" 
d="M646 80q226 0 226 344q0 182 -70 300t-180 118t-168.5 -80t-58.5 -264t71 -301t180 -117zM1120 500q0 -142 -40 -232t-138 -175.5t-350 -123.5q-196 0 -320.5 133t-124.5 347q0 429 529 503l162 -57q-31 115 -106 221.5t-191 175.5l-150 90l51 93l136 -64
q542 -259 542 -911z" />
    <glyph glyph-name="uni2206" unicode="&#x2206;" horiz-adv-x="1384" 
d="M190 113h863l-385 907l-15 113zM41 0v113l621 1310l92 41l589 -1349v-115h-1302z" />
    <glyph glyph-name="product" unicode="&#x220f;" horiz-adv-x="1521" 
d="M1059 1315h-586v-1534l152 -27l-11 -82l-270 6l-293 -6l-10 82l174 27v1544l-174 27l10 82l273 -7h866l280 7l11 -82l-164 -27v-1544l164 -27l-11 -82l-280 6l-283 -6l-10 82l162 27v1534z" />
    <glyph glyph-name="summation" unicode="&#x2211;" 
d="M1126 1434v-369h-82l-94 256l-514 10l477 -686v-61l-594 -725l670 30l101 179h90l-72 -396h-975l-45 82l598 744l-577 854l45 82h972z" />
    <glyph glyph-name="minus" unicode="&#x2212;" 
d="M96 639h1075v-145h-1075v145z" />
    <glyph glyph-name="radical" unicode="&#x221a;" 
d="M369 -33l-340 903l-131 21l12 72h340l227 -644l17 -145l540 1641h486l-41 -125h-336l-574 -1659z" />
    <glyph glyph-name="infinity" unicode="&#x221e;" horiz-adv-x="1689" 
d="M1270 475q67 0 123.5 40t56.5 114q0 153 -205 153q-131 0 -213 -75l-69 -70q186 -162 307 -162zM294.5 711.5q-56.5 -38.5 -56.5 -113.5q0 -74 55.5 -122t167.5 -48t205 80l71 67q-110 117 -190 146t-138 29t-114.5 -38.5zM420 264q-56 0 -114 25.5t-120.5 92.5
t-62.5 212q0 182 119.5 260t212.5 109q165 0 276 -101.5t152 -138.5l71 82q138 158 312 158q56 0 117 -27t122.5 -96t61.5 -205q0 -135 -74 -222t-258 -149q-194 0 -422 228l-76 -82q-90 -97 -175.5 -121.5t-141.5 -24.5z" />
    <glyph glyph-name="integral" unicode="&#x222b;" 
d="M700 41q0 -119 -44 -196.5t-103 -141.5l-170 -184h-152v196h164l31 47q39 60 39 238v991q0 150 135 283l184 180h252v-172h-256l-39 -57q-41 -59 -41 -209v-975z" />
    <glyph glyph-name="approxequal" unicode="&#x2248;" 
d="M1135 444h82l-80 -196l-191 -58l-725 115l-88 -108h-82l76 186l201 66l719 -115zM1137 831h82l-80 -196l-191 -55l-725 114l-88 -110h-82l76 186l201 68l719 -115z" />
    <glyph glyph-name="notequal" unicode="&#x2260;" 
d="M106 229v146h371l215 254h-586v145h707l176 209h158l-176 -209h190v-145h-313l-213 -254h526v-146h-647l-190 -229h-162l194 229h-250z" />
    <glyph glyph-name="lessequal" unicode="&#x2264;" 
d="M1167 1270v-170l-866 -365l866 -364v-172l-1065 473v123zM106 143h1057v-143h-1057v143z" />
    <glyph glyph-name="greaterequal" unicode="&#x2265;" 
d="M1167 795v-123l-1065 -473v172l867 364l-867 365v170zM104 143h1057v-143h-1057v143z" />
    <glyph glyph-name="lozenge" unicode="&#x25ca;" 
d="M616 1184l-14 71l-301 -464l354 -531l15 -72l301 465zM592 1423l92 41l490 -708l-496 -748l-92 -41l-490 709z" />
    <glyph glyph-name="commaaccent" unicode="&#xf6c3;" horiz-adv-x="1024" 
d="M399 -102h226v-164l-140 -236l-86 21l47 225l-47 72v82z" />
    <glyph glyph-name="asuperior" unicode="&#xf6e9;" horiz-adv-x="690" 
d="M588 993q0 -63 14 -84h60l8 -61l-230 -45l-41 92l-139 -92q-88 0 -143.5 42t-55.5 116t60 118l270 78v68q0 53 -15.5 65.5t-48.5 12.5t-61 -19l-18 -110h-168v110l266 96q133 0 187.5 -37.5t54.5 -132.5v-217zM252 990q0 -48 18.5 -65.5t40.5 -17.5t56 19l24 14v162
l-112 -37q-27 -27 -27 -75z" />
    <glyph glyph-name="bsuperior" unicode="&#xf6ea;" horiz-adv-x="735" 
d="M376 872q48 0 82 50.5t34 148.5t-29 136t-59 38t-89 -31l-22 -12v-295q35 -35 83 -35zM694 1119q0 -119 -82 -204.5t-256 -111.5q-151 0 -252 47v682l-67 -2l-6 61l182 29l80 2v-348l168 106q94 0 163.5 -71t69.5 -190z" />
    <glyph glyph-name="dsuperior" unicode="&#xf6eb;" horiz-adv-x="755" 
d="M358 1294q-52 0 -84 -50t-32 -136t29.5 -129t63.5 -43t83 20l22 15v293q-30 30 -82 30zM631 969q0 -48 20 -72h47l7 -61l-218 -33l-38 98l-146 -98q-121 0 -191.5 73.5t-70.5 204.5t82 203t211 96q18 0 54 -9t52 -19v174l-65 -2l-6 59l166 37l96 4v-655z" />
    <glyph glyph-name="esuperior" unicode="&#xf6ec;" horiz-adv-x="628" 
d="M326 1303q-86 0 -90 -150l165 10q0 66 -16 103t-59 37zM41 1069q0 232 303 311q129 0 186.5 -63.5t57.5 -153.5v-69h-350q4 -68 47 -115t120 -47t150 45l31 -55q-91 -74 -242 -119q-131 0 -217 74.5t-86 191.5z" />
    <glyph glyph-name="isuperior" unicode="&#xf6ed;" horiz-adv-x="452" 
d="M164 1606l125 8l41 -8l10 -84l-18 -70l-123 -8l-43 8l-9 82zM240 821l-156 -4l-6 62l67 14v385l-67 -2l-6 61l182 27l80 4v-475l67 -14l-6 -62z" />
    <glyph glyph-name="lsuperior" unicode="&#xf6ee;" horiz-adv-x="446" 
d="M244 821l-156 -4l-6 62l65 14v637l-69 -2l-6 61l184 31l82 2v-729l68 -14l-7 -62z" />
    <glyph glyph-name="msuperior" unicode="&#xf6ef;" horiz-adv-x="1173" 
d="M868 1194q0 57 -53 57q-45 0 -96 -34l-23 -15v-309l41 -14l-6 -62l-139 4l-127 -4l-6 62l43 14v301q0 57 -53 57q-46 0 -95 -34l-26 -15v-309l43 -14l-6 -62l-144 4l-143 -4l-6 62l65 14v381l-69 -2l-7 63l175 29l81 4l9 -92l168 104q90 0 137 -21.5t59 -82.5l176 104
q106 0 151.5 -33.5t45.5 -134.5v-319l70 -14l-7 -62l-149 4l-143 -4l-9 62l43 14v301z" />
    <glyph glyph-name="osuperior" unicode="&#xf6f0;" horiz-adv-x="694" 
d="M332 1309q-90 -1 -90 -155t34.5 -217t78.5 -63t67.5 35t23.5 155t-34.5 182.5t-79.5 62.5zM653 1108q0 -196 -134 -243.5t-202 -61.5q-117 0 -196.5 74t-79.5 200q0 196 133 243.5t199 59.5q121 0 200.5 -72.5t79.5 -199.5z" />
    <glyph glyph-name="rsuperior" unicode="&#xf6f1;" horiz-adv-x="602" 
d="M561 1376v-178h-135q-36 -20 -100 -84v-219l131 -16l-6 -62l-218 4l-159 -4l-6 62l69 14v381l-69 -2l-7 63l166 29l72 4l18 -188l125 196h119z" />
    <glyph glyph-name="ssuperior" unicode="&#xf6f2;" horiz-adv-x="616" 
d="M532 1192h-73l-29 70q-39 45 -86 45q-88 0 -88 -50q0 -23 18.5 -38t73.5 -41l90 -37q117 -51 117 -152q0 -82 -64.5 -121t-193.5 -65q-102 0 -203 39l-22 170h84l28 -72q50 -59 121 -59q70 0 70 51q0 23 -15.5 38t-56.5 34l-90 40q-127 62 -127 140q0 76 54 118.5
t198 77.5q133 0 194 -34v-154z" />
    <glyph glyph-name="tsuperior" unicode="&#xf6f3;" horiz-adv-x="530" 
d="M129 963v309h-109v20l50 49h59v80l125 90h63v-172h162v-67h-162v-287q0 -70 64 -70q46 0 96 29l29 -57l-170 -84q-207 0 -207 160z" />
    <glyph glyph-name="apple" unicode="&#xf8ff;" horiz-adv-x="1402" 
d="M1145 791h10l10 14v14l-20 -8v-20zM1006 1085l-17 -8v-18l17 -6l4 14zM848 1315l-17 -19v-39l25 -12l6 35zM438 1020l121 24l-8 25zM719 1065l-8 -25l100 -34l6 8zM956 735v-26l91 8l8 18h-99zM647 512h139v12l-139 8v-20zM807 639h-150v-21h150v21zM422 416l-152 102
l41 -47l103 -84zM807 575l-148 15l-12 -27l160 -8v20zM500 930l2 8l28 4l-26 12l4 15l-41 -2l6 -39l29 -31l24 -12l23 10l33 25l12 24l4 27l-45 -8l12 -21l-24 -27l-29 -2zM1206 639l-12 -6l-68 -55l80 -99v160zM750 932l-15 -23h-24l-11 15l23 16l-31 4v12l-47 9l6 -35
l17 -29l41 -18l26 -2l37 20l12 19l11 41l-62 4l15 -11zM887 688l8 62l-111 10l-6 -72h109zM877 1198l10 -12l39 22l16 -4l12 -49h27l12 12l-18 37l35 58l-31 18v10l-51 15v-41l-27 -11v-18l-18 -12zM1090 627l16 -13l16 4l41 31l27 27l22 37l-14 10h-29l-20 6l-29 14l-35 -6
q-4 -27 -7 -46t-5 -52zM778 438l-131 8v-104l131 -12v108zM422 678l-135 80v-15l-4 -26l2 -55v-99l131 -90l-2 123zM1047 678l-111 2l-2 -49v-13l-4 -63l39 -6l-17 -125l-98 6l-16 -12l104 -10l-4 -19h-100l-9 -10l109 -14l-12 -72l55 -2l25 162l8 73l-31 6l-2 17l41 2l10 6
l-57 33l4 10l61 -12l-61 30l10 11l43 -11l8 21zM195 831h-43l38 -28l3 -23l-41 15l36 -37l-8 -15l6 -198l23 -25v369l117 -66l14 21l-139 78v36l121 -69l88 -58l57 -28l6 20l-211 131l-26 15l-84 67l4 -159l39 -35v-11zM1262 952l-17 76l-39 102l-41 74l-47 58l-69 43h-23
l35 -39l51 -21l23 -22l6 -68l-51 27l-31 -60l24 -16v-39l31 6l-24 53l30 -10l21 -41l-11 -24l-16 -15h-47l-6 23l-25 4l2 -45h-28l28 -37l-14 -20l-43 10l-6 -56l84 13l16 35l45 -5l13 -57l-33 -27v-30l16 -13l37 25h47l12 23l-36 12l-11 18l19 86h14l29 -41zM733 1130h17
l20 46l23 16l-11 12l-6 17l2 43l-61 -21l-21 -16l-16 10l8 43l29 20l22 23l78 -4l25 27l-8 16h-101l-92 -27l-109 -53l-59 -47l-51 -70l59 25l27 -31l-35 -41l-20 -6l34 -6h11l73 49h66l37 -25l16 7l8 28l15 11l20 -9v-37zM1075 817l-8 14h-420l-135 -6l-14 -18l-13 -90
l-98 41l-22 -8l116 -56l2 -92l-10 -149v-187l37 8l4 82l84 -6l6 19l-90 12v33l98 -13l2 19l-96 14l2 45l88 -6l6 12l-92 19l6 192h152l22 21h-161l4 18h151l17 15h-168l4 45l239 8l287 -8v22zM1300 942l-6 -84l-16 -72l-25 -63l-6 -320l-43 -14l-102 143l-55 -14l-39 -287
l-66 9l-14 -9l-8 -192l61 -39l33 -29l-6 -30l-62 2l-49 37h-29l-16 16l14 156l-8 96l-125 2l-6 -107l-4 -114v-41l-31 -13l-16 13l-62 -21h-65l-2 23l22 22l103 43l-13 197l-200 -12l-301 286l-8 236l-27 20l-21 74v53l31 17l-6 159l188 -127l19 97l20 73l45 72l58 72l80 59
l159 60h45l-139 45l8 34h15l161 -40l-8 104l33 25h66l38 -11l60 -51l65 -16l66 -21l31 -26v-41l-41 -64l61 -57l57 -66l37 -69l31 -84z" />
    <glyph glyph-name="AE.sc" horiz-adv-x="1757" 
d="M879 457h-340l-260 -355l120 -18l-8 -84l-186 4l-172 -4l-8 84l114 16l697 949h159l647 2l19 -277h-72l-98 170l-383 4v-391l188 6l66 162h70l-17 -221l17 -219h-70l-66 164l-188 6v-353l397 4l117 179h74l-58 -287l-657 4l-229 -4l-9 86l136 20v353zM879 549v416
l-291 -416h291z" />
    <glyph glyph-name="AEacute.002" horiz-adv-x="2088" 
d="M1061 639h-412l-327 -533l151 -26l-10 -82l-230 6l-213 -6l-10 82l150 22l862 1334l164 -4l790 4l21 -371h-80l-119 258l-483 6v-590l237 9l82 217h80l-20 -267l20 -282h-80l-82 217l-237 8v-537l502 7l141 268h86l-72 -381l-792 6l-283 -6l-10 82l174 26v533zM1061 735
v594l-359 -594h359zM1090 1530l120 211h254l-239 -211h-135z" />
    <glyph glyph-name="AEacute.sc" horiz-adv-x="1757" 
d="M952 1155l90 207h224l-195 -207h-119zM879 457h-340l-260 -355l120 -18l-8 -84l-186 4l-172 -4l-8 84l114 16l697 949h159l647 2l19 -277h-72l-98 170l-383 4v-391l188 6l66 162h70l-17 -219l17 -219h-70l-66 162l-188 6v-353l397 4l117 179h74l-58 -287l-657 4l-229 -4
l-9 86l136 20v353zM879 549v416l-291 -416h291z" />
    <glyph glyph-name="Aacute.002" horiz-adv-x="1521" 
d="M711 1116l-11 113l-223 -654h424zM442 473l-125 -367l170 -26l-10 -82l-235 6l-213 -6l-11 82l146 24l491 1309l185 45l512 -1356l151 -22l-10 -82l-319 6l-259 -6l-10 82l162 26l-129 367h-496zM682 1530l123 211h252l-240 -211h-135z" />
    <glyph glyph-name="Aacute.sc" horiz-adv-x="1261" 
d="M578 815l-7 88l-178 -481h334zM360 330l-96 -226l135 -20l-10 -86l-184 4l-172 -4l-8 86l110 20l393 916l187 55l403 -975l119 -16l-8 -86l-283 4l-205 -4l-8 86l125 20l-98 226h-400zM559 1155l90 207h223l-194 -207h-119z" />
    <glyph glyph-name="Abreve.002" horiz-adv-x="1521" 
d="M711 1116l-11 113l-223 -654h424zM442 473l-125 -367l170 -26l-10 -82l-235 6l-213 -6l-11 82l146 24l491 1309l185 45l512 -1356l151 -22l-10 -82l-319 6l-259 -6l-10 82l162 26l-129 367h-496zM987 1757l57 -43q-16 -25 -56 -89.5t-204 -129.5q-198 0 -323 219l63 43
q104 -133 232 -133t231 133z" />
    <glyph glyph-name="Abreve.sc" horiz-adv-x="1261" 
d="M578 815l-7 88l-178 -481h334zM360 330l-96 -226l135 -20l-10 -86l-184 4l-172 -4l-8 86l110 20l393 916l187 55l403 -975l119 -16l-8 -86l-283 4l-205 -4l-8 86l125 20l-98 226h-400zM628 1272q111 0 189 88l53 -49q-28 -63 -71 -96.5t-148 -67.5q-106 0 -171.5 48
t-96.5 116l53 49q81 -88 192 -88z" />
    <glyph glyph-name="Acircumflex.002" horiz-adv-x="1521" 
d="M711 1116l-11 113l-223 -654h424zM442 473l-125 -367l170 -26l-10 -82l-235 6l-213 -6l-11 82l146 24l491 1309l185 45l512 -1356l151 -22l-10 -82l-319 6l-259 -6l-10 82l162 26l-129 367h-496zM430 1530l227 211h181l227 -211h-141l-146 98l-33 31l-28 -31l-146 -98
h-141z" />
    <glyph glyph-name="Acircumflex.sc" horiz-adv-x="1261" 
d="M578 815l-7 88l-178 -481h334zM360 330l-96 -226l135 -20l-10 -86l-184 4l-172 -4l-8 86l110 20l393 916l187 55l403 -975l119 -16l-8 -86l-283 4l-205 -4l-8 86l125 20l-98 226h-400zM354 1155l189 207h155l189 -207h-129l-111 66l-26 45l-27 -45l-111 -66h-129z" />
    <glyph glyph-name="Adieresis.002" horiz-adv-x="1521" 
d="M711 1116l-11 113l-223 -654h424zM442 473l-125 -367l170 -26l-10 -82l-235 6l-213 -6l-11 82l146 24l491 1309l185 45l512 -1356l151 -22l-10 -82l-319 6l-259 -6l-10 82l162 26l-129 367h-496zM885 1737l129 10l55 -10l10 -105l-20 -90l-129 -10l-56 10l-10 107z
M432 1737l129 10l55 -10l13 -105l-23 -90l-129 -10l-55 10l-10 107z" />
    <glyph glyph-name="Adieresis.sc" horiz-adv-x="1261" 
d="M578 815l-7 88l-178 -481h334zM360 330l-96 -226l135 -20l-10 -86l-184 4l-172 -4l-8 86l110 20l393 916l187 55l403 -975l119 -16l-8 -86l-283 4l-205 -4l-8 86l125 20l-98 226h-400zM743 1333l113 13l51 -13l11 -98l-21 -84l-115 -10l-49 10l-8 100zM358 1333l117 13
l49 -13l8 -98l-18 -84l-115 -10l-49 10l-8 100z" />
    <glyph glyph-name="Agrave.002" horiz-adv-x="1521" 
d="M711 1116l-11 113l-223 -654h424zM442 473l-125 -367l170 -26l-10 -82l-235 6l-213 -6l-11 82l146 24l491 1309l185 45l512 -1356l151 -22l-10 -82l-319 6l-259 -6l-10 82l162 26l-129 367h-496zM678 1530l-240 211h252l123 -211h-135z" />
    <glyph glyph-name="Agrave.sc" horiz-adv-x="1261" 
d="M578 815l-7 88l-178 -481h334zM360 330l-96 -226l135 -20l-10 -86l-184 4l-172 -4l-8 86l110 20l393 916l187 55l403 -975l119 -16l-8 -86l-283 4l-205 -4l-8 86l125 20l-98 226h-400zM553 1155l-193 207h222l92 -207h-121z" />
    <glyph glyph-name="Amacron.002" horiz-adv-x="1521" 
d="M711 1116l-11 113l-223 -654h424zM442 473l-125 -367l170 -26l-10 -82l-235 6l-213 -6l-11 82l146 24l491 1309l185 45l512 -1356l151 -22l-10 -82l-319 6l-259 -6l-10 82l162 26l-129 367h-496zM455 1700h583v-127h-583v127z" />
    <glyph glyph-name="Amacron.sc" horiz-adv-x="1261" 
d="M578 815l-7 88l-178 -481h334zM360 330l-96 -226l135 -20l-10 -86l-184 4l-172 -4l-8 86l110 20l393 916l187 55l403 -975l119 -16l-8 -86l-283 4l-205 -4l-8 86l125 20l-98 226h-400zM375 1303h483v-125h-483v125z" />
    <glyph glyph-name="Aogonek.001" horiz-adv-x="1521" 
d="M1047 -160q0 -141 194 -141v-68q-303 0 -342 78t-39 129v37l223 168l-145 430h-496l-125 -367l170 -26l-10 -82l-235 6l-213 -6l-11 82l146 24l491 1309l185 45l512 -1356l151 -22l-10 -82l-363 6l-83 -133v-31zM711 1116l-11 113l-223 -654h424z" />
    <glyph glyph-name="Aogonek.sc" horiz-adv-x="1261" 
d="M578 815l-7 88l-178 -481h334zM852 -197q0 -66 57.5 -86t106.5 -20v-72q-180 0 -254 37t-74 113v114l182 183l-110 258h-400l-96 -226l135 -20l-10 -86l-184 4l-172 -4l-8 86l110 20l393 916l187 55l403 -975l119 -16l-8 -86l-311 4l-66 -149v-50z" />
    <glyph glyph-name="Aring.002" horiz-adv-x="1521" 
d="M711 1116l-11 113l-223 -654h424zM442 473l-125 -367l170 -26l-10 -82l-235 6l-213 -6l-11 82l146 24l491 1309l185 45l512 -1356l151 -22l-10 -82l-319 6l-259 -6l-10 82l162 26l-129 367h-496zM657 1607q0 -36 25 -58.5t61.5 -22.5t60 22.5t23.5 58.5t-23.5 58.5
t-60 22.5t-61.5 -22.5t-25 -58.5zM620 1698q42 30 121 51q61 0 112.5 -32.5t51.5 -115.5t-64.5 -105.5t-97.5 -31.5q-108 0 -136.5 51.5t-28.5 102.5q0 50 42 80z" />
    <glyph glyph-name="Aring.sc" horiz-adv-x="1261" 
d="M578 815l-7 88l-178 -481h334zM360 330l-96 -226l135 -20l-10 -86l-184 4l-172 -4l-8 86l110 20l393 916l187 55l403 -975l119 -16l-8 -86l-283 4l-205 -4l-8 86l125 20l-98 226h-400zM757.5 1162.5q-47.5 -32.5 -139.5 -52.5q-127 0 -157.5 59.5t-30.5 105.5
q0 78 50 115t136 62q84 0 136.5 -40.5t52.5 -128.5t-47.5 -120.5zM520 1278q0 -41 27.5 -64.5t69.5 -23.5t70 23.5t28 64.5t-28 67.5t-70 26.5t-69.5 -26.5t-27.5 -67.5z" />
    <glyph glyph-name="Aringacute.002" horiz-adv-x="1521" 
d="M711 1116l-11 113l-223 -654h424zM442 473l-125 -367l170 -26l-10 -82l-235 6l-213 -6l-11 82l146 24l491 1309l185 45l512 -1356l151 -22l-10 -82l-319 6l-259 -6l-10 82l162 26l-129 367h-496zM657 1605.5q0 -34.5 25.5 -57t61.5 -22.5t59.5 22.5t23.5 57t-23.5 58.5
t-60.5 24t-61.5 -24t-24.5 -58.5zM619.5 1695.5q41.5 29.5 123.5 51.5q29 0 48 -8l43 57h137l-123 -78q57 -32 57 -119t-65.5 -106.5t-96.5 -28.5q-109 0 -137 50.5t-28 101.5q0 50 41.5 79.5z" />
    <glyph glyph-name="Aringacute.sc" horiz-adv-x="1261" 
d="M578 815l-7 88l-178 -481h334zM360 330l-96 -226l135 -20l-10 -86l-184 4l-172 -4l-8 86l110 20l393 916l187 55l403 -975l119 -16l-8 -86l-283 4l-205 -4l-8 86l125 20l-98 226h-400zM805 1278q0 -120 -75 -143t-112 -31q-127 0 -157.5 62.5t-30.5 108.5q0 78 48 114.5
t143 62.5l55 64h170l-135 -91q94 -53 94 -147zM516 1276q0 -41 29.5 -64.5t71.5 -23.5t72 23.5t30 64.5t-30 67.5t-72 26.5t-71.5 -26.5t-29.5 -67.5z" />
    <glyph glyph-name="Atilde.002" horiz-adv-x="1521" 
d="M711 1116l-11 113l-223 -654h424zM442 473l-125 -367l170 -26l-10 -82l-235 6l-213 -6l-11 82l146 24l491 1309l185 45l512 -1356l151 -22l-10 -82l-319 6l-259 -6l-10 82l162 26l-129 367h-496zM481 1702l154 39l336 -86l69 88h60l-53 -176l-154 -35l-336 84l-70 -88
h-59z" />
    <glyph glyph-name="Atilde.sc" horiz-adv-x="1261" 
d="M578 815l-7 88l-178 -481h334zM360 330l-96 -226l135 -20l-10 -86l-184 4l-172 -4l-8 86l110 20l393 916l187 55l403 -975l119 -16l-8 -86l-283 4l-205 -4l-8 86l125 20l-98 226h-400zM391 1335l125 33l285 -78l55 74h53l-47 -190l-125 -25l-284 78l-54 -74h-53z" />
    <glyph glyph-name="B.sc" horiz-adv-x="1132" 
d="M588 514h-144v-418l119 -14q135 0 197.5 65.5t62.5 153.5t-61.5 150.5t-173.5 62.5zM444 590h115q92 0 147.5 58t55.5 136t-46 130.5t-145 52.5l-127 -13v-364zM978 484.5q89 -68.5 89 -190.5t-120 -198t-322 -98l-330 4l-215 -4l-8 86l133 20v842l-133 21l8 82l215 -5
l399 5q149 0 228 -70.5t79 -168.5q0 -97 -78.5 -162.5t-207.5 -86.5q174 -8 263 -76.5z" />
    <glyph glyph-name="C.sc" horiz-adv-x="1230" 
d="M1128 696h-112l-51 144q-90 121 -258 121t-271.5 -111.5t-103.5 -309.5t106 -325t289 -127q135 0 234 117l83 170h107l-35 -299q-172 -66 -428 -103q-256 0 -435 138t-179 378q0 378 247.5 470t395.5 116q238 0 411 -88v-291z" />
    <glyph glyph-name="Cacute.002" horiz-adv-x="1445" 
d="M76 692q0 663 798 778q204 0 325.5 -62t158.5 -87v-309h-127l-66 194q-117 146 -347 146q-84 0 -172.5 -40t-188 -160.5t-99.5 -397.5q0 -276 141.5 -472t377.5 -196q96 0 163.5 41t114.5 84l107 233h122l-47 -327q-151 -70 -295.5 -107t-218.5 -47q-310 0 -528.5 195.5
t-218.5 533.5zM760 1530l123 211h252l-240 -211h-135z" />
    <glyph glyph-name="Cacute.sc" horiz-adv-x="1230" 
d="M643 1155l90 207h223l-192 -207h-121zM1128 696h-112l-51 144q-90 121 -258 121t-271.5 -111.5t-103.5 -309.5t106 -325t289 -127q135 0 234 117l83 170h107l-35 -299q-172 -66 -428 -103q-256 0 -435 138t-179 378q0 378 247.5 470t395.5 116q238 0 411 -88v-291z" />
    <glyph glyph-name="Ccaron.002" horiz-adv-x="1445" 
d="M76 692q0 663 798 778q204 0 325.5 -62t158.5 -87v-309h-127l-66 194q-117 146 -347 146q-84 0 -172.5 -40t-188 -160.5t-99.5 -397.5q0 -276 141.5 -472t377.5 -196q96 0 163.5 41t114.5 84l107 233h122l-47 -327q-151 -70 -295.5 -107t-218.5 -47q-310 0 -528.5 195.5
t-218.5 533.5zM811 1642l29 -30l30 30l146 99h141l-225 -211h-182l-226 211h140z" />
    <glyph glyph-name="Ccaron.sc" horiz-adv-x="1230" 
d="M571 1362l111 -66l27 -43l26 43l111 66h129l-189 -207h-155l-189 207h129zM1128 696h-112l-51 144q-90 121 -258 121t-271.5 -111.5t-103.5 -309.5t106 -325t289 -127q135 0 234 117l83 170h107l-35 -299q-172 -66 -428 -103q-256 0 -435 138t-179 378q0 378 247.5 470
t395.5 116q238 0 411 -88v-291z" />
    <glyph glyph-name="Ccedilla.001" horiz-adv-x="1445" 
d="M795 -196.5q0 46.5 -62.5 56t-89.5 9.5l105 98q-286 25 -479 215t-193 510q0 663 798 778q204 0 325.5 -62t158.5 -87v-309h-127l-66 194q-117 146 -347 146q-84 0 -172.5 -40t-188 -160.5t-99.5 -397.5q0 -276 141.5 -472t377.5 -196q96 0 163.5 41t114.5 84l107 233
h122l-47 -327q-272 -121 -516 -154l-30 -31q55 -6 97 -30.5t42 -65.5t-18.5 -64.5t-46.5 -43t-117 -50.5l-113 -36h-115l70 90h158q47 25 47 71.5z" />
    <glyph glyph-name="Ccedilla.sc" horiz-adv-x="1230" 
d="M633 -215q0 55 -38 74.5t-79 19.5l82 98q-227 26 -375.5 160t-148.5 352q0 378 247.5 470t395.5 116q238 0 411 -88v-291h-112l-51 144q-90 121 -258 121t-271.5 -111.5t-103.5 -309.5t106 -325t289 -127q135 0 234 117l83 170h107l-35 -299q-172 -66 -428 -103h-14
l-33 -45q57 0 96 -25.5t39 -69.5q0 -71 -48.5 -112t-119.5 -67l-84 -29h-100l49 74h115q45 31 45 86z" />
    <glyph glyph-name="Ccircumflex.002" horiz-adv-x="1445" 
d="M76 692q0 663 798 778q204 0 325.5 -62t158.5 -87v-309h-127l-66 194q-117 146 -347 146q-84 0 -172.5 -40t-188 -160.5t-99.5 -397.5q0 -276 141.5 -472t377.5 -196q96 0 163.5 41t114.5 84l107 233h122l-47 -327q-151 -70 -295.5 -107t-218.5 -47q-310 0 -528.5 195.5
t-218.5 533.5zM539 1530l225 211h182l225 -211h-139l-147 98l-31 31l-29 -31l-145 -98h-141z" />
    <glyph glyph-name="Ccircumflex.sc" horiz-adv-x="1230" 
d="M453 1155l186 207h156l190 -207h-129l-111 66l-28 45l-27 -45l-110 -66h-127zM1128 696h-112l-51 144q-90 121 -258 121t-271.5 -111.5t-103.5 -309.5t106 -325t289 -127q135 0 234 117l83 170h107l-35 -299q-172 -66 -428 -103q-256 0 -435 138t-179 378
q0 378 247.5 470t395.5 116q238 0 411 -88v-291z" />
    <glyph glyph-name="Cdotaccent.002" horiz-adv-x="1445" 
d="M76 692q0 663 798 778q204 0 325.5 -62t158.5 -87v-309h-127l-66 194q-117 146 -347 146q-84 0 -172.5 -40t-188 -160.5t-99.5 -397.5q0 -276 141.5 -472t377.5 -196q96 0 163.5 41t114.5 84l107 233h122l-47 -327q-151 -70 -295.5 -107t-218.5 -47q-310 0 -528.5 195.5
t-218.5 533.5zM748 1741l131 10l63 -10l10 -109l-20 -94l-129 -12l-64 12l-12 111z" />
    <glyph glyph-name="Cdotaccent.sc" horiz-adv-x="1230" 
d="M623 1372l118 6l68 -10l10 -111l-20 -90l-115 -10l-70 10l-10 109zM1128 696h-112l-51 144q-90 121 -258 121t-271.5 -111.5t-103.5 -309.5t106 -325t289 -127q135 0 234 117l83 170h107l-35 -299q-172 -66 -428 -103q-256 0 -435 138t-179 378q0 378 247.5 470
t395.5 116q238 0 411 -88v-291z" />
    <glyph glyph-name="D.sc" horiz-adv-x="1298" 
d="M969 535q0 194 -99.5 313t-287.5 115l-138 -9v-860l183 -10q149 -7 245.5 125t96.5 326zM1077.5 176.5q-147.5 -155.5 -430.5 -178.5l-358 4l-209 -4l-8 86l133 20v842l-133 21l8 82l213 -5l364 5q261 4 414.5 -125.5t153.5 -360.5t-147.5 -386.5z" />
    <glyph glyph-name="Dcaron.002" horiz-adv-x="1533" 
d="M1044 1172.5q-132 170.5 -368 166.5l-182 -10v-1214l237 -19q100 -2 183 45t172.5 177.5t89.5 407.5q0 276 -132 446.5zM1279.5 230.5q-176.5 -197.5 -525.5 -232.5l-416 6l-266 -6l-11 82l175 26v1221l-175 27l11 82l268 -6l430 6q323 0 504.5 -175.5t181.5 -503.5
q0 -329 -176.5 -526.5zM690 1642l29 -30l31 30l147 99h139l-225 -211h-182l-226 211h142z" />
    <glyph glyph-name="Dcaron.sc" horiz-adv-x="1298" 
d="M883 1362l-189 -207h-153l-191 207h129l111 -66l26 -43l29 43l111 66h127zM1077.5 176.5q-147.5 -155.5 -430.5 -178.5l-358 4l-209 -4l-8 86l133 20v842l-133 21l8 82l213 -5l364 5q261 4 414.5 -125.5t153.5 -360.5t-147.5 -386.5zM969 535q0 194 -99.5 313t-287.5 115
l-138 -9v-860l183 -10q149 -7 245.5 125t96.5 326z" />
    <glyph glyph-name="Dcroat.sc" horiz-adv-x="1298" 
d="M444 590h189v-92h-189v-404l183 -10q149 -7 245.5 124.5t96.5 326.5q0 194 -99.5 313t-287.5 115l-138 -9v-364zM205 590v356l-133 21l8 82l213 -5l364 5q261 4 414.5 -125.5t153.5 -360.5t-147.5 -386.5t-430.5 -178.5l-358 4l-209 -4l-8 86l133 20v394h-121v92h121z
" />
    <glyph glyph-name="E.sc" horiz-adv-x="1120" 
d="M1006 1049l16 -301h-78l-98 194l-402 4v-344l203 6l66 162h78l-17 -219l17 -219h-78l-66 162l-203 6v-398l418 4l113 203h84l-55 -311l-695 4l-229 -4l-8 86l133 20v842l-133 21l8 82l229 -5z" />
    <glyph glyph-name="Eacute.002" horiz-adv-x="1304" 
d="M1190 1436l20 -379h-84l-118 266l-514 6v-528l264 8l82 217h86l-21 -266l21 -283h-86l-82 217l-264 8v-598l536 7l137 276h93l-70 -389l-836 6l-282 -6l-11 82l175 26v1221l-175 27l11 82l282 -6zM565 1530l123 211h252l-240 -211h-135z" />
    <glyph glyph-name="Eacute.sc" horiz-adv-x="1120" 
d="M1006 1049l16 -301h-78l-98 194l-402 4v-344l203 6l66 162h78l-17 -219l17 -219h-78l-66 162l-203 6v-398l418 4l113 203h84l-55 -311l-695 4l-229 -4l-8 86l133 20v842l-133 21l8 82l229 -5zM502 1155l92 207h223l-194 -207h-121z" />
    <glyph glyph-name="Ebreve.002" horiz-adv-x="1304" 
d="M1190 1436l20 -379h-84l-118 266l-514 6v-528l264 8l82 217h86l-21 -266l21 -283h-86l-82 217l-264 8v-598l536 7l137 276h93l-70 -389l-836 6l-282 -6l-11 82l175 26v1221l-175 27l11 82l282 -6zM672 1624q129 0 233 133l58 -43q-50 -78 -97.5 -125.5t-163.5 -93.5
q-198 0 -323 219l61 43q103 -133 232 -133z" />
    <glyph glyph-name="Ebreve.sc" horiz-adv-x="1120" 
d="M1006 1049l16 -301h-78l-98 194l-402 4v-344l203 6l66 162h78l-17 -219l17 -219h-78l-66 162l-203 6v-398l418 4l113 203h84l-55 -311l-695 4l-229 -4l-8 86l133 20v842l-133 21l8 82l229 -5zM575 1272q110 0 191 88l51 -49q-23 -61 -67 -95t-150 -69q-106 0 -172 48
t-98 116l55 49q23 -25 67.5 -56.5t122.5 -31.5z" />
    <glyph glyph-name="Ecaron.002" horiz-adv-x="1304" 
d="M1190 1436l20 -379h-84l-118 266l-514 6v-528l264 8l82 217h86l-21 -266l21 -283h-86l-82 217l-264 8v-598l536 7l137 276h93l-70 -389l-836 6l-282 -6l-11 82l175 26v1221l-175 27l11 82l282 -6zM657 1642l29 -30l31 30l147 99h140l-226 -211h-182l-225 211h141z" />
    <glyph glyph-name="Ecaron.sc" horiz-adv-x="1120" 
d="M1006 1049l16 -301h-78l-98 194l-402 4v-344l203 6l66 162h78l-17 -219l17 -219h-78l-66 162l-203 6v-398l418 4l113 203h84l-55 -311l-695 4l-229 -4l-8 86l133 20v842l-133 21l8 82l229 -5zM436 1362l111 -66l26 -43l27 43l111 66h129l-189 -207h-155l-189 207h129z
" />
    <glyph glyph-name="Ecircumflex.002" horiz-adv-x="1304" 
d="M1190 1436l20 -379h-84l-118 266l-514 6v-528l264 8l82 217h86l-21 -266l21 -283h-86l-82 217l-264 8v-598l536 7l137 276h93l-70 -389l-836 6l-282 -6l-11 82l175 26v1221l-175 27l11 82l282 -6zM371 1530l225 211h182l226 -211h-140l-147 98l-31 31l-29 -31l-145 -98
h-141z" />
    <glyph glyph-name="Ecircumflex.sc" horiz-adv-x="1120" 
d="M1006 1049l16 -301h-78l-98 194l-402 4v-344l203 6l66 162h78l-17 -219l17 -219h-78l-66 162l-203 6v-398l418 4l113 203h84l-55 -311l-695 4l-229 -4l-8 86l133 20v842l-133 21l8 82l229 -5zM317 1155l187 207h155l191 -207h-129l-111 66l-28 45l-27 -45l-111 -66h-127z
" />
    <glyph glyph-name="Edieresis.002" horiz-adv-x="1304" 
d="M1190 1436l20 -379h-84l-118 266l-514 6v-528l264 8l82 217h86l-21 -266l21 -283h-86l-82 217l-264 8v-598l536 7l137 276h93l-70 -389l-836 6l-282 -6l-11 82l175 26v1221l-175 27l11 82l282 -6zM834 1737l129 10l55 -10l10 -105l-20 -90l-129 -10l-56 10l-10 107z
M381 1737l129 10l55 -10l13 -105l-23 -90l-129 -10l-55 10l-11 107z" />
    <glyph glyph-name="Edieresis.sc" horiz-adv-x="1120" 
d="M1006 1049l16 -301h-78l-98 194l-402 4v-344l203 6l66 162h78l-17 -219l17 -219h-78l-66 162l-203 6v-398l418 4l113 203h84l-55 -311l-695 4l-229 -4l-8 86l133 20v842l-133 21l8 82l229 -5zM702 1333l117 13l49 -13l9 -98l-19 -84l-115 -10l-47 10l-12 100zM319 1333
l117 13l47 -13l13 -98l-21 -84l-115 -10l-47 10l-10 100z" />
    <glyph glyph-name="Edotaccent.002" horiz-adv-x="1304" 
d="M1190 1436l20 -379h-84l-118 266l-514 6v-528l264 8l82 217h86l-21 -266l21 -283h-86l-82 217l-264 8v-598l536 7l137 276h93l-70 -389l-836 6l-282 -6l-11 82l175 26v1221l-175 27l11 82l282 -6zM594 1741l131 10l63 -10l11 -109l-21 -94l-127 -12l-65 12l-11 111z" />
    <glyph glyph-name="Edotaccent.sc" horiz-adv-x="1120" 
d="M1006 1049l16 -301h-78l-98 194l-402 4v-344l203 6l66 162h78l-17 -219l17 -219h-78l-66 162l-203 6v-398l418 4l113 203h84l-55 -311l-695 4l-229 -4l-8 86l133 20v842l-133 21l8 82l229 -5zM498 1337l120 9l68 -13l10 -108l-22 -92l-113 -11l-69 11l-13 110z" />
    <glyph glyph-name="Egrave.002" horiz-adv-x="1304" 
d="M1190 1436l20 -379h-84l-118 266l-514 6v-528l264 8l82 217h86l-21 -266l21 -283h-86l-82 217l-264 8v-598l536 7l137 276h93l-70 -389l-836 6l-282 -6l-11 82l175 26v1221l-175 27l11 82l282 -6zM664 1530l-240 211h252l123 -211h-135z" />
    <glyph glyph-name="Egrave.sc" horiz-adv-x="1120" 
d="M1006 1049l16 -301h-78l-98 194l-402 4v-344l203 6l66 162h78l-17 -219l17 -219h-78l-66 162l-203 6v-398l418 4l113 203h84l-55 -311l-695 4l-229 -4l-8 86l133 20v842l-133 21l8 82l229 -5zM537 1155l-195 207h223l90 -207h-118z" />
    <glyph glyph-name="Emacron.002" horiz-adv-x="1304" 
d="M1190 1436l20 -379h-84l-118 266l-514 6v-528l264 8l82 217h86l-21 -266l21 -283h-86l-82 217l-264 8v-598l536 7l137 276h93l-70 -389l-836 6l-282 -6l-11 82l175 26v1221l-175 27l11 82l282 -6zM391 1700h584v-127h-584v127z" />
    <glyph glyph-name="Emacron.sc" horiz-adv-x="1120" 
d="M1006 1049l16 -301h-78l-98 194l-402 4v-344l203 6l66 162h78l-17 -219l17 -219h-78l-66 162l-203 6v-398l418 4l113 203h84l-55 -311l-695 4l-229 -4l-8 86l133 20v842l-133 21l8 82l229 -5zM342 1303h481v-125h-481v125z" />
    <glyph glyph-name="Eng.001" horiz-adv-x="1517" 
d="M868 -358v180h156l113 110l145 64h-92l-770 1063l-41 145v-1098l174 -26l-10 -82l-226 6l-245 -6l-11 82l175 26v1211l-168 37l10 82l180 -6l176 6l696 -938l50 -133v962l-164 27l10 82l215 -6l246 6l10 -82l-174 -27v-1331l-193 -354h-262z" />
    <glyph glyph-name="Eng.sc" horiz-adv-x="1300" 
d="M727 -352v157h119l110 138l76 53h-49l-616 729l-37 166v-787l129 -20l-6 -86l-181 4l-192 -4l-8 86l135 20v842l-131 21l8 82l141 -5l166 5l547 -586l41 -164v647l-125 21l4 82l182 -5l191 5l8 -82l-135 -21v-950l-156 -348h-221z" />
    <glyph glyph-name="Eogonek.001" horiz-adv-x="1304" 
d="M971 -160q0 -141 194 -141v-68q-301 0 -340 78t-39 129v37l195 125l-627 4l-282 -6l-11 82l175 26v1221l-175 27l11 82l282 -6l836 6l20 -379h-84l-118 266l-514 6v-528l264 8l82 217h86l-21 -266l21 -283h-86l-82 217l-264 8v-598l536 7l137 276h93l-70 -389l-135 2
l-84 -145v-15z" />
    <glyph glyph-name="Eogonek.sc" horiz-adv-x="1120" 
d="M825 -197q0 -36 36 -71t126 -35v-72q-178 0 -253 37t-75 113v116l150 109l-500 2l-229 -4l-8 86l133 20v842l-133 21l8 82l229 -5l697 5l16 -301h-78l-98 194l-402 4v-344l203 6l66 162h78l-17 -219l17 -219h-78l-66 162l-203 6v-398l418 4l113 203h84l-55 -311l-117 2
l-62 -145v-52z" />
    <glyph glyph-name="Eth.sc" horiz-adv-x="1298" 
d="M444 590h189v-92h-189v-404l183 -10q149 -7 245.5 124.5t96.5 326.5q0 194 -99.5 313t-287.5 115l-138 -9v-364zM207 590v356l-135 21l8 82l213 -5l364 5q261 4 414.5 -125.5t153.5 -360.5t-147.5 -386.5t-430.5 -178.5l-356 4l-211 -4l-8 86l135 20v394h-121v92h121z
" />
    <glyph glyph-name="Euro.sc" horiz-adv-x="1236" 
d="M211 494v32q0 29 2 41h-100v117h116q41 164 180.5 254t370.5 133q129 0 214 -41t141 -88v-235h-105l-43 157q-65 92 -228 92t-218.5 -99t-67.5 -173h465l-66 -117h-411v-35q0 -36 4 -53h356l-65 -114h-275q33 -113 112 -180.5t212 -67.5t196.5 28.5t81.5 36.5l41 -78
q-119 -71 -346 -127q-334 0 -433 143.5t-120 244.5h-112v114h100q-2 12 -2 15z" />
    <glyph glyph-name="Euro.tlf" 
d="M387 748q0 -53 4 -107h477l-71 -125h-385q37 -171 141.5 -277t275.5 -106t242.5 43t95.5 55l45 -88q-170 -109 -419 -174q-261 0 -437 140t-225 407h-141v125h127q-2 10 -2 15v59q0 55 4 78h-129v125h145q71 336 294.5 427t361.5 119q213 0 310 -67.5t128 -91.5v-287
h-117l-53 201q-103 129 -293 129q-122 0 -228 -113.5t-139 -316.5h605l-74 -125h-543v-45z" />
    <glyph glyph-name="Euro.tlf.sc" horiz-adv-x="1271" 
d="M1147 707h-105l-43 157q-65 92 -229 92t-218 -99t-67 -173h465l-65 -117h-412v-35q0 -36 4 -53h357l-66 -114h-274q31 -113 114.5 -180.5t217.5 -67.5t192.5 28.5t77.5 36.5l41 -78q-119 -71 -346 -127q-335 0 -434 143.5t-119 244.5h-113v114h100q-2 12 -2 15v32
q0 29 2 41h-100v117h117q41 164 180 254t371 133q203 0 354 -129v-235z" />
    <glyph glyph-name="F.sc" horiz-adv-x="1062" 
d="M80 -2l-8 86l133 20v842l-133 21l8 82l229 -5l697 5l16 -320h-78l-98 213l-402 4v-368l203 6l66 161h78l-17 -221l17 -217h-78l-66 162l-203 6v-371l199 -20l-8 -86l-326 4z" />
    <glyph glyph-name="G.sc" horiz-adv-x="1292" 
d="M74 479q0 389 246.5 480.5t396.5 115.5q131 0 239.5 -29.5t173.5 -64.5v-283h-106l-55 140q-90 123 -265 123q-176 0 -274 -106.5t-98 -311.5t106.5 -330t280.5 -125q107 0 182 39v258l-151 21l8 94l262 -6l203 6l10 -94l-96 -21v-285q-155 -76 -465 -127
q-246 0 -422 136.5t-176 369.5z" />
    <glyph glyph-name="Gbreve.002" horiz-adv-x="1531" 
d="M76 686q0 517 303 636.5t483 147.5q256 0 496 -151v-307h-119l-65 188q-45 55 -132.5 103.5t-203.5 48.5q-226 0 -353 -161t-127 -438q0 -276 140.5 -471.5t377.5 -195.5q126 0 228 92v385l-184 27l10 84l305 -6l240 6l12 -84l-123 -27v-440q-287 -120 -559 -160
q-143 0 -275.5 47t-293 195.5t-160.5 480.5zM1071 1757l57 -43q-36 -65 -87.5 -118t-172.5 -101q-164 0 -233.5 92t-87.5 127l61 43q103 -133 231 -133q129 0 232 133z" />
    <glyph glyph-name="Gbreve.sc" horiz-adv-x="1292" 
d="M700.5 1270q113.5 0 190.5 90l53 -49q-33 -60 -76 -94t-145 -70q-104 0 -169 48t-99 116l55 49q77 -90 190.5 -90zM74 479q0 389 246.5 480.5t396.5 115.5q131 0 239.5 -29.5t173.5 -64.5v-283h-106l-55 140q-90 123 -265 123q-176 0 -274 -106.5t-98 -311.5t106.5 -330
t280.5 -125q107 0 182 39v258l-151 21l8 94l262 -6l203 6l10 -94l-96 -21v-285q-155 -76 -465 -127q-246 0 -422 136.5t-176 369.5z" />
    <glyph glyph-name="Gcircumflex.002" horiz-adv-x="1531" 
d="M76 686q0 517 303 636.5t483 147.5q256 0 496 -151v-307h-119l-65 188q-45 55 -132.5 103.5t-203.5 48.5q-226 0 -353 -161t-127 -438q0 -276 140.5 -471.5t377.5 -195.5q126 0 228 92v385l-184 27l10 84l305 -6l240 6l12 -84l-123 -27v-440q-287 -120 -559 -160
q-143 0 -275.5 47t-293 195.5t-160.5 480.5zM539 1530l227 211h180l228 -211h-142l-145 98l-31 31l-31 -31l-145 -98h-141z" />
    <glyph glyph-name="Gcircumflex.sc" horiz-adv-x="1292" 
d="M453 1155l188 207h154l190 -207h-129l-111 66l-28 45l-27 -45l-110 -66h-127zM74 479q0 389 246.5 480.5t396.5 115.5q131 0 239.5 -29.5t173.5 -64.5v-283h-106l-55 140q-90 123 -265 123q-176 0 -274 -106.5t-98 -311.5t106.5 -330t280.5 -125q107 0 182 39v258
l-151 21l8 94l262 -6l203 6l10 -94l-96 -21v-285q-155 -76 -465 -127q-246 0 -422 136.5t-176 369.5z" />
    <glyph glyph-name="Gcommaaccent.001" horiz-adv-x="1531" 
d="M76 686q0 517 303 636.5t483 147.5q256 0 496 -151v-307h-119l-65 188q-45 55 -132.5 103.5t-203.5 48.5q-226 0 -353 -161t-127 -438q0 -276 140.5 -471.5t377.5 -195.5q126 0 228 92v385l-184 27l10 84l305 -6l240 6l12 -84l-123 -27v-440q-287 -120 -559 -160
q-143 0 -275.5 47t-293 195.5t-160.5 480.5zM690 -90h225v-154l-141 -118l-72 22l84 111l-96 53v86z" />
    <glyph glyph-name="Gcommaaccent.sc" horiz-adv-x="1292" 
d="M573 -74h199v-121l-121 -198l-78 14l39 191l-39 53v61zM74 479q0 389 246.5 480.5t396.5 115.5q131 0 239.5 -29.5t173.5 -64.5v-283h-106l-55 140q-90 123 -265 123q-176 0 -274 -106.5t-98 -311.5t106.5 -330t280.5 -125q107 0 182 39v258l-151 21l8 94l262 -6l203 6
l10 -94l-96 -21v-285q-155 -76 -465 -127q-246 0 -422 136.5t-176 369.5z" />
    <glyph glyph-name="Gdotaccent.002" horiz-adv-x="1531" 
d="M76 686q0 517 303 636.5t483 147.5q256 0 496 -151v-307h-119l-65 188q-45 55 -132.5 103.5t-203.5 48.5q-226 0 -353 -161t-127 -438q0 -276 140.5 -471.5t377.5 -195.5q126 0 228 92v385l-184 27l10 84l305 -6l240 6l12 -84l-123 -27v-440q-287 -120 -559 -160
q-143 0 -275.5 47t-293 195.5t-160.5 480.5zM770 1741l131 10l64 -10l10 -109l-21 -94l-129 -12l-63 12l-12 111z" />
    <glyph glyph-name="Gdotaccent.sc" horiz-adv-x="1292" 
d="M633 1354l119 8l67 -10l10 -109l-20 -92l-115 -10l-69 10l-11 111zM74 479q0 389 246.5 480.5t396.5 115.5q131 0 239.5 -29.5t173.5 -64.5v-283h-106l-55 140q-90 123 -265 123q-176 0 -274 -106.5t-98 -311.5t106.5 -330t280.5 -125q107 0 182 39v258l-151 21l8 94
l262 -6l203 6l10 -94l-96 -21v-285q-155 -76 -465 -127q-246 0 -422 136.5t-176 369.5z" />
    <glyph glyph-name="H.sc" horiz-adv-x="1353" 
d="M444 596h469v350l-125 21l9 82l237 -5l240 5l8 -82l-129 -21v-842l129 -20l-8 -86l-240 4l-237 -4l-9 86l125 20v383h-469v-383l123 -20l-8 -86l-233 4l-246 -4l-8 86l133 20v842l-133 21l8 82l246 -5l233 5l8 -82l-123 -21v-350z" />
    <glyph glyph-name="Hbar.sc" horiz-adv-x="1353" 
d="M913 596v109h-469v-109h469zM444 780h469v166l-125 21l9 82l237 -5l240 5l8 -82l-129 -21v-842l129 -20l-8 -86l-240 4l-237 -4l-9 86l125 20v383h-469v-383l123 -20l-8 -86l-233 4l-246 -4l-8 86l133 20v842l-133 21l8 82l246 -5l233 5l8 -82l-123 -21v-166z" />
    <glyph glyph-name="Hcircumflex.002" horiz-adv-x="1591" 
d="M494 799h612v528l-168 27l10 82l287 -6l285 6l10 -82l-166 -27v-1221l166 -26l-10 -82l-285 6l-287 -6l-10 82l168 26v580h-612v-580l159 -26l-10 -82l-278 6l-293 -6l-11 82l175 26v1221l-175 27l11 82l293 -6l278 6l10 -82l-159 -27v-528zM473 1530l225 211h183
l225 -211h-139l-148 98l-31 31l-28 -31l-148 -98h-139z" />
    <glyph glyph-name="Hcircumflex.sc" horiz-adv-x="1353" 
d="M444 596h469v350l-125 21l9 82l237 -5l240 5l8 -82l-129 -21v-842l129 -20l-8 -86l-240 4l-237 -4l-9 86l125 20v383h-469v-383l123 -20l-8 -86l-233 4l-246 -4l-8 86l133 20v842l-133 21l8 82l246 -5l233 5l8 -82l-123 -21v-350zM412 1155l188 207h156l188 -207h-129
l-108 66l-29 45l-27 -45l-110 -66h-129z" />
    <glyph glyph-name="I.sc" horiz-adv-x="651" 
d="M326 2l-246 -4l-8 86l135 20v842l-135 21l8 82l246 -5l245 5l9 -82l-136 -21v-842l136 -20l-9 -86z" />
    <glyph glyph-name="IJ.sc" horiz-adv-x="1130" 
d="M326 4l-246 -6l-8 86l135 20v842l-135 21l8 82l246 -5l198 5l8 -82l-88 -21v-842l115 -20l-8 -86zM944 258q0 -213 -160 -373l-139 -147h-164v203h191l12 28q23 50 23 160v817l-101 21l8 82l211 -5l236 5l8 -82l-125 -21v-688z" />
    <glyph glyph-name="Iacute.002" horiz-adv-x="735" 
d="M365 4l-293 -6l-11 84l175 27v1218l-175 27l11 82l293 -6l292 6l11 -82l-174 -27v-1218l174 -27l-11 -84zM281 1530l122 211h252l-239 -211h-135z" />
    <glyph glyph-name="Iacute.sc" horiz-adv-x="651" 
d="M326 2l-246 -4l-8 86l135 20v842l-135 21l8 82l246 -5l245 5l9 -82l-136 -21v-842l136 -20l-9 -86zM262 1155l92 207h224l-193 -207h-123z" />
    <glyph glyph-name="Ibreve.002" horiz-adv-x="735" 
d="M365 4l-293 -6l-11 84l175 27v1218l-175 27l11 82l293 -6l292 6l11 -82l-174 -27v-1218l174 -27l-11 -84zM361 1624q128 0 231 133l57 -43q-36 -65 -87.5 -118t-172.5 -101q-167 0 -235 92t-86 127l61 43q104 -133 232 -133z" />
    <glyph glyph-name="Ibreve.sc" horiz-adv-x="651" 
d="M326 2l-246 -4l-8 86l135 20v842l-135 21l8 82l246 -5l245 5l9 -82l-136 -21v-842l136 -20l-9 -86zM342 1272q96 0 172 88l51 -49q-28 -58 -71.5 -94t-147.5 -70q-106 0 -171.5 48t-98.5 116l55 49q25 -27 70 -57.5t141 -30.5z" />
    <glyph glyph-name="Icircumflex.002" horiz-adv-x="735" 
d="M365 4l-293 -6l-11 84l175 27v1218l-175 27l11 82l293 -6l292 6l11 -82l-174 -27v-1218l174 -27l-11 -84zM53 1530l228 211h180l227 -211h-141l-146 98l-30 31l-31 -31l-145 -98h-142z" />
    <glyph glyph-name="Icircumflex.sc" horiz-adv-x="651" 
d="M328 2l-248 -4l-8 86l135 20v842l-135 21l8 82l248 -5l243 5l9 -82l-136 -21v-842l136 -20l-9 -86zM59 1155l189 207h155l189 -207h-129l-109 66l-28 45l-27 -45l-111 -66h-129z" />
    <glyph glyph-name="Idieresis.002" horiz-adv-x="735" 
d="M365 4l-293 -6l-11 84l175 27v1218l-175 27l11 82l293 -6l292 6l11 -82l-174 -27v-1218l174 -27l-11 -84zM498 1737l129 10l55 -10l10 -105l-20 -90l-129 -10l-54 10l-12 107zM70 1737l129 10l55 -10l10 -105l-20 -90l-129 -10l-56 10l-10 107z" />
    <glyph glyph-name="Idieresis.sc" horiz-adv-x="651" 
d="M328 2l-246 -4l-8 86l133 20v842l-133 21l8 82l246 -5l243 5l9 -82l-136 -21v-842l136 -20l-9 -86zM414 1333l114 13l50 -13l10 -98l-19 -84l-114 -10l-49 10l-11 100zM80 1333l115 13l49 -13l12 -98l-20 -84l-115 -10l-49 10l-9 100z" />
    <glyph glyph-name="Idotaccent.002" horiz-adv-x="735" 
d="M365 4l-293 -6l-11 84l175 27v1218l-175 27l11 82l293 -6l292 6l11 -82l-174 -27v-1218l174 -27l-11 -84zM276 1741l132 10l63 -10l10 -109l-20 -94l-127 -12l-66 12l-10 111z" />
    <glyph glyph-name="Idotaccent.sc" horiz-adv-x="651" 
d="M326 2l-246 -4l-8 86l135 20v842l-135 21l8 82l246 -5l245 5l9 -82l-136 -21v-842l136 -20l-9 -86zM236 1354l120 8l66 -10l10 -109l-20 -92l-113 -10l-72 10l-10 111z" />
    <glyph glyph-name="Igrave.002" horiz-adv-x="735" 
d="M365 4l-293 -6l-11 84l175 27v1218l-175 27l11 82l293 -6l292 6l11 -82l-174 -27v-1218l174 -27l-11 -84zM330 1530l-242 211h254l123 -211h-135z" />
    <glyph glyph-name="Igrave.sc" horiz-adv-x="651" 
d="M326 2l-246 -4l-8 86l135 20v842l-135 21l8 82l246 -5l245 5l9 -82l-136 -21v-842l136 -20l-9 -86zM283 1155l-195 207h223l90 -207h-118z" />
    <glyph glyph-name="Imacron.002" horiz-adv-x="735" 
d="M365 4l-293 -6l-11 84l175 27v1218l-175 27l11 82l293 -6l292 6l11 -82l-174 -27v-1218l174 -27l-11 -84zM72 1700h583v-127h-583v127z" />
    <glyph glyph-name="Imacron.sc" horiz-adv-x="651" 
d="M326 2l-246 -4l-8 86l135 20v842l-135 21l8 82l246 -5l245 5l9 -82l-136 -21v-842l136 -20l-9 -86zM82 1303h483v-125h-483v125z" />
    <glyph glyph-name="Iogonek.001" horiz-adv-x="729" 
d="M520 -369q-303 0 -342 78t-39 129v37l183 127l-250 -4l-11 84l175 27v1218l-175 27l11 82l293 -6l292 6l11 -82l-174 -27v-1218l174 -27l-11 -84l-247 4l-86 -139v-15q0 -66 45 -107.5t151 -41.5v-68z" />
    <glyph glyph-name="Iogonek.sc" horiz-adv-x="645" 
d="M303 -197q0 -66 56.5 -86t105.5 -20v-72q-178 0 -253 37t-75 113v100l148 127l-205 -4l-8 86l135 20v842l-135 21l8 84l246 -4l239 4l8 -84l-129 -21v-842l129 -20l-8 -86l-198 4l-64 -147v-52z" />
    <glyph glyph-name="Itilde.002" horiz-adv-x="735" 
d="M367 4l-293 -6l-11 84l175 27v1218l-175 27l11 82l293 -6l292 6l11 -82l-174 -27v-1218l174 -27l-11 -84zM92 1702l154 39l334 -86l71 88h60l-56 -176l-151 -35l-336 84l-70 -88h-59z" />
    <glyph glyph-name="Itilde.sc" horiz-adv-x="651" 
d="M328 2l-248 -4l-8 86l135 20v842l-135 21l8 82l248 -5l243 5l9 -82l-136 -21v-842l136 -20l-9 -86zM94 1335l125 33l285 -78l53 74h53l-45 -190l-125 -25l-284 78l-54 -74h-53z" />
    <glyph glyph-name="J.sc" horiz-adv-x="679" 
d="M494 258q0 -207 -160 -373l-141 -147h-162v219h190l12 29q23 50 23 159v801l-184 21l8 82l295 -5l235 5l8 -82l-124 -21v-688z" />
    <glyph glyph-name="Jcircumflex.002" horiz-adv-x="747" 
d="M532 240q0 -145 -43 -236.5t-106 -159.5l-186 -202h-195v211h223l19 43q26 71 28 155t2 144v1132l-225 27l10 82l347 -6l280 6l10 -82l-164 -27v-1087zM68 1530l225 211h182l225 -211h-141l-145 98l-31 31l-29 -31l-147 -98h-139z" />
    <glyph glyph-name="Jcircumflex.sc" horiz-adv-x="681" 
d="M92 1155l189 207h153l191 -207h-129l-111 66l-29 45l-26 -45l-111 -66h-127zM494 258q0 -207 -160 -373l-141 -147h-162v219h190l12 29q23 50 23 159v801l-184 21l8 82l295 -5l235 5l8 -82l-124 -21v-688z" />
    <glyph glyph-name="K.sc" horiz-adv-x="1282" 
d="M494 592l444 354l-123 21l8 82l183 -5l192 5l8 -82l-127 -21l-463 -368l66 -35l473 -439l86 -20l-8 -86l-141 4l-177 -4l-442 461l-29 69v-424l117 -20l-8 -86l-227 4l-246 -4l-8 86l133 20v842l-133 21l8 82l246 -5l227 5l8 -82l-117 -21v-377z" />
    <glyph glyph-name="Kcommaaccent.001" horiz-adv-x="1484" 
d="M553 799l553 528l-150 27l11 82l221 -6l223 6l10 -82l-157 -31l-570 -545l68 -33l598 -643l106 -22l-10 -82l-174 6l-192 -6l-564 657l-32 68v-617l147 -26l-10 -82l-266 6l-293 -6l-11 82l175 26v1221l-175 27l11 82l293 -6l266 6l10 -82l-147 -27v-559zM616 -59h228
v-154l-142 -143l-71 24l76 133l-91 54v86z" />
    <glyph glyph-name="Kcommaaccent.sc" horiz-adv-x="1282" 
d="M494 592l444 354l-123 21l8 82l183 -5l192 5l8 -82l-127 -21l-463 -368l66 -35l473 -439l86 -20l-8 -86l-141 4l-177 -4l-442 461l-29 69v-424l117 -20l-8 -86l-227 4l-246 -4l-8 86l133 20v842l-133 21l8 82l246 -5l227 5l8 -82l-117 -21v-377zM537 -74h198v-121
l-121 -198l-77 14l38 191l-38 53v61z" />
    <glyph glyph-name="L.sc" horiz-adv-x="1056" 
d="M309 4l-229 -6l-8 86l133 20v842l-133 21l8 82l229 -5l260 5l9 -82l-134 -21v-844l383 4l123 220h76l-59 -328z" />
    <glyph glyph-name="Lacute.002" horiz-adv-x="1222" 
d="M354 4l-282 -6l-11 82l175 26v1221l-175 27l11 82l282 -6l303 6l11 -82l-174 -27v-1223l489 7l145 282h86l-71 -395zM272 1530l123 211h252l-239 -211h-136z" />
    <glyph glyph-name="Lacute.sc" horiz-adv-x="1056" 
d="M309 4l-229 -6l-8 86l133 20v842l-133 21l8 82l229 -5l260 5l9 -82l-134 -21v-844l383 4l123 220h76l-59 -328zM266 1155l92 207h224l-193 -207h-123z" />
    <glyph glyph-name="Lcaron.sc" horiz-adv-x="1062" 
d="M309 4l-229 -6l-8 86l133 20v842l-133 21l8 82l229 -5l260 5l9 -82l-134 -21v-844l383 4l123 220h76l-59 -328zM817 834l-8 116l8 99l148 14l57 -14l10 -113l-10 -102l-121 -259l-74 35q8 20 38 94.5t30 120.5z" />
    <glyph glyph-name="Lcommaaccent.001" horiz-adv-x="1222" 
d="M354 4l-282 -6l-11 82l175 26v1221l-175 27l11 82l282 -6l303 6l11 -82l-174 -27v-1223l489 7l145 282h86l-71 -395zM518 -68h227v-153l-141 -141l-72 22l76 133l-90 53v86z" />
    <glyph glyph-name="Lcommaaccent.sc" horiz-adv-x="1056" 
d="M309 4l-229 -6l-8 86l133 20v842l-133 21l8 82l229 -5l260 5l9 -82l-134 -21v-844l383 4l123 220h76l-59 -328zM442 -74h199v-121l-121 -198l-78 14l39 191l-39 53v61z" />
    <glyph glyph-name="Ldot.sc" horiz-adv-x="1056" 
d="M309 4l-229 -6l-8 86l133 20v842l-133 21l8 82l229 -5l260 5l9 -82l-134 -21v-844l383 4l123 220h76l-59 -328zM604 711l144 12l55 -12l12 -115l-16 -100l-144 -13l-55 13l-8 116z" />
    <glyph glyph-name="Lslash.sc" horiz-adv-x="1056" 
d="M309 4l-229 -6l-8 86l133 20v340l-123 -59v125l123 59v377l-133 21l8 82l229 -5l260 5l9 -82l-134 -21v-260l148 72v-123l-148 -72v-461l383 4l123 220h76l-59 -328z" />
    <glyph glyph-name="M.sc" horiz-adv-x="1646" 
d="M1169 1049l220 -5l178 5l8 -82l-131 -21v-842l127 -20l-8 -86l-228 4l-248 -4l-8 86l135 20v668l23 182l-391 -956h-146l-323 758l-51 190v-842l131 -20l-8 -86l-181 4l-184 -4l-8 86l127 20v842l-131 21l8 82l160 -5l256 5l317 -705l6 -147z" />
    <glyph glyph-name="N.sc" horiz-adv-x="1300" 
d="M1104 -4h-121l-616 729l-37 166v-787l129 -20l-6 -86l-181 4l-192 -4l-8 86l135 20v842l-131 21l8 82l141 -5l166 5l547 -586l41 -164v647l-125 21l4 82l182 -5l191 5l8 -82l-135 -21v-950z" />
    <glyph glyph-name="Nacute.002" horiz-adv-x="1517" 
d="M1323 -4h-139l-764 1063l-41 162v-1115l164 -26l-8 -82l-222 6l-241 -6l-11 82l175 26v1211l-168 37l10 82l180 -6l182 6l690 -938l50 -146v975l-164 27l8 82l221 -6l242 6l10 -82l-174 -27v-1331zM666 1530l122 211h252l-239 -211h-135z" />
    <glyph glyph-name="Nacute.sc" horiz-adv-x="1300" 
d="M569 1155l93 207h221l-193 -207h-121zM1104 -4h-121l-616 729l-37 166v-787l129 -20l-6 -86l-181 4l-192 -4l-8 86l135 20v842l-131 21l8 82l141 -5l166 5l547 -586l41 -164v647l-125 21l4 82l182 -5l191 5l8 -82l-135 -21v-950z" />
    <glyph glyph-name="Ncaron.002" horiz-adv-x="1517" 
d="M1323 -4h-139l-764 1063l-41 162v-1115l164 -26l-8 -82l-222 6l-241 -6l-11 82l175 26v1211l-168 37l10 82l180 -6l182 6l690 -938l50 -146v975l-164 27l8 82l221 -6l242 6l10 -82l-174 -27v-1331zM737 1642l29 -30l31 30l147 99h139l-225 -211h-182l-225 211h141z" />
    <glyph glyph-name="Ncaron.sc" horiz-adv-x="1300" 
d="M510 1362l111 -66l26 -43l29 43l110 66h127l-188 -207h-154l-190 207h129zM1104 -4h-121l-616 729l-37 166v-787l129 -20l-6 -86l-181 4l-192 -4l-8 86l135 20v842l-131 21l8 82l141 -5l166 5l547 -586l41 -164v647l-125 21l4 82l182 -5l191 5l8 -82l-135 -21v-950z" />
    <glyph glyph-name="Ncommaaccent.001" horiz-adv-x="1517" 
d="M1323 -4h-139l-764 1063l-41 162v-1115l164 -26l-8 -82l-222 6l-241 -6l-11 82l175 26v1211l-168 37l10 82l180 -6l182 6l690 -938l50 -146v975l-164 27l8 82l221 -6l242 6l10 -82l-174 -27v-1331zM655 -59h228v-154l-142 -143l-73 24l75 133l-88 54v86z" />
    <glyph glyph-name="Ncommaaccent.sc" horiz-adv-x="1300" 
d="M551 -74h199v-121l-121 -198l-78 14l39 191l-39 53v61zM1104 -4h-121l-616 729l-37 166v-787l129 -20l-6 -86l-181 4l-192 -4l-8 86l135 20v842l-131 21l8 82l141 -5l166 5l547 -586l41 -164v647l-125 21l4 82l182 -5l191 5l8 -82l-135 -21v-950z" />
    <glyph glyph-name="Ntilde.002" horiz-adv-x="1517" 
d="M1323 -4h-139l-764 1063l-41 162v-1115l164 -26l-8 -82l-222 6l-241 -6l-11 82l175 26v1211l-168 37l10 82l180 -6l182 6l690 -938l50 -146v975l-164 27l8 82l221 -6l242 6l10 -82l-174 -27v-1331zM496 1702l153 39l336 -86l70 88h59l-53 -176l-154 -35l-336 84l-69 -88
h-60z" />
    <glyph glyph-name="Ntilde.sc" horiz-adv-x="1300" 
d="M430 1335l125 33l283 -78l55 74h53l-45 -190l-125 -25l-282 78l-56 -74h-53zM1104 -4h-121l-616 729l-37 166v-787l129 -20l-6 -86l-181 4l-192 -4l-8 86l135 20v842l-131 21l8 82l141 -5l166 5l547 -586l41 -164v647l-125 21l4 82l182 -5l191 5l8 -82l-135 -21v-950z
" />
    <glyph glyph-name="O.sc" horiz-adv-x="1366" 
d="M1146 171.5q-146 -132.5 -482 -198.5q-266 0 -428 148.5t-162 386.5t145.5 369.5t480.5 197.5q264 0 428 -147t164 -385q0 -239 -146 -371.5zM332 554q0 -187 92.5 -326.5t267.5 -139.5t256.5 112.5t81.5 296.5q0 185 -91.5 323t-276.5 138q-246 0 -288 -160.5
t-42 -243.5z" />
    <glyph glyph-name="OE.sc" horiz-adv-x="1703" 
d="M214.5 879q140.5 130 483.5 196l226 -26l669 2l17 -277h-70l-100 170l-387 4v-346l188 6l68 162h69l-16 -219l16 -219h-69l-68 162l-188 6v-398l397 4l117 179h75l-59 -287l-665 4l-259 -31q-260 0 -422.5 147.5t-162.5 389.5q0 241 140.5 371zM442 215
q112 -135 271 -135l102 24v842l-174 23q-154 0 -232.5 -122.5t-78.5 -309.5t112 -322z" />
    <glyph glyph-name="Oacute.002" horiz-adv-x="1622" 
d="M442 348.5q84 -141.5 176.5 -202t212.5 -60.5q222 0 327.5 165t105.5 428q0 262 -119 465.5t-361 203.5q-211 0 -318.5 -164t-107.5 -429t84 -406.5zM1366 221q-180 -188 -578 -258q-317 0 -514.5 203t-197.5 530t179.5 515.5t578.5 258.5q318 0 515 -203t197 -531
q0 -327 -180 -515zM702 1530l123 211h254l-241 -211h-136z" />
    <glyph glyph-name="Oacute.sc" horiz-adv-x="1366" 
d="M618 1155l93 207h221l-193 -207h-121zM332 554q0 -187 92.5 -326.5t267.5 -139.5t256.5 112.5t81.5 296.5q0 185 -91.5 323t-276.5 138q-246 0 -288 -160.5t-42 -243.5zM1146 171.5q-146 -132.5 -482 -198.5q-266 0 -428 148.5t-162 386.5t145.5 369.5t480.5 197.5
q264 0 428 -147t164 -385q0 -239 -146 -371.5z" />
    <glyph glyph-name="Obreve.002" horiz-adv-x="1622" 
d="M442 348.5q84 -141.5 176.5 -202t212.5 -60.5q222 0 327.5 165t105.5 428q0 262 -119 465.5t-361 203.5q-211 0 -318.5 -164t-107.5 -429t84 -406.5zM1366 221q-180 -188 -578 -258q-317 0 -514.5 203t-197.5 530t179.5 515.5t578.5 258.5q318 0 515 -203t197 -531
q0 -327 -180 -515zM606 1800q104 -119 232 -119t233 119l57 -45q-16 -25 -56.5 -91.5t-205.5 -131.5q-200 0 -321 223z" />
    <glyph glyph-name="Obreve.sc" horiz-adv-x="1366" 
d="M718.5 1270q95.5 0 172.5 90l51 -49q-28 -63 -70.5 -96t-148.5 -68q-104 0 -170 48t-98 116l53 49q25 -27 70 -58.5t140.5 -31.5zM1146 171.5q-146 -132.5 -482 -198.5q-266 0 -428 148.5t-162 386.5t145.5 369.5t480.5 197.5q264 0 428 -147t164 -385
q0 -239 -146 -371.5zM332 554q0 -187 92.5 -326.5t267.5 -139.5t256.5 112.5t81.5 296.5q0 185 -91.5 323t-276.5 138q-246 0 -288 -160.5t-42 -243.5z" />
    <glyph glyph-name="Ocircumflex.002" horiz-adv-x="1622" 
d="M442 348.5q84 -141.5 176.5 -202t212.5 -60.5q222 0 327.5 165t105.5 428q0 262 -119 465.5t-361 203.5q-211 0 -318.5 -164t-107.5 -429t84 -406.5zM1366 221q-180 -188 -578 -258q-317 0 -514.5 203t-197.5 530t179.5 515.5t578.5 258.5q318 0 515 -203t197 -531
q0 -327 -180 -515zM512 1530l227 211h181l227 -211h-141l-146 98l-31 31l-30 -31l-146 -98h-141z" />
    <glyph glyph-name="Ocircumflex.sc" horiz-adv-x="1366" 
d="M432 1155l189 207h155l189 -207h-129l-111 66l-27 45l-28 -45l-109 -66h-129zM332 554q0 -187 92.5 -326.5t267.5 -139.5t256.5 112.5t81.5 296.5q0 185 -91.5 323t-276.5 138q-246 0 -288 -160.5t-42 -243.5zM1146 171.5q-146 -132.5 -482 -198.5q-266 0 -428 148.5
t-162 386.5t145.5 369.5t480.5 197.5q264 0 428 -147t164 -385q0 -239 -146 -371.5z" />
    <glyph glyph-name="Odieresis.002" horiz-adv-x="1622" 
d="M442 348.5q84 -141.5 176.5 -202t212.5 -60.5q222 0 327.5 165t105.5 428q0 262 -119 465.5t-361 203.5q-211 0 -318.5 -164t-107.5 -429t84 -406.5zM1366 221q-180 -188 -578 -258q-317 0 -514.5 203t-197.5 530t179.5 515.5t578.5 258.5q318 0 515 -203t197 -531
q0 -327 -180 -515zM961 1737l131 10l55 -10l10 -105l-22 -90l-129 -10l-54 10l-10 107zM510 1737l129 10l55 -10l11 -105l-21 -90l-129 -10l-55 10l-11 107z" />
    <glyph glyph-name="Odieresis.sc" horiz-adv-x="1366" 
d="M807 1333l115 13l49 -13l10 -98l-18 -84l-115 -10l-49 10l-11 100zM424 1333l115 13l49 -13l10 -98l-18 -84l-115 -10l-49 10l-10 100zM332 554q0 -187 92.5 -326.5t267.5 -139.5t256.5 112.5t81.5 296.5q0 185 -91.5 323t-276.5 138q-246 0 -288 -160.5t-42 -243.5z
M1146 171.5q-146 -132.5 -482 -198.5q-266 0 -428 148.5t-162 386.5t145.5 369.5t480.5 197.5q264 0 428 -147t164 -385q0 -239 -146 -371.5z" />
    <glyph glyph-name="Ograve.002" horiz-adv-x="1622" 
d="M442 348.5q84 -141.5 176.5 -202t212.5 -60.5q222 0 327.5 165t105.5 428q0 262 -119 465.5t-361 203.5q-211 0 -318.5 -164t-107.5 -429t84 -406.5zM1366 221q-180 -188 -578 -258q-317 0 -514.5 203t-197.5 530t179.5 515.5t578.5 258.5q318 0 515 -203t197 -531
q0 -327 -180 -515zM780 1556l-239 261h252l122 -261h-135z" />
    <glyph glyph-name="Ograve.sc" horiz-adv-x="1366" 
d="M645 1155l-192 207h223l90 -207h-121zM1146 171.5q-146 -132.5 -482 -198.5q-266 0 -428 148.5t-162 386.5t145.5 369.5t480.5 197.5q264 0 428 -147t164 -385q0 -239 -146 -371.5zM332 554q0 -187 92.5 -326.5t267.5 -139.5t256.5 112.5t81.5 296.5q0 185 -91.5 323
t-276.5 138q-246 0 -288 -160.5t-42 -243.5z" />
    <glyph glyph-name="Ohungarumlaut.002" horiz-adv-x="1622" 
d="M442 348.5q84 -141.5 176.5 -202t212.5 -60.5q222 0 327.5 165t105.5 428q0 262 -119 465.5t-361 203.5q-211 0 -318.5 -164t-107.5 -429t84 -406.5zM1366 221q-180 -188 -578 -258q-317 0 -514.5 203t-197.5 530t179.5 515.5t578.5 258.5q318 0 515 -203t197 -531
q0 -327 -180 -515zM928 1530l123 211h254l-242 -211h-135zM578 1530l122 211h252l-239 -211h-135z" />
    <glyph glyph-name="Ohungarumlaut.sc" horiz-adv-x="1366" 
d="M793 1155l90 207h223l-193 -207h-120zM494 1155l90 207h223l-193 -207h-120zM1146 171.5q-146 -132.5 -482 -198.5q-266 0 -428 148.5t-162 386.5t145.5 369.5t480.5 197.5q264 0 428 -147t164 -385q0 -239 -146 -371.5zM332 554q0 -187 92.5 -326.5t267.5 -139.5
t256.5 112.5t81.5 296.5q0 185 -91.5 323t-276.5 138q-246 0 -288 -160.5t-42 -243.5z" />
    <glyph glyph-name="Omacron.002" horiz-adv-x="1622" 
d="M442 348.5q84 -141.5 176.5 -202t212.5 -60.5q222 0 327.5 165t105.5 428q0 262 -119 465.5t-361 203.5q-211 0 -318.5 -164t-107.5 -429t84 -406.5zM1366 221q-180 -188 -578 -258q-317 0 -514.5 203t-197.5 530t179.5 515.5t578.5 258.5q318 0 515 -203t197 -531
q0 -327 -180 -515zM530 1700h584v-127h-584v127z" />
    <glyph glyph-name="Omacron.sc" horiz-adv-x="1366" 
d="M453 1303h483v-125h-483v125zM332 554q0 -187 92.5 -326.5t267.5 -139.5t256.5 112.5t81.5 296.5q0 185 -91.5 323t-276.5 138q-246 0 -288 -160.5t-42 -243.5zM1146 171.5q-146 -132.5 -482 -198.5q-266 0 -428 148.5t-162 386.5t145.5 369.5t480.5 197.5
q264 0 428 -147t164 -385q0 -239 -146 -371.5z" />
    <glyph glyph-name="Oslash.sc" horiz-adv-x="1366" 
d="M915 848q-101 110 -260.5 110t-241 -113t-81.5 -284t63 -287zM444 201q100 -113 261 -113t243 112.5t82 282.5t-65 291zM246 111q-172 147 -172 392q0 244 145.5 375t480.5 197q195 0 344 -86l74 82h117l-119 -131q176 -147 176 -391t-146 -377t-482 -199q-196 0 -347 86
l-73 -82h-119z" />
    <glyph glyph-name="Oslashacute.002" horiz-adv-x="1622" 
d="M702 1530l121 211h254l-239 -211h-136zM1116 1184q-126 164 -334.5 164t-316 -164t-107.5 -415t88 -423zM504 250q131 -164 340 -164t314.5 165t105.5 414t-90 427zM1329 1286q217 -204 217 -541q0 -336 -180 -524t-578 -258q-241 0 -417 121l-90 -115h-136l144 181
q-213 205 -213 539q0 335 179.5 523t578.5 258q238 0 413 -120l92 114h131z" />
    <glyph glyph-name="Oslashacute.sc" horiz-adv-x="1366" 
d="M618 1155l93 207h221l-193 -207h-121zM915 848q-101 110 -260.5 110t-241 -113t-81.5 -284t63 -287zM444 201q100 -113 261 -113t243 112.5t82 282.5t-65 291zM246 111q-172 147 -172 392q0 244 145.5 375t480.5 197q195 0 344 -86l74 82h117l-119 -131
q176 -147 176 -391t-146 -377t-482 -199q-196 0 -347 86l-73 -82h-119z" />
    <glyph glyph-name="Otilde.002" horiz-adv-x="1622" 
d="M442 348.5q84 -141.5 176.5 -202t212.5 -60.5q222 0 327.5 165t105.5 428q0 262 -119 465.5t-361 203.5q-211 0 -318.5 -164t-107.5 -429t84 -406.5zM1366 221q-180 -188 -578 -258q-317 0 -514.5 203t-197.5 530t179.5 515.5t578.5 258.5q318 0 515 -203t197 -531
q0 -327 -180 -515zM547 1702l153 39l334 -86l70 88h59l-53 -176l-154 -35l-333 84l-70 -88h-59z" />
    <glyph glyph-name="Otilde.sc" horiz-adv-x="1366" 
d="M471 1335l125 33l285 -78l55 74h53l-47 -190l-123 -25l-284 78l-56 -74h-53zM1146 171.5q-146 -132.5 -482 -198.5q-266 0 -428 148.5t-162 386.5t145.5 369.5t480.5 197.5q264 0 428 -147t164 -385q0 -239 -146 -371.5zM332 554q0 -187 92.5 -326.5t267.5 -139.5
t256.5 112.5t81.5 296.5q0 185 -91.5 323t-276.5 138q-246 0 -288 -160.5t-42 -243.5z" />
    <glyph glyph-name="P.sc" horiz-adv-x="1083" 
d="M444 549h119q94 0 162 53.5t68 157.5t-62.5 155.5t-167.5 51.5l-119 -13v-405zM1047 776q0 -129 -115.5 -201t-327.5 -137h-160v-334l199 -20l-8 -86l-309 4l-246 -4l-8 86l133 20v842l-133 21l8 82l242 -5l366 5q246 0 302.5 -100.5t56.5 -172.5z" />
    <glyph glyph-name="Q.sc" horiz-adv-x="1366" 
d="M912.5 153q119.5 65 119.5 345q0 176 -98 318t-270 142t-252 -117t-80 -295t97 -318t273 -140q91 0 210.5 65zM1177 203.5q-115 -128.5 -380 -199.5l159 -39l166 -102l111 -23l-8 -86h-293l-268 219q-266 0 -428 148.5t-162 386.5t145.5 369.5t480.5 197.5
q264 0 428 -147t164 -372q0 -224 -115 -352.5z" />
    <glyph glyph-name="R.sc" horiz-adv-x="1216" 
d="M444 573h109q104 0 172 50.5t68 148.5t-61.5 146.5t-151.5 48.5l-136 -13v-381zM444 477v-373l129 -20l-8 -86l-239 4l-246 -4l-8 86l133 20v842l-133 21l8 82l244 -5l366 5q243 0 300 -97.5t57 -155.5q0 -108 -106 -183.5t-255 -92.5l166 -86l256 -325l84 -25l-8 -86
l-172 4l-133 -4l-328 461l-23 18h-84z" />
    <glyph glyph-name="Racute.002" horiz-adv-x="1423" 
d="M494 760h139q141 0 230 85t89 222t-79.5 205.5t-196.5 70.5l-182 -14v-569zM494 655v-549l165 -26l-10 -82l-284 6l-293 -6l-11 82l175 26v1221l-175 27l11 82l293 -6l409 6q318 0 389.5 -133.5t71.5 -221.5q0 -158 -122 -255t-312 -140l176 -92l332 -485l104 -31l-8 -80
l-193 6l-153 -6l-418 635l-25 22h-122zM539 1530l123 211h251l-239 -211h-135z" />
    <glyph glyph-name="Racute.sc" horiz-adv-x="1216" 
d="M508 1155l90 207h223l-192 -207h-121zM444 477v-373l129 -20l-8 -86l-239 4l-246 -4l-8 86l133 20v842l-133 21l8 82l244 -5l366 5q243 0 300 -97.5t57 -155.5q0 -108 -106 -183.5t-255 -92.5l166 -86l256 -325l84 -25l-8 -86l-172 4l-133 -4l-328 461l-23 18h-84z
M444 573h109q104 0 172 50.5t68 148.5t-61.5 146.5t-151.5 48.5l-136 -13v-381z" />
    <glyph glyph-name="Rcaron.002" horiz-adv-x="1423" 
d="M494 760h139q141 0 230 85t89 222t-79.5 205.5t-196.5 70.5l-182 -14v-569zM494 655v-549l165 -26l-10 -82l-284 6l-293 -6l-11 82l175 26v1221l-175 27l11 82l293 -6l409 6q318 0 389.5 -133.5t71.5 -221.5q0 -158 -122 -255t-312 -140l176 -92l332 -485l104 -31l-8 -80
l-193 6l-153 -6l-418 635l-25 22h-122zM637 1642l29 -30l30 30l146 99h141l-225 -211h-183l-225 211h139z" />
    <glyph glyph-name="Rcaron.sc" horiz-adv-x="1216" 
d="M442 1362l111 -66l27 -43l26 43l111 66h129l-189 -207h-155l-189 207h129zM444 573h109q104 0 172 50.5t68 148.5t-61.5 146.5t-151.5 48.5l-136 -13v-381zM444 477v-373l129 -20l-8 -86l-239 4l-246 -4l-8 86l133 20v842l-133 21l8 82l244 -5l366 5q243 0 300 -97.5
t57 -155.5q0 -108 -106 -183.5t-255 -92.5l166 -86l256 -325l84 -25l-8 -86l-172 4l-133 -4l-328 461l-23 18h-84z" />
    <glyph glyph-name="Rcommaaccent.001" horiz-adv-x="1423" 
d="M494 760h139q141 0 230 85t89 222t-79.5 205.5t-196.5 70.5l-182 -14v-569zM494 655v-549l165 -26l-10 -82l-284 6l-293 -6l-11 82l175 26v1221l-175 27l11 82l293 -6l409 6q318 0 389.5 -133.5t71.5 -221.5q0 -158 -122 -255t-312 -140l176 -92l332 -485l104 -31l-8 -80
l-193 6l-153 -6l-418 635l-25 22h-122zM614 -59h228v-154l-142 -143l-73 24l75 133l-88 54v86z" />
    <glyph glyph-name="Rcommaaccent.sc" horiz-adv-x="1216" 
d="M524 -74h197v-121l-121 -198l-76 14l37 191l-37 53v61zM444 477v-373l129 -20l-8 -86l-239 4l-246 -4l-8 86l133 20v842l-133 21l8 82l244 -5l366 5q243 0 300 -97.5t57 -155.5q0 -108 -106 -183.5t-255 -92.5l166 -86l256 -325l84 -25l-8 -86l-172 4l-133 -4l-328 461
l-23 18h-84zM444 573h109q104 0 172 50.5t68 148.5t-61.5 146.5t-151.5 48.5l-136 -13v-381z" />
    </font>
</defs>
</svg>
