<?xml version="1.0" encoding="utf-8"?>
<!-- Generator: Adobe Illustrator 18.1.0, SVG Export Plug-In . SVG Version: 6.00 Build 0)  -->
<svg version="1.1" xmlns="http://www.w3.org/2000/svg" xmlns:xlink="http://www.w3.org/1999/xlink" x="0px" y="0px" width="462px"
	 height="453.9px" viewBox="81 -76.9 462 453.9" enable-background="new 81 -76.9 462 453.9" xml:space="preserve">
<g id="layer-planes" class="layer" style="opacity: 1;">
	<polygon fill="#BECAD3" points="240.4,102.8 489.7,71.9 490.2,72.1 365.2,-36.9 150.5,-12.9 150.7,-12.7 	"/>
	<polygon fill="#BECAD3" points="490.2,72.4 489.7,72.4 489.9,72.4 373.9,86.8 240.5,103.3 212.5,315.1 438.2,282.1 	"/>
	<polygon fill="#BECAD3" points="150.2,-12.5 133.2,177.1 212.1,314.8 240,103.2 	"/>
	<polygon fill="#FFFFFF" points="150.5,-12.9 150.3,-13.2 149.8,-13.1 150.2,-12.5 150.2,-12.9 	"/>
	<polygon fill="#FFFFFF" points="212.1,314.8 212,315.3 212.4,315.4 212.5,315.1 212.2,315.1 	"/>
	<polygon fill="#FFFFFF" points="490.2,72.4 490.8,72.3 490.2,72.1 490.2,72.1 	"/>
	<polygon fill="#FFFFFF" points="373.9,86.8 489.9,72.4 489.7,72.4 490.2,72.4 490.2,72.1 240.2,103.1 212.2,315.1 212.5,315.1
		240.5,103.3 	"/>
</g>
<g id="layer-wireframe" class="layer" style="opacity: 0;">
	<g id="Layer_2">
		<polygon fill="none" stroke="#231E20" stroke-width="0.5" stroke-miterlimit="10" points="150.2,-12.9 240.2,103.1 212.2,315.1
			133.2,177.1 		"/>
		<polyline fill="none" stroke="#231E20" stroke-width="0.5" stroke-miterlimit="10" points="150.2,-12.9 365.2,-36.9 490.2,72.1
			240.2,103.1 		"/>
		<polyline fill="none" stroke="#231E20" stroke-width="0.5" stroke-miterlimit="10" points="490.2,72.1 438.2,282.1 212.2,315.1
			"/>
	</g>
</g>
<g id="layer-dots" class="layer" style="opacity: 0;">
	<g id="Layer_3">
		<g>
			<circle fill="#DCE4EA" stroke="#231E20" stroke-width="0.5" stroke-miterlimit="10" cx="212.2" cy="315.8" r="7.5"/>
			<circle fill="#050505" cx="212.2" cy="315.8" r="3.5"/>
		</g>
		<g>
			<circle fill="#DCE4EA" stroke="#231E20" stroke-width="0.5" stroke-miterlimit="10" cx="438.2" cy="281.6" r="7.5"/>
			<circle fill="#050505" cx="438.2" cy="281.6" r="3.5"/>
		</g>
		<g>
			<circle fill="#DCE4EA" stroke="#231E20" stroke-width="0.5" stroke-miterlimit="10" cx="490.2" cy="73.1" r="7.5"/>
			<circle fill="#050505" cx="490.2" cy="73.1" r="3.5"/>
		</g>
		<g>
			<circle fill="#DCE4EA" stroke="#231E20" stroke-width="0.5" stroke-miterlimit="10" cx="240.8" cy="103.1" r="7.5"/>
			<circle fill="#050505" cx="240.8" cy="103.1" r="3.5"/>
		</g>
		<g>
			<circle fill="#DCE4EA" stroke="#231E20" stroke-width="0.5" stroke-miterlimit="10" cx="365.2" cy="-35.9" r="7.5"/>
			<circle fill="#050505" cx="365.2" cy="-35.9" r="3.5"/>
		</g>
		<g>
			<circle fill="#DCE4EA" stroke="#231E20" stroke-width="0.5" stroke-miterlimit="10" cx="150.8" cy="-12.4" r="7.5"/>
			<circle fill="#050505" cx="150.8" cy="-12.4" r="3.5"/>
		</g>
		<g>
			<circle fill="#DCE4EA" stroke="#231E20" stroke-width="0.5" stroke-miterlimit="10" cx="133.8" cy="177.6" r="7.5"/>
			<circle fill="#050505" cx="133.8" cy="177.6" r="3.5"/>
		</g>
	</g>
</g>
</svg>
