<?xml version="1.0" encoding="utf-8"?>
<!-- Generator: Adobe Illustrator 18.1.0, SVG Export Plug-In . SVG Version: 6.00 Build 0)  -->
<svg version="1.1" id="Layer_1" xmlns="http://www.w3.org/2000/svg" xmlns:xlink="http://www.w3.org/1999/xlink" x="0px" y="0px"
	 width="300px" height="300px" viewBox="0 0 300 300" style="enable-background:new 0 0 300 300;" xml:space="preserve">
<polygon fill="none" stroke="#231F20" stroke-width="0.5" stroke-miterlimit="10" points="274.3,221.8 150,293.5 25.7,221.8
  25.7,78.2 150,6.5 274.3,78.2 "/>
<polyline fill="none" stroke="#231F20" stroke-width="0.5" stroke-miterlimit="10" points="25.7,78.2 150,150 274.3,78.2 "/>
<line fill="none" stroke="#231F20" stroke-width="0.5" stroke-miterlimit="10" x1="150" y1="293.5" x2="150" y2="150"/>
<circle class="interactive-dot" style="fill:#231F20;" cx="150" cy="150" r="3.5"/>
<circle class="" style="fill:#231F20;" cx="150" cy="150" r="3.5"/>
<circle class="interactive-dot" style="fill:#231F20;" cx="25.7" cy="78.2" r="3.5"/>
<circle class="" style="fill:#231F20;" cx="25.7" cy="78.2" r="3.5"/>
<circle class="interactive-dot" style="fill:#231F20;" cx="25.7" cy="221.8" r="3.5"/>
<circle class="" style="fill:#231F20;" cx="25.7" cy="221.8" r="3.5"/>
<circle class="interactive-dot" style="fill:#231F20;" cx="150" cy="293.5" r="3.5"/>
<circle class="" style="fill:#231F20;" cx="150" cy="293.5" r="3.5"/>
<circle class="interactive-dot" style="fill:#231F20;" cx="274.3" cy="221.6" r="3.5"/>
<circle class="" style="fill:#231F20;" cx="274.3" cy="221.6" r="3.5"/>
<circle class="interactive-dot" style="fill:#231F20;" cx="274.3" cy="78.2" r="3.5"/>
<circle class="" style="fill:#231F20;" cx="274.3" cy="78.2" r="3.5"/>
<circle class="interactive-dot" style="fill:#231F20;" cx="150" cy="6.5" r="3.5"/>
<circle class="" style="fill:#231F20;" cx="150" cy="6.5" r="3.5"/>
</svg>
