<svg width="10" height="6" viewBox="0 0 10 6" fill="none" xmlns="http://www.w3.org/2000/svg">
<path fill-rule="evenodd" clip-rule="evenodd" d="M5.89242 3.86346C5.45417 4.19223 5.45417 4.19223 5.45417 4.19223C5.23113 4.41113 5.01224 4.18808 4.7043 3.95719C4.51579 3.82657 3.94115 3.17602 3.72598 2.9505L2.34528 1.40375C2.19707 1.24062 2.03845 1.00275 1.88829 0.857827C1.45601 0.425 0.76255 0.884605 0.922508 1.45396C1.02915 1.83352 1.9665 2.70697 2.24082 3.06767L4.64014 5.58861C4.78835 5.75173 4.96711 5.97335 5.30249 5.93562C5.37724 5.92521 5.95048 5.72885 6.01093 5.6801C6.19225 5.53383 8.37319 2.52749 8.57009 2.23563C8.85343 1.82417 9.3142 1.30285 8.78313 0.933078C8.18511 0.50092 7.87451 1.16717 7.63146 1.54613C7.39426 1.87049 6.0718 3.73539 5.89242 3.86346Z" fill="#ABFFEB"/>
</svg>
