<?xml version="1.0" standalone="no"?>
<!DOCTYPE svg PUBLIC "-//W3C//DTD SVG 1.1//EN" "http://www.w3.org/Graphics/SVG/1.1/DTD/svg11.dtd" >
<svg xmlns="http://www.w3.org/2000/svg" xmlns:xlink="http://www.w3.org/1999/xlink" version="1.1">
<metadata>
Created by FontForge 20170731 at Wed Dec 29 09:46:58 2021
 By Aleksey,,,
Copyright 2021 Dinamo (Johannes Breyer, Fabian Harb) &#38; Erkin Karamemet. All rights reserved.
</metadata>
<defs>
<font id="ABCWhyte-LightItalic" horiz-adv-x="1269" >
  <font-face 
    font-family="ABC Whyte Light"
    font-weight="300"
    font-style="italic"
    font-stretch="normal"
    units-per-em="2048"
    panose-1="2 11 0 4 4 2 2 6 2 3"
    ascent="1649"
    descent="-399"
    x-height="1010"
    cap-height="1434"
    bbox="-502 -604 2560 2013"
    underline-thickness="102"
    underline-position="-307"
    slope="-12"
    unicode-range="U+0020-FB02"
  />
<missing-glyph horiz-adv-x="1425" 
d="M1096 0h-977l305 1436h975zM520 1317l-254 -1200h731l254 1200h-731z" />
    <glyph glyph-name="fi" unicode="fi" horiz-adv-x="1200" 
d="M1122 1010l-213 -1010h-137l191 895h-467l-191 -895h-135l192 895h-241l26 115h238l35 155q30 145 97 207t212 62h195l-25 -119h-166q-150 0 -180 -150l-33 -155h602zM1030 1225l45 209h144l-45 -209h-144z" />
    <glyph glyph-name="fl" unicode="fl" horiz-adv-x="1214" 
d="M1227 1434l-303 -1434h-138l281 1315h-334q-150 0 -180 -150l-33 -155h279l-23 -115h-280l-191 -895h-135l192 895h-241l26 115h238l35 155q30 145 97 207t212 62h498z" />
    <glyph glyph-name="f_f" unicode="ff" horiz-adv-x="1378" 
d="M1552 1315h-166q-150 0 -180 -150l-30 -155h276l-22 -115h-281l-191 -895h-135l193 895h-520l-191 -895h-135l192 895h-241l26 115h238l35 155q30 145 97 207t212 62h195l-25 -119h-166q-150 0 -180 -150l-33 -155h279l-4 -19h2l4 19h237l35 155q30 145 97 207t212 62
h195z" />
    <glyph glyph-name="f_f_i" unicode="ffi" horiz-adv-x="1896" 
d="M1819 1010l-213 -1010h-138l191 895h-510l-191 -895h-135l193 895h-520l-191 -895h-135l192 895h-241l26 115h238l35 155q30 145 97 207t212 62h195l-25 -119h-166q-150 0 -180 -150l-33 -155h279l-4 -19h2l4 19h237l35 155q30 145 97 207t212 62h195l-25 -119h-166
q-150 0 -180 -150l-30 -155h643zM1726 1225l46 209h143l-45 -209h-144z" />
    <glyph glyph-name="f_f_l" unicode="ffl" horiz-adv-x="1906" 
d="M1919 1434l-303 -1434h-137l280 1315h-373q-150 0 -180 -150l-30 -155h276l-22 -115h-281l-191 -895h-135l193 895h-520l-191 -895h-135l192 895h-241l26 115h238l35 155q30 145 97 207t212 62h195l-25 -119h-166q-150 0 -180 -150l-33 -155h279l-2 -6h2l2 6h237l35 155
q30 145 97 207t212 62h537z" />
    <glyph glyph-name=".notdef" horiz-adv-x="1425" 
d="M1096 0h-977l305 1436h975zM520 1317l-254 -1200h731l254 1200h-731z" />
    <glyph glyph-name=".null" horiz-adv-x="0" 
 />
    <glyph glyph-name="nonmarkingreturn" horiz-adv-x="682" 
 />
    <glyph glyph-name="space" unicode=" " horiz-adv-x="561" 
 />
    <glyph glyph-name="exclam" unicode="!" horiz-adv-x="544" 
d="M287 420h-64l94 631l80 383h146l-84 -387zM260 0h-192l49 225h190z" />
    <glyph glyph-name="quotedbl" unicode="&#x22;" horiz-adv-x="770" 
d="M342 936h-78l39 350l31 148h143l-33 -148zM686 936h-76l37 350l33 148h141l-30 -148z" />
    <glyph glyph-name="numbersign" unicode="#" horiz-adv-x="1433" 
d="M285 0h-133l100 238q14 35 41 98.5t37 87.5h-150h-114l24 121h291l151 358h-262l25 123h289l172 408h131l-88 -211q-20 -43 -84 -197h145h211l170 408h133l-88 -211q-7 -16 -37 -87.5t-47 -109.5h152h110l-26 -123h-287l-152 -358h261l-25 -121h-285l-178 -424h-133
l98 233q13 33 40 95.5t40 95.5h-158h-198zM664 903l-152 -358h356l152 358h-356z" />
    <glyph glyph-name="dollar" unicode="$" horiz-adv-x="1202" 
d="M498 -221h-119l45 209q-153 30 -248 124.5t-117 231.5l142 53q14 -102 78 -176t174 -102l120 565l-61 23q-59 23 -101 47t-83 61.5t-62.5 92t-21.5 124.5q0 193 134 310.5t361 117.5l39 187h121l-43 -201q77 -16 139 -51.5t100.5 -80.5t61.5 -89t31 -86l-137 -49
q-6 27 -20 56.5t-39.5 63t-68 61.5t-96.5 42l-114 -525l63 -24q62 -22 112.5 -52.5t96 -73.5t71 -104t25.5 -133q0 -200 -141 -314t-399 -114zM602 823l55 258q5 23 25 111.5t29 136.5q-150 -1 -238 -80t-88 -200q0 -82 50 -133t167 -93zM567 102q172 0 268.5 81.5
t96.5 207.5q0 95 -60 154t-188 102l-49 -235z" />
    <glyph glyph-name="percent" unicode="%" horiz-adv-x="1835" 
d="M487 610q-140 0 -218.5 89t-78.5 247q0 131 46.5 245t134 185.5t196.5 71.5q136 0 215.5 -91.5t79.5 -248.5q0 -131 -46 -244t-133 -183.5t-196 -70.5zM395 0h-159l1302 1434h156zM489 715q105 0 177.5 120t72.5 273q0 110 -47 172.5t-127 62.5q-70 0 -128.5 -58.5
t-90 -149t-31.5 -189.5q0 -112 45 -171.5t129 -59.5zM1360 -10q-140 0 -218.5 89t-78.5 247q0 131 46.5 245t134 185t196.5 71q136 0 215.5 -91.5t79.5 -248.5q0 -132 -46 -244.5t-133 -182.5t-196 -70zM1362 94q105 0 177.5 120t72.5 273q0 110 -47 173t-129 63
q-69 0 -127 -58.5t-89.5 -149t-31.5 -189.5q0 -112 45 -172t129 -60z" />
    <glyph glyph-name="ampersand" unicode="&#x26;" horiz-adv-x="1333" 
d="M496 -27q-186 0 -302 99.5t-116 269.5q0 136 89 244.5t247 185.5q-43 124 -43 246q0 84 22.5 161.5t66.5 141t116 101.5t163 38q140 0 226 -77t86 -203q0 -74 -33.5 -139t-101 -121.5t-149.5 -103.5t-198 -99q68 -129 119 -191q100 -132 213 -225q112 135 176 375
l125 -58q-71 -236 -196 -393q109 -78 229 -135l-55 -117q-131 61 -265 156q-180 -156 -419 -156zM526 827l92 43q69 33 119.5 63.5t94 68.5t66 83t22.5 95q0 72 -49.5 121t-133.5 49q-61 0 -108 -27.5t-75 -75.5t-42 -107t-14 -126q0 -95 28 -187zM496 92q180 0 315 119
q-114 100 -209 219q-71 95 -143 232q-117 -64 -179.5 -139.5t-62.5 -178.5q0 -115 83.5 -183.5t195.5 -68.5z" />
    <glyph glyph-name="quotesingle" unicode="'" horiz-adv-x="428" 
d="M342 936h-78l39 350l31 148h143l-33 -148z" />
    <glyph glyph-name="parenleft" unicode="(" horiz-adv-x="649" 
d="M442 -199l-26 -129q-160 48 -233.5 203.5t-73.5 413.5q0 160 31 332t92.5 335.5t145.5 296t199.5 218t243.5 96.5l-28 -129q-104 -21 -196 -109.5t-156 -212.5t-111 -271.5t-69.5 -290t-22.5 -265.5q0 -215 50 -333t154 -155z" />
    <glyph glyph-name="parenright" unicode=")" horiz-adv-x="647" 
d="M254 1438l29 129q160 -48 232.5 -203t72.5 -414q0 -160 -30.5 -332t-92.5 -335.5t-145.5 -296t-199.5 -218t-245 -96.5l29 129q104 21 196.5 109.5t156.5 212.5t111.5 271.5t70 290t22.5 265.5q0 215 -51 333t-156 155z" />
    <glyph glyph-name="asterisk" unicode="*" horiz-adv-x="1044" 
d="M655 1106l-204 -279l-107 72l57 72l162 203q-97 -5 -244 -5h-79l26 125l316 -10l-111 291l123 49l27 -80l69 -207q61 88 164 226l49 67l105 -76l-220 -272l322 12l-25 -127h-75q-110 0 -254 7q9 -22 39 -98t47 -120l32 -75l-126 -52z" />
    <glyph glyph-name="plus" unicode="+" horiz-adv-x="1261" 
d="M743 170h-131v487h-477v131h477v488l131 -2v-486h478v-131h-478v-487z" />
    <glyph glyph-name="comma" unicode="," horiz-adv-x="520" 
d="M84 -258h-100l186 258h-94l49 225h192l-51 -231z" />
    <glyph glyph-name="hyphen" unicode="-" horiz-adv-x="817" 
d="M674 561h-510l31 144h507z" />
    <glyph glyph-name="period" unicode="." horiz-adv-x="501" 
d="M254 0h-193l50 225h190z" />
    <glyph glyph-name="slash" unicode="/" horiz-adv-x="874" 
d="M80 -219h-146l953 1874h143z" />
    <glyph glyph-name="zero" unicode="0" horiz-adv-x="1406" 
d="M674 -27q-239 0 -373.5 155.5t-134.5 436.5q0 130 28 258.5t84 243t133 202.5t183.5 139.5t226.5 51.5q234 0 371 -157t137 -439q0 -133 -27.5 -261.5t-83.5 -242t-133 -200t-183.5 -137t-227.5 -50.5zM678 102q114 0 211.5 70t160 181t97.5 244.5t35 266.5
q0 213 -95.5 340t-269.5 127q-113 0 -210.5 -70.5t-160 -183t-98 -247.5t-35.5 -267q0 -214 94.5 -337.5t270.5 -123.5z" />
    <glyph glyph-name="one" unicode="1" horiz-adv-x="819" 
d="M485 0h-141l211 995q1 4 17 81t28 132q-78 -104 -196 -180.5t-250 -95.5l32 155q130 29 261.5 120t230.5 227h110z" />
    <glyph glyph-name="two" unicode="2" horiz-adv-x="1183" 
d="M969 0h-922l33 158q120 67 185 104t178 107t177.5 119t147 121.5t126.5 134.5t75.5 138.5t31.5 151.5q0 134 -85 215.5t-218 81.5q-79 0 -146.5 -35t-117.5 -115.5t-61 -195.5l-146 35q26 208 154.5 324t325.5 116q103 0 188 -33.5t139.5 -90.5t84.5 -131.5t30 -157.5
q0 -152 -77.5 -281.5t-225.5 -247.5q-106 -95 -243 -185t-329 -200h340h383z" />
    <glyph glyph-name="three" unicode="3" horiz-adv-x="1191" 
d="M549 -27q-216 0 -337.5 114t-117.5 316l148 29q-9 -152 75 -242t234 -90t244 90t94 224q0 120 -81 191t-204 71h-104l30 125h107q161 0 255.5 79.5t94.5 213.5q0 108 -78 173.5t-194 65.5q-132 0 -220 -78.5t-102 -207.5l-143 36q29 170 152.5 273.5t320.5 103.5
q186 0 298 -97.5t112 -248.5q0 -154 -89.5 -254t-230.5 -133q96 -35 160.5 -119t64.5 -202q0 -183 -133.5 -308t-355.5 -125z" />
    <glyph glyph-name="four" unicode="4" horiz-adv-x="1193" 
d="M788 0h-141l86 406h-684l29 135l788 893h226l-191 -906h223l-26 -122h-224zM494 528h266l110 529l58 262l-695 -791h261z" />
    <glyph glyph-name="five" unicode="5" horiz-adv-x="1208" 
d="M551 -27q-110 0 -197 29.5t-141.5 81t-85.5 114.5t-39 136l145 35q7 -125 95.5 -197t224.5 -72q172 0 275.5 109t103.5 280q0 129 -82 211t-215 82q-103 0 -176.5 -43.5t-139.5 -130.5l-153 39l258 787h797l-29 -134h-680l-113 -346q-36 -103 -67 -213q130 162 336 162
q177 0 295 -114.5t118 -292.5q0 -231 -147 -377t-383 -146z" />
    <glyph glyph-name="six" unicode="6" horiz-adv-x="1257" 
d="M625 -27q-218 0 -341.5 137.5t-123.5 397.5q0 127 22.5 246.5t66 226t110 194t150.5 151.5t193 99t232 35q84 0 171 -15t144 -40l-28 -139q-140 57 -291 57q-250 0 -412 -174t-201 -469q33 64 85 115.5t135.5 88t179.5 36.5q98 0 179 -34t133 -91.5t80 -132t28 -158.5
q0 -146 -63.5 -267t-181.5 -192.5t-267 -71.5zM621 100q159 0 262.5 115t103.5 274q0 142 -84.5 224t-220.5 82q-155 0 -261 -114t-106 -273q0 -141 87.5 -224.5t218.5 -83.5z" />
    <glyph glyph-name="seven" unicode="7" horiz-adv-x="1040" 
d="M348 0h-162q104 823 813 1300h-301h-479l29 134h938l-29 -144q-169 -117 -299.5 -242t-217.5 -246.5t-148 -258t-93.5 -265t-50.5 -278.5z" />
    <glyph glyph-name="eight" unicode="8" horiz-adv-x="1243" 
d="M571 -27q-223 0 -342.5 107.5t-119.5 273.5q0 147 103.5 264t272.5 146q-85 36 -142.5 110.5t-57.5 180.5q0 177 134 291t341 114q193 0 310.5 -97.5t117.5 -250.5q0 -142 -90 -245t-232 -136q97 -37 161.5 -120.5t64.5 -200.5q0 -87 -36.5 -166.5t-102.5 -139.5
t-165 -95.5t-217 -35.5zM709 803q145 0 238 84t93 205q0 113 -80 178t-206 65q-139 0 -233.5 -82t-94.5 -204q0 -115 80 -180.5t203 -65.5zM575 98q161 0 264 91.5t103 226.5q0 126 -88 199t-227 73q-160 0 -264.5 -92t-104.5 -227q0 -125 89.5 -198t227.5 -73z" />
    <glyph glyph-name="nine" unicode="9" 
d="M436 -27q-96 0 -183.5 17.5t-141.5 46.5l30 139q116 -63 285 -63q228 0 385 137q193 166 231 508q-51 -102 -153.5 -170t-249.5 -68q-102 0 -184 33.5t-135 91t-81 133t-28 160.5q0 145 60 263t175 188.5t265 70.5q214 0 344 -145q141 -151 141 -428q0 -186 -48 -349
t-140 -290t-239.5 -201t-332.5 -74zM666 643q157 0 261.5 106t104.5 261q0 141 -93 232t-218 91q-108 0 -191 -53t-125.5 -138.5t-42.5 -187.5q0 -144 86 -227.5t218 -83.5z" />
    <glyph glyph-name="colon" unicode=":" horiz-adv-x="499" 
d="M399 760h-190l49 227h191zM238 0h-191l49 225h191z" />
    <glyph glyph-name="semicolon" unicode=";" horiz-adv-x="557" 
d="M434 760h-190l49 227h190zM90 -258h-102l188 258h-94l49 225h193l-52 -231z" />
    <glyph glyph-name="less" unicode="&#x3c;" horiz-adv-x="1384" 
d="M139 821l1098 461v-149l-682 -283q-93 -37 -309 -127q53 -23 159.5 -67t149.5 -62l682 -283v-155l-1098 465v200z" />
    <glyph glyph-name="equal" unicode="=" horiz-adv-x="1540" 
d="M1354 866h-1100v131h1100v-131zM1354 442h-1100v131h1100v-131z" />
    <glyph glyph-name="greater" unicode="&#x3e;" horiz-adv-x="1384" 
d="M1337 616l-1097 -460v149l682 285q93 37 309 127q-40 16 -146.5 60.5t-162.5 66.5l-682 284v154l1097 -463v-203z" />
    <glyph glyph-name="question" unicode="?" horiz-adv-x="972" 
d="M494 420h-142q32 149 76.5 219.5t169.5 153.5q60 40 89.5 61t71 56.5t61 63.5t34 67t14.5 83q0 94 -62 151.5t-169 57.5q-134 0 -212 -86.5t-87 -247.5l-137 29q7 196 127.5 313t314.5 117q165 0 268 -93t103 -228q0 -44 -10 -85t-23 -72t-42 -66t-50.5 -57.5t-65 -56.5
t-69.5 -52.5t-80 -55.5q-41 -28 -67.5 -50.5t-44.5 -43t-30 -49.5t-19.5 -55t-18.5 -74zM440 0h-190l49 225h190z" />
    <glyph glyph-name="at" unicode="@" horiz-adv-x="1853" 
d="M928 -244q-173 0 -320.5 52.5t-253.5 148t-165.5 234.5t-59.5 305q0 271 116.5 490t328 344.5t479.5 125.5q178 0 324 -54t242.5 -148t149 -220t52.5 -270q0 -127 -40 -239.5t-105 -189t-149 -121t-171 -44.5q-104 0 -153 46.5t-44 115.5q-125 -162 -299 -162
q-138 0 -216.5 92t-78.5 246q0 96 31 189.5t85.5 168.5t137 121.5t176.5 46.5q59 0 107.5 -17t79.5 -45.5t49 -53t29 -50.5l28 140h119l-135 -623q-9 -51 14.5 -80t77.5 -29q62 0 122 39.5t105 105t73 156t28 187.5q0 120 -42.5 224t-121.5 182.5t-202 123.5t-275 45
q-230 0 -411.5 -109.5t-280.5 -299.5t-99 -426q0 -147 52.5 -268t143 -199.5t211.5 -121t259 -42.5q321 0 536 154l49 -109q-228 -162 -583 -162zM881 276q96 0 176 63t122 157.5t42 195.5q0 117 -58 177.5t-157 60.5q-90 0 -163 -64.5t-111 -159t-38 -192.5
q0 -115 49.5 -176.5t137.5 -61.5z" />
    <glyph glyph-name="A" unicode="A" horiz-adv-x="1380" 
d="M1214 0h-153l-62 420h-645l-239 -420h-166l842 1434h198zM692 1012l-262 -461h549l-68 459q-27 197 -43 303q-85 -144 -176 -301z" />
    <glyph glyph-name="B" unicode="B" horiz-adv-x="1435" 
d="M793 0h-674l305 1434h547q173 0 280 -87t107 -233q0 -136 -83.5 -236t-225.5 -137q101 -24 173 -106t72 -205q0 -183 -140.5 -306.5t-360.5 -123.5zM539 1300l-105 -491h424q157 0 253.5 76.5t96.5 204.5q0 101 -69.5 155.5t-194.5 54.5h-405zM408 680l-117 -547h495
q158 0 257.5 86.5t99.5 224.5q0 105 -75 170.5t-208 65.5h-452z" />
    <glyph glyph-name="C" unicode="C" horiz-adv-x="1505" 
d="M762 -27q-189 0 -326.5 80t-206.5 217.5t-69 315.5q0 138 33 267.5t98.5 239.5t155 192t209 128.5t255.5 46.5q108 0 202.5 -28t159.5 -71.5t115.5 -101t78.5 -113t40 -110.5l-149 -43q-12 42 -31.5 83.5t-57 89t-85.5 83t-120.5 59t-158.5 23.5q-138 0 -252 -62.5
t-187.5 -166.5t-114 -237t-40.5 -277q0 -218 123.5 -351t331.5 -133q98 0 181 28.5t145 80.5t107 113t79 137l141 -66q-31 -65 -70 -122.5t-97.5 -114t-127 -97t-162.5 -65.5t-200 -25z" />
    <glyph glyph-name="D" unicode="D" horiz-adv-x="1499" 
d="M608 0h-487l303 1434h356q289 0 468 -167.5t179 -447.5q0 -171 -56.5 -320t-160 -260t-259 -175t-343.5 -64zM539 1300l-248 -1167h299q166 0 298.5 52.5t217 145.5t129.5 216t45 266q0 228 -137 357.5t-389 129.5h-215z" />
    <glyph glyph-name="E" unicode="E" horiz-adv-x="1298" 
d="M1092 0h-973l305 1434h971l-27 -134h-829l-105 -489h623l-29 -131h-622l-115 -547h829z" />
    <glyph glyph-name="F" unicode="F" horiz-adv-x="1292" 
d="M262 0h-143l305 1434h1008l-29 -134h-864l-111 -522h672l-27 -131h-674z" />
    <glyph glyph-name="G" unicode="G" horiz-adv-x="1591" 
d="M743 -27q-261 0 -422 167.5t-161 457.5q0 131 34 257t102 235t160.5 192t217.5 130.5t266 47.5q110 0 205.5 -26.5t161.5 -69.5t117.5 -100t81 -114t44.5 -116l-153 -47q-17 65 -52 122.5t-90.5 108.5t-139 81t-185.5 30q-140 0 -258.5 -61.5t-196 -163.5t-121 -232.5
t-43.5 -271.5q0 -230 126 -363t329 -133q110 0 205.5 38t163.5 102t114.5 143.5t67.5 167.5h-514l26 133h666l-145 -688h-140q19 90 60 274q-180 -301 -527 -301z" />
    <glyph glyph-name="H" unicode="H" horiz-adv-x="1568" 
d="M262 0h-143l305 1434h141l-131 -623h832l133 623h143l-305 -1434h-141l143 678h-833z" />
    <glyph glyph-name="I" unicode="I" horiz-adv-x="593" 
d="M262 0h-143l305 1434h143z" />
    <glyph glyph-name="J" unicode="J" horiz-adv-x="1005" 
d="M350 -27q-122 0 -204.5 54.5t-112 156.5t7.5 246l149 23q-45 -179 -3 -265t159 -86q118 0 187.5 83t105.5 251l211 998h143l-219 -1037q-45 -210 -145.5 -317t-278.5 -107z" />
    <glyph glyph-name="K" unicode="K" horiz-adv-x="1380" 
d="M1268 1434h209l-707 -609l520 -825h-174l-454 729l-300 -258l-100 -471h-143l305 1434h141l-94 -449q-12 -59 -27 -129t-23.5 -110t-14.5 -72z" />
    <glyph glyph-name="L" unicode="L" horiz-adv-x="1169" 
d="M1034 0h-915l305 1434h143l-274 -1299h770z" />
    <glyph glyph-name="M" unicode="M" horiz-adv-x="1886" 
d="M262 0h-143l305 1434h225l187 -957q14 -74 28.5 -145.5t18.5 -93.5q56 89 143 237l594 959h240l-306 -1434h-143l193 905l79 379l-790 -1284h-107l-249 1284q-8 -36 -17.5 -80.5t-27.5 -128.5t-37 -170z" />
    <glyph glyph-name="N" unicode="N" horiz-adv-x="1617" 
d="M262 0h-143l305 1434h186l578 -1219q57 265 69 322l191 897h143l-305 -1434h-149l-605 1270q-3 -14 -75 -352z" />
    <glyph glyph-name="O" unicode="O" horiz-adv-x="1652" 
d="M811 -27q-189 0 -335 76t-230 223t-84 344q0 228 99.5 421t277.5 308t395 115q187 0 333.5 -77.5t230 -225t83.5 -342.5q0 -172 -58.5 -327t-159.5 -268t-245 -180t-307 -67zM809 104q133 0 249.5 58t198 155t128.5 227.5t47 272.5q0 147 -59 262.5t-173 182.5t-266 67
q-178 0 -322 -99t-222.5 -261.5t-78.5 -352.5q0 -226 134.5 -369t363.5 -143z" />
    <glyph glyph-name="P" unicode="P" horiz-adv-x="1314" 
d="M262 0h-143l305 1434h469q110 0 197.5 -30.5t142.5 -84t84 -123.5t29 -152q0 -202 -146.5 -328t-378.5 -126h-434zM539 1300l-125 -583h397q177 0 281 89.5t104 235.5q0 111 -80.5 184.5t-228.5 73.5h-348z" />
    <glyph glyph-name="Q" unicode="Q" horiz-adv-x="1679" 
d="M811 -27q-189 0 -335 76t-230 223t-84 344q0 229 99.5 422t277.5 307.5t395 114.5q187 0 333.5 -77.5t230 -225t83.5 -342.5q0 -187 -68 -351.5t-190 -281.5q38 -45 95.5 -61.5t158.5 -16.5l-29 -131q-121 0 -200 28.5t-131 92.5q-180 -121 -406 -121zM809 104
q176 0 328 107l-80 151q-44 76 -77 114.5t-87 60.5t-133 16l28 137q203 17 308 -160q33 -47 139 -229q94 98 145.5 231t51.5 285q0 147 -59 262.5t-173 182.5t-266 67q-178 0 -322 -99t-222.5 -261.5t-78.5 -352.5q0 -226 134.5 -369t363.5 -143z" />
    <glyph glyph-name="R" unicode="R" horiz-adv-x="1404" 
d="M262 0h-143l305 1434h500q190 0 300.5 -99t110.5 -252q0 -93 -32.5 -169.5t-89 -126.5t-125 -80.5t-146.5 -40.5q112 -23 162 -96t65 -195l48 -375h-154l-37 358q-7 70 -21 114.5t-43 79.5t-79 50.5t-127 15.5h-361zM539 1300l-117 -552h389q171 0 274 83.5t103 233.5
q0 106 -73.5 170.5t-201.5 64.5h-374z" />
    <glyph glyph-name="S" unicode="S" horiz-adv-x="1232" 
d="M580 -27q-212 0 -350.5 104t-161.5 277l143 54q18 -134 117.5 -220t259.5 -86q163 0 262.5 81.5t99.5 207.5q0 99 -62.5 157.5t-185.5 96.5l-172 53q-276 84 -276 336q0 188 135 307t348 119q113 0 202 -32t142.5 -84t84 -107t42.5 -113l-145 -47q-6 31 -18.5 62
t-38.5 66.5t-61.5 62t-91.5 44t-124 17.5q-148 0 -239 -79t-91 -203q0 -83 52.5 -134t171.5 -88l170 -55q64 -20 118 -50.5t99 -74.5t70.5 -105t25.5 -134q0 -190 -142 -311.5t-384 -121.5z" />
    <glyph glyph-name="T" unicode="T" horiz-adv-x="1257" 
d="M584 0h-146l277 1300h-516l28 134h1200l-26 -134h-543z" />
    <glyph glyph-name="U" unicode="U" horiz-adv-x="1431" 
d="M637 -27q-252 0 -367.5 146t-56.5 416l190 899h146l-189 -879q-46 -213 22 -331t255 -118q191 0 300 116t157 341l186 871h145l-192 -902q-60 -280 -203 -419.5t-393 -139.5z" />
    <glyph glyph-name="V" unicode="V" horiz-adv-x="1302" 
d="M651 0h-215l-157 1434h149l104 -990q23 -232 35 -317q89 164 154 291l536 1016h164z" />
    <glyph glyph-name="W" unicode="W" horiz-adv-x="1976" 
d="M528 0h-196l-39 1434h145l19 -918q5 -274 10 -356q37 80 174 354l457 920h172l59 -914q9 -179 23 -360q57 120 161 356l418 918h158l-668 -1434h-190l-64 913l-18 334q-30 -57 -166 -332z" />
    <glyph glyph-name="X" unicode="X" horiz-adv-x="1275" 
d="M117 0h-185l668 741l-336 693h162l178 -377q71 -148 98 -199q65 71 175 195l340 381h184l-625 -689l365 -745h-166l-201 430l-98 201l-178 -199z" />
    <glyph glyph-name="Y" unicode="Y" horiz-adv-x="1312" 
d="M623 0h-144l131 616l-336 818h160l205 -514l63 -160q86 103 134 166l409 508h182l-673 -813z" />
    <glyph glyph-name="Z" unicode="Z" horiz-adv-x="1218" 
d="M1049 0h-1080l33 164l1104 1136h-207h-606l29 134h999l-31 -144l-1122 -1157h221h688z" />
    <glyph glyph-name="bracketleft" unicode="[" horiz-adv-x="669" 
d="M440 -307h-405l395 1853h406l-27 -112h-274l-349 -1629h279z" />
    <glyph glyph-name="backslash" unicode="\" horiz-adv-x="823" 
d="M600 -219h-129l-156 1874h131z" />
    <glyph glyph-name="bracketright" unicode="]" horiz-adv-x="669" 
d="M279 1546h405l-393 -1853h-406l25 112h276l346 1629h-276z" />
    <glyph glyph-name="asciicircum" unicode="^" horiz-adv-x="1024" 
d="M326 686h-150l316 748h174l317 -748h-149l-152 373q-79 191 -104 260q-40 -96 -103 -258z" />
    <glyph glyph-name="underscore" unicode="_" horiz-adv-x="1189" 
d="M934 -266h-989l28 127h988z" />
    <glyph glyph-name="grave" unicode="`" horiz-adv-x="540" 
d="M528 1161h-84l-157 264h172z" />
    <glyph glyph-name="a" unicode="a" horiz-adv-x="1097" 
d="M377 -27q-133 0 -216 68t-83 199q0 108 59 188.5t162.5 127t230.5 69t277 22.5l6 31q20 106 -38.5 174t-199.5 68q-65 0 -120 -18t-91 -48t-59 -60t-37 -63l-125 55q15 40 47.5 80.5t84 81t131.5 65.5t174 25q199 0 299.5 -107t60.5 -296l-90 -426q-11 -47 3.5 -68.5
t59.5 -21.5h95l-25 -119h-102q-93 0 -131.5 49.5t-28.5 120.5q-57 -90 -144.5 -143.5t-199.5 -53.5zM408 88q115 0 217 90.5t135 253.5l24 111q-109 0 -206 -16t-180 -48.5t-132 -91.5t-49 -137q0 -76 52 -119t139 -43z" />
    <glyph glyph-name="b" unicode="b" horiz-adv-x="1177" 
d="M588 -27q-133 0 -217 68t-113 170q-6 -23 -45 -211h-135l305 1434h137l-86 -402l-37 -166q51 74 133 123t187 49q157 0 259.5 -109t102.5 -298q0 -127 -35 -245.5t-97.5 -210t-156 -147t-202.5 -55.5zM567 92q112 0 199 79t130.5 198t43.5 252q0 144 -72.5 221.5
t-189.5 77.5q-111 0 -197.5 -78.5t-130 -197t-43.5 -249.5q0 -146 72.5 -224.5t187.5 -78.5z" />
    <glyph glyph-name="c" unicode="c" horiz-adv-x="1077" 
d="M506 -27q-182 0 -295 112t-113 314q0 118 37 232t103 205t167 146.5t220 55.5q161 0 263 -84.5t130 -214.5l-133 -37q-23 93 -90 155.5t-177 62.5q-91 0 -165.5 -47t-119.5 -122.5t-69 -163t-24 -175.5q0 -160 76.5 -240t195.5 -80t204 74.5t128 177.5l125 -59
q-147 -312 -463 -312z" />
    <glyph glyph-name="d" unicode="d" horiz-adv-x="1177" 
d="M461 -27q-158 0 -260.5 108.5t-102.5 297.5q0 127 35.5 245.5t98 210.5t156 147.5t202.5 55.5q133 0 218 -67.5t114 -169.5q9 52 45 217l88 416h135l-305 -1434h-133l30 145q-52 -74 -133.5 -123t-187.5 -49zM502 92q110 0 196.5 78t130 196.5t43.5 249.5
q0 145 -73 224.5t-189 79.5q-84 0 -155.5 -46t-118 -121.5t-72.5 -170t-26 -193.5q0 -144 73 -220.5t191 -76.5z" />
    <glyph glyph-name="e" unicode="e" horiz-adv-x="1093" 
d="M487 -27q-176 0 -282.5 105.5t-106.5 312.5q0 92 22 184t67 175t106 147.5t145.5 102.5t179.5 38q88 0 160.5 -29t118.5 -80t73.5 -121t26 -152t-25.5 -173h-731q-19 -81 -9 -152.5t40 -125t86.5 -84.5t131.5 -31q66 0 124 21t99.5 56.5t69.5 71t49 74.5l119 -61
q-152 -279 -463 -279zM262 594h592q27 142 -39.5 237t-200.5 95q-124 0 -218.5 -91.5t-133.5 -240.5z" />
    <glyph glyph-name="f" unicode="f" horiz-adv-x="724" 
d="M496 895l-191 -895h-135l192 895h-241l26 115h238l35 155q30 145 97 207t212 62h195l-25 -119h-166q-150 0 -180 -150l-33 -155h279l-23 -115h-280z" />
    <glyph glyph-name="g" unicode="g" horiz-adv-x="1155" 
d="M618 -399h-442q-124 0 -184 57.5t-60 140.5q0 78 53.5 139t133.5 99q-31 21 -51.5 57t-20.5 80q0 79 61.5 142.5t149.5 99.5q-70 82 -70 209q0 172 117 292.5t297 120.5q129 0 217.5 -57.5t124.5 -146.5q17 85 67 130.5t126 45.5h94l-25 -115h-63q-34 0 -56 -4.5
t-44 -19.5t-36 -47t-22 -83l-16 -88q-31 -171 -138.5 -264.5t-269.5 -93.5q-140 0 -231 61q-67 -22 -111.5 -64.5t-44.5 -88.5q0 -37 28 -59.5t85 -22.5h403q137 0 211 -67.5t74 -166.5q0 -134 -92.5 -210t-264.5 -76zM559 408q129 0 207 82t78 208q0 98 -65 163t-175 65
q-124 0 -202 -87t-78 -214q0 -99 61 -158t174 -59zM225 -283h396q107 0 162 42t55 120q0 61 -46.5 91t-129.5 30h-449q-62 -22 -110 -66t-48 -100q0 -117 170 -117z" />
    <glyph glyph-name="h" unicode="h" horiz-adv-x="1185" 
d="M215 0h-137l305 1434h135l-92 -433l-41 -180q18 30 44 61.5t69.5 69.5t106 62t132.5 24q174 0 258.5 -121t42.5 -323l-129 -594h-137l127 592q33 155 -22 240.5t-179 85.5q-67 0 -125 -27.5t-98 -70t-72.5 -100t-51 -111t-29.5 -109.5z" />
    <glyph glyph-name="i" unicode="i" horiz-adv-x="505" 
d="M479 1225h-143l45 209h143zM215 0h-137l215 1010h135z" />
    <glyph glyph-name="j" unicode="j" horiz-adv-x="522" 
d="M496 1225h-146l45 209h146zM-96 -399h-166l24 123h134q143 0 172 149l241 1137h135l-243 -1153q-29 -132 -95.5 -194t-201.5 -62z" />
    <glyph glyph-name="k" unicode="k" horiz-adv-x="1138" 
d="M1004 1010h196l-553 -424l371 -586h-160l-315 506l-264 -203l-64 -303h-137l305 1434h135l-133 -637l-68 -320z" />
    <glyph glyph-name="l" unicode="l" horiz-adv-x="503" 
d="M213 0h-135l305 1434h135z" />
    <glyph glyph-name="m" unicode="m" horiz-adv-x="1822" 
d="M213 0h-135l215 1010h131q-4 -18 -35 -168q10 19 25.5 39.5t45 50t64 52t85.5 38.5t106 16q127 0 206 -68t91 -177q23 46 53 85.5t74 77.5t105 60t132 22q177 0 261 -114t42 -312l-131 -612h-135l129 606q33 151 -19.5 230t-172.5 79q-276 0 -365 -421l-104 -494h-138
l129 606q33 152 -17.5 230.5t-170.5 78.5q-277 0 -365 -423z" />
    <glyph glyph-name="n" unicode="n" horiz-adv-x="1185" 
d="M215 0h-137l215 1010h133q-6 -33 -21 -97.5t-20 -91.5q18 31 44 62t69 69t106 62t133 24q175 0 258 -122.5t41 -323.5l-127 -592h-137l127 592q33 156 -22.5 241t-180.5 85q-66 0 -124 -28.5t-98.5 -72t-73 -102.5t-51.5 -113.5t-30 -109.5z" />
    <glyph glyph-name="o" unicode="o" horiz-adv-x="1148" 
d="M514 -27q-186 0 -301 118t-115 319q0 116 39 228.5t107 201.5t171 143.5t222 54.5q183 0 299.5 -118.5t116.5 -319.5q0 -118 -38 -230t-105.5 -200.5t-171 -142.5t-224.5 -54zM518 92q90 0 166 45t124.5 118t75.5 161.5t27 179.5q0 156 -77.5 239t-202.5 83
q-89 0 -165 -45t-124 -118t-75 -161.5t-27 -179.5q0 -156 77 -239t201 -83z" />
    <glyph glyph-name="p" unicode="p" horiz-adv-x="1177" 
d="M129 -399h-135l299 1409h135q-4 -18 -31 -144q51 74 133 123t187 49q157 0 259.5 -109t102.5 -298q0 -101 -22 -198t-64.5 -180t-101 -145.5t-137 -98.5t-166.5 -36q-132 0 -216 67.5t-114 170.5q-27 -135 -43 -209zM569 92q84 0 155.5 46t118 121t73 169.5t26.5 192.5
q0 144 -73.5 221.5t-190.5 77.5q-111 0 -197.5 -78.5t-130 -197t-43.5 -249.5q0 -146 72.5 -224.5t189.5 -78.5z" />
    <glyph glyph-name="q" unicode="q" horiz-adv-x="1177" 
d="M801 -399h-137l84 389l32 155q-52 -75 -132.5 -123.5t-186.5 -48.5q-158 0 -260.5 108.5t-102.5 297.5q0 127 35.5 245.5t98 210.5t156 147.5t202.5 55.5q132 0 216.5 -67.5t115.5 -169.5l43 209h137zM502 92q110 0 196.5 78t130 196.5t43.5 249.5q0 145 -73 224.5
t-189 79.5q-84 0 -155.5 -46t-118 -121.5t-72.5 -170t-26 -193.5q0 -144 73 -220.5t191 -76.5z" />
    <glyph glyph-name="r" unicode="r" horiz-adv-x="808" 
d="M215 0h-137l217 1010h131q-7 -36 -49 -232q22 42 53.5 81.5t77 79t107 63.5t128.5 24q78 0 134 -18l-29 -142q-88 17 -135 17q-155 0 -259.5 -124t-146.5 -325z" />
    <glyph glyph-name="s" unicode="s" horiz-adv-x="989" 
d="M449 -27q-179 0 -291 81.5t-117 211.5l129 33q6 -92 77.5 -151.5t198.5 -59.5q124 0 193.5 52t69.5 134q0 65 -42 105t-132 65l-119 35q-121 34 -184.5 92t-63.5 164q0 132 105.5 217.5t267.5 85.5q165 0 262 -77.5t110 -190.5l-127 -35q-10 78 -70.5 134.5t-174.5 56.5
t-176 -51.5t-62 -122.5q0 -56 36 -90.5t120 -59.5l119 -35q272 -78 272 -276q0 -143 -108.5 -230.5t-292.5 -87.5z" />
    <glyph glyph-name="t" unicode="t" horiz-adv-x="790" 
d="M662 0h-189q-152 0 -213.5 79t-30.5 220l127 596h-247l26 115h244l65 305h138l-66 -305h287l-27 -115h-284l-132 -614q-17 -84 14.5 -123t112.5 -39h201z" />
    <glyph glyph-name="u" unicode="u" horiz-adv-x="1169" 
d="M434 -27q-171 0 -249 122t-33 333l124 582h138l-125 -594q-32 -152 16 -237t170 -85q75 0 139 35t110 96.5t78 136t50 160.5l104 488h138l-215 -1010h-134q8 39 22.5 104t20.5 91q-136 -222 -354 -222z" />
    <glyph glyph-name="v" unicode="v" horiz-adv-x="1032" 
d="M500 0h-172l-160 1010h137l80 -586l49 -301q86 154 168 295l324 592h145z" />
    <glyph glyph-name="w" unicode="w" horiz-adv-x="1656" 
d="M453 0h-160l-123 1010h135l53 -514q16 -162 37 -357q91 170 183 348l272 523h158l49 -518q21 -225 35 -351q33 60 186 351l278 518h148l-555 -1010h-164l-55 571q-6 67 -15.5 164.5t-11.5 124.5q-41 -74 -153 -293z" />
    <glyph glyph-name="x" unicode="x" horiz-adv-x="968" 
d="M109 0h-168l469 522l-228 488h144l98 -215q57 -124 80 -170q12 13 147 170l189 215h168l-441 -490l250 -520h-151l-113 242q-42 95 -82 176l-154 -178z" />
    <glyph glyph-name="y" unicode="y" horiz-adv-x="1028" 
d="M600 436l320 574h151l-657 -1170q-52 -94 -96.5 -143t-103.5 -72.5t-148 -23.5h-177l27 123h154q70 0 117 28t94 109l98 174l-227 975h145l123 -572q48 -223 51 -235q58 100 129 233z" />
    <glyph glyph-name="z" unicode="z" horiz-adv-x="972" 
d="M793 0h-811l26 121l758 770h-203h-379l27 119h770l-23 -103l-774 -788h219h414z" />
    <glyph glyph-name="braceleft" unicode="{" horiz-adv-x="661" 
d="M424 -307h-82q-122 0 -172.5 77.5t-22.5 209.5l60 272q15 70 20.5 106t4.5 81t-19 65.5t-56.5 35.5t-101.5 15l27 125q39 0 70.5 4.5t56.5 17t43.5 24.5t33.5 36t25 42t20 53t15.5 58.5t15.5 67.5l64 303q28 133 92.5 196.5t204.5 63.5h94l-22 -112h-82q-66 0 -104.5 -37
t-55.5 -119l-66 -307q-34 -162 -91.5 -248.5t-176.5 -112.5q67 -22 100.5 -72.5t33.5 -119.5t-17 -156l-64 -301q-19 -81 4.5 -118.5t88.5 -37.5h84z" />
    <glyph glyph-name="bar" unicode="|" horiz-adv-x="540" 
d="M180 -219h-127l400 1874h127z" />
    <glyph glyph-name="braceright" unicode="}" horiz-adv-x="661" 
d="M287 1546h82q122 0 172 -77t22 -209l-59 -273q-8 -39 -12.5 -61t-9.5 -53.5t-4.5 -49t2.5 -40.5t10.5 -35.5t21.5 -26.5t33 -21t47.5 -11.5t62.5 -4.5l-26 -125q-39 0 -71 -4.5t-56.5 -17t-43 -24.5t-34 -35.5t-25 -42.5t-20 -53t-16.5 -58.5t-15 -67.5l-63 -303
q-28 -133 -92.5 -196.5t-204.5 -63.5h-94l22 112h82q66 0 104.5 37t55.5 119l65 307q34 162 92 248.5t177 112.5q-67 22 -100.5 72.5t-33.5 119.5t17 156l63 301q19 81 -4 118.5t-88 37.5h-84z" />
    <glyph glyph-name="asciitilde" unicode="~" horiz-adv-x="1312" 
d="M924 618q-76 0 -207 58l-64 29q-113 49 -174 49q-102 0 -203 -109l-81 100q64 74 141.5 111t150.5 37q85 0 205 -55l64 -29q109 -49 178 -49q104 0 201 108l82 -100q-63 -74 -141.5 -112t-151.5 -38z" />
    <glyph glyph-name="uni00A0" unicode="&#xa0;" horiz-adv-x="561" 
 />
    <glyph glyph-name="exclamdown" unicode="&#xa1;" horiz-adv-x="528" 
d="M301 1122h193l-50 -225h-190zM276 702h64l-96 -630l-80 -383h-144l82 387z" />
    <glyph glyph-name="cent" unicode="&#xa2;" horiz-adv-x="1105" 
d="M463 -244h-111l49 232q-135 32 -213.5 138t-78.5 273q0 117 37 230.5t102 203.5t164 147t213 60l45 211h110l-47 -221q121 -25 198 -104t97 -181l-133 -40q-16 76 -63 131t-125 73l-111 -522q-37 -172 -61 -293q112 4 197 71t132 173l117 -59q-151 -306 -473 -306z
M426 109l111 512q10 55 61 297q-109 -12 -191 -94.5t-120.5 -193t-38.5 -227.5q0 -119 48.5 -193.5t129.5 -100.5z" />
    <glyph glyph-name="sterling" unicode="&#xa3;" horiz-adv-x="1191" 
d="M756 1331q-148 0 -235 -92t-87 -227q0 -48 8.5 -95.5t17.5 -75.5t27 -77h385l-22 -115h-326q17 -70 17 -133q1 -125 -65.5 -222.5t-190.5 -160.5h266h479l-29 -133h-968l28 131q147 36 244.5 131.5t97.5 235.5q0 74 -24 151h-203l23 115h135q-51 128 -51 246
q0 194 134.5 321t346.5 127q120 0 215.5 -44t153.5 -133.5t59 -211.5l-143 -39q-4 145 -82.5 223t-210.5 78z" />
    <glyph glyph-name="currency" unicode="&#xa4;" horiz-adv-x="1316" 
d="M395 365l-194 -172l-80 94l194 168q-51 90 -51 200q0 199 129 351l-139 165l90 80l143 -164q125 82 269 82q150 0 254 -90l196 170l80 -92l-196 -172q53 -92 53 -205q0 -193 -125 -338l137 -161l-92 -84l-141 163q-122 -88 -267 -88q-153 0 -260 93zM659 397
q99 0 180.5 54t127 142.5t45.5 190.5q0 119 -71.5 189.5t-190.5 70.5q-100 0 -181.5 -54t-126.5 -142t-45 -189q0 -120 72 -191t190 -71z" />
    <glyph glyph-name="yen" unicode="&#xa5;" horiz-adv-x="1302" 
d="M1239 1434h184l-575 -676h280l-24 -115h-346l-41 -199h346l-27 -114h-344l-69 -330h-146l72 330h-367l25 114h366l41 199h-364l24 115h293l-303 676h156l209 -482q25 -62 73 -168q25 29 75.5 90t66.5 80z" />
    <glyph glyph-name="brokenbar" unicode="&#xa6;" horiz-adv-x="540" 
d="M403 821h-129l179 834h127zM180 -219h-127l178 835h127z" />
    <glyph glyph-name="section" unicode="&#xa7;" horiz-adv-x="1206" 
d="M473 -424q-97 0 -175 26t-126.5 69.5t-75.5 98t-30 115.5l141 39q3 -88 69.5 -153.5t194.5 -65.5q123 0 200 68.5t77 171.5q0 70 -44.5 115t-136.5 77l-205 72q-270 97 -270 303q0 127 83.5 223t217.5 146q-76 79 -76 204q0 159 120 267t304 108q186 0 292.5 -91.5
t113.5 -217.5l-139 -39q-3 86 -72.5 152.5t-196.5 66.5q-121 0 -196.5 -69t-75.5 -172q0 -76 43.5 -115.5t151.5 -75.5l180 -63q145 -51 212.5 -123t67.5 -176q0 -128 -87 -231t-216 -150q80 -89 80 -213q0 -155 -121 -261t-305 -106zM727 227q108 36 176 110t68 163
q0 136 -183 200l-184 64q-76 24 -115 45q-111 -36 -179 -108.5t-68 -161.5q0 -69 45.5 -116.5t138.5 -80.5l176 -61q57 -17 125 -54z" />
    <glyph glyph-name="dieresis" unicode="&#xa8;" horiz-adv-x="788" 
d="M436 1219h-153l39 182h151zM807 1219h-152l39 182h152z" />
    <glyph glyph-name="copyright" unicode="&#xa9;" horiz-adv-x="1835" 
d="M969 -61q-221 0 -404 105t-287 285.5t-104 395.5q0 161 61.5 307.5t166.5 253t253 169.5t314 63q164 0 310.5 -63t250.5 -169.5t164.5 -253t60.5 -307.5t-60.5 -306.5t-164.5 -250.5t-250.5 -167t-310.5 -62zM967 45q143 0 269 53.5t214 145t139 216.5t51 265t-51 266.5
t-139 219t-214 146.5t-269 54q-144 0 -270 -54t-215 -146.5t-140 -219t-51 -266.5t51 -265t140 -216.5t215 -145t270 -53.5zM973 299q-180 0 -283.5 117.5t-103.5 322.5q0 185 108 303.5t281 118.5q130 0 221 -68.5t121 -179.5l-100 -30q-30 88 -92.5 137t-153.5 49
q-120 0 -195.5 -90t-75.5 -248q0 -157 74 -245.5t197 -88.5q98 0 164 62t90 149l106 -30q-35 -125 -129 -202t-229 -77z" />
    <glyph glyph-name="ordfeminine" unicode="&#xaa;" horiz-adv-x="1034" 
d="M522 592q-133 0 -221 89.5t-88 260.5q0 132 50 248.5t145 190t215 73.5q110 0 184.5 -52.5t101.5 -129.5q22 95 35 162h121l-176 -822h-119l25 117q-41 -58 -112.5 -97.5t-160.5 -39.5zM561 698q89 0 160.5 60.5t108 154t36.5 197.5q0 113 -61.5 175.5t-157.5 62.5
q-91 0 -162 -60.5t-106 -151t-35 -190.5q0 -119 60.5 -183.5t156.5 -64.5z" />
    <glyph glyph-name="guillemotleft" unicode="&#xab;" horiz-adv-x="1032" 
d="M459 938h157l-364 -436l168 -406h-139l-175 420zM877 938h157l-403 -479l151 -363h-137l-158 377z" />
    <glyph glyph-name="logicalnot" unicode="&#xac;" horiz-adv-x="1462" 
d="M1280 350h-133v318h-954v131h1087v-449z" />
    <glyph glyph-name="uni00AD" unicode="&#xad;" horiz-adv-x="817" 
d="M674 561h-510l31 144h507z" />
    <glyph glyph-name="registered" unicode="&#xae;" horiz-adv-x="1208" 
d="M711 547q-206 0 -347 141t-141 346t140.5 344.5t347.5 139.5t348 -139.5t141 -344.5t-141.5 -346t-347.5 -141zM711 635q171 0 283 112.5t112 286.5q0 173 -112 284.5t-283 111.5q-169 0 -280.5 -111.5t-111.5 -284.5q0 -174 111.5 -286.5t280.5 -112.5zM629 803h-88v469
h219q64 0 107.5 -34t43.5 -87q0 -51 -33 -82.5t-90 -40.5q44 -8 68 -30t31 -70l24 -125h-96l-20 117q-8 46 -26 63.5t-62 17.5h-78v-198zM629 1200v-129h106q38 0 61 17.5t23 48.5q0 30 -24 46.5t-62 16.5h-104z" />
    <glyph glyph-name="macron" unicode="&#xaf;" horiz-adv-x="745" 
d="M829 1217h-612l25 108h612z" />
    <glyph glyph-name="degree" unicode="&#xb0;" horiz-adv-x="868" 
d="M582 922q-143 0 -234.5 92.5t-91.5 228.5t93.5 230t234.5 94t234 -94t93 -230q0 -139 -92.5 -230t-236.5 -91zM584 1032q90 0 145 58.5t55 154.5q0 94 -54.5 151.5t-145.5 57.5q-88 0 -144.5 -58t-56.5 -151q0 -96 56 -154.5t145 -58.5z" />
    <glyph glyph-name="plusminus" unicode="&#xb1;" horiz-adv-x="1472" 
d="M823 479h-133v328h-485v129h485v340l133 -2v-338h486v-129h-486v-328zM1307 172h-1102v133h1102v-133z" />
    <glyph glyph-name="uni00B2" unicode="&#xb2;" horiz-adv-x="747" 
d="M725 811h-543l25 113q136 77 220 131.5t150 111t94.5 109t28.5 110.5q0 65 -38 104.5t-99 39.5q-72 0 -114.5 -53t-42.5 -144l-125 27q9 126 86 200t200 74q113 0 185.5 -67.5t72.5 -171.5q0 -135 -131 -260q-97 -97 -317 -217h280h91z" />
    <glyph glyph-name="uni00B3" unicode="&#xb3;" horiz-adv-x="751" 
d="M477 797q-130 0 -203 71t-65 191l127 22q-10 -83 28 -131.5t115 -48.5q70 0 115 42t45 108q0 58 -37.5 91.5t-99.5 33.5h-72l25 102h69q77 0 122.5 37.5t45.5 103.5q0 50 -35 81.5t-90 31.5q-68 0 -109 -43t-46 -115l-121 29q14 106 89.5 168.5t190.5 62.5q106 0 175 -57
t69 -147q0 -75 -42.5 -130t-125.5 -81q58 -25 87.5 -70.5t29.5 -101.5q0 -109 -80.5 -179.5t-206.5 -70.5z" />
    <glyph glyph-name="acute" unicode="&#xb4;" horiz-adv-x="559" 
d="M395 1161h-104l184 264h189z" />
    <glyph glyph-name="uni00B5" unicode="&#xb5;" horiz-adv-x="1234" 
d="M332 -399h-135v1409h135v-623q0 -150 67 -222.5t185 -72.5q64 0 114.5 21.5t81.5 60t52 82t30.5 98t13 96.5t3.5 89v471h135v-1010h-133v195q-9 -27 -29.5 -60t-58 -72.5t-100.5 -65.5t-140 -26q-139 0 -221 82v-452z" />
    <glyph glyph-name="paragraph" unicode="&#xb6;" horiz-adv-x="1249" 
d="M711 1434h618l-22 -113h-150l-364 -1720h-125l364 1720h-221l-365 -1720h-129l218 1020q-157 2 -257 99.5t-100 256.5q0 197 145.5 327t387.5 130z" />
    <glyph glyph-name="periodcentered" unicode="&#xb7;" horiz-adv-x="503" 
d="M358 575h-190l49 226h191z" />
    <glyph glyph-name="cedilla" unicode="&#xb8;" horiz-adv-x="626" 
d="M133 -422q-69 0 -123 26t-84 66l68 74q52 -70 139 -70q58 0 89.5 21.5t31.5 60.5q0 31 -25 50.5t-67 19.5q-43 0 -78 -12l-39 67l180 154l70 -35l-59 -47q-11 -10 -35.5 -30t-34.5 -29q14 4 33 4q69 0 116 -40.5t47 -101.5q0 -78 -60 -128t-169 -50z" />
    <glyph glyph-name="uni00B9" unicode="&#xb9;" horiz-adv-x="555" 
d="M465 811h-123l82 383q7 33 25 115t28 125q-105 -111 -237 -117l24 113q158 20 273 190h98z" />
    <glyph glyph-name="ordmasculine" unicode="&#xba;" horiz-adv-x="985" 
d="M555 592q-159 0 -250.5 93t-91.5 263q0 92 28.5 181.5t81 162t135.5 117.5t183 45q155 0 249.5 -98.5t94.5 -265.5q0 -75 -17.5 -147t-53.5 -135.5t-86.5 -111.5t-121 -76t-151.5 -28zM557 698q90 0 159.5 57.5t103.5 146.5t34 192q0 121 -58.5 187.5t-158.5 66.5
q-68 0 -125 -36.5t-92.5 -95.5t-55.5 -130t-20 -144q0 -119 56.5 -181.5t156.5 -62.5z" />
    <glyph glyph-name="guillemotright" unicode="&#xbb;" horiz-adv-x="1032" 
d="M258 938h137l156 -377l-387 -465h-158l402 477zM621 938h137l176 -420l-352 -422h-158l364 434z" />
    <glyph glyph-name="onequarter" unicode="&#xbc;" horiz-adv-x="1617" 
d="M231 0h-159l1302 1434h158zM434 625h-121l82 383q9 43 26.5 123.5t24.5 115.5q-102 -111 -235 -117l25 113q152 20 272 191h98zM1354 0h-115l45 219h-371l21 105l432 485h160l-103 -490h119l-20 -100h-123zM1233 319h74l26 132q9 38 25.5 117t23.5 110l-317 -359h168z
" />
    <glyph glyph-name="onehalf" unicode="&#xbd;" horiz-adv-x="1628" 
d="M229 0h-159l1302 1434h158zM432 625h-121l82 383q9 43 26.5 123.5t24.5 115.5q-102 -111 -235 -117l24 113q153 20 273 191h98zM1440 0h-543l23 113q271 153 383 252t112 210q0 64 -38.5 104t-100.5 40q-71 0 -114 -53t-44 -144l-123 27q9 127 86.5 200.5t200.5 73.5
q113 0 185.5 -67.5t72.5 -171.5q0 -136 -133 -260q-96 -99 -315 -218h280h90z" />
    <glyph glyph-name="threequarters" unicode="&#xbe;" horiz-adv-x="1824" 
d="M438 610q-130 0 -202 71t-66 191l127 23q-10 -83 29 -131.5t114 -48.5q72 0 117 41.5t45 107.5q0 58 -37.5 91.5t-99.5 33.5h-72l23 103h71q77 0 121.5 37.5t44.5 103.5q0 50 -35 81.5t-90 31.5q-67 0 -108.5 -43.5t-44.5 -114.5l-123 29q14 106 89.5 168.5t190.5 62.5
q107 0 175.5 -57t68.5 -148q0 -75 -42.5 -130t-125.5 -81q117 -50 117 -172q0 -109 -80.5 -179.5t-206.5 -70.5zM401 0h-159l1302 1434h158zM1524 0h-115l45 219h-371l21 105l432 485h160l-103 -490h119l-20 -100h-123zM1403 319h74l26 132q9 38 25.5 117t23.5 110
l-317 -359h168z" />
    <glyph glyph-name="questiondown" unicode="&#xbf;" horiz-adv-x="972" 
d="M559 1122h191l-50 -227h-190zM506 700h141q-32 -148 -76.5 -217t-169.5 -153q-59 -40 -89.5 -62t-71.5 -57.5t-60.5 -63.5t-34 -67t-14.5 -82q0 -94 62 -151.5t169 -57.5q134 0 212.5 86.5t87.5 247.5l137 -29q-7 -196 -128 -314t-315 -118q-165 0 -267.5 94t-102.5 230
q0 44 10 84t23.5 71.5t41.5 66.5t50 57.5t65.5 56t70 52.5t79.5 56q67 45 100 81.5t48 74t32 114.5z" />
    <glyph glyph-name="Agrave" unicode="&#xc0;" horiz-adv-x="1380" 
d="M889 1855l76 -266h-93l-174 266h191zM1214 0h-153l-62 420h-645l-239 -420h-166l842 1434h198zM692 1012l-262 -461h549l-68 459q-27 197 -43 303q-85 -144 -176 -301z" />
    <glyph glyph-name="Aacute" unicode="&#xc1;" horiz-adv-x="1380" 
d="M1063 1855h207l-297 -266h-113zM-51 0l842 1434h198l225 -1434h-153l-62 420h-645l-239 -420h-166zM692 1012l-262 -461h549l-68 459q-27 197 -43 303q-85 -144 -176 -301z" />
    <glyph glyph-name="Acircumflex" unicode="&#xc2;" horiz-adv-x="1380" 
d="M1114 1589l-156 168l-235 -168h-154l291 246h219l176 -246h-141zM-51 0l842 1434h198l225 -1434h-153l-62 420h-645l-239 -420h-166zM692 1012l-262 -461h549l-68 459q-27 197 -43 303q-85 -144 -176 -301z" />
    <glyph glyph-name="Atilde" unicode="&#xc3;" horiz-adv-x="1380" 
d="M1217 1798h131q-51 -219 -246 -219q-83 0 -158 55l-57 39q-49 41 -99 41q-94 0 -118 -115h-129q23 110 87 167t158 57q87 0 156 -51l55 -39q62 -43 99 -43q89 0 121 108zM-51 0l842 1434h198l225 -1434h-153l-62 420h-645l-239 -420h-166zM692 1012l-262 -461h549
l-68 459q-27 197 -43 303q-85 -144 -176 -301z" />
    <glyph glyph-name="Adieresis" unicode="&#xc4;" horiz-adv-x="1380" 
d="M674 1774h168l-43 -183h-166zM1083 1774h168l-43 -183h-166zM-51 0l842 1434h198l225 -1434h-153l-62 420h-645l-239 -420h-166zM692 1012l-262 -461h549l-68 459q-27 197 -43 303q-85 -144 -176 -301z" />
    <glyph glyph-name="Aring" unicode="&#xc5;" horiz-adv-x="1380" 
d="M932 1563q-92 0 -151.5 57.5t-59.5 140.5q0 106 72 179t180 73q90 0 148.5 -58.5t58.5 -142.5q0 -107 -71.5 -178t-176.5 -71zM965 1919q-61 0 -101.5 -44t-40.5 -103q0 -53 31 -85t84 -32q58 0 97.5 45.5t39.5 105.5q0 48 -30 80.5t-80 32.5zM1214 0h-153l-62 420h-645
l-239 -420h-166l842 1434h198zM692 1012l-262 -461h549l-68 459q-27 197 -43 303q-85 -144 -176 -301z" />
    <glyph glyph-name="AE" unicode="&#xc6;" horiz-adv-x="1888" 
d="M1985 1434l-29 -134h-707l-102 -483h520l-27 -129h-522l-117 -555h707l-29 -133h-848l91 422h-521l-335 -422h-185l1159 1434h945zM948 553l96 455q30 145 66 309q-205 -255 -279 -352l-327 -412h444z" />
    <glyph glyph-name="Ccedilla" unicode="&#xc7;" horiz-adv-x="1505" 
d="M766 104q98 0 181 28.5t145 80.5t107 113t79 137l141 -66q-37 -77 -86.5 -143.5t-121 -128.5t-171 -101.5t-217.5 -48.5l-28 -22q-30 -27 -70 -59q16 4 35 4q68 0 115 -40.5t47 -101.5q0 -78 -59.5 -128t-168.5 -50q-69 0 -123 26t-86 66l68 74q52 -70 139 -70
q58 0 89.5 21.5t31.5 60.5q0 31 -24.5 50.5t-67.5 19.5t-78 -12l-39 67l111 94q-261 13 -408 181.5t-147 429.5q0 138 33 267.5t98.5 239.5t155 192t209 128.5t255.5 46.5q108 0 202.5 -28t159.5 -71.5t115.5 -101t78.5 -113t40 -110.5l-149 -43q-12 42 -31.5 83.5t-57 89
t-85.5 83t-120.5 59t-158.5 23.5q-138 0 -252 -62.5t-187.5 -166.5t-114 -237t-40.5 -277q0 -218 123.5 -351t331.5 -133z" />
    <glyph glyph-name="Egrave" unicode="&#xc8;" horiz-adv-x="1298" 
d="M989 1589h-92l-174 266h190zM1092 0h-973l305 1434h971l-27 -134h-829l-105 -489h623l-29 -131h-622l-115 -547h829z" />
    <glyph glyph-name="Eacute" unicode="&#xc9;" horiz-adv-x="1298" 
d="M991 1589h-112l202 266h207zM1092 0h-973l305 1434h971l-27 -134h-829l-105 -489h623l-29 -131h-622l-115 -547h829z" />
    <glyph glyph-name="Ecircumflex" unicode="&#xca;" horiz-adv-x="1302" 
d="M745 1589h-153l291 246h219l176 -246h-141l-156 168zM1092 0h-973l305 1434h971l-27 -134h-829l-105 -489h623l-29 -131h-622l-115 -547h829z" />
    <glyph glyph-name="Edieresis" unicode="&#xcb;" horiz-adv-x="1302" 
d="M817 1591h-168l41 183h168zM1227 1591h-168l41 183h168zM1092 0h-973l305 1434h971l-27 -134h-829l-105 -489h623l-29 -131h-622l-115 -547h829z" />
    <glyph glyph-name="Igrave" unicode="&#xcc;" horiz-adv-x="604" 
d="M575 1589h-92l-174 266h189zM262 0h-143l305 1434h143z" />
    <glyph glyph-name="Iacute" unicode="&#xcd;" horiz-adv-x="593" 
d="M578 1589h-113l201 266h208zM262 0h-143l305 1434h143z" />
    <glyph glyph-name="Icircumflex" unicode="&#xce;" horiz-adv-x="604" 
d="M330 1589h-154l291 246h217l178 -246h-141l-156 168zM262 0h-143l305 1434h143z" />
    <glyph glyph-name="Idieresis" unicode="&#xcf;" horiz-adv-x="610" 
d="M401 1591h-165l40 183h168zM811 1591h-168l43 183h168zM262 0h-143l305 1434h143z" />
    <glyph glyph-name="Eth" unicode="&#xd0;" horiz-adv-x="1509" 
d="M432 1434h356q290 0 470 -167.5t180 -447.5q0 -171 -57 -320t-161 -260t-260 -175t-344 -64h-487l143 678h-159l24 119h160zM301 133h299q165 0 297.5 53t217.5 145.5t130 215.5t45 266q0 228 -137 357.5t-389 129.5h-217l-107 -503h340l-26 -119h-338z" />
    <glyph glyph-name="Ntilde" unicode="&#xd1;" horiz-adv-x="1617" 
d="M1212 1579q-80 0 -155 55l-58 39q-52 41 -98 41q-94 0 -121 -115h-127q23 111 87 167.5t159 56.5q87 0 156 -51l55 -39q62 -43 98 -43q90 0 119 108h131q-48 -219 -246 -219zM262 0h-143l305 1434h186l578 -1219q57 265 69 322l191 897h143l-305 -1434h-149l-605 1270
q-3 -14 -75 -352z" />
    <glyph glyph-name="Ograve" unicode="&#xd2;" horiz-adv-x="1652" 
d="M1083 1589h-92l-174 266h191zM811 -27q-189 0 -335 76t-230 223t-84 344q0 228 99.5 421t277.5 308t395 115q187 0 333.5 -77.5t230 -225t83.5 -342.5q0 -172 -58.5 -327t-159.5 -268t-245 -180t-307 -67zM809 104q133 0 249.5 58t198 155t128.5 227.5t47 272.5
q0 147 -59 262.5t-173 182.5t-266 67q-178 0 -322 -99t-222.5 -261.5t-78.5 -352.5q0 -226 134.5 -369t363.5 -143z" />
    <glyph glyph-name="Oacute" unicode="&#xd3;" horiz-adv-x="1652" 
d="M1087 1589h-114l203 266h208zM811 -27q-189 0 -335 76t-230 223t-84 344q0 228 99.5 421t277.5 308t395 115q187 0 333.5 -77.5t230 -225t83.5 -342.5q0 -172 -58.5 -327t-159.5 -268t-245 -180t-307 -67zM809 104q133 0 249.5 58t198 155t128.5 227.5t47 272.5
q0 147 -59 262.5t-173 182.5t-266 67q-178 0 -322 -99t-222.5 -261.5t-78.5 -352.5q0 -226 134.5 -369t363.5 -143z" />
    <glyph glyph-name="Ocircumflex" unicode="&#xd4;" horiz-adv-x="1652" 
d="M838 1589h-152l289 246h219l176 -246h-141l-154 168zM811 -27q-189 0 -335 76t-230 223t-84 344q0 228 99.5 421t277.5 308t395 115q187 0 333.5 -77.5t230 -225t83.5 -342.5q0 -172 -58.5 -327t-159.5 -268t-245 -180t-307 -67zM809 104q133 0 249.5 58t198 155
t128.5 227.5t47 272.5q0 147 -59 262.5t-173 182.5t-266 67q-178 0 -322 -99t-222.5 -261.5t-78.5 -352.5q0 -226 134.5 -369t363.5 -143z" />
    <glyph glyph-name="Otilde" unicode="&#xd5;" horiz-adv-x="1652" 
d="M1214 1579q-79 0 -157 55l-56 39q-52 41 -100 41q-46 0 -76.5 -31t-42.5 -84h-129q24 111 88 167.5t158 56.5q86 0 158 -51l55 -39q34 -24 53.5 -33.5t42.5 -9.5q89 0 121 108h131q-48 -219 -246 -219zM811 -27q-189 0 -335 76t-230 223t-84 344q0 228 99.5 421
t277.5 308t395 115q187 0 333.5 -77.5t230 -225t83.5 -342.5q0 -172 -58.5 -327t-159.5 -268t-245 -180t-307 -67zM809 104q133 0 249.5 58t198 155t128.5 227.5t47 272.5q0 147 -59 262.5t-173 182.5t-266 67q-178 0 -322 -99t-222.5 -261.5t-78.5 -352.5
q0 -226 134.5 -369t363.5 -143z" />
    <glyph glyph-name="Odieresis" unicode="&#xd6;" horiz-adv-x="1652" 
d="M911 1591h-168l43 183h166zM1321 1591h-168l41 183h168zM811 -27q-189 0 -335 76t-230 223t-84 344q0 228 99.5 421t277.5 308t395 115q187 0 333.5 -77.5t230 -225t83.5 -342.5q0 -172 -58.5 -327t-159.5 -268t-245 -180t-307 -67zM809 104q133 0 249.5 58t198 155
t128.5 227.5t47 272.5q0 147 -59 262.5t-173 182.5t-266 67q-178 0 -322 -99t-222.5 -261.5t-78.5 -352.5q0 -226 134.5 -369t363.5 -143z" />
    <glyph glyph-name="multiply" unicode="&#xd7;" horiz-adv-x="1288" 
d="M690 639l-387 -387l-88 90l385 387l-387 385l92 92l387 -385l389 385l88 -90l-385 -385l387 -389l-92 -92z" />
    <glyph glyph-name="Oslash" unicode="&#xd8;" horiz-adv-x="1652" 
d="M367 129l-172 -174l-95 92l179 178q-117 161 -117 391q0 170 59 325t160.5 269.5t246 182t306.5 67.5q257 0 434 -147l174 174l92 -92l-176 -176q125 -170 125 -404q0 -172 -58.5 -326.5t-159.5 -268t-245.5 -180.5t-308.5 -67q-271 0 -444 156zM389 332l633 637
q39 38 121 119.5t125 123.5q-133 117 -334 117q-178 0 -322 -99t-222.5 -261.5t-78.5 -352.5q0 -157 78 -284zM811 104q132 0 249 58t198.5 155t128.5 227.5t47 272.5q0 163 -82 295l-676 -678q-36 -35 -104 -103t-103 -102q128 -125 342 -125z" />
    <glyph glyph-name="Ugrave" unicode="&#xd9;" horiz-adv-x="1431" 
d="M987 1589h-92l-174 266h190zM637 -27q-252 0 -367.5 146t-56.5 416l190 899h146l-189 -879q-46 -213 22 -331t255 -118q191 0 300 116t157 341l186 871h145l-192 -902q-60 -280 -203 -419.5t-393 -139.5z" />
    <glyph glyph-name="Uacute" unicode="&#xda;" horiz-adv-x="1431" 
d="M987 1589h-113l203 266h207zM637 -27q-252 0 -367.5 146t-56.5 416l190 899h146l-189 -879q-46 -213 22 -331t255 -118q191 0 300 116t157 341l186 871h145l-192 -902q-60 -280 -203 -419.5t-393 -139.5z" />
    <glyph glyph-name="Ucircumflex" unicode="&#xdb;" horiz-adv-x="1431" 
d="M739 1589h-153l291 246h219l176 -246h-142l-155 168zM637 -27q-252 0 -367.5 146t-56.5 416l190 899h146l-189 -879q-46 -213 22 -331t255 -118q191 0 300 116t157 341l186 871h145l-192 -902q-60 -280 -203 -419.5t-393 -139.5z" />
    <glyph glyph-name="Udieresis" unicode="&#xdc;" horiz-adv-x="1431" 
d="M813 1591h-168l41 183h168zM1221 1591h-166l41 183h168zM637 -27q-252 0 -367.5 146t-56.5 416l190 899h146l-189 -879q-46 -213 22 -331t255 -118q191 0 300 116t157 341l186 871h145l-192 -902q-60 -280 -203 -419.5t-393 -139.5z" />
    <glyph glyph-name="Yacute" unicode="&#xdd;" horiz-adv-x="1312" 
d="M930 1589h-115l203 266h209zM623 0h-144l131 616l-336 818h160l205 -514l63 -160q86 103 134 166l409 508h182l-673 -813z" />
    <glyph glyph-name="Thorn" unicode="&#xde;" horiz-adv-x="1329" 
d="M510 1163h317q216 0 333.5 -105t117.5 -270q0 -209 -149 -337.5t-388 -128.5h-411l-68 -322h-143l305 1434h143zM356 446h383q178 0 283.5 94t105.5 248q0 103 -80 173.5t-225 70.5h-342z" />
    <glyph glyph-name="germandbls" unicode="&#xdf;" horiz-adv-x="1206" 
d="M573 -18q-111 0 -188 24l27 123q68 -23 153 -23q172 0 274.5 93.5t102.5 244.5q0 119 -82 187.5t-207 68.5h-73l24 119h60q141 0 238 85t97 212q0 103 -68.5 164t-174.5 61q-132 0 -211.5 -84.5t-108.5 -216.5l-221 -1040h-137l221 1044q44 200 161 308t304 108
q167 0 271 -92t104 -233t-89 -243t-225 -134q106 -22 182 -107t76 -211q0 -206 -143.5 -332t-366.5 -126z" />
    <glyph glyph-name="agrave" unicode="&#xe0;" horiz-adv-x="1097" 
d="M676 1161h-84l-160 264h174zM377 -27q-133 0 -216 68t-83 199q0 108 59 188.5t162.5 127t230.5 69t277 22.5l6 31q20 106 -38.5 174t-199.5 68q-65 0 -120 -18t-91 -48t-59 -60t-37 -63l-125 55q15 40 47.5 80.5t84 81t131.5 65.5t174 25q199 0 299.5 -107t60.5 -296
l-90 -426q-11 -47 3.5 -68.5t59.5 -21.5h95l-25 -119h-102q-93 0 -131.5 49.5t-28.5 120.5q-57 -90 -144.5 -143.5t-199.5 -53.5zM408 88q115 0 217 90.5t135 253.5l24 111q-109 0 -206 -16t-180 -48.5t-132 -91.5t-49 -137q0 -76 52 -119t139 -43z" />
    <glyph glyph-name="aacute" unicode="&#xe1;" horiz-adv-x="1097" 
d="M682 1161h-102l184 264h188zM377 -27q-133 0 -216 68t-83 199q0 108 59 188.5t162.5 127t230.5 69t277 22.5l6 31q20 106 -38.5 174t-199.5 68q-65 0 -120 -18t-91 -48t-59 -60t-37 -63l-125 55q15 40 47.5 80.5t84 81t131.5 65.5t174 25q199 0 299.5 -107t60.5 -296
l-90 -426q-11 -47 3.5 -68.5t59.5 -21.5h95l-25 -119h-102q-93 0 -131.5 49.5t-28.5 120.5q-57 -90 -144.5 -143.5t-199.5 -53.5zM408 88q115 0 217 90.5t135 253.5l24 111q-109 0 -206 -16t-180 -48.5t-132 -91.5t-49 -137q0 -76 52 -119t139 -43z" />
    <glyph glyph-name="acircumflex" unicode="&#xe2;" horiz-adv-x="1097" 
d="M453 1161h-140l265 244h198l160 -244h-129l-139 166zM377 -27q-133 0 -216 68t-83 199q0 108 59 188.5t162.5 127t230.5 69t277 22.5l6 31q20 106 -38.5 174t-199.5 68q-65 0 -120 -18t-91 -48t-59 -60t-37 -63l-125 55q15 40 47.5 80.5t84 81t131.5 65.5t174 25
q199 0 299.5 -107t60.5 -296l-90 -426q-11 -47 3.5 -68.5t59.5 -21.5h95l-25 -119h-102q-93 0 -131.5 49.5t-28.5 120.5q-57 -90 -144.5 -143.5t-199.5 -53.5zM408 88q115 0 217 90.5t135 253.5l24 111q-109 0 -206 -16t-180 -48.5t-132 -91.5t-49 -137q0 -76 52 -119
t139 -43z" />
    <glyph glyph-name="atilde" unicode="&#xe3;" horiz-adv-x="1103" 
d="M784 1171q-68 0 -143 54l-51 41q-50 41 -90 41q-43 0 -70.5 -31t-38.5 -86h-117q21 112 79 167.5t145 55.5q78 0 143 -51l49 -39q53 -41 90 -41q81 0 109 109h119q-45 -220 -224 -220zM377 -27q-133 0 -216 68t-83 199q0 108 59 188.5t162.5 127t230.5 69t277 22.5l6 31
q20 106 -38.5 174t-199.5 68q-65 0 -120 -18t-91 -48t-59 -60t-37 -63l-125 55q15 40 47.5 80.5t84 81t131.5 65.5t174 25q199 0 299.5 -107t60.5 -296l-90 -426q-11 -47 3.5 -68.5t59.5 -21.5h95l-25 -119h-102q-93 0 -131.5 49.5t-28.5 120.5q-57 -90 -144.5 -143.5
t-199.5 -53.5zM408 88q115 0 217 90.5t135 253.5l24 111q-109 0 -206 -16t-180 -48.5t-132 -91.5t-49 -137q0 -76 52 -119t139 -43z" />
    <glyph glyph-name="adieresis" unicode="&#xe4;" horiz-adv-x="1097" 
d="M535 1219h-154l39 182h151zM905 1219h-151l39 182h151zM377 -27q-133 0 -216 68t-83 199q0 108 59 188.5t162.5 127t230.5 69t277 22.5l6 31q20 106 -38.5 174t-199.5 68q-65 0 -120 -18t-91 -48t-59 -60t-37 -63l-125 55q15 40 47.5 80.5t84 81t131.5 65.5t174 25
q199 0 299.5 -107t60.5 -296l-90 -426q-11 -47 3.5 -68.5t59.5 -21.5h95l-25 -119h-102q-93 0 -131.5 49.5t-28.5 120.5q-57 -90 -144.5 -143.5t-199.5 -53.5zM408 88q115 0 217 90.5t135 253.5l24 111q-109 0 -206 -16t-180 -48.5t-132 -91.5t-49 -137q0 -76 52 -119
t139 -43z" />
    <glyph glyph-name="aring" unicode="&#xe5;" horiz-adv-x="1097" 
d="M631 1120q-88 0 -144.5 55.5t-56.5 135.5q0 101 68 169t172 68q86 0 142 -56t56 -134q0 -102 -68.5 -170t-168.5 -68zM637 1208q56 0 93.5 43.5t37.5 100.5q0 47 -29 77.5t-77 30.5q-57 0 -95.5 -42t-38.5 -99q0 -50 29.5 -80.5t79.5 -30.5zM377 -27q-133 0 -216 68
t-83 199q0 108 59 188.5t162.5 127t230.5 69t277 22.5l6 31q20 106 -38.5 174t-199.5 68q-65 0 -120 -18t-91 -48t-59 -60t-37 -63l-125 55q15 40 47.5 80.5t84 81t131.5 65.5t174 25q199 0 299.5 -107t60.5 -296l-90 -426q-11 -47 3.5 -68.5t59.5 -21.5h95l-25 -119h-102
q-93 0 -131.5 49.5t-28.5 120.5q-57 -90 -144.5 -143.5t-199.5 -53.5zM408 88q115 0 217 90.5t135 253.5l24 111q-109 0 -206 -16t-180 -48.5t-132 -91.5t-49 -137q0 -76 52 -119t139 -43z" />
    <glyph glyph-name="ae" unicode="&#xe6;" horiz-adv-x="1761" 
d="M373 -27q-134 0 -216.5 70t-82.5 195q0 87 40 156.5t107.5 115.5t162 76.5t197.5 44t220 14.5l10 43q23 100 -37.5 166t-191.5 66q-222 0 -318 -189l-123 55q20 45 54.5 86.5t87.5 80.5t131.5 62t171.5 23q132 0 216.5 -52.5t117.5 -145.5q62 92 158 145t214 53
q86 0 157 -29t117 -80t73 -121t25 -152t-26 -173h-731q-20 -80 -10 -151.5t40 -125t87 -85t133 -31.5q65 0 122 20.5t99 55.5t71 71t50 76l121 -61q-159 -279 -467 -279q-134 0 -231.5 65.5t-128.5 190.5q-57 -111 -166 -183.5t-254 -72.5zM928 592h594q25 144 -40.5 239
t-199.5 95q-125 0 -219 -91.5t-135 -242.5zM401 88q56 0 110 19.5t103.5 59t87.5 107t56 154.5l22 115q-81 0 -155.5 -7.5t-151 -28.5t-132 -53t-91 -85t-35.5 -121t51.5 -114t134.5 -46z" />
    <glyph glyph-name="ccedilla" unicode="&#xe7;" horiz-adv-x="1077" 
d="M512 92q62 0 117 22.5t95.5 60.5t69.5 79.5t50 89.5l123 -59q-129 -281 -400 -308l-30 -24q-30 -27 -70 -59q16 4 35 4q68 0 115 -40.5t47 -101.5q0 -78 -59.5 -128t-168.5 -50q-69 0 -123 26t-86 66l68 74q52 -70 139 -70q58 0 89.5 21.5t31.5 60.5q0 31 -24.5 50.5
t-67.5 19.5t-78 -12l-39 67l113 94q-164 14 -262.5 124.5t-98.5 299.5q0 94 22.5 186.5t68 174t107.5 143.5t147 98.5t180 36.5q162 0 263.5 -84.5t131.5 -214.5l-133 -37q-23 93 -90.5 155.5t-176.5 62.5q-73 0 -136.5 -31t-107.5 -82.5t-75 -117.5t-46 -137t-15 -140
q0 -160 76.5 -240t197.5 -80z" />
    <glyph glyph-name="egrave" unicode="&#xe8;" horiz-adv-x="1093" 
d="M719 1161h-84l-158 264h172zM487 -27q-176 0 -282.5 105.5t-106.5 312.5q0 92 22 184t67 175t106 147.5t145.5 102.5t179.5 38q88 0 160.5 -29t118.5 -80t73.5 -121t26 -152t-25.5 -173h-731q-19 -81 -9 -152.5t40 -125t86.5 -84.5t131.5 -31q66 0 124 21t99.5 56.5
t69.5 71t49 74.5l119 -61q-152 -279 -463 -279zM262 594h592q27 142 -39.5 237t-200.5 95q-124 0 -218.5 -91.5t-133.5 -240.5z" />
    <glyph glyph-name="eacute" unicode="&#xe9;" horiz-adv-x="1093" 
d="M727 1161h-104l184 264h190zM487 -27q-176 0 -282.5 105.5t-106.5 312.5q0 92 22 184t67 175t106 147.5t145.5 102.5t179.5 38q88 0 160.5 -29t118.5 -80t73.5 -121t26 -152t-25.5 -173h-731q-19 -81 -9 -152.5t40 -125t86.5 -84.5t131.5 -31q66 0 124 21t99.5 56.5
t69.5 71t49 74.5l119 -61q-152 -279 -463 -279zM262 594h592q27 142 -39.5 237t-200.5 95q-124 0 -218.5 -91.5t-133.5 -240.5z" />
    <glyph glyph-name="ecircumflex" unicode="&#xea;" horiz-adv-x="1093" 
d="M496 1161h-140l265 244h198l162 -244h-129l-141 166zM487 -27q-176 0 -282.5 105.5t-106.5 312.5q0 92 22 184t67 175t106 147.5t145.5 102.5t179.5 38q88 0 160.5 -29t118.5 -80t73.5 -121t26 -152t-25.5 -173h-731q-19 -81 -9 -152.5t40 -125t86.5 -84.5t131.5 -31
q66 0 124 21t99.5 56.5t69.5 71t49 74.5l119 -61q-152 -279 -463 -279zM262 594h592q27 142 -39.5 237t-200.5 95q-124 0 -218.5 -91.5t-133.5 -240.5z" />
    <glyph glyph-name="edieresis" unicode="&#xeb;" horiz-adv-x="1093" 
d="M578 1219h-152l37 182h153zM950 1219h-151l37 182h151zM487 -27q-176 0 -282.5 105.5t-106.5 312.5q0 92 22 184t67 175t106 147.5t145.5 102.5t179.5 38q88 0 160.5 -29t118.5 -80t73.5 -121t26 -152t-25.5 -173h-731q-19 -81 -9 -152.5t40 -125t86.5 -84.5t131.5 -31
q66 0 124 21t99.5 56.5t69.5 71t49 74.5l119 -61q-152 -279 -463 -279zM262 594h592q27 142 -39.5 237t-200.5 95q-124 0 -218.5 -91.5t-133.5 -240.5z" />
    <glyph glyph-name="igrave" unicode="&#xec;" horiz-adv-x="505" 
d="M438 1161h-84l-157 264h172zM215 0h-137l215 1010h135z" />
    <glyph glyph-name="iacute" unicode="&#xed;" horiz-adv-x="505" 
d="M442 1161h-102l184 264h189zM213 0h-137l215 1010h135z" />
    <glyph glyph-name="icircumflex" unicode="&#xee;" horiz-adv-x="505" 
d="M215 1161h-139l264 244h199l161 -244h-129l-141 166zM215 0h-137l215 1010h135z" />
    <glyph glyph-name="idieresis" unicode="&#xef;" horiz-adv-x="505" 
d="M297 1219h-152l37 182h152zM670 1219h-154l39 182h152zM215 0h-137l215 1010h135z" />
    <glyph glyph-name="eth" unicode="&#xf0;" horiz-adv-x="1159" 
d="M1085 1468l60 -79l-174 -134q94 -152 94 -383q0 -103 -15 -206t-44 -205t-77 -189.5t-110 -154.5t-147 -105.5t-183 -38.5q-188 0 -292.5 111.5t-104.5 290.5q0 138 57.5 261t166 201t243.5 78q129 0 223.5 -73.5t124.5 -204.5q34 149 24 294t-67 243l-186 -144l-55 80
l180 139q-94 94 -254 94q-113 0 -217 -38l26 120q104 35 209 35q213 0 342 -129zM492 92q101 0 181.5 60.5t121.5 152.5t41 193q0 137 -75 217t-194 80q-98 0 -176 -60t-119 -154.5t-41 -201.5q0 -130 74 -208.5t187 -78.5z" />
    <glyph glyph-name="ntilde" unicode="&#xf1;" horiz-adv-x="1185" 
d="M891 1171q-70 0 -141 54l-54 41q-50 41 -90 41q-42 0 -69.5 -31.5t-38.5 -85.5h-115q21 112 78.5 167.5t144.5 55.5q77 0 142 -51l51 -39q53 -41 88 -41q83 0 108 109h119q-45 -220 -223 -220zM215 0h-137l215 1010h133q-6 -33 -21 -97.5t-20 -91.5q18 31 44 62t69 69
t106 62t133 24q175 0 258 -122.5t41 -323.5l-127 -592h-137l127 592q33 156 -22.5 241t-180.5 85q-66 0 -124 -28.5t-98.5 -72t-73 -102.5t-51.5 -113.5t-30 -109.5z" />
    <glyph glyph-name="ograve" unicode="&#xf2;" horiz-adv-x="1148" 
d="M745 1161h-83l-158 264h172zM514 -27q-186 0 -301 118t-115 319q0 116 39 228.5t107 201.5t171 143.5t222 54.5q183 0 299.5 -118.5t116.5 -319.5q0 -118 -38 -230t-105.5 -200.5t-171 -142.5t-224.5 -54zM518 92q90 0 166 45t124.5 118t75.5 161.5t27 179.5
q0 156 -77.5 239t-202.5 83q-89 0 -165 -45t-124 -118t-75 -161.5t-27 -179.5q0 -156 77 -239t201 -83z" />
    <glyph glyph-name="oacute" unicode="&#xf3;" horiz-adv-x="1148" 
d="M754 1161h-103l183 264h190zM514 -27q-186 0 -301 118t-115 319q0 116 39 228.5t107 201.5t171 143.5t222 54.5q183 0 299.5 -118.5t116.5 -319.5q0 -118 -38 -230t-105.5 -200.5t-171 -142.5t-224.5 -54zM518 92q90 0 166 45t124.5 118t75.5 161.5t27 179.5
q0 156 -77.5 239t-202.5 83q-89 0 -165 -45t-124 -118t-75 -161.5t-27 -179.5q0 -156 77 -239t201 -83z" />
    <glyph glyph-name="ocircumflex" unicode="&#xf4;" horiz-adv-x="1148" 
d="M524 1161h-139l264 244h197l162 -244h-129l-142 166zM514 -27q-186 0 -301 118t-115 319q0 116 39 228.5t107 201.5t171 143.5t222 54.5q183 0 299.5 -118.5t116.5 -319.5q0 -118 -38 -230t-105.5 -200.5t-171 -142.5t-224.5 -54zM518 92q90 0 166 45t124.5 118
t75.5 161.5t27 179.5q0 156 -77.5 239t-202.5 83q-89 0 -165 -45t-124 -118t-75 -161.5t-27 -179.5q0 -156 77 -239t201 -83z" />
    <glyph glyph-name="otilde" unicode="&#xf5;" horiz-adv-x="1148" 
d="M854 1171q-68 0 -143 54l-52 41q-50 41 -90 41q-42 0 -69.5 -31.5t-38.5 -85.5h-117q21 111 79 167t144 56q79 0 144 -51l49 -39q56 -41 90 -41q80 0 108 109h119q-45 -220 -223 -220zM514 -27q-186 0 -301 118t-115 319q0 116 39 228.5t107 201.5t171 143.5t222 54.5
q183 0 299.5 -118.5t116.5 -319.5q0 -118 -38 -230t-105.5 -200.5t-171 -142.5t-224.5 -54zM518 92q90 0 166 45t124.5 118t75.5 161.5t27 179.5q0 156 -77.5 239t-202.5 83q-89 0 -165 -45t-124 -118t-75 -161.5t-27 -179.5q0 -156 77 -239t201 -83z" />
    <glyph glyph-name="odieresis" unicode="&#xf6;" horiz-adv-x="1148" 
d="M604 1219h-151l39 182h151zM977 1219h-152l37 182h154zM514 -27q-186 0 -301 118t-115 319q0 116 39 228.5t107 201.5t171 143.5t222 54.5q183 0 299.5 -118.5t116.5 -319.5q0 -118 -38 -230t-105.5 -200.5t-171 -142.5t-224.5 -54zM518 92q90 0 166 45t124.5 118
t75.5 161.5t27 179.5q0 156 -77.5 239t-202.5 83q-89 0 -165 -45t-124 -118t-75 -161.5t-27 -179.5q0 -156 77 -239t201 -83z" />
    <glyph glyph-name="divide" unicode="&#xf7;" horiz-adv-x="1409" 
d="M852 1026h-199v231h199v-231zM1303 657h-1102v131h1102v-131zM852 190h-199v232h199v-232z" />
    <glyph glyph-name="oslash" unicode="&#xf8;" horiz-adv-x="1150" 
d="M514 -27q-171 0 -285 103l-114 -117l-74 74l123 123q-66 109 -66 254q0 116 39 228.5t107 201.5t171 143.5t222 54.5q180 0 293 -116l112 112l72 -71l-119 -119q58 -116 58 -244q0 -118 -38 -230t-105.5 -200.5t-171 -142.5t-224.5 -54zM270 260l426 428l140 141
q-71 89 -203 89q-90 0 -166.5 -45t-125.5 -118t-76 -161.5t-27 -179.5q0 -81 32 -154zM520 92q89 0 165 45t124 118t75 161.5t27 179.5q0 73 -24 143l-404 -409q-93 -96 -159 -160q75 -78 196 -78z" />
    <glyph glyph-name="ugrave" unicode="&#xf9;" horiz-adv-x="1169" 
d="M756 1161h-84l-160 264h174zM434 -27q-171 0 -249 122t-33 333l124 582h138l-125 -594q-32 -152 16 -237t170 -85q75 0 139 35t110 96.5t78 136t50 160.5l104 488h138l-215 -1010h-134q8 39 22.5 104t20.5 91q-136 -222 -354 -222z" />
    <glyph glyph-name="uacute" unicode="&#xfa;" horiz-adv-x="1169" 
d="M760 1161h-103l183 264h190zM434 -27q-171 0 -249 122t-33 333l124 582h138l-125 -594q-32 -152 16 -237t170 -85q75 0 139 35t110 96.5t78 136t50 160.5l104 488h138l-215 -1010h-134q8 39 22.5 104t20.5 91q-136 -222 -354 -222z" />
    <glyph glyph-name="ucircumflex" unicode="&#xfb;" horiz-adv-x="1175" 
d="M532 1161h-139l264 244h199l160 -244h-129l-139 166zM434 -27q-171 0 -249 122t-33 333l124 582h138l-125 -594q-32 -152 16 -237t170 -85q75 0 139 35t110 96.5t78 136t50 160.5l104 488h138l-215 -1010h-134q8 39 22.5 104t20.5 91q-136 -222 -354 -222z" />
    <glyph glyph-name="udieresis" unicode="&#xfc;" horiz-adv-x="1169" 
d="M614 1219h-153l39 182h151zM985 1219h-151l38 182h152zM434 -27q-171 0 -249 122t-33 333l124 582h138l-125 -594q-32 -152 16 -237t170 -85q75 0 139 35t110 96.5t78 136t50 160.5l104 488h138l-215 -1010h-134q8 39 22.5 104t20.5 91q-136 -222 -354 -222z" />
    <glyph glyph-name="yacute" unicode="&#xfd;" horiz-adv-x="1028" 
d="M756 1425h188l-270 -264h-103zM600 436l320 574h151l-657 -1170q-52 -94 -96.5 -143t-103.5 -72.5t-148 -23.5h-177l27 123h154q70 0 117 28t94 109l98 174l-227 975h145l123 -572q48 -223 51 -235q58 100 129 233z" />
    <glyph glyph-name="thorn" unicode="&#xfe;" horiz-adv-x="1177" 
d="M131 -399h-137l389 1833h137l-86 -396l-35 -172q52 74 133 123t185 49q157 0 259.5 -109t102.5 -298q0 -127 -35 -245.5t-97 -210t-155 -147t-202 -55.5q-134 0 -217.5 67.5t-112.5 170.5q-28 -138 -43 -213zM569 92q84 0 155.5 46t118 121t73 169.5t26.5 192.5
q0 144 -72.5 221.5t-187.5 77.5q-109 0 -196.5 -79t-133 -198t-45.5 -248q0 -148 71 -225.5t191 -77.5z" />
    <glyph glyph-name="ydieresis" unicode="&#xff;" horiz-adv-x="1028" 
d="M412 1401h151l-39 -182h-151zM782 1401h154l-39 -182h-152zM600 436l320 574h151l-657 -1170q-52 -94 -96.5 -143t-103.5 -72.5t-148 -23.5h-177l27 123h154q70 0 117 28t94 109l98 174l-227 975h145l123 -572q48 -223 51 -235q58 100 129 233z" />
    <glyph glyph-name="Amacron" unicode="&#x100;" horiz-adv-x="1380" 
d="M604 1640l25 107h674l-27 -107h-672zM-51 0l842 1434h198l225 -1434h-153l-62 420h-645l-239 -420h-166zM692 1012l-262 -461h549l-68 459q-27 197 -43 303q-85 -144 -176 -301z" />
    <glyph glyph-name="amacron" unicode="&#x101;" horiz-adv-x="1097" 
d="M950 1217h-612l24 108h613zM377 -27q-133 0 -216 68t-83 199q0 108 59 188.5t162.5 127t230.5 69t277 22.5l6 31q20 106 -38.5 174t-199.5 68q-65 0 -120 -18t-91 -48t-59 -60t-37 -63l-125 55q15 40 47.5 80.5t84 81t131.5 65.5t174 25q199 0 299.5 -107t60.5 -296
l-90 -426q-11 -47 3.5 -68.5t59.5 -21.5h95l-25 -119h-102q-93 0 -131.5 49.5t-28.5 120.5q-57 -90 -144.5 -143.5t-199.5 -53.5zM408 88q115 0 217 90.5t135 253.5l24 111q-109 0 -206 -16t-180 -48.5t-132 -91.5t-49 -137q0 -76 52 -119t139 -43z" />
    <glyph glyph-name="Abreve" unicode="&#x102;" horiz-adv-x="1380" 
d="M942 1573q-147 0 -214.5 76t-47.5 184h115q-6 -74 32.5 -115t116.5 -41t135.5 41t83.5 115h131q-31 -111 -119 -185.5t-233 -74.5zM-51 0l842 1434h198l225 -1434h-153l-62 420h-645l-239 -420h-166zM692 1012l-262 -461h549l-68 459q-27 197 -43 303q-85 -144 -176 -301
z" />
    <glyph glyph-name="abreve" unicode="&#x103;" horiz-adv-x="1097" 
d="M645 1145q-134 0 -194.5 75.5t-42.5 184.5h104q-6 -75 29 -115.5t106 -40.5t123.5 40.5t77.5 115.5h117q-18 -71 -55 -127t-106 -94.5t-159 -38.5zM377 -27q-133 0 -216 68t-83 199q0 108 59 188.5t162.5 127t230.5 69t277 22.5l6 31q20 106 -38.5 174t-199.5 68
q-65 0 -120 -18t-91 -48t-59 -60t-37 -63l-125 55q15 40 47.5 80.5t84 81t131.5 65.5t174 25q199 0 299.5 -107t60.5 -296l-90 -426q-11 -47 3.5 -68.5t59.5 -21.5h95l-25 -119h-102q-93 0 -131.5 49.5t-28.5 120.5q-57 -90 -144.5 -143.5t-199.5 -53.5zM408 88
q115 0 217 90.5t135 253.5l24 111q-109 0 -206 -16t-180 -48.5t-132 -91.5t-49 -137q0 -76 52 -119t139 -43z" />
    <glyph glyph-name="Aogonek" unicode="&#x104;" horiz-adv-x="1380" 
d="M969 -209q-5 -41 17.5 -63.5t74.5 -22.5q35 0 96 14l-24 -110q-52 -17 -105 -17q-87 0 -135 44.5t-43 119.5q6 133 211 250l-62 414h-645l-239 -420h-166l842 1434h198l225 -1434q-232 -92 -245 -209zM692 1012l-262 -461h549l-68 459q-27 197 -43 303
q-85 -144 -176 -301z" />
    <glyph glyph-name="aogonek" unicode="&#x105;" horiz-adv-x="1097" 
d="M1008 119l-25 -119q-233 -92 -246 -209q-10 -86 92 -86q36 0 97 14l-25 -110q-55 -17 -104 -17q-87 0 -135.5 44.5t-43.5 119.5q6 134 209 250q-63 14 -88.5 59.5t-17.5 104.5q-57 -90 -144.5 -143.5t-199.5 -53.5q-133 0 -216 68t-83 199q0 108 59 188.5t162.5 127
t230.5 69t277 22.5l6 31q20 106 -38.5 174t-199.5 68q-65 0 -120 -18t-91 -48t-59 -60t-37 -63l-125 55q15 40 47.5 80.5t84 81t131.5 65.5t174 25q199 0 299.5 -107t60.5 -296l-90 -426q-11 -47 3.5 -68.5t59.5 -21.5h95zM760 432l24 111q-109 0 -206 -16t-180 -48.5
t-132 -91.5t-49 -137q0 -76 52 -119t139 -43q115 0 217 90.5t135 253.5z" />
    <glyph glyph-name="Cacute" unicode="&#x106;" horiz-adv-x="1505" 
d="M1063 1589h-113l203 266h207zM762 -27q-189 0 -326.5 80t-206.5 217.5t-69 315.5q0 138 33 267.5t98.5 239.5t155 192t209 128.5t255.5 46.5q108 0 202.5 -28t159.5 -71.5t115.5 -101t78.5 -113t40 -110.5l-149 -43q-12 42 -31.5 83.5t-57 89t-85.5 83t-120.5 59
t-158.5 23.5q-138 0 -252 -62.5t-187.5 -166.5t-114 -237t-40.5 -277q0 -218 123.5 -351t331.5 -133q98 0 181 28.5t145 80.5t107 113t79 137l141 -66q-31 -65 -70 -122.5t-97.5 -114t-127 -97t-162.5 -65.5t-200 -25z" />
    <glyph glyph-name="cacute" unicode="&#x107;" horiz-adv-x="1077" 
d="M735 1161h-102l184 264h189zM506 -27q-182 0 -295 112t-113 314q0 118 37 232t103 205t167 146.5t220 55.5q161 0 263 -84.5t130 -214.5l-133 -37q-23 93 -90 155.5t-177 62.5q-91 0 -165.5 -47t-119.5 -122.5t-69 -163t-24 -175.5q0 -160 76.5 -240t195.5 -80t204 74.5
t128 177.5l125 -59q-147 -312 -463 -312z" />
    <glyph glyph-name="Ccircumflex" unicode="&#x108;" horiz-adv-x="1505" 
d="M813 1589h-151l288 246h219l177 -246h-142l-153 168zM762 -27q-189 0 -326.5 80t-206.5 217.5t-69 315.5q0 138 33 267.5t98.5 239.5t155 192t209 128.5t255.5 46.5q108 0 202.5 -28t159.5 -71.5t115.5 -101t78.5 -113t40 -110.5l-149 -43q-12 42 -31.5 83.5t-57 89
t-85.5 83t-120.5 59t-158.5 23.5q-138 0 -252 -62.5t-187.5 -166.5t-114 -237t-40.5 -277q0 -218 123.5 -351t331.5 -133q98 0 181 28.5t145 80.5t107 113t79 137l141 -66q-31 -65 -70 -122.5t-97.5 -114t-127 -97t-162.5 -65.5t-200 -25z" />
    <glyph glyph-name="ccircumflex" unicode="&#x109;" horiz-adv-x="1077" 
d="M506 1161h-139l264 244h198l162 -244h-129l-141 166zM506 -27q-182 0 -295 112t-113 314q0 118 37 232t103 205t167 146.5t220 55.5q161 0 263 -84.5t130 -214.5l-133 -37q-23 93 -90 155.5t-177 62.5q-91 0 -165.5 -47t-119.5 -122.5t-69 -163t-24 -175.5
q0 -160 76.5 -240t195.5 -80t204 74.5t128 177.5l125 -59q-147 -312 -463 -312z" />
    <glyph glyph-name="Cdotaccent" unicode="&#x10a;" horiz-adv-x="1505" 
d="M1087 1591h-143l45 209h141zM762 -27q-189 0 -326.5 80t-206.5 217.5t-69 315.5q0 138 33 267.5t98.5 239.5t155 192t209 128.5t255.5 46.5q108 0 202.5 -28t159.5 -71.5t115.5 -101t78.5 -113t40 -110.5l-149 -43q-12 42 -31.5 83.5t-57 89t-85.5 83t-120.5 59
t-158.5 23.5q-138 0 -252 -62.5t-187.5 -166.5t-114 -237t-40.5 -277q0 -218 123.5 -351t331.5 -133q98 0 181 28.5t145 80.5t107 113t79 137l141 -66q-31 -65 -70 -122.5t-97.5 -114t-127 -97t-162.5 -65.5t-200 -25z" />
    <glyph glyph-name="cdotaccent" unicode="&#x10b;" horiz-adv-x="1077" 
d="M770 1225h-143l45 209h143zM506 -27q-182 0 -295 112t-113 314q0 118 37 232t103 205t167 146.5t220 55.5q161 0 263 -84.5t130 -214.5l-133 -37q-23 93 -90 155.5t-177 62.5q-91 0 -165.5 -47t-119.5 -122.5t-69 -163t-24 -175.5q0 -160 76.5 -240t195.5 -80t204 74.5
t128 177.5l125 -59q-147 -312 -463 -312z" />
    <glyph glyph-name="Ccaron" unicode="&#x10c;" horiz-adv-x="1505" 
d="M1247 1831h152l-291 -244h-217l-178 244h143l154 -166zM762 -27q-189 0 -326.5 80t-206.5 217.5t-69 315.5q0 138 33 267.5t98.5 239.5t155 192t209 128.5t255.5 46.5q108 0 202.5 -28t159.5 -71.5t115.5 -101t78.5 -113t40 -110.5l-149 -43q-12 42 -31.5 83.5t-57 89
t-85.5 83t-120.5 59t-158.5 23.5q-138 0 -252 -62.5t-187.5 -166.5t-114 -237t-40.5 -277q0 -218 123.5 -351t331.5 -133q98 0 181 28.5t145 80.5t107 113t79 137l141 -66q-31 -65 -70 -122.5t-97.5 -114t-127 -97t-162.5 -65.5t-200 -25z" />
    <glyph glyph-name="ccaron" unicode="&#x10d;" horiz-adv-x="1077" 
d="M791 1161h-197l-162 244h125l143 -168l213 168h142zM506 -27q-182 0 -295 112t-113 314q0 118 37 232t103 205t167 146.5t220 55.5q161 0 263 -84.5t130 -214.5l-133 -37q-23 93 -90 155.5t-177 62.5q-91 0 -165.5 -47t-119.5 -122.5t-69 -163t-24 -175.5
q0 -160 76.5 -240t195.5 -80t204 74.5t128 177.5l125 -59q-147 -312 -463 -312z" />
    <glyph glyph-name="Dcaron" unicode="&#x10e;" horiz-adv-x="1499" 
d="M1118 1831h152l-289 -244h-219l-176 244h141l154 -166zM608 0h-487l303 1434h356q289 0 468 -167.5t179 -447.5q0 -171 -56.5 -320t-160 -260t-259 -175t-343.5 -64zM539 1300l-248 -1167h299q166 0 298.5 52.5t217 145.5t129.5 216t45 266q0 228 -137 357.5t-389 129.5
h-215z" />
    <glyph glyph-name="dcaron" unicode="&#x10f;" horiz-adv-x="1234" 
d="M461 -27q-158 0 -260.5 108.5t-102.5 297.5q0 127 35.5 245.5t98 210.5t156 147.5t202.5 55.5q133 0 218 -67.5t114 -169.5q9 52 45 217l88 416h135l-305 -1434h-133l30 145q-52 -74 -133.5 -123t-187.5 -49zM1303 1022h-89l162 219h-80l41 191h166l-45 -197zM502 92
q110 0 196.5 78t130 196.5t43.5 249.5q0 145 -73 224.5t-189 79.5q-84 0 -155.5 -46t-118 -121.5t-72.5 -170t-26 -193.5q0 -144 73 -220.5t191 -76.5z" />
    <glyph glyph-name="Dcroat" unicode="&#x110;" horiz-adv-x="1533" 
d="M432 1434h356q290 0 470 -167.5t180 -447.5q0 -171 -57 -320t-161 -260t-260 -175t-344 -64h-487l143 678h-159l24 119h160zM301 133h299q165 0 297.5 53t217.5 145.5t130 215.5t45 266q0 228 -137 357.5t-389 129.5h-217l-107 -503h340l-26 -119h-338z" />
    <glyph glyph-name="dcroat" unicode="&#x111;" horiz-adv-x="1177" 
d="M1155 1270h174l-22 -101h-172l-250 -1169h-133l30 145q-52 -74 -133.5 -123t-187.5 -49q-158 0 -260.5 108.5t-102.5 297.5q0 127 35.5 245.5t98 210.5t156 147.5t202.5 55.5q133 0 218 -67.5t114 -169.5q9 52 45 217l32 151h-358l21 101h358l35 164h135zM502 92
q110 0 196.5 78t130 196.5t43.5 249.5q0 145 -73 224.5t-189 79.5q-84 0 -155.5 -46t-118 -121.5t-72.5 -170t-26 -193.5q0 -144 73 -220.5t191 -76.5z" />
    <glyph glyph-name="Emacron" unicode="&#x112;" horiz-adv-x="1298" 
d="M1288 1640h-674l25 107h674zM1092 0h-973l305 1434h971l-27 -134h-829l-105 -489h623l-29 -131h-622l-115 -547h829z" />
    <glyph glyph-name="emacron" unicode="&#x113;" horiz-adv-x="1093" 
d="M995 1217h-612l25 108h610zM487 -27q-176 0 -282.5 105.5t-106.5 312.5q0 92 22 184t67 175t106 147.5t145.5 102.5t179.5 38q88 0 160.5 -29t118.5 -80t73.5 -121t26 -152t-25.5 -173h-731q-19 -81 -9 -152.5t40 -125t86.5 -84.5t131.5 -31q66 0 124 21t99.5 56.5
t69.5 71t49 74.5l119 -61q-152 -279 -463 -279zM262 594h592q27 142 -39.5 237t-200.5 95q-124 0 -218.5 -91.5t-133.5 -240.5z" />
    <glyph glyph-name="Ebreve" unicode="&#x114;" horiz-adv-x="1298" 
d="M965 1573q-148 0 -215.5 76t-47.5 184h115q-5 -74 34 -115t116 -41q78 0 135.5 41t85.5 115h129q-31 -111 -119 -185.5t-233 -74.5zM1092 0h-973l305 1434h971l-27 -134h-829l-105 -489h623l-29 -131h-622l-115 -547h829z" />
    <glyph glyph-name="ebreve" unicode="&#x115;" horiz-adv-x="1093" 
d="M690 1145q-134 0 -195.5 76t-43.5 184h104q-5 -75 30 -115.5t107 -40.5q71 0 122.5 40.5t76.5 115.5h119q-29 -112 -109 -186t-211 -74zM487 -27q-176 0 -282.5 105.5t-106.5 312.5q0 92 22 184t67 175t106 147.5t145.5 102.5t179.5 38q88 0 160.5 -29t118.5 -80
t73.5 -121t26 -152t-25.5 -173h-731q-19 -81 -9 -152.5t40 -125t86.5 -84.5t131.5 -31q66 0 124 21t99.5 56.5t69.5 71t49 74.5l119 -61q-152 -279 -463 -279zM262 594h592q27 142 -39.5 237t-200.5 95q-124 0 -218.5 -91.5t-133.5 -240.5z" />
    <glyph glyph-name="Edotaccent" unicode="&#x116;" horiz-adv-x="1298" 
d="M1016 1591h-142l44 209h143zM1092 0h-973l305 1434h971l-27 -134h-829l-105 -489h623l-29 -131h-622l-115 -547h829z" />
    <glyph glyph-name="edotaccent" unicode="&#x117;" horiz-adv-x="1093" 
d="M758 1225h-142l43 209h144zM487 -27q-176 0 -282.5 105.5t-106.5 312.5q0 92 22 184t67 175t106 147.5t145.5 102.5t179.5 38q88 0 160.5 -29t118.5 -80t73.5 -121t26 -152t-25.5 -173h-731q-19 -81 -9 -152.5t40 -125t86.5 -84.5t131.5 -31q66 0 124 21t99.5 56.5
t69.5 71t49 74.5l119 -61q-152 -279 -463 -279zM262 594h592q27 142 -39.5 237t-200.5 95q-124 0 -218.5 -91.5t-133.5 -240.5z" />
    <glyph glyph-name="Eogonek" unicode="&#x118;" horiz-adv-x="1298" 
d="M1395 1434l-27 -134h-829l-105 -489h623l-29 -131h-622l-115 -547h829l-28 -133q-233 -92 -246 -209q-10 -86 92 -86q36 0 94 14l-22 -110q-55 -17 -107 -17q-86 0 -133.5 44.5t-42.5 119.5q6 132 199 244h-807l305 1434h971z" />
    <glyph glyph-name="eogonek" unicode="&#x119;" horiz-adv-x="1093" 
d="M98 391q0 92 22 184t67 175t106 147.5t145.5 102.5t179.5 38q88 0 160.5 -29t118.5 -80t73.5 -121t26 -152t-25.5 -173h-731q-19 -81 -9 -152.5t40 -125t86.5 -84.5t131.5 -31q66 0 124 21t99.5 56.5t69.5 71t49 74.5l119 -61q-98 -186 -284 -254q-234 -88 -248 -207
q-10 -86 92 -86q36 0 94 14l-22 -110q-55 -17 -107 -17q-86 0 -133.5 44.5t-42.5 119.5q6 121 158 219q-170 9 -264.5 116.5t-94.5 299.5zM262 594h592q27 142 -39.5 237t-200.5 95q-124 0 -218.5 -91.5t-133.5 -240.5z" />
    <glyph glyph-name="Ecaron" unicode="&#x11a;" horiz-adv-x="1298" 
d="M1178 1831h151l-289 -244h-219l-176 244h141l154 -166zM1092 0h-973l305 1434h971l-27 -134h-829l-105 -489h623l-29 -131h-622l-115 -547h829z" />
    <glyph glyph-name="ecaron" unicode="&#x11b;" horiz-adv-x="1093" 
d="M780 1161h-198l-160 244h125l141 -168l215 168h141zM487 -27q-176 0 -282.5 105.5t-106.5 312.5q0 92 22 184t67 175t106 147.5t145.5 102.5t179.5 38q88 0 160.5 -29t118.5 -80t73.5 -121t26 -152t-25.5 -173h-731q-19 -81 -9 -152.5t40 -125t86.5 -84.5t131.5 -31
q66 0 124 21t99.5 56.5t69.5 71t49 74.5l119 -61q-152 -279 -463 -279zM262 594h592q27 142 -39.5 237t-200.5 95q-124 0 -218.5 -91.5t-133.5 -240.5z" />
    <glyph glyph-name="Gcircumflex" unicode="&#x11c;" horiz-adv-x="1591" 
d="M829 1589h-151l291 246h217l178 -246h-143l-154 168zM743 -27q-261 0 -422 167.5t-161 457.5q0 131 34 257t102 235t160.5 192t217.5 130.5t266 47.5q110 0 205.5 -26.5t161.5 -69.5t117.5 -100t81 -114t44.5 -116l-153 -47q-17 65 -52 122.5t-90.5 108.5t-139 81
t-185.5 30q-140 0 -258.5 -61.5t-196 -163.5t-121 -232.5t-43.5 -271.5q0 -230 126 -363t329 -133q110 0 205.5 38t163.5 102t114.5 143.5t67.5 167.5h-514l26 133h666l-145 -688h-140q19 90 60 274q-180 -301 -527 -301z" />
    <glyph glyph-name="gcircumflex" unicode="&#x11d;" horiz-adv-x="1175" 
d="M506 1161h-139l264 244h198l160 -244h-129l-139 166zM618 -399h-442q-124 0 -184 57.5t-60 140.5q0 78 53.5 139t133.5 99q-31 21 -51.5 57t-20.5 80q0 79 61.5 142.5t149.5 99.5q-70 82 -70 209q0 172 117 292.5t297 120.5q129 0 217.5 -57.5t124.5 -146.5
q17 85 67 130.5t126 45.5h94l-25 -115h-63q-34 0 -56 -4.5t-44 -19.5t-36 -47t-22 -83l-16 -88q-31 -171 -138.5 -264.5t-269.5 -93.5q-140 0 -231 61q-67 -22 -111.5 -64.5t-44.5 -88.5q0 -37 28 -59.5t85 -22.5h403q137 0 211 -67.5t74 -166.5q0 -134 -92.5 -210
t-264.5 -76zM559 408q129 0 207 82t78 208q0 98 -65 163t-175 65q-124 0 -202 -87t-78 -214q0 -99 61 -158t174 -59zM225 -283h396q107 0 162 42t55 120q0 61 -46.5 91t-129.5 30h-449q-62 -22 -110 -66t-48 -100q0 -117 170 -117z" />
    <glyph glyph-name="Gbreve" unicode="&#x11e;" horiz-adv-x="1591" 
d="M1053 1573q-147 0 -214.5 76t-47.5 184h114q-6 -74 33 -115t117 -41t135.5 41t83.5 115h131q-16 -52 -43 -96.5t-68.5 -82.5t-103.5 -59.5t-137 -21.5zM743 -27q-261 0 -422 167.5t-161 457.5q0 131 34 257t102 235t160.5 192t217.5 130.5t266 47.5q110 0 205.5 -26.5
t161.5 -69.5t117.5 -100t81 -114t44.5 -116l-153 -47q-17 65 -52 122.5t-90.5 108.5t-139 81t-185.5 30q-140 0 -258.5 -61.5t-196 -163.5t-121 -232.5t-43.5 -271.5q0 -230 126 -363t329 -133q110 0 205.5 38t163.5 102t114.5 143.5t67.5 167.5h-514l26 133h666l-145 -688
h-140q19 90 60 274q-180 -301 -527 -301z" />
    <glyph glyph-name="gbreve" unicode="&#x11f;" horiz-adv-x="1175" 
d="M694 1145q-134 0 -195.5 76t-43.5 184h104q-5 -75 30 -115.5t107 -40.5q71 0 122.5 40.5t76.5 115.5h119q-29 -112 -109 -186t-211 -74zM618 -399h-442q-124 0 -184 57.5t-60 140.5q0 78 53.5 139t133.5 99q-31 21 -51.5 57t-20.5 80q0 79 61.5 142.5t149.5 99.5
q-70 82 -70 209q0 172 117 292.5t297 120.5q129 0 217.5 -57.5t124.5 -146.5q17 85 67 130.5t126 45.5h94l-25 -115h-63q-34 0 -56 -4.5t-44 -19.5t-36 -47t-22 -83l-16 -88q-31 -171 -138.5 -264.5t-269.5 -93.5q-140 0 -231 61q-67 -22 -111.5 -64.5t-44.5 -88.5
q0 -37 28 -59.5t85 -22.5h403q137 0 211 -67.5t74 -166.5q0 -134 -92.5 -210t-264.5 -76zM559 408q129 0 207 82t78 208q0 98 -65 163t-175 65q-124 0 -202 -87t-78 -214q0 -99 61 -158t174 -59zM225 -283h396q107 0 162 42t55 120q0 61 -46.5 91t-129.5 30h-449
q-62 -22 -110 -66t-48 -100q0 -117 170 -117z" />
    <glyph glyph-name="Gdotaccent" unicode="&#x120;" horiz-adv-x="1591" 
d="M1104 1591h-143l45 209h143zM743 -27q-261 0 -422 167.5t-161 457.5q0 131 34 257t102 235t160.5 192t217.5 130.5t266 47.5q110 0 205.5 -26.5t161.5 -69.5t117.5 -100t81 -114t44.5 -116l-153 -47q-17 65 -52 122.5t-90.5 108.5t-139 81t-185.5 30q-140 0 -258.5 -61.5
t-196 -163.5t-121 -232.5t-43.5 -271.5q0 -230 126 -363t329 -133q110 0 205.5 38t163.5 102t114.5 143.5t67.5 167.5h-514l26 133h666l-145 -688h-140q19 90 60 274q-180 -301 -527 -301z" />
    <glyph glyph-name="gdotaccent" unicode="&#x121;" horiz-adv-x="1175" 
d="M768 1225h-141l43 209h143zM618 -399h-442q-124 0 -184 57.5t-60 140.5q0 78 53.5 139t133.5 99q-31 21 -51.5 57t-20.5 80q0 79 61.5 142.5t149.5 99.5q-70 82 -70 209q0 172 117 292.5t297 120.5q129 0 217.5 -57.5t124.5 -146.5q17 85 67 130.5t126 45.5h94l-25 -115
h-63q-34 0 -56 -4.5t-44 -19.5t-36 -47t-22 -83l-16 -88q-31 -171 -138.5 -264.5t-269.5 -93.5q-140 0 -231 61q-67 -22 -111.5 -64.5t-44.5 -88.5q0 -37 28 -59.5t85 -22.5h403q137 0 211 -67.5t74 -166.5q0 -134 -92.5 -210t-264.5 -76zM559 408q129 0 207 82t78 208
q0 98 -65 163t-175 65q-124 0 -202 -87t-78 -214q0 -99 61 -158t174 -59zM225 -283h396q107 0 162 42t55 120q0 61 -46.5 91t-129.5 30h-449q-62 -22 -110 -66t-48 -100q0 -117 170 -117z" />
    <glyph glyph-name="uni0122" unicode="&#x122;" horiz-adv-x="1591" 
d="M743 -27q-261 0 -422 167.5t-161 457.5q0 131 34 257t102 235t160.5 192t217.5 130.5t266 47.5q110 0 205.5 -26.5t161.5 -69.5t117.5 -100t81 -114t44.5 -116l-153 -47q-17 65 -52 122.5t-90.5 108.5t-139 81t-185.5 30q-140 0 -258.5 -61.5t-196 -163.5t-121 -232.5
t-43.5 -271.5q0 -230 126 -363t329 -133q110 0 205.5 38t163.5 102t114.5 143.5t67.5 167.5h-514l26 133h666l-145 -688h-140q19 90 60 274q-180 -301 -527 -301zM602 -604h-88l162 219h-82l43 192h166l-45 -198z" />
    <glyph glyph-name="uni0123" unicode="&#x123;" horiz-adv-x="1175" 
d="M805 1636h88l-162 -219h80l-41 -192h-166l43 198zM618 -399h-442q-124 0 -184 57.5t-60 140.5q0 78 53.5 139t133.5 99q-31 21 -51.5 57t-20.5 80q0 79 61.5 142.5t149.5 99.5q-70 82 -70 209q0 172 117 292.5t297 120.5q129 0 217.5 -57.5t124.5 -146.5q17 85 67 130.5
t126 45.5h94l-25 -115h-63q-34 0 -56 -4.5t-44 -19.5t-36 -47t-22 -83l-16 -88q-31 -171 -138.5 -264.5t-269.5 -93.5q-140 0 -231 61q-67 -22 -111.5 -64.5t-44.5 -88.5q0 -37 28 -59.5t85 -22.5h403q137 0 211 -67.5t74 -166.5q0 -134 -92.5 -210t-264.5 -76zM559 408
q129 0 207 82t78 208q0 98 -65 163t-175 65q-124 0 -202 -87t-78 -214q0 -99 61 -158t174 -59zM225 -283h396q107 0 162 42t55 120q0 61 -46.5 91t-129.5 30h-449q-62 -22 -110 -66t-48 -100q0 -117 170 -117z" />
    <glyph glyph-name="Hcircumflex" unicode="&#x124;" horiz-adv-x="1568" 
d="M819 1589h-153l290 246h220l176 -246h-142l-155 168zM262 0h-143l305 1434h141l-131 -623h832l133 623h143l-305 -1434h-141l143 678h-833z" />
    <glyph glyph-name="hcircumflex" unicode="&#x125;" horiz-adv-x="1185" 
d="M647 1583h-139l264 244h199l159 -244h-126l-142 166zM215 0h-137l305 1434h135l-92 -433l-41 -180q18 30 44 61.5t69.5 69.5t106 62t132.5 24q174 0 258.5 -121t42.5 -323l-129 -594h-137l127 592q33 155 -22 240.5t-179 85.5q-67 0 -125 -27.5t-98 -70t-72.5 -100
t-51 -111t-29.5 -109.5z" />
    <glyph glyph-name="Hbar" unicode="&#x126;" horiz-adv-x="1599" 
d="M1509 1231h166l-24 -113h-166l-238 -1118h-141l143 678h-833l-144 -678h-143l238 1118h-164l24 113h164l43 203h141l-43 -203h834l43 203h143zM444 811h832l65 307h-831z" />
    <glyph glyph-name="hbar" unicode="&#x127;" horiz-adv-x="1191" 
d="M737 1038q174 0 258.5 -121t42.5 -323l-129 -594h-137l127 592q33 155 -22 240.5t-179 85.5q-67 0 -125 -27.5t-98 -70t-72.5 -100t-51 -111t-29.5 -109.5l-107 -500h-137l250 1169h-166l20 101h166l35 164h135l-35 -164h365l-21 -101h-366l-35 -168l-41 -180
q18 30 44 61.5t69.5 69.5t106 62t132.5 24z" />
    <glyph glyph-name="Itilde" unicode="&#x128;" horiz-adv-x="600" 
d="M707 1579q-83 0 -158 55l-57 39q-52 41 -99 41q-94 0 -121 -115h-127q23 111 87 167.5t159 56.5q87 0 156 -51l55 -39q62 -43 98 -43q90 0 119 108h131q-48 -219 -243 -219zM262 0h-143l305 1434h143z" />
    <glyph glyph-name="itilde" unicode="&#x129;" horiz-adv-x="514" 
d="M547 1171q-73 0 -144 54l-51 41q-50 41 -90 41q-85 0 -108 -117h-117q21 112 78.5 167.5t144.5 55.5q79 0 141 -51l52 -39q53 -41 88 -41q82 0 110 109h119q-45 -220 -223 -220zM215 0h-137l215 1010h135z" />
    <glyph glyph-name="Imacron" unicode="&#x12a;" horiz-adv-x="608" 
d="M881 1640h-674l24 107h674zM262 0h-143l305 1434h143z" />
    <glyph glyph-name="imacron" unicode="&#x12b;" horiz-adv-x="522" 
d="M713 1217h-611l23 108h612zM215 0h-137l215 1010h135z" />
    <glyph glyph-name="Ibreve" unicode="&#x12c;" horiz-adv-x="604" 
d="M551 1573q-147 0 -214.5 76t-47.5 184h114q-6 -74 33 -115t117 -41t135.5 41t83.5 115h131q-31 -111 -119 -185.5t-233 -74.5zM262 0h-143l305 1434h143z" />
    <glyph glyph-name="ibreve" unicode="&#x12d;" horiz-adv-x="505" 
d="M408 1145q-134 0 -195 76t-43 184h104q-6 -75 29.5 -115.5t106.5 -40.5q72 0 123.5 40.5t76.5 115.5h119q-30 -112 -109.5 -186t-211.5 -74zM215 0h-137l215 1010h135z" />
    <glyph glyph-name="Iogonek" unicode="&#x12e;" horiz-adv-x="587" 
d="M567 1434l-305 -1434q-231 -91 -244 -209q-5 -41 17 -63.5t74 -22.5q38 0 96 14l-23 -110q-55 -17 -106 -17q-87 0 -134 44t-42 120q9 141 221 256l303 1422h143z" />
    <glyph glyph-name="iogonek" unicode="&#x12f;" horiz-adv-x="507" 
d="M338 1225l45 209h143l-45 -209h-143zM84 16l211 994h135l-213 -1010q-231 -91 -244 -209q-5 -42 16.5 -64t73.5 -22q39 0 97 14l-25 -110q-52 -17 -104 -17q-87 0 -135 44.5t-43 119.5q9 145 231 260z" />
    <glyph glyph-name="Idotaccent" unicode="&#x130;" horiz-adv-x="606" 
d="M600 1591h-141l43 209h143zM262 0h-143l305 1434h143z" />
    <glyph glyph-name="dotlessi" unicode="&#x131;" horiz-adv-x="505" 
d="M215 0h-137l215 1010h135z" />
    <glyph glyph-name="IJ" unicode="&#x132;" horiz-adv-x="1591" 
d="M262 0h-143l305 1434h143zM934 -27q-122 0 -204.5 54.5t-112 156.5t7.5 246l149 23q-43 -179 -0.5 -265t156.5 -86q120 0 189 83t104 251l213 998h143l-221 -1037q-43 -210 -143.5 -317t-280.5 -107z" />
    <glyph glyph-name="ij" unicode="&#x133;" horiz-adv-x="1028" 
d="M479 1225h-143l45 209h143zM1001 1225h-145l45 209h146zM215 0h-137l215 1010h135zM410 -399h-166l24 123h133q144 0 170 149l244 1137h135l-245 -1153q-28 -131 -94.5 -193.5t-200.5 -62.5z" />
    <glyph glyph-name="Jcircumflex" unicode="&#x134;" horiz-adv-x="1003" 
d="M758 1589h-154l291 246h217l178 -246h-141l-156 168zM350 -27q-122 0 -204.5 54.5t-112 156.5t7.5 246l149 23q-45 -179 -3 -265t159 -86q118 0 187.5 83t105.5 251l211 998h143l-219 -1037q-45 -210 -145.5 -317t-278.5 -107z" />
    <glyph glyph-name="jcircumflex" unicode="&#x135;" horiz-adv-x="520" 
d="M227 1161h-139l264 244h199l162 -244h-129l-142 166zM-90 -399h-174l26 123h136q137 0 170 151l241 1135h135l-243 -1151q-29 -133 -99 -195.5t-192 -62.5z" />
    <glyph glyph-name="uni0136" unicode="&#x136;" horiz-adv-x="1380" 
d="M1268 1434h209l-707 -609l520 -825h-174l-454 729l-300 -258l-100 -471h-143l305 1434h141l-94 -449q-12 -59 -27 -129t-23.5 -110t-14.5 -72zM610 -385h-82l41 192h166l-43 -198l-157 -213h-86z" />
    <glyph glyph-name="uni0137" unicode="&#x137;" horiz-adv-x="1138" 
d="M1004 1010h196l-553 -424l371 -586h-160l-315 506l-264 -203l-64 -303h-137l305 1434h135l-133 -637l-68 -320zM457 -385h-82l43 192h164l-43 -198l-156 -213h-88z" />
    <glyph glyph-name="Lacute" unicode="&#x139;" horiz-adv-x="1169" 
d="M580 1589h-115l203 266h209zM1034 0h-915l305 1434h143l-274 -1299h770z" />
    <glyph glyph-name="lacute" unicode="&#x13a;" horiz-adv-x="503" 
d="M530 1583h-102l184 266h189zM213 0h-135l305 1434h135z" />
    <glyph glyph-name="uni013B" unicode="&#x13b;" horiz-adv-x="1169" 
d="M1034 0h-915l305 1434h143l-274 -1299h770zM416 -604h-88l161 219h-79l41 192h165l-45 -198z" />
    <glyph glyph-name="uni013C" unicode="&#x13c;" horiz-adv-x="501" 
d="M213 0h-135l305 1434h135zM-8 -604h-88l162 219h-82l43 192h163l-43 -198z" />
    <glyph glyph-name="Lcaron" unicode="&#x13d;" horiz-adv-x="1171" 
d="M1034 0h-915l305 1434h143l-274 -1299h770zM825 981h-96l178 240h-90l47 211h183l-50 -218z" />
    <glyph glyph-name="lcaron" unicode="&#x13e;" horiz-adv-x="565" 
d="M213 0h-135l305 1434h135zM631 1020h-88l162 219h-80l41 193h165l-43 -199z" />
    <glyph glyph-name="Ldot" unicode="&#x13f;" horiz-adv-x="1173" 
d="M1034 0h-915l305 1434h143l-274 -1299h770zM975 641h-191l47 225h193z" />
    <glyph glyph-name="ldot" unicode="&#x140;" horiz-adv-x="755" 
d="M213 0h-135l305 1434h135zM739 594h-192l49 227h190z" />
    <glyph glyph-name="Lslash" unicode="&#x141;" horiz-adv-x="1228" 
d="M436 606l-100 -471h770l-29 -135h-915l110 516l-194 -106l31 149l194 109l164 766h143l-143 -676l534 295l-32 -152z" />
    <glyph glyph-name="lslash" unicode="&#x142;" horiz-adv-x="612" 
d="M453 893l194 123l-31 -146l-194 -122l-158 -748h-137l137 649l-168 -106l31 145l170 107l135 639h135z" />
    <glyph glyph-name="Nacute" unicode="&#x143;" horiz-adv-x="1617" 
d="M1083 1589h-114l202 266h209zM262 0h-143l305 1434h186l578 -1219q57 265 69 322l191 897h143l-305 -1434h-149l-605 1270q-3 -14 -75 -352z" />
    <glyph glyph-name="nacute" unicode="&#x144;" horiz-adv-x="1185" 
d="M788 1161h-102l184 264h189zM215 0h-137l215 1010h133q-6 -33 -21 -97.5t-20 -91.5q18 31 44 62t69 69t106 62t133 24q175 0 258 -122.5t41 -323.5l-127 -592h-137l127 592q33 156 -22.5 241t-180.5 85q-66 0 -124 -28.5t-98.5 -72t-73 -102.5t-51.5 -113.5t-30 -109.5z
" />
    <glyph glyph-name="uni0145" unicode="&#x145;" horiz-adv-x="1617" 
d="M262 0h-143l305 1434h186l578 -1219q57 265 69 322l191 897h143l-305 -1434h-149l-605 1270q-3 -14 -75 -352zM547 -604h-88l162 219h-80l41 192h166l-43 -198z" />
    <glyph glyph-name="uni0146" unicode="&#x146;" horiz-adv-x="1185" 
d="M215 0h-137l215 1010h133q-6 -33 -21 -97.5t-20 -91.5q18 31 44 62t69 69t106 62t133 24q175 0 258 -122.5t41 -323.5l-127 -592h-137l127 592q33 156 -22.5 241t-180.5 85q-66 0 -124 -28.5t-98.5 -72t-73 -102.5t-51.5 -113.5t-30 -109.5zM352 -604h-86l162 219h-82
l41 192h166l-43 -198z" />
    <glyph glyph-name="Ncaron" unicode="&#x147;" horiz-adv-x="1617" 
d="M1268 1831h153l-291 -244h-217l-178 244h142l155 -166zM262 0h-143l305 1434h186l578 -1219q57 265 69 322l191 897h143l-305 -1434h-149l-605 1270q-3 -14 -75 -352z" />
    <glyph glyph-name="ncaron" unicode="&#x148;" horiz-adv-x="1185" 
d="M844 1161h-197l-162 244h125l144 -168l213 168h141zM215 0h-137l215 1010h133q-6 -33 -21 -97.5t-20 -91.5q18 31 44 62t69 69t106 62t133 24q175 0 258 -122.5t41 -323.5l-127 -592h-137l127 592q33 156 -22.5 241t-180.5 85q-66 0 -124 -28.5t-98.5 -72t-73 -102.5
t-51.5 -113.5t-30 -109.5z" />
    <glyph glyph-name="Eng" unicode="&#x14a;" horiz-adv-x="1617" 
d="M918 -399h-105l27 129h90q76 0 125.5 46t68.5 128l21 94l-613 1272l-20 -94q-38 -174 -55 -258l-195 -918h-143l305 1434h186l582 -1209l20 101q8 34 22.5 101t20.5 95l193 912h143l-323 -1524q-35 -168 -121 -238.5t-229 -70.5z" />
    <glyph glyph-name="eng" unicode="&#x14b;" horiz-adv-x="1185" 
d="M590 -399h-174l26 123h160q57 0 90.5 28.5t46.5 89.5l160 750q33 156 -22.5 241t-180.5 85q-66 0 -124 -28.5t-98.5 -72t-73 -102.5t-51.5 -113.5t-30 -109.5l-104 -492h-137l215 1010h133q-6 -32 -41 -189q18 31 44 62t69 69t106 62t133 24q175 0 258 -122.5t41 -323.5
l-159 -760q-29 -128 -94 -179.5t-193 -51.5z" />
    <glyph glyph-name="Omacron" unicode="&#x14c;" horiz-adv-x="1652" 
d="M1391 1640h-674l24 107h674zM811 -27q-189 0 -335 76t-230 223t-84 344q0 228 99.5 421t277.5 308t395 115q187 0 333.5 -77.5t230 -225t83.5 -342.5q0 -172 -58.5 -327t-159.5 -268t-245 -180t-307 -67zM809 104q133 0 249.5 58t198 155t128.5 227.5t47 272.5
q0 147 -59 262.5t-173 182.5t-266 67q-178 0 -322 -99t-222.5 -261.5t-78.5 -352.5q0 -226 134.5 -369t363.5 -143z" />
    <glyph glyph-name="omacron" unicode="&#x14d;" horiz-adv-x="1148" 
d="M1022 1217h-612l24 108h613zM514 -27q-186 0 -301 118t-115 319q0 116 39 228.5t107 201.5t171 143.5t222 54.5q183 0 299.5 -118.5t116.5 -319.5q0 -118 -38 -230t-105.5 -200.5t-171 -142.5t-224.5 -54zM518 92q90 0 166 45t124.5 118t75.5 161.5t27 179.5
q0 156 -77.5 239t-202.5 83q-89 0 -165 -45t-124 -118t-75 -161.5t-27 -179.5q0 -156 77 -239t201 -83z" />
    <glyph glyph-name="Obreve" unicode="&#x14e;" horiz-adv-x="1652" 
d="M1059 1573q-147 0 -214 75.5t-48 184.5h114q-5 -74 34.5 -115t117.5 -41q77 0 134 41t85 115h131q-33 -111 -121 -185.5t-233 -74.5zM811 -27q-189 0 -335 76t-230 223t-84 344q0 228 99.5 421t277.5 308t395 115q187 0 333.5 -77.5t230 -225t83.5 -342.5
q0 -172 -58.5 -327t-159.5 -268t-245 -180t-307 -67zM809 104q133 0 249.5 58t198 155t128.5 227.5t47 272.5q0 147 -59 262.5t-173 182.5t-266 67q-178 0 -322 -99t-222.5 -261.5t-78.5 -352.5q0 -226 134.5 -369t363.5 -143z" />
    <glyph glyph-name="obreve" unicode="&#x14f;" horiz-adv-x="1148" 
d="M717 1145q-134 0 -195 75.5t-45 184.5h105q-5 -75 30 -115.5t107 -40.5q71 0 122.5 40.5t76.5 115.5h118q-30 -112 -109 -186t-210 -74zM514 -27q-186 0 -301 118t-115 319q0 116 39 228.5t107 201.5t171 143.5t222 54.5q183 0 299.5 -118.5t116.5 -319.5
q0 -118 -38 -230t-105.5 -200.5t-171 -142.5t-224.5 -54zM518 92q90 0 166 45t124.5 118t75.5 161.5t27 179.5q0 156 -77.5 239t-202.5 83q-89 0 -165 -45t-124 -118t-75 -161.5t-27 -179.5q0 -156 77 -239t201 -83z" />
    <glyph glyph-name="Ohungarumlaut" unicode="&#x150;" horiz-adv-x="1652" 
d="M901 1589h-108l200 266h209zM1231 1589h-111l201 266h209zM811 -27q-189 0 -335 76t-230 223t-84 344q0 228 99.5 421t277.5 308t395 115q187 0 333.5 -77.5t230 -225t83.5 -342.5q0 -172 -58.5 -327t-159.5 -268t-245 -180t-307 -67zM809 104q133 0 249.5 58t198 155
t128.5 227.5t47 272.5q0 147 -59 262.5t-173 182.5t-266 67q-178 0 -322 -99t-222.5 -261.5t-78.5 -352.5q0 -226 134.5 -369t363.5 -143z" />
    <glyph glyph-name="ohungarumlaut" unicode="&#x151;" horiz-adv-x="1148" 
d="M586 1161h-99l183 264h190zM887 1161h-101l183 264h190zM514 -27q-186 0 -301 118t-115 319q0 116 39 228.5t107 201.5t171 143.5t222 54.5q183 0 299.5 -118.5t116.5 -319.5q0 -118 -38 -230t-105.5 -200.5t-171 -142.5t-224.5 -54zM518 92q90 0 166 45t124.5 118
t75.5 161.5t27 179.5q0 156 -77.5 239t-202.5 83q-89 0 -165 -45t-124 -118t-75 -161.5t-27 -179.5q0 -156 77 -239t201 -83z" />
    <glyph glyph-name="OE" unicode="&#x152;" horiz-adv-x="2463" 
d="M776 -27q-133 0 -245 44.5t-193 127t-126.5 207t-45.5 277.5q0 227 97 417.5t268 302t378 111.5q212 0 357.5 -103t203.5 -282q53 260 74 359h1016l-27 -134h-872l-102 -479h647l-27 -129h-649l-117 -559h873l-29 -133h-1016l47 219q-196 -246 -512 -246zM795 104
q130 0 244 56.5t193 152t124 224t45 270.5q0 234 -129.5 378t-353.5 144q-172 0 -311 -96.5t-215.5 -256.5t-76.5 -349q0 -151 54 -268t164 -186t262 -69z" />
    <glyph glyph-name="oe" unicode="&#x153;" horiz-adv-x="1896" 
d="M518 -27q-187 0 -302.5 117.5t-115.5 325.5q0 116 38.5 227.5t106.5 199.5t168.5 141.5t215.5 53.5q140 0 241.5 -70t143.5 -200q70 126 172.5 198t236.5 72q91 0 164 -30t119 -82.5t71 -122t24 -152t-27 -168.5h-730q-32 -165 33 -279t213 -114q66 0 124.5 21t100.5 56
t71.5 71t49.5 75l119 -61q-156 -279 -467 -279q-131 0 -225 62.5t-131 189.5q-68 -116 -176 -184t-238 -68zM1067 592h590q27 143 -39 238.5t-203 95.5q-124 0 -216.5 -91.5t-131.5 -242.5zM524 92q90 0 166 45t124 117.5t74.5 161.5t26.5 180q0 155 -78.5 238.5
t-207.5 83.5q-70 0 -132.5 -30t-108 -80t-78.5 -115t-49.5 -135.5t-16.5 -139.5q0 -161 77 -243.5t203 -82.5z" />
    <glyph glyph-name="Racute" unicode="&#x154;" horiz-adv-x="1404" 
d="M930 1589h-113l203 266h207zM262 0h-143l305 1434h500q190 0 300.5 -99t110.5 -252q0 -93 -32.5 -169.5t-89 -126.5t-125 -80.5t-146.5 -40.5q112 -23 162 -96t65 -195l48 -375h-154l-37 358q-7 70 -21 114.5t-43 79.5t-79 50.5t-127 15.5h-361zM539 1300l-117 -552h389
q171 0 274 83.5t103 233.5q0 106 -73.5 170.5t-201.5 64.5h-374z" />
    <glyph glyph-name="racute" unicode="&#x155;" horiz-adv-x="808" 
d="M621 1161h-105l184 264h189zM215 0h-137l217 1010h131q-7 -36 -49 -232q22 42 53.5 81.5t77 79t107 63.5t128.5 24q78 0 134 -18l-29 -142q-88 17 -135 17q-155 0 -259.5 -124t-146.5 -325z" />
    <glyph glyph-name="uni0156" unicode="&#x156;" horiz-adv-x="1404" 
d="M262 0h-143l305 1434h500q190 0 300.5 -99t110.5 -252q0 -93 -32.5 -169.5t-89 -126.5t-125 -80.5t-146.5 -40.5q112 -23 162 -96t65 -195l48 -375h-154l-37 358q-7 70 -21 114.5t-43 79.5t-79 50.5t-127 15.5h-361zM539 1300l-117 -552h389q171 0 274 83.5t103 233.5
q0 106 -73.5 170.5t-201.5 64.5h-374zM494 -604h-88l161 219h-82l43 192h164l-43 -198z" />
    <glyph glyph-name="uni0157" unicode="&#x157;" horiz-adv-x="808" 
d="M215 0h-137l217 1010h131q-7 -36 -49 -232q22 42 53.5 81.5t77 79t107 63.5t128.5 24q78 0 134 -18l-29 -142q-88 17 -135 17q-155 0 -259.5 -124t-146.5 -325zM-6 -604h-88l162 219h-80l41 192h166l-43 -198z" />
    <glyph glyph-name="Rcaron" unicode="&#x158;" horiz-adv-x="1404" 
d="M1143 1831h153l-290 -244h-220l-176 244h142l155 -166zM262 0h-143l305 1434h500q190 0 300.5 -99t110.5 -252q0 -93 -32.5 -169.5t-89 -126.5t-125 -80.5t-146.5 -40.5q112 -23 162 -96t65 -195l48 -375h-154l-37 358q-7 70 -21 114.5t-43 79.5t-79 50.5t-127 15.5h-361
zM539 1300l-117 -552h389q171 0 274 83.5t103 233.5q0 106 -73.5 170.5t-201.5 64.5h-374z" />
    <glyph glyph-name="rcaron" unicode="&#x159;" horiz-adv-x="808" 
d="M684 1161h-199l-161 244h127l141 -168l215 168h141zM215 0h-137l217 1010h131q-7 -36 -49 -232q22 42 53.5 81.5t77 79t107 63.5t128.5 24q78 0 134 -18l-29 -142q-88 17 -135 17q-155 0 -259.5 -124t-146.5 -325z" />
    <glyph glyph-name="Sacute" unicode="&#x15a;" horiz-adv-x="1232" 
d="M885 1589h-113l203 266h207zM580 -27q-212 0 -350.5 104t-161.5 277l143 54q18 -134 117.5 -220t259.5 -86q163 0 262.5 81.5t99.5 207.5q0 99 -62.5 157.5t-185.5 96.5l-172 53q-276 84 -276 336q0 188 135 307t348 119q113 0 202 -32t142.5 -84t84 -107t42.5 -113
l-145 -47q-6 31 -18.5 62t-38.5 66.5t-61.5 62t-91.5 44t-124 17.5q-148 0 -239 -79t-91 -203q0 -83 52.5 -134t171.5 -88l170 -55q64 -20 118 -50.5t99 -74.5t70.5 -105t25.5 -134q0 -190 -142 -311.5t-384 -121.5z" />
    <glyph glyph-name="sacute" unicode="&#x15b;" horiz-adv-x="989" 
d="M668 1161h-105l185 264h190zM449 -27q-179 0 -291 81.5t-117 211.5l129 33q6 -92 77.5 -151.5t198.5 -59.5q124 0 193.5 52t69.5 134q0 65 -42 105t-132 65l-119 35q-121 34 -184.5 92t-63.5 164q0 132 105.5 217.5t267.5 85.5q165 0 262 -77.5t110 -190.5l-127 -35
q-10 78 -70.5 134.5t-174.5 56.5t-176 -51.5t-62 -122.5q0 -56 36 -90.5t120 -59.5l119 -35q272 -78 272 -276q0 -143 -108.5 -230.5t-292.5 -87.5z" />
    <glyph glyph-name="Scircumflex" unicode="&#x15c;" horiz-adv-x="1232" 
d="M637 1589h-154l291 246h219l176 -246h-141l-156 168zM580 -27q-212 0 -350.5 104t-161.5 277l143 54q18 -134 117.5 -220t259.5 -86q163 0 262.5 81.5t99.5 207.5q0 99 -62.5 157.5t-185.5 96.5l-172 53q-276 84 -276 336q0 188 135 307t348 119q113 0 202 -32t142.5 -84
t84 -107t42.5 -113l-145 -47q-6 31 -18.5 62t-38.5 66.5t-61.5 62t-91.5 44t-124 17.5q-148 0 -239 -79t-91 -203q0 -83 52.5 -134t171.5 -88l170 -55q64 -20 118 -50.5t99 -74.5t70.5 -105t25.5 -134q0 -190 -142 -311.5t-384 -121.5z" />
    <glyph glyph-name="scircumflex" unicode="&#x15d;" horiz-adv-x="989" 
d="M451 1161h-140l264 244h199l160 -244h-127l-141 166zM449 -27q-179 0 -291 81.5t-117 211.5l129 33q6 -92 77.5 -151.5t198.5 -59.5q124 0 193.5 52t69.5 134q0 65 -42 105t-132 65l-119 35q-121 34 -184.5 92t-63.5 164q0 132 105.5 217.5t267.5 85.5q165 0 262 -77.5
t110 -190.5l-127 -35q-10 78 -70.5 134.5t-174.5 56.5t-176 -51.5t-62 -122.5q0 -56 36 -90.5t120 -59.5l119 -35q272 -78 272 -276q0 -143 -108.5 -230.5t-292.5 -87.5z" />
    <glyph glyph-name="Scedilla" unicode="&#x15e;" horiz-adv-x="1232" 
d="M623 825l170 -55q64 -20 118 -50.5t99 -74.5t70.5 -105t25.5 -134q0 -185 -135 -306t-367 -127l-26 -20q-14 -13 -72 -59q16 4 35 4q69 0 116.5 -40.5t47.5 -101.5q0 -78 -60.5 -128t-169.5 -50q-69 0 -123 26t-84 66l68 74q52 -70 139 -70q58 0 89.5 21.5t31.5 60.5
q0 31 -25 50.5t-69 19.5q-42 0 -76 -12l-39 67l113 96q-181 20 -295.5 120.5t-136.5 256.5l143 54q18 -134 117.5 -220t259.5 -86q163 0 262.5 81.5t99.5 207.5q0 99 -62.5 157.5t-185.5 96.5l-172 53q-276 84 -276 336q0 188 135 307t348 119q113 0 202 -32t142.5 -84
t84 -107t42.5 -113l-145 -47q-6 31 -18.5 62t-38.5 66.5t-61.5 62t-91.5 44t-124 17.5q-148 0 -239 -79t-91 -203q0 -83 52.5 -134t171.5 -88z" />
    <glyph glyph-name="scedilla" unicode="&#x15f;" horiz-adv-x="989" 
d="M459 602l119 -35q272 -78 272 -276q0 -140 -104.5 -227.5t-282.5 -90.5l-27 -20q-22 -20 -71 -59q16 4 34 4q69 0 116.5 -40.5t47.5 -101.5q0 -78 -60 -128t-169 -50q-69 0 -123 26t-84 66l68 74q52 -70 139 -70q58 0 89.5 21.5t31.5 60.5q0 31 -25.5 50.5t-69.5 19.5
q-40 0 -75 -12l-39 67l114 99q-142 19 -228 96t-91 190l129 33q6 -92 77.5 -151.5t198.5 -59.5q124 0 193.5 52t69.5 134q0 65 -42 105t-132 65l-119 35q-121 34 -184.5 92t-63.5 164q0 132 105.5 217.5t267.5 85.5q165 0 262 -77.5t110 -190.5l-127 -35q-10 78 -70.5 134.5
t-174.5 56.5t-176 -51.5t-62 -122.5q0 -56 36 -90.5t120 -59.5z" />
    <glyph glyph-name="Scaron" unicode="&#x160;" horiz-adv-x="1232" 
d="M1069 1831h154l-291 -244h-217l-178 244h141l156 -166zM580 -27q-212 0 -350.5 104t-161.5 277l143 54q18 -134 117.5 -220t259.5 -86q163 0 262.5 81.5t99.5 207.5q0 99 -62.5 157.5t-185.5 96.5l-172 53q-276 84 -276 336q0 188 135 307t348 119q113 0 202 -32
t142.5 -84t84 -107t42.5 -113l-145 -47q-6 31 -18.5 62t-38.5 66.5t-61.5 62t-91.5 44t-124 17.5q-148 0 -239 -79t-91 -203q0 -83 52.5 -134t171.5 -88l170 -55q64 -20 118 -50.5t99 -74.5t70.5 -105t25.5 -134q0 -190 -142 -311.5t-384 -121.5z" />
    <glyph glyph-name="scaron" unicode="&#x161;" horiz-adv-x="993" 
d="M735 1161h-196l-162 244h125l141 -168l215 168h141zM449 -27q-179 0 -291 81.5t-117 211.5l129 33q6 -92 77.5 -151.5t198.5 -59.5q124 0 193.5 52t69.5 134q0 65 -42 105t-132 65l-119 35q-121 34 -184.5 92t-63.5 164q0 132 105.5 217.5t267.5 85.5q165 0 262 -77.5
t110 -190.5l-127 -35q-10 78 -70.5 134.5t-174.5 56.5t-176 -51.5t-62 -122.5q0 -56 36 -90.5t120 -59.5l119 -35q272 -78 272 -276q0 -143 -108.5 -230.5t-292.5 -87.5z" />
    <glyph glyph-name="uni0162" unicode="&#x162;" horiz-adv-x="1257" 
d="M199 1300l28 134h1200l-26 -134h-543l-274 -1300l-62 -47q-11 -10 -35.5 -30.5t-33.5 -28.5q14 4 34 4q68 0 115 -40.5t47 -101.5q0 -78 -59.5 -128t-169.5 -50q-69 0 -122 26t-83 66l66 74q52 -70 139 -70q58 0 90.5 22t32.5 60q0 31 -26 50.5t-68 19.5q-43 0 -78 -12
l-39 67l139 119h-33l277 1300h-516z" />
    <glyph glyph-name="uni0163" unicode="&#x163;" horiz-adv-x="790" 
d="M776 895h-284l-132 -614q-17 -84 14.5 -123t112.5 -39h201l-26 -119h-177l-59 -47q-14 -13 -72 -59q16 4 35 4q69 0 116.5 -40.5t47.5 -101.5q0 -78 -60 -128t-169 -50q-69 0 -123 26t-84 66l67 74q52 -70 140 -70q58 0 89 21.5t31 60.5q0 31 -25 50.5t-69 19.5
q-42 0 -76 -12l-38 67l149 127q-105 23 -144 98t-12 193l127 596h-247l26 115h244l65 305h138l-66 -305h287z" />
    <glyph glyph-name="Tcaron" unicode="&#x164;" horiz-adv-x="1257" 
d="M1081 1831h154l-291 -244h-219l-176 244h141l156 -166zM584 0h-146l277 1300h-516l28 134h1200l-26 -134h-543z" />
    <glyph glyph-name="tcaron" unicode="&#x165;" horiz-adv-x="790" 
d="M788 1100h-88l162 219h-82l43 192h166l-45 -198zM662 0h-189q-152 0 -213.5 79t-30.5 220l127 596h-247l26 115h244l65 305h138l-66 -305h287l-27 -115h-284l-132 -614q-17 -84 14.5 -123t112.5 -39h201z" />
    <glyph glyph-name="Tbar" unicode="&#x166;" horiz-adv-x="1296" 
d="M1448 1434l-29 -134h-542l-97 -456h338l-24 -115h-338l-154 -729h-145l155 729h-333l24 115h334l96 456h-516l29 134h1202z" />
    <glyph glyph-name="tbar" unicode="&#x167;" horiz-adv-x="819" 
d="M827 1010l-24 -115h-285l-51 -238h285l-25 -110h-283l-57 -266q-18 -84 13 -123t112 -39h201l-27 -119h-188q-151 0 -213 79.5t-31 219.5l53 248h-246l25 110h244l51 238h-246l25 115h246l65 305h135l-63 -305h284z" />
    <glyph glyph-name="Utilde" unicode="&#x168;" horiz-adv-x="1431" 
d="M1118 1579q-79 0 -157 55l-58 39q-49 41 -98 41q-48 0 -78 -31t-41 -84h-129q24 111 88 167.5t158 56.5q86 0 158 -51l55 -39q59 -43 96 -43q89 0 121 108h131q-51 -219 -246 -219zM637 -27q-252 0 -367.5 146t-56.5 416l190 899h146l-189 -879q-46 -213 22 -331
t255 -118q191 0 300 116t157 341l186 871h145l-192 -902q-60 -280 -203 -419.5t-393 -139.5z" />
    <glyph glyph-name="utilde" unicode="&#x169;" horiz-adv-x="1175" 
d="M864 1171q-72 0 -143 54l-51 41q-53 41 -90 41q-43 0 -70.5 -31t-38.5 -86h-117q21 112 79 167.5t145 55.5q79 0 141 -51l51 -39q53 -41 88 -41q84 0 109 109h118q-42 -220 -221 -220zM434 -27q-171 0 -249 122t-33 333l124 582h138l-125 -594q-32 -152 16 -237t170 -85
q75 0 139 35t110 96.5t78 136t50 160.5l104 488h138l-215 -1010h-134q8 39 22.5 104t20.5 91q-136 -222 -354 -222z" />
    <glyph glyph-name="Umacron" unicode="&#x16a;" horiz-adv-x="1431" 
d="M1290 1640h-672l25 107h674zM637 -27q-252 0 -367.5 146t-56.5 416l190 899h146l-189 -879q-46 -213 22 -331t255 -118q191 0 300 116t157 341l186 871h145l-192 -902q-60 -280 -203 -419.5t-393 -139.5z" />
    <glyph glyph-name="umacron" unicode="&#x16b;" horiz-adv-x="1169" 
d="M1030 1217h-612l24 108h613zM434 -27q-171 0 -249 122t-33 333l124 582h138l-125 -594q-32 -152 16 -237t170 -85q75 0 139 35t110 96.5t78 136t50 160.5l104 488h138l-215 -1010h-134q8 39 22.5 104t20.5 91q-136 -222 -354 -222z" />
    <glyph glyph-name="Ubreve" unicode="&#x16c;" horiz-adv-x="1431" 
d="M961 1573q-148 0 -215.5 76t-47.5 184h115q-6 -74 33 -115t117 -41t135.5 41t85.5 115h129q-31 -111 -119 -185.5t-233 -74.5zM637 -27q-252 0 -367.5 146t-56.5 416l190 899h146l-189 -879q-46 -213 22 -331t255 -118q191 0 300 116t157 341l186 871h145l-192 -902
q-60 -280 -203 -419.5t-393 -139.5z" />
    <glyph glyph-name="ubreve" unicode="&#x16d;" horiz-adv-x="1169" 
d="M725 1145q-134 0 -195 76t-43 184h105q-6 -75 29 -115.5t106 -40.5t123.5 40.5t77.5 115.5h116q-28 -112 -107.5 -186t-211.5 -74zM434 -27q-171 0 -249 122t-33 333l124 582h138l-125 -594q-32 -152 16 -237t170 -85q75 0 139 35t110 96.5t78 136t50 160.5l104 488h138
l-215 -1010h-134q8 39 22.5 104t20.5 91q-136 -222 -354 -222z" />
    <glyph glyph-name="Uring" unicode="&#x16e;" horiz-adv-x="1431" 
d="M946 1563q-92 0 -151.5 57.5t-59.5 140.5q0 106 72 179t180 73q90 0 148.5 -58.5t58.5 -142.5q0 -107 -71.5 -178t-176.5 -71zM952 1655q59 0 98.5 45.5t39.5 105.5q0 48 -30.5 80.5t-80.5 32.5q-61 0 -101 -44t-40 -103q0 -53 30.5 -85t83.5 -32zM637 -27
q-252 0 -367.5 146t-56.5 416l190 899h146l-189 -879q-46 -213 22 -331t255 -118q191 0 300 116t157 341l186 871h145l-192 -902q-60 -280 -203 -419.5t-393 -139.5z" />
    <glyph glyph-name="uring" unicode="&#x16f;" horiz-adv-x="1169" 
d="M711 1120q-88 0 -144.5 55.5t-56.5 135.5q0 101 68 169t172 68q86 0 142 -56t56 -134q0 -102 -68.5 -170t-168.5 -68zM717 1208q56 0 93.5 43.5t37.5 100.5q0 47 -29 77.5t-78 30.5q-57 0 -95 -42t-38 -99q0 -50 29.5 -80.5t79.5 -30.5zM434 -27q-171 0 -249 122t-33 333
l124 582h138l-125 -594q-32 -152 16 -237t170 -85q75 0 139 35t110 96.5t78 136t50 160.5l104 488h138l-215 -1010h-134q8 39 22.5 104t20.5 91q-136 -222 -354 -222z" />
    <glyph glyph-name="Uhungarumlaut" unicode="&#x170;" horiz-adv-x="1431" 
d="M803 1589h-109l201 266h209zM1133 1589h-111l203 266h207zM637 -27q-252 0 -367.5 146t-56.5 416l190 899h146l-189 -879q-46 -213 22 -331t255 -118q191 0 300 116t157 341l186 871h145l-192 -902q-60 -280 -203 -419.5t-393 -139.5z" />
    <glyph glyph-name="uhungarumlaut" unicode="&#x171;" horiz-adv-x="1169" 
d="M596 1161h-100l184 264h188zM895 1161h-100l184 264h188zM434 -27q-171 0 -249 122t-33 333l124 582h138l-125 -594q-32 -152 16 -237t170 -85q75 0 139 35t110 96.5t78 136t50 160.5l104 488h138l-215 -1010h-134q8 39 22.5 104t20.5 91q-136 -222 -354 -222z" />
    <glyph glyph-name="Uogonek" unicode="&#x172;" horiz-adv-x="1431" 
d="M647 -408q-87 0 -135 44.5t-43 119.5q9 119 158 217q-247 3 -359 147t-55 415l190 899h146l-189 -879q-46 -213 22 -331t255 -118q191 0 300 116t157 341l186 871h145l-192 -902q-47 -219 -142 -349t-249 -185q-124 -43 -186 -97t-68 -110q-10 -86 92 -86q36 0 94 14
l-22 -110q-55 -17 -105 -17z" />
    <glyph glyph-name="uogonek" unicode="&#x173;" horiz-adv-x="1169" 
d="M1094 1010l-215 -1010q-233 -92 -246 -209q-10 -86 92 -86q35 0 96 14l-24 -110q-55 -17 -105 -17q-87 0 -135 44.5t-43 119.5q8 144 236 264q6 32 19.5 90t18.5 85q-136 -222 -354 -222q-171 0 -249 122t-33 333l124 582h138l-125 -594q-32 -152 16 -237t170 -85
q75 0 139 35t110 96.5t78 136t50 160.5l104 488h138z" />
    <glyph glyph-name="Wcircumflex" unicode="&#x174;" horiz-adv-x="1976" 
d="M1018 1589h-154l291 246h217l178 -246h-141l-156 168zM528 0h-196l-39 1434h145l19 -918q5 -274 10 -356q37 80 174 354l457 920h172l59 -914q9 -179 23 -360q57 120 161 356l418 918h158l-668 -1434h-190l-64 913l-18 334q-30 -57 -166 -332z" />
    <glyph glyph-name="wcircumflex" unicode="&#x175;" horiz-adv-x="1656" 
d="M784 1161h-139l264 244h197l162 -244h-129l-142 166zM453 0h-160l-123 1010h135l53 -514q16 -162 37 -357q91 170 183 348l272 523h158l49 -518q21 -225 35 -351q33 60 186 351l278 518h148l-555 -1010h-164l-55 571q-6 67 -15.5 164.5t-11.5 124.5q-41 -74 -153 -293z
" />
    <glyph glyph-name="Ycircumflex" unicode="&#x176;" horiz-adv-x="1312" 
d="M680 1589h-154l291 246h219l176 -246h-141l-156 168zM623 0h-144l131 616l-336 818h160l205 -514l63 -160q86 103 134 166l409 508h182l-673 -813z" />
    <glyph glyph-name="ycircumflex" unicode="&#x177;" horiz-adv-x="1028" 
d="M799 1161l-142 166l-213 -166h-139l264 244h197l162 -244h-129zM600 436l320 574h151l-657 -1170q-52 -94 -96.5 -143t-103.5 -72.5t-148 -23.5h-177l27 123h154q70 0 117 28t94 109l98 174l-227 975h145l123 -572q48 -223 51 -235q58 100 129 233z" />
    <glyph glyph-name="Ydieresis" unicode="&#x178;" horiz-adv-x="1312" 
d="M754 1591h-168l43 183h168zM1163 1591h-168l43 183h166zM623 0h-144l131 616l-336 818h160l205 -514l63 -160q86 103 134 166l409 508h182l-673 -813z" />
    <glyph glyph-name="Zacute" unicode="&#x179;" horiz-adv-x="1218" 
d="M881 1589h-115l203 266h209zM1049 0h-1080l33 164l1104 1136h-207h-606l29 134h999l-31 -144l-1122 -1157h221h688z" />
    <glyph glyph-name="zacute" unicode="&#x17a;" horiz-adv-x="972" 
d="M668 1161h-103l185 264h188zM793 0h-811l26 121l758 770h-203h-379l27 119h770l-23 -103l-774 -788h219h414z" />
    <glyph glyph-name="Zdotaccent" unicode="&#x17b;" horiz-adv-x="1218" 
d="M903 1591h-143l45 209h143zM1049 0h-1080l33 164l1104 1136h-207h-606l29 134h999l-31 -144l-1122 -1157h221h688z" />
    <glyph glyph-name="zdotaccent" unicode="&#x17c;" horiz-adv-x="972" 
d="M702 1225h-143l45 209h144zM793 0h-811l26 121l758 770h-203h-379l27 119h770l-23 -103l-774 -788h219h414z" />
    <glyph glyph-name="Zcaron" unicode="&#x17d;" horiz-adv-x="1218" 
d="M1063 1831h151l-288 -244h-219l-177 244h142l153 -166zM1049 0h-1080l33 164l1104 1136h-207h-606l29 134h999l-31 -144l-1122 -1157h221h688z" />
    <glyph glyph-name="zcaron" unicode="&#x17e;" horiz-adv-x="972" 
d="M723 1161h-197l-161 244h124l144 -168l213 168h141zM793 0h-811l26 121l758 770h-203h-379l27 119h770l-23 -103l-774 -788h219h414z" />
    <glyph glyph-name="florin" unicode="&#x192;" horiz-adv-x="950" 
d="M-133 -422q-108 0 -174 31l26 125q67 -33 146 -33q77 0 145 52t109 165l194 510q77 198 115 307h-180h-88l24 115h287l111 297q61 159 148 236t226 77q86 0 148 -22l-27 -127q-55 18 -121 18q-94 0 -150 -53t-97 -170l-95 -256h269l-27 -115h-285l-313 -827
q-66 -179 -161.5 -254.5t-229.5 -75.5z" />
    <glyph glyph-name="AEacute" unicode="&#x1fc;" horiz-adv-x="1888" 
d="M1624 1855h207l-297 -266h-113zM1985 1434l-29 -134h-707l-102 -483h520l-27 -129h-522l-117 -555h707l-29 -133h-848l91 422h-521l-335 -422h-185l1159 1434h945zM948 553l96 455q30 145 66 309q-205 -255 -279 -352l-327 -412h444z" />
    <glyph glyph-name="aeacute" unicode="&#x1fd;" horiz-adv-x="1761" 
d="M1036 1161h-104l184 264h191zM373 -27q-134 0 -216.5 70t-82.5 195q0 87 40 156.5t107.5 115.5t162 76.5t197.5 44t220 14.5l10 43q23 100 -37.5 166t-191.5 66q-222 0 -318 -189l-123 55q20 45 54.5 86.5t87.5 80.5t131.5 62t171.5 23q132 0 216.5 -52.5t117.5 -145.5
q62 92 158 145t214 53q86 0 157 -29t117 -80t73 -121t25 -152t-26 -173h-731q-20 -80 -10 -151.5t40 -125t87 -85t133 -31.5q65 0 122 20.5t99 55.5t71 71t50 76l121 -61q-159 -279 -467 -279q-134 0 -231.5 65.5t-128.5 190.5q-57 -111 -166 -183.5t-254 -72.5zM928 592
h594q25 144 -40.5 239t-199.5 95q-125 0 -219 -91.5t-135 -242.5zM401 88q56 0 110 19.5t103.5 59t87.5 107t56 154.5l22 115q-81 0 -155.5 -7.5t-151 -28.5t-132 -53t-91 -85t-35.5 -121t51.5 -114t134.5 -46z" />
    <glyph glyph-name="Oslashacute" unicode="&#x1fe;" horiz-adv-x="1652" 
d="M1104 1589h-115l203 266h209zM367 129l-172 -174l-95 92l179 178q-117 161 -117 391q0 170 59 325t160.5 269.5t246 182t306.5 67.5q257 0 434 -147l174 174l92 -92l-176 -176q125 -170 125 -404q0 -172 -58.5 -326.5t-159.5 -268t-245.5 -180.5t-308.5 -67
q-271 0 -444 156zM389 332l633 637q39 38 121 119.5t125 123.5q-133 117 -334 117q-178 0 -322 -99t-222.5 -261.5t-78.5 -352.5q0 -157 78 -284zM811 104q132 0 249 58t198.5 155t128.5 227.5t47 272.5q0 163 -82 295l-676 -678q-36 -35 -104 -103t-103 -102
q128 -125 342 -125z" />
    <glyph glyph-name="oslashacute" unicode="&#x1ff;" horiz-adv-x="1150" 
d="M719 1161h-103l185 264h188zM514 -27q-171 0 -285 103l-114 -117l-74 74l123 123q-66 109 -66 254q0 116 39 228.5t107 201.5t171 143.5t222 54.5q180 0 293 -116l112 112l72 -71l-119 -119q58 -116 58 -244q0 -118 -38 -230t-105.5 -200.5t-171 -142.5t-224.5 -54z
M270 260l426 428l140 141q-71 89 -203 89q-90 0 -166.5 -45t-125.5 -118t-76 -161.5t-27 -179.5q0 -81 32 -154zM520 92q89 0 165 45t124 118t75 161.5t27 179.5q0 73 -24 143l-404 -409q-93 -96 -159 -160q75 -78 196 -78z" />
    <glyph glyph-name="uni0218" unicode="&#x218;" horiz-adv-x="1232" 
d="M580 -27q-212 0 -350.5 104t-161.5 277l143 54q18 -134 117.5 -220t259.5 -86q163 0 262.5 81.5t99.5 207.5q0 99 -62.5 157.5t-185.5 96.5l-172 53q-276 84 -276 336q0 188 135 307t348 119q113 0 202 -32t142.5 -84t84 -107t42.5 -113l-145 -47q-6 31 -18.5 62
t-38.5 66.5t-61.5 62t-91.5 44t-124 17.5q-148 0 -239 -79t-91 -203q0 -83 52.5 -134t171.5 -88l170 -55q64 -20 118 -50.5t99 -74.5t70.5 -105t25.5 -134q0 -190 -142 -311.5t-384 -121.5zM414 -604h-88l161 219h-79l41 192h165l-43 -198z" />
    <glyph glyph-name="uni0219" unicode="&#x219;" horiz-adv-x="989" 
d="M449 -27q-179 0 -291 81.5t-117 211.5l129 33q6 -92 77.5 -151.5t198.5 -59.5q124 0 193.5 52t69.5 134q0 65 -42 105t-132 65l-119 35q-121 34 -184.5 92t-63.5 164q0 132 105.5 217.5t267.5 85.5q165 0 262 -77.5t110 -190.5l-127 -35q-10 78 -70.5 134.5t-174.5 56.5
t-176 -51.5t-62 -122.5q0 -56 36 -90.5t120 -59.5l119 -35q272 -78 272 -276q0 -143 -108.5 -230.5t-292.5 -87.5zM258 -604h-88l162 219h-80l41 192h166l-45 -198z" />
    <glyph glyph-name="uni021A" unicode="&#x21a;" horiz-adv-x="1257" 
d="M584 0h-146l277 1300h-516l28 134h1200l-26 -134h-543zM356 -604h-88l162 219h-82l43 192h166l-45 -198z" />
    <glyph glyph-name="uni021B" unicode="&#x21b;" horiz-adv-x="790" 
d="M662 0h-189q-152 0 -213.5 79t-30.5 220l127 596h-247l26 115h244l65 305h138l-66 -305h287l-27 -115h-284l-132 -614q-17 -84 14.5 -123t112.5 -39h201zM248 -604h-88l162 219h-80l41 192h166l-46 -198z" />
    <glyph glyph-name="uni0226" unicode="&#x226;" horiz-adv-x="1380" 
d="M899 1800h143l-45 -209h-143zM1214 0h-153l-62 420h-645l-239 -420h-166l842 1434h198zM692 1012l-262 -461h549l-68 459q-27 197 -43 303q-85 -144 -176 -301z" />
    <glyph glyph-name="uni0227" unicode="&#x227;" horiz-adv-x="1097" 
d="M715 1225h-142l43 209h144zM377 -27q-133 0 -216 68t-83 199q0 108 59 188.5t162.5 127t230.5 69t277 22.5l6 31q20 106 -38.5 174t-199.5 68q-65 0 -120 -18t-91 -48t-59 -60t-37 -63l-125 55q15 40 47.5 80.5t84 81t131.5 65.5t174 25q199 0 299.5 -107t60.5 -296
l-90 -426q-11 -47 3.5 -68.5t59.5 -21.5h95l-25 -119h-102q-93 0 -131.5 49.5t-28.5 120.5q-57 -90 -144.5 -143.5t-199.5 -53.5zM408 88q115 0 217 90.5t135 253.5l24 111q-109 0 -206 -16t-180 -48.5t-132 -91.5t-49 -137q0 -76 52 -119t139 -43z" />
    <glyph glyph-name="uni0232" unicode="&#x232;" horiz-adv-x="1312" 
d="M1231 1640h-672l25 107h673zM623 0h-144l131 616l-336 818h160l205 -514l63 -160q86 103 134 166l409 508h182l-673 -813z" />
    <glyph glyph-name="uni0233" unicode="&#x233;" horiz-adv-x="1028" 
d="M354 1325h613l-25 -108h-612zM600 436l320 574h151l-657 -1170q-52 -94 -96.5 -143t-103.5 -72.5t-148 -23.5h-177l27 123h154q70 0 117 28t94 109l98 174l-227 975h145l123 -572q48 -223 51 -235q58 100 129 233z" />
    <glyph glyph-name="uni0237" unicode="&#x237;" horiz-adv-x="520" 
d="M-90 -399h-174l26 123h136q137 0 170 151l241 1135h135l-243 -1151q-29 -133 -99 -195.5t-192 -62.5z" />
    <glyph glyph-name="circumflex" unicode="&#x2c6;" horiz-adv-x="823" 
d="M379 1161h-139l264 244h196l162 -244h-129l-141 166z" />
    <glyph glyph-name="caron" unicode="&#x2c7;" horiz-adv-x="823" 
d="M649 1161h-198l-160 244h125l141 -168l215 168h141z" />
    <glyph glyph-name="breve" unicode="&#x2d8;" horiz-adv-x="757" 
d="M528 1145q-134 0 -194.5 75.5t-42.5 184.5h104q-6 -75 29 -115.5t106 -40.5q72 0 124 40.5t77 115.5h119q-30 -112 -110 -186t-212 -74z" />
    <glyph glyph-name="dotaccent" unicode="&#x2d9;" horiz-adv-x="505" 
d="M477 1225h-143l45 209h143z" />
    <glyph glyph-name="ring" unicode="&#x2da;" horiz-adv-x="612" 
d="M465 1120q-88 0 -144.5 55.5t-56.5 135.5q0 101 68 169t172 68q86 0 141 -55.5t55 -134.5q0 -102 -68 -170t-167 -68zM471 1208q56 0 93.5 43.5t37.5 100.5q0 47 -29 77.5t-77 30.5q-58 0 -96 -42t-38 -99q0 -50 28.5 -80.5t80.5 -30.5z" />
    <glyph glyph-name="ogonek" unicode="&#x2db;" horiz-adv-x="520" 
d="M125 -408q-87 0 -135 44.5t-43 119.5q4 84 84.5 159.5t216.5 135.5l63 -51q-233 -92 -243 -209q-5 -42 16.5 -64t73.5 -22q35 0 96 14l-25 -110q-52 -17 -104 -17z" />
    <glyph glyph-name="tilde" unicode="&#x2dc;" horiz-adv-x="821" 
d="M721 1171q-72 0 -143 54l-52 41q-50 41 -90 41q-85 0 -108 -117h-117q21 112 78.5 167.5t144.5 55.5q79 0 141 -51l52 -39q53 -41 88 -41q82 0 110 109h119q-45 -220 -223 -220z" />
    <glyph glyph-name="hungarumlaut" unicode="&#x2dd;" horiz-adv-x="776" 
d="M340 1161h-98l182 264h188zM639 1161h-100l184 264h188z" />
    <glyph glyph-name="uni0394" unicode="&#x394;" horiz-adv-x="1380" 
d="M791 1434h198l228 -1434h-1268zM694 1012l-501 -879h849l-129 877q-25 188 -45 303q-153 -263 -174 -301z" />
    <glyph glyph-name="uni03A9" unicode="&#x3a9;" horiz-adv-x="1638" 
d="M604 0h-543l27 133h102h265q-131 71 -203 200.5t-72 313.5q0 160 54.5 308t150.5 260t235.5 178.5t299.5 66.5q278 0 449 -167t171 -437q0 -244 -130 -442t-345 -281h203h127l-29 -133h-565l33 154q113 11 216 72.5t178 154.5t119 214.5t44 248.5q0 216 -129 351.5
t-344 135.5q-170 0 -306.5 -97t-210 -256.5t-73.5 -346.5q0 -185 82.5 -310.5t226.5 -168.5z" />
    <glyph glyph-name="uni03BC" unicode="&#x3bc;" horiz-adv-x="1177" 
d="M121 -399h-135l299 1409h137l-129 -611q-31 -148 21.5 -226.5t168.5 -78.5q75 0 139 35t110 96.5t78 136t50 160.5l105 488h137l-215 -1010h-133q8 39 22.5 104t20.5 91q-15 -24 -30.5 -45.5t-49.5 -56.5t-70 -59t-91 -42.5t-114 -18.5q-151 0 -221 101z" />
    <glyph glyph-name="pi" unicode="&#x3c0;" horiz-adv-x="1261" 
d="M289 0h-135l190 891h-227l24 119h1129l-27 -119h-229l-142 -662q-10 -56 9.5 -83t79.5 -27h133l-27 -119h-133q-117 0 -168 61.5t-29 163.5l142 666h-398z" />
    <glyph glyph-name="Wgrave" unicode="&#x1e80;" horiz-adv-x="1976" 
d="M1245 1589h-92l-174 266h190zM528 0h-196l-39 1434h145l19 -918q5 -274 10 -356q37 80 174 354l457 920h172l59 -914q9 -179 23 -360q57 120 161 356l418 918h158l-668 -1434h-190l-64 913l-18 334q-30 -57 -166 -332z" />
    <glyph glyph-name="wgrave" unicode="&#x1e81;" horiz-adv-x="1656" 
d="M983 1161h-84l-158 264h172zM453 0h-160l-123 1010h135l53 -514q16 -162 37 -357q91 170 183 348l272 523h158l49 -518q21 -225 35 -351q33 60 186 351l278 518h148l-555 -1010h-164l-55 571q-6 67 -15.5 164.5t-11.5 124.5q-41 -74 -153 -293z" />
    <glyph glyph-name="Wacute" unicode="&#x1e82;" horiz-adv-x="1976" 
d="M1266 1589h-113l201 266h209zM528 0h-196l-39 1434h145l19 -918q5 -274 10 -356q37 80 174 354l457 920h172l59 -914q9 -179 23 -360q57 120 161 356l418 918h158l-668 -1434h-190l-64 913l-18 334q-30 -57 -166 -332z" />
    <glyph glyph-name="wacute" unicode="&#x1e83;" horiz-adv-x="1656" 
d="M1014 1161h-103l183 264h190zM453 0h-160l-123 1010h135l53 -514q16 -162 37 -357q91 170 183 348l272 523h158l49 -518q21 -225 35 -351q33 60 186 351l278 518h148l-555 -1010h-164l-55 571q-6 67 -15.5 164.5t-11.5 124.5q-41 -74 -153 -293z" />
    <glyph glyph-name="Wdieresis" unicode="&#x1e84;" horiz-adv-x="1976" 
d="M1090 1591h-166l41 183h168zM1499 1591h-168l43 183h168zM528 0h-196l-39 1434h145l19 -918q5 -274 10 -356q37 80 174 354l457 920h172l59 -914q9 -179 23 -360q57 120 161 356l418 918h158l-668 -1434h-190l-64 913l-18 334q-30 -57 -166 -332z" />
    <glyph glyph-name="wdieresis" unicode="&#x1e85;" horiz-adv-x="1656" 
d="M864 1219h-151l39 182h151zM1237 1219h-152l37 182h154zM453 0h-160l-123 1010h135l53 -514q16 -162 37 -357q91 170 183 348l272 523h158l49 -518q21 -225 35 -351q33 60 186 351l278 518h148l-555 -1010h-164l-55 571q-6 67 -15.5 164.5t-11.5 124.5q-41 -74 -153 -293
z" />
    <glyph glyph-name="uni1E9E" unicode="&#x1e9e;" horiz-adv-x="1452" 
d="M766 -29q-108 0 -205.5 26t-150.5 75l30 139q120 -105 322 -105q176 0 283.5 89t107.5 229q0 112 -79 182t-220 70h-223l28 133h197q160 0 256 76.5t96 208.5q0 98 -69.5 152t-194.5 54h-405l-277 -1300h-143l305 1434h547q173 0 280 -87.5t107 -234.5q0 -133 -82 -232.5
t-221 -136.5q111 -32 181.5 -118t70.5 -207q0 -93 -36.5 -174.5t-104 -142t-170.5 -95.5t-230 -35z" />
    <glyph glyph-name="Ygrave" unicode="&#x1ef2;" horiz-adv-x="1312" 
d="M926 1589h-92l-175 266h191zM623 0h-144l131 616l-336 818h160l205 -514l63 -160q86 103 134 166l409 508h182l-673 -813z" />
    <glyph glyph-name="ygrave" unicode="&#x1ef3;" horiz-adv-x="1028" 
d="M596 1425l70 -264h-82l-160 264h172zM600 436l320 574h151l-657 -1170q-52 -94 -96.5 -143t-103.5 -72.5t-148 -23.5h-177l27 123h154q70 0 117 28t94 109l98 174l-227 975h145l123 -572q48 -223 51 -235q58 100 129 233z" />
    <glyph glyph-name="uni2002" unicode="&#x2002;" horiz-adv-x="1024" 
 />
    <glyph glyph-name="uni2003" unicode="&#x2003;" horiz-adv-x="2048" 
 />
    <glyph glyph-name="uni2009" unicode="&#x2009;" horiz-adv-x="256" 
 />
    <glyph glyph-name="uni200A" unicode="&#x200a;" horiz-adv-x="153" 
 />
    <glyph glyph-name="endash" unicode="&#x2013;" horiz-adv-x="1249" 
d="M1104 567h-936l27 125h935z" />
    <glyph glyph-name="emdash" unicode="&#x2014;" horiz-adv-x="1970" 
d="M1825 567h-1657l27 125h1656z" />
    <glyph glyph-name="quoteleft" unicode="&#x2018;" horiz-adv-x="491" 
d="M463 1434h96l-178 -244h90l-47 -215h-182l47 221z" />
    <glyph glyph-name="quoteright" unicode="&#x2019;" horiz-adv-x="481" 
d="M332 975h-96l178 246h-90l47 215h182l-49 -222z" />
    <glyph glyph-name="quotesinglbase" unicode="&#x201a;" horiz-adv-x="509" 
d="M84 -246h-96l178 246h-90l47 215h182l-49 -221z" />
    <glyph glyph-name="quotedblleft" unicode="&#x201c;" horiz-adv-x="829" 
d="M463 1434h96l-178 -244h90l-47 -215h-182l47 221zM799 1434h98l-180 -244h90l-45 -215h-182l47 221z" />
    <glyph glyph-name="quotedblright" unicode="&#x201d;" horiz-adv-x="817" 
d="M332 975h-96l178 246h-90l47 215h182l-49 -222zM670 975h-99l181 246h-90l45 215h182l-47 -222z" />
    <glyph glyph-name="quotedblbase" unicode="&#x201e;" horiz-adv-x="847" 
d="M84 -246h-96l178 246h-90l47 215h182l-49 -221zM422 -246h-96l178 246h-90l45 215h184l-49 -221z" />
    <glyph glyph-name="dagger" unicode="&#x2020;" horiz-adv-x="1128" 
d="M717 -219h-144v1079h-407v131h407v443h144v-443h407v-131h-407v-1079z" />
    <glyph glyph-name="daggerdbl" unicode="&#x2021;" horiz-adv-x="1265" 
d="M727 -219h-143v442h-408v131h408v506h-408v131h408v443h143v-443h408v-131h-408v-506h408v-131h-408v-442z" />
    <glyph glyph-name="bullet" unicode="&#x2022;" horiz-adv-x="1064" 
d="M575 354q-150 0 -258 107.5t-108 255.5q0 153 107.5 260.5t258.5 107.5t259 -107.5t108 -260.5q0 -148 -108.5 -255.5t-258.5 -107.5z" />
    <glyph glyph-name="ellipsis" unicode="&#x2026;" horiz-adv-x="1490" 
d="M254 0h-193l50 225h190zM748 0h-191l47 225h193zM1241 0h-190l49 225h190z" />
    <glyph glyph-name="perthousand" unicode="&#x2030;" horiz-adv-x="2371" 
d="M487 610q-140 0 -218.5 89t-78.5 247q0 131 46.5 245t134 185.5t196.5 71.5q136 0 215.5 -91.5t79.5 -248.5q0 -131 -46 -244t-133 -183.5t-196 -70.5zM236 0l1302 1434h156l-1299 -1434h-159zM565 1343q-70 0 -128.5 -58.5t-90 -149t-31.5 -189.5q0 -112 45 -171.5
t129 -59.5q105 0 177.5 120t72.5 273q0 110 -47 172.5t-127 62.5zM1980 827q136 0 215.5 -91.5t79.5 -248.5q0 -132 -45.5 -244.5t-132 -182.5t-196.5 -70q-93 0 -161 41.5t-102 118.5q-111 -160 -278 -160q-140 0 -218.5 89t-78.5 247q0 131 46.5 245t134 185t196.5 71
q92 0 159 -42.5t101 -120.5q113 163 280 163zM1362 94q105 0 177.5 120t72.5 273q0 110 -47 173t-129 63q-69 0 -127 -58.5t-89.5 -149t-31.5 -189.5q0 -112 45 -172t129 -60zM1903 94q105 0 177 120t72 273q0 110 -47 173t-127 63q-70 0 -128 -58.5t-89.5 -149
t-31.5 -189.5q0 -112 45 -172t129 -60z" />
    <glyph glyph-name="guilsinglleft" unicode="&#x2039;" horiz-adv-x="634" 
d="M459 938h157l-364 -436l168 -406h-137l-177 420z" />
    <glyph glyph-name="guilsinglright" unicode="&#x203a;" horiz-adv-x="634" 
d="M219 938h139l177 -420l-353 -422h-157l364 436z" />
    <glyph glyph-name="fraction" unicode="&#x2044;" horiz-adv-x="372" 
d="M-342 0h-160l1303 1434h155z" />
    <glyph glyph-name="uni2070" unicode="&#x2070;" horiz-adv-x="864" 
d="M545 797q-140 0 -218.5 89t-78.5 247q0 130 46.5 244.5t133.5 185.5t195 71q138 0 217.5 -91.5t79.5 -248.5q0 -131 -46 -244t-133 -183t-196 -70zM547 901q105 0 177.5 120t72.5 273q0 110 -47 173t-129 63q-69 0 -127 -58.5t-89.5 -149t-31.5 -189.5
q0 -113 44.5 -172.5t129.5 -59.5z" />
    <glyph glyph-name="uni2074" unicode="&#x2074;" horiz-adv-x="753" 
d="M623 811h-115l47 219h-373l23 103l430 487h160l-103 -490h121l-22 -100h-121zM504 1130h71l29 132l47 227l-317 -359h170z" />
    <glyph glyph-name="uni2075" unicode="&#x2075;" horiz-adv-x="761" 
d="M481 797q-120 0 -195 60.5t-81 164.5l121 29q2 -70 42 -110t113 -40q80 0 130.5 53.5t50.5 139.5q0 63 -38.5 101t-101.5 38q-51 0 -87 -22t-70 -74l-121 30l149 453h471l-20 -107h-371l-45 -141q-2 -8 -13 -41.5t-18 -58.5q58 61 156 61q103 0 168 -66.5t65 -168.5
q0 -134 -84.5 -217.5t-220.5 -83.5z" />
    <glyph glyph-name="uni2076" unicode="&#x2076;" horiz-adv-x="784" 
d="M516 797q-130 0 -201 80t-71 225q0 237 122 384.5t318 147.5q113 0 193 -39l-23 -110q-88 41 -176 41q-113 0 -189 -71.5t-106 -199.5q66 86 188 86q107 0 176.5 -67.5t69.5 -173.5q0 -130 -86 -216.5t-215 -86.5zM514 901q75 0 125.5 54.5t50.5 136.5q0 69 -38.5 109
t-104.5 40q-73 0 -124.5 -56t-51.5 -136q0 -67 39 -107.5t104 -40.5z" />
    <glyph glyph-name="uni2077" unicode="&#x2077;" horiz-adv-x="677" 
d="M397 811h-133q49 441 414 702h-113h-284l22 107h553l-22 -102q-217 -148 -315.5 -316.5t-121.5 -390.5z" />
    <glyph glyph-name="uni2078" unicode="&#x2078;" horiz-adv-x="772" 
d="M487 797q-123 0 -196.5 60t-73.5 161q0 79 53.5 141.5t141.5 87.5q-101 52 -101 152q0 103 78.5 169t200.5 66q109 0 178.5 -57.5t69.5 -146.5q0 -71 -43.5 -127t-122.5 -82q55 -28 84.5 -73t29.5 -99q0 -108 -85.5 -180t-213.5 -72zM559 1280q68 0 112 38.5t44 98.5
q0 52 -35 83.5t-94 31.5q-67 0 -110.5 -39t-43.5 -100q0 -52 35 -82.5t92 -30.5zM487 899q75 0 125 44t50 110q0 60 -40 95.5t-108 35.5q-74 0 -123 -45t-49 -111q0 -60 39 -94.5t106 -34.5z" />
    <glyph glyph-name="uni2079" unicode="&#x2079;" horiz-adv-x="790" 
d="M418 797q-125 0 -201 43l25 112q67 -45 170 -45q118 0 192 68q90 79 111 205q-33 -43 -83 -65.5t-106 -22.5q-114 0 -184 67.5t-70 175.5q0 130 82.5 214.5t210.5 84.5q129 0 201 -84q82 -88 82 -241q0 -231 -117.5 -371.5t-312.5 -140.5zM541 1194q75 0 125.5 51
t50.5 127q0 67 -43.5 112.5t-106.5 45.5q-74 0 -122 -52.5t-48 -134.5q0 -67 39.5 -108t104.5 -41z" />
    <glyph glyph-name="uni20A9" unicode="&#x20a9;" horiz-adv-x="2107" 
d="M1991 1434h157l-239 -514h192l-24 -109h-217l-91 -193h205l-22 -110h-234l-235 -508h-195l-33 508h-415l-252 -508h-195l-14 508h-229l22 110h203l-4 193h-221l24 109h193l-15 514h144l10 -514h397l254 514h172l33 -514h395zM1063 956l-19 -36h185l-2 28l-19 307
q-71 -150 -145 -299zM848 811h-340l4 -193h242zM991 811l-96 -193h352l-12 193h-244zM1382 618h238l88 193h-338zM522 152l176 356h-184q4 -119 8 -356zM1411 152q14 32 71 156.5t89 199.5h-182q5 -110 22 -356z" />
    <glyph glyph-name="Euro" unicode="&#x20ac;" horiz-adv-x="1419" 
d="M750 -27q-223 0 -344.5 142t-124.5 399h-189l23 115h168q3 93 32 202h-155l22 115h170q83 229 238.5 371.5t361.5 142.5q99 0 179.5 -27.5t130 -70t84.5 -99t50 -108.5t19 -104l-145 -35q-3 39 -12 77.5t-31.5 83.5t-56 78t-90.5 55.5t-130 22.5q-148 0 -262.5 -107
t-181.5 -280h262h211l-23 -115h-489q-34 -112 -37 -202h483l-24 -115h-205h-256q2 -196 85 -304t237 -108q148 0 256 99t159 243l131 -55q-27 -76 -71.5 -146t-110.5 -132.5t-160.5 -100t-203.5 -37.5z" />
    <glyph glyph-name="uni20B9" unicode="&#x20b9;" horiz-adv-x="1171" 
d="M1264 1434l-25 -119h-152h-245q58 -25 96 -79.5t49 -125.5h209l-27 -117h-184q-23 -121 -120 -211t-242 -108q65 -11 108 -36.5t66 -68t33.5 -88t15.5 -112.5l31 -369h-156l-25 381q-8 126 -71.5 181.5t-204.5 55.5h-273l29 132h313q142 0 239.5 66t123.5 177h-625
l25 117h608q-12 98 -85 151.5t-195 53.5h-285l24 119h945z" />
    <glyph glyph-name="uni20BA" unicode="&#x20ba;" horiz-adv-x="1222" 
d="M391 0h-180l72 336q4 22 43 203q-13 -6 -69 -34t-81 -40l-67 -35l30 143l215 109l33 154l-217 -107l31 141l217 109l96 455h143l-39 -191l-38 -184q118 60 192 96l301 152l-31 -146l-493 -248l-33 -149l496 248l-31 -144l-498 -250l-100 -483h35q35 0 73.5 4.5t90 18
t100.5 35t101.5 57.5t96.5 82.5t82.5 114.5t61.5 149l133 -61q-32 -111 -97 -206.5t-159.5 -169.5t-225.5 -116.5t-284 -42.5z" />
    <glyph glyph-name="uni20BD" unicode="&#x20bd;" horiz-adv-x="1261" 
d="M758 596h-326l-37 -176h391l-26 -119h-391l-64 -301h-143l63 301h-157l22 119h160l39 176h-160l27 125h157l152 713h373q212 0 328 -104.5t116 -268.5q0 -208 -145.5 -336.5t-378.5 -128.5zM831 1300h-249l-123 -579h289q177 0 281 93t104 245q0 103 -79.5 172t-222.5 69
z" />
    <glyph glyph-name="uni20BF" unicode="&#x20bf;" horiz-adv-x="1347" 
d="M981 741q101 -24 172.5 -106t71.5 -205q0 -183 -140 -306.5t-360 -123.5l-47 -215h-115l47 215h-151l-47 -215h-115l45 215h-223l305 1434h221l47 213h117l-47 -213h141h8l47 213h115l-47 -226q122 -28 192 -110t70 -203q0 -132 -83.5 -231t-223.5 -136zM879 1300h-340
l-105 -491h357q156 0 252 76.5t96 204.5q0 101 -68 155.5t-192 54.5zM291 133h426q160 0 259 86.5t99 224.5q0 106 -74 171t-208 65h-385z" />
    <glyph glyph-name="uni2113" unicode="&#x2113;" horiz-adv-x="958" 
d="M446 -27q-71 0 -127 19.5t-95 60.5t-51.5 103.5t3.5 148.5l29 133q-70 -12 -150 -12l27 119q54 2 151 18l129 596q12 57 34 106.5t57.5 95.5t92 72.5t126.5 26.5q136 0 220.5 -86t84.5 -231q0 -115 -48.5 -224t-132.5 -195t-197.5 -152t-244.5 -103l-37 -184
q-19 -96 17 -141.5t106 -45.5q71 0 134.5 49.5t101.5 159.5l131 -65q-47 -133 -145.5 -201t-215.5 -68zM385 604q198 72 321 215.5t123 325.5q0 91 -44.5 141.5t-112.5 50.5q-40 0 -70.5 -16t-51 -45.5t-32.5 -62t-22 -74.5l-56 -273q-34 -149 -55 -262z" />
    <glyph glyph-name="uni2116" unicode="&#x2116;" horiz-adv-x="2408" 
d="M2005 592q-158 0 -250 93.5t-92 262.5q0 92 29 181.5t82 162t136 117.5t183 45q154 0 248 -98.5t94 -265.5q0 -75 -17.5 -147t-53.5 -135.5t-86.5 -111.5t-121 -76t-151.5 -28zM268 0h-143l305 1434h186l580 -1219q38 174 68 322l192 897h141l-303 -1434h-149l-606 1270
q-5 -27 -27 -125t-49 -227zM2007 698q90 0 159.5 57.5t103.5 146.5t34 192q0 121 -58.5 187.5t-158.5 66.5q-68 0 -125 -36.5t-92.5 -95.5t-55.5 -130t-20 -144q0 -119 56.5 -181.5t156.5 -62.5z" />
    <glyph glyph-name="uni2117" unicode="&#x2117;" horiz-adv-x="1835" 
d="M969 -61q-221 0 -404 105t-287 285.5t-104 395.5q0 161 61.5 307.5t166.5 253t253 169.5t314 63q164 0 310.5 -63t250.5 -169.5t164.5 -253t60.5 -307.5t-60.5 -306.5t-164.5 -250.5t-250.5 -167t-310.5 -62zM967 45q143 0 269 53.5t214 145t139 216.5t51 265t-51 266.5
t-139 219t-214 146.5t-269 54q-144 0 -270 -54t-215 -146.5t-140 -219t-51 -266.5t51 -265t140 -216.5t215 -145t270 -53.5zM831 326h-108v821h313q60 0 113 -15.5t96 -46.5t68.5 -83t25.5 -119q0 -89 -44 -150.5t-110 -88t-147 -26.5h-207v-292zM831 1051v-340h175
q223 0 223 172q0 168 -225 168h-173z" />
    <glyph glyph-name="trademark" unicode="&#x2122;" horiz-adv-x="1785" 
d="M473 662h-117l144 667h-252l20 105h623l-21 -105h-256zM961 662h-115l166 772h178l49 -408l29 -229q108 205 121 231l215 406h190l-164 -772h-114l71 331q16 78 32.5 155.5t25.5 118t12 58.5l-357 -663h-114l-84 659q-19 -81 -76 -348z" />
    <glyph glyph-name="uni2126" unicode="&#x2126;" horiz-adv-x="1699" 
d="M772 0h-539v133h105h244q-182 73 -283.5 232t-101.5 378q0 155 51 288t140 227.5t215.5 148t273.5 53.5q195 0 349 -91.5t240 -255t86 -370.5q0 -219 -100.5 -378t-280.5 -232h240h105v-133h-543v154q200 38 314 195.5t114 389.5q0 166 -63 299t-184 212t-280 79
t-280 -79t-183.5 -212t-62.5 -299q0 -231 113.5 -388t310.5 -197v-154z" />
    <glyph glyph-name="uni2153" unicode="&#x2153;" horiz-adv-x="1644" 
d="M229 0h-159l1302 1434h158zM432 625h-121l82 383q9 43 26.5 123.5t24.5 115.5q-102 -111 -235 -117l24 113q153 20 273 191h98zM1210 -14q-130 0 -203 71t-65 191l127 24q-10 -84 28 -133t113 -49q71 0 116.5 42.5t45.5 107.5q0 58 -37.5 91.5t-99.5 33.5h-72l23 102h71
q77 0 122.5 37.5t45.5 103.5q0 49 -35.5 81t-91.5 32q-67 0 -107.5 -42.5t-45.5 -115.5l-121 29q14 106 90 168.5t191 62.5q106 0 174.5 -57.5t68.5 -147.5q0 -75 -42.5 -129.5t-125.5 -80.5q58 -25 87.5 -70.5t29.5 -101.5q0 -109 -80.5 -179.5t-206.5 -70.5z" />
    <glyph glyph-name="uni2154" unicode="&#x2154;" horiz-adv-x="1824" 
d="M688 625h-543l25 112q135 77 219.5 131.5t151 111.5t95 109.5t28.5 110.5q0 64 -38 103.5t-100 39.5q-72 0 -114.5 -52.5t-42.5 -143.5l-123 27q8 126 85 200t201 74q112 0 184 -67.5t72 -172.5q0 -135 -131 -260q-97 -97 -317 -217h283h88zM412 0h-160l1302 1434h156z
M1393 -14q-131 0 -203.5 71t-65.5 191l127 24q-10 -84 28.5 -133t113.5 -49q71 0 116 42.5t45 107.5q0 58 -37.5 91.5t-99.5 33.5h-71l22 102h72q77 0 122.5 37.5t45.5 103.5q0 49 -35.5 81t-91.5 32q-67 0 -109 -43t-45 -115l-123 29q13 106 90 168.5t193 62.5
q106 0 174 -57.5t68 -147.5q0 -76 -42 -130t-126 -80q59 -25 88.5 -70.5t29.5 -101.5q0 -109 -81 -179.5t-205 -70.5z" />
    <glyph glyph-name="uni2155" unicode="&#x2155;" horiz-adv-x="1677" 
d="M229 0h-159l1302 1434h158zM432 625h-121l82 383q9 43 26.5 123.5t24.5 115.5q-102 -111 -235 -117l24 113q153 20 273 191h98zM1223 -14q-119 0 -194 60.5t-81 164.5l119 29q2 -69 43 -109.5t113 -40.5q80 0 130 53.5t50 139.5q0 63 -37.5 101t-99.5 38q-54 0 -90 -21.5
t-68 -74.5l-121 30l148 453h473l-23 -104h-371l-43 -144q-6 -15 -32 -100q58 61 155 61q104 0 170 -66.5t66 -168.5q0 -132 -85.5 -216.5t-221.5 -84.5z" />
    <glyph glyph-name="uni2156" unicode="&#x2156;" horiz-adv-x="1855" 
d="M686 625h-543l25 112q135 77 219.5 131.5t151 111.5t95 109.5t28.5 110.5q0 64 -38 103.5t-100 39.5q-72 0 -114.5 -52.5t-42.5 -143.5l-123 27q7 126 84 200t200 74q114 0 186 -67.5t72 -172.5q0 -135 -131 -260q-97 -97 -317 -217h280h91zM410 0h-160l1304 1434h156z
M1403 -14q-119 0 -194 60.5t-81 164.5l119 29q2 -69 43 -109.5t113 -40.5q80 0 131 53.5t51 139.5q0 63 -38 101t-101 38q-52 0 -89.5 -21.5t-68.5 -74.5l-121 30l150 453h471l-23 -104h-368l-45 -144q-12 -32 -33 -100q58 61 156 61q104 0 169.5 -66.5t65.5 -168.5
q0 -133 -85 -217t-222 -84z" />
    <glyph glyph-name="uni2157" unicode="&#x2157;" horiz-adv-x="1857" 
d="M434 610q-130 0 -203 71t-65 191l127 23q-10 -83 28 -131.5t115 -48.5q71 0 115.5 41.5t44.5 107.5q0 58 -37.5 91.5t-99.5 33.5h-72l25 103h69q77 0 122.5 37.5t45.5 103.5q0 50 -35 81.5t-90 31.5q-68 0 -109 -43t-46 -115l-121 29q14 106 89.5 168.5t190.5 62.5
q106 0 175 -57.5t69 -147.5q0 -75 -42.5 -130t-125.5 -81q58 -25 87.5 -70.5t29.5 -101.5q0 -109 -80.5 -179.5t-206.5 -70.5zM395 0h-157l1302 1434h156zM1391 -14q-119 0 -194 60.5t-81 164.5l119 29q2 -69 43 -109.5t113 -40.5q80 0 130 53.5t50 139.5q0 63 -37.5 101
t-99.5 38q-54 0 -90 -21.5t-68 -74.5l-121 30l148 453h473l-23 -104h-371l-43 -144q-6 -15 -32 -100q58 61 155 61q104 0 170 -66.5t66 -168.5q0 -132 -85.5 -216.5t-221.5 -84.5z" />
    <glyph glyph-name="uni2158" unicode="&#x2158;" horiz-adv-x="1855" 
d="M588 625h-115l45 219h-371l21 102l432 488h160l-103 -490h119l-20 -100h-123zM401 0h-159l1302 1434h156zM467 944h74l26 131q9 38 25.5 117t23.5 111l-317 -359h168zM1397 -14q-121 0 -196 60.5t-81 164.5l119 29q2 -70 43.5 -110t114.5 -40q79 0 129.5 53.5t50.5 139.5
q0 63 -38 101t-101 38q-52 0 -89.5 -21.5t-68.5 -74.5l-121 30l150 453h471l-23 -104h-368l-46 -144l-32 -100q61 61 155 61q105 0 170.5 -66.5t65.5 -168.5q0 -133 -84.5 -217t-220.5 -84z" />
    <glyph glyph-name="uni2159" unicode="&#x2159;" horiz-adv-x="1705" 
d="M229 0h-159l1302 1434h158zM432 625h-121l82 383q9 43 26.5 123.5t24.5 115.5q-102 -111 -235 -117l24 113q153 20 273 191h98zM1245 -14q-129 0 -200.5 80t-71.5 225q0 237 122 384.5t318 147.5q115 0 195 -39l-23 -110q-92 41 -176 41q-113 0 -190 -72t-107 -199
q70 88 191 88q107 0 175 -68t68 -173q0 -132 -86 -218.5t-215 -86.5zM1243 90q75 0 125.5 55.5t50.5 135.5q0 69 -38 109t-103 40q-74 0 -125 -55.5t-51 -136.5q0 -67 39 -107.5t102 -40.5z" />
    <glyph glyph-name="uni215A" unicode="&#x215a;" horiz-adv-x="1853" 
d="M434 610q-120 0 -195 61t-81 165l118 28q2 -69 43.5 -109t114.5 -40q79 0 129.5 53t50.5 139q0 63 -38 101.5t-101 38.5q-52 0 -89 -22.5t-69 -74.5l-120 31l149 453h471l-22 -107h-369l-45 -141l-33 -101q62 62 156 62q105 0 170 -67t65 -169q0 -134 -84.5 -217.5
t-220.5 -83.5zM397 0h-159l1302 1434h156zM1415 -14q-130 0 -201 80t-71 225q0 237 121 384.5t317 147.5q115 0 195 -39l-23 -110q-92 41 -176 41q-113 0 -190 -72t-107 -199q70 88 190 88q107 0 176.5 -68.5t69.5 -172.5q0 -131 -86.5 -218t-214.5 -87zM1411 90
q75 0 126.5 55.5t51.5 135.5q0 69 -38.5 109t-104.5 40q-74 0 -125 -55.5t-51 -136.5q0 -67 39 -107.5t102 -40.5z" />
    <glyph glyph-name="oneeighth" unicode="&#x215b;" horiz-adv-x="1658" 
d="M229 0h-159l1302 1434h158zM432 625h-121l82 383q9 43 26.5 123.5t24.5 115.5q-102 -111 -235 -117l24 113q153 20 273 191h98zM1210 -14q-121 0 -194.5 60.5t-73.5 160.5q0 79 53.5 141.5t141.5 87.5q-101 52 -101 152q0 103 78.5 169t200.5 66q109 0 178.5 -58
t69.5 -147q0 -70 -44 -125t-124 -81q114 -58 114 -174q0 -109 -85 -180.5t-214 -71.5zM1284 469q67 0 110.5 39.5t43.5 99.5q0 52 -34 82.5t-93 30.5q-67 0 -110.5 -38.5t-43.5 -98.5q0 -52 35 -83.5t92 -31.5zM1212 88q75 0 124.5 44t49.5 110q0 60 -40 95.5t-107 35.5
q-74 0 -123 -45t-49 -111q0 -60 39 -94.5t106 -34.5z" />
    <glyph glyph-name="threeeighths" unicode="&#x215c;" horiz-adv-x="1822" 
d="M434 610q-130 0 -203 71t-65 191l127 23q-10 -83 28 -131.5t115 -48.5q71 0 115.5 41.5t44.5 107.5q0 58 -37.5 91.5t-99.5 33.5h-72l25 103h69q77 0 122.5 37.5t45.5 103.5q0 50 -35 81.5t-90 31.5q-68 0 -109 -43t-46 -115l-121 29q14 106 89.5 168.5t190.5 62.5
q106 0 175 -57.5t69 -147.5q0 -75 -42.5 -130t-125.5 -81q58 -25 87.5 -70.5t29.5 -101.5q0 -109 -80.5 -179.5t-206.5 -70.5zM395 0h-157l1302 1434h156zM1378 -14q-123 0 -196.5 60.5t-73.5 160.5q0 79 54 141.5t141 87.5q-99 51 -99 152q0 103 78.5 169t198.5 66
q109 0 178.5 -58t69.5 -147q0 -71 -43 -125.5t-123 -80.5q114 -58 114 -174q0 -108 -85.5 -180t-213.5 -72zM1452 469q66 0 110 39.5t44 99.5q0 52 -35 82.5t-94 30.5q-66 0 -110 -38.5t-44 -98.5q0 -52 35 -83.5t94 -31.5zM1378 88q76 0 125 44t49 110q0 60 -39.5 95.5
t-105.5 35.5q-75 0 -124.5 -45t-49.5 -111q0 -60 39 -94.5t106 -34.5z" />
    <glyph glyph-name="fiveeighths" unicode="&#x215d;" horiz-adv-x="1824" 
d="M434 610q-120 0 -195 61t-81 165l118 28q2 -69 43.5 -109t114.5 -40q79 0 129.5 53t50.5 139q0 63 -38 101.5t-101 38.5q-52 0 -89 -22.5t-69 -74.5l-120 31l149 453h471l-22 -107h-369l-45 -141l-33 -101q62 62 156 62q105 0 170 -67t65 -169q0 -134 -84.5 -217.5
t-220.5 -83.5zM397 0h-159l1302 1434h156zM1378 -14q-123 0 -195.5 60.5t-72.5 160.5q0 79 53.5 141.5t141.5 87.5q-101 50 -101 152q0 103 78.5 169t200.5 66q107 0 176.5 -58t69.5 -147q0 -71 -43 -125.5t-123 -80.5q114 -58 114 -174q0 -109 -85 -180.5t-214 -71.5z
M1452 469q67 0 110.5 39.5t43.5 99.5q0 52 -34 82.5t-93 30.5q-67 0 -110.5 -38.5t-43.5 -98.5q0 -53 34.5 -84t92.5 -31zM1378 88q76 0 125 44t49 110q0 60 -39 95.5t-106 35.5q-74 0 -123 -45t-49 -111q0 -60 38.5 -94.5t104.5 -34.5z" />
    <glyph glyph-name="seveneighths" unicode="&#x215e;" horiz-adv-x="1622" 
d="M195 0h-160l1302 1434h156zM375 625h-133q49 442 413 702h-112h-285l23 107h553l-23 -103q-217 -148 -315 -316t-121 -390zM1176 -14q-123 0 -196 60.5t-73 160.5q0 79 53.5 141.5t141.5 87.5q-101 50 -101 152q0 103 78.5 169t200.5 66q107 0 176.5 -58t69.5 -147
q0 -71 -43 -125.5t-123 -80.5q115 -59 115 -174q0 -109 -85 -180.5t-214 -71.5zM1249 469q67 0 110.5 39.5t43.5 99.5q0 52 -34 82.5t-93 30.5q-67 0 -110.5 -38.5t-43.5 -98.5q0 -53 34.5 -84t92.5 -31zM1176 88q76 0 125 44t49 110q0 60 -39.5 95.5t-106.5 35.5
q-74 0 -123 -45t-49 -111q0 -60 39 -94.5t105 -34.5z" />
    <glyph glyph-name="uni215F" unicode="&#x215f;" horiz-adv-x="710" 
d="M221 0h-160l1303 1434h156zM424 625h-121l82 383q7 31 25 113t28 126q-105 -111 -237 -117l24 113q153 20 273 191h98z" />
    <glyph glyph-name="arrowleft" unicode="&#x2190;" horiz-adv-x="1734" 
d="M1688 784v-137h-1295q27 -28 174 -176l236 -233l-98 -97l-570 576l570 573l98 -96l-236 -233q-134 -134 -174 -177h1295z" />
    <glyph glyph-name="arrowup" unicode="&#x2191;" horiz-adv-x="1273" 
d="M805 0h-139v1296q-27 -26 -86 -86t-88 -88l-234 -237l-96 98l573 569l576 -569l-97 -98l-235 235q-133 138 -174 176v-1296z" />
    <glyph glyph-name="arrowright" unicode="&#x2192;" horiz-adv-x="1730" 
d="M135 647v139h1297q-24 25 -53 54.5t-66 65.5t-56 55l-235 233l98 98l570 -575l-570 -576l-98 99l233 233q150 145 177 174h-1297z" />
    <glyph glyph-name="arrowdown" unicode="&#x2193;" horiz-adv-x="1273" 
d="M559 1434h139v-1297q31 29 90.5 89.5t83.5 84.5l234 238l98 -98l-575 -570l-576 570l97 98l235 -236q14 -14 77.5 -79.5t96.5 -96.5v1297z" />
    <glyph glyph-name="uni2196" unicode="&#x2196;" horiz-adv-x="1462" 
d="M512 1298l870 -870l-98 -96l-868 870v-250v-329h-135v811h809v-136h-330h-248z" />
    <glyph glyph-name="uni2197" unicode="&#x2197;" horiz-adv-x="1243" 
d="M1038 1202l-870 -870l-96 96l870 870h-250h-330v136h812v-809h-136v327v250z" />
    <glyph glyph-name="uni2198" unicode="&#x2198;" horiz-adv-x="1456" 
d="M1028 135l-870 871l96 96l868 -871v250v330h138v-811h-811v135h329h250z" />
    <glyph glyph-name="uni2199" unicode="&#x2199;" horiz-adv-x="1214" 
d="M289 231l868 871l98 -96l-870 -871h248h330v-135h-811v809h137v-328v-250z" />
    <glyph glyph-name="uni21A4" unicode="&#x21a4;" horiz-adv-x="1869" 
d="M1552 786v424h131v-985h-131v422h-1163q55 -59 176 -176l234 -231l-99 -99l-569 576l569 575l99 -98l-234 -231q-112 -109 -176 -177h1163z" />
    <glyph glyph-name="uni21A5" unicode="&#x21a5;" horiz-adv-x="1398" 
d="M809 1296v-1163h424v-133h-985v133h422v1163q-60 -57 -176 -178l-232 -233l-98 98l575 569l576 -569l-96 -98l-234 233q-117 121 -176 178z" />
    <glyph glyph-name="uni21A6" unicode="&#x21a6;" horiz-adv-x="1869" 
d="M1163 1194l99 98l567 -575l-567 -576l-99 99l234 231q19 19 55.5 55t66.5 66t54 55h-1163v-424h-134v985h134v-422h1163q-28 28 -176 177z" />
    <glyph glyph-name="uni21A7" unicode="&#x21a7;" horiz-adv-x="1400" 
d="M997 315l232 234l96 -98l-573 -570l-576 570l96 98l232 -234q20 -20 56.5 -57t66.5 -67t55 -54v1163h-424v134h985v-134h-424v-1163q25 24 55 54t66.5 67t56.5 57z" />
    <glyph glyph-name="uni21B0" unicode="&#x21b0;" horiz-adv-x="1855" 
d="M383 786h1296v-786h-141v647h-1155q24 -25 53 -54.5t65.5 -65t55.5 -54.5l236 -233l-99 -99l-569 576l569 575l99 -98l-234 -233q-131 -126 -176 -175z" />
    <glyph glyph-name="uni21B1" unicode="&#x21b1;" horiz-adv-x="1726" 
d="M1034 1194l99 98l569 -575l-569 -576l-99 99l236 233q19 19 55.5 54.5t65.5 65t53 54.5h-1155v-647h-139v786h1294q-13 14 -174 175z" />
    <glyph glyph-name="uni21B2" unicode="&#x21b2;" horiz-adv-x="1728" 
d="M1530 786v648h139v-787h-1294q24 -25 53 -54.5t65.5 -65t55.5 -54.5l235 -233l-98 -99l-569 576l569 575l98 -98l-235 -233q-161 -161 -174 -175h1155z" />
    <glyph glyph-name="uni21B3" unicode="&#x21b3;" horiz-adv-x="1855" 
d="M1155 1194l96 98l572 -575l-572 -576l-96 99l234 233q140 135 176 174h-1297v787h142v-648h1155q-13 14 -174 175z" />
    <glyph glyph-name="partialdiff" unicode="&#x2202;" 
d="M643 -27q-117 0 -210.5 40.5t-151.5 109t-88.5 155.5t-30.5 185q0 125 51 227t156 166t247 64q136 0 247 -73t155 -208q6 336 -140.5 511t-402.5 175q-121 0 -233 -39v141q104 33 245 33t256 -44.5t191.5 -120t128 -178t74 -214t22.5 -233.5q0 -180 -39 -316t-109.5 -218
t-162.5 -122.5t-205 -40.5zM643 100q141 0 236.5 95.5t95.5 250.5q0 156 -95.5 252.5t-236.5 96.5q-143 0 -236.5 -93t-93.5 -253t94 -254.5t236 -94.5z" />
    <glyph glyph-name="uni2206" unicode="&#x2206;" horiz-adv-x="1406" 
d="M565 1434h197l534 -1434h-1269zM549 1012l-318 -879h856l-317 877l-111 303q-67 -184 -110 -301z" />
    <glyph glyph-name="product" unicode="&#x220f;" horiz-adv-x="1607" 
d="M246 1434h1276v-134h-195v-1519h-143v1519h-600v-1519h-144v1519h-194v134z" />
    <glyph glyph-name="summation" unicode="&#x2211;" horiz-adv-x="1423" 
d="M1219 -219h-971v135l555 688l-549 682v148h954v-131h-479h-307l561 -697l-561 -694h307h490v-131z" />
    <glyph glyph-name="minus" unicode="&#x2212;" horiz-adv-x="1443" 
d="M1307 657h-1088v131h1088v-131z" />
    <glyph glyph-name="uni2215" unicode="&#x2215;" horiz-adv-x="706" 
d="M-4 -219h-143l950 1874h143z" />
    <glyph glyph-name="radical" unicode="&#x221a;" horiz-adv-x="1243" 
d="M758 -219h-183l-305 883h-196v131h299l184 -557q86 -259 111 -332q65 201 108 332l385 1196h150z" />
    <glyph glyph-name="infinity" unicode="&#x221e;" horiz-adv-x="1755" 
d="M537 350q-151 0 -259 109t-108 266q0 158 108 267.5t259 109.5q111 0 207 -58t180 -198q86 141 180 198.5t207 57.5q150 0 256 -109t106 -268q0 -157 -106 -266t-256 -109q-116 0 -209.5 57.5t-177.5 196.5q-157 -254 -387 -254zM549 473q90 0 156 58.5t149 195.5
q-77 131 -145.5 191.5t-159.5 60.5q-109 0 -177.5 -75t-68.5 -179q0 -103 68.5 -177.5t177.5 -74.5zM1296 473q109 0 177.5 74.5t68.5 177.5q0 104 -68.5 179t-177.5 75q-90 0 -158 -60t-147 -192q83 -137 149 -195.5t156 -58.5z" />
    <glyph glyph-name="integral" unicode="&#x222b;" horiz-adv-x="671" 
d="M164 -399h-187v127h166q59 0 92 35t33 102v1313q0 111 59.5 183.5t186.5 72.5h188v-127h-176q-53 0 -84.5 -39t-31.5 -107v-1304q0 -112 -60 -184t-186 -72z" />
    <glyph glyph-name="approxequal" unicode="&#x2248;" horiz-adv-x="1368" 
d="M946 815q-80 0 -209 57l-63 29q-113 49 -174 49q-103 0 -203 -108l-82 98q128 147 293 147q90 0 205 -55l65 -28q115 -50 176 -50q102 0 203 109l80 -100q-63 -73 -141 -110.5t-150 -37.5zM946 365q-80 0 -209 57l-63 29q-113 49 -174 49q-102 0 -203 -109l-82 98
q65 75 142 111.5t151 36.5q90 0 205 -55l65 -29q113 -49 176 -49q103 0 203 108l80 -100q-63 -73 -141 -110t-150 -37z" />
    <glyph glyph-name="notequal" unicode="&#x2260;" horiz-adv-x="1540" 
d="M537 164h-150l174 278h-311v131h389l88 144l94 149h-205h-366v131h653l164 269h147l-165 -269h303v-131h-383l-92 -149q-14 -21 -44.5 -70.5t-46.5 -73.5h189h377v-131h-643z" />
    <glyph glyph-name="lessequal" unicode="&#x2264;" horiz-adv-x="1439" 
d="M1286 528v-145l-1100 344v203l1100 348v-141l-680 -211q-183 -54 -330 -95q114 -35 330 -92zM1286 172h-1100v133h1100v-133z" />
    <glyph glyph-name="greaterequal" unicode="&#x2265;" horiz-adv-x="1495" 
d="M1346 727l-1100 -344v141l680 209q75 21 183.5 52.5t145.5 41.5q-5 1 -127 36.5t-202 56.5l-680 213v145l1100 -346v-205zM1346 172h-1100v133h1100v-133z" />
    <glyph glyph-name="angleleft" unicode="&#x2329;" horiz-adv-x="669" 
d="M731 1567l100 -72l-612 -889l232 -895l-123 -39l-244 949z" />
    <glyph glyph-name="angleright" unicode="&#x232a;" horiz-adv-x="667" 
d="M270 1528l123 39l244 -949l-647 -946l-101 72l611 887z" />
    <glyph glyph-name="uni2460" unicode="&#x2460;" horiz-adv-x="1808" 
d="M909 -57q-214 0 -384.5 91t-267.5 257t-97 379q0 173 64 328.5t174 268.5t265 179.5t330 66.5q214 0 385 -92t268 -258.5t97 -378.5q0 -173 -64 -328.5t-174.5 -268t-265.5 -178.5t-330 -66zM905 49q200 0 365.5 96.5t260.5 265t95 373.5q0 272 -175 447.5t-454 175.5
q-200 0 -366 -97t-261.5 -266t-95.5 -374q0 -178 79 -319.5t223 -221.5t329 -80zM963 324h-123l82 385q9 40 26.5 119.5t26.5 119.5q-107 -113 -238 -119l25 115q156 20 272 191h99z" />
    <glyph glyph-name="uni2461" unicode="&#x2461;" horiz-adv-x="1808" 
d="M909 -57q-214 0 -384.5 91t-267.5 257t-97 379q0 173 64 328.5t174 268.5t265 179.5t330 66.5q214 0 385 -92t268 -258.5t97 -378.5q0 -173 -64 -328.5t-174.5 -268t-265.5 -178.5t-330 -66zM905 49q200 0 365.5 96.5t260.5 265t95 373.5q0 272 -175 447.5t-454 175.5
q-200 0 -366 -97t-261.5 -266t-95.5 -374q0 -178 79 -319.5t223 -221.5t329 -80zM1153 324h-543l23 112q271 153 383 252.5t112 210.5q0 64 -38.5 103.5t-100.5 39.5q-71 0 -114 -53t-44 -143l-122 26q9 127 86 201t200 74q112 0 185 -68t73 -172q0 -136 -133 -260
q-94 -97 -315 -217h280h91z" />
    <glyph glyph-name="uni2462" unicode="&#x2462;" horiz-adv-x="1808" 
d="M909 -57q-214 0 -384.5 91t-267.5 257t-97 379q0 173 64 328.5t174 268.5t265 179.5t330 66.5q214 0 385 -92t268 -258.5t97 -378.5q0 -173 -64 -328.5t-174.5 -268t-265.5 -178.5t-330 -66zM905 49q200 0 365.5 96.5t260.5 265t95 373.5q0 272 -175 447.5t-454 175.5
q-200 0 -366 -97t-261.5 -266t-95.5 -374q0 -178 79 -319.5t223 -221.5t329 -80zM901 309q-130 0 -203 71t-65 191l127 25q-11 -83 27.5 -132.5t113.5 -49.5q72 0 117 42.5t45 108.5q0 57 -37.5 91t-99.5 34h-72l23 103h71q77 0 122.5 37t45.5 102q0 51 -35.5 81.5
t-91.5 30.5q-67 0 -107.5 -42t-45.5 -113l-121 26q14 107 89.5 170.5t190.5 63.5q106 0 175 -57.5t69 -147.5q0 -76 -42.5 -130.5t-125.5 -80.5q117 -54 117 -174q0 -108 -81 -179t-206 -71z" />
    <glyph glyph-name="uni2463" unicode="&#x2463;" horiz-adv-x="1808" 
d="M909 -57q-214 0 -384.5 91t-267.5 257t-97 379q0 173 64 328.5t174 268.5t265 179.5t330 66.5q214 0 385 -92t268 -258.5t97 -378.5q0 -173 -64 -328.5t-174.5 -268t-265.5 -178.5t-330 -66zM905 49q200 0 365.5 96.5t260.5 265t95 373.5q0 272 -175 447.5t-454 175.5
q-200 0 -366 -97t-261.5 -266t-95.5 -374q0 -178 79 -319.5t223 -221.5t329 -80zM1022 324h-115l47 221h-372l22 102l430 488h162l-104 -490h120l-20 -100h-123zM903 645h72l29 129l47 227l-318 -356h170z" />
    <glyph glyph-name="uni2464" unicode="&#x2464;" horiz-adv-x="1808" 
d="M909 -57q-214 0 -384.5 91t-267.5 257t-97 379q0 173 64 328.5t174 268.5t265 179.5t330 66.5q214 0 385 -92t268 -258.5t97 -378.5q0 -173 -64 -328.5t-174.5 -268t-265.5 -178.5t-330 -66zM905 49q200 0 365.5 96.5t260.5 265t95 373.5q0 272 -175 447.5t-454 175.5
q-200 0 -366 -97t-261.5 -266t-95.5 -374q0 -178 79 -319.5t223 -221.5t329 -80zM901 309q-120 0 -195 61t-81 165l120 28q2 -70 42.5 -109.5t113.5 -39.5q79 0 129.5 53.5t50.5 138.5q0 63 -38 102.5t-101 39.5q-51 0 -87.5 -22.5t-70.5 -74.5l-120 29l149 455h471
l-20 -107h-371l-45 -141q-3 -11 -13.5 -44.5t-17.5 -58.5q58 64 156 64q103 0 168 -67t65 -171q0 -133 -84.5 -217t-220.5 -84z" />
    <glyph glyph-name="uni2465" unicode="&#x2465;" horiz-adv-x="1808" 
d="M909 -57q-214 0 -384.5 91t-267.5 257t-97 379q0 173 64 328.5t174 268.5t265 179.5t330 66.5q214 0 385 -92t268 -258.5t97 -378.5q0 -173 -64 -328.5t-174.5 -268t-265.5 -178.5t-330 -66zM905 49q200 0 365.5 96.5t260.5 265t95 373.5q0 272 -175 447.5t-454 175.5
q-200 0 -366 -97t-261.5 -266t-95.5 -374q0 -178 79 -319.5t223 -221.5t329 -80zM893 309q-130 0 -201 81t-71 226q0 237 122 385t318 148q108 0 192 -41l-22 -109q-88 41 -176 41q-113 0 -189 -71.5t-106 -200.5q67 88 188 88q107 0 176.5 -68.5t69.5 -173.5
q0 -131 -86 -218t-215 -87zM891 414q75 0 125.5 55t50.5 137q0 68 -38.5 109t-104.5 41q-74 0 -125 -56.5t-51 -138.5q0 -66 39.5 -106.5t103.5 -40.5z" />
    <glyph glyph-name="uni2466" unicode="&#x2466;" horiz-adv-x="1808" 
d="M909 -57q-214 0 -384.5 91t-267.5 257t-97 379q0 173 64 328.5t174 268.5t265 179.5t330 66.5q214 0 385 -92t268 -258.5t97 -378.5q0 -173 -64 -328.5t-174.5 -268t-265.5 -178.5t-330 -66zM905 49q200 0 365.5 96.5t260.5 265t95 373.5q0 272 -175 447.5t-454 175.5
q-200 0 -366 -97t-261.5 -266t-95.5 -374q0 -178 79 -319.5t223 -221.5t329 -80zM862 324h-133q45 438 412 704h-111h-287l23 107h553l-23 -105q-216 -149 -314.5 -317t-119.5 -389z" />
    <glyph glyph-name="uni2467" unicode="&#x2467;" horiz-adv-x="1808" 
d="M909 -57q-214 0 -384.5 91t-267.5 257t-97 379q0 173 64 328.5t174 268.5t265 179.5t330 66.5q214 0 385 -92t268 -258.5t97 -378.5q0 -173 -64 -328.5t-174.5 -268t-265.5 -178.5t-330 -66zM905 49q200 0 365.5 96.5t260.5 265t95 373.5q0 272 -175 447.5t-454 175.5
q-200 0 -366 -97t-261.5 -266t-95.5 -374q0 -178 79 -319.5t223 -221.5t329 -80zM905 309q-123 0 -196.5 60.5t-73.5 160.5q0 81 53 143t141 87q-100 51 -100 153t79 169t200 67q108 0 177.5 -58t69.5 -147q0 -71 -43.5 -127t-121.5 -82q55 -28 84.5 -73t29.5 -99
q0 -110 -85.5 -182t-213.5 -72zM977 793q67 0 111.5 39.5t44.5 99.5q0 52 -35 82t-94 30q-66 0 -110 -38.5t-44 -98.5q0 -52 35 -83t92 -31zM905 414q75 0 124.5 43t49.5 110q0 59 -40 94t-107 35q-75 0 -123.5 -44.5t-48.5 -110.5q0 -59 39 -93t106 -34z" />
    <glyph glyph-name="uni2468" unicode="&#x2468;" horiz-adv-x="1808" 
d="M909 -57q-214 0 -384.5 91t-267.5 257t-97 379q0 173 64 328.5t174 268.5t265 179.5t330 66.5q214 0 385 -92t268 -258.5t97 -378.5q0 -173 -64 -328.5t-174.5 -268t-265.5 -178.5t-330 -66zM905 49q200 0 365.5 96.5t260.5 265t95 373.5q0 272 -175 447.5t-454 175.5
q-200 0 -366 -97t-261.5 -266t-95.5 -374q0 -178 79 -319.5t223 -221.5t329 -80zM840 305q-117 0 -199 43l23 113q72 -45 170 -45q118 0 194 67q88 81 109 207q-33 -43 -83.5 -66.5t-105.5 -23.5q-113 0 -182.5 68.5t-69.5 177.5q0 129 82 213t209 84q128 0 203 -84
q80 -89 80 -242q0 -231 -117.5 -371.5t-312.5 -140.5zM965 705q74 0 124 51t50 127q0 66 -43 111.5t-105 45.5q-74 0 -122 -52.5t-48 -135.5q0 -67 39.5 -107t104.5 -40z" />
    <glyph glyph-name="uni24EA" unicode="&#x24ea;" horiz-adv-x="1808" 
d="M909 -57q-214 0 -384.5 91t-267.5 257t-97 379q0 173 64 328.5t174 268.5t265 179.5t330 66.5q214 0 385 -92t268 -258.5t97 -378.5q0 -173 -64 -328.5t-174.5 -268t-265.5 -178.5t-330 -66zM905 49q200 0 365.5 96.5t260.5 265t95 373.5q0 272 -175 447.5t-454 175.5
q-200 0 -366 -97t-261.5 -266t-95.5 -374q0 -178 79 -319.5t223 -221.5t329 -80zM905 309q-139 0 -218 90t-79 248q0 131 46.5 245t134 185.5t196.5 71.5q136 0 215.5 -91.5t79.5 -248.5q0 -132 -45.5 -245.5t-132.5 -184t-197 -70.5zM907 416q105 0 177.5 120t72.5 273
q0 110 -47 172.5t-127 62.5q-70 0 -128.5 -58.5t-90 -149.5t-31.5 -191q0 -110 45.5 -169.5t128.5 -59.5z" />
    <glyph glyph-name="uni24FF" unicode="&#x24ff;" horiz-adv-x="1800" 
d="M885 -57q175 0 334.5 69t274 185t182 276t67.5 334q0 210 -92.5 371t-258 248t-378.5 87q-141 0 -272 -44t-236.5 -124.5t-184.5 -187.5t-122 -238t-43 -270q0 -211 92 -372t257 -247.5t380 -86.5zM903 309q-139 0 -218 90t-79 248q0 131 46.5 245t134 185.5t196.5 71.5
q136 0 215.5 -91.5t79.5 -248.5q0 -132 -45.5 -245.5t-132.5 -184t-197 -70.5zM905 416q105 0 177.5 120t72.5 273q0 110 -47 172.5t-127 62.5q-70 0 -128.5 -58.5t-90 -149.5t-31.5 -191q0 -110 45.5 -169.5t128.5 -59.5z" />
    <glyph glyph-name="lozenge" unicode="&#x25ca;" horiz-adv-x="1267" 
d="M776 -2h-196l-453 715l457 721h194l453 -719zM831 340l234 375l-244 393l-141 223q-19 -29 -71 -109t-83 -130l-235 -375l246 -391q109 -176 143 -228z" />
    <glyph glyph-name="uni274C" unicode="&#x274c;" horiz-adv-x="1703" 
d="M897 623l-631 -650l-92 93l631 649l-633 649l96 98l635 -651l633 651l92 -92l-635 -651l633 -649l-96 -97z" />
    <glyph glyph-name="uni2776" unicode="&#x2776;" horiz-adv-x="1802" 
d="M885 -57q175 0 334.5 69t274 185t182 276t67.5 334q0 210 -92.5 371t-258 248t-378.5 87q-141 0 -272 -44t-236.5 -124.5t-184.5 -187.5t-122 -238t-43 -270q0 -211 92 -372t257 -247.5t380 -86.5zM961 324h-123l82 385q9 40 26.5 119.5t26.5 119.5q-107 -113 -238 -119
l25 115q156 20 272 191h98z" />
    <glyph glyph-name="uni2777" unicode="&#x2777;" horiz-adv-x="1802" 
d="M885 -57q175 0 334.5 69t274 185t182 276t67.5 334q0 210 -92.5 371t-258 248t-378.5 87q-141 0 -272 -44t-236.5 -124.5t-184.5 -187.5t-122 -238t-43 -270q0 -211 92 -372t257 -247.5t380 -86.5zM1151 324h-543l23 112q271 153 383 252.5t112 210.5q0 64 -38.5 103.5
t-100.5 39.5q-71 0 -114 -53t-44 -143l-122 26q9 127 86 201t200 74q112 0 185 -68t73 -172q0 -136 -133 -260q-94 -97 -315 -217h280h91z" />
    <glyph glyph-name="uni2778" unicode="&#x2778;" horiz-adv-x="1802" 
d="M885 -57q175 0 334.5 69t274 185t182 276t67.5 334q0 210 -92.5 371t-258 248t-378.5 87q-141 0 -272 -44t-236.5 -124.5t-184.5 -187.5t-122 -238t-43 -270q0 -211 92 -372t257 -247.5t380 -86.5zM899 309q-130 0 -203 71t-65 191l127 25q-11 -83 27.5 -132.5
t113.5 -49.5q72 0 117 42.5t45 108.5q0 57 -37.5 91t-99.5 34h-72l22 103h72q77 0 122.5 37t45.5 102q0 51 -35.5 81.5t-91.5 30.5q-67 0 -107.5 -42t-45.5 -113l-121 26q14 107 89.5 170.5t190.5 63.5q106 0 175 -57.5t69 -147.5q0 -76 -42.5 -130.5t-125.5 -80.5
q117 -54 117 -174q0 -108 -81 -179t-206 -71z" />
    <glyph glyph-name="uni2779" unicode="&#x2779;" horiz-adv-x="1800" 
d="M885 -57q175 0 334.5 69t274 185t182 276t67.5 334q0 210 -92.5 371t-258 248t-378.5 87q-141 0 -272 -44t-236.5 -124.5t-184.5 -187.5t-122 -238t-43 -270q0 -211 92 -372t257 -247.5t380 -86.5zM1020 324h-115l47 221h-372l22 102l430 488h160l-102 -490h120l-22 -100
h-121zM899 645h74l28 129l48 227l-318 -356h168z" />
    <glyph glyph-name="uni277A" unicode="&#x277a;" horiz-adv-x="1800" 
d="M885 -57q175 0 334.5 69t274 185t182 276t67.5 334q0 210 -92.5 371t-258 248t-378.5 87q-141 0 -272 -44t-236.5 -124.5t-184.5 -187.5t-122 -238t-43 -270q0 -211 92 -372t257 -247.5t380 -86.5zM899 309q-120 0 -195 61t-81 165l120 28q2 -70 42.5 -109.5t113.5 -39.5
q79 0 129.5 53.5t50.5 138.5q0 63 -38 102.5t-101 39.5q-51 0 -87.5 -22.5t-70.5 -74.5l-120 29l149 455h471l-20 -107h-371l-45 -141q-3 -11 -13.5 -44.5t-17.5 -58.5q58 64 156 64q103 0 168 -67t65 -171q0 -133 -84.5 -217t-220.5 -84z" />
    <glyph glyph-name="uni277B" unicode="&#x277b;" horiz-adv-x="1800" 
d="M885 -57q175 0 334.5 69t274 185t182 276t67.5 334q0 210 -92.5 371t-258 248t-378.5 87q-141 0 -272 -44t-236.5 -124.5t-184.5 -187.5t-122 -238t-43 -270q0 -211 92 -372t257 -247.5t380 -86.5zM891 309q-130 0 -201.5 81t-71.5 226q0 237 122.5 385t318.5 148
q108 0 192 -41l-22 -109q-88 41 -176 41q-113 0 -189 -71.5t-106 -200.5q67 88 188 88q107 0 176.5 -68.5t69.5 -173.5q0 -131 -86 -218t-215 -87zM889 414q75 0 125.5 55t50.5 137q0 68 -38.5 109t-104.5 41q-74 0 -125.5 -56.5t-51.5 -138.5q0 -66 39.5 -106.5
t104.5 -40.5z" />
    <glyph glyph-name="uni277C" unicode="&#x277c;" horiz-adv-x="1802" 
d="M885 -57q175 0 334.5 69t274 185t182 276t67.5 334q0 210 -92.5 371t-258 248t-378.5 87q-141 0 -272 -44t-236.5 -124.5t-184.5 -187.5t-122 -238t-43 -270q0 -211 92 -372t257 -247.5t380 -86.5zM860 324h-133q45 438 412 704h-111h-287l23 107h553l-23 -105
q-216 -149 -314.5 -317t-119.5 -389z" />
    <glyph glyph-name="uni277D" unicode="&#x277d;" horiz-adv-x="1800" 
d="M885 -57q175 0 334.5 69t274 185t182 276t67.5 334q0 210 -92.5 371t-258 248t-378.5 87q-141 0 -272 -44t-236.5 -124.5t-184.5 -187.5t-122 -238t-43 -270q0 -211 92 -372t257 -247.5t380 -86.5zM903 309q-123 0 -196.5 60.5t-73.5 160.5q0 81 53 143t141 87
q-100 51 -100 153t79 169t200 67q108 0 177.5 -58t69.5 -147q0 -71 -43.5 -127t-122.5 -82q55 -28 85 -73t30 -99q0 -110 -85.5 -182t-213.5 -72zM975 793q67 0 111 39.5t44 99.5q0 52 -35 82t-94 30q-66 0 -109.5 -38.5t-43.5 -98.5q0 -52 35 -83t92 -31zM903 414
q75 0 124.5 43t49.5 110q0 59 -40 94t-107 35q-75 0 -123.5 -44.5t-48.5 -110.5q0 -59 39 -93t106 -34z" />
    <glyph glyph-name="uni277E" unicode="&#x277e;" horiz-adv-x="1802" 
d="M885 -57q175 0 334.5 69t274 185t182 276t67.5 334q0 210 -92.5 371t-258 248t-378.5 87q-141 0 -272 -44t-236.5 -124.5t-184.5 -187.5t-122 -238t-43 -270q0 -211 92 -372t257 -247.5t380 -86.5zM840 305q-117 0 -199 43l23 113q72 -45 170 -45q115 0 194 67
q88 81 109 207q-33 -43 -83.5 -66.5t-105.5 -23.5q-113 0 -182.5 68.5t-69.5 177.5q0 129 82 213t209 84q128 0 203 -84q80 -89 80 -242q0 -231 -117.5 -371.5t-312.5 -140.5zM963 705q75 0 125.5 51t50.5 127q0 66 -43 111.5t-105 45.5q-75 0 -122.5 -52.5t-47.5 -135.5
q0 -67 38.5 -107t103.5 -40z" />
    <glyph glyph-name="uni300A" unicode="&#x300a;" horiz-adv-x="1069" 
d="M731 1567l100 -72l-612 -891l232 -899l-123 -37l-244 950zM1149 1567l102 -72l-649 -940l217 -850l-123 -37l-229 901z" />
    <glyph glyph-name="uni300B" unicode="&#x300b;" horiz-adv-x="1067" 
d="M299 1532l123 39l231 -903l-684 -998l-100 74l649 940zM670 1532l123 39l241 -953l-645 -948l-102 74l612 891z" />
    <glyph glyph-name="uni300C" unicode="&#x300c;" horiz-adv-x="704" 
d="M338 645h-127l190 901h486l-27 -116h-354z" />
    <glyph glyph-name="uni300D" unicode="&#x300d;" horiz-adv-x="577" 
d="M309 594h129l-190 -901h-486l25 117h356z" />
    <glyph glyph-name="uni300E" unicode="&#x300e;" horiz-adv-x="935" 
d="M520 475h-342l228 1071h669l-80 -370h-325zM498 1434l-181 -846h119l148 688h321l33 158h-440z" />
    <glyph glyph-name="uni300F" unicode="&#x300f;" horiz-adv-x="919" 
d="M457 762h342l-228 -1071h-667l80 372h323zM479 -197l180 846h-118l-148 -688h-319l-35 -158h440z" />
    <glyph glyph-name="uni3010" unicode="&#x3010;" horiz-adv-x="718" 
d="M530 -307h-495l395 1853h496q-242 -225 -380 -449.5t-192 -480.5q-56 -247 -15 -469t191 -454z" />
    <glyph glyph-name="uni3011" unicode="&#x3011;" horiz-adv-x="718" 
d="M238 1546h497l-395 -1853h-496q242 225 380 449.5t192 480.5q56 248 14.5 469.5t-192.5 453.5z" />
    <glyph glyph-name="uni3014" unicode="&#x3014;" horiz-adv-x="604" 
d="M766 1475l-354 -322l-232 -1090l221 -321l-104 -74l-250 369l248 1175l389 355z" />
    <glyph glyph-name="uni3015" unicode="&#x3015;" horiz-adv-x="602" 
d="M250 1493l104 74l252 -369l-250 -1178l-389 -354l-82 94l355 320l231 1091z" />
    <glyph glyph-name="plus.alt" unicode="&#xe000;" horiz-adv-x="1587" 
d="M907 0h-137v651h-643v131h643v654h137v-654h641v-131h-641v-651z" />
    <glyph glyph-name="minus.alt" unicode="&#xe001;" horiz-adv-x="1781" 
d="M1640 651h-1423v131h1423v-131z" />
    <glyph glyph-name="multiply.alt" unicode="&#xe002;" horiz-adv-x="1839" 
d="M965 623l-633 -650l-92 93l632 649l-632 649l96 98l633 -651l633 651l92 -92l-633 -651l633 -649l-97 -97z" />
    <glyph glyph-name="uniE003" unicode="&#xe003;" horiz-adv-x="1925" 
d="M1915 1337l-1022 -1368l-643 862l108 89l539 -725l909 1228z" />
    <glyph glyph-name="uniE004" unicode="&#xe004;" horiz-adv-x="2158" 
d="M1919 1237h-1585v133h1585v-133zM1919 657h-1585v134h1585v-134zM1919 76h-1585v133h1585v-133z" />
    <glyph glyph-name="uniE005" unicode="&#xe005;" horiz-adv-x="1925" 
d="M1724 0h-1433v1432h1433v-1432zM432 1307v-1182h1153v1182h-1153z" />
    <glyph glyph-name="uniE006" unicode="&#xe006;" horiz-adv-x="1925" 
d="M1774 1386l-748 -1060l-367 596l113 73l139 -229q22 -35 62.5 -103.5t62.5 -103.5q88 124 146 207l485 700zM1741 0h-1434v1432h934v-125h-792v-1182h1153v543h139v-668z" />
    <glyph glyph-name="uniE007" unicode="&#xe007;" horiz-adv-x="1925" 
d="M1724 0h-1433v1432h1433v-1432zM432 1307v-1182h1153v1182h-1153zM1106 604h-193v225h193v-225z" />
    <glyph glyph-name="uniE008" unicode="&#xe008;" horiz-adv-x="1605" 
d="M1264 653l-529 -516l-528 516l98 99l182 -185q29 -30 89 -87.5t90 -88.5v1116h139v-1116l174 174l190 187zM1452 0h-1434v137h1434v-137z" />
    <glyph glyph-name="uniE009" unicode="&#xe009;" horiz-adv-x="1605" 
d="M1274 881l-531 -516l-528 516l98 96l183 -184q30 -30 89.5 -88t88.5 -87v1115h139v-1115l174 175l191 184zM1464 0h-1433v137h1433v-137z" />
    <glyph glyph-name="uniF8FF" unicode="&#xf8ff;" horiz-adv-x="1605" 
d="M1366 98q3 -95 -12 -178l-68 2q-54 103 -76 137q3 -87 0 -180l-34 -14q-92 22 -127.5 94t-38.5 205q-1 21 -2 63t-2 60q-42 -112 -101 -160q-48 44 -81.5 129t-45 150t-22.5 155q-9 116 -17.5 175t-25.5 93q-15 29 -35.5 53t-37 37t-51 37.5t-54.5 40.5q-42 29 -69.5 65
t-55.5 93l145 74l-45 67q-39 -3 -78 4q-69 13 -111.5 53t-39.5 87q1 40 33 63.5t77 20.5q32 -1 72.5 -18t62.5 -38q-10 39 -6 74q2 46 24 71.5t64 24.5q107 -6 101 -118q-5 -78 -68 -154l47 -70l94 50q58 -40 110 -110.5t89.5 -153t63 -157.5t42.5 -147q132 -161 201 -335.5
t78 -344.5z" />
    <glyph glyph-name="G.ss03" horiz-adv-x="1587" 
d="M795 -27q-289 0 -460 175.5t-171 476.5q0 127 33 249.5t98.5 228t155.5 185.5t213 126t262 46q114 0 211.5 -26.5t165.5 -69.5t120.5 -100t82 -114t44.5 -116l-151 -47q-18 65 -54 122.5t-93 108.5t-144 81t-193 30q-138 0 -253.5 -59t-190.5 -157.5t-116.5 -224.5
t-41.5 -263q0 -241 133 -381t349 -140q115 0 208.5 34t157.5 96t105 142.5t59 178.5h-522l26 133h672q-12 -152 -61 -279.5t-134 -226t-216 -154t-295 -55.5z" />
    <glyph glyph-name="Gbreve.ss03" horiz-adv-x="1587" 
d="M1055 1573q-147 0 -214.5 76t-47.5 184h114q-6 -74 33 -115t117 -41t135.5 41t83.5 115h131q-16 -52 -43 -96.5t-68.5 -82.5t-103.5 -59.5t-137 -21.5zM795 -27q-289 0 -460 175.5t-171 476.5q0 127 33 249.5t98.5 228t155.5 185.5t213 126t262 46q114 0 211.5 -26.5
t165.5 -69.5t120.5 -100t82 -114t44.5 -116l-151 -47q-18 65 -54 122.5t-93 108.5t-144 81t-193 30q-138 0 -253.5 -59t-190.5 -157.5t-116.5 -224.5t-41.5 -263q0 -241 133 -381t349 -140q115 0 208.5 34t157.5 96t105 142.5t59 178.5h-522l26 133h672q-12 -152 -61 -279.5
t-134 -226t-216 -154t-295 -55.5z" />
    <glyph glyph-name="Gcircumflex.ss03" horiz-adv-x="1587" 
d="M831 1589h-153l291 246h217l178 -246h-141l-156 168zM795 -27q-289 0 -460 175.5t-171 476.5q0 127 33 249.5t98.5 228t155.5 185.5t213 126t262 46q114 0 211.5 -26.5t165.5 -69.5t120.5 -100t82 -114t44.5 -116l-151 -47q-18 65 -54 122.5t-93 108.5t-144 81t-193 30
q-138 0 -253.5 -59t-190.5 -157.5t-116.5 -224.5t-41.5 -263q0 -241 133 -381t349 -140q115 0 208.5 34t157.5 96t105 142.5t59 178.5h-522l26 133h672q-12 -152 -61 -279.5t-134 -226t-216 -154t-295 -55.5z" />
    <glyph glyph-name="uni0122.ss03" horiz-adv-x="1587" 
d="M795 -27q-289 0 -460 175.5t-171 476.5q0 127 33 249.5t98.5 228t155.5 185.5t213 126t262 46q114 0 211.5 -26.5t165.5 -69.5t120.5 -100t82 -114t44.5 -116l-151 -47q-18 65 -54 122.5t-93 108.5t-144 81t-193 30q-138 0 -253.5 -59t-190.5 -157.5t-116.5 -224.5
t-41.5 -263q0 -241 133 -381t349 -140q115 0 208.5 34t157.5 96t105 142.5t59 178.5h-522l26 133h672q-12 -152 -61 -279.5t-134 -226t-216 -154t-295 -55.5zM604 -604h-88l162 219h-80l41 192h166l-45 -198z" />
    <glyph glyph-name="Gdotaccent.ss03" horiz-adv-x="1587" 
d="M1104 1591h-143l45 209h143zM795 -27q-289 0 -460 175.5t-171 476.5q0 127 33 249.5t98.5 228t155.5 185.5t213 126t262 46q114 0 211.5 -26.5t165.5 -69.5t120.5 -100t82 -114t44.5 -116l-151 -47q-18 65 -54 122.5t-93 108.5t-144 81t-193 30q-138 0 -253.5 -59
t-190.5 -157.5t-116.5 -224.5t-41.5 -263q0 -241 133 -381t349 -140q115 0 208.5 34t157.5 96t105 142.5t59 178.5h-522l26 133h672q-12 -152 -61 -279.5t-134 -226t-216 -154t-295 -55.5z" />
    <glyph glyph-name="a.ss01" horiz-adv-x="1177" 
d="M461 -27q-158 0 -260.5 108.5t-102.5 297.5q0 127 35.5 245.5t98 210.5t156 147.5t202.5 55.5q133 0 218 -67.5t114 -169.5q6 29 19.5 96t23.5 113h137l-217 -1010h-133l30 145q-52 -74 -133.5 -123t-187.5 -49zM502 92q110 0 196.5 78t130 196.5t43.5 249.5
q0 145 -72.5 223.5t-189.5 78.5q-84 0 -155.5 -46t-118 -121t-72.5 -169.5t-26 -192.5q0 -144 73 -220.5t191 -76.5z" />
    <glyph glyph-name="aacute.ss01" horiz-adv-x="1177" 
d="M743 1161h-102l184 264h189zM461 -27q-158 0 -260.5 108.5t-102.5 297.5q0 127 35.5 245.5t98 210.5t156 147.5t202.5 55.5q133 0 218 -67.5t114 -169.5q6 29 19.5 96t23.5 113h137l-217 -1010h-133l30 145q-52 -74 -133.5 -123t-187.5 -49zM502 92q110 0 196.5 78
t130 196.5t43.5 249.5q0 145 -72.5 223.5t-189.5 78.5q-84 0 -155.5 -46t-118 -121t-72.5 -169.5t-26 -192.5q0 -144 73 -220.5t191 -76.5z" />
    <glyph glyph-name="abreve.ss01" horiz-adv-x="1177" 
d="M707 1145q-134 0 -195 76t-43 184h104q-6 -75 29.5 -115.5t106.5 -40.5t123 40.5t77 115.5h117q-28 -112 -107.5 -186t-211.5 -74zM461 -27q-158 0 -260.5 108.5t-102.5 297.5q0 127 35.5 245.5t98 210.5t156 147.5t202.5 55.5q133 0 218 -67.5t114 -169.5q6 29 19.5 96
t23.5 113h137l-217 -1010h-133l30 145q-52 -74 -133.5 -123t-187.5 -49zM502 92q110 0 196.5 78t130 196.5t43.5 249.5q0 145 -72.5 223.5t-189.5 78.5q-84 0 -155.5 -46t-118 -121t-72.5 -169.5t-26 -192.5q0 -144 73 -220.5t191 -76.5z" />
    <glyph glyph-name="acircumflex.ss01" horiz-adv-x="1177" 
d="M514 1161h-139l264 244h199l159 -244h-129l-139 166zM461 -27q-158 0 -260.5 108.5t-102.5 297.5q0 127 35.5 245.5t98 210.5t156 147.5t202.5 55.5q133 0 218 -67.5t114 -169.5q6 29 19.5 96t23.5 113h137l-217 -1010h-133l30 145q-52 -74 -133.5 -123t-187.5 -49z
M502 92q110 0 196.5 78t130 196.5t43.5 249.5q0 145 -72.5 223.5t-189.5 78.5q-84 0 -155.5 -46t-118 -121t-72.5 -169.5t-26 -192.5q0 -144 73 -220.5t191 -76.5z" />
    <glyph glyph-name="adieresis.ss01" horiz-adv-x="1177" 
d="M596 1219h-154l39 182h152zM967 1219h-152l39 182h152zM461 -27q-158 0 -260.5 108.5t-102.5 297.5q0 127 35.5 245.5t98 210.5t156 147.5t202.5 55.5q133 0 218 -67.5t114 -169.5q6 29 19.5 96t23.5 113h137l-217 -1010h-133l30 145q-52 -74 -133.5 -123t-187.5 -49z
M502 92q110 0 196.5 78t130 196.5t43.5 249.5q0 145 -72.5 223.5t-189.5 78.5q-84 0 -155.5 -46t-118 -121t-72.5 -169.5t-26 -192.5q0 -144 73 -220.5t191 -76.5z" />
    <glyph glyph-name="uni0227.ss01" horiz-adv-x="1177" 
d="M776 1225h-141l43 209h143zM461 -27q-158 0 -260.5 108.5t-102.5 297.5q0 127 35.5 245.5t98 210.5t156 147.5t202.5 55.5q133 0 218 -67.5t114 -169.5q6 29 19.5 96t23.5 113h137l-217 -1010h-133l30 145q-52 -74 -133.5 -123t-187.5 -49zM502 92q110 0 196.5 78
t130 196.5t43.5 249.5q0 145 -72.5 223.5t-189.5 78.5q-84 0 -155.5 -46t-118 -121t-72.5 -169.5t-26 -192.5q0 -144 73 -220.5t191 -76.5z" />
    <glyph glyph-name="agrave.ss01" horiz-adv-x="1177" 
d="M737 1161h-84l-159 264h174zM461 -27q-158 0 -260.5 108.5t-102.5 297.5q0 127 35.5 245.5t98 210.5t156 147.5t202.5 55.5q133 0 218 -67.5t114 -169.5q6 29 19.5 96t23.5 113h137l-217 -1010h-133l30 145q-52 -74 -133.5 -123t-187.5 -49zM502 92q110 0 196.5 78
t130 196.5t43.5 249.5q0 145 -72.5 223.5t-189.5 78.5q-84 0 -155.5 -46t-118 -121t-72.5 -169.5t-26 -192.5q0 -144 73 -220.5t191 -76.5z" />
    <glyph glyph-name="amacron.ss01" horiz-adv-x="1177" 
d="M1012 1217h-613l25 108h612zM461 -27q-158 0 -260.5 108.5t-102.5 297.5q0 127 35.5 245.5t98 210.5t156 147.5t202.5 55.5q133 0 218 -67.5t114 -169.5q6 29 19.5 96t23.5 113h137l-217 -1010h-133l30 145q-52 -74 -133.5 -123t-187.5 -49zM502 92q110 0 196.5 78
t130 196.5t43.5 249.5q0 145 -72.5 223.5t-189.5 78.5q-84 0 -155.5 -46t-118 -121t-72.5 -169.5t-26 -192.5q0 -144 73 -220.5t191 -76.5z" />
    <glyph glyph-name="aogonek.ss01" horiz-adv-x="1177" 
d="M1102 1010l-217 -1010q-231 -91 -244 -209q-5 -42 16.5 -64t73.5 -22q38 0 96 14l-22 -110q-55 -17 -107 -17q-87 0 -134 44t-42 120q9 144 234 262q4 20 13 61.5t13 65.5q-52 -74 -133.5 -123t-187.5 -49q-158 0 -260.5 108.5t-102.5 297.5q0 127 35.5 245.5t98 210.5
t156 147.5t202.5 55.5q133 0 218 -67.5t114 -169.5q6 29 19.5 96t23.5 113h137zM502 92q110 0 196.5 78t130 196.5t43.5 249.5q0 145 -72.5 223.5t-189.5 78.5q-84 0 -155.5 -46t-118 -121t-72.5 -169.5t-26 -192.5q0 -144 73 -220.5t191 -76.5z" />
    <glyph glyph-name="aring.ss01" horiz-adv-x="1177" 
d="M692 1120q-88 0 -144 55.5t-56 135.5q0 101 68 169t171 68q86 0 142.5 -56t56.5 -134q0 -102 -69 -170t-169 -68zM698 1208q56 0 93.5 43.5t37.5 100.5q0 47 -29 77.5t-77 30.5q-57 0 -95 -42t-38 -99q0 -50 29 -80.5t79 -30.5zM461 -27q-158 0 -260.5 108.5
t-102.5 297.5q0 127 35.5 245.5t98 210.5t156 147.5t202.5 55.5q133 0 218 -67.5t114 -169.5q6 29 19.5 96t23.5 113h137l-217 -1010h-133l30 145q-52 -74 -133.5 -123t-187.5 -49zM502 92q110 0 196.5 78t130 196.5t43.5 249.5q0 145 -72.5 223.5t-189.5 78.5
q-84 0 -155.5 -46t-118 -121t-72.5 -169.5t-26 -192.5q0 -144 73 -220.5t191 -76.5z" />
    <glyph glyph-name="atilde.ss01" horiz-adv-x="1177" 
d="M846 1171q-73 0 -144 54l-51 41q-53 41 -90 41q-85 0 -108 -117h-117q21 112 78.5 167.5t144.5 55.5q79 0 141 -51l52 -39q53 -41 88 -41q83 0 108 109h119q-42 -220 -221 -220zM461 -27q-158 0 -260.5 108.5t-102.5 297.5q0 127 35.5 245.5t98 210.5t156 147.5
t202.5 55.5q133 0 218 -67.5t114 -169.5q6 29 19.5 96t23.5 113h137l-217 -1010h-133l30 145q-52 -74 -133.5 -123t-187.5 -49zM502 92q110 0 196.5 78t130 196.5t43.5 249.5q0 145 -72.5 223.5t-189.5 78.5q-84 0 -155.5 -46t-118 -121t-72.5 -169.5t-26 -192.5
q0 -144 73 -220.5t191 -76.5z" />
    <glyph glyph-name="g.ss02" horiz-adv-x="1189" 
d="M981 1010h131l-209 -987q-23 -107 -61 -187t-97.5 -140.5t-146 -91t-199.5 -30.5q-195 0 -307.5 84t-126.5 231l133 43q9 -116 87 -177.5t216 -61.5q160 0 248.5 86.5t122.5 249.5q4 19 14.5 63.5t14.5 67.5q-122 -142 -328 -142q-158 0 -263.5 103.5t-105.5 286.5
q0 120 34.5 232.5t96.5 201t156 142.5t205 54q72 0 133 -20.5t102 -54.5t68 -70t43 -76q8 45 20.5 103.5t18.5 89.5zM512 133q87 0 160 39.5t121 106t74 152t26 179.5q0 149 -78 229.5t-203 80.5q-87 0 -157.5 -44t-114 -116.5t-67 -160t-23.5 -179.5q0 -147 72 -217
t190 -70z" />
    <glyph glyph-name="gbreve.ss02" horiz-adv-x="1189" 
d="M717 1145q-133 0 -194.5 76t-43.5 184h105q-5 -75 30 -115.5t105 -40.5q72 0 124 40.5t77 115.5h118q-30 -112 -109.5 -186t-211.5 -74zM981 1010h131l-209 -987q-23 -107 -61 -187t-97.5 -140.5t-146 -91t-199.5 -30.5q-195 0 -307.5 84t-126.5 231l133 43
q9 -116 87 -177.5t216 -61.5q160 0 248.5 86.5t122.5 249.5q4 19 14.5 63.5t14.5 67.5q-122 -142 -328 -142q-158 0 -263.5 103.5t-105.5 286.5q0 120 34.5 232.5t96.5 201t156 142.5t205 54q72 0 133 -20.5t102 -54.5t68 -70t43 -76q8 45 20.5 103.5t18.5 89.5zM512 133
q87 0 160 39.5t121 106t74 152t26 179.5q0 149 -78 229.5t-203 80.5q-87 0 -157.5 -44t-114 -116.5t-67 -160t-23.5 -179.5q0 -147 72 -217t190 -70z" />
    <glyph glyph-name="gcircumflex.ss02" horiz-adv-x="1189" 
d="M881 1161l-142 166l-215 -166h-139l264 244h199l162 -244h-129zM981 1010h131l-209 -987q-23 -107 -61 -187t-97.5 -140.5t-146 -91t-199.5 -30.5q-195 0 -307.5 84t-126.5 231l133 43q9 -116 87 -177.5t216 -61.5q160 0 248.5 86.5t122.5 249.5q4 19 14.5 63.5
t14.5 67.5q-122 -142 -328 -142q-158 0 -263.5 103.5t-105.5 286.5q0 120 34.5 232.5t96.5 201t156 142.5t205 54q72 0 133 -20.5t102 -54.5t68 -70t43 -76q8 45 20.5 103.5t18.5 89.5zM512 133q87 0 160 39.5t121 106t74 152t26 179.5q0 149 -78 229.5t-203 80.5
q-87 0 -157.5 -44t-114 -116.5t-67 -160t-23.5 -179.5q0 -147 72 -217t190 -70z" />
    <glyph glyph-name="uni0123.ss02" horiz-adv-x="1189" 
d="M750 1417h81l-43 -192h-165l45 198l155 213h88zM981 1010h131l-209 -987q-23 -107 -61 -187t-97.5 -140.5t-146 -91t-199.5 -30.5q-195 0 -307.5 84t-126.5 231l133 43q9 -116 87 -177.5t216 -61.5q160 0 248.5 86.5t122.5 249.5q4 19 14.5 63.5t14.5 67.5
q-122 -142 -328 -142q-158 0 -263.5 103.5t-105.5 286.5q0 120 34.5 232.5t96.5 201t156 142.5t205 54q72 0 133 -20.5t102 -54.5t68 -70t43 -76q8 45 20.5 103.5t18.5 89.5zM512 133q87 0 160 39.5t121 106t74 152t26 179.5q0 149 -78 229.5t-203 80.5q-87 0 -157.5 -44
t-114 -116.5t-67 -160t-23.5 -179.5q0 -147 72 -217t190 -70z" />
    <glyph glyph-name="gdotaccent.ss02" horiz-adv-x="1189" 
d="M690 1434h144l-46 -209h-143zM981 1010h131l-209 -987q-23 -107 -61 -187t-97.5 -140.5t-146 -91t-199.5 -30.5q-195 0 -307.5 84t-126.5 231l133 43q9 -116 87 -177.5t216 -61.5q160 0 248.5 86.5t122.5 249.5q4 19 14.5 63.5t14.5 67.5q-122 -142 -328 -142
q-158 0 -263.5 103.5t-105.5 286.5q0 120 34.5 232.5t96.5 201t156 142.5t205 54q72 0 133 -20.5t102 -54.5t68 -70t43 -76q8 45 20.5 103.5t18.5 89.5zM512 133q87 0 160 39.5t121 106t74 152t26 179.5q0 149 -78 229.5t-203 80.5q-87 0 -157.5 -44t-114 -116.5t-67 -160
t-23.5 -179.5q0 -147 72 -217t190 -70z" />
    <glyph glyph-name="i.loclTRK" horiz-adv-x="505" 
d="M479 1225h-143l45 209h143zM215 0h-137l215 1010h135z" />
    <glyph glyph-name="zero.osf" horiz-adv-x="1292" 
d="M598 -27q-216 0 -348.5 131t-132.5 334q0 119 42.5 227t116.5 188.5t182 128.5t232 48q216 0 351 -131t135 -334q0 -162 -70 -296.5t-203.5 -215t-304.5 -80.5zM604 92q129 0 228 64.5t149.5 168.5t50.5 228q0 159 -93 257.5t-257 98.5q-122 0 -220 -63t-150 -167
t-52 -226q0 -160 90.5 -260.5t253.5 -100.5z" />
    <glyph glyph-name="one.osf" horiz-adv-x="757" 
d="M455 0h-133l104 494q7 32 29 133t32 157q-79 -97 -182 -167t-215 -89l31 148q114 27 237 117.5t207 216.5h103z" />
    <glyph glyph-name="two.osf" horiz-adv-x="1026" 
d="M807 0h-774l28 139q149 60 256.5 110t201 105.5t151 109t89.5 115t32 128.5q0 97 -67 154t-161 57q-101 0 -168.5 -56t-85.5 -174l-135 31q24 146 124.5 232.5t262.5 86.5q169 0 270 -91.5t101 -227.5q0 -188 -189 -342q-154 -130 -477 -258q72 2 260 2h305z" />
    <glyph glyph-name="three.osf" horiz-adv-x="1126" 
d="M424 -426q-221 0 -336.5 112t-103.5 312l139 22q-15 -150 65 -238.5t232 -88.5q151 0 246.5 90t95.5 225q0 121 -79 189.5t-202 68.5h-86l27 123h88q158 0 254 83t96 214q0 105 -74.5 169.5t-185.5 64.5q-126 0 -213 -80.5t-96 -206.5l-137 29q21 163 144.5 269.5
t303.5 106.5q182 0 287.5 -98.5t105.5 -241.5q0 -80 -29.5 -149t-77.5 -115t-101.5 -76t-108.5 -41q95 -28 160 -111.5t65 -199.5q0 -89 -34.5 -168t-95.5 -137.5t-151.5 -92.5t-197.5 -34z" />
    <glyph glyph-name="four.osf" horiz-adv-x="1153" 
d="M692 -399h-135l86 399h-672l27 127l793 883h200l-186 -891h207l-27 -119h-207zM152 119h286h232l92 440q15 71 69 330z" />
    <glyph glyph-name="five.osf" horiz-adv-x="1140" 
d="M426 -428q-194 0 -312 100.5t-126 241.5l139 41q1 -80 43 -141.5t108 -92t142 -30.5q174 0 278.5 112.5t104.5 284.5q0 126 -79 204.5t-208 78.5q-101 0 -173.5 -43.5t-135.5 -128.5l-150 41l256 770h768l-28 -129h-658l-114 -351q-12 -34 -23.5 -69t-23.5 -74t-19 -59
q125 161 332 161q173 0 286 -109t113 -286q0 -224 -144 -373t-376 -149z" />
    <glyph glyph-name="six.osf" horiz-adv-x="1232" 
d="M594 -27q-444 0 -444 527q0 149 34 290t102 262.5t161.5 212.5t221 143t273.5 52q186 0 293 -55l-29 -131q-113 55 -264 55q-260 0 -433.5 -184.5t-215.5 -487.5q22 44 58.5 87t88 83.5t122 65.5t147.5 25q193 0 303 -116.5t110 -287.5q0 -147 -68.5 -271t-190.5 -197
t-269 -73zM590 92q168 0 281.5 122t113.5 288q0 138 -84.5 217.5t-218.5 79.5q-161 0 -274 -123t-113 -289q0 -133 84.5 -214t210.5 -81z" />
    <glyph glyph-name="seven.osf" horiz-adv-x="1036" 
d="M252 -399h-143q113 784 790 1286h-295h-485l26 123h945l-29 -133q-171 -123 -304 -257.5t-218 -258t-145.5 -260.5t-91.5 -252.5t-50 -247.5z" />
    <glyph glyph-name="eight.osf" horiz-adv-x="1198" 
d="M547 -27q-213 0 -330 106t-117 267q0 149 99.5 268t273.5 152q-81 38 -135.5 111.5t-54.5 177.5q0 179 128 292t332 113q183 0 296.5 -100.5t113.5 -257.5q0 -140 -90 -241.5t-232 -131.5q93 -36 154.5 -120.5t61.5 -198.5q1 -89 -33.5 -168t-97.5 -139t-159 -95
t-210 -35zM692 803q141 0 232.5 83.5t91.5 205.5q0 115 -79 183t-200 68q-137 0 -227 -83.5t-90 -206.5q0 -115 79 -182.5t193 -67.5zM551 92q155 0 253.5 93t98.5 231q0 127 -83 199.5t-220 72.5q-155 0 -254.5 -93t-99.5 -230q0 -126 85 -199.5t220 -73.5z" />
    <glyph glyph-name="nine.osf" horiz-adv-x="1263" 
d="M348 -426q-184 0 -299 47l29 131q126 -47 264 -47q261 0 428 177t209 474q-22 -45 -58.5 -88.5t-88.5 -84t-124.5 -65t-152.5 -24.5q-191 0 -306.5 115t-115.5 293q0 145 66.5 267.5t186.5 195.5t267 73q214 0 340.5 -138t126.5 -392q0 -201 -52 -371.5t-149 -296
t-243.5 -196t-327.5 -70.5zM584 213q161 0 275 121t114 284q0 135 -91.5 217.5t-222.5 82.5q-112 0 -202 -56.5t-138.5 -148t-48.5 -197.5q0 -141 87.5 -222t226.5 -81z" />
    <glyph glyph-name="zero.tf" 
d="M606 -27q-239 0 -373.5 155.5t-134.5 436.5q0 130 28 258.5t84 243t133.5 202.5t184 139.5t226.5 51.5q232 0 370 -157t138 -439q0 -133 -28 -261.5t-84 -242t-133.5 -200t-183.5 -137t-227 -50.5zM608 102q114 0 211.5 70t160 181t97.5 244.5t35 266.5
q0 214 -94.5 340.5t-269.5 126.5q-91 0 -172.5 -46.5t-140.5 -124t-102.5 -176.5t-65 -207.5t-21.5 -213.5q0 -214 94 -337.5t268 -123.5z" />
    <glyph glyph-name="one.tf" 
d="M979 1434l-274 -1301h356l-27 -133h-915l28 133h416l182 862l48 213q-80 -104 -198.5 -180.5t-250.5 -95.5l35 155q128 29 259 120t230 227h111z" />
    <glyph glyph-name="two.tf" 
d="M1014 0h-924l35 158q330 185 481 289q343 237 416 458q22 64 22 129q0 134 -85 215.5t-218 81.5q-123 0 -216 -88.5t-107 -257.5l-146 35q25 207 153 323.5t325 116.5q204 0 324 -120t120 -293q0 -285 -303 -529q-107 -95 -243 -184.5t-329 -200.5h338h385z" />
    <glyph glyph-name="three.tf" 
d="M588 -27q-218 0 -339.5 114t-115.5 316l148 29q-10 -152 73.5 -242t233.5 -90t245 90t95 224q0 120 -81.5 191t-205.5 71h-102l28 125h107q161 0 255.5 79.5t94.5 213.5q0 108 -78 173.5t-194 65.5q-132 0 -219 -78.5t-101 -207.5l-145 36q29 169 153 273t320 104
q187 0 299 -97.5t112 -248.5q0 -154 -89.5 -254t-231.5 -133q96 -35 160.5 -119t64.5 -202q0 -89 -34 -167.5t-95.5 -137.5t-154 -93.5t-203.5 -34.5z" />
    <glyph glyph-name="four.tf" 
d="M821 0h-139l86 406h-680l29 135l784 893h225l-192 -906h221l-25 -122h-223zM530 528h265l110 529l58 262l-691 -791h258z" />
    <glyph glyph-name="five.tf" 
d="M582 -27q-109 0 -195.5 29.5t-141 81t-85.5 114.5t-39 136l143 35q9 -125 97.5 -197t224.5 -72q172 0 275.5 109t103.5 280q0 128 -83 210.5t-214 82.5q-103 0 -176.5 -43.5t-139.5 -130.5l-153 39l258 787h794l-28 -134h-680l-111 -346q-30 -86 -70 -213
q134 162 338 162q177 0 295.5 -114.5t118.5 -292.5q0 -231 -147.5 -377t-384.5 -146z" />
    <glyph glyph-name="six.tf" 
d="M631 -27q-218 0 -341.5 137.5t-123.5 397.5q0 153 31.5 294t96 261t155.5 208.5t216.5 138.5t272.5 50q85 0 172.5 -15t144.5 -40l-28 -139q-140 57 -293 57q-249 0 -411 -174.5t-201 -468.5q52 101 155 170.5t244 69.5q99 0 180 -34t133.5 -91.5t80.5 -132t28 -158.5
q0 -146 -64 -267t-182 -192.5t-266 -71.5zM627 100q159 0 262.5 115t103.5 274q0 142 -85.5 224t-221.5 82q-155 0 -259.5 -114t-104.5 -273q0 -141 86.5 -224.5t218.5 -83.5z" />
    <glyph glyph-name="seven.tf" 
d="M473 0h-162q99 819 813 1300h-301h-481l29 134h940l-31 -144q-169 -117 -299.5 -242t-217.5 -246.5t-147.5 -258t-93 -265t-49.5 -278.5z" />
    <glyph glyph-name="eight.tf" 
d="M586 -27q-224 0 -344.5 108t-120.5 273q0 146 104.5 263.5t272.5 146.5q-84 37 -141.5 111.5t-57.5 179.5q0 177 133 291t342 114q192 0 310 -98t118 -250q0 -141 -90.5 -244.5t-230.5 -136.5q97 -37 161 -120.5t64 -200.5t-62.5 -216t-182.5 -160t-275 -61zM723 803
q145 0 238.5 84t93.5 205q0 113 -80.5 178t-206.5 65q-139 0 -233.5 -82t-94.5 -204q0 -115 80 -180.5t203 -65.5zM588 98q162 0 265 91t103 227q0 126 -88.5 199t-228.5 73q-158 0 -262.5 -92t-104.5 -227q0 -125 89 -198t227 -73z" />
    <glyph glyph-name="nine.tf" 
d="M436 -27q-97 0 -185 17.5t-142 46.5l30 139q116 -63 287 -63q226 0 383 137q193 166 231 508q-51 -102 -153.5 -170t-249.5 -68q-102 0 -184 33.5t-135 91t-81 133t-28 160.5q0 145 60 263t175.5 188.5t266.5 70.5q211 0 344 -145q139 -152 139 -428q0 -148 -29.5 -282
t-91.5 -250t-150.5 -200.5t-213 -133t-273.5 -48.5zM666 643q156 0 260 106t104 261q0 142 -92.5 232.5t-218.5 90.5q-108 0 -191 -53t-125.5 -138.5t-42.5 -187.5q0 -144 86.5 -227.5t219.5 -83.5z" />
    <glyph glyph-name="zero.subs" horiz-adv-x="864" 
d="M324 -236q-140 0 -218.5 89t-78.5 249q0 130 46 243.5t133.5 185t196.5 71.5q136 0 215.5 -91.5t79.5 -248.5q0 -131 -45.5 -244t-132 -183.5t-196.5 -70.5zM326 -131q105 0 177 120t72 275q0 108 -47 171t-127 63q-70 0 -128 -58.5t-89.5 -149.5t-31.5 -190
q0 -110 45.5 -170.5t128.5 -60.5z" />
    <glyph glyph-name="one.subs" horiz-adv-x="555" 
d="M244 -221h-123l84 383q9 43 26.5 123.5t24.5 115.5q-101 -110 -238 -116l27 114q154 20 272 189h97z" />
    <glyph glyph-name="two.subs" horiz-adv-x="747" 
d="M506 -221h-545l25 112q270 152 381.5 252t111.5 211q0 65 -38 104.5t-99 39.5q-71 0 -114 -53t-44 -144l-123 27q7 127 84.5 200.5t202.5 73.5q112 0 184 -67.5t72 -172.5q0 -135 -131 -260q-90 -92 -315 -217h280h90z" />
    <glyph glyph-name="three.subs" horiz-adv-x="749" 
d="M258 -236q-130 0 -202 71t-66 192l127 24q-10 -85 28 -133.5t115 -48.5q70 0 116 42t46 107q0 58 -38.5 91.5t-100.5 33.5h-72l25 103h69q77 0 122.5 37.5t45.5 103.5q0 50 -35 81.5t-90 31.5q-67 0 -108.5 -43t-46.5 -115l-121 29q14 106 89.5 168.5t190.5 62.5
q107 0 175.5 -57t68.5 -148q0 -75 -42.5 -130t-125.5 -81q58 -25 87.5 -70.5t29.5 -101.5q0 -109 -80.5 -179.5t-206.5 -70.5z" />
    <glyph glyph-name="four.subs" horiz-adv-x="753" 
d="M406 -221h-115l47 219h-373l21 104l432 486h160l-103 -490h119l-21 -100h-120zM285 98h73l29 131l47 228l-317 -359h168z" />
    <glyph glyph-name="five.subs" horiz-adv-x="759" 
d="M262 -236q-120 0 -194 61t-82 165l120 28q2 -69 43 -109t113 -40q80 0 130 53t50 139q0 63 -37.5 101.5t-99.5 38.5q-53 0 -89.5 -22t-68.5 -75l-120 31l147 453h471l-20 -105h-371l-43 -143q-23 -61 -33 -100q58 61 156 61q104 0 169.5 -66.5t65.5 -168.5
q0 -133 -85.5 -217.5t-221.5 -84.5z" />
    <glyph glyph-name="six.subs" horiz-adv-x="784" 
d="M297 -236q-129 0 -200.5 80.5t-71.5 225.5q0 237 122 384.5t318 147.5q114 0 194 -39l-22 -110q-92 41 -176 41q-113 0 -190 -72t-107 -199q70 88 190 88q107 0 175.5 -68t68.5 -173q0 -132 -86 -219t-215 -87zM295 -131q75 0 125.5 55t50.5 135q0 69 -38 109.5
t-103 40.5q-74 0 -125 -56t-51 -137q0 -67 39 -107t102 -40z" />
    <glyph glyph-name="seven.subs" horiz-adv-x="677" 
d="M178 -221h-133q45 438 412 704h-111h-287l23 105h553l-23 -103q-216 -149 -314.5 -317t-119.5 -389z" />
    <glyph glyph-name="eight.subs" horiz-adv-x="772" 
d="M266 -236q-122 0 -195 61t-73 161q0 79 53.5 141.5t141.5 87.5q-101 51 -101 152q0 103 78.5 169t200.5 66q107 0 176 -58t69 -147q0 -71 -42.5 -126t-122.5 -81q114 -58 114 -174q0 -109 -85 -180.5t-214 -71.5zM340 248q67 0 110.5 39.5t43.5 99.5q0 52 -34 82.5
t-93 30.5q-67 0 -110.5 -39t-43.5 -99q0 -53 34.5 -83.5t92.5 -30.5zM266 -133q76 0 125 43.5t49 109.5q0 60 -39 96t-106 36q-74 0 -123 -45t-49 -111q0 -60 38.5 -94.5t104.5 -34.5z" />
    <glyph glyph-name="nine.subs" horiz-adv-x="790" 
d="M199 -236q-119 0 -201 43l22 113q67 -45 170 -45q118 0 195 68q88 77 109 204q-33 -42 -83.5 -65t-105.5 -23q-112 0 -182 68t-70 176q0 131 82 215t211 84q126 0 201 -84q82 -91 82 -242q0 -231 -117.5 -371.5t-312.5 -140.5zM322 164q74 0 125 51t51 127
q0 66 -43.5 111t-106.5 45q-74 0 -122 -52.5t-48 -134.5q0 -67 39.5 -107t104.5 -40z" />
    <glyph glyph-name="zero.dnom" horiz-adv-x="862" 
d="M371 -14q-140 0 -218.5 89t-78.5 249q0 130 46.5 243.5t134 184.5t196.5 71q136 0 215 -91.5t79 -248.5q0 -131 -45.5 -243.5t-132.5 -183t-196 -70.5zM373 90q70 0 128.5 57.5t90 147.5t31.5 190q0 109 -47.5 171.5t-129.5 62.5q-69 0 -126.5 -58.5t-89 -149
t-31.5 -189.5q0 -110 45.5 -171t128.5 -61z" />
    <glyph glyph-name="one.dnom" horiz-adv-x="555" 
d="M291 0h-123l84 383q9 43 26.5 124t24.5 116q-102 -111 -237 -117l26 115q156 21 273 188h96z" />
    <glyph glyph-name="two.dnom" horiz-adv-x="747" 
d="M553 0h-545l25 113q108 61 181 106.5t136.5 92.5t99.5 88t56 84.5t20 90.5q0 65 -38 104.5t-99 39.5q-71 0 -114 -53t-44 -144l-122 27q7 127 84 200.5t202 73.5q112 0 184 -67.5t72 -171.5q0 -135 -131 -260q-92 -94 -315 -218h280h90z" />
    <glyph glyph-name="three.dnom" horiz-adv-x="749" 
d="M307 -14q-130 0 -203 71t-65 191l127 24q-10 -84 28 -133t113 -49q71 0 116.5 42.5t45.5 107.5q0 58 -37.5 91.5t-99.5 33.5h-72l23 102h71q77 0 122.5 37.5t45.5 103.5q0 49 -35.5 81t-91.5 32q-67 0 -108.5 -43t-44.5 -115l-123 29q13 106 89.5 168.5t192.5 62.5
q106 0 174 -57.5t68 -147.5q0 -76 -42 -130t-126 -80q119 -51 119 -172q0 -109 -81 -179.5t-206 -70.5z" />
    <glyph glyph-name="four.dnom" horiz-adv-x="753" 
d="M451 0h-115l47 219h-373l23 105l430 485h160l-103 -490h121l-23 -100h-120zM332 319h71l29 132l47 227l-317 -359h170z" />
    <glyph glyph-name="five.dnom" horiz-adv-x="759" 
d="M309 -14q-120 0 -194.5 60.5t-81.5 164.5l121 29q2 -70 43 -110t112 -40q80 0 130 53.5t50 139.5q0 63 -37.5 101t-99.5 38q-53 0 -89 -21.5t-68 -74.5l-121 30l147 453h471l-20 -104h-371l-43 -144q-23 -61 -33 -100q58 61 156 61q104 0 169.5 -66.5t65.5 -168.5
q0 -132 -85.5 -216.5t-221.5 -84.5z" />
    <glyph glyph-name="six.dnom" horiz-adv-x="784" 
d="M344 -14q-129 0 -200.5 80t-71.5 225q0 237 122 384.5t318 147.5q117 0 193 -39l-23 -110q-88 41 -176 41q-113 0 -189 -71.5t-106 -199.5q70 88 188 88q107 0 176.5 -68.5t69.5 -172.5q0 -132 -86 -218.5t-215 -86.5zM342 90q75 0 125.5 55.5t50.5 135.5q0 69 -38.5 109
t-104.5 40q-74 0 -124 -55t-50 -137q0 -67 39 -107.5t102 -40.5z" />
    <glyph glyph-name="seven.dnom" horiz-adv-x="677" 
d="M223 0h-131q45 439 412 705h-111h-287l23 104h553l-23 -102q-217 -148 -315 -316.5t-121 -390.5z" />
    <glyph glyph-name="eight.dnom" horiz-adv-x="772" 
d="M313 -14q-123 0 -195.5 60.5t-72.5 160.5q0 79 53.5 141.5t141.5 87.5q-101 50 -101 152q0 103 78.5 169t200.5 66q107 0 176.5 -58t69.5 -147q0 -71 -43 -125.5t-123 -80.5q114 -58 114 -174q0 -109 -85 -180.5t-214 -71.5zM387 469q67 0 110.5 39.5t43.5 99.5
q0 52 -34 82.5t-93 30.5q-67 0 -110.5 -38.5t-43.5 -98.5q0 -53 34.5 -84t92.5 -31zM313 88q76 0 125 44t49 110q0 60 -39 95.5t-106 35.5q-74 0 -123 -45t-49 -111q0 -60 38.5 -94.5t104.5 -34.5z" />
    <glyph glyph-name="nine.dnom" horiz-adv-x="790" 
d="M246 -14q-119 0 -201 43l23 112q67 -45 170 -45q117 0 194 68q88 77 109 205q-33 -42 -83.5 -65t-105.5 -23q-112 0 -182 67.5t-70 175.5q0 131 82 215t211 84q126 0 201 -84q82 -91 82 -241q0 -231 -117.5 -371.5t-312.5 -140.5zM369 385q74 0 125 51t51 127
q0 66 -43.5 111t-106.5 45q-74 0 -122 -52.5t-48 -134.5q0 -67 39.5 -107t104.5 -40z" />
    <glyph glyph-name="zero.numr" horiz-adv-x="864" 
d="M504 610q-140 0 -218.5 89t-78.5 247q0 131 46.5 245t134 185.5t196.5 71.5q136 0 215.5 -91.5t79.5 -248.5q0 -131 -45.5 -244t-132.5 -183.5t-197 -70.5zM506 715q105 0 177.5 120t72.5 273q0 110 -47 172.5t-127 62.5q-70 0 -128.5 -58.5t-90 -149t-31.5 -189.5
q0 -112 45 -171.5t129 -59.5z" />
    <glyph glyph-name="one.numr" horiz-adv-x="555" 
d="M426 625h-123l82 383q7 31 25 113t28 126q-105 -111 -237 -117l24 113q157 20 273 191h98z" />
    <glyph glyph-name="two.numr" horiz-adv-x="747" 
d="M684 625h-543l25 112q270 152 381.5 252t111.5 211q0 64 -37.5 103.5t-99.5 39.5q-71 0 -113.5 -52.5t-43.5 -143.5l-123 27q8 126 85 200t201 74q112 0 184 -67.5t72 -172.5q0 -135 -131 -260q-97 -97 -317 -217h282h91z" />
    <glyph glyph-name="three.numr" horiz-adv-x="751" 
d="M438 610q-130 0 -202 71t-66 191l127 23q-10 -83 29 -131.5t114 -48.5q72 0 117 41.5t45 107.5q0 58 -37.5 91.5t-99.5 33.5h-72l23 103h71q77 0 121.5 37.5t44.5 103.5q0 50 -35 81.5t-90 31.5q-67 0 -108.5 -43.5t-44.5 -114.5l-123 29q14 106 89.5 168.5t190.5 62.5
q107 0 175.5 -57t68.5 -148q0 -75 -42.5 -130t-125.5 -81q117 -50 117 -172q0 -109 -80.5 -179.5t-206.5 -70.5z" />
    <glyph glyph-name="four.numr" horiz-adv-x="753" 
d="M586 625h-115l45 219h-371l21 102l432 488h160l-103 -490h119l-20 -100h-123zM465 944h74l26 131q9 38 25.5 117t23.5 111l-317 -359h168z" />
    <glyph glyph-name="five.numr" horiz-adv-x="761" 
d="M442 610q-120 0 -195 61t-81 165l121 28q2 -70 42 -109.5t113 -39.5q80 0 130.5 53t50.5 139q0 63 -38.5 101.5t-101.5 38.5q-51 0 -87 -22.5t-70 -74.5l-121 31l149 453h471l-20 -107h-371l-45 -141q-2 -7 -13 -41.5t-18 -59.5q59 62 156 62q103 0 168.5 -67t65.5 -169
q0 -134 -85 -217.5t-221 -83.5z" />
    <glyph glyph-name="six.numr" horiz-adv-x="784" 
d="M477 610q-130 0 -201 80t-71 225q0 237 122 385t318 148q113 0 193 -39l-23 -111q-88 41 -176 41q-113 0 -189 -71t-106 -199q66 86 188 86q107 0 176.5 -68t69.5 -174q0 -130 -86 -216.5t-215 -86.5zM475 715q75 0 125.5 54t50.5 136q0 69 -38.5 109.5t-104.5 40.5
q-73 0 -124.5 -56.5t-51.5 -136.5q0 -67 39 -107t104 -40z" />
    <glyph glyph-name="seven.numr" horiz-adv-x="677" 
d="M356 625h-133q49 441 414 702h-113h-284l22 107h553l-22 -103q-217 -148 -315.5 -316t-121.5 -390z" />
    <glyph glyph-name="eight.numr" horiz-adv-x="772" 
d="M446 610q-123 0 -195.5 60t-72.5 161q0 79 53 142t140 88q-99 51 -99 151q0 103 78.5 169.5t198.5 66.5q109 0 178.5 -58t69.5 -147q0 -72 -43 -127.5t-123 -81.5q114 -56 114 -172q0 -109 -85 -180.5t-214 -71.5zM520 1094q67 0 110.5 38.5t43.5 98.5q0 52 -35 83.5
t-92 31.5q-68 0 -111 -39.5t-43 -100.5q0 -52 34 -82t93 -30zM446 713q76 0 125.5 43.5t49.5 109.5q0 60 -39.5 95.5t-106.5 35.5q-75 0 -123.5 -44.5t-48.5 -110.5q0 -60 38.5 -94.5t104.5 -34.5z" />
    <glyph glyph-name="nine.numr" horiz-adv-x="790" 
d="M377 610q-123 0 -199 43l23 113q67 -45 170 -45q121 0 194 67q88 81 109 205q-33 -43 -83 -65.5t-106 -22.5q-113 0 -182.5 68t-69.5 176q0 131 82 215t209 84q128 0 203 -84q80 -89 80 -242q0 -231 -117 -371.5t-313 -140.5zM502 1008q74 0 125 51t51 127
q0 67 -43.5 112t-106.5 45q-74 0 -122 -52.5t-48 -133.5q0 -67 39.5 -108t104.5 -41z" />
    <glyph glyph-name="exclamdown.case" horiz-adv-x="581" 
d="M395 1434h193l-49 -226h-193zM369 1014h63l-94 -631l-80 -383h-145l84 387z" />
    <glyph glyph-name="questiondown.case" horiz-adv-x="974" 
d="M625 1434h192l-49 -226h-193zM573 1014h140q-30 -148 -74.5 -219t-169.5 -154q-58 -38 -90 -60.5t-72 -57t-60 -63.5t-34 -68t-14 -83q0 -94 62 -151.5t169 -57.5q134 0 212 86.5t87 247.5l135 -28q-8 -197 -127.5 -314t-312.5 -117q-166 0 -269.5 93t-103.5 229
q0 44 10 84.5t23 72t41.5 66t50.5 57.5t65.5 56.5t70.5 52.5t81 55q50 34 79 60t48.5 59t29.5 64.5t23 89.5z" />
    <glyph glyph-name="period.tf" 
d="M645 0h-229l59 270h230z" />
    <glyph glyph-name="comma.tf" 
d="M430 -309h-121l226 309h-115l59 270h230l-62 -278z" />
    <glyph glyph-name="colon.tf" 
d="M811 791h-229l57 270h229zM643 0h-229l57 270h231z" />
    <glyph glyph-name="semicolon.tf" 
d="M821 791h-229l57 270h230zM432 -309h-121l226 309h-115l59 270h230l-62 -278z" />
    <glyph glyph-name="numbersign.tf" 
d="M229 0h-139l98 238q10 22 37.5 88t42.5 98h-147h-66l27 121h235l154 358h-252l25 123h278l170 408h139l-88 -209l-84 -199h134h163l172 408h138l-86 -209l-84 -199h143h70l-27 -123h-238l-151 -358h244l-27 -121h-268l-178 -424h-138l97 236l79 188h-145h-149zM608 903
l-151 -358h297l151 358h-297z" />
    <glyph glyph-name="parenleft.case" horiz-adv-x="661" 
d="M473 -94l-29 -131q-108 32 -176.5 116t-98.5 207t-30 293q0 160 30.5 332t92.5 335.5t145.5 296t199.5 218t245 96.5l-29 -129q-104 -21 -196.5 -108.5t-156.5 -211.5t-111.5 -271.5t-70 -291t-22.5 -266.5q0 -215 51 -332t156 -153z" />
    <glyph glyph-name="parenright.case" horiz-adv-x="661" 
d="M283 1540l26 129q160 -48 233.5 -203t73.5 -413q0 -133 -22 -275.5t-63 -282t-104 -265.5t-140 -224t-176 -160t-207 -71l28 129q104 21 196 109.5t156 212.5t111 271.5t69.5 290t22.5 265.5q0 216 -49.5 333t-154.5 154z" />
    <glyph glyph-name="braceleft.case" horiz-adv-x="686" 
d="M465 -205h-82q-124 0 -174.5 78t-20.5 209l58 272q10 43 15 68t9.5 59t3 53t-6.5 42t-18.5 35.5t-33.5 24.5t-49.5 16.5t-69.5 4.5l27 125q35 0 64 4.5t51.5 11.5t41.5 21t32.5 27t26 36t20 40.5t16 49t13.5 53.5t13 60l66 304q28 133 92.5 196.5t202.5 63.5h96l-24 -113
h-80q-66 0 -104.5 -37t-55.5 -119l-66 -307q-34 -161 -92 -247.5t-176 -112.5q67 -22 100.5 -72.5t33.5 -119.5t-17 -156l-64 -302q-19 -81 4.5 -118t88.5 -37h83z" />
    <glyph glyph-name="braceright.case" horiz-adv-x="684" 
d="M313 1647h82q124 0 174.5 -77.5t22.5 -207.5l-60 -275q-9 -37 -13.5 -60t-9.5 -53.5t-5 -49t2.5 -41t11 -35.5t21.5 -27t33 -21t47.5 -11.5t62.5 -4.5l-27 -125q-35 0 -64 -4.5t-51.5 -11t-41.5 -21t-32 -26.5t-25.5 -36t-20 -40.5t-16.5 -49t-13.5 -53.5t-13.5 -61
l-64 -301q-14 -66 -34 -111t-53.5 -81t-85.5 -53t-124 -17h-96l25 115h82q66 0 104 36.5t55 116.5l66 310q34 162 91.5 248t176.5 112q-68 22 -102 72.5t-34 119.5t17 156l66 301q17 81 -6 117.5t-88 36.5h-82z" />
    <glyph glyph-name="bracketleft.case" horiz-adv-x="694" 
d="M481 -205h-405l395 1854h403l-24 -113h-277l-346 -1626h279z" />
    <glyph glyph-name="bracketright.case" horiz-adv-x="692" 
d="M307 1649h404l-394 -1854h-405l25 115h276l346 1626h-276z" />
    <glyph glyph-name="angleleft.case" horiz-adv-x="686" 
d="M760 1671l102 -74l-612 -888l229 -893l-121 -39l-243 948z" />
    <glyph glyph-name="angleright.case" horiz-adv-x="686" 
d="M299 1630l123 39l244 -948l-648 -946l-100 71l610 887z" />
    <glyph glyph-name="uni3010.case" horiz-adv-x="743" 
d="M571 -205h-495l393 1854h496q-241 -224 -378.5 -448.5t-193.5 -481.5q-56 -246 -14.5 -468t192.5 -456z" />
    <glyph glyph-name="uni3011.case" horiz-adv-x="743" 
d="M266 1649h496l-393 -1854h-498q242 226 379.5 451t191.5 481q56 246 15 468.5t-191 453.5z" />
    <glyph glyph-name="uni300C.case" horiz-adv-x="702" 
d="M354 748h-127l191 901h485l-26 -117h-355z" />
    <glyph glyph-name="uni300D.case" horiz-adv-x="708" 
d="M444 698h129l-190 -901h-485l24 117h357z" />
    <glyph glyph-name="uni300A.case" horiz-adv-x="1085" 
d="M760 1669l102 -72l-612 -890l229 -897l-121 -39l-243 952zM1180 1669l102 -72l-649 -938l217 -849l-123 -39l-229 901z" />
    <glyph glyph-name="uni300B.case" horiz-adv-x="1083" 
d="M328 1632l123 39l229 -903l-682 -997l-102 73l649 938zM696 1632l123 39l244 -952l-647 -948l-101 73l613 889z" />
    <glyph glyph-name="uni3014.case" horiz-adv-x="618" 
d="M797 1577l-355 -322l-231 -1087l221 -324l-104 -73l-250 368l248 1178l389 354z" />
    <glyph glyph-name="uni3015.case" horiz-adv-x="618" 
d="M279 1597l104 74l252 -368l-250 -1178l-389 -354l-82 94l354 319l232 1090z" />
    <glyph glyph-name="uni300E.case" horiz-adv-x="937" 
d="M539 578h-342l227 1071h668l-80 -371h-324zM516 1536l-180 -846h119l147 688h320l34 158h-440z" />
    <glyph glyph-name="uni300F.case" horiz-adv-x="964" 
d="M492 868h342l-228 -1071h-669l79 371h326zM514 -90l180 846h-119l-147 -688h-322l-32 -158h440z" />
    <glyph glyph-name="hyphen.case" horiz-adv-x="841" 
d="M705 662h-508l28 143h508z" />
    <glyph glyph-name="uni00AD.case" horiz-adv-x="841" 
d="M705 662h-508l28 143h508z" />
    <glyph glyph-name="endash.case" horiz-adv-x="1259" 
d="M1128 670h-938l29 125h936z" />
    <glyph glyph-name="emdash.case" horiz-adv-x="1980" 
d="M1847 670h-1657l27 125h1659z" />
    <glyph glyph-name="guillemotleft.case" horiz-adv-x="1073" 
d="M514 1122h158l-365 -436l166 -405h-137l-174 419zM932 1122h158l-402 -479l150 -362h-138l-157 376z" />
    <glyph glyph-name="guillemotright.case" horiz-adv-x="1077" 
d="M324 1122h137l157 -377l-389 -464h-157l403 479zM688 1122h137l174 -420l-352 -421h-158l367 434z" />
    <glyph glyph-name="guilsinglleft.case" horiz-adv-x="677" 
d="M514 1122h158l-365 -436l168 -405h-137l-176 419z" />
    <glyph glyph-name="guilsinglright.case" horiz-adv-x="677" 
d="M287 1122h137l176 -420l-352 -421h-158l365 434z" />
    <glyph glyph-name="space.tf" 
 />
    <glyph glyph-name="uni20BF.tf" 
d="M942 741q101 -24 172.5 -106t71.5 -205q0 -183 -139.5 -306.5t-360.5 -123.5l-47 -215h-115l47 215h-151l-45 -215h-117l47 215h-225l305 1434h221l47 213h117l-47 -213h141h10l48 213h114l-49 -226q122 -28 192 -110t70 -203q0 -132 -83.5 -231t-223.5 -136zM840 1300
h-340l-105 -491h357q157 0 253.5 76.5t96.5 204.5q0 101 -69 155.5t-193 54.5zM252 133h426q161 0 259.5 86.5t98.5 224.5q0 106 -74 171t-208 65h-385z" />
    <glyph glyph-name="cent.tf" 
d="M543 -244h-109l49 232q-135 32 -214 138.5t-79 272.5q0 117 37 230.5t102.5 203.5t164.5 147t213 60l45 211h110l-47 -221q120 -25 197.5 -104.5t97.5 -180.5l-133 -40q-16 75 -64 130.5t-125 73.5l-110 -522q-48 -219 -62 -293q112 4 197.5 71.5t130.5 172.5l119 -59
q-151 -306 -473 -306zM508 109l110 512q9 46 19.5 96.5t23 109.5t19.5 91q-109 -12 -191 -94.5t-120.5 -193t-38.5 -227.5q0 -119 48.5 -193.5t129.5 -100.5z" />
    <glyph glyph-name="currency.tf" 
d="M371 365l-195 -172l-80 94l195 168q-49 87 -49 200q0 202 127 351l-140 165l93 80l141 -164q125 82 268 82q149 0 256 -90l197 170l78 -92l-197 -172q55 -90 55 -205q0 -194 -127 -338l140 -161l-95 -84l-139 163q-122 -88 -268 -88q-153 0 -260 93zM637 397
q149 0 249.5 115t100.5 272q0 119 -71 189.5t-189 70.5q-152 0 -253 -114.5t-101 -270.5q0 -121 72.5 -191.5t191.5 -70.5z" />
    <glyph glyph-name="dollar.tf" 
d="M532 -221h-118l45 209q-153 30 -249 124.5t-118 231.5l141 53q14 -102 78.5 -176t173.5 -102l121 565l-59 23q-59 23 -101.5 47t-84 61.5t-63.5 92t-22 124.5q0 193 135 310.5t361 117.5l41 187h119l-43 -201q77 -16 139.5 -51.5t101 -80.5t61.5 -88.5t32 -86.5l-140 -49
q-6 27 -20 56.5t-39 63t-67.5 61.5t-96.5 42l-112 -525l63 -24q61 -22 111.5 -52.5t96 -73.5t71.5 -104t26 -133q0 -200 -141.5 -314t-401.5 -114zM637 823l55 258q8 44 26 127t25 121q-149 -1 -236 -80t-87 -200q0 -82 50 -133t167 -93zM600 102q172 0 268.5 81.5
t96.5 207.5q0 95 -59.5 154t-188.5 102l-49 -235q-8 -36 -31 -143.5t-37 -166.5z" />
    <glyph glyph-name="Euro.tf" 
d="M657 -27q-205 0 -313.5 142t-105.5 399h-177l25 115h154q12 104 34 202h-143l23 115h155q38 110 94.5 202.5t128 162.5t161 109.5t186.5 39.5q88 0 160 -27.5t117.5 -70.5t77 -99t45.5 -109t17 -105l-137 -31q-2 38 -10.5 77t-29.5 83t-52 77.5t-81.5 55.5t-113.5 22
q-139 0 -247 -106.5t-172 -280.5h241h199l-25 -115h-452q-25 -82 -41 -202h450l-24 -115h-191h-237q-3 -196 72 -304t217 -108q72 0 135.5 28t111.5 77t84 107t62 126l121 -51q-27 -76 -70 -146t-106 -132.5t-152 -100t-191 -37.5z" />
    <glyph glyph-name="liraturkish.tf" 
d="M416 0h-180l69 336l45 203q-17 -8 -70.5 -35.5t-78.5 -38.5l-68 -35l31 143l215 109l33 154l-217 -107l30 141l217 109l97 455h143l-39 -191l-39 -184q53 28 193 96l301 152l-33 -146l-492 -248l-32 -149l493 248l-30 -144l-496 -250l-100 -483h34q41 0 88 7.5t108 24.5
t120 51.5t115 83t102.5 124.5t73.5 170l133 -61q-32 -111 -97 -206.5t-159.5 -169.5t-225.5 -116.5t-284 -42.5z" />
    <glyph glyph-name="uni20BD.tf" 
d="M760 596h-324l-37 -176h389l-26 -119h-387l-64 -301h-143l63 301h-157l24 119h158l39 176h-160l27 125h157l152 713h371q209 0 324.5 -105t115.5 -268q-1 -138 -67 -244t-184.5 -163.5t-270.5 -57.5zM834 1300h-248l-123 -579h287q177 0 280 93t103 245q2 103 -77 172
t-222 69z" />
    <glyph glyph-name="uni20B9.tf" 
d="M1313 1434l-25 -119h-153h-246q58 -24 96.5 -79t50.5 -126h207l-24 -117h-185q-23 -122 -120.5 -211.5t-243.5 -107.5q53 -8 91.5 -28t61.5 -45t38.5 -64.5t22 -76.5t11.5 -91l29 -369h-154l-25 381q-8 125 -72 181t-204 56h-272l26 132h314q141 0 238.5 66t123.5 177
h-625l27 117h606q-12 98 -84.5 151.5t-193.5 53.5h-287l27 119h944z" />
    <glyph glyph-name="sterling.tf" 
d="M795 1331q-148 0 -236 -92t-88 -227q0 -69 14 -123.5t41 -124.5h385l-24 -115h-324q17 -70 17 -133q1 -125 -65.5 -222.5t-190.5 -160.5h266h477l-27 -133h-968l26 131q149 36 246.5 131.5t97.5 235.5q0 74 -24 151h-205l25 115h135q-51 128 -51 246q0 194 133.5 321
t345.5 127q120 0 216 -44t154.5 -133.5t59.5 -211.5l-144 -39q-4 145 -82.5 223t-209.5 78z" />
    <glyph glyph-name="uni20A9.tf" 
d="M1309 909l-25 -110h-190l-62 -193h195l-25 -112h-207l-159 -494h-185l19 473q15 186 22 307q-22 -60 -63.5 -174.5t-48.5 -132.5l-181 -473h-188l53 494h-203l23 112h192l21 193h-188l24 110h176l56 525h137l-82 -691q-52 -393 -74 -565q46 115 127 332l178 467h166
l-24 -471q-2 -59 -7.5 -167.5t-7.5 -156.5q134 438 170 559l211 693h141l-170 -525h179z" />
    <glyph glyph-name="yen.tf" 
d="M1223 1434h184l-576 -676h281l-25 -115h-346l-43 -199h346l-24 -114h-346l-70 -330h-143l71 330h-366l24 114h367l41 199h-367l27 115h293l-303 676h155l209 -482q17 -43 74 -168q95 116 141 170z" />
    <glyph glyph-name="multiply.case.tf" 
d="M682 639l-389 -387l-88 90l387 387l-389 385l92 92l389 -385l387 385l90 -90l-387 -385l387 -389l-90 -92z" />
    <glyph glyph-name="plus.tf" 
d="M748 170h-132v487h-477v131h477v488l132 -2v-486h477v-131h-477v-487z" />
    <glyph glyph-name="minus.tf" 
d="M1165 657h-979v131h979v-131z" />
    <glyph glyph-name="multiply.tf" 
d="M682 639l-389 -387l-88 90l387 387l-389 385l92 92l389 -385l387 385l90 -90l-387 -385l387 -389l-90 -92z" />
    <glyph glyph-name="divide.tf" 
d="M772 1026h-180v231h180v-231zM1178 657h-994v131h994v-131zM772 190h-180v232h180v-232z" />
    <glyph glyph-name="equal.tf" 
d="M1163 866h-991v131h991v-131zM1163 442h-991v131h991v-131z" />
    <glyph glyph-name="notequal.tf" 
d="M428 164h-133l154 278h-279v131h350l80 144q11 20 40 71.5t44 77.5h-184h-330v131h588l147 269h133l-149 -269h272v-131h-344l-84 -149l-80 -144h170h338v-131h-579z" />
    <glyph glyph-name="greater.tf" 
d="M1225 616l-989 -460v149l614 285q111 50 278 127q-29 13 -127.5 58.5t-150.5 68.5l-614 284v154l989 -463v-203z" />
    <glyph glyph-name="less.tf" 
d="M137 821l989 461v-149l-614 -283q-54 -24 -155.5 -70.5t-123.5 -56.5l279 -129l614 -283v-155l-989 465v200z" />
    <glyph glyph-name="greaterequal.tf" 
d="M1176 727l-990 -344v141l613 209q71 22 174.5 55t122.5 39q-287 90 -297 93l-613 213v145l990 -346v-205zM1176 172h-990v133h990v-133z" />
    <glyph glyph-name="lessequal.tf" 
d="M1145 528v-145l-989 344v203l989 348v-141l-613 -211q-200 -66 -296 -95q115 -39 296 -92zM1145 172h-989v133h989v-133z" />
    <glyph glyph-name="plusminus.tf" 
d="M717 479h-119v328h-436v129h436v340l119 -2v-338h436v-129h-436v-328zM1151 172h-991v133h991v-133z" />
    <glyph glyph-name="approxequal.tf" 
d="M895 815q-44 0 -88 12t-119 45l-63 29q-113 49 -176 49q-103 0 -203 -108l-82 98q65 75 142.5 111t150.5 36q90 0 207 -55l63 -28q115 -50 176 -50q102 0 203 109l82 -100q-63 -73 -142 -110.5t-151 -37.5zM895 365q-44 0 -88 12t-119 45l-63 29q-113 49 -176 49
q-102 0 -203 -109l-82 98q65 75 142.5 111.5t150.5 36.5q90 0 207 -55l63 -29q113 -49 176 -49q103 0 203 108l82 -100q-63 -73 -142 -110t-151 -37z" />
    <glyph glyph-name="logicalnot.tf" 
d="M1130 350h-118v318h-860v131h978v-449z" />
    <glyph glyph-name="percent.tf" 
d="M424 780q-114 0 -178 69t-64 191q0 106 37 201t110 157t167 62q110 0 171.5 -70.5t61.5 -193.5q0 -107 -36 -201t-107.5 -154.5t-161.5 -60.5zM242 0h-125l1007 1434h123zM424 881q59 0 103.5 53.5t64.5 125t20 144.5q0 75 -32 114.5t-91 39.5q-60 0 -104.5 -52.5
t-64 -124.5t-19.5 -147q0 -74 31.5 -113.5t91.5 -39.5zM872 -27q-115 0 -178 69t-63 191q0 105 36.5 200t109 157.5t163.5 62.5q112 0 175 -71t63 -195q0 -106 -36.5 -199.5t-108 -154t-161.5 -60.5zM870 74q59 0 103.5 52.5t65 124t20.5 144.5q0 75 -31.5 115.5t-89.5 40.5
q-61 0 -106 -53t-64.5 -124.5t-19.5 -146.5q0 -74 31 -113.5t91 -39.5z" />
    <glyph glyph-name="perthousand.tf" 
d="M315 780q-86 0 -134 57.5t-48 172.5q0 79 18 157t52 144.5t88.5 107.5t120.5 41q85 0 132.5 -56.5t47.5 -168.5q0 -79 -18.5 -158t-52 -146t-87.5 -109t-119 -42zM-39 0l1014 1434h117l-1014 -1434h-117zM406 1358q-39 0 -71 -37.5t-50.5 -94t-28.5 -115t-10 -107.5
q0 -123 76 -123q37 0 68.5 38t50.5 94.5t29.5 116.5t10.5 109q0 119 -75 119zM1049 653q84 0 132 -56t48 -163q0 -79 -16.5 -158t-48 -148t-84.5 -112t-119 -43q-113 0 -156 99q-69 -99 -162 -99q-86 0 -133 55.5t-47 166.5q0 78 16.5 156t48 147t84.5 112t119 43
q110 0 154 -100q67 100 164 100zM649 74q46 0 83.5 65t56 147.5t18.5 153.5q0 52 -19.5 81.5t-56.5 29.5t-69 -38.5t-50.5 -96.5t-28.5 -118t-10 -110q0 -114 76 -114zM958 74q39 0 71.5 39t50.5 97.5t28 119t10 110.5q0 54 -20.5 82.5t-57.5 28.5t-68 -41t-49 -100.5
t-28 -118.5t-10 -103q0 -56 19.5 -85t53.5 -29z" />
    <glyph glyph-name="at.case" horiz-adv-x="1865" 
d="M956 -141q-232 0 -413 90t-284 258.5t-103 390.5q0 203 68.5 380.5t189 305.5t293 201.5t372.5 73.5q178 0 325 -54.5t243.5 -148.5t149 -220t52.5 -270q0 -127 -40 -239.5t-105 -189t-149.5 -121t-172.5 -44.5q-102 0 -150.5 46.5t-45.5 115.5q-122 -162 -297 -162
q-138 0 -216.5 92t-78.5 246q0 129 52 248.5t152 199t224 79.5q60 0 109 -17t79.5 -45.5t48 -53t29.5 -50.5l29 139h117l-134 -623q-9 -51 14 -79.5t77 -28.5q83 0 159 66t123 179t47 242q0 120 -42.5 224t-122 182.5t-202.5 124t-274 45.5q-173 0 -321 -64t-250.5 -175.5
t-160.5 -266t-58 -330.5q0 -196 90.5 -341t239.5 -217.5t335 -72.5q320 0 535 154l51 -109q-226 -161 -584 -161zM909 379q95 0 174.5 63t121.5 157.5t42 195.5q0 116 -58 176.5t-157 60.5q-89 0 -161.5 -64.5t-110 -159t-37.5 -192.5q0 -115 48 -176t138 -61z" />
    </font>
</defs>
</svg>
