<?xml version="1.0" standalone="no"?>
<!DOCTYPE svg PUBLIC "-//W3C//DTD SVG 1.1//EN" "http://www.w3.org/Graphics/SVG/1.1/DTD/svg11.dtd" >
<svg xmlns="http://www.w3.org/2000/svg" xmlns:xlink="http://www.w3.org/1999/xlink" version="1.1">
<metadata>
Created by FontForge 20170731 at Wed Dec 29 09:47:00 2021
 By Aleksey,,,
Copyright 2021 Dinamo (Johannes Breyer, Fabian Harb) &#38; Erkin Karamemet. All rights reserved.
</metadata>
<defs>
<font id="ABCWhyte-Medium" horiz-adv-x="1269" >
  <font-face 
    font-family="ABC Whyte Medium"
    font-weight="500"
    font-stretch="normal"
    units-per-em="2048"
    panose-1="2 11 0 4 4 2 2 6 2 3"
    ascent="1649"
    descent="-399"
    x-height="1020"
    cap-height="1434"
    bbox="-438 -668 2480 2042"
    underline-thickness="102"
    underline-position="-307"
    unicode-range="U+0020-FB02"
  />
<missing-glyph horiz-adv-x="1439" 
d="M1251 0h-1061v1440h1061v-1440zM403 1253v-1067h633v1067h-633z" />
    <glyph glyph-name="fi" unicode="fi" horiz-adv-x="1320" 
d="M913 1180v256h265v-256h-265zM1171 1020v-1020h-249v825h-428v-825h-248v825h-209v195h209v145q0 129 65.5 199t190.5 70h280v-203h-194q-49 0 -71.5 -23t-22.5 -73v-115h677z" />
    <glyph glyph-name="fl" unicode="fl" horiz-adv-x="1323" 
d="M1171 1434v-1434h-247v1231h-336q-49 0 -71.5 -23t-22.5 -73v-115h247v-195h-247v-825h-248v825h-209v195h209v145q0 129 65.5 199t190.5 70h669z" />
    <glyph glyph-name="f_f" unicode="ff" horiz-adv-x="1449" 
d="M1460 1434v-203h-194q-49 0 -72 -23t-23 -73v-115h248v-195h-248v-825h-247v825h-430v-825h-248v825h-209v195h209v145q0 129 65.5 199t190.5 70h280v-203h-194q-49 0 -71.5 -23t-22.5 -73v-115h430v145q0 129 65.5 199t190.5 70h280z" />
    <glyph glyph-name="f_f_i" unicode="ffi" horiz-adv-x="1992" 
d="M1585 1180v256h266v-256h-266zM1845 1020v-1020h-250v825h-424v-825h-247v825h-430v-825h-248v825h-209v195h209v145q0 129 65.5 199t190.5 70h280v-203h-194q-49 0 -71.5 -23t-22.5 -73v-115h430v145q0 129 65.5 199t190.5 70h280v-203h-194q-49 0 -72 -23t-23 -73v-115
h674z" />
    <glyph glyph-name="f_f_l" unicode="ffl" horiz-adv-x="2000" 
d="M1849 1434v-1434h-250v1231h-333q-49 0 -72 -23t-23 -73v-115h248v-195h-248v-825h-247v825h-430v-825h-248v825h-209v195h209v145q0 129 65.5 199t190.5 70h280v-203h-194q-49 0 -71.5 -23t-22.5 -73v-115h430v145q0 129 65.5 199t190.5 70h669z" />
    <glyph glyph-name=".notdef" horiz-adv-x="1439" 
d="M1251 0h-1061v1440h1061v-1440zM403 1253v-1067h633v1067h-633z" />
    <glyph glyph-name=".null" horiz-adv-x="0" 
 />
    <glyph glyph-name="nonmarkingreturn" horiz-adv-x="682" 
 />
    <glyph glyph-name="space" unicode=" " horiz-adv-x="499" 
 />
    <glyph glyph-name="exclam" unicode="!" horiz-adv-x="579" 
d="M346 489h-115l-79 576v369h274v-371zM442 0h-305v299h305v-299z" />
    <glyph glyph-name="quotedbl" unicode="&#x22;" horiz-adv-x="862" 
d="M299 809h-119l-69 397v228h258v-228zM684 809h-119l-69 397v228h256v-228z" />
    <glyph glyph-name="numbersign" unicode="#" horiz-adv-x="1511" 
d="M459 0h-221l26 129q31 145 51 236h-178h-67v204h288l62 295h-248v221h293l74 349h221l-25 -117l-49 -232h178h111l74 349h219l-25 -117q-8 -43 -25.5 -128t-21.5 -104h176h68v-221h-291l-62 -295h250v-204h-293l-75 -365h-224l31 135q20 95 47 230h-178h-108zM641 864
l-61 -295h286l64 295h-289z" />
    <glyph glyph-name="dollar" unicode="$" horiz-adv-x="1267" 
d="M731 -207h-176v180q-197 24 -320 137t-167 279l229 92q25 -104 89.5 -182t168.5 -104v430l-43 8q-180 35 -278.5 132.5t-98.5 281.5q0 160 112 276t308 137v180h176v-180q93 -13 169.5 -48.5t128 -86t85 -106t51.5 -115.5l-219 -92q-64 185 -215 225v-397l55 -13
q84 -20 151.5 -52.5t124.5 -82t88.5 -122.5t31.5 -164q0 -175 -116 -294.5t-335 -140.5v-178zM555 874v130v239q-86 -17 -130 -66.5t-44 -115.5q0 -76 42.5 -119.5t131.5 -67.5zM731 188q98 17 149.5 71t51.5 132q0 76 -51.5 126.5t-149.5 72.5v-164v-238z" />
    <glyph glyph-name="percent" unicode="%" horiz-adv-x="1816" 
d="M418 596q-161 0 -253.5 115.5t-92.5 312.5q0 194 94 311t252 117q159 0 252.5 -117t93.5 -311q0 -197 -93 -312.5t-253 -115.5zM508 0h-232l1037 1434h229zM418 764q65 0 100 67t35 193q0 121 -36 189.5t-99 68.5t-100 -68.5t-37 -189.5q0 -124 36 -192t101 -68z
M1401 -14q-161 0 -253.5 115.5t-92.5 312.5q0 194 94 311t252 117q159 0 253.5 -117t94.5 -311q0 -197 -93.5 -312.5t-254.5 -115.5zM1401 154q65 0 101 67.5t36 192.5q0 121 -37 189.5t-100 68.5t-100 -68.5t-37 -189.5q0 -124 36 -192t101 -68z" />
    <glyph glyph-name="ampersand" unicode="&#x26;" horiz-adv-x="1411" 
d="M584 -31q-241 0 -372.5 111t-131.5 299q0 129 65.5 224t198.5 175q-78 162 -78 314q0 172 107 272t280 100q168 0 267.5 -90.5t99.5 -218.5q0 -137 -89.5 -235t-301.5 -209q51 -74 149 -168q74 -74 170 -144q79 130 119 303l223 -79q-57 -202 -143 -342q120 -65 252 -111
l-78 -199q-142 40 -320 140q-78 -66 -186 -104t-231 -38zM532 883l62 30q114 60 155.5 114.5t41.5 117.5q0 54 -36.5 92.5t-103.5 38.5q-75 0 -118.5 -50t-43.5 -134q0 -105 43 -209zM600 174q114 0 199 68q-137 100 -246 221q-47 52 -113 139q-112 -80 -112 -203
q0 -95 72.5 -160t199.5 -65z" />
    <glyph glyph-name="quotesingle" unicode="'" horiz-adv-x="477" 
d="M299 809h-119l-69 397v228h258v-228z" />
    <glyph glyph-name="parenleft" unicode="(" horiz-adv-x="684" 
d="M629 -113v-215q-99 14 -181 60t-140 116.5t-101 157.5t-68 190t-37 206.5t-12 213.5q0 111 12 216t37 209.5t68 193t100.5 160t140 116.5t181.5 56v-217q-71 -16 -126 -66t-89 -120t-56 -162.5t-30.5 -186t-8.5 -199.5q0 -105 8.5 -197.5t30.5 -184.5t56 -161t89 -119
t126 -67z" />
    <glyph glyph-name="parenright" unicode=")" horiz-adv-x="684" 
d="M55 1352v215q99 -14 181 -60t140 -116.5t101 -157.5t68 -190t37 -206.5t12 -213.5q0 -111 -12 -216t-37 -209.5t-68 -193t-100.5 -160t-140 -116.5t-181.5 -56v217q88 20 151.5 89.5t97 175.5t48.5 220.5t15 248.5q-1 105 -9.5 197.5t-30.5 185t-56 161t-89.5 118.5
t-126.5 67z" />
    <glyph glyph-name="asterisk" unicode="*" horiz-adv-x="1138" 
d="M565 1026l-139 -266l-195 112l50 72q25 38 127 184q-123 -10 -228 -10h-86v211l303 -18l-161 239l190 113l37 -68q20 -35 56 -104t48 -90q7 13 99 188l34 74l199 -111l-168 -241l313 18v-213h-94q-81 0 -225 12q114 -167 123 -180l53 -76l-203 -106z" />
    <glyph glyph-name="plus" unicode="+" horiz-adv-x="1232" 
d="M727 178h-221v434h-434v222h434v434h221v-434h434v-222h-434v-434z" />
    <glyph glyph-name="comma" unicode="," horiz-adv-x="579" 
d="M262 -315h-137l182 315h-168v299h305v-299z" />
    <glyph glyph-name="hyphen" unicode="-" horiz-adv-x="929" 
d="M801 526h-672v238h672v-238z" />
    <glyph glyph-name="period" unicode="." horiz-adv-x="561" 
d="M434 0h-307v299h307v-299z" />
    <glyph glyph-name="slash" unicode="/" horiz-adv-x="901" 
d="M297 -209h-244l551 1858h244z" />
    <glyph glyph-name="zero" unicode="0" horiz-adv-x="1378" 
d="M690 -31q-129 0 -236.5 49t-185.5 142.5t-121 235.5t-43 321q0 178 45 321t124 235.5t185.5 141.5t231.5 49t231.5 -49t185 -142t123 -235.5t44.5 -320.5q0 -355 -160.5 -551.5t-423.5 -196.5zM690 195q142 0 225.5 128t83.5 394q0 258 -85 390t-224 132
q-141 0 -226 -131.5t-85 -390.5q0 -265 84 -393.5t227 -128.5z" />
    <glyph glyph-name="one" unicode="1" horiz-adv-x="884" 
d="M694 0h-254v918v200q-64 -103 -167 -175t-218 -81v268q142 20 252.5 96t169.5 208h217v-1434z" />
    <glyph glyph-name="two" unicode="2" horiz-adv-x="1228" 
d="M1122 0h-1009v276q404 238 565.5 393.5t161.5 321.5q0 115 -65.5 180.5t-164.5 65.5q-122 0 -185 -86.5t-65 -220.5l-260 41q2 99 36 186.5t96 156.5t160.5 109.5t221.5 40.5q231 0 364.5 -123.5t133.5 -322.5q0 -206 -133 -367q-86 -104 -234 -204t-376 -218h385h368
v-229z" />
    <glyph glyph-name="three" unicode="3" horiz-adv-x="1226" 
d="M610 -31q-232 0 -371.5 117.5t-164.5 323.5l266 55q11 -129 81 -202t189 -73q109 0 177.5 57t68.5 154q0 99 -67.5 158t-180.5 59h-121v216h121q94 0 158.5 55t64.5 149q0 93 -63.5 149t-157.5 56q-100 0 -161.5 -64t-69.5 -171l-262 41q18 180 147.5 297.5t345.5 117.5
q221 0 350.5 -106t129.5 -273q0 -131 -72.5 -219t-192.5 -125q134 -29 214.5 -126.5t80.5 -231.5q0 -185 -137.5 -299.5t-372.5 -114.5z" />
    <glyph glyph-name="four" unicode="4" horiz-adv-x="1271" 
d="M989 0h-250v362h-686v228l563 844h373v-859h213v-213h-213v-362zM592 575h147v244v404l-436 -648h289z" />
    <glyph glyph-name="five" unicode="5" horiz-adv-x="1224" 
d="M616 -31q-216 0 -355.5 102.5t-176.5 268.5l244 82q26 -104 97.5 -168t180.5 -64q118 0 189 70.5t71 192.5q0 119 -71 190.5t-189 71.5q-80 0 -141 -37t-96 -100l-256 49l123 807h847v-230h-663l-41 -268q-13 -83 -23 -148q119 119 314 119q131 0 234.5 -52t164.5 -156.5
t61 -247.5q0 -218 -137.5 -350t-376.5 -132z" />
    <glyph glyph-name="six" unicode="6" horiz-adv-x="1273" 
d="M670 -31q-175 0 -305 90t-196.5 246.5t-66.5 358.5q0 243 80 422t239.5 278.5t383.5 99.5q83 0 165 -15.5t130 -35.5v-244q-147 56 -287 56q-96 0 -178 -32t-145 -94t-99 -162t-37 -228q41 103 140.5 167t230.5 64q201 0 333 -129t132 -336q0 -223 -142 -364.5
t-378 -141.5zM664 190q110 0 186 75.5t76 197.5q0 121 -76 196.5t-186 75.5q-114 0 -188.5 -74.5t-74.5 -197.5t74.5 -198t188.5 -75z" />
    <glyph glyph-name="seven" unicode="7" horiz-adv-x="1093" 
d="M528 0h-278q0 164 33.5 319.5t90.5 281.5t136 241t165 202t183 160h-330h-481v230h1004v-283q-523 -408 -523 -1151z" />
    <glyph glyph-name="eight" unicode="8" horiz-adv-x="1261" 
d="M631 -31q-246 0 -387.5 114.5t-141.5 301.5q0 134 84.5 230t202.5 122q-114 41 -181 125t-67 215q0 166 135 276.5t355 110.5q219 0 355 -110.5t136 -276.5q0 -254 -248 -340q122 -26 202.5 -121t80.5 -231q0 -187 -141 -301.5t-385 -114.5zM633 825q103 0 170 58t67 157
q0 92 -67 150.5t-170 58.5q-105 0 -172.5 -58.5t-67.5 -150.5q0 -99 68 -157t172 -58zM631 190q119 0 189.5 62.5t70.5 167.5q0 102 -71 165.5t-189 63.5q-119 0 -189.5 -63.5t-70.5 -165.5q0 -105 70.5 -167.5t189.5 -62.5z" />
    <glyph glyph-name="nine" unicode="9" horiz-adv-x="1259" 
d="M473 -31q-186 0 -311 49v256q150 -59 307 -59q164 0 283 98q150 128 153 414q-42 -95 -142 -154t-228 -59q-194 0 -320.5 124t-126.5 323q0 221 139 362t365 141q223 0 385 -155q180 -174 180 -539q0 -374 -178.5 -587.5t-505.5 -213.5zM604 719q108 0 180 72t72 188
q0 119 -72 191.5t-180 72.5q-107 0 -179.5 -72.5t-72.5 -191.5q0 -116 72.5 -188t179.5 -72z" />
    <glyph glyph-name="colon" unicode=":" horiz-adv-x="561" 
d="M434 733h-307v301h307v-301zM434 0h-307v299h307v-299z" />
    <glyph glyph-name="semicolon" unicode=";" horiz-adv-x="577" 
d="M444 733h-305v301h305v-301zM260 -315h-135l182 315h-170v299h305v-299z" />
    <glyph glyph-name="less" unicode="&#x3c;" horiz-adv-x="1308" 
d="M80 891l1094 393v-242l-506 -180q-73 -24 -412 -143q60 -20 196 -67t216 -74l506 -181v-250l-1094 396v348z" />
    <glyph glyph-name="equal" unicode="=" horiz-adv-x="1368" 
d="M1231 844h-1096v219h1096v-219zM1231 371h-1096v219h1096v-219z" />
    <glyph glyph-name="greater" unicode="&#x3e;" horiz-adv-x="1310" 
d="M1231 543l-1094 -396v242l506 182q144 48 412 142q-198 69 -412 141l-506 182v248l1094 -393v-348z" />
    <glyph glyph-name="question" unicode="?" horiz-adv-x="1069" 
d="M627 489h-234q0 70 12 122.5t39.5 94t56.5 69.5t79 67q36 29 56.5 47.5t44.5 47.5t35 61t11 69q0 83 -54 131.5t-143 48.5q-208 0 -217 -274l-247 39q6 211 129.5 330.5t341.5 119.5q211 0 331.5 -108t120.5 -271q0 -64 -17 -118t-52 -100.5t-73 -82.5t-95 -80
q-65 -53 -95 -101t-30 -112zM664 0h-306v299h306v-299z" />
    <glyph glyph-name="at" unicode="@" horiz-adv-x="1882" 
d="M981 -254q-271 0 -473.5 100.5t-314 295t-111.5 462.5q0 199 71 363.5t192.5 272t282 166t341.5 58.5q244 0 440.5 -95t311 -272t114.5 -405q0 -120 -35 -222t-93.5 -169.5t-136 -105t-161.5 -37.5q-101 0 -164 44t-84 117q-40 -76 -111.5 -119.5t-162.5 -43.5
q-155 0 -248.5 128.5t-93.5 317.5q0 182 94.5 306t245.5 124q171 0 264 -135v111h205v-592q0 -32 19.5 -51t53.5 -19q75 0 126 92.5t51 253.5q0 262 -173 419t-462 157q-141 0 -260.5 -44t-208 -126t-138 -208.5t-49.5 -283.5q0 -319 177 -491t491 -172q292 0 516 120
l88 -184q-260 -133 -604 -133zM950 344q90 0 141.5 76.5t51.5 195.5q0 109 -50 176.5t-139 67.5q-88 0 -137 -69t-49 -181q0 -119 48 -192.5t134 -73.5z" />
    <glyph glyph-name="A" unicode="A" horiz-adv-x="1472" 
d="M1452 0h-297l-123 354h-602l-125 -354h-287l545 1434h352zM633 928l-121 -344h440l-118 346q-12 35 -101 289q-41 -127 -100 -291z" />
    <glyph glyph-name="B" unicode="B" horiz-adv-x="1458" 
d="M858 0h-672v1434h662q227 0 347 -94.5t120 -254.5q0 -129 -75 -215t-202 -120q142 -25 233 -121t91 -232q0 -186 -142 -291.5t-362 -105.5zM453 1204v-350h358q110 0 171.5 45.5t61.5 134.5q0 170 -233 170h-358zM453 631v-402h366q122 0 193 51t71 150t-71 150t-193 51
h-366z" />
    <glyph glyph-name="C" unicode="C" horiz-adv-x="1529" 
d="M817 -31q-219 0 -385.5 99.5t-253 270t-86.5 384.5q0 156 53.5 292.5t147.5 235.5t230.5 156t295.5 57q129 0 240.5 -35t191 -95.5t134.5 -138t81 -165.5l-247 -94q-21 62 -53 113t-79.5 95t-116.5 68.5t-153 24.5q-205 0 -324.5 -136t-119.5 -376q0 -243 119.5 -384.5
t324.5 -141.5q306 0 408 307l243 -96q-71 -203 -235.5 -322t-415.5 -119z" />
    <glyph glyph-name="D" unicode="D" horiz-adv-x="1533" 
d="M707 0h-521v1434h525q206 0 370.5 -84.5t261.5 -247t97 -377.5q0 -168 -56 -305.5t-154.5 -229t-232.5 -141t-290 -49.5zM453 1204v-975h231q479 0 479 492q0 225 -118 354t-347 129h-245z" />
    <glyph glyph-name="E" unicode="E" horiz-adv-x="1337" 
d="M1239 0h-1053v1434h1053v-230h-786v-352h589v-225h-589v-398h786v-229z" />
    <glyph glyph-name="F" unicode="F" horiz-adv-x="1310" 
d="M453 0h-267v1434h1078v-230h-811v-407h643v-228h-643v-569z" />
    <glyph glyph-name="G" unicode="G" horiz-adv-x="1615" 
d="M772 -31q-143 0 -266.5 51t-215 144.5t-144 235t-52.5 313.5q0 212 98.5 384.5t268 269.5t375.5 97q137 0 251.5 -35.5t194.5 -97.5t133.5 -137.5t83.5 -163.5l-258 -98q-109 303 -405 303q-198 0 -330.5 -139t-132.5 -381t128 -381t326 -139q92 0 168 27t123.5 71.5
t75.5 96.5t33 106h-475v229h741v-725h-246v223q-151 -254 -475 -254z" />
    <glyph glyph-name="H" unicode="H" horiz-adv-x="1576" 
d="M453 0h-267v1434h267v-580h671v580h267v-1434h-267v625h-671v-625z" />
    <glyph glyph-name="I" unicode="I" horiz-adv-x="636" 
d="M453 0h-267v1434h267v-1434z" />
    <glyph glyph-name="J" unicode="J" horiz-adv-x="1107" 
d="M498 -31q-218 0 -341 131t-128 361l270 69q-2 -166 41.5 -250.5t148.5 -84.5q98 0 139.5 71t41.5 219v949h266v-930q0 -273 -108 -404t-330 -131z" />
    <glyph glyph-name="K" unicode="K" horiz-adv-x="1439" 
d="M1462 0h-338l-489 666l-182 -189v-477h-267v1434h267v-277v-352l569 629h358l-563 -580z" />
    <glyph glyph-name="L" unicode="L" horiz-adv-x="1245" 
d="M1225 0h-1039v1434h267v-1201h772v-233z" />
    <glyph glyph-name="M" unicode="M" horiz-adv-x="1994" 
d="M453 0h-267v1434h435l276 -750q71 -198 109 -291q14 36 108 291l275 750h421v-1434h-266v655v537l-436 -1192h-221l-434 1192v-537v-655z" />
    <glyph glyph-name="N" unicode="N" horiz-adv-x="1699" 
d="M453 0h-267v1434h367l694 -983v348v635h266v-1434h-251l-809 1145v-410v-735z" />
    <glyph glyph-name="O" unicode="O" horiz-adv-x="1677" 
d="M840 -31q-224 0 -394.5 95t-262 264t-91.5 387q0 216 92.5 386t263.5 266.5t392 96.5q222 0 392 -96.5t261.5 -266.5t91.5 -386q0 -218 -91 -387t-261 -264t-393 -95zM840 197q215 0 340 145t125 373q0 231 -125 376.5t-340 145.5q-217 0 -342 -145.5t-125 -376.5
q0 -228 125.5 -373t341.5 -145z" />
    <glyph glyph-name="P" unicode="P" horiz-adv-x="1359" 
d="M453 0h-267v1434h617q228 0 365 -123.5t137 -327.5q0 -206 -137 -331.5t-365 -125.5h-350v-526zM453 1204v-452h301q127 0 199.5 62.5t72.5 168.5q0 102 -72 161.5t-200 59.5h-301z" />
    <glyph glyph-name="Q" unicode="Q" horiz-adv-x="1705" 
d="M840 -31q-224 0 -394.5 95t-262 264t-91.5 387q0 216 92.5 386t263.5 266.5t392 96.5q222 0 392 -96.5t261.5 -266.5t91.5 -386q0 -263 -133 -453q51 -33 98.5 -49t122.5 -16v-228q-247 0 -385 131q-186 -131 -448 -131zM840 197q161 0 276 88l-41 49q-41 50 -74 82.5
t-77 62t-95 41.5t-112 8v226q197 32 342 -88q81 -67 194 -209q52 120 52 258q0 231 -125 376.5t-340 145.5q-217 0 -342 -145.5t-125 -376.5q0 -228 125.5 -373t341.5 -145z" />
    <glyph glyph-name="R" unicode="R" horiz-adv-x="1456" 
d="M453 0h-267v1434h668q223 0 350 -106t127 -277q0 -87 -29.5 -158t-80.5 -117.5t-112 -75.5t-132 -43q138 -17 213.5 -89t101.5 -218l66 -350h-287l-49 328q-20 128 -88 182.5t-207 54.5h-274v-565zM453 1204v-416h354q111 0 179.5 53t68.5 156t-68 155t-180 52h-354z" />
    <glyph glyph-name="S" unicode="S" horiz-adv-x="1351" 
d="M688 -31q-133 0 -243 33.5t-185 92.5t-124 134t-73 164l254 94q15 -60 43.5 -111t73 -94t111 -67.5t147.5 -24.5q145 0 218 55.5t73 147.5q0 155 -246 199l-182 31q-202 34 -311 133.5t-109 283.5q0 181 145 302.5t394 121.5q124 0 225.5 -31.5t169 -85t110.5 -115.5
t64 -132l-248 -94q-79 237 -329 237q-129 0 -193.5 -53.5t-64.5 -136.5q0 -141 202 -179l187 -32q214 -35 339.5 -143t125.5 -285q0 -94 -35.5 -174t-105 -141t-180.5 -95.5t-253 -34.5z" />
    <glyph glyph-name="T" unicode="T" horiz-adv-x="1310" 
d="M784 0h-266v1204h-498v230h1270v-230h-506v-1204z" />
    <glyph glyph-name="U" unicode="U" horiz-adv-x="1550" 
d="M776 -31q-283 0 -445.5 153.5t-162.5 434.5v877h266v-836q0 -190 86 -292.5t256 -102.5q173 0 256.5 103.5t83.5 291.5v836h266v-877q0 -277 -164 -432.5t-442 -155.5z" />
    <glyph glyph-name="V" unicode="V" horiz-adv-x="1425" 
d="M903 0h-383l-481 1434h297l262 -848q105 -335 113 -365q16 44 116 363l267 850h292z" />
    <glyph glyph-name="W" unicode="W" horiz-adv-x="2109" 
d="M739 0h-317l-369 1434h287l149 -668q48 -222 99 -453q16 65 98 369l205 752h340l207 -785q81 -308 88 -336q14 60 104 455l154 666h280l-385 -1434h-311l-207 782q-37 139 -66.5 247t-33.5 122l-103 -367z" />
    <glyph glyph-name="X" unicode="X" horiz-adv-x="1415" 
d="M309 0h-311l549 760l-500 674h338l162 -226q52 -73 107 -148.5t71 -98.5q141 201 162 233l168 240h305l-483 -674l542 -760h-340l-205 307q-101 153 -172 256q-21 -29 -81.5 -115.5t-100.5 -142.5z" />
    <glyph glyph-name="Y" unicode="Y" horiz-adv-x="1359" 
d="M815 0h-266v590l-520 844h311l203 -342l145 -246q5 9 27.5 50t51 91.5t60.5 106.5l191 340h305l-508 -840v-594z" />
    <glyph glyph-name="Z" unicode="Z" horiz-adv-x="1333" 
d="M1262 0h-1174v281l832 923h-258h-551v230h1114v-263l-844 -940h258h623v-231z" />
    <glyph glyph-name="bracketleft" unicode="[" horiz-adv-x="720" 
d="M666 -307h-494v1853h494v-196h-265v-1461h265v-196z" />
    <glyph glyph-name="backslash" unicode="\" horiz-adv-x="907" 
d="M854 -209h-248l-551 1858h248z" />
    <glyph glyph-name="bracketright" unicode="]" horiz-adv-x="720" 
d="M55 1546h494v-1853h-494v196h264v1461h-264v196z" />
    <glyph glyph-name="asciicircum" unicode="^" horiz-adv-x="1128" 
d="M336 680h-260l352 754h272l353 -754h-265l-106 250q-81 186 -119 284q-15 -34 -56 -128.5t-67 -153.5z" />
    <glyph glyph-name="underscore" unicode="_" horiz-adv-x="1304" 
d="M1204 -330h-1104v211h1104v-211z" />
    <glyph glyph-name="grave" unicode="`" horiz-adv-x="552" 
d="M444 1159h-165l-226 305h289z" />
    <glyph glyph-name="a" unicode="a" horiz-adv-x="1148" 
d="M416 -31q-144 0 -235 80t-91 213q0 83 35.5 148.5t93 108t143.5 73.5t173.5 47.5t195.5 26.5v34q0 162 -186 162q-190 0 -242 -172l-227 60q19 124 142.5 212.5t326.5 88.5q211 0 322.5 -97t111.5 -284v-412q0 -38 11 -49.5t50 -11.5h95v-197h-191q-91 0 -133.5 39.5
t-52.5 112.5q-51 -81 -136.5 -132t-205.5 -51zM498 158q97 0 165 67t68 195v82q-86 -10 -150 -23.5t-120.5 -38t-86.5 -63.5t-30 -92q0 -60 39.5 -93.5t114.5 -33.5z" />
    <glyph glyph-name="b" unicode="b" horiz-adv-x="1245" 
d="M731 -31q-121 0 -206.5 51.5t-129.5 122.5v-143h-241v1434h247v-373v-184q44 69 127.5 121.5t202.5 52.5q194 0 313 -148t119 -393t-119 -393t-313 -148zM649 166q116 0 185 82.5t69 263.5q0 180 -69 261t-185 81q-118 0 -188 -87.5t-70 -254.5q0 -168 70 -257t188 -89z
" />
    <glyph glyph-name="c" unicode="c" horiz-adv-x="1134" 
d="M604 -31q-232 0 -378 149t-146 394q0 240 149.5 389.5t376.5 149.5q172 0 293 -85t168 -218l-231 -84q-29 86 -89.5 135t-148.5 49q-115 0 -189.5 -87t-74.5 -249q0 -164 75.5 -252t190.5 -88q184 0 252 205l235 -82q-57 -150 -183 -238t-300 -88z" />
    <glyph glyph-name="d" unicode="d" horiz-adv-x="1245" 
d="M516 -31q-194 0 -314 148t-120 393t120 393t314 148q118 0 201.5 -52t126.5 -122v184v373h250v-1434h-244v143q-43 -69 -128.5 -121.5t-205.5 -52.5zM598 166q118 0 188 88t70 256t-70 256t-188 88q-116 0 -186 -82t-70 -262q0 -181 69.5 -262.5t186.5 -81.5z" />
    <glyph glyph-name="e" unicode="e" horiz-adv-x="1140" 
d="M580 -31q-228 0 -363 144.5t-135 396.5q0 242 139 391.5t354 149.5q160 0 275 -80t166.5 -216.5t34.5 -305.5h-719q6 -146 75.5 -214.5t176.5 -68.5q168 0 247 184l226 -84q-26 -63 -65 -114.5t-96 -93.5t-137.5 -65.5t-178.5 -23.5zM338 633h465q-6 110 -67.5 170.5
t-160.5 60.5q-95 0 -159.5 -60.5t-77.5 -170.5z" />
    <glyph glyph-name="f" unicode="f" horiz-adv-x="772" 
d="M494 825v-825h-248v825h-209v195h209v145q0 129 65.5 199t190.5 70h280v-203h-194q-49 0 -71.5 -23t-22.5 -73v-115h247v-195h-247z" />
    <glyph glyph-name="g" unicode="g" horiz-adv-x="1239" 
d="M825 -399h-473q-293 0 -293 209q0 64 37.5 118t89.5 88q-94 62 -94 179q0 130 158 221q-51 41 -82 108t-31 146q0 167 121 274t309 107q133 0 232 -56t145 -141q9 90 47.5 128t130.5 38h88v-195h-100q-57 0 -78 -23t-28 -104l-5 -30q-15 -168 -131.5 -266.5t-294.5 -98.5
q-126 0 -202 35q-84 -27 -84 -82q0 -53 98 -53h440q154 0 249 -85.5t95 -213.5q0 -144 -97.5 -223.5t-246.5 -79.5zM573 477q89 0 143 53t54 142q0 88 -54 144t-143 56q-88 0 -142 -55.5t-54 -144.5t53.5 -142t142.5 -53zM385 -209h397q140 0 140 107q0 102 -140 102h-458
q-25 -14 -44.5 -44t-19.5 -65q0 -100 125 -100z" />
    <glyph glyph-name="h" unicode="h" horiz-adv-x="1210" 
d="M401 0h-247v1434h247v-373v-203q16 30 38 57t61.5 61t101 54.5t135.5 20.5q165 0 248.5 -100t83.5 -273v-678h-250v623q0 219 -184 219q-47 0 -85 -15t-62 -37.5t-41.5 -58t-26 -66t-13 -73t-5.5 -67.5t-1 -60v-465z" />
    <glyph glyph-name="i" unicode="i" horiz-adv-x="548" 
d="M408 1180h-267v256h267v-256zM401 0h-249v1020h249v-1020z" />
    <glyph glyph-name="j" unicode="j" horiz-adv-x="567" 
d="M422 1182h-262v252h262v-252zM158 -399h-234v206h150q51 0 73.5 22.5t22.5 72.5v1118h246v-1159q0 -124 -66.5 -192t-191.5 -68z" />
    <glyph glyph-name="k" unicode="k" horiz-adv-x="1210" 
d="M1225 0h-316l-344 442l-164 -155v-287h-247v1434h247v-512v-355l457 453h313l-432 -412z" />
    <glyph glyph-name="l" unicode="l" horiz-adv-x="552" 
d="M401 0h-247v1434h247v-1434z" />
    <glyph glyph-name="m" unicode="m" horiz-adv-x="1830" 
d="M401 0h-247v1020h241v-150q46 82 124 131.5t183 49.5q103 0 181.5 -51.5t120.5 -141.5q122 193 342 193q161 0 252.5 -92.5t91.5 -278.5v-680h-250v623q0 217 -183 217q-43 0 -77.5 -13t-56.5 -32t-37.5 -50.5t-23.5 -58t-12.5 -64.5t-5 -61t-0.5 -57v-504h-245v623
q0 217 -185 217q-43 0 -77 -13t-56 -32.5t-37.5 -50t-23.5 -57.5t-12.5 -65t-5.5 -61.5t-1 -56.5v-504z" />
    <glyph glyph-name="n" unicode="n" horiz-adv-x="1210" 
d="M401 0h-247v1020h241v-162q16 29 39 57t62.5 61.5t99 54t129.5 20.5q176 0 260 -99t84 -274v-678h-250v623q0 219 -184 219q-47 0 -85 -15t-62 -37.5t-41.5 -58t-26 -66t-13 -73t-5.5 -67.5t-1 -60v-465z" />
    <glyph glyph-name="o" unicode="o" horiz-adv-x="1187" 
d="M594 -31q-223 0 -369.5 154t-146.5 387q0 238 145.5 389.5t370.5 151.5t369.5 -151.5t144.5 -389.5q0 -241 -144.5 -391t-369.5 -150zM594 172q116 0 185 85t69 249q0 166 -69 254t-185 88q-117 0 -186.5 -88t-69.5 -254q0 -164 69 -249t187 -85z" />
    <glyph glyph-name="p" unicode="p" horiz-adv-x="1245" 
d="M401 -399h-247v1419h241v-143q44 69 130 121.5t206 52.5q194 0 313 -148t119 -393t-119 -393t-313 -148q-120 0 -202.5 51.5t-127.5 122.5v-184v-358zM647 166q118 0 187 82t69 264q0 180 -69.5 262t-186.5 82t-186.5 -88.5t-69.5 -255.5q0 -169 69 -257.5t187 -88.5z
" />
    <glyph glyph-name="q" unicode="q" horiz-adv-x="1245" 
d="M1094 -399h-250v358v184q-43 -70 -126.5 -122t-201.5 -52q-194 0 -314 148t-120 393t120 393t314 148q119 0 204 -52t130 -122v143h244v-1419zM598 166q119 0 191.5 88.5t72.5 255.5q0 168 -72.5 257t-191.5 89q-116 0 -186 -83t-70 -263q0 -181 69.5 -262.5t186.5 -81.5
z" />
    <glyph glyph-name="r" unicode="r" horiz-adv-x="856" 
d="M401 0h-247v1020h243v-225q13 30 29 57.5t46.5 63t67.5 61t93 43.5t121 18q40 0 67 -6v-254q-55 6 -110 6q-162 0 -236 -83.5t-74 -270.5v-430z" />
    <glyph glyph-name="s" unicode="s" horiz-adv-x="1050" 
d="M528 -29q-176 0 -305.5 78.5t-161.5 214.5l230 74q5 -21 13 -41t27.5 -47t45 -46.5t68 -33.5t94.5 -14q87 0 134.5 32t47.5 86q0 47 -33 79t-117 48l-137 27q-63 12 -110.5 27.5t-91 40t-71 56.5t-43.5 77.5t-16 103.5q0 142 116 230t302 88q91 0 166.5 -22t125.5 -58.5
t82.5 -78t49.5 -87.5l-211 -90q-25 67 -80 111t-143 44q-82 0 -124 -32.5t-42 -81.5q0 -46 32.5 -71t121.5 -42l133 -25q348 -72 348 -319q0 -151 -119.5 -239.5t-331.5 -88.5z" />
    <glyph glyph-name="t" unicode="t" horiz-adv-x="862" 
d="M815 0h-303q-124 0 -191 69t-67 191v565h-221v195h221v319h250v-319h270v-195h-270v-526q0 -50 22.5 -73t71.5 -23h217v-203z" />
    <glyph glyph-name="u" unicode="u" horiz-adv-x="1198" 
d="M463 -31q-155 0 -239.5 100t-84.5 271v680h250v-621q0 -219 176 -219q69 0 117.5 32.5t72 88.5t33 113.5t9.5 126.5v479h250v-1020h-248v168q-120 -199 -336 -199z" />
    <glyph glyph-name="v" unicode="v" horiz-adv-x="1099" 
d="M705 0h-302l-374 1020h262l155 -477l50 -150l38.5 -115.5t20.5 -60.5q24 72 102 326l150 477h254z" />
    <glyph glyph-name="w" unicode="w" horiz-adv-x="1738" 
d="M643 0h-281l-329 1020h258l104 -375q81 -306 109 -403q46 174 100 368l117 410h295l123 -428q75 -280 96 -344q6 20 17.5 62t38 140t59.5 218l102 352h258l-334 -1020h-299l-131 463q-26 94 -52.5 186.5t-33.5 120.5q-12 -50 -86 -305z" />
    <glyph glyph-name="x" unicode="x" horiz-adv-x="1085" 
d="M291 0h-271l375 526l-356 494h299l90 -133q74 -114 123 -182q54 71 127 182l92 133h274l-360 -496l385 -524h-303l-102 150q-29 43 -73.5 107t-62.5 91q-86 -121 -135 -196z" />
    <glyph glyph-name="y" unicode="y" horiz-adv-x="1101" 
d="M664 584l143 436h260l-416 -1174q-45 -132 -116.5 -188.5t-202.5 -56.5h-266v206h239q56 0 85 23t52 86l31 92l-475 1012h270l187 -438q43 -101 77.5 -179.5t40.5 -93.5z" />
    <glyph glyph-name="z" unicode="z" horiz-adv-x="1013" 
d="M944 0h-862v219l530 598h-258h-250v203h814v-180l-564 -637h273h317v-203z" />
    <glyph glyph-name="braceleft" unicode="{" horiz-adv-x="735" 
d="M676 -307h-148q-155 0 -219.5 76.5t-64.5 232.5v301q0 119 -42 165t-149 46v207q108 0 149.5 41t41.5 156v319q0 157 64 233t220 76h148v-190h-74q-67 0 -98 -32.5t-31 -109.5v-307q0 -71 -18 -122t-54.5 -83t-71 -49.5t-87.5 -34.5q42 -15 70.5 -27.5t61.5 -35.5
t52.5 -51.5t33 -73.5t13.5 -102v-301q0 -79 31 -111.5t98 -32.5h74v-190z" />
    <glyph glyph-name="bar" unicode="|" horiz-adv-x="573" 
d="M401 -209h-229v1858h229v-1858z" />
    <glyph glyph-name="braceright" unicode="}" horiz-adv-x="735" 
d="M59 1542h150q156 0 219.5 -75.5t63.5 -233.5v-301q0 -118 42 -163.5t148 -45.5v-207q-108 0 -149 -41.5t-41 -157.5v-319q0 -158 -63.5 -233.5t-219.5 -75.5h-150v192h76q67 0 97 31t30 108v310q0 57 13.5 101t33 72.5t53.5 51.5t62.5 35.5t71.5 27.5q-43 15 -71.5 27
t-62.5 35.5t-53.5 51.5t-33 73t-13.5 102v303q0 79 -30 110.5t-97 31.5h-76v190z" />
    <glyph glyph-name="asciitilde" unicode="~" horiz-adv-x="1310" 
d="M868 545q-100 0 -221 59l-78 41q-79 39 -135 39q-98 0 -182 -109l-146 146q60 94 150.5 144t187.5 50q104 0 218 -57l75 -39q81 -41 142 -41q100 0 182 111l147 -150q-61 -94 -152 -144t-188 -50z" />
    <glyph glyph-name="uni00A0" unicode="&#xa0;" horiz-adv-x="499" 
 />
    <glyph glyph-name="exclamdown" unicode="&#xa1;" horiz-adv-x="575" 
d="M135 1184h305v-299h-305v299zM231 694h115l80 -575v-369h-274v371z" />
    <glyph glyph-name="cent" unicode="&#xa2;" horiz-adv-x="1163" 
d="M682 -244h-162v219q-194 31 -311 177t-117 366q0 216 118.5 362t309.5 177v221h162v-217q143 -17 247 -97.5t152 -199.5l-229 -88q-55 140 -170 172v-383v-281q132 33 180 199l236 -84q-50 -136 -158 -223t-258 -105v-215zM520 193v366v283q-168 -61 -168 -324
q0 -134 44.5 -215t123.5 -110z" />
    <glyph glyph-name="sterling" unicode="&#xa3;" horiz-adv-x="1200" 
d="M686 229h426v-229h-997v231q26 8 48 16t64.5 30t71 47t51.5 67t23 90q0 66 -31 133h-223v172h110q-75 121 -75 240q0 104 40 188.5t107 138t153 82.5t181 29q62 0 123 -14.5t119.5 -46.5t105 -78t80 -113.5t45.5 -148.5l-258 -59q-16 122 -79.5 179.5t-147.5 57.5
q-93 0 -151 -56.5t-58 -156.5q0 -64 22.5 -119.5t65.5 -122.5h329v-172h-243q10 -48 10 -94q0 -189 -172 -291h260z" />
    <glyph glyph-name="currency" unicode="&#xa4;" horiz-adv-x="1335" 
d="M438 322l-166 -164l-168 168l162 159q-65 105 -65 236q0 120 65 237l-162 162l168 166l166 -164q105 60 232 60q120 0 227 -60l166 164l168 -166l-162 -162q68 -104 68 -237q0 -122 -68 -238l162 -157l-168 -168l-164 166q-109 -64 -229 -64q-124 0 -232 62zM670 477
q101 0 167 70t66 174t-65.5 174t-167.5 70t-169 -70t-67 -174t67 -174t169 -70z" />
    <glyph glyph-name="yen" unicode="&#xa5;" horiz-adv-x="1413" 
d="M1049 1434h305l-402 -621h258v-170h-364v-154h364v-172h-364v-317h-266v317h-373v172h373v154h-373v170h262l-410 621h310l198 -330q82 -133 148 -250l143 254z" />
    <glyph glyph-name="brokenbar" unicode="&#xa6;" horiz-adv-x="573" 
d="M401 856h-229v793h229v-793zM401 -209h-229v795h229v-795z" />
    <glyph glyph-name="section" unicode="&#xa7;" horiz-adv-x="1304" 
d="M651 -426q-211 0 -336.5 98.5t-152.5 249.5l252 76q48 -201 237 -201q96 0 147.5 43t51.5 107q0 60 -34 96.5t-118 62.5l-338 107q-288 91 -288 322q0 100 62 181.5t155 123.5q-99 86 -99 250q0 157 122 265.5t333 108.5q108 0 195.5 -27.5t145.5 -76t93.5 -109.5
t48.5 -133l-251 -76q-49 199 -232 199q-89 0 -137.5 -44t-48.5 -107q0 -61 32.5 -97t118.5 -63l338 -107q145 -47 217 -124t72 -195q0 -99 -62.5 -183t-154.5 -126q98 -92 98 -246q0 -159 -124.5 -267t-342.5 -108zM844 299q54 27 86.5 73t32.5 101q0 98 -136 143l-235 76
q-41 12 -129 45q-54 -29 -85.5 -74.5t-31.5 -101.5q0 -97 135 -141l236 -74q78 -24 127 -47z" />
    <glyph glyph-name="dieresis" unicode="&#xa8;" horiz-adv-x="882" 
d="M348 1188h-244v231h244v-231zM778 1188h-241v231h241v-231z" />
    <glyph glyph-name="copyright" unicode="&#xa9;" horiz-adv-x="1792" 
d="M895 -70q-166 0 -316 63t-257.5 170.5t-170.5 255.5t-63 312t63 312t170.5 255.5t257.5 170.5t316 63t316.5 -63t258.5 -170.5t172 -255.5t64 -312t-64 -312t-172 -255.5t-258.5 -170.5t-316.5 -63zM897 102q175 0 319.5 84.5t226 229t81.5 315.5q0 172 -81.5 316.5
t-226 229.5t-319.5 85q-176 0 -320.5 -85t-226.5 -229.5t-82 -316.5q0 -171 82 -315.5t227 -229t320 -84.5zM899 295q-194 0 -305 119.5t-111 324.5q0 192 117 313.5t303 121.5q136 0 236.5 -72.5t136.5 -188.5l-174 -53q-52 174 -209 174q-101 0 -164 -81t-63 -220
q0 -137 61.5 -215t165.5 -78q84 0 139 50t76 135l174 -60q-39 -122 -142.5 -196t-240.5 -74z" />
    <glyph glyph-name="ordfeminine" unicode="&#xaa;" horiz-adv-x="1042" 
d="M422 592q-142 0 -239 122.5t-97 313.5q0 190 98 308t244 118q175 0 264 -145v125h211v-822h-211v131q-94 -151 -270 -151zM502 756q85 0 137.5 72.5t52.5 199.5q0 128 -52 195t-138 67q-87 0 -139 -67t-52 -195q0 -127 53 -199.5t138 -72.5z" />
    <glyph glyph-name="guillemotleft" unicode="&#xab;" horiz-adv-x="1165" 
d="M356 987h265l-285 -467l287 -473h-269l-280 469zM827 987h267l-287 -467l287 -473h-267l-282 471z" />
    <glyph glyph-name="logicalnot" unicode="&#xac;" horiz-adv-x="1353" 
d="M1208 319h-221v302h-866v219h1087v-521z" />
    <glyph glyph-name="uni00AD" unicode="&#xad;" horiz-adv-x="929" 
d="M801 526h-672v238h672v-238z" />
    <glyph glyph-name="registered" unicode="&#xae;" horiz-adv-x="1161" 
d="M580 545q-213 0 -354.5 143t-141.5 352q0 136 63 248.5t177 178t256 65.5t256 -65.5t177.5 -178t63.5 -248.5q0 -137 -64 -250t-178 -179t-255 -66zM580 666q163 0 263.5 105.5t100.5 268.5q0 160 -101 264.5t-263 104.5q-161 0 -261 -104.5t-100 -264.5
q0 -163 100 -268.5t261 -105.5zM516 805h-119v467h244q65 0 108.5 -33.5t43.5 -89.5q0 -54 -39.5 -84t-100.5 -37q56 -7 81.5 -33.5t33.5 -81.5l16 -108h-127l-14 104q-6 47 -22.5 63.5t-57.5 16.5h-47v-184zM516 1184v-107h80q76 0 76 53q0 54 -78 54h-78z" />
    <glyph glyph-name="macron" unicode="&#xaf;" horiz-adv-x="749" 
d="M694 1196h-639v176h639v-176z" />
    <glyph glyph-name="degree" unicode="&#xb0;" horiz-adv-x="897" 
d="M446 872q-163 0 -266.5 105t-103.5 260q0 157 105 262t268 105q161 0 266.5 -105t105.5 -262q0 -158 -105 -261.5t-270 -103.5zM449 1061q72 0 116.5 49t44.5 129q0 77 -44.5 125.5t-116.5 48.5q-71 0 -118.5 -49t-47.5 -125q0 -80 47 -129t119 -49z" />
    <glyph glyph-name="plusminus" unicode="&#xb1;" horiz-adv-x="1380" 
d="M807 510h-219v266h-434v207h434v285h219v-285h434v-207h-434v-266zM1233 178h-1096v219h1096v-219z" />
    <glyph glyph-name="uni00B2" unicode="&#xb2;" horiz-adv-x="796" 
d="M705 799h-609v184q216 126 304.5 206.5t88.5 168.5q0 51 -26 80.5t-70 29.5q-54 0 -81.5 -42.5t-24.5 -118.5l-199 22q-2 137 84 223t227 86q136 0 218.5 -72.5t82.5 -189.5q0 -111 -84 -215q-75 -93 -274 -192h268h95v-170z" />
    <glyph glyph-name="uni00B3" unicode="&#xb3;" horiz-adv-x="792" 
d="M397 782q-139 0 -227 72.5t-96 192.5l200 40q13 -139 121 -139q47 0 76 25.5t29 68.5t-30.5 68t-90.5 25h-55v161h55q53 0 79.5 23.5t26.5 64.5q0 38 -24 62t-64 24q-46 0 -72 -33.5t-26 -93.5l-203 29q4 118 88 192t213 74t210 -62.5t81 -162.5q0 -63 -35.5 -112
t-105.5 -76q158 -53 158 -201q0 -107 -85.5 -174.5t-222.5 -67.5z" />
    <glyph glyph-name="acute" unicode="&#xb4;" horiz-adv-x="552" 
d="M274 1159h-165l102 305h291z" />
    <glyph glyph-name="uni00B5" unicode="&#xb5;" horiz-adv-x="1255" 
d="M424 -399h-248v1419h248v-617q0 -221 178 -221q229 0 229 367v471h250v-1020h-247v170q-13 -25 -29 -47.5t-45 -52t-61.5 -50.5t-80.5 -36t-102 -15q-48 0 -92 13v-381z" />
    <glyph glyph-name="paragraph" unicode="&#xb6;" horiz-adv-x="1474" 
d="M596 1434h786v-195h-170v-1636h-229v1636h-178v-1636h-232v891h-45q-200 0 -334.5 133t-134.5 327q0 151 73 261.5t193 164.5t271 54z" />
    <glyph glyph-name="periodcentered" unicode="&#xb7;" horiz-adv-x="561" 
d="M434 575h-307v299h307v-299z" />
    <glyph glyph-name="cedilla" unicode="&#xb8;" horiz-adv-x="665" 
d="M319 -465q-81 0 -146.5 31t-102.5 72l92 120q71 -71 153 -71q84 0 84 53q0 23 -21.5 37t-55.5 14q-40 0 -64 -8l-68 88l127 129h164l-59 -53q-6 -5 -23.5 -21.5t-29.5 -27.5h16q74 0 131 -44.5t57 -129.5q0 -78 -64 -133.5t-190 -55.5z" />
    <glyph glyph-name="uni00B9" unicode="&#xb9;" horiz-adv-x="612" 
d="M473 799h-199v350v223q-40 -58 -95 -82.5t-111 -21.5v186q171 9 237 166h168v-821z" />
    <glyph glyph-name="ordmasculine" unicode="&#xba;" horiz-adv-x="991" 
d="M496 592q-185 0 -299.5 123t-114.5 309q0 190 114 310t300 120q187 0 301 -119.5t114 -310.5q0 -186 -114.5 -309t-300.5 -123zM496 754q86 0 137 71t51 199q0 132 -50.5 201t-137.5 69t-138 -69t-51 -201q0 -128 51.5 -199t137.5 -71z" />
    <glyph glyph-name="guillemotright" unicode="&#xbb;" horiz-adv-x="1163" 
d="M72 987h266l283 -473l-283 -467h-264l284 467zM545 987h266l283 -471l-285 -469h-264l286 465z" />
    <glyph glyph-name="onequarter" unicode="&#xbc;" horiz-adv-x="1806" 
d="M473 612h-199v351v223q-78 -112 -206 -105v187q174 9 237 166h168v-822zM422 0h-232l1037 1434h229zM1626 0h-186v197h-381v147l323 477h244v-465h115v-159h-115v-197zM1386 356h54v70v195l-178 -265h124z" />
    <glyph glyph-name="onehalf" unicode="&#xbd;" horiz-adv-x="1775" 
d="M473 612h-199v351v223q-78 -112 -208 -105v187q174 9 237 166h170v-822zM420 0h-230l1037 1434h227zM1694 0h-607v184q216 126 304 206.5t88 168.5q0 51 -26.5 81t-70.5 30q-53 0 -80.5 -43.5t-25.5 -120.5l-199 22q-2 137 84.5 223.5t227.5 86.5q136 0 218.5 -72
t82.5 -188q0 -109 -84 -218q-77 -96 -275 -190h268h95v-170z" />
    <glyph glyph-name="threequarters" unicode="&#xbe;" horiz-adv-x="1986" 
d="M395 596q-139 0 -227 72t-96 192l200 41q13 -139 121 -139q47 0 76 25.5t29 68.5t-30.5 67.5t-90.5 24.5h-55v162h55q53 0 79.5 23.5t26.5 64.5q0 38 -24 62t-64 24q-46 0 -72 -33.5t-26 -93.5l-203 29q4 118 88 192t213 74t210 -62.5t81 -162.5q0 -63 -35.5 -112.5
t-105.5 -76.5q157 -52 157 -200q0 -107 -85.5 -174.5t-221.5 -67.5zM602 0h-231l1036 1434h229zM1806 0h-186v197h-381v147l324 477h243v-465h115v-159h-115v-197zM1567 356h53v70v195l-178 -265h125z" />
    <glyph glyph-name="questiondown" unicode="&#xbf;" horiz-adv-x="1069" 
d="M408 1186h305v-299h-305v299zM444 696h234q0 -70 -12 -122.5t-39 -94t-56 -69.5t-79 -66q-48 -38 -74.5 -64t-50 -69.5t-23.5 -91.5q0 -84 54 -133t143 -49q208 0 217 276l248 -39q-6 -212 -129.5 -332.5t-341.5 -120.5q-211 0 -332 109t-121 272q0 64 17 118t52 100.5
t73 82.5t95 80q65 50 95 98.5t30 114.5z" />
    <glyph glyph-name="Agrave" unicode="&#xc0;" horiz-adv-x="1472" 
d="M725 1876l113 -303h-185l-247 303h319zM1452 0h-297l-123 354h-602l-125 -354h-287l545 1434h352zM633 928l-121 -344h440l-118 346q-12 35 -101 289q-41 -127 -100 -291z" />
    <glyph glyph-name="Aacute" unicode="&#xc1;" horiz-adv-x="1472" 
d="M760 1876h319l-250 -303h-182zM1452 0h-297l-123 354h-602l-125 -354h-287l545 1434h352zM633 928l-121 -344h440l-118 346q-12 35 -101 289q-41 -127 -100 -291z" />
    <glyph glyph-name="Acircumflex" unicode="&#xc2;" horiz-adv-x="1472" 
d="M911 1573l-174 147l-176 -147h-246l244 258h354l244 -258h-246zM1452 0h-297l-123 354h-602l-125 -354h-287l545 1434h352zM633 928l-121 -344h440l-118 346q-12 35 -101 289q-41 -127 -100 -291z" />
    <glyph glyph-name="Atilde" unicode="&#xc3;" horiz-adv-x="1472" 
d="M582 1675q-40 0 -62.5 -26.5t-23.5 -75.5h-203q0 131 74.5 200.5t199.5 69.5q98 0 187 -51l59 -33q68 -37 105 -37q79 0 88 99h196q0 -269 -268 -269q-90 0 -189 54l-59 32q-63 37 -104 37zM1452 0h-297l-123 354h-602l-125 -354h-287l545 1434h352zM633 928l-121 -344
h440l-118 346q-12 35 -101 289q-41 -127 -100 -291z" />
    <glyph glyph-name="Adieresis" unicode="&#xc4;" horiz-adv-x="1472" 
d="M369 1804h268v-231h-268v231zM842 1804h268v-231h-268v231zM1452 0h-297l-123 354h-602l-125 -354h-287l545 1434h352zM633 928l-121 -344h440l-118 346q-12 35 -101 289q-41 -127 -100 -291z" />
    <glyph glyph-name="Aring" unicode="&#xc5;" horiz-adv-x="1472" 
d="M737 1530q-108 0 -186 73t-78 185q0 107 78.5 180.5t185.5 73.5t184.5 -74t77.5 -184t-77.5 -182t-184.5 -72zM737 1896q-46 0 -77 -31t-31 -77q0 -51 30.5 -83t77.5 -32q45 0 77 32t32 79q0 49 -32 80.5t-77 31.5zM1452 0h-297l-123 354h-602l-125 -354h-287l545 1434
h352zM633 928l-121 -344h440l-118 346q-12 35 -101 289q-41 -127 -100 -291z" />
    <glyph glyph-name="AE" unicode="&#xc6;" horiz-adv-x="1933" 
d="M1835 1434v-230h-686v-346h500v-225h-500v-404h686v-229h-950v360h-434l-183 -360h-309l776 1434h1100zM885 588v295v348q-9 -19 -211 -430l-109 -213h320z" />
    <glyph glyph-name="Ccedilla" unicode="&#xc7;" horiz-adv-x="1529" 
d="M942 -23l-35 -30q-6 -5 -23.5 -21.5t-29.5 -27.5h16q74 0 132.5 -44.5t58.5 -129.5q0 -78 -65 -133.5t-191 -55.5q-81 0 -147 31t-103 72l92 120q71 -71 154 -71q84 0 84 53q0 23 -22 37t-56 14q-40 0 -64 -8l-67 88l98 98q-207 10 -363 111.5t-237.5 268.5t-81.5 374
q0 156 53.5 292.5t147.5 235.5t230.5 156t295.5 57q129 0 240.5 -35t191 -95.5t134.5 -138t81 -165.5l-247 -94q-21 62 -53 113t-79.5 95t-116.5 68.5t-153 24.5q-205 0 -324.5 -136t-119.5 -376q0 -243 119.5 -384.5t324.5 -141.5q306 0 408 307l243 -96
q-61 -176 -194 -290.5t-332 -142.5z" />
    <glyph glyph-name="Egrave" unicode="&#xc8;" horiz-adv-x="1337" 
d="M811 1573h-184l-248 303h319zM1239 0h-1053v1434h1053v-230h-786v-352h589v-225h-589v-398h786v-229z" />
    <glyph glyph-name="Eacute" unicode="&#xc9;" horiz-adv-x="1337" 
d="M805 1573h-184l112 303h320zM1239 0h-1053v1434h1053v-230h-786v-352h589v-225h-589v-398h786v-229z" />
    <glyph glyph-name="Ecircumflex" unicode="&#xca;" horiz-adv-x="1337" 
d="M537 1573h-248l246 258h352l246 -258h-248l-174 147zM1239 0h-1053v1434h1053v-230h-786v-352h589v-225h-589v-398h786v-229z" />
    <glyph glyph-name="Edieresis" unicode="&#xcb;" horiz-adv-x="1337" 
d="M610 1573h-268v231h268v-231zM1083 1573h-266v231h266v-231zM1239 0h-1053v1434h1053v-230h-786v-352h589v-225h-589v-398h786v-229z" />
    <glyph glyph-name="Igrave" unicode="&#xcc;" horiz-adv-x="636" 
d="M418 1573h-185l-247 303h319zM453 0h-267v1434h267v-1434z" />
    <glyph glyph-name="Iacute" unicode="&#xcd;" horiz-adv-x="636" 
d="M412 1573h-183l113 303h320zM453 0h-267v1434h267v-1434z" />
    <glyph glyph-name="Icircumflex" unicode="&#xce;" horiz-adv-x="636" 
d="M143 1573h-247l245 258h353l245 -258h-247l-175 147zM453 0h-267v1434h267v-1434z" />
    <glyph glyph-name="Idieresis" unicode="&#xcf;" horiz-adv-x="636" 
d="M217 1573h-268v231h268v-231zM690 1573h-268v231h268v-231zM453 0h-267v1434h267v-1434z" />
    <glyph glyph-name="Eth" unicode="&#xd0;" horiz-adv-x="1556" 
d="M207 1434h524q206 0 370.5 -84.5t261.5 -247t97 -377.5q0 -168 -56 -305.5t-154.5 -229t-232.5 -141t-290 -49.5h-520v649h-160v193h160v592zM473 229h232q479 0 479 492q0 225 -118 354t-347 129h-246v-362h281v-193h-281v-420z" />
    <glyph glyph-name="Ntilde" unicode="&#xd1;" horiz-adv-x="1699" 
d="M1049 1552q-92 0 -187 54l-61 32q-63 37 -103 37q-85 0 -88 -102h-200q0 132 74 201t200 69q95 0 184 -51l60 -33q68 -37 104 -37q82 0 88 99h197q0 -269 -268 -269zM453 0h-267v1434h367l694 -983v348v635h266v-1434h-251l-809 1145v-410v-735z" />
    <glyph glyph-name="Ograve" unicode="&#xd2;" horiz-adv-x="1677" 
d="M938 1573h-184l-248 303h319zM840 -31q-224 0 -394.5 95t-262 264t-91.5 387q0 216 92.5 386t263.5 266.5t392 96.5q222 0 392 -96.5t261.5 -266.5t91.5 -386q0 -218 -91 -387t-261 -264t-393 -95zM840 197q215 0 340 145t125 373q0 231 -125 376.5t-340 145.5
q-217 0 -342 -145.5t-125 -376.5q0 -228 125.5 -373t341.5 -145z" />
    <glyph glyph-name="Oacute" unicode="&#xd3;" horiz-adv-x="1677" 
d="M930 1573h-182l112 303h320zM840 -31q-224 0 -394.5 95t-262 264t-91.5 387q0 216 92.5 386t263.5 266.5t392 96.5q222 0 392 -96.5t261.5 -266.5t91.5 -386q0 -218 -91 -387t-261 -264t-393 -95zM840 197q215 0 340 145t125 373q0 231 -125 376.5t-340 145.5
q-217 0 -342 -145.5t-125 -376.5q0 -228 125.5 -373t341.5 -145z" />
    <glyph glyph-name="Ocircumflex" unicode="&#xd4;" horiz-adv-x="1677" 
d="M664 1573h-248l246 258h352l246 -258h-248l-174 147zM840 -31q-224 0 -394.5 95t-262 264t-91.5 387q0 216 92.5 386t263.5 266.5t392 96.5q222 0 392 -96.5t261.5 -266.5t91.5 -386q0 -218 -91 -387t-261 -264t-393 -95zM840 197q215 0 340 145t125 373
q0 231 -125 376.5t-340 145.5q-217 0 -342 -145.5t-125 -376.5q0 -228 125.5 -373t341.5 -145z" />
    <glyph glyph-name="Otilde" unicode="&#xd5;" horiz-adv-x="1677" 
d="M1032 1552q-87 0 -186 54l-60 32q-63 37 -104 37q-40 0 -63 -26.5t-23 -75.5h-203q0 131 74.5 200.5t200.5 69.5q97 0 186 -51l57 -33q72 -37 107 -37q79 0 88 99h197q0 -269 -271 -269zM840 -31q-224 0 -394.5 95t-262 264t-91.5 387q0 216 92.5 386t263.5 266.5
t392 96.5q222 0 392 -96.5t261.5 -266.5t91.5 -386q0 -218 -91 -387t-261 -264t-393 -95zM840 197q215 0 340 145t125 373q0 231 -125 376.5t-340 145.5q-217 0 -342 -145.5t-125 -376.5q0 -228 125.5 -373t341.5 -145z" />
    <glyph glyph-name="Odieresis" unicode="&#xd6;" horiz-adv-x="1677" 
d="M737 1573h-268v231h268v-231zM1210 1573h-268v231h268v-231zM840 -31q-224 0 -394.5 95t-262 264t-91.5 387q0 216 92.5 386t263.5 266.5t392 96.5q222 0 392 -96.5t261.5 -266.5t91.5 -386q0 -218 -91 -387t-261 -264t-393 -95zM840 197q215 0 340 145t125 373
q0 231 -125 376.5t-340 145.5q-217 0 -342 -145.5t-125 -376.5q0 -228 125.5 -373t341.5 -145z" />
    <glyph glyph-name="multiply" unicode="&#xd7;" horiz-adv-x="1222" 
d="M610 565l-356 -354l-148 147l357 357l-359 356l150 152l358 -359l357 357l147 -148l-354 -356l354 -357l-149 -151z" />
    <glyph glyph-name="Oslash" unicode="&#xd8;" horiz-adv-x="1681" 
d="M465 55l-131 -164l-180 140l129 162q-189 205 -189 520q0 162 54 301t150.5 238t237 155.5t306.5 56.5q207 0 377 -92l131 166l182 -141l-131 -166q184 -206 184 -518q0 -217 -90.5 -386.5t-260 -265.5t-392.5 -96q-210 0 -377 90zM453 408l438 553q139 174 174 221
q-92 53 -223 53q-217 0 -343 -145.5t-126 -374.5q0 -172 80 -307zM842 195q215 0 339 145t124 375q0 171 -72 303l-428 -535q-29 -36 -61 -75.5t-68.5 -85.5t-57.5 -72q99 -55 224 -55z" />
    <glyph glyph-name="Ugrave" unicode="&#xd9;" horiz-adv-x="1550" 
d="M877 1573h-185l-248 303h320zM776 -31q-283 0 -445.5 153.5t-162.5 434.5v877h266v-836q0 -190 86 -292.5t256 -102.5q173 0 256.5 103.5t83.5 291.5v836h266v-877q0 -277 -164 -432.5t-442 -155.5z" />
    <glyph glyph-name="Uacute" unicode="&#xda;" horiz-adv-x="1550" 
d="M868 1573h-182l113 303h319zM776 -31q-283 0 -445.5 153.5t-162.5 434.5v877h266v-836q0 -190 86 -292.5t256 -102.5q173 0 256.5 103.5t83.5 291.5v836h266v-877q0 -277 -164 -432.5t-442 -155.5z" />
    <glyph glyph-name="Ucircumflex" unicode="&#xdb;" horiz-adv-x="1550" 
d="M600 1573h-246l244 258h354l244 -258h-246l-174 147zM776 -31q-283 0 -445.5 153.5t-162.5 434.5v877h266v-836q0 -190 86 -292.5t256 -102.5q173 0 256.5 103.5t83.5 291.5v836h266v-877q0 -277 -164 -432.5t-442 -155.5z" />
    <glyph glyph-name="Udieresis" unicode="&#xdc;" horiz-adv-x="1550" 
d="M676 1573h-268v231h268v-231zM1149 1573h-268v231h268v-231zM776 -31q-283 0 -445.5 153.5t-162.5 434.5v877h266v-836q0 -190 86 -292.5t256 -102.5q173 0 256.5 103.5t83.5 291.5v836h266v-877q0 -277 -164 -432.5t-442 -155.5z" />
    <glyph glyph-name="Yacute" unicode="&#xdd;" horiz-adv-x="1359" 
d="M772 1573h-182l112 303h320zM815 0h-266v590l-520 844h311l203 -342l145 -246q5 9 27.5 50t51 91.5t60.5 106.5l191 340h305l-508 -840v-594z" />
    <glyph glyph-name="Thorn" unicode="&#xde;" horiz-adv-x="1396" 
d="M453 1184h362q221 0 361.5 -125t140.5 -328q0 -201 -141 -328t-359 -127h-364v-276h-267v1434h267v-250zM453 504h317q124 0 196 61t72 166q0 103 -72 163t-196 60h-317v-450z" />
    <glyph glyph-name="germandbls" unicode="&#xdf;" horiz-adv-x="1273" 
d="M719 -18q-85 0 -168 14v213q82 -14 127 -14q123 0 190.5 61.5t67.5 167.5q0 105 -77.5 167t-201.5 62h-96v191h66q109 0 176 58.5t67 156.5q0 89 -65 146t-160 57q-114 0 -179 -68t-65 -215v-979h-247v987q0 227 127 352t372 125q215 0 339 -105t124 -259
q0 -70 -23 -128.5t-62 -97.5t-81.5 -64t-91.5 -40q146 -32 242 -128.5t96 -248.5q0 -188 -129 -299.5t-348 -111.5z" />
    <glyph glyph-name="agrave" unicode="&#xe0;" horiz-adv-x="1148" 
d="M633 1159h-168l-225 305h290zM416 -31q-144 0 -235 80t-91 213q0 83 35.5 148.5t93 108t143.5 73.5t173.5 47.5t195.5 26.5v34q0 162 -186 162q-190 0 -242 -172l-227 60q19 124 142.5 212.5t326.5 88.5q211 0 322.5 -97t111.5 -284v-412q0 -38 11 -49.5t50 -11.5h95
v-197h-191q-91 0 -133.5 39.5t-52.5 112.5q-51 -81 -136.5 -132t-205.5 -51zM498 158q97 0 165 67t68 195v82q-86 -10 -150 -23.5t-120.5 -38t-86.5 -63.5t-30 -92q0 -60 39.5 -93.5t114.5 -33.5z" />
    <glyph glyph-name="aacute" unicode="&#xe1;" horiz-adv-x="1148" 
d="M635 1159h-166l102 305h291zM416 -31q-144 0 -235 80t-91 213q0 83 35.5 148.5t93 108t143.5 73.5t173.5 47.5t195.5 26.5v34q0 162 -186 162q-190 0 -242 -172l-227 60q19 124 142.5 212.5t326.5 88.5q211 0 322.5 -97t111.5 -284v-412q0 -38 11 -49.5t50 -11.5h95v-197
h-191q-91 0 -133.5 39.5t-52.5 112.5q-51 -81 -136.5 -132t-205.5 -51zM498 158q97 0 165 67t68 195v82q-86 -10 -150 -23.5t-120.5 -38t-86.5 -63.5t-30 -92q0 -60 39.5 -93.5t114.5 -33.5z" />
    <glyph glyph-name="acircumflex" unicode="&#xe2;" horiz-adv-x="1148" 
d="M391 1159h-225l223 260h320l223 -260h-225l-158 148zM416 -31q-144 0 -235 80t-91 213q0 83 35.5 148.5t93 108t143.5 73.5t173.5 47.5t195.5 26.5v34q0 162 -186 162q-190 0 -242 -172l-227 60q19 124 142.5 212.5t326.5 88.5q211 0 322.5 -97t111.5 -284v-412
q0 -38 11 -49.5t50 -11.5h95v-197h-191q-91 0 -133.5 39.5t-52.5 112.5q-51 -81 -136.5 -132t-205.5 -51zM498 158q97 0 165 67t68 195v82q-86 -10 -150 -23.5t-120.5 -38t-86.5 -63.5t-30 -92q0 -60 39.5 -93.5t114.5 -33.5z" />
    <glyph glyph-name="atilde" unicode="&#xe3;" horiz-adv-x="1148" 
d="M719 1151q-90 0 -170 53l-55 33q-60 37 -95 37q-37 0 -58 -27t-22 -76h-182q0 132 67 201.5t181 69.5q82 0 170 -51l53 -33q65 -37 94 -37q73 0 82 98h179q0 -268 -244 -268zM416 -31q-144 0 -235 80t-91 213q0 83 35.5 148.5t93 108t143.5 73.5t173.5 47.5t195.5 26.5
v34q0 162 -186 162q-190 0 -242 -172l-227 60q19 124 142.5 212.5t326.5 88.5q211 0 322.5 -97t111.5 -284v-412q0 -38 11 -49.5t50 -11.5h95v-197h-191q-91 0 -133.5 39.5t-52.5 112.5q-51 -81 -136.5 -132t-205.5 -51zM498 158q97 0 165 67t68 195v82q-86 -10 -150 -23.5
t-120.5 -38t-86.5 -63.5t-30 -92q0 -60 39.5 -93.5t114.5 -33.5z" />
    <glyph glyph-name="adieresis" unicode="&#xe4;" horiz-adv-x="1148" 
d="M455 1188h-244v231h244v-231zM885 1188h-242v231h242v-231zM416 -31q-144 0 -235 80t-91 213q0 83 35.5 148.5t93 108t143.5 73.5t173.5 47.5t195.5 26.5v34q0 162 -186 162q-190 0 -242 -172l-227 60q19 124 142.5 212.5t326.5 88.5q211 0 322.5 -97t111.5 -284v-412
q0 -38 11 -49.5t50 -11.5h95v-197h-191q-91 0 -133.5 39.5t-52.5 112.5q-51 -81 -136.5 -132t-205.5 -51zM498 158q97 0 165 67t68 195v82q-86 -10 -150 -23.5t-120.5 -38t-86.5 -63.5t-30 -92q0 -60 39.5 -93.5t114.5 -33.5z" />
    <glyph glyph-name="aring" unicode="&#xe5;" horiz-adv-x="1148" 
d="M551 1128q-103 0 -177.5 69.5t-74.5 174.5q0 103 74.5 172.5t177.5 69.5q102 0 176 -70t74 -174q0 -105 -74 -173.5t-176 -68.5zM551 1264q42 0 72 30.5t30 75.5t-30 76t-72 31q-44 0 -74.5 -30.5t-30.5 -74.5q0 -47 29.5 -77.5t75.5 -30.5zM416 -31q-144 0 -235 80
t-91 213q0 83 35.5 148.5t93 108t143.5 73.5t173.5 47.5t195.5 26.5v34q0 162 -186 162q-190 0 -242 -172l-227 60q19 124 142.5 212.5t326.5 88.5q211 0 322.5 -97t111.5 -284v-412q0 -38 11 -49.5t50 -11.5h95v-197h-191q-91 0 -133.5 39.5t-52.5 112.5
q-51 -81 -136.5 -132t-205.5 -51zM498 158q97 0 165 67t68 195v82q-86 -10 -150 -23.5t-120.5 -38t-86.5 -63.5t-30 -92q0 -60 39.5 -93.5t114.5 -33.5z" />
    <glyph glyph-name="ae" unicode="&#xe6;" horiz-adv-x="1757" 
d="M434 -31q-164 0 -255 79t-91 220q0 79 33.5 142t89.5 105.5t140 73t174.5 47t203.5 26.5v36q0 78 -48 121t-144 43q-95 0 -151 -48.5t-75 -123.5l-227 58q22 124 138 213.5t298 89.5q128 0 217.5 -45t132.5 -115q45 70 133 115t197 45q158 0 272.5 -83.5t164.5 -220
t32 -298.5h-721q7 -146 76.5 -214.5t175.5 -68.5q171 0 250 184l225 -84q-55 -133 -171 -215t-298 -82q-139 0 -244 59t-143 140q-51 -88 -150.5 -143.5t-234.5 -55.5zM956 627h465q-6 115 -67 176t-160 61q-95 0 -160 -61.5t-78 -175.5zM492 158q100 0 168.5 66.5
t68.5 195.5v82q-70 -8 -122.5 -17t-105.5 -25.5t-87 -39t-55 -57t-21 -78.5q0 -59 40 -93t114 -34z" />
    <glyph glyph-name="ccedilla" unicode="&#xe7;" horiz-adv-x="1134" 
d="M711 -20l-35 -33q-6 -5 -23.5 -21.5t-29.5 -27.5h16q74 0 131 -44.5t57 -129.5q0 -78 -64 -133.5t-190 -55.5q-81 0 -146.5 31t-102.5 72l92 120q71 -71 153 -71q84 0 84 53q0 23 -22 37t-56 14q-39 0 -63 -8l-68 88l101 100q-208 21 -336.5 166.5t-128.5 374.5
q0 240 149.5 389.5t376.5 149.5q172 0 293 -85t168 -218l-231 -84q-29 86 -89.5 135t-148.5 49q-115 0 -189.5 -87t-74.5 -249q0 -164 75.5 -252t190.5 -88q184 0 252 205l235 -82q-46 -125 -143.5 -208t-232.5 -107z" />
    <glyph glyph-name="egrave" unicode="&#xe8;" horiz-adv-x="1140" 
d="M659 1159h-165l-226 305h289zM580 -31q-228 0 -363 144.5t-135 396.5q0 242 139 391.5t354 149.5q160 0 275 -80t166.5 -216.5t34.5 -305.5h-719q6 -146 75.5 -214.5t176.5 -68.5q168 0 247 184l226 -84q-26 -63 -65 -114.5t-96 -93.5t-137.5 -65.5t-178.5 -23.5z
M338 633h465q-6 110 -67.5 170.5t-160.5 60.5q-95 0 -159.5 -60.5t-77.5 -170.5z" />
    <glyph glyph-name="eacute" unicode="&#xe9;" horiz-adv-x="1140" 
d="M664 1159h-166l102 305h291zM580 -31q-228 0 -363 144.5t-135 396.5q0 242 139 391.5t354 149.5q160 0 275 -80t166.5 -216.5t34.5 -305.5h-719q6 -146 75.5 -214.5t176.5 -68.5q168 0 247 184l226 -84q-26 -63 -65 -114.5t-96 -93.5t-137.5 -65.5t-178.5 -23.5zM338 633
h465q-6 110 -67.5 170.5t-160.5 60.5q-95 0 -159.5 -60.5t-77.5 -170.5z" />
    <glyph glyph-name="ecircumflex" unicode="&#xea;" horiz-adv-x="1140" 
d="M420 1159h-225l223 260h319l224 -260h-226l-157 148zM580 -31q-228 0 -363 144.5t-135 396.5q0 242 139 391.5t354 149.5q160 0 275 -80t166.5 -216.5t34.5 -305.5h-719q6 -146 75.5 -214.5t176.5 -68.5q168 0 247 184l226 -84q-26 -63 -65 -114.5t-96 -93.5
t-137.5 -65.5t-178.5 -23.5zM338 633h465q-6 110 -67.5 170.5t-160.5 60.5q-95 0 -159.5 -60.5t-77.5 -170.5z" />
    <glyph glyph-name="edieresis" unicode="&#xeb;" horiz-adv-x="1140" 
d="M483 1188h-243v231h243v-231zM913 1188h-241v231h241v-231zM580 -31q-228 0 -363 144.5t-135 396.5q0 242 139 391.5t354 149.5q160 0 275 -80t166.5 -216.5t34.5 -305.5h-719q6 -146 75.5 -214.5t176.5 -68.5q168 0 247 184l226 -84q-26 -63 -65 -114.5t-96 -93.5
t-137.5 -65.5t-178.5 -23.5zM338 633h465q-6 110 -67.5 170.5t-160.5 60.5q-95 0 -159.5 -60.5t-77.5 -170.5z" />
    <glyph glyph-name="igrave" unicode="&#xec;" horiz-adv-x="550" 
d="M354 1159h-166l-225 305h289zM397 0h-247v1020h247v-1020z" />
    <glyph glyph-name="iacute" unicode="&#xed;" horiz-adv-x="550" 
d="M352 1159h-166l103 305h289zM391 0h-250v1020h250v-1020z" />
    <glyph glyph-name="icircumflex" unicode="&#xee;" horiz-adv-x="552" 
d="M117 1159h-223l221 260h321l223 -260h-225l-158 148zM401 0h-247v1020h247v-1020z" />
    <glyph glyph-name="idieresis" unicode="&#xef;" horiz-adv-x="552" 
d="M182 1188h-243v231h243v-231zM612 1188h-243v231h243v-231zM401 0h-247v1020h247v-1020z" />
    <glyph glyph-name="eth" unicode="&#xf0;" horiz-adv-x="1236" 
d="M1085 1341l-133 -100q91 -111 140 -258.5t49 -312.5q0 -316 -147.5 -508.5t-405.5 -192.5q-231 0 -368.5 139t-137.5 361q0 201 126.5 331t315.5 130q131 0 233.5 -64.5t145.5 -169.5q0 257 -131 410l-162 -123l-96 127l131 98q-97 54 -219 54q-137 0 -260 -50v205
q122 47 297 47q214 0 371 -114l153 116zM594 172q112 0 183 75.5t71 205.5q0 128 -67.5 204t-186.5 76q-110 0 -182 -77.5t-72 -202.5q0 -129 71.5 -205t182.5 -76z" />
    <glyph glyph-name="ntilde" unicode="&#xf1;" horiz-adv-x="1210" 
d="M784 1151q-86 0 -170 53l-55 33q-56 37 -94 37q-37 0 -57.5 -27t-20.5 -76h-184q0 131 68 201t182 70q82 0 170 -51l51 -33q65 -37 96 -37q74 0 80 98h180q0 -268 -246 -268zM401 0h-247v1020h241v-162q16 29 39 57t62.5 61.5t99 54t129.5 20.5q176 0 260 -99t84 -274
v-678h-250v623q0 219 -184 219q-47 0 -85 -15t-62 -37.5t-41.5 -58t-26 -66t-13 -73t-5.5 -67.5t-1 -60v-465z" />
    <glyph glyph-name="ograve" unicode="&#xf2;" horiz-adv-x="1187" 
d="M676 1159h-166l-225 305h288zM594 -31q-223 0 -369.5 154t-146.5 387q0 238 145.5 389.5t370.5 151.5t369.5 -151.5t144.5 -389.5q0 -241 -144.5 -391t-369.5 -150zM594 172q116 0 185 85t69 249q0 166 -69 254t-185 88q-117 0 -186.5 -88t-69.5 -254q0 -164 69 -249
t187 -85z" />
    <glyph glyph-name="oacute" unicode="&#xf3;" horiz-adv-x="1187" 
d="M680 1159h-166l102 305h291zM594 -31q-223 0 -369.5 154t-146.5 387q0 238 145.5 389.5t370.5 151.5t369.5 -151.5t144.5 -389.5q0 -241 -144.5 -391t-369.5 -150zM594 172q116 0 185 85t69 249q0 166 -69 254t-185 88q-117 0 -186.5 -88t-69.5 -254q0 -164 69 -249
t187 -85z" />
    <glyph glyph-name="ocircumflex" unicode="&#xf4;" horiz-adv-x="1187" 
d="M436 1159h-225l223 260h320l223 -260h-225l-158 148zM594 -31q-223 0 -369.5 154t-146.5 387q0 238 145.5 389.5t370.5 151.5t369.5 -151.5t144.5 -389.5q0 -241 -144.5 -391t-369.5 -150zM594 172q116 0 185 85t69 249q0 166 -69 254t-185 88q-117 0 -186.5 -88
t-69.5 -254q0 -164 69 -249t187 -85z" />
    <glyph glyph-name="otilde" unicode="&#xf5;" horiz-adv-x="1187" 
d="M762 1151q-86 0 -170 53l-55 33q-56 37 -95 37q-74 0 -77 -103h-185q0 131 68 201t182 70q82 0 170 -51l53 -33q61 -37 95 -37q73 0 79 98h181q0 -268 -246 -268zM594 -31q-223 0 -369.5 154t-146.5 387q0 238 145.5 389.5t370.5 151.5t369.5 -151.5t144.5 -389.5
q0 -241 -144.5 -391t-369.5 -150zM594 172q116 0 185 85t69 249q0 166 -69 254t-185 88q-117 0 -186.5 -88t-69.5 -254q0 -164 69 -249t187 -85z" />
    <glyph glyph-name="odieresis" unicode="&#xf6;" horiz-adv-x="1187" 
d="M500 1188h-244v231h244v-231zM930 1188h-242v231h242v-231zM594 -31q-223 0 -369.5 154t-146.5 387q0 238 145.5 389.5t370.5 151.5t369.5 -151.5t144.5 -389.5q0 -241 -144.5 -391t-369.5 -150zM594 172q116 0 185 85t69 249q0 166 -69 254t-185 88q-117 0 -186.5 -88
t-69.5 -254q0 -164 69 -249t187 -85z" />
    <glyph glyph-name="divide" unicode="&#xf7;" horiz-adv-x="1284" 
d="M797 995h-305v273h305v-273zM1186 612h-1088v222h1088v-222zM797 178h-305v275h305v-275z" />
    <glyph glyph-name="oslash" unicode="&#xf8;" horiz-adv-x="1196" 
d="M598 -31q-157 0 -281 82l-81 -100l-130 102l91 107q-113 144 -113 350q0 238 144.5 389.5t369.5 151.5q163 0 281 -80l86 102l125 -102l-91 -107q113 -144 113 -354q0 -241 -144.5 -391t-369.5 -150zM365 358l210 256l162 191q-58 43 -139 43q-116 0 -185 -88t-69 -254
q0 -86 21 -148zM600 172q116 0 185 85t69 249q0 86 -23 160l-206 -250q-64 -78 -168 -199q57 -45 143 -45z" />
    <glyph glyph-name="ugrave" unicode="&#xf9;" horiz-adv-x="1198" 
d="M676 1159h-168l-225 305h290zM463 -31q-155 0 -239.5 100t-84.5 271v680h250v-621q0 -219 176 -219q69 0 117.5 32.5t72 88.5t33 113.5t9.5 126.5v479h250v-1020h-248v168q-120 -199 -336 -199z" />
    <glyph glyph-name="uacute" unicode="&#xfa;" horiz-adv-x="1198" 
d="M678 1159h-166l102 305h291zM463 -31q-155 0 -239.5 100t-84.5 271v680h250v-621q0 -219 176 -219q69 0 117.5 32.5t72 88.5t33 113.5t9.5 126.5v479h250v-1020h-248v168q-120 -199 -336 -199z" />
    <glyph glyph-name="ucircumflex" unicode="&#xfb;" horiz-adv-x="1198" 
d="M434 1159h-225l223 260h322l221 -260h-223l-160 148zM463 -31q-155 0 -239.5 100t-84.5 271v680h250v-621q0 -219 176 -219q69 0 117.5 32.5t72 88.5t33 113.5t9.5 126.5v479h250v-1020h-248v168q-120 -199 -336 -199z" />
    <glyph glyph-name="udieresis" unicode="&#xfc;" horiz-adv-x="1198" 
d="M500 1188h-244v231h244v-231zM928 1188h-242v231h242v-231zM463 -31q-155 0 -239.5 100t-84.5 271v680h250v-621q0 -219 176 -219q69 0 117.5 32.5t72 88.5t33 113.5t9.5 126.5v479h250v-1020h-248v168q-120 -199 -336 -199z" />
    <glyph glyph-name="yacute" unicode="&#xfd;" horiz-adv-x="1101" 
d="M561 1464h291l-227 -305h-166zM664 584l143 436h260l-416 -1174q-45 -132 -116.5 -188.5t-202.5 -56.5h-266v206h239q56 0 85 23t52 86l31 92l-475 1012h270l187 -438q43 -101 77.5 -179.5t40.5 -93.5z" />
    <glyph glyph-name="thorn" unicode="&#xfe;" horiz-adv-x="1245" 
d="M401 -399h-247v1833h247v-377v-185q43 72 126 125.5t204 53.5q194 0 313 -149t119 -394q0 -244 -119 -391.5t-313 -147.5q-120 0 -202.5 51.5t-127.5 122.5v-182v-360zM647 166q118 0 187 82t69 264q0 180 -69 261t-187 81t-187 -87.5t-69 -254.5q0 -169 69 -257.5
t187 -88.5z" />
    <glyph glyph-name="ydieresis" unicode="&#xff;" horiz-adv-x="1101" 
d="M201 1419h243v-231h-243v231zM633 1419h241v-231h-241v231zM664 584l143 436h260l-416 -1174q-45 -132 -116.5 -188.5t-202.5 -56.5h-266v206h239q56 0 85 23t52 86l31 92l-475 1012h270l187 -438q43 -101 77.5 -179.5t40.5 -93.5z" />
    <glyph glyph-name="Amacron" unicode="&#x100;" horiz-adv-x="1472" 
d="M389 1776h703v-174h-703v174zM1452 0h-297l-123 354h-602l-125 -354h-287l545 1434h352zM633 928l-121 -344h440l-118 346q-12 35 -101 289q-41 -127 -100 -291z" />
    <glyph glyph-name="amacron" unicode="&#x101;" horiz-adv-x="1148" 
d="M868 1196h-639v176h639v-176zM416 -31q-144 0 -235 80t-91 213q0 83 35.5 148.5t93 108t143.5 73.5t173.5 47.5t195.5 26.5v34q0 162 -186 162q-190 0 -242 -172l-227 60q19 124 142.5 212.5t326.5 88.5q211 0 322.5 -97t111.5 -284v-412q0 -38 11 -49.5t50 -11.5h95
v-197h-191q-91 0 -133.5 39.5t-52.5 112.5q-51 -81 -136.5 -132t-205.5 -51zM498 158q97 0 165 67t68 195v82q-86 -10 -150 -23.5t-120.5 -38t-86.5 -63.5t-30 -92q0 -60 39.5 -93.5t114.5 -33.5z" />
    <glyph glyph-name="Abreve" unicode="&#x102;" horiz-adv-x="1472" 
d="M737 1544q-94 0 -166.5 24.5t-114.5 66.5t-63 91.5t-22 104.5h200q5 -49 48 -88t118 -39t118 39t46 88h205q-2 -55 -23.5 -104.5t-63.5 -91.5t-115 -66.5t-167 -24.5zM1452 0h-297l-123 354h-602l-125 -354h-287l545 1434h352zM633 928l-121 -344h440l-118 346
q-12 35 -101 289q-41 -127 -100 -291z" />
    <glyph glyph-name="abreve" unicode="&#x103;" horiz-adv-x="1148" 
d="M547 1133q-86 0 -151.5 24t-104 65.5t-57.5 91t-21 105.5h184q5 -50 43.5 -88.5t106.5 -38.5q69 0 107.5 38t43.5 89h185q-1 -44 -13 -84.5t-38 -78t-64 -64.5t-94.5 -43t-126.5 -16zM416 -31q-144 0 -235 80t-91 213q0 83 35.5 148.5t93 108t143.5 73.5t173.5 47.5
t195.5 26.5v34q0 162 -186 162q-190 0 -242 -172l-227 60q19 124 142.5 212.5t326.5 88.5q211 0 322.5 -97t111.5 -284v-412q0 -38 11 -49.5t50 -11.5h95v-197h-191q-91 0 -133.5 39.5t-52.5 112.5q-51 -81 -136.5 -132t-205.5 -51zM498 158q97 0 165 67t68 195v82
q-86 -10 -150 -23.5t-120.5 -38t-86.5 -63.5t-30 -92q0 -60 39.5 -93.5t114.5 -33.5z" />
    <glyph glyph-name="Aogonek" unicode="&#x104;" horiz-adv-x="1472" 
d="M1219 -174q0 -76 118 -76q37 0 115 19v-170q-79 -25 -149 -25q-123 0 -196 50.5t-73 144.5q0 136 183 231h-62l-123 354h-602l-125 -354h-287l545 1434h352l537 -1434q-233 -71 -233 -174zM633 928l-121 -344h440l-118 346q-12 35 -101 289q-41 -127 -100 -291z" />
    <glyph glyph-name="aogonek" unicode="&#x105;" horiz-adv-x="1148" 
d="M1135 197v-197q-232 -72 -232 -174q0 -76 119 -76q35 0 113 19v-170q-76 -25 -148 -25q-123 0 -195.5 50t-72.5 145q0 138 186 233q-71 9 -105 47t-42 103q-51 -81 -136.5 -132t-205.5 -51q-144 0 -235 80t-91 213q0 83 35.5 148.5t93 108t143.5 73.5t173.5 47.5
t195.5 26.5v34q0 162 -186 162q-190 0 -242 -172l-227 60q19 124 142.5 212.5t326.5 88.5q211 0 322.5 -97t111.5 -284v-412q0 -38 11 -49.5t50 -11.5h95zM731 420v82q-86 -10 -150 -23.5t-120.5 -38t-86.5 -63.5t-30 -92q0 -60 39.5 -93.5t114.5 -33.5q97 0 165 67t68 195z
" />
    <glyph glyph-name="Cacute" unicode="&#x106;" horiz-adv-x="1529" 
d="M926 1573h-183l113 303h320zM817 -31q-219 0 -385.5 99.5t-253 270t-86.5 384.5q0 156 53.5 292.5t147.5 235.5t230.5 156t295.5 57q129 0 240.5 -35t191 -95.5t134.5 -138t81 -165.5l-247 -94q-21 62 -53 113t-79.5 95t-116.5 68.5t-153 24.5q-205 0 -324.5 -136
t-119.5 -376q0 -243 119.5 -384.5t324.5 -141.5q306 0 408 307l243 -96q-71 -203 -235.5 -322t-415.5 -119z" />
    <glyph glyph-name="cacute" unicode="&#x107;" horiz-adv-x="1134" 
d="M688 1159h-166l103 305h290zM604 -31q-232 0 -378 149t-146 394q0 240 149.5 389.5t376.5 149.5q172 0 293 -85t168 -218l-231 -84q-29 86 -89.5 135t-148.5 49q-115 0 -189.5 -87t-74.5 -249q0 -164 75.5 -252t190.5 -88q184 0 252 205l235 -82q-57 -150 -183 -238
t-300 -88z" />
    <glyph glyph-name="Ccircumflex" unicode="&#x108;" horiz-adv-x="1529" 
d="M657 1573h-245l243 258h355l243 -258h-247l-175 147zM817 -31q-219 0 -385.5 99.5t-253 270t-86.5 384.5q0 156 53.5 292.5t147.5 235.5t230.5 156t295.5 57q129 0 240.5 -35t191 -95.5t134.5 -138t81 -165.5l-247 -94q-21 62 -53 113t-79.5 95t-116.5 68.5t-153 24.5
q-205 0 -324.5 -136t-119.5 -376q0 -243 119.5 -384.5t324.5 -141.5q306 0 408 307l243 -96q-71 -203 -235.5 -322t-415.5 -119z" />
    <glyph glyph-name="ccircumflex" unicode="&#x109;" horiz-adv-x="1134" 
d="M442 1159h-223l221 260h322l223 -260h-225l-158 148zM604 -31q-232 0 -378 149t-146 394q0 240 149.5 389.5t376.5 149.5q172 0 293 -85t168 -218l-231 -84q-29 86 -89.5 135t-148.5 49q-115 0 -189.5 -87t-74.5 -249q0 -164 75.5 -252t190.5 -88q184 0 252 205l235 -82
q-57 -150 -183 -238t-300 -88z" />
    <glyph glyph-name="Cdotaccent" unicode="&#x10a;" horiz-adv-x="1529" 
d="M967 1573h-265v254h265v-254zM817 -31q-219 0 -385.5 99.5t-253 270t-86.5 384.5q0 156 53.5 292.5t147.5 235.5t230.5 156t295.5 57q129 0 240.5 -35t191 -95.5t134.5 -138t81 -165.5l-247 -94q-21 62 -53 113t-79.5 95t-116.5 68.5t-153 24.5q-205 0 -324.5 -136
t-119.5 -376q0 -243 119.5 -384.5t324.5 -141.5q306 0 408 307l243 -96q-71 -203 -235.5 -322t-415.5 -119z" />
    <glyph glyph-name="cdotaccent" unicode="&#x10b;" horiz-adv-x="1134" 
d="M733 1178h-264v256h264v-256zM604 -31q-232 0 -378 149t-146 394q0 240 149.5 389.5t376.5 149.5q172 0 293 -85t168 -218l-231 -84q-29 86 -89.5 135t-148.5 49q-115 0 -189.5 -87t-74.5 -249q0 -164 75.5 -252t190.5 -88q184 0 252 205l235 -82q-57 -150 -183 -238
t-300 -88z" />
    <glyph glyph-name="Ccaron" unicode="&#x10c;" horiz-adv-x="1529" 
d="M1006 1812h247l-243 -260h-355l-243 260h245l174 -147zM817 -31q-219 0 -385.5 99.5t-253 270t-86.5 384.5q0 156 53.5 292.5t147.5 235.5t230.5 156t295.5 57q129 0 240.5 -35t191 -95.5t134.5 -138t81 -165.5l-247 -94q-21 62 -53 113t-79.5 95t-116.5 68.5t-153 24.5
q-205 0 -324.5 -136t-119.5 -376q0 -243 119.5 -384.5t324.5 -141.5q306 0 408 307l243 -96q-71 -203 -235.5 -322t-415.5 -119z" />
    <glyph glyph-name="ccaron" unicode="&#x10d;" horiz-adv-x="1134" 
d="M762 1159h-322l-223 260h225l158 -147l160 147h225zM604 -31q-232 0 -378 149t-146 394q0 240 149.5 389.5t376.5 149.5q172 0 293 -85t168 -218l-231 -84q-29 86 -89.5 135t-148.5 49q-115 0 -189.5 -87t-74.5 -249q0 -164 75.5 -252t190.5 -88q184 0 252 205l235 -82
q-57 -150 -183 -238t-300 -88z" />
    <glyph glyph-name="Dcaron" unicode="&#x10e;" horiz-adv-x="1533" 
d="M829 1812h248l-246 -260h-352l-246 260h248l174 -147zM707 0h-521v1434h525q206 0 370.5 -84.5t261.5 -247t97 -377.5q0 -168 -56 -305.5t-154.5 -229t-232.5 -141t-290 -49.5zM453 1204v-975h231q479 0 479 492q0 225 -118 354t-347 129h-245z" />
    <glyph glyph-name="dcaron" unicode="&#x10f;" horiz-adv-x="1386" 
d="M516 -31q-194 0 -314 148t-120 393t120 393t314 148q118 0 201.5 -52t126.5 -122v184v373h250v-1434h-244v143q-43 -69 -128.5 -121.5t-205.5 -52.5zM1337 909h-114l153 271h-143v254h260v-254zM598 166q118 0 188 88t70 256t-70 256t-188 88q-116 0 -186 -82t-70 -262
q0 -181 69.5 -262.5t186.5 -81.5z" />
    <glyph glyph-name="Dcroat" unicode="&#x110;" horiz-adv-x="1556" 
d="M207 1434h524q206 0 370.5 -84.5t261.5 -247t97 -377.5q0 -168 -56 -305.5t-154.5 -229t-232.5 -141t-290 -49.5h-520v649h-160v193h160v592zM473 229h232q479 0 479 492q0 225 -118 354t-347 129h-246v-362h281v-193h-281v-420z" />
    <glyph glyph-name="dcroat" unicode="&#x111;" horiz-adv-x="1245" 
d="M1094 1282h170v-160h-170v-1122h-244v143q-43 -69 -128.5 -121.5t-205.5 -52.5q-194 0 -314 148t-120 393t120 393t314 148q118 0 201.5 -52t126.5 -122v184v61h-322v160h322v152h250v-152zM598 166q118 0 188 88t70 256t-70 256t-188 88q-116 0 -186 -82t-70 -262
q0 -181 69.5 -262.5t186.5 -81.5z" />
    <glyph glyph-name="Emacron" unicode="&#x112;" horiz-adv-x="1337" 
d="M1065 1602h-703v174h703v-174zM1239 0h-1053v1434h1053v-230h-786v-352h589v-225h-589v-398h786v-229z" />
    <glyph glyph-name="emacron" unicode="&#x113;" horiz-adv-x="1140" 
d="M895 1196h-637v176h637v-176zM580 -31q-228 0 -363 144.5t-135 396.5q0 242 139 391.5t354 149.5q160 0 275 -80t166.5 -216.5t34.5 -305.5h-719q6 -146 75.5 -214.5t176.5 -68.5q168 0 247 184l226 -84q-26 -63 -65 -114.5t-96 -93.5t-137.5 -65.5t-178.5 -23.5z
M338 633h465q-6 110 -67.5 170.5t-160.5 60.5q-95 0 -159.5 -60.5t-77.5 -170.5z" />
    <glyph glyph-name="Ebreve" unicode="&#x114;" horiz-adv-x="1337" 
d="M711 1544q-94 0 -166.5 24.5t-114.5 66.5t-63 91.5t-23 104.5h203q3 -48 46.5 -87.5t117.5 -39.5q75 0 118 39t48 88h202q-2 -55 -23 -104.5t-63.5 -91.5t-115 -66.5t-166.5 -24.5zM1239 0h-1053v1434h1053v-230h-786v-352h589v-225h-589v-398h786v-229z" />
    <glyph glyph-name="ebreve" unicode="&#x115;" horiz-adv-x="1140" 
d="M575 1133q-167 0 -249 83t-84 203h184q3 -50 42 -88.5t107 -38.5t107.5 38.5t42.5 88.5h186q-1 -44 -13 -84.5t-38 -78t-64 -64.5t-94.5 -43t-126.5 -16zM580 -31q-228 0 -363 144.5t-135 396.5q0 242 139 391.5t354 149.5q160 0 275 -80t166.5 -216.5t34.5 -305.5h-719
q6 -146 75.5 -214.5t176.5 -68.5q168 0 247 184l226 -84q-26 -63 -65 -114.5t-96 -93.5t-137.5 -65.5t-178.5 -23.5zM338 633h465q-6 110 -67.5 170.5t-160.5 60.5q-95 0 -159.5 -60.5t-77.5 -170.5z" />
    <glyph glyph-name="Edotaccent" unicode="&#x116;" horiz-adv-x="1337" 
d="M846 1573h-266v254h266v-254zM1239 0h-1053v1434h1053v-230h-786v-352h589v-225h-589v-398h786v-229z" />
    <glyph glyph-name="edotaccent" unicode="&#x117;" horiz-adv-x="1140" 
d="M709 1178h-265v256h265v-256zM580 -31q-228 0 -363 144.5t-135 396.5q0 242 139 391.5t354 149.5q160 0 275 -80t166.5 -216.5t34.5 -305.5h-719q6 -146 75.5 -214.5t176.5 -68.5q168 0 247 184l226 -84q-26 -63 -65 -114.5t-96 -93.5t-137.5 -65.5t-178.5 -23.5z
M338 633h465q-6 110 -67.5 170.5t-160.5 60.5q-95 0 -159.5 -60.5t-77.5 -170.5z" />
    <glyph glyph-name="Eogonek" unicode="&#x118;" horiz-adv-x="1337" 
d="M1239 1434v-230h-786v-352h589v-225h-589v-398h786v-229q-231 -72 -231 -174q0 -76 118 -76q35 0 113 19v-170q-79 -25 -147 -25q-123 0 -196 50.5t-73 144.5q0 136 183 231h-820v1434h1053z" />
    <glyph glyph-name="eogonek" unicode="&#x119;" horiz-adv-x="1140" 
d="M82 510q0 242 139 391.5t354 149.5q160 0 275 -80t166.5 -216.5t34.5 -305.5h-719q6 -146 75.5 -214.5t176.5 -68.5q168 0 247 184l226 -84q-81 -205 -297 -274q-211 -65 -211 -162q0 -80 119 -80q34 0 112 19v-170q-76 -25 -147 -25q-124 0 -196 51t-72 146
q0 121 133 202q-200 30 -308 172.5t-108 364.5zM338 633h465q-6 110 -67.5 170.5t-160.5 60.5q-95 0 -159.5 -60.5t-77.5 -170.5z" />
    <glyph glyph-name="Ecaron" unicode="&#x11a;" horiz-adv-x="1337" 
d="M885 1812h248l-244 -260h-354l-246 260h248l174 -147zM1239 0h-1053v1434h1053v-230h-786v-352h589v-225h-589v-398h786v-229z" />
    <glyph glyph-name="ecaron" unicode="&#x11b;" horiz-adv-x="1140" 
d="M737 1159h-321l-223 260h225l160 -147l157 147h226zM580 -31q-228 0 -363 144.5t-135 396.5q0 242 139 391.5t354 149.5q160 0 275 -80t166.5 -216.5t34.5 -305.5h-719q6 -146 75.5 -214.5t176.5 -68.5q168 0 247 184l226 -84q-26 -63 -65 -114.5t-96 -93.5t-137.5 -65.5
t-178.5 -23.5zM338 633h465q-6 110 -67.5 170.5t-160.5 60.5q-95 0 -159.5 -60.5t-77.5 -170.5z" />
    <glyph glyph-name="Gcircumflex" unicode="&#x11c;" horiz-adv-x="1615" 
d="M666 1573h-248l246 258h352l246 -258h-248l-174 147zM772 -31q-143 0 -266.5 51t-215 144.5t-144 235t-52.5 313.5q0 212 98.5 384.5t268 269.5t375.5 97q137 0 251.5 -35.5t194.5 -97.5t133.5 -137.5t83.5 -163.5l-258 -98q-109 303 -405 303q-198 0 -330.5 -139
t-132.5 -381t128 -381t326 -139q92 0 168 27t123.5 71.5t75.5 96.5t33 106h-475v229h741v-725h-246v223q-151 -254 -475 -254z" />
    <glyph glyph-name="gcircumflex" unicode="&#x11d;" horiz-adv-x="1239" 
d="M416 1159h-226l224 260h319l223 -260h-225l-158 148zM825 -399h-473q-293 0 -293 209q0 64 37.5 118t89.5 88q-94 62 -94 179q0 130 158 221q-51 41 -82 108t-31 146q0 167 121 274t309 107q133 0 232 -56t145 -141q9 90 47.5 128t130.5 38h88v-195h-100q-57 0 -78 -23
t-28 -104l-5 -30q-15 -168 -131.5 -266.5t-294.5 -98.5q-126 0 -202 35q-84 -27 -84 -82q0 -53 98 -53h440q154 0 249 -85.5t95 -213.5q0 -144 -97.5 -223.5t-246.5 -79.5zM573 477q89 0 143 53t54 142q0 88 -54 144t-143 56q-88 0 -142 -55.5t-54 -144.5t53.5 -142
t142.5 -53zM385 -209h397q140 0 140 107q0 102 -140 102h-458q-25 -14 -44.5 -44t-19.5 -65q0 -100 125 -100z" />
    <glyph glyph-name="Gbreve" unicode="&#x11e;" horiz-adv-x="1615" 
d="M840 1544q-94 0 -167 24.5t-115 66.5t-63 91.5t-22 104.5h201q5 -49 48 -88t118 -39t118 39t46 88h204q-2 -55 -23 -104.5t-63.5 -91.5t-115 -66.5t-166.5 -24.5zM772 -31q-143 0 -266.5 51t-215 144.5t-144 235t-52.5 313.5q0 212 98.5 384.5t268 269.5t375.5 97
q137 0 251.5 -35.5t194.5 -97.5t133.5 -137.5t83.5 -163.5l-258 -98q-109 303 -405 303q-198 0 -330.5 -139t-132.5 -381t128 -381t326 -139q92 0 168 27t123.5 71.5t75.5 96.5t33 106h-475v229h741v-725h-246v223q-151 -254 -475 -254z" />
    <glyph glyph-name="gbreve" unicode="&#x11f;" horiz-adv-x="1239" 
d="M571 1133q-86 0 -151.5 24t-103.5 65.5t-57 91t-21 105.5h184q3 -50 42 -88.5t107 -38.5t107.5 38.5t42.5 88.5h186q-1 -44 -13 -84.5t-38 -78t-64 -64.5t-94.5 -43t-126.5 -16zM825 -399h-473q-293 0 -293 209q0 64 37.5 118t89.5 88q-94 62 -94 179q0 130 158 221
q-51 41 -82 108t-31 146q0 167 121 274t309 107q133 0 232 -56t145 -141q9 90 47.5 128t130.5 38h88v-195h-100q-57 0 -78 -23t-28 -104l-5 -30q-15 -168 -131.5 -266.5t-294.5 -98.5q-126 0 -202 35q-84 -27 -84 -82q0 -53 98 -53h440q154 0 249 -85.5t95 -213.5
q0 -144 -97.5 -223.5t-246.5 -79.5zM573 477q89 0 143 53t54 142q0 88 -54 144t-143 56q-88 0 -142 -55.5t-54 -144.5t53.5 -142t142.5 -53zM385 -209h397q140 0 140 107q0 102 -140 102h-458q-25 -14 -44.5 -44t-19.5 -65q0 -100 125 -100z" />
    <glyph glyph-name="Gdotaccent" unicode="&#x120;" horiz-adv-x="1615" 
d="M975 1573h-266v254h266v-254zM772 -31q-143 0 -266.5 51t-215 144.5t-144 235t-52.5 313.5q0 212 98.5 384.5t268 269.5t375.5 97q137 0 251.5 -35.5t194.5 -97.5t133.5 -137.5t83.5 -163.5l-258 -98q-109 303 -405 303q-198 0 -330.5 -139t-132.5 -381t128 -381
t326 -139q92 0 168 27t123.5 71.5t75.5 96.5t33 106h-475v229h741v-725h-246v223q-151 -254 -475 -254z" />
    <glyph glyph-name="gdotaccent" unicode="&#x121;" horiz-adv-x="1239" 
d="M707 1178h-267v256h267v-256zM825 -399h-473q-293 0 -293 209q0 64 37.5 118t89.5 88q-94 62 -94 179q0 130 158 221q-51 41 -82 108t-31 146q0 167 121 274t309 107q133 0 232 -56t145 -141q9 90 47.5 128t130.5 38h88v-195h-100q-57 0 -78 -23t-28 -104l-5 -30
q-15 -168 -131.5 -266.5t-294.5 -98.5q-126 0 -202 35q-84 -27 -84 -82q0 -53 98 -53h440q154 0 249 -85.5t95 -213.5q0 -144 -97.5 -223.5t-246.5 -79.5zM573 477q89 0 143 53t54 142q0 88 -54 144t-143 56q-88 0 -142 -55.5t-54 -144.5t53.5 -142t142.5 -53zM385 -209h397
q140 0 140 107q0 102 -140 102h-458q-25 -14 -44.5 -44t-19.5 -65q0 -100 125 -100z" />
    <glyph glyph-name="uni0122" unicode="&#x122;" horiz-adv-x="1615" 
d="M772 -31q-143 0 -266.5 51t-215 144.5t-144 235t-52.5 313.5q0 212 98.5 384.5t268 269.5t375.5 97q137 0 251.5 -35.5t194.5 -97.5t133.5 -137.5t83.5 -163.5l-258 -98q-109 303 -405 303q-198 0 -330.5 -139t-132.5 -381t128 -381t326 -139q92 0 168 27t123.5 71.5
t75.5 96.5t33 106h-475v229h741v-725h-246v223q-151 -254 -475 -254zM811 -668h-115l154 269h-143v254h260v-254z" />
    <glyph glyph-name="uni0123" unicode="&#x123;" horiz-adv-x="1239" 
d="M596 1700h117l-156 -268h143v-254h-258v254zM825 -399h-473q-293 0 -293 209q0 64 37.5 118t89.5 88q-94 62 -94 179q0 130 158 221q-51 41 -82 108t-31 146q0 167 121 274t309 107q133 0 232 -56t145 -141q9 90 47.5 128t130.5 38h88v-195h-100q-57 0 -78 -23t-28 -104
l-5 -30q-15 -168 -131.5 -266.5t-294.5 -98.5q-126 0 -202 35q-84 -27 -84 -82q0 -53 98 -53h440q154 0 249 -85.5t95 -213.5q0 -144 -97.5 -223.5t-246.5 -79.5zM573 477q89 0 143 53t54 142q0 88 -54 144t-143 56q-88 0 -142 -55.5t-54 -144.5t53.5 -142t142.5 -53z
M385 -209h397q140 0 140 107q0 102 -140 102h-458q-25 -14 -44.5 -44t-19.5 -65q0 -100 125 -100z" />
    <glyph glyph-name="Hcircumflex" unicode="&#x124;" horiz-adv-x="1576" 
d="M614 1573h-245l243 258h355l243 -258h-245l-174 147zM453 0h-267v1434h267v-580h671v580h267v-1434h-267v625h-671v-625z" />
    <glyph glyph-name="hcircumflex" unicode="&#x125;" horiz-adv-x="1210" 
d="M467 1573h-225l223 260h321l222 -260h-224l-159 147zM401 0h-247v1434h247v-373v-203q16 30 38 57t61.5 61t101 54.5t135.5 20.5q165 0 248.5 -100t83.5 -273v-678h-250v623q0 219 -184 219q-47 0 -85 -15t-62 -37.5t-41.5 -58t-26 -66t-13 -73t-5.5 -67.5t-1 -60v-465z
" />
    <glyph glyph-name="Hbar" unicode="&#x126;" horiz-adv-x="1638" 
d="M1419 1249h170v-184h-170v-1065h-266v625h-672v-625h-266v1065h-166v184h166v185h266v-185h672v185h266v-185zM481 854h672v211h-672v-211z" />
    <glyph glyph-name="hbar" unicode="&#x127;" horiz-adv-x="1210" 
d="M737 1051q165 0 248.5 -100t83.5 -273v-678h-250v623q0 219 -184 219q-47 0 -85 -15t-62 -37.5t-41.5 -58t-26 -66t-13 -73t-5.5 -67.5t-1 -60v-465h-247v1122h-152v160h152v152h247v-152h344v-160h-344v-61v-203q16 30 38 57t61.5 61t101 54.5t135.5 20.5z" />
    <glyph glyph-name="Itilde" unicode="&#x128;" horiz-adv-x="636" 
d="M514 1552q-89 0 -188 54l-60 32q-63 37 -104 37q-40 0 -62.5 -26.5t-23.5 -75.5h-203q0 131 74.5 200.5t199.5 69.5q98 0 187 -51l59 -33q68 -37 105 -37q82 0 88 99h196q0 -269 -268 -269zM453 0h-267v1434h267v-1434z" />
    <glyph glyph-name="itilde" unicode="&#x129;" horiz-adv-x="552" 
d="M444 1151q-86 0 -170 53l-53 33q-60 37 -94 37q-37 0 -58 -27t-22 -76h-184q0 131 68 201t182 70q82 0 170 -51l53 -33q61 -37 94 -37q73 0 82 98h178q0 -268 -246 -268zM401 0h-247v1020h247v-1020z" />
    <glyph glyph-name="Imacron" unicode="&#x12a;" horiz-adv-x="636" 
d="M672 1602h-703v174h703v-174zM453 0h-267v1434h267v-1434z" />
    <glyph glyph-name="imacron" unicode="&#x12b;" horiz-adv-x="552" 
d="M594 1196h-639v176h639v-176zM401 0h-247v1020h247v-1020z" />
    <glyph glyph-name="Ibreve" unicode="&#x12c;" horiz-adv-x="636" 
d="M317 1544q-94 0 -166.5 24.5t-114 66.5t-62.5 91.5t-23 104.5h203q5 -49 47.5 -88t115.5 -39q76 0 118.5 38.5t47.5 88.5h203q-2 -55 -23 -104.5t-63 -91.5t-115 -66.5t-168 -24.5zM453 0h-267v1434h267v-1434z" />
    <glyph glyph-name="ibreve" unicode="&#x12d;" horiz-adv-x="552" 
d="M274 1133q-167 0 -249 83t-84 203h184q3 -50 42 -88.5t107 -38.5t107.5 38.5t42.5 88.5h184q-2 -56 -21 -105.5t-57.5 -91t-104 -65.5t-151.5 -24zM401 0h-247v1020h247v-1020z" />
    <glyph glyph-name="Iogonek" unicode="&#x12e;" horiz-adv-x="638" 
d="M453 1434v-1434q-232 -72 -232 -174q0 -76 119 -76q35 0 113 19v-170q-79 -25 -148 -25q-123 0 -195.5 50t-72.5 145q0 137 182 231h-33v1434h267z" />
    <glyph glyph-name="iogonek" unicode="&#x12f;" horiz-adv-x="557" 
d="M145 1178v256h267v-256h-267zM170 0h-14v1020h250v-1020q-234 -72 -234 -174q0 -76 119 -76q37 0 115 19v-170q-79 -25 -150 -25q-123 0 -194.5 50t-71.5 145q0 138 180 231z" />
    <glyph glyph-name="Idotaccent" unicode="&#x130;" horiz-adv-x="636" 
d="M453 1573h-267v254h267v-254zM453 0h-267v1434h267v-1434z" />
    <glyph glyph-name="dotlessi" unicode="&#x131;" horiz-adv-x="552" 
d="M401 0h-247v1020h247v-1020z" />
    <glyph glyph-name="IJ" unicode="&#x132;" horiz-adv-x="1744" 
d="M453 0h-267v1434h267v-1434zM1137 -31q-218 0 -341 131t-128 361l270 69q-2 -166 41.5 -250.5t148.5 -84.5q98 0 139.5 71t41.5 219v949h266v-930q0 -273 -108 -404t-330 -131z" />
    <glyph glyph-name="ij" unicode="&#x133;" horiz-adv-x="1118" 
d="M408 1180h-267v256h267v-256zM971 1182h-260v252h260v-252zM401 0h-249v1020h249v-1020zM709 -399h-236v206h152q50 0 72 22.5t22 72.5v1118h246v-1159q0 -124 -65.5 -192t-190.5 -68z" />
    <glyph glyph-name="Jcircumflex" unicode="&#x134;" horiz-adv-x="1107" 
d="M621 1573h-246l243 258h355l244 -258h-246l-174 147zM498 -31q-218 0 -341 131t-128 361l270 69q-2 -166 41.5 -250.5t148.5 -84.5q98 0 139.5 71t41.5 219v949h266v-930q0 -273 -108 -404t-330 -131z" />
    <glyph glyph-name="jcircumflex" unicode="&#x135;" horiz-adv-x="569" 
d="M133 1159h-223l221 260h322l223 -260h-225l-158 148zM158 -399h-238v206h152q52 0 75 22.5t23 72.5v1118h248v-1159q0 -124 -67 -192t-193 -68z" />
    <glyph glyph-name="uni0136" unicode="&#x136;" horiz-adv-x="1439" 
d="M1380 1434l-563 -580l645 -854h-338l-489 666l-182 -189v-477h-267v1434h267v-277v-352l569 629h358zM805 -399h-143v254h258v-254l-156 -269h-115z" />
    <glyph glyph-name="uni0137" unicode="&#x137;" horiz-adv-x="1210" 
d="M1171 1020l-432 -412l486 -608h-316l-344 442l-164 -155v-287h-247v1434h247v-512v-355l457 453h313zM672 -399h-144v254h258v-254l-153 -269h-117z" />
    <glyph glyph-name="Lacute" unicode="&#x139;" horiz-adv-x="1245" 
d="M408 1573h-185l113 303h319zM1225 0h-1039v1434h267v-1201h772v-233z" />
    <glyph glyph-name="lacute" unicode="&#x13a;" horiz-adv-x="552" 
d="M362 1573h-165l102 305h291zM401 0h-247v1434h247v-1434z" />
    <glyph glyph-name="uni013B" unicode="&#x13b;" horiz-adv-x="1245" 
d="M1225 0h-1039v1434h267v-1201h772v-233zM676 -668h-117l156 269h-144v254h258v-254z" />
    <glyph glyph-name="uni013C" unicode="&#x13c;" horiz-adv-x="552" 
d="M401 0h-247v1434h247v-1434zM250 -668h-115l154 269h-144v254h261v-254z" />
    <glyph glyph-name="Lcaron" unicode="&#x13d;" horiz-adv-x="1247" 
d="M1225 0h-1039v1434h267v-1201h772v-233zM786 858h-127l170 295h-157v281h284v-281z" />
    <glyph glyph-name="lcaron" unicode="&#x13e;" horiz-adv-x="694" 
d="M401 0h-247v1434h247v-1434zM645 909h-115l154 271h-143v254h260v-254z" />
    <glyph glyph-name="Ldot" unicode="&#x13f;" horiz-adv-x="1251" 
d="M1225 0h-1039v1434h267v-1201h772v-233zM1057 631h-305v299h305v-299z" />
    <glyph glyph-name="ldot" unicode="&#x140;" horiz-adv-x="892" 
d="M401 0h-247v1434h247v-1434zM877 588h-306v299h306v-299z" />
    <glyph glyph-name="Lslash" unicode="&#x141;" horiz-adv-x="1333" 
d="M541 653v-420h772v-233h-1039v510l-194 -102v221l194 102v703h267v-562l426 226v-219z" />
    <glyph glyph-name="lslash" unicode="&#x142;" horiz-adv-x="727" 
d="M496 950l184 113v-211l-184 -113v-739h-250v588l-172 -105v207l172 107v637h250v-484z" />
    <glyph glyph-name="Nacute" unicode="&#x143;" horiz-adv-x="1699" 
d="M946 1573h-182l113 303h319zM453 0h-267v1434h367l694 -983v348v635h266v-1434h-251l-809 1145v-410v-735z" />
    <glyph glyph-name="nacute" unicode="&#x144;" horiz-adv-x="1210" 
d="M700 1159h-165l102 305h291zM401 0h-247v1020h241v-162q16 29 39 57t62.5 61.5t99 54t129.5 20.5q176 0 260 -99t84 -274v-678h-250v623q0 219 -184 219q-47 0 -85 -15t-62 -37.5t-41.5 -58t-26 -66t-13 -73t-5.5 -67.5t-1 -60v-465z" />
    <glyph glyph-name="uni0145" unicode="&#x145;" horiz-adv-x="1699" 
d="M453 0h-267v1434h367l694 -983v348v635h266v-1434h-251l-809 1145v-410v-735zM825 -668h-114l153 269h-143v254h260v-254z" />
    <glyph glyph-name="uni0146" unicode="&#x146;" horiz-adv-x="1210" 
d="M401 0h-247v1020h241v-162q16 29 39 57t62.5 61.5t99 54t129.5 20.5q176 0 260 -99t84 -274v-678h-250v623q0 219 -184 219q-47 0 -85 -15t-62 -37.5t-41.5 -58t-26 -66t-13 -73t-5.5 -67.5t-1 -60v-465zM586 -668h-115l156 269h-144v254h258v-254z" />
    <glyph glyph-name="Ncaron" unicode="&#x147;" horiz-adv-x="1699" 
d="M1028 1812h246l-244 -260h-354l-244 260h248l174 -147zM453 0h-267v1434h367l694 -983v348v635h266v-1434h-251l-809 1145v-410v-735z" />
    <glyph glyph-name="ncaron" unicode="&#x148;" horiz-adv-x="1210" 
d="M774 1159h-319l-224 260h226l157 -147l158 147h225zM401 0h-247v1020h241v-162q16 29 39 57t62.5 61.5t99 54t129.5 20.5q176 0 260 -99t84 -274v-678h-250v623q0 219 -184 219q-47 0 -85 -15t-62 -37.5t-41.5 -58t-26 -66t-13 -73t-5.5 -67.5t-1 -60v-465z" />
    <glyph glyph-name="Eng" unicode="&#x14a;" horiz-adv-x="1699" 
d="M1163 -399h-164v225h111q63 0 100 36t37 103v53l-794 1127v-86v-324v-735h-267v1434h367l694 -985v81v265v639h266v-1479q0 -166 -94.5 -260t-255.5 -94z" />
    <glyph glyph-name="eng" unicode="&#x14b;" horiz-adv-x="1210" 
d="M809 -399h-238v209h154q49 0 71.5 23t22.5 73v717q0 219 -184 219q-47 0 -85 -15t-62 -37.5t-41.5 -58t-26 -66t-13 -73t-5.5 -67.5t-1 -60v-465h-247v1020h241v-162q16 29 39 57t62.5 61.5t99 54t129.5 20.5q176 0 260 -99t84 -274v-813q0 -126 -67 -195t-193 -69z" />
    <glyph glyph-name="Omacron" unicode="&#x14c;" horiz-adv-x="1677" 
d="M1192 1602h-703v174h703v-174zM840 -31q-224 0 -394.5 95t-262 264t-91.5 387q0 216 92.5 386t263.5 266.5t392 96.5q222 0 392 -96.5t261.5 -266.5t91.5 -386q0 -218 -91 -387t-261 -264t-393 -95zM840 197q215 0 340 145t125 373q0 231 -125 376.5t-340 145.5
q-217 0 -342 -145.5t-125 -376.5q0 -228 125.5 -373t341.5 -145z" />
    <glyph glyph-name="omacron" unicode="&#x14d;" horiz-adv-x="1187" 
d="M911 1196h-637v176h637v-176zM594 -31q-223 0 -369.5 154t-146.5 387q0 238 145.5 389.5t370.5 151.5t369.5 -151.5t144.5 -389.5q0 -241 -144.5 -391t-369.5 -150zM594 172q116 0 185 85t69 249q0 166 -69 254t-185 88q-117 0 -186.5 -88t-69.5 -254q0 -164 69 -249
t187 -85z" />
    <glyph glyph-name="Obreve" unicode="&#x14e;" horiz-adv-x="1677" 
d="M838 1544q-94 0 -167 24.5t-115 66.5t-63.5 91.5t-23.5 104.5h203q5 -49 48 -88t118 -39t117.5 39t45.5 88h205q-2 -56 -23.5 -105t-63.5 -91t-114.5 -66.5t-166.5 -24.5zM840 -31q-224 0 -394.5 95t-262 264t-91.5 387q0 216 92.5 386t263.5 266.5t392 96.5
q222 0 392 -96.5t261.5 -266.5t91.5 -386q0 -218 -91 -387t-261 -264t-393 -95zM840 197q215 0 340 145t125 373q0 231 -125 376.5t-340 145.5q-217 0 -342 -145.5t-125 -376.5q0 -228 125.5 -373t341.5 -145z" />
    <glyph glyph-name="obreve" unicode="&#x14f;" horiz-adv-x="1187" 
d="M592 1133q-87 0 -153 24t-104 65.5t-57 91t-20 105.5h184q3 -50 42.5 -88.5t107.5 -38.5t107 38.5t42 88.5h187q-2 -56 -21 -105.5t-57.5 -91t-105 -65.5t-152.5 -24zM594 -31q-223 0 -369.5 154t-146.5 387q0 238 145.5 389.5t370.5 151.5t369.5 -151.5t144.5 -389.5
q0 -241 -144.5 -391t-369.5 -150zM594 172q116 0 185 85t69 249q0 166 -69 254t-185 88q-117 0 -186.5 -88t-69.5 -254q0 -164 69 -249t187 -85z" />
    <glyph glyph-name="Ohungarumlaut" unicode="&#x150;" horiz-adv-x="1677" 
d="M733 1573h-182l113 303h319zM1130 1573h-182l113 303h319zM840 -31q-224 0 -394.5 95t-262 264t-91.5 387q0 216 92.5 386t263.5 266.5t392 96.5q222 0 392 -96.5t261.5 -266.5t91.5 -386q0 -218 -91 -387t-261 -264t-393 -95zM840 197q215 0 340 145t125 373
q0 231 -125 376.5t-340 145.5q-217 0 -342 -145.5t-125 -376.5q0 -228 125.5 -373t341.5 -145z" />
    <glyph glyph-name="ohungarumlaut" unicode="&#x151;" horiz-adv-x="1187" 
d="M496 1159h-166l102 305h291zM856 1159h-166l103 305h290zM594 -31q-223 0 -369.5 154t-146.5 387q0 238 145.5 389.5t370.5 151.5t369.5 -151.5t144.5 -389.5q0 -241 -144.5 -391t-369.5 -150zM594 172q116 0 185 85t69 249q0 166 -69 254t-185 88q-117 0 -186.5 -88
t-69.5 -254q0 -164 69 -249t187 -85z" />
    <glyph glyph-name="OE" unicode="&#x152;" horiz-adv-x="2449" 
d="M784 -31q-196 0 -354 95.5t-247 266.5t-89 386q0 160 52.5 299.5t143.5 237.5t219 154t275 56q314 0 484 -221v191h1085v-230h-819v-340h604v-221h-604v-414h819v-229h-1085v193q-166 -224 -484 -224zM827 197q215 0 335 140.5t120 377.5t-120 379.5t-335 142.5
t-334.5 -142t-119.5 -380q0 -237 119.5 -377.5t334.5 -140.5z" />
    <glyph glyph-name="oe" unicode="&#x153;" horiz-adv-x="1900" 
d="M569 -31q-208 0 -348.5 150.5t-140.5 390.5q0 239 139 390t356 151q125 0 231.5 -57.5t160.5 -155.5q115 213 383 213q155 0 267 -80.5t161 -217t32 -304.5h-720q7 -141 73.5 -212t173.5 -71q54 0 97.5 16t73 44.5t48.5 57.5t35 66l226 -84q-126 -297 -474 -297
q-132 0 -229 53.5t-149 151.5q-58 -96 -163.5 -150.5t-232.5 -54.5zM1100 627h463q-6 115 -67.5 176t-164.5 61q-95 0 -157 -61.5t-74 -175.5zM596 172q115 0 184.5 85.5t69.5 248.5q0 165 -70 253.5t-184 88.5q-117 0 -186.5 -88t-69.5 -254q0 -164 69 -249t187 -85z" />
    <glyph glyph-name="Racute" unicode="&#x154;" horiz-adv-x="1456" 
d="M803 1573h-185l113 303h320zM453 0h-267v1434h668q223 0 350 -106t127 -277q0 -87 -29.5 -158t-80.5 -117.5t-112 -75.5t-132 -43q138 -17 213.5 -89t101.5 -218l66 -350h-287l-49 328q-20 128 -88 182.5t-207 54.5h-274v-565zM453 1204v-416h354q111 0 179.5 53
t68.5 156t-68 155t-180 52h-354z" />
    <glyph glyph-name="racute" unicode="&#x155;" horiz-adv-x="856" 
d="M582 1159h-166l102 305h291zM401 0h-247v1020h243v-225q13 30 29 57.5t46.5 63t67.5 61t93 43.5t121 18q40 0 67 -6v-254q-55 6 -110 6q-162 0 -236 -83.5t-74 -270.5v-430z" />
    <glyph glyph-name="uni0156" unicode="&#x156;" horiz-adv-x="1456" 
d="M453 0h-267v1434h668q223 0 350 -106t127 -277q0 -87 -29.5 -158t-80.5 -117.5t-112 -75.5t-132 -43q138 -17 213.5 -89t101.5 -218l66 -350h-287l-49 328q-20 128 -88 182.5t-207 54.5h-274v-565zM453 1204v-416h354q111 0 179.5 53t68.5 156t-68 155t-180 52h-354z
M723 -668h-117l156 269h-144v254h259v-254z" />
    <glyph glyph-name="uni0157" unicode="&#x157;" horiz-adv-x="856" 
d="M401 0h-247v1020h243v-225q13 30 29 57.5t46.5 63t67.5 61t93 43.5t121 18q40 0 67 -6v-254q-55 6 -110 6q-162 0 -236 -83.5t-74 -270.5v-430zM256 -668h-115l154 269h-143v254h260v-254z" />
    <glyph glyph-name="Rcaron" unicode="&#x158;" horiz-adv-x="1456" 
d="M883 1812h247l-245 -260h-353l-245 260h248l174 -147zM453 0h-267v1434h668q223 0 350 -106t127 -277q0 -87 -29.5 -158t-80.5 -117.5t-112 -75.5t-132 -43q138 -17 213.5 -89t101.5 -218l66 -350h-287l-49 328q-20 128 -88 182.5t-207 54.5h-274v-565zM453 1204v-416
h354q111 0 179.5 53t68.5 156t-68 155t-180 52h-354z" />
    <glyph glyph-name="rcaron" unicode="&#x159;" horiz-adv-x="856" 
d="M657 1159h-321l-223 260h225l158 -147l159 147h226zM401 0h-247v1020h243v-225q13 30 29 57.5t46.5 63t67.5 61t93 43.5t121 18q40 0 67 -6v-254q-55 6 -110 6q-162 0 -236 -83.5t-74 -270.5v-430z" />
    <glyph glyph-name="Sacute" unicode="&#x15a;" horiz-adv-x="1351" 
d="M760 1573h-182l112 303h320zM688 -31q-133 0 -243 33.5t-185 92.5t-124 134t-73 164l254 94q15 -60 43.5 -111t73 -94t111 -67.5t147.5 -24.5q145 0 218 55.5t73 147.5q0 155 -246 199l-182 31q-202 34 -311 133.5t-109 283.5q0 181 145 302.5t394 121.5
q124 0 225.5 -31.5t169 -85t110.5 -115.5t64 -132l-248 -94q-79 237 -329 237q-129 0 -193.5 -53.5t-64.5 -136.5q0 -141 202 -179l187 -32q214 -35 339.5 -143t125.5 -285q0 -94 -35.5 -174t-105 -141t-180.5 -95.5t-253 -34.5z" />
    <glyph glyph-name="sacute" unicode="&#x15b;" horiz-adv-x="1050" 
d="M621 1159h-166l102 305h289zM528 -29q-176 0 -305.5 78.5t-161.5 214.5l230 74q5 -21 13 -41t27.5 -47t45 -46.5t68 -33.5t94.5 -14q87 0 134.5 32t47.5 86q0 47 -33 79t-117 48l-137 27q-63 12 -110.5 27.5t-91 40t-71 56.5t-43.5 77.5t-16 103.5q0 142 116 230t302 88
q91 0 166.5 -22t125.5 -58.5t82.5 -78t49.5 -87.5l-211 -90q-25 67 -80 111t-143 44q-82 0 -124 -32.5t-42 -81.5q0 -46 32.5 -71t121.5 -42l133 -25q348 -72 348 -319q0 -151 -119.5 -239.5t-331.5 -88.5z" />
    <glyph glyph-name="Scircumflex" unicode="&#x15c;" horiz-adv-x="1351" 
d="M492 1573h-248l245 258h353l245 -258h-247l-174 147zM688 -31q-133 0 -243 33.5t-185 92.5t-124 134t-73 164l254 94q15 -60 43.5 -111t73 -94t111 -67.5t147.5 -24.5q145 0 218 55.5t73 147.5q0 155 -246 199l-182 31q-202 34 -311 133.5t-109 283.5q0 181 145 302.5
t394 121.5q124 0 225.5 -31.5t169 -85t110.5 -115.5t64 -132l-248 -94q-79 237 -329 237q-129 0 -193.5 -53.5t-64.5 -136.5q0 -141 202 -179l187 -32q214 -35 339.5 -143t125.5 -285q0 -94 -35.5 -174t-105 -141t-180.5 -95.5t-253 -34.5z" />
    <glyph glyph-name="scircumflex" unicode="&#x15d;" horiz-adv-x="1050" 
d="M375 1159h-223l221 260h321l224 -260h-226l-157 148zM528 -29q-176 0 -305.5 78.5t-161.5 214.5l230 74q5 -21 13 -41t27.5 -47t45 -46.5t68 -33.5t94.5 -14q87 0 134.5 32t47.5 86q0 47 -33 79t-117 48l-137 27q-63 12 -110.5 27.5t-91 40t-71 56.5t-43.5 77.5
t-16 103.5q0 142 116 230t302 88q91 0 166.5 -22t125.5 -58.5t82.5 -78t49.5 -87.5l-211 -90q-25 67 -80 111t-143 44q-82 0 -124 -32.5t-42 -81.5q0 -46 32.5 -71t121.5 -42l133 -25q348 -72 348 -319q0 -151 -119.5 -239.5t-331.5 -88.5z" />
    <glyph glyph-name="Scedilla" unicode="&#x15e;" horiz-adv-x="1351" 
d="M778 -27l-30 -26l-52 -49h17q74 0 131 -44.5t57 -129.5q0 -78 -64 -133.5t-190 -55.5q-81 0 -147 31t-103 72l92 120q66 -71 152 -71t86 53q0 23 -22 37t-58 14q-37 0 -61 -8l-68 88l98 100q-227 18 -367 133.5t-186 288.5l254 94q15 -60 43.5 -111t73 -94t111 -67.5
t147.5 -24.5q145 0 218 55.5t73 147.5q0 155 -246 199l-182 31q-202 34 -311 133.5t-109 283.5q0 181 145 302.5t394 121.5q124 0 225.5 -31.5t169 -85t110.5 -115.5t64 -132l-248 -94q-79 237 -329 237q-129 0 -193.5 -53.5t-64.5 -136.5q0 -141 202 -179l187 -32
q214 -35 339.5 -143t125.5 -285q0 -178 -123.5 -299t-360.5 -142z" />
    <glyph glyph-name="scedilla" unicode="&#x15f;" horiz-adv-x="1050" 
d="M643 -20l-37 -33q-6 -5 -23.5 -21.5t-29.5 -27.5h16q74 0 131.5 -44.5t57.5 -129.5q0 -78 -64 -133.5t-190 -55.5q-81 0 -147 31t-103 72l92 120q71 -71 154 -71q84 0 84 53q0 23 -22 37t-56 14q-40 0 -64 -8l-67 88l102 102q-159 11 -273 88t-143 203l230 74
q5 -21 13 -41t27.5 -47t45 -46.5t68 -33.5t94.5 -14q87 0 134.5 32t47.5 86q0 47 -33 79t-117 48l-137 27q-63 12 -110.5 27.5t-91 40t-71 56.5t-43.5 77.5t-16 103.5q0 142 116 230t302 88q91 0 166.5 -22t125.5 -58.5t82.5 -78t49.5 -87.5l-211 -90q-25 67 -80 111
t-143 44q-82 0 -124 -32.5t-42 -81.5q0 -46 32.5 -71t121.5 -42l133 -25q348 -72 348 -319q0 -128 -88.5 -212t-247.5 -107z" />
    <glyph glyph-name="Scaron" unicode="&#x160;" horiz-adv-x="1351" 
d="M842 1812h245l-243 -260h-355l-243 260h246l176 -147zM688 -31q-133 0 -243 33.5t-185 92.5t-124 134t-73 164l254 94q15 -60 43.5 -111t73 -94t111 -67.5t147.5 -24.5q145 0 218 55.5t73 147.5q0 155 -246 199l-182 31q-202 34 -311 133.5t-109 283.5q0 181 145 302.5
t394 121.5q124 0 225.5 -31.5t169 -85t110.5 -115.5t64 -132l-248 -94q-79 237 -329 237q-129 0 -193.5 -53.5t-64.5 -136.5q0 -141 202 -179l187 -32q214 -35 339.5 -143t125.5 -285q0 -94 -35.5 -174t-105 -141t-180.5 -95.5t-253 -34.5z" />
    <glyph glyph-name="scaron" unicode="&#x161;" horiz-adv-x="1050" 
d="M694 1159h-321l-221 260h223l160 -147l157 147h226zM528 -29q-176 0 -305.5 78.5t-161.5 214.5l230 74q5 -21 13 -41t27.5 -47t45 -46.5t68 -33.5t94.5 -14q87 0 134.5 32t47.5 86q0 47 -33 79t-117 48l-137 27q-63 12 -110.5 27.5t-91 40t-71 56.5t-43.5 77.5t-16 103.5
q0 142 116 230t302 88q91 0 166.5 -22t125.5 -58.5t82.5 -78t49.5 -87.5l-211 -90q-25 67 -80 111t-143 44q-82 0 -124 -32.5t-42 -81.5q0 -46 32.5 -71t121.5 -42l133 -25q348 -72 348 -319q0 -151 -119.5 -239.5t-331.5 -88.5z" />
    <glyph glyph-name="uni0162" unicode="&#x162;" horiz-adv-x="1310" 
d="M784 1204v-1204l-59 -53q-14 -12 -51 -49h14q74 0 131.5 -44.5t57.5 -129.5q0 -78 -64 -133.5t-190 -55.5q-81 0 -147 31.5t-101 71.5l92 120q66 -71 151 -71q84 0 84 53q0 23 -21 37t-56 14q-40 0 -64 -8l-65 88l127 129h-105v1204h-498v230h1270v-230h-506z" />
    <glyph glyph-name="uni0163" unicode="&#x163;" horiz-adv-x="862" 
d="M815 0h-151l-62 -53l-51 -49h16q74 0 131.5 -44.5t57.5 -129.5q0 -78 -64 -133.5t-190 -55.5q-81 0 -148 31.5t-102 71.5l92 120q66 -71 152 -71t86 53q0 23 -22 37t-58 14q-38 0 -62 -8l-67 88l127 129h12q-124 0 -191 69t-67 191v565h-221v195h221v319h250v-319h270
v-195h-270v-526q0 -50 22.5 -73t71.5 -23h217v-203z" />
    <glyph glyph-name="Tcaron" unicode="&#x164;" horiz-adv-x="1310" 
d="M823 1812h248l-246 -260h-352l-246 260h248l174 -147zM784 0h-266v1204h-498v230h1270v-230h-506v-1204z" />
    <glyph glyph-name="tcaron" unicode="&#x165;" horiz-adv-x="862" 
d="M788 1104h-114l153 268h-143v256h260v-256zM815 0h-303q-124 0 -191 69t-67 191v565h-221v195h221v319h250v-319h270v-195h-270v-526q0 -50 22.5 -73t71.5 -23h217v-203z" />
    <glyph glyph-name="Tbar" unicode="&#x166;" horiz-adv-x="1339" 
d="M1305 1434v-230h-504v-323h303v-193h-303v-688h-266v688h-310v193h310v323h-500v230h1270z" />
    <glyph glyph-name="tbar" unicode="&#x167;" horiz-adv-x="884" 
d="M616 203h218v-203h-304q-124 0 -191 69t-67 191v240h-223v188h223v137h-221v195h221v319h250v-319h269v-195h-269v-137h269v-188h-269v-201q0 -50 22.5 -73t71.5 -23z" />
    <glyph glyph-name="Utilde" unicode="&#x168;" horiz-adv-x="1550" 
d="M973 1552q-90 0 -189 54l-59 32q-63 37 -104 37q-40 0 -62.5 -26.5t-23.5 -75.5h-203q0 131 74.5 200.5t199.5 69.5q98 0 187 -51l59 -33q68 -37 104 -37q79 0 88 99h197q0 -269 -268 -269zM776 -31q-283 0 -445.5 153.5t-162.5 434.5v877h266v-836q0 -190 86 -292.5
t256 -102.5q173 0 256.5 103.5t83.5 291.5v836h266v-877q0 -277 -164 -432.5t-442 -155.5z" />
    <glyph glyph-name="utilde" unicode="&#x169;" horiz-adv-x="1198" 
d="M762 1151q-90 0 -170 53l-55 33q-56 37 -95 37q-37 0 -57 -27t-20 -76h-185q0 131 68 201t182 70q80 0 168 -51l53 -33q65 -37 97 -37q73 0 79 98h179q0 -268 -244 -268zM463 -31q-155 0 -239.5 100t-84.5 271v680h250v-621q0 -219 176 -219q69 0 117.5 32.5t72 88.5
t33 113.5t9.5 126.5v479h250v-1020h-248v168q-120 -199 -336 -199z" />
    <glyph glyph-name="Umacron" unicode="&#x16a;" horiz-adv-x="1550" 
d="M1130 1602h-702v174h702v-174zM776 -31q-283 0 -445.5 153.5t-162.5 434.5v877h266v-836q0 -190 86 -292.5t256 -102.5q173 0 256.5 103.5t83.5 291.5v836h266v-877q0 -277 -164 -432.5t-442 -155.5z" />
    <glyph glyph-name="umacron" unicode="&#x16b;" horiz-adv-x="1198" 
d="M911 1196h-639v176h639v-176zM463 -31q-155 0 -239.5 100t-84.5 271v680h250v-621q0 -219 176 -219q69 0 117.5 32.5t72 88.5t33 113.5t9.5 126.5v479h250v-1020h-248v168q-120 -199 -336 -199z" />
    <glyph glyph-name="Ubreve" unicode="&#x16c;" horiz-adv-x="1550" 
d="M776 1544q-94 0 -166.5 24.5t-114.5 66.5t-63 91.5t-22 104.5h200q5 -49 48 -88t118 -39t118 39t46 88h205q-2 -55 -23.5 -104.5t-63.5 -91.5t-115 -66.5t-167 -24.5zM776 -31q-283 0 -445.5 153.5t-162.5 434.5v877h266v-836q0 -190 86 -292.5t256 -102.5
q173 0 256.5 103.5t83.5 291.5v836h266v-877q0 -277 -164 -432.5t-442 -155.5z" />
    <glyph glyph-name="ubreve" unicode="&#x16d;" horiz-adv-x="1198" 
d="M590 1133q-86 0 -151.5 24t-104 65.5t-57.5 91t-21 105.5h184q3 -50 42.5 -88.5t107.5 -38.5q69 0 107.5 38.5t41.5 88.5h187q-1 -44 -13 -84.5t-38 -78t-64 -64.5t-94.5 -43t-126.5 -16zM463 -31q-155 0 -239.5 100t-84.5 271v680h250v-621q0 -219 176 -219
q69 0 117.5 32.5t72 88.5t33 113.5t9.5 126.5v479h250v-1020h-248v168q-120 -199 -336 -199z" />
    <glyph glyph-name="Uring" unicode="&#x16e;" horiz-adv-x="1550" 
d="M776 1530q-108 0 -186 73t-78 185q0 107 78.5 180.5t185.5 73.5t184.5 -74t77.5 -184t-77.5 -182t-184.5 -72zM776 1673q45 0 77 32t32 79q0 49 -32 80.5t-77 31.5q-46 0 -77 -31t-31 -77q0 -51 30.5 -83t77.5 -32zM776 -31q-283 0 -445.5 153.5t-162.5 434.5v877h266
v-836q0 -190 86 -292.5t256 -102.5q173 0 256.5 103.5t83.5 291.5v836h266v-877q0 -277 -164 -432.5t-442 -155.5z" />
    <glyph glyph-name="uring" unicode="&#x16f;" horiz-adv-x="1198" 
d="M594 1128q-103 0 -177.5 69.5t-74.5 174.5q0 103 74.5 172.5t177.5 69.5q102 0 176 -70t74 -174q0 -105 -74 -173.5t-176 -68.5zM594 1264q42 0 72 30.5t30 75.5t-30 76t-72 31q-43 0 -74 -30.5t-31 -74.5q0 -47 30 -77.5t75 -30.5zM463 -31q-155 0 -239.5 100t-84.5 271
v680h250v-621q0 -219 176 -219q69 0 117.5 32.5t72 88.5t33 113.5t9.5 126.5v479h250v-1020h-248v168q-120 -199 -336 -199z" />
    <glyph glyph-name="Uhungarumlaut" unicode="&#x170;" horiz-adv-x="1550" 
d="M672 1573h-183l113 303h320zM1069 1573h-182l112 303h320zM776 -31q-283 0 -445.5 153.5t-162.5 434.5v877h266v-836q0 -190 86 -292.5t256 -102.5q173 0 256.5 103.5t83.5 291.5v836h266v-877q0 -277 -164 -432.5t-442 -155.5z" />
    <glyph glyph-name="uhungarumlaut" unicode="&#x171;" horiz-adv-x="1198" 
d="M494 1159h-166l102 305h291zM856 1159h-168l103 305h290zM463 -31q-155 0 -239.5 100t-84.5 271v680h250v-621q0 -219 176 -219q69 0 117.5 32.5t72 88.5t33 113.5t9.5 126.5v479h250v-1020h-248v168q-120 -199 -336 -199z" />
    <glyph glyph-name="Uogonek" unicode="&#x172;" horiz-adv-x="1550" 
d="M846 -426q-119 0 -189.5 50.5t-70.5 139.5q0 64 30 112t95 95q-259 17 -401 171.5t-142 414.5v877h266v-836q0 -190 86 -292.5t256 -102.5q173 0 256.5 103.5t83.5 291.5v836h266v-877q0 -216 -100.5 -359.5t-282.5 -199.5q-129 -39 -180 -80t-51 -90q0 -78 121 -78
q34 0 112 19v-170q-82 -25 -155 -25z" />
    <glyph glyph-name="uogonek" unicode="&#x173;" horiz-adv-x="1198" 
d="M1047 1020v-1020q-234 -72 -234 -174q0 -76 119 -76q37 0 115 19v-170q-79 -25 -150 -25q-123 0 -195.5 50t-72.5 145q0 137 182 231h-12v168q-120 -199 -336 -199q-155 0 -239.5 100t-84.5 271v680h250v-621q0 -219 176 -219q69 0 117.5 32.5t72 88.5t33 113.5
t9.5 126.5v479h250z" />
    <glyph glyph-name="Wcircumflex" unicode="&#x174;" horiz-adv-x="2109" 
d="M885 1573h-248l246 258h352l246 -258h-248l-174 147zM739 0h-317l-369 1434h287l149 -668q48 -222 99 -453q16 65 98 369l205 752h340l207 -785q81 -308 88 -336q14 60 104 455l154 666h280l-385 -1434h-311l-207 782q-37 139 -66.5 247t-33.5 122l-103 -367z" />
    <glyph glyph-name="wcircumflex" unicode="&#x175;" horiz-adv-x="1738" 
d="M711 1159h-224l222 260h321l223 -260h-225l-158 148zM643 0h-281l-329 1020h258l104 -375q81 -306 109 -403q46 174 100 368l117 410h295l123 -428q75 -280 96 -344q6 20 17.5 62t38 140t59.5 218l102 352h258l-334 -1020h-299l-131 463q-26 94 -52.5 186.5t-33.5 120.5
q-12 -50 -86 -305z" />
    <glyph glyph-name="Ycircumflex" unicode="&#x176;" horiz-adv-x="1359" 
d="M506 1573h-248l246 258h352l246 -258h-248l-174 147zM815 0h-266v590l-520 844h311l203 -342l145 -246q5 9 27.5 50t51 91.5t60.5 106.5l191 340h305l-508 -840v-594z" />
    <glyph glyph-name="ycircumflex" unicode="&#x177;" horiz-adv-x="1101" 
d="M696 1159l-157 148l-158 -148h-225l223 260h319l224 -260h-226zM664 584l143 436h260l-416 -1174q-45 -132 -116.5 -188.5t-202.5 -56.5h-266v206h239q56 0 85 23t52 86l31 92l-475 1012h270l187 -438q43 -101 77.5 -179.5t40.5 -93.5z" />
    <glyph glyph-name="Ydieresis" unicode="&#x178;" horiz-adv-x="1359" 
d="M580 1573h-269v231h269v-231zM1053 1573h-269v231h269v-231zM815 0h-266v590l-520 844h311l203 -342l145 -246q5 9 27.5 50t51 91.5t60.5 106.5l191 340h305l-508 -840v-594z" />
    <glyph glyph-name="Zacute" unicode="&#x179;" horiz-adv-x="1333" 
d="M760 1573h-182l112 303h320zM1262 0h-1174v281l832 923h-258h-551v230h1114v-263l-844 -940h258h623v-231z" />
    <glyph glyph-name="zacute" unicode="&#x17a;" horiz-adv-x="1013" 
d="M596 1159h-166l102 305h291zM944 0h-862v219l530 598h-258h-250v203h814v-180l-564 -637h273h317v-203z" />
    <glyph glyph-name="Zdotaccent" unicode="&#x17b;" horiz-adv-x="1333" 
d="M801 1573h-264v254h264v-254zM1262 0h-1174v281l832 923h-258h-551v230h1114v-263l-844 -940h258h623v-231z" />
    <glyph glyph-name="zdotaccent" unicode="&#x17c;" horiz-adv-x="1013" 
d="M643 1178h-266v256h266v-256zM944 0h-862v219l530 598h-258h-250v203h814v-180l-564 -637h273h317v-203z" />
    <glyph glyph-name="Zcaron" unicode="&#x17d;" horiz-adv-x="1333" 
d="M842 1812h245l-243 -260h-355l-243 260h248l174 -147zM1262 0h-1174v281l832 923h-258h-551v230h1114v-263l-844 -940h258h623v-231z" />
    <glyph glyph-name="zcaron" unicode="&#x17e;" horiz-adv-x="1013" 
d="M670 1159h-320l-223 260h225l158 -147l158 147h225zM944 0h-862v219l530 598h-258h-250v203h814v-180l-564 -637h273h317v-203z" />
    <glyph glyph-name="florin" unicode="&#x192;" horiz-adv-x="958" 
d="M47 -424q-80 0 -162 23v196q69 -16 115 -16q82 0 135.5 49.5t67.5 153.5l61 374q35 224 60 361h-131h-109v172h266l39 231q57 342 373 342q74 0 162 -18v-207q-61 6 -105 6q-85 0 -129 -35.5t-57 -122.5l-33 -196h266v-172h-293l-122 -756q-31 -192 -137 -288.5
t-267 -96.5z" />
    <glyph glyph-name="AEacute" unicode="&#x1fc;" horiz-adv-x="1933" 
d="M1229 1876h319l-250 -303h-182zM1835 1434v-230h-686v-346h500v-225h-500v-404h686v-229h-950v360h-434l-183 -360h-309l776 1434h1100zM885 588v295v348q-9 -19 -211 -430l-109 -213h320z" />
    <glyph glyph-name="aeacute" unicode="&#x1fd;" horiz-adv-x="1757" 
d="M963 1159h-166l102 305h291zM434 -31q-164 0 -255 79t-91 220q0 79 33.5 142t89.5 105.5t140 73t174.5 47t203.5 26.5v36q0 78 -48 121t-144 43q-95 0 -151 -48.5t-75 -123.5l-227 58q22 124 138 213.5t298 89.5q128 0 217.5 -45t132.5 -115q45 70 133 115t197 45
q158 0 272.5 -83.5t164.5 -220t32 -298.5h-721q7 -146 76.5 -214.5t175.5 -68.5q171 0 250 184l225 -84q-55 -133 -171 -215t-298 -82q-139 0 -244 59t-143 140q-51 -88 -150.5 -143.5t-234.5 -55.5zM956 627h465q-6 115 -67 176t-160 61q-95 0 -160 -61.5t-78 -175.5z
M492 158q100 0 168.5 66.5t68.5 195.5v82q-70 -8 -122.5 -17t-105.5 -25.5t-87 -39t-55 -57t-21 -78.5q0 -59 40 -93t114 -34z" />
    <glyph glyph-name="Oslashacute" unicode="&#x1fe;" horiz-adv-x="1681" 
d="M930 1573h-182l112 303h320zM465 55l-131 -164l-180 140l129 162q-189 205 -189 520q0 162 54 301t150.5 238t237 155.5t306.5 56.5q207 0 377 -92l131 166l182 -141l-131 -166q184 -206 184 -518q0 -217 -90.5 -386.5t-260 -265.5t-392.5 -96q-210 0 -377 90zM453 408
l438 553q139 174 174 221q-92 53 -223 53q-217 0 -343 -145.5t-126 -374.5q0 -172 80 -307zM842 195q215 0 339 145t124 375q0 171 -72 303l-428 -535q-29 -36 -61 -75.5t-68.5 -85.5t-57.5 -72q99 -55 224 -55z" />
    <glyph glyph-name="oslashacute" unicode="&#x1ff;" horiz-adv-x="1196" 
d="M688 1159h-166l103 305h290zM598 -31q-157 0 -281 82l-81 -100l-130 102l91 107q-113 144 -113 350q0 238 144.5 389.5t369.5 151.5q163 0 281 -80l86 102l125 -102l-91 -107q113 -144 113 -354q0 -241 -144.5 -391t-369.5 -150zM365 358l210 256l162 191q-58 43 -139 43
q-116 0 -185 -88t-69 -254q0 -86 21 -148zM600 172q116 0 185 85t69 249q0 86 -23 160l-206 -250q-64 -78 -168 -199q57 -45 143 -45z" />
    <glyph glyph-name="uni0218" unicode="&#x218;" horiz-adv-x="1351" 
d="M688 -31q-133 0 -243 33.5t-185 92.5t-124 134t-73 164l254 94q15 -60 43.5 -111t73 -94t111 -67.5t147.5 -24.5q145 0 218 55.5t73 147.5q0 155 -246 199l-182 31q-202 34 -311 133.5t-109 283.5q0 181 145 302.5t394 121.5q124 0 225.5 -31.5t169 -85t110.5 -115.5
t64 -132l-248 -94q-79 237 -329 237q-129 0 -193.5 -53.5t-64.5 -136.5q0 -141 202 -179l187 -32q214 -35 339.5 -143t125.5 -285q0 -94 -35.5 -174t-105 -141t-180.5 -95.5t-253 -34.5zM649 -668h-114l153 269h-143v254h260v-254z" />
    <glyph glyph-name="uni0219" unicode="&#x219;" horiz-adv-x="1050" 
d="M528 -29q-176 0 -305.5 78.5t-161.5 214.5l230 74q5 -21 13 -41t27.5 -47t45 -46.5t68 -33.5t94.5 -14q87 0 134.5 32t47.5 86q0 47 -33 79t-117 48l-137 27q-63 12 -110.5 27.5t-91 40t-71 56.5t-43.5 77.5t-16 103.5q0 142 116 230t302 88q91 0 166.5 -22t125.5 -58.5
t82.5 -78t49.5 -87.5l-211 -90q-25 67 -80 111t-143 44q-82 0 -124 -32.5t-42 -81.5q0 -46 32.5 -71t121.5 -42l133 -25q348 -72 348 -319q0 -151 -119.5 -239.5t-331.5 -88.5zM506 -668h-115l154 269h-144v254h261v-254z" />
    <glyph glyph-name="uni021A" unicode="&#x21a;" horiz-adv-x="1310" 
d="M784 0h-266v1204h-498v230h1270v-230h-506v-1204zM625 -668h-115l154 269h-144v254h260v-254z" />
    <glyph glyph-name="uni021B" unicode="&#x21b;" horiz-adv-x="862" 
d="M815 0h-303q-124 0 -191 69t-67 191v565h-221v195h221v319h250v-319h270v-195h-270v-526q0 -50 22.5 -73t71.5 -23h217v-203zM502 -668h-115l154 269h-144v254h260v-254z" />
    <glyph glyph-name="uni0226" unicode="&#x226;" horiz-adv-x="1472" 
d="M606 1827h266v-254h-266v254zM1452 0h-297l-123 354h-602l-125 -354h-287l545 1434h352zM633 928l-121 -344h440l-118 346q-12 35 -101 289q-41 -127 -100 -291z" />
    <glyph glyph-name="uni0227" unicode="&#x227;" horiz-adv-x="1148" 
d="M680 1178h-264v256h264v-256zM416 -31q-144 0 -235 80t-91 213q0 83 35.5 148.5t93 108t143.5 73.5t173.5 47.5t195.5 26.5v34q0 162 -186 162q-190 0 -242 -172l-227 60q19 124 142.5 212.5t326.5 88.5q211 0 322.5 -97t111.5 -284v-412q0 -38 11 -49.5t50 -11.5h95
v-197h-191q-91 0 -133.5 39.5t-52.5 112.5q-51 -81 -136.5 -132t-205.5 -51zM498 158q97 0 165 67t68 195v82q-86 -10 -150 -23.5t-120.5 -38t-86.5 -63.5t-30 -92q0 -60 39.5 -93.5t114.5 -33.5z" />
    <glyph glyph-name="uni0232" unicode="&#x232;" horiz-adv-x="1359" 
d="M1034 1602h-702v174h702v-174zM815 0h-266v590l-520 844h311l203 -342l145 -246q5 9 27.5 50t51 91.5t60.5 106.5l191 340h305l-508 -840v-594z" />
    <glyph glyph-name="uni0233" unicode="&#x233;" horiz-adv-x="1101" 
d="M219 1372h639v-176h-639v176zM664 584l143 436h260l-416 -1174q-45 -132 -116.5 -188.5t-202.5 -56.5h-266v206h239q56 0 85 23t52 86l31 92l-475 1012h270l187 -438q43 -101 77.5 -179.5t40.5 -93.5z" />
    <glyph glyph-name="uni0237" unicode="&#x237;" horiz-adv-x="569" 
d="M158 -399h-238v206h152q52 0 75 22.5t23 72.5v1118h248v-1159q0 -124 -67 -192t-193 -68z" />
    <glyph glyph-name="circumflex" unicode="&#x2c6;" horiz-adv-x="907" 
d="M295 1159h-225l223 260h321l222 -260h-224l-159 148z" />
    <glyph glyph-name="caron" unicode="&#x2c7;" horiz-adv-x="907" 
d="M614 1159h-321l-223 260h225l158 -147l159 147h224z" />
    <glyph glyph-name="breve" unicode="&#x2d8;" horiz-adv-x="808" 
d="M403 1133q-86 0 -151.5 24t-103.5 65.5t-57 91t-21 105.5h184q5 -51 43 -89t106 -38q69 0 108 38t44 89h184q-1 -44 -13 -84.5t-38 -78t-64 -64.5t-94.5 -43t-126.5 -16z" />
    <glyph glyph-name="dotaccent" unicode="&#x2d9;" horiz-adv-x="475" 
d="M371 1178h-267v256h267v-256z" />
    <glyph glyph-name="ring" unicode="&#x2da;" horiz-adv-x="641" 
d="M322 1128q-103 0 -177.5 69.5t-74.5 174.5q0 103 74.5 172.5t177.5 69.5q102 0 175.5 -70t73.5 -174q0 -105 -73.5 -173.5t-175.5 -68.5zM322 1264q42 0 72 30.5t30 75.5t-30 76t-72 31q-44 0 -74.5 -30.5t-30.5 -74.5q0 -47 29.5 -77.5t75.5 -30.5z" />
    <glyph glyph-name="ogonek" unicode="&#x2db;" horiz-adv-x="577" 
d="M338 -426q-123 0 -195.5 50t-72.5 145q0 40 15 76t53 76.5t114 79.5t186 73l47 -74q-231 -72 -231 -174q0 -76 119 -76q34 0 112 19v-170q-76 -25 -147 -25z" />
    <glyph glyph-name="tilde" unicode="&#x2dc;" horiz-adv-x="937" 
d="M637 1151q-86 0 -170 53l-55 33q-56 37 -95 37q-37 0 -57 -27t-20 -76h-185q0 131 68 201t182 70q82 0 170 -51l51 -33q65 -37 97 -37q73 0 79 98h181q0 -268 -246 -268z" />
    <glyph glyph-name="hungarumlaut" unicode="&#x2dd;" horiz-adv-x="862" 
d="M238 1159h-166l102 305h291zM600 1159h-166l103 305h290z" />
    <glyph glyph-name="uni0394" unicode="&#x394;" horiz-adv-x="1470" 
d="M563 1434h352l537 -1434h-1434zM633 928l-246 -699h688l-241 701q-12 35 -101 289q-41 -127 -100 -291z" />
    <glyph glyph-name="uni03A9" unicode="&#x3a9;" horiz-adv-x="1681" 
d="M745 0h-628v229h98h242q-153 76 -246.5 216t-93.5 327q0 140 51.5 265.5t143.5 220.5t228.5 150.5t297.5 55.5t297 -55.5t227.5 -150.5t142.5 -220.5t51 -265.5q0 -189 -88 -328.5t-239 -214.5h241h86v-229h-630v244q163 31 257.5 160t94.5 335q0 219 -119 358.5
t-321 139.5t-322.5 -139.5t-120.5 -358.5q0 -206 93.5 -334t256.5 -161v-244z" />
    <glyph glyph-name="uni03BC" unicode="&#x3bc;" horiz-adv-x="1210" 
d="M401 -399h-247v1419h247v-621q0 -219 179 -219q229 0 229 361v479h250v-1020h-248v168q-17 -32 -40 -61t-61 -63t-94 -54.5t-122 -20.5q-56 0 -93 15v-383z" />
    <glyph glyph-name="pi" unicode="&#x3c0;" horiz-adv-x="1347" 
d="M496 0h-250v817h-209v203h1216v-203h-209v-520q0 -50 23.5 -72t75.5 -22h119v-203h-177q-142 0 -216 59.5t-74 190.5v567h-299v-817z" />
    <glyph glyph-name="Wgrave" unicode="&#x1e80;" horiz-adv-x="2109" 
d="M1159 1573h-184l-248 303h320zM739 0h-317l-369 1434h287l149 -668q48 -222 99 -453q16 65 98 369l205 752h340l207 -785q81 -308 88 -336q14 60 104 455l154 666h280l-385 -1434h-311l-207 782q-37 139 -66.5 247t-33.5 122l-103 -367z" />
    <glyph glyph-name="wgrave" unicode="&#x1e81;" horiz-adv-x="1738" 
d="M952 1159h-168l-225 305h291zM643 0h-281l-329 1020h258l104 -375q81 -306 109 -403q46 174 100 368l117 410h295l123 -428q75 -280 96 -344q6 20 17.5 62t38 140t59.5 218l102 352h258l-334 -1020h-299l-131 463q-26 94 -52.5 186.5t-33.5 120.5q-12 -50 -86 -305z" />
    <glyph glyph-name="Wacute" unicode="&#x1e82;" horiz-adv-x="2109" 
d="M1151 1573h-182l112 303h320zM739 0h-317l-369 1434h287l149 -668q48 -222 99 -453q16 65 98 369l205 752h340l207 -785q81 -308 88 -336q14 60 104 455l154 666h280l-385 -1434h-311l-207 782q-37 139 -66.5 247t-33.5 122l-103 -367z" />
    <glyph glyph-name="wacute" unicode="&#x1e83;" horiz-adv-x="1738" 
d="M956 1159h-165l102 305h289zM643 0h-281l-329 1020h258l104 -375q81 -306 109 -403q46 174 100 368l117 410h295l123 -428q75 -280 96 -344q6 20 17.5 62t38 140t59.5 218l102 352h258l-334 -1020h-299l-131 463q-26 94 -52.5 186.5t-33.5 120.5q-12 -50 -86 -305z" />
    <glyph glyph-name="Wdieresis" unicode="&#x1e84;" horiz-adv-x="2109" 
d="M958 1573h-268v231h268v-231zM1430 1573h-267v231h267v-231zM739 0h-317l-369 1434h287l149 -668q48 -222 99 -453q16 65 98 369l205 752h340l207 -785q81 -308 88 -336q14 60 104 455l154 666h280l-385 -1434h-311l-207 782q-37 139 -66.5 247t-33.5 122l-103 -367z" />
    <glyph glyph-name="wdieresis" unicode="&#x1e85;" horiz-adv-x="1738" 
d="M776 1188h-244v231h244v-231zM1206 1188h-243v231h243v-231zM643 0h-281l-329 1020h258l104 -375q81 -306 109 -403q46 174 100 368l117 410h295l123 -428q75 -280 96 -344q6 20 17.5 62t38 140t59.5 218l102 352h258l-334 -1020h-299l-131 463q-26 94 -52.5 186.5
t-33.5 120.5q-12 -50 -86 -305z" />
    <glyph glyph-name="uni1E9E" unicode="&#x1e9e;" horiz-adv-x="1486" 
d="M905 -31q-190 0 -305 56v241q118 -59 258 -59q119 0 188.5 55.5t69.5 155.5q0 91 -70 144.5t-194 53.5h-186v236h143q107 0 170 45t63 139q0 85 -63.5 126.5t-169.5 41.5h-356v-1204h-267v1434h666q227 0 344 -96t117 -261q0 -117 -71.5 -204t-188.5 -123q65 -12 125 -41
t110.5 -73.5t80.5 -109.5t30 -141q0 -180 -133.5 -298t-360.5 -118z" />
    <glyph glyph-name="Ygrave" unicode="&#x1ef2;" horiz-adv-x="1359" 
d="M780 1573h-184l-248 303h320zM815 0h-266v590l-520 844h311l203 -342l145 -246q5 9 27.5 50t51 91.5t60.5 106.5l191 340h305l-508 -840v-594z" />
    <glyph glyph-name="ygrave" unicode="&#x1ef3;" horiz-adv-x="1101" 
d="M518 1464l103 -305h-166l-226 305h289zM664 584l143 436h260l-416 -1174q-45 -132 -116.5 -188.5t-202.5 -56.5h-266v206h239q56 0 85 23t52 86l31 92l-475 1012h270l187 -438q43 -101 77.5 -179.5t40.5 -93.5z" />
    <glyph glyph-name="uni2002" unicode="&#x2002;" horiz-adv-x="1024" 
 />
    <glyph glyph-name="uni2003" unicode="&#x2003;" horiz-adv-x="2048" 
 />
    <glyph glyph-name="uni2009" unicode="&#x2009;" horiz-adv-x="256" 
 />
    <glyph glyph-name="uni200A" unicode="&#x200a;" horiz-adv-x="153" 
 />
    <glyph glyph-name="endash" unicode="&#x2013;" horiz-adv-x="1304" 
d="M1171 541h-1036v207h1036v-207z" />
    <glyph glyph-name="emdash" unicode="&#x2014;" horiz-adv-x="1873" 
d="M1739 541h-1604v207h1604v-207z" />
    <glyph glyph-name="quoteleft" unicode="&#x2018;" horiz-adv-x="536" 
d="M289 1434h129l-172 -299h160v-285h-291v285z" />
    <glyph glyph-name="quoteright" unicode="&#x2019;" horiz-adv-x="518" 
d="M254 850h-131l174 299h-160v285h289v-285z" />
    <glyph glyph-name="quotesinglbase" unicode="&#x201a;" horiz-adv-x="555" 
d="M252 -301h-129l172 301h-160v285h289v-285z" />
    <glyph glyph-name="quotedblleft" unicode="&#x201c;" horiz-adv-x="944" 
d="M289 1434h129l-172 -299h160v-285h-291v285zM696 1434h129l-172 -299h160v-285h-291v285z" />
    <glyph glyph-name="quotedblright" unicode="&#x201d;" horiz-adv-x="925" 
d="M254 850h-131l174 299h-160v285h289v-285zM662 850h-132l175 299h-160v285h289v-285z" />
    <glyph glyph-name="quotedblbase" unicode="&#x201e;" horiz-adv-x="962" 
d="M252 -301h-129l172 301h-160v285h289v-285zM659 -301h-129l172 301h-159v285h288v-285z" />
    <glyph glyph-name="dagger" unicode="&#x2020;" horiz-adv-x="1220" 
d="M743 -207h-266v1008h-416v227h416v406h266v-406h416v-227h-416v-1008z" />
    <glyph glyph-name="daggerdbl" unicode="&#x2021;" horiz-adv-x="1292" 
d="M780 -207h-266v404h-416v229h416v375h-416v227h416v406h266v-406h416v-227h-416v-375h416v-229h-416v-404z" />
    <glyph glyph-name="bullet" unicode="&#x2022;" horiz-adv-x="1101" 
d="M551 305q-168 0 -290 122t-122 288q0 171 121.5 292t290.5 121t290.5 -121t121.5 -292q0 -166 -122 -288t-290 -122z" />
    <glyph glyph-name="ellipsis" unicode="&#x2026;" horiz-adv-x="1583" 
d="M434 0h-307v299h307v-299zM944 0h-305v299h305v-299zM1456 0h-307v299h307v-299z" />
    <glyph glyph-name="perthousand" unicode="&#x2030;" horiz-adv-x="2279" 
d="M764 1024q0 -197 -93 -312.5t-253 -115.5q-161 0 -253.5 115.5t-92.5 312.5q0 194 94 311t252 117q159 0 252.5 -117t93.5 -311zM276 0l1037 1434h229l-1034 -1434h-232zM281 1024q0 -124 36 -192t101 -68t100 67t35 193q0 121 -36 189.5t-99 68.5t-100 -68.5t-37 -189.5
zM1892 842q158 0 252 -117t94 -311q0 -197 -93 -312.5t-253 -115.5q-155 0 -245 104q-90 -104 -246 -104q-161 0 -253.5 115.5t-92.5 312.5q0 194 94 311t252 117q153 0 246 -107q93 107 245 107zM1401 154q65 0 101 67.5t36 192.5q0 121 -37 189.5t-100 68.5t-100 -68.5
t-37 -189.5q0 -124 36 -192t101 -68zM1892 154q65 0 100.5 67.5t35.5 192.5q0 120 -37 189t-99 69q-63 0 -100 -68.5t-37 -189.5q0 -125 35.5 -192.5t101.5 -67.5z" />
    <glyph glyph-name="guilsinglleft" unicode="&#x2039;" horiz-adv-x="694" 
d="M621 987l-285 -467l287 -473h-269l-280 469l282 471h265z" />
    <glyph glyph-name="guilsinglright" unicode="&#x203a;" horiz-adv-x="692" 
d="M72 987h266l283 -471l-285 -469h-262l284 465z" />
    <glyph glyph-name="fraction" unicode="&#x2044;" horiz-adv-x="395" 
d="M-207 0h-231l1036 1434h229z" />
    <glyph glyph-name="uni2070" unicode="&#x2070;" horiz-adv-x="870" 
d="M436 782q-161 0 -254.5 115.5t-93.5 312.5q0 194 94.5 311t253.5 117q158 0 252 -117t94 -311q0 -197 -93 -312.5t-253 -115.5zM436 950q65 0 100 67t35 193q0 121 -36.5 189.5t-98.5 68.5q-63 0 -100 -68.5t-37 -189.5q0 -125 35.5 -192.5t101.5 -67.5z" />
    <glyph glyph-name="uni2074" unicode="&#x2074;" horiz-adv-x="819" 
d="M631 799h-187v196h-381v148l324 477h244v-465h114v-160h-114v-196zM393 1155h51v70v194l-178 -264h127z" />
    <glyph glyph-name="uni2075" unicode="&#x2075;" horiz-adv-x="802" 
d="M399 782q-133 0 -219.5 63t-103.5 171l190 51q11 -56 44.5 -87.5t82.5 -31.5q52 0 84.5 33t32.5 88q0 54 -30.5 85.5t-80.5 31.5q-66 0 -104 -72l-193 37l72 469h516v-170h-360l-11 -64q-2 -20 -12 -112q48 61 150 61q114 0 187 -75t73 -195q0 -127 -88 -205t-230 -78z
" />
    <glyph glyph-name="uni2076" unicode="&#x2076;" horiz-adv-x="819" 
d="M424 782q-155 0 -246.5 107t-91.5 289q0 213 109.5 336.5t302.5 123.5q54 0 108 -13t80 -28v-184q-95 49 -194 49q-82 0 -139 -48t-64 -146q27 41 74.5 62.5t99.5 21.5q120 0 195 -76.5t75 -196.5q0 -132 -85.5 -214.5t-223.5 -82.5zM420 948q47 0 78.5 35.5t31.5 89.5
q0 55 -31 90t-79 35q-49 0 -80 -34.5t-31 -90.5t31 -90.5t80 -34.5z" />
    <glyph glyph-name="uni2077" unicode="&#x2077;" horiz-adv-x="731" 
d="M387 799h-213q-3 195 75.5 366.5t231.5 284.5h-125h-290v170h604v-186q-289 -212 -283 -635z" />
    <glyph glyph-name="uni2078" unicode="&#x2078;" horiz-adv-x="806" 
d="M403 782q-146 0 -230.5 65t-84.5 177q0 70 44 121.5t114 77.5q-59 24 -98 72t-39 116q0 99 80.5 163t213.5 64q132 0 213.5 -64.5t81.5 -162.5q0 -68 -37.5 -116.5t-97.5 -71.5q73 -26 114.5 -76.5t41.5 -122.5q0 -112 -85.5 -177t-230.5 -65zM403 1284q44 0 70.5 28.5
t26.5 71.5q0 40 -26.5 64.5t-70.5 24.5t-70 -24.5t-26 -64.5q0 -44 26 -72t70 -28zM403 948q51 0 80 27.5t29 73.5t-29 73t-80 27q-52 0 -80 -27t-28 -73q0 -47 28 -74t80 -27z" />
    <glyph glyph-name="uni2079" unicode="&#x2079;" horiz-adv-x="813" 
d="M326 782q-117 0 -201 37v191q107 -47 197 -47q98 0 155 57q58 54 58 151q-64 -96 -183 -96q-116 0 -191 74.5t-75 191.5q0 131 84 214t217 83q134 0 229 -92q109 -106 109 -311q0 -214 -104.5 -333.5t-294.5 -119.5zM395 1235q46 0 75.5 33t29.5 86q0 52 -29.5 84
t-75.5 32t-75 -32.5t-29 -83.5q0 -54 29 -86.5t75 -32.5z" />
    <glyph glyph-name="uni20A9" unicode="&#x20a9;" horiz-adv-x="2394" 
d="M2322 973v-164h-286l-35 -133h248v-162h-293l-137 -514h-312l-133 514h-356l-139 -514h-320l-131 514h-283v162h242l-35 133h-282v164h241l-118 461h286l99 -461h331l121 461h340l117 -461h332l104 461h281l-123 -461h241zM1198 1204q-27 -117 -57 -231h116
q-3 12 -59 231zM612 809l11 -47q12 -60 16 -86h192l7 26l28 107h-254zM1090 778l-29 -102h272l-26 104q-3 13 -9 29h-200q-1 -5 -4 -15.5t-4 -15.5zM1774 768l8 41h-254l33 -133h192q3 16 10.5 46.5t10.5 45.5zM727 260q41 167 64 254h-117q15 -82 53 -254zM1665 260l53 254
h-116z" />
    <glyph glyph-name="Euro" unicode="&#x20ac;" horiz-adv-x="1458" 
d="M815 -31q-220 0 -368.5 132t-200.5 362h-168v174h141q-6 77 0 151h-141v173h164q56 236 208 369.5t369 133.5q220 0 365 -113.5t190 -306.5l-250 -83q-17 78 -52 138t-101.5 101t-155.5 41q-113 0 -189 -71t-110 -209h225h127v-173h-374q-6 -80 0 -151h374v-174h-127
h-225q69 -268 299 -268q133 0 203.5 75t107.5 219l254 -94q-136 -426 -565 -426z" />
    <glyph glyph-name="uni20B9" unicode="&#x20b9;" horiz-adv-x="1202" 
d="M1122 1434v-193h-139h-227q43 -14 79.5 -45.5t59.5 -75.5h227v-186h-204q-19 -109 -100 -187.5t-230 -101.5q139 -15 212.5 -84.5t106.5 -208.5l80 -352h-287l-65 330q-27 130 -91.5 182.5t-205.5 52.5h-229v223h309q85 0 148 37.5t87 108.5h-544v186h540
q-56 121 -231 121h-309v193h1013z" />
    <glyph glyph-name="uni20BA" unicode="&#x20ba;" horiz-adv-x="1335" 
d="M483 0h-161v219v232l-134 -70l-63 -33v217l197 105v137l-197 -102v217l197 104v414h266v-129v-148q94 53 196 105l230 123v-217l-426 -228v-139l426 229v-219l-426 -227v-348l37 2q127 2 240 102t163 285l248 -111q-164 -520 -793 -520z" />
    <glyph glyph-name="uni20BD" unicode="&#x20bd;" horiz-adv-x="1331" 
d="M758 563h-248v-123h422v-192h-422v-248h-260v248h-150v192h150v123h-150v209h150v662h506q226 0 361.5 -122t135.5 -325q0 -191 -136 -307.5t-359 -116.5zM717 1204h-207v-432h207q125 0 194.5 59t69.5 156q0 101 -68.5 159t-195.5 58z" />
    <glyph glyph-name="uni20BF" unicode="&#x20bf;" horiz-adv-x="1400" 
d="M1319 397q0 -165 -113.5 -267.5t-298.5 -123.5v-219h-174v213h-110v-213h-174v213h-259v1434h259v206h174v-206h110v206h174v-213q178 -21 271.5 -112t93.5 -230q0 -129 -75.5 -215t-201.5 -120q142 -25 233 -121t91 -232zM1001 1034q0 170 -235 170h-309v-350h309
q111 0 173 45.5t62 134.5zM457 229h319q122 0 193 51t71 150t-71 150t-193 51h-319v-402z" />
    <glyph glyph-name="uni2113" unicode="&#x2113;" horiz-adv-x="1026" 
d="M559 -31q-165 0 -257.5 88.5t-92.5 255.5v95q-60 -8 -146 -11v191q79 3 146 12v512q0 157 97.5 254.5t258.5 97.5q196 0 300 -111.5t104 -293.5q0 -70 -17 -138.5t-56.5 -138.5t-97.5 -130.5t-145 -113t-194 -85.5v-136q0 -133 104 -133q53 0 91 46t55 132l235 -104
q-30 -131 -131.5 -210t-253.5 -79zM459 670q243 114 243 385q0 97 -37 148.5t-100 51.5q-106 0 -106 -145v-158v-282z" />
    <glyph glyph-name="uni2116" unicode="&#x2116;" horiz-adv-x="2543" 
d="M2066 592q-186 0 -300.5 123t-114.5 309q0 191 114 310.5t301 119.5q186 0 300 -120t114 -310q0 -186 -114.5 -309t-299.5 -123zM465 0h-266v1434h366l695 -983v348v635h266v-1434h-250l-811 1145v-410v-735zM2066 754q86 0 136.5 70.5t50.5 199.5q0 132 -50 201t-137 69
t-137.5 -69t-50.5 -201q0 -128 51 -199t137 -71z" />
    <glyph glyph-name="uni2117" unicode="&#x2117;" horiz-adv-x="1792" 
d="M895 -70q-166 0 -316 63t-257.5 170.5t-170.5 255.5t-63 312t63 312t170.5 255.5t257.5 170.5t316 63t316.5 -63t258.5 -170.5t172 -255.5t64 -312t-64 -312t-172 -255.5t-258.5 -170.5t-316.5 -63zM897 102q175 0 319.5 84.5t226 229t81.5 315.5q0 172 -81.5 316.5
t-226 229.5t-319.5 85q-176 0 -320.5 -85t-226.5 -229.5t-82 -316.5q0 -171 82 -315.5t227 -229t320 -84.5zM807 322h-172v839h373q117 0 199.5 -68t82.5 -184q0 -114 -80.5 -185t-203.5 -71h-199v-331zM807 1024v-240h151q74 0 114 31t40 92q0 117 -156 117h-149z" />
    <glyph glyph-name="trademark" unicode="&#x2122;" horiz-adv-x="1947" 
d="M496 657h-181v623h-247v154h680v-154h-252v-623zM1016 657h-180v777h297l84 -258q37 -121 102 -326q13 43 28 93t35.5 117.5t34.5 113.5l82 260h289v-777h-178v269v360l-199 -629h-190l-205 627v-358v-269z" />
    <glyph glyph-name="uni2126" unicode="&#x2126;" horiz-adv-x="1667" 
d="M739 0h-628v229h96h242q-153 76 -245.5 216t-92.5 327q0 140 51.5 265.5t143 220.5t228 150.5t297.5 55.5t297 -55.5t227 -150.5t142 -220.5t51 -265.5q0 -189 -87.5 -328.5t-237.5 -214.5h241h86v-229h-630v244q163 31 256.5 160t93.5 335q0 219 -119 358.5t-320 139.5
q-202 0 -322 -139.5t-120 -358.5q0 -206 93 -334t257 -161v-244z" />
    <glyph glyph-name="uni2153" unicode="&#x2153;" horiz-adv-x="1769" 
d="M473 612h-199v351v223q-78 -112 -206 -105v187q174 9 237 166h168v-822zM422 0h-232l1037 1434h229zM1384 -18q-139 0 -227.5 73t-97.5 193l201 41q16 -139 122 -139q47 0 76 24.5t29 67.5q0 92 -121 92h-55v162h55q52 0 79.5 24.5t27.5 65.5q0 37 -25 61.5t-64 24.5
q-46 0 -72 -34t-26 -93l-203 28q4 118 88 191.5t213 73.5t210 -63t81 -163q0 -61 -36 -110t-105 -76q158 -53 158 -201q0 -107 -86 -175t-222 -68z" />
    <glyph glyph-name="uni2154" unicode="&#x2154;" horiz-adv-x="1949" 
d="M700 612h-608v185q217 126 305 206t88 168q0 51 -26 81t-70 30q-54 0 -81.5 -43t-24.5 -119l-199 23q-2 137 84 223t227 86q136 0 218.5 -72.5t82.5 -189.5q0 -111 -84 -215q-76 -95 -274 -193h268h94v-170zM604 0h-229l1036 1434h227zM1569 -18q-139 0 -228 73t-98 193
l201 41q16 -139 123 -139q47 0 74.5 24t27.5 68q0 92 -119 92h-57v162h57q51 0 79 24.5t28 65.5q0 37 -25 61.5t-63 24.5q-46 0 -72.5 -34t-26.5 -93l-202 28q4 118 88 191.5t213 73.5t209 -63t80 -163q0 -61 -35.5 -110t-104.5 -76q158 -53 158 -201q0 -107 -85.5 -175
t-221.5 -68z" />
    <glyph glyph-name="uni2155" unicode="&#x2155;" horiz-adv-x="1783" 
d="M473 612h-199v351v223q-78 -112 -206 -105v187q174 9 237 166h168v-822zM422 0h-232l1037 1434h229zM1380 -18q-132 0 -218 63t-105 172l190 51q11 -56 44.5 -87t82.5 -31q52 0 84.5 32.5t32.5 85.5q0 54 -30.5 85.5t-78.5 31.5q-69 0 -106 -70l-193 35l72 471h516v-170
h-360l-11 -63q-2 -20 -12 -113q49 62 150 62q113 0 186.5 -75t73.5 -196q0 -128 -88 -206t-230 -78z" />
    <glyph glyph-name="uni2156" unicode="&#x2156;" horiz-adv-x="1957" 
d="M698 612h-606v185q217 127 305 206.5t88 167.5q0 51 -26 81t-72 30q-52 0 -79.5 -43.5t-24.5 -118.5l-199 23q-3 137 82.5 223t226.5 86q136 0 218.5 -72.5t82.5 -189.5q0 -115 -84 -215q-76 -95 -274 -193h268h94v-170zM604 0h-231l1036 1434h229zM1563 -18
q-133 0 -220 63t-104 172l191 51q11 -56 44 -87t82 -31q52 0 84.5 32.5t32.5 85.5q0 55 -30 86t-80 31q-68 0 -105 -70l-192 35l71 471h516v-170h-362l-8 -63q-1 -12 -3 -27.5t-5 -40.5t-5 -45q49 62 150 62q113 0 186.5 -75t73.5 -196q0 -128 -87.5 -206t-229.5 -78z" />
    <glyph glyph-name="uni2157" unicode="&#x2157;" horiz-adv-x="1959" 
d="M393 596q-140 0 -228 72t-97 192l200 41q13 -139 123 -139q46 0 74.5 25t28.5 69q0 43 -30.5 67.5t-90.5 24.5h-56v162h56q53 0 80.5 23.5t27.5 64.5q0 38 -25 62t-63 24q-46 0 -72 -33.5t-26 -93.5l-203 29q4 118 88 192t213 74q128 0 208.5 -62.5t80.5 -162.5
q0 -63 -35 -112.5t-104 -76.5q157 -53 157 -200q0 -107 -85.5 -174.5t-221.5 -67.5zM598 0h-229l1036 1434h227zM1559 -18q-133 0 -220 63t-104 172l190 51q11 -56 44.5 -87t82.5 -31q52 0 84.5 32.5t32.5 85.5q0 54 -31 85.5t-79 31.5q-68 0 -105 -70l-194 35l71 471h518
v-170h-362l-8 -63q-1 -12 -3 -27.5t-5 -40.5t-5 -45q49 62 150 62q113 0 185.5 -75t72.5 -196q0 -128 -87.5 -206t-227.5 -78z" />
    <glyph glyph-name="uni2158" unicode="&#x2158;" horiz-adv-x="1984" 
d="M629 612h-187v197h-381v147l324 478h244v-465h114v-160h-114v-197zM614 0h-229l1036 1434h228zM391 969h51v69v195l-178 -264h127zM1575 -18q-133 0 -220 63t-104 172l191 51q11 -56 44.5 -87t82.5 -31q52 0 84.5 32.5t32.5 85.5q0 54 -31 85.5t-80 31.5q-68 0 -105 -70
l-194 35l72 471h518v-170h-363l-10 -63q-1 -20 -12 -113q52 62 151 62q113 0 185.5 -75t72.5 -196q0 -128 -87.5 -206t-227.5 -78z" />
    <glyph glyph-name="uni2159" unicode="&#x2159;" horiz-adv-x="1792" 
d="M473 612h-199v351v223q-78 -112 -206 -105v187q174 9 237 166h168v-822zM422 0h-232l1037 1434h229zM1417 -18q-154 0 -245 107.5t-91 287.5q0 214 109 337.5t301 123.5q56 0 110 -12t78 -27v-185q-99 48 -192 48q-84 0 -140.5 -47.5t-62.5 -145.5q27 41 73.5 62.5
t98.5 21.5q120 0 196.5 -76.5t76.5 -195.5q0 -132 -87 -215.5t-225 -83.5zM1413 150q49 0 80 34t31 88q0 56 -31 90.5t-80 34.5t-79.5 -34.5t-30.5 -90.5q0 -55 30 -88.5t80 -33.5z" />
    <glyph glyph-name="uni215A" unicode="&#x215a;" horiz-adv-x="1986" 
d="M391 596q-133 0 -219.5 62.5t-103.5 170.5l190 52q11 -56 44.5 -87.5t82.5 -31.5q52 0 84.5 33t32.5 88q0 53 -31.5 84.5t-79.5 31.5q-66 0 -104 -71l-195 37l72 469h518v-170h-363l-10 -64q-2 -24 -12 -113q52 62 152 62q113 0 185.5 -74.5t72.5 -195.5q0 -127 -88 -205
t-228 -78zM604 0h-231l1036 1434h227zM1599 -18q-155 0 -246 107.5t-91 287.5q0 215 109 338t302 123q55 0 109.5 -12t79.5 -27v-185q-99 48 -195 48q-82 0 -139 -47.5t-64 -145.5q27 41 74.5 62.5t99.5 21.5q120 0 195.5 -76.5t75.5 -195.5q0 -132 -86.5 -215.5
t-223.5 -83.5zM1595 150q48 0 79.5 34t31.5 88q0 55 -31.5 90t-79.5 35q-50 0 -81 -35t-31 -90t31 -88.5t81 -33.5z" />
    <glyph glyph-name="oneeighth" unicode="&#x215b;" horiz-adv-x="1785" 
d="M473 612h-199v351v223q-78 -112 -206 -105v187q174 9 237 166h168v-822zM422 0h-232l1037 1434h229zM1393 -18q-147 0 -231.5 64.5t-84.5 178.5q0 69 44 121t114 78q-60 24 -98.5 71.5t-38.5 114.5q0 100 81 164t214 64q132 0 213.5 -64.5t81.5 -163.5q0 -67 -38 -115
t-98 -71q72 -25 114 -77t42 -122q0 -113 -85 -178t-230 -65zM1393 485q43 0 69.5 28.5t26.5 72.5q0 39 -26 63.5t-70 24.5t-70.5 -24t-26.5 -64q0 -44 26.5 -72.5t70.5 -28.5zM1393 150q52 0 80 26t28 74q0 46 -28.5 73t-79.5 27q-52 0 -80.5 -27t-28.5 -73
q0 -47 28.5 -73.5t80.5 -26.5z" />
    <glyph glyph-name="threeeighths" unicode="&#x215c;" horiz-adv-x="1959" 
d="M393 596q-140 0 -228 72t-97 192l200 41q13 -139 123 -139q46 0 74.5 25t28.5 69q0 43 -30.5 67.5t-90.5 24.5h-56v162h56q53 0 80.5 23.5t27.5 64.5q0 38 -25 62t-63 24q-46 0 -72 -33.5t-26 -93.5l-203 29q4 118 88 192t213 74q128 0 208.5 -62.5t80.5 -162.5
q0 -63 -35 -112.5t-104 -76.5q157 -53 157 -200q0 -107 -85.5 -174.5t-221.5 -67.5zM598 0h-229l1036 1434h227zM1569 -18q-146 0 -231 65t-85 178q0 68 44.5 120.5t113.5 78.5q-58 24 -96.5 71.5t-38.5 114.5q0 100 80.5 164t212.5 64q133 0 215 -64t82 -164
q0 -66 -38 -114t-97 -72q72 -25 112.5 -76.5t40.5 -122.5q0 -113 -85 -178t-230 -65zM1571 485q42 0 69 29t27 72q0 38 -26.5 63t-69.5 25q-44 0 -70 -24t-26 -64q0 -44 26.5 -72.5t69.5 -28.5zM1569 150q52 0 81 26.5t29 73.5q0 46 -29 73t-81 27q-51 0 -79 -27t-28 -73
q0 -47 28 -73.5t79 -26.5z" />
    <glyph glyph-name="fiveeighths" unicode="&#x215d;" horiz-adv-x="1968" 
d="M391 596q-133 0 -219.5 62.5t-103.5 170.5l190 52q11 -56 44.5 -87.5t82.5 -31.5q52 0 84.5 33t32.5 88q0 53 -31.5 84.5t-79.5 31.5q-66 0 -104 -71l-195 37l72 469h518v-170h-363l-10 -64q-2 -24 -12 -113q52 62 152 62q113 0 185.5 -74.5t72.5 -195.5q0 -127 -88 -205
t-228 -78zM604 0h-231l1036 1434h227zM1573 -18q-146 0 -231 65t-85 178q0 69 45 121t115 78q-60 24 -98.5 71.5t-38.5 114.5q0 100 80.5 164t212.5 64q133 0 215 -64t82 -164q0 -66 -38 -114t-97 -72q72 -25 112.5 -76.5t40.5 -122.5q0 -114 -84 -178.5t-231 -64.5z
M1575 485q43 0 69.5 28.5t26.5 72.5q0 39 -26 63.5t-70 24.5t-70 -24t-26 -64q0 -44 26.5 -72.5t69.5 -28.5zM1573 150q52 0 81 26.5t29 73.5q0 46 -29 73t-81 27q-51 0 -79 -27t-28 -73q0 -47 28 -73.5t79 -26.5z" />
    <glyph glyph-name="seveneighths" unicode="&#x215e;" horiz-adv-x="1773" 
d="M391 612h-213q-3 195 75.5 367t231.5 285h-125h-290v170h606v-187q-291 -211 -285 -635zM412 0h-230l1037 1434h227zM1382 -18q-145 0 -230 65t-85 178q0 68 44.5 120.5t113.5 78.5q-58 24 -96.5 71.5t-38.5 114.5q0 100 80 164t212 64q133 0 215 -64t82 -164
q0 -66 -38 -114t-97 -72q72 -25 113 -76.5t41 -122.5q0 -114 -84.5 -178.5t-231.5 -64.5zM1384 485q42 0 69.5 29t27.5 72q0 38 -27 63t-70 25q-44 0 -70 -24t-26 -64q0 -44 26.5 -72.5t69.5 -28.5zM1382 150q52 0 81.5 26.5t29.5 73.5q0 46 -29.5 73t-81.5 27
q-50 0 -78 -27t-28 -73q0 -47 27.5 -73.5t78.5 -26.5z" />
    <glyph glyph-name="uni215F" unicode="&#x215f;" horiz-adv-x="827" 
d="M459 612h-199v351v223q-40 -58 -96 -83t-113 -22v187q175 9 238 166h170v-822zM408 0h-232l1036 1434h228z" />
    <glyph glyph-name="arrowleft" unicode="&#x2190;" horiz-adv-x="1722" 
d="M1630 844v-258h-1085q31 -28 61 -57t73.5 -73.5t57.5 -58.5l158 -155l-182 -183l-660 656l660 657l182 -182l-156 -152q-74 -78 -194 -194h1085z" />
    <glyph glyph-name="arrowup" unicode="&#x2191;" horiz-adv-x="1409" 
d="M834 0h-259v1085q-114 -120 -190 -192l-156 -158l-182 185l658 659l657 -659l-182 -185l-154 156q-150 150 -192 194v-1085z" />
    <glyph glyph-name="arrowright" unicode="&#x2192;" horiz-adv-x="1722" 
d="M92 586v258h1086q-66 63 -193 190l-158 156l185 182l659 -657l-659 -656l-185 183l156 151q151 151 195 193h-1086z" />
    <glyph glyph-name="arrowdown" unicode="&#x2193;" horiz-adv-x="1409" 
d="M575 1434h259v-1086q125 131 190 193l156 157l182 -184l-657 -659l-658 659l182 184l152 -155l194 -195v1086z" />
    <glyph glyph-name="uni2196" unicode="&#x2196;" horiz-adv-x="1400" 
d="M588 1176l755 -752l-180 -180l-753 753v-292v-201h-258v930h929v-258h-198h-295z" />
    <glyph glyph-name="uni2197" unicode="&#x2197;" horiz-adv-x="1400" 
d="M991 997l-753 -753l-179 178l754 754h-295h-199v258h930v-930h-258v198v295z" />
    <glyph glyph-name="uni2198" unicode="&#x2198;" horiz-adv-x="1394" 
d="M809 258l-754 752l178 180l754 -754v293v201h258v-930h-930v258h199h295z" />
    <glyph glyph-name="uni2199" unicode="&#x2199;" horiz-adv-x="1396" 
d="M408 436l753 754l180 -178l-753 -754h293h200v-258h-929v930h256v-199v-295z" />
    <glyph glyph-name="uni21A4" unicode="&#x21a4;" horiz-adv-x="1847" 
d="M1370 846v440h262v-1139h-262v441h-825q31 -31 66.5 -65.5t79 -76.5t69.5 -67l135 -137l-182 -183l-660 658l660 657l182 -182l-137 -137q-144 -140 -213 -209h825z" />
    <glyph glyph-name="uni21A5" unicode="&#x21a5;" horiz-adv-x="1435" 
d="M842 1087v-825h442v-262h-1141v262h441v825q-35 -35 -104 -106t-105 -107l-135 -137l-183 185l656 657l657 -657l-182 -185l-135 140q-36 35 -105.5 105t-105.5 105z" />
    <glyph glyph-name="uni21A6" unicode="&#x21a6;" horiz-adv-x="1843" 
d="M952 1192l183 182l659 -657l-659 -658l-183 183l140 137l211 209h-826v-441h-262v1139h262v-440h826q-35 35 -106 104t-107 105z" />
    <glyph glyph-name="uni21A7" unicode="&#x21a7;" horiz-adv-x="1435" 
d="M1061 559l135 137l182 -184l-657 -657l-655 657l182 184l135 -139q41 -40 113.5 -114t95.5 -97v825h-440v263h1140v-263h-442v-825q41 40 114 114.5t97 98.5z" />
    <glyph glyph-name="uni21B0" unicode="&#x21b0;" horiz-adv-x="1767" 
d="M547 846h1085v-846h-268v588h-817q22 -21 192 -191l156 -155l-182 -183l-660 658l660 657l182 -182l-156 -154q-21 -21 -59.5 -60.5t-71 -71.5t-61.5 -60z" />
    <glyph glyph-name="uni21B1" unicode="&#x21b1;" horiz-adv-x="1765" 
d="M872 1192l183 182l659 -657l-659 -658l-183 183l154 153q151 151 195 193h-818v-588h-268v846h1086q-131 125 -193 190z" />
    <glyph glyph-name="uni21B2" unicode="&#x21b2;" horiz-adv-x="1765" 
d="M1362 846v588h266v-846h-1085q41 -38 194 -191l156 -155l-182 -183l-660 658l660 657l182 -182l-156 -154q-101 -106 -194 -192h819z" />
    <glyph glyph-name="uni21B3" unicode="&#x21b3;" horiz-adv-x="1767" 
d="M872 1192l183 182l659 -657l-659 -658l-183 183l154 153q151 151 195 193h-1086v846h268v-588h818q-131 125 -193 190z" />
    <glyph glyph-name="partialdiff" unicode="&#x2202;" horiz-adv-x="1267" 
d="M602 -31q-236 0 -378 141.5t-142 364.5q0 207 132 336t333 129q131 0 230.5 -64t140.5 -167q0 128 -36 227.5t-100 162t-149.5 94.5t-188.5 32q-135 0 -274 -56v248q122 47 303 47q326 0 511 -217t185 -583q0 -202 -66 -358.5t-196 -246.5t-305 -90zM610 190
q112 0 187 74.5t75 194.5q0 122 -77.5 199t-188.5 77q-108 0 -184 -74.5t-76 -195.5q0 -125 76.5 -200t187.5 -75z" />
    <glyph glyph-name="uni2206" unicode="&#x2206;" horiz-adv-x="1533" 
d="M594 1434h352l537 -1434h-1434zM666 928l-248 -699h690l-242 701l-102 289q-11 -38 -98 -291z" />
    <glyph glyph-name="product" unicode="&#x220f;" horiz-adv-x="1587" 
d="M72 1434h1441v-230h-196v-1411h-266v1411h-514v-1411h-267v1411h-198v230z" />
    <glyph glyph-name="summation" unicode="&#x2211;" horiz-adv-x="1261" 
d="M1186 -207h-1100v234l524 583l-526 586v238h1081v-230h-372h-371l528 -590l-534 -594h377h393v-227z" />
    <glyph glyph-name="minus" unicode="&#x2212;" horiz-adv-x="1363" 
d="M1227 612h-1090v222h1090v-222z" />
    <glyph glyph-name="uni2215" unicode="&#x2215;" horiz-adv-x="747" 
d="M219 -209h-242l551 1858h242z" />
    <glyph glyph-name="radical" unicode="&#x221a;" horiz-adv-x="1351" 
d="M799 -207h-310l-290 809h-170v227h352l158 -489l106 -330q20 69 107 332l346 1092h272z" />
    <glyph glyph-name="infinity" unicode="&#x221e;" horiz-adv-x="1757" 
d="M498 328q-168 0 -285 116t-117 279t117 279t285 116q111 0 210.5 -52.5t172.5 -156.5q147 209 381 209q169 0 284 -115.5t115 -279.5t-115 -279.5t-284 -115.5q-233 0 -383 207q-74 -102 -172.5 -154.5t-208.5 -52.5zM514 526q65 0 119 42t131 159q-70 106 -127.5 150.5
t-122.5 44.5q-80 0 -135 -57.5t-55 -141.5t55 -140.5t135 -56.5zM1243 526q80 0 135.5 56.5t55.5 140.5t-55.5 141.5t-135.5 57.5q-63 0 -120 -44t-130 -151q80 -118 133 -159.5t117 -41.5z" />
    <glyph glyph-name="integral" unicode="&#x222b;" horiz-adv-x="774" 
d="M205 -397h-166v223h119q47 0 74.5 31.5t27.5 87.5v1185q0 62 17 114.5t52.5 96t96 68.5t141.5 25h166v-224h-119q-47 0 -74.5 -31t-27.5 -87v-1186q0 -62 -17 -114.5t-52 -96t-96 -68t-142 -24.5z" />
    <glyph glyph-name="approxequal" unicode="&#x2248;" horiz-adv-x="1333" 
d="M877 748q-102 0 -220 59l-77 41q-78 37 -136 37q-99 0 -182 -107l-145 144q60 96 150 146t188 50q99 0 217 -59l73 -39q89 -41 144 -41q95 0 182 113l148 -150q-61 -94 -153 -144t-189 -50zM877 297q-102 0 -220 59l-77 41q-78 37 -136 37q-100 0 -182 -106l-145 143
q60 96 150 146.5t188 50.5q97 0 217 -60l73 -39q89 -41 144 -41q95 0 182 113l148 -149q-61 -94 -153 -144.5t-189 -50.5z" />
    <glyph glyph-name="notequal" unicode="&#x2260;" horiz-adv-x="1368" 
d="M471 178h-233l114 193h-217v219h346l72 119q15 23 80 135h-242h-256v219h629l121 205h233l-121 -205h234v-219h-365l-69 -119l-80 -135h235h279v-219h-645z" />
    <glyph glyph-name="lessequal" unicode="&#x2264;" horiz-adv-x="1392" 
d="M1237 694v-237l-1096 235v357l1096 239v-223l-481 -100q-256 -52 -463 -88q2 0 167 -30.5t296 -53.5zM1237 178h-1096v219h1096v-219z" />
    <glyph glyph-name="greaterequal" unicode="&#x2265;" horiz-adv-x="1390" 
d="M1251 696l-1095 -241v225l481 100q273 53 463 86q-2 0 -167 30.5t-296 53.5l-481 101v235l1095 -235v-355zM1251 178h-1095v219h1095v-219z" />
    <glyph glyph-name="angleleft" unicode="&#x2329;" horiz-adv-x="735" 
d="M494 1567l204 -111l-417 -831l417 -848l-206 -109l-463 948z" />
    <glyph glyph-name="angleright" unicode="&#x232a;" horiz-adv-x="735" 
d="M37 1458l207 109l463 -946l-465 -951l-205 111l418 831z" />
    <glyph glyph-name="uni2460" unicode="&#x2460;" horiz-adv-x="1765" 
d="M881 -61q-164 0 -312.5 62.5t-255.5 168t-170 252.5t-63 309q0 218 106.5 400.5t291 288.5t403.5 106q165 0 314 -62.5t256 -169t169.5 -253.5t62.5 -310q0 -162 -62.5 -309t-169.5 -252.5t-256 -168t-314 -62.5zM883 111q175 0 317.5 83t222.5 225t80 312
q0 128 -47 243.5t-129 199t-197.5 133t-246.5 49.5t-247 -49.5t-197.5 -133t-129 -199t-47.5 -243.5q0 -127 47.5 -241.5t129 -197.5t197.5 -132t247 -49zM1024 324h-199v350v221q-40 -58 -95.5 -82.5t-113.5 -21.5v186q176 12 238 166h170v-819z" />
    <glyph glyph-name="uni2461" unicode="&#x2461;" horiz-adv-x="1765" 
d="M881 -61q-164 0 -312.5 62.5t-255.5 168t-170 252.5t-63 309q0 218 106.5 400.5t291 288.5t403.5 106q165 0 314 -62.5t256 -169t169.5 -253.5t62.5 -310q0 -162 -62.5 -309t-169.5 -252.5t-256 -168t-314 -62.5zM883 111q175 0 317.5 83t222.5 225t80 312
q0 128 -47 243.5t-129 199t-197.5 133t-246.5 49.5t-247 -49.5t-197.5 -133t-129 -199t-47.5 -243.5q0 -127 47.5 -241.5t129 -197.5t197.5 -132t247 -49zM1190 324h-606v184q216 125 304.5 205.5t88.5 169.5q0 51 -26 80.5t-72 29.5q-52 0 -80 -44t-25 -120l-199 23
q-3 137 83 223t227 86q136 0 218.5 -72.5t82.5 -189.5q0 -115 -84 -215q-77 -96 -275 -190h269h94v-170z" />
    <glyph glyph-name="uni2462" unicode="&#x2462;" horiz-adv-x="1765" 
d="M881 -61q-164 0 -312.5 62.5t-255.5 168t-170 252.5t-63 309q0 218 106.5 400.5t291 288.5t403.5 106q165 0 314 -62.5t256 -169t169.5 -253.5t62.5 -310q0 -162 -62.5 -309t-169.5 -252.5t-256 -168t-314 -62.5zM883 111q175 0 317.5 83t222.5 225t80 312
q0 128 -47 243.5t-129 199t-197.5 133t-246.5 49.5t-247 -49.5t-197.5 -133t-129 -199t-47.5 -243.5q0 -127 47.5 -241.5t129 -197.5t197.5 -132t247 -49zM881 305q-141 0 -229 72t-97 194l201 39q13 -137 123 -137q47 0 74.5 24t27.5 68q0 92 -121 92h-55v162h55
q53 0 81 23.5t28 64.5q0 38 -25 63t-63 25q-46 0 -73.5 -34.5t-27.5 -94.5l-200 31q4 118 88 191t213 73q128 0 208 -62.5t80 -162.5q0 -133 -139 -188q158 -54 158 -199q0 -108 -85.5 -176t-221.5 -68z" />
    <glyph glyph-name="uni2463" unicode="&#x2463;" horiz-adv-x="1765" 
d="M881 -61q-164 0 -312.5 62.5t-255.5 168t-170 252.5t-63 309q0 218 106.5 400.5t291 288.5t403.5 106q165 0 314 -62.5t256 -169t169.5 -253.5t62.5 -310q0 -162 -62.5 -309t-169.5 -252.5t-256 -168t-314 -62.5zM883 111q175 0 317.5 83t222.5 225t80 312
q0 128 -47 243.5t-129 199t-197.5 133t-246.5 49.5t-247 -49.5t-197.5 -133t-129 -199t-47.5 -243.5q0 -127 47.5 -241.5t129 -197.5t197.5 -132t247 -49zM1075 324h-186v194h-379v150l321 475h244v-463h115v-162h-115v-194zM838 680h51v70v192l-178 -262h127z" />
    <glyph glyph-name="uni2464" unicode="&#x2464;" horiz-adv-x="1765" 
d="M881 -61q-164 0 -312.5 62.5t-255.5 168t-170 252.5t-63 309q0 218 106.5 400.5t291 288.5t403.5 106q165 0 314 -62.5t256 -169t169.5 -253.5t62.5 -310q0 -162 -62.5 -309t-169.5 -252.5t-256 -168t-314 -62.5zM883 111q175 0 317.5 83t222.5 225t80 312
q0 128 -47 243.5t-129 199t-197.5 133t-246.5 49.5t-247 -49.5t-197.5 -133t-129 -199t-47.5 -243.5q0 -127 47.5 -241.5t129 -197.5t197.5 -132t247 -49zM866 305q-133 0 -219.5 63.5t-103.5 172.5l190 51q11 -56 44.5 -87.5t82.5 -31.5q52 0 84.5 32t32.5 87
q0 53 -31.5 85t-79.5 32q-67 0 -104 -72l-195 37l72 469h518v-168h-362l-11 -66q-2 -25 -12 -110q53 59 152 59q114 0 186 -74t72 -194q0 -128 -88 -206.5t-228 -78.5z" />
    <glyph glyph-name="uni2465" unicode="&#x2465;" horiz-adv-x="1765" 
d="M881 -61q-164 0 -312.5 62.5t-255.5 168t-170 252.5t-63 309q0 218 106.5 400.5t291 288.5t403.5 106q165 0 314 -62.5t256 -169t169.5 -253.5t62.5 -310q0 -162 -62.5 -309t-169.5 -252.5t-256 -168t-314 -62.5zM883 111q175 0 317.5 83t222.5 225t80 312
q0 128 -47 243.5t-129 199t-197.5 133t-246.5 49.5t-247 -49.5t-197.5 -133t-129 -199t-47.5 -243.5q0 -127 47.5 -241.5t129 -197.5t197.5 -132t247 -49zM860 305q-154 0 -245 107.5t-91 287.5q0 213 109.5 337t300.5 124q55 0 109 -12.5t81 -26.5v-184q-99 47 -194 47
q-83 0 -139.5 -48t-63.5 -146q27 41 73.5 63.5t98.5 22.5q120 0 196 -77.5t76 -197.5q0 -131 -86.5 -214t-224.5 -83zM856 473q49 0 80 34.5t31 88.5q0 56 -31 90.5t-80 34.5t-80 -34.5t-31 -90.5q0 -55 30.5 -89t80.5 -34z" />
    <glyph glyph-name="uni2466" unicode="&#x2466;" horiz-adv-x="1765" 
d="M881 -61q-164 0 -312.5 62.5t-255.5 168t-170 252.5t-63 309q0 218 106.5 400.5t291 288.5t403.5 106q165 0 314 -62.5t256 -169t169.5 -253.5t62.5 -310q0 -162 -62.5 -309t-169.5 -252.5t-256 -168t-314 -62.5zM883 111q175 0 317.5 83t222.5 225t80 312
q0 128 -47 243.5t-129 199t-197.5 133t-246.5 49.5t-247 -49.5t-197.5 -133t-129 -199t-47.5 -243.5q0 -127 47.5 -241.5t129 -197.5t197.5 -132t247 -49zM920 324h-213q-5 195 73 366.5t232 284.5h-125h-291v168h606v-187q-292 -211 -282 -632z" />
    <glyph glyph-name="uni2467" unicode="&#x2467;" horiz-adv-x="1765" 
d="M881 -61q-164 0 -312.5 62.5t-255.5 168t-170 252.5t-63 309q0 218 106.5 400.5t291 288.5t403.5 106q165 0 314 -62.5t256 -169t169.5 -253.5t62.5 -310q0 -162 -62.5 -309t-169.5 -252.5t-256 -168t-314 -62.5zM883 111q175 0 317.5 83t222.5 225t80 312
q0 128 -47 243.5t-129 199t-197.5 133t-246.5 49.5t-247 -49.5t-197.5 -133t-129 -199t-47.5 -243.5q0 -127 47.5 -241.5t129 -197.5t197.5 -132t247 -49zM881 305q-147 0 -231.5 65t-84.5 179q0 68 44.5 120.5t113.5 78.5q-59 24 -97 71t-38 115q0 99 80.5 163t212.5 64
t214.5 -64t82.5 -163q0 -68 -38.5 -116t-97.5 -70q72 -25 113 -76.5t41 -122.5q0 -114 -85 -179t-230 -65zM883 809q42 0 69 28t27 70q0 40 -26.5 65t-69.5 25q-44 0 -70.5 -24.5t-26.5 -65.5q0 -42 27 -70t70 -28zM881 473q52 0 80 26t28 72q0 48 -28.5 75.5t-79.5 27.5
t-80 -28t-29 -75q0 -46 29 -72t80 -26z" />
    <glyph glyph-name="uni2468" unicode="&#x2468;" horiz-adv-x="1765" 
d="M881 -61q-164 0 -312.5 62.5t-255.5 168t-170 252.5t-63 309q0 218 106.5 400.5t291 288.5t403.5 106q165 0 314 -62.5t256 -169t169.5 -253.5t62.5 -310q0 -162 -62.5 -309t-169.5 -252.5t-256 -168t-314 -62.5zM883 111q175 0 317.5 83t222.5 225t80 312
q0 128 -47 243.5t-129 199t-197.5 133t-246.5 49.5t-247 -49.5t-197.5 -133t-129 -199t-47.5 -243.5q0 -127 47.5 -241.5t129 -197.5t197.5 -132t247 -49zM819 305q-119 0 -198 39v191q62 -28 103 -39t91 -11q98 0 156 58q57 57 57 153q-59 -96 -182 -96q-115 0 -190.5 74.5
t-75.5 189.5q0 131 85 214t218 83q132 0 227 -92q111 -105 111 -309q0 -215 -106 -335t-296 -120zM889 758q47 0 76.5 32.5t29.5 86.5q0 53 -29.5 85.5t-76.5 32.5q-45 0 -75 -33t-30 -85q0 -53 30 -86t75 -33z" />
    <glyph glyph-name="uni24EA" unicode="&#x24ea;" horiz-adv-x="1765" 
d="M881 -61q-164 0 -312.5 62.5t-255.5 168t-170 252.5t-63 309q0 218 106.5 400.5t291 288.5t403.5 106q165 0 314 -62.5t256 -169t169.5 -253.5t62.5 -310q0 -162 -62.5 -309t-169.5 -252.5t-256 -168t-314 -62.5zM883 111q175 0 317.5 83t222.5 225t80 312
q0 128 -47 243.5t-129 199t-197.5 133t-246.5 49.5t-247 -49.5t-197.5 -133t-129 -199t-47.5 -243.5q0 -127 47.5 -241.5t129 -197.5t197.5 -132t247 -49zM881 305q-161 0 -253.5 115.5t-92.5 312.5q0 195 94 311.5t252 116.5q159 0 253.5 -116.5t94.5 -311.5
q0 -197 -93.5 -312.5t-254.5 -115.5zM881 475q66 0 101.5 66t35.5 192q0 122 -37 191t-100 69q-62 0 -100 -69.5t-38 -190.5q0 -124 36.5 -191t101.5 -67z" />
    <glyph glyph-name="uni24FF" unicode="&#x24ff;" horiz-adv-x="1765" 
d="M881 -61q165 0 314 62.5t256 168t169.5 252.5t62.5 309q0 163 -62.5 310t-169.5 253.5t-256 169t-314 62.5q-219 0 -403.5 -106t-291 -288.5t-106.5 -400.5q0 -162 63 -309t170 -252.5t255.5 -168t312.5 -62.5zM881 305q-161 0 -253.5 115.5t-92.5 312.5q0 195 94 311.5
t252 116.5q159 0 253.5 -116.5t94.5 -311.5q0 -197 -93.5 -312.5t-254.5 -115.5zM881 475q66 0 101.5 66t35.5 192q0 122 -37 191t-100 69q-62 0 -100 -69.5t-38 -190.5q0 -124 36.5 -191t101.5 -67z" />
    <glyph glyph-name="lozenge" unicode="&#x25ca;" horiz-adv-x="1339" 
d="M836 0h-336l-434 713l438 721h334l436 -717zM786 391l195 322l-197 329l-114 193q-56 -98 -117 -197l-197 -319l199 -326q110 -188 115 -196q78 133 116 194z" />
    <glyph glyph-name="uni274C" unicode="&#x274c;" horiz-adv-x="1579" 
d="M786 555l-577 -586l-162 160l580 590l-574 586l168 165l572 -585l577 585l164 -155l-582 -592l576 -588l-170 -166z" />
    <glyph glyph-name="uni2776" unicode="&#x2776;" horiz-adv-x="1765" 
d="M881 -61q165 0 314 62.5t256 168t169.5 252.5t62.5 309q0 163 -62.5 310t-169.5 253.5t-256 169t-314 62.5q-219 0 -403.5 -106t-291 -288.5t-106.5 -400.5q0 -162 63 -309t170 -252.5t255.5 -168t312.5 -62.5zM1024 324h-199v350v221q-40 -58 -95.5 -82.5t-113.5 -21.5
v186q176 12 238 166h170v-819z" />
    <glyph glyph-name="uni2777" unicode="&#x2777;" horiz-adv-x="1765" 
d="M881 -61q165 0 314 62.5t256 168t169.5 252.5t62.5 309q0 163 -62.5 310t-169.5 253.5t-256 169t-314 62.5q-219 0 -403.5 -106t-291 -288.5t-106.5 -400.5q0 -162 63 -309t170 -252.5t255.5 -168t312.5 -62.5zM1190 324h-606v184q216 125 304.5 205.5t88.5 169.5
q0 51 -26 80.5t-72 29.5q-52 0 -80 -44t-25 -120l-199 23q-3 137 83 223t227 86q136 0 218.5 -72.5t82.5 -189.5q0 -115 -84 -215q-77 -96 -275 -190h269h94v-170z" />
    <glyph glyph-name="uni2778" unicode="&#x2778;" horiz-adv-x="1765" 
d="M881 -61q165 0 314 62.5t256 168t169.5 252.5t62.5 309q0 163 -62.5 310t-169.5 253.5t-256 169t-314 62.5q-219 0 -403.5 -106t-291 -288.5t-106.5 -400.5q0 -162 63 -309t170 -252.5t255.5 -168t312.5 -62.5zM881 305q-141 0 -229 72t-97 194l201 39q13 -137 123 -137
q47 0 74.5 24t27.5 68q0 92 -121 92h-55v162h55q53 0 81 23.5t28 64.5q0 38 -25 63t-63 25q-46 0 -73.5 -34.5t-27.5 -94.5l-200 31q4 118 88 191t213 73q128 0 208 -62.5t80 -162.5q0 -133 -139 -188q158 -54 158 -199q0 -108 -85.5 -176t-221.5 -68z" />
    <glyph glyph-name="uni2779" unicode="&#x2779;" horiz-adv-x="1765" 
d="M881 -61q165 0 314 62.5t256 168t169.5 252.5t62.5 309q0 163 -62.5 310t-169.5 253.5t-256 169t-314 62.5q-219 0 -403.5 -106t-291 -288.5t-106.5 -400.5q0 -162 63 -309t170 -252.5t255.5 -168t312.5 -62.5zM1075 324h-186v194h-379v150l321 475h244v-463h115v-162
h-115v-194zM838 680h51v70v192l-178 -262h127z" />
    <glyph glyph-name="uni277A" unicode="&#x277a;" horiz-adv-x="1765" 
d="M881 -61q165 0 314 62.5t256 168t169.5 252.5t62.5 309q0 163 -62.5 310t-169.5 253.5t-256 169t-314 62.5q-219 0 -403.5 -106t-291 -288.5t-106.5 -400.5q0 -162 63 -309t170 -252.5t255.5 -168t312.5 -62.5zM866 305q-133 0 -219.5 63.5t-103.5 172.5l190 51
q11 -56 44.5 -87.5t82.5 -31.5q52 0 84.5 32t32.5 87q0 53 -31.5 85t-79.5 32q-67 0 -104 -72l-195 37l72 469h518v-168h-362l-11 -66q-2 -25 -12 -110q53 59 152 59q114 0 186 -74t72 -194q0 -128 -88 -206.5t-228 -78.5z" />
    <glyph glyph-name="uni277B" unicode="&#x277b;" horiz-adv-x="1765" 
d="M881 -61q165 0 314 62.5t256 168t169.5 252.5t62.5 309q0 163 -62.5 310t-169.5 253.5t-256 169t-314 62.5q-219 0 -403.5 -106t-291 -288.5t-106.5 -400.5q0 -162 63 -309t170 -252.5t255.5 -168t312.5 -62.5zM860 305q-154 0 -245 107.5t-91 287.5q0 213 109.5 337
t300.5 124q55 0 109 -12.5t81 -26.5v-184q-99 47 -194 47q-83 0 -139.5 -48t-63.5 -146q27 41 73.5 63.5t98.5 22.5q120 0 196 -77.5t76 -197.5q0 -131 -86.5 -214t-224.5 -83zM856 473q49 0 80 34.5t31 88.5q0 56 -31 90.5t-80 34.5t-80 -34.5t-31 -90.5q0 -55 30.5 -89
t80.5 -34z" />
    <glyph glyph-name="uni277C" unicode="&#x277c;" horiz-adv-x="1765" 
d="M881 -61q165 0 314 62.5t256 168t169.5 252.5t62.5 309q0 163 -62.5 310t-169.5 253.5t-256 169t-314 62.5q-219 0 -403.5 -106t-291 -288.5t-106.5 -400.5q0 -162 63 -309t170 -252.5t255.5 -168t312.5 -62.5zM920 324h-213q-5 195 73 366.5t232 284.5h-125h-291v168
h606v-187q-292 -211 -282 -632z" />
    <glyph glyph-name="uni277D" unicode="&#x277d;" horiz-adv-x="1765" 
d="M881 -61q165 0 314 62.5t256 168t169.5 252.5t62.5 309q0 163 -62.5 310t-169.5 253.5t-256 169t-314 62.5q-219 0 -403.5 -106t-291 -288.5t-106.5 -400.5q0 -162 63 -309t170 -252.5t255.5 -168t312.5 -62.5zM881 305q-147 0 -231.5 65t-84.5 179q0 68 44.5 120.5
t113.5 78.5q-59 24 -97 71t-38 115q0 99 80.5 163t212.5 64t214.5 -64t82.5 -163q0 -68 -38.5 -116t-97.5 -70q72 -25 113 -76.5t41 -122.5q0 -114 -85 -179t-230 -65zM883 809q42 0 69 28t27 70q0 40 -26.5 65t-69.5 25q-44 0 -70.5 -24.5t-26.5 -65.5q0 -42 27 -70t70 -28
zM881 473q52 0 80 26t28 72q0 48 -28.5 75.5t-79.5 27.5t-80 -28t-29 -75q0 -46 29 -72t80 -26z" />
    <glyph glyph-name="uni277E" unicode="&#x277e;" horiz-adv-x="1765" 
d="M881 -61q165 0 314 62.5t256 168t169.5 252.5t62.5 309q0 163 -62.5 310t-169.5 253.5t-256 169t-314 62.5q-219 0 -403.5 -106t-291 -288.5t-106.5 -400.5q0 -162 63 -309t170 -252.5t255.5 -168t312.5 -62.5zM834 305q-120 0 -199 39v191q62 -28 103 -39t91 -11
q98 0 156 58q57 57 57 153q-62 -96 -182 -96q-116 0 -191 74.5t-75 189.5q0 131 84 214t219 83q132 0 227 -92q109 -103 109 -309q0 -216 -104.5 -335.5t-294.5 -119.5zM903 758q46 0 75.5 33t29.5 86q0 52 -29.5 85t-75.5 33t-75 -33t-29 -85q0 -54 29 -86.5t75 -32.5z" />
    <glyph glyph-name="uni300A" unicode="&#x300a;" horiz-adv-x="1228" 
d="M494 1567l204 -111l-417 -829l417 -850l-206 -109l-463 950zM1192 1456l-418 -829l420 -850l-209 -109l-463 950l465 949z" />
    <glyph glyph-name="uni300B" unicode="&#x300b;" horiz-adv-x="1226" 
d="M35 1460l207 109l463 -951l-465 -948l-205 111l418 829zM528 1460l207 109l463 -951l-465 -948l-205 111l420 829z" />
    <glyph glyph-name="uni300C" unicode="&#x300c;" horiz-adv-x="774" 
d="M397 629h-231v917h577v-196h-346v-721z" />
    <glyph glyph-name="uni300D" unicode="&#x300d;" horiz-adv-x="733" 
d="M369 608h229v-917h-578v198h349v719z" />
    <glyph glyph-name="uni300E" unicode="&#x300e;" horiz-adv-x="1089" 
d="M678 420h-508v1126h850v-489h-342v-637zM367 1364v-762h133v625h325v137h-458z" />
    <glyph glyph-name="uni300F" unicode="&#x300f;" horiz-adv-x="1067" 
d="M408 819h507v-1128h-849v489h342v639zM717 -125v760h-131v-623h-326v-137h457z" />
    <glyph glyph-name="uni3010" unicode="&#x3010;" horiz-adv-x="772" 
d="M780 -307h-608v1853h608q-199 -225 -291 -448.5t-92 -476.5q0 -252 91.5 -476t291.5 -452z" />
    <glyph glyph-name="uni3011" unicode="&#x3011;" horiz-adv-x="772" 
d="M-8 1546h608v-1853h-608q199 225 291 448.5t92 476.5q0 252 -91.5 476t-291.5 452z" />
    <glyph glyph-name="uni3014" unicode="&#x3014;" horiz-adv-x="681" 
d="M346 1083v-913l311 -348l-170 -154l-370 412v1077l372 410l162 -154z" />
    <glyph glyph-name="uni3015" unicode="&#x3015;" horiz-adv-x="681" 
d="M25 1413l170 152l370 -410v-1077l-372 -410l-162 152l303 330v917z" />
    <glyph glyph-name="plus.alt" unicode="&#xe000;" horiz-adv-x="1544" 
d="M891 0h-238v610h-587v219h587v611h238v-611h588v-219h-588v-610z" />
    <glyph glyph-name="minus.alt" unicode="&#xe001;" horiz-adv-x="1685" 
d="M1548 610h-1413v219h1413v-219z" />
    <glyph glyph-name="multiply.alt" unicode="&#xe002;" horiz-adv-x="1619" 
d="M805 555l-576 -586l-161 160l579 590l-573 586l166 165l573 -585l578 585l163 -155l-581 -592l575 -588l-170 -166z" />
    <glyph glyph-name="uniE003" unicode="&#xe003;" horiz-adv-x="1812" 
d="M1761 1319l-1038 -1350l-660 846l187 152l483 -617l848 1114z" />
    <glyph glyph-name="uniE004" unicode="&#xe004;" horiz-adv-x="1947" 
d="M1767 1151h-1585v225h1585v-225zM1767 606h-1585v225h1585v-225zM1767 61h-1585v226h1585v-226z" />
    <glyph glyph-name="uniE005" unicode="&#xe005;" horiz-adv-x="1812" 
d="M1624 0h-1434v1427h1434v-1427zM428 1212v-997h958v997h-958z" />
    <glyph glyph-name="uniE006" unicode="&#xe006;" horiz-adv-x="1812" 
d="M1655 1327l-746 -1003l-366 591l182 119l90 -143l113 -184q19 27 62 86t71 98l418 569zM1624 0h-1434v1427h928v-215h-690v-997h958v455h238v-670z" />
    <glyph glyph-name="uniE007" unicode="&#xe007;" horiz-adv-x="1812" 
d="M1624 0h-1434v1427h1434v-1427zM428 1212v-997h958v997h-958zM1059 565h-303v299h303v-299z" />
    <glyph glyph-name="uniE008" unicode="&#xe008;" horiz-adv-x="1554" 
d="M1370 850l-590 -586l-590 586l179 178l96 -102q78 -87 188 -197v967h254v-967q34 36 100 104.5t85 88.5l100 106zM1493 0h-1434v264h1434v-264z" />
    <glyph glyph-name="uniE009" unicode="&#xe009;" horiz-adv-x="1554" 
d="M1370 1028l-590 -586l-590 586l179 176l96 -102q110 -119 188 -197v967h254v-967l185 195l100 104zM1493 0h-1434v264h1434v-264z" />
    <glyph glyph-name="uniF8FF" unicode="&#xf8ff;" horiz-adv-x="1673" 
d="M1536 262q35 -117 35 -246l-82 -10q-77 67 -105 96q11 -121 17 -176l-39 -24q-119 0 -185.5 66t-95.5 212q-16 82 -20 117q-27 -83 -92 -158q-72 35 -131 144t-72 190q-32 194 -64 242q-29 39 -70 62t-118 48q-67 23 -106.5 56t-88.5 98l166 125l-59 59q-50 -12 -94 -12
q-94 0 -162 40.5t-68 104.5q0 63 33.5 100.5t95.5 37.5q123 0 195 -56q-26 56 -34.5 86t-8.5 80q0 44 31 70t88 26q65 0 99 -37t34 -104q0 -109 -47 -203l65 -67l92 67q61 -28 122.5 -80.5t107.5 -107.5t88 -116.5t65 -102t37 -70.5q287 -260 371 -557z" />
    <glyph glyph-name="G.ss03" horiz-adv-x="1587" 
d="M815 -31q-159 0 -292.5 52t-228 147t-147.5 235t-53 310q0 212 98 384.5t267 269.5t375 97q136 0 250.5 -35.5t194 -97.5t133 -137.5t83.5 -163.5l-256 -98q-109 303 -410 303q-195 0 -325.5 -139t-130.5 -381q0 -232 123 -375t319 -143q163 0 258.5 81t116.5 218h-432
v229h721q9 -121 -11.5 -232.5t-72.5 -207t-131 -166t-194.5 -110.5t-254.5 -40z" />
    <glyph glyph-name="Gbreve.ss03" horiz-adv-x="1587" 
d="M834 1544q-94 0 -167 24.5t-115 66.5t-63 91.5t-22 104.5h201q5 -49 48 -88t118 -39t117.5 39t45.5 88h205q-2 -55 -23 -104.5t-63.5 -91.5t-115 -66.5t-166.5 -24.5zM815 -31q-159 0 -292.5 52t-228 147t-147.5 235t-53 310q0 212 98 384.5t267 269.5t375 97
q136 0 250.5 -35.5t194 -97.5t133 -137.5t83.5 -163.5l-256 -98q-109 303 -410 303q-195 0 -325.5 -139t-130.5 -381q0 -232 123 -375t319 -143q163 0 258.5 81t116.5 218h-432v229h721q9 -121 -11.5 -232.5t-72.5 -207t-131 -166t-194.5 -110.5t-254.5 -40z" />
    <glyph glyph-name="Gcircumflex.ss03" horiz-adv-x="1587" 
d="M659 1573h-247l245 258h353l245 -258h-247l-174 147zM815 -31q-159 0 -292.5 52t-228 147t-147.5 235t-53 310q0 212 98 384.5t267 269.5t375 97q136 0 250.5 -35.5t194 -97.5t133 -137.5t83.5 -163.5l-256 -98q-109 303 -410 303q-195 0 -325.5 -139t-130.5 -381
q0 -232 123 -375t319 -143q163 0 258.5 81t116.5 218h-432v229h721q9 -121 -11.5 -232.5t-72.5 -207t-131 -166t-194.5 -110.5t-254.5 -40z" />
    <glyph glyph-name="uni0122.ss03" horiz-adv-x="1587" 
d="M815 -31q-159 0 -292.5 52t-228 147t-147.5 235t-53 310q0 212 98 384.5t267 269.5t375 97q136 0 250.5 -35.5t194 -97.5t133 -137.5t83.5 -163.5l-256 -98q-109 303 -410 303q-195 0 -325.5 -139t-130.5 -381q0 -232 123 -375t319 -143q163 0 258.5 81t116.5 218h-432
v229h721q9 -121 -11.5 -232.5t-72.5 -207t-131 -166t-194.5 -110.5t-254.5 -40zM811 -668h-115l154 269h-143v254h260v-254z" />
    <glyph glyph-name="Gdotaccent.ss03" horiz-adv-x="1587" 
d="M969 1573h-267v254h267v-254zM815 -31q-159 0 -292.5 52t-228 147t-147.5 235t-53 310q0 212 98 384.5t267 269.5t375 97q136 0 250.5 -35.5t194 -97.5t133 -137.5t83.5 -163.5l-256 -98q-109 303 -410 303q-195 0 -325.5 -139t-130.5 -381q0 -232 123 -375t319 -143
q163 0 258.5 81t116.5 218h-432v229h721q9 -121 -11.5 -232.5t-72.5 -207t-131 -166t-194.5 -110.5t-254.5 -40z" />
    <glyph glyph-name="a.ss01" horiz-adv-x="1245" 
d="M516 -31q-194 0 -314 148t-120 393t120 393t314 148q118 0 201.5 -52t126.5 -122v143h250v-1020h-244v143q-43 -69 -128.5 -121.5t-205.5 -52.5zM598 166q118 0 188 88t70 256t-70 256t-188 88q-116 0 -186 -82t-70 -262q0 -181 69.5 -262.5t186.5 -81.5z" />
    <glyph glyph-name="aacute.ss01" horiz-adv-x="1245" 
d="M678 1159h-166l102 305h291zM516 -31q-194 0 -314 148t-120 393t120 393t314 148q118 0 201.5 -52t126.5 -122v143h250v-1020h-244v143q-43 -69 -128.5 -121.5t-205.5 -52.5zM598 166q118 0 188 88t70 256t-70 256t-188 88q-116 0 -186 -82t-70 -262q0 -181 69.5 -262.5
t186.5 -81.5z" />
    <glyph glyph-name="abreve.ss01" horiz-adv-x="1245" 
d="M590 1133q-86 0 -151.5 24t-104 65.5t-57.5 91t-21 105.5h184q5 -50 44 -88.5t106 -38.5q69 0 107.5 38t43.5 89h185q-1 -44 -13 -84.5t-38 -78t-64 -64.5t-94.5 -43t-126.5 -16zM516 -31q-194 0 -314 148t-120 393t120 393t314 148q118 0 201.5 -52t126.5 -122v143h250
v-1020h-244v143q-43 -69 -128.5 -121.5t-205.5 -52.5zM598 166q118 0 188 88t70 256t-70 256t-188 88q-116 0 -186 -82t-70 -262q0 -181 69.5 -262.5t186.5 -81.5z" />
    <glyph glyph-name="acircumflex.ss01" horiz-adv-x="1245" 
d="M434 1159h-225l223 260h322l223 -260h-225l-160 148zM516 -31q-194 0 -314 148t-120 393t120 393t314 148q118 0 201.5 -52t126.5 -122v143h250v-1020h-244v143q-43 -69 -128.5 -121.5t-205.5 -52.5zM598 166q118 0 188 88t70 256t-70 256t-188 88q-116 0 -186 -82
t-70 -262q0 -181 69.5 -262.5t186.5 -81.5z" />
    <glyph glyph-name="adieresis.ss01" horiz-adv-x="1245" 
d="M498 1188h-244v231h244v-231zM928 1188h-242v231h242v-231zM516 -31q-194 0 -314 148t-120 393t120 393t314 148q118 0 201.5 -52t126.5 -122v143h250v-1020h-244v143q-43 -69 -128.5 -121.5t-205.5 -52.5zM598 166q118 0 188 88t70 256t-70 256t-188 88q-116 0 -186 -82
t-70 -262q0 -181 69.5 -262.5t186.5 -81.5z" />
    <glyph glyph-name="uni0227.ss01" horiz-adv-x="1245" 
d="M725 1178h-266v256h266v-256zM516 -31q-194 0 -314 148t-120 393t120 393t314 148q118 0 201.5 -52t126.5 -122v143h250v-1020h-244v143q-43 -69 -128.5 -121.5t-205.5 -52.5zM598 166q118 0 188 88t70 256t-70 256t-188 88q-116 0 -186 -82t-70 -262q0 -181 69.5 -262.5
t186.5 -81.5z" />
    <glyph glyph-name="agrave.ss01" horiz-adv-x="1245" 
d="M676 1159h-168l-225 305h290zM516 -31q-194 0 -314 148t-120 393t120 393t314 148q118 0 201.5 -52t126.5 -122v143h250v-1020h-244v143q-43 -69 -128.5 -121.5t-205.5 -52.5zM598 166q118 0 188 88t70 256t-70 256t-188 88q-116 0 -186 -82t-70 -262q0 -181 69.5 -262.5
t186.5 -81.5z" />
    <glyph glyph-name="amacron.ss01" horiz-adv-x="1245" 
d="M911 1196h-639v176h639v-176zM516 -31q-194 0 -314 148t-120 393t120 393t314 148q118 0 201.5 -52t126.5 -122v143h250v-1020h-244v143q-43 -69 -128.5 -121.5t-205.5 -52.5zM598 166q118 0 188 88t70 256t-70 256t-188 88q-116 0 -186 -82t-70 -262q0 -181 69.5 -262.5
t186.5 -81.5z" />
    <glyph glyph-name="aogonek.ss01" horiz-adv-x="1245" 
d="M1094 1020v-1020q-234 -72 -234 -174q0 -76 119 -76q37 0 115 19v-170q-79 -25 -150 -25q-123 0 -194.5 50t-71.5 145q0 138 180 231h-8v143q-43 -69 -128.5 -121.5t-205.5 -52.5q-194 0 -314 148t-120 393t120 393t314 148q118 0 201.5 -52t126.5 -122v143h250zM598 166
q118 0 188 88t70 256t-70 256t-188 88q-116 0 -186 -82t-70 -262q0 -181 69.5 -262.5t186.5 -81.5z" />
    <glyph glyph-name="aring.ss01" horiz-adv-x="1245" 
d="M594 1128q-103 0 -177.5 69.5t-74.5 174.5q0 103 74.5 172.5t177.5 69.5q102 0 176 -70t74 -174q0 -105 -74 -173.5t-176 -68.5zM594 1264q42 0 72 30.5t30 75.5t-30 76t-72 31q-44 0 -74.5 -30.5t-30.5 -74.5q0 -47 29.5 -77.5t75.5 -30.5zM516 -31q-194 0 -314 148
t-120 393t120 393t314 148q118 0 201.5 -52t126.5 -122v143h250v-1020h-244v143q-43 -69 -128.5 -121.5t-205.5 -52.5zM598 166q118 0 188 88t70 256t-70 256t-188 88q-116 0 -186 -82t-70 -262q0 -181 69.5 -262.5t186.5 -81.5z" />
    <glyph glyph-name="atilde.ss01" horiz-adv-x="1245" 
d="M762 1151q-90 0 -170 53l-55 33q-60 37 -95 37q-37 0 -58 -27t-22 -76h-182q0 132 67 201.5t183 69.5q80 0 168 -51l53 -33q65 -37 94 -37q73 0 82 98h179q0 -268 -244 -268zM516 -31q-194 0 -314 148t-120 393t120 393t314 148q118 0 201.5 -52t126.5 -122v143h250
v-1020h-244v143q-43 -69 -128.5 -121.5t-205.5 -52.5zM598 166q118 0 188 88t70 256t-70 256t-188 88q-116 0 -186 -82t-70 -262q0 -181 69.5 -262.5t186.5 -81.5z" />
    <glyph glyph-name="g.ss02" horiz-adv-x="1245" 
d="M569 -430q-224 0 -351.5 82t-164.5 229l238 78q61 -197 280 -197q133 0 206 79.5t73 207.5v131q-42 -66 -128 -115t-206 -49q-195 0 -314.5 142t-119.5 372q0 232 119.5 376.5t314.5 144.5q119 0 204 -52t130 -122v143h242v-961q0 -236 -138.5 -362.5t-384.5 -126.5z
M598 207q117 0 187.5 84t70.5 239t-70.5 240.5t-187.5 85.5q-115 0 -185.5 -80t-70.5 -246q0 -167 70 -245t186 -78z" />
    <glyph glyph-name="gbreve.ss02" horiz-adv-x="1245" 
d="M612 1133q-167 0 -249 83t-84 203h182q5 -50 44 -88.5t107 -38.5t106.5 38.5t43.5 88.5h184q-2 -56 -21 -105.5t-57.5 -91t-104 -65.5t-151.5 -24zM569 -430q-224 0 -351.5 82t-164.5 229l238 78q61 -197 280 -197q133 0 206 79.5t73 207.5v131q-42 -66 -128 -115
t-206 -49q-195 0 -314.5 142t-119.5 372q0 232 119.5 376.5t314.5 144.5q119 0 204 -52t130 -122v143h242v-961q0 -236 -138.5 -362.5t-384.5 -126.5zM598 207q117 0 187.5 84t70.5 239t-70.5 240.5t-187.5 85.5q-115 0 -185.5 -80t-70.5 -246q0 -167 70 -245t186 -78z" />
    <glyph glyph-name="gcircumflex.ss02" horiz-adv-x="1245" 
d="M455 1159h-224l222 260h321l223 -260h-225l-158 148zM569 -430q-224 0 -351.5 82t-164.5 229l238 78q61 -197 280 -197q133 0 206 79.5t73 207.5v131q-42 -66 -128 -115t-206 -49q-195 0 -314.5 142t-119.5 372q0 232 119.5 376.5t314.5 144.5q119 0 204 -52t130 -122
v143h242v-961q0 -236 -138.5 -362.5t-384.5 -126.5zM598 207q117 0 187.5 84t70.5 239t-70.5 240.5t-187.5 85.5q-115 0 -185.5 -80t-70.5 -246q0 -167 70 -245t186 -78z" />
    <glyph glyph-name="uni0123.ss02" horiz-adv-x="1245" 
d="M637 1700h115l-154 -268h143v-254h-260v254zM569 -430q-224 0 -351.5 82t-164.5 229l238 78q61 -197 280 -197q133 0 206 79.5t73 207.5v131q-42 -66 -128 -115t-206 -49q-195 0 -314.5 142t-119.5 372q0 232 119.5 376.5t314.5 144.5q119 0 204 -52t130 -122v143h242
v-961q0 -236 -138.5 -362.5t-384.5 -126.5zM598 207q117 0 187.5 84t70.5 239t-70.5 240.5t-187.5 85.5q-115 0 -185.5 -80t-70.5 -246q0 -167 70 -245t186 -78z" />
    <glyph glyph-name="gdotaccent.ss02" horiz-adv-x="1245" 
d="M745 1178h-264v256h264v-256zM569 -430q-224 0 -351.5 82t-164.5 229l238 78q61 -197 280 -197q133 0 206 79.5t73 207.5v131q-42 -66 -128 -115t-206 -49q-195 0 -314.5 142t-119.5 372q0 232 119.5 376.5t314.5 144.5q119 0 204 -52t130 -122v143h242v-961
q0 -236 -138.5 -362.5t-384.5 -126.5zM598 207q117 0 187.5 84t70.5 239t-70.5 240.5t-187.5 85.5q-115 0 -185.5 -80t-70.5 -246q0 -167 70 -245t186 -78z" />
    <glyph glyph-name="i.loclTRK" horiz-adv-x="552" 
d="M408 1180h-267v256h267v-256zM401 0h-249v1020h249v-1020z" />
    <glyph glyph-name="zero.osf" horiz-adv-x="1323" 
d="M662 -31q-155 0 -286 69t-208.5 194t-77.5 278t77.5 278t208.5 194t286 69q156 0 286.5 -69t207.5 -194t77 -278t-77 -278t-207.5 -194t-286.5 -69zM662 170q136 0 224.5 90.5t88.5 249.5q0 157 -89 248.5t-224 91.5q-134 0 -224 -92t-90 -248q0 -159 89.5 -249.5
t224.5 -90.5z" />
    <glyph glyph-name="one.osf" horiz-adv-x="825" 
d="M664 0h-248v467v238q-58 -97 -150 -167.5t-192 -80.5v262q127 18 225 93.5t152 207.5h213v-1020z" />
    <glyph glyph-name="two.osf" horiz-adv-x="1091" 
d="M989 -2h-878v244q351 146 480.5 239t129.5 199q0 78 -48.5 123t-127.5 45q-90 0 -138 -61t-51 -154l-258 35q9 170 132.5 276.5t320.5 106.5q102 0 185 -28t135 -75t80 -106.5t28 -124.5q0 -86 -33.5 -151.5t-101.5 -125.5q-67 -60 -169 -114.5t-263 -126.5q72 2 329 2
h248v-203z" />
    <glyph glyph-name="three.osf" horiz-adv-x="1179" 
d="M592 -430q-227 0 -367 120.5t-164 317.5l263 49q8 -130 75.5 -206t188.5 -76q114 0 178.5 58t64.5 161q0 101 -66.5 161t-178.5 60h-119v213h106q100 0 168 57t68 156q0 94 -62.5 150.5t-156.5 56.5q-103 0 -169 -65.5t-75 -180.5l-244 41q9 84 45.5 157t97 129.5
t149.5 89t196 32.5q211 0 340 -106t129 -265q0 -130 -70.5 -218.5t-185.5 -129.5q123 -29 205 -124t82 -228q0 -182 -133.5 -296t-364.5 -114z" />
    <glyph glyph-name="four.osf" horiz-adv-x="1259" 
d="M991 -399h-243v399h-691v199l588 821h346v-819h213v-201h-213v-399zM315 201h285h148v295v315z" />
    <glyph glyph-name="five.osf" horiz-adv-x="1165" 
d="M590 -430q-214 0 -343.5 99t-166.5 265l231 84q25 -104 93 -172.5t174 -68.5q118 0 187 71t69 199q0 119 -70.5 191.5t-185.5 72.5q-80 0 -142 -36t-98 -95l-252 47l121 793h823v-211h-641l-41 -262l-26 -164q121 129 319 129q120 0 221.5 -53t165.5 -159t64 -245
q0 -217 -140 -351t-362 -134z" />
    <glyph glyph-name="six.osf" horiz-adv-x="1245" 
d="M649 -31q-172 0 -297.5 86t-189.5 237t-64 349q0 243 79.5 428t234 290t364.5 105q181 0 303 -47v-227q-142 57 -274 57q-210 0 -343 -141t-134 -385q42 97 145 157t236 60q126 0 230 -58t166 -165t62 -242q0 -220 -143 -362t-375 -142zM643 172q113 0 190.5 79.5
t77.5 207.5q0 121 -77.5 197.5t-190.5 76.5q-115 0 -191.5 -77t-76.5 -197q0 -129 76 -208t192 -79z" />
    <glyph glyph-name="seven.osf" horiz-adv-x="1081" 
d="M516 -399h-254q0 205 44 391t124 335.5t181.5 269t226.5 212.5h-351h-452v211h1005v-262q-524 -404 -524 -1157z" />
    <glyph glyph-name="eight.osf" horiz-adv-x="1218" 
d="M610 -31q-237 0 -374.5 118t-137.5 298q0 130 75 222.5t192 129.5q-111 50 -170.5 136.5t-59.5 203.5q0 163 132 275t343 112q209 0 341 -112t132 -275q0 -117 -58.5 -203.5t-168.5 -136.5q118 -37 192 -129.5t74 -222.5q0 -180 -137.5 -298t-374.5 -118zM610 825
q103 0 169.5 60.5t66.5 161.5q0 93 -66 153t-170 60q-105 0 -170 -60t-65 -153q0 -101 65.5 -161.5t169.5 -60.5zM610 174q120 0 188 63.5t68 172.5q0 105 -69.5 172t-186.5 67q-119 0 -188.5 -67t-69.5 -172q0 -109 68.5 -172.5t189.5 -63.5z" />
    <glyph glyph-name="nine.osf" horiz-adv-x="1257" 
d="M481 -430q-181 0 -303 47v231q140 -55 275 -55q103 0 189.5 32.5t151 95.5t101 163.5t37.5 230.5q-41 -105 -143 -167t-234 -62q-195 0 -328 129.5t-133 335.5q0 216 143.5 358t372.5 142q174 0 301 -86t191.5 -237.5t64.5 -350.5q0 -370 -182.5 -588.5t-503.5 -218.5z
M614 295q114 0 189.5 74t75.5 192q0 128 -75 205.5t-190 77.5q-111 0 -186.5 -78t-75.5 -205q0 -117 76 -191.5t186 -74.5z" />
    <glyph glyph-name="zero.tf" 
d="M635 -31q-129 0 -236 49t-185 142.5t-121.5 236t-43.5 320.5t45 321t124 235.5t185.5 141.5t231.5 49t231.5 -49t185.5 -141.5t124 -235.5t45 -321q0 -179 -43 -321t-121 -235.5t-185.5 -142.5t-236.5 -49zM635 195q143 0 227 128t84 394q0 258 -85.5 390t-225.5 132
t-225.5 -132t-85.5 -390q0 -265 84 -393.5t227 -128.5z" />
    <glyph glyph-name="one.tf" 
d="M850 1434v-1205h315v-229h-995v229h428v689v200q-64 -103 -167 -175t-218 -81v268q142 20 252.5 96t169.5 208h215z" />
    <glyph glyph-name="two.tf" 
d="M1143 0h-1012v276q205 121 336.5 211t223 176.5t130.5 164.5t39 163q0 115 -66 180.5t-165 65.5q-122 0 -185 -86.5t-65 -220.5l-258 41q2 99 35 186.5t95 156.5t161.5 109.5t222.5 40.5q230 0 362.5 -123.5t132.5 -322.5q0 -209 -131 -367q-87 -103 -235 -203t-375 -219
h383h371v-229z" />
    <glyph glyph-name="three.tf" 
d="M631 -31q-232 0 -372 118t-165 323l268 55q9 -128 80 -201.5t189 -73.5q110 0 178 57t68 154q0 100 -67 158.5t-181 58.5h-119v216h119q96 0 159.5 55t63.5 149q0 93 -63 149t-158 56q-100 0 -162 -64t-70 -171l-260 41q18 180 147 297.5t345 117.5q221 0 350 -106
t129 -273q0 -131 -71.5 -219t-190.5 -125q133 -29 214 -126.5t81 -231.5q0 -185 -138.5 -299.5t-373.5 -114.5z" />
    <glyph glyph-name="four.tf" 
d="M967 0h-236v362h-651v228l534 844h353v-859h202v-213h-202v-362zM590 575h141v244v404l-414 -648h273z" />
    <glyph glyph-name="five.tf" 
d="M639 -31q-216 0 -356 102.5t-177 268.5l244 82q26 -104 98 -168t181 -64q117 0 187.5 70.5t70.5 192.5q0 119 -71 190.5t-187 71.5q-80 0 -141.5 -37t-96.5 -100l-256 49l123 807h846v-230h-662l-41 -268q-4 -27 -22 -148q114 119 313 119q201 0 330 -121t129 -335
q0 -218 -137 -350t-375 -132z" />
    <glyph glyph-name="six.tf" 
d="M666 -31q-175 0 -305 90t-196.5 246.5t-66.5 358.5q0 243 80 422t240 278.5t385 99.5q83 0 165 -15.5t130 -35.5v-244q-147 56 -287 56q-96 0 -178.5 -32t-145.5 -94t-99.5 -162t-37.5 -228q42 103 142 167t229 64q202 0 333.5 -129t131.5 -336q0 -223 -142 -364.5
t-378 -141.5zM659 190q111 0 187 75.5t76 197.5t-75.5 197t-187.5 75q-113 0 -187.5 -75t-74.5 -197t75 -197.5t187 -75.5z" />
    <glyph glyph-name="seven.tf" 
d="M621 0h-279q0 164 33.5 319.5t90.5 281.5t136 241t165 202t183 160h-329h-482v230h1004v-283q-522 -407 -522 -1151z" />
    <glyph glyph-name="eight.tf" 
d="M633 -31q-244 0 -385.5 114.5t-141.5 301.5q0 134 84.5 230t202.5 122q-114 41 -181 125t-67 215q0 166 134.5 276.5t353.5 110.5q220 0 356.5 -110.5t136.5 -276.5q0 -254 -247 -340q122 -26 202 -121t80 -231q0 -187 -141.5 -301.5t-386.5 -114.5zM637 825
q102 0 168.5 58t66.5 157q0 92 -66 150.5t-169 58.5q-105 0 -172.5 -58.5t-67.5 -150.5q0 -99 68 -157t172 -58zM633 190q121 0 190.5 62.5t69.5 167.5q0 102 -70.5 165.5t-189.5 63.5q-117 0 -187.5 -63.5t-70.5 -165.5q0 -105 70 -167.5t188 -62.5z" />
    <glyph glyph-name="nine.tf" 
d="M477 -31q-186 0 -311 49v256q150 -59 307 -59q167 0 283 98q150 128 153 414q-42 -96 -141 -154.5t-229 -58.5q-193 0 -319 124t-126 323q0 222 138.5 362.5t363.5 140.5q223 0 385 -155q182 -176 182 -539q0 -374 -179.5 -587.5t-506.5 -213.5zM608 719
q109 0 180.5 71.5t71.5 188.5q0 119 -71.5 191.5t-180.5 72.5q-106 0 -179 -73t-73 -191q0 -116 73 -188t179 -72z" />
    <glyph glyph-name="zero.subs" horiz-adv-x="870" 
d="M436 -240q-161 0 -254.5 116t-93.5 312q0 195 94.5 311.5t253.5 116.5q158 0 252 -116.5t94 -311.5q0 -196 -93.5 -312t-252.5 -116zM436 -70q65 0 100 66.5t35 191.5q0 122 -36.5 191.5t-98.5 69.5q-63 0 -100 -69.5t-37 -191.5q0 -124 35.5 -191t101.5 -67z" />
    <glyph glyph-name="one.subs" horiz-adv-x="612" 
d="M473 -221h-199v350v221q-77 -108 -206 -104v186q171 12 237 168h168v-821z" />
    <glyph glyph-name="two.subs" horiz-adv-x="796" 
d="M702 -221h-606v184q216 127 304.5 207t88.5 168q0 51 -26 81t-72 30q-52 0 -79.5 -44t-24.5 -120l-199 22q-3 137 82.5 223t226.5 86q136 0 218.5 -72t82.5 -188q0 -112 -84 -217q-78 -97 -274 -190h268h94v-170z" />
    <glyph glyph-name="three.subs" horiz-adv-x="792" 
d="M397 -240q-139 0 -227 73.5t-96 193.5l200 41q13 -140 121 -140q47 0 76 24.5t29 67.5q0 44 -30.5 68.5t-90.5 24.5h-55v161h55q52 0 79 25t27 66q0 38 -24 62t-64 24q-46 0 -72 -34t-26 -93l-203 28q4 118 88 191t213 73t210 -62.5t81 -162.5q0 -62 -35.5 -110.5
t-105.5 -75.5q158 -53 158 -201q0 -107 -86 -175.5t-222 -68.5z" />
    <glyph glyph-name="four.subs" horiz-adv-x="819" 
d="M631 -221h-187v196h-381v148l324 477h244v-465h114v-160h-114v-196zM393 135h51v70v194l-178 -264h127z" />
    <glyph glyph-name="five.subs" horiz-adv-x="802" 
d="M401 -240q-133 0 -219.5 63.5t-103.5 172.5l190 51q11 -56 44 -87.5t83 -31.5q51 0 84 33t33 86q0 54 -31 85.5t-80 31.5q-69 0 -106 -70l-193 35l72 471h518v-170h-362l-11 -63q-1 -20 -12 -113q48 61 152 61q113 0 185.5 -74.5t72.5 -195.5q0 -128 -88 -206.5
t-228 -78.5z" />
    <glyph glyph-name="six.subs" horiz-adv-x="819" 
d="M424 -240q-155 0 -246.5 108t-91.5 288q0 214 109.5 337t302.5 123q55 0 109 -11.5t79 -26.5v-185q-97 47 -194 47q-82 0 -139 -47t-64 -145q27 41 74.5 62.5t99.5 21.5q119 0 194.5 -77t75.5 -196q0 -132 -85.5 -215.5t-223.5 -83.5zM420 -72q47 0 78.5 34.5t31.5 88.5
q0 55 -31 90t-79 35q-49 0 -80 -34.5t-31 -90.5q0 -55 30.5 -89t80.5 -34z" />
    <glyph glyph-name="seven.subs" horiz-adv-x="731" 
d="M387 -221h-213q-3 195 75.5 366.5t231.5 284.5h-125h-290v170h604v-186q-289 -212 -283 -635z" />
    <glyph glyph-name="eight.subs" horiz-adv-x="806" 
d="M403 -240q-146 0 -230.5 65t-84.5 179q0 69 44 121t114 78q-60 24 -98.5 71.5t-38.5 114.5q0 100 80.5 163.5t213.5 63.5q132 0 213.5 -64t81.5 -163q0 -67 -37.5 -115t-97.5 -71q72 -25 114 -77t42 -122q0 -113 -85.5 -178.5t-230.5 -65.5zM403 264q44 0 70.5 28.5
t26.5 72.5q0 40 -26.5 64t-70.5 24t-70 -24t-26 -64q0 -44 26.5 -72.5t69.5 -28.5zM403 -72q51 0 80 27t29 74q0 46 -29 73t-80 27q-52 0 -80 -27t-28 -73q0 -48 28 -74.5t80 -26.5z" />
    <glyph glyph-name="nine.subs" horiz-adv-x="813" 
d="M326 -240q-112 0 -201 39v191q107 -47 197 -47q101 0 155 57q58 54 58 152q-62 -97 -183 -97q-116 0 -191 74.5t-75 189.5q0 132 83.5 214.5t217.5 82.5q137 0 229 -92q109 -103 109 -309q0 -216 -104.5 -335.5t-294.5 -119.5zM395 213q46 0 75.5 33t29.5 86t-29.5 86
t-75.5 33t-75 -33.5t-29 -85.5q0 -54 29 -86.5t75 -32.5z" />
    <glyph glyph-name="zero.dnom" horiz-adv-x="870" 
d="M436 -18q-161 0 -254.5 116t-93.5 312q0 195 94.5 311.5t253.5 116.5q158 0 252 -116.5t94 -311.5q0 -196 -93.5 -312t-252.5 -116zM436 152q65 0 100 66.5t35 191.5q0 122 -36.5 191t-98.5 69q-63 0 -100 -69t-37 -191q0 -124 35.5 -191t101.5 -67z" />
    <glyph glyph-name="one.dnom" horiz-adv-x="612" 
d="M473 0h-199v350v221q-77 -108 -206 -104v186q171 12 237 168h168v-821z" />
    <glyph glyph-name="two.dnom" horiz-adv-x="796" 
d="M705 0h-609v184q216 126 304.5 206.5t88.5 168.5q0 51 -26 81t-70 30q-53 0 -81 -44t-25 -120l-199 22q-2 137 84.5 223.5t226.5 86.5q136 0 218.5 -72t82.5 -188q0 -109 -84 -218q-78 -97 -274 -190h268h95v-170z" />
    <glyph glyph-name="three.dnom" horiz-adv-x="792" 
d="M397 -18q-139 0 -227 73t-96 193l200 41q13 -139 121 -139q47 0 76 24.5t29 67.5q0 92 -121 92h-55v162h55q52 0 79 24.5t27 65.5q0 37 -24.5 61.5t-63.5 24.5q-46 0 -72 -34t-26 -93l-203 28q4 118 88 191.5t213 73.5t210 -63t81 -163q0 -62 -35.5 -110.5t-105.5 -75.5
q158 -53 158 -201q0 -107 -86 -175t-222 -68z" />
    <glyph glyph-name="four.dnom" horiz-adv-x="819" 
d="M629 0h-187v197h-379v147l322 477h244v-465h114v-159h-114v-197zM391 356h51v70v195l-178 -265h127z" />
    <glyph glyph-name="five.dnom" horiz-adv-x="802" 
d="M401 -18q-133 0 -219.5 63t-103.5 172l190 51q11 -56 43.5 -87t83.5 -31q52 0 84.5 32.5t32.5 85.5q0 54 -31 85.5t-80 31.5q-69 0 -106 -70l-193 35l72 471h518v-170h-362l-11 -63q-1 -20 -12 -113q49 62 152 62q113 0 185.5 -75t72.5 -196q0 -128 -88 -206t-228 -78z
" />
    <glyph glyph-name="six.dnom" horiz-adv-x="819" 
d="M424 -18q-155 0 -246.5 107.5t-91.5 287.5q0 214 109.5 337.5t302.5 123.5q55 0 108.5 -12t79.5 -27v-185q-99 48 -194 48q-82 0 -139 -47.5t-64 -145.5q27 41 74.5 62.5t99.5 21.5q119 0 194.5 -76.5t75.5 -195.5q0 -132 -85.5 -215.5t-223.5 -83.5zM420 150q48 0 79 34
t31 88q0 55 -31 90t-79 35q-49 0 -80 -34.5t-31 -90.5q0 -55 30.5 -88.5t80.5 -33.5z" />
    <glyph glyph-name="seven.dnom" horiz-adv-x="731" 
d="M387 0h-213q-3 195 75.5 366.5t231.5 284.5h-125h-290v170h604v-186q-289 -212 -283 -635z" />
    <glyph glyph-name="eight.dnom" horiz-adv-x="806" 
d="M403 -18q-147 0 -231 64.5t-84 178.5q0 69 44 121t114 78q-60 24 -98.5 71.5t-38.5 114.5q0 100 80.5 164t213.5 64q132 0 213.5 -64.5t81.5 -163.5q0 -67 -37.5 -115t-97.5 -71q72 -25 114 -77t42 -122q0 -113 -85 -178t-231 -65zM403 485q44 0 70.5 28.5t26.5 72.5
q0 39 -26.5 63.5t-70.5 24.5t-70 -24t-26 -64q0 -44 26.5 -72.5t69.5 -28.5zM403 150q51 0 80 26.5t29 73.5q0 46 -29 73t-80 27q-52 0 -80 -27t-28 -73q0 -48 28 -74t80 -26z" />
    <glyph glyph-name="nine.dnom" horiz-adv-x="813" 
d="M326 -18q-114 0 -201 38v191q107 -47 197 -47q101 0 155 57q58 54 58 152q-62 -97 -183 -97q-116 0 -191 75t-75 190q0 132 83.5 214.5t217.5 82.5q136 0 229 -93q109 -103 109 -309q0 -216 -104.5 -335t-294.5 -119zM395 434q46 0 75.5 33t29.5 86q0 52 -29.5 85.5
t-75.5 33.5t-75 -33.5t-29 -85.5q0 -54 29 -86.5t75 -32.5z" />
    <glyph glyph-name="zero.numr" horiz-adv-x="870" 
d="M436 596q-161 0 -254.5 115.5t-93.5 312.5q0 194 94.5 311t253.5 117q158 0 252 -117t94 -311q0 -197 -93 -312.5t-253 -115.5zM436 764q65 0 100 67t35 193q0 121 -36.5 189.5t-98.5 68.5q-63 0 -100 -68.5t-37 -189.5q0 -125 35.5 -192.5t101.5 -67.5z" />
    <glyph glyph-name="one.numr" horiz-adv-x="612" 
d="M473 612h-199v351v223q-40 -58 -95 -83t-111 -22v187q171 9 237 166h168v-822z" />
    <glyph glyph-name="two.numr" horiz-adv-x="796" 
d="M705 612h-609v185q217 126 305 206t88 168q0 51 -26 81t-70 30q-54 0 -81.5 -43t-24.5 -119l-199 23q-2 137 84 223t227 86q136 0 218.5 -72.5t82.5 -189.5q0 -111 -84 -215q-76 -95 -274 -193h268h95v-170z" />
    <glyph glyph-name="three.numr" horiz-adv-x="792" 
d="M397 596q-139 0 -227 72t-96 192l200 41q13 -139 121 -139q47 0 76 25.5t29 68.5t-30.5 67.5t-90.5 24.5h-55v162h55q53 0 79.5 23.5t26.5 64.5q0 38 -24 62t-64 24q-46 0 -72 -33.5t-26 -93.5l-203 29q4 118 88 192t213 74t210 -62.5t81 -162.5q0 -63 -35.5 -112.5
t-105.5 -76.5q158 -53 158 -200q0 -107 -85.5 -174.5t-222.5 -67.5z" />
    <glyph glyph-name="four.numr" horiz-adv-x="819" 
d="M631 612h-187v197h-381v147l324 478h244v-465h114v-160h-114v-197zM393 969h51v69v195l-178 -264h127z" />
    <glyph glyph-name="five.numr" horiz-adv-x="802" 
d="M401 596q-133 0 -219.5 62.5t-103.5 170.5l190 52q11 -56 44 -87.5t83 -31.5q52 0 84.5 33t32.5 88q0 53 -31.5 84.5t-79.5 31.5q-68 0 -106 -71l-193 37l72 469h518v-170h-362l-11 -64q-2 -24 -12 -113q49 62 152 62q113 0 185.5 -74.5t72.5 -195.5q0 -127 -88 -205
t-228 -78z" />
    <glyph glyph-name="six.numr" horiz-adv-x="819" 
d="M424 596q-155 0 -246.5 107t-91.5 288q0 213 109.5 337t302.5 124q54 0 108 -13t80 -28v-184q-95 49 -194 49q-82 0 -139 -48.5t-64 -146.5q27 41 74.5 62.5t99.5 21.5q120 0 195 -76t75 -196q0 -132 -85.5 -214.5t-223.5 -82.5zM420 762q47 0 78.5 35.5t31.5 89.5
q0 55 -31 90t-79 35q-49 0 -80 -34.5t-31 -90.5t31 -90.5t80 -34.5z" />
    <glyph glyph-name="seven.numr" horiz-adv-x="731" 
d="M387 612h-213q-3 195 75.5 367t231.5 285h-125h-290v170h604v-187q-289 -212 -283 -635z" />
    <glyph glyph-name="eight.numr" horiz-adv-x="806" 
d="M403 596q-146 0 -230.5 65t-84.5 177q0 70 43.5 121t114.5 77q-59 24 -98 72.5t-39 116.5q0 99 80.5 163t213.5 64q132 0 213.5 -64.5t81.5 -162.5q0 -68 -37.5 -117t-97.5 -72q73 -26 114.5 -76.5t41.5 -121.5q0 -112 -85.5 -177t-230.5 -65zM403 1098q44 0 70.5 28.5
t26.5 71.5q0 40 -26.5 64t-70.5 24t-70 -24t-26 -64q0 -44 26 -72t70 -28zM403 762q51 0 80 27t29 73t-29 73.5t-80 27.5q-52 0 -80 -27t-28 -74q0 -46 28 -73t80 -27z" />
    <glyph glyph-name="nine.numr" horiz-adv-x="813" 
d="M326 596q-117 0 -201 37v190q107 -47 197 -47q97 0 155 58q58 54 58 151q-64 -96 -183 -96q-116 0 -191 74.5t-75 191.5q0 131 84 214t217 83q134 0 229 -92q109 -106 109 -311q0 -214 -104.5 -333.5t-294.5 -119.5zM395 1049q46 0 75.5 32.5t29.5 85.5q0 52 -29.5 84.5
t-75.5 32.5t-75 -33t-29 -84q0 -54 29 -86t75 -32z" />
    <glyph glyph-name="exclamdown.case" horiz-adv-x="616" 
d="M156 1434h307v-299h-307v299zM252 944h117l77 -575v-369h-274v371z" />
    <glyph glyph-name="questiondown.case" horiz-adv-x="1069" 
d="M406 1434h305v-299h-305v299zM442 944h236q0 -70 -12 -122.5t-40 -94t-56 -68.5t-78 -67q-35 -27 -56.5 -46.5t-45 -48t-35 -61t-11.5 -69.5q0 -83 53.5 -132t141.5 -49q208 0 217 275l250 -39q-6 -211 -129.5 -331t-341.5 -120q-212 0 -333.5 108t-121.5 271
q0 64 17 118.5t52.5 101t73.5 82t96 79.5q65 52 94 100t29 113z" />
    <glyph glyph-name="period.tf" 
d="M819 0h-368v358h368v-358z" />
    <glyph glyph-name="comma.tf" 
d="M600 -379h-162l217 379h-202v358h366v-358z" />
    <glyph glyph-name="colon.tf" 
d="M819 782h-368v361h368v-361zM819 0h-368v358h368v-358z" />
    <glyph glyph-name="semicolon.tf" 
d="M821 782h-366v361h366v-361zM602 -379h-162l217 379h-202v358h366v-358z" />
    <glyph glyph-name="numbersign.tf" 
d="M375 0h-221l28 133l49 232h-153h-27v204h223l62 295h-223v221h270l74 349h219l-27 -125q-12 -54 -47 -224h170h49l76 349h219l-26 -129l-50 -220h148h31v-221h-224l-61 -295h223v-204h-266l-78 -365h-221l29 133q14 70 51 232h-170h-49zM557 864l-61 -295h217l63 295
h-219z" />
    <glyph glyph-name="parenleft.case" horiz-adv-x="698" 
d="M637 -10v-215q-118 17 -212.5 80t-155 154.5t-100.5 211t-56.5 242.5t-16.5 256q0 134 16.5 258.5t57 246.5t100.5 214.5t154.5 155t212.5 75.5v-217q-88 -20 -151.5 -89.5t-97 -175t-48 -220t-14.5 -248.5q1 -134 15.5 -247t48 -218t96.5 -174.5t151 -89.5z" />
    <glyph glyph-name="parenright.case" horiz-adv-x="700" 
d="M63 1454v215q99 -14 181 -60t140 -116.5t101 -157.5t68 -190t37 -206.5t12 -213.5q0 -134 -16.5 -258.5t-56.5 -246.5t-100 -214.5t-154 -155t-212 -75.5v217q88 20 151.5 89.5t97 175t48.5 220t15 248.5q-1 105 -9.5 197.5t-30.5 185t-56 161t-89.5 118.5t-126.5 67z
" />
    <glyph glyph-name="braceleft.case" horiz-adv-x="755" 
d="M688 -205h-147q-155 0 -220 76.5t-65 232.5v302q0 119 -41.5 164.5t-146.5 45.5v207q106 0 147 41t41 156v319q0 157 64.5 233.5t220.5 76.5h147v-191h-74q-66 0 -96.5 -31.5t-30.5 -109.5v-307q0 -57 -13.5 -102t-33 -73.5t-52.5 -51.5t-62.5 -35.5t-71.5 -26.5
q54 -18 89 -36t71.5 -50t54.5 -83t18 -122v-301q0 -79 30 -111t97 -32h74v-191z" />
    <glyph glyph-name="braceright.case" horiz-adv-x="755" 
d="M68 1649h147q156 0 220.5 -76.5t64.5 -233.5v-301q0 -118 42 -163.5t148 -45.5v-206q-108 0 -149 -41.5t-41 -157.5v-318q0 -157 -64.5 -234t-220.5 -77h-147v193h73q67 0 98 31.5t31 107.5v309q0 56 13.5 101t33 73t53 51.5t62 36t70.5 27.5q-54 19 -88 36t-71 49
t-55 82.5t-18 121.5v303q0 79 -31 110t-98 31h-73v191z" />
    <glyph glyph-name="bracketleft.case" horiz-adv-x="745" 
d="M682 -205h-492v1854h492v-197h-262v-1460h262v-197z" />
    <glyph glyph-name="bracketright.case" horiz-adv-x="745" 
d="M61 1649h494v-1854h-494v197h265v1460h-265v197z" />
    <glyph glyph-name="angleleft.case" horiz-adv-x="757" 
d="M715 1559l-418 -832l420 -848l-209 -108l-463 948l465 950z" />
    <glyph glyph-name="angleright.case" horiz-adv-x="759" 
d="M43 1561l207 108l465 -946l-467 -950l-205 110l420 830z" />
    <glyph glyph-name="uni3010.case" horiz-adv-x="796" 
d="M799 -205h-609v1854h609q-199 -225 -291 -449t-92 -477q0 -252 91.5 -476t291.5 -452z" />
    <glyph glyph-name="uni3011.case" horiz-adv-x="796" 
d="M-2 1649h608v-1854h-608q199 225 291 449t92 477q0 252 -91.5 476t-291.5 452z" />
    <glyph glyph-name="uni300C.case" horiz-adv-x="765" 
d="M385 731h-229v918h577v-197h-348v-721z" />
    <glyph glyph-name="uni300D.case" horiz-adv-x="763" 
d="M383 713h229v-918h-577v199h348v719z" />
    <glyph glyph-name="uni300A.case" horiz-adv-x="1251" 
d="M510 1669l205 -110l-418 -830l420 -850l-209 -108l-463 950zM1208 1559l-417 -830l419 -850l-209 -108l-462 950l465 948z" />
    <glyph glyph-name="uni300B.case" horiz-adv-x="1253" 
d="M43 1563l207 108l465 -948l-467 -950l-203 110l418 830zM537 1563l206 108l465 -948l-467 -950l-202 110l417 832z" />
    <glyph glyph-name="uni3014.case" horiz-adv-x="700" 
d="M354 1186v-914l312 -348l-170 -153l-371 411v1078l373 409l161 -153z" />
    <glyph glyph-name="uni3015.case" horiz-adv-x="698" 
d="M33 1518l170 151l368 -409v-1078l-370 -409l-162 151l303 330v917z" />
    <glyph glyph-name="uni300E.case" horiz-adv-x="1095" 
d="M680 522h-508v1127h850v-490h-342v-637zM369 1466v-761h133v624h325v137h-458z" />
    <glyph glyph-name="uni300F.case" horiz-adv-x="1097" 
d="M416 922h508v-1127h-850v490h342v637zM727 -23v762h-133v-624h-326v-138h459z" />
    <glyph glyph-name="hyphen.case" horiz-adv-x="946" 
d="M809 629h-672v237h672v-237z" />
    <glyph glyph-name="uni00AD.case" horiz-adv-x="946" 
d="M809 629h-672v237h672v-237z" />
    <glyph glyph-name="endash.case" horiz-adv-x="1320" 
d="M1180 643h-1039v207h1039v-207z" />
    <glyph glyph-name="emdash.case" horiz-adv-x="1888" 
d="M1747 643h-1606v209h1606v-209z" />
    <glyph glyph-name="guillemotleft.case" horiz-adv-x="1222" 
d="M369 1178h264l-287 -467l287 -473h-266l-283 471zM1104 1178l-285 -467l287 -473h-266l-283 471l283 469h264z" />
    <glyph glyph-name="guillemotright.case" horiz-adv-x="1222" 
d="M117 1178h266l283 -471l-285 -469h-264l286 467zM588 1178h268l281 -471l-283 -469h-264l284 467z" />
    <glyph glyph-name="guilsinglleft.case" horiz-adv-x="749" 
d="M369 1178h264l-287 -467l287 -473h-266l-283 471z" />
    <glyph glyph-name="guilsinglright.case" horiz-adv-x="749" 
d="M117 1178h266l283 -471l-285 -469h-262l284 467z" />
    <glyph glyph-name="space.tf" 
 />
    <glyph glyph-name="uni20BF.tf" 
d="M1251 397q0 -166 -112.5 -268t-296.5 -123v-219h-176v213h-109v-213h-174v213h-260v1434h260v206h174v-206h109v206h176v-213q178 -21 270 -111.5t92 -230.5q0 -129 -75 -215t-201 -120q143 -25 233 -120.5t90 -232.5zM936 1034q0 170 -236 170h-311v-350h311
q110 0 173 45.5t63 134.5zM389 229h322q122 0 193 51t71 150t-71 150t-193 51h-322v-402z" />
    <glyph glyph-name="cent.tf" 
d="M733 -244h-162v219q-193 31 -310.5 177t-117.5 366q0 216 119 362t309 177v221h162v-217q144 -17 248 -97.5t152 -199.5l-230 -88q-55 140 -170 172v-383v-281q130 32 182 199l236 -84q-50 -136 -159 -223t-259 -105v-215zM571 193v366v283q-78 -29 -123 -110t-45 -214
q0 -134 44.5 -215t123.5 -110z" />
    <glyph glyph-name="currency.tf" 
d="M406 322l-164 -164l-170 168l161 159q-63 102 -63 236q0 124 63 237l-161 162l170 166l164 -164q108 60 231 60q125 0 227 -60l166 164l168 -166l-160 -162q66 -107 66 -237q0 -125 -66 -238l160 -157l-168 -168l-164 166q-106 -64 -229 -64t-231 62zM637 477
q102 0 167.5 70t65.5 174t-65.5 174t-167.5 70t-168 -70t-66 -174t66 -174t168 -70z" />
    <glyph glyph-name="dollar.tf" 
d="M731 -207h-176v180q-196 24 -319.5 137.5t-167.5 278.5l229 92q25 -104 89.5 -182t168.5 -104v430l-43 8q-87 17 -153 47t-117.5 78.5t-78 121.5t-26.5 167q0 160 112 276t306 137v180h176v-180q93 -13 169.5 -48.5t128 -86t85 -106t51.5 -115.5l-219 -92
q-59 184 -215 225v-397l55 -13q84 -20 151.5 -52.5t124.5 -82t88.5 -122.5t31.5 -164q0 -175 -116 -294.5t-335 -140.5v-178zM555 874v130v239q-85 -17 -129.5 -66.5t-44.5 -115.5q0 -76 42.5 -119.5t131.5 -67.5zM731 188q99 17 150 70.5t51 132.5q0 76 -51.5 126.5
t-149.5 72.5v-164v-238z" />
    <glyph glyph-name="Euro.tf" 
d="M715 -31q-195 0 -326.5 131.5t-173.5 362.5h-149v174h124q-6 77 0 151h-124v173h145q48 236 181 369.5t327 133.5t321 -114t166 -308l-237 -61q-10 50 -29 93.5t-49.5 82t-76.5 60.5t-103 22q-93 0 -156.5 -71t-89.5 -207h190h105v-173h-314q-7 -75 0 -151h314v-174h-105
h-188q24 -131 87.5 -198.5t156.5 -67.5q110 0 169.5 72t90.5 204l241 -78q-119 -426 -497 -426z" />
    <glyph glyph-name="liraturkish.tf" 
d="M461 0h-158v219v232q-12 -6 -58 -31.5t-69 -38.5l-63 -33v217l190 105v137l-190 -102v217l190 104v414h258v-129v-148q130 73 191 105l221 123v-217l-412 -228v-139l412 229v-219l-412 -227v-348l35 2q79 1 153.5 42t139.5 130.5t98 214.5l240 -111q-160 -520 -766 -520z
" />
    <glyph glyph-name="uni20BD.tf" 
d="M725 563h-240v-123h408v-192h-408v-248h-252v248h-143v192h143v123h-143v209h143v662h492q217 0 348 -122.5t131 -324.5q0 -191 -131.5 -307.5t-347.5 -116.5zM686 1204h-201v-432h201q121 0 188.5 59t67.5 156q0 101 -66.5 159t-189.5 58z" />
    <glyph glyph-name="uni20B9.tf" 
d="M1157 1434v-193h-141h-225q43 -14 79.5 -45.5t59.5 -75.5h227v-186h-205q-19 -109 -99.5 -187.5t-229.5 -101.5q137 -15 210.5 -84.5t106.5 -208.5l82 -352h-287l-67 330q-27 130 -91 182.5t-204 52.5h-232v223h312q85 0 147 37.5t86 108.5h-545v186h541
q-53 121 -229 121h-312v193h1016z" />
    <glyph glyph-name="sterling.tf" 
d="M719 229h428v-229h-1000v231q26 7 49 15.5t65 30.5t71 47.5t51.5 67t22.5 89.5q0 66 -31 133h-223v172h110q-76 122 -76 240q0 103 40 188t108 138.5t154 82.5t180 29q79 0 155 -24t143 -71t114 -126t61 -180l-256 -59q-18 122 -81.5 179.5t-148.5 57.5
q-92 0 -150.5 -56.5t-58.5 -156.5q0 -64 23.5 -119.5t67.5 -122.5h329v-172h-243q10 -48 10 -94q0 -190 -174 -291h260z" />
    <glyph glyph-name="uni20A9.tf" 
d="M1221 963v-170h-154l-14 -146h168v-170h-187l-51 -477h-278l-29 299q-32 338 -41 418l-47 -418l-33 -299h-283l-45 477h-178v170h162l-14 146h-148v170h131l-45 471h221l21 -342q6 -118 22 -413.5t23 -430.5q14 130 55 477l39 303h240l35 -303q11 -121 49 -477
q7 128 26 419t27 423l22 344h222l-52 -471h136z" />
    <glyph glyph-name="yen.tf" 
d="M977 1434h305l-401 -621h258v-170h-367v-154h367v-172h-367v-317h-266v317h-373v172h373v154h-373v170h262l-409 621h311l199 -330l147 -250q22 40 141 254z" />
    <glyph glyph-name="multiply.case.tf" 
d="M633 565l-357 -354l-147 147l356 357l-358 356l152 152l356 -359l356 357l148 -148l-355 -356l357 -357l-152 -151z" />
    <glyph glyph-name="plus.tf" 
d="M745 178h-221v434h-434v222h434v434h221v-434h435v-222h-435v-434z" />
    <glyph glyph-name="minus.tf" 
d="M1124 612h-979v222h979v-222z" />
    <glyph glyph-name="multiply.tf" 
d="M633 565l-357 -354l-147 147l356 357l-358 356l152 152l356 -359l356 357l148 -148l-355 -356l357 -357l-152 -151z" />
    <glyph glyph-name="divide.tf" 
d="M772 995h-274v273h274v-273zM1124 612h-979v222h979v-222zM772 178h-274v275h274v-275z" />
    <glyph glyph-name="equal.tf" 
d="M1128 844h-987v219h987v-219zM1128 371h-987v219h987v-219z" />
    <glyph glyph-name="notequal.tf" 
d="M442 178h-211l103 193h-195v219h312l65 119q39 69 70 135h-217h-230v219h566l110 205h209l-109 -205h211v-219h-329l-62 -119q-18 -38 -73 -135h212h252v-219h-581z" />
    <glyph glyph-name="greater.tf" 
d="M1155 543l-985 -396v242l455 182q80 29 370 142q-231 89 -370 141l-455 182v248l985 -393v-348z" />
    <glyph glyph-name="less.tf" 
d="M115 891l985 393v-242l-457 -180q-79 -30 -203 -78t-168 -65q60 -22 184 -69.5t187 -71.5l457 -181v-250l-985 396v348z" />
    <glyph glyph-name="greaterequal.tf" 
d="M1137 696l-987 -241v225l432 100q291 62 417 86q-21 4 -160.5 32.5t-256.5 51.5l-432 101v235l987 -235v-355zM1137 178h-987v219h987v-219z" />
    <glyph glyph-name="lessequal.tf" 
d="M1120 694v-237l-985 235v357l985 239v-223l-432 -100q-248 -55 -416 -88q327 -67 416 -84zM1120 178h-985v219h985v-219z" />
    <glyph glyph-name="plusminus.tf" 
d="M739 510h-198v266h-391v207h391v285h198v-285h391v-207h-391v-266zM1122 178h-987v219h987v-219z" />
    <glyph glyph-name="approxequal.tf" 
d="M846 748q-103 0 -221 59l-78 41q-78 37 -135 37q-96 0 -183 -107l-145 144q60 96 150 146t188 50q99 0 217 -59l76 -39q86 -41 141 -41q95 0 182 113l148 -150q-61 -94 -152.5 -144t-187.5 -50zM846 297q-103 0 -221 59l-78 41q-78 37 -135 37q-97 0 -183 -106l-145 143
q60 96 150 146.5t188 50.5q97 0 217 -60l76 -39q86 -41 141 -41q95 0 182 113l148 -149q-61 -94 -152.5 -144.5t-187.5 -50.5z" />
    <glyph glyph-name="logicalnot.tf" 
d="M1110 319h-199v302h-778v219h977v-521z" />
    <glyph glyph-name="percent.tf" 
d="M315 791q-129 0 -207.5 92.5t-78.5 246.5q0 150 76.5 242t209.5 92q132 0 207.5 -93t75.5 -241q0 -153 -75 -246t-208 -93zM348 0h-186l762 1434h184zM313 936q109 0 109 194q0 92 -28.5 140.5t-78.5 48.5q-49 0 -79.5 -49t-30.5 -140q0 -194 108 -194zM963 -31
q-131 0 -210 93t-79 247q0 150 77.5 242t211.5 92q131 0 205.5 -93t74.5 -241q0 -154 -74.5 -247t-205.5 -93zM961 115q106 0 106 194q0 92 -28 140.5t-76 48.5q-51 0 -82 -49t-31 -140q0 -194 111 -194z" />
    <glyph glyph-name="perthousand.tf" 
d="M250 791q-113 0 -176.5 91.5t-63.5 247.5q0 153 61.5 243.5t178.5 90.5q114 0 173.5 -91.5t59.5 -242.5q0 -156 -59 -247.5t-174 -91.5zM35 0l774 1434h158l-772 -1434h-160zM250 1319q-74 0 -74 -189q0 -102 15.5 -148t56.5 -46q38 0 53.5 46.5t15.5 147.5
q0 96 -15.5 142.5t-51.5 46.5zM1042 643q105 0 161.5 -92t56.5 -242q0 -155 -56 -247.5t-162 -92.5q-92 0 -151 78q-56 -78 -148 -78q-102 0 -162.5 93t-60.5 247q0 151 59 242.5t164 91.5q96 0 148 -68q55 68 151 68zM750 115q40 0 54.5 46t14.5 148q0 98 -15 143.5
t-52 45.5t-53.5 -46.5t-16.5 -142.5q0 -101 15 -147.5t53 -46.5zM1030 115q41 0 55.5 45.5t14.5 148.5q0 98 -15 143.5t-53 45.5q-39 0 -55 -46t-16 -143q0 -102 14.5 -148t54.5 -46z" />
    <glyph glyph-name="at.case" horiz-adv-x="1898" 
d="M989 -152q-271 0 -473.5 100.5t-314 295.5t-111.5 463q0 199 71 363.5t192.5 272t282 166t341.5 58.5q244 0 440.5 -95t311 -272t114.5 -405q0 -120 -35 -222t-93.5 -169.5t-136 -105.5t-161.5 -38q-101 0 -164 44.5t-84 117.5q-41 -76 -112 -120t-162 -44
q-155 0 -248.5 129t-93.5 318q0 182 94.5 306t245.5 124q171 0 264 -136v111h205v-592q0 -32 20 -50.5t54 -18.5q75 0 125.5 92.5t50.5 253.5q0 262 -173 418.5t-462 156.5q-141 0 -260.5 -43.5t-207.5 -126t-137.5 -208.5t-49.5 -283q0 -319 176.5 -491.5t490.5 -172.5
q291 0 516 121l88 -184q-262 -134 -604 -134zM958 446q90 0 141.5 77t51.5 196q0 109 -49.5 176.5t-138.5 67.5t-138 -69t-49 -181q0 -119 48 -193t134 -74z" />
    <glyph glyph-name="registered.case" horiz-adv-x="1792" 
d="M895 -70q-166 0 -316 63t-257.5 170.5t-170.5 255.5t-63 312t63 312t170.5 255.5t257.5 170.5t316 63t316.5 -63t258.5 -170.5t172 -255.5t64 -312t-64 -312t-172 -255.5t-258.5 -170.5t-316.5 -63zM897 102q175 0 319.5 84.5t226 229t81.5 315.5q0 172 -81.5 316.5
t-226 229.5t-319.5 85q-176 0 -320.5 -85t-226.5 -229.5t-82 -316.5q0 -171 82 -315.5t227 -229t320 -84.5zM748 322h-173v839h400q124 0 201 -60t77 -167q0 -89 -55.5 -145t-150.5 -76q71 -14 108 -63t55 -140l35 -188h-182l-31 190q-13 86 -52 121t-118 35h-114v-346z
M748 1026v-227h184q145 0 145 114q0 113 -147 113h-182z" />
    <glyph glyph-name="section.tf" 
d="M635 -426q-195 0 -310.5 98.5t-140.5 249.5l232 76q45 -201 219 -201q88 0 134 43t46 107q0 60 -30.5 96.5t-106.5 62.5l-311 107q-265 91 -265 322q0 99 57 181t142 124q-90 87 -90 250q0 157 112 265.5t306 108.5q98 0 178 -27.5t133.5 -76t86.5 -109.5t46 -133
l-233 -76q-43 199 -211 199q-83 0 -127.5 -44t-44.5 -107q0 -61 30.5 -97t108.5 -63l311 -107q133 -47 198.5 -124t65.5 -195q0 -99 -57.5 -183t-142.5 -126q90 -90 90 -246q0 -102 -48 -186t-146.5 -136.5t-231.5 -52.5zM811 299q49 27 79 73t30 101q0 99 -125 143l-215 76
q-35 12 -119 45q-49 -29 -79 -75t-30 -101q0 -96 127 -141l215 -74q60 -19 117 -47z" />
    <glyph glyph-name="degree.tf" 
d="M633 872q-163 0 -267 105t-104 260q0 156 105.5 261.5t267.5 105.5q163 0 268 -105t105 -262q0 -158 -105 -261.5t-270 -103.5zM635 1061q72 0 118 49.5t46 128.5q0 76 -46 125t-118 49q-71 0 -117.5 -49t-46.5 -125q0 -81 46 -129.5t118 -48.5z" />
    </font>
</defs>
</svg>
