<?xml version="1.0" standalone="no"?>
<!DOCTYPE svg PUBLIC "-//W3C//DTD SVG 1.1//EN" "http://www.w3.org/Graphics/SVG/1.1/DTD/svg11.dtd" >
<svg xmlns="http://www.w3.org/2000/svg" xmlns:xlink="http://www.w3.org/1999/xlink" version="1.1">
<metadata>
Created by FontForge 20170731 at Wed Dec 29 09:47:07 2021
 By Aleksey,,,
Copyright 2021 Dinamo (Johannes Breyer, Fabian Harb) &#38; Erkin Karamemet. All rights reserved.
</metadata>
<defs>
<font id="ABCWhyte-Book" horiz-adv-x="1269" >
  <font-face 
    font-family="ABC Whyte Book"
    font-weight="350"
    font-stretch="normal"
    units-per-em="2048"
    panose-1="2 11 0 4 4 2 2 6 2 3"
    ascent="1649"
    descent="-399"
    x-height="1014"
    cap-height="1434"
    bbox="-414 -631 2367 2032"
    underline-thickness="102"
    underline-position="-307"
    unicode-range="U+0020-FB02"
  />
<missing-glyph horiz-adv-x="1431" 
d="M1221 0h-1010v1436h1010v-1436zM367 1288v-1141h700v1141h-700z" />
    <glyph glyph-name="fi" unicode="fi" horiz-adv-x="1259" 
d="M1090 1014v-1014h-177v868h-473v-868h-172v868h-229v146h229v151q0 269 260 269h217v-150h-188q-61 0 -89 -28.5t-28 -88.5v-153h650zM907 1210v224h185v-224h-185z" />
    <glyph glyph-name="fl" unicode="fl" horiz-adv-x="1259" 
d="M1087 1434v-1434h-174v1284h-356q-61 0 -89 -28.5t-28 -88.5v-153h271v-146h-271v-868h-172v868h-229v146h229v151q0 269 260 269h559z" />
    <glyph glyph-name="f_f" unicode="ff" horiz-adv-x="1400" 
d="M1405 1434v-150h-188q-61 0 -89 -28.5t-28 -88.5v-153h268v-146h-268v-868h-174v868h-486v-868h-172v868h-229v146h229v151q0 269 260 269h217v-150h-188q-61 0 -89 -28.5t-28 -88.5v-153h486v151q0 269 262 269h217z" />
    <glyph glyph-name="f_f_i" unicode="ffi" horiz-adv-x="1931" 
d="M1761 1014v-1014h-176v868h-485v-868h-174v868h-486v-868h-172v868h-229v146h229v151q0 269 260 269h217v-150h-188q-61 0 -89 -28.5t-28 -88.5v-153h486v151q0 269 262 269h217v-150h-188q-61 0 -89 -28.5t-28 -88.5v-153h661zM1579 1210v224h184v-224h-184z" />
    <glyph glyph-name="f_f_l" unicode="ffl" horiz-adv-x="1931" 
d="M1757 1434v-1434h-174v1284h-366q-61 0 -89 -28.5t-28 -88.5v-153h268v-146h-268v-868h-174v868h-486v-868h-172v868h-229v146h229v151q0 269 260 269h217v-150h-188q-61 0 -89 -28.5t-28 -88.5v-153h486v151q0 269 262 269h569z" />
    <glyph glyph-name=".notdef" horiz-adv-x="1431" 
d="M1221 0h-1010v1436h1010v-1436zM367 1288v-1141h700v1141h-700z" />
    <glyph glyph-name=".null" horiz-adv-x="0" 
 />
    <glyph glyph-name="nonmarkingreturn" horiz-adv-x="682" 
 />
    <glyph glyph-name="space" unicode=" " horiz-adv-x="532" 
 />
    <glyph glyph-name="exclam" unicode="!" horiz-adv-x="552" 
d="M315 442h-84l-47 580v412h187v-418zM395 0h-237v252h237v-252z" />
    <glyph glyph-name="quotedbl" unicode="&#x22;" horiz-adv-x="802" 
d="M268 891h-92l-45 375v168h182v-168zM627 891h-92l-46 375v168h183v-168z" />
    <glyph glyph-name="numbersign" unicode="#" horiz-adv-x="1454" 
d="M410 0h-162l41 197q8 46 43 204h-162h-94v152h284l72 336h-254v155h287l82 390h162l-37 -183q-3 -14 -20 -90t-25 -117h161h170l82 390h164l-37 -183q-22 -108 -43 -207h160h94v-155h-286l-72 -336h256v-152h-285l-84 -401h-166l43 199l41 202h-161h-170zM596 889
l-70 -336h332l72 336h-334z" />
    <glyph glyph-name="dollar" unicode="$" horiz-adv-x="1234" 
d="M692 -215h-145v190q-184 21 -306 123t-171 260l170 78q35 -114 113 -192.5t194 -102.5v523l-49 12q-171 38 -265 128.5t-94 258.5q0 159 111.5 267t296.5 128v189h145v-189q93 -10 171 -44t129 -82.5t83 -98.5t47 -100l-164 -78q-73 201 -266 237v-479l68 -20
q85 -21 152.5 -54.5t120.5 -82t81.5 -115.5t28.5 -148q0 -177 -118.5 -291t-332.5 -129v-188zM547 846v192v258q-108 -12 -171 -72.5t-63 -148.5q0 -92 55 -145t179 -84zM692 135q126 12 197.5 77.5t71.5 166.5q0 97 -65.5 158.5t-203.5 95.5v-227v-271z" />
    <glyph glyph-name="percent" unicode="%" horiz-adv-x="1785" 
d="M416 604q-157 0 -246.5 114t-89.5 312q0 190 92 305t244 115t242 -114.5t90 -305.5q0 -197 -88.5 -311.5t-243.5 -114.5zM473 0h-180l1020 1434h178zM416 733q82 0 128 78t46 219q0 132 -48 211.5t-126 79.5q-82 0 -131 -79.5t-49 -211.5q0 -139 48 -218t132 -79z
M1374 -10q-157 0 -246.5 114t-89.5 312q0 191 91.5 305.5t244.5 114.5q152 0 242 -114.5t90 -305.5q0 -197 -88.5 -311.5t-243.5 -114.5zM1374 121q80 0 127 78.5t47 216.5q0 132 -48 211.5t-126 79.5q-82 0 -131 -79.5t-49 -211.5q0 -139 48 -217t132 -78z" />
    <glyph glyph-name="ampersand" unicode="&#x26;" horiz-adv-x="1349" 
d="M553 -29q-214 0 -336.5 111t-122.5 283q0 125 64.5 221.5t197.5 179.5q-90 172 -90 338q0 167 95.5 262.5t248.5 95.5q150 0 240 -86.5t90 -214.5q0 -136 -85 -233t-290 -209q51 -78 137 -170q91 -99 226 -205q84 137 123 330l166 -53q-51 -214 -150 -369
q139 -84 260 -133l-61 -146q-148 59 -299 156q-165 -158 -414 -158zM494 846l67 39q122 69 168.5 136.5t46.5 139.5q0 64 -43 113t-125 49q-85 0 -132.5 -58t-47.5 -159q0 -125 66 -260zM565 123q151 0 262 102q-160 124 -270 252q-27 31 -127 160q-76 -52 -117 -117.5
t-41 -138.5q0 -113 81.5 -185.5t211.5 -72.5z" />
    <glyph glyph-name="quotesingle" unicode="'" horiz-adv-x="444" 
d="M268 891h-92l-45 375v168h182v-168z" />
    <glyph glyph-name="parenleft" unicode="(" horiz-adv-x="651" 
d="M596 -170v-158q-107 24 -191.5 89t-139.5 155t-91.5 206.5t-52 237.5t-15.5 254q0 134 15.5 256t52 240t91.5 209.5t139.5 157.5t191.5 90v-160q-84 -24 -148.5 -97.5t-103.5 -181.5t-58.5 -237.5t-19.5 -276.5q1 -146 20.5 -273.5t58 -234.5t103 -179t148.5 -97z" />
    <glyph glyph-name="parenright" unicode=")" horiz-adv-x="651" 
d="M55 1409v158q107 -24 191.5 -89t139.5 -155t91.5 -206.5t52 -237.5t15.5 -254q0 -134 -15.5 -256t-52 -240t-91.5 -209.5t-139.5 -157.5t-191.5 -90v160q84 24 148.5 97.5t103.5 181.5t58.5 237.5t19.5 276.5q-1 146 -20.5 273.5t-58 234.5t-103 179t-148.5 97z" />
    <glyph glyph-name="asterisk" unicode="*" horiz-adv-x="1091" 
d="M545 1075l-150 -276l-141 84l47 71q18 29 131 203q-137 -10 -242 -10h-81v158l313 -15l-166 258l139 86l37 -67q20 -40 113 -211q81 153 110 211l35 65l141 -82l-167 -260l321 13v-156h-84q-111 0 -244 10q12 -19 55 -86.5t68 -109.5l54 -78l-148 -80z" />
    <glyph glyph-name="plus" unicode="+" horiz-adv-x="1245" 
d="M707 172h-168v467h-461v168h461v465h168v-465h462v-168h-462v-467z" />
    <glyph glyph-name="comma" unicode="," horiz-adv-x="544" 
d="M242 -276h-113l156 276h-127v252h237v-252z" />
    <glyph glyph-name="hyphen" unicode="-" horiz-adv-x="851" 
d="M709 545h-566v180h566v-180z" />
    <glyph glyph-name="period" unicode="." horiz-adv-x="522" 
d="M381 0h-240v252h240v-252z" />
    <glyph glyph-name="slash" unicode="/" horiz-adv-x="860" 
d="M240 -215h-174l555 1866h172z" />
    <glyph glyph-name="zero" unicode="0" horiz-adv-x="1384" 
d="M694 -29q-260 0 -416.5 196.5t-156.5 555.5q0 178 45.5 320.5t124 233t181.5 138t222 47.5q118 0 220.5 -47.5t181 -137.5t123.5 -233t45 -321q0 -360 -155.5 -556t-414.5 -196zM694 137q176 0 275.5 154t99.5 432q0 261 -101.5 417t-273.5 156q-174 0 -276.5 -155.5
t-102.5 -417.5q0 -278 100 -432t279 -154z" />
    <glyph glyph-name="one" unicode="1" horiz-adv-x="845" 
d="M631 0h-182v981v203q-61 -100 -166.5 -174.5t-221.5 -94.5v193q132 34 243.5 116.5t180.5 209.5h146v-1434z" />
    <glyph glyph-name="two" unicode="2" horiz-adv-x="1185" 
d="M1071 0h-946v203q92 58 164 106t151.5 106.5t138 110t113.5 111.5t89.5 116.5t55.5 119.5t21 126q0 142 -78 219.5t-196 77.5q-122 0 -203.5 -85.5t-81.5 -241.5l-186 24q2 211 130.5 340t342.5 129q216 0 341.5 -123t125.5 -319q0 -216 -146 -395q-90 -110 -231 -219
t-346 -236h329h412v-170z" />
    <glyph glyph-name="three" unicode="3" horiz-adv-x="1202" 
d="M602 -29q-221 0 -356.5 118t-149.5 319l195 41q5 -145 89 -230.5t222 -85.5q124 0 205.5 70t81.5 186q0 121 -82 191.5t-211 70.5h-107v160h107q113 0 189.5 67t76.5 179q0 110 -75 176.5t-187 66.5q-120 0 -193.5 -73.5t-82.5 -194.5l-191 33q12 172 138 284.5
t329 112.5q208 0 328.5 -107t120.5 -270q0 -128 -73.5 -218.5t-191.5 -127.5q131 -29 213 -128.5t82 -243.5q0 -167 -128.5 -281.5t-348.5 -114.5z" />
    <glyph glyph-name="four" unicode="4" horiz-adv-x="1204" 
d="M913 0h-178v395h-674v170l578 869h274v-883h217v-156h-217v-395zM518 551h217v424v313l-491 -737h274z" />
    <glyph glyph-name="five" unicode="5" horiz-adv-x="1214" 
d="M612 -29q-216 0 -348.5 101.5t-163.5 259.5l187 61q24 -125 108.5 -192.5t208.5 -67.5q141 0 225 83.5t84 225.5q0 141 -83 225.5t-224 84.5q-180 0 -280 -162l-197 31l119 813h815v-170h-678l-45 -308q-10 -74 -31 -208q127 157 342 157q207 0 330 -123.5t123 -332.5
q0 -214 -134 -346t-358 -132z" />
    <glyph glyph-name="six" unicode="6" horiz-adv-x="1249" 
d="M653 -29q-242 0 -388 180.5t-146 516.5q0 172 43 315.5t126 251t214.5 167.5t298.5 60q151 0 266 -45v-180q-126 49 -260 49q-113 0 -206 -39.5t-160.5 -115.5t-104 -195.5t-35.5 -271.5q41 114 147 188t244 74q139 0 245 -63t160 -166.5t54 -229.5q0 -101 -33 -190
t-94 -157.5t-157 -108.5t-214 -40zM653 133q129 0 217 87.5t88 230.5q0 144 -87.5 230.5t-217.5 86.5q-129 0 -216 -87.5t-87 -229.5t87 -230t216 -88z" />
    <glyph glyph-name="seven" unicode="7" horiz-adv-x="1058" 
d="M473 0h-205q0 390 151 710.5t437 553.5h-307h-496v170h965v-199q-132 -111 -229 -229t-157 -232t-96 -245t-49.5 -255t-13.5 -274z" />
    <glyph glyph-name="eight" unicode="8" horiz-adv-x="1236" 
d="M618 -29q-123 0 -220 32.5t-157 89t-91 130t-31 158.5q0 140 82.5 237t204.5 125q-109 36 -177.5 123.5t-68.5 214.5q0 168 126 274.5t332 106.5t333.5 -106.5t127.5 -274.5q0 -128 -68 -215t-177 -123q125 -29 204.5 -126t79.5 -236q0 -177 -129 -293.5t-371 -116.5z
M618 815q120 0 198.5 67t78.5 181q0 107 -77.5 173.5t-199.5 66.5q-121 0 -197.5 -66.5t-76.5 -173.5q0 -114 77.5 -181t196.5 -67zM618 133q142 0 225 71.5t83 194.5q0 121 -84 196t-224 75q-139 0 -223 -75t-84 -196q0 -122 83.5 -194t223.5 -72z" />
    <glyph glyph-name="nine" unicode="9" horiz-adv-x="1236" 
d="M463 -29q-73 0 -152.5 13t-132.5 36v189q135 -57 279 -57q188 0 311 114q169 146 166 502q-42 -114 -149 -180t-238 -66q-204 0 -324.5 127.5t-120.5 317.5q0 135 54.5 246t165.5 180t260 69q215 0 356 -141q178 -178 178 -551q0 -179 -41 -324.5t-121.5 -252
t-205.5 -164.5t-285 -58zM590 680q129 0 214 84.5t85 224.5t-85 225.5t-214 85.5q-127 0 -212 -85t-85 -226t85 -225t212 -84z" />
    <glyph glyph-name="colon" unicode=":" horiz-adv-x="522" 
d="M381 754h-240v254h240v-254zM381 0h-240v252h240v-252z" />
    <glyph glyph-name="semicolon" unicode=";" horiz-adv-x="561" 
d="M406 754h-240v254h240v-254zM252 -276h-115l156 276h-127v252h237v-252z" />
    <glyph glyph-name="less" unicode="&#x3c;" horiz-adv-x="1318" 
d="M82 848l1094 440v-190l-641 -254q-150 -56 -316 -123q41 -16 94 -36.5t121 -46.5t103 -40l639 -252v-199l-1094 441v260z" />
    <glyph glyph-name="equal" unicode="=" horiz-adv-x="1398" 
d="M1247 854h-1097v168h1097v-168zM1247 414h-1097v168h1097v-168z" />
    <glyph glyph-name="greater" unicode="&#x3e;" horiz-adv-x="1320" 
d="M1241 586l-1096 -439v191l641 254q150 56 316 123q-164 60 -316 123l-641 252v198l1096 -440v-262z" />
    <glyph glyph-name="question" unicode="?" horiz-adv-x="1001" 
d="M551 442h-170q0 128 41 203t133 154q49 43 73.5 67.5t53.5 60.5t41 72.5t12 79.5q0 102 -64.5 161.5t-168.5 59.5q-121 0 -186.5 -79.5t-65.5 -231.5l-176 29q0 208 115 325t313 117q181 0 300.5 -103t119.5 -272q0 -114 -57.5 -202.5t-188.5 -196.5q-74 -63 -99.5 -113
t-25.5 -131zM586 0h-238v252h238v-252z" />
    <glyph glyph-name="at" unicode="@" horiz-adv-x="1837" 
d="M956 -242q-401 0 -630.5 227.5t-229.5 622.5q0 193 64 353.5t176.5 269.5t269 169t338.5 60q240 0 428.5 -99.5t292.5 -275t104 -395.5q0 -237 -112.5 -382.5t-276.5 -145.5q-188 0 -217 155q-101 -159 -282 -159q-154 0 -248 122.5t-94 311.5q0 193 96.5 318.5
t247.5 125.5q176 0 272 -143v117h152v-625q0 -84 86 -84q91 0 151 108t60 283q0 276 -181 449.5t-479 173.5q-151 0 -276.5 -48t-215 -137.5t-139 -223t-49.5 -298.5q0 -332 185.5 -518t506.5 -186q291 0 506 137l68 -135q-244 -148 -574 -148zM924 295q105 0 172 88t67 231
q0 133 -63.5 213t-167.5 80t-168 -83t-64 -218q0 -141 61.5 -226t162.5 -85z" />
    <glyph glyph-name="A" unicode="A" horiz-adv-x="1402" 
d="M1362 0h-207l-139 393h-637l-141 -393h-201l541 1434h253zM594 993l-156 -432h516l-153 432q-79 226 -103 287q-10 -25 -24 -64.5t-37 -103.5t-43 -119z" />
    <glyph glyph-name="B" unicode="B" horiz-adv-x="1433" 
d="M1006 750q59 -11 113 -38t99.5 -70t73 -107t27.5 -140q0 -96 -36 -172.5t-99.5 -124.5t-147 -73t-180.5 -25h-645v1434h616q215 0 328 -96t113 -257q0 -72 -23.5 -132t-62.5 -99.5t-83.5 -64t-92.5 -35.5zM805 1264h-410v-437h410q127 0 199.5 61t72.5 165
q0 102 -71.5 156.5t-200.5 54.5zM395 170h434q136 0 214.5 67.5t78.5 180.5t-78.5 178.5t-214.5 65.5h-434v-492z" />
    <glyph glyph-name="C" unicode="C" horiz-adv-x="1505" 
d="M803 -29q-130 0 -242 38.5t-194.5 108t-141 164.5t-87.5 209t-29 240q0 208 85.5 374t244.5 261.5t364 95.5q107 0 201.5 -26t162.5 -68t122 -98.5t86.5 -113.5t49.5 -116l-184 -67q-14 43 -34 83t-56.5 85t-82.5 77.5t-115 54t-150 21.5q-227 0 -362.5 -151t-135.5 -410
q0 -263 136.5 -428.5t361.5 -165.5q80 0 146.5 18.5t113 49t84 75.5t61 91.5t41.5 103.5l181 -69q-27 -88 -78.5 -164.5t-127 -138.5t-184 -98t-237.5 -36z" />
    <glyph glyph-name="D" unicode="D" horiz-adv-x="1499" 
d="M684 0h-473v1434h481q313 0 505 -195t192 -518q0 -334 -189.5 -527.5t-515.5 -193.5zM395 1264v-1094h260q269 0 404 140t135 411q0 253 -133.5 398t-392.5 145h-273z" />
    <glyph glyph-name="E" unicode="E" horiz-adv-x="1314" 
d="M1214 0h-1003v1434h1003v-170h-819v-437h609v-168h-609v-489h819v-170z" />
    <glyph glyph-name="F" unicode="F" horiz-adv-x="1292" 
d="M395 0h-184v1434h1034v-170h-850v-478h666v-168h-666v-618z" />
    <glyph glyph-name="G" unicode="G" horiz-adv-x="1597" 
d="M786 -29q-310 0 -493.5 203t-183.5 545q0 161 56 300.5t152.5 236t227.5 151.5t278 55q108 0 203 -25.5t164.5 -67t125.5 -98t91.5 -116t56.5 -123.5l-186 -76q-121 334 -459 334q-102 0 -194 -37.5t-163 -107t-113 -179.5t-42 -245q0 -269 138 -425.5t366 -156.5
q103 0 189.5 33t143 88.5t90 125t38.5 144.5h-506v170h694v-700h-178v266q-18 -39 -42 -75t-67 -78t-95 -72t-128 -50t-164 -20z" />
    <glyph glyph-name="H" unicode="H" horiz-adv-x="1570" 
d="M395 0h-184v1434h184v-607h783v607h184v-1434h-184v657h-783v-657z" />
    <glyph glyph-name="I" unicode="I" horiz-adv-x="606" 
d="M395 0h-184v1434h184v-1434z" />
    <glyph glyph-name="J" unicode="J" horiz-adv-x="1028" 
d="M442 -29q-190 0 -294.5 121t-104.5 338l190 47q-12 -340 207 -340q110 0 160.5 80.5t50.5 239.5v977h185v-985q0 -478 -394 -478z" />
    <glyph glyph-name="K" unicode="K" horiz-adv-x="1388" 
d="M1405 0h-242l-561 709l-207 -209v-500h-184v1434h184v-373v-332l658 705h247l-573 -594z" />
    <glyph glyph-name="L" unicode="L" horiz-adv-x="1191" 
d="M1169 0h-958v1434h184v-1260h774v-174z" />
    <glyph glyph-name="M" unicode="M" horiz-adv-x="1923" 
d="M395 0h-184v1434h301l352 -869q59 -151 105 -258l104 260l346 867h293v-1434h-184v799v446l-498 -1245h-133l-502 1245v-448v-797z" />
    <glyph glyph-name="N" unicode="N" horiz-adv-x="1644" 
d="M395 0h-184v1434h248l792 -1125v320v805h185v-1434h-187l-854 1212v-362v-850z" />
    <glyph glyph-name="O" unicode="O" horiz-adv-x="1640" 
d="M821 -29q-152 0 -284 54.5t-227 151.5t-149.5 236.5t-54.5 303.5q0 163 55 303t150 236.5t227 151t283 54.5q203 0 364.5 -93t254 -263.5t92.5 -388.5q0 -164 -54 -303.5t-148.5 -236.5t-225.5 -151.5t-283 -54.5zM821 139q155 0 273.5 76t180.5 207t62 295
q0 165 -62 295.5t-180.5 206t-273.5 75.5q-235 0 -375.5 -162.5t-140.5 -414.5q0 -164 61.5 -295t180 -207t274.5 -76z" />
    <glyph glyph-name="P" unicode="P" horiz-adv-x="1320" 
d="M395 0h-184v1434h571q221 0 346 -118.5t125 -311.5q0 -196 -126 -315.5t-349 -119.5h-383v-569zM395 1264v-533h350q152 0 233 76t81 197q0 118 -79 189t-235 71h-350z" />
    <glyph glyph-name="Q" unicode="Q" horiz-adv-x="1667" 
d="M821 -29q-152 0 -284 54.5t-227 151.5t-149.5 236.5t-54.5 303.5q0 163 55 303t150 236.5t227 151t283 54.5q203 0 364.5 -93t254 -263.5t92.5 -388.5q0 -270 -143 -469q54 -54 110.5 -80.5t134.5 -26.5v-170q-119 0 -203 39t-157 117q-196 -156 -453 -156zM821 139
q196 0 334 125l-47 66q-42 54 -73 88t-76.5 69.5t-97.5 49.5t-111 8v176q183 30 327 -111q82 -79 183 -213q77 138 77 320q0 165 -62 295.5t-180.5 206t-273.5 75.5q-235 0 -375.5 -162.5t-140.5 -414.5q0 -164 61.5 -295t180 -207t274.5 -76z" />
    <glyph glyph-name="R" unicode="R" horiz-adv-x="1404" 
d="M395 0h-184v1434h598q212 0 334.5 -110t122.5 -280q0 -154 -93.5 -251.5t-242.5 -128.5q135 -22 199 -92.5t92 -204.5l75 -367h-200l-64 350q-25 135 -99 192.5t-222 57.5h-316v-600zM395 1264v-498h385q131 0 211 64t80 186t-79.5 185t-211.5 63h-385z" />
    <glyph glyph-name="S" unicode="S" horiz-adv-x="1273" 
d="M647 -29q-223 0 -369.5 106.5t-201.5 282.5l180 82q41 -135 142.5 -219t258.5 -84q151 0 235.5 66.5t84.5 175.5q0 94 -66 153t-200 89l-197 47q-174 38 -270.5 130.5t-96.5 260.5q0 176 136 288.5t354 112.5q91 0 170 -21.5t134.5 -55.5t99 -79t69 -88.5t39.5 -87.5
l-174 -79q-11 32 -26.5 62t-45 64.5t-66.5 59.5t-93 42t-123 17q-134 0 -211.5 -62.5t-77.5 -162.5q0 -91 56.5 -142t182.5 -81l199 -45q184 -42 292.5 -145t108.5 -261q0 -191 -137.5 -308.5t-386.5 -117.5z" />
    <glyph glyph-name="T" unicode="T" horiz-adv-x="1271" 
d="M719 0h-184v1264h-512v170h1226v-170h-530v-1264z" />
    <glyph glyph-name="U" unicode="U" horiz-adv-x="1470" 
d="M735 -29q-258 0 -401.5 146t-143.5 432v885h185v-856q0 -207 89.5 -321t270.5 -114q182 0 271.5 114.5t89.5 320.5v856h184v-885q0 -278 -140.5 -428t-404.5 -150z" />
    <glyph glyph-name="V" unicode="V" horiz-adv-x="1335" 
d="M803 0h-273l-464 1434h204l299 -959q63 -199 99 -313q7 25 17 56t31.5 100t45.5 145l307 971h203z" />
    <glyph glyph-name="W" unicode="W" horiz-adv-x="2015" 
d="M668 0h-242l-346 1434h194l195 -842q54 -256 86 -381q2 9 100 358l246 865h223l252 -932q27 -100 53 -194t27 -97q4 16 16 63.5t31 126.5t47 197l203 836h193l-371 -1434h-238l-243 895l-82 307q-7 -23 -32 -113t-54 -192z" />
    <glyph glyph-name="X" unicode="X" horiz-adv-x="1323" 
d="M244 0h-224l527 745l-486 689h230l221 -322l154 -217q61 90 147 211l225 328h219l-481 -680l529 -754h-232l-264 387q-93 137 -152 217q-20 -28 -70 -102t-79 -115z" />
    <glyph glyph-name="Y" unicode="Y" horiz-adv-x="1320" 
d="M756 0h-185v606l-518 828h221l277 -457l115 -191q10 15 27.5 45t42.5 73.5t42 72.5l262 457h220l-504 -822v-612z" />
    <glyph glyph-name="Z" unicode="Z" horiz-adv-x="1271" 
d="M1202 0h-1120v213l870 1051h-225h-604v170h1046v-189l-890 -1075h223h700v-170z" />
    <glyph glyph-name="bracketleft" unicode="[" horiz-adv-x="684" 
d="M627 -307h-437v1853h437v-141h-275v-1571h275v-141z" />
    <glyph glyph-name="backslash" unicode="\" horiz-adv-x="864" 
d="M799 -215h-178l-553 1866h178z" />
    <glyph glyph-name="bracketright" unicode="]" horiz-adv-x="684" 
d="M57 1546h439v-1853h-439v141h275v1571h-275v141z" />
    <glyph glyph-name="asciicircum" unicode="^" horiz-adv-x="1054" 
d="M285 684h-191l318 750h231l318 -750h-189l-133 334q-78 186 -113 282q-60 -145 -112 -282z" />
    <glyph glyph-name="underscore" unicode="_" horiz-adv-x="1243" 
d="M1135 -293h-1026v160h1026v-160z" />
    <glyph glyph-name="grave" unicode="`" horiz-adv-x="569" 
d="M424 1161h-117l-223 281h227z" />
    <glyph glyph-name="a" unicode="a" horiz-adv-x="1107" 
d="M430 -29q-148 0 -236 77t-88 210q0 352 646 404v34q0 94 -55.5 146.5t-170.5 52.5q-209 0 -272 -186l-168 55q13 52 46 100t86 88.5t132.5 65t175.5 24.5q199 0 298.5 -94t99.5 -258v-473q0 -39 14.5 -53t52.5 -14h101v-150h-138q-99 0 -138.5 40.5t-47.5 123.5
q-115 -193 -338 -193zM475 115q53 0 101 18.5t88 54.5t64 97.5t24 140.5v109q-467 -46 -467 -263q0 -73 49 -115t141 -42z" />
    <glyph glyph-name="b" unicode="b" horiz-adv-x="1187" 
d="M676 -29q-123 0 -206.5 56.5t-127.5 136.5v-164h-168v1434h172v-387v-195q42 79 124 134.5t206 55.5q181 0 298.5 -143t117.5 -391t-118 -392.5t-298 -144.5zM627 121q130 0 207 93.5t77 293.5q0 202 -76.5 293.5t-207.5 91.5q-130 0 -209.5 -98t-79.5 -287
q0 -188 79.5 -287.5t209.5 -99.5z" />
    <glyph glyph-name="c" unicode="c" horiz-adv-x="1085" 
d="M580 -29q-219 0 -352.5 146t-133.5 391q0 234 136.5 384t347.5 150q163 0 273 -83t148 -209l-161 -56q-29 87 -94.5 142t-168.5 55q-129 0 -214 -99.5t-85 -283.5q0 -187 84.5 -286t217.5 -99q211 0 280 227l164 -57q-49 -146 -163.5 -234t-278.5 -88z" />
    <glyph glyph-name="d" unicode="d" horiz-adv-x="1187" 
d="M514 -29q-180 0 -299 144t-119 391q0 248 118.5 392t299.5 144q122 0 203.5 -56t126.5 -136v197v387h172v-1434h-170v164q-44 -80 -127 -136.5t-205 -56.5zM561 121q132 0 211.5 97.5t79.5 287.5q0 189 -80 288t-211 99q-129 0 -207 -93.5t-78 -293.5q0 -202 77.5 -293.5
t207.5 -91.5z" />
    <glyph glyph-name="e" unicode="e" horiz-adv-x="1097" 
d="M559 -29q-213 0 -338 140t-125 397q0 242 129 388t326 146q146 0 253.5 -75t156.5 -206t32 -294h-723q6 -182 89 -265t206 -83q59 0 108 19.5t81 52t52 63.5t34 65l159 -57q-53 -138 -167.5 -214.5t-272.5 -76.5zM274 606h543q-1 141 -77.5 219t-188.5 78
q-110 0 -188.5 -81.5t-88.5 -215.5z" />
    <glyph glyph-name="f" unicode="f" horiz-adv-x="741" 
d="M440 868v-868h-172v868h-229v146h229v151q0 269 260 269h217v-150h-188q-61 0 -89 -28.5t-28 -88.5v-153h271v-146h-271z" />
    <glyph glyph-name="g" unicode="g" horiz-adv-x="1202" 
d="M813 -399h-473q-268 0 -268 202q0 70 39 125t94 90q-90 51 -90 160q0 124 153 217q-51 45 -83.5 115t-32.5 156q0 161 113.5 268.5t289.5 107.5q126 0 216 -54.5t130 -129.5q27 156 170 156h100v-146h-77q-69 0 -99 -27.5t-34 -115.5l-5 -55q-10 -171 -120 -274
t-279 -103q-117 0 -192 41q-45 -19 -72 -49t-27 -62q0 -69 96 -69h445q145 0 233 -75.5t88 -201.5q0 -133 -90 -204.5t-225 -71.5zM557 432q106 0 170 65t64 171q0 104 -65 169.5t-169 65.5q-105 0 -168 -65t-63 -170q0 -106 63 -171t168 -65zM387 -252h404q161 0 161 127
q0 125 -166 125h-477q-32 -18 -58 -55.5t-26 -83.5q0 -60 39.5 -86.5t122.5 -26.5z" />
    <glyph glyph-name="h" unicode="h" horiz-adv-x="1189" 
d="M346 0h-172v1434h172v-396v-202q9 25 30 55.5t60 66.5t105 60t147 24q171 0 257.5 -104.5t86.5 -280.5v-657h-174v616q0 140 -59.5 207.5t-169.5 67.5q-56 0 -100.5 -17.5t-73.5 -44t-50.5 -67t-32.5 -77.5t-17 -85t-7.5 -79.5t-1.5 -71.5v-449z" />
    <glyph glyph-name="i" unicode="i" horiz-adv-x="518" 
d="M350 1210h-184v224h184v-224zM346 0h-174v1014h174v-1014z" />
    <glyph glyph-name="j" unicode="j" horiz-adv-x="534" 
d="M367 1210h-183v224h183v-224zM106 -399h-184v155h154q57 0 85.5 27t28.5 90v1141h170v-1161q0 -252 -254 -252z" />
    <glyph glyph-name="k" unicode="k" horiz-adv-x="1157" 
d="M1155 0h-225l-391 481l-193 -178v-303h-172v1434h172v-607v-329l541 516h227l-452 -420z" />
    <glyph glyph-name="l" unicode="l" horiz-adv-x="518" 
d="M346 0h-172v1434h172v-1434z" />
    <glyph glyph-name="m" unicode="m" horiz-adv-x="1824" 
d="M346 0h-172v1014h168v-160q16 32 39 60.5t60 59.5t92 49.5t120 18.5q113 0 197 -58.5t121 -160.5q17 40 42.5 74.5t65.5 69.5t100 55t134 20q171 0 262.5 -96t91.5 -276v-670h-174v623q0 266 -227 266q-52 0 -94 -15.5t-69 -39.5t-46.5 -61t-29.5 -69.5t-15.5 -77.5
t-6.5 -73t-1 -66v-487h-170v621q0 268 -228 268q-52 0 -93 -15.5t-68 -39.5t-46.5 -61t-29 -70.5t-15.5 -78.5t-7 -74.5t-1 -68.5v-481z" />
    <glyph glyph-name="n" unicode="n" horiz-adv-x="1189" 
d="M346 0h-172v1014h168v-178q8 24 30.5 55t61.5 67t103.5 60t140.5 24q181 0 267.5 -103.5t86.5 -281.5v-657h-174v616q0 140 -59.5 207.5t-169.5 67.5q-56 0 -100.5 -17.5t-73.5 -44t-50.5 -67t-32.5 -77.5t-17 -85t-7.5 -79.5t-1.5 -71.5v-449z" />
    <glyph glyph-name="o" unicode="o" horiz-adv-x="1144" 
d="M573 -29q-99 0 -187.5 40t-153 109.5t-102.5 170t-38 215.5q0 234 137.5 385t343.5 151q204 0 341 -151t137 -385t-138.5 -384.5t-339.5 -150.5zM573 123q133 0 215 97t82 284t-82 287t-215 100q-134 0 -216.5 -100t-82.5 -287t82 -284t217 -97z" />
    <glyph glyph-name="p" unicode="p" horiz-adv-x="1187" 
d="M346 -399h-172v1413h168v-162q44 79 127.5 134.5t206.5 55.5q181 0 298.5 -143t117.5 -391t-118 -392.5t-298 -144.5q-124 0 -204.5 55.5t-125.5 135.5v-195v-366zM627 121q130 0 207 93.5t77 293.5q0 202 -76.5 293.5t-207.5 91.5q-130 0 -209.5 -98t-79.5 -287
q0 -188 79.5 -287.5t209.5 -99.5z" />
    <glyph glyph-name="q" unicode="q" horiz-adv-x="1187" 
d="M1016 -399h-172v366v195q-28 -50 -67 -89.5t-109 -70.5t-154 -31q-180 0 -299 144t-119 391q0 248 118.5 392t299.5 144q122 0 205.5 -56t126.5 -136v164h170v-1413zM561 121q132 0 212.5 98.5t80.5 286.5t-81 287.5t-212 99.5q-129 0 -207 -93.5t-78 -293.5
q0 -201 77.5 -293t207.5 -92z" />
    <glyph glyph-name="r" unicode="r" horiz-adv-x="817" 
d="M346 0h-172v1014h168v-219q15 37 40.5 73t65.5 74.5t100.5 62t131.5 23.5q64 0 102 -12v-176q-78 10 -114 10q-322 0 -322 -393v-457z" />
    <glyph glyph-name="s" unicode="s" horiz-adv-x="1009" 
d="M514 -29q-167 0 -287.5 77.5t-150.5 213.5l166 53q21 -89 87.5 -144.5t186.5 -55.5q111 0 170 40t59 111q0 61 -43.5 101t-144.5 61l-127 25q-69 14 -120 33t-97.5 51.5t-71 84t-24.5 119.5q0 132 109 216.5t268 84.5q89 0 160.5 -21.5t119 -58.5t78 -80.5t45.5 -93.5
l-154 -59q-10 30 -26.5 57t-45 55.5t-75 45t-104.5 16.5q-100 0 -153.5 -42t-53.5 -103q0 -56 37 -88.5t137 -51.5l127 -24q336 -78 336 -313q0 -141 -107.5 -225.5t-300.5 -84.5z" />
    <glyph glyph-name="t" unicode="t" horiz-adv-x="808" 
d="M762 0h-230q-260 0 -260 252v616h-237v146h237v313h172v-313h281v-146h-281v-602q0 -60 28.5 -88t88.5 -28h201v-150z" />
    <glyph glyph-name="u" unicode="u" horiz-adv-x="1177" 
d="M496 -29q-169 0 -253.5 103t-84.5 280v660h174v-619q0 -270 223 -270q276 0 276 436v453h175v-1014h-170v182q-12 -24 -26.5 -45.5t-45 -53.5t-65 -55t-88.5 -40t-115 -17z" />
    <glyph glyph-name="v" unicode="v" horiz-adv-x="1028" 
d="M625 0h-217l-357 1014h185l184 -559q17 -53 52 -159.5t46 -137.5l96 297l177 559h176z" />
    <glyph glyph-name="w" unicode="w" horiz-adv-x="1693" 
d="M586 0h-199l-334 1014h180l152 -488l107 -344q8 29 102 336l151 496h203l164 -535q83 -278 88 -295q38 109 111 348l153 482h183l-342 -1014h-209l-158 516q-16 51 -94 307q-12 -34 -41 -129t-55 -176z" />
    <glyph glyph-name="x" unicode="x" horiz-adv-x="1001" 
d="M227 0h-188l356 520l-336 494h205l121 -180q55 -92 119 -189q11 15 125 186l119 183h194l-340 -496l363 -518h-211l-136 203l-124 188q-104 -154 -127 -188z" />
    <glyph glyph-name="y" unicode="y" horiz-adv-x="1038" 
d="M616 467l185 547h184l-405 -1159q-48 -143 -115.5 -198.5t-200.5 -55.5h-196v155h192q61 0 95.5 22.5t58.5 86.5l53 153l-447 996h193l223 -529q96 -224 103 -245q4 12 77 227z" />
    <glyph glyph-name="z" unicode="z" horiz-adv-x="997" 
d="M922 0h-834v154l582 710h-219h-347v150h791v-129l-602 -735h233h396v-150z" />
    <glyph glyph-name="braceleft" unicode="{" horiz-adv-x="690" 
d="M625 -307h-119q-133 0 -191.5 81t-58.5 232v277q0 70 -7 113t-28.5 77.5t-63 49t-108.5 14.5v155q54 0 91 10t60 28.5t35 51t16.5 69.5t4.5 93v289q0 153 58 233t192 80h119v-141h-78q-67 0 -97 -36t-30 -118v-336q0 -130 -46 -194.5t-151 -106.5q70 -27 110.5 -60.5
t63.5 -92.5t23 -148v-325q0 -82 30 -118t97 -36h78v-141z" />
    <glyph glyph-name="bar" unicode="|" horiz-adv-x="542" 
d="M352 -215h-162v1866h162v-1866z" />
    <glyph glyph-name="braceright" unicode="}" horiz-adv-x="690" 
d="M63 1540h121q133 0 191.5 -81.5t58.5 -231.5v-279q0 -56 4 -92.5t16.5 -70t35 -52t60 -29t91.5 -10.5v-155q-54 0 -91.5 -10.5t-60 -28t-35 -50.5t-16.5 -69t-4 -92v-289q0 -153 -58 -233t-192 -80h-121v141h80q67 0 97 36t30 118v333q0 89 23 148t63.5 92.5t110.5 60.5
q-105 42 -151 107t-46 195v325q0 83 -29.5 118.5t-97.5 35.5h-80v143z" />
    <glyph glyph-name="asciitilde" unicode="~" horiz-adv-x="1323" 
d="M883 580q-45 0 -90.5 12t-118.5 45l-66 31q-111 47 -172 47q-98 0 -196 -105l-101 129q66 76 148.5 116t158.5 40q82 0 207 -55l66 -31q102 -47 172 -47q98 0 199 104l100 -129q-66 -76 -149 -116.5t-158 -40.5z" />
    <glyph glyph-name="uni00A0" unicode="&#xa0;" horiz-adv-x="532" 
 />
    <glyph glyph-name="exclamdown" unicode="&#xa1;" horiz-adv-x="542" 
d="M154 1143h237v-252h-237v252zM233 700h84l48 -579v-412h-187v418z" />
    <glyph glyph-name="cent" unicode="&#xa2;" horiz-adv-x="1105" 
d="M641 -244h-135v221q-183 26 -292.5 169t-109.5 362q0 212 111.5 357t290.5 173v219h135v-215q131 -14 228.5 -91t144.5 -187l-162 -62q-66 161 -211 187v-479v-283q91 14 147.5 77t77.5 148l166 -57q-48 -135 -147.5 -221.5t-243.5 -100.5v-217zM506 135v459v289
q-100 -28 -159.5 -123t-59.5 -252t59 -252t160 -121z" />
    <glyph glyph-name="sterling" unicode="&#xa3;" horiz-adv-x="1187" 
d="M391 170h234h458v-170h-960v164q16 4 29.5 8t42.5 15.5t51.5 25t49.5 36t45.5 49t31 64t12.5 80.5q0 105 -51 195h-207v145h115q-80 130 -80 250q0 101 39 184t104.5 135.5t148.5 80.5t173 28q79 0 154 -24t140 -70.5t110.5 -123.5t58.5 -175l-185 -45q-14 96 -59.5 160
t-103.5 90t-126 26q-112 0 -187 -71t-75 -197q0 -69 21.5 -126t62.5 -122h377v-145h-295q33 -81 33 -174t-44 -168t-118 -125z" />
    <glyph glyph-name="currency" unicode="&#xa4;" horiz-adv-x="1327" 
d="M408 346l-168 -166l-115 115l166 164q-76 113 -76 260q0 145 78 264l-168 168l115 111l170 -164q115 78 256 78q134 0 252 -80l169 166l113 -111l-166 -168q80 -119 80 -262q0 -144 -80 -262l166 -164l-113 -115l-169 168q-116 -82 -254 -82t-256 80zM664 428
q119 0 198.5 81t79.5 212t-78.5 212t-197.5 81q-121 0 -201 -81t-80 -214q0 -132 79.5 -211.5t199.5 -79.5z" />
    <glyph glyph-name="yen" unicode="&#xa5;" horiz-adv-x="1339" 
d="M1055 1434h221l-418 -643h279v-144h-367v-174h367v-143h-367v-330h-184v330h-381v143h381v174h-381v144h287l-429 643h222l268 -433q19 -30 125 -204q101 177 117 204z" />
    <glyph glyph-name="brokenbar" unicode="&#xa6;" horiz-adv-x="542" 
d="M352 831h-162v820h162v-820zM352 -215h-162v821h162v-821z" />
    <glyph glyph-name="section" unicode="&#xa7;" horiz-adv-x="1234" 
d="M612 -426q-198 0 -314.5 93.5t-141.5 232.5l180 67q59 -231 276 -231q112 0 174 52t62 134q0 78 -43.5 123.5t-140.5 75.5l-304 96q-139 44 -210.5 121.5t-71.5 198.5q0 106 65 191t168 124q-114 88 -114 260q0 69 27 131.5t77.5 111.5t131 78t179.5 29q102 0 184.5 -27
t136.5 -74t86.5 -102.5t45.5 -119.5l-182 -70q-57 231 -271 231q-108 0 -166.5 -52.5t-58.5 -131.5q0 -82 42.5 -122.5t143.5 -73.5l306 -97q140 -43 210 -120t70 -195q0 -109 -64.5 -194t-166.5 -126q112 -100 112 -258q0 -152 -113.5 -254t-314.5 -102zM793 262
q78 32 126 88t48 133q0 68 -44.5 112t-134.5 71l-235 73q-92 31 -109 39q-77 -32 -125.5 -88.5t-48.5 -136.5q0 -66 44 -107.5t135 -70.5l237 -74q63 -19 107 -39z" />
    <glyph glyph-name="dieresis" unicode="&#xa8;" horiz-adv-x="833" 
d="M315 1208h-190v201h190v-201zM707 1208h-187v201h187v-201z" />
    <glyph glyph-name="copyright" unicode="&#xa9;" horiz-adv-x="1796" 
d="M899 -55q-165 0 -313.5 62t-254 167t-167.5 250.5t-62 306.5t62 307.5t167.5 253t254 169.5t313.5 63q164 0 312 -63t253.5 -169.5t167.5 -253t62 -307.5q0 -215 -105 -395.5t-288 -285.5t-402 -105zM899 74q184 0 335 89t235.5 239.5t84.5 328.5q0 135 -50 257
t-136.5 211t-208.5 141.5t-260 52.5t-260.5 -52.5t-209 -141.5t-137 -211t-50.5 -257q0 -178 85 -328.5t236.5 -239.5t335.5 -89zM903 303q-185 0 -290 118.5t-105 326.5q0 185 112.5 302t288.5 117q131 0 222.5 -66.5t125.5 -180.5l-127 -33q-59 168 -227 168
q-112 0 -184 -86.5t-72 -233.5q0 -146 68.5 -228.5t185.5 -82.5q89 0 153 55t87 142l129 -39q-33 -127 -130.5 -203t-236.5 -76z" />
    <glyph glyph-name="ordfeminine" unicode="&#xaa;" horiz-adv-x="1032" 
d="M444 592q-142 0 -241 115.5t-99 320.5q0 102 29 184.5t78 134.5t111.5 79.5t132.5 27.5q95 0 163.5 -39.5t106.5 -103.5v123h149v-822h-149v131q-94 -151 -281 -151zM500 723q100 0 164.5 81.5t64.5 223.5t-64 218.5t-165 76.5t-165.5 -76.5t-64.5 -218.5t65 -223.5
t165 -81.5z" />
    <glyph glyph-name="guillemotleft" unicode="&#xab;" horiz-adv-x="1069" 
d="M362 954h187l-268 -430l272 -442h-193l-270 436zM967 954l-269 -430l275 -442h-193l-270 436l270 436h187z" />
    <glyph glyph-name="logicalnot" unicode="&#xac;" horiz-adv-x="1390" 
d="M1229 332h-168v313h-920v168h1088v-481z" />
    <glyph glyph-name="uni00AD" unicode="&#xad;" horiz-adv-x="851" 
d="M709 545h-566v180h566v-180z" />
    <glyph glyph-name="registered" unicode="&#xae;" horiz-adv-x="1179" 
d="M590 549q-206 0 -348 142t-142 347t141 345.5t349 140.5q207 0 350 -141t143 -345q0 -100 -38.5 -190.5t-104 -156t-157 -104t-193.5 -38.5zM590 651q164 0 271.5 110t107.5 277q0 166 -107.5 273.5t-271.5 107.5q-163 0 -269 -107.5t-106 -273.5q0 -167 106 -277
t269 -110zM518 805h-104v467h231q65 0 108.5 -33.5t43.5 -87.5q0 -53 -35 -85t-98 -40q52 -8 76.5 -31.5t31.5 -76.5l21 -113h-113l-16 108q-6 48 -23 65t-63 17h-60v-190zM518 1194v-121h92q36 0 58 16t22 46q0 59 -84 59h-88z" />
    <glyph glyph-name="macron" unicode="&#xaf;" horiz-adv-x="749" 
d="M686 1212h-623v134h623v-134z" />
    <glyph glyph-name="degree" unicode="&#xb0;" horiz-adv-x="872" 
d="M434 903q-150 0 -245 98t-95 240q0 143 96.5 239.5t245.5 96.5t246.5 -97t97.5 -239q0 -146 -97.5 -242t-248.5 -96zM436 1042q83 0 134 55t51 146q0 86 -51 139.5t-134 53.5q-80 0 -132 -53.5t-52 -139.5q0 -91 51.5 -146t132.5 -55z" />
    <glyph glyph-name="plusminus" unicode="&#xb1;" horiz-adv-x="1421" 
d="M797 492h-168v299h-465v163h465v318h168v-318h465v-163h-465v-299zM1260 174h-1098v168h1098v-168z" />
    <glyph glyph-name="uni00B2" unicode="&#xb2;" horiz-adv-x="757" 
d="M666 805h-566v139q73 45 123.5 79t106.5 79t89.5 84.5t56 86.5t22.5 93q0 64 -34 102.5t-91 38.5q-61 0 -96.5 -48.5t-28.5 -133.5l-154 23q-6 128 72.5 208t208.5 80q126 0 203 -72t77 -188q0 -118 -90 -225q-85 -108 -274 -213h276h99v-133z" />
    <glyph glyph-name="uni00B3" unicode="&#xb3;" horiz-adv-x="763" 
d="M383 791q-133 0 -214.5 73t-84.5 193l154 30q2 -78 38.5 -122.5t104.5 -44.5q58 0 93.5 31.5t35.5 86.5q0 56 -38.5 87.5t-109.5 31.5h-61v127h61q64 0 99 30.5t35 82.5q0 50 -31 81t-82 31q-59 0 -93 -40.5t-34 -110.5l-154 28q0 110 79.5 180t201.5 70q118 0 193 -62.5
t75 -160.5q0 -127 -135 -186q75 -27 113.5 -78.5t38.5 -120.5q0 -105 -80 -171t-205 -66z" />
    <glyph glyph-name="acute" unicode="&#xb4;" horiz-adv-x="573" 
d="M262 1161h-117l113 281h229z" />
    <glyph glyph-name="uni00B5" unicode="&#xb5;" horiz-adv-x="1236" 
d="M369 -399h-172v1413h172v-621q0 -137 59.5 -203.5t163.5 -66.5q54 0 97 16.5t71.5 42.5t49 65.5t31.5 76.5t17.5 84.5t8 80.5t1.5 74v451h174v-1014h-172v180q-9 -20 -22.5 -43t-41.5 -54t-62.5 -54.5t-87 -40.5t-111.5 -17q-108 0 -176 47v-417z" />
    <glyph glyph-name="paragraph" unicode="&#xb6;" horiz-adv-x="1318" 
d="M561 1434h653v-142h-153v-1691h-164v1691h-205v-1691h-164v977h-36q-176 0 -301 121.5t-125 297.5q0 103 39 187t107 138t157.5 83t191.5 29z" />
    <glyph glyph-name="periodcentered" unicode="&#xb7;" horiz-adv-x="522" 
d="M381 575h-240v252h240v-252z" />
    <glyph glyph-name="cedilla" unicode="&#xb8;" horiz-adv-x="638" 
d="M319 -436q-79 0 -139 27.5t-96 68.5l76 94q63 -73 151 -73q44 0 71.5 17t27.5 52q0 30 -27.5 48t-65.5 18q-41 0 -73 -13l-56 70l123 129l121 -2l-55 -49q-7 -9 -51 -53q14 2 34 2q77 0 130 -43t53 -117q0 -75 -60 -125.5t-164 -50.5z" />
    <glyph glyph-name="uni00B9" unicode="&#xb9;" horiz-adv-x="575" 
d="M426 805h-150v393v223q-41 -56 -96.5 -86t-111.5 -32v135q164 39 237 182h121v-815z" />
    <glyph glyph-name="ordmasculine" unicode="&#xba;" horiz-adv-x="978" 
d="M489 592q-166 0 -278.5 121t-112.5 309q0 192 112 312t279 120t279.5 -120t112.5 -312q0 -188 -113 -309t-279 -121zM489 725q103 0 162.5 78t59.5 219q0 145 -59.5 222t-162.5 77q-102 0 -161.5 -77t-59.5 -222q0 -140 60 -218.5t161 -78.5z" />
    <glyph glyph-name="guillemotright" unicode="&#xbb;" horiz-adv-x="1069" 
d="M96 954h193l270 -436l-270 -436h-189l269 430zM514 954h195l268 -436l-270 -436h-187l268 428z" />
    <glyph glyph-name="onequarter" unicode="&#xbc;" horiz-adv-x="1697" 
d="M434 618h-149v394v223q-41 -57 -97 -87t-114 -32v135q166 39 239 183h121v-816zM342 0h-180l1020 1434h178zM1509 0h-141v213h-373v113l332 489h182v-477h117v-125h-117v-213zM1303 338h65v96v217l-213 -313h148z" />
    <glyph glyph-name="onehalf" unicode="&#xbd;" horiz-adv-x="1673" 
d="M432 618h-149v394v223q-41 -57 -97 -87t-112 -32v135q164 39 237 183h121v-816zM340 0h-180l1020 1434h178zM1589 0h-565v139q73 45 123.5 79.5t106 79t89.5 83.5t56 85.5t22 92.5q0 66 -33 103.5t-90 37.5q-62 0 -97.5 -47.5t-29.5 -132.5l-153 23q-6 126 73 206t209 80
q126 0 202.5 -71t76.5 -187q0 -115 -88 -227q-84 -103 -274 -211h274h98v-133z" />
    <glyph glyph-name="threequarters" unicode="&#xbe;" horiz-adv-x="1882" 
d="M383 604q-133 0 -215.5 73t-85.5 193l154 31q2 -78 39.5 -123t105.5 -45q58 0 93.5 32t35.5 87q0 56 -39 87.5t-111 31.5h-61v127h61q65 0 100.5 30t35.5 82q0 50 -32 81.5t-83 31.5q-58 0 -92 -41t-33 -111l-156 29q1 110 80 180t201 70q118 0 193 -62.5t75 -160.5
q0 -129 -133 -187q74 -28 113 -79t39 -119q0 -105 -80.5 -171.5t-204.5 -66.5zM526 0h-180l1020 1434h178zM1694 0h-142v213h-372v113l329 489h185v-477h116v-125h-116v-213zM1487 338h65v96v217l-213 -313h148z" />
    <glyph glyph-name="questiondown" unicode="&#xbf;" horiz-adv-x="999" 
d="M416 1143h237v-254h-237v254zM451 698h170q0 -67 -11 -119t-36 -93.5t-53.5 -72t-74.5 -69.5q-47 -42 -73 -67.5t-53.5 -61.5t-39.5 -72.5t-12 -79.5q0 -102 64 -161.5t168 -59.5q121 0 186.5 80t65.5 232l178 -29q0 -209 -115.5 -325.5t-314.5 -116.5
q-181 0 -299.5 102.5t-118.5 271.5q0 112 57 201t187 199q74 63 99.5 112.5t25.5 128.5z" />
    <glyph glyph-name="Agrave" unicode="&#xc0;" horiz-adv-x="1402" 
d="M651 1862l121 -281h-127l-244 281h250zM1362 0h-207l-139 393h-637l-141 -393h-201l541 1434h253zM594 993l-156 -432h516l-153 432q-79 226 -103 287q-10 -25 -24 -64.5t-37 -103.5t-43 -119z" />
    <glyph glyph-name="Aacute" unicode="&#xc1;" horiz-adv-x="1402" 
d="M760 1862h254l-248 -281h-129zM1362 0h-207l-139 393h-637l-141 -393h-201l541 1434h253zM594 993l-156 -432h516l-153 432q-79 226 -103 287q-10 -25 -24 -64.5t-37 -103.5t-43 -119z" />
    <glyph glyph-name="Acircumflex" unicode="&#xc2;" horiz-adv-x="1402" 
d="M891 1581l-189 156l-190 -156h-188l239 250h279l239 -250h-190zM1362 0h-207l-139 393h-637l-141 -393h-201l541 1434h253zM594 993l-156 -432h516l-153 432q-79 226 -103 287q-10 -25 -24 -64.5t-37 -103.5t-43 -119z" />
    <glyph glyph-name="Atilde" unicode="&#xc3;" horiz-adv-x="1402" 
d="M559 1694q-43 0 -66.5 -29t-23.5 -80h-150q0 118 63.5 181t170.5 63q87 0 170 -51l61 -37q66 -39 101 -39q44 0 66 23.5t28 76.5h149q0 -119 -62 -178t-169 -59q-85 0 -174 53l-66 39q-27 16 -38 21.5t-27 10.5t-33 5zM1362 0h-207l-139 393h-637l-141 -393h-201
l541 1434h253zM594 993l-156 -432h516l-153 432q-79 226 -103 287q-10 -25 -24 -64.5t-37 -103.5t-43 -119z" />
    <glyph glyph-name="Adieresis" unicode="&#xc4;" horiz-adv-x="1402" 
d="M381 1784h209v-203h-209v203zM815 1784h207v-203h-207v203zM1362 0h-207l-139 393h-637l-141 -393h-201l541 1434h253zM594 993l-156 -432h516l-153 432q-79 226 -103 287q-10 -25 -24 -64.5t-37 -103.5t-43 -119z" />
    <glyph glyph-name="Aring" unicode="&#xc5;" horiz-adv-x="1402" 
d="M705 1554q-103 0 -174.5 70t-71.5 174q0 98 72 166t174 68q99 0 170 -69t71 -171q0 -101 -70.5 -169.5t-170.5 -68.5zM705 1917q-52 0 -87.5 -35.5t-35.5 -83.5q0 -55 34.5 -93t88.5 -38q49 0 83.5 37.5t34.5 87.5q0 52 -34 88.5t-84 36.5zM1362 0h-207l-139 393h-637
l-141 -393h-201l541 1434h253zM594 993l-156 -432h516l-153 432q-79 226 -103 287q-10 -25 -24 -64.5t-37 -103.5t-43 -119z" />
    <glyph glyph-name="AE" unicode="&#xc6;" horiz-adv-x="1892" 
d="M1788 1434v-170h-698v-426h518v-166h-518v-502h698v-170h-881v401h-493l-224 -401h-221l836 1434h983zM907 569v363v352q-28 -53 -207 -371l-192 -344h399z" />
    <glyph glyph-name="Ccedilla" unicode="&#xc7;" horiz-adv-x="1505" 
d="M895 -25l-27 -24q-16 -18 -51 -53q12 2 35 2q76 0 129 -43t53 -117q0 -75 -60.5 -125.5t-162.5 -50.5q-79 0 -140.5 27.5t-95.5 68.5l74 94q68 -73 152 -73q100 0 100 69q0 30 -27.5 48t-64.5 18q-39 0 -76 -13l-53 70l92 98q-156 6 -282.5 68t-209 164.5t-127 238
t-44.5 289.5q0 208 85.5 374t244.5 261.5t364 95.5q107 0 201.5 -26t162.5 -68t122 -98.5t86.5 -113.5t49.5 -116l-184 -67q-14 43 -34 83t-56.5 85t-82.5 77.5t-115 54t-150 21.5q-227 0 -362.5 -151t-135.5 -410q0 -263 136.5 -428.5t361.5 -165.5q80 0 146.5 18.5t113 49
t84 75.5t61 91.5t41.5 103.5l181 -69q-51 -168 -187 -288t-348 -145z" />
    <glyph glyph-name="Egrave" unicode="&#xc8;" horiz-adv-x="1314" 
d="M780 1581h-127l-245 281h249zM1214 0h-1003v1434h1003v-170h-819v-437h609v-168h-609v-489h819v-170z" />
    <glyph glyph-name="Eacute" unicode="&#xc9;" horiz-adv-x="1314" 
d="M772 1581h-127l123 281h254zM1214 0h-1003v1434h1003v-170h-819v-437h609v-168h-609v-489h819v-170z" />
    <glyph glyph-name="Ecircumflex" unicode="&#xca;" horiz-adv-x="1314" 
d="M520 1581h-188l239 250h277l239 -250h-188l-188 156zM1214 0h-1003v1434h1003v-170h-819v-437h609v-168h-609v-489h819v-170z" />
    <glyph glyph-name="Edieresis" unicode="&#xcb;" horiz-adv-x="1314" 
d="M598 1581h-209v203h209v-203zM1028 1581h-205v203h205v-203zM1214 0h-1003v1434h1003v-170h-819v-437h609v-168h-609v-489h819v-170z" />
    <glyph glyph-name="Igrave" unicode="&#xcc;" horiz-adv-x="606" 
d="M371 1581h-127l-246 281h250zM395 0h-184v1434h184v-1434z" />
    <glyph glyph-name="Iacute" unicode="&#xcd;" horiz-adv-x="606" 
d="M365 1581h-127l120 281h254zM395 0h-184v1434h184v-1434z" />
    <glyph glyph-name="Icircumflex" unicode="&#xce;" horiz-adv-x="606" 
d="M113 1581h-191l240 250h278l240 -250h-188l-191 156zM395 0h-184v1434h184v-1434z" />
    <glyph glyph-name="Idieresis" unicode="&#xcf;" horiz-adv-x="606" 
d="M186 1581h-206v203h206v-203zM618 1581h-204v203h204v-203zM395 0h-184v1434h184v-1434z" />
    <glyph glyph-name="Eth" unicode="&#xd0;" horiz-adv-x="1511" 
d="M223 1434h482q205 0 362.5 -87.5t244.5 -250t87 -375.5q0 -334 -188.5 -527.5t-514.5 -193.5h-473v672h-162v147h162v615zM408 170h260q269 0 403.5 140t134.5 411q0 253 -134 398t-392 145h-272v-445h321v-147h-321v-502z" />
    <glyph glyph-name="Ntilde" unicode="&#xd1;" horiz-adv-x="1644" 
d="M1024 1565q-88 0 -174 53l-66 39q-27 16 -38 21.5t-27 10.5t-33 5q-43 0 -66.5 -29t-23.5 -80h-150q-1 118 62.5 181t169.5 63q89 0 172 -51l61 -37q66 -39 101 -39q43 0 65.5 24t28.5 76h149q0 -119 -62 -178t-169 -59zM395 0h-184v1434h248l792 -1125v320v805h185
v-1434h-187l-854 1212v-362v-850z" />
    <glyph glyph-name="Ograve" unicode="&#xd2;" horiz-adv-x="1640" 
d="M891 1581h-129l-244 281h250zM821 -29q-152 0 -284 54.5t-227 151.5t-149.5 236.5t-54.5 303.5q0 163 55 303t150 236.5t227 151t283 54.5q203 0 364.5 -93t254 -263.5t92.5 -388.5q0 -164 -54 -303.5t-148.5 -236.5t-225.5 -151.5t-283 -54.5zM821 139q155 0 273.5 76
t180.5 207t62 295q0 165 -62 295.5t-180.5 206t-273.5 75.5q-235 0 -375.5 -162.5t-140.5 -414.5q0 -164 61.5 -295t180 -207t274.5 -76z" />
    <glyph glyph-name="Oacute" unicode="&#xd3;" horiz-adv-x="1640" 
d="M885 1581h-127l121 281h254zM821 -29q-152 0 -284 54.5t-227 151.5t-149.5 236.5t-54.5 303.5q0 163 55 303t150 236.5t227 151t283 54.5q203 0 364.5 -93t254 -263.5t92.5 -388.5q0 -164 -54 -303.5t-148.5 -236.5t-225.5 -151.5t-283 -54.5zM821 139q155 0 273.5 76
t180.5 207t62 295q0 165 -62 295.5t-180.5 206t-273.5 75.5q-235 0 -375.5 -162.5t-140.5 -414.5q0 -164 61.5 -295t180 -207t274.5 -76z" />
    <glyph glyph-name="Ocircumflex" unicode="&#xd4;" horiz-adv-x="1640" 
d="M631 1581h-189l240 250h279l239 -250h-190l-189 156zM821 -29q-152 0 -284 54.5t-227 151.5t-149.5 236.5t-54.5 303.5q0 163 55 303t150 236.5t227 151t283 54.5q203 0 364.5 -93t254 -263.5t92.5 -388.5q0 -164 -54 -303.5t-148.5 -236.5t-225.5 -151.5t-283 -54.5z
M821 139q155 0 273.5 76t180.5 207t62 295q0 165 -62 295.5t-180.5 206t-273.5 75.5q-235 0 -375.5 -162.5t-140.5 -414.5q0 -164 61.5 -295t180 -207t274.5 -76z" />
    <glyph glyph-name="Otilde" unicode="&#xd5;" horiz-adv-x="1640" 
d="M1014 1565q-85 0 -174 53l-66 39q-34 21 -54 29t-44 8q-42 0 -65 -29t-23 -80h-150q-1 118 62.5 181t169.5 63q89 0 172 -51l61 -37q63 -39 101 -39q43 0 65.5 24t26.5 76h151q0 -119 -62.5 -178t-170.5 -59zM821 -29q-152 0 -284 54.5t-227 151.5t-149.5 236.5
t-54.5 303.5q0 163 55 303t150 236.5t227 151t283 54.5q203 0 364.5 -93t254 -263.5t92.5 -388.5q0 -164 -54 -303.5t-148.5 -236.5t-225.5 -151.5t-283 -54.5zM821 139q155 0 273.5 76t180.5 207t62 295q0 165 -62 295.5t-180.5 206t-273.5 75.5q-235 0 -375.5 -162.5
t-140.5 -414.5q0 -164 61.5 -295t180 -207t274.5 -76z" />
    <glyph glyph-name="Odieresis" unicode="&#xd6;" horiz-adv-x="1640" 
d="M707 1581h-207v203h207v-203zM1139 1581h-207v203h207v-203zM821 -29q-152 0 -284 54.5t-227 151.5t-149.5 236.5t-54.5 303.5q0 163 55 303t150 236.5t227 151t283 54.5q203 0 364.5 -93t254 -263.5t92.5 -388.5q0 -164 -54 -303.5t-148.5 -236.5t-225.5 -151.5
t-283 -54.5zM821 139q155 0 273.5 76t180.5 207t62 295q0 165 -62 295.5t-180.5 206t-273.5 75.5q-235 0 -375.5 -162.5t-140.5 -414.5q0 -164 61.5 -295t180 -207t274.5 -76z" />
    <glyph glyph-name="multiply" unicode="&#xd7;" horiz-adv-x="1234" 
d="M616 606l-374 -373l-115 113l377 375l-377 373l117 116l377 -372l370 370l115 -112l-371 -371l373 -377l-119 -117z" />
    <glyph glyph-name="Oslash" unicode="&#xd8;" horiz-adv-x="1648" 
d="M424 88l-125 -154l-129 103l129 158q-190 209 -190 522q0 164 54.5 303.5t149.5 236t226.5 151t283.5 54.5q227 0 404 -119l127 158l131 -106l-133 -162q182 -204 182 -516q0 -218 -92.5 -389.5t-254.5 -265t-364 -93.5q-222 0 -399 119zM416 342l510 631
q185 229 188 233q-133 88 -293 88q-155 0 -273.5 -75.5t-180.5 -206t-62 -295.5q0 -221 111 -375zM821 139q156 0 274.5 76t180 206.5t61.5 295.5q0 215 -104 368l-494 -608q-30 -36 -97.5 -121.5t-104.5 -130.5q127 -86 284 -86z" />
    <glyph glyph-name="Ugrave" unicode="&#xd9;" horiz-adv-x="1470" 
d="M809 1581h-127l-246 281h250zM735 -29q-258 0 -401.5 146t-143.5 432v885h185v-856q0 -207 89.5 -321t270.5 -114q182 0 271.5 114.5t89.5 320.5v856h184v-885q0 -278 -140.5 -428t-404.5 -150z" />
    <glyph glyph-name="Uacute" unicode="&#xda;" horiz-adv-x="1470" 
d="M801 1581h-127l123 281h254zM735 -29q-258 0 -401.5 146t-143.5 432v885h185v-856q0 -207 89.5 -321t270.5 -114q182 0 271.5 114.5t89.5 320.5v856h184v-885q0 -278 -140.5 -428t-404.5 -150z" />
    <glyph glyph-name="Ucircumflex" unicode="&#xdb;" horiz-adv-x="1470" 
d="M549 1581h-189l240 250h277l239 -250h-188l-189 156zM735 -29q-258 0 -401.5 146t-143.5 432v885h185v-856q0 -207 89.5 -321t270.5 -114q182 0 271.5 114.5t89.5 320.5v856h184v-885q0 -278 -140.5 -428t-404.5 -150z" />
    <glyph glyph-name="Udieresis" unicode="&#xdc;" horiz-adv-x="1470" 
d="M627 1581h-209v203h209v-203zM1057 1581h-205v203h205v-203zM735 -29q-258 0 -401.5 146t-143.5 432v885h185v-856q0 -207 89.5 -321t270.5 -114q182 0 271.5 114.5t89.5 320.5v856h184v-885q0 -278 -140.5 -428t-404.5 -150z" />
    <glyph glyph-name="Yacute" unicode="&#xdd;" horiz-adv-x="1320" 
d="M729 1581h-127l121 281h254zM756 0h-185v606l-518 828h221l277 -457l115 -191q10 15 27.5 45t42.5 73.5t42 72.5l262 457h220l-504 -822v-612z" />
    <glyph glyph-name="Thorn" unicode="&#xde;" horiz-adv-x="1370" 
d="M395 1169h412q204 0 337.5 -120.5t133.5 -309.5q0 -185 -135 -309.5t-338 -124.5h-410v-305h-184v1434h184v-265zM395 475h381q147 0 227 72.5t80 191.5t-79 190.5t-228 71.5h-381v-526z" />
    <glyph glyph-name="germandbls" unicode="&#xdf;" horiz-adv-x="1222" 
d="M670 -16q-74 0 -156 16v156q88 -15 133 -15q138 0 218.5 71.5t80.5 197.5t-91 199t-224 73h-88v147h53q117 0 193.5 69t76.5 185q0 106 -71.5 168t-180.5 62q-125 0 -196.5 -80t-71.5 -213v-1020h-172v1022q0 205 119.5 322.5t324.5 117.5q193 0 307.5 -99.5
t114.5 -256.5q0 -126 -68 -212t-167 -120q139 -33 232 -132.5t93 -248.5q0 -193 -126.5 -301t-333.5 -108z" />
    <glyph glyph-name="agrave" unicode="&#xe0;" horiz-adv-x="1107" 
d="M588 1161h-115l-223 281h227zM430 -29q-148 0 -236 77t-88 210q0 352 646 404v34q0 94 -55.5 146.5t-170.5 52.5q-209 0 -272 -186l-168 55q13 52 46 100t86 88.5t132.5 65t175.5 24.5q199 0 298.5 -94t99.5 -258v-473q0 -39 14.5 -53t52.5 -14h101v-150h-138
q-99 0 -138.5 40.5t-47.5 123.5q-115 -193 -338 -193zM475 115q53 0 101 18.5t88 54.5t64 97.5t24 140.5v109q-467 -46 -467 -263q0 -73 49 -115t141 -42z" />
    <glyph glyph-name="aacute" unicode="&#xe1;" horiz-adv-x="1107" 
d="M588 1161h-115l111 281h231zM430 -29q-148 0 -236 77t-88 210q0 352 646 404v34q0 94 -55.5 146.5t-170.5 52.5q-209 0 -272 -186l-168 55q13 52 46 100t86 88.5t132.5 65t175.5 24.5q199 0 298.5 -94t99.5 -258v-473q0 -39 14.5 -53t52.5 -14h101v-150h-138
q-99 0 -138.5 40.5t-47.5 123.5q-115 -193 -338 -193zM475 115q53 0 101 18.5t88 54.5t64 97.5t24 140.5v109q-467 -46 -467 -263q0 -73 49 -115t141 -42z" />
    <glyph glyph-name="acircumflex" unicode="&#xe2;" horiz-adv-x="1107" 
d="M358 1161h-172l217 250h254l217 -250h-172l-172 156zM430 -29q-148 0 -236 77t-88 210q0 352 646 404v34q0 94 -55.5 146.5t-170.5 52.5q-209 0 -272 -186l-168 55q13 52 46 100t86 88.5t132.5 65t175.5 24.5q199 0 298.5 -94t99.5 -258v-473q0 -39 14.5 -53t52.5 -14
h101v-150h-138q-99 0 -138.5 40.5t-47.5 123.5q-115 -193 -338 -193zM475 115q53 0 101 18.5t88 54.5t64 97.5t24 140.5v109q-467 -46 -467 -263q0 -73 49 -115t141 -42z" />
    <glyph glyph-name="atilde" unicode="&#xe3;" horiz-adv-x="1107" 
d="M690 1167q-78 0 -160 54l-59 39q-53 36 -88 36q-39 0 -60.5 -28.5t-21.5 -79.5h-137q0 120 57 182t154 62q80 0 157 -52l56 -37q58 -38 92 -38q39 0 59.5 24t24.5 76h137q0 -119 -56.5 -178.5t-154.5 -59.5zM430 -29q-148 0 -236 77t-88 210q0 352 646 404v34
q0 94 -55.5 146.5t-170.5 52.5q-209 0 -272 -186l-168 55q13 52 46 100t86 88.5t132.5 65t175.5 24.5q199 0 298.5 -94t99.5 -258v-473q0 -39 14.5 -53t52.5 -14h101v-150h-138q-99 0 -138.5 40.5t-47.5 123.5q-115 -193 -338 -193zM475 115q53 0 101 18.5t88 54.5t64 97.5
t24 140.5v109q-467 -46 -467 -263q0 -73 49 -115t141 -42z" />
    <glyph glyph-name="adieresis" unicode="&#xe4;" horiz-adv-x="1107" 
d="M428 1208h-188v201h188v-201zM821 1208h-188v201h188v-201zM430 -29q-148 0 -236 77t-88 210q0 352 646 404v34q0 94 -55.5 146.5t-170.5 52.5q-209 0 -272 -186l-168 55q13 52 46 100t86 88.5t132.5 65t175.5 24.5q199 0 298.5 -94t99.5 -258v-473q0 -39 14.5 -53
t52.5 -14h101v-150h-138q-99 0 -138.5 40.5t-47.5 123.5q-115 -193 -338 -193zM475 115q53 0 101 18.5t88 54.5t64 97.5t24 140.5v109q-467 -46 -467 -263q0 -73 49 -115t141 -42z" />
    <glyph glyph-name="aring" unicode="&#xe5;" horiz-adv-x="1107" 
d="M532 1124q-98 0 -164.5 67t-66.5 165q0 94 67 158.5t164 64.5q95 0 162.5 -65.5t67.5 -161.5q0 -97 -67.5 -162.5t-162.5 -65.5zM532 1233q47 0 80 35.5t33 83.5q0 49 -33 83.5t-80 34.5q-49 0 -81.5 -33.5t-32.5 -80.5q0 -52 31.5 -87.5t82.5 -35.5zM430 -29
q-148 0 -236 77t-88 210q0 352 646 404v34q0 94 -55.5 146.5t-170.5 52.5q-209 0 -272 -186l-168 55q13 52 46 100t86 88.5t132.5 65t175.5 24.5q199 0 298.5 -94t99.5 -258v-473q0 -39 14.5 -53t52.5 -14h101v-150h-138q-99 0 -138.5 40.5t-47.5 123.5q-115 -193 -338 -193
zM475 115q53 0 101 18.5t88 54.5t64 97.5t24 140.5v109q-467 -46 -467 -263q0 -73 49 -115t141 -42z" />
    <glyph glyph-name="ae" unicode="&#xe6;" horiz-adv-x="1738" 
d="M440 -29q-158 0 -246 77t-88 212q0 79 35 143.5t93.5 108t143 75.5t175.5 49.5t199 25.5v32q0 95 -56.5 148t-171.5 53q-205 0 -272 -186l-162 53q15 53 47.5 100.5t83 89t126.5 66t167 24.5q132 0 219.5 -51t126.5 -135q42 84 135 135t197 51q146 0 253.5 -77
t155.5 -208t31 -290h-723q3 -94 29 -164t68.5 -109t91 -57t104.5 -18q194 0 279 200l159 -57q-53 -138 -168.5 -214.5t-273.5 -76.5q-138 0 -240.5 67.5t-140.5 162.5q-44 -101 -143 -165.5t-234 -64.5zM915 602h541q-1 144 -77 222.5t-189 78.5q-110 0 -188 -82.5
t-87 -218.5zM475 115q113 0 195 79.5t82 233.5v107q-467 -36 -467 -263q0 -73 48 -115t142 -42z" />
    <glyph glyph-name="ccedilla" unicode="&#xe7;" horiz-adv-x="1085" 
d="M643 -25l-27 -24q-27 -30 -53 -53q14 2 35 2q77 0 130.5 -43t53.5 -117q0 -75 -60.5 -125.5t-162.5 -50.5q-80 0 -140.5 27.5t-94.5 68.5l73 94q68 -73 152 -73q98 0 98 69q0 30 -27 48t-65 18q-41 0 -74 -13l-53 70l94 100q-195 20 -311.5 164t-116.5 371
q0 234 136.5 384t347.5 150q163 0 273 -83t148 -209l-161 -56q-29 87 -94.5 142t-168.5 55q-129 0 -214 -99.5t-85 -283.5q0 -187 84.5 -286t217.5 -99q211 0 280 227l164 -57q-44 -131 -141.5 -216t-237.5 -102z" />
    <glyph glyph-name="egrave" unicode="&#xe8;" horiz-adv-x="1097" 
d="M608 1161h-114l-224 281h228zM559 -29q-213 0 -338 140t-125 397q0 242 129 388t326 146q146 0 253.5 -75t156.5 -206t32 -294h-723q6 -182 89 -265t206 -83q59 0 108 19.5t81 52t52 63.5t34 65l159 -57q-53 -138 -167.5 -214.5t-272.5 -76.5zM274 606h543
q-1 141 -77.5 219t-188.5 78q-110 0 -188.5 -81.5t-88.5 -215.5z" />
    <glyph glyph-name="eacute" unicode="&#xe9;" horiz-adv-x="1097" 
d="M612 1161h-116l110 281h232zM559 -29q-213 0 -338 140t-125 397q0 242 129 388t326 146q146 0 253.5 -75t156.5 -206t32 -294h-723q6 -182 89 -265t206 -83q59 0 108 19.5t81 52t52 63.5t34 65l159 -57q-53 -138 -167.5 -214.5t-272.5 -76.5zM274 606h543
q-1 141 -77.5 219t-188.5 78q-110 0 -188.5 -81.5t-88.5 -215.5z" />
    <glyph glyph-name="ecircumflex" unicode="&#xea;" horiz-adv-x="1097" 
d="M381 1161h-172l217 250h254l217 -250h-172l-172 156zM559 -29q-213 0 -338 140t-125 397q0 242 129 388t326 146q146 0 253.5 -75t156.5 -206t32 -294h-723q6 -182 89 -265t206 -83q59 0 108 19.5t81 52t52 63.5t34 65l159 -57q-53 -138 -167.5 -214.5t-272.5 -76.5z
M274 606h543q-1 141 -77.5 219t-188.5 78q-110 0 -188.5 -81.5t-88.5 -215.5z" />
    <glyph glyph-name="edieresis" unicode="&#xeb;" horiz-adv-x="1097" 
d="M451 1208h-189v201h189v-201zM844 1208h-189v201h189v-201zM559 -29q-213 0 -338 140t-125 397q0 242 129 388t326 146q146 0 253.5 -75t156.5 -206t32 -294h-723q6 -182 89 -265t206 -83q59 0 108 19.5t81 52t52 63.5t34 65l159 -57q-53 -138 -167.5 -214.5
t-272.5 -76.5zM274 606h543q-1 141 -77.5 219t-188.5 78q-110 0 -188.5 -81.5t-88.5 -215.5z" />
    <glyph glyph-name="igrave" unicode="&#xec;" horiz-adv-x="518" 
d="M315 1161h-114l-224 281h228zM346 0h-172v1014h172v-1014z" />
    <glyph glyph-name="iacute" unicode="&#xed;" horiz-adv-x="518" 
d="M311 1161h-116l110 281h232zM340 0h-174v1014h174v-1014z" />
    <glyph glyph-name="icircumflex" unicode="&#xee;" horiz-adv-x="518" 
d="M88 1161h-172l217 250h254l217 -250h-172l-172 156zM346 0h-172v1014h172v-1014z" />
    <glyph glyph-name="idieresis" unicode="&#xef;" horiz-adv-x="518" 
d="M158 1208h-189v201h189v-201zM551 1208h-189v201h189v-201zM346 0h-172v1014h172v-1014z" />
    <glyph glyph-name="eth" unicode="&#xf0;" horiz-adv-x="1171" 
d="M1004 1376l-138 -114q185 -221 185 -596q0 -339 -133.5 -517t-362.5 -178q-112 0 -201 39t-144 107t-83.5 155t-28.5 187q0 93 27.5 176t79 147.5t132.5 102t181 37.5q125 0 226 -67t139 -181q3 306 -142 481l-166 -141l-75 98l147 125q-109 74 -260 74q-119 0 -221 -39
v149q109 41 250 41q210 0 362 -114l144 120zM555 123q128 0 203.5 87t75.5 236q0 152 -75.5 240t-203.5 88t-202 -88t-74 -240q0 -149 74 -236t202 -87z" />
    <glyph glyph-name="ntilde" unicode="&#xf1;" horiz-adv-x="1189" 
d="M764 1167q-76 0 -158 54l-59 39q-33 21 -50 28.5t-40 7.5q-39 0 -60 -28.5t-20 -79.5h-137q0 120 57 182t154 62q78 0 155 -52l56 -37q58 -38 92 -38q40 0 60 23.5t26 76.5h135q0 -119 -56.5 -178.5t-154.5 -59.5zM346 0h-172v1014h168v-178q8 24 30.5 55t61.5 67
t103.5 60t140.5 24q181 0 267.5 -103.5t86.5 -281.5v-657h-174v616q0 140 -59.5 207.5t-169.5 67.5q-56 0 -100.5 -17.5t-73.5 -44t-50.5 -67t-32.5 -77.5t-17 -85t-7.5 -79.5t-1.5 -71.5v-449z" />
    <glyph glyph-name="ograve" unicode="&#xf2;" horiz-adv-x="1144" 
d="M629 1161h-117l-221 281h227zM573 -29q-99 0 -187.5 40t-153 109.5t-102.5 170t-38 215.5q0 234 137.5 385t343.5 151q204 0 341 -151t137 -385t-138.5 -384.5t-339.5 -150.5zM573 123q133 0 215 97t82 284t-82 287t-215 100q-134 0 -216.5 -100t-82.5 -287t82 -284
t217 -97z" />
    <glyph glyph-name="oacute" unicode="&#xf3;" horiz-adv-x="1144" 
d="M631 1161h-117l111 281h231zM573 -29q-99 0 -187.5 40t-153 109.5t-102.5 170t-38 215.5q0 234 137.5 385t343.5 151q204 0 341 -151t137 -385t-138.5 -384.5t-339.5 -150.5zM573 123q133 0 215 97t82 284t-82 287t-215 100q-134 0 -216.5 -100t-82.5 -287t82 -284
t217 -97z" />
    <glyph glyph-name="ocircumflex" unicode="&#xf4;" horiz-adv-x="1144" 
d="M399 1161h-170l217 250h252l217 -250h-170l-172 156zM573 -29q-99 0 -187.5 40t-153 109.5t-102.5 170t-38 215.5q0 234 137.5 385t343.5 151q204 0 341 -151t137 -385t-138.5 -384.5t-339.5 -150.5zM573 123q133 0 215 97t82 284t-82 287t-215 100q-134 0 -216.5 -100
t-82.5 -287t82 -284t217 -97z" />
    <glyph glyph-name="otilde" unicode="&#xf5;" horiz-adv-x="1144" 
d="M729 1167q-76 0 -158 54l-59 39q-33 21 -50 28.5t-40 7.5q-38 0 -59 -28.5t-21 -79.5h-137q0 120 57 182t154 62q78 0 155 -52l58 -37q58 -38 90 -38q40 0 60 23.5t26 76.5h135q0 -119 -56.5 -178.5t-154.5 -59.5zM573 -29q-99 0 -187.5 40t-153 109.5t-102.5 170
t-38 215.5q0 234 137.5 385t343.5 151q204 0 341 -151t137 -385t-138.5 -384.5t-339.5 -150.5zM573 123q133 0 215 97t82 284t-82 287t-215 100q-134 0 -216.5 -100t-82.5 -287t82 -284t217 -97z" />
    <glyph glyph-name="odieresis" unicode="&#xf6;" horiz-adv-x="1144" 
d="M469 1208h-188v201h188v-201zM862 1208h-186v201h186v-201zM573 -29q-99 0 -187.5 40t-153 109.5t-102.5 170t-38 215.5q0 234 137.5 385t343.5 151q204 0 341 -151t137 -385t-138.5 -384.5t-339.5 -150.5zM573 123q133 0 215 97t82 284t-82 287t-215 100
q-134 0 -216.5 -100t-82.5 -287t82 -284t217 -97z" />
    <glyph glyph-name="divide" unicode="&#xf7;" horiz-adv-x="1351" 
d="M797 1016h-240v250h240v-250zM1225 639h-1098v168h1098v-168zM797 180h-240v252h240v-252z" />
    <glyph glyph-name="oslash" unicode="&#xf8;" horiz-adv-x="1159" 
d="M580 -29q-152 0 -277 95l-78 -101l-100 78l90 111q-113 141 -113 352q0 234 137 385t341 151q160 0 280 -94l78 94l96 -75l-86 -107q111 -146 111 -354q0 -234 -138 -384.5t-341 -150.5zM326 289l327 405q97 119 109 133q-76 64 -182 64q-133 0 -215 -100t-82 -287
q0 -127 43 -215zM582 123q133 0 215 97t82 284q0 127 -45 219l-308 -385q-123 -152 -125 -154q67 -61 181 -61z" />
    <glyph glyph-name="ugrave" unicode="&#xf9;" horiz-adv-x="1177" 
d="M637 1161h-117l-223 281h227zM496 -29q-169 0 -253.5 103t-84.5 280v660h174v-619q0 -270 223 -270q276 0 276 436v453h175v-1014h-170v182q-12 -24 -26.5 -45.5t-45 -53.5t-65 -55t-88.5 -40t-115 -17z" />
    <glyph glyph-name="uacute" unicode="&#xfa;" horiz-adv-x="1177" 
d="M639 1161h-117l111 281h231zM496 -29q-169 0 -253.5 103t-84.5 280v660h174v-619q0 -270 223 -270q276 0 276 436v453h175v-1014h-170v182q-12 -24 -26.5 -45.5t-45 -53.5t-65 -55t-88.5 -40t-115 -17z" />
    <glyph glyph-name="ucircumflex" unicode="&#xfb;" horiz-adv-x="1177" 
d="M408 1161h-172l219 250h252l217 -250h-172l-172 156zM496 -29q-169 0 -253.5 103t-84.5 280v660h174v-619q0 -270 223 -270q276 0 276 436v453h175v-1014h-170v182q-12 -24 -26.5 -45.5t-45 -53.5t-65 -55t-88.5 -40t-115 -17z" />
    <glyph glyph-name="udieresis" unicode="&#xfc;" horiz-adv-x="1177" 
d="M477 1208h-188v201h188v-201zM870 1208h-188v201h188v-201zM496 -29q-169 0 -253.5 103t-84.5 280v660h174v-619q0 -270 223 -270q276 0 276 436v453h175v-1014h-170v182q-12 -24 -26.5 -45.5t-45 -53.5t-65 -55t-88.5 -40t-115 -17z" />
    <glyph glyph-name="yacute" unicode="&#xfd;" horiz-adv-x="1038" 
d="M561 1442h230l-226 -281h-114zM616 467l185 547h184l-405 -1159q-48 -143 -115.5 -198.5t-200.5 -55.5h-196v155h192q61 0 95.5 22.5t58.5 86.5l53 153l-447 996h193l223 -529q96 -224 103 -245q4 12 77 227z" />
    <glyph glyph-name="thorn" unicode="&#xfe;" horiz-adv-x="1187" 
d="M346 -399h-172v1833h172v-390v-192q43 80 123.5 135t206.5 55q180 0 298 -143.5t118 -390.5q0 -248 -118 -392.5t-298 -144.5q-123 0 -204.5 56t-125.5 137v-195v-368zM627 121q130 0 207 93.5t77 293.5q0 202 -76.5 293.5t-207.5 91.5q-130 0 -209.5 -98t-79.5 -287
q0 -188 79.5 -287.5t209.5 -99.5z" />
    <glyph glyph-name="ydieresis" unicode="&#xff;" horiz-adv-x="1038" 
d="M215 1409h191v-201h-191v201zM610 1409h187v-201h-187v201zM616 467l185 547h184l-405 -1159q-48 -143 -115.5 -198.5t-200.5 -55.5h-196v155h192q61 0 95.5 22.5t58.5 86.5l53 153l-447 996h193l223 -529q96 -224 103 -245q4 12 77 227z" />
    <glyph glyph-name="Amacron" unicode="&#x100;" horiz-adv-x="1402" 
d="M362 1757h687v-133h-687v133zM1362 0h-207l-139 393h-637l-141 -393h-201l541 1434h253zM594 993l-156 -432h516l-153 432q-79 226 -103 287q-10 -25 -24 -64.5t-37 -103.5t-43 -119z" />
    <glyph glyph-name="amacron" unicode="&#x101;" horiz-adv-x="1107" 
d="M842 1212h-623v134h623v-134zM430 -29q-148 0 -236 77t-88 210q0 352 646 404v34q0 94 -55.5 146.5t-170.5 52.5q-209 0 -272 -186l-168 55q13 52 46 100t86 88.5t132.5 65t175.5 24.5q199 0 298.5 -94t99.5 -258v-473q0 -39 14.5 -53t52.5 -14h101v-150h-138
q-99 0 -138.5 40.5t-47.5 123.5q-115 -193 -338 -193zM475 115q53 0 101 18.5t88 54.5t64 97.5t24 140.5v109q-467 -46 -467 -263q0 -73 49 -115t141 -42z" />
    <glyph glyph-name="Abreve" unicode="&#x102;" horiz-adv-x="1402" 
d="M700 1561q-82 0 -146.5 23t-103 61.5t-58.5 86t-21 99.5h159q6 -64 51 -103.5t119 -39.5t118 39.5t50 103.5h162q-2 -52 -22.5 -99.5t-59 -86t-103 -61.5t-145.5 -23zM1362 0h-207l-139 393h-637l-141 -393h-201l541 1434h253zM594 993l-156 -432h516l-153 432
q-79 226 -103 287q-10 -25 -24 -64.5t-37 -103.5t-43 -119z" />
    <glyph glyph-name="abreve" unicode="&#x103;" horiz-adv-x="1107" 
d="M530 1141q-145 0 -221 79t-78 191h146q5 -63 45.5 -103t107.5 -40q68 0 108.5 39.5t45.5 103.5h145q-2 -112 -78 -191t-221 -79zM430 -29q-148 0 -236 77t-88 210q0 352 646 404v34q0 94 -55.5 146.5t-170.5 52.5q-209 0 -272 -186l-168 55q13 52 46 100t86 88.5
t132.5 65t175.5 24.5q199 0 298.5 -94t99.5 -258v-473q0 -39 14.5 -53t52.5 -14h101v-150h-138q-99 0 -138.5 40.5t-47.5 123.5q-115 -193 -338 -193zM475 115q53 0 101 18.5t88 54.5t64 97.5t24 140.5v109q-467 -46 -467 -263q0 -73 49 -115t141 -42z" />
    <glyph glyph-name="Aogonek" unicode="&#x104;" horiz-adv-x="1402" 
d="M1153 -193q0 -86 119 -86q18 0 90 13v-133q-62 -19 -113 -19q-108 0 -172.5 46t-64.5 134q0 139 168 238h-25l-139 393h-637l-141 -393h-201l541 1434h253l531 -1434q-209 -84 -209 -193zM594 993l-156 -432h516l-153 432q-79 226 -103 287q-10 -25 -24 -64.5t-37 -103.5
t-43 -119z" />
    <glyph glyph-name="aogonek" unicode="&#x105;" horiz-adv-x="1107" 
d="M1092 150v-150q-209 -84 -209 -193q0 -86 121 -86q17 0 88 13v-133q-62 -19 -113 -19q-108 0 -172 46t-64 134q0 141 170 240q-75 8 -106.5 48.5t-38.5 113.5q-115 -193 -338 -193q-148 0 -236 77t-88 210q0 352 646 404v34q0 94 -55.5 146.5t-170.5 52.5
q-209 0 -272 -186l-168 55q13 52 46 100t86 88.5t132.5 65t175.5 24.5q199 0 298.5 -94t99.5 -258v-473q0 -39 14.5 -53t52.5 -14h101zM752 426v109q-467 -46 -467 -263q0 -73 49 -115t141 -42q53 0 101 18.5t88 54.5t64 97.5t24 140.5z" />
    <glyph glyph-name="Cacute" unicode="&#x106;" horiz-adv-x="1505" 
d="M877 1581h-129l122 281h254zM803 -29q-130 0 -242 38.5t-194.5 108t-141 164.5t-87.5 209t-29 240q0 208 85.5 374t244.5 261.5t364 95.5q107 0 201.5 -26t162.5 -68t122 -98.5t86.5 -113.5t49.5 -116l-184 -67q-14 43 -34 83t-56.5 85t-82.5 77.5t-115 54t-150 21.5
q-227 0 -362.5 -151t-135.5 -410q0 -263 136.5 -428.5t361.5 -165.5q80 0 146.5 18.5t113 49t84 75.5t61 91.5t41.5 103.5l181 -69q-27 -88 -78.5 -164.5t-127 -138.5t-184 -98t-237.5 -36z" />
    <glyph glyph-name="cacute" unicode="&#x107;" horiz-adv-x="1085" 
d="M635 1161h-115l111 281h231zM580 -29q-219 0 -352.5 146t-133.5 391q0 234 136.5 384t347.5 150q163 0 273 -83t148 -209l-161 -56q-29 87 -94.5 142t-168.5 55q-129 0 -214 -99.5t-85 -283.5q0 -187 84.5 -286t217.5 -99q211 0 280 227l164 -57q-49 -146 -163.5 -234
t-278.5 -88z" />
    <glyph glyph-name="Ccircumflex" unicode="&#x108;" horiz-adv-x="1505" 
d="M623 1581h-189l240 250h276l240 -250h-189l-188 156zM803 -29q-130 0 -242 38.5t-194.5 108t-141 164.5t-87.5 209t-29 240q0 208 85.5 374t244.5 261.5t364 95.5q107 0 201.5 -26t162.5 -68t122 -98.5t86.5 -113.5t49.5 -116l-184 -67q-14 43 -34 83t-56.5 85
t-82.5 77.5t-115 54t-150 21.5q-227 0 -362.5 -151t-135.5 -410q0 -263 136.5 -428.5t361.5 -165.5q80 0 146.5 18.5t113 49t84 75.5t61 91.5t41.5 103.5l181 -69q-27 -88 -78.5 -164.5t-127 -138.5t-184 -98t-237.5 -36z" />
    <glyph glyph-name="ccircumflex" unicode="&#x109;" horiz-adv-x="1085" 
d="M406 1161h-173l218 250h254l217 -250h-172l-172 156zM580 -29q-219 0 -352.5 146t-133.5 391q0 234 136.5 384t347.5 150q163 0 273 -83t148 -209l-161 -56q-29 87 -94.5 142t-168.5 55q-129 0 -214 -99.5t-85 -283.5q0 -187 84.5 -286t217.5 -99q211 0 280 227l164 -57
q-49 -146 -163.5 -234t-278.5 -88z" />
    <glyph glyph-name="Cdotaccent" unicode="&#x10a;" horiz-adv-x="1505" 
d="M905 1581h-184v223h184v-223zM803 -29q-130 0 -242 38.5t-194.5 108t-141 164.5t-87.5 209t-29 240q0 208 85.5 374t244.5 261.5t364 95.5q107 0 201.5 -26t162.5 -68t122 -98.5t86.5 -113.5t49.5 -116l-184 -67q-14 43 -34 83t-56.5 85t-82.5 77.5t-115 54t-150 21.5
q-227 0 -362.5 -151t-135.5 -410q0 -263 136.5 -428.5t361.5 -165.5q80 0 146.5 18.5t113 49t84 75.5t61 91.5t41.5 103.5l181 -69q-27 -88 -78.5 -164.5t-127 -138.5t-184 -98t-237.5 -36z" />
    <glyph glyph-name="cdotaccent" unicode="&#x10b;" horiz-adv-x="1085" 
d="M670 1210h-185v224h185v-224zM580 -29q-219 0 -352.5 146t-133.5 391q0 234 136.5 384t347.5 150q163 0 273 -83t148 -209l-161 -56q-29 87 -94.5 142t-168.5 55q-129 0 -214 -99.5t-85 -283.5q0 -187 84.5 -286t217.5 -99q211 0 280 227l164 -57q-49 -146 -163.5 -234
t-278.5 -88z" />
    <glyph glyph-name="Ccaron" unicode="&#x10c;" horiz-adv-x="1505" 
d="M1001 1827h189l-240 -248h-276l-240 248h189l190 -154zM803 -29q-130 0 -242 38.5t-194.5 108t-141 164.5t-87.5 209t-29 240q0 208 85.5 374t244.5 261.5t364 95.5q107 0 201.5 -26t162.5 -68t122 -98.5t86.5 -113.5t49.5 -116l-184 -67q-14 43 -34 83t-56.5 85
t-82.5 77.5t-115 54t-150 21.5q-227 0 -362.5 -151t-135.5 -410q0 -263 136.5 -428.5t361.5 -165.5q80 0 146.5 18.5t113 49t84 75.5t61 91.5t41.5 103.5l181 -69q-27 -88 -78.5 -164.5t-127 -138.5t-184 -98t-237.5 -36z" />
    <glyph glyph-name="ccaron" unicode="&#x10d;" horiz-adv-x="1085" 
d="M702 1161h-253l-218 250h172l172 -158l173 158h172zM580 -29q-219 0 -352.5 146t-133.5 391q0 234 136.5 384t347.5 150q163 0 273 -83t148 -209l-161 -56q-29 87 -94.5 142t-168.5 55q-129 0 -214 -99.5t-85 -283.5q0 -187 84.5 -286t217.5 -99q211 0 280 227l164 -57
q-49 -146 -163.5 -234t-278.5 -88z" />
    <glyph glyph-name="Dcaron" unicode="&#x10e;" horiz-adv-x="1499" 
d="M836 1827h188l-240 -248h-278l-240 248h191l188 -154zM684 0h-473v1434h481q313 0 505 -195t192 -518q0 -334 -189.5 -527.5t-515.5 -193.5zM395 1264v-1094h260q269 0 404 140t135 411q0 253 -133.5 398t-392.5 145h-273z" />
    <glyph glyph-name="dcaron" unicode="&#x10f;" horiz-adv-x="1255" 
d="M514 -29q-180 0 -299 144t-119 391q0 248 118.5 392t299.5 144q122 0 203.5 -56t126.5 -136v197v387h172v-1434h-170v164q-44 -80 -127 -136.5t-205 -56.5zM1231 983h-96l131 236h-109v215h203v-215zM561 121q132 0 211.5 97.5t79.5 287.5q0 189 -80 288t-211 99
q-129 0 -207 -93.5t-78 -293.5q0 -202 77.5 -293.5t207.5 -91.5z" />
    <glyph glyph-name="Dcroat" unicode="&#x110;" horiz-adv-x="1511" 
d="M223 1434h482q205 0 362.5 -87.5t244.5 -250t87 -375.5q0 -334 -188.5 -527.5t-514.5 -193.5h-473v672h-162v147h162v615zM408 170h260q269 0 403.5 140t134.5 411q0 253 -134 398t-392 145h-272v-445h321v-147h-321v-502z" />
    <glyph glyph-name="dcroat" unicode="&#x111;" horiz-adv-x="1183" 
d="M1016 1276h166v-125h-166v-1151h-170v164q-44 -80 -127 -136.5t-205 -56.5q-180 0 -299 144t-119 391q0 248 118.5 392t299.5 144q122 0 203.5 -56t126.5 -136v197v104h-352v125h352v158h172v-158zM561 121q132 0 211.5 97.5t79.5 287.5q0 189 -80 288t-211 99
q-129 0 -207 -93.5t-78 -293.5q0 -202 77.5 -293.5t207.5 -91.5z" />
    <glyph glyph-name="Emacron" unicode="&#x112;" horiz-adv-x="1314" 
d="M1053 1624h-684v133h684v-133zM1214 0h-1003v1434h1003v-170h-819v-437h609v-168h-609v-489h819v-170z" />
    <glyph glyph-name="emacron" unicode="&#x113;" horiz-adv-x="1097" 
d="M862 1212h-622v134h622v-134zM559 -29q-213 0 -338 140t-125 397q0 242 129 388t326 146q146 0 253.5 -75t156.5 -206t32 -294h-723q6 -182 89 -265t206 -83q59 0 108 19.5t81 52t52 63.5t34 65l159 -57q-53 -138 -167.5 -214.5t-272.5 -76.5zM274 606h543
q-1 141 -77.5 219t-188.5 78q-110 0 -188.5 -81.5t-88.5 -215.5z" />
    <glyph glyph-name="Ebreve" unicode="&#x114;" horiz-adv-x="1314" 
d="M707 1561q-81 0 -145.5 23t-103 61.5t-59 86t-22.5 99.5h162q6 -64 50.5 -103.5t117.5 -39.5q75 0 119.5 39.5t50.5 103.5h161q-3 -112 -87.5 -191t-243.5 -79zM1214 0h-1003v1434h1003v-170h-819v-437h609v-168h-609v-489h819v-170z" />
    <glyph glyph-name="ebreve" unicode="&#x115;" horiz-adv-x="1097" 
d="M551 1141q-144 0 -220.5 79.5t-78.5 190.5h145q6 -64 46.5 -103.5t107.5 -39.5q68 0 108.5 39.5t45.5 103.5h147q-3 -112 -79.5 -191t-221.5 -79zM559 -29q-213 0 -338 140t-125 397q0 242 129 388t326 146q146 0 253.5 -75t156.5 -206t32 -294h-723q6 -182 89 -265
t206 -83q59 0 108 19.5t81 52t52 63.5t34 65l159 -57q-53 -138 -167.5 -214.5t-272.5 -76.5zM274 606h543q-1 141 -77.5 219t-188.5 78q-110 0 -188.5 -81.5t-88.5 -215.5z" />
    <glyph glyph-name="Edotaccent" unicode="&#x116;" horiz-adv-x="1314" 
d="M803 1581h-185v223h185v-223zM1214 0h-1003v1434h1003v-170h-819v-437h609v-168h-609v-489h819v-170z" />
    <glyph glyph-name="edotaccent" unicode="&#x117;" horiz-adv-x="1097" 
d="M645 1210h-184v224h184v-224zM559 -29q-213 0 -338 140t-125 397q0 242 129 388t326 146q146 0 253.5 -75t156.5 -206t32 -294h-723q6 -182 89 -265t206 -83q59 0 108 19.5t81 52t52 63.5t34 65l159 -57q-53 -138 -167.5 -214.5t-272.5 -76.5zM274 606h543
q-1 141 -77.5 219t-188.5 78q-110 0 -188.5 -81.5t-88.5 -215.5z" />
    <glyph glyph-name="Eogonek" unicode="&#x118;" horiz-adv-x="1314" 
d="M1214 1434v-170h-819v-437h609v-168h-609v-489h819v-170q-113 -45 -161.5 -92.5t-48.5 -100.5q0 -86 120 -86q18 0 90 13v-133q-65 -19 -112 -19q-108 0 -173 46t-65 134q0 139 168 238h-821v1434h1003z" />
    <glyph glyph-name="eogonek" unicode="&#x119;" horiz-adv-x="1097" 
d="M96 508q0 242 129 388t326 146q146 0 253.5 -75t156.5 -206t32 -294h-723q6 -182 89 -265t206 -83q59 0 108.5 20t82 52.5t52 63.5t32.5 64l159 -57q-37 -99 -106.5 -165.5t-159.5 -98.5q-207 -78 -207 -186q0 -91 119 -91q21 0 92 13v-133q-65 -19 -114 -19
q-108 0 -172 47t-64 135q0 117 119 211q-192 17 -301 156.5t-109 376.5zM274 606h543q-1 141 -77.5 219t-188.5 78q-110 0 -188.5 -81.5t-88.5 -215.5z" />
    <glyph glyph-name="Ecaron" unicode="&#x11a;" horiz-adv-x="1314" 
d="M901 1827h189l-240 -248h-277l-239 248h188l189 -154zM1214 0h-1003v1434h1003v-170h-819v-437h609v-168h-609v-489h819v-170z" />
    <glyph glyph-name="ecaron" unicode="&#x11b;" horiz-adv-x="1097" 
d="M678 1161h-252l-219 250h172l172 -158l172 158h172zM559 -29q-213 0 -338 140t-125 397q0 242 129 388t326 146q146 0 253.5 -75t156.5 -206t32 -294h-723q6 -182 89 -265t206 -83q59 0 108 19.5t81 52t52 63.5t34 65l159 -57q-53 -138 -167.5 -214.5t-272.5 -76.5z
M274 606h543q-1 141 -77.5 219t-188.5 78q-110 0 -188.5 -81.5t-88.5 -215.5z" />
    <glyph glyph-name="Gcircumflex" unicode="&#x11c;" horiz-adv-x="1597" 
d="M643 1581h-188l239 250h279l239 -250h-190l-188 156zM786 -29q-310 0 -493.5 203t-183.5 545q0 161 56 300.5t152.5 236t227.5 151.5t278 55q108 0 203 -25.5t164.5 -67t125.5 -98t91.5 -116t56.5 -123.5l-186 -76q-121 334 -459 334q-102 0 -194 -37.5t-163 -107
t-113 -179.5t-42 -245q0 -269 138 -425.5t366 -156.5q103 0 189.5 33t143 88.5t90 125t38.5 144.5h-506v170h694v-700h-178v266q-18 -39 -42 -75t-67 -78t-95 -72t-128 -50t-164 -20z" />
    <glyph glyph-name="gcircumflex" unicode="&#x11d;" horiz-adv-x="1206" 
d="M389 1161h-172l217 250h252l219 -250h-172l-172 156zM813 -399h-473q-268 0 -268 202q0 70 39 125t94 90q-90 51 -90 160q0 124 153 217q-51 45 -83.5 115t-32.5 156q0 161 113.5 268.5t289.5 107.5q126 0 216 -54.5t130 -129.5q27 156 170 156h100v-146h-77
q-69 0 -99 -27.5t-34 -115.5l-5 -55q-10 -171 -120 -274t-279 -103q-117 0 -192 41q-45 -19 -72 -49t-27 -62q0 -69 96 -69h445q145 0 233 -75.5t88 -201.5q0 -133 -90 -204.5t-225 -71.5zM557 432q106 0 170 65t64 171q0 104 -65 169.5t-169 65.5q-105 0 -168 -65t-63 -170
q0 -106 63 -171t168 -65zM387 -252h404q161 0 161 127q0 125 -166 125h-477q-32 -18 -58 -55.5t-26 -83.5q0 -60 39.5 -86.5t122.5 -26.5z" />
    <glyph glyph-name="Gbreve" unicode="&#x11e;" horiz-adv-x="1597" 
d="M829 1561q-159 0 -242.5 79t-86.5 191h159q6 -64 51 -103.5t119 -39.5q75 0 119.5 39.5t50.5 103.5h160q-3 -112 -87 -191t-243 -79zM786 -29q-310 0 -493.5 203t-183.5 545q0 161 56 300.5t152.5 236t227.5 151.5t278 55q108 0 203 -25.5t164.5 -67t125.5 -98t91.5 -116
t56.5 -123.5l-186 -76q-121 334 -459 334q-102 0 -194 -37.5t-163 -107t-113 -179.5t-42 -245q0 -269 138 -425.5t366 -156.5q103 0 189.5 33t143 88.5t90 125t38.5 144.5h-506v170h694v-700h-178v266q-18 -39 -42 -75t-67 -78t-95 -72t-128 -50t-164 -20z" />
    <glyph glyph-name="gbreve" unicode="&#x11f;" horiz-adv-x="1206" 
d="M559 1141q-145 0 -221 79t-78 191h146q5 -63 45.5 -103t107.5 -40q68 0 108.5 39.5t45.5 103.5h145q-2 -112 -78 -191t-221 -79zM813 -399h-473q-268 0 -268 202q0 70 39 125t94 90q-90 51 -90 160q0 124 153 217q-51 45 -83.5 115t-32.5 156q0 161 113.5 268.5
t289.5 107.5q126 0 216 -54.5t130 -129.5q27 156 170 156h100v-146h-77q-69 0 -99 -27.5t-34 -115.5l-5 -55q-10 -171 -120 -274t-279 -103q-117 0 -192 41q-45 -19 -72 -49t-27 -62q0 -69 96 -69h445q145 0 233 -75.5t88 -201.5q0 -133 -90 -204.5t-225 -71.5zM557 432
q106 0 170 65t64 171q0 104 -65 169.5t-169 65.5q-105 0 -168 -65t-63 -170q0 -106 63 -171t168 -65zM387 -252h404q161 0 161 127q0 125 -166 125h-477q-32 -18 -58 -55.5t-26 -83.5q0 -60 39.5 -86.5t122.5 -26.5z" />
    <glyph glyph-name="Gdotaccent" unicode="&#x120;" horiz-adv-x="1597" 
d="M928 1581h-185v223h185v-223zM786 -29q-310 0 -493.5 203t-183.5 545q0 161 56 300.5t152.5 236t227.5 151.5t278 55q108 0 203 -25.5t164.5 -67t125.5 -98t91.5 -116t56.5 -123.5l-186 -76q-121 334 -459 334q-102 0 -194 -37.5t-163 -107t-113 -179.5t-42 -245
q0 -269 138 -425.5t366 -156.5q103 0 189.5 33t143 88.5t90 125t38.5 144.5h-506v170h694v-700h-178v266q-18 -39 -42 -75t-67 -78t-95 -72t-128 -50t-164 -20z" />
    <glyph glyph-name="gdotaccent" unicode="&#x121;" horiz-adv-x="1206" 
d="M653 1210h-184v224h184v-224zM813 -399h-473q-268 0 -268 202q0 70 39 125t94 90q-90 51 -90 160q0 124 153 217q-51 45 -83.5 115t-32.5 156q0 161 113.5 268.5t289.5 107.5q126 0 216 -54.5t130 -129.5q27 156 170 156h100v-146h-77q-69 0 -99 -27.5t-34 -115.5l-5 -55
q-10 -171 -120 -274t-279 -103q-117 0 -192 41q-45 -19 -72 -49t-27 -62q0 -69 96 -69h445q145 0 233 -75.5t88 -201.5q0 -133 -90 -204.5t-225 -71.5zM557 432q106 0 170 65t64 171q0 104 -65 169.5t-169 65.5q-105 0 -168 -65t-63 -170q0 -106 63 -171t168 -65zM387 -252
h404q161 0 161 127q0 125 -166 125h-477q-32 -18 -58 -55.5t-26 -83.5q0 -60 39.5 -86.5t122.5 -26.5z" />
    <glyph glyph-name="uni0122" unicode="&#x122;" horiz-adv-x="1597" 
d="M786 -29q-310 0 -493.5 203t-183.5 545q0 161 56 300.5t152.5 236t227.5 151.5t278 55q108 0 203 -25.5t164.5 -67t125.5 -98t91.5 -116t56.5 -123.5l-186 -76q-121 334 -459 334q-102 0 -194 -37.5t-163 -107t-113 -179.5t-42 -245q0 -269 138 -425.5t366 -156.5
q103 0 189.5 33t143 88.5t90 125t38.5 144.5h-506v170h694v-700h-178v266q-18 -39 -42 -75t-67 -78t-95 -72t-128 -50t-164 -20zM801 -631h-96l131 236h-109v215h203v-215z" />
    <glyph glyph-name="uni0123" unicode="&#x123;" horiz-adv-x="1206" 
d="M590 1661h96l-131 -236h109v-215h-203v215zM813 -399h-473q-268 0 -268 202q0 70 39 125t94 90q-90 51 -90 160q0 124 153 217q-51 45 -83.5 115t-32.5 156q0 161 113.5 268.5t289.5 107.5q126 0 216 -54.5t130 -129.5q27 156 170 156h100v-146h-77q-69 0 -99 -27.5
t-34 -115.5l-5 -55q-10 -171 -120 -274t-279 -103q-117 0 -192 41q-45 -19 -72 -49t-27 -62q0 -69 96 -69h445q145 0 233 -75.5t88 -201.5q0 -133 -90 -204.5t-225 -71.5zM557 432q106 0 170 65t64 171q0 104 -65 169.5t-169 65.5q-105 0 -168 -65t-63 -170q0 -106 63 -171
t168 -65zM387 -252h404q161 0 161 127q0 125 -166 125h-477q-32 -18 -58 -55.5t-26 -83.5q0 -60 39.5 -86.5t122.5 -26.5z" />
    <glyph glyph-name="Hcircumflex" unicode="&#x124;" horiz-adv-x="1570" 
d="M594 1581h-188l239 250h279l239 -250h-190l-189 156zM395 0h-184v1434h184v-607h783v607h184v-1434h-184v657h-783v-657z" />
    <glyph glyph-name="hcircumflex" unicode="&#x125;" horiz-adv-x="1189" 
d="M442 1581h-172l217 248h252l219 -248h-172l-172 154zM346 0h-172v1434h172v-396v-202q9 25 30 55.5t60 66.5t105 60t147 24q171 0 257.5 -104.5t86.5 -280.5v-657h-174v616q0 140 -59.5 207.5t-169.5 67.5q-56 0 -100.5 -17.5t-73.5 -44t-50.5 -67t-32.5 -77.5t-17 -85
t-7.5 -79.5t-1.5 -71.5v-449z" />
    <glyph glyph-name="Hbar" unicode="&#x126;" horiz-adv-x="1611" 
d="M1380 1243h170v-141h-170v-1102h-184v657h-782v-657h-185v1102h-172v141h172v191h185v-191h782v191h184v-191zM414 827h782v275h-782v-275z" />
    <glyph glyph-name="hbar" unicode="&#x127;" horiz-adv-x="1191" 
d="M688 1042q171 0 257.5 -104.5t86.5 -280.5v-657h-174v616q0 140 -59.5 207.5t-169.5 67.5q-56 0 -100.5 -17.5t-73.5 -44t-50.5 -67t-32.5 -77.5t-17 -85t-7.5 -79.5t-1.5 -71.5v-449h-172v1151h-151v125h151v158h172v-158h369v-125h-369v-113v-202q9 25 30 55.5t60 66.5
t105 60t147 24z" />
    <glyph glyph-name="Itilde" unicode="&#x128;" horiz-adv-x="606" 
d="M494 1565q-86 0 -175 53l-63 39q-37 21 -56.5 29t-43.5 8q-42 0 -65 -29t-23 -80h-150q-1 118 62.5 181t169.5 63q89 0 172 -51l61 -37q63 -39 100 -39q43 0 65.5 24t26.5 76h152q0 -119 -62.5 -178t-170.5 -59zM395 0h-184v1434h184v-1434z" />
    <glyph glyph-name="itilde" unicode="&#x129;" horiz-adv-x="518" 
d="M420 1167q-78 0 -160 54l-59 39q-53 36 -88 36q-39 0 -60.5 -28.5t-21.5 -79.5h-137q0 120 56.5 182t153.5 62q81 0 158 -52l55 -37q58 -38 93 -38q39 0 59.5 24t24.5 76h137q0 -119 -56.5 -178.5t-154.5 -59.5zM346 0h-172v1014h172v-1014z" />
    <glyph glyph-name="Imacron" unicode="&#x12a;" horiz-adv-x="606" 
d="M645 1624h-686v133h686v-133zM395 0h-184v1434h184v-1434z" />
    <glyph glyph-name="imacron" unicode="&#x12b;" horiz-adv-x="518" 
d="M569 1212h-622v134h622v-134zM346 0h-172v1014h172v-1014z" />
    <glyph glyph-name="Ibreve" unicode="&#x12c;" horiz-adv-x="606" 
d="M299 1561q-159 0 -243 79t-87 191h160q6 -64 51 -103.5t119 -39.5q75 0 119.5 39.5t50.5 103.5h160q-3 -112 -87 -191t-243 -79zM395 0h-184v1434h184v-1434z" />
    <glyph glyph-name="ibreve" unicode="&#x12d;" horiz-adv-x="518" 
d="M258 1141q-144 0 -220.5 79.5t-78.5 190.5h145q6 -64 46.5 -103.5t107.5 -39.5q68 0 108.5 39.5t45.5 103.5h147q-3 -112 -79.5 -191t-221.5 -79zM346 0h-172v1014h172v-1014z" />
    <glyph glyph-name="Iogonek" unicode="&#x12e;" horiz-adv-x="606" 
d="M395 1434v-1434q-209 -84 -209 -193q0 -86 119 -86q19 0 90 13v-133q-62 -19 -112 -19q-108 0 -173 46t-65 134q0 139 168 238h-2v1434h184z" />
    <glyph glyph-name="iogonek" unicode="&#x12f;" horiz-adv-x="524" 
d="M170 1210v224h184v-224h-184zM139 -193q0 -86 121 -86q18 0 90 13v-133q-65 -19 -114 -19q-108 0 -172 46t-64 134q0 142 176 244v1008h172v-1014q-209 -84 -209 -193z" />
    <glyph glyph-name="Idotaccent" unicode="&#x130;" horiz-adv-x="606" 
d="M395 1581h-184v223h184v-223zM395 0h-184v1434h184v-1434z" />
    <glyph glyph-name="dotlessi" unicode="&#x131;" horiz-adv-x="518" 
d="M346 0h-172v1014h172v-1014z" />
    <glyph glyph-name="IJ" unicode="&#x132;" horiz-adv-x="1632" 
d="M395 0h-184v1434h184v-1434zM1047 -29q-189 0 -294 121t-104 338l189 47q-9 -340 206 -340q111 0 161 80t50 240v977h185v-985q0 -478 -393 -478z" />
    <glyph glyph-name="ij" unicode="&#x133;" horiz-adv-x="1052" 
d="M350 1210h-184v224h184v-224zM885 1210h-183v224h183v-224zM346 0h-174v1014h174v-1014zM627 -399h-187v155h156q56 0 84.5 27.5t28.5 89.5v1141h172v-1161q0 -126 -65.5 -189t-188.5 -63z" />
    <glyph glyph-name="Jcircumflex" unicode="&#x134;" horiz-adv-x="1028" 
d="M551 1581h-189l240 250h277l239 -250h-188l-189 156zM442 -29q-190 0 -294.5 121t-104.5 338l190 47q-12 -340 207 -340q110 0 160.5 80.5t50.5 239.5v977h185v-985q0 -478 -394 -478z" />
    <glyph glyph-name="jcircumflex" unicode="&#x135;" horiz-adv-x="530" 
d="M104 1161h-172l218 250h253l218 -250h-172l-173 156zM106 -399h-184v155h154q57 0 85.5 27t28.5 90v1141h172v-1161q0 -126 -65.5 -189t-190.5 -63z" />
    <glyph glyph-name="uni0136" unicode="&#x136;" horiz-adv-x="1388" 
d="M1300 1434l-573 -594l678 -840h-242l-561 709l-207 -209v-500h-184v1434h184v-373v-332l658 705h247zM788 -395h-108v215h201v-215l-129 -236h-97z" />
    <glyph glyph-name="uni0137" unicode="&#x137;" horiz-adv-x="1157" 
d="M1114 1014l-452 -420l493 -594h-225l-391 481l-193 -178v-303h-172v1434h172v-607v-329l541 516h227zM647 -395h-108v215h200v-215l-129 -236h-96z" />
    <glyph glyph-name="Lacute" unicode="&#x139;" horiz-adv-x="1191" 
d="M365 1581h-129l122 281h254zM1169 0h-958v1434h184v-1260h774v-174z" />
    <glyph glyph-name="lacute" unicode="&#x13a;" horiz-adv-x="518" 
d="M315 1581h-114l110 281h232zM346 0h-172v1434h172v-1434z" />
    <glyph glyph-name="uni013B" unicode="&#x13b;" horiz-adv-x="1191" 
d="M1169 0h-958v1434h184v-1260h774v-174zM655 -631h-96l133 236h-108v215h200v-215z" />
    <glyph glyph-name="uni013C" unicode="&#x13c;" horiz-adv-x="518" 
d="M346 0h-172v1434h172v-1434zM231 -631h-96l131 236h-106v215h200v-215z" />
    <glyph glyph-name="Lcaron" unicode="&#x13d;" horiz-adv-x="1193" 
d="M1169 0h-958v1434h184v-1260h774v-174zM739 938h-106l145 258h-119v238h222v-238z" />
    <glyph glyph-name="lcaron" unicode="&#x13e;" horiz-adv-x="587" 
d="M346 0h-172v1434h172v-1434zM559 983h-96l133 236h-109v215h201v-215z" />
    <glyph glyph-name="Ldot" unicode="&#x13f;" horiz-adv-x="1198" 
d="M1169 0h-958v1434h184v-1260h774v-174zM987 637h-239v252h239v-252z" />
    <glyph glyph-name="ldot" unicode="&#x140;" horiz-adv-x="792" 
d="M346 0h-172v1434h172v-1434zM774 594h-239v254h239v-254z" />
    <glyph glyph-name="Lslash" unicode="&#x141;" horiz-adv-x="1253" 
d="M457 631v-457h774v-174h-959v522l-184 -106v172l184 106v740h185v-631l458 266v-172z" />
    <glyph glyph-name="lslash" unicode="&#x142;" horiz-adv-x="647" 
d="M414 915l174 117v-164l-174 -114v-754h-172v639l-160 -104v157l160 107v635h172v-519z" />
    <glyph glyph-name="Nacute" unicode="&#x143;" horiz-adv-x="1644" 
d="M893 1581h-127l123 281h254zM395 0h-184v1434h248l792 -1125v320v805h185v-1434h-187l-854 1212v-362v-850z" />
    <glyph glyph-name="nacute" unicode="&#x144;" horiz-adv-x="1189" 
d="M664 1161h-117l110 281h232zM346 0h-172v1014h168v-178q8 24 30.5 55t61.5 67t103.5 60t140.5 24q181 0 267.5 -103.5t86.5 -281.5v-657h-174v616q0 140 -59.5 207.5t-169.5 67.5q-56 0 -100.5 -17.5t-73.5 -44t-50.5 -67t-32.5 -77.5t-17 -85t-7.5 -79.5t-1.5 -71.5
v-449z" />
    <glyph glyph-name="uni0145" unicode="&#x145;" horiz-adv-x="1644" 
d="M395 0h-184v1434h248l792 -1125v320v805h185v-1434h-187l-854 1212v-362v-850zM795 -631h-97l131 236h-106v215h201v-215z" />
    <glyph glyph-name="uni0146" unicode="&#x146;" horiz-adv-x="1189" 
d="M346 0h-172v1014h168v-178q8 24 30.5 55t61.5 67t103.5 60t140.5 24q181 0 267.5 -103.5t86.5 -281.5v-657h-174v616q0 140 -59.5 207.5t-169.5 67.5q-56 0 -100.5 -17.5t-73.5 -44t-50.5 -67t-32.5 -77.5t-17 -85t-7.5 -79.5t-1.5 -71.5v-449zM575 -631h-96l131 236
h-108v215h203v-215z" />
    <glyph glyph-name="Ncaron" unicode="&#x147;" horiz-adv-x="1644" 
d="M1022 1827h188l-239 -248h-279l-239 248h190l188 -154zM395 0h-184v1434h248l792 -1125v320v805h185v-1434h-187l-854 1212v-362v-850z" />
    <glyph glyph-name="ncaron" unicode="&#x148;" horiz-adv-x="1189" 
d="M729 1161h-252l-217 250h172l172 -158l172 158h172zM346 0h-172v1014h168v-178q8 24 30.5 55t61.5 67t103.5 60t140.5 24q181 0 267.5 -103.5t86.5 -281.5v-657h-174v616q0 140 -59.5 207.5t-169.5 67.5q-56 0 -100.5 -17.5t-73.5 -44t-50.5 -67t-32.5 -77.5t-17 -85
t-7.5 -79.5t-1.5 -71.5v-449z" />
    <glyph glyph-name="Eng" unicode="&#x14a;" horiz-adv-x="1644" 
d="M1124 -399h-125v166h101q71 0 111 42.5t40 112.5v76l-856 1214v-88v-274v-850h-184v1434h248l792 -1127v86v228v813h185v-1512q0 -159 -85.5 -240t-226.5 -81z" />
    <glyph glyph-name="eng" unicode="&#x14b;" horiz-adv-x="1189" 
d="M782 -399h-190v155h162q54 0 79 25.5t25 81.5v753q0 140 -59.5 207.5t-169.5 67.5q-56 0 -100.5 -17.5t-73.5 -44t-50.5 -67t-32.5 -77.5t-17 -85t-7.5 -79.5t-1.5 -71.5v-449h-172v1014h168v-178q8 24 30.5 55t61.5 67t103.5 60t140.5 24q181 0 267.5 -103.5
t86.5 -281.5v-811q0 -245 -250 -245z" />
    <glyph glyph-name="Omacron" unicode="&#x14c;" horiz-adv-x="1640" 
d="M1165 1624h-686v133h686v-133zM821 -29q-152 0 -284 54.5t-227 151.5t-149.5 236.5t-54.5 303.5q0 163 55 303t150 236.5t227 151t283 54.5q203 0 364.5 -93t254 -263.5t92.5 -388.5q0 -164 -54 -303.5t-148.5 -236.5t-225.5 -151.5t-283 -54.5zM821 139q155 0 273.5 76
t180.5 207t62 295q0 165 -62 295.5t-180.5 206t-273.5 75.5q-235 0 -375.5 -162.5t-140.5 -414.5q0 -164 61.5 -295t180 -207t274.5 -76z" />
    <glyph glyph-name="omacron" unicode="&#x14d;" horiz-adv-x="1144" 
d="M883 1212h-623v134h623v-134zM573 -29q-99 0 -187.5 40t-153 109.5t-102.5 170t-38 215.5q0 234 137.5 385t343.5 151q204 0 341 -151t137 -385t-138.5 -384.5t-339.5 -150.5zM573 123q133 0 215 97t82 284t-82 287t-215 100q-134 0 -216.5 -100t-82.5 -287t82 -284
t217 -97z" />
    <glyph glyph-name="Obreve" unicode="&#x14e;" horiz-adv-x="1640" 
d="M817 1561q-159 0 -243 79t-87 191h160q6 -64 51 -103.5t119 -39.5q75 0 119.5 39.5t50.5 103.5h160q-3 -112 -87 -191t-243 -79zM821 -29q-152 0 -284 54.5t-227 151.5t-149.5 236.5t-54.5 303.5q0 163 55 303t150 236.5t227 151t283 54.5q203 0 364.5 -93t254 -263.5
t92.5 -388.5q0 -164 -54 -303.5t-148.5 -236.5t-225.5 -151.5t-283 -54.5zM821 139q155 0 273.5 76t180.5 207t62 295q0 165 -62 295.5t-180.5 206t-273.5 75.5q-235 0 -375.5 -162.5t-140.5 -414.5q0 -164 61.5 -295t180 -207t274.5 -76z" />
    <glyph glyph-name="obreve" unicode="&#x14f;" horiz-adv-x="1144" 
d="M571 1141q-145 0 -221.5 79t-79.5 191h148q5 -64 45 -103.5t108 -39.5t108 39.5t46 103.5h145q-2 -111 -78.5 -190.5t-220.5 -79.5zM573 -29q-99 0 -187.5 40t-153 109.5t-102.5 170t-38 215.5q0 234 137.5 385t343.5 151q204 0 341 -151t137 -385t-138.5 -384.5
t-339.5 -150.5zM573 123q133 0 215 97t82 284t-82 287t-215 100q-134 0 -216.5 -100t-82.5 -287t82 -284t217 -97z" />
    <glyph glyph-name="Ohungarumlaut" unicode="&#x150;" horiz-adv-x="1640" 
d="M719 1581h-125l121 281h254zM1069 1581h-127l123 281h254zM821 -29q-152 0 -284 54.5t-227 151.5t-149.5 236.5t-54.5 303.5q0 163 55 303t150 236.5t227 151t283 54.5q203 0 364.5 -93t254 -263.5t92.5 -388.5q0 -164 -54 -303.5t-148.5 -236.5t-225.5 -151.5
t-283 -54.5zM821 139q155 0 273.5 76t180.5 207t62 295q0 165 -62 295.5t-180.5 206t-273.5 75.5q-235 0 -375.5 -162.5t-140.5 -414.5q0 -164 61.5 -295t180 -207t274.5 -76z" />
    <glyph glyph-name="ohungarumlaut" unicode="&#x151;" horiz-adv-x="1144" 
d="M471 1161h-115l111 281h231zM791 1161h-117l110 281h232zM573 -29q-99 0 -187.5 40t-153 109.5t-102.5 170t-38 215.5q0 234 137.5 385t343.5 151q204 0 341 -151t137 -385t-138.5 -384.5t-339.5 -150.5zM573 123q133 0 215 97t82 284t-82 287t-215 100
q-134 0 -216.5 -100t-82.5 -287t82 -284t217 -97z" />
    <glyph glyph-name="OE" unicode="&#x152;" horiz-adv-x="2449" 
d="M795 -29q-145 0 -271.5 54.5t-218 151t-144 236t-52.5 302.5q0 219 90 390t246.5 264t349.5 93q163 0 290.5 -70t206.5 -194v236h1057v-170h-872v-422h632v-164h-632v-508h872v-170h-1057v240q-75 -126 -204 -197.5t-293 -71.5zM803 139q152 0 266 75.5t172.5 206
t58.5 296.5q0 255 -134 416t-363 161t-363.5 -161t-134.5 -416q0 -166 59 -296.5t173 -206t266 -75.5z" />
    <glyph glyph-name="oe" unicode="&#x153;" horiz-adv-x="1873" 
d="M567 -29q-95 0 -181 37.5t-151 105.5t-103 169.5t-38 222.5q0 237 134.5 386.5t344.5 149.5q120 0 224 -63.5t157 -175.5q53 119 149.5 179t225.5 60q148 0 255.5 -78.5t154 -209.5t28.5 -287h-723q7 -172 84 -260t199 -88q204 0 289 200l158 -57q-56 -139 -171 -215
t-278 -76q-130 0 -229 62.5t-146 175.5q-54 -112 -158.5 -175t-224.5 -63zM1051 602h540q-1 146 -77 223.5t-197 77.5q-109 0 -183 -82t-83 -219zM578 123q128 0 210 98t82 283q0 186 -82 286.5t-210 100.5q-136 0 -220 -100t-84 -287t83.5 -284t220.5 -97z" />
    <glyph glyph-name="Racute" unicode="&#x154;" horiz-adv-x="1404" 
d="M754 1581h-127l121 281h253zM395 0h-184v1434h598q212 0 334.5 -110t122.5 -280q0 -154 -93.5 -251.5t-242.5 -128.5q135 -22 199 -92.5t92 -204.5l75 -367h-200l-64 350q-25 135 -99 192.5t-222 57.5h-316v-600zM395 1264v-498h385q131 0 211 64t80 186t-79.5 185
t-211.5 63h-385z" />
    <glyph glyph-name="racute" unicode="&#x155;" horiz-adv-x="817" 
d="M528 1161h-116l110 281h232zM346 0h-172v1014h168v-219q15 37 40.5 73t65.5 74.5t100.5 62t131.5 23.5q64 0 102 -12v-176q-78 10 -114 10q-322 0 -322 -393v-457z" />
    <glyph glyph-name="uni0156" unicode="&#x156;" horiz-adv-x="1404" 
d="M395 0h-184v1434h598q212 0 334.5 -110t122.5 -280q0 -154 -93.5 -251.5t-242.5 -128.5q135 -22 199 -92.5t92 -204.5l75 -367h-200l-64 350q-25 135 -99 192.5t-222 57.5h-316v-600zM395 1264v-498h385q131 0 211 64t80 186t-79.5 185t-211.5 63h-385zM698 -631h-96
l131 236h-108v215h202v-215z" />
    <glyph glyph-name="uni0157" unicode="&#x157;" horiz-adv-x="817" 
d="M346 0h-172v1014h168v-219q15 37 40.5 73t65.5 74.5t100.5 62t131.5 23.5q64 0 102 -12v-176q-78 10 -114 10q-322 0 -322 -393v-457zM236 -631h-97l131 236h-108v215h203v-215z" />
    <glyph glyph-name="Rcaron" unicode="&#x158;" horiz-adv-x="1404" 
d="M881 1827h188l-240 -248h-278l-240 248h191l188 -154zM395 0h-184v1434h598q212 0 334.5 -110t122.5 -280q0 -154 -93.5 -251.5t-242.5 -128.5q135 -22 199 -92.5t92 -204.5l75 -367h-200l-64 350q-25 135 -99 192.5t-222 57.5h-316v-600zM395 1264v-498h385
q131 0 211 64t80 186t-79.5 185t-211.5 63h-385z" />
    <glyph glyph-name="rcaron" unicode="&#x159;" horiz-adv-x="817" 
d="M596 1161h-252l-217 250h170l174 -158l172 158h170zM346 0h-172v1014h168v-219q15 37 40.5 73t65.5 74.5t100.5 62t131.5 23.5q64 0 102 -12v-176q-78 10 -114 10q-322 0 -322 -393v-457z" />
    <glyph glyph-name="Sacute" unicode="&#x15a;" horiz-adv-x="1273" 
d="M688 1581h-127l123 281h254zM647 -29q-223 0 -369.5 106.5t-201.5 282.5l180 82q41 -135 142.5 -219t258.5 -84q151 0 235.5 66.5t84.5 175.5q0 94 -66 153t-200 89l-197 47q-174 38 -270.5 130.5t-96.5 260.5q0 176 136 288.5t354 112.5q91 0 170 -21.5t134.5 -55.5
t99 -79t69 -88.5t39.5 -87.5l-174 -79q-11 32 -26.5 62t-45 64.5t-66.5 59.5t-93 42t-123 17q-134 0 -211.5 -62.5t-77.5 -162.5q0 -91 56.5 -142t182.5 -81l199 -45q184 -42 292.5 -145t108.5 -261q0 -191 -137.5 -308.5t-386.5 -117.5z" />
    <glyph glyph-name="sacute" unicode="&#x15b;" horiz-adv-x="1009" 
d="M578 1161h-117l110 281h232zM514 -29q-167 0 -287.5 77.5t-150.5 213.5l166 53q21 -89 87.5 -144.5t186.5 -55.5q111 0 170 40t59 111q0 61 -43.5 101t-144.5 61l-127 25q-69 14 -120 33t-97.5 51.5t-71 84t-24.5 119.5q0 132 109 216.5t268 84.5q89 0 160.5 -21.5
t119 -58.5t78 -80.5t45.5 -93.5l-154 -59q-10 30 -26.5 57t-45 55.5t-75 45t-104.5 16.5q-100 0 -153.5 -42t-53.5 -103q0 -56 37 -88.5t137 -51.5l127 -24q336 -78 336 -313q0 -141 -107.5 -225.5t-300.5 -84.5z" />
    <glyph glyph-name="Scircumflex" unicode="&#x15c;" horiz-adv-x="1273" 
d="M436 1581h-188l239 250h277l240 -250h-189l-188 156zM647 -29q-223 0 -369.5 106.5t-201.5 282.5l180 82q41 -135 142.5 -219t258.5 -84q151 0 235.5 66.5t84.5 175.5q0 94 -66 153t-200 89l-197 47q-174 38 -270.5 130.5t-96.5 260.5q0 176 136 288.5t354 112.5
q91 0 170 -21.5t134.5 -55.5t99 -79t69 -88.5t39.5 -87.5l-174 -79q-11 32 -26.5 62t-45 64.5t-66.5 59.5t-93 42t-123 17q-134 0 -211.5 -62.5t-77.5 -162.5q0 -91 56.5 -142t182.5 -81l199 -45q184 -42 292.5 -145t108.5 -261q0 -191 -137.5 -308.5t-386.5 -117.5z" />
    <glyph glyph-name="scircumflex" unicode="&#x15d;" horiz-adv-x="1009" 
d="M346 1161h-172l219 250h252l217 -250h-172l-172 156zM514 -29q-167 0 -287.5 77.5t-150.5 213.5l166 53q21 -89 87.5 -144.5t186.5 -55.5q111 0 170 40t59 111q0 61 -43.5 101t-144.5 61l-127 25q-69 14 -120 33t-97.5 51.5t-71 84t-24.5 119.5q0 132 109 216.5t268 84.5
q89 0 160.5 -21.5t119 -58.5t78 -80.5t45.5 -93.5l-154 -59q-10 30 -26.5 57t-45 55.5t-75 45t-104.5 16.5q-100 0 -153.5 -42t-53.5 -103q0 -56 37 -88.5t137 -51.5l127 -24q336 -78 336 -313q0 -141 -107.5 -225.5t-300.5 -84.5z" />
    <glyph glyph-name="Scedilla" unicode="&#x15e;" horiz-adv-x="1273" 
d="M705 -27l-25 -22q-16 -18 -51 -53q12 2 35 2q76 0 129 -43t53 -117q0 -75 -60.5 -125.5t-162.5 -50.5q-79 0 -140.5 27.5t-95.5 68.5l74 94q68 -73 151 -73q46 0 73.5 17t27.5 52q0 30 -27.5 48t-64.5 18q-39 0 -76 -13l-53 70l94 100q-198 14 -328 118.5t-182 268.5
l180 82q41 -135 142.5 -219t258.5 -84q151 0 235.5 66.5t84.5 175.5q0 94 -66 153t-200 89l-197 47q-174 38 -270.5 130.5t-96.5 260.5q0 176 136 288.5t354 112.5q91 0 170 -21.5t134.5 -55.5t99 -79t69 -88.5t39.5 -87.5l-174 -79q-11 32 -26.5 62t-45 64.5t-66.5 59.5
t-93 42t-123 17q-134 0 -211.5 -62.5t-77.5 -162.5q0 -91 56.5 -142t182.5 -81l199 -45q184 -42 292.5 -145t108.5 -261q0 -179 -122 -295t-344 -129z" />
    <glyph glyph-name="scedilla" unicode="&#x15f;" horiz-adv-x="1009" 
d="M580 -27l-27 -22q-16 -18 -51 -53q12 2 35 2q76 0 129 -43t53 -117q0 -75 -59.5 -125.5t-163.5 -50.5q-79 0 -140.5 27.5t-95.5 68.5l74 94q68 -73 151 -73q46 0 73.5 17t27.5 52q0 30 -27.5 48t-64.5 18q-39 0 -76 -13l-53 70l96 100q-150 12 -254 88t-131 201l166 53
q21 -89 87.5 -144.5t186.5 -55.5q111 0 170 40t59 111q0 61 -43.5 101t-144.5 61l-127 25q-69 14 -120 33t-97.5 51.5t-71 84t-24.5 119.5q0 132 109 216.5t268 84.5q89 0 160.5 -21.5t119 -58.5t78 -80.5t45.5 -93.5l-154 -59q-10 30 -26.5 57t-45 55.5t-75 45t-104.5 16.5
q-100 0 -153.5 -42t-53.5 -103q0 -56 37 -88.5t137 -51.5l127 -24q336 -78 336 -313q0 -128 -89.5 -210.5t-252.5 -97.5z" />
    <glyph glyph-name="Scaron" unicode="&#x160;" horiz-adv-x="1273" 
d="M817 1827h189l-240 -248h-277l-239 248h188l189 -154zM647 -29q-223 0 -369.5 106.5t-201.5 282.5l180 82q41 -135 142.5 -219t258.5 -84q151 0 235.5 66.5t84.5 175.5q0 94 -66 153t-200 89l-197 47q-174 38 -270.5 130.5t-96.5 260.5q0 176 136 288.5t354 112.5
q91 0 170 -21.5t134.5 -55.5t99 -79t69 -88.5t39.5 -87.5l-174 -79q-11 32 -26.5 62t-45 64.5t-66.5 59.5t-93 42t-123 17q-134 0 -211.5 -62.5t-77.5 -162.5q0 -91 56.5 -142t182.5 -81l199 -45q184 -42 292.5 -145t108.5 -261q0 -191 -137.5 -308.5t-386.5 -117.5z" />
    <glyph glyph-name="scaron" unicode="&#x161;" horiz-adv-x="1009" 
d="M645 1161h-252l-219 250h172l172 -158l172 158h172zM514 -29q-167 0 -287.5 77.5t-150.5 213.5l166 53q21 -89 87.5 -144.5t186.5 -55.5q111 0 170 40t59 111q0 61 -43.5 101t-144.5 61l-127 25q-69 14 -120 33t-97.5 51.5t-71 84t-24.5 119.5q0 132 109 216.5t268 84.5
q89 0 160.5 -21.5t119 -58.5t78 -80.5t45.5 -93.5l-154 -59q-10 30 -26.5 57t-45 55.5t-75 45t-104.5 16.5q-100 0 -153.5 -42t-53.5 -103q0 -56 37 -88.5t137 -51.5l127 -24q336 -78 336 -313q0 -141 -107.5 -225.5t-300.5 -84.5z" />
    <glyph glyph-name="uni0162" unicode="&#x162;" horiz-adv-x="1271" 
d="M719 1264v-1264l-53 -49l-54 -53q12 2 35 2q76 0 129 -43t53 -117q0 -75 -60.5 -125.5t-162.5 -50.5q-79 0 -140 27.5t-93 68.5l73 94q68 -73 152 -73q44 0 71 17t27 52q0 30 -27 48t-67 18q-42 0 -74 -13l-51 70l117 127h-59v1264h-512v170h1226v-170h-530z" />
    <glyph glyph-name="uni0163" unicode="&#x163;" horiz-adv-x="808" 
d="M762 0h-137l-56 -49q-16 -18 -51 -53q12 2 35 2q76 0 129 -43t53 -117q0 -75 -59.5 -125.5t-163.5 -50.5q-79 0 -139.5 27.5t-96.5 68.5l74 94q68 -73 154 -73q44 0 71 17t27 52q0 30 -27 48t-65 18q-42 0 -74 -13l-55 70l121 127q-230 15 -230 252v616h-237v146h237v313
h172v-313h281v-146h-281v-602q0 -60 28.5 -88t88.5 -28h201v-150z" />
    <glyph glyph-name="Tcaron" unicode="&#x164;" horiz-adv-x="1271" 
d="M815 1827h189l-240 -248h-277l-239 248h188l189 -154zM719 0h-184v1264h-512v170h1226v-170h-530v-1264z" />
    <glyph glyph-name="tcaron" unicode="&#x165;" horiz-adv-x="808" 
d="M721 1100h-96l133 235h-109v215h201v-215zM762 0h-230q-260 0 -260 252v616h-237v146h237v313h172v-313h281v-146h-281v-602q0 -60 28.5 -88t88.5 -28h201v-150z" />
    <glyph glyph-name="Tbar" unicode="&#x166;" horiz-adv-x="1308" 
d="M1268 1434v-170h-531v-404h332v-147h-332v-713h-184v713h-330v147h330v404h-512v170h1227z" />
    <glyph glyph-name="tbar" unicode="&#x167;" horiz-adv-x="839" 
d="M586 150h198v-150h-229q-260 0 -260 252v280h-240v140h240v196h-238v146h238v313h174v-313h279v-146h-279v-196h279v-140h-279v-266q0 -60 28 -88t89 -28z" />
    <glyph glyph-name="Utilde" unicode="&#x168;" horiz-adv-x="1470" 
d="M934 1565q-88 0 -174 53l-66 39q-27 16 -38 21.5t-27 10.5t-33 5q-43 0 -66.5 -29t-23.5 -80h-150q-1 118 62.5 181t169.5 63q89 0 172 -51l61 -37q66 -39 101 -39q43 0 65.5 24t28.5 76h149q0 -119 -62 -178t-169 -59zM735 -29q-258 0 -401.5 146t-143.5 432v885h185
v-856q0 -207 89.5 -321t270.5 -114q182 0 271.5 114.5t89.5 320.5v856h184v-885q0 -278 -140.5 -428t-404.5 -150z" />
    <glyph glyph-name="utilde" unicode="&#x169;" horiz-adv-x="1177" 
d="M739 1167q-75 0 -157 54l-60 39q-56 36 -90 36q-40 0 -61 -28.5t-21 -79.5h-135q-1 119 56.5 181.5t154.5 62.5q79 0 156 -52l55 -37q58 -38 92 -38q39 0 59.5 24t24.5 76h137q0 -119 -56.5 -178.5t-154.5 -59.5zM496 -29q-169 0 -253.5 103t-84.5 280v660h174v-619
q0 -270 223 -270q276 0 276 436v453h175v-1014h-170v182q-12 -24 -26.5 -45.5t-45 -53.5t-65 -55t-88.5 -40t-115 -17z" />
    <glyph glyph-name="Umacron" unicode="&#x16a;" horiz-adv-x="1470" 
d="M1083 1624h-684v133h684v-133zM735 -29q-258 0 -401.5 146t-143.5 432v885h185v-856q0 -207 89.5 -321t270.5 -114q182 0 271.5 114.5t89.5 320.5v856h184v-885q0 -278 -140.5 -428t-404.5 -150z" />
    <glyph glyph-name="umacron" unicode="&#x16b;" horiz-adv-x="1177" 
d="M891 1212h-625v134h625v-134zM496 -29q-169 0 -253.5 103t-84.5 280v660h174v-619q0 -270 223 -270q276 0 276 436v453h175v-1014h-170v182q-12 -24 -26.5 -45.5t-45 -53.5t-65 -55t-88.5 -40t-115 -17z" />
    <glyph glyph-name="Ubreve" unicode="&#x16c;" horiz-adv-x="1470" 
d="M735 1561q-81 0 -145 23t-103 61.5t-59 86t-22 99.5h161q6 -64 50.5 -103.5t117.5 -39.5q75 0 119.5 39.5t50.5 103.5h162q-3 -112 -88 -191t-244 -79zM735 -29q-258 0 -401.5 146t-143.5 432v885h185v-856q0 -207 89.5 -321t270.5 -114q182 0 271.5 114.5t89.5 320.5
v856h184v-885q0 -278 -140.5 -428t-404.5 -150z" />
    <glyph glyph-name="ubreve" unicode="&#x16d;" horiz-adv-x="1177" 
d="M578 1141q-74 0 -132 23t-93 62t-53.5 86t-20.5 99h145q6 -64 46.5 -103.5t107.5 -39.5q69 0 109 39.5t46 103.5h146q-3 -112 -79.5 -191t-221.5 -79zM496 -29q-169 0 -253.5 103t-84.5 280v660h174v-619q0 -270 223 -270q276 0 276 436v453h175v-1014h-170v182
q-12 -24 -26.5 -45.5t-45 -53.5t-65 -55t-88.5 -40t-115 -17z" />
    <glyph glyph-name="Uring" unicode="&#x16e;" horiz-adv-x="1470" 
d="M739 1554q-103 0 -173 70t-70 174q0 98 71 166t172 68q99 0 170.5 -69t71.5 -171q0 -101 -71 -169.5t-171 -68.5zM739 1667q49 0 84 37.5t35 87.5q0 52 -34.5 88.5t-84.5 36.5q-51 0 -86 -35.5t-35 -83.5q0 -55 34 -93t87 -38zM735 -29q-258 0 -401.5 146t-143.5 432v885
h185v-856q0 -207 89.5 -321t270.5 -114q182 0 271.5 114.5t89.5 320.5v856h184v-885q0 -278 -140.5 -428t-404.5 -150z" />
    <glyph glyph-name="uring" unicode="&#x16f;" horiz-adv-x="1177" 
d="M582 1124q-97 0 -164.5 67t-67.5 165q0 93 68 158t164 65q95 0 163 -65.5t68 -161.5q0 -97 -68 -162.5t-163 -65.5zM582 1233q47 0 80.5 35.5t33.5 83.5q0 49 -33.5 83.5t-80.5 34.5q-49 0 -82 -33.5t-33 -80.5q0 -52 32 -87.5t83 -35.5zM496 -29q-169 0 -253.5 103
t-84.5 280v660h174v-619q0 -270 223 -270q276 0 276 436v453h175v-1014h-170v182q-12 -24 -26.5 -45.5t-45 -53.5t-65 -55t-88.5 -40t-115 -17z" />
    <glyph glyph-name="Uhungarumlaut" unicode="&#x170;" horiz-adv-x="1470" 
d="M637 1581h-125l123 281h254zM989 1581h-127l121 281h254zM735 -29q-258 0 -401.5 146t-143.5 432v885h185v-856q0 -207 89.5 -321t270.5 -114q182 0 271.5 114.5t89.5 320.5v856h184v-885q0 -278 -140.5 -428t-404.5 -150z" />
    <glyph glyph-name="uhungarumlaut" unicode="&#x171;" horiz-adv-x="1177" 
d="M479 1161h-114l110 281h232zM797 1161h-115l111 281h231zM496 -29q-169 0 -253.5 103t-84.5 280v660h174v-619q0 -270 223 -270q276 0 276 436v453h175v-1014h-170v182q-12 -24 -26.5 -45.5t-45 -53.5t-65 -55t-88.5 -40t-115 -17z" />
    <glyph glyph-name="Uogonek" unicode="&#x172;" horiz-adv-x="1470" 
d="M823 -418q-105 0 -169 47t-64 133q0 114 115 209q-245 9 -380 155t-135 423v885h185v-856q0 -207 89.5 -321t270.5 -114q182 0 271.5 114.5t89.5 320.5v856h184v-885q0 -435 -340 -551q-110 -37 -160.5 -85.5t-50.5 -100.5q0 -91 121 -91q14 0 90 13v-133
q-65 -19 -117 -19z" />
    <glyph glyph-name="uogonek" unicode="&#x173;" horiz-adv-x="1177" 
d="M1006 1014v-1014q-211 -85 -211 -193q0 -86 120 -86q19 0 91 13v-133q-65 -19 -113 -19q-108 0 -173 46t-65 134q0 145 181 244v176q-12 -24 -26.5 -45.5t-45 -53.5t-65 -55t-88.5 -40t-115 -17q-169 0 -253.5 103t-84.5 280v660h174v-619q0 -270 223 -270q276 0 276 436
v453h175z" />
    <glyph glyph-name="Wcircumflex" unicode="&#x174;" horiz-adv-x="2015" 
d="M821 1581h-188l239 250h279l240 -250h-191l-188 156zM668 0h-242l-346 1434h194l195 -842q54 -256 86 -381q2 9 100 358l246 865h223l252 -932q27 -100 53 -194t27 -97q4 16 16 63.5t31 126.5t47 197l203 836h193l-371 -1434h-238l-243 895l-82 307q-7 -23 -32 -113
t-54 -192z" />
    <glyph glyph-name="wcircumflex" unicode="&#x175;" horiz-adv-x="1693" 
d="M676 1161h-172l217 250h252l219 -250h-172l-172 156zM586 0h-199l-334 1014h180l152 -488l107 -344q8 29 102 336l151 496h203l164 -535q83 -278 88 -295q38 109 111 348l153 482h183l-342 -1014h-209l-158 516q-16 51 -94 307q-12 -34 -41 -129t-55 -176z" />
    <glyph glyph-name="Ycircumflex" unicode="&#x176;" horiz-adv-x="1320" 
d="M475 1581h-188l239 250h279l239 -250h-190l-188 156zM756 0h-185v606l-518 828h221l277 -457l115 -191q10 15 27.5 45t42.5 73.5t42 72.5l262 457h220l-504 -822v-612z" />
    <glyph glyph-name="ycircumflex" unicode="&#x177;" horiz-adv-x="1038" 
d="M680 1161l-172 156l-172 -156h-172l217 250h252l219 -250h-172zM616 467l185 547h184l-405 -1159q-48 -143 -115.5 -198.5t-200.5 -55.5h-196v155h192q61 0 95.5 22.5t58.5 86.5l53 153l-447 996h193l223 -529q96 -224 103 -245q4 12 77 227z" />
    <glyph glyph-name="Ydieresis" unicode="&#x178;" horiz-adv-x="1320" 
d="M551 1581h-207v203h207v-203zM983 1581h-207v203h207v-203zM756 0h-185v606l-518 828h221l277 -457l115 -191q10 15 27.5 45t42.5 73.5t42 72.5l262 457h220l-504 -822v-612z" />
    <glyph glyph-name="Zacute" unicode="&#x179;" horiz-adv-x="1271" 
d="M707 1581h-127l122 281h254zM1202 0h-1120v213l870 1051h-225h-604v170h1046v-189l-890 -1075h223h700v-170z" />
    <glyph glyph-name="zacute" unicode="&#x17a;" horiz-adv-x="997" 
d="M557 1161h-115l111 281h231zM922 0h-834v154l582 710h-219h-347v150h791v-129l-602 -735h233h396v-150z" />
    <glyph glyph-name="Zdotaccent" unicode="&#x17b;" horiz-adv-x="1271" 
d="M739 1581h-184v223h184v-223zM1202 0h-1120v213l870 1051h-225h-604v170h1046v-189l-890 -1075h223h700v-170z" />
    <glyph glyph-name="zdotaccent" unicode="&#x17c;" horiz-adv-x="997" 
d="M592 1210h-184v224h184v-224zM922 0h-834v154l582 710h-219h-347v150h791v-129l-602 -735h233h396v-150z" />
    <glyph glyph-name="Zcaron" unicode="&#x17d;" horiz-adv-x="1271" 
d="M836 1827h188l-240 -248h-278l-240 248h191l188 -154zM1202 0h-1120v213l870 1051h-225h-604v170h1046v-189l-890 -1075h223h700v-170z" />
    <glyph glyph-name="zcaron" unicode="&#x17e;" horiz-adv-x="997" 
d="M625 1161h-254l-217 250h172l172 -158l172 158h172zM922 0h-834v154l582 710h-219h-347v150h791v-129l-602 -735h233h396v-150z" />
    <glyph glyph-name="florin" unicode="&#x192;" horiz-adv-x="954" 
d="M57 -420q-97 0 -174 27v155q69 -26 144 -26q79 0 133.5 50t72.5 159l80 461q27 171 56 317h-164h-103v143h289l45 267q56 323 336 323q64 0 146 -16v-158q-56 12 -117 12q-90 0 -129.5 -45.5t-59.5 -154.5l-39 -228h263v-143h-285l-139 -797q-31 -177 -125 -261.5
t-230 -84.5z" />
    <glyph glyph-name="AEacute" unicode="&#x1fc;" horiz-adv-x="1892" 
d="M1274 1862h254l-248 -281h-127zM1788 1434v-170h-698v-426h518v-166h-518v-502h698v-170h-881v401h-493l-224 -401h-221l836 1434h983zM907 569v363v352q-28 -53 -207 -371l-192 -344h399z" />
    <glyph glyph-name="aeacute" unicode="&#x1fd;" horiz-adv-x="1738" 
d="M930 1161h-117l111 281h231zM440 -29q-158 0 -246 77t-88 212q0 79 35 143.5t93.5 108t143 75.5t175.5 49.5t199 25.5v32q0 95 -56.5 148t-171.5 53q-205 0 -272 -186l-162 53q15 53 47.5 100.5t83 89t126.5 66t167 24.5q132 0 219.5 -51t126.5 -135q42 84 135 135
t197 51q146 0 253.5 -77t155.5 -208t31 -290h-723q3 -94 29 -164t68.5 -109t91 -57t104.5 -18q194 0 279 200l159 -57q-53 -138 -168.5 -214.5t-273.5 -76.5q-138 0 -240.5 67.5t-140.5 162.5q-44 -101 -143 -165.5t-234 -64.5zM915 602h541q-1 144 -77 222.5t-189 78.5
q-110 0 -188 -82.5t-87 -218.5zM475 115q113 0 195 79.5t82 233.5v107q-467 -36 -467 -263q0 -73 48 -115t142 -42z" />
    <glyph glyph-name="Oslashacute" unicode="&#x1fe;" horiz-adv-x="1648" 
d="M885 1581h-127l121 281h254zM424 88l-125 -154l-129 103l129 158q-190 209 -190 522q0 164 54.5 303.5t149.5 236t226.5 151t283.5 54.5q227 0 404 -119l127 158l131 -106l-133 -162q182 -204 182 -516q0 -218 -92.5 -389.5t-254.5 -265t-364 -93.5q-222 0 -399 119z
M416 342l510 631q185 229 188 233q-133 88 -293 88q-155 0 -273.5 -75.5t-180.5 -206t-62 -295.5q0 -221 111 -375zM821 139q156 0 274.5 76t180 206.5t61.5 295.5q0 215 -104 368l-494 -608q-30 -36 -97.5 -121.5t-104.5 -130.5q127 -86 284 -86z" />
    <glyph glyph-name="oslashacute" unicode="&#x1ff;" horiz-adv-x="1159" 
d="M651 1161h-116l110 281h232zM580 -29q-152 0 -277 95l-78 -101l-100 78l90 111q-113 141 -113 352q0 234 137 385t341 151q160 0 280 -94l78 94l96 -75l-86 -107q111 -146 111 -354q0 -234 -138 -384.5t-341 -150.5zM326 289l327 405q97 119 109 133q-76 64 -182 64
q-133 0 -215 -100t-82 -287q0 -127 43 -215zM582 123q133 0 215 97t82 284q0 127 -45 219l-308 -385q-123 -152 -125 -154q67 -61 181 -61z" />
    <glyph glyph-name="uni0218" unicode="&#x218;" horiz-adv-x="1273" 
d="M647 -29q-223 0 -369.5 106.5t-201.5 282.5l180 82q41 -135 142.5 -219t258.5 -84q151 0 235.5 66.5t84.5 175.5q0 94 -66 153t-200 89l-197 47q-174 38 -270.5 130.5t-96.5 260.5q0 176 136 288.5t354 112.5q91 0 170 -21.5t134.5 -55.5t99 -79t69 -88.5t39.5 -87.5
l-174 -79q-11 32 -26.5 62t-45 64.5t-66.5 59.5t-93 42t-123 17q-134 0 -211.5 -62.5t-77.5 -162.5q0 -91 56.5 -142t182.5 -81l199 -45q184 -42 292.5 -145t108.5 -261q0 -191 -137.5 -308.5t-386.5 -117.5zM614 -631h-96l133 236h-108v215h200v-215z" />
    <glyph glyph-name="uni0219" unicode="&#x219;" horiz-adv-x="1009" 
d="M514 -29q-167 0 -287.5 77.5t-150.5 213.5l166 53q21 -89 87.5 -144.5t186.5 -55.5q111 0 170 40t59 111q0 61 -43.5 101t-144.5 61l-127 25q-69 14 -120 33t-97.5 51.5t-71 84t-24.5 119.5q0 132 109 216.5t268 84.5q89 0 160.5 -21.5t119 -58.5t78 -80.5t45.5 -93.5
l-154 -59q-10 30 -26.5 57t-45 55.5t-75 45t-104.5 16.5q-100 0 -153.5 -42t-53.5 -103q0 -56 37 -88.5t137 -51.5l127 -24q336 -78 336 -313q0 -141 -107.5 -225.5t-300.5 -84.5zM489 -631h-96l131 236h-108v215h202v-215z" />
    <glyph glyph-name="uni021A" unicode="&#x21a;" horiz-adv-x="1271" 
d="M719 0h-184v1264h-512v170h1226v-170h-530v-1264zM598 -631h-96l131 236h-107v215h201v-215z" />
    <glyph glyph-name="uni021B" unicode="&#x21b;" horiz-adv-x="808" 
d="M762 0h-230q-260 0 -260 252v616h-237v146h237v313h172v-313h281v-146h-281v-602q0 -60 28.5 -88t88.5 -28h201v-150zM504 -631h-96l131 236h-109v215h203v-215z" />
    <glyph glyph-name="uni0226" unicode="&#x226;" horiz-adv-x="1402" 
d="M612 1804h185v-223h-185v223zM1362 0h-207l-139 393h-637l-141 -393h-201l541 1434h253zM594 993l-156 -432h516l-153 432q-79 226 -103 287q-10 -25 -24 -64.5t-37 -103.5t-43 -119z" />
    <glyph glyph-name="uni0227" unicode="&#x227;" horiz-adv-x="1107" 
d="M623 1210h-185v224h185v-224zM430 -29q-148 0 -236 77t-88 210q0 352 646 404v34q0 94 -55.5 146.5t-170.5 52.5q-209 0 -272 -186l-168 55q13 52 46 100t86 88.5t132.5 65t175.5 24.5q199 0 298.5 -94t99.5 -258v-473q0 -39 14.5 -53t52.5 -14h101v-150h-138
q-99 0 -138.5 40.5t-47.5 123.5q-115 -193 -338 -193zM475 115q53 0 101 18.5t88 54.5t64 97.5t24 140.5v109q-467 -46 -467 -263q0 -73 49 -115t141 -42z" />
    <glyph glyph-name="uni0232" unicode="&#x232;" horiz-adv-x="1320" 
d="M1010 1624h-686v133h686v-133zM756 0h-185v606l-518 828h221l277 -457l115 -191q10 15 27.5 45t42.5 73.5t42 72.5l262 457h220l-504 -822v-612z" />
    <glyph glyph-name="uni0233" unicode="&#x233;" horiz-adv-x="1038" 
d="M197 1346h622v-134h-622v134zM616 467l185 547h184l-405 -1159q-48 -143 -115.5 -198.5t-200.5 -55.5h-196v155h192q61 0 95.5 22.5t58.5 86.5l53 153l-447 996h193l223 -529q96 -224 103 -245q4 12 77 227z" />
    <glyph glyph-name="uni0237" unicode="&#x237;" horiz-adv-x="534" 
d="M106 -399h-184v155h154q57 0 85.5 27t28.5 90v1141h172v-1161q0 -126 -65.5 -189t-190.5 -63z" />
    <glyph glyph-name="circumflex" unicode="&#x2c6;" horiz-adv-x="864" 
d="M260 1161h-172l217 250h252l219 -250h-172l-172 156z" />
    <glyph glyph-name="caron" unicode="&#x2c7;" horiz-adv-x="864" 
d="M557 1161h-252l-217 250h172l172 -158l172 158h172z" />
    <glyph glyph-name="breve" unicode="&#x2d8;" horiz-adv-x="776" 
d="M387 1141q-144 0 -220.5 79.5t-78.5 190.5h145q6 -64 46.5 -103.5t107.5 -39.5q68 0 108.5 39.5t45.5 103.5h147q-3 -112 -79.5 -191t-221.5 -79z" />
    <glyph glyph-name="dotaccent" unicode="&#x2d9;" horiz-adv-x="524" 
d="M354 1210h-184v224h184v-224z" />
    <glyph glyph-name="ring" unicode="&#x2da;" horiz-adv-x="628" 
d="M315 1124q-97 0 -164 67t-67 165q0 94 67 158.5t164 64.5q95 0 163.5 -65.5t68.5 -161.5q0 -97 -68.5 -162.5t-163.5 -65.5zM315 1233q47 0 80 35.5t33 83.5q0 49 -33 83.5t-80 34.5q-49 0 -81.5 -33.5t-32.5 -80.5q0 -52 31.5 -87.5t82.5 -35.5z" />
    <glyph glyph-name="ogonek" unicode="&#x2db;" horiz-adv-x="530" 
d="M322 -418q-108 0 -173 46t-65 134q0 189 315 306l35 -68q-209 -84 -209 -193q0 -86 119 -86q18 0 90 13v-133q-62 -19 -112 -19z" />
    <glyph glyph-name="tilde" unicode="&#x2dc;" horiz-adv-x="862" 
d="M588 1167q-76 0 -158 54l-59 39q-56 36 -90 36q-39 0 -60.5 -28.5t-21.5 -79.5h-136q-1 119 56.5 181.5t154.5 62.5q79 0 156 -52l55 -37q58 -38 93 -38q39 0 59.5 24t24.5 76h137q0 -119 -56.5 -178.5t-154.5 -59.5z" />
    <glyph glyph-name="hungarumlaut" unicode="&#x2dd;" horiz-adv-x="813" 
d="M213 1161h-115l111 281h231zM530 1161h-114l110 281h232z" />
    <glyph glyph-name="uni0394" unicode="&#x394;" horiz-adv-x="1400" 
d="M575 1434h254l531 -1434h-1323zM588 975l-289 -805h795l-287 805q-76 217 -109 305q-10 -23 -110 -305z" />
    <glyph glyph-name="uni03A9" unicode="&#x3a9;" horiz-adv-x="1646" 
d="M721 0h-565v170h108h248q-176 68 -279.5 219t-103.5 367q0 150 52.5 281t144.5 224.5t221 147t276 53.5q197 0 354.5 -91.5t245.5 -252.5t88 -362q0 -218 -100 -368t-276 -218h243h107v-170h-567v201q187 35 293 182.5t106 366.5q0 151 -58.5 274t-173 196.5t-264.5 73.5
q-149 0 -263 -73.5t-173 -196.5t-59 -274q0 -218 105 -365t290 -184v-201z" />
    <glyph glyph-name="uni03BC" unicode="&#x3bc;" horiz-adv-x="1191" 
d="M346 -399h-172v1413h172v-621q0 -137 59.5 -203.5t163.5 -66.5q54 0 97 16.5t71.5 42.5t49.5 65t32 75.5t17.5 84t8 81t1.5 73.5v453h174v-1014h-172v180q-11 -27 -32.5 -57t-59.5 -67t-99.5 -61t-134.5 -24q-112 0 -176 49v-419z" />
    <glyph glyph-name="pi" unicode="&#x3c0;" horiz-adv-x="1296" 
d="M434 0h-174v864h-219v150h1151v-150h-219v-612q0 -54 24.5 -78t81.5 -24h131v-150h-157q-256 0 -256 213v651h-363v-864z" />
    <glyph glyph-name="Wgrave" unicode="&#x1e80;" horiz-adv-x="2015" 
d="M1081 1581h-127l-243 281h250zM668 0h-242l-346 1434h194l195 -842q54 -256 86 -381q2 9 100 358l246 865h223l252 -932q27 -100 53 -194t27 -97q4 16 16 63.5t31 126.5t47 197l203 836h193l-371 -1434h-238l-243 895l-82 307q-7 -23 -32 -113t-54 -192z" />
    <glyph glyph-name="wgrave" unicode="&#x1e81;" horiz-adv-x="1693" 
d="M903 1161h-115l-223 281h228zM586 0h-199l-334 1014h180l152 -488l107 -344q8 29 102 336l151 496h203l164 -535q83 -278 88 -295q38 109 111 348l153 482h183l-342 -1014h-209l-158 516q-16 51 -94 307q-12 -34 -41 -129t-55 -176z" />
    <glyph glyph-name="Wacute" unicode="&#x1e82;" horiz-adv-x="2015" 
d="M1075 1581h-129l123 281h254zM668 0h-242l-346 1434h194l195 -842q54 -256 86 -381q2 9 100 358l246 865h223l252 -932q27 -100 53 -194t27 -97q4 16 16 63.5t31 126.5t47 197l203 836h193l-371 -1434h-238l-243 895l-82 307q-7 -23 -32 -113t-54 -192z" />
    <glyph glyph-name="wacute" unicode="&#x1e83;" horiz-adv-x="1693" 
d="M905 1161h-114l110 281h229zM586 0h-199l-334 1014h180l152 -488l107 -344q8 29 102 336l151 496h203l164 -535q83 -278 88 -295q38 109 111 348l153 482h183l-342 -1014h-209l-158 516q-16 51 -94 307q-12 -34 -41 -129t-55 -176z" />
    <glyph glyph-name="Wdieresis" unicode="&#x1e84;" horiz-adv-x="2015" 
d="M897 1581h-209v203h209v-203zM1329 1581h-207v203h207v-203zM668 0h-242l-346 1434h194l195 -842q54 -256 86 -381q2 9 100 358l246 865h223l252 -932q27 -100 53 -194t27 -97q4 16 16 63.5t31 126.5t47 197l203 836h193l-371 -1434h-238l-243 895l-82 307
q-7 -23 -32 -113t-54 -192z" />
    <glyph glyph-name="wdieresis" unicode="&#x1e85;" horiz-adv-x="1693" 
d="M745 1208h-190v201h190v-201zM1137 1208h-187v201h187v-201zM586 0h-199l-334 1014h180l152 -488l107 -344q8 29 102 336l151 496h203l164 -535q83 -278 88 -295q38 109 111 348l153 482h183l-342 -1014h-209l-158 516q-16 51 -94 307q-12 -34 -41 -129t-55 -176z" />
    <glyph glyph-name="uni1E9E" unicode="&#x1e9e;" horiz-adv-x="1452" 
d="M852 -29q-196 0 -324 70v178q75 -44 140.5 -63t173.5 -19q135 0 222 71t87 195q0 110 -82 183t-235 73h-220v168h189q125 0 199.5 61.5t74.5 166.5q0 100 -73 154.5t-199 54.5h-410v-1264h-184v1434h616q216 0 329.5 -96.5t113.5 -258.5q0 -128 -78.5 -215.5
t-181.5 -109.5q66 -11 124.5 -40t106.5 -74t76.5 -111t28.5 -144q0 -177 -134 -295.5t-360 -118.5z" />
    <glyph glyph-name="Ygrave" unicode="&#x1ef2;" horiz-adv-x="1320" 
d="M735 1581h-129l-244 281h250zM756 0h-185v606l-518 828h221l277 -457l115 -191q10 15 27.5 45t42.5 73.5t42 72.5l262 457h220l-504 -822v-612z" />
    <glyph glyph-name="ygrave" unicode="&#x1ef3;" horiz-adv-x="1038" 
d="M453 1442l110 -281h-114l-224 281h228zM616 467l185 547h184l-405 -1159q-48 -143 -115.5 -198.5t-200.5 -55.5h-196v155h192q61 0 95.5 22.5t58.5 86.5l53 153l-447 996h193l223 -529q96 -224 103 -245q4 12 77 227z" />
    <glyph glyph-name="uni2002" unicode="&#x2002;" horiz-adv-x="1024" 
 />
    <glyph glyph-name="uni2003" unicode="&#x2003;" horiz-adv-x="2048" 
 />
    <glyph glyph-name="uni2009" unicode="&#x2009;" horiz-adv-x="256" 
 />
    <glyph glyph-name="uni200A" unicode="&#x200a;" horiz-adv-x="153" 
 />
    <glyph glyph-name="endash" unicode="&#x2013;" 
d="M1120 553h-970v158h970v-158z" />
    <glyph glyph-name="emdash" unicode="&#x2014;" horiz-adv-x="1941" 
d="M1792 553h-1642v158h1642v-158z" />
    <glyph glyph-name="quoteleft" unicode="&#x2018;" horiz-adv-x="507" 
d="M276 1434h107l-145 -263h120v-241h-227v241z" />
    <glyph glyph-name="quoteright" unicode="&#x2019;" horiz-adv-x="491" 
d="M242 932h-109l148 262h-121v242h225v-242z" />
    <glyph glyph-name="quotesinglbase" unicode="&#x201a;" horiz-adv-x="528" 
d="M236 -264h-107l145 264h-120v240h227v-240z" />
    <glyph glyph-name="quotedblleft" unicode="&#x201c;" horiz-adv-x="870" 
d="M276 1434h107l-145 -263h120v-241h-227v241zM639 1434h109l-148 -263h121v-241h-225v241z" />
    <glyph glyph-name="quotedblright" unicode="&#x201d;" horiz-adv-x="856" 
d="M242 932h-109l148 262h-121v242h225v-242zM604 932h-106l145 262h-119v242h226v-242z" />
    <glyph glyph-name="quotedblbase" unicode="&#x201e;" horiz-adv-x="890" 
d="M236 -264h-107l145 264h-120v240h227v-240zM600 -264h-108l147 264h-121v240h225v-240z" />
    <glyph glyph-name="dagger" unicode="&#x2020;" horiz-adv-x="1132" 
d="M657 -215h-184v1055h-407v170h407v424h184v-424h412v-170h-412v-1055z" />
    <glyph glyph-name="daggerdbl" unicode="&#x2021;" horiz-adv-x="1218" 
d="M702 -215h-184v424h-412v170h412v461h-412v170h412v424h184v-424h408v-170h-408v-461h408v-170h-408v-424z" />
    <glyph glyph-name="bullet" unicode="&#x2022;" horiz-adv-x="1069" 
d="M535 338q-156 0 -268.5 111.5t-112.5 265.5q0 159 112 272t269 113t268.5 -112.5t111.5 -272.5q0 -154 -112 -265.5t-268 -111.5z" />
    <glyph glyph-name="ellipsis" unicode="&#x2026;" horiz-adv-x="1492" 
d="M381 0h-240v252h240v-252zM866 0h-239v252h239v-252zM1352 0h-238v252h238v-252z" />
    <glyph glyph-name="perthousand" unicode="&#x2030;" horiz-adv-x="2293" 
d="M748 1030q0 -197 -88.5 -311.5t-243.5 -114.5q-157 0 -246.5 114t-89.5 312q0 190 92 305t244 115t242 -114.5t90 -305.5zM293 0l1020 1434h178l-1018 -1434h-180zM236 1030q0 -139 48 -218t132 -79q82 0 128 78t46 219q0 132 -48 211.5t-126 79.5q-82 0 -131 -79.5
t-49 -211.5zM1890 836q152 0 242 -114.5t90 -305.5q0 -197 -88.5 -311.5t-243.5 -114.5q-172 0 -260 133q-88 -133 -256 -133q-157 0 -246.5 114t-89.5 312q0 191 91.5 305.5t244.5 114.5q166 0 256 -136q93 136 260 136zM1374 121q80 0 127 78.5t47 216.5q0 132 -48 211.5
t-126 79.5q-82 0 -131 -79.5t-49 -211.5q0 -139 48 -217t132 -78zM1890 121q82 0 128 78t46 217q0 132 -48 211.5t-126 79.5q-82 0 -131 -79.5t-49 -211.5q0 -139 48 -217t132 -78z" />
    <glyph glyph-name="guilsinglleft" unicode="&#x2039;" horiz-adv-x="649" 
d="M549 954l-270 -430l274 -442h-193l-270 436l272 436h187z" />
    <glyph glyph-name="guilsinglright" unicode="&#x203a;" horiz-adv-x="649" 
d="M96 954h193l270 -436l-272 -436h-187l269 430z" />
    <glyph glyph-name="fraction" unicode="&#x2044;" horiz-adv-x="374" 
d="M-233 0h-181l1020 1434h178z" />
    <glyph glyph-name="uni2070" unicode="&#x2070;" horiz-adv-x="858" 
d="M432 791q-159 0 -248.5 114t-89.5 312q0 191 92 305t246 114q151 0 241.5 -114.5t90.5 -304.5q0 -197 -89 -311.5t-243 -114.5zM432 920q80 0 127 78.5t47 218.5q0 132 -48 211t-126 79q-82 0 -131 -79t-49 -211q0 -140 47.5 -218.5t132.5 -78.5z" />
    <glyph glyph-name="uni2074" unicode="&#x2074;" horiz-adv-x="765" 
d="M578 805h-142v215h-373v110l332 490h183v-477h116v-123h-116v-215zM371 1143h65v98v215l-213 -313h148z" />
    <glyph glyph-name="uni2075" unicode="&#x2075;" horiz-adv-x="778" 
d="M391 791q-126 0 -210 61.5t-97 165.5l149 41q10 -67 50 -103t102 -36q66 0 104.5 40.5t38.5 106.5q0 68 -38 105.5t-101 37.5q-89 0 -129 -88l-160 25l72 473h492v-131h-371l-14 -103l-15 -118q58 67 166 67q113 0 184.5 -73.5t71.5 -194.5q0 -124 -81.5 -200t-213.5 -76
z" />
    <glyph glyph-name="uni2076" unicode="&#x2076;" horiz-adv-x="790" 
d="M410 791q-148 0 -232 105t-84 290q0 208 105.5 329t289.5 121q100 0 170 -34v-142q-83 41 -170 41q-100 0 -163.5 -63.5t-75.5 -188.5q29 47 80 72t106 25q120 0 193 -75t73 -192q0 -128 -81 -208t-211 -80zM410 920q60 0 98.5 41t38.5 108t-38.5 110.5t-98.5 43.5
t-99 -43.5t-39 -110.5t38.5 -108t99.5 -41z" />
    <glyph glyph-name="uni2077" unicode="&#x2077;" horiz-adv-x="700" 
d="M346 805h-164q0 431 289 684h-111h-294v131h575v-135q-174 -141 -235.5 -299.5t-59.5 -380.5z" />
    <glyph glyph-name="uni2078" unicode="&#x2078;" horiz-adv-x="780" 
d="M389 791q-136 0 -215.5 63.5t-79.5 173.5q0 69 40.5 122t111.5 79q-129 57 -129 182q0 100 75.5 162.5t196.5 62.5q123 0 198 -62.5t75 -162.5q0 -61 -32 -108.5t-93 -73.5q70 -26 108.5 -79t38.5 -122q0 -110 -79.5 -173.5t-215.5 -63.5zM389 1272q53 0 87 37.5t34 89.5
q0 49 -33.5 79.5t-87.5 30.5t-86.5 -30t-32.5 -80q0 -53 33 -90t86 -37zM389 920q65 0 101 31.5t36 88.5q0 58 -37 92.5t-100 34.5t-99 -34t-36 -93q0 -57 36 -88.5t99 -31.5z" />
    <glyph glyph-name="uni2079" unicode="&#x2079;" horiz-adv-x="784" 
d="M311 791q-105 0 -182 36v148q89 -45 176 -45q98 0 158 57q73 70 76 197q-62 -97 -185 -97q-117 0 -192.5 73.5t-75.5 187.5q0 127 80.5 207.5t206.5 80.5q132 0 213 -84q104 -104 104 -311q0 -212 -100 -331t-279 -119zM377 1214q60 0 98.5 40t38.5 106t-38.5 107.5
t-98.5 41.5q-59 0 -96 -41.5t-37 -107.5t37 -106t96 -40z" />
    <glyph glyph-name="uni20A9" unicode="&#x20a9;" horiz-adv-x="2191" 
d="M2109 938v-135h-243l-43 -164h223v-135h-258l-129 -504h-238l-135 504h-393l-141 -504h-244l-121 504h-242v135h209l-39 164h-235v135h203l-119 496h196l113 -496h371l141 496h221l133 -496h377l117 496h195l-127 -496h208zM1094 1214q-56 -207 -78 -276h151
q-50 184 -73 276zM807 803h-303l37 -164h219zM977 803l-45 -164h317l-45 164h-227zM1421 639h224l38 164h-307zM639 201q41 150 84 303h-152q16 -81 68 -303zM1538 201q8 33 33.5 138.5t40.5 164.5h-154q17 -59 80 -303z" />
    <glyph glyph-name="Euro" unicode="&#x20ac;" horiz-adv-x="1449" 
d="M827 -29q-226 0 -369 139t-184 382h-186v143h166q-6 96 0 176h-166v145h186q50 239 196 372.5t366 133.5q110 0 201.5 -33.5t153 -91t101.5 -125t58 -143.5l-181 -63q-10 42 -25 80t-43.5 78t-64.5 69.5t-91 48t-120 18.5q-131 0 -224.5 -88t-131.5 -256h272h174v-145
h-466q-6 -93 0 -176h466v-143h-172h-276q34 -174 127.5 -266.5t230.5 -92.5q81 0 142 24.5t101 71t64 96.5t44 119l180 -67q-23 -84 -67 -155.5t-109 -128.5t-156 -89.5t-197 -32.5z" />
    <glyph glyph-name="uni20B9" unicode="&#x20b9;" horiz-adv-x="1171" 
d="M1079 1434v-150h-125h-227q44 -15 85.5 -55t64.5 -99h202v-147h-182q-4 -57 -22.5 -106t-54 -93t-97 -76t-143.5 -46q74 -9 125 -30.5t86 -60.5t56 -85.5t40 -118.5l94 -367h-201l-86 354q-31 133 -106.5 189.5t-225.5 56.5h-241v168h309q117 0 193.5 55.5t91.5 159.5
h-594v147h579q-28 77 -99 115.5t-171 38.5h-309v150h958z" />
    <glyph glyph-name="uni20BA" unicode="&#x20ba;" horiz-adv-x="1239" 
d="M403 0h-90v326v192q-80 -42 -131 -72l-59 -32v164l190 108v148l-190 -105v166l190 109v432h185v-166v-166l176 100l272 156v-168l-448 -254v-150l448 259v-170l-448 -254v-447h28q48 3 96.5 16t106 46t105.5 81t89.5 128t63.5 180l184 -70q-22 -87 -56.5 -161.5
t-96 -149.5t-143 -127.5t-203 -85.5t-269.5 -33z" />
    <glyph glyph-name="uni20BD" unicode="&#x20bd;" horiz-adv-x="1282" 
d="M723 578h-281v-152h385v-147h-385v-279h-182v279h-156v147h156v152h-156v157h156v699h467q220 0 345.5 -118.5t125.5 -311.5q0 -191 -126.5 -308.5t-348.5 -117.5zM692 1264h-250v-529h250q153 0 232.5 75t79.5 194q0 118 -78 189t-234 71z" />
    <glyph glyph-name="uni20BF" unicode="&#x20bf;" horiz-adv-x="1368" 
d="M1270 395q0 -173 -109.5 -274t-283.5 -117v-219h-142v215h-133v-215h-141v215h-250v1434h250v213h141v-213h133v213h142v-220q169 -21 256.5 -113t87.5 -233q0 -136 -78 -221t-185 -112q59 -10 113 -37.5t99.5 -70t72.5 -106.5t27 -139zM758 1264h-363v-437h363
q125 0 197.5 61.5t72.5 164.5q0 102 -71.5 156.5t-198.5 54.5zM395 170h387q135 0 213 67.5t78 180.5t-77.5 178.5t-213.5 65.5h-387v-492z" />
    <glyph glyph-name="uni2113" unicode="&#x2113;" horiz-adv-x="952" 
d="M524 -29q-62 0 -115.5 17.5t-97.5 52.5t-69 94.5t-25 138.5v150q-63 -11 -147 -14v149q97 7 147 14v568q0 85 32.5 156t104 118t170.5 47q174 0 267.5 -108t93.5 -285q0 -70 -16 -139t-52.5 -140t-91.5 -132t-138.5 -113t-187.5 -84v-191q0 -68 35 -103.5t88 -35.5
q131 0 174 197l158 -82q-32 -137 -121.5 -206t-208.5 -69zM399 625q152 64 223.5 180.5t71.5 263.5q0 108 -45 172t-125 64q-125 0 -125 -181v-204v-295z" />
    <glyph glyph-name="uni2116" unicode="&#x2116;" horiz-adv-x="2439" 
d="M1976 592q-166 0 -278.5 121t-112.5 309q0 192 112 312t279 120q166 0 278.5 -120.5t112.5 -311.5q0 -188 -113 -309t-278 -121zM401 0h-184v1434h248l792 -1125v320v805h185v-1434h-187l-854 1212v-362v-850zM1976 725q103 0 162.5 78t59.5 219q0 145 -59.5 222
t-162.5 77q-102 0 -161.5 -77t-59.5 -222q0 -140 60 -218.5t161 -78.5z" />
    <glyph glyph-name="uni2117" unicode="&#x2117;" horiz-adv-x="1796" 
d="M899 -55q-165 0 -313.5 62t-254 167t-167.5 250.5t-62 306.5t62 307.5t167.5 253t254 169.5t313.5 63q164 0 312 -63t253.5 -169.5t167.5 -253t62 -307.5q0 -215 -105 -395.5t-288 -285.5t-402 -105zM899 74q184 0 335 89t235.5 239.5t84.5 328.5q0 135 -50 257
t-136.5 211t-208.5 141.5t-260 52.5t-260.5 -52.5t-209 -141.5t-137 -211t-50.5 -257q0 -178 85 -328.5t236.5 -239.5t335.5 -89zM782 332h-131v825h332q53 0 104 -15.5t94.5 -45.5t70 -82t26.5 -117t-26.5 -117t-69.5 -82.5t-94.5 -46.5t-106.5 -16h-199v-303zM782 1040
v-295h162q197 0 197 152q0 143 -197 143h-162z" />
    <glyph glyph-name="trademark" unicode="&#x2122;" horiz-adv-x="1855" 
d="M465 662h-143v645h-252v127h651v-127h-256v-645zM971 662h-146v772h234l125 -375q21 -64 46 -137t32 -93l71 230l123 375h225v-772h-143v288v353l-209 -641h-139l-219 634v-346v-288z" />
    <glyph glyph-name="uni2126" unicode="&#x2126;" horiz-adv-x="1626" 
d="M711 0h-566v170h107h250q-177 68 -279 218.5t-102 367.5q0 200 89 361.5t247.5 253t355.5 91.5t355 -91.5t246.5 -253t88.5 -361.5q0 -217 -101.5 -367.5t-277.5 -218.5h246h107v-170h-570v201q188 35 294 182.5t106 366.5q0 151 -58.5 274t-172.5 196.5t-263 73.5
q-150 0 -265 -73.5t-174 -196.5t-59 -274q0 -218 105 -365.5t291 -183.5v-201z" />
    <glyph glyph-name="uni2153" unicode="&#x2153;" horiz-adv-x="1681" 
d="M434 618h-149v394v223q-41 -57 -97 -87t-112 -32v135q164 39 237 183h121v-816zM342 0h-180l1020 1434h178zM1309 -16q-133 0 -214.5 73t-86.5 195l153 31q2 -78 40 -124t106 -46q57 0 93 32t36 86q0 57 -38.5 89t-109.5 32h-63v125h63q63 0 98 31.5t35 83.5
q0 49 -31.5 79.5t-82.5 30.5q-58 0 -92 -40t-33 -109l-154 29q0 109 79 178t200 69q120 0 194 -61.5t74 -159.5q0 -62 -33.5 -110.5t-99.5 -75.5q151 -56 151 -201q0 -104 -79.5 -170.5t-204.5 -66.5z" />
    <glyph glyph-name="uni2154" unicode="&#x2154;" horiz-adv-x="1865" 
d="M672 618h-566v140q73 45 123.5 79t106.5 79t89.5 84.5t56 86.5t22.5 93q0 64 -34 102.5t-91 38.5q-61 0 -97 -48.5t-30 -133.5l-152 22q-6 128 72.5 208.5t208.5 80.5q126 0 203.5 -72t77.5 -188t-91 -225q-85 -108 -274 -213h276h99v-134zM528 0h-180l1020 1434h178z
M1495 -16q-132 0 -214 73.5t-85 194.5l154 31q2 -78 39.5 -124t105.5 -46q57 0 93 32t36 86q0 57 -38.5 89t-110.5 32h-62v125h62q65 0 100 31.5t35 83.5q0 49 -32 79.5t-83 30.5q-59 0 -93 -39.5t-34 -109.5l-154 29q1 110 80 178.5t201 68.5q119 0 193.5 -61.5
t74.5 -159.5q0 -62 -34 -110.5t-101 -75.5q76 -27 115 -79t39 -122q0 -104 -81 -170.5t-206 -66.5z" />
    <glyph glyph-name="uni2155" unicode="&#x2155;" horiz-adv-x="1703" 
d="M434 618h-149v394v223q-41 -57 -97 -87t-112 -32v135q164 39 237 183h121v-816zM342 0h-180l1020 1434h178zM1313 -16q-126 0 -210 61.5t-97 165.5l149 41q10 -67 50 -103t102 -36q65 0 104 41t39 108t-38.5 105.5t-100.5 38.5q-89 0 -129 -91l-160 25l72 475h491v-131
h-371l-14 -104l-14 -119q57 69 166 69q113 0 184.5 -73.5t71.5 -194.5q0 -124 -81.5 -201t-213.5 -77z" />
    <glyph glyph-name="uni2156" unicode="&#x2156;" horiz-adv-x="1886" 
d="M672 618h-566v140q73 45 123.5 79t106.5 79t89.5 84.5t56 86.5t22.5 93q0 64 -34 102.5t-91 38.5q-61 0 -97 -48.5t-30 -133.5l-152 22q-6 128 72.5 208.5t208.5 80.5q126 0 203.5 -72t77.5 -188t-91 -225q-85 -108 -274 -213h276h99v-134zM528 0h-180l1020 1434h178z
M1497 -16q-126 0 -209 61.5t-96 165.5l149 41q9 -67 49.5 -103t102.5 -36q64 0 102.5 41t38.5 108t-37.5 105.5t-99.5 38.5q-89 0 -129 -91l-160 25l70 475h491v-131h-368l-17 -104q-2 -30 -12 -119q57 69 164 69q115 0 186.5 -73.5t71.5 -194.5q0 -124 -82.5 -201
t-214.5 -77z" />
    <glyph glyph-name="uni2157" unicode="&#x2157;" horiz-adv-x="1884" 
d="M379 604q-133 0 -215.5 73t-85.5 193l153 31q2 -78 40 -123t106 -45q58 0 93.5 32t35.5 87q0 56 -38.5 87.5t-109.5 31.5h-63v127h63q64 0 99 30t35 82q0 50 -32 81.5t-83 31.5q-58 0 -92 -41t-33 -111l-154 29q0 110 79 180t200 70q118 0 193 -62.5t75 -160.5
q0 -129 -133 -187q74 -28 113 -79t39 -119q0 -105 -80 -171.5t-205 -66.5zM522 0h-180l1020 1434h178zM1493 -16q-126 0 -210 61.5t-97 165.5l149 41q9 -67 49.5 -103t102.5 -36q65 0 104 41t39 108t-38.5 105.5t-100.5 38.5q-89 0 -129 -91l-160 25l70 475h491v-131h-368
l-15 -104l-14 -119q57 69 166 69q113 0 184.5 -73.5t71.5 -194.5q0 -124 -81.5 -201t-213.5 -77z" />
    <glyph glyph-name="uni2158" unicode="&#x2158;" horiz-adv-x="1888" 
d="M582 618h-142v216h-372v110l329 490h185v-478h116v-122h-116v-216zM518 0h-180l1020 1434h178zM375 956h65v99v215l-213 -314h148zM1487 -16q-126 0 -209 61.5t-96 165.5l149 41q9 -67 49.5 -103t102.5 -36q64 0 102.5 41t38.5 108t-37.5 105.5t-99.5 38.5
q-89 0 -129 -91l-160 25l70 475h491v-131h-368l-17 -104q-2 -30 -12 -119q57 69 164 69q115 0 186.5 -73.5t71.5 -194.5q0 -124 -82.5 -201t-214.5 -77z" />
    <glyph glyph-name="uni2159" unicode="&#x2159;" horiz-adv-x="1691" 
d="M434 618h-149v394v223q-41 -57 -97 -87t-112 -32v135q164 39 237 183h121v-816zM342 0h-180l1020 1434h178zM1339 -16q-148 0 -231.5 105.5t-83.5 291.5q0 208 105.5 328t289.5 120q104 0 170 -32v-142q-83 41 -170 41q-101 0 -165 -64t-74 -190q29 49 79.5 74t106.5 25
q120 0 193 -75.5t73 -193.5q0 -127 -81.5 -207.5t-211.5 -80.5zM1339 113q60 0 99 42t39 109t-39 109.5t-99 42.5t-99.5 -43t-39.5 -109q0 -67 39 -109t100 -42z" />
    <glyph glyph-name="uni215A" unicode="&#x215a;" horiz-adv-x="1906" 
d="M381 604q-126 0 -209 61.5t-96 165.5l149 41q9 -67 49.5 -103t102.5 -36q64 0 102.5 41t38.5 107q0 68 -37 105.5t-100 37.5q-89 0 -129 -88l-160 25l70 473h491v-131h-368l-17 -103q-2 -35 -12 -119q59 68 164 68q115 0 186.5 -73.5t71.5 -194.5q0 -124 -82.5 -200.5
t-214.5 -76.5zM530 0h-180l1020 1434h178zM1528 -16q-148 0 -233 105.5t-85 291.5q0 207 107 327.5t291 120.5q50 0 97.5 -10t70.5 -22v-142q-83 41 -168 41q-102 0 -166 -63.5t-76 -190.5q31 49 81.5 74t106.5 25q119 0 193 -75.5t74 -193.5q0 -127 -81.5 -207.5
t-211.5 -80.5zM1528 113q60 0 98.5 42t38.5 109t-38.5 109.5t-98.5 42.5t-99.5 -43t-39.5 -109q0 -67 39 -109t100 -42z" />
    <glyph glyph-name="oneeighth" unicode="&#x215b;" horiz-adv-x="1695" 
d="M434 618h-149v394v223q-41 -57 -97 -87t-112 -32v135q164 39 237 183h121v-816zM342 0h-180l1020 1434h178zM1317 -16q-135 0 -215 64.5t-80 174.5q0 68 39.5 121.5t109.5 79.5q-129 58 -129 182q0 99 76.5 161t198.5 62t197 -61.5t75 -161.5q0 -60 -33 -108t-94 -74
q71 -26 109.5 -79.5t38.5 -121.5q0 -110 -79.5 -174.5t-213.5 -64.5zM1317 465q53 0 87 38t34 91q0 49 -33.5 78.5t-87.5 29.5t-86.5 -29.5t-32.5 -78.5q0 -53 33.5 -91t85.5 -38zM1317 113q64 0 100.5 33t36.5 90t-37 91.5t-100 34.5q-64 0 -100.5 -34t-36.5 -92
q0 -57 36.5 -90t100.5 -33z" />
    <glyph glyph-name="threeeighths" unicode="&#x215c;" horiz-adv-x="1873" 
d="M379 604q-133 0 -215.5 73t-85.5 193l153 31q2 -78 40 -123t106 -45q58 0 93.5 32t35.5 87q0 56 -38.5 87.5t-109.5 31.5h-63v127h63q64 0 99 30t35 82q0 50 -32 81.5t-83 31.5q-58 0 -92 -41t-33 -111l-154 29q0 110 79 180t200 70q118 0 193 -62.5t75 -160.5
q0 -129 -133 -187q74 -28 113 -79t39 -119q0 -105 -80 -171.5t-205 -66.5zM522 0h-180l1020 1434h178zM1497 -16q-135 0 -215 64.5t-80 174.5q0 68 40 121.5t110 79.5q-129 58 -129 182q0 100 76 161.5t198 61.5t197 -61.5t75 -161.5q0 -60 -33 -108t-94 -74
q71 -26 109.5 -79.5t38.5 -121.5q0 -110 -79.5 -174.5t-213.5 -64.5zM1497 465q52 0 85.5 38t33.5 91q0 49 -32.5 78.5t-86.5 29.5q-55 0 -87 -29t-32 -79q0 -53 32.5 -91t86.5 -38zM1497 113q64 0 100.5 33t36.5 90t-37 91.5t-100 34.5q-64 0 -100.5 -34t-36.5 -92
q0 -57 36.5 -90t100.5 -33z" />
    <glyph glyph-name="fiveeighths" unicode="&#x215d;" horiz-adv-x="1884" 
d="M381 604q-126 0 -209 61.5t-96 165.5l149 41q9 -67 49.5 -103t102.5 -36q64 0 102.5 41t38.5 107q0 68 -37 105.5t-100 37.5q-89 0 -129 -88l-160 25l70 473h491v-131h-368l-17 -103q-2 -35 -12 -119q59 68 164 68q115 0 186.5 -73.5t71.5 -194.5q0 -124 -82.5 -200.5
t-214.5 -76.5zM530 0h-180l1020 1434h178zM1505 -16q-135 0 -215 64.5t-80 174.5q0 68 40 121.5t110 79.5q-129 58 -129 182q0 100 76 161.5t198 61.5t197.5 -61.5t75.5 -161.5q0 -60 -33 -108t-94 -74q71 -26 109 -79t38 -122q0 -110 -79.5 -174.5t-213.5 -64.5zM1505 465
q52 0 85.5 38t33.5 91q0 49 -32.5 78.5t-86.5 29.5q-55 0 -87 -29t-32 -79q0 -53 32.5 -91t86.5 -38zM1505 113q64 0 100.5 33t36.5 90t-37 91.5t-100 34.5q-64 0 -100.5 -34t-36.5 -92q0 -57 36.5 -90t100.5 -33z" />
    <glyph glyph-name="seveneighths" unicode="&#x215e;" horiz-adv-x="1681" 
d="M356 618h-166q0 430 291 685h-110h-295v131h575v-136q-174 -141 -235.5 -299.5t-59.5 -380.5zM330 0h-183l1022 1434h179zM1303 -16q-135 0 -215 64.5t-80 174.5q0 68 40.5 121.5t110.5 79.5q-129 57 -129 182q0 100 75.5 161.5t197.5 61.5q123 0 197.5 -61.5
t74.5 -161.5q0 -61 -32 -108.5t-93 -73.5q70 -26 108.5 -79.5t38.5 -121.5q0 -110 -79.5 -174.5t-214.5 -64.5zM1303 465q53 0 86.5 38t33.5 91q0 49 -33 78.5t-87 29.5t-86.5 -29.5t-32.5 -78.5q0 -53 33.5 -91t85.5 -38zM1303 113q64 0 100.5 33t36.5 90t-37 91.5
t-100 34.5t-99.5 -34.5t-36.5 -91.5t36.5 -90t99.5 -33z" />
    <glyph glyph-name="uni215F" unicode="&#x215f;" horiz-adv-x="737" 
d="M426 618h-150v394v223q-41 -57 -96.5 -87t-113.5 -32v135q167 39 237 183h123v-816zM334 0h-180l1020 1434h178z" />
    <glyph glyph-name="arrowleft" unicode="&#x2190;" horiz-adv-x="1714" 
d="M1622 805v-176h-1227l170 -170l223 -219l-126 -125l-599 602l599 602l126 -125l-223 -217q-27 -29 -170 -172h1227z" />
    <glyph glyph-name="arrowup" unicode="&#x2191;" horiz-adv-x="1312" 
d="M745 0h-178v1227l-168 -170l-221 -223l-123 127l600 598l602 -598l-124 -127l-218 223q-59 55 -170 170v-1227z" />
    <glyph glyph-name="arrowright" unicode="&#x2192;" horiz-adv-x="1714" 
d="M92 629v176h1227l-170 170l-221 219l125 125l600 -602l-600 -602l-125 125l221 217q57 59 170 172h-1227z" />
    <glyph glyph-name="arrowdown" unicode="&#x2193;" horiz-adv-x="1312" 
d="M567 1434h178v-1227q110 115 168 170l220 223l124 -127l-602 -598l-600 598l123 127l219 -223q25 -24 53.5 -52.5t63 -63.5t53.5 -54v1227z" />
    <glyph glyph-name="uni2196" unicode="&#x2196;" horiz-adv-x="1349" 
d="M455 1260l829 -828l-125 -123l-827 828v-260v-293h-174v850h848v-174h-289h-262z" />
    <glyph glyph-name="uni2197" unicode="&#x2197;" horiz-adv-x="1347" 
d="M1016 1135l-828 -828l-122 123l827 830h-260h-291v174h848v-848h-174v288v261z" />
    <glyph glyph-name="uni2198" unicode="&#x2198;" horiz-adv-x="1333" 
d="M883 174l-830 827l125 123l828 -827v260v293h174v-850h-848v174h289h262z" />
    <glyph glyph-name="uni2199" unicode="&#x2199;" horiz-adv-x="1337" 
d="M332 299l825 827l125 -122l-827 -830h260h291v-174h-850v848h176v-289v-260z" />
    <glyph glyph-name="uni21A4" unicode="&#x21a4;" horiz-adv-x="1853" 
d="M1454 805v430h170v-1036h-170v430h-1057q39 -41 187 -185l207 -204l-129 -125l-596 602l596 602l129 -125l-209 -205q-15 -15 -83 -81.5t-102 -102.5h1057z" />
    <glyph glyph-name="uni21A5" unicode="&#x21a5;" horiz-adv-x="1337" 
d="M754 1227v-1057h428v-170h-1035v170h428v1057q-45 -44 -184 -187l-205 -206l-123 129l603 596l600 -596l-123 -129l-205 208z" />
    <glyph glyph-name="uni21A6" unicode="&#x21a6;" horiz-adv-x="1849" 
d="M1063 1194l127 125l598 -602l-598 -602l-127 125l209 204q139 139 182 185h-1057v-430h-168v1036h168v-430h1057q-57 61 -184 184z" />
    <glyph glyph-name="uni21A7" unicode="&#x21a7;" horiz-adv-x="1337" 
d="M944 393l205 207l125 -129l-602 -596l-602 596l125 129l204 -209q155 -154 185 -184v1057h-430v170h1036v-170h-430v-1057q41 38 184 186z" />
    <glyph glyph-name="uni21B0" unicode="&#x21b0;" horiz-adv-x="1763" 
d="M393 805h1227v-805h-182v629h-1045q19 -19 54 -53.5t63.5 -63t52.5 -53.5l223 -219l-127 -125l-598 602l598 602l127 -125l-223 -217q-27 -29 -170 -172z" />
    <glyph glyph-name="uni21B1" unicode="&#x21b1;" horiz-adv-x="1761" 
d="M977 1194l125 125l600 -602l-600 -602l-125 125l221 217q57 59 170 172h-1044v-629h-183v805h1227l-170 170z" />
    <glyph glyph-name="uni21B2" unicode="&#x21b2;" horiz-adv-x="1761" 
d="M1438 805v629h182v-805h-1227q19 -19 54 -53.5t63.5 -63t52.5 -53.5l223 -219l-127 -125l-598 602l598 602l127 -125l-223 -217q-27 -29 -170 -172h1045z" />
    <glyph glyph-name="uni21B3" unicode="&#x21b3;" horiz-adv-x="1763" 
d="M977 1194l125 125l600 -602l-600 -602l-125 125l221 217q57 59 170 172h-1225v805h181v-629h1044l-170 170z" />
    <glyph glyph-name="partialdiff" unicode="&#x2202;" horiz-adv-x="1239" 
d="M590 -29q-118 0 -213.5 40t-156 109t-92.5 158t-32 191q0 126 53 229t158.5 165.5t245.5 62.5q134 0 240 -69.5t151 -190.5q1 155 -37 275t-108 194.5t-164 112.5t-209 38q-132 0 -250 -43v182q116 37 264 37q170 0 303 -63t215 -172.5t124 -251.5t42 -307
q0 -338 -145 -517.5t-389 -179.5zM590 133q131 0 219 88t88 228q0 143 -87.5 231t-219.5 88q-130 0 -216.5 -86.5t-86.5 -230.5t86.5 -231t216.5 -87z" />
    <glyph glyph-name="uni2206" unicode="&#x2206;" horiz-adv-x="1435" 
d="M594 1434h254l530 -1434h-1323zM606 975l-291 -805h797l-287 805q-64 184 -110 305q-10 -29 -25.5 -72t-39.5 -110t-44 -123z" />
    <glyph glyph-name="product" unicode="&#x220f;" horiz-adv-x="1484" 
d="M76 1434h1331v-170h-190v-1479h-185v1479h-579v-1479h-185v1479h-192v170z" />
    <glyph glyph-name="summation" unicode="&#x2211;" horiz-adv-x="1173" 
d="M1096 -215h-1014v168l543 653l-535 643v185h989v-170h-436h-328l543 -656l-547 -653h332h453v-170z" />
    <glyph glyph-name="minus" unicode="&#x2212;" horiz-adv-x="1392" 
d="M1243 639h-1091v168h1091v-168z" />
    <glyph glyph-name="uni2215" unicode="&#x2215;" horiz-adv-x="706" 
d="M162 -215h-174l553 1866h174z" />
    <glyph glyph-name="radical" unicode="&#x221a;" horiz-adv-x="1282" 
d="M737 -215h-231l-291 852h-184v168h315l178 -557q81 -257 99 -305q28 97 96 305l373 1186h194z" />
    <glyph glyph-name="infinity" unicode="&#x221e;" horiz-adv-x="1738" 
d="M487 342q-152 0 -264 111.5t-112 269.5q0 159 111.5 271t264.5 112q234 0 385 -232q151 232 383 232q152 0 261.5 -111.5t109.5 -271.5q0 -159 -109.5 -270t-261.5 -111q-120 0 -213.5 54t-171.5 175q-152 -229 -383 -229zM502 498q77 0 137.5 50.5t144.5 178.5
q-75 118 -139 170.5t-143 52.5q-95 0 -158 -66.5t-63 -160.5q0 -93 63 -159t158 -66zM1237 498q95 0 158 66t63 159q0 94 -63 160.5t-158 66.5q-77 0 -141 -52.5t-140 -170.5q84 -128 144.5 -178.5t136.5 -50.5z" />
    <glyph glyph-name="integral" unicode="&#x222b;" horiz-adv-x="749" 
d="M209 -399h-193v161h158q50 0 80.5 33t30.5 92v1282q0 116 62 190.5t190 74.5h194v-162h-160q-48 0 -77 -33.5t-29 -93.5v-1280q0 -115 -63 -189.5t-193 -74.5z" />
    <glyph glyph-name="approxequal" unicode="&#x2248;" horiz-adv-x="1335" 
d="M887 778q-44 0 -88.5 12t-120.5 46l-64 30q-111 47 -172 47q-102 0 -196 -104l-103 127q65 77 149 116.5t161 39.5q85 0 204 -56l66 -30q113 -48 174 -48q99 0 197 105l100 -129q-65 -75 -149 -115.5t-158 -40.5zM887 328q-45 0 -89.5 12t-119.5 45l-64 31
q-111 47 -172 47q-101 0 -196 -105l-103 127q65 77 149 116.5t161 39.5q87 0 204 -55l66 -31q111 -47 174 -47q100 0 197 104l100 -129q-65 -75 -148.5 -115t-158.5 -40z" />
    <glyph glyph-name="notequal" unicode="&#x2260;" horiz-adv-x="1398" 
d="M457 170h-187l152 244h-272v168h372l74 120q16 26 46.5 76.5t45.5 75.5h-201h-337v168h641l151 246h184l-149 -246h270v-168h-373l-73 -123l-94 -149h196h344v-168h-641z" />
    <glyph glyph-name="lessequal" unicode="&#x2264;" horiz-adv-x="1413" 
d="M1247 592v-186l-1097 301v270l1097 303v-178l-639 -168q-240 -61 -356 -88q154 -40 356 -86zM1247 174h-1097v168h1097v-168z" />
    <glyph glyph-name="greaterequal" unicode="&#x2265;" horiz-adv-x="1413" 
d="M1264 709l-1096 -303v178l637 168q240 61 356 88q-132 35 -356 86l-637 170v184l1096 -301v-270zM1264 174h-1096v168h1096v-168z" />
    <glyph glyph-name="angleleft" unicode="&#x2329;" horiz-adv-x="690" 
d="M500 1567l145 -72l-424 -872l422 -887l-145 -70l-453 948z" />
    <glyph glyph-name="angleright" unicode="&#x232a;" horiz-adv-x="684" 
d="M47 1499l143 70l455 -951l-457 -952l-145 74l426 872z" />
    <glyph glyph-name="uni2460" unicode="&#x2460;" horiz-adv-x="1759" 
d="M879 -43q-163 0 -308.5 61t-250 164.5t-165.5 246.5t-61 302t61 303t165 248.5t250 166.5t309 62t308.5 -62t249.5 -166.5t165 -248.5t61 -303t-61 -302t-165 -246.5t-249.5 -164.5t-308.5 -61zM879 88q136 0 256.5 50.5t205 136.5t133 204.5t48.5 251.5
q0 179 -82.5 327.5t-230.5 235t-330 86.5t-330 -86.5t-230.5 -235t-82.5 -327.5q0 -133 48.5 -251.5t133 -204.5t205 -136.5t256.5 -50.5zM987 328h-149v391v225q-41 -57 -97 -87t-112 -32v136q162 36 237 182h121v-815z" />
    <glyph glyph-name="uni2461" unicode="&#x2461;" horiz-adv-x="1759" 
d="M879 -43q-163 0 -308.5 61t-250 164.5t-165.5 246.5t-61 302t61 303t165 248.5t250 166.5t309 62t308.5 -62t249.5 -166.5t165 -248.5t61 -303t-61 -302t-165 -246.5t-249.5 -164.5t-308.5 -61zM879 88q136 0 256.5 50.5t205 136.5t133 204.5t48.5 251.5
q0 179 -82.5 327.5t-230.5 235t-330 86.5t-330 -86.5t-230.5 -235t-82.5 -327.5q0 -133 48.5 -251.5t133 -204.5t205 -136.5t256.5 -50.5zM1165 328h-565v139q73 45 123.5 79.5t106.5 79t89.5 84t55.5 86.5t22 93q0 65 -33 103t-90 38q-62 0 -97 -48t-29 -134l-154 22
q-6 127 73 208t210 81q125 0 201.5 -72t76.5 -188t-88 -225q-83 -105 -274 -213h274h98v-133z" />
    <glyph glyph-name="uni2462" unicode="&#x2462;" horiz-adv-x="1759" 
d="M879 -43q-163 0 -308.5 61t-250 164.5t-165.5 246.5t-61 302t61 303t165 248.5t250 166.5t309 62t308.5 -62t249.5 -166.5t165 -248.5t61 -303t-61 -302t-165 -246.5t-249.5 -164.5t-308.5 -61zM879 88q136 0 256.5 50.5t205 136.5t133 204.5t48.5 251.5
q0 179 -82.5 327.5t-230.5 235t-330 86.5t-330 -86.5t-230.5 -235t-82.5 -327.5q0 -133 48.5 -251.5t133 -204.5t205 -136.5t256.5 -50.5zM877 311q-133 0 -216 74.5t-86 194.5l154 30q2 -78 39.5 -124t105.5 -46q58 0 94 33t36 88q0 56 -39 87.5t-111 31.5h-61v127h61
q65 0 100 30.5t35 82.5q0 49 -32 79.5t-83 30.5q-58 0 -91.5 -39.5t-32.5 -109.5l-156 28q1 110 79.5 180t200.5 70q119 0 194 -62.5t75 -160.5q0 -128 -133 -186q151 -56 151 -201q0 -104 -80.5 -171t-203.5 -67z" />
    <glyph glyph-name="uni2463" unicode="&#x2463;" horiz-adv-x="1759" 
d="M879 -43q-163 0 -308.5 61t-250 164.5t-165.5 246.5t-61 302t61 303t165 248.5t250 166.5t309 62t308.5 -62t249.5 -166.5t165 -248.5t61 -303t-61 -302t-165 -246.5t-249.5 -164.5t-308.5 -61zM879 88q136 0 256.5 50.5t205 136.5t133 204.5t48.5 251.5
q0 179 -82.5 327.5t-230.5 235t-330 86.5t-330 -86.5t-230.5 -235t-82.5 -327.5q0 -133 48.5 -251.5t133 -204.5t205 -136.5t256.5 -50.5zM1036 328h-141v215h-373v110l332 490h182v-477h117v-123h-117v-215zM829 666h66v98v215l-213 -313h147z" />
    <glyph glyph-name="uni2464" unicode="&#x2464;" horiz-adv-x="1759" 
d="M879 -43q-163 0 -308.5 61t-250 164.5t-165.5 246.5t-61 302t61 303t165 248.5t250 166.5t309 62t308.5 -62t249.5 -166.5t165 -248.5t61 -303t-61 -302t-165 -246.5t-249.5 -164.5t-308.5 -61zM879 88q136 0 256.5 50.5t205 136.5t133 204.5t48.5 251.5
q0 179 -82.5 327.5t-230.5 235t-330 86.5t-330 -86.5t-230.5 -235t-82.5 -327.5q0 -133 48.5 -251.5t133 -204.5t205 -136.5t256.5 -50.5zM868 311q-126 0 -208.5 62t-96.5 166l148 41q11 -66 50.5 -103t100.5 -37q65 0 104.5 41.5t39.5 108.5q0 66 -38.5 104.5t-101.5 38.5
q-89 0 -129 -88l-157 25l69 473h492v-131h-369l-16 -105q-1 -14 -6 -51.5t-7 -64.5q55 67 164 67q113 0 184.5 -73.5t71.5 -194.5q0 -125 -81.5 -202t-213.5 -77z" />
    <glyph glyph-name="uni2465" unicode="&#x2465;" horiz-adv-x="1759" 
d="M879 -43q-163 0 -308.5 61t-250 164.5t-165.5 246.5t-61 302t61 303t165 248.5t250 166.5t309 62t308.5 -62t249.5 -166.5t165 -248.5t61 -303t-61 -302t-165 -246.5t-249.5 -164.5t-308.5 -61zM879 88q136 0 256.5 50.5t205 136.5t133 204.5t48.5 251.5
q0 179 -82.5 327.5t-230.5 235t-330 86.5t-330 -86.5t-230.5 -235t-82.5 -327.5q0 -133 48.5 -251.5t133 -204.5t205 -136.5t256.5 -50.5zM860 311q-148 0 -231.5 106t-83.5 292q0 208 105.5 329t289.5 121q98 0 170 -35v-141q-83 41 -170 41q-101 0 -165.5 -64t-74.5 -190
q29 49 80 73.5t107 24.5q120 0 193 -75t73 -193q0 -127 -81.5 -208t-211.5 -81zM860 440q60 0 98.5 42.5t38.5 109.5t-38.5 110t-98.5 43t-99.5 -43.5t-39.5 -109.5q0 -67 39.5 -109.5t99.5 -42.5z" />
    <glyph glyph-name="uni2466" unicode="&#x2466;" horiz-adv-x="1759" 
d="M879 -43q-163 0 -308.5 61t-250 164.5t-165.5 246.5t-61 302t61 303t165 248.5t250 166.5t309 62t308.5 -62t249.5 -166.5t165 -248.5t61 -303t-61 -302t-165 -246.5t-249.5 -164.5t-308.5 -61zM879 88q136 0 256.5 50.5t205 136.5t133 204.5t48.5 251.5
q0 179 -82.5 327.5t-230.5 235t-330 86.5t-330 -86.5t-230.5 -235t-82.5 -327.5q0 -133 48.5 -251.5t133 -204.5t205 -136.5t256.5 -50.5zM893 328h-166q0 431 289 684h-111h-295v131h576v-135q-91 -73 -150.5 -151.5t-90 -165t-42 -170.5t-10.5 -193z" />
    <glyph glyph-name="uni2467" unicode="&#x2467;" horiz-adv-x="1759" 
d="M879 -43q-163 0 -308.5 61t-250 164.5t-165.5 246.5t-61 302t61 303t165 248.5t250 166.5t309 62t308.5 -62t249.5 -166.5t165 -248.5t61 -303t-61 -302t-165 -246.5t-249.5 -164.5t-308.5 -61zM879 88q136 0 256.5 50.5t205 136.5t133 204.5t48.5 251.5
q0 179 -82.5 327.5t-230.5 235t-330 86.5t-330 -86.5t-230.5 -235t-82.5 -327.5q0 -133 48.5 -251.5t133 -204.5t205 -136.5t256.5 -50.5zM879 311q-135 0 -215 65t-80 175q0 69 39 122t110 79q-129 58 -129 182q0 100 76.5 162.5t198.5 62.5q121 0 196.5 -62.5t75.5 -162.5
q0 -60 -33 -108t-94 -74q71 -26 109 -78.5t38 -122.5q0 -110 -79 -175t-213 -65zM879 795q52 0 85 37t33 90q0 49 -32 78.5t-86 29.5q-55 0 -87 -29t-32 -79q0 -53 32.5 -90t86.5 -37zM879 440q64 0 100.5 33t36.5 90q0 58 -37 92.5t-100 34.5q-64 0 -101 -34t-37 -93
q0 -57 37 -90t101 -33z" />
    <glyph glyph-name="uni2468" unicode="&#x2468;" horiz-adv-x="1759" 
d="M879 -43q-163 0 -308.5 61t-250 164.5t-165.5 246.5t-61 302t61 303t165 248.5t250 166.5t309 62t308.5 -62t249.5 -166.5t165 -248.5t61 -303t-61 -302t-165 -246.5t-249.5 -164.5t-308.5 -61zM879 88q136 0 256.5 50.5t205 136.5t133 204.5t48.5 251.5
q0 179 -82.5 327.5t-230.5 235t-330 86.5t-330 -86.5t-230.5 -235t-82.5 -327.5q0 -133 48.5 -251.5t133 -204.5t205 -136.5t256.5 -50.5zM823 311q-107 0 -180 39v148q86 -45 174 -45q98 0 158 57q73 66 76 197q-62 -97 -185 -97q-117 0 -192.5 73t-75.5 187
q0 127 80.5 208t206.5 81q129 0 213 -84q104 -101 104 -311q0 -213 -100.5 -333t-278.5 -120zM889 737q60 0 98.5 40t38.5 106t-38.5 106.5t-98.5 40.5q-59 0 -96 -40.5t-37 -106.5t37 -106t96 -40z" />
    <glyph glyph-name="uni24EA" unicode="&#x24ea;" horiz-adv-x="1759" 
d="M879 -43q-163 0 -308.5 61t-250 164.5t-165.5 246.5t-61 302t61 303t165 248.5t250 166.5t309 62t308.5 -62t249.5 -166.5t165 -248.5t61 -303t-61 -302t-165 -246.5t-249.5 -164.5t-308.5 -61zM879 88q136 0 256.5 50.5t205 136.5t133 204.5t48.5 251.5
q0 179 -82.5 327.5t-230.5 235t-330 86.5t-330 -86.5t-230.5 -235t-82.5 -327.5q0 -133 48.5 -251.5t133 -204.5t205 -136.5t256.5 -50.5zM881 311q-157 0 -246.5 115t-89.5 313q0 191 91.5 305.5t244.5 114.5q152 0 241.5 -114.5t89.5 -305.5q0 -199 -88 -313.5
t-243 -114.5zM881 442q80 0 127 78.5t47 218.5q0 132 -48 211.5t-126 79.5q-82 0 -131.5 -79.5t-49.5 -211.5q0 -139 48.5 -218t132.5 -79z" />
    <glyph glyph-name="uni24FF" unicode="&#x24ff;" horiz-adv-x="1759" 
d="M879 -43q163 0 308.5 61t249.5 164.5t165 246.5t61 302t-61 303t-165 248.5t-249.5 166.5t-308.5 62t-309 -62t-250 -166.5t-165 -248.5t-61 -303t61 -302t165.5 -246.5t250 -164.5t308.5 -61zM881 311q-157 0 -246.5 115t-89.5 313q0 191 91.5 305.5t244.5 114.5
q152 0 241.5 -114.5t89.5 -305.5q0 -199 -88 -313.5t-243 -114.5zM881 442q80 0 127 78.5t47 218.5q0 132 -48 211.5t-126 79.5q-82 0 -131.5 -79.5t-49.5 -211.5q0 -139 48.5 -218t132.5 -79z" />
    <glyph glyph-name="lozenge" unicode="&#x25ca;" horiz-adv-x="1306" 
d="M784 -2h-266l-444 713l450 723h264l445 -717zM788 334l234 383l-238 387q-51 79 -129 207q-53 -82 -135 -213l-237 -381l237 -383q27 -44 79 -125t56 -88q18 29 61.5 99t71.5 114z" />
    <glyph glyph-name="uni274C" unicode="&#x274c;" horiz-adv-x="1587" 
d="M791 596l-611 -625l-119 119l611 625l-613 622l125 127l613 -626l612 626l119 -118l-613 -627l613 -623l-125 -125z" />
    <glyph glyph-name="uni2776" unicode="&#x2776;" horiz-adv-x="1759" 
d="M879 -43q163 0 308.5 61t249.5 164.5t165 246.5t61 302t-61 303t-165 248.5t-249.5 166.5t-308.5 62t-309 -62t-250 -166.5t-165 -248.5t-61 -303t61 -302t165.5 -246.5t250 -164.5t308.5 -61zM987 328h-149v391v225q-41 -57 -97 -87t-112 -32v136q162 36 237 182h121
v-815z" />
    <glyph glyph-name="uni2777" unicode="&#x2777;" horiz-adv-x="1759" 
d="M879 -43q163 0 308.5 61t249.5 164.5t165 246.5t61 302t-61 303t-165 248.5t-249.5 166.5t-308.5 62t-309 -62t-250 -166.5t-165 -248.5t-61 -303t61 -302t165.5 -246.5t250 -164.5t308.5 -61zM1165 328h-565v139q73 45 123.5 79.5t106.5 79t89.5 84t55.5 86.5t22 93
q0 65 -33 103t-90 38q-62 0 -97 -48t-29 -134l-154 22q-6 127 73 208t210 81q125 0 201.5 -72t76.5 -188t-88 -225q-83 -105 -274 -213h274h98v-133z" />
    <glyph glyph-name="uni2778" unicode="&#x2778;" horiz-adv-x="1759" 
d="M879 -43q163 0 308.5 61t249.5 164.5t165 246.5t61 302t-61 303t-165 248.5t-249.5 166.5t-308.5 62t-309 -62t-250 -166.5t-165 -248.5t-61 -303t61 -302t165.5 -246.5t250 -164.5t308.5 -61zM877 311q-133 0 -216 74.5t-86 194.5l154 30q2 -78 39.5 -124t105.5 -46
q58 0 94 33t36 88q0 56 -39 87.5t-111 31.5h-61v127h61q65 0 100 30.5t35 82.5q0 49 -32 79.5t-83 30.5q-58 0 -91.5 -39.5t-32.5 -109.5l-156 28q1 110 79.5 180t200.5 70q119 0 194 -62.5t75 -160.5q0 -128 -133 -186q151 -56 151 -201q0 -104 -80.5 -171t-203.5 -67z" />
    <glyph glyph-name="uni2779" unicode="&#x2779;" horiz-adv-x="1759" 
d="M879 -43q163 0 308.5 61t249.5 164.5t165 246.5t61 302t-61 303t-165 248.5t-249.5 166.5t-308.5 62t-309 -62t-250 -166.5t-165 -248.5t-61 -303t61 -302t165.5 -246.5t250 -164.5t308.5 -61zM1036 328h-141v215h-373v110l332 490h182v-477h117v-123h-117v-215zM829 666
h66v98v215l-213 -313h147z" />
    <glyph glyph-name="uni277A" unicode="&#x277a;" horiz-adv-x="1759" 
d="M879 -43q163 0 308.5 61t249.5 164.5t165 246.5t61 302t-61 303t-165 248.5t-249.5 166.5t-308.5 62t-309 -62t-250 -166.5t-165 -248.5t-61 -303t61 -302t165.5 -246.5t250 -164.5t308.5 -61zM868 311q-126 0 -208.5 62t-96.5 166l148 41q11 -66 50.5 -103t100.5 -37
q65 0 104.5 41.5t39.5 108.5q0 66 -38.5 104.5t-101.5 38.5q-89 0 -129 -88l-157 25l69 473h492v-131h-369l-16 -105q-1 -14 -6 -51.5t-7 -64.5q55 67 164 67q113 0 184.5 -73.5t71.5 -194.5q0 -125 -81.5 -202t-213.5 -77z" />
    <glyph glyph-name="uni277B" unicode="&#x277b;" horiz-adv-x="1759" 
d="M879 -43q163 0 308.5 61t249.5 164.5t165 246.5t61 302t-61 303t-165 248.5t-249.5 166.5t-308.5 62t-309 -62t-250 -166.5t-165 -248.5t-61 -303t61 -302t165.5 -246.5t250 -164.5t308.5 -61zM860 311q-148 0 -231.5 106t-83.5 292q0 208 105.5 329t289.5 121
q98 0 170 -35v-141q-83 41 -170 41q-101 0 -165.5 -64t-74.5 -190q29 49 80 73.5t107 24.5q120 0 193 -75t73 -193q0 -127 -81.5 -208t-211.5 -81zM860 440q60 0 98.5 42.5t38.5 109.5t-38.5 110t-98.5 43t-99.5 -43.5t-39.5 -109.5q0 -67 39.5 -109.5t99.5 -42.5z" />
    <glyph glyph-name="uni277C" unicode="&#x277c;" horiz-adv-x="1759" 
d="M879 -43q163 0 308.5 61t249.5 164.5t165 246.5t61 302t-61 303t-165 248.5t-249.5 166.5t-308.5 62t-309 -62t-250 -166.5t-165 -248.5t-61 -303t61 -302t165.5 -246.5t250 -164.5t308.5 -61zM893 328h-166q0 431 289 684h-111h-295v131h576v-135q-91 -73 -150.5 -151.5
t-90 -165t-42 -170.5t-10.5 -193z" />
    <glyph glyph-name="uni277D" unicode="&#x277d;" horiz-adv-x="1759" 
d="M879 -43q163 0 308.5 61t249.5 164.5t165 246.5t61 302t-61 303t-165 248.5t-249.5 166.5t-308.5 62t-309 -62t-250 -166.5t-165 -248.5t-61 -303t61 -302t165.5 -246.5t250 -164.5t308.5 -61zM879 311q-135 0 -215 65t-80 175q0 69 39 122t110 79q-129 58 -129 182
q0 100 76.5 162.5t198.5 62.5q121 0 196.5 -62.5t75.5 -162.5q0 -60 -33 -108t-94 -74q71 -26 109 -78.5t38 -122.5q0 -110 -79 -175t-213 -65zM879 795q52 0 85 37t33 90q0 49 -32 78.5t-86 29.5q-55 0 -87 -29t-32 -79q0 -53 32.5 -90t86.5 -37zM879 440q64 0 100.5 33
t36.5 90q0 58 -37 92.5t-100 34.5q-64 0 -101 -34t-37 -93q0 -57 37 -90t101 -33z" />
    <glyph glyph-name="uni277E" unicode="&#x277e;" horiz-adv-x="1759" 
d="M879 -43q163 0 308.5 61t249.5 164.5t165 246.5t61 302t-61 303t-165 248.5t-249.5 166.5t-308.5 62t-309 -62t-250 -166.5t-165 -248.5t-61 -303t61 -302t165.5 -246.5t250 -164.5t308.5 -61zM825 311q-106 0 -182 39v148q89 -45 176 -45q98 0 158 57q74 70 76 197
q-62 -97 -185 -97q-117 0 -192.5 73t-75.5 187q0 127 80.5 208t206.5 81q129 0 213 -84q104 -104 104 -311q0 -213 -100.5 -333t-278.5 -120zM891 737q60 0 98.5 40t38.5 106t-38.5 106.5t-98.5 40.5q-59 0 -96 -40.5t-37 -106.5t37 -106t96 -40z" />
    <glyph glyph-name="uni300A" unicode="&#x300a;" horiz-adv-x="1116" 
d="M500 1567l145 -72l-424 -872l422 -887l-145 -70l-453 948zM924 1567l145 -72l-422 -874l422 -885l-147 -70l-453 948z" />
    <glyph glyph-name="uni300B" unicode="&#x300b;" horiz-adv-x="1107" 
d="M45 1497l145 70l453 -951l-455 -950l-145 72l424 870zM469 1497l145 70l455 -951l-457 -950l-145 72l426 870z" />
    <glyph glyph-name="uni300C" unicode="&#x300c;" horiz-adv-x="727" 
d="M340 641h-162v905h518v-145h-356v-760z" />
    <glyph glyph-name="uni300D" unicode="&#x300d;" horiz-adv-x="659" 
d="M344 598h164v-905h-518v145h354v760z" />
    <glyph glyph-name="uni300E" unicode="&#x300e;" horiz-adv-x="989" 
d="M582 457h-400v1089h731v-405h-331v-684zM326 1407v-809h125v668h323v141h-448z" />
    <glyph glyph-name="uni300F" unicode="&#x300f;" horiz-adv-x="966" 
d="M403 782h398v-1089h-731v405h333v684zM657 -168v809h-122v-668h-326v-141h448z" />
    <glyph glyph-name="uni3010" unicode="&#x3010;" horiz-adv-x="735" 
d="M727 -307h-537v1853h537q-197 -227 -289 -451.5t-92 -478.5q0 -251 90 -471.5t291 -451.5z" />
    <glyph glyph-name="uni3011" unicode="&#x3011;" horiz-adv-x="735" 
d="M6 1546h539v-1853h-539q198 226 290.5 451.5t92.5 478.5q0 250 -91 470.5t-292 452.5z" />
    <glyph glyph-name="uni3014" unicode="&#x3014;" horiz-adv-x="624" 
d="M297 1143v-1043l293 -325l-123 -109l-332 371v1155l334 375l115 -109z" />
    <glyph glyph-name="uni3015" unicode="&#x3015;" horiz-adv-x="624" 
d="M35 1456l123 111l331 -373v-1155l-333 -373l-115 107l287 317v1043z" />
    <glyph glyph-name="plus.alt" unicode="&#xe000;" horiz-adv-x="1554" 
d="M866 0h-178v633h-618v168h618v635h178v-635h621v-168h-621v-633z" />
    <glyph glyph-name="minus.alt" unicode="&#xe001;" horiz-adv-x="1718" 
d="M1567 633h-1417v168h1417v-168z" />
    <glyph glyph-name="multiply.alt" unicode="&#xe002;" horiz-adv-x="1613" 
d="M805 596l-610 -625l-121 119l610 625l-612 622l127 127l612 -626l612 626l119 -118l-612 -627l610 -623l-125 -125z" />
    <glyph glyph-name="uniE003" unicode="&#xe003;" horiz-adv-x="1855" 
d="M1778 1325l-1033 -1356l-653 852l141 113l521 -676l888 1178z" />
    <glyph glyph-name="uniE004" unicode="&#xe004;" horiz-adv-x="1925" 
d="M1755 1208h-1585v168h1585v-168zM1755 637h-1585v170h1585v-170zM1755 66h-1585v170h1585v-170z" />
    <glyph glyph-name="uniE005" unicode="&#xe005;" horiz-adv-x="1855" 
d="M1645 0h-1434v1432h1434v-1432zM389 1272v-1112h1077v1112h-1077z" />
    <glyph glyph-name="uniE006" unicode="&#xe006;" horiz-adv-x="1855" 
d="M1681 1364l-751 -1038l-367 594l142 92l129 -209q16 -26 52.5 -88t57.5 -97q126 174 133 185l469 661zM1645 0h-1434v1432h930v-160h-752v-1112h1077v510h179v-670z" />
    <glyph glyph-name="uniE007" unicode="&#xe007;" horiz-adv-x="1855" 
d="M1645 0h-1434v1432h1434v-1432zM389 1272v-1112h1077v1112h-1077zM1047 590h-238v254h238v-254z" />
    <glyph glyph-name="uniE008" unicode="&#xe008;" horiz-adv-x="1556" 
d="M1329 719l-551 -543l-549 543l125 125l154 -158q121 -121 180 -182v1057h180v-1057q53 57 176 180l160 160zM1495 0h-1434v176h1434v-176z" />
    <glyph glyph-name="uniE009" unicode="&#xe009;" horiz-adv-x="1556" 
d="M1329 928l-551 -543l-549 543l125 121l154 -156q121 -121 180 -182v1056h180v-1056q29 32 89.5 93.5t86.5 88.5l160 156zM1495 0h-1434v176h1434v-176z" />
    <glyph glyph-name="uniF8FF" unicode="&#xf8ff;" horiz-adv-x="1599" 
d="M1489 31l-76 -11l-102 109q3 -18 11 -76.5t15 -99.5l-30 -23q-103 1 -158.5 61.5t-79.5 188.5q-12 71 -29 137q-26 -109 -79 -174q-39 20 -78 68t-67.5 104.5t-49 110t-29.5 94.5q-36 172 -55 219q-10 22 -20 37q-31 38 -70.5 60t-114.5 51q-57 22 -91.5 51t-78.5 86
l142 106l-58 58q-52 -10 -84 -10q-82 0 -140 35t-58 90q0 54 30 85t86 31q97 0 156 -35q-31 71 -31 125q0 39 27.5 63.5t77.5 24.5q56 0 85 -37t29 -98q0 -83 -43 -162l62 -65l90 68q67 -31 135 -95.5t121 -139.5t90.5 -140.5t60.5 -118.5q286 -267 369 -555
q32 -116 35 -223z" />
    <glyph glyph-name="G.ss03" horiz-adv-x="1568" 
d="M799 -29q-318 0 -504 204t-186 544q0 161 56 300.5t152.5 236t227.5 151.5t278 55q134 0 246.5 -37.5t189 -101.5t127 -136.5t78.5 -154.5l-186 -76q-121 334 -461 334q-102 0 -193 -37.5t-162 -107t-113 -179.5t-42 -245q0 -265 136 -423.5t354 -158.5
q203 0 316.5 105.5t129.5 285.5h-477v170h684q12 -214 -60.5 -378.5t-225.5 -257.5t-365 -93z" />
    <glyph glyph-name="Gbreve.ss03" horiz-adv-x="1568" 
d="M823 1561q-81 0 -145 23t-103 61.5t-59 86t-22 99.5h161q6 -64 50.5 -103.5t117.5 -39.5q75 0 119.5 39.5t50.5 103.5h162q-3 -112 -88 -191t-244 -79zM799 -29q-318 0 -504 204t-186 544q0 161 56 300.5t152.5 236t227.5 151.5t278 55q134 0 246.5 -37.5t189 -101.5
t127 -136.5t78.5 -154.5l-186 -76q-121 334 -461 334q-102 0 -193 -37.5t-162 -107t-113 -179.5t-42 -245q0 -265 136 -423.5t354 -158.5q203 0 316.5 105.5t129.5 285.5h-477v170h684q12 -214 -60.5 -378.5t-225.5 -257.5t-365 -93z" />
    <glyph glyph-name="Gcircumflex.ss03" horiz-adv-x="1568" 
d="M639 1581h-188l239 250h277l239 -250h-188l-191 156zM799 -29q-318 0 -504 204t-186 544q0 161 56 300.5t152.5 236t227.5 151.5t278 55q134 0 246.5 -37.5t189 -101.5t127 -136.5t78.5 -154.5l-186 -76q-121 334 -461 334q-102 0 -193 -37.5t-162 -107t-113 -179.5
t-42 -245q0 -265 136 -423.5t354 -158.5q203 0 316.5 105.5t129.5 285.5h-477v170h684q12 -214 -60.5 -378.5t-225.5 -257.5t-365 -93z" />
    <glyph glyph-name="uni0122.ss03" horiz-adv-x="1568" 
d="M799 -29q-318 0 -504 204t-186 544q0 161 56 300.5t152.5 236t227.5 151.5t278 55q134 0 246.5 -37.5t189 -101.5t127 -136.5t78.5 -154.5l-186 -76q-121 334 -461 334q-102 0 -193 -37.5t-162 -107t-113 -179.5t-42 -245q0 -265 136 -423.5t354 -158.5
q203 0 316.5 105.5t129.5 285.5h-477v170h684q12 -214 -60.5 -378.5t-225.5 -257.5t-365 -93zM801 -631h-96l131 236h-109v215h203v-215z" />
    <glyph glyph-name="Gdotaccent.ss03" horiz-adv-x="1568" 
d="M922 1581h-185v223h185v-223zM799 -29q-318 0 -504 204t-186 544q0 161 56 300.5t152.5 236t227.5 151.5t278 55q134 0 246.5 -37.5t189 -101.5t127 -136.5t78.5 -154.5l-186 -76q-121 334 -461 334q-102 0 -193 -37.5t-162 -107t-113 -179.5t-42 -245q0 -265 136 -423.5
t354 -158.5q203 0 316.5 105.5t129.5 285.5h-477v170h684q12 -214 -60.5 -378.5t-225.5 -257.5t-365 -93z" />
    <glyph glyph-name="a.ss01" horiz-adv-x="1187" 
d="M514 -29q-180 0 -299 144t-119 391q0 248 118.5 392t299.5 144q122 0 203.5 -56t126.5 -136v164h172v-1014h-170v164q-44 -80 -127 -136.5t-205 -56.5zM561 121q132 0 211.5 97.5t79.5 287.5q0 189 -80 288t-211 99q-129 0 -207 -93.5t-78 -293.5q0 -202 77.5 -293.5
t207.5 -91.5z" />
    <glyph glyph-name="aacute.ss01" horiz-adv-x="1187" 
d="M629 1161h-117l111 281h231zM514 -29q-180 0 -299 144t-119 391q0 248 118.5 392t299.5 144q122 0 203.5 -56t126.5 -136v164h172v-1014h-170v164q-44 -80 -127 -136.5t-205 -56.5zM561 121q132 0 211.5 97.5t79.5 287.5q0 189 -80 288t-211 99q-129 0 -207 -93.5
t-78 -293.5q0 -202 77.5 -293.5t207.5 -91.5z" />
    <glyph glyph-name="abreve.ss01" horiz-adv-x="1187" 
d="M569 1141q-145 0 -221.5 79t-79.5 191h146q6 -64 46.5 -103.5t108.5 -39.5t108 39.5t46 103.5h145q-2 -52 -20.5 -99t-53.5 -86t-93 -62t-132 -23zM514 -29q-180 0 -299 144t-119 391q0 248 118.5 392t299.5 144q122 0 203.5 -56t126.5 -136v164h172v-1014h-170v164
q-44 -80 -127 -136.5t-205 -56.5zM561 121q132 0 211.5 97.5t79.5 287.5q0 189 -80 288t-211 99q-129 0 -207 -93.5t-78 -293.5q0 -202 77.5 -293.5t207.5 -91.5z" />
    <glyph glyph-name="acircumflex.ss01" horiz-adv-x="1187" 
d="M397 1161h-172l219 250h252l217 -250h-172l-172 156zM514 -29q-180 0 -299 144t-119 391q0 248 118.5 392t299.5 144q122 0 203.5 -56t126.5 -136v164h172v-1014h-170v164q-44 -80 -127 -136.5t-205 -56.5zM561 121q132 0 211.5 97.5t79.5 287.5q0 189 -80 288t-211 99
q-129 0 -207 -93.5t-78 -293.5q0 -202 77.5 -293.5t207.5 -91.5z" />
    <glyph glyph-name="adieresis.ss01" horiz-adv-x="1187" 
d="M465 1208h-189v201h189v-201zM858 1208h-186v201h186v-201zM514 -29q-180 0 -299 144t-119 391q0 248 118.5 392t299.5 144q122 0 203.5 -56t126.5 -136v164h172v-1014h-170v164q-44 -80 -127 -136.5t-205 -56.5zM561 121q132 0 211.5 97.5t79.5 287.5q0 189 -80 288
t-211 99q-129 0 -207 -93.5t-78 -293.5q0 -202 77.5 -293.5t207.5 -91.5z" />
    <glyph glyph-name="uni0227.ss01" horiz-adv-x="1187" 
d="M662 1210h-185v224h185v-224zM514 -29q-180 0 -299 144t-119 391q0 248 118.5 392t299.5 144q122 0 203.5 -56t126.5 -136v164h172v-1014h-170v164q-44 -80 -127 -136.5t-205 -56.5zM561 121q132 0 211.5 97.5t79.5 287.5q0 189 -80 288t-211 99q-129 0 -207 -93.5
t-78 -293.5q0 -202 77.5 -293.5t207.5 -91.5z" />
    <glyph glyph-name="agrave.ss01" horiz-adv-x="1187" 
d="M627 1161h-117l-221 281h227zM514 -29q-180 0 -299 144t-119 391q0 248 118.5 392t299.5 144q122 0 203.5 -56t126.5 -136v164h172v-1014h-170v164q-44 -80 -127 -136.5t-205 -56.5zM561 121q132 0 211.5 97.5t79.5 287.5q0 189 -80 288t-211 99q-129 0 -207 -93.5
t-78 -293.5q0 -202 77.5 -293.5t207.5 -91.5z" />
    <glyph glyph-name="amacron.ss01" horiz-adv-x="1187" 
d="M881 1212h-625v134h625v-134zM514 -29q-180 0 -299 144t-119 391q0 248 118.5 392t299.5 144q122 0 203.5 -56t126.5 -136v164h172v-1014h-170v164q-44 -80 -127 -136.5t-205 -56.5zM561 121q132 0 211.5 97.5t79.5 287.5q0 189 -80 288t-211 99q-129 0 -207 -93.5
t-78 -293.5q0 -202 77.5 -293.5t207.5 -91.5z" />
    <glyph glyph-name="aogonek.ss01" horiz-adv-x="1187" 
d="M1016 1014v-1014q-209 -84 -209 -193q0 -86 121 -86q16 0 88 13v-133q-62 -19 -113 -19q-108 0 -171.5 46t-63.5 134q0 143 178 244v158q-44 -80 -127 -136.5t-205 -56.5q-180 0 -299 144t-119 391q0 248 118.5 392t299.5 144q122 0 203.5 -56t126.5 -136v164h172z
M561 121q132 0 211.5 97.5t79.5 287.5q0 189 -80 288t-211 99q-129 0 -207 -93.5t-78 -293.5q0 -202 77.5 -293.5t207.5 -91.5z" />
    <glyph glyph-name="aring.ss01" horiz-adv-x="1187" 
d="M571 1124q-98 0 -165.5 67t-67.5 165q0 93 68 158t165 65q95 0 162.5 -65.5t67.5 -161.5q0 -97 -67.5 -162.5t-162.5 -65.5zM571 1233q46 0 79.5 36t33.5 83q0 49 -33.5 83.5t-79.5 34.5q-50 0 -83 -33.5t-33 -80.5q0 -52 32.5 -87.5t83.5 -35.5zM514 -29
q-180 0 -299 144t-119 391q0 248 118.5 392t299.5 144q122 0 203.5 -56t126.5 -136v164h172v-1014h-170v164q-44 -80 -127 -136.5t-205 -56.5zM561 121q132 0 211.5 97.5t79.5 287.5q0 189 -80 288t-211 99q-129 0 -207 -93.5t-78 -293.5q0 -202 77.5 -293.5t207.5 -91.5z
" />
    <glyph glyph-name="atilde.ss01" horiz-adv-x="1187" 
d="M727 1167q-76 0 -158 54l-59 39q-33 21 -50 28.5t-40 7.5q-38 0 -59.5 -28.5t-20.5 -79.5h-137q0 120 57 182t154 62q78 0 155 -52l56 -37q58 -38 92 -38q40 0 60 23.5t26 76.5h135q0 -119 -56.5 -178.5t-154.5 -59.5zM514 -29q-180 0 -299 144t-119 391q0 248 118.5 392
t299.5 144q122 0 203.5 -56t126.5 -136v164h172v-1014h-170v164q-44 -80 -127 -136.5t-205 -56.5zM561 121q132 0 211.5 97.5t79.5 287.5q0 189 -80 288t-211 99q-129 0 -207 -93.5t-78 -293.5q0 -202 77.5 -293.5t207.5 -91.5z" />
    <glyph glyph-name="g.ss02" horiz-adv-x="1187" 
d="M539 -426q-194 0 -317 82t-154 233l170 58q49 -223 301 -223q145 0 226 84t81 225v162q-40 -74 -124.5 -124.5t-207.5 -50.5q-184 0 -301 136.5t-117 369.5q0 236 117 376t301 140q124 0 207 -56.5t125 -135.5v164h168v-983q0 -211 -126 -334t-349 -123zM561 162
q131 0 211 94t80 270q0 175 -80.5 271t-210.5 96t-207.5 -90.5t-77.5 -276.5q0 -188 77 -276t208 -88z" />
    <glyph glyph-name="gbreve.ss02" horiz-adv-x="1187" 
d="M569 1141q-74 0 -132 23t-93 62t-53.5 86t-20.5 99h146q6 -64 46 -103.5t107 -39.5q69 0 109.5 39.5t46.5 103.5h145q-3 -112 -79.5 -191t-221.5 -79zM539 -426q-194 0 -317 82t-154 233l170 58q49 -223 301 -223q145 0 226 84t81 225v162q-40 -74 -124.5 -124.5
t-207.5 -50.5q-184 0 -301 136.5t-117 369.5q0 236 117 376t301 140q124 0 207 -56.5t125 -135.5v164h168v-983q0 -211 -126 -334t-349 -123zM561 162q131 0 211 94t80 270q0 175 -80.5 271t-210.5 96t-207.5 -90.5t-77.5 -276.5q0 -188 77 -276t208 -88z" />
    <glyph glyph-name="gcircumflex.ss02" horiz-adv-x="1187" 
d="M399 1161h-172l219 250h252l217 -250h-172l-172 156zM539 -426q-194 0 -317 82t-154 233l170 58q49 -223 301 -223q145 0 226 84t81 225v162q-40 -74 -124.5 -124.5t-207.5 -50.5q-184 0 -301 136.5t-117 369.5q0 236 117 376t301 140q124 0 207 -56.5t125 -135.5v164
h168v-983q0 -211 -126 -334t-349 -123zM561 162q131 0 211 94t80 270q0 175 -80.5 271t-210.5 96t-207.5 -90.5t-77.5 -276.5q0 -188 77 -276t208 -88z" />
    <glyph glyph-name="uni0123.ss02" horiz-adv-x="1187" 
d="M602 1661h96l-133 -236h109v-215h-201v215zM539 -426q-194 0 -317 82t-154 233l170 58q49 -223 301 -223q145 0 226 84t81 225v162q-40 -74 -124.5 -124.5t-207.5 -50.5q-184 0 -301 136.5t-117 369.5q0 236 117 376t301 140q124 0 207 -56.5t125 -135.5v164h168v-983
q0 -211 -126 -334t-349 -123zM561 162q131 0 211 94t80 270q0 175 -80.5 271t-210.5 96t-207.5 -90.5t-77.5 -276.5q0 -188 77 -276t208 -88z" />
    <glyph glyph-name="gdotaccent.ss02" horiz-adv-x="1187" 
d="M664 1210h-185v224h185v-224zM539 -426q-194 0 -317 82t-154 233l170 58q49 -223 301 -223q145 0 226 84t81 225v162q-40 -74 -124.5 -124.5t-207.5 -50.5q-184 0 -301 136.5t-117 369.5q0 236 117 376t301 140q124 0 207 -56.5t125 -135.5v164h168v-983
q0 -211 -126 -334t-349 -123zM561 162q131 0 211 94t80 270q0 175 -80.5 271t-210.5 96t-207.5 -90.5t-77.5 -276.5q0 -188 77 -276t208 -88z" />
    <glyph glyph-name="i.loclTRK" horiz-adv-x="522" 
d="M350 1210h-184v224h184v-224zM346 0h-174v1014h174v-1014z" />
    <glyph glyph-name="zero.osf" horiz-adv-x="1288" 
d="M645 -29q-152 0 -275.5 68.5t-194.5 191t-71 275.5t71 275.5t194.5 190.5t275.5 68q232 0 384.5 -150.5t152.5 -383.5t-152.5 -384t-384.5 -151zM645 123q163 0 259.5 104.5t96.5 278.5t-96.5 278.5t-259.5 104.5t-260.5 -105t-97.5 -278t97.5 -278t260.5 -105z" />
    <glyph glyph-name="one.osf" horiz-adv-x="761" 
d="M582 0h-170v485v277q-55 -93 -142 -162.5t-188 -93.5v186q115 28 210 112.5t148 209.5h142v-1014z" />
    <glyph glyph-name="two.osf" horiz-adv-x="1044" 
d="M936 0h-811v176q91 44 154.5 76t132.5 70.5t114.5 69.5t89 67.5t68 70.5t39 72.5t14.5 79.5q0 97 -60 153t-157 56q-93 0 -155.5 -55t-71.5 -160l-180 26q17 155 127.5 247.5t279.5 92.5q183 0 291.5 -99t108.5 -234q0 -184 -170 -328q-116 -97 -398 -231h285h299v-150z
" />
    <glyph glyph-name="three.osf" horiz-adv-x="1126" 
d="M561 -428q-211 0 -340 116.5t-143 309.5l182 41q3 -143 81 -229t220 -86q132 0 205.5 71t73.5 191q0 119 -79.5 188.5t-205.5 69.5h-96v155h94q112 0 188 68.5t76 181.5q0 110 -73.5 177t-182.5 67q-116 0 -188.5 -72.5t-83.5 -189.5l-170 26q12 168 130.5 276.5
t311.5 108.5q194 0 314 -105.5t120 -268.5q0 -123 -71 -212.5t-179 -127.5q115 -31 195 -126.5t80 -226.5q0 -174 -122 -288.5t-337 -114.5z" />
    <glyph glyph-name="four.osf" horiz-adv-x="1183" 
d="M911 -399h-172v399h-673v156l596 858h249v-864h209v-150h-209v-399zM248 150h289h202v401v311z" />
    <glyph glyph-name="five.osf" horiz-adv-x="1132" 
d="M580 -428q-205 0 -325.5 95t-156.5 251l172 55q23 -112 105 -180.5t192 -68.5q137 0 217 86t80 223q0 138 -79.5 221.5t-217.5 83.5q-94 0 -167 -49t-115 -127l-187 31l121 821h766v-156h-635l-47 -307l-33 -223q130 161 344 161q181 0 305.5 -125.5t124.5 -322.5
q0 -207 -131.5 -338t-332.5 -131z" />
    <glyph glyph-name="six.osf" horiz-adv-x="1226" 
d="M639 -29q-244 0 -385 173.5t-141 510.5q0 132 26 251t81 221t133.5 176t190 116.5t244.5 42.5q150 0 265 -39v-174q-123 47 -252 47q-234 0 -376.5 -157.5t-139.5 -444.5q50 108 155 170t238 62q201 0 329 -133t128 -328q0 -102 -33.5 -192t-95.5 -157t-157 -106
t-210 -39zM639 123q134 0 224.5 89.5t90.5 236.5q0 145 -90.5 234t-224.5 89q-135 0 -225 -91.5t-90 -234.5q0 -146 90 -234.5t225 -88.5z" />
    <glyph glyph-name="seven.osf" horiz-adv-x="1048" 
d="M467 -399h-184q0 403 131.5 708t425.5 549h-316h-483v156h965v-178q-162 -138 -271 -284t-166.5 -302.5t-80 -308.5t-21.5 -340z" />
    <glyph glyph-name="eight.osf" horiz-adv-x="1189" 
d="M596 -29q-116 0 -209 32.5t-151.5 89t-89.5 131t-31 159.5q0 137 75 230.5t189 129.5q-102 37 -164.5 127.5t-62.5 208.5q0 167 122 275t322 108t322 -108t122 -275q0 -118 -62.5 -208.5t-164.5 -127.5q117 -37 190.5 -130.5t73.5 -229.5q0 -85 -31 -159.5t-89.5 -131
t-151.5 -89t-209 -32.5zM596 815q116 0 192 69t76 183q0 107 -75 175.5t-193 68.5q-119 0 -194.5 -68.5t-75.5 -175.5q0 -113 77 -182.5t193 -69.5zM596 123q138 0 219.5 74.5t81.5 197.5q0 121 -83 198t-218 77t-218 -77t-83 -198q0 -123 82.5 -197.5t218.5 -74.5z" />
    <glyph glyph-name="nine.osf" horiz-adv-x="1232" 
d="M455 -428q-158 0 -273 39v176q127 -45 260 -45q113 0 205 34.5t162.5 104.5t108.5 187.5t36 273.5q-45 -120 -151.5 -186t-243.5 -66q-132 0 -235.5 61t-159 165t-55.5 233q0 101 34 191t95.5 157t154 106t203.5 39q245 0 389.5 -175.5t144.5 -508.5q0 -135 -26 -253
t-80 -216.5t-133 -168.5t-190 -109t-246 -39zM596 248q134 0 221.5 87.5t87.5 231.5q0 143 -87.5 230.5t-221.5 87.5q-131 0 -219 -88.5t-88 -231.5q0 -142 88 -229.5t219 -87.5z" />
    <glyph glyph-name="zero.tf" 
d="M637 -29q-260 0 -417 196.5t-157 555.5q0 178 45.5 321t124.5 233t182 137.5t222 47.5q118 0 220.5 -47.5t180.5 -138t123 -233t45 -320.5q0 -360 -155 -556t-414 -196zM637 137q176 0 275.5 154t99.5 432q0 261 -101.5 417t-273.5 156q-174 0 -276.5 -155.5
t-102.5 -417.5q0 -278 100 -432t279 -154z" />
    <glyph glyph-name="one.tf" 
d="M805 1434v-1264h342v-170h-946v170h422v811v203q-60 -100 -165.5 -174.5t-221.5 -94.5v193q132 34 243.5 116.5t179.5 209.5h146z" />
    <glyph glyph-name="two.tf" 
d="M1112 0h-946v203q92 58 164 106t151.5 106.5t138 110t113.5 111.5t89.5 116.5t55.5 119.5t21 126q0 142 -78 219.5t-196 77.5q-123 0 -204 -85.5t-81 -241.5l-186 24q2 211 130.5 340t342.5 129q215 0 341 -123t126 -319q0 -214 -148 -395q-91 -111 -232 -220.5
t-345 -234.5h331h412v-170z" />
    <glyph glyph-name="three.tf" 
d="M635 -29q-220 0 -356 118.5t-148 318.5l193 41q4 -144 89 -230t222 -86q125 0 206 70t81 186q0 121 -81.5 191.5t-211.5 70.5h-107v160h107q113 0 189.5 67t76.5 179q0 110 -75 176.5t-187 66.5q-120 0 -194 -73.5t-83 -194.5l-190 33q12 172 138 284.5t329 112.5
q208 0 329 -107t121 -270q0 -128 -74 -218.5t-192 -127.5q132 -28 213.5 -127.5t81.5 -244.5q0 -167 -128.5 -281.5t-348.5 -114.5z" />
    <glyph glyph-name="four.tf" 
d="M942 0h-178v395h-666v170l572 869h272v-883h213v-156h-213v-395zM549 551h215v424v313l-485 -737h270z" />
    <glyph glyph-name="five.tf" 
d="M639 -29q-215 0 -348 101.5t-164 259.5l186 61q26 -125 111 -192.5t209 -67.5q141 0 225 83.5t84 225.5q0 141 -83 225.5t-224 84.5q-94 0 -165.5 -44t-115.5 -118l-198 31l120 813h814v-170h-676l-45 -308q-5 -38 -16 -107.5t-15 -100.5q127 157 340 157
q209 0 332 -123.5t123 -332.5q0 -214 -135 -346t-359 -132z" />
    <glyph glyph-name="six.tf" 
d="M664 -29q-242 0 -388.5 180.5t-146.5 516.5q0 172 43 315.5t126 251t214.5 167.5t298.5 60q152 0 264 -45v-180q-126 49 -258 49q-232 0 -370.5 -160t-137.5 -462q41 114 147.5 188t245.5 74q138 0 243.5 -63t159.5 -166.5t54 -229.5q0 -101 -32.5 -190t-93.5 -157.5
t-156.5 -108.5t-212.5 -40zM664 133q128 0 216.5 88t88.5 230q0 144 -88 230.5t-217 86.5q-130 0 -218 -87.5t-88 -229.5t88 -230t218 -88z" />
    <glyph glyph-name="seven.tf" 
d="M586 0h-205q0 391 150 711t436 553h-308h-495v170h964v-199q-111 -93 -196.5 -189t-144.5 -195t-99 -197.5t-62.5 -208.5t-31.5 -215.5t-8 -229.5z" />
    <glyph glyph-name="eight.tf" 
d="M635 -29q-242 0 -371 116.5t-129 293.5q0 141 82 237.5t205 124.5q-109 36 -178.5 123.5t-69.5 214.5q0 168 127.5 274.5t333.5 106.5t333.5 -106.5t127.5 -274.5q0 -127 -68.5 -214.5t-177.5 -123.5q125 -29 204 -126t79 -236q0 -85 -31 -158.5t-91 -130t-157 -89
t-219 -32.5zM635 815q120 0 197 67t77 181q0 107 -76 173.5t-198 66.5q-121 0 -198 -66.5t-77 -173.5q0 -114 77.5 -181t197.5 -67zM635 133q141 0 224 71.5t83 194.5q0 121 -83.5 196t-223.5 75t-223.5 -75t-83.5 -196q0 -123 83 -194.5t224 -71.5z" />
    <glyph glyph-name="nine.tf" 
d="M479 -29q-73 0 -152 13t-132 36v189q135 -57 278 -57q188 0 311 114q169 146 166 502q-42 -114 -149 -180t-238 -66q-204 0 -324 127.5t-120 317.5q0 135 54 246t165 180t260 69q215 0 356 -141q179 -179 179 -551q0 -240 -71.5 -417.5t-220.5 -279.5t-362 -102zM606 680
q129 0 214 84.5t85 224.5t-85 225.5t-214 85.5q-127 0 -212 -85t-85 -226t85 -225t212 -84z" />
    <glyph glyph-name="zero.subs" horiz-adv-x="858" 
d="M432 -238q-159 0 -248.5 114.5t-89.5 313.5q0 190 92 304t246 114q151 0 241.5 -114t90.5 -304q0 -198 -89 -313t-243 -115zM432 -106q80 0 127 78t47 218q0 131 -48 210t-126 79q-82 0 -131 -78.5t-49 -210.5q0 -139 47.5 -217.5t132.5 -78.5z" />
    <glyph glyph-name="one.subs" horiz-adv-x="575" 
d="M426 -221h-150v391v225q-41 -57 -96 -87.5t-112 -33.5v138q162 36 237 182h121v-815z" />
    <glyph glyph-name="two.subs" horiz-adv-x="757" 
d="M666 -221h-566v139q93 58 153.5 100.5t122 97.5t92 110t30.5 112q0 66 -34 103.5t-91 37.5q-61 0 -96.5 -47.5t-28.5 -132.5l-154 23q-6 126 72.5 206t208.5 80q126 0 203 -71t77 -187t-90 -227q-87 -106 -274 -211h276h99v-133z" />
    <glyph glyph-name="three.subs" horiz-adv-x="763" 
d="M383 -238q-133 0 -214.5 73.5t-84.5 195.5l154 30q2 -78 38.5 -124t104.5 -46q57 0 93 32.5t36 86.5q0 57 -38.5 89t-109.5 32h-61v125h61q63 0 98.5 31.5t35.5 83.5q0 50 -31 80t-82 30q-59 0 -93 -39.5t-34 -109.5l-154 28q0 110 79.5 179t201.5 69q119 0 193.5 -61.5
t74.5 -159.5q0 -61 -34.5 -110t-100.5 -76q152 -55 152 -201q0 -104 -80 -171t-205 -67z" />
    <glyph glyph-name="four.subs" horiz-adv-x="765" 
d="M578 -221h-142v213h-373v112l332 490h183v-477h116v-125h-116v-213zM371 117h65v96v217l-213 -313h148z" />
    <glyph glyph-name="five.subs" horiz-adv-x="778" 
d="M393 -238q-126 0 -210 62t-97 166l150 41q9 -67 49 -103.5t102 -36.5q65 0 104 41.5t39 108.5t-38 105t-101 38q-89 0 -129 -90l-160 25l70 475h492v-131h-369l-14 -105l-15 -118q57 69 166 69q113 0 184.5 -73.5t71.5 -194.5q0 -125 -81.5 -202t-213.5 -77z" />
    <glyph glyph-name="six.subs" horiz-adv-x="790" 
d="M410 -238q-148 0 -232 106t-84 292q0 208 105.5 328t289.5 120q102 0 170 -33v-141q-83 41 -170 41q-100 0 -163.5 -63.5t-75.5 -190.5q29 49 79.5 73.5t106.5 24.5q120 0 193 -75t73 -193q0 -127 -81 -208t-211 -81zM410 -109q60 0 98.5 42.5t38.5 109.5t-38.5 109.5
t-98.5 42.5t-99 -43t-39 -109q0 -67 39 -109.5t99 -42.5z" />
    <glyph glyph-name="seven.subs" horiz-adv-x="700" 
d="M346 -221h-164q0 431 289 684h-111h-294v131h575v-135q-174 -141 -235.5 -299.5t-59.5 -380.5z" />
    <glyph glyph-name="eight.subs" horiz-adv-x="780" 
d="M389 -238q-135 0 -215 65t-80 175q0 67 40.5 121t111.5 80q-129 57 -129 182q0 100 75 161.5t197 61.5q123 0 198 -61.5t75 -161.5q0 -61 -32 -108.5t-93 -73.5q70 -26 108.5 -79.5t38.5 -121.5q0 -110 -80 -175t-215 -65zM389 244q53 0 87 38t34 91q0 49 -33.5 78.5
t-87.5 29.5t-86.5 -29.5t-32.5 -78.5q0 -53 33.5 -91t85.5 -38zM389 -109q64 0 100.5 33t36.5 90t-37 92t-100 35q-62 0 -98.5 -34.5t-36.5 -92.5q0 -57 36 -90t99 -33z" />
    <glyph glyph-name="nine.subs" horiz-adv-x="784" 
d="M311 -238q-103 0 -182 37v150q92 -47 176 -47q96 0 158 59q74 70 76 197q-62 -97 -185 -97q-117 0 -192.5 73.5t-75.5 187.5q0 127 80.5 206.5t206.5 79.5q131 0 213 -82q104 -104 104 -311q0 -213 -100.5 -333t-278.5 -120zM377 188q60 0 98.5 40t38.5 106t-38.5 106.5
t-98.5 40.5q-59 0 -96 -40.5t-37 -106.5t37 -106t96 -40z" />
    <glyph glyph-name="zero.dnom" horiz-adv-x="858" 
d="M432 -16q-159 0 -248.5 114.5t-89.5 313.5q0 190 92 303.5t246 113.5q151 0 241.5 -113.5t90.5 -303.5q0 -198 -89 -313t-243 -115zM432 115q80 0 127 78.5t47 218.5q0 131 -48 209.5t-126 78.5q-82 0 -131 -78t-49 -210q0 -140 47.5 -218.5t132.5 -78.5z" />
    <glyph glyph-name="one.dnom" horiz-adv-x="575" 
d="M426 0h-150v391v225q-41 -57 -95.5 -87t-112.5 -33v137q162 36 237 182h121v-815z" />
    <glyph glyph-name="two.dnom" horiz-adv-x="757" 
d="M666 0h-566v139q93 58 153.5 100.5t122 97.5t92 110t30.5 112q0 66 -33 103.5t-90 37.5q-62 0 -97.5 -47.5t-29.5 -132.5l-154 23q-6 126 72.5 206t208.5 80q126 0 203 -71t77 -187t-90 -227q-80 -102 -272 -211h274h99v-133z" />
    <glyph glyph-name="three.dnom" horiz-adv-x="763" 
d="M383 -16q-133 0 -214.5 73t-84.5 195l154 31q2 -78 38.5 -124t104.5 -46q57 0 93 32t36 86q0 57 -38.5 89t-109.5 32h-61v125h61q63 0 98.5 31.5t35.5 83.5q0 50 -31 80t-82 30q-59 0 -93 -39.5t-34 -109.5l-154 29q0 109 79.5 178t201.5 69q119 0 193.5 -61.5
t74.5 -159.5q0 -61 -34.5 -110t-100.5 -76q152 -55 152 -201q0 -104 -80 -170.5t-205 -66.5z" />
    <glyph glyph-name="four.dnom" horiz-adv-x="765" 
d="M578 0h-142v213h-373v113l332 489h183v-477h116v-125h-116v-213zM371 338h65v96v217l-213 -313h148z" />
    <glyph glyph-name="five.dnom" horiz-adv-x="778" 
d="M393 -16q-126 0 -210 61.5t-97 165.5l150 41q10 -67 49.5 -103t101.5 -36q65 0 104 41t39 108t-38.5 105.5t-100.5 38.5q-89 0 -129 -91l-160 25l72 475h492v-131h-371l-14 -104l-15 -119q57 69 166 69q113 0 184.5 -73.5t71.5 -194.5q0 -124 -81.5 -201t-213.5 -77z" />
    <glyph glyph-name="six.dnom" horiz-adv-x="790" 
d="M410 -16q-148 0 -232 105.5t-84 291.5q0 208 105.5 328t289.5 120q104 0 170 -32v-142q-83 41 -170 41q-100 0 -163.5 -63.5t-75.5 -190.5q29 49 79.5 74t106.5 25q120 0 193 -75.5t73 -193.5q0 -127 -81 -207.5t-211 -80.5zM410 113q60 0 98.5 42t38.5 109t-38.5 109.5
t-98.5 42.5t-99 -43t-39 -109q0 -67 39 -109t99 -42z" />
    <glyph glyph-name="seven.dnom" horiz-adv-x="700" 
d="M346 0h-164q0 431 289 684h-111h-294v131h575v-135q-174 -141 -235.5 -299.5t-59.5 -380.5z" />
    <glyph glyph-name="eight.dnom" horiz-adv-x="780" 
d="M389 -16q-135 0 -215 64.5t-80 174.5q0 67 40.5 121t111.5 80q-129 57 -129 182q0 100 75 161.5t197 61.5q123 0 198 -61.5t75 -161.5q0 -61 -32 -108.5t-93 -73.5q70 -26 108.5 -79.5t38.5 -121.5q0 -110 -80 -174.5t-215 -64.5zM389 465q53 0 87 38t34 91
q0 49 -33.5 78.5t-87.5 29.5t-86.5 -29.5t-32.5 -78.5q0 -53 33.5 -91t85.5 -38zM389 113q64 0 100.5 33t36.5 90t-37 91.5t-100 34.5t-99 -34.5t-36 -91.5t36 -90t99 -33z" />
    <glyph glyph-name="nine.dnom" horiz-adv-x="784" 
d="M311 -16q-105 0 -182 36v150q92 -47 176 -47q96 0 158 59q74 70 76 197q-62 -96 -185 -96q-117 0 -192.5 73t-75.5 187q0 127 80.5 206.5t206.5 79.5q132 0 213 -81q104 -104 104 -312q0 -212 -100.5 -332t-278.5 -120zM377 410q61 0 99 40t38 105q0 66 -38.5 106.5
t-98.5 40.5q-59 0 -96 -40.5t-37 -106.5q0 -65 37 -105t96 -40z" />
    <glyph glyph-name="zero.numr" horiz-adv-x="858" 
d="M432 604q-159 0 -248.5 114t-89.5 312q0 191 92 305.5t246 114.5q151 0 241.5 -114.5t90.5 -305.5q0 -197 -89 -311.5t-243 -114.5zM432 733q80 0 127 78.5t47 218.5q0 132 -48 211.5t-126 79.5q-82 0 -131 -79.5t-49 -211.5q0 -140 47.5 -218.5t132.5 -78.5z" />
    <glyph glyph-name="one.numr" horiz-adv-x="575" 
d="M426 618h-150v394v223q-41 -57 -96.5 -87t-111.5 -32v135q164 39 237 183h121v-816z" />
    <glyph glyph-name="two.numr" horiz-adv-x="757" 
d="M666 618h-566v140q73 45 123.5 79t106.5 79t89.5 84.5t56 86.5t22.5 93q0 64 -34 102.5t-91 38.5q-61 0 -96.5 -48.5t-28.5 -133.5l-154 22q-6 128 72.5 208.5t208.5 80.5q126 0 203 -72t77 -188q0 -118 -90 -225q-85 -108 -274 -213h276h99v-134z" />
    <glyph glyph-name="three.numr" horiz-adv-x="763" 
d="M383 604q-133 0 -214.5 73t-84.5 193l154 31q2 -78 38.5 -123t104.5 -45q58 0 93.5 32t35.5 87q0 56 -38.5 87.5t-109.5 31.5h-61v127h61q64 0 99 30t35 82q0 50 -31 81.5t-82 31.5q-59 0 -93 -41t-34 -111l-154 29q0 110 79.5 180t201.5 70q118 0 193 -62.5t75 -160.5
q0 -61 -34.5 -109.5t-100.5 -77.5q152 -55 152 -198q0 -105 -80 -171.5t-205 -66.5z" />
    <glyph glyph-name="four.numr" horiz-adv-x="765" 
d="M578 618h-142v216h-373v110l332 490h183v-478h116v-122h-116v-216zM371 956h65v99v215l-213 -314h148z" />
    <glyph glyph-name="five.numr" horiz-adv-x="778" 
d="M393 604q-126 0 -210 61.5t-97 165.5l150 41q9 -67 49 -103t102 -36q65 0 104 40.5t39 107.5q0 68 -38 105.5t-101 37.5q-89 0 -129 -88l-160 25l70 473h492v-131h-369l-14 -103l-15 -119q59 68 166 68q113 0 184.5 -73.5t71.5 -194.5q0 -124 -81.5 -200.5t-213.5 -76.5z
" />
    <glyph glyph-name="six.numr" horiz-adv-x="790" 
d="M410 604q-148 0 -232 105t-84 290q0 208 105.5 329.5t289.5 121.5q97 0 170 -35v-141q-83 41 -170 41q-100 0 -163.5 -63.5t-75.5 -188.5q29 47 79.5 71.5t106.5 24.5q120 0 193 -74.5t73 -191.5q0 -128 -81 -208.5t-211 -80.5zM410 733q60 0 98.5 41.5t38.5 108.5
t-38.5 110t-98.5 43t-99 -43t-39 -110t39 -108.5t99 -41.5z" />
    <glyph glyph-name="seven.numr" horiz-adv-x="700" 
d="M346 618h-164q0 432 289 685h-111h-294v131h575v-136q-174 -141 -235.5 -299.5t-59.5 -380.5z" />
    <glyph glyph-name="eight.numr" horiz-adv-x="780" 
d="M389 604q-135 0 -215 64t-80 174q0 68 40.5 121t111.5 79q-129 57 -129 183q0 100 75.5 162.5t196.5 62.5q123 0 198 -62.5t75 -162.5q0 -61 -32 -109t-93 -74q70 -26 108.5 -78.5t38.5 -121.5q0 -110 -80 -174t-215 -64zM389 1085q53 0 87 37.5t34 89.5q0 50 -33.5 80.5
t-87.5 30.5t-86.5 -30.5t-32.5 -80.5q0 -53 33 -90t86 -37zM389 733q65 0 101 32t36 89q0 58 -37 92.5t-100 34.5t-99 -34t-36 -93q0 -57 36 -89t99 -32z" />
    <glyph glyph-name="nine.numr" horiz-adv-x="784" 
d="M311 604q-103 0 -182 37v147q89 -45 176 -45q97 0 158 58q73 70 76 196q-62 -96 -185 -96q-117 0 -192.5 73t-75.5 187q0 127 80.5 208t206.5 81q132 0 213 -84q104 -104 104 -311q0 -212 -100.5 -331.5t-278.5 -119.5zM377 1028q60 0 98.5 40t38.5 106t-38.5 107.5
t-98.5 41.5q-59 0 -96 -41.5t-37 -107.5t37 -106t96 -40z" />
    <glyph glyph-name="exclamdown.case" horiz-adv-x="593" 
d="M178 1434h238v-252h-238v252zM258 991h84l47 -579v-412h-186v418z" />
    <glyph glyph-name="questiondown.case" horiz-adv-x="999" 
d="M416 1434h237v-252h-237v252zM451 991h172q-1 -127 -42 -201.5t-132 -154.5q-49 -43 -74 -67.5t-54 -61t-41 -73t-12 -79.5q0 -102 64 -161.5t168 -59.5q121 0 186.5 79.5t65.5 231.5l178 -28q0 -208 -116 -325.5t-314 -117.5q-180 0 -299 103t-119 272q0 114 57 203
t187 197q74 63 99.5 112.5t25.5 130.5z" />
    <glyph glyph-name="period.tf" 
d="M778 0h-286v303h286v-303z" />
    <glyph glyph-name="comma.tf" 
d="M598 -332h-137l186 332h-151v303h284v-303z" />
    <glyph glyph-name="colon.tf" 
d="M778 788h-286v304h286v-304zM778 0h-286v303h286v-303z" />
    <glyph glyph-name="semicolon.tf" 
d="M784 788h-286v304h286v-304zM602 -332h-135l184 332h-151v303h284v-303z" />
    <glyph glyph-name="numbersign.tf" 
d="M354 0h-164l43 197q15 85 43 204h-155h-53v152h237l72 336h-248v155h281l82 390h161l-37 -185q-28 -115 -45 -205h146h114l82 390h162l-37 -185q-25 -102 -45 -205h156h53v-155h-239l-72 -336h248v-152h-279l-84 -401h-164l41 197q24 123 45 204h-147h-113zM541 889
l-72 -336h258l72 336h-258z" />
    <glyph glyph-name="parenleft.case" horiz-adv-x="663" 
d="M602 -68v-157q-107 24 -191.5 89t-139.5 155t-91 206.5t-51.5 237.5t-15.5 254q0 134 15.5 256t51.5 240t91 209t139.5 157t191.5 90v-160q-84 -24 -148.5 -97.5t-103.5 -181.5t-58.5 -237t-19.5 -276q1 -146 20.5 -273.5t58 -234.5t103 -179.5t148.5 -97.5z" />
    <glyph glyph-name="parenright.case" horiz-adv-x="663" 
d="M63 1511v158q107 -24 191.5 -89t139.5 -155t91.5 -206.5t52 -237.5t15.5 -254q0 -134 -15.5 -256t-52 -240t-91.5 -209t-139.5 -157t-191.5 -90v159q83 24 147.5 97.5t103 181.5t58 238t19.5 276q-1 146 -20.5 273.5t-58 234t-102.5 179t-147 97.5z" />
    <glyph glyph-name="braceleft.case" horiz-adv-x="714" 
d="M645 -205h-119q-133 0 -191.5 81.5t-58.5 232.5v276q0 71 -7 113.5t-28.5 77t-62.5 49t-108 14.5v156q67 0 108 14t62.5 48.5t28.5 77t7 112.5v288q0 153 58 233.5t192 80.5h119v-142h-78q-68 0 -97.5 -35.5t-29.5 -117.5v-336q0 -130 -45.5 -194.5t-150.5 -106.5
q69 -27 110 -60.5t63.5 -92.5t22.5 -148v-326q0 -82 29.5 -117.5t97.5 -35.5h78v-142z" />
    <glyph glyph-name="braceright.case" horiz-adv-x="714" 
d="M70 1651h120q250 0 250 -314v-278q0 -70 7 -112t28 -76.5t63 -49t109 -14.5v-158q-68 0 -109 -14t-62.5 -47.5t-28.5 -75.5t-7 -113v-288q0 -152 -58.5 -233t-191.5 -81h-120v142h80q67 0 96.5 35.5t29.5 117.5v336q0 130 46 194.5t151 106.5q-70 27 -110.5 60.5
t-63.5 92t-23 146.5v328q0 82 -29.5 117.5t-96.5 35.5h-80v142z" />
    <glyph glyph-name="bracketleft.case" horiz-adv-x="710" 
d="M647 -205h-436v1854h436v-142h-272v-1570h272v-142z" />
    <glyph glyph-name="bracketright.case" horiz-adv-x="710" 
d="M63 1649h437v-1854h-437v142h275v1570h-275v142z" />
    <glyph glyph-name="angleleft.case" horiz-adv-x="710" 
d="M514 1669l145 -72l-426 -874l424 -885l-145 -69l-455 948z" />
    <glyph glyph-name="angleright.case" horiz-adv-x="712" 
d="M53 1602l146 69l454 -950l-456 -952l-146 73l426 873z" />
    <glyph glyph-name="uni3010.case" horiz-adv-x="759" 
d="M748 -205h-537v1854h537q-197 -227 -289 -451.5t-92 -478.5q0 -251 90 -472t291 -452z" />
    <glyph glyph-name="uni3011.case" horiz-adv-x="759" 
d="M12 1649h539v-1854h-539q199 226 291 451t92 479q0 251 -91 471.5t-292 452.5z" />
    <glyph glyph-name="uni300C.case" horiz-adv-x="716" 
d="M330 743h-164v906h518v-146h-354v-760z" />
    <glyph glyph-name="uni300D.case" horiz-adv-x="722" 
d="M393 702h162v-905h-518v146h356v759z" />
    <glyph glyph-name="uni300A.case" horiz-adv-x="1134" 
d="M514 1669l145 -72l-423 -874l421 -885l-145 -69l-455 948zM938 1669l145 -72l-421 -874l421 -885l-147 -69l-453 948z" />
    <glyph glyph-name="uni300B.case" horiz-adv-x="1136" 
d="M53 1602l148 69l452 -950l-454 -952l-146 73l424 871zM479 1602l146 69l454 -950l-456 -952l-146 73l426 873z" />
    <glyph glyph-name="uni3014.case" horiz-adv-x="641" 
d="M305 1245v-1042l293 -326l-121 -108l-334 370v1155l334 375l115 -108z" />
    <glyph glyph-name="uni3015.case" horiz-adv-x="638" 
d="M41 1561l123 110l332 -373v-1155l-334 -372l-115 106l287 318v1042z" />
    <glyph glyph-name="uni300E.case" horiz-adv-x="983" 
d="M571 559h-399v1090h731v-406h-332v-684zM315 1509v-809h123v668h326v141h-449z" />
    <glyph glyph-name="uni300F.case" horiz-adv-x="1003" 
d="M410 887h399v-1090h-731v406h332v684zM666 -63v808h-123v-667h-326v-141h449z" />
    <glyph glyph-name="hyphen.case" horiz-adv-x="866" 
d="M715 645h-563v180h563v-180z" />
    <glyph glyph-name="uni00AD.case" horiz-adv-x="866" 
d="M715 645h-563v180h563v-180z" />
    <glyph glyph-name="endash.case" horiz-adv-x="1275" 
d="M1124 655h-972v158h972v-158z" />
    <glyph glyph-name="emdash.case" horiz-adv-x="1945" 
d="M1796 655h-1644v158h1644v-158z" />
    <glyph glyph-name="guillemotleft.case" horiz-adv-x="1124" 
d="M379 1149h186l-268 -430l272 -443h-192l-271 437zM983 1149l-268 -430l274 -443h-192l-271 437l271 436h186z" />
    <glyph glyph-name="guillemotright.case" horiz-adv-x="1124" 
d="M135 1149h193l270 -436l-270 -437h-189l271 433zM553 1149h195l268 -436l-271 -437h-186l268 429z" />
    <glyph glyph-name="guilsinglleft.case" horiz-adv-x="706" 
d="M565 1149l-268 -430l272 -443h-192l-271 437l273 436h186z" />
    <glyph glyph-name="guilsinglright.case" horiz-adv-x="706" 
d="M137 1149h193l270 -436l-272 -437h-187l271 431z" />
    <glyph glyph-name="space.tf" 
 />
    <glyph glyph-name="uni20BF.tf" 
d="M1221 395q0 -173 -110 -274t-284 -117v-219h-141v215h-133v-215h-141v215h-250v1434h250v213h141v-213h133v213h141v-220q169 -21 256.5 -113t87.5 -233q0 -136 -77.5 -221t-184.5 -112q59 -10 113 -37.5t99.5 -70t72.5 -106.5t27 -139zM709 1264h-363v-437h363
q125 0 197.5 61.5t72.5 164.5q0 102 -71.5 156.5t-198.5 54.5zM346 170h387q135 0 213 67.5t78 180.5t-77.5 178.5t-213.5 65.5h-387v-492z" />
    <glyph glyph-name="cent.tf" 
d="M721 -244h-135v221q-183 26 -291.5 168.5t-108.5 362.5q0 212 111 357t289 173v219h135v-215q131 -14 228.5 -91t144.5 -187l-160 -62q-65 161 -213 187v-479v-283q92 14 148 76.5t79 148.5l164 -57q-46 -135 -146 -221.5t-245 -100.5v-217zM586 135v459v289
q-100 -28 -159.5 -123t-59.5 -252t59.5 -252t159.5 -121z" />
    <glyph glyph-name="currency.tf" 
d="M381 346l-168 -166l-115 115l166 164q-76 113 -76 260q0 145 78 264l-168 168l115 111l168 -164q118 78 258 78q132 0 250 -80l170 166l115 -111l-168 -168q79 -113 79 -262q0 -150 -79 -262l168 -164l-115 -115l-170 168q-116 -82 -252 -82q-138 0 -256 80zM637 428
q119 0 198.5 81t79.5 212t-78.5 212t-197.5 81q-121 0 -201 -81t-80 -214q0 -132 79.5 -211.5t199.5 -79.5z" />
    <glyph glyph-name="dollar.tf" 
d="M709 -215h-144v190q-185 21 -306.5 122.5t-170.5 260.5l170 78q34 -114 112 -192.5t195 -102.5v523l-51 12q-82 19 -144 47.5t-111 73.5t-75 112t-26 154q0 160 111 267.5t296 127.5v189h144v-189q75 -8 141.5 -32.5t113.5 -57.5t84 -74.5t59 -81t34 -79.5l-166 -78
q-12 35 -30 67.5t-48.5 68.5t-79 63t-108.5 38v-479l69 -20q85 -21 152.5 -54.5t120.5 -82t81.5 -115.5t28.5 -148q0 -177 -118.5 -291t-333.5 -129v-188zM565 846v192v258q-108 -12 -170.5 -72t-62.5 -149q0 -92 55 -145t178 -84zM709 135q128 12 199 77.5t71 166.5
q0 98 -65.5 159t-204.5 95v-227v-271z" />
    <glyph glyph-name="Euro.tf" 
d="M723 -29q-204 0 -332 138.5t-164 382.5h-168v143h148q-6 97 0 178h-148v143h166q46 239 178 372.5t330 133.5q99 0 182 -33.5t139 -91t92.5 -126t53.5 -146.5l-174 -53q-10 51 -30.5 96.5t-55 90t-90.5 71t-127 26.5q-116 0 -196 -87.5t-115 -252.5h239h152l-2 -143h-408
q-9 -109 0 -178h408v-143h-150h-241q29 -172 109.5 -263.5t199.5 -91.5q72 0 126 23.5t89.5 69t57 94.5t38.5 116l172 -61q-21 -85 -61.5 -157.5t-99 -129t-140.5 -89t-178 -32.5z" />
    <glyph glyph-name="liraturkish.tf" 
d="M422 0h-90v326v192l-129 -72l-58 -32v164l187 108v148l-187 -105v166l187 109v432h184v-166v-166q35 22 174 100l271 156v-168l-445 -254v-150l445 259v-170l-445 -254v-447h29q47 3 95.5 16t105.5 46t104 81t88.5 128t62.5 180l185 -70q-22 -87 -56.5 -161.5t-96 -149.5
t-142.5 -127.5t-201.5 -85.5t-267.5 -33z" />
    <glyph glyph-name="uni20BD.tf" 
d="M719 578h-279v-152h381v-147h-381v-279h-182v279h-154v147h154v152h-154v157h154v699h463q219 0 344 -118.5t125 -311.5q0 -191 -125.5 -308.5t-345.5 -117.5zM688 1264h-248v-529h248q150 0 229.5 75t79.5 194q0 118 -77 189t-232 71z" />
    <glyph glyph-name="uni20B9.tf" 
d="M1128 1434v-150h-127h-225q44 -15 85.5 -55t64.5 -99h202v-147h-182q-4 -57 -22.5 -106t-54 -93t-97 -76t-143.5 -46q74 -9 125 -30.5t86 -60.5t56 -85.5t40 -118.5l94 -367h-201l-86 354q-33 133 -108 189.5t-225 56.5h-242v168h311q116 0 193 56t92 159h-596v147h582
q-28 77 -99.5 115.5t-171.5 38.5h-311v150h960z" />
    <glyph glyph-name="sterling.tf" 
d="M432 170h234h458v-170h-960v164q16 4 29.5 8t42.5 15.5t51.5 25t49.5 36t45.5 49t31 64t12.5 80.5q0 105 -51 195h-207v145h115q-80 130 -80 250q0 81 25.5 151t69.5 120.5t103 86t126.5 53t140.5 17.5q79 0 153.5 -24t139 -70.5t110 -123.5t59.5 -175l-184 -45
q-14 96 -59.5 160t-103.5 90t-126 26q-112 0 -187 -71t-75 -197q0 -69 21.5 -126t62.5 -122h377v-145h-295q33 -81 33 -174t-44 -168t-118 -125z" />
    <glyph glyph-name="uni20A9.tf" 
d="M1229 932v-135h-170l-21 -166h187v-139h-203l-57 -492h-230l-57 414q-29 240 -43 352q-29 -206 -47 -352l-62 -414h-233l-53 492h-193v139h178l-18 166h-164v135h150l-54 502h176l45 -525q7 -88 19.5 -249t21.5 -280t13 -175q9 62 28.5 198t24.5 172l63 429h211l60 -431
q25 -199 47 -368q5 59 27.5 323t33.5 394l47 512h177l-60 -502h156z" />
    <glyph glyph-name="yen.tf" 
d="M1020 1434h219l-418 -643h281v-144h-369v-174h369v-143h-369v-330h-184v330h-381v143h381v174h-381v144h287l-426 643h221l266 -433q48 -71 125 -204l119 204z" />
    <glyph glyph-name="multiply.case.tf" 
d="M633 606l-373 -373l-115 113l375 375l-377 373l119 116l375 -372l371 370l114 -112l-370 -371l372 -377l-116 -117z" />
    <glyph glyph-name="plus.tf" 
d="M719 172h-168v467h-461v168h461v465h168v-465h461v-168h-461v-467z" />
    <glyph glyph-name="minus.tf" 
d="M1126 639h-983v168h983v-168z" />
    <glyph glyph-name="multiply.tf" 
d="M633 606l-373 -373l-115 113l375 375l-377 373l119 116l375 -372l371 370l114 -112l-370 -371l372 -377l-116 -117z" />
    <glyph glyph-name="divide.tf" 
d="M743 1016h-215v250h215v-250zM1128 639h-987v168h987v-168zM743 180h-215v252h215v-252z" />
    <glyph glyph-name="equal.tf" 
d="M1128 854h-987v168h987v-168zM1128 414h-987v168h987v-168z" />
    <glyph glyph-name="notequal.tf" 
d="M416 170h-168l135 244h-244v168h334l68 120q80 145 84 152h-183h-303v168h576l137 246h166l-135 -246h243v-168h-335l-68 -123q-25 -49 -82 -149h174h311v-168h-577z" />
    <glyph glyph-name="greater.tf" 
d="M1159 586l-985 -439v191l576 254q82 34 284 123q-126 51 -284 123l-576 252v198l985 -440v-262z" />
    <glyph glyph-name="less.tf" 
d="M111 848l985 440v-190l-576 -254q-114 -46 -284 -123l284 -123l576 -252v-199l-985 441v260z" />
    <glyph glyph-name="greaterequal.tf" 
d="M1139 709l-987 -303v178l573 168q196 56 322 88q-106 31 -322 86l-573 170v184l987 -301v-270zM1139 174h-987v168h987v-168z" />
    <glyph glyph-name="lessequal.tf" 
d="M1120 592v-186l-987 301v270l987 303v-178l-575 -168q-200 -56 -322 -88q106 -31 322 -86zM1120 174h-987v168h987v-168z" />
    <glyph glyph-name="plusminus.tf" 
d="M711 492h-150v299h-420v163h420v318h150v-318h417v-163h-417v-299zM1126 174h-987v168h987v-168z" />
    <glyph glyph-name="approxequal.tf" 
d="M854 778q-45 0 -90 12.5t-119 45.5l-65 30q-111 47 -172 47q-100 0 -197 -104l-100 127q66 78 148 117t159 39q85 0 207 -56l65 -30q111 -48 172 -48q97 0 199 105l100 -129q-66 -75 -149.5 -115.5t-157.5 -40.5zM854 328q-45 0 -90.5 12t-118.5 45l-65 31
q-111 47 -172 47q-99 0 -197 -105l-100 127q66 78 148 117t159 39q87 0 207 -55l65 -31q108 -47 172 -47q98 0 199 104l100 -129q-66 -75 -149.5 -115t-157.5 -40z" />
    <glyph glyph-name="logicalnot.tf" 
d="M1114 332h-151v313h-828v168h979v-481z" />
    <glyph glyph-name="percent.tf" 
d="M330 784q-121 0 -197 93.5t-76 248.5q0 151 75 243.5t198 92.5t196.5 -92.5t73.5 -243.5q0 -155 -72.5 -248.5t-197.5 -93.5zM346 0h-151l731 1434h149zM330 909q59 0 91 56t32 161q0 102 -32.5 156.5t-90.5 54.5t-91.5 -55t-33.5 -156q0 -106 32 -161.5t93 -55.5z
M946 -29q-123 0 -198.5 93.5t-75.5 250.5q0 150 74.5 242t199.5 92q123 0 195.5 -92t72.5 -242q0 -156 -72 -250t-196 -94zM944 96q123 0 123 219q0 101 -32 155t-89 54q-60 0 -93.5 -54t-33.5 -155q0 -219 125 -219z" />
    <glyph glyph-name="perthousand.tf" 
d="M248 784q-107 0 -168.5 92.5t-61.5 249.5q0 154 60 245t170 91q108 0 165.5 -91.5t57.5 -244.5q0 -158 -56.5 -250t-166.5 -92zM53 0l733 1434h144l-731 -1434h-146zM248 1337q-88 0 -88 -211q0 -111 19 -164t67 -53q46 0 65 53.5t19 163.5q0 211 -82 211zM1038 649
q103 0 158 -91t55 -243q0 -160 -54 -252t-159 -92q-98 0 -155 88q-54 -88 -152 -88q-101 0 -160 93t-59 251q0 152 58 243t161 91q99 0 152 -78q56 78 155 78zM735 96q47 0 65.5 53.5t18.5 165.5q0 105 -19 157t-63 52q-46 0 -66 -52t-20 -157q0 -110 19 -164.5t65 -54.5z
M1028 96q47 0 65.5 53.5t18.5 165.5q0 105 -19 157t-63 52q-48 0 -68 -51.5t-20 -157.5q0 -111 19 -165t67 -54z" />
    <glyph glyph-name="at.case" horiz-adv-x="1851" 
d="M965 -139q-401 0 -631 227.5t-230 622.5q0 193 63.5 353.5t176 269.5t268.5 169t340 60q180 0 334 -58t262 -160t169 -244.5t61 -307.5q0 -237 -112.5 -383t-276.5 -146q-189 0 -218 156q-46 -73 -117.5 -116.5t-164.5 -43.5q-154 0 -248 122.5t-94 311.5q0 193 96.5 319
t247.5 126q175 0 272 -144v117h152v-625q0 -84 86 -84q91 0 151 108t60 284q0 276 -181 449t-479 173q-307 0 -494.5 -188.5t-187.5 -517.5q0 -332 187 -518.5t508 -186.5q290 0 505 137l68 -135q-242 -147 -573 -147zM932 397q105 0 172 88t67 232q0 133 -63.5 213
t-167.5 80q-105 0 -169 -83t-64 -218q0 -141 62 -226.5t163 -85.5z" />
    <glyph glyph-name="registered.case" horiz-adv-x="1796" 
d="M899 -55q-165 0 -313.5 62t-254 167t-167.5 250.5t-62 306.5t62 307.5t167.5 253t254 169.5t313.5 63q164 0 312 -63t253.5 -169.5t167.5 -253t62 -307.5q0 -215 -105 -395.5t-288 -285.5t-402 -105zM899 74q184 0 335 89t235.5 239.5t84.5 328.5q0 135 -50 257
t-136.5 211t-208.5 141.5t-260 52.5t-260.5 -52.5t-209 -141.5t-137 -211t-50.5 -257q0 -178 85 -328.5t236.5 -239.5t335.5 -89zM733 332h-131v825h350q124 0 202.5 -58.5t78.5 -166.5q0 -91 -59 -142t-146 -69q67 -13 105.5 -59.5t60.5 -139.5l43 -190h-143l-41 196
q-17 86 -57.5 118t-123.5 32h-139v-346zM733 1040v-252h197q166 0 166 130q0 122 -166 122h-197z" />
    <glyph glyph-name="section.tf" 
d="M631 -426q-97 0 -176 26.5t-130.5 73t-83.5 103.5t-44 123l172 67q56 -231 262 -231q106 0 164.5 52t58.5 134q0 78 -41.5 123.5t-132.5 75.5l-289 96q-132 44 -200 121.5t-68 198.5q0 106 62 190.5t159 124.5q-108 88 -108 260q0 69 25.5 131.5t74 111.5t125 78
t170.5 29q97 0 175.5 -27t129.5 -74t82 -103t43 -119l-172 -70q-57 231 -258 231q-103 0 -158 -52.5t-55 -131.5q0 -82 40 -122.5t136 -73.5l289 -97q134 -43 201 -120t67 -195q0 -109 -61.5 -194t-159.5 -126q106 -100 106 -258q0 -152 -107.5 -254t-297.5 -102zM803 262
q73 32 118.5 88t45.5 133q0 129 -168 183l-226 73q-96 36 -102 39q-74 -32 -119 -88.5t-45 -136.5q0 -67 41 -108t127 -70l225 -74q56 -18 103 -39z" />
    <glyph glyph-name="degree.tf" 
d="M633 903q-148 0 -244 98t-96 240q0 143 96.5 239.5t245.5 96.5q150 0 247 -96.5t97 -239.5q0 -146 -97.5 -242t-248.5 -96zM635 1042q84 0 134 55t50 146q0 87 -50 140t-134 53q-79 0 -131.5 -54t-52.5 -139q0 -91 52 -146t132 -55z" />
    </font>
</defs>
</svg>
