<?xml version="1.0" standalone="no"?>
<!DOCTYPE svg PUBLIC "-//W3C//DTD SVG 1.1//EN" "http://www.w3.org/Graphics/SVG/1.1/DTD/svg11.dtd" >
<svg xmlns="http://www.w3.org/2000/svg" xmlns:xlink="http://www.w3.org/1999/xlink" version="1.1">
<metadata>
Created by FontForge 20170731 at Wed Dec 29 09:46:57 2021
 By Aleksey,,,
Copyright 2021 Dinamo (Johannes Breyer, Fabian Harb) &#38; Erkin Karamemet. All rights reserved.
</metadata>
<defs>
<font id="ABCWhyte-Super" horiz-adv-x="1269" >
  <font-face 
    font-family="ABC Whyte Super"
    font-weight="900"
    font-stretch="normal"
    units-per-em="2048"
    panose-1="2 11 0 4 4 2 2 6 2 3"
    ascent="1649"
    descent="-399"
    x-height="1034"
    cap-height="1434"
    bbox="-481 -791 2742 2165"
    underline-thickness="102"
    underline-position="-307"
    unicode-range="U+0020-FB02"
  />
<missing-glyph horiz-adv-x="1435" 
d="M1337 0h-1239v1434h1239v-1434zM508 1141v-848h420v848h-420z" />
    <glyph glyph-name="fi" unicode="fi" horiz-adv-x="1626" 
d="M1049 1137v358h503v-358h-503zM1552 1034v-1034h-501v727h-377v-727h-471v727h-174v307h174v76q0 183 88 270.5t270 87.5h395v-307h-221q-61 0 -61 -61v-66h878z" />
    <glyph glyph-name="fl" unicode="fl" horiz-adv-x="1603" 
d="M1530 1468v-1468h-488v1161h-307q-61 0 -61 -61v-66h231v-307h-231v-727h-471v727h-174v307h174v76q0 183 88 270.5t270 87.5h969z" />
    <glyph glyph-name="f_f" unicode="ff" horiz-adv-x="1751" 
d="M1794 1468v-307h-221q-62 0 -62 -61v-66h232v-307h-232v-727h-471v727h-366v-727h-471v727h-174v307h174v76q0 183 88 270.5t270 87.5h395v-307h-221q-61 0 -61 -61v-66h366v76q0 182 88.5 270t270.5 88h395z" />
    <glyph glyph-name="f_f_i" unicode="ffi" horiz-adv-x="2469" 
d="M1892 1137v358h504v-358h-504zM2396 1034v-1034h-502v727h-383v-727h-471v727h-366v-727h-471v727h-174v307h174v76q0 183 88 270.5t270 87.5h395v-307h-221q-61 0 -61 -61v-66h366v76q0 182 88.5 270t270.5 88h395v-307h-221q-62 0 -62 -61v-66h885z" />
    <glyph glyph-name="f_f_l" unicode="ffl" horiz-adv-x="2480" 
d="M2406 1468v-1468h-487v1161h-346q-62 0 -62 -61v-66h232v-307h-232v-727h-471v727h-366v-727h-471v727h-174v307h174v76q0 183 88 270.5t270 87.5h395v-307h-221q-61 0 -61 -61v-66h366v76q0 182 88.5 270t270.5 88h1007z" />
    <glyph glyph-name=".notdef" horiz-adv-x="1435" 
d="M1337 0h-1239v1434h1239v-1434zM508 1141v-848h420v848h-420z" />
    <glyph glyph-name=".null" horiz-adv-x="0" 
 />
    <glyph glyph-name="nonmarkingreturn" horiz-adv-x="682" 
 />
    <glyph glyph-name="space" unicode=" " horiz-adv-x="358" 
 />
    <glyph glyph-name="exclam" unicode="!" horiz-adv-x="677" 
d="M483 561h-290l-113 545v328h516v-328zM596 0h-512v438h512v-438z" />
    <glyph glyph-name="quotedbl" unicode="&#x22;" horiz-adv-x="1173" 
d="M428 602h-287l-82 533v299h451v-299zM1032 602h-287l-81 533v299h450v-299z" />
    <glyph glyph-name="numbersign" unicode="#" horiz-adv-x="1695" 
d="M578 0h-357l23 109l37 167h-125h-103v338h301l47 215h-245v338h319l57 267h357l-29 -134l-29 -133h97h121l57 267h356l-20 -99l-37 -168h139h101v-338h-314l-45 -215h256v-338h-330l-59 -276h-356l20 98q6 29 19.5 89t19.5 89h-135h-84zM758 829l-47 -215h219l45 215
h-217z" />
    <glyph glyph-name="dollar" unicode="$" horiz-adv-x="1435" 
d="M872 -162h-272v150q-243 21 -384 134t-169 300l496 100q11 -83 56 -127.5t122 -44.5q72 0 107.5 27t35.5 72q0 39 -27 65.5t-77 32.5l-162 20q-264 33 -375.5 139t-111.5 314q0 185 132.5 309.5t356.5 153.5v153h272v-153q205 -28 332 -131.5t156 -272.5l-498 -90
q-14 64 -55 102.5t-102 38.5q-54 0 -87.5 -24.5t-33.5 -65.5q0 -46 29 -69t94 -31l163 -18q242 -28 372 -147.5t130 -309.5q0 -195 -131 -317.5t-369 -153.5v-156z" />
    <glyph glyph-name="percent" unicode="%" horiz-adv-x="1955" 
d="M434 618q-180 0 -284.5 110.5t-104.5 299.5q0 192 106 309t283 117q178 0 285.5 -116.5t107.5 -307.5q0 -189 -106.5 -300.5t-286.5 -111.5zM629 0h-328l1040 1434h324zM434 850q62 0 62 188q0 187 -62 187q-28 0 -42.5 -42t-14.5 -145q0 -107 14 -147.5t43 -40.5z
M1518 -20q-180 0 -285 110t-105 299q0 192 106.5 309t283.5 117q178 0 285.5 -116.5t107.5 -307.5q0 -189 -106.5 -300t-286.5 -111zM1518 211q61 0 61 188q0 187 -61 187q-58 0 -58 -187q0 -107 14.5 -147.5t43.5 -40.5z" />
    <glyph glyph-name="ampersand" unicode="&#x26;" horiz-adv-x="1591" 
d="M637 -37q-274 0 -438 112t-164 304q0 143 73 237.5t214 163.5q-89 146 -89 275q0 175 147.5 295t377.5 120q121 0 216 -33t149.5 -87t82 -115t27.5 -125q0 -144 -87.5 -247.5t-271.5 -182.5q45 -35 119 -84q51 -35 92 -59q84 110 144 258l309 -146q-61 -154 -143 -280
q142 -68 217 -93l-113 -309q-163 62 -342 154q-218 -158 -520 -158zM649 899l27 8q166 61 166 148q0 40 -29 67t-76 27q-57 0 -95 -34.5t-38 -98.5q0 -53 45 -117zM651 283q96 0 172 36q-117 82 -151 107q-85 67 -133 111q-82 -43 -82 -125q0 -50 49 -89.5t145 -39.5z" />
    <glyph glyph-name="quotesingle" unicode="'" horiz-adv-x="569" 
d="M428 602h-287l-82 533v299h451v-299z" />
    <glyph glyph-name="parenleft" unicode="(" horiz-adv-x="790" 
d="M754 37v-363q-114 0 -210.5 28.5t-168 78t-128.5 120.5t-94.5 152.5t-62 177.5t-35 192t-10.5 200q0 148 21 279t72.5 255t130.5 213t203 143t282 54v-367q-56 -5 -102 -28t-77 -56.5t-54 -82t-36 -95.5t-21 -107t-11 -106t-4 -102q-1 -52 1 -100.5t10 -106.5
t21.5 -107.5t37 -98t55 -84t78 -59.5t102.5 -30z" />
    <glyph glyph-name="parenright" unicode=")" horiz-adv-x="790" 
d="M37 1204v363q114 0 210 -28.5t168 -78t128.5 -120.5t94 -152.5t62 -177.5t35 -192t10.5 -200q0 -148 -21 -279t-72.5 -255t-130 -213t-202.5 -143t-282 -54v367q56 5 102 28t77 56.5t54 82t36 95.5t21 107t11 106t4 102q1 52 -1 100.5t-10 106.5t-21.5 107.5t-37 98
t-55 84t-78 59.5t-102.5 30z" />
    <glyph glyph-name="asterisk" unicode="*" horiz-adv-x="1175" 
d="M575 922l-133 -265l-260 146l70 100l94 137l-178 -12l-117 -6v301l281 -16l-150 231l285 148l57 -115q47 -92 72 -137l74 137l63 115l260 -148l-157 -231l288 16v-301l-145 10l-156 12q39 -61 80 -116l90 -125l-284 -146z" />
    <glyph glyph-name="plus" unicode="+" horiz-adv-x="1216" 
d="M795 164h-373v385h-371v348h371v385h373v-385h370v-348h-370v-385z" />
    <glyph glyph-name="comma" unicode="," horiz-adv-x="661" 
d="M324 -399h-246l272 399h-272v438h506v-438z" />
    <glyph glyph-name="hyphen" unicode="-" horiz-adv-x="1067" 
d="M985 467h-903v369h903v-369z" />
    <glyph glyph-name="period" unicode="." horiz-adv-x="661" 
d="M584 0h-506v438h506v-438z" />
    <glyph glyph-name="slash" unicode="/" horiz-adv-x="993" 
d="M412 -182h-383l551 1798h383z" />
    <glyph glyph-name="zero" unicode="0" horiz-adv-x="1488" 
d="M739 -37q-314 0 -498 197t-184 542q0 228 83 402t238.5 270t360.5 96q313 0 503 -209.5t190 -555.5q0 -343 -188.5 -542.5t-504.5 -199.5zM739 354q73 0 109.5 84.5t36.5 280.5q0 190 -36.5 277t-109.5 87q-71 0 -104 -86t-33 -278q0 -200 33 -282.5t104 -82.5z" />
    <glyph glyph-name="one" unicode="1" horiz-adv-x="1046" 
d="M942 0h-502v696v252q-56 -147 -158.5 -228.5t-242.5 -96.5v497q330 22 440 314h463v-1434z" />
    <glyph glyph-name="two" unicode="2" horiz-adv-x="1353" 
d="M1270 0h-1182v465q162 53 286.5 108t201 104t125 99.5t67 92t18.5 83.5q0 65 -33.5 99t-86.5 34q-34 0 -59.5 -14.5t-41 -37t-25 -54t-13 -61.5t-3.5 -64l-475 61q-2 47 5.5 97t29 105t54 105t83.5 95.5t115 79t152 53.5t190 20q171 0 306 -53t215.5 -159t80.5 -250
q0 -223 -190 -379q-166 -137 -469 -240h473h176v-389z" />
    <glyph glyph-name="three" unicode="3" horiz-adv-x="1349" 
d="M686 -37q-278 0 -453 102.5t-215 305.5l488 110q33 -137 151 -137q59 0 95 29.5t36 77.5q0 51 -39.5 83.5t-99.5 32.5h-180v318h174q58 0 95.5 26t37.5 74q0 44 -31 71t-83 27q-101 0 -127 -112l-472 80q17 188 186.5 303.5t432.5 115.5q252 0 411.5 -108t159.5 -287
q0 -133 -87 -221.5t-246 -116.5q168 -24 271 -123.5t103 -244.5q0 -187 -156.5 -296.5t-451.5 -109.5z" />
    <glyph glyph-name="four" unicode="4" horiz-adv-x="1464" 
d="M1204 0h-461v252h-714v354l528 828h647v-828h205v-354h-205v-252zM670 606h73v90v353l-276 -443h203z" />
    <glyph glyph-name="five" unicode="5" horiz-adv-x="1357" 
d="M672 -37q-116 0 -214.5 24t-169 64t-124 95t-85 115t-46.5 126l465 80q12 -53 50.5 -88t108.5 -35q55 0 95.5 35t40.5 108q0 70 -41 105t-93 35q-90 0 -127 -92l-436 57l107 842h1030v-390h-674l-16 -118l-19 -131q42 57 122 85.5t175 28.5q69 0 133.5 -13.5t128 -46.5
t110.5 -83t76 -129.5t29 -179.5q0 -230 -156 -362t-470 -132z" />
    <glyph glyph-name="six" unicode="6" horiz-adv-x="1376" 
d="M725 -37q-151 0 -270.5 45t-192.5 115.5t-120.5 165.5t-66 186.5t-18.5 186.5q0 170 41.5 307.5t112.5 229.5t168.5 154t205 89.5t226.5 27.5q128 0 242.5 -24.5t160.5 -50.5v-383q-174 69 -331 69q-66 0 -123 -15.5t-103.5 -47.5t-73.5 -86.5t-28 -126.5q36 59 114 100
t199 41q54 0 111.5 -12.5t120 -45.5t111.5 -82.5t80.5 -131t31.5 -182.5q0 -111 -35.5 -202t-94.5 -151t-137.5 -100.5t-161 -58t-169.5 -17.5zM698 350q61 0 102.5 40.5t41.5 103.5q0 59 -42 98t-102 39q-62 0 -100.5 -38.5t-38.5 -98.5q0 -66 38 -105t101 -39z" />
    <glyph glyph-name="seven" unicode="7" horiz-adv-x="1181" 
d="M700 0h-544q-1 104 15 201.5t42.5 176.5t67 154t81.5 131.5t92.5 111t92.5 89.5t90.5 71t77 53t60.5 36t34 20h-313h-461v390h1120v-490q-105 -57 -186.5 -138.5t-132.5 -173t-83 -200t-44 -213.5t-9 -219z" />
    <glyph glyph-name="eight" unicode="8" horiz-adv-x="1392" 
d="M698 -37q-296 0 -468.5 110.5t-172.5 295.5q0 145 103 242.5t272 121.5q-159 26 -249.5 117.5t-90.5 224.5q0 181 165.5 288t440.5 107q271 0 436.5 -107t165.5 -288q0 -132 -89.5 -223t-249.5 -119q168 -24 271 -122t103 -242q0 -185 -170.5 -295.5t-466.5 -110.5z
M696 881q63 0 99 29.5t36 86.5q0 58 -36 90.5t-99 32.5q-64 0 -99.5 -33t-35.5 -90t35.5 -86.5t99.5 -29.5zM698 338q67 0 108.5 37t41.5 98q0 59 -42 94t-110 35q-66 0 -105.5 -33.5t-39.5 -95.5q0 -61 40.5 -98t106.5 -37z" />
    <glyph glyph-name="nine" unicode="9" horiz-adv-x="1382" 
d="M528 -37q-121 0 -226.5 20.5t-162.5 43.5v383q140 -72 350 -72q175 0 269 94q65 65 65 195q-111 -146 -321 -146q-56 0 -111.5 11.5t-118 44t-109 82t-77.5 133t-31 190.5q0 111 35 202t93.5 150.5t136.5 100t160.5 58t170.5 17.5q267 0 443 -149q121 -101 176 -250.5
t55 -304.5q0 -391 -205 -597t-592 -206zM674 788q64 0 102.5 40t38.5 104q0 66 -38.5 105.5t-102.5 39.5q-61 0 -101.5 -40.5t-40.5 -104.5q0 -62 41.5 -103t100.5 -41z" />
    <glyph glyph-name="colon" unicode=":" horiz-adv-x="669" 
d="M588 653h-506v439h506v-439zM588 0h-506v438h506v-438z" />
    <glyph glyph-name="semicolon" unicode=";" horiz-adv-x="669" 
d="M588 653h-506v439h506v-439zM328 -399h-246l272 399h-272v438h506v-438z" />
    <glyph glyph-name="less" unicode="&#x3c;" horiz-adv-x="1255" 
d="M57 975l1100 278l-2 -393l-309 -61l-490 -99q83 -17 249 -50.5t249 -49.5l299 -59l4 -396l-1100 279v551z" />
    <glyph glyph-name="equal" unicode="=" horiz-adv-x="1241" 
d="M1151 786h-1061v328h1061v-328zM1151 315h-1061v328h1061v-328z" />
    <glyph glyph-name="greater" unicode="&#x3e;" horiz-adv-x="1253" 
d="M1196 424l-1100 -279l2 394l310 61l489 98q-83 16 -249 50l-249 51l-299 59l-4 395l1100 -278v-551z" />
    <glyph glyph-name="question" unicode="?" horiz-adv-x="1394" 
d="M901 561h-457q0 51 3 85t14 72t31 66.5t55 58t86 56.5q102 55 132 80.5t30 60.5q0 31 -27 50.5t-72 19.5q-59 0 -97.5 -36t-37.5 -113l-524 67q1 58 23.5 116t74 118t127.5 105.5t195 74t264 28.5q161 0 283.5 -27.5t195.5 -76t109.5 -110t36.5 -134.5q0 -109 -62 -182.5
t-190 -146.5q-123 -69 -158 -112.5t-35 -119.5zM928 0h-506v438h506v-438z" />
    <glyph glyph-name="at" unicode="@" horiz-adv-x="2004" 
d="M1079 -365q-491 0 -766.5 238.5t-275.5 679.5q0 173 55.5 322.5t152 257.5t226 185t278.5 114.5t308 37.5q202 0 377 -56.5t301 -157t198 -246t72 -316.5q0 -115 -30 -210.5t-79.5 -159t-115.5 -107.5t-136.5 -64t-144.5 -20q-228 0 -307 174q-43 -82 -119.5 -128
t-161.5 -46q-81 0 -142.5 34.5t-98 95.5t-54.5 137.5t-18 166.5q0 172 81.5 288t229.5 116q155 0 244 -133v108h293v-454q0 -91 67 -91q73 0 120.5 76.5t47.5 220.5q0 212 -169.5 349t-462.5 137q-143 0 -265 -41t-213 -118.5t-142.5 -198t-51.5 -271.5q0 -307 179 -470
t509 -163q183 0 315.5 35t255.5 96l119 -266q-298 -152 -676 -152zM1049 395q51 0 77.5 47t26.5 127q0 179 -104 179q-51 0 -81 -47.5t-30 -131.5q0 -78 30 -126t81 -48z" />
    <glyph glyph-name="A" unicode="A" horiz-adv-x="1624" 
d="M1642 0h-567l-59 223h-451l-61 -223h-520l462 1434h728zM688 676l-22 -84h254l-23 88q-31 114 -98 393q-49 -169 -111 -397z" />
    <glyph glyph-name="B" unicode="B" horiz-adv-x="1454" 
d="M881 0h-783v1434h768q231 0 360.5 -94.5t129.5 -254.5q0 -133 -78.5 -218t-226.5 -113q169 -28 265.5 -127t96.5 -242q0 -182 -140 -283.5t-392 -101.5zM606 1069v-197h164q47 0 78 28.5t31 70.5t-31 70t-78 28h-164zM606 571v-206h166q52 0 85.5 29t33.5 73
q0 46 -32.5 75t-86.5 29h-166z" />
    <glyph glyph-name="C" unicode="C" horiz-adv-x="1648" 
d="M858 -37q-375 0 -592 196.5t-217 542.5q0 226 99.5 400t284.5 271t429 97q289 0 494.5 -130t275.5 -357l-551 -164q-23 124 -78.5 183t-150.5 59q-106 0 -164.5 -92.5t-58.5 -263.5q0 -149 61.5 -241.5t159.5 -92.5q88 0 144 57t93 186l547 -180q-66 -206 -279 -338.5
t-497 -132.5z" />
    <glyph glyph-name="D" unicode="D" horiz-adv-x="1607" 
d="M793 0h-695v1434h666q369 0 582 -191.5t213 -523.5q0 -159 -56 -293t-155.5 -227.5t-242.5 -146t-312 -52.5zM631 1034v-631h110q118 0 186 85.5t68 234.5q0 140 -70 225.5t-184 85.5h-110z" />
    <glyph glyph-name="E" unicode="E" horiz-adv-x="1339" 
d="M1264 0h-1166v1434h1166v-396h-654v-143h533v-348h-533v-150h654v-397z" />
    <glyph glyph-name="F" unicode="F" horiz-adv-x="1320" 
d="M621 0h-523v1434h1170v-410h-647v-215h536v-379h-536v-430z" />
    <glyph glyph-name="G" unicode="G" horiz-adv-x="1687" 
d="M702 -37q-144 0 -261.5 44.5t-205 133.5t-136 232t-48.5 329q0 131 32 246.5t98.5 211.5t162.5 165t230.5 107t295.5 38q140 0 258 -26.5t198 -68t141.5 -98t96 -112t54.5 -114.5l-539 -179q-25 81 -81.5 135t-147.5 54q-110 0 -175 -98t-65 -273q0 -195 63.5 -286
t188.5 -91q79 0 139.5 39t81.5 111h-264v338h785v-801h-471v154q-61 -82 -170 -136.5t-261 -54.5z" />
    <glyph glyph-name="H" unicode="H" horiz-adv-x="1617" 
d="M641 0h-543v1434h543v-498h336v498h543v-1434h-543v526h-336v-526z" />
    <glyph glyph-name="I" unicode="I" horiz-adv-x="739" 
d="M641 0h-543v1434h543v-1434z" />
    <glyph glyph-name="J" unicode="J" horiz-adv-x="1353" 
d="M664 -37q-175 0 -302 44.5t-202.5 129.5t-111 197.5t-36.5 259.5l488 111q-2 -89 3 -150t19 -109.5t42 -72t71 -23.5q51 0 79.5 34t28.5 103v947h527v-828q0 -118 -17.5 -212t-60.5 -176.5t-111 -137.5t-173.5 -86t-243.5 -31z" />
    <glyph glyph-name="K" unicode="K" horiz-adv-x="1624" 
d="M1677 0h-626l-326 561l-115 -119v-442h-512v1434h512v-119v-350l404 469h620l-526 -566z" />
    <glyph glyph-name="L" unicode="L" horiz-adv-x="1318" 
d="M1292 0h-1194v1434h543v-1024h651v-410z" />
    <glyph glyph-name="M" unicode="M" horiz-adv-x="2119" 
d="M606 0h-508v1434h795l57 -260q71 -324 125 -594q42 198 129 596l58 258h759v-1434h-510v371v659l-260 -1030h-385l-260 1030v-655v-375z" />
    <glyph glyph-name="N" unicode="N" horiz-adv-x="1736" 
d="M600 0h-502v1434h672l367 -727v376v351h501v-1434h-579l-459 915v-417v-498z" />
    <glyph glyph-name="O" unicode="O" horiz-adv-x="1757" 
d="M879 -37q-177 0 -319 40.5t-236.5 109t-157 164.5t-90 203t-27.5 227q0 121 27.5 229t90.5 207t156.5 170.5t236 114t319.5 42.5t319 -42.5t236 -114t157 -170.5t90 -207t27 -229t-27.5 -227.5t-90 -202.5t-156.5 -164.5t-236 -109t-319 -40.5zM879 373q127 0 191.5 86
t64.5 248q0 164 -65 259t-191 95t-191 -95t-65 -259q0 -162 64.5 -248t191.5 -86z" />
    <glyph glyph-name="P" unicode="P" horiz-adv-x="1458" 
d="M621 0h-523v1434h768q110 0 210.5 -34.5t179 -97.5t125 -162t46.5 -220q0 -122 -46.5 -220t-125.5 -159t-178.5 -93t-210.5 -32h-245v-416zM621 1044v-260h143q67 0 104 36.5t37 94.5q0 57 -37 93t-104 36h-143z" />
    <glyph glyph-name="Q" unicode="Q" horiz-adv-x="1765" 
d="M879 -37q-390 0 -610 197t-220 547q0 356 221.5 559.5t608.5 203.5q372 0 598.5 -197.5t226.5 -522.5q0 -127 -36 -242t-101 -193q49 -18 157 -18v-334q-126 0 -236 31.5t-181 87.5q-185 -119 -428 -119zM881 354q39 0 86 21l-21 22q-81 90 -198 90v340q88 0 143.5 -13.5
t116.5 -49.5q43 -24 145 -137q12 58 12 98q0 172 -72.5 260t-213.5 88q-283 0 -283 -360q0 -359 285 -359z" />
    <glyph glyph-name="R" unicode="R" horiz-adv-x="1564" 
d="M621 0h-523v1434h820q260 0 409.5 -111.5t149.5 -304.5q0 -153 -106 -254t-277 -123q116 -13 184.5 -49.5t107 -101t70.5 -181.5l84 -309h-563l-78 356q-18 80 -44.5 110t-88.5 30h-145v-496zM621 1049v-226h180q61 0 98 32t37 81q0 52 -35.5 82.5t-99.5 30.5h-180z" />
    <glyph glyph-name="S" unicode="S" horiz-adv-x="1540" 
d="M758 -37q-326 0 -515 115t-223 323l549 101q12 -83 63 -127.5t136 -44.5q81 0 120.5 26.5t39.5 71.5q0 39 -30.5 65.5t-86.5 32.5l-178 21q-295 33 -419 138.5t-124 313.5q0 212 188.5 341.5t497.5 129.5q295 0 480 -106.5t223 -304.5l-553 -90q-16 64 -62 102.5
t-114 38.5q-60 0 -97 -24.5t-37 -65.5q0 -45 32.5 -68.5t103.5 -31.5l182 -19q268 -28 412.5 -147.5t144.5 -309.5q0 -226 -193.5 -353.5t-539.5 -127.5z" />
    <glyph glyph-name="T" unicode="T" horiz-adv-x="1411" 
d="M977 0h-543v1065h-409v369h1361v-369h-409v-1065z" />
    <glyph glyph-name="U" unicode="U" horiz-adv-x="1601" 
d="M801 -37q-366 0 -541.5 160.5t-175.5 507.5v803h534v-750q0 -159 42 -225t139 -66t137.5 66t40.5 225v750h541v-803q0 -347 -175.5 -507.5t-541.5 -160.5z" />
    <glyph glyph-name="V" unicode="V" horiz-adv-x="1720" 
d="M1251 0h-778l-496 1434h605l141 -492q63 -225 151 -524q59 213 150 526l141 490h574z" />
    <glyph glyph-name="W" unicode="W" horiz-adv-x="2301" 
d="M1006 0h-666l-346 1434h573l27 -146q85 -478 145 -825q66 487 115 827l20 144h572l29 -154q51 -278 137 -803q60 430 117 801l24 156h528l-296 -1434h-652l-30 178q-38 230 -134 787q-51 -295 -133 -783z" />
    <glyph glyph-name="X" unicode="X" horiz-adv-x="1632" 
d="M598 0h-645l524 748l-471 686h608l80 -125q42 -68 115 -174q27 43 98 161l84 138h635l-471 -686l524 -748h-616l-113 172q-66 100 -125 195l-120 -195z" />
    <glyph glyph-name="Y" unicode="Y" horiz-adv-x="1511" 
d="M1026 0h-543v514l-508 920h566l47 -99q73 -153 184 -381q61 135 178 379l49 101h541l-514 -920v-514z" />
    <glyph glyph-name="Z" unicode="Z" horiz-adv-x="1380" 
d="M1323 0h-1260v434l670 600h-405h-240v400h1192v-451l-631 -563h430h244v-420z" />
    <glyph glyph-name="bracketleft" unicode="[" horiz-adv-x="808" 
d="M776 -307h-684v1853h684v-313h-254v-1227h254v-313z" />
    <glyph glyph-name="backslash" unicode="\" horiz-adv-x="995" 
d="M967 -182h-385l-551 1798h385z" />
    <glyph glyph-name="bracketright" unicode="]" horiz-adv-x="808" 
d="M33 1546h684v-1853h-684v313h254v1227h-254v313z" />
    <glyph glyph-name="asciicircum" unicode="^" horiz-adv-x="1380" 
d="M459 672h-414l447 762h413l430 -762h-430l-57 112q-76 148 -154 299q-105 -177 -170 -295z" />
    <glyph glyph-name="underscore" unicode="_" horiz-adv-x="1316" 
d="M1272 -399h-1227v307h1227v-307z" />
    <glyph glyph-name="grave" unicode="`" horiz-adv-x="632" 
d="M592 1159h-311l-271 316h479z" />
    <glyph glyph-name="a" unicode="a" horiz-adv-x="1300" 
d="M408 -37q-180 0 -272.5 80t-92.5 229q0 170 175.5 271t496.5 114v33q0 101 -103 101q-54 0 -80.5 -27t-35.5 -88l-469 55q26 162 188 251t424 89q258 0 397.5 -109.5t139.5 -312.5v-256q0 -36 11 -50.5t38 -14.5h61v-328h-266q-116 0 -173 36t-75 111
q-19 -29 -49.5 -58.5t-75 -59t-107.5 -48t-132 -18.5zM586 252q56 0 92.5 42.5t36.5 113.5v57q-209 -18 -209 -137q0 -35 22 -55.5t58 -20.5z" />
    <glyph glyph-name="b" unicode="b" horiz-adv-x="1341" 
d="M864 -37q-61 0 -114 16.5t-90.5 44.5t-61.5 53.5t-41 53.5v-131h-485v1434h485v-398v-131q47 75 128.5 120.5t178.5 45.5q199 0 319 -151.5t120 -401.5q0 -253 -116.5 -404t-322.5 -151zM672 272q57 0 90 62t33 186q0 240 -123 240t-123 -240q0 -124 33 -186t90 -62z" />
    <glyph glyph-name="c" unicode="c" horiz-adv-x="1243" 
d="M629 -37q-282 0 -438 146.5t-156 398.5q0 255 161 409t433 154q238 0 396 -105.5t196 -287.5l-467 -94q-7 85 -40.5 131.5t-86.5 46.5q-117 0 -117 -242q0 -248 117 -248q50 0 82.5 46t44.5 133l475 -60q-42 -211 -192 -319.5t-408 -108.5z" />
    <glyph glyph-name="d" unicode="d" horiz-adv-x="1343" 
d="M477 -37q-206 0 -322 151t-116 404q0 250 119.5 401.5t318.5 151.5q97 0 178.5 -45.5t128.5 -120.5v131v398h486v-1434h-486v131q-17 -28 -41 -53.5t-61.5 -53.5t-90.5 -44.5t-114 -16.5zM670 272q57 0 90 62t33 186q0 240 -123 240t-123 -240q0 -124 33 -186t90 -62z
" />
    <glyph glyph-name="e" unicode="e" horiz-adv-x="1263" 
d="M633 -37q-286 0 -442 145.5t-156 415.5q0 243 165 395t429 152q315 0 467 -172t118 -467h-700q0 -164 117 -164q100 0 145 121l457 -110q-144 -316 -600 -316zM518 637h227q3 68 -27.5 108.5t-84.5 40.5q-112 0 -115 -149z" />
    <glyph glyph-name="f" unicode="f" horiz-adv-x="913" 
d="M674 727v-727h-471v727h-174v307h174v76q0 183 88 270.5t270 87.5h395v-307h-221q-61 0 -61 -61v-66h231v-307h-231z" />
    <glyph glyph-name="g" unicode="g" horiz-adv-x="1431" 
d="M963 -399h-678q-128 0 -201.5 53t-73.5 153q0 65 37.5 119.5t106.5 89.5q-129 60 -129 193q0 72 48.5 139t141.5 117q-109 91 -109 231q0 97 43 171t118.5 117.5t170.5 65t207 21.5q176 0 300.5 -57t184.5 -166q7 51 21 87t29.5 55t39.5 29t42.5 12.5t46.5 2.5h102v-338
h-180q-31 0 -48 -16t-28 -49l-12 -35q-14 -38 -34.5 -72t-59.5 -70.5t-90 -62t-129 -42.5t-173 -17q-156 0 -260 53q-24 -36 -24 -61q0 -64 82 -64h503q201 0 305.5 -92t104.5 -231q0 -147 -107.5 -241.5t-297.5 -94.5zM643 545q98 0 98 145q0 146 -98 146q-92 0 -92 -146
q0 -145 92 -145zM471 -113h379q30 0 47.5 15.5t17.5 42.5q0 25 -19 40t-46 15h-442q-23 -30 -23 -53q0 -60 86 -60z" />
    <glyph glyph-name="h" unicode="h" horiz-adv-x="1314" 
d="M573 0h-501v1434h479v-441v-127q41 83 134 144t214 61q156 0 253 -95t97 -284v-692h-501v616q0 48 -25 76.5t-64 28.5q-38 0 -62 -28.5t-24 -76.5v-616z" />
    <glyph glyph-name="i" unicode="i" horiz-adv-x="649" 
d="M575 1137h-503v358h503v-358zM575 0h-501v1034h501v-1034z" />
    <glyph glyph-name="j" unicode="j" horiz-adv-x="645" 
d="M580 1137h-504v358h504v-358zM201 -399h-283v327h127q45 0 45 70v1036h481v-1046q0 -176 -93.5 -281.5t-276.5 -105.5z" />
    <glyph glyph-name="k" unicode="k" horiz-adv-x="1421" 
d="M1468 0h-573l-248 393l-100 -94v-299h-475v1434h475v-199v-510l317 309h580l-428 -383z" />
    <glyph glyph-name="l" unicode="l" horiz-adv-x="634" 
d="M561 0h-487v1434h487v-1434z" />
    <glyph glyph-name="m" unicode="m" horiz-adv-x="1941" 
d="M569 0h-495v1034h479v-178q43 85 133.5 150t210.5 65q100 0 178.5 -55.5t114.5 -159.5q42 87 127.5 151t208.5 64q67 0 128.5 -22.5t111.5 -67t80 -119.5t30 -170v-692h-496v614q0 51 -23 79t-59 28q-37 0 -60.5 -28t-23.5 -79v-614h-479v614q0 51 -23.5 79t-60.5 28
q-36 0 -59 -28t-23 -79v-614z" />
    <glyph glyph-name="n" unicode="n" horiz-adv-x="1314" 
d="M573 0h-499v1034h477v-168q45 92 143 148.5t207 56.5q163 0 255.5 -100t92.5 -279v-692h-499v616q0 51 -25.5 78t-65.5 27q-38 0 -62 -27t-24 -78v-616z" />
    <glyph glyph-name="o" unicode="o" horiz-adv-x="1339" 
d="M666 -37q-292 0 -461.5 148.5t-169.5 404.5q0 257 169.5 406t461.5 149q293 0 466 -150t173 -405t-172.5 -404t-466.5 -149zM668 274q59 0 86.5 58.5t27.5 187.5t-27.5 184.5t-86.5 55.5t-85 -55.5t-26 -184.5q0 -130 26 -188t85 -58z" />
    <glyph glyph-name="p" unicode="p" horiz-adv-x="1343" 
d="M559 -399h-485v1433h485v-131q17 28 41 53.5t61.5 53.5t90.5 44.5t114 16.5q206 0 322.5 -151t116.5 -404q0 -250 -120 -401.5t-319 -151.5q-97 0 -178.5 45.5t-128.5 120.5v-131v-397zM674 272q57 0 90 62t33 186q0 240 -123 240t-123 -240q0 -124 33 -186t90 -62z" />
    <glyph glyph-name="q" unicode="q" horiz-adv-x="1343" 
d="M1270 -399h-486v397v131q-47 -75 -128.5 -120.5t-178.5 -45.5q-199 0 -318.5 151.5t-119.5 401.5q0 253 116 404t322 151q61 0 114 -16.5t90.5 -44.5t61.5 -53.5t41 -53.5v131h486v-1433zM670 272q57 0 90 62t33 186q0 240 -123 240t-123 -240q0 -124 33 -186t90 -62z
" />
    <glyph glyph-name="r" unicode="r" horiz-adv-x="1024" 
d="M575 0h-501v1034h481v-295q87 328 330 328q63 0 119 -12v-441q-97 19 -166 19q-135 0 -199 -70.5t-64 -195.5v-367z" />
    <glyph glyph-name="s" unicode="s" horiz-adv-x="1196" 
d="M584 -37q-127 0 -227.5 22.5t-161 56t-102 81t-58.5 90t-23 88.5l453 35q7 -105 123 -105q106 0 106 66q0 31 -25.5 48t-80.5 26l-115 20q-220 38 -315 110.5t-95 223.5q0 147 135.5 246.5t395.5 99.5q116 0 208 -18t149.5 -46.5t98 -68.5t59.5 -79t26 -83l-451 -57
q-16 96 -117 96q-80 0 -80 -59q0 -28 28 -42.5t95 -25.5l154 -24q198 -32 298.5 -118.5t100.5 -223.5q0 -164 -145 -261.5t-434 -97.5z" />
    <glyph glyph-name="t" unicode="t" horiz-adv-x="968" 
d="M944 0h-395q-172 0 -260 88t-88 260v379h-189v307h189v307h481v-307h207v-307h-207v-317q0 -62 61 -62h201v-348z" />
    <glyph glyph-name="u" unicode="u" horiz-adv-x="1310" 
d="M420 -37q-67 0 -129 22.5t-113 67t-81.5 119.5t-30.5 170v692h501v-612q0 -51 26 -80t64 -29q37 0 61.5 28.5t24.5 80.5v612h494v-1034h-471v139q-43 -69 -135 -122.5t-211 -53.5z" />
    <glyph glyph-name="v" unicode="v" horiz-adv-x="1304" 
d="M983 0h-651l-350 1034h516l49 -194l123 -488q64 268 118 475l54 207h475z" />
    <glyph glyph-name="w" unicode="w" horiz-adv-x="1808" 
d="M784 0h-561l-221 1034h461l31 -198q19 -121 73 -480q47 302 70 469l31 209h487l31 -209q11 -71 32.5 -222.5t34.5 -237.5q49 314 74 460l33 209h446l-219 -1034h-579l-41 238q-27 147 -72 424q-19 -108 -72 -429z" />
    <glyph glyph-name="x" unicode="x" horiz-adv-x="1333" 
d="M487 0h-526l401 549l-370 485h536l47 -69l91 -136q51 81 86 132l49 73h540l-387 -512l422 -522h-553l-61 84q-92 129 -115 160l-110 -168z" />
    <glyph glyph-name="y" unicode="y" horiz-adv-x="1275" 
d="M788 883l50 151h454l-366 -1038q-30 -84 -60 -143.5t-70.5 -109.5t-91 -80t-118 -46t-154.5 -16h-346v348h311q35 0 53.5 18t30.5 60l6 20l-540 987h516l65 -147q56 -128 156 -336q67 217 104 332z" />
    <glyph glyph-name="z" unicode="z" horiz-adv-x="1095" 
d="M1042 0h-991v375l465 332h-270h-166v327h942v-332l-500 -354h422h98v-348z" />
    <glyph glyph-name="braceleft" unicode="{" horiz-adv-x="831" 
d="M805 -307h-256q-217 0 -302 92.5t-85 327.5v252q0 63 -28 86.5t-103 23.5v289q72 0 101.5 22.5t29.5 77.5v262q0 235 85 327.5t302 92.5h256v-289h-109q-76 0 -100.5 -28.5t-24.5 -104.5v-186q0 -144 -81 -221.5t-226 -93.5q143 -16 225 -94t82 -222v-192
q0 -76 24.5 -104.5t100.5 -28.5h109v-289z" />
    <glyph glyph-name="bar" unicode="|" horiz-adv-x="595" 
d="M504 -182h-412v1798h412v-1798z" />
    <glyph glyph-name="braceright" unicode="}" horiz-adv-x="831" 
d="M27 1546h256q217 0 302 -92.5t85 -327.5v-252q0 -63 28 -86.5t103 -23.5v-289q-72 0 -101.5 -22.5t-29.5 -77.5v-262q0 -235 -85 -327.5t-302 -92.5h-256v289h108q76 0 100.5 28.5t24.5 104.5v186q0 144 81 221.5t226 93.5q-143 16 -225 94t-82 222v192q0 76 -24.5 104.5
t-100.5 28.5h-108v289z" />
    <glyph glyph-name="asciitilde" unicode="~" horiz-adv-x="1396" 
d="M952 457q-111 0 -198 53l-62 37q-40 24 -55.5 32.5t-47 19.5t-59.5 11q-62 0 -104.5 -28.5t-75.5 -110.5l-305 166q48 167 152 259.5t249 92.5q49 0 95 -12.5t74.5 -26.5t66.5 -37l68 -41q58 -36 118 -36q62 0 105 28.5t76 110.5l305 -166q-48 -167 -152.5 -259.5
t-249.5 -92.5z" />
    <glyph glyph-name="uni00A0" unicode="&#xa0;" horiz-adv-x="358" 
 />
    <glyph glyph-name="exclamdown" unicode="&#xa1;" horiz-adv-x="681" 
d="M84 1272h512v-438h-512v438zM197 711h290l113 -545v-328h-516v328z" />
    <glyph glyph-name="cent" unicode="&#xa2;" horiz-adv-x="1296" 
d="M780 451l475 -60q-74 -373 -481 -422v-190h-231v190q-230 29 -356 171.5t-126 367.5q0 226 129 375t353 180v192h231v-192q192 -25 315.5 -126t157.5 -259l-467 -94q-7 85 -40.5 131.5t-86.5 46.5q-116 0 -116 -242q0 -248 116 -248q50 0 82.5 46t44.5 133z" />
    <glyph glyph-name="sterling" unicode="&#xa3;" horiz-adv-x="1394" 
d="M1020 389h317v-389h-1261v389q252 20 282 182h-282v265h170q-44 57 -69 115.5t-25 138.5q0 114 77 202t202 133t274 45q567 0 622 -421l-487 -97q0 73 -31.5 114.5t-87.5 41.5q-39 0 -69.5 -23t-30.5 -63q0 -20 4 -38.5t16 -42t17.5 -33t25.5 -39t23 -33.5h354v-265h-307
q-33 -112 -185 -182h451z" />
    <glyph glyph-name="currency" unicode="&#xa4;" horiz-adv-x="1374" 
d="M473 256l-160 -154l-252 246l154 148q-55 110 -55 227q0 111 43 201l-148 141l256 250l144 -137q105 51 227 51q121 0 229 -51l152 145l252 -248l-160 -151q47 -86 47 -201q0 -114 -51 -219l168 -160l-256 -250l-172 164q-100 -43 -209 -43t-209 41zM682 582
q60 0 97.5 41t37.5 98q0 59 -37.5 100t-97.5 41t-98.5 -41.5t-38.5 -99.5q0 -57 38.5 -98t98.5 -41z" />
    <glyph glyph-name="yen" unicode="&#xa5;" horiz-adv-x="1650" 
d="M1059 1434h559l-363 -588h162v-264h-323v-93h321v-235h-321v-254h-543v254h-313v235h313v93h-311v264h151l-358 588h575l62 -134q27 -58 82.5 -173t81.5 -173q26 57 81 172.5t82 173.5z" />
    <glyph glyph-name="brokenbar" unicode="&#xa6;" horiz-adv-x="595" 
d="M504 860h-412v756h412v-756zM504 -182h-412v751h412v-751z" />
    <glyph glyph-name="section" unicode="&#xa7;" horiz-adv-x="1431" 
d="M684 -434q-258 0 -414 109.5t-182 308.5l461 51q21 -133 129 -133q53 0 83 22t30 62q0 37 -24.5 60t-78.5 36l-272 70q-191 49 -276 135t-85 223q0 196 209 315q-55 53 -77.5 112.5t-22.5 145.5q0 174 151 280.5t404 106.5q227 0 367 -95.5t165 -266.5l-436 -64
q-16 121 -119 121q-40 0 -64 -21.5t-24 -56.5q0 -36 29 -58.5t113 -43.5l225 -55q211 -52 308 -144.5t97 -238.5q0 -96 -54.5 -178t-147.5 -138q43 -42 68.5 -104t25.5 -129q0 -197 -160 -314.5t-428 -117.5zM895 391q39 42 39 90q0 40 -23.5 64t-76.5 39l-234 69
q-52 15 -84 29q-51 -51 -51 -104q0 -37 31.5 -57t95.5 -38l188 -53q75 -20 115 -39z" />
    <glyph glyph-name="dieresis" unicode="&#xa8;" horiz-adv-x="1019" 
d="M449 1159h-408v316h408v-316zM979 1159h-408v316h408v-316z" />
    <glyph glyph-name="copyright" unicode="&#xa9;" horiz-adv-x="1882" 
d="M934 -170q-185 0 -349 68t-280.5 184.5t-184 277.5t-67.5 340q0 181 67.5 340.5t184 274t280.5 180.5t349 66q248 0 453 -112.5t323.5 -310.5t118.5 -438q0 -179 -70 -340t-189 -277.5t-285 -184.5t-351 -68zM938 88q177 0 313 82t207.5 220.5t71.5 309.5t-71.5 307.5
t-207.5 216t-313 79.5t-311.5 -79.5t-204.5 -216t-70 -307.5q0 -172 70 -310t204.5 -220t311.5 -82zM952 260q-196 0 -323 123.5t-127 323.5q0 197 129 318.5t323 121.5q145 0 250 -69.5t148 -180.5l-275 -94q-42 133 -137 133q-69 0 -106 -57.5t-37 -171.5
q0 -116 37.5 -175t105.5 -59q103 0 145 143l281 -90q-48 -122 -158 -194t-256 -72z" />
    <glyph glyph-name="ordfeminine" unicode="&#xaa;" horiz-adv-x="1103" 
d="M344 582q-75 0 -135 39t-96 104t-55 143t-19 162q0 113 31.5 209t102.5 160.5t171 64.5q170 0 256 -151v121h416v-822h-416v119q-57 -75 -114 -112t-142 -37zM520 823q45 0 69.5 56.5t24.5 152.5q0 94 -24 145.5t-70 51.5t-73 -52t-27 -145q0 -94 27 -151.5t73 -57.5z
" />
    <glyph glyph-name="guillemotleft" unicode="&#xab;" horiz-adv-x="1462" 
d="M350 1034h451l-324 -532l305 -502h-436l-301 516zM977 1034h450l-333 -530l313 -504h-436l-309 516z" />
    <glyph glyph-name="logicalnot" unicode="&#xac;" horiz-adv-x="1218" 
d="M1124 291h-356v268h-705v348h1061v-616z" />
    <glyph glyph-name="uni00AD" unicode="&#xad;" horiz-adv-x="1067" 
d="M985 467h-903v369h903v-369z" />
    <glyph glyph-name="registered" unicode="&#xae;" horiz-adv-x="1140" 
d="M569 549q-120 0 -219 41.5t-163.5 111.5t-100 161.5t-35.5 193.5q0 137 59.5 250t179 183.5t279.5 70.5q120 0 220 -40.5t165 -110t100.5 -160.5t35.5 -193t-36 -193.5t-101 -161.5t-164.5 -111.5t-219.5 -41.5zM569 705q111 0 190.5 51t115.5 129t36 172
q0 147 -89 247.5t-253 100.5t-253 -100.5t-89 -247.5q0 -94 36 -172t115.5 -129t190.5 -51zM530 825h-151v459h231q82 0 125 -33.5t43 -87.5q0 -52 -38 -83t-95 -38q62 -7 86 -29.5t33 -80.5l18 -107h-157l-15 119q-3 30 -15.5 40.5t-39.5 10.5h-25v-170zM530 1165v-69h58
q41 0 41 34q0 35 -41 35h-58z" />
    <glyph glyph-name="macron" unicode="&#xaf;" horiz-adv-x="770" 
d="M739 1180h-708v254h708v-254z" />
    <glyph glyph-name="degree" unicode="&#xb0;" horiz-adv-x="987" 
d="M492 762q-211 0 -341.5 126t-130.5 320t133.5 322.5t338.5 128.5q206 0 340.5 -128.5t134.5 -322.5q0 -197 -131.5 -321.5t-343.5 -124.5zM494 1053q63 0 108 44t45 115q0 68 -45.5 112t-107.5 44q-61 0 -107.5 -44t-46.5 -112q0 -72 45 -115.5t109 -43.5z" />
    <glyph glyph-name="plusminus" unicode="&#xb1;" horiz-adv-x="1232" 
d="M795 508h-357v194h-352v308h352v245h357v-245h352v-308h-352v-194zM1147 109h-1061v307h1061v-307z" />
    <glyph glyph-name="uni00B2" unicode="&#xb2;" horiz-adv-x="854" 
d="M766 825h-678v267q387 120 387 258q0 30 -15.5 45.5t-41.5 15.5q-74 0 -64 -121l-288 33q0 37 10 76.5t36.5 83.5t67 78t109 56.5t155.5 22.5q151 0 239.5 -71.5t88.5 -184.5q0 -68 -26 -118.5t-84 -96.5q-70 -58 -224 -112h252h76v-232z" />
    <glyph glyph-name="uni00B3" unicode="&#xb3;" horiz-adv-x="856" 
d="M434 805q-163 0 -262 61.5t-119 175.5l295 58q4 -33 23.5 -50.5t48.5 -17.5q28 0 45.5 13.5t17.5 37.5q0 22 -17.5 36t-43.5 14h-70v184h66q32 0 49.5 13.5t17.5 37.5q0 23 -15 36t-40 13q-26 0 -40.5 -14t-20.5 -45l-291 39q14 109 109.5 176t244.5 67q148 0 239 -62
t91 -161q0 -67 -47 -116t-129 -68q100 -21 149 -73t49 -126q0 -107 -93.5 -168t-256.5 -61z" />
    <glyph glyph-name="acute" unicode="&#xb4;" horiz-adv-x="632" 
d="M352 1159h-311l102 316h480z" />
    <glyph glyph-name="uni00B5" unicode="&#xb5;" horiz-adv-x="1347" 
d="M582 -399h-492v1433h502v-618q0 -48 25.5 -75.5t64.5 -27.5q38 0 61 27.5t23 75.5v618h491v-1034h-466v178q-36 -69 -105 -127q-50 -44 -104 -63v-387z" />
    <glyph glyph-name="paragraph" unicode="&#xb6;" horiz-adv-x="1970" 
d="M713 1434h1190v-369h-207v-1464h-410v1464h-143v-1464h-389v614h-95q-191 0 -332.5 79.5t-212.5 213.5t-71 305q0 196 86.5 338t236.5 212.5t347 70.5z" />
    <glyph glyph-name="periodcentered" unicode="&#xb7;" horiz-adv-x="665" 
d="M586 575h-506v439h506v-439z" />
    <glyph glyph-name="cedilla" unicode="&#xb8;" horiz-adv-x="694" 
d="M332 -481q-108 0 -184.5 44.5t-106.5 86.5l143 151q57 -67 123 -67q39 0 54.5 14t15.5 31q0 16 -15 28.5t-43 12.5q-33 0 -53 -8l-63 86l174 176l139 -60l-49 -45l-61 -55q33 0 49 -2q76 -10 127 -57t51 -123q0 -89 -76.5 -151t-224.5 -62z" />
    <glyph glyph-name="uni00B9" unicode="&#xb9;" horiz-adv-x="714" 
d="M616 825h-311v291v203q-72 -180 -237 -186v317q201 3 262 170h286v-795z" />
    <glyph glyph-name="ordmasculine" unicode="&#xba;" horiz-adv-x="1042" 
d="M524 582q-123 0 -218.5 34.5t-155.5 96t-90.5 142t-30.5 175.5q0 191 127.5 312.5t367.5 121.5t365 -120.5t125 -313.5q0 -198 -124.5 -323t-365.5 -125zM524 813q45 0 69.5 55.5t24.5 155.5q0 98 -24.5 153.5t-69.5 55.5q-46 0 -73 -56.5t-27 -152.5q0 -99 27 -155
t73 -56z" />
    <glyph glyph-name="guillemotright" unicode="&#xbb;" horiz-adv-x="1462" 
d="M55 1034h437l309 -516l-316 -518h-450l334 530zM680 1034h436l301 -516l-305 -518h-450l323 532z" />
    <glyph glyph-name="onequarter" unicode="&#xbc;" horiz-adv-x="1968" 
d="M598 639h-311v291v203q-72 -181 -238 -187v318q201 3 262 170h287v-795zM547 0h-328l1041 1434h323zM1812 0h-272v135h-403v215l323 445h352v-447h111v-213h-111v-135zM1489 348h51v39v143l-139 -182h88z" />
    <glyph glyph-name="onehalf" unicode="&#xbd;" horiz-adv-x="1865" 
d="M596 639h-311v291v203q-72 -181 -238 -187v318q201 3 262 170h287v-795zM545 0h-328l1040 1434h324zM1802 0h-678v266q387 120 387 258q0 30 -15.5 46t-41.5 16q-73 0 -63 -121l-289 33q0 37 10 76.5t36.5 83.5t67.5 78t109.5 56.5t155.5 22.5q151 0 239 -71.5t88 -184.5
q0 -68 -26 -118.5t-84 -96.5q-73 -61 -223 -113h251h76v-231z" />
    <glyph glyph-name="threequarters" unicode="&#xbe;" horiz-adv-x="2111" 
d="M424 618q-163 0 -262 62t-119 176l295 57q4 -33 23.5 -50t48.5 -17q28 0 45.5 13.5t17.5 37.5q0 22 -17.5 35.5t-43.5 13.5h-70v184h66q32 0 49.5 14t17.5 38q0 23 -15 36t-40 13q-50 0 -62 -60l-290 39q14 109 109.5 176.5t244.5 67.5q148 0 239 -62t91 -161
q0 -67 -47.5 -116t-129.5 -68q100 -21 149.5 -73t49.5 -126q0 -107 -93.5 -168.5t-256.5 -61.5zM688 0h-328l1041 1434h323zM1954 0h-273v135h-403v215l324 445h352v-447h110v-213h-110v-135zM1630 348h51v39v143l-139 -182h88z" />
    <glyph glyph-name="questiondown" unicode="&#xbf;" horiz-adv-x="1392" 
d="M465 1274h506v-438h-506v438zM492 713h456q0 -65 -5.5 -105.5t-24 -84.5t-57 -79t-101.5 -69q-101 -55 -131.5 -80.5t-30.5 -61.5q0 -31 26.5 -50t71.5 -19q59 0 97.5 36t37.5 113l525 -67q-1 -58 -23.5 -116.5t-74 -118t-127.5 -105t-195 -74.5t-264 -29
q-161 0 -283.5 27.5t-195.5 76.5t-109.5 110.5t-36.5 134.5q0 109 62 182.5t190 146.5q123 69 158 112.5t35 119.5z" />
    <glyph glyph-name="Agrave" unicode="&#xc0;" horiz-adv-x="1624" 
d="M881 1874l112 -315h-342l-297 315h527zM1642 0h-567l-59 223h-451l-61 -223h-520l462 1434h728zM688 676l-22 -84h254l-23 88q-31 114 -98 393q-49 -169 -111 -397z" />
    <glyph glyph-name="Aacute" unicode="&#xc1;" horiz-adv-x="1624" 
d="M748 1874h526l-297 -315h-342zM1642 0h-567l-59 223h-451l-61 -223h-520l462 1434h728zM688 676l-22 -84h254l-23 88q-31 114 -98 393q-49 -169 -111 -397z" />
    <glyph glyph-name="Acircumflex" unicode="&#xc2;" horiz-adv-x="1624" 
d="M940 1559l-131 151l-131 -151h-414l262 315h568l260 -315h-414zM1642 0h-567l-59 223h-451l-61 -223h-520l462 1434h728zM688 676l-22 -84h254l-23 88q-31 114 -98 393q-49 -169 -111 -397z" />
    <glyph glyph-name="Atilde" unicode="&#xc3;" horiz-adv-x="1624" 
d="M596 1556h-277q-14 160 57 250t228 90q98 0 201 -59l49 -27q55 -32 100 -32q36 0 55 26.5t19 71.5h275q14 -157 -56.5 -248.5t-220.5 -91.5q-111 0 -211 59l-45 25q-3 2 -15.5 9t-17 9t-15 7t-17 6.5t-16.5 3.5t-19 2q-36 0 -55 -27t-19 -74zM1642 0h-567l-59 223h-451
l-61 -223h-520l462 1434h728zM688 676l-22 -84h254l-23 88q-31 114 -98 393q-49 -169 -111 -397z" />
    <glyph glyph-name="Adieresis" unicode="&#xc4;" horiz-adv-x="1624" 
d="M291 1874h448v-315h-448v315zM874 1874h447v-315h-447v315zM1642 0h-567l-59 223h-451l-61 -223h-520l462 1434h728zM688 676l-22 -84h254l-23 88q-31 114 -98 393q-49 -169 -111 -397z" />
    <glyph glyph-name="Aring" unicode="&#xc5;" horiz-adv-x="1624" 
d="M811 1507q-87 0 -166 35.5t-132.5 108t-53.5 166.5q0 150 108 249t244 99q142 0 247 -95t105 -239q0 -98 -50 -173t-129.5 -113t-172.5 -38zM811 1933q-44 0 -70 -26.5t-26 -69.5t26 -69.5t70 -26.5t71 26.5t27 69.5t-27 69.5t-71 26.5zM1642 0h-567l-59 223h-451
l-61 -223h-520l462 1434h728zM688 676l-22 -84h254l-23 88q-31 114 -98 393q-49 -169 -111 -397z" />
    <glyph glyph-name="AE" unicode="&#xc6;" horiz-adv-x="2101" 
d="M2025 1434v-400h-647v-143h527v-342h-527v-150h647v-399h-1087v246h-324l-92 -246h-573l610 1434h1466zM938 614v162v346q-2 -5 -168 -454l-20 -54h188z" />
    <glyph glyph-name="Ccedilla" unicode="&#xc7;" horiz-adv-x="1648" 
d="M981 -31l-6 -4q-2 -1 -68 -59q38 0 56 -2q83 -11 138.5 -63t55.5 -136q0 -98 -84.5 -166.5t-245.5 -68.5q-64 0 -122 16.5t-97.5 42t-63.5 47t-38 39.5l158 166q1 -1 8 -8.5t12.5 -12.5t15 -13.5t20 -15t23 -12.5t27 -9t29.5 -3q44 0 61 15t17 34q0 17 -16.5 31t-47.5 14
q-35 0 -59 -8l-70 94l78 80q-332 25 -522.5 219t-190.5 516q0 226 99.5 400t284.5 271t429 97q289 0 494.5 -130t275.5 -357l-551 -164q-23 124 -78.5 183t-150.5 59q-106 0 -164.5 -92.5t-58.5 -263.5q0 -149 61.5 -241.5t159.5 -92.5q88 0 144 57t93 186l547 -180
q-57 -183 -233.5 -309.5t-419.5 -155.5z" />
    <glyph glyph-name="Egrave" unicode="&#xc8;" horiz-adv-x="1339" 
d="M877 1559h-342l-297 315h526zM1264 0h-1166v1434h1166v-396h-654v-143h533v-348h-533v-150h654v-397z" />
    <glyph glyph-name="Eacute" unicode="&#xc9;" horiz-adv-x="1339" 
d="M860 1559h-342l113 315h526zM1264 0h-1166v1434h1166v-396h-654v-143h533v-348h-533v-150h654v-397z" />
    <glyph glyph-name="Ecircumflex" unicode="&#xca;" horiz-adv-x="1339" 
d="M561 1559h-414l263 315h567l260 -315h-414l-131 151zM1264 0h-1166v1434h1166v-396h-654v-143h533v-348h-533v-150h654v-397z" />
    <glyph glyph-name="Edieresis" unicode="&#xcb;" horiz-adv-x="1339" 
d="M623 1559h-449v315h449v-315zM1204 1559h-446v315h446v-315zM1264 0h-1166v1434h1166v-396h-654v-143h533v-348h-533v-150h654v-397z" />
    <glyph glyph-name="Igrave" unicode="&#xcc;" horiz-adv-x="739" 
d="M553 1559h-342l-297 315h526zM641 0h-543v1434h543v-1434z" />
    <glyph glyph-name="Iacute" unicode="&#xcd;" horiz-adv-x="739" 
d="M537 1559h-342l112 315h527zM641 0h-543v1434h543v-1434z" />
    <glyph glyph-name="Icircumflex" unicode="&#xce;" horiz-adv-x="739" 
d="M238 1559h-414l262 315h567l260 -315h-413l-131 151zM641 0h-543v1434h543v-1434z" />
    <glyph glyph-name="Idieresis" unicode="&#xcf;" horiz-adv-x="739" 
d="M299 1559h-449v315h449v-315zM881 1559h-447v315h447v-315zM641 0h-543v1434h543v-1434z" />
    <glyph glyph-name="Eth" unicode="&#xd0;" horiz-adv-x="1650" 
d="M141 1434h666q369 0 582 -191.5t213 -523.5q0 -159 -56 -293t-155.5 -227.5t-242.5 -146t-312 -52.5h-695v567h-121v297h121v570zM674 403h110q118 0 186 85.5t68 234.5q0 140 -70 225.5t-184 85.5h-110v-170h188v-297h-188v-164z" />
    <glyph glyph-name="Ntilde" unicode="&#xd1;" horiz-adv-x="1736" 
d="M1083 1536q-111 0 -211 59l-45 25q-3 2 -15.5 9t-17 9t-15 7t-17 6.5t-16.5 3.5t-19 2q-36 0 -55 -27t-19 -74h-276q-14 160 57 250t228 90q97 0 200 -59l49 -27q55 -32 101 -32q36 0 54.5 26t18.5 72h275q14 -157 -56.5 -248.5t-220.5 -91.5zM600 0h-502v1434h672
l367 -727v376v351h501v-1434h-579l-459 915v-417v-498z" />
    <glyph glyph-name="Ograve" unicode="&#xd2;" horiz-adv-x="1757" 
d="M1055 1559h-342l-297 315h526zM879 -37q-177 0 -319 40.5t-236.5 109t-157 164.5t-90 203t-27.5 227q0 121 27.5 229t90.5 207t156.5 170.5t236 114t319.5 42.5t319 -42.5t236 -114t157 -170.5t90 -207t27 -229t-27.5 -227.5t-90 -202.5t-156.5 -164.5t-236 -109
t-319 -40.5zM879 373q127 0 191.5 86t64.5 248q0 164 -65 259t-191 95t-191 -95t-65 -259q0 -162 64.5 -248t191.5 -86z" />
    <glyph glyph-name="Oacute" unicode="&#xd3;" horiz-adv-x="1757" 
d="M1038 1559h-342l113 315h526zM879 -37q-177 0 -319 40.5t-236.5 109t-157 164.5t-90 203t-27.5 227q0 121 27.5 229t90.5 207t156.5 170.5t236 114t319.5 42.5t319 -42.5t236 -114t157 -170.5t90 -207t27 -229t-27.5 -227.5t-90 -202.5t-156.5 -164.5t-236 -109
t-319 -40.5zM879 373q127 0 191.5 86t64.5 248q0 164 -65 259t-191 95t-191 -95t-65 -259q0 -162 64.5 -248t191.5 -86z" />
    <glyph glyph-name="Ocircumflex" unicode="&#xd4;" horiz-adv-x="1757" 
d="M739 1559h-413l262 315h567l260 -315h-414l-131 151zM879 -37q-177 0 -319 40.5t-236.5 109t-157 164.5t-90 203t-27.5 227q0 121 27.5 229t90.5 207t156.5 170.5t236 114t319.5 42.5t319 -42.5t236 -114t157 -170.5t90 -207t27 -229t-27.5 -227.5t-90 -202.5
t-156.5 -164.5t-236 -109t-319 -40.5zM879 373q127 0 191.5 86t64.5 248q0 164 -65 259t-191 95t-191 -95t-65 -259q0 -162 64.5 -248t191.5 -86z" />
    <glyph glyph-name="Otilde" unicode="&#xd5;" horiz-adv-x="1757" 
d="M1087 1536q-110 0 -210 59l-46 25q-3 2 -15.5 9t-17 9t-15 7t-17 6.5t-16.5 3.5t-19 2q-36 0 -55 -27t-19 -74h-276q-14 160 57 250t228 90q97 0 200 -59l49 -27q55 -32 101 -32q36 0 55 26.5t19 71.5h274q14 -157 -56.5 -248.5t-220.5 -91.5zM879 -37q-177 0 -319 40.5
t-236.5 109t-157 164.5t-90 203t-27.5 227q0 121 27.5 229t90.5 207t156.5 170.5t236 114t319.5 42.5t319 -42.5t236 -114t157 -170.5t90 -207t27 -229t-27.5 -227.5t-90 -202.5t-156.5 -164.5t-236 -109t-319 -40.5zM879 373q127 0 191.5 86t64.5 248q0 164 -65 259
t-191 95t-191 -95t-65 -259q0 -162 64.5 -248t191.5 -86z" />
    <glyph glyph-name="Odieresis" unicode="&#xd6;" horiz-adv-x="1757" 
d="M801 1559h-449v315h449v-315zM1382 1559h-446v315h446v-315zM879 -37q-177 0 -319 40.5t-236.5 109t-157 164.5t-90 203t-27.5 227q0 121 27.5 229t90.5 207t156.5 170.5t236 114t319.5 42.5t319 -42.5t236 -114t157 -170.5t90 -207t27 -229t-27.5 -227.5t-90 -202.5
t-156.5 -164.5t-236 -109t-319 -40.5zM879 373q127 0 191.5 86t64.5 248q0 164 -65 259t-191 95t-191 -95t-65 -259q0 -162 64.5 -248t191.5 -86z" />
    <glyph glyph-name="multiply" unicode="&#xd7;" horiz-adv-x="1249" 
d="M625 461l-328 -322l-242 242l326 317l-328 322l246 240l328 -322l325 317l242 -235l-326 -320l326 -321l-244 -240z" />
    <glyph glyph-name="Oslash" unicode="&#xd8;" horiz-adv-x="1765" 
d="M399 68l-170 -154l-211 229l150 136q-117 178 -117 428q0 121 27.5 229t90.5 207t156.5 170.5t236 114t319.5 42.5q281 0 479 -106l172 156l207 -236l-150 -135q121 -181 121 -442q0 -121 -27.5 -227.5t-90 -202.5t-156.5 -164.5t-236 -109t-319 -40.5q-289 0 -482 105z
M625 694l209 191q28 25 81.5 75t81.5 74q-48 27 -116 27q-124 0 -191 -92t-67 -238q0 -25 2 -37zM881 373q126 0 191 81.5t65 223.5q0 39 -2 57l-174 -157l-197 -179q33 -26 117 -26z" />
    <glyph glyph-name="Ugrave" unicode="&#xd9;" horiz-adv-x="1601" 
d="M983 1559h-342l-297 315h526zM801 -37q-366 0 -541.5 160.5t-175.5 507.5v803h534v-750q0 -159 42 -225t139 -66t137.5 66t40.5 225v750h541v-803q0 -347 -175.5 -507.5t-541.5 -160.5z" />
    <glyph glyph-name="Uacute" unicode="&#xda;" horiz-adv-x="1601" 
d="M967 1559h-342l112 315h527zM801 -37q-366 0 -541.5 160.5t-175.5 507.5v803h534v-750q0 -159 42 -225t139 -66t137.5 66t40.5 225v750h541v-803q0 -347 -175.5 -507.5t-541.5 -160.5z" />
    <glyph glyph-name="Ucircumflex" unicode="&#xdb;" horiz-adv-x="1601" 
d="M668 1559h-414l262 315h567l260 -315h-413l-131 151zM801 -37q-366 0 -541.5 160.5t-175.5 507.5v803h534v-750q0 -159 42 -225t139 -66t137.5 66t40.5 225v750h541v-803q0 -347 -175.5 -507.5t-541.5 -160.5z" />
    <glyph glyph-name="Udieresis" unicode="&#xdc;" horiz-adv-x="1601" 
d="M729 1559h-448v315h448v-315zM1311 1559h-447v315h447v-315zM801 -37q-366 0 -541.5 160.5t-175.5 507.5v803h534v-750q0 -159 42 -225t139 -66t137.5 66t40.5 225v750h541v-803q0 -347 -175.5 -507.5t-541.5 -160.5z" />
    <glyph glyph-name="Yacute" unicode="&#xdd;" horiz-adv-x="1511" 
d="M920 1559h-342l112 315h527zM1026 0h-543v514l-508 920h566l47 -99q73 -153 184 -381q61 135 178 379l49 101h541l-514 -920v-514z" />
    <glyph glyph-name="Thorn" unicode="&#xde;" horiz-adv-x="1478" 
d="M641 1223h231q111 0 212 -34.5t181 -98t127.5 -164.5t47.5 -224q0 -113 -47.5 -205.5t-127.5 -151t-181 -89.5t-212 -31h-231v-225h-543v1434h543v-211zM641 594h158q47 0 83 34.5t36 84.5q0 51 -36 86t-83 35h-158v-240z" />
    <glyph glyph-name="germandbls" unicode="&#xdf;" horiz-adv-x="1353" 
d="M874 -37q-74 0 -120.5 6.5t-98.5 26.5v375q47 -13 76 -13q52 0 84.5 30t32.5 77q0 48 -35.5 78t-97.5 30h-60v310h23q64 0 99.5 30.5t35.5 71.5q0 43 -30.5 74t-86.5 31q-133 0 -133 -185v-905h-491v889q0 89 15.5 167t58.5 156t110.5 133.5t180 90t259.5 34.5
q143 0 252.5 -34.5t171.5 -91.5t92.5 -122t30.5 -135q0 -62 -19 -116t-47 -89.5t-65 -64.5t-68 -44.5t-61 -24.5q34 -5 75.5 -21t89 -48t86 -73.5t64 -104.5t25.5 -134q0 -81 -25.5 -151.5t-77.5 -128.5t-141 -91t-205 -33z" />
    <glyph glyph-name="agrave" unicode="&#xe0;" horiz-adv-x="1300" 
d="M803 1159h-311l-271 316h479zM408 -37q-180 0 -272.5 80t-92.5 229q0 170 175.5 271t496.5 114v33q0 101 -103 101q-54 0 -80.5 -27t-35.5 -88l-469 55q26 162 188 251t424 89q258 0 397.5 -109.5t139.5 -312.5v-256q0 -36 11 -50.5t38 -14.5h61v-328h-266
q-116 0 -173 36t-75 111q-19 -29 -49.5 -58.5t-75 -59t-107.5 -48t-132 -18.5zM586 252q56 0 92.5 42.5t36.5 113.5v57q-209 -18 -209 -137q0 -35 22 -55.5t58 -20.5z" />
    <glyph glyph-name="aacute" unicode="&#xe1;" horiz-adv-x="1300" 
d="M799 1159h-312l103 316h479zM408 -37q-180 0 -272.5 80t-92.5 229q0 170 175.5 271t496.5 114v33q0 101 -103 101q-54 0 -80.5 -27t-35.5 -88l-469 55q26 162 188 251t424 89q258 0 397.5 -109.5t139.5 -312.5v-256q0 -36 11 -50.5t38 -14.5h61v-328h-266q-116 0 -173 36
t-75 111q-19 -29 -49.5 -58.5t-75 -59t-107.5 -48t-132 -18.5zM586 252q56 0 92.5 42.5t36.5 113.5v57q-209 -18 -209 -137q0 -35 22 -55.5t58 -20.5z" />
    <glyph glyph-name="acircumflex" unicode="&#xe2;" horiz-adv-x="1300" 
d="M526 1159h-376l237 316h516l238 -316h-377l-119 152zM408 -37q-180 0 -272.5 80t-92.5 229q0 170 175.5 271t496.5 114v33q0 101 -103 101q-54 0 -80.5 -27t-35.5 -88l-469 55q26 162 188 251t424 89q258 0 397.5 -109.5t139.5 -312.5v-256q0 -36 11 -50.5t38 -14.5h61
v-328h-266q-116 0 -173 36t-75 111q-19 -29 -49.5 -58.5t-75 -59t-107.5 -48t-132 -18.5zM586 252q56 0 92.5 42.5t36.5 113.5v57q-209 -18 -209 -137q0 -35 22 -55.5t58 -20.5z" />
    <glyph glyph-name="atilde" unicode="&#xe3;" horiz-adv-x="1300" 
d="M854 1139q-106 0 -205 57l-43 25q-4 2 -15.5 8.5t-16 9t-14.5 7t-17 6.5t-16.5 3.5t-18.5 1.5q-35 0 -53.5 -26.5t-18.5 -71.5h-266q-14 157 54.5 246.5t219.5 89.5q97 0 195 -59l47 -27q57 -33 98 -33q35 0 53.5 27t18.5 72h264q14 -155 -54 -245.5t-212 -90.5zM408 -37
q-180 0 -272.5 80t-92.5 229q0 170 175.5 271t496.5 114v33q0 101 -103 101q-54 0 -80.5 -27t-35.5 -88l-469 55q26 162 188 251t424 89q258 0 397.5 -109.5t139.5 -312.5v-256q0 -36 11 -50.5t38 -14.5h61v-328h-266q-116 0 -173 36t-75 111q-19 -29 -49.5 -58.5t-75 -59
t-107.5 -48t-132 -18.5zM586 252q56 0 92.5 42.5t36.5 113.5v57q-209 -18 -209 -137q0 -35 22 -55.5t58 -20.5z" />
    <glyph glyph-name="adieresis" unicode="&#xe4;" horiz-adv-x="1300" 
d="M586 1159h-408v316h408v-316zM1116 1159h-407v316h407v-316zM408 -37q-180 0 -272.5 80t-92.5 229q0 170 175.5 271t496.5 114v33q0 101 -103 101q-54 0 -80.5 -27t-35.5 -88l-469 55q26 162 188 251t424 89q258 0 397.5 -109.5t139.5 -312.5v-256q0 -36 11 -50.5
t38 -14.5h61v-328h-266q-116 0 -173 36t-75 111q-19 -29 -49.5 -58.5t-75 -59t-107.5 -48t-132 -18.5zM586 252q56 0 92.5 42.5t36.5 113.5v57q-209 -18 -209 -137q0 -35 22 -55.5t58 -20.5z" />
    <glyph glyph-name="aring" unicode="&#xe5;" horiz-adv-x="1300" 
d="M647 1118q-118 0 -211.5 73t-93.5 193q0 130 93.5 216t211.5 86q123 0 213 -82t90 -207q0 -126 -89 -202.5t-214 -76.5zM647 1319q38 0 61 23.5t23 60.5t-23 59.5t-61 22.5t-61 -22.5t-23 -59.5t23 -60.5t61 -23.5zM408 -37q-180 0 -272.5 80t-92.5 229q0 170 175.5 271
t496.5 114v33q0 101 -103 101q-54 0 -80.5 -27t-35.5 -88l-469 55q26 162 188 251t424 89q258 0 397.5 -109.5t139.5 -312.5v-256q0 -36 11 -50.5t38 -14.5h61v-328h-266q-116 0 -173 36t-75 111q-19 -29 -49.5 -58.5t-75 -59t-107.5 -48t-132 -18.5zM586 252
q56 0 92.5 42.5t36.5 113.5v57q-209 -18 -209 -137q0 -35 22 -55.5t58 -20.5z" />
    <glyph glyph-name="ae" unicode="&#xe6;" horiz-adv-x="1923" 
d="M449 -37q-196 0 -301 80.5t-105 228.5q0 170 175.5 271t496.5 114v33q0 101 -103 101q-117 0 -135 -117l-446 57q27 159 172 249.5t346 90.5q274 0 393 -135q141 135 393 135q91 0 169.5 -19t136 -53t104 -81t73.5 -102.5t45 -117.5t18.5 -126.5t-7.5 -129.5h-700
q0 -174 116 -174q101 0 146 121l452 -110q-56 -144 -199.5 -230t-347.5 -86q-307 0 -440 184q-60 -83 -171.5 -133.5t-280.5 -50.5zM1178 637h227q3 67 -28 108t-85 41q-111 0 -114 -149zM586 252q56 0 92.5 42.5t36.5 113.5v57q-209 -18 -209 -137q0 -35 22 -55.5t58 -20.5
z" />
    <glyph glyph-name="ccedilla" unicode="&#xe7;" horiz-adv-x="1243" 
d="M756 -29l-2 -2l-62 -55q33 0 49 -2q77 -10 128 -57t51 -123q0 -89 -77 -151t-225 -62q-58 0 -110.5 15t-88.5 38t-57.5 42.5t-33.5 35.5l143 151q57 -67 123 -67q39 0 54.5 14t15.5 31q0 16 -15 28.5t-43 12.5q-33 0 -53 -8l-64 86l68 67q-250 20 -386 164t-136 379
q0 255 161 409t433 154q238 0 396 -105.5t196 -287.5l-467 -94q-7 85 -40.5 131.5t-86.5 46.5q-117 0 -117 -242q0 -248 117 -248q50 0 82.5 46t44.5 133l475 -60q-74 -371 -473 -420z" />
    <glyph glyph-name="egrave" unicode="&#xe8;" horiz-adv-x="1263" 
d="M786 1159h-311l-270 316h479zM633 -37q-286 0 -442 145.5t-156 415.5q0 243 165 395t429 152q315 0 467 -172t118 -467h-700q0 -164 117 -164q100 0 145 121l457 -110q-144 -316 -600 -316zM518 637h227q3 68 -27.5 108.5t-84.5 40.5q-112 0 -115 -149z" />
    <glyph glyph-name="eacute" unicode="&#xe9;" horiz-adv-x="1263" 
d="M782 1159h-311l102 316h480zM633 -37q-286 0 -442 145.5t-156 415.5q0 243 165 395t429 152q315 0 467 -172t118 -467h-700q0 -164 117 -164q100 0 145 121l457 -110q-144 -316 -600 -316zM518 637h227q3 68 -27.5 108.5t-84.5 40.5q-112 0 -115 -149z" />
    <glyph glyph-name="ecircumflex" unicode="&#xea;" horiz-adv-x="1263" 
d="M510 1159h-377l238 316h516l237 -316h-376l-119 152zM633 -37q-286 0 -442 145.5t-156 415.5q0 243 165 395t429 152q315 0 467 -172t118 -467h-700q0 -164 117 -164q100 0 145 121l457 -110q-144 -316 -600 -316zM518 637h227q3 68 -27.5 108.5t-84.5 40.5
q-112 0 -115 -149z" />
    <glyph glyph-name="edieresis" unicode="&#xeb;" horiz-adv-x="1263" 
d="M569 1159h-407v316h407v-316zM1100 1159h-408v316h408v-316zM633 -37q-286 0 -442 145.5t-156 415.5q0 243 165 395t429 152q315 0 467 -172t118 -467h-700q0 -164 117 -164q100 0 145 121l457 -110q-144 -316 -600 -316zM518 637h227q3 68 -27.5 108.5t-84.5 40.5
q-112 0 -115 -149z" />
    <glyph glyph-name="igrave" unicode="&#xec;" horiz-adv-x="649" 
d="M483 1159h-311l-270 316h479zM575 0h-501v1034h501v-1034z" />
    <glyph glyph-name="iacute" unicode="&#xed;" horiz-adv-x="649" 
d="M477 1159h-311l102 316h480zM573 0h-501v1034h501v-1034z" />
    <glyph glyph-name="icircumflex" unicode="&#xee;" horiz-adv-x="649" 
d="M207 1159h-377l238 316h516l237 -316h-377l-118 152zM575 0h-501v1034h501v-1034z" />
    <glyph glyph-name="idieresis" unicode="&#xef;" horiz-adv-x="649" 
d="M266 1159h-407v316h407v-316zM797 1159h-408v316h408v-316zM575 0h-501v1034h501v-1034z" />
    <glyph glyph-name="eth" unicode="&#xf0;" horiz-adv-x="1331" 
d="M1272 1305l-156 -82q174 -202 174 -506q0 -113 -20 -216t-70.5 -203t-126.5 -173t-196.5 -117.5t-272.5 -44.5q-89 0 -169.5 17.5t-154.5 56.5t-127.5 97.5t-85.5 147t-32 197.5q0 107 31.5 192.5t79.5 136.5t111 85t119 46.5t109 12.5q237 0 363 -176q8 62 -9.5 134.5
t-74.5 125.5l-150 -78l-84 166h-34q-176 0 -377 -100v379q47 24 170.5 47t253.5 23q180 0 340 -74l260 143zM633 309q68 0 110.5 53t42.5 132q0 74 -42.5 125t-110.5 51q-63 0 -109.5 -52t-46.5 -124q0 -77 45 -131t111 -54z" />
    <glyph glyph-name="ntilde" unicode="&#xf1;" horiz-adv-x="1314" 
d="M885 1137q-106 0 -205 57l-43 25q-4 2 -15.5 8.5t-16 9t-14.5 7t-17 6.5t-16.5 3.5t-18.5 1.5q-35 0 -53.5 -26.5t-18.5 -71.5h-266q-14 157 54.5 246.5t219.5 89.5q97 0 195 -59l47 -27q57 -33 98 -33q35 0 53.5 27t18.5 72h264q14 -155 -54 -245.5t-212 -90.5zM573 0
h-499v1034h477v-168q45 92 143 148.5t207 56.5q163 0 255.5 -100t92.5 -279v-692h-499v616q0 51 -25.5 78t-65.5 27q-38 0 -62 -27t-24 -78v-616z" />
    <glyph glyph-name="ograve" unicode="&#xf2;" horiz-adv-x="1339" 
d="M827 1159h-311l-270 316h479zM666 -37q-292 0 -461.5 148.5t-169.5 404.5q0 257 169.5 406t461.5 149q293 0 466 -150t173 -405t-172.5 -404t-466.5 -149zM668 274q59 0 86.5 58.5t27.5 187.5t-27.5 184.5t-86.5 55.5t-85 -55.5t-26 -184.5q0 -130 26 -188t85 -58z" />
    <glyph glyph-name="oacute" unicode="&#xf3;" horiz-adv-x="1339" 
d="M823 1159h-311l102 316h480zM666 -37q-292 0 -461.5 148.5t-169.5 404.5q0 257 169.5 406t461.5 149q293 0 466 -150t173 -405t-172.5 -404t-466.5 -149zM668 274q59 0 86.5 58.5t27.5 187.5t-27.5 184.5t-86.5 55.5t-85 -55.5t-26 -184.5q0 -130 26 -188t85 -58z" />
    <glyph glyph-name="ocircumflex" unicode="&#xf4;" horiz-adv-x="1339" 
d="M551 1159h-377l238 316h516l237 -316h-377l-118 152zM666 -37q-292 0 -461.5 148.5t-169.5 404.5q0 257 169.5 406t461.5 149q293 0 466 -150t173 -405t-172.5 -404t-466.5 -149zM668 274q59 0 86.5 58.5t27.5 187.5t-27.5 184.5t-86.5 55.5t-85 -55.5t-26 -184.5
q0 -130 26 -188t85 -58z" />
    <glyph glyph-name="otilde" unicode="&#xf5;" horiz-adv-x="1339" 
d="M879 1139q-106 0 -205 57l-43 25q-2 1 -15.5 8.5t-16.5 9t-14.5 7t-17.5 6.5t-16 3t-19 2q-34 0 -52.5 -26.5t-18.5 -71.5h-266q-14 157 54.5 246.5t219.5 89.5q97 0 195 -59l47 -27q57 -33 98 -33q35 0 53.5 27t18.5 72h264q14 -155 -54 -245.5t-212 -90.5zM666 -37
q-292 0 -461.5 148.5t-169.5 404.5q0 257 169.5 406t461.5 149q293 0 466 -150t173 -405t-172.5 -404t-466.5 -149zM668 274q59 0 86.5 58.5t27.5 187.5t-27.5 184.5t-86.5 55.5t-85 -55.5t-26 -184.5q0 -130 26 -188t85 -58z" />
    <glyph glyph-name="odieresis" unicode="&#xf6;" horiz-adv-x="1339" 
d="M610 1159h-407v316h407v-316zM1141 1159h-408v316h408v-316zM666 -37q-292 0 -461.5 148.5t-169.5 404.5q0 257 169.5 406t461.5 149q293 0 466 -150t173 -405t-172.5 -404t-466.5 -149zM668 274q59 0 86.5 58.5t27.5 187.5t-27.5 184.5t-86.5 55.5t-85 -55.5t-26 -184.5
q0 -130 26 -188t85 -58z" />
    <glyph glyph-name="divide" unicode="&#xf7;" horiz-adv-x="1204" 
d="M791 969h-375v342h375v-342zM1153 569h-1102v308h1102v-308zM791 135h-375v342h375v-342z" />
    <glyph glyph-name="oslash" unicode="&#xf8;" horiz-adv-x="1349" 
d="M672 -37q-223 0 -377 88l-131 -104l-166 198l113 88q-70 124 -70 283q0 257 169.5 406t461.5 149q224 0 383 -92l143 115l166 -195l-125 -98q72 -123 72 -285q0 -255 -172.5 -404t-466.5 -149zM545 580l112 90q40 32 103 80q-33 47 -92 47q-54 0 -88.5 -46.5
t-34.5 -134.5v-36zM680 233q55 0 90 46.5t35 136.5v37l-113 -88l-104 -80q25 -52 92 -52z" />
    <glyph glyph-name="ugrave" unicode="&#xf9;" horiz-adv-x="1310" 
d="M813 1159h-311l-271 316h480zM420 -37q-67 0 -129 22.5t-113 67t-81.5 119.5t-30.5 170v692h501v-612q0 -51 26 -80t64 -29q37 0 61.5 28.5t24.5 80.5v612h494v-1034h-471v139q-43 -69 -135 -122.5t-211 -53.5z" />
    <glyph glyph-name="uacute" unicode="&#xfa;" horiz-adv-x="1310" 
d="M809 1159h-311l102 316h479zM420 -37q-67 0 -129 22.5t-113 67t-81.5 119.5t-30.5 170v692h501v-612q0 -51 26 -80t64 -29q37 0 61.5 28.5t24.5 80.5v612h494v-1034h-471v139q-43 -69 -135 -122.5t-211 -53.5z" />
    <glyph glyph-name="ucircumflex" unicode="&#xfb;" horiz-adv-x="1310" 
d="M537 1159h-377l237 316h516l238 -316h-377l-119 152zM420 -37q-67 0 -129 22.5t-113 67t-81.5 119.5t-30.5 170v692h501v-612q0 -51 26 -80t64 -29q37 0 61.5 28.5t24.5 80.5v612h494v-1034h-471v139q-43 -69 -135 -122.5t-211 -53.5z" />
    <glyph glyph-name="udieresis" unicode="&#xfc;" horiz-adv-x="1310" 
d="M596 1159h-408v316h408v-316zM1126 1159h-407v316h407v-316zM420 -37q-67 0 -129 22.5t-113 67t-81.5 119.5t-30.5 170v692h501v-612q0 -51 26 -80t64 -29q37 0 61.5 28.5t24.5 80.5v612h494v-1034h-471v139q-43 -69 -135 -122.5t-211 -53.5z" />
    <glyph glyph-name="yacute" unicode="&#xfd;" horiz-adv-x="1275" 
d="M584 1475h479l-270 -316h-312zM788 883l50 151h454l-366 -1038q-30 -84 -60 -143.5t-70.5 -109.5t-91 -80t-118 -46t-154.5 -16h-346v348h311q35 0 53.5 18t30.5 60l6 20l-540 987h516l65 -147q56 -128 156 -336q67 217 104 332z" />
    <glyph glyph-name="thorn" unicode="&#xfe;" horiz-adv-x="1341" 
d="M557 -399h-485v1833h485v-414v-117q17 28 41 53.5t61.5 53.5t90.5 44.5t114 16.5q206 0 322.5 -151t116.5 -404q0 -250 -120 -401.5t-319 -151.5q-97 0 -178.5 45.5t-128.5 120.5v-131v-397zM672 274q123 0 123 240q0 124 -33 186t-90 62t-90 -62t-33 -186
q0 -240 123 -240z" />
    <glyph glyph-name="ydieresis" unicode="&#xff;" horiz-adv-x="1275" 
d="M172 1475h408v-316h-408v316zM702 1475h408v-316h-408v316zM788 883l50 151h454l-366 -1038q-30 -84 -60 -143.5t-70.5 -109.5t-91 -80t-118 -46t-154.5 -16h-346v348h311q35 0 53.5 18t30.5 60l6 20l-540 987h516l65 -147q56 -128 156 -336q67 217 104 332z" />
    <glyph glyph-name="Amacron" unicode="&#x100;" horiz-adv-x="1624" 
d="M385 1812h850v-253h-850v253zM1642 0h-567l-59 223h-451l-61 -223h-520l462 1434h728zM688 676l-22 -84h254l-23 88q-31 114 -98 393q-49 -169 -111 -397z" />
    <glyph glyph-name="amacron" unicode="&#x101;" horiz-adv-x="1300" 
d="M1001 1180h-708v254h708v-254zM408 -37q-180 0 -272.5 80t-92.5 229q0 170 175.5 271t496.5 114v33q0 101 -103 101q-54 0 -80.5 -27t-35.5 -88l-469 55q26 162 188 251t424 89q258 0 397.5 -109.5t139.5 -312.5v-256q0 -36 11 -50.5t38 -14.5h61v-328h-266
q-116 0 -173 36t-75 111q-19 -29 -49.5 -58.5t-75 -59t-107.5 -48t-132 -18.5zM586 252q56 0 92.5 42.5t36.5 113.5v57q-209 -18 -209 -137q0 -35 22 -55.5t58 -20.5z" />
    <glyph glyph-name="Abreve" unicode="&#x102;" horiz-adv-x="1624" 
d="M817 1513q-122 0 -217 28.5t-154 79.5t-91.5 115t-37.5 140h316q1 -13 10 -33t28 -44t57 -41t87 -17t86 16.5t55 41.5t26 44t9 33h316q-8 -77 -39 -140.5t-87.5 -114.5t-149.5 -79.5t-214 -28.5zM1642 0h-567l-59 223h-451l-61 -223h-520l462 1434h728zM688 676l-22 -84
h254l-23 88q-31 114 -98 393q-49 -169 -111 -397z" />
    <glyph glyph-name="abreve" unicode="&#x103;" horiz-adv-x="1300" 
d="M653 1130q-216 0 -330 97t-124 248h286q1 -13 9.5 -32t25.5 -42t51.5 -39t79.5 -16t78.5 16t49.5 39t23.5 41.5t8.5 32.5h287q-7 -73 -35 -133t-80 -108.5t-136 -76t-194 -27.5zM408 -37q-180 0 -272.5 80t-92.5 229q0 170 175.5 271t496.5 114v33q0 101 -103 101
q-54 0 -80.5 -27t-35.5 -88l-469 55q26 162 188 251t424 89q258 0 397.5 -109.5t139.5 -312.5v-256q0 -36 11 -50.5t38 -14.5h61v-328h-266q-116 0 -173 36t-75 111q-19 -29 -49.5 -58.5t-75 -59t-107.5 -48t-132 -18.5zM586 252q56 0 92.5 42.5t36.5 113.5v57
q-209 -18 -209 -137q0 -35 22 -55.5t58 -20.5z" />
    <glyph glyph-name="Aogonek" unicode="&#x104;" horiz-adv-x="1624" 
d="M1376 -123q0 -41 68 -41q85 0 198 47v-276q-70 -30 -123 -43t-124 -13t-127 20.5t-89 53.5t-50 71.5t-17 78.5q0 145 145 225h-182l-59 223h-451l-61 -223h-520l462 1434h728l468 -1434q-266 -70 -266 -123zM688 676l-22 -84h254l-23 88q-31 114 -98 393
q-49 -169 -111 -397z" />
    <glyph glyph-name="aogonek" unicode="&#x105;" horiz-adv-x="1300" 
d="M1225 328h61v-328h-2q-266 -70 -266 -123q0 -41 67 -41q86 0 199 47v-276q-70 -30 -123.5 -43t-124.5 -13t-127 20.5t-88.5 53.5t-49.5 71.5t-17 78.5q0 152 164 235q-121 25 -146 137q-19 -29 -49.5 -58.5t-75 -59t-107.5 -48t-132 -18.5q-180 0 -272.5 80t-92.5 229
q0 170 175.5 271t496.5 114v33q0 101 -103 101q-54 0 -80.5 -27t-35.5 -88l-469 55q26 162 188 251t424 89q258 0 397.5 -109.5t139.5 -312.5v-256q0 -36 11 -50.5t38 -14.5zM715 408v57q-209 -18 -209 -137q0 -35 22 -55.5t58 -20.5q56 0 92.5 42.5t36.5 113.5z" />
    <glyph glyph-name="Cacute" unicode="&#x106;" horiz-adv-x="1648" 
d="M1028 1559h-342l113 315h526zM858 -37q-375 0 -592 196.5t-217 542.5q0 226 99.5 400t284.5 271t429 97q289 0 494.5 -130t275.5 -357l-551 -164q-23 124 -78.5 183t-150.5 59q-106 0 -164.5 -92.5t-58.5 -263.5q0 -149 61.5 -241.5t159.5 -92.5q88 0 144 57t93 186
l547 -180q-66 -206 -279 -338.5t-497 -132.5z" />
    <glyph glyph-name="cacute" unicode="&#x107;" horiz-adv-x="1243" 
d="M807 1159h-311l102 316h479zM629 -37q-282 0 -438 146.5t-156 398.5q0 255 161 409t433 154q238 0 396 -105.5t196 -287.5l-467 -94q-7 85 -40.5 131.5t-86.5 46.5q-117 0 -117 -242q0 -248 117 -248q50 0 82.5 46t44.5 133l475 -60q-42 -211 -192 -319.5t-408 -108.5z
" />
    <glyph glyph-name="Ccircumflex" unicode="&#x108;" horiz-adv-x="1648" 
d="M729 1559h-414l263 315h567l260 -315h-414l-131 151zM858 -37q-375 0 -592 196.5t-217 542.5q0 226 99.5 400t284.5 271t429 97q289 0 494.5 -130t275.5 -357l-551 -164q-23 124 -78.5 183t-150.5 59q-106 0 -164.5 -92.5t-58.5 -263.5q0 -149 61.5 -241.5t159.5 -92.5
q88 0 144 57t93 186l547 -180q-66 -206 -279 -338.5t-497 -132.5z" />
    <glyph glyph-name="ccircumflex" unicode="&#x109;" horiz-adv-x="1243" 
d="M535 1159h-377l237 316h516l238 -316h-377l-119 152zM629 -37q-282 0 -438 146.5t-156 398.5q0 255 161 409t433 154q238 0 396 -105.5t196 -287.5l-467 -94q-7 85 -40.5 131.5t-86.5 46.5q-117 0 -117 -242q0 -248 117 -248q50 0 82.5 46t44.5 133l475 -60
q-42 -211 -192 -319.5t-408 -108.5z" />
    <glyph glyph-name="Cdotaccent" unicode="&#x10a;" horiz-adv-x="1648" 
d="M1067 1536h-410v358h410v-358zM858 -37q-375 0 -592 196.5t-217 542.5q0 226 99.5 400t284.5 271t429 97q289 0 494.5 -130t275.5 -357l-551 -164q-23 124 -78.5 183t-150.5 59q-106 0 -164.5 -92.5t-58.5 -263.5q0 -149 61.5 -241.5t159.5 -92.5q88 0 144 57t93 186
l547 -180q-66 -206 -279 -338.5t-497 -132.5z" />
    <glyph glyph-name="cdotaccent" unicode="&#x10b;" horiz-adv-x="1243" 
d="M858 1137h-409v358h409v-358zM629 -37q-282 0 -438 146.5t-156 398.5q0 255 161 409t433 154q238 0 396 -105.5t196 -287.5l-467 -94q-7 85 -40.5 131.5t-86.5 46.5q-117 0 -117 -242q0 -248 117 -248q50 0 82.5 46t44.5 133l475 -60q-42 -211 -192 -319.5t-408 -108.5z
" />
    <glyph glyph-name="Ccaron" unicode="&#x10c;" horiz-adv-x="1648" 
d="M993 1874h414l-262 -315h-567l-261 315h414l131 -152zM858 -37q-375 0 -592 196.5t-217 542.5q0 226 99.5 400t284.5 271t429 97q289 0 494.5 -130t275.5 -357l-551 -164q-23 124 -78.5 183t-150.5 59q-106 0 -164.5 -92.5t-58.5 -263.5q0 -149 61.5 -241.5t159.5 -92.5
q88 0 144 57t93 186l547 -180q-66 -206 -279 -338.5t-497 -132.5z" />
    <glyph glyph-name="ccaron" unicode="&#x10d;" horiz-adv-x="1243" 
d="M915 1159h-516l-237 316h377l118 -172l119 172h377zM629 -37q-282 0 -438 146.5t-156 398.5q0 255 161 409t433 154q238 0 396 -105.5t196 -287.5l-467 -94q-7 85 -40.5 131.5t-86.5 46.5q-117 0 -117 -242q0 -248 117 -248q50 0 82.5 46t44.5 133l475 -60
q-42 -211 -192 -319.5t-408 -108.5z" />
    <glyph glyph-name="Dcaron" unicode="&#x10e;" horiz-adv-x="1607" 
d="M831 1874h414l-262 -315h-567l-260 315h413l131 -152zM793 0h-695v1434h666q369 0 582 -191.5t213 -523.5q0 -159 -56 -293t-155.5 -227.5t-242.5 -146t-312 -52.5zM631 1034v-631h110q118 0 186 85.5t68 234.5q0 140 -70 225.5t-184 85.5h-110z" />
    <glyph glyph-name="dcaron" unicode="&#x10f;" horiz-adv-x="1685" 
d="M477 -37q-206 0 -322 151t-116 404q0 250 119.5 401.5t318.5 151.5q97 0 178.5 -45.5t128.5 -120.5v131v398h486v-1434h-486v131q-17 -28 -41 -53.5t-61.5 -53.5t-90.5 -44.5t-114 -16.5zM1561 748h-201l223 327h-223v359h414v-359zM670 272q57 0 90 62t33 186
q0 240 -123 240t-123 -240q0 -124 33 -186t90 -62z" />
    <glyph glyph-name="Dcroat" unicode="&#x110;" horiz-adv-x="1650" 
d="M141 1434h666q369 0 582 -191.5t213 -523.5q0 -159 -56 -293t-155.5 -227.5t-242.5 -146t-312 -52.5h-695v567h-121v297h121v570zM674 403h110q118 0 186 85.5t68 234.5q0 140 -70 225.5t-184 85.5h-110v-170h188v-297h-188v-164z" />
    <glyph glyph-name="dcroat" unicode="&#x111;" horiz-adv-x="1343" 
d="M1270 1307h139v-222h-139v-1085h-486v131q-17 -28 -41 -53.5t-61.5 -53.5t-90.5 -44.5t-114 -16.5q-206 0 -322 151t-116 404q0 250 119.5 401.5t318.5 151.5q97 0 178.5 -45.5t128.5 -120.5v131v49h-239v222h239v127h486v-127zM670 272q57 0 90 62t33 186
q0 240 -123 240t-123 -240q0 -124 33 -186t90 -62z" />
    <glyph glyph-name="Emacron" unicode="&#x112;" horiz-adv-x="1339" 
d="M1118 1559h-850v253h850v-253zM1264 0h-1166v1434h1166v-396h-654v-143h533v-348h-533v-150h654v-397z" />
    <glyph glyph-name="emacron" unicode="&#x113;" horiz-adv-x="1263" 
d="M985 1180h-709v254h709v-254zM633 -37q-286 0 -442 145.5t-156 415.5q0 243 165 395t429 152q315 0 467 -172t118 -467h-700q0 -164 117 -164q100 0 145 121l457 -110q-144 -316 -600 -316zM518 637h227q3 68 -27.5 108.5t-84.5 40.5q-112 0 -115 -149z" />
    <glyph glyph-name="Ebreve" unicode="&#x114;" horiz-adv-x="1339" 
d="M700 1513q-122 0 -217 28.5t-154 79.5t-91 115t-37 140h315q1 -13 10 -33t28 -44t57 -41t87 -17t86 16.5t55 41.5t26 44t9 33h316q-8 -77 -39 -140.5t-87.5 -114.5t-149.5 -79.5t-214 -28.5zM1264 0h-1166v1434h1166v-396h-654v-143h533v-348h-533v-150h654v-397z" />
    <glyph glyph-name="ebreve" unicode="&#x115;" horiz-adv-x="1263" 
d="M637 1130q-216 0 -330.5 97t-124.5 248h287q1 -13 9.5 -32t25.5 -42t51.5 -39t79.5 -16t78.5 16t49.5 39t23.5 41.5t8.5 32.5h286q-7 -73 -35 -133t-79.5 -108.5t-135.5 -76t-194 -27.5zM633 -37q-286 0 -442 145.5t-156 415.5q0 243 165 395t429 152q315 0 467 -172
t118 -467h-700q0 -164 117 -164q100 0 145 121l457 -110q-144 -316 -600 -316zM518 637h227q3 68 -27.5 108.5t-84.5 40.5q-112 0 -115 -149z" />
    <glyph glyph-name="Edotaccent" unicode="&#x116;" horiz-adv-x="1339" 
d="M899 1536h-410v358h410v-358zM1264 0h-1166v1434h1166v-396h-654v-143h533v-348h-533v-150h654v-397z" />
    <glyph glyph-name="edotaccent" unicode="&#x117;" horiz-adv-x="1263" 
d="M834 1137h-410v358h410v-358zM633 -37q-286 0 -442 145.5t-156 415.5q0 243 165 395t429 152q315 0 467 -172t118 -467h-700q0 -164 117 -164q100 0 145 121l457 -110q-144 -316 -600 -316zM518 637h227q3 68 -27.5 108.5t-84.5 40.5q-112 0 -115 -149z" />
    <glyph glyph-name="Eogonek" unicode="&#x118;" horiz-adv-x="1339" 
d="M1264 1434v-396h-654v-143h533v-348h-533v-150h654v-397q-267 -70 -267 -123q0 -41 68 -41q86 0 199 47v-276q-70 -30 -123.5 -43t-124.5 -13t-127 20.5t-89 53.5t-50 71.5t-17 78.5q0 144 146 225h-781v1434h1166z" />
    <glyph glyph-name="eogonek" unicode="&#x119;" horiz-adv-x="1263" 
d="M35 524q0 243 165 395t429 152q315 0 467 -172t118 -467h-700q0 -164 117 -164q100 0 145 121l457 -110q-56 -125 -162.5 -201.5t-275.5 -108.5q-179 -34 -179 -92q0 -41 68 -41q86 0 199 47v-276q-70 -30 -123.5 -43t-124.5 -13t-127 20.5t-89 53.5t-50 71.5t-17 78.5
q0 127 111 202q-206 40 -317 180.5t-111 366.5zM518 637h227q3 68 -27.5 108.5t-84.5 40.5q-112 0 -115 -149z" />
    <glyph glyph-name="Ecaron" unicode="&#x11a;" horiz-adv-x="1339" 
d="M825 1874h414l-262 -315h-567l-260 315h413l131 -152zM1264 0h-1166v1434h1166v-396h-654v-143h533v-348h-533v-150h654v-397z" />
    <glyph glyph-name="ecaron" unicode="&#x11b;" horiz-adv-x="1263" 
d="M891 1159h-516l-238 316h377l119 -172l119 172h376zM633 -37q-286 0 -442 145.5t-156 415.5q0 243 165 395t429 152q315 0 467 -172t118 -467h-700q0 -164 117 -164q100 0 145 121l457 -110q-144 -316 -600 -316zM518 637h227q3 68 -27.5 108.5t-84.5 40.5
q-112 0 -115 -149z" />
    <glyph glyph-name="Gcircumflex" unicode="&#x11c;" horiz-adv-x="1687" 
d="M762 1559h-414l262 315h568l260 -315h-414l-131 151zM702 -37q-144 0 -261.5 44.5t-205 133.5t-136 232t-48.5 329q0 131 32 246.5t98.5 211.5t162.5 165t230.5 107t295.5 38q140 0 258 -26.5t198 -68t141.5 -98t96 -112t54.5 -114.5l-539 -179q-25 81 -81.5 135
t-147.5 54q-110 0 -175 -98t-65 -273q0 -195 63.5 -286t188.5 -91q79 0 139.5 39t81.5 111h-264v338h785v-801h-471v154q-61 -82 -170 -136.5t-261 -54.5z" />
    <glyph glyph-name="gcircumflex" unicode="&#x11d;" horiz-adv-x="1431" 
d="M524 1159h-377l238 316h516l238 -316h-377l-119 152zM963 -399h-678q-128 0 -201.5 53t-73.5 153q0 65 37.5 119.5t106.5 89.5q-129 60 -129 193q0 72 48.5 139t141.5 117q-109 91 -109 231q0 97 43 171t118.5 117.5t170.5 65t207 21.5q176 0 300.5 -57t184.5 -166
q7 51 21 87t29.5 55t39.5 29t42.5 12.5t46.5 2.5h102v-338h-180q-31 0 -48 -16t-28 -49l-12 -35q-14 -38 -34.5 -72t-59.5 -70.5t-90 -62t-129 -42.5t-173 -17q-156 0 -260 53q-24 -36 -24 -61q0 -64 82 -64h503q201 0 305.5 -92t104.5 -231q0 -147 -107.5 -241.5
t-297.5 -94.5zM643 545q98 0 98 145q0 146 -98 146q-92 0 -92 -146q0 -145 92 -145zM471 -113h379q30 0 47.5 15.5t17.5 42.5q0 25 -19 40t-46 15h-442q-23 -30 -23 -53q0 -60 86 -60z" />
    <glyph glyph-name="Gbreve" unicode="&#x11e;" horiz-adv-x="1687" 
d="M901 1513q-122 0 -217 28.5t-154 79.5t-91.5 115t-37.5 140h316q1 -13 10 -33t28 -44t57 -41t87 -17t86 16.5t55 41.5t26 44t9 33h316q-8 -77 -39 -140.5t-87.5 -114.5t-149.5 -79.5t-214 -28.5zM702 -37q-144 0 -261.5 44.5t-205 133.5t-136 232t-48.5 329
q0 131 32 246.5t98.5 211.5t162.5 165t230.5 107t295.5 38q140 0 258 -26.5t198 -68t141.5 -98t96 -112t54.5 -114.5l-539 -179q-25 81 -81.5 135t-147.5 54q-110 0 -175 -98t-65 -273q0 -195 63.5 -286t188.5 -91q79 0 139.5 39t81.5 111h-264v338h785v-801h-471v154
q-61 -82 -170 -136.5t-261 -54.5z" />
    <glyph glyph-name="gbreve" unicode="&#x11f;" horiz-adv-x="1431" 
d="M651 1130q-216 0 -330 97t-124 248h286q1 -13 9.5 -32t25.5 -42t51.5 -39t79.5 -16t78.5 16t49.5 39t23.5 41.5t8.5 32.5h287q-7 -73 -35 -133t-80 -108.5t-136 -76t-194 -27.5zM963 -399h-678q-128 0 -201.5 53t-73.5 153q0 65 37.5 119.5t106.5 89.5q-129 60 -129 193
q0 72 48.5 139t141.5 117q-109 91 -109 231q0 97 43 171t118.5 117.5t170.5 65t207 21.5q176 0 300.5 -57t184.5 -166q7 51 21 87t29.5 55t39.5 29t42.5 12.5t46.5 2.5h102v-338h-180q-31 0 -48 -16t-28 -49l-12 -35q-14 -38 -34.5 -72t-59.5 -70.5t-90 -62t-129 -42.5
t-173 -17q-156 0 -260 53q-24 -36 -24 -61q0 -64 82 -64h503q201 0 305.5 -92t104.5 -231q0 -147 -107.5 -241.5t-297.5 -94.5zM643 545q98 0 98 145q0 146 -98 146q-92 0 -92 -146q0 -145 92 -145zM471 -113h379q30 0 47.5 15.5t17.5 42.5q0 25 -19 40t-46 15h-442
q-23 -30 -23 -53q0 -60 86 -60z" />
    <glyph glyph-name="Gdotaccent" unicode="&#x120;" horiz-adv-x="1687" 
d="M1100 1536h-410v358h410v-358zM702 -37q-144 0 -261.5 44.5t-205 133.5t-136 232t-48.5 329q0 131 32 246.5t98.5 211.5t162.5 165t230.5 107t295.5 38q140 0 258 -26.5t198 -68t141.5 -98t96 -112t54.5 -114.5l-539 -179q-25 81 -81.5 135t-147.5 54q-110 0 -175 -98
t-65 -273q0 -195 63.5 -286t188.5 -91q79 0 139.5 39t81.5 111h-264v338h785v-801h-471v154q-61 -82 -170 -136.5t-261 -54.5z" />
    <glyph glyph-name="gdotaccent" unicode="&#x121;" horiz-adv-x="1431" 
d="M848 1137h-410v358h410v-358zM963 -399h-678q-128 0 -201.5 53t-73.5 153q0 65 37.5 119.5t106.5 89.5q-129 60 -129 193q0 72 48.5 139t141.5 117q-109 91 -109 231q0 97 43 171t118.5 117.5t170.5 65t207 21.5q176 0 300.5 -57t184.5 -166q7 51 21 87t29.5 55t39.5 29
t42.5 12.5t46.5 2.5h102v-338h-180q-31 0 -48 -16t-28 -49l-12 -35q-14 -38 -34.5 -72t-59.5 -70.5t-90 -62t-129 -42.5t-173 -17q-156 0 -260 53q-24 -36 -24 -61q0 -64 82 -64h503q201 0 305.5 -92t104.5 -231q0 -147 -107.5 -241.5t-297.5 -94.5zM643 545q98 0 98 145
q0 146 -98 146q-92 0 -92 -146q0 -145 92 -145zM471 -113h379q30 0 47.5 15.5t17.5 42.5q0 25 -19 40t-46 15h-442q-23 -30 -23 -53q0 -60 86 -60z" />
    <glyph glyph-name="uni0122" unicode="&#x122;" horiz-adv-x="1687" 
d="M702 -37q-144 0 -261.5 44.5t-205 133.5t-136 232t-48.5 329q0 131 32 246.5t98.5 211.5t162.5 165t230.5 107t295.5 38q140 0 258 -26.5t198 -68t141.5 -98t96 -112t54.5 -114.5l-539 -179q-25 81 -81.5 135t-147.5 54q-110 0 -175 -98t-65 -273q0 -195 63.5 -286
t188.5 -91q79 0 139.5 39t81.5 111h-264v338h785v-801h-471v154q-61 -82 -170 -136.5t-261 -54.5zM928 -791h-201l223 328h-223v359h414v-359z" />
    <glyph glyph-name="uni0123" unicode="&#x123;" horiz-adv-x="1431" 
d="M657 1843h201l-223 -327h223v-359h-414v359zM963 -399h-678q-128 0 -201.5 53t-73.5 153q0 65 37.5 119.5t106.5 89.5q-129 60 -129 193q0 72 48.5 139t141.5 117q-109 91 -109 231q0 97 43 171t118.5 117.5t170.5 65t207 21.5q176 0 300.5 -57t184.5 -166q7 51 21 87
t29.5 55t39.5 29t42.5 12.5t46.5 2.5h102v-338h-180q-31 0 -48 -16t-28 -49l-12 -35q-14 -38 -34.5 -72t-59.5 -70.5t-90 -62t-129 -42.5t-173 -17q-156 0 -260 53q-24 -36 -24 -61q0 -64 82 -64h503q201 0 305.5 -92t104.5 -231q0 -147 -107.5 -241.5t-297.5 -94.5z
M643 545q98 0 98 145q0 146 -98 146q-92 0 -92 -146q0 -145 92 -145zM471 -113h379q30 0 47.5 15.5t17.5 42.5q0 25 -19 40t-46 15h-442q-23 -30 -23 -53q0 -60 86 -60z" />
    <glyph glyph-name="Hcircumflex" unicode="&#x124;" horiz-adv-x="1617" 
d="M686 1559h-414l263 315h567l260 -315h-414l-131 151zM641 0h-543v1434h543v-498h336v498h543v-1434h-543v526h-336v-526z" />
    <glyph glyph-name="hcircumflex" unicode="&#x125;" horiz-adv-x="1314" 
d="M559 1559h-377l238 315h516l238 -315h-377l-119 151zM573 0h-501v1434h479v-441v-127q41 83 134 144t214 61q156 0 253 -95t97 -284v-692h-501v616q0 48 -25 76.5t-64 28.5q-38 0 -62 -28.5t-24 -76.5v-616z" />
    <glyph glyph-name="Hbar" unicode="&#x126;" horiz-adv-x="1714" 
d="M1556 1292h140v-248h-140v-1044h-542v526h-336v-526h-543v1044h-119v248h119v142h543v-142h336v142h542v-142zM678 936h336v108h-336v-108z" />
    <glyph glyph-name="hbar" unicode="&#x127;" horiz-adv-x="1314" 
d="M899 1071q156 0 253 -95t97 -284v-692h-501v616q0 48 -25 76.5t-64 28.5q-38 0 -62 -28.5t-24 -76.5v-616h-501v1085h-129v222h129v127h479v-127h256v-222h-256v-92v-127q41 83 134 144t214 61z" />
    <glyph glyph-name="Itilde" unicode="&#x128;" horiz-adv-x="739" 
d="M586 1536q-111 0 -211 59l-45 25q-3 2 -13.5 7.5t-14.5 7.5l-13 6.5t-14.5 6.5t-14 4.5t-16 3.5t-15.5 1q-36 0 -54.5 -27t-18.5 -74h-277q-14 160 57 250t228 90q98 0 201 -59l49 -27q55 -32 100 -32q36 0 55 26.5t19 71.5h274q14 -157 -56 -248.5t-220 -91.5zM641 0
h-543v1434h543v-1434z" />
    <glyph glyph-name="itilde" unicode="&#x129;" horiz-adv-x="649" 
d="M535 1139q-106 0 -205 57l-43 25q-2 1 -15.5 8.5t-16.5 9t-14.5 7t-17.5 6.5t-16 3t-19 2q-34 0 -52.5 -26.5t-18.5 -71.5h-267q-14 157 55 246.5t220 89.5q96 0 194 -59l48 -27q57 -33 98 -33q35 0 53.5 27t18.5 72h264q14 -155 -54 -245.5t-212 -90.5zM575 0h-501v1034
h501v-1034z" />
    <glyph glyph-name="Imacron" unicode="&#x12a;" horiz-adv-x="739" 
d="M795 1559h-850v253h850v-253zM641 0h-543v1434h543v-1434z" />
    <glyph glyph-name="imacron" unicode="&#x12b;" horiz-adv-x="649" 
d="M682 1180h-709v254h709v-254zM575 0h-501v1034h501v-1034z" />
    <glyph glyph-name="Ibreve" unicode="&#x12c;" horiz-adv-x="739" 
d="M377 1513q-122 0 -217 28.5t-154 79.5t-91.5 115t-37.5 140h316q1 -13 10 -33t28 -44t57 -41t87 -17t86 16.5t55 41.5t26 44t9 33h315q-8 -77 -38.5 -140.5t-87.5 -114.5t-149.5 -79.5t-213.5 -28.5zM641 0h-543v1434h543v-1434z" />
    <glyph glyph-name="ibreve" unicode="&#x12d;" horiz-adv-x="649" 
d="M334 1130q-216 0 -330.5 97t-124.5 248h287q1 -13 9.5 -32t25.5 -42t51.5 -39t79.5 -16t78.5 16t49.5 39t23.5 41.5t8.5 32.5h286q-7 -73 -35 -133t-79.5 -108.5t-135.5 -76t-194 -27.5zM575 0h-501v1034h501v-1034z" />
    <glyph glyph-name="Iogonek" unicode="&#x12e;" horiz-adv-x="739" 
d="M641 1434v-1434q-266 -70 -266 -123q0 -41 67 -41q86 0 199 47v-276q-70 -30 -123.5 -43t-124.5 -13t-127 20.5t-88.5 53.5t-49.5 71.5t-17 78.5q0 145 145 225h-158v1434h543z" />
    <glyph glyph-name="iogonek" unicode="&#x12f;" horiz-adv-x="649" 
d="M76 1137v358h499v-358h-499zM190 0h-116v1034h501v-1034q-266 -70 -266 -123q0 -41 68 -41q85 0 198 47v-276q-70 -30 -123 -43t-124 -13t-127 20.5t-89 53.5t-50 71.5t-17 78.5q0 145 145 225z" />
    <glyph glyph-name="Idotaccent" unicode="&#x130;" horiz-adv-x="739" 
d="M643 1536h-545v358h545v-358zM641 0h-543v1434h543v-1434z" />
    <glyph glyph-name="dotlessi" unicode="&#x131;" horiz-adv-x="649" 
d="M575 0h-501v1034h501v-1034z" />
    <glyph glyph-name="IJ" unicode="&#x132;" horiz-adv-x="2117" 
d="M641 0h-543v1434h543v-1434zM1427 -37q-175 0 -302 44.5t-202.5 129.5t-110.5 197.5t-36 259.5l488 111q-2 -89 3 -150t19 -109.5t42 -72t71 -23.5q51 0 79.5 34t28.5 103v947h527v-828q0 -118 -17.5 -212t-60.5 -176.5t-111.5 -137.5t-174 -86t-243.5 -31z" />
    <glyph glyph-name="ij" unicode="&#x133;" horiz-adv-x="1294" 
d="M575 1137h-503v358h503v-358zM1229 1137h-504v358h504v-358zM575 0h-501v1034h501v-1034zM850 -399h-283v327h127q45 0 45 70v1036h482v-1046q0 -176 -94 -281.5t-277 -105.5z" />
    <glyph glyph-name="Jcircumflex" unicode="&#x134;" horiz-adv-x="1353" 
d="M881 1559h-414l262 315h567l260 -315h-413l-131 151zM664 -37q-175 0 -302 44.5t-202.5 129.5t-111 197.5t-36.5 259.5l488 111q-2 -89 3 -150t19 -109.5t42 -72t71 -23.5q51 0 79.5 34t28.5 103v947h527v-828q0 -118 -17.5 -212t-60.5 -176.5t-111 -137.5t-173.5 -86
t-243.5 -31z" />
    <glyph glyph-name="jcircumflex" unicode="&#x135;" horiz-adv-x="645" 
d="M215 1159h-377l238 316h516l237 -316h-376l-119 152zM201 -399h-283v327h127q45 0 45 70v1036h481v-1046q0 -176 -93.5 -281.5t-276.5 -105.5z" />
    <glyph glyph-name="uni0136" unicode="&#x136;" horiz-adv-x="1624" 
d="M1634 1434l-526 -566l569 -868h-626l-326 561l-115 -119v-442h-512v1434h512v-119v-350l404 469h620zM848 -463h-223v359h413v-359l-213 -328h-200z" />
    <glyph glyph-name="uni0137" unicode="&#x137;" horiz-adv-x="1421" 
d="M647 393l-100 -94v-299h-475v1434h475v-199v-510l317 309h580l-428 -383l452 -651h-573zM737 -463h-223v359h414v-359l-213 -328h-201z" />
    <glyph glyph-name="Lacute" unicode="&#x139;" horiz-adv-x="1318" 
d="M524 1559h-342l113 315h526zM1292 0h-1194v1434h543v-1024h651v-410z" />
    <glyph glyph-name="lacute" unicode="&#x13a;" horiz-adv-x="634" 
d="M471 1559h-311l102 315h479zM561 0h-487v1434h487v-1434z" />
    <glyph glyph-name="uni013B" unicode="&#x13b;" horiz-adv-x="1318" 
d="M1292 0h-1194v1434h543v-1024h651v-410zM711 -791h-201l223 328h-223v359h414v-359z" />
    <glyph glyph-name="uni013C" unicode="&#x13c;" horiz-adv-x="634" 
d="M561 0h-487v1434h487v-1434zM311 -791h-200l223 328h-223v359h413v-359z" />
    <glyph glyph-name="Lcaron" unicode="&#x13d;" horiz-adv-x="1361" 
d="M985 680h-221l246 360h-246v396h457v-396zM1292 0h-1194v1434h543v-1024h651v-410z" />
    <glyph glyph-name="lcaron" unicode="&#x13e;" horiz-adv-x="970" 
d="M561 0h-487v1434h487v-1434zM846 748h-201l223 327h-223v359h414v-359z" />
    <glyph glyph-name="Ldot" unicode="&#x13f;" horiz-adv-x="1368" 
d="M1292 0h-1194v1434h543v-1024h651v-410zM1300 610h-505v439h505v-439z" />
    <glyph glyph-name="ldot" unicode="&#x140;" horiz-adv-x="1153" 
d="M561 0h-487v1434h487v-1434zM1147 551h-506v438h506v-438z" />
    <glyph glyph-name="Lslash" unicode="&#x141;" horiz-adv-x="1419" 
d="M739 678v-268h652v-410h-1194v446l-148 -63v344l148 61v646h542v-416l424 178v-336z" />
    <glyph glyph-name="lslash" unicode="&#x142;" horiz-adv-x="860" 
d="M670 1057l153 96v-356l-153 -99v-698h-488v387l-139 -90v365l139 88v684h488v-377z" />
    <glyph glyph-name="Nacute" unicode="&#x143;" horiz-adv-x="1736" 
d="M1034 1559h-342l113 315h526zM600 0h-502v1434h672l367 -727v376v351h501v-1434h-579l-459 915v-417v-498z" />
    <glyph glyph-name="nacute" unicode="&#x144;" horiz-adv-x="1314" 
d="M829 1157h-311l103 316h479zM573 0h-499v1034h477v-168q45 92 143 148.5t207 56.5q163 0 255.5 -100t92.5 -279v-692h-499v616q0 51 -25.5 78t-65.5 27q-38 0 -62 -27t-24 -78v-616z" />
    <glyph glyph-name="uni0145" unicode="&#x145;" horiz-adv-x="1736" 
d="M600 0h-502v1434h672l367 -727v376v351h501v-1434h-579l-459 915v-417v-498zM891 -791h-201l223 328h-223v359h414v-359z" />
    <glyph glyph-name="uni0146" unicode="&#x146;" horiz-adv-x="1314" 
d="M573 0h-499v1034h477v-168q45 92 143 148.5t207 56.5q163 0 255.5 -100t92.5 -279v-692h-499v616q0 51 -25.5 78t-65.5 27q-38 0 -62 -27t-24 -78v-616zM655 -791h-200l223 328h-223v359h413v-359z" />
    <glyph glyph-name="Ncaron" unicode="&#x147;" horiz-adv-x="1736" 
d="M999 1874h414l-262 -315h-567l-260 315h413l131 -152zM600 0h-502v1434h672l367 -727v376v351h501v-1434h-579l-459 915v-417v-498z" />
    <glyph glyph-name="ncaron" unicode="&#x148;" horiz-adv-x="1314" 
d="M938 1157h-516l-238 316h377l119 -173l119 173h377zM573 0h-499v1034h477v-168q45 92 143 148.5t207 56.5q163 0 255.5 -100t92.5 -279v-692h-499v616q0 51 -25.5 78t-65.5 27q-38 0 -62 -27t-24 -78v-616z" />
    <glyph glyph-name="Eng" unicode="&#x14a;" horiz-adv-x="1736" 
d="M1225 -399h-371v362h211q74 0 74 80v72l-539 794v-84v-325v-500h-502v1434h631l410 -600v61v197v342h499v-1446q0 -92 -19.5 -159.5t-65 -120.5t-127.5 -80t-201 -27z" />
    <glyph glyph-name="eng" unicode="&#x14b;" horiz-adv-x="1314" 
d="M893 -399h-303v333h86q40 0 57 26t17 87v569q0 51 -25.5 78t-65.5 27q-38 0 -62 -27t-24 -78v-616h-499v1034h477v-168q45 92 143 148.5t207 56.5q163 0 255.5 -100t92.5 -279v-692q0 -184 -87.5 -291.5t-268.5 -107.5z" />
    <glyph glyph-name="Omacron" unicode="&#x14c;" horiz-adv-x="1757" 
d="M1296 1559h-850v253h850v-253zM879 -37q-177 0 -319 40.5t-236.5 109t-157 164.5t-90 203t-27.5 227q0 121 27.5 229t90.5 207t156.5 170.5t236 114t319.5 42.5t319 -42.5t236 -114t157 -170.5t90 -207t27 -229t-27.5 -227.5t-90 -202.5t-156.5 -164.5t-236 -109
t-319 -40.5zM879 373q127 0 191.5 86t64.5 248q0 164 -65 259t-191 95t-191 -95t-65 -259q0 -162 64.5 -248t191.5 -86z" />
    <glyph glyph-name="omacron" unicode="&#x14d;" horiz-adv-x="1339" 
d="M1026 1180h-709v254h709v-254zM666 -37q-292 0 -461.5 148.5t-169.5 404.5q0 257 169.5 406t461.5 149q293 0 466 -150t173 -405t-172.5 -404t-466.5 -149zM668 274q59 0 86.5 58.5t27.5 187.5t-27.5 184.5t-86.5 55.5t-85 -55.5t-26 -184.5q0 -130 26 -188t85 -58z" />
    <glyph glyph-name="Obreve" unicode="&#x14e;" horiz-adv-x="1757" 
d="M879 1513q-122 0 -217 28.5t-154 79.5t-91.5 115t-37.5 140h315q1 -13 10.5 -33t28.5 -44t57 -41t87 -17t86 16.5t55 41.5t26 44t9 33h315q-8 -77 -38.5 -140.5t-87.5 -114.5t-149.5 -79.5t-213.5 -28.5zM879 -37q-177 0 -319 40.5t-236.5 109t-157 164.5t-90 203
t-27.5 227q0 121 27.5 229t90.5 207t156.5 170.5t236 114t319.5 42.5t319 -42.5t236 -114t157 -170.5t90 -207t27 -229t-27.5 -227.5t-90 -202.5t-156.5 -164.5t-236 -109t-319 -40.5zM879 373q127 0 191.5 86t64.5 248q0 164 -65 259t-191 95t-191 -95t-65 -259
q0 -162 64.5 -248t191.5 -86z" />
    <glyph glyph-name="obreve" unicode="&#x14f;" horiz-adv-x="1339" 
d="M678 1130q-216 0 -330.5 97t-124.5 248h287q1 -13 9.5 -32t25.5 -42t51.5 -39t79.5 -16t78.5 16t49.5 39t23.5 41.5t8.5 32.5h286q-7 -73 -35 -133t-79.5 -108.5t-135.5 -76t-194 -27.5zM666 -37q-292 0 -461.5 148.5t-169.5 404.5q0 257 169.5 406t461.5 149
q293 0 466 -150t173 -405t-172.5 -404t-466.5 -149zM668 274q59 0 86.5 58.5t27.5 187.5t-27.5 184.5t-86.5 55.5t-85 -55.5t-26 -184.5q0 -130 26 -188t85 -58z" />
    <glyph glyph-name="Ohungarumlaut" unicode="&#x150;" horiz-adv-x="1757" 
d="M731 1559h-342l113 315h526zM1294 1559h-342l113 315h526zM879 -37q-177 0 -319 40.5t-236.5 109t-157 164.5t-90 203t-27.5 227q0 121 27.5 229t90.5 207t156.5 170.5t236 114t319.5 42.5t319 -42.5t236 -114t157 -170.5t90 -207t27 -229t-27.5 -227.5t-90 -202.5
t-156.5 -164.5t-236 -109t-319 -40.5zM879 373q127 0 191.5 86t64.5 248q0 164 -65 259t-191 95t-191 -95t-65 -259q0 -162 64.5 -248t191.5 -86z" />
    <glyph glyph-name="ohungarumlaut" unicode="&#x151;" horiz-adv-x="1339" 
d="M537 1159h-312l103 316h479zM1049 1159h-312l103 316h479zM666 -37q-292 0 -461.5 148.5t-169.5 404.5q0 257 169.5 406t461.5 149q293 0 466 -150t173 -405t-172.5 -404t-466.5 -149zM668 274q59 0 86.5 58.5t27.5 187.5t-27.5 184.5t-86.5 55.5t-85 -55.5t-26 -184.5
q0 -130 26 -188t85 -58z" />
    <glyph glyph-name="OE" unicode="&#x152;" horiz-adv-x="2365" 
d="M721 -37q-142 0 -256.5 40.5t-190.5 109t-126.5 164.5t-72.5 203t-22 227q0 121 22 229t73 207t126.5 170.5t190 114t256.5 42.5q290 0 463 -170v134h1106v-402h-643v-133h522v-358h-522v-142h643v-399h-1106v127q-170 -164 -463 -164zM883 373q127 0 191.5 86t64.5 248
q0 164 -65 259t-191 95t-191 -95t-65 -259q0 -162 64.5 -248t191.5 -86z" />
    <glyph glyph-name="oe" unicode="&#x153;" horiz-adv-x="2035" 
d="M629 -37q-261 0 -427.5 149.5t-166.5 401.5q0 167 77 295t210 195t301 67q134 0 242.5 -42.5t174.5 -110.5q70 68 175 109.5t223 41.5q145 0 258.5 -47.5t183 -131t97.5 -198.5t10 -250h-701q0 -174 117 -174q100 0 145 121l453 -110q-65 -148 -204 -232t-343 -84
q-288 0 -422 143q-153 -143 -403 -143zM1290 637h228q3 67 -28 108t-85 41q-112 0 -115 -149zM668 272q59 0 86.5 59t27.5 189q0 129 -27.5 184.5t-86.5 55.5t-85 -55.5t-26 -184.5q0 -131 26.5 -189.5t84.5 -58.5z" />
    <glyph glyph-name="Racute" unicode="&#x154;" horiz-adv-x="1564" 
d="M885 1559h-342l112 315h527zM621 0h-523v1434h820q260 0 409.5 -111.5t149.5 -304.5q0 -153 -106 -254t-277 -123q116 -13 184.5 -49.5t107 -101t70.5 -181.5l84 -309h-563l-78 356q-18 80 -44.5 110t-88.5 30h-145v-496zM621 1049v-226h180q61 0 98 32t37 81
q0 52 -35.5 82.5t-99.5 30.5h-180z" />
    <glyph glyph-name="racute" unicode="&#x155;" horiz-adv-x="1024" 
d="M655 1159h-311l102 316h480zM575 0h-501v1034h481v-295q87 328 330 328q63 0 119 -12v-441q-97 19 -166 19q-135 0 -199 -70.5t-64 -195.5v-367z" />
    <glyph glyph-name="uni0156" unicode="&#x156;" horiz-adv-x="1564" 
d="M621 0h-523v1434h820q260 0 409.5 -111.5t149.5 -304.5q0 -153 -106 -254t-277 -123q116 -13 184.5 -49.5t107 -101t70.5 -181.5l84 -309h-563l-78 356q-18 80 -44.5 110t-88.5 30h-145v-496zM621 1049v-226h180q61 0 98 32t37 81q0 52 -35.5 82.5t-99.5 30.5h-180z
M772 -791h-201l224 328h-224v359h414v-359z" />
    <glyph glyph-name="uni0157" unicode="&#x157;" horiz-adv-x="1024" 
d="M575 0h-501v1034h481v-295q87 328 330 328q63 0 119 -12v-441q-97 19 -166 19q-135 0 -199 -70.5t-64 -195.5v-367zM319 -791h-200l223 328h-223v359h413v-359z" />
    <glyph glyph-name="Rcaron" unicode="&#x158;" horiz-adv-x="1564" 
d="M850 1874h414l-263 -315h-567l-260 315h414l131 -152zM621 0h-523v1434h820q260 0 409.5 -111.5t149.5 -304.5q0 -153 -106 -254t-277 -123q116 -13 184.5 -49.5t107 -101t70.5 -181.5l84 -309h-563l-78 356q-18 80 -44.5 110t-88.5 30h-145v-496zM621 1049v-226h180
q61 0 98 32t37 81q0 52 -35.5 82.5t-99.5 30.5h-180z" />
    <glyph glyph-name="rcaron" unicode="&#x159;" horiz-adv-x="1024" 
d="M764 1159h-516l-238 316h377l119 -172l119 172h376zM575 0h-501v1034h481v-295q87 328 330 328q63 0 119 -12v-441q-97 19 -166 19q-135 0 -199 -70.5t-64 -195.5v-367z" />
    <glyph glyph-name="Sacute" unicode="&#x15a;" horiz-adv-x="1540" 
d="M965 1559h-342l112 315h527zM758 -37q-326 0 -515 115t-223 323l549 101q12 -83 63 -127.5t136 -44.5q81 0 120.5 26.5t39.5 71.5q0 39 -30.5 65.5t-86.5 32.5l-178 21q-295 33 -419 138.5t-124 313.5q0 212 188.5 341.5t497.5 129.5q295 0 480 -106.5t223 -304.5
l-553 -90q-16 64 -62 102.5t-114 38.5q-60 0 -97 -24.5t-37 -65.5q0 -45 32.5 -68.5t103.5 -31.5l182 -19q268 -28 412.5 -147.5t144.5 -309.5q0 -226 -193.5 -353.5t-539.5 -127.5z" />
    <glyph glyph-name="sacute" unicode="&#x15b;" horiz-adv-x="1196" 
d="M772 1159h-311l102 316h479zM584 -37q-127 0 -227.5 22.5t-161 56t-102 81t-58.5 90t-23 88.5l453 35q7 -105 123 -105q106 0 106 66q0 31 -25.5 48t-80.5 26l-115 20q-220 38 -315 110.5t-95 223.5q0 147 135.5 246.5t395.5 99.5q116 0 208 -18t149.5 -46.5t98 -68.5
t59.5 -79t26 -83l-451 -57q-16 96 -117 96q-80 0 -80 -59q0 -28 28 -42.5t95 -25.5l154 -24q198 -32 298.5 -118.5t100.5 -223.5q0 -164 -145 -261.5t-434 -97.5z" />
    <glyph glyph-name="Scircumflex" unicode="&#x15c;" horiz-adv-x="1540" 
d="M666 1559h-414l262 315h567l260 -315h-413l-131 151zM758 -37q-326 0 -515 115t-223 323l549 101q12 -83 63 -127.5t136 -44.5q81 0 120.5 26.5t39.5 71.5q0 39 -30.5 65.5t-86.5 32.5l-178 21q-295 33 -419 138.5t-124 313.5q0 212 188.5 341.5t497.5 129.5
q295 0 480 -106.5t223 -304.5l-553 -90q-16 64 -62 102.5t-114 38.5q-60 0 -97 -24.5t-37 -65.5q0 -45 32.5 -68.5t103.5 -31.5l182 -19q268 -28 412.5 -147.5t144.5 -309.5q0 -226 -193.5 -353.5t-539.5 -127.5z" />
    <glyph glyph-name="scircumflex" unicode="&#x15d;" horiz-adv-x="1196" 
d="M500 1159h-377l237 316h517l237 -316h-377l-119 152zM584 -37q-127 0 -227.5 22.5t-161 56t-102 81t-58.5 90t-23 88.5l453 35q7 -105 123 -105q106 0 106 66q0 31 -25.5 48t-80.5 26l-115 20q-220 38 -315 110.5t-95 223.5q0 147 135.5 246.5t395.5 99.5q116 0 208 -18
t149.5 -46.5t98 -68.5t59.5 -79t26 -83l-451 -57q-16 96 -117 96q-80 0 -80 -59q0 -28 28 -42.5t95 -25.5l154 -24q198 -32 298.5 -118.5t100.5 -223.5q0 -164 -145 -261.5t-434 -97.5z" />
    <glyph glyph-name="Scedilla" unicode="&#x15e;" horiz-adv-x="1540" 
d="M940 -27l-8 -8q-2 -1 -68 -59q38 0 56 -2q83 -11 138.5 -63t55.5 -136q0 -98 -84.5 -166.5t-245.5 -68.5q-64 0 -122 16.5t-97.5 42t-63.5 47t-38 39.5l158 166q1 -1 8 -8.5t12.5 -12.5t15 -13.5t20 -15t23 -12.5t27 -9t29.5 -3q44 0 61 15t17 34q0 17 -16.5 31t-47.5 14
q-35 0 -59 -8l-70 94l76 76q-309 7 -486.5 122t-210.5 316l549 101q12 -83 63 -127.5t136 -44.5q81 0 120.5 26.5t39.5 71.5q0 39 -30.5 65.5t-86.5 32.5l-178 21q-295 33 -419 138.5t-124 313.5q0 212 188.5 341.5t497.5 129.5q295 0 480 -106.5t223 -304.5l-553 -90
q-16 64 -62 102.5t-114 38.5q-60 0 -97 -24.5t-37 -65.5q0 -45 32.5 -68.5t103.5 -31.5l182 -19q268 -28 412.5 -147.5t144.5 -309.5q0 -193 -144 -316t-407 -155z" />
    <glyph glyph-name="scedilla" unicode="&#x15f;" horiz-adv-x="1196" 
d="M748 -27l-5 -4l-61 -55q33 0 49 -2q76 -10 127 -57t51 -123q0 -89 -76.5 -151t-224.5 -62q-108 0 -184.5 44.5t-106.5 86.5l144 151q57 -67 123 -67q39 0 54 14t15 31q0 16 -14.5 28.5t-42.5 12.5q-33 0 -53 -8l-64 86l66 65q-99 3 -180.5 19.5t-137 43.5t-96.5 59.5
t-65 71t-36.5 73t-17.5 71.5l453 35q7 -105 123 -105q106 0 106 66q0 31 -25.5 48t-80.5 26l-115 20q-220 38 -315 110.5t-95 223.5q0 147 135.5 246.5t395.5 99.5q116 0 208 -18t149.5 -46.5t98 -68.5t59.5 -79t26 -83l-451 -57q-16 96 -117 96q-80 0 -80 -59
q0 -28 28 -42.5t95 -25.5l154 -24q198 -32 298.5 -118.5t100.5 -223.5q0 -139 -103.5 -231.5t-311.5 -117.5z" />
    <glyph glyph-name="Scaron" unicode="&#x160;" horiz-adv-x="1540" 
d="M930 1874h413l-262 -315h-567l-260 315h414l131 -152zM758 -37q-326 0 -515 115t-223 323l549 101q12 -83 63 -127.5t136 -44.5q81 0 120.5 26.5t39.5 71.5q0 39 -30.5 65.5t-86.5 32.5l-178 21q-295 33 -419 138.5t-124 313.5q0 212 188.5 341.5t497.5 129.5
q295 0 480 -106.5t223 -304.5l-553 -90q-16 64 -62 102.5t-114 38.5q-60 0 -97 -24.5t-37 -65.5q0 -45 32.5 -68.5t103.5 -31.5l182 -19q268 -28 412.5 -147.5t144.5 -309.5q0 -226 -193.5 -353.5t-539.5 -127.5z" />
    <glyph glyph-name="scaron" unicode="&#x161;" horiz-adv-x="1196" 
d="M881 1159h-516l-238 316h377l119 -172l118 172h377zM584 -37q-127 0 -227.5 22.5t-161 56t-102 81t-58.5 90t-23 88.5l453 35q7 -105 123 -105q106 0 106 66q0 31 -25.5 48t-80.5 26l-115 20q-220 38 -315 110.5t-95 223.5q0 147 135.5 246.5t395.5 99.5q116 0 208 -18
t149.5 -46.5t98 -68.5t59.5 -79t26 -83l-451 -57q-16 96 -117 96q-80 0 -80 -59q0 -28 28 -42.5t95 -25.5l154 -24q198 -32 298.5 -118.5t100.5 -223.5q0 -164 -145 -261.5t-434 -97.5z" />
    <glyph glyph-name="uni0162" unicode="&#x162;" horiz-adv-x="1411" 
d="M977 1065v-1065l-82 -35l-119 -51q33 0 49 -2q77 -10 128 -57t51 -123q0 -89 -77 -151t-225 -62q-58 0 -110.5 15t-88.5 38t-57.5 42.5t-33.5 35.5l143 151q57 -67 123 -67q39 0 54.5 13.5t15.5 29.5t-16.5 29.5t-47.5 13.5q-23 0 -47 -8l-70 125l131 63h-264v1065h-409
v369h1361v-369h-409z" />
    <glyph glyph-name="uni0163" unicode="&#x163;" horiz-adv-x="968" 
d="M944 0h-256l-33 -31l-61 -55q33 0 49 -2q76 -10 127 -57t51 -123q0 -89 -76.5 -151t-224.5 -62q-108 0 -184.5 44.5t-106.5 86.5l144 151q57 -67 123 -67q39 0 54 14t15 31q0 16 -14.5 28.5t-42.5 12.5q-33 0 -53 -8l-64 86l105 104q-295 27 -295 346v379h-189v307h189
v307h481v-307h207v-307h-207v-317q0 -62 61 -62h201v-348z" />
    <glyph glyph-name="Tcaron" unicode="&#x164;" horiz-adv-x="1411" 
d="M838 1874h413l-262 -315h-567l-260 315h413l132 -152zM977 0h-543v1065h-409v369h1361v-369h-409v-1065z" />
    <glyph glyph-name="tcaron" unicode="&#x165;" horiz-adv-x="968" 
d="M920 1118h-201l223 328h-223v358h414v-358zM944 0h-395q-172 0 -260 88t-88 260v379h-189v307h189v307h481v-307h207v-307h-207v-317q0 -62 61 -62h201v-348z" />
    <glyph glyph-name="Tbar" unicode="&#x166;" horiz-adv-x="1425" 
d="M1395 1434v-369h-410v-205h217v-311h-217v-549h-543v549h-221v311h221v205h-409v369h1362z" />
    <glyph glyph-name="tbar" unicode="&#x167;" horiz-adv-x="983" 
d="M758 348h200v-348h-395q-172 0 -260 88t-88 260v96h-188v222h188v61h-188v307h188v307h481v-307h207v-307h-207v-61h209v-222h-209v-34q0 -62 62 -62z" />
    <glyph glyph-name="Utilde" unicode="&#x168;" horiz-adv-x="1601" 
d="M1016 1536q-111 0 -211 59l-45 25q-3 2 -13.5 7.5t-14.5 7.5l-13 6.5t-14.5 6.5t-14 4.5t-16 3.5t-15.5 1q-36 0 -54.5 -27t-18.5 -74h-277q-14 160 57 250t228 90q98 0 201 -59l49 -27q55 -32 100 -32q36 0 55 26.5t19 71.5h274q14 -157 -56 -248.5t-220 -91.5zM801 -37
q-366 0 -541.5 160.5t-175.5 507.5v803h534v-750q0 -159 42 -225t139 -66t137.5 66t40.5 225v750h541v-803q0 -347 -175.5 -507.5t-541.5 -160.5z" />
    <glyph glyph-name="utilde" unicode="&#x169;" horiz-adv-x="1310" 
d="M864 1139q-106 0 -205 57l-43 25q-4 2 -15.5 8.5t-16 9t-14.5 7t-17 6.5t-16.5 3.5t-18.5 1.5q-35 0 -53.5 -26.5t-18.5 -71.5h-266q-14 157 55 246.5t220 89.5q96 0 194 -59l47 -27q57 -33 99 -33q34 0 52.5 27t18.5 72h264q14 -155 -54 -245.5t-212 -90.5zM420 -37
q-67 0 -129 22.5t-113 67t-81.5 119.5t-30.5 170v692h501v-612q0 -51 26 -80t64 -29q37 0 61.5 28.5t24.5 80.5v612h494v-1034h-471v139q-43 -69 -135 -122.5t-211 -53.5z" />
    <glyph glyph-name="Umacron" unicode="&#x16a;" horiz-adv-x="1601" 
d="M1225 1559h-850v253h850v-253zM801 -37q-366 0 -541.5 160.5t-175.5 507.5v803h534v-750q0 -159 42 -225t139 -66t137.5 66t40.5 225v750h541v-803q0 -347 -175.5 -507.5t-541.5 -160.5z" />
    <glyph glyph-name="umacron" unicode="&#x16b;" horiz-adv-x="1310" 
d="M1012 1180h-709v254h709v-254zM420 -37q-67 0 -129 22.5t-113 67t-81.5 119.5t-30.5 170v692h501v-612q0 -51 26 -80t64 -29q37 0 61.5 28.5t24.5 80.5v612h494v-1034h-471v139q-43 -69 -135 -122.5t-211 -53.5z" />
    <glyph glyph-name="Ubreve" unicode="&#x16c;" horiz-adv-x="1601" 
d="M807 1513q-122 0 -217 28.5t-154 79.5t-91.5 115t-37.5 140h316q1 -13 10 -33t28 -44t57 -41t87 -17t86 16.5t55 41.5t26 44t9 33h315q-8 -77 -38.5 -140.5t-87.5 -114.5t-149.5 -79.5t-213.5 -28.5zM801 -37q-366 0 -541.5 160.5t-175.5 507.5v803h534v-750
q0 -159 42 -225t139 -66t137.5 66t40.5 225v750h541v-803q0 -347 -175.5 -507.5t-541.5 -160.5z" />
    <glyph glyph-name="ubreve" unicode="&#x16d;" horiz-adv-x="1310" 
d="M664 1130q-216 0 -330.5 97t-124.5 248h287q1 -13 9.5 -32t25.5 -42t51.5 -39t79.5 -16q36 0 65.5 11t46 26.5t27.5 34.5t15 33t5 24h287q-7 -73 -35 -133t-79.5 -108.5t-135.5 -76t-194 -27.5zM420 -37q-67 0 -129 22.5t-113 67t-81.5 119.5t-30.5 170v692h501v-612
q0 -51 26 -80t64 -29q37 0 61.5 28.5t24.5 80.5v612h494v-1034h-471v139q-43 -69 -135 -122.5t-211 -53.5z" />
    <glyph glyph-name="Uring" unicode="&#x16e;" horiz-adv-x="1601" 
d="M801 1507q-87 0 -166 35.5t-132.5 108t-53.5 166.5q0 150 108 249t244 99q142 0 247 -95t105 -239q0 -98 -50 -173t-129.5 -113t-172.5 -38zM801 1741q44 0 71 26.5t27 69.5t-27 69.5t-71 26.5t-70 -26.5t-26 -69.5t26 -69.5t70 -26.5zM801 -37q-366 0 -541.5 160.5
t-175.5 507.5v803h534v-750q0 -159 42 -225t139 -66t137.5 66t40.5 225v750h541v-803q0 -347 -175.5 -507.5t-541.5 -160.5z" />
    <glyph glyph-name="uring" unicode="&#x16f;" horiz-adv-x="1310" 
d="M657 1118q-118 0 -211.5 73t-93.5 193q0 130 93.5 216t211.5 86q123 0 213.5 -82.5t90.5 -206.5q0 -126 -89.5 -202.5t-214.5 -76.5zM657 1319q38 0 61 23.5t23 60.5t-23 59.5t-61 22.5t-61 -22.5t-23 -59.5t23 -60.5t61 -23.5zM420 -37q-67 0 -129 22.5t-113 67
t-81.5 119.5t-30.5 170v692h501v-612q0 -51 26 -80t64 -29q37 0 61.5 28.5t24.5 80.5v612h494v-1034h-471v139q-43 -69 -135 -122.5t-211 -53.5z" />
    <glyph glyph-name="Uhungarumlaut" unicode="&#x170;" horiz-adv-x="1601" 
d="M659 1559h-342l113 315h526zM1223 1559h-342l112 315h527zM801 -37q-366 0 -541.5 160.5t-175.5 507.5v803h534v-750q0 -159 42 -225t139 -66t137.5 66t40.5 225v750h541v-803q0 -347 -175.5 -507.5t-541.5 -160.5z" />
    <glyph glyph-name="uhungarumlaut" unicode="&#x171;" horiz-adv-x="1310" 
d="M522 1159h-311l102 316h480zM1034 1159h-311l102 316h480zM420 -37q-67 0 -129 22.5t-113 67t-81.5 119.5t-30.5 170v692h501v-612q0 -51 26 -80t64 -29q37 0 61.5 28.5t24.5 80.5v612h494v-1034h-471v139q-43 -69 -135 -122.5t-211 -53.5z" />
    <glyph glyph-name="Uogonek" unicode="&#x172;" horiz-adv-x="1601" 
d="M834 -449q-71 0 -127 20.5t-89 53.5t-50 71.5t-17 78.5q0 120 100 196q-289 29 -428 189.5t-139 470.5v803h534v-750q0 -159 42 -225t139 -66t137.5 66t40.5 225v750h541v-803q0 -290 -117.5 -443t-353.5 -204q-94 -20 -147.5 -40t-69 -34.5t-15.5 -32.5q0 -41 68 -41
q85 0 198 47v-276q-70 -30 -123 -43t-124 -13z" />
    <glyph glyph-name="uogonek" unicode="&#x173;" horiz-adv-x="1310" 
d="M1237 1034v-1034q-266 -70 -266 -123q0 -41 67 -41q86 0 199 47v-276q-70 -30 -123.5 -43t-124.5 -13t-127 20.5t-88.5 53.5t-49.5 71.5t-17 78.5q0 145 145 225h-86v139q-43 -69 -135 -122.5t-211 -53.5q-67 0 -129 22.5t-113 67t-81.5 119.5t-30.5 170v692h501v-612
q0 -51 26 -80t64 -29q37 0 61.5 28.5t24.5 80.5v612h494z" />
    <glyph glyph-name="Wcircumflex" unicode="&#x174;" horiz-adv-x="2301" 
d="M1028 1559h-414l263 315h567l260 -315h-414l-131 151zM1006 0h-666l-346 1434h573l27 -146q85 -478 145 -825q66 487 115 827l20 144h572l29 -154q51 -278 137 -803q60 430 117 801l24 156h528l-296 -1434h-652l-30 178q-38 230 -134 787q-51 -295 -133 -783z" />
    <glyph glyph-name="wcircumflex" unicode="&#x175;" horiz-adv-x="1808" 
d="M793 1159h-377l237 316h516l238 -316h-377l-119 152zM784 0h-561l-221 1034h461l31 -198q19 -121 73 -480q47 302 70 469l31 209h487l31 -209q11 -71 32.5 -222.5t34.5 -237.5q49 314 74 460l33 209h446l-219 -1034h-579l-41 238q-27 147 -72 424q-19 -108 -72 -429z" />
    <glyph glyph-name="Ycircumflex" unicode="&#x176;" horiz-adv-x="1511" 
d="M621 1559h-414l262 315h567l260 -315h-413l-131 151zM1026 0h-543v514l-508 920h566l47 -99q73 -153 184 -381q61 135 178 379l49 101h541l-514 -920v-514z" />
    <glyph glyph-name="ycircumflex" unicode="&#x177;" horiz-adv-x="1275" 
d="M758 1159l-119 152l-119 -152h-377l238 316h516l238 -316h-377zM788 883l50 151h454l-366 -1038q-30 -84 -60 -143.5t-70.5 -109.5t-91 -80t-118 -46t-154.5 -16h-346v348h311q35 0 53.5 18t30.5 60l6 20l-540 987h516l65 -147q56 -128 156 -336q67 217 104 332z" />
    <glyph glyph-name="Ydieresis" unicode="&#x178;" horiz-adv-x="1511" 
d="M682 1559h-449v315h449v-315zM1264 1559h-447v315h447v-315zM1026 0h-543v514l-508 920h566l47 -99q73 -153 184 -381q61 135 178 379l49 101h541l-514 -920v-514z" />
    <glyph glyph-name="Zacute" unicode="&#x179;" horiz-adv-x="1380" 
d="M829 1559h-342l113 315h526zM1323 0h-1260v434l670 600h-405h-240v400h1192v-451l-631 -563h430h244v-420z" />
    <glyph glyph-name="zacute" unicode="&#x17a;" horiz-adv-x="1095" 
d="M711 1159h-312l103 316h479zM1042 0h-991v375l465 332h-270h-166v327h942v-332l-500 -354h422h98v-348z" />
    <glyph glyph-name="Zdotaccent" unicode="&#x17b;" horiz-adv-x="1380" 
d="M868 1536h-409v358h409v-358zM1323 0h-1260v434l670 600h-405h-240v400h1192v-451l-631 -563h430h244v-420z" />
    <glyph glyph-name="zdotaccent" unicode="&#x17c;" horiz-adv-x="1095" 
d="M762 1137h-410v358h410v-358zM1042 0h-991v375l465 332h-270h-166v327h942v-332l-500 -354h422h98v-348z" />
    <glyph glyph-name="Zcaron" unicode="&#x17d;" horiz-adv-x="1380" 
d="M795 1874h413l-262 -315h-567l-260 315h413l132 -152zM1323 0h-1260v434l670 600h-405h-240v400h1192v-451l-631 -563h430h244v-420z" />
    <glyph glyph-name="zcaron" unicode="&#x17e;" horiz-adv-x="1095" 
d="M819 1159h-516l-237 316h376l119 -172l119 172h377zM1042 0h-991v375l465 332h-270h-166v327h942v-332l-500 -354h422h98v-348z" />
    <glyph glyph-name="florin" unicode="&#x192;" horiz-adv-x="1038" 
d="M113 -436q-84 0 -174 22v340q39 -8 75 -8q63 0 107.5 36t54.5 120l45 389l23 201h-90h-111v256h227l13 122q10 102 42 178.5t76 123.5t105.5 76t123.5 39.5t136 10.5q133 0 246 -38v-328q-62 12 -111 12q-154 0 -166 -121l-8 -75h242v-256h-269l-69 -611
q-29 -253 -155.5 -371t-362.5 -118z" />
    <glyph glyph-name="AEacute" unicode="&#x1fc;" horiz-adv-x="2101" 
d="M1227 1874h526l-297 -315h-342zM2025 1434v-400h-647v-143h527v-342h-527v-150h647v-399h-1087v246h-324l-92 -246h-573l610 1434h1466zM938 614v162v346q-2 -5 -168 -454l-20 -54h188z" />
    <glyph glyph-name="aeacute" unicode="&#x1fd;" horiz-adv-x="1923" 
d="M1106 1159h-311l102 316h479zM449 -37q-196 0 -301 80.5t-105 228.5q0 170 175.5 271t496.5 114v33q0 101 -103 101q-117 0 -135 -117l-446 57q27 159 172 249.5t346 90.5q274 0 393 -135q141 135 393 135q91 0 169.5 -19t136 -53t104 -81t73.5 -102.5t45 -117.5
t18.5 -126.5t-7.5 -129.5h-700q0 -174 116 -174q101 0 146 121l452 -110q-56 -144 -199.5 -230t-347.5 -86q-307 0 -440 184q-60 -83 -171.5 -133.5t-280.5 -50.5zM1178 637h227q3 67 -28 108t-85 41q-111 0 -114 -149zM586 252q56 0 92.5 42.5t36.5 113.5v57
q-209 -18 -209 -137q0 -35 22 -55.5t58 -20.5z" />
    <glyph glyph-name="Oslashacute" unicode="&#x1fe;" horiz-adv-x="1765" 
d="M1055 1559h-342l112 315h527zM399 68l-170 -154l-211 229l150 136q-117 178 -117 428q0 121 27.5 229t90.5 207t156.5 170.5t236 114t319.5 42.5q281 0 479 -106l172 156l207 -236l-150 -135q121 -181 121 -442q0 -121 -27.5 -227.5t-90 -202.5t-156.5 -164.5t-236 -109
t-319 -40.5q-289 0 -482 105zM625 694l209 191q28 25 81.5 75t81.5 74q-48 27 -116 27q-124 0 -191 -92t-67 -238q0 -25 2 -37zM881 373q126 0 191 81.5t65 223.5q0 39 -2 57l-174 -157l-197 -179q33 -26 117 -26z" />
    <glyph glyph-name="oslashacute" unicode="&#x1ff;" horiz-adv-x="1349" 
d="M827 1159h-311l102 316h480zM672 -37q-223 0 -377 88l-131 -104l-166 198l113 88q-70 124 -70 283q0 257 169.5 406t461.5 149q224 0 383 -92l143 115l166 -195l-125 -98q72 -123 72 -285q0 -255 -172.5 -404t-466.5 -149zM545 580l112 90q40 32 103 80q-33 47 -92 47
q-54 0 -88.5 -46.5t-34.5 -134.5v-36zM680 233q55 0 90 46.5t35 136.5v37l-113 -88l-104 -80q25 -52 92 -52z" />
    <glyph glyph-name="uni0218" unicode="&#x218;" horiz-adv-x="1540" 
d="M758 -37q-326 0 -515 115t-223 323l549 101q12 -83 63 -127.5t136 -44.5q81 0 120.5 26.5t39.5 71.5q0 39 -30.5 65.5t-86.5 32.5l-178 21q-295 33 -419 138.5t-124 313.5q0 212 188.5 341.5t497.5 129.5q295 0 480 -106.5t223 -304.5l-553 -90q-16 64 -62 102.5
t-114 38.5q-60 0 -97 -24.5t-37 -65.5q0 -45 32.5 -68.5t103.5 -31.5l182 -19q268 -28 412.5 -147.5t144.5 -309.5q0 -226 -193.5 -353.5t-539.5 -127.5zM782 -791h-200l223 328h-223v359h413v-359z" />
    <glyph glyph-name="uni0219" unicode="&#x219;" horiz-adv-x="1196" 
d="M584 -37q-127 0 -227.5 22.5t-161 56t-102 81t-58.5 90t-23 88.5l453 35q7 -105 123 -105q106 0 106 66q0 31 -25.5 48t-80.5 26l-115 20q-220 38 -315 110.5t-95 223.5q0 147 135.5 246.5t395.5 99.5q116 0 208 -18t149.5 -46.5t98 -68.5t59.5 -79t26 -83l-451 -57
q-16 96 -117 96q-80 0 -80 -59q0 -28 28 -42.5t95 -25.5l154 -24q198 -32 298.5 -118.5t100.5 -223.5q0 -164 -145 -261.5t-434 -97.5zM606 -791h-200l223 328h-223v359h413v-359z" />
    <glyph glyph-name="uni021A" unicode="&#x21a;" horiz-adv-x="1411" 
d="M977 0h-543v1065h-409v369h1361v-369h-409v-1065zM700 -791h-200l223 328h-223v359h413v-359z" />
    <glyph glyph-name="uni021B" unicode="&#x21b;" horiz-adv-x="968" 
d="M944 0h-395q-172 0 -260 88t-88 260v379h-189v307h189v307h481v-307h207v-307h-207v-317q0 -62 61 -62h201v-348zM518 -791h-201l224 328h-224v359h414v-359z" />
    <glyph glyph-name="uni0226" unicode="&#x226;" horiz-adv-x="1624" 
d="M606 1894h410v-358h-410v358zM1642 0h-567l-59 223h-451l-61 -223h-520l462 1434h728zM688 676l-22 -84h254l-23 88q-31 114 -98 393q-49 -169 -111 -397z" />
    <glyph glyph-name="uni0227" unicode="&#x227;" horiz-adv-x="1300" 
d="M850 1137h-410v358h410v-358zM408 -37q-180 0 -272.5 80t-92.5 229q0 170 175.5 271t496.5 114v33q0 101 -103 101q-54 0 -80.5 -27t-35.5 -88l-469 55q26 162 188 251t424 89q258 0 397.5 -109.5t139.5 -312.5v-256q0 -36 11 -50.5t38 -14.5h61v-328h-266
q-116 0 -173 36t-75 111q-19 -29 -49.5 -58.5t-75 -59t-107.5 -48t-132 -18.5zM586 252q56 0 92.5 42.5t36.5 113.5v57q-209 -18 -209 -137q0 -35 22 -55.5t58 -20.5z" />
    <glyph glyph-name="uni0232" unicode="&#x232;" horiz-adv-x="1511" 
d="M1178 1559h-850v253h850v-253zM1026 0h-543v514l-508 920h566l47 -99q73 -153 184 -381q61 135 178 379l49 101h541l-514 -920v-514z" />
    <glyph glyph-name="uni0233" unicode="&#x233;" horiz-adv-x="1275" 
d="M287 1434h708v-254h-708v254zM788 883l50 151h454l-366 -1038q-30 -84 -60 -143.5t-70.5 -109.5t-91 -80t-118 -46t-154.5 -16h-346v348h311q35 0 53.5 18t30.5 60l6 20l-540 987h516l65 -147q56 -128 156 -336q67 217 104 332z" />
    <glyph glyph-name="uni0237" unicode="&#x237;" horiz-adv-x="645" 
d="M201 -399h-283v327h127q45 0 45 70v1036h481v-1046q0 -176 -93.5 -281.5t-276.5 -105.5z" />
    <glyph glyph-name="circumflex" unicode="&#x2c6;" horiz-adv-x="1073" 
d="M418 1159h-377l238 316h516l237 -316h-377l-118 152z" />
    <glyph glyph-name="caron" unicode="&#x2c7;" horiz-adv-x="1073" 
d="M795 1159h-516l-238 316h377l119 -172l118 172h377z" />
    <glyph glyph-name="breve" unicode="&#x2d8;" horiz-adv-x="980" 
d="M496 1130q-216 0 -330.5 97t-124.5 248h287q1 -13 9.5 -32t25.5 -42t51.5 -39t79.5 -16q36 0 65.5 11t46 26.5t27.5 34.5t15 33t5 24h287q-7 -73 -35 -133t-79.5 -108.5t-135.5 -76t-194 -27.5z" />
    <glyph glyph-name="dotaccent" unicode="&#x2d9;" horiz-adv-x="512" 
d="M461 1137h-410v358h410v-358z" />
    <glyph glyph-name="ring" unicode="&#x2da;" horiz-adv-x="669" 
d="M336 1104q-118 0 -211.5 73t-93.5 193q0 130 93.5 215.5t211.5 85.5q123 0 213 -82t90 -207q0 -126 -89 -202t-214 -76zM336 1305q38 0 61 23.5t23 60.5t-23 59t-61 22t-61 -22t-23 -59t23 -60.5t61 -23.5z" />
    <glyph glyph-name="ogonek" unicode="&#x2db;" horiz-adv-x="632" 
d="M324 -449q-71 0 -127 20.5t-89 53.5t-50 71.5t-17 78.5q0 214 313 284l217 -59q-266 -70 -266 -123q0 -41 68 -41q85 0 198 47v-276q-70 -30 -123 -43t-124 -13z" />
    <glyph glyph-name="tilde" unicode="&#x2dc;" horiz-adv-x="1015" 
d="M717 1139q-106 0 -205 57l-43 25q-4 2 -15.5 8.5t-16 9t-14.5 7t-17 6.5t-16.5 3.5t-18.5 1.5q-35 0 -53.5 -26.5t-18.5 -71.5h-266q-14 157 54.5 246.5t219.5 89.5q97 0 195 -59l47 -27q57 -33 98 -33q35 0 53.5 27t18.5 72h264q14 -155 -54 -245.5t-212 -90.5z" />
    <glyph glyph-name="hungarumlaut" unicode="&#x2dd;" horiz-adv-x="1126" 
d="M338 1159h-311l102 316h479zM850 1159h-311l102 316h479z" />
    <glyph glyph-name="uni0394" unicode="&#x394;" horiz-adv-x="1640" 
d="M446 1434h744l469 -1434h-1675zM688 629l-59 -221h368l-65 237q-70 262 -117 428q-75 -251 -127 -444z" />
    <glyph glyph-name="uni03A9" unicode="&#x3a9;" horiz-adv-x="1810" 
d="M840 0h-772v385h73h252q-140 43 -227.5 166.5t-87.5 288.5q0 56 13.5 115t44.5 121t76.5 118.5t113 107.5t150 88t193 58.5t236.5 21.5q174 0 318 -41.5t236.5 -107t156 -150.5t90.5 -168t27 -163q0 -165 -88 -288t-228 -167h242h84v-385h-772v373q67 26 107.5 65
t63.5 109.5t23 175.5q0 161 -67 249.5t-193 88.5q-125 0 -188.5 -87.5t-63.5 -250.5q0 -156 44 -234t143 -116v-373z" />
    <glyph glyph-name="uni03BC" unicode="&#x3bc;" horiz-adv-x="1314" 
d="M565 -399h-491v1433h501v-618q0 -48 25.5 -75.5t65.5 -27.5q38 0 61 27.5t23 75.5v618h491v-1034h-467v178q-59 -107 -143 -158q-36 -22 -66 -32v-387z" />
    <glyph glyph-name="pi" unicode="&#x3c0;" horiz-adv-x="1542" 
d="M682 0h-463v672h-184v362h1442v-362h-189v-244q0 -31 18.5 -49.5t53.5 -18.5h117v-360h-269q-90 0 -155.5 18.5t-115.5 60.5t-75.5 116.5t-25.5 181.5v295h-154v-672z" />
    <glyph glyph-name="Wgrave" unicode="&#x1e80;" horiz-adv-x="2301" 
d="M1343 1559h-342l-296 315h526zM1006 0h-666l-346 1434h573l27 -146q85 -478 145 -825q66 487 115 827l20 144h572l29 -154q51 -278 137 -803q60 430 117 801l24 156h528l-296 -1434h-652l-30 178q-38 230 -134 787q-51 -295 -133 -783z" />
    <glyph glyph-name="wgrave" unicode="&#x1e81;" horiz-adv-x="1808" 
d="M1069 1159h-311l-271 316h480zM784 0h-561l-221 1034h461l31 -198q19 -121 73 -480q47 302 70 469l31 209h487l31 -209q11 -71 32.5 -222.5t34.5 -237.5q49 314 74 460l33 209h446l-219 -1034h-579l-41 238q-27 147 -72 424q-19 -108 -72 -429z" />
    <glyph glyph-name="Wacute" unicode="&#x1e82;" horiz-adv-x="2301" 
d="M1327 1559h-342l113 315h526zM1006 0h-666l-346 1434h573l27 -146q85 -478 145 -825q66 487 115 827l20 144h572l29 -154q51 -278 137 -803q60 430 117 801l24 156h528l-296 -1434h-652l-30 178q-38 230 -134 787q-51 -295 -133 -783z" />
    <glyph glyph-name="wacute" unicode="&#x1e83;" horiz-adv-x="1808" 
d="M1065 1159h-311l102 316h479zM784 0h-561l-221 1034h461l31 -198q19 -121 73 -480q47 302 70 469l31 209h487l31 -209q11 -71 32.5 -222.5t34.5 -237.5q49 314 74 460l33 209h446l-219 -1034h-579l-41 238q-27 147 -72 424q-19 -108 -72 -429z" />
    <glyph glyph-name="Wdieresis" unicode="&#x1e84;" horiz-adv-x="2301" 
d="M1090 1559h-449v315h449v-315zM1671 1559h-446v315h446v-315zM1006 0h-666l-346 1434h573l27 -146q85 -478 145 -825q66 487 115 827l20 144h572l29 -154q51 -278 137 -803q60 430 117 801l24 156h528l-296 -1434h-652l-30 178q-38 230 -134 787q-51 -295 -133 -783z" />
    <glyph glyph-name="wdieresis" unicode="&#x1e85;" horiz-adv-x="1808" 
d="M852 1159h-408v316h408v-316zM1382 1159h-407v316h407v-316zM784 0h-561l-221 1034h461l31 -198q19 -121 73 -480q47 302 70 469l31 209h487l31 -209q11 -71 32.5 -222.5t34.5 -237.5q49 314 74 460l33 209h446l-219 -1034h-579l-41 238q-27 147 -72 424
q-19 -108 -72 -429z" />
    <glyph glyph-name="uni1E9E" unicode="&#x1e9e;" horiz-adv-x="1536" 
d="M975 -37q-176 0 -275 51v387q66 -30 152 -30q65 0 103 28.5t38 73.5q0 43 -37 70.5t-106 27.5h-150v303h64q65 0 99 26.5t34 70.5q0 43 -34 69.5t-99 26.5h-154v-1067h-512v1434h785q234 0 367.5 -96.5t133.5 -258.5q0 -64 -21.5 -118t-53.5 -88.5t-75.5 -60t-81 -38.5
t-75.5 -20q58 -6 113 -21t111.5 -44.5t98.5 -70t68.5 -102.5t26.5 -137q0 -198 -144 -307t-376 -109z" />
    <glyph glyph-name="Ygrave" unicode="&#x1ef2;" horiz-adv-x="1511" 
d="M936 1559h-342l-297 315h526zM1026 0h-543v514l-508 920h566l47 -99q73 -153 184 -381q61 135 178 379l49 101h541l-514 -920v-514z" />
    <glyph glyph-name="ygrave" unicode="&#x1ef3;" horiz-adv-x="1275" 
d="M694 1475l103 -316h-312l-270 316h479zM788 883l50 151h454l-366 -1038q-30 -84 -60 -143.5t-70.5 -109.5t-91 -80t-118 -46t-154.5 -16h-346v348h311q35 0 53.5 18t30.5 60l6 20l-540 987h516l65 -147q56 -128 156 -336q67 217 104 332z" />
    <glyph glyph-name="uni2002" unicode="&#x2002;" horiz-adv-x="1024" 
 />
    <glyph glyph-name="uni2003" unicode="&#x2003;" horiz-adv-x="2048" 
 />
    <glyph glyph-name="uni2009" unicode="&#x2009;" horiz-adv-x="256" 
 />
    <glyph glyph-name="uni200A" unicode="&#x200a;" horiz-adv-x="153" 
 />
    <glyph glyph-name="endash" unicode="&#x2013;" horiz-adv-x="1415" 
d="M1337 492h-1259v348h1259v-348z" />
    <glyph glyph-name="emdash" unicode="&#x2014;" horiz-adv-x="1851" 
d="M1769 502h-1687v338h1687v-338z" />
    <glyph glyph-name="quoteleft" unicode="&#x2018;" horiz-adv-x="612" 
d="M307 1434h234l-260 -379h260v-416h-482v416z" />
    <glyph glyph-name="quoteright" unicode="&#x2019;" horiz-adv-x="600" 
d="M309 639h-233l260 379h-260v416h481v-416z" />
    <glyph glyph-name="quotesinglbase" unicode="&#x201a;" horiz-adv-x="636" 
d="M311 -379h-233l260 379h-260v416h481v-416z" />
    <glyph glyph-name="quotedblleft" unicode="&#x201c;" horiz-adv-x="1200" 
d="M307 1436h234l-260 -379h260v-416h-482v416zM895 1436h233l-260 -379h260v-416h-481v416z" />
    <glyph glyph-name="quotedblright" unicode="&#x201d;" horiz-adv-x="1187" 
d="M309 639h-233l260 379h-260v416h481v-416zM897 639h-233l260 379h-260v416h481v-416z" />
    <glyph glyph-name="quotedblbase" unicode="&#x201e;" horiz-adv-x="1224" 
d="M311 -379h-233l260 379h-260v416h481v-416zM899 -379h-233l260 379h-260v416h481v-416z" />
    <glyph glyph-name="dagger" unicode="&#x2020;" horiz-adv-x="1316" 
d="M872 -182h-430v872h-397v389h397v355h430v-355h400v-389h-400v-872z" />
    <glyph glyph-name="daggerdbl" unicode="&#x2021;" horiz-adv-x="1386" 
d="M907 -182h-430v334h-397v389h397v149h-397v389h397v355h430v-355h400v-389h-400v-149h400v-389h-400v-334z" />
    <glyph glyph-name="bullet" unicode="&#x2022;" horiz-adv-x="1224" 
d="M612 195q-140 0 -258.5 68.5t-187 185t-68.5 251.5q0 136 68.5 252.5t187 185t258.5 68.5q139 0 257.5 -68.5t187.5 -185t69 -252.5q0 -135 -69 -251.5t-187.5 -185t-257.5 -68.5z" />
    <glyph glyph-name="ellipsis" unicode="&#x2026;" horiz-adv-x="2074" 
d="M584 0h-506v438h506v-438zM1290 0h-506v438h506v-438zM1997 0h-506v438h506v-438z" />
    <glyph glyph-name="perthousand" unicode="&#x2030;" horiz-adv-x="2428" 
d="M827 1030q0 -189 -106.5 -300.5t-286.5 -111.5t-284.5 110.5t-104.5 299.5q0 192 106 309t283 117q178 0 285.5 -116.5t107.5 -307.5zM301 0l1040 1434h324l-1036 -1434h-328zM377 1038q0 -107 14 -147.5t43 -40.5q62 0 62 188q0 187 -62 187q-28 0 -42.5 -42t-14.5 -145
zM1993 815q178 0 285.5 -116.5t107.5 -307.5q0 -189 -106.5 -300t-286.5 -111q-141 0 -238 69q-97 -69 -237 -69q-180 0 -285 110t-105 299q0 192 106.5 309t283.5 117q135 0 239 -74q96 74 236 74zM1518 211q61 0 61 188q0 187 -61 187q-58 0 -58 -187q0 -107 14.5 -147.5
t43.5 -40.5zM1993 211q61 0 61 188q0 187 -61 187q-58 0 -58 -187q0 -107 14.5 -147.5t43.5 -40.5z" />
    <glyph glyph-name="guilsinglleft" unicode="&#x2039;" horiz-adv-x="843" 
d="M358 1034h451l-334 -526l313 -508h-436l-309 522z" />
    <glyph glyph-name="guilsinglright" unicode="&#x203a;" horiz-adv-x="845" 
d="M55 1034h437l309 -522l-316 -512h-450l334 526z" />
    <glyph glyph-name="fraction" unicode="&#x2044;" horiz-adv-x="409" 
d="M-154 0h-327l1040 1434h324z" />
    <glyph glyph-name="uni2070" unicode="&#x2070;" horiz-adv-x="925" 
d="M461 805q-180 0 -284.5 110t-104.5 299q0 192 106 309t283 117q178 0 285.5 -116t107.5 -307q0 -189 -106.5 -300.5t-286.5 -111.5zM461 1036q61 0 61 189q0 186 -61 186q-28 0 -43 -41.5t-15 -144.5q0 -107 14.5 -148t43.5 -41z" />
    <glyph glyph-name="uni2074" unicode="&#x2074;" horiz-adv-x="921" 
d="M739 825h-272v136h-404v215l324 444h352v-446h111v-213h-111v-136zM416 1174h51v38v144l-139 -182h88z" />
    <glyph glyph-name="uni2075" unicode="&#x2075;" horiz-adv-x="856" 
d="M424 805q-83 0 -152.5 22t-113 57.5t-69.5 75.5t-34 80l287 52q6 -29 24 -46.5t44 -17.5q30 0 49.5 19.5t19.5 52.5q0 30 -17 48.5t-44 18.5q-43 0 -56 -47l-270 33l60 467h596v-231h-365l-6 -37q-4 -27 -6 -74q22 27 64.5 43t94.5 16q115 0 183.5 -67t68.5 -180
q0 -132 -94 -208.5t-264 -76.5z" />
    <glyph glyph-name="uni2076" unicode="&#x2076;" horiz-adv-x="860" 
d="M449 805q-86 0 -154 25.5t-109 65t-67.5 92.5t-36.5 103t-10 101q0 209 112.5 328.5t309.5 119.5q63 0 131.5 -13.5t107.5 -29.5v-229q-111 49 -201 49q-85 0 -130.5 -35t-51.5 -114q44 88 185 88q30 0 62.5 -7.5t68 -26t62.5 -46.5t45 -73t18 -101q0 -135 -94 -216
t-248 -81zM434 1030q26 0 44 20.5t18 51.5q0 29 -18.5 48t-43.5 19q-26 0 -42.5 -18t-16.5 -49q0 -33 16 -52.5t43 -19.5z" />
    <glyph glyph-name="uni2077" unicode="&#x2077;" horiz-adv-x="768" 
d="M465 825h-336q0 96 24.5 182t61 146t85.5 110t92 79t85 47h-143h-271v231h648v-279q-246 -122 -246 -516z" />
    <glyph glyph-name="uni2078" unicode="&#x2078;" horiz-adv-x="874" 
d="M438 805q-166 0 -266 63.5t-100 169.5q0 69 46 120t126 73q-73 23 -113.5 72t-40.5 114q0 100 96.5 161.5t251.5 61.5t250.5 -61.5t95.5 -161.5q0 -65 -41 -113.5t-114 -72.5q80 -22 127 -73.5t47 -119.5q0 -106 -100 -169.5t-265 -63.5zM436 1319q23 0 39.5 16t16.5 41
q0 28 -16 42t-40 14q-53 0 -53 -56q0 -28 15 -42.5t38 -14.5zM438 1026q26 0 44 16.5t18 47.5t-18 47t-46 16q-59 0 -59 -63q0 -31 17.5 -47.5t43.5 -16.5z" />
    <glyph glyph-name="uni2079" unicode="&#x2079;" horiz-adv-x="868" 
d="M346 805q-131 0 -229 35v229q115 -39 215 -39q99 0 141 37q42 36 39 109q-62 -89 -180 -89t-189 69t-71 187q0 135 94 216t248 81q151 0 252 -84q131 -112 131 -307q0 -215 -116.5 -329.5t-334.5 -114.5zM424 1268q30 0 47.5 19t17.5 52t-17.5 52.5t-47.5 19.5t-47 -20
t-17 -52t17 -51.5t47 -19.5z" />
    <glyph glyph-name="uni20A9" unicode="&#x20a9;" horiz-adv-x="2254" 
d="M2195 1083v-266h-231l-20 -123h176v-266h-226l-75 -428h-529l-26 178q-51 339 -115 787l-115 -783l-26 -182h-541l-90 428h-205v266h150l-25 123h-250v266h195l-74 351h477l25 -156l125 -815q16 136 49 408.5t49 408.5l18 154h459l23 -154q40 -262 120 -803
q40 319 103 801l20 156h439l-64 -351h184z" />
    <glyph glyph-name="Euro" unicode="&#x20ac;" horiz-adv-x="1560" 
d="M860 -37q-255 0 -428.5 115.5t-232.5 357.5h-138v226h111v92h-111v225h140q60 234 231 362.5t428 128.5q523 0 649 -487l-460 -133q-44 242 -207 242q-66 0 -100.5 -26.5t-59.5 -86.5h90h88v-225h-217v-92h217v-226h-82h-88q23 -60 55.5 -78t94.5 -18q77 0 128.5 60
t84.5 182l458 -148q-25 -100 -74.5 -180t-113 -133.5t-141 -89.5t-157.5 -52t-165 -16z" />
    <glyph glyph-name="uni20B9" unicode="&#x20b9;" horiz-adv-x="1294" 
d="M1083 0h-563l-69 326q-20 94 -57.5 127.5t-123.5 33.5h-188v336h256q60 0 96.5 28.5t36.5 78.5t-36.5 77t-96.5 27h-256v400h1157v-301h-141h-168q29 -46 37 -123h272v-256h-354q-92 -92 -244 -113q150 -14 228.5 -76.5t121.5 -220.5z" />
    <glyph glyph-name="uni20BA" unicode="&#x20ba;" horiz-adv-x="1542" 
d="M731 0h-455v154v161l-129 -63l-41 -21v306l170 84v114l-170 -84v303l170 84v396h461v-35v-137l160 77l233 113v-305l-393 -189v-116l393 192v-307l-393 -188v-117l88 4q74 4 139.5 43t104 87t61.5 101l381 -219q-152 -438 -780 -438z" />
    <glyph glyph-name="uni20BD" unicode="&#x20bd;" horiz-adv-x="1523" 
d="M975 571h-287v-102h416v-266h-416v-203h-481v203h-129v266h129v102h-129v287h129v576h686q264 0 419.5 -119.5t155.5 -327.5q0 -99 -42 -180t-112 -131.5t-157 -77.5t-182 -27zM838 1065h-150v-207h150q52 0 82 31.5t30 73.5q0 41 -29.5 71.5t-82.5 30.5z" />
    <glyph glyph-name="uni20BF" unicode="&#x20bf;" horiz-adv-x="1478" 
d="M1425 387q0 -150 -106 -254.5t-320 -126.5v-217h-278v211h-103v-211h-278v211h-234v1434h234v182h278v-182h103v182h278v-191q181 -25 283 -118t102 -234q0 -28 -6 -58.5t-27 -71t-55 -75t-95 -66t-142 -48.5q89 -14 156.5 -45.5t106 -69.5t63 -85t32.5 -86.5t8 -80.5z
M784 1071h-172v-201h172q46 0 76.5 29t30.5 72t-30.5 71.5t-76.5 28.5zM612 360h174q49 0 83 29t34 78q0 50 -33.5 79t-83.5 29h-174v-215z" />
    <glyph glyph-name="uni2113" unicode="&#x2113;" horiz-adv-x="1247" 
d="M639 -37q-101 0 -182.5 24.5t-133.5 63.5t-87 91t-49.5 103.5t-14.5 104.5v29h-125v248q82 4 125 10v350q0 111 30 197t78.5 139t115.5 87t133 47t139 13q134 0 237.5 -32.5t167 -90.5t95.5 -134t32 -166q0 -113 -40 -205.5t-119.5 -164.5t-185.5 -126.5t-249 -99.5v-76
q0 -39 16 -61.5t46 -22.5q37 0 62 38t34 99l446 -96q-14 -53 -37.5 -100.5t-69 -98t-105.5 -87t-153 -60t-206 -23.5zM606 774q22 17 36.5 29.5t38 38.5t37.5 52t25 65.5t11 82.5q0 63 -23.5 93t-54.5 30q-29 0 -49.5 -25t-20.5 -75v-147v-144z" />
    <glyph glyph-name="uni2116" unicode="&#x2116;" horiz-adv-x="2785" 
d="M2253 582q-123 0 -219 34.5t-155.5 96t-90.5 142t-31 175.5q0 92 31 170t91 137.5t156 93t218 33.5q240 0 364.5 -120.5t124.5 -313.5q0 -96 -29.5 -176t-88 -141.5t-153.5 -96t-218 -34.5zM623 0h-502v1434h672l366 -727v376v351h502v-1434h-580l-458 915v-417v-498z
M2253 813q45 0 69.5 55.5t24.5 155.5q0 98 -24.5 153.5t-69.5 55.5q-46 0 -73.5 -56.5t-27.5 -152.5q0 -99 27.5 -155t73.5 -56z" />
    <glyph glyph-name="uni2117" unicode="&#x2117;" horiz-adv-x="1882" 
d="M934 -170q-185 0 -349 68t-280.5 184.5t-184 277.5t-67.5 340q0 181 67.5 340.5t184 274t280.5 180.5t349 66q248 0 453 -112.5t323.5 -310.5t118.5 -438q0 -179 -70 -340t-189 -277.5t-285 -184.5t-351 -68zM938 88q177 0 313 82t207.5 220.5t71.5 309.5t-71.5 307.5
t-207.5 216t-313 79.5t-311.5 -79.5t-204.5 -216t-70 -307.5q0 -172 70 -310t204.5 -220t311.5 -82zM905 291h-260v835h387q136 0 223.5 -74t87.5 -196t-87.5 -196t-223.5 -74h-127v-295zM905 950v-188h56q100 0 100 94t-100 94h-56z" />
    <glyph glyph-name="trademark" unicode="&#x2122;" horiz-adv-x="1994" 
d="M528 659h-264v562h-215v213h694v-213h-215v-562zM1120 659h-254v775h404l24 -105q40 -167 84 -336q33 129 82 330l27 111h397v-775h-252v162v377l-149 -539h-215l-148 539v-379v-160z" />
    <glyph glyph-name="uni2126" unicode="&#x2126;" horiz-adv-x="1810" 
d="M840 0h-772v385h73h252q-140 43 -227.5 166.5t-87.5 288.5q0 56 13.5 115t44.5 121t76.5 118.5t113 107.5t150 88t193 58.5t236.5 21.5q174 0 318 -41.5t236.5 -107t156 -150.5t90.5 -168t27 -163q0 -165 -88 -288t-228 -167h242h84v-385h-772v373q67 26 107.5 65
t63.5 109.5t23 175.5q0 161 -67 249.5t-193 88.5q-125 0 -188.5 -87.5t-63.5 -250.5q0 -156 44 -234t143 -116v-373z" />
    <glyph glyph-name="uni2153" unicode="&#x2153;" horiz-adv-x="1892" 
d="M596 639h-311v291v203q-72 -181 -238 -187v318q201 3 262 170h287v-795zM545 0h-328l1040 1434h324zM1495 -20q-163 0 -262 61.5t-119 175.5l295 57q4 -33 23.5 -50t48.5 -17q28 0 45.5 13.5t17.5 37.5q0 22 -17.5 35.5t-43.5 13.5h-70v185h66q32 0 49.5 13.5t17.5 37.5
q0 23 -15 36t-40 13q-49 0 -61 -60l-291 39q14 109 109.5 176.5t244.5 67.5q148 0 239 -62t91 -161q0 -67 -47 -116t-129 -68q100 -21 149 -73t49 -126q0 -107 -93.5 -168t-256.5 -61z" />
    <glyph glyph-name="uni2154" unicode="&#x2154;" horiz-adv-x="2037" 
d="M754 639h-678v266q387 120 387 258q0 30 -15.5 46t-41.5 16q-74 0 -64 -121l-289 33q0 37 10 76.5t36.5 83.5t67.5 78t109.5 56.5t155.5 22.5q151 0 239.5 -71.5t88.5 -184.5q0 -68 -26.5 -118t-84.5 -97q-73 -61 -223 -113h252h76v-231zM690 0h-328l1041 1434h323z
M1640 -20q-163 0 -261.5 61.5t-118.5 175.5l294 57q4 -33 23.5 -50t48.5 -17t46.5 13.5t17.5 37.5q0 22 -17.5 35.5t-44.5 13.5h-69v185h65q32 0 50 14t18 37t-15.5 36t-40.5 13q-49 0 -61 -60l-291 39q14 109 109.5 176.5t244.5 67.5q148 0 239 -62t91 -161q0 -67 -47 -116
t-129 -68q100 -21 149.5 -73t49.5 -126q0 -107 -94 -168t-257 -61z" />
    <glyph glyph-name="uni2155" unicode="&#x2155;" horiz-adv-x="1914" 
d="M596 639h-311v291v203q-72 -181 -238 -187v318q201 3 262 170h287v-795zM545 0h-328l1040 1434h324zM1503 -20q-83 0 -152 22t-112.5 57.5t-69.5 75.5t-34 80l286 51q6 -28 24 -45.5t44 -17.5q30 0 50 19t20 52q0 30 -17.5 49t-44.5 19q-42 0 -55 -47l-271 33l60 467h596
v-232h-365l-6 -37q-4 -27 -6 -73q22 27 65 43t95 16q115 0 183.5 -67.5t68.5 -180.5q0 -132 -94.5 -208t-264.5 -76z" />
    <glyph glyph-name="uni2156" unicode="&#x2156;" horiz-adv-x="2054" 
d="M752 639h-678v266q387 120 387 258q0 30 -16 46t-42 16q-73 0 -63 -121l-289 33q0 37 10 76.5t36.5 83.5t67.5 78t109.5 56.5t155.5 22.5q151 0 239.5 -71.5t88.5 -184.5q0 -68 -26.5 -118t-84.5 -97q-73 -61 -223 -113h252h76v-231zM688 0h-328l1041 1434h323zM1647 -20
q-83 0 -152.5 22t-113 57.5t-69.5 75.5t-34 80l287 51q6 -29 23.5 -46t43.5 -17q30 0 50 19t20 52q0 30 -17.5 49t-44.5 19q-42 0 -55 -47l-270 33l59 467h596v-232h-364l-7 -37q-4 -27 -6 -73q22 27 65 43t95 16q115 0 183.5 -67.5t68.5 -180.5q0 -132 -94 -208t-264 -76z
" />
    <glyph glyph-name="uni2157" unicode="&#x2157;" horiz-adv-x="2062" 
d="M424 618q-163 0 -262 62t-119 176l295 57q4 -33 23.5 -50t48.5 -17q28 0 45.5 13.5t17.5 37.5q0 22 -17.5 35.5t-43.5 13.5h-70v184h66q32 0 49.5 14t17.5 38q0 23 -15 36t-40 13q-50 0 -62 -60l-290 39q14 109 109.5 176.5t244.5 67.5q148 0 239 -62t91 -161
q0 -67 -47.5 -116t-129.5 -68q100 -21 149.5 -73t49.5 -126q0 -107 -93.5 -168.5t-256.5 -61.5zM688 0h-328l1041 1434h323zM1647 -20q-83 0 -152.5 22t-113 57.5t-69.5 75.5t-34 80l287 51q6 -29 23.5 -46t43.5 -17q30 0 50 19t20 52q0 30 -17.5 49t-44.5 19q-42 0 -55 -47
l-270 33l59 467h596v-232h-364l-7 -37q-4 -27 -6 -73q22 27 65 43t95 16q115 0 183.5 -67.5t68.5 -180.5q0 -132 -94 -208t-264 -76z" />
    <glyph glyph-name="uni2158" unicode="&#x2158;" horiz-adv-x="2111" 
d="M719 639h-273v135h-403v215l324 445h352v-447h110v-213h-110v-135zM735 0h-327l1040 1434h324zM395 987h51v39v143l-139 -182h88zM1694 -20q-83 0 -152.5 22t-113 57.5t-69.5 75.5t-34 80l287 51q6 -29 23.5 -46t43.5 -17q30 0 50 19t20 52q0 30 -17 49t-44 19
q-43 0 -56 -47l-270 33l59 467h596v-232h-364l-6 -37q-5 -37 -7 -73q22 27 65 43t95 16q115 0 183.5 -67.5t68.5 -180.5q0 -132 -94 -208t-264 -76z" />
    <glyph glyph-name="uni2159" unicode="&#x2159;" horiz-adv-x="1894" 
d="M596 639h-311v291v203q-72 -181 -238 -187v318q201 3 262 170h287v-795zM545 0h-328l1040 1434h324zM1505 -20q-86 0 -154 25.5t-109 65t-67.5 92.5t-36.5 103t-10 101q0 209 112.5 328.5t309.5 119.5q63 0 132 -13.5t108 -29.5v-229q-111 49 -201 49q-85 0 -130.5 -35.5
t-51.5 -114.5q44 88 184 88q30 0 62.5 -7.5t68 -26t62.5 -46.5t45 -73t18 -101q0 -135 -94 -215.5t-248 -80.5zM1491 205q26 0 43.5 20t17.5 51q0 29 -18 48.5t-43 19.5q-26 0 -42.5 -18.5t-16.5 -49.5q0 -33 15.5 -52t43.5 -19z" />
    <glyph glyph-name="uni215A" unicode="&#x215a;" horiz-adv-x="2050" 
d="M412 618q-83 0 -152.5 22t-113 58t-69.5 76t-34 80l287 51q6 -29 23.5 -46t43.5 -17q30 0 50 19t20 52q0 30 -17 49t-44 19q-43 0 -56 -47l-270 33l59 467h596v-232h-364l-6 -37q-5 -37 -7 -73q22 27 65 43t95 16q115 0 183.5 -67.5t68.5 -180.5q0 -132 -94 -208.5
t-264 -76.5zM694 0h-327l1040 1434h324zM1655 -20q-86 0 -154 25.5t-109 65t-67.5 92.5t-36.5 103t-10 101q0 209 112.5 328.5t309.5 119.5q63 0 131.5 -13.5t107.5 -29.5v-229q-111 49 -200 49q-85 0 -131 -35.5t-52 -114.5q44 88 185 88q30 0 62.5 -7.5t68 -26t62.5 -46.5
t45 -73t18 -101q0 -135 -94 -215.5t-248 -80.5zM1640 205q26 0 44 20t18 51q0 29 -18.5 48.5t-43.5 19.5q-26 0 -42.5 -18.5t-16.5 -49.5q0 -33 15.5 -52t43.5 -19z" />
    <glyph glyph-name="oneeighth" unicode="&#x215b;" horiz-adv-x="1904" 
d="M596 639h-311v291v203q-72 -181 -238 -187v318q201 3 262 170h287v-795zM545 0h-328l1040 1434h324zM1491 -20q-166 0 -266.5 63.5t-100.5 169.5q0 69 46 120t126 73q-72 23 -112.5 71.5t-40.5 114.5q0 100 96.5 161.5t251.5 61.5t250.5 -61.5t95.5 -161.5
q0 -65 -41.5 -113.5t-114.5 -72.5q80 -22 127 -73.5t47 -119.5q0 -106 -100 -169.5t-264 -63.5zM1489 494q23 0 39 16t16 41q0 28 -15.5 41.5t-39.5 13.5q-53 0 -53 -55q0 -28 15 -42.5t38 -14.5zM1491 201q26 0 43.5 16t17.5 47t-17.5 47.5t-45.5 16.5q-59 0 -59 -64
q0 -31 17.5 -47t43.5 -16z" />
    <glyph glyph-name="threeeighths" unicode="&#x215c;" horiz-adv-x="2052" 
d="M424 618q-163 0 -262 62t-119 176l295 57q4 -33 23.5 -50t48.5 -17q28 0 45.5 13.5t17.5 37.5q0 22 -17.5 35.5t-43.5 13.5h-70v184h66q32 0 49.5 14t17.5 38q0 23 -15 36t-40 13q-50 0 -62 -60l-290 39q14 109 109.5 176.5t244.5 67.5q148 0 239 -62t91 -161
q0 -67 -47.5 -116t-129.5 -68q100 -21 149.5 -73t49.5 -126q0 -107 -93.5 -168.5t-256.5 -61.5zM688 0h-328l1041 1434h323zM1634 -20q-166 0 -266 63.5t-100 169.5q0 69 46 120t126 73q-73 23 -113.5 72t-40.5 114q0 100 96.5 161.5t251.5 61.5t250.5 -61.5t95.5 -161.5
q0 -65 -41 -113.5t-114 -72.5q80 -22 127 -73.5t47 -119.5q0 -106 -100 -169.5t-265 -63.5zM1632 494q23 0 39.5 16t16.5 41q0 27 -16 41t-40 14q-53 0 -53 -55q0 -28 15 -42.5t38 -14.5zM1634 201q27 0 44.5 16t17.5 47t-18 47.5t-46 16.5q-59 0 -59 -64q0 -31 17.5 -47
t43.5 -16z" />
    <glyph glyph-name="fiveeighths" unicode="&#x215d;" horiz-adv-x="2060" 
d="M412 618q-83 0 -152.5 22t-113 58t-69.5 76t-34 80l287 51q6 -29 23.5 -46t43.5 -17q30 0 50 19t20 52q0 30 -17 49t-44 19q-43 0 -56 -47l-270 33l59 467h596v-232h-364l-6 -37q-5 -37 -7 -73q22 27 65 43t95 16q115 0 183.5 -67.5t68.5 -180.5q0 -132 -94 -208.5
t-264 -76.5zM694 0h-327l1040 1434h324zM1640 -20q-166 0 -266 63.5t-100 169.5q0 69 46 120t126 73q-73 23 -113.5 72t-40.5 114q0 100 96.5 161.5t251.5 61.5t251 -61.5t96 -161.5q0 -65 -41.5 -113.5t-114.5 -72.5q80 -22 127 -73.5t47 -119.5q0 -106 -100 -169.5
t-265 -63.5zM1638 494q23 0 39.5 16t16.5 41q0 27 -16 41t-40 14q-53 0 -53 -55q0 -28 15 -42.5t38 -14.5zM1640 201q27 0 44.5 16t17.5 47t-18 47.5t-46 16.5q-59 0 -59 -64q0 -31 17.5 -47t43.5 -16z" />
    <glyph glyph-name="seveneighths" unicode="&#x215e;" horiz-adv-x="1808" 
d="M457 639h-336q0 96 24.5 182t61 146t85.5 109.5t92 78.5t85 47h-143h-271v232h647v-279q-245 -121 -245 -516zM451 0h-328l1040 1434h324zM1397 -20q-166 0 -266.5 63.5t-100.5 169.5q0 69 46 120t126 73q-72 23 -112.5 71.5t-40.5 114.5q0 100 96.5 161.5t251.5 61.5
t250.5 -61.5t95.5 -161.5q0 -65 -41.5 -113.5t-114.5 -72.5q80 -22 127 -73.5t47 -119.5q0 -106 -100 -169.5t-264 -63.5zM1395 494q23 0 39 16t16 41q0 28 -15.5 41.5t-39.5 13.5q-54 0 -54 -55q0 -28 15.5 -42.5t38.5 -14.5zM1397 201q26 0 43.5 16t17.5 47t-17.5 47.5
t-45.5 16.5q-60 0 -60 -64q0 -31 17.5 -47t44.5 -16z" />
    <glyph glyph-name="uni215F" unicode="&#x215f;" horiz-adv-x="933" 
d="M563 639h-311v291v203q-72 -181 -238 -187v318q201 3 262 170h287v-795zM512 0h-328l1041 1434h323z" />
    <glyph glyph-name="arrowleft" unicode="&#x2190;" horiz-adv-x="1722" 
d="M1647 942v-450h-828q170 -138 299 -267l58 -57l-299 -297l-848 846l848 848l299 -299l-52 -52q-116 -116 -305 -272h828z" />
    <glyph glyph-name="arrowup" unicode="&#x2191;" horiz-adv-x="1751" 
d="M1100 0h-451v827q-142 -175 -266 -299l-57 -57l-297 299l845 848l848 -848l-299 -299l-51 51q-116 116 -272 305v-827z" />
    <glyph glyph-name="arrowright" unicode="&#x2192;" horiz-adv-x="1722" 
d="M76 492v450h827q-175 142 -299 266l-57 58l299 297l848 -846l-848 -848l-299 299l51 51q121 121 305 273h-827z" />
    <glyph glyph-name="arrowdown" unicode="&#x2193;" horiz-adv-x="1751" 
d="M651 1434h451v-828q142 175 266 299l57 58l297 -299l-845 -848l-848 848l299 299l51 -52q116 -116 272 -305v828z" />
    <glyph glyph-name="uni2196" unicode="&#x2196;" horiz-adv-x="1468" 
d="M836 1034l585 -583l-317 -320l-586 586q23 -225 23 -402v-77h-422v1196h1198v-422h-72q-151 0 -409 22z" />
    <glyph glyph-name="uni2197" unicode="&#x2197;" horiz-adv-x="1466" 
d="M948 717l-583 -586l-320 318l586 585q-215 -22 -402 -22h-77v422h1196v-1198h-422v71q0 151 22 410z" />
    <glyph glyph-name="uni2198" unicode="&#x2198;" horiz-adv-x="1468" 
d="M633 399l-586 584l318 320l585 -586q-22 215 -22 401v78h422v-1196h-1198v422h71q140 0 410 -23z" />
    <glyph glyph-name="uni2199" unicode="&#x2199;" horiz-adv-x="1466" 
d="M518 717l584 586l319 -318l-585 -586q225 23 401 23h78v-422h-1196v1198h422v-72q0 -139 -23 -409z" />
    <glyph glyph-name="uni21A4" unicode="&#x21a4;" horiz-adv-x="1873" 
d="M1298 942v492h431v-1434h-431v492h-489q170 -138 299 -267l61 -61l-292 -293l-848 846l848 848l294 -293l-57 -58q-116 -116 -305 -272h489z" />
    <glyph glyph-name="uni21A5" unicode="&#x21a5;" horiz-adv-x="1763" 
d="M1108 920v-490h491v-430h-1433v430h491v490q-142 -175 -266 -299l-61 -62l-293 293l846 848l848 -848l-293 -295l-58 57q-111 111 -272 306z" />
    <glyph glyph-name="uni21A6" unicode="&#x21a6;" horiz-adv-x="1873" 
d="M705 1270l292 293l848 -846l-848 -848l-295 293l58 57q121 121 305 273h-490v-492h-430v1434h430v-492h490q-175 142 -299 266z" />
    <glyph glyph-name="uni21A7" unicode="&#x21a7;" horiz-adv-x="1763" 
d="M1372 813l62 61l292 -292l-845 -848l-848 848l293 295l57 -58q116 -116 272 -305v490h-491v430h1433v-430h-491v-490q142 175 266 299z" />
    <glyph glyph-name="uni21B0" unicode="&#x21b0;" horiz-adv-x="1800" 
d="M1696 942v-942h-430v492h-447q170 -138 299 -267l58 -57l-299 -297l-848 846l848 848l299 -299l-52 -52q-116 -116 -305 -272h877z" />
    <glyph glyph-name="uni21B1" unicode="&#x21b1;" horiz-adv-x="1798" 
d="M623 1266l299 297l847 -846l-847 -848l-299 299l51 51q121 121 305 273h-444v-492h-431v942h875q-175 142 -299 266z" />
    <glyph glyph-name="uni21B2" unicode="&#x21b2;" horiz-adv-x="1798" 
d="M1264 942v492h430v-942h-875q170 -138 299 -267l58 -57l-299 -297l-848 846l848 848l299 -299l-52 -52q-116 -116 -305 -272h445z" />
    <glyph glyph-name="uni21B3" unicode="&#x21b3;" horiz-adv-x="1800" 
d="M625 1266l299 297l848 -846l-848 -848l-299 299l51 51q121 121 305 273h-877v942h431v-492h446q-175 142 -299 266z" />
    <glyph glyph-name="partialdiff" unicode="&#x2202;" horiz-adv-x="1382" 
d="M645 -37q-87 0 -169.5 17.5t-161 57.5t-137.5 98.5t-94.5 147t-35.5 197.5q0 107 31 192t78 136t108.5 84.5t118 46t111.5 12.5q115 0 196 -41.5t117 -93.5q3 41 -4 77.5t-28.5 71.5t-57 60.5t-94 41t-134.5 15.5q-172 0 -333 -77v397q171 67 422 67q107 0 210 -24.5
t202.5 -83.5t174 -146.5t120.5 -223.5t46 -304q0 -70 -10 -139.5t-34 -142t-60 -136.5t-91.5 -121t-124.5 -97.5t-163 -64.5t-203 -24zM670 356q60 0 96.5 37.5t36.5 100.5q0 58 -36.5 94.5t-96.5 36.5q-56 0 -95.5 -37.5t-39.5 -93.5q0 -61 38.5 -99.5t96.5 -38.5z" />
    <glyph glyph-name="uni2206" unicode="&#x2206;" horiz-adv-x="1738" 
d="M496 1434h743l469 -1434h-1675zM737 629l-59 -221h369l-66 237q-70 262 -117 428q-75 -251 -127 -444z" />
    <glyph glyph-name="product" unicode="&#x220f;" horiz-adv-x="1918" 
d="M49 1434h1821v-410h-236v-1206h-501v1206h-347v-1206h-501v1206h-236v410z" />
    <glyph glyph-name="summation" unicode="&#x2211;" horiz-adv-x="1521" 
d="M1464 -182h-1386v432l446 373l-446 434v377h1366v-410h-158h-538l413 -397l-477 -402h551h229v-407z" />
    <glyph glyph-name="minus" unicode="&#x2212;" horiz-adv-x="1241" 
d="M1151 549h-1061v348h1061v-348z" />
    <glyph glyph-name="uni2215" unicode="&#x2215;" horiz-adv-x="821" 
d="M326 -182h-383l551 1798h383z" />
    <glyph glyph-name="radical" unicode="&#x221a;" horiz-adv-x="1636" 
d="M1034 -182h-557l-237 700h-230v400h525l61 -197l154 -492q37 106 174 486l260 719h518z" />
    <glyph glyph-name="infinity" unicode="&#x221e;" horiz-adv-x="1830" 
d="M518 268q-113 0 -204 37.5t-146.5 100.5t-85 140.5t-29.5 162.5t29.5 162.5t85 140t146.5 100t204 37.5q244 0 397 -203q64 90 165 146.5t233 56.5q113 0 204 -37.5t146.5 -100t85 -140t29.5 -162.5t-29.5 -162.5t-85 -140.5t-146.5 -100.5t-204 -37.5q-252 0 -398 201
q-146 -201 -397 -201zM545 582q37 0 70 24t96 107q-88 123 -166 123q-43 0 -80 -31.5t-37 -95.5t37 -95.5t80 -31.5zM1284 582q43 0 80 31.5t37 95.5t-37 95.5t-80 31.5q-78 0 -166 -123q63 -83 96 -107t70 -24z" />
    <glyph glyph-name="integral" unicode="&#x222b;" horiz-adv-x="903" 
d="M274 -399h-231v428h63q103 0 103 106v873q0 207 113.5 316.5t306.5 109.5h231v-428h-63q-103 0 -103 -107v-872q0 -207 -113.5 -316.5t-306.5 -109.5z" />
    <glyph glyph-name="approxequal" unicode="&#x2248;" horiz-adv-x="1423" 
d="M965 713q-112 0 -199 53l-61 37q-40 24 -55.5 32.5t-47 19.5t-59.5 11q-62 0 -105 -28.5t-76 -110.5l-305 166q48 167 152.5 259.5t249.5 92.5q70 0 123 -20t112 -56l68 -41q58 -36 119 -36q62 0 104.5 28.5t75.5 110.5l305 -166q-48 -167 -152 -259.5t-249 -92.5z
M965 139q-110 0 -199 54l-61 36q-2 1 -17.5 10.5t-18.5 11t-16.5 9.5t-18 9.5t-16.5 7t-18.5 7.5t-17 4.5t-20 3.5t-19.5 1q-62 0 -105 -28.5t-76 -110.5l-305 165q48 167 152.5 260t249.5 93q70 0 123 -20t112 -56l68 -41q60 -37 119 -37q62 0 104.5 28.5t75.5 110.5
l305 -165q-48 -167 -152 -260t-249 -93z" />
    <glyph glyph-name="notequal" unicode="&#x2260;" horiz-adv-x="1241" 
d="M471 162h-309l84 153h-156v328h338l18 33l60 110h-207h-209v328h598l84 154h309l-84 -154h154v-328h-336l-31 -55q-8 -14 -23.5 -43.5t-23.5 -44.5h168h246v-328h-596z" />
    <glyph glyph-name="lessequal" unicode="&#x2264;" horiz-adv-x="1245" 
d="M1147 791v-357l-1061 209v485l1061 244v-354l-180 -31q-118 -21 -339 -56.5t-255 -41.5q49 -6 260 -34.5t325 -41.5zM1147 109h-1061v307h1061v-307z" />
    <glyph glyph-name="greaterequal" unicode="&#x2265;" horiz-adv-x="1247" 
d="M1159 678l-1061 -244v354l181 31q66 12 593 99l-585 75l-189 23v356l1061 -209v-485zM1159 109h-1061v307h1061v-307z" />
    <glyph glyph-name="angleleft" unicode="&#x2329;" horiz-adv-x="817" 
d="M821 1370l-413 -743l419 -754l-366 -201l-502 946l502 949z" />
    <glyph glyph-name="angleright" unicode="&#x232a;" horiz-adv-x="811" 
d="M-12 1366l366 201l502 -946l-502 -949l-360 197l414 743z" />
    <glyph glyph-name="uni2460" unicode="&#x2460;" horiz-adv-x="1849" 
d="M918 -170q-185 0 -349 68t-280.5 184.5t-184 277.5t-67.5 340q0 181 67.5 340.5t184 274t280.5 180.5t349 66t351 -66.5t285 -180.5t188.5 -274t69.5 -340q0 -179 -69.5 -340t-188.5 -277.5t-285 -184.5t-351 -68zM922 88q177 0 312.5 82t207 220.5t71.5 309.5
t-71.5 307.5t-207 216t-312.5 79.5t-311.5 -79.5t-204.5 -216t-70 -307.5q0 -172 70 -310t204.5 -220t311.5 -82zM1143 299h-312v291v203q-72 -181 -237 -187v318q201 3 262 170h287v-795z" />
    <glyph glyph-name="uni2461" unicode="&#x2461;" horiz-adv-x="1849" 
d="M918 -170q-185 0 -349 68t-280.5 184.5t-184 277.5t-67.5 340q0 181 67.5 340.5t184 274t280.5 180.5t349 66t351 -66.5t285 -180.5t188.5 -274t69.5 -340q0 -179 -69.5 -340t-188.5 -277.5t-285 -184.5t-351 -68zM922 88q177 0 312.5 82t207 220.5t71.5 309.5
t-71.5 307.5t-207 216t-312.5 79.5t-311.5 -79.5t-204.5 -216t-70 -307.5q0 -172 70 -310t204.5 -220t311.5 -82zM1251 299h-678v266q388 120 388 258q0 30 -16 46t-42 16q-73 0 -63 -121l-289 33q0 37 10 76.5t36.5 83.5t67.5 78t109.5 56.5t155.5 22.5q151 0 239 -71.5
t88 -184.5q0 -68 -26 -118.5t-84 -96.5q-73 -61 -223 -113h252h75v-231z" />
    <glyph glyph-name="uni2462" unicode="&#x2462;" horiz-adv-x="1849" 
d="M918 -170q-185 0 -349 68t-280.5 184.5t-184 277.5t-67.5 340q0 181 67.5 340.5t184 274t280.5 180.5t349 66t351 -66.5t285 -180.5t188.5 -274t69.5 -340q0 -179 -69.5 -340t-188.5 -277.5t-285 -184.5t-351 -68zM922 88q177 0 312.5 82t207 220.5t71.5 309.5
t-71.5 307.5t-207 216t-312.5 79.5t-311.5 -79.5t-204.5 -216t-70 -307.5q0 -172 70 -310t204.5 -220t311.5 -82zM918 279q-163 0 -262 61.5t-119 175.5l294 57q4 -33 23.5 -50t48.5 -17t46.5 13.5t17.5 37.5q0 22 -17.5 35.5t-44.5 13.5h-69v185h65q32 0 50 14t18 37
t-15.5 36t-40.5 13q-49 0 -61 -60l-291 39q14 109 109.5 176.5t244.5 67.5q148 0 239 -62t91 -161q0 -67 -47 -116t-129 -68q100 -21 149.5 -73t49.5 -126q0 -107 -93.5 -168t-256.5 -61z" />
    <glyph glyph-name="uni2463" unicode="&#x2463;" horiz-adv-x="1849" 
d="M918 -170q-185 0 -349 68t-280.5 184.5t-184 277.5t-67.5 340q0 181 67.5 340.5t184 274t280.5 180.5t349 66t351 -66.5t285 -180.5t188.5 -274t69.5 -340q0 -179 -69.5 -340t-188.5 -277.5t-285 -184.5t-351 -68zM922 88q177 0 312.5 82t207 220.5t71.5 309.5
t-71.5 307.5t-207 216t-312.5 79.5t-311.5 -79.5t-204.5 -216t-70 -307.5q0 -172 70 -310t204.5 -220t311.5 -82zM1165 299h-272v135h-404v215l324 445h352v-447h111v-213h-111v-135zM842 647h51v39v143l-139 -182h88z" />
    <glyph glyph-name="uni2464" unicode="&#x2464;" horiz-adv-x="1849" 
d="M918 -170q-185 0 -349 68t-280.5 184.5t-184 277.5t-67.5 340q0 181 67.5 340.5t184 274t280.5 180.5t349 66t351 -66.5t285 -180.5t188.5 -274t69.5 -340q0 -179 -69.5 -340t-188.5 -277.5t-285 -184.5t-351 -68zM922 88q177 0 312.5 82t207 220.5t71.5 309.5
t-71.5 307.5t-207 216t-312.5 79.5t-311.5 -79.5t-204.5 -216t-70 -307.5q0 -172 70 -310t204.5 -220t311.5 -82zM897 279q-83 0 -152.5 22t-113 57.5t-69.5 75.5t-34 80l287 51q6 -28 24 -45.5t44 -17.5q30 0 49.5 19t19.5 52q0 30 -17 49t-44 19q-42 0 -55 -47l-271 33
l60 467h596v-232h-365l-6 -37q-4 -27 -6 -73q22 27 65 43t95 16q115 0 183 -67.5t68 -180.5q0 -132 -94 -208t-264 -76z" />
    <glyph glyph-name="uni2465" unicode="&#x2465;" horiz-adv-x="1849" 
d="M918 -170q-185 0 -349 68t-280.5 184.5t-184 277.5t-67.5 340q0 181 67.5 340.5t184 274t280.5 180.5t349 66t351 -66.5t285 -180.5t188.5 -274t69.5 -340q0 -179 -69.5 -340t-188.5 -277.5t-285 -184.5t-351 -68zM922 88q177 0 312.5 82t207 220.5t71.5 309.5
t-71.5 307.5t-207 216t-312.5 79.5t-311.5 -79.5t-204.5 -216t-70 -307.5q0 -172 70 -310t204.5 -220t311.5 -82zM909 279q-86 0 -154 25.5t-109 65t-67.5 92.5t-36.5 103t-10 101q0 209 112.5 328.5t309.5 119.5q63 0 132 -13.5t108 -29.5v-229q-111 49 -201 49
q-85 0 -130.5 -35.5t-51.5 -114.5q44 88 184 88q30 0 62.5 -7.5t68 -26t62.5 -46.5t45 -73t18 -101q0 -135 -94 -215.5t-248 -80.5zM895 504q26 0 43.5 20t17.5 51q0 29 -18 48.5t-43 19.5q-26 0 -42.5 -18.5t-16.5 -49.5q0 -33 15.5 -52t43.5 -19z" />
    <glyph glyph-name="uni2466" unicode="&#x2466;" horiz-adv-x="1849" 
d="M918 -170q-185 0 -349 68t-280.5 184.5t-184 277.5t-67.5 340q0 181 67.5 340.5t184 274t280.5 180.5t349 66t351 -66.5t285 -180.5t188.5 -274t69.5 -340q0 -179 -69.5 -340t-188.5 -277.5t-285 -184.5t-351 -68zM922 88q177 0 312.5 82t207 220.5t71.5 309.5
t-71.5 307.5t-207 216t-312.5 79.5t-311.5 -79.5t-204.5 -216t-70 -307.5q0 -172 70 -310t204.5 -220t311.5 -82zM1018 299h-336q0 96 24.5 182t61 146t85.5 109.5t92 78.5t85 47h-143h-271v232h648v-279q-246 -122 -246 -516z" />
    <glyph glyph-name="uni2467" unicode="&#x2467;" horiz-adv-x="1849" 
d="M918 -170q-185 0 -349 68t-280.5 184.5t-184 277.5t-67.5 340q0 181 67.5 340.5t184 274t280.5 180.5t349 66t351 -66.5t285 -180.5t188.5 -274t69.5 -340q0 -179 -69.5 -340t-188.5 -277.5t-285 -184.5t-351 -68zM922 88q177 0 312.5 82t207 220.5t71.5 309.5
t-71.5 307.5t-207 216t-312.5 79.5t-311.5 -79.5t-204.5 -216t-70 -307.5q0 -172 70 -310t204.5 -220t311.5 -82zM922 279q-166 0 -266.5 63.5t-100.5 169.5q0 69 46 120t126 73q-73 23 -113.5 72t-40.5 114q0 100 97 161.5t252 61.5t250.5 -61.5t95.5 -161.5
q0 -65 -41.5 -113.5t-114.5 -72.5q80 -22 127 -73.5t47 -119.5q0 -106 -100 -169.5t-264 -63.5zM920 793q23 0 39 16t16 41q0 28 -15.5 41.5t-39.5 13.5q-54 0 -54 -55q0 -28 15.5 -42.5t38.5 -14.5zM922 500q26 0 43.5 16t17.5 47t-17.5 47.5t-45.5 16.5q-60 0 -60 -64
q0 -31 17.5 -47t44.5 -16z" />
    <glyph glyph-name="uni2468" unicode="&#x2468;" horiz-adv-x="1849" 
d="M918 -170q-185 0 -349 68t-280.5 184.5t-184 277.5t-67.5 340q0 181 67.5 340.5t184 274t280.5 180.5t349 66t351 -66.5t285 -180.5t188.5 -274t69.5 -340q0 -179 -69.5 -340t-188.5 -277.5t-285 -184.5t-351 -68zM922 88q177 0 312.5 82t207 220.5t71.5 309.5
t-71.5 307.5t-207 216t-312.5 79.5t-311.5 -79.5t-204.5 -216t-70 -307.5q0 -172 70 -310t204.5 -220t311.5 -82zM850 279q-134 0 -229 34v230q115 -39 215 -39q99 0 141 37q42 36 39 108q-61 -88 -180 -88q-118 0 -189.5 69t-71.5 187q0 135 94.5 216t248.5 81
q150 0 251 -84q131 -112 131 -307q0 -215 -116 -329.5t-334 -114.5zM928 741q30 0 47.5 19.5t17.5 52.5t-17.5 52.5t-47.5 19.5t-47 -20t-17 -52t17 -52t47 -20z" />
    <glyph glyph-name="uni24EA" unicode="&#x24ea;" horiz-adv-x="1849" 
d="M918 -170q-185 0 -349 68t-280.5 184.5t-184 277.5t-67.5 340q0 181 67.5 340.5t184 274t280.5 180.5t349 66t351 -66.5t285 -180.5t188.5 -274t69.5 -340q0 -179 -69.5 -340t-188.5 -277.5t-285 -184.5t-351 -68zM922 88q177 0 312.5 82t207 220.5t71.5 309.5
t-71.5 307.5t-207 216t-312.5 79.5t-311.5 -79.5t-204.5 -216t-70 -307.5q0 -172 70 -310t204.5 -220t311.5 -82zM920 279q-180 0 -285 110t-105 299q0 192 106.5 309t283.5 117q178 0 285.5 -116.5t107.5 -307.5q0 -189 -106.5 -300t-286.5 -111zM920 510q61 0 61 188
q0 187 -61 187q-58 0 -58 -187q0 -107 14.5 -147.5t43.5 -40.5z" />
    <glyph glyph-name="uni24FF" unicode="&#x24ff;" horiz-adv-x="1845" 
d="M915 -170q176 0 340.5 68.5t286.5 184t195 277.5t73 340q0 179 -73 340t-195 274.5t-286 180t-341 66.5t-339 -66.5t-281 -180t-189.5 -274t-70.5 -340.5q0 -238 119.5 -438.5t322 -316t438.5 -115.5zM918 279q-180 0 -285 110t-105 299q0 192 106.5 309t283.5 117
q178 0 285.5 -116.5t107.5 -307.5q0 -189 -106.5 -300t-286.5 -111zM918 510q61 0 61 188q0 187 -61 187q-58 0 -58 -187q0 -107 14.5 -147.5t43.5 -40.5z" />
    <glyph glyph-name="lozenge" unicode="&#x25ca;" horiz-adv-x="1445" 
d="M963 0h-490l-428 715l412 719h491l453 -719zM807 530l108 185l-104 180q-83 141 -106 178q-53 -101 -95 -176l-94 -182l98 -187l91 -166q46 73 102 168z" />
    <glyph glyph-name="uni274C" unicode="&#x274c;" horiz-adv-x="1511" 
d="M756 442l-477 -475l-277 273l479 475l-479 475l277 276l479 -475l479 475l270 -276l-473 -471l477 -473l-276 -279z" />
    <glyph glyph-name="uni2776" unicode="&#x2776;" horiz-adv-x="1845" 
d="M915 -170q176 0 340.5 68.5t286.5 184t195 277.5t73 340q0 179 -73 340t-195 274.5t-286 180t-341 66.5t-339 -66.5t-281 -180t-189.5 -274t-70.5 -340.5q0 -238 119.5 -438.5t322 -316t438.5 -115.5zM1141 299h-312v291v203q-72 -181 -237 -187v318q201 3 262 170h287
v-795z" />
    <glyph glyph-name="uni2777" unicode="&#x2777;" horiz-adv-x="1845" 
d="M915 -170q176 0 340.5 68.5t286.5 184t195 277.5t73 340q0 179 -73 340t-195 274.5t-286 180t-341 66.5t-339 -66.5t-281 -180t-189.5 -274t-70.5 -340.5q0 -238 119.5 -438.5t322 -316t438.5 -115.5zM1249 299h-678v266q387 120 387 258q0 30 -15.5 46t-41.5 16
q-73 0 -63 -121l-289 33q0 37 10 76.5t36.5 83.5t67.5 78t109.5 56.5t155.5 22.5q151 0 239 -71.5t88 -184.5q0 -68 -26 -118.5t-84 -96.5q-73 -61 -223 -113h252h75v-231z" />
    <glyph glyph-name="uni2778" unicode="&#x2778;" horiz-adv-x="1845" 
d="M915 -170q176 0 340.5 68.5t286.5 184t195 277.5t73 340q0 179 -73 340t-195 274.5t-286 180t-341 66.5t-339 -66.5t-281 -180t-189.5 -274t-70.5 -340.5q0 -238 119.5 -438.5t322 -316t438.5 -115.5zM915 279q-163 0 -261.5 61.5t-118.5 175.5l294 57q4 -33 23.5 -50
t48.5 -17t46.5 13.5t17.5 37.5q0 22 -17.5 35.5t-44.5 13.5h-69v185h65q32 0 50 14t18 37t-15.5 36t-40.5 13q-49 0 -61 -60l-291 39q14 109 109.5 176.5t244.5 67.5q148 0 239 -62t91 -161q0 -67 -47 -116t-129 -68q100 -21 149.5 -73t49.5 -126q0 -107 -94 -168t-257 -61z
" />
    <glyph glyph-name="uni2779" unicode="&#x2779;" horiz-adv-x="1845" 
d="M915 -170q176 0 340.5 68.5t286.5 184t195 277.5t73 340q0 179 -73 340t-195 274.5t-286 180t-341 66.5t-339 -66.5t-281 -180t-189.5 -274t-70.5 -340.5q0 -238 119.5 -438.5t322 -316t438.5 -115.5zM1163 299h-272v135h-404v215l324 445h352v-447h111v-213h-111v-135z
M840 647h51v39v143l-139 -182h88z" />
    <glyph glyph-name="uni277A" unicode="&#x277a;" horiz-adv-x="1845" 
d="M915 -170q176 0 340.5 68.5t286.5 184t195 277.5t73 340q0 179 -73 340t-195 274.5t-286 180t-341 66.5t-339 -66.5t-281 -180t-189.5 -274t-70.5 -340.5q0 -238 119.5 -438.5t322 -316t438.5 -115.5zM895 279q-83 0 -152.5 22t-113 57.5t-69.5 75.5t-34 80l287 51
q6 -28 24 -45.5t44 -17.5q30 0 49.5 19t19.5 52q0 30 -17 49t-44 19q-42 0 -55 -47l-271 33l60 467h596v-232h-365l-6 -37q-4 -27 -6 -73q22 27 64.5 43t94.5 16q115 0 183.5 -67.5t68.5 -180.5q0 -132 -94 -208t-264 -76z" />
    <glyph glyph-name="uni277B" unicode="&#x277b;" horiz-adv-x="1845" 
d="M915 -170q176 0 340.5 68.5t286.5 184t195 277.5t73 340q0 179 -73 340t-195 274.5t-286 180t-341 66.5t-339 -66.5t-281 -180t-189.5 -274t-70.5 -340.5q0 -238 119.5 -438.5t322 -316t438.5 -115.5zM907 279q-86 0 -154 25.5t-109 65t-67.5 92.5t-36.5 103t-10 101
q0 209 112.5 328.5t309.5 119.5q63 0 132 -13.5t108 -29.5v-229q-111 49 -201 49q-85 0 -130.5 -35.5t-51.5 -114.5q44 88 184 88q30 0 62.5 -7.5t68 -26t62.5 -46.5t45 -73t18 -101q0 -135 -94 -215.5t-248 -80.5zM893 504q26 0 43.5 20t17.5 51q0 29 -18 48.5t-43 19.5
q-26 0 -42.5 -18.5t-16.5 -49.5q0 -33 15.5 -52t43.5 -19z" />
    <glyph glyph-name="uni277C" unicode="&#x277c;" horiz-adv-x="1845" 
d="M915 -170q176 0 340.5 68.5t286.5 184t195 277.5t73 340q0 179 -73 340t-195 274.5t-286 180t-341 66.5t-339 -66.5t-281 -180t-189.5 -274t-70.5 -340.5q0 -238 119.5 -438.5t322 -316t438.5 -115.5zM1016 299h-336q0 96 24.5 182t61 146t85.5 109.5t92 78.5t85 47h-143
h-271v232h648v-279q-246 -122 -246 -516z" />
    <glyph glyph-name="uni277D" unicode="&#x277d;" horiz-adv-x="1845" 
d="M915 -170q176 0 340.5 68.5t286.5 184t195 277.5t73 340q0 179 -73 340t-195 274.5t-286 180t-341 66.5t-339 -66.5t-281 -180t-189.5 -274t-70.5 -340.5q0 -238 119.5 -438.5t322 -316t438.5 -115.5zM920 279q-166 0 -266.5 63.5t-100.5 169.5q0 69 46 120t126 73
q-73 23 -113.5 72t-40.5 114q0 100 97 161.5t252 61.5t250.5 -61.5t95.5 -161.5q0 -65 -41.5 -113.5t-114.5 -72.5q80 -22 127 -73.5t47 -119.5q0 -106 -100 -169.5t-264 -63.5zM918 793q23 0 39 16t16 41q0 28 -15.5 41.5t-39.5 13.5q-54 0 -54 -55q0 -28 15.5 -42.5
t38.5 -14.5zM920 500q26 0 43.5 16t17.5 47t-17.5 47.5t-45.5 16.5q-60 0 -60 -64q0 -31 17.5 -47t44.5 -16z" />
    <glyph glyph-name="uni277E" unicode="&#x277e;" horiz-adv-x="1845" 
d="M915 -170q176 0 340.5 68.5t286.5 184t195 277.5t73 340q0 179 -73 340t-195 274.5t-286 180t-341 66.5t-339 -66.5t-281 -180t-189.5 -274t-70.5 -340.5q0 -238 119.5 -438.5t322 -316t438.5 -115.5zM852 279q-134 0 -229 34v230q115 -39 215 -39q99 0 141 37
q42 36 39 108q-61 -88 -180 -88q-118 0 -189 69t-71 187q0 135 94 216t248 81q150 0 251 -84q132 -113 132 -307q0 -215 -116.5 -329.5t-334.5 -114.5zM930 741q30 0 47.5 19.5t17.5 52.5t-17.5 52.5t-47.5 19.5t-47 -20t-17 -52t17 -52t47 -20z" />
    <glyph glyph-name="uni300A" unicode="&#x300a;" horiz-adv-x="1548" 
d="M461 1567l360 -197l-413 -743l419 -754l-366 -201l-502 946zM1552 1370l-413 -743l420 -754l-367 -201l-502 946l502 949z" />
    <glyph glyph-name="uni300B" unicode="&#x300b;" horiz-adv-x="1542" 
d="M-12 1366l366 201l502 -946l-502 -949l-360 197l414 743zM719 1366l366 201l502 -946l-502 -949l-360 197l414 743z" />
    <glyph glyph-name="uni300C" unicode="&#x300c;" horiz-adv-x="862" 
d="M522 608h-432v938h758v-360h-326v-578z" />
    <glyph glyph-name="uni300D" unicode="&#x300d;" horiz-adv-x="854" 
d="M338 631h432v-938h-758v360h326v578z" />
    <glyph glyph-name="uni300E" unicode="&#x300e;" horiz-adv-x="1257" 
d="M885 270h-791v1276h1102v-741h-311v-535zM401 1249v-682h211v475h277v207h-488z" />
    <glyph glyph-name="uni300F" unicode="&#x300f;" horiz-adv-x="1236" 
d="M362 969h791v-1276h-1102v741h311v535zM846 -10v682h-211v-475h-277v-207h488z" />
    <glyph glyph-name="uni3010" unicode="&#x3010;" horiz-adv-x="876" 
d="M926 -307h-834v1853h834q-383 -419 -383 -923q0 -509 383 -930z" />
    <glyph glyph-name="uni3011" unicode="&#x3011;" horiz-adv-x="874" 
d="M-51 1544h833v-1853h-833q383 419 383 923q0 509 -383 930z" />
    <glyph glyph-name="uni3014" unicode="&#x3014;" horiz-adv-x="813" 
d="M831 1305l-356 -365v-614l354 -392l-280 -262l-490 531v839l496 525z" />
    <glyph glyph-name="uni3015" unicode="&#x3015;" horiz-adv-x="813" 
d="M-16 1305l280 262l490 -531v-839l-496 -525l-276 262l356 365v614z" />
    <glyph glyph-name="plus.alt" unicode="&#xe000;" horiz-adv-x="1507" 
d="M961 0h-416v530h-498v369h498v535h416v-535h499v-369h-499v-530z" />
    <glyph glyph-name="minus.alt" unicode="&#xe001;" horiz-adv-x="1593" 
d="M1503 530h-1413v369h1413v-369z" />
    <glyph glyph-name="multiply.alt" unicode="&#xe002;" horiz-adv-x="1601" 
d="M801 442l-477 -475l-277 273l479 475l-479 475l277 276l479 -475l479 475l270 -276l-473 -471l477 -473l-276 -279z" />
    <glyph glyph-name="uniE003" unicode="&#xe003;" horiz-adv-x="1634" 
d="M1667 1292l-1038 -1323l-660 826l322 262l356 -443l715 922z" />
    <glyph glyph-name="uniE004" unicode="&#xe004;" horiz-adv-x="1818" 
d="M1702 1018h-1585v336h1585v-336zM1702 549h-1585v315h1585v-315zM1702 59h-1585v336h1585v-336z" />
    <glyph glyph-name="uniE005" unicode="&#xe005;" horiz-adv-x="1634" 
d="M1534 0h-1434v1405h1434v-1405zM434 1100v-795h766v795h-766z" />
    <glyph glyph-name="uniE006" unicode="&#xe006;" horiz-adv-x="1634" 
d="M1688 1323l-826 -1001l-403 483l209 184l67 -82q41 -51 127 -153q113 142 180 223l418 524zM1550 0h-1433v1405h897v-305h-563v-795h766v359h333v-664z" />
    <glyph glyph-name="uniE007" unicode="&#xe007;" horiz-adv-x="1634" 
d="M1534 0h-1434v1405h1434v-1405zM434 1100v-795h766v795h-766zM1020 483h-406v439h406v-439z" />
    <glyph glyph-name="uniE008" unicode="&#xe008;" horiz-adv-x="1673" 
d="M1628 1198l-792 -788l-793 788l281 272l41 -43q164 -172 247 -301v772h447v-772q81 126 248 301l41 43zM1554 0h-1433v410h1433v-410z" />
    <glyph glyph-name="uniE009" unicode="&#xe009;" horiz-adv-x="1673" 
d="M1628 1382l-792 -788l-793 788l281 273l41 -43q149 -149 247 -301v772h447v-772q96 149 248 301l41 43zM1552 0h-1433v410h1433v-410z" />
    <glyph glyph-name="uniF8FF" unicode="&#xf8ff;" horiz-adv-x="1986" 
d="M1843 299q43 -161 39 -338l-100 -22q-38 10 -111 75q11 -142 -24 -235l-50 -8q-87 14 -147.5 36t-113 63t-89.5 107t-65 164q-4 14 -16 64t-19 78q-5 -7 -16.5 -30.5t-32 -54t-51.5 -63.5q-46 17 -80.5 43.5t-55 52t-37 64t-23.5 65t-17 70.5q-23 105 -48 152
q-24 46 -62 67.5t-101 38.5q-43 12 -67 20.5t-63.5 27.5t-72.5 49.5t-64 74.5l230 170l-60 57q-20 0 -67 -2t-70 -2q-119 0 -203 63t-84 157q0 188 222 188q144 0 258 -119q-82 142 -82 252q0 71 40.5 111.5t123.5 40.5q86 0 149.5 -47t63.5 -132q0 -21 -2 -41.5t-4 -35.5
t-9 -36.5t-10.5 -32t-14.5 -35.5t-15 -33.5t-19 -39.5t-19 -40l70 -72l96 72q104 -49 196 -125t151.5 -152.5t91 -125.5t47.5 -83q75 -21 143 -74.5t118 -126t87 -152.5t59 -165z" />
    <glyph glyph-name="G.ss03" horiz-adv-x="1660" 
d="M850 -37q-385 0 -593 191t-208 548q0 165 51 303.5t150.5 243t258 163t361.5 58.5q140 0 258 -26.5t198 -68t141.5 -98t96 -112t54.5 -114.5l-539 -179q-25 80 -82 134.5t-147 54.5q-114 0 -178 -98t-64 -271q0 -368 238 -368q88 0 140 36t63 103h-222v338h770
q18 -179 -22 -331.5t-132.5 -265.5t-244.5 -177t-348 -64z" />
    <glyph glyph-name="Gbreve.ss03" horiz-adv-x="1660" 
d="M872 1513q-122 0 -217 28.5t-154 79.5t-91 115t-37 140h315q1 -13 10 -33t28 -44t57 -41t87 -17t86 16.5t55 41.5t26.5 44t9.5 33h315q-8 -77 -39 -140.5t-87.5 -114.5t-149.5 -79.5t-214 -28.5zM850 -37q-385 0 -593 191t-208 548q0 165 51 303.5t150.5 243t258 163
t361.5 58.5q140 0 258 -26.5t198 -68t141.5 -98t96 -112t54.5 -114.5l-539 -179q-25 80 -82 134.5t-147 54.5q-114 0 -178 -98t-64 -271q0 -368 238 -368q88 0 140 36t63 103h-222v338h770q18 -179 -22 -331.5t-132.5 -265.5t-244.5 -177t-348 -64z" />
    <glyph glyph-name="Gcircumflex.ss03" horiz-adv-x="1660" 
d="M733 1559h-414l263 315h567l260 -315h-414l-131 151zM850 -37q-385 0 -593 191t-208 548q0 165 51 303.5t150.5 243t258 163t361.5 58.5q140 0 258 -26.5t198 -68t141.5 -98t96 -112t54.5 -114.5l-539 -179q-25 80 -82 134.5t-147 54.5q-114 0 -178 -98t-64 -271
q0 -368 238 -368q88 0 140 36t63 103h-222v338h770q18 -179 -22 -331.5t-132.5 -265.5t-244.5 -177t-348 -64z" />
    <glyph glyph-name="uni0122.ss03" horiz-adv-x="1660" 
d="M850 -37q-385 0 -593 191t-208 548q0 165 51 303.5t150.5 243t258 163t361.5 58.5q140 0 258 -26.5t198 -68t141.5 -98t96 -112t54.5 -114.5l-539 -179q-25 80 -82 134.5t-147 54.5q-114 0 -178 -98t-64 -271q0 -368 238 -368q88 0 140 36t63 103h-222v338h770
q18 -179 -22 -331.5t-132.5 -265.5t-244.5 -177t-348 -64zM926 -791h-201l223 328h-223v359h414v-359z" />
    <glyph glyph-name="Gdotaccent.ss03" horiz-adv-x="1660" 
d="M1071 1536h-409v358h409v-358zM850 -37q-385 0 -593 191t-208 548q0 165 51 303.5t150.5 243t258 163t361.5 58.5q140 0 258 -26.5t198 -68t141.5 -98t96 -112t54.5 -114.5l-539 -179q-25 80 -82 134.5t-147 54.5q-114 0 -178 -98t-64 -271q0 -368 238 -368q88 0 140 36
t63 103h-222v338h770q18 -179 -22 -331.5t-132.5 -265.5t-244.5 -177t-348 -64z" />
    <glyph glyph-name="a.ss01" horiz-adv-x="1343" 
d="M477 -37q-206 0 -322 151t-116 404q0 250 119.5 401.5t318.5 151.5q97 0 178.5 -45.5t128.5 -120.5v129h486v-1034h-486v131q-17 -28 -41 -53.5t-61.5 -53.5t-90.5 -44.5t-114 -16.5zM670 272q57 0 90 62t33 186q0 240 -123 240t-123 -240q0 -124 33 -186t90 -62z" />
    <glyph glyph-name="aacute.ss01" horiz-adv-x="1343" 
d="M838 1159h-312l103 316h479zM477 -37q-206 0 -322 151t-116 404q0 250 119.5 401.5t318.5 151.5q97 0 178.5 -45.5t128.5 -120.5v129h486v-1034h-486v131q-17 -28 -41 -53.5t-61.5 -53.5t-90.5 -44.5t-114 -16.5zM670 272q57 0 90 62t33 186q0 240 -123 240t-123 -240
q0 -124 33 -186t90 -62z" />
    <glyph glyph-name="abreve.ss01" horiz-adv-x="1343" 
d="M692 1130q-216 0 -330 97t-124 248h286q1 -13 9.5 -32t25.5 -42t51.5 -39t79.5 -16t78.5 16t49.5 39t23.5 41.5t8.5 32.5h287q-7 -73 -35 -133t-80 -108.5t-136 -76t-194 -27.5zM477 -37q-206 0 -322 151t-116 404q0 250 119.5 401.5t318.5 151.5q97 0 178.5 -45.5
t128.5 -120.5v129h486v-1034h-486v131q-17 -28 -41 -53.5t-61.5 -53.5t-90.5 -44.5t-114 -16.5zM670 272q57 0 90 62t33 186q0 240 -123 240t-123 -240q0 -124 33 -186t90 -62z" />
    <glyph glyph-name="acircumflex.ss01" horiz-adv-x="1343" 
d="M565 1159h-377l238 316h516l238 -316h-377l-119 152zM477 -37q-206 0 -322 151t-116 404q0 250 119.5 401.5t318.5 151.5q97 0 178.5 -45.5t128.5 -120.5v129h486v-1034h-486v131q-17 -28 -41 -53.5t-61.5 -53.5t-90.5 -44.5t-114 -16.5zM670 272q57 0 90 62t33 186
q0 240 -123 240t-123 -240q0 -124 33 -186t90 -62z" />
    <glyph glyph-name="adieresis.ss01" horiz-adv-x="1343" 
d="M625 1159h-408v316h408v-316zM1155 1159h-407v316h407v-316zM477 -37q-206 0 -322 151t-116 404q0 250 119.5 401.5t318.5 151.5q97 0 178.5 -45.5t128.5 -120.5v129h486v-1034h-486v131q-17 -28 -41 -53.5t-61.5 -53.5t-90.5 -44.5t-114 -16.5zM670 272q57 0 90 62
t33 186q0 240 -123 240t-123 -240q0 -124 33 -186t90 -62z" />
    <glyph glyph-name="uni0227.ss01" horiz-adv-x="1343" 
d="M889 1137h-410v358h410v-358zM477 -37q-206 0 -322 151t-116 404q0 250 119.5 401.5t318.5 151.5q97 0 178.5 -45.5t128.5 -120.5v129h486v-1034h-486v131q-17 -28 -41 -53.5t-61.5 -53.5t-90.5 -44.5t-114 -16.5zM670 272q57 0 90 62t33 186q0 240 -123 240t-123 -240
q0 -124 33 -186t90 -62z" />
    <glyph glyph-name="agrave.ss01" horiz-adv-x="1343" 
d="M842 1159h-312l-270 316h479zM477 -37q-206 0 -322 151t-116 404q0 250 119.5 401.5t318.5 151.5q97 0 178.5 -45.5t128.5 -120.5v129h486v-1034h-486v131q-17 -28 -41 -53.5t-61.5 -53.5t-90.5 -44.5t-114 -16.5zM670 272q57 0 90 62t33 186q0 240 -123 240t-123 -240
q0 -124 33 -186t90 -62z" />
    <glyph glyph-name="amacron.ss01" horiz-adv-x="1343" 
d="M1040 1180h-708v254h708v-254zM477 -37q-206 0 -322 151t-116 404q0 250 119.5 401.5t318.5 151.5q97 0 178.5 -45.5t128.5 -120.5v129h486v-1034h-486v131q-17 -28 -41 -53.5t-61.5 -53.5t-90.5 -44.5t-114 -16.5zM670 272q57 0 90 62t33 186q0 240 -123 240t-123 -240
q0 -124 33 -186t90 -62z" />
    <glyph glyph-name="aogonek.ss01" horiz-adv-x="1343" 
d="M1270 1034v-1034q-266 -70 -266 -123q0 -41 67 -41q86 0 199 47v-276q-70 -30 -123.5 -43t-124.5 -13t-127 20.5t-89 53.5t-50 71.5t-17 78.5q0 144 146 225h-101v131q-17 -28 -41 -53.5t-61.5 -53.5t-90.5 -44.5t-114 -16.5q-206 0 -322 151t-116 404q0 250 119.5 401.5
t318.5 151.5q97 0 178.5 -45.5t128.5 -120.5v129h486zM670 272q57 0 90 62t33 186q0 240 -123 240t-123 -240q0 -124 33 -186t90 -62z" />
    <glyph glyph-name="aring.ss01" horiz-adv-x="1343" 
d="M686 1118q-118 0 -211.5 73t-93.5 193q0 130 93.5 216t211.5 86q123 0 213 -82t90 -207q0 -126 -89 -202.5t-214 -76.5zM686 1319q38 0 61 23.5t23 60.5t-23 59.5t-61 22.5t-61 -22.5t-23 -59.5t23 -60.5t61 -23.5zM477 -37q-206 0 -322 151t-116 404q0 250 119.5 401.5
t318.5 151.5q97 0 178.5 -45.5t128.5 -120.5v129h486v-1034h-486v131q-17 -28 -41 -53.5t-61.5 -53.5t-90.5 -44.5t-114 -16.5zM670 272q57 0 90 62t33 186q0 240 -123 240t-123 -240q0 -124 33 -186t90 -62z" />
    <glyph glyph-name="atilde.ss01" horiz-adv-x="1343" 
d="M893 1139q-106 0 -205 57l-43 25q-4 2 -15.5 8.5t-16 9t-14.5 7t-17 6.5t-16.5 3.5t-18.5 1.5q-35 0 -53.5 -26.5t-18.5 -71.5h-266q-14 157 54.5 246.5t219.5 89.5q97 0 195 -59l47 -27q57 -33 98 -33q35 0 53.5 27t18.5 72h264q14 -155 -54 -245.5t-212 -90.5zM477 -37
q-206 0 -322 151t-116 404q0 250 119.5 401.5t318.5 151.5q97 0 178.5 -45.5t128.5 -120.5v129h486v-1034h-486v131q-17 -28 -41 -53.5t-61.5 -53.5t-90.5 -44.5t-114 -16.5zM670 272q57 0 90 62t33 186q0 240 -123 240t-123 -240q0 -124 33 -186t90 -62z" />
    <glyph glyph-name="g.ss02" horiz-adv-x="1345" 
d="M645 -436q-137 0 -247 24.5t-177 61.5t-113 87t-65.5 95t-24.5 92l539 68q19 -105 107 -105q106 0 106 136v163q-36 -66 -116.5 -114.5t-196.5 -48.5q-104 0 -185.5 43t-130.5 116t-74.5 164.5t-25.5 194.5q0 89 15.5 167.5t48.5 145.5t81.5 115t117.5 75t153 27
q120 0 200.5 -58t112.5 -136v157h504v-895q0 -162 -37 -272.5t-116.5 -177.5t-194.5 -96t-281 -29zM672 334q108 0 108 207q0 110 -25.5 155t-82.5 45t-83 -45t-26 -155q0 -207 109 -207z" />
    <glyph glyph-name="gbreve.ss02" horiz-adv-x="1345" 
d="M721 1130q-216 0 -330.5 97t-124.5 248h287q1 -13 9.5 -32t25.5 -42t51.5 -39t79.5 -16t78.5 16t49.5 39t23.5 41.5t8.5 32.5h286q-7 -73 -35 -133t-79.5 -108.5t-135.5 -76t-194 -27.5zM645 -436q-137 0 -247 24.5t-177 61.5t-113 87t-65.5 95t-24.5 92l539 68
q19 -105 107 -105q106 0 106 136v163q-36 -66 -116.5 -114.5t-196.5 -48.5q-104 0 -185.5 43t-130.5 116t-74.5 164.5t-25.5 194.5q0 89 15.5 167.5t48.5 145.5t81.5 115t117.5 75t153 27q120 0 200.5 -58t112.5 -136v157h504v-895q0 -162 -37 -272.5t-116.5 -177.5
t-194.5 -96t-281 -29zM672 334q108 0 108 207q0 110 -25.5 155t-82.5 45t-83 -45t-26 -155q0 -207 109 -207z" />
    <glyph glyph-name="gcircumflex.ss02" horiz-adv-x="1345" 
d="M594 1159h-377l238 316h516l237 -316h-377l-118 152zM645 -436q-137 0 -247 24.5t-177 61.5t-113 87t-65.5 95t-24.5 92l539 68q19 -105 107 -105q106 0 106 136v163q-36 -66 -116.5 -114.5t-196.5 -48.5q-104 0 -185.5 43t-130.5 116t-74.5 164.5t-25.5 194.5
q0 89 15.5 167.5t48.5 145.5t81.5 115t117.5 75t153 27q120 0 200.5 -58t112.5 -136v157h504v-895q0 -162 -37 -272.5t-116.5 -177.5t-194.5 -96t-281 -29zM672 334q108 0 108 207q0 110 -25.5 155t-82.5 45t-83 -45t-26 -155q0 -207 109 -207z" />
    <glyph glyph-name="uni0123.ss02" horiz-adv-x="1345" 
d="M727 1843h201l-223 -327h223v-359h-414v359zM645 -436q-137 0 -247 24.5t-177 61.5t-113 87t-65.5 95t-24.5 92l539 68q19 -105 107 -105q106 0 106 136v163q-36 -66 -116.5 -114.5t-196.5 -48.5q-104 0 -185.5 43t-130.5 116t-74.5 164.5t-25.5 194.5q0 89 15.5 167.5
t48.5 145.5t81.5 115t117.5 75t153 27q120 0 200.5 -58t112.5 -136v157h504v-895q0 -162 -37 -272.5t-116.5 -177.5t-194.5 -96t-281 -29zM672 334q108 0 108 207q0 110 -25.5 155t-82.5 45t-83 -45t-26 -155q0 -207 109 -207z" />
    <glyph glyph-name="gdotaccent.ss02" horiz-adv-x="1345" 
d="M918 1137h-410v358h410v-358zM645 -436q-137 0 -247 24.5t-177 61.5t-113 87t-65.5 95t-24.5 92l539 68q19 -105 107 -105q106 0 106 136v163q-36 -66 -116.5 -114.5t-196.5 -48.5q-104 0 -185.5 43t-130.5 116t-74.5 164.5t-25.5 194.5q0 89 15.5 167.5t48.5 145.5
t81.5 115t117.5 75t153 27q120 0 200.5 -58t112.5 -136v157h504v-895q0 -162 -37 -272.5t-116.5 -177.5t-194.5 -96t-281 -29zM672 334q108 0 108 207q0 110 -25.5 155t-82.5 45t-83 -45t-26 -155q0 -207 109 -207z" />
    <glyph glyph-name="i.loclTRK" horiz-adv-x="649" 
d="M575 1137h-503v358h503v-358zM575 0h-501v1034h501v-1034z" />
    <glyph glyph-name="zero.osf" horiz-adv-x="1464" 
d="M731 -37q-315 0 -499.5 148.5t-184.5 402.5t185 405.5t499 151.5t500 -151.5t186 -405.5q0 -253 -185.5 -402t-500.5 -149zM731 274q69 0 116.5 55.5t47.5 184.5q0 133 -47.5 189.5t-116.5 56.5t-115.5 -56t-46.5 -190q0 -129 46.5 -184.5t115.5 -55.5z" />
    <glyph glyph-name="one.osf" horiz-adv-x="1017" 
d="M932 0h-490v401v189q-66 -166 -170 -245t-217 -81v494q300 4 439 276h438v-1034z" />
    <glyph glyph-name="two.osf" horiz-adv-x="1222" 
d="M1153 -6h-1083v346q261 68 395 115t190 90.5t56 99.5q0 42 -27.5 68t-75.5 26q-19 0 -35.5 -5t-28 -11.5t-21.5 -19.5t-15.5 -22t-11.5 -25t-7.5 -23t-5.5 -23t-4 -18l-434 65q7 87 46.5 161t110.5 131t182 89.5t251 32.5q246 0 383 -98t137 -244q0 -160 -156 -260
q-68 -45 -159 -82.5t-176 -56.5h395h94v-336z" />
    <glyph glyph-name="three.osf" horiz-adv-x="1318" 
d="M655 -436q-576 0 -643 420l475 86q14 -72 53 -99.5t105 -27.5q63 0 102 33t39 90q0 53 -43 85.5t-108 34.5h-189v301l189 2q64 0 105.5 30.5t41.5 82.5q0 49 -34 78t-97 29q-125 0 -133 -136l-479 68q5 60 30 119.5t75.5 116t120 99.5t170.5 69t220 26q147 0 261 -31
t184 -85.5t105.5 -124.5t35.5 -152q0 -71 -27.5 -131t-74.5 -101.5t-106 -69t-126 -40.5q69 -10 132.5 -37.5t117.5 -71.5t86.5 -111t32.5 -147q0 -101 -47.5 -179.5t-132 -127t-196.5 -73.5t-245 -25z" />
    <glyph glyph-name="four.osf" horiz-adv-x="1431" 
d="M1190 -401h-451v401h-706v338l520 696h637v-706h205v-328h-205v-401zM465 328h194h80v116v277z" />
    <glyph glyph-name="five.osf" horiz-adv-x="1304" 
d="M649 -436q-140 0 -255 35.5t-190 96.5t-121.5 134t-64.5 156l453 82q21 -140 160 -140q56 0 97.5 38.5t41.5 115.5q0 78 -38.5 117t-96.5 39q-44 0 -79 -22.5t-50 -59.5l-424 34l102 844h1016v-379h-668l-8 -73l-20 -156q40 38 116 61t164 23q64 0 128 -13.5t130 -47.5
t116.5 -84t82 -130.5t31.5 -179.5q0 -225 -164 -358t-459 -133z" />
    <glyph glyph-name="six.osf" horiz-adv-x="1333" 
d="M705 -37q-105 0 -195.5 23.5t-156.5 63.5t-118.5 96t-87 118t-57 132t-32 136t-9.5 132q0 158 41 292t110.5 227t162 159t195.5 97t210 31q142 0 252 -24t158 -51v-379q-162 71 -320 71q-152 0 -237.5 -81.5t-83.5 -196.5q38 55 113 93t186 38q58 0 117 -13.5t120 -47
t107.5 -83.5t76 -131.5t29.5 -183.5q0 -108 -35 -197t-92 -147.5t-133.5 -98.5t-157 -57.5t-163.5 -17.5zM680 342q62 0 103.5 42.5t41.5 109.5q0 62 -42 103.5t-103 41.5q-63 0 -102 -41t-39 -104q0 -69 39 -110.5t102 -41.5z" />
    <glyph glyph-name="seven.osf" horiz-adv-x="1169" 
d="M680 -403h-518q0 128 24.5 248t64 212.5t93 177t106.5 143.5t109.5 112t98 83t76 54t38.5 28h-313h-436v379h1120v-479q-130 -70 -224 -179t-144 -239.5t-72.5 -262.5t-22.5 -277z" />
    <glyph glyph-name="eight.osf" horiz-adv-x="1349" 
d="M676 -37q-182 0 -320.5 43t-221.5 136t-83 227q0 81 32.5 147.5t86 110t116 70t130.5 36.5q-147 25 -239.5 112t-92.5 230q0 177 162.5 286t429.5 109q266 0 427 -108.5t161 -286.5q0 -142 -91 -229t-241 -113q68 -10 130.5 -37t116.5 -70.5t86.5 -110t32.5 -146.5
q0 -134 -82.5 -227t-220 -136t-319.5 -43zM676 883q64 0 100.5 34t36.5 93q0 61 -35.5 97t-101.5 36q-67 0 -104 -35.5t-37 -97.5q0 -58 38 -92.5t103 -34.5zM676 301q69 0 112 43t43 109q0 63 -43 103t-112 40t-111.5 -40t-42.5 -103q0 -67 41.5 -109.5t112.5 -42.5z" />
    <glyph glyph-name="nine.osf" horiz-adv-x="1368" 
d="M530 -436q-250 0 -401 63v377q179 -74 371 -74q149 0 235 71.5t86 207.5q-110 -139 -321 -139q-54 0 -111.5 14t-119 48.5t-109 85.5t-78.5 133.5t-31 183.5q0 113 34.5 205t92 152.5t134.5 101.5t159.5 59t169.5 18q205 0 360.5 -93t238.5 -257.5t83 -376.5
q0 -164 -43 -296t-116.5 -221t-175.5 -149.5t-216 -87t-242 -26.5zM659 373q69 0 111.5 43.5t42.5 111.5q0 73 -42.5 117.5t-111.5 44.5q-65 0 -109 -45.5t-44 -116.5q0 -67 44.5 -111t108.5 -44z" />
    <glyph glyph-name="zero.tf" 
d="M631 -37q-266 0 -423 197t-157 542q0 228 71 402t203 270t306 96q176 0 309.5 -94.5t206 -268.5t72.5 -402q0 -344 -159.5 -543t-428.5 -199zM631 354q62 0 93.5 84.5t31.5 280.5q0 190 -31 277t-94 87q-61 0 -89 -86t-28 -278q0 -135 13.5 -216.5t38.5 -115t65 -33.5z
" />
    <glyph glyph-name="one.tf" 
d="M969 1434v-1045h248v-389h-1108v389h383v307v252q-106 -294 -381 -325v497q314 22 419 314h439z" />
    <glyph glyph-name="two.tf" 
d="M1182 0h-1088v465q643 227 643 487q0 65 -31 99t-79 34q-131 0 -131 -231l-437 61q-3 55 8 114.5t36.5 123t72 119.5t108.5 101t153 71t200 26q157 0 281.5 -53t199 -159t74.5 -250q0 -224 -176 -379q-148 -134 -430 -240h434h162v-389z" />
    <glyph glyph-name="three.tf" 
d="M641 -37q-264 0 -430 102.5t-203 305.5l463 110q29 -137 143 -137q57 0 91 29.5t34 77.5q0 51 -38 83.5t-95 32.5h-170v318h164q56 0 91.5 26t35.5 74q0 44 -30 71t-79 27q-94 0 -120 -112l-447 80q15 188 175.5 303.5t410.5 115.5q240 0 392.5 -108t152.5 -287
q0 -133 -83 -221.5t-235 -116.5q159 -24 258 -124t99 -244q0 -187 -149 -296.5t-431 -109.5z" />
    <glyph glyph-name="four.tf" 
d="M1044 0h-401v252h-623v354l461 828h563v-828h179v-354h-179v-252zM578 606h65v90v353l-242 -443h177z" />
    <glyph glyph-name="five.tf" 
d="M627 -37q-133 0 -240 35.5t-176.5 97t-111.5 134.5t-60 157l428 80q10 -53 45 -88t100 -35q51 0 88 35t37 108q0 70 -37.5 105t-85.5 35q-82 0 -116 -92l-402 57l99 842h948v-390h-621l-14 -118q-11 -82 -16 -131q38 57 111.5 85.5t160.5 28.5q63 0 122 -13.5
t117.5 -46.5t102 -83t70 -129.5t26.5 -179.5q0 -230 -143.5 -362t-431.5 -132z" />
    <glyph glyph-name="six.tf" 
d="M668 -37q-139 0 -248.5 45t-176.5 115.5t-111 165.5t-60.5 186.5t-16.5 186.5q0 170 38.5 307.5t103.5 229.5t154.5 154t188.5 89.5t208 27.5q118 0 222.5 -24.5t147.5 -50.5v-383q-160 69 -305 69q-61 0 -113 -15.5t-95 -47.5t-67.5 -86.5t-25.5 -126.5q32 59 104.5 100
t184.5 41q50 0 102.5 -12.5t110 -45.5t102.5 -82.5t74 -131t29 -182.5q0 -111 -32.5 -202t-86.5 -151t-126.5 -100.5t-149 -58t-156.5 -17.5zM643 350q56 0 94.5 40.5t38.5 103.5q0 59 -39 98t-94 39q-57 0 -92 -38.5t-35 -98.5q0 -66 35 -105t92 -39z" />
    <glyph glyph-name="seven.tf" 
d="M743 0h-544q-1 104 15 201.5t42.5 176.5t67 154t81.5 131.5t92.5 111t92.5 89.5t90.5 71t77 53t60.5 36t34 20h-313h-461v390h1120v-490q-105 -57 -186.5 -138.5t-132.5 -173t-83 -200t-44 -213.5t-9 -219z" />
    <glyph glyph-name="eight.tf" 
d="M637 -37q-272 0 -431 110.5t-159 295.5q0 145 94.5 243t251.5 121q-147 26 -230 117.5t-83 224.5q0 181 152.5 288t404.5 107q250 0 402.5 -107t152.5 -288q0 -132 -82.5 -223t-230.5 -119q155 -24 249.5 -122t94.5 -242q0 -185 -156 -295.5t-430 -110.5zM635 881
q59 0 92 29.5t33 86.5q0 58 -33 90.5t-92 32.5q-58 0 -90.5 -33t-32.5 -90t32.5 -86.5t90.5 -29.5zM637 338q62 0 100.5 37t38.5 98q0 59 -38.5 94t-102.5 35q-60 0 -96.5 -33.5t-36.5 -95.5q0 -61 37.5 -98t97.5 -37z" />
    <glyph glyph-name="nine.tf" 
d="M487 -37q-112 0 -210 20.5t-148 43.5v383q130 -72 322 -72q160 0 247 94q60 66 60 195q-101 -146 -295 -146q-52 0 -103.5 11.5t-108.5 44t-100 82t-71.5 133t-28.5 190.5q0 111 32.5 202t86 150.5t126 100t148.5 58t156 17.5q247 0 406 -149q112 -100 162.5 -249.5
t50.5 -305.5q0 -391 -188.5 -597t-543.5 -206zM621 788q58 0 93.5 40t35.5 104q0 66 -35 105.5t-94 39.5q-56 0 -94 -40.5t-38 -104.5q0 -62 38.5 -103t93.5 -41z" />
    <glyph glyph-name="zero.subs" horiz-adv-x="925" 
d="M461 -242q-180 0 -284.5 110.5t-104.5 299.5q0 192 106 309t283 117q178 0 285.5 -116.5t107.5 -307.5q0 -189 -106.5 -300.5t-286.5 -111.5zM461 -10q61 0 61 188q0 187 -61 187q-58 0 -58 -187q0 -107 14.5 -147.5t43.5 -40.5z" />
    <glyph glyph-name="one.subs" horiz-adv-x="714" 
d="M616 -221h-311v291v202q-72 -180 -237 -186v317q201 3 262 170h286v-794z" />
    <glyph glyph-name="two.subs" horiz-adv-x="854" 
d="M768 -221h-678v266q387 120 387 258q0 30 -15.5 46t-41.5 16q-74 0 -64 -121l-288 32q0 37 10 76.5t36.5 84t67 78.5t109 56.5t155.5 22.5q151 0 239.5 -71.5t88.5 -184.5q0 -68 -26 -118.5t-84 -96.5q-72 -60 -224 -113h252h76v-231z" />
    <glyph glyph-name="three.subs" horiz-adv-x="856" 
d="M434 -242q-163 0 -262 62t-119 176l295 57q4 -33 23.5 -50t48.5 -17q28 0 45.5 13.5t17.5 37.5q0 22 -17.5 35.5t-43.5 13.5h-70v184h66q32 0 49.5 14t17.5 38q0 23 -15 36t-40 13q-49 0 -61 -60l-291 39q14 109 109.5 176.5t244.5 67.5q148 0 239 -62t91 -161
q0 -67 -47 -116.5t-129 -68.5q198 -42 198 -198q0 -107 -93.5 -168.5t-256.5 -61.5z" />
    <glyph glyph-name="four.subs" horiz-adv-x="921" 
d="M739 -221h-272v135h-404v215l324 444h352v-446h111v-213h-111v-135zM416 127h51v39v143l-139 -182h88z" />
    <glyph glyph-name="five.subs" horiz-adv-x="856" 
d="M424 -242q-83 0 -152.5 22t-113 58t-69.5 76t-34 80l287 51q6 -28 24 -45.5t44 -17.5q30 0 49.5 19t19.5 52q0 30 -17 49t-44 19q-43 0 -56 -47l-270 32l60 467h596v-231h-365l-6 -37q-4 -27 -6 -74q22 27 65 43.5t94 16.5q115 0 183.5 -67.5t68.5 -180.5
q0 -132 -94 -208.5t-264 -76.5z" />
    <glyph glyph-name="six.subs" horiz-adv-x="860" 
d="M449 -242q-86 0 -154 25.5t-109 65t-67.5 92.5t-36.5 103t-10 101q0 209 112.5 329t309.5 120q63 0 131.5 -13.5t107.5 -29.5v-229q-111 49 -201 49q-85 0 -130.5 -35.5t-51.5 -114.5q44 88 185 88q30 0 62.5 -7.5t68 -26t62.5 -46.5t45 -73t18 -101q0 -135 -94 -216
t-248 -81zM434 -16q26 0 44 20t18 51q0 29 -18.5 48.5t-43.5 19.5q-26 0 -42.5 -18.5t-16.5 -49.5q0 -33 15.5 -52t43.5 -19z" />
    <glyph glyph-name="seven.subs" horiz-adv-x="768" 
d="M465 -221h-336q0 96 24.5 182t61 146t85.5 109.5t92 78.5t85 47h-143h-271v231h648v-278q-246 -122 -246 -516z" />
    <glyph glyph-name="eight.subs" horiz-adv-x="874" 
d="M438 -242q-166 0 -266 64t-100 170q0 69 46 119.5t126 72.5q-73 23 -113.5 72t-40.5 115q0 100 96.5 161.5t251.5 61.5t250.5 -61.5t95.5 -161.5q0 -65 -41 -114.5t-114 -72.5q80 -22 127 -73t47 -119q0 -106 -100.5 -170t-264.5 -64zM436 272q23 0 39.5 16.5t16.5 41.5
q0 27 -16 41t-40 14q-53 0 -53 -55q0 -28 15 -43t38 -15zM438 -20q27 0 44.5 16t17.5 47t-18 47t-46 16q-59 0 -59 -63q0 -31 17.5 -47t43.5 -16z" />
    <glyph glyph-name="nine.subs" horiz-adv-x="868" 
d="M346 -242q-131 0 -229 35v230q115 -39 215 -39t141 36q42 36 39 109q-61 -88 -180 -88q-118 0 -189 69t-71 187q0 135 94 216t248 81q151 0 252 -84q131 -112 131 -307q0 -215 -116.5 -330t-334.5 -115zM424 221q30 0 47.5 19.5t17.5 52.5t-17.5 52.5t-47.5 19.5t-47 -20
t-17 -52t17 -52t47 -20z" />
    <glyph glyph-name="zero.dnom" horiz-adv-x="925" 
d="M461 -20q-180 0 -284.5 110t-104.5 299q0 192 106 309t283 117q178 0 285.5 -116.5t107.5 -307.5q0 -189 -106.5 -300t-286.5 -111zM461 211q61 0 61 188q0 187 -61 187q-58 0 -58 -187q0 -107 14.5 -147.5t43.5 -40.5z" />
    <glyph glyph-name="one.dnom" horiz-adv-x="714" 
d="M616 0h-311v291v203q-72 -181 -237 -187v318q201 3 262 170h286v-795z" />
    <glyph glyph-name="two.dnom" horiz-adv-x="854" 
d="M766 0h-678v266q387 120 387 258q0 30 -15.5 46t-41.5 16q-74 0 -64 -121l-288 33q0 37 10 76.5t36.5 83.5t67 78t109 56.5t155.5 22.5q151 0 239.5 -71.5t88.5 -184.5q0 -68 -26 -118.5t-84 -96.5q-72 -60 -224 -113h252h76v-231z" />
    <glyph glyph-name="three.dnom" horiz-adv-x="856" 
d="M434 -20q-163 0 -262 61.5t-119 175.5l295 57q4 -33 23.5 -50t48.5 -17q28 0 45.5 13.5t17.5 37.5q0 22 -17.5 35.5t-43.5 13.5h-70v185h66q32 0 49.5 13.5t17.5 37.5q0 23 -15 36t-40 13q-49 0 -61 -60l-291 39q14 109 109.5 176.5t244.5 67.5q148 0 239 -62t91 -161
q0 -67 -47 -116t-129 -68q100 -21 149 -73t49 -126q0 -107 -93.5 -168t-256.5 -61z" />
    <glyph glyph-name="four.dnom" horiz-adv-x="921" 
d="M737 0h-272v135h-404v215l324 445h352v-447h111v-213h-111v-135zM414 348h51v39v143l-139 -182h88z" />
    <glyph glyph-name="five.dnom" horiz-adv-x="856" 
d="M426 -20q-83 0 -152.5 22t-113 57.5t-69.5 75.5t-34 80l287 51q6 -28 24 -45.5t44 -17.5q30 0 49.5 19t19.5 52q0 30 -17 49t-44 19q-42 0 -55 -47l-271 33l60 467h596v-232h-365l-6 -37q-4 -27 -6 -73q22 27 64.5 43t94.5 16q115 0 183.5 -67.5t68.5 -180.5
q0 -132 -94 -208t-264 -76z" />
    <glyph glyph-name="six.dnom" horiz-adv-x="860" 
d="M449 -20q-86 0 -154 25.5t-109 65t-67.5 92.5t-36.5 103t-10 101q0 209 112.5 328.5t309.5 119.5q63 0 131.5 -13.5t107.5 -29.5v-229q-111 49 -201 49q-85 0 -130.5 -35.5t-51.5 -114.5q44 88 185 88q30 0 62.5 -7.5t68 -26t62.5 -46.5t45 -73t18 -101
q0 -135 -94 -215.5t-248 -80.5zM434 205q26 0 44 20t18 51q0 29 -18.5 48.5t-43.5 19.5q-26 0 -42.5 -18.5t-16.5 -49.5q0 -33 15.5 -52t43.5 -19z" />
    <glyph glyph-name="seven.dnom" horiz-adv-x="768" 
d="M465 0h-336q0 96 24.5 182t61 146t85.5 109.5t92 78.5t85 47h-143h-271v232h648v-279q-246 -122 -246 -516z" />
    <glyph glyph-name="eight.dnom" horiz-adv-x="874" 
d="M438 -20q-166 0 -266 63.5t-100 169.5q0 69 46 120t126 73q-73 23 -113.5 72t-40.5 114q0 100 96.5 161.5t251.5 61.5t250.5 -61.5t95.5 -161.5q0 -65 -41 -113.5t-114 -72.5q80 -22 127 -73.5t47 -119.5q0 -106 -100 -169.5t-265 -63.5zM436 494q23 0 39.5 16t16.5 41
q0 27 -16 41t-40 14q-53 0 -53 -55q0 -28 15 -42.5t38 -14.5zM438 201q27 0 44.5 16t17.5 47t-18 47.5t-46 16.5q-59 0 -59 -64q0 -31 17.5 -47t43.5 -16z" />
    <glyph glyph-name="nine.dnom" horiz-adv-x="868" 
d="M346 -20q-134 0 -229 34v230q115 -39 215 -39q99 0 141 37q42 36 39 108q-61 -88 -180 -88q-118 0 -189 69t-71 187q0 135 94 216t248 81q151 0 252 -84q131 -112 131 -307q0 -215 -116.5 -329.5t-334.5 -114.5zM424 442q30 0 47.5 19.5t17.5 52.5t-17.5 52.5t-47.5 19.5
t-47 -20t-17 -52t17 -52t47 -20z" />
    <glyph glyph-name="zero.numr" horiz-adv-x="925" 
d="M461 618q-180 0 -284.5 110.5t-104.5 299.5q0 192 106 309t283 117q178 0 285.5 -116.5t107.5 -307.5q0 -189 -106.5 -300.5t-286.5 -111.5zM461 850q61 0 61 188q0 187 -61 187q-58 0 -58 -187q0 -107 14.5 -147.5t43.5 -40.5z" />
    <glyph glyph-name="one.numr" horiz-adv-x="714" 
d="M616 639h-311v291v203q-72 -181 -237 -187v318q201 3 262 170h286v-795z" />
    <glyph glyph-name="two.numr" horiz-adv-x="854" 
d="M766 639h-678v266q387 120 387 258q0 30 -15.5 46t-41.5 16q-74 0 -64 -121l-288 33q0 37 10 76.5t36.5 83.5t67 78t109 56.5t155.5 22.5q151 0 239.5 -71.5t88.5 -184.5q0 -68 -26 -118.5t-84 -96.5q-72 -60 -224 -113h252h76v-231z" />
    <glyph glyph-name="three.numr" horiz-adv-x="856" 
d="M434 618q-163 0 -262 62t-119 176l295 57q4 -33 23.5 -50t48.5 -17q28 0 45.5 13.5t17.5 37.5q0 22 -17.5 35.5t-43.5 13.5h-70v184h66q32 0 49.5 14t17.5 38q0 23 -15 36t-40 13q-49 0 -61 -60l-291 39q14 109 109.5 176.5t244.5 67.5q148 0 239 -62t91 -161
q0 -67 -47 -116t-129 -68q100 -21 149 -73t49 -126q0 -107 -93.5 -168.5t-256.5 -61.5z" />
    <glyph glyph-name="four.numr" horiz-adv-x="921" 
d="M739 639h-272v135h-404v215l324 445h352v-447h111v-213h-111v-135zM416 987h51v39v143l-139 -182h88z" />
    <glyph glyph-name="five.numr" horiz-adv-x="856" 
d="M426 618q-83 0 -152.5 22t-113 58t-69.5 76t-34 80l287 51q6 -28 24 -45.5t44 -17.5q30 0 49.5 19t19.5 52q0 30 -17 49t-44 19q-42 0 -55 -47l-271 33l60 467h596v-232h-365l-6 -37q-4 -27 -6 -73q22 27 64.5 43t94.5 16q115 0 183.5 -67.5t68.5 -180.5
q0 -132 -94 -208.5t-264 -76.5z" />
    <glyph glyph-name="six.numr" horiz-adv-x="860" 
d="M449 618q-86 0 -154 25.5t-109 65t-67.5 93t-36.5 103.5t-10 101q0 209 112.5 328.5t309.5 119.5q63 0 131.5 -13.5t107.5 -29.5v-229q-111 49 -201 49q-85 0 -130.5 -35.5t-51.5 -114.5q44 88 185 88q30 0 62.5 -7.5t68 -26t62.5 -46.5t45 -73t18 -101q0 -135 -94 -216
t-248 -81zM434 844q26 0 44 20t18 51q0 29 -18.5 48.5t-43.5 19.5q-26 0 -42.5 -18.5t-16.5 -49.5q0 -33 15.5 -52t43.5 -19z" />
    <glyph glyph-name="seven.numr" horiz-adv-x="768" 
d="M465 639h-336q0 96 24.5 182t61 146t85.5 109.5t92 78.5t85 47h-143h-271v232h648v-279q-246 -122 -246 -516z" />
    <glyph glyph-name="eight.numr" horiz-adv-x="874" 
d="M438 618q-166 0 -266 64t-100 170q0 69 46 119.5t126 72.5q-73 23 -113.5 72t-40.5 115q0 100 96.5 161.5t251.5 61.5t250.5 -61.5t95.5 -161.5q0 -65 -41 -114.5t-114 -72.5q80 -22 127 -73t47 -119q0 -106 -100.5 -170t-264.5 -64zM436 1133q23 0 39.5 16t16.5 41
q0 27 -16 41t-40 14q-53 0 -53 -55q0 -28 15 -42.5t38 -14.5zM438 840q27 0 44.5 16t17.5 47t-18 47.5t-46 16.5q-59 0 -59 -64q0 -31 17.5 -47t43.5 -16z" />
    <glyph glyph-name="nine.numr" horiz-adv-x="868" 
d="M346 618q-131 0 -229 35v230q115 -39 215 -39q99 0 141 37q42 36 39 108q-61 -88 -180 -88q-118 0 -189 69t-71 187q0 135 94 216t248 81q151 0 252 -84q131 -112 131 -307q0 -215 -116.5 -330t-334.5 -115zM424 1081q30 0 47.5 19.5t17.5 52.5t-17.5 52.5t-47.5 19.5
t-47 -20t-17 -52t17 -52t47 -20z" />
    <glyph glyph-name="exclamdown.case" horiz-adv-x="694" 
d="M90 1434h512v-439h-512v439zM203 872h291l112 -544v-328h-516v328z" />
    <glyph glyph-name="questiondown.case" horiz-adv-x="1392" 
d="M465 1434h506v-439h-506v439zM492 872h456q0 -65 -5.5 -105.5t-24 -84t-57 -78.5t-101.5 -69q-101 -55 -131.5 -80.5t-30.5 -61.5q0 -31 26.5 -50t71.5 -19q59 0 97.5 36t37.5 113l525 -67q-1 -58 -23.5 -116.5t-74 -118t-127.5 -105t-195 -74.5t-264 -29
q-161 0 -283.5 27.5t-195.5 76t-109.5 110t-36.5 134.5q0 109 62 183t190 147q123 70 158 112.5t35 118.5z" />
    <glyph glyph-name="period.tf" 
d="M907 0h-545v526h545v-526z" />
    <glyph glyph-name="comma.tf" 
d="M627 -479h-267l295 479h-295v526h547v-526z" />
    <glyph glyph-name="colon.tf" 
d="M909 797h-544v526h544v-526zM905 0h-545v526h545v-526z" />
    <glyph glyph-name="semicolon.tf" 
d="M909 797h-544v526h544v-526zM625 -479h-267l295 479h-295v526h547v-526z" />
    <glyph glyph-name="numbersign.tf" 
d="M434 0h-334l19 109q4 18 31 167h-56h-28v338h145l41 215h-98v338h157l47 267h340l-24 -134q-7 -31 -25 -133h80h49l45 267h338l-16 -99l-31 -168h57h33v-338h-151l-37 -215h98v-338h-162l-49 -276h-336l17 98q29 173 30 178h-92h-35zM588 829l-39 -215h129l37 215h-127z
" />
    <glyph glyph-name="parenleft.case" horiz-adv-x="811" 
d="M760 141v-362q-114 0 -210.5 28t-168 78t-128.5 120.5t-94.5 152t-62 177.5t-35 192t-10.5 200q0 148 21 279t72.5 255t130.5 213t203 143t282 54v-366q-56 -5 -102 -28t-77 -56.5t-54 -82.5t-36 -96t-21 -107t-11 -106t-4 -102q-1 -52 1 -100.5t10 -106.5t21.5 -107.5
t37 -98t55 -84t78 -59.5t102.5 -30z" />
    <glyph glyph-name="parenright.case" horiz-adv-x="811" 
d="M51 1309v362q114 0 210.5 -28t168 -78t128.5 -120.5t94.5 -152t62 -177.5t35 -192t10.5 -200q0 -148 -21 -279t-72.5 -255t-130.5 -213t-203 -143t-282 -54v366q56 5 102 28t77 56.5t54 82.5t36 96t21 107t11 106t4 102q1 52 -1 100.5t-10 106.5t-21.5 107.5t-37 98
t-55 84t-78 59.5t-102.5 30z" />
    <glyph glyph-name="braceleft.case" horiz-adv-x="845" 
d="M811 -205h-256q-217 0 -302 92.5t-85 327.5v252q0 63 -28 87t-103 24v288q72 0 101.5 22.5t29.5 78.5v262q0 235 85 327.5t302 92.5h256v-289h-109q-76 0 -100 -28.5t-24 -104.5v-187q0 -144 -81 -221.5t-227 -93.5q143 -16 225.5 -94t82.5 -221v-193q0 -76 24 -104.5
t100 -28.5h109v-289z" />
    <glyph glyph-name="braceright.case" horiz-adv-x="845" 
d="M35 1649h256q217 0 302 -92.5t85 -327.5v-252q0 -63 28 -87t103 -24v-288q-72 0 -101.5 -22.5t-29.5 -78.5v-262q0 -235 -85 -327.5t-302 -92.5h-256v289h108q76 0 100.5 28.5t24.5 104.5v186q0 144 81 222t226 94q-143 16 -225 93.5t-82 221.5v193q0 76 -24.5 104.5
t-100.5 28.5h-108v289z" />
    <glyph glyph-name="bracketleft.case" horiz-adv-x="825" 
d="M784 -205h-684v1854h684v-314h-254v-1226h254v-314z" />
    <glyph glyph-name="bracketright.case" horiz-adv-x="825" 
d="M41 1649h684v-1854h-684v314h254v1226h-254v314z" />
    <glyph glyph-name="angleleft.case" horiz-adv-x="854" 
d="M850 1473l-414 -744l420 -754l-367 -200l-501 946l501 948z" />
    <glyph glyph-name="angleright.case" horiz-adv-x="854" 
d="M-2 1466l367 201l501 -946l-501 -948l-361 196l414 744z" />
    <glyph glyph-name="uni3010.case" horiz-adv-x="888" 
d="M934 -205h-834v1854h834q-383 -419 -383 -924q0 -509 383 -930z" />
    <glyph glyph-name="uni3011.case" horiz-adv-x="888" 
d="M-45 1649h833v-1854h-833q383 419 383 924q0 509 -383 930z" />
    <glyph glyph-name="uni300C.case" horiz-adv-x="874" 
d="M530 711h-432v938h758v-361h-326v-577z" />
    <glyph glyph-name="uni300D.case" horiz-adv-x="874" 
d="M348 735h432v-938h-757v361h325v577z" />
    <glyph glyph-name="uni300A.case" horiz-adv-x="1585" 
d="M489 1671l361 -196l-414 -744l420 -754l-367 -200l-501 946zM1581 1475l-414 -744l420 -754l-366 -200l-502 946l502 948z" />
    <glyph glyph-name="uni300B.case" horiz-adv-x="1585" 
d="M-2 1468l367 201l501 -946l-501 -948l-361 196l414 744zM729 1468l367 201l501 -946l-501 -948l-361 196l414 744z" />
    <glyph glyph-name="uni3014.case" horiz-adv-x="829" 
d="M840 1407l-357 -365v-614l355 -391l-281 -262l-489 530v840l495 524z" />
    <glyph glyph-name="uni3015.case" horiz-adv-x="829" 
d="M-8 1407l280 262l490 -530v-840l-496 -524l-276 262l356 364v615z" />
    <glyph glyph-name="uni300E.case" horiz-adv-x="1277" 
d="M893 373h-791v1276h1102v-742h-311v-534zM410 1352v-682h211v475h276v207h-487z" />
    <glyph glyph-name="uni300F.case" horiz-adv-x="1253" 
d="M373 1071h790v-1276h-1102v742h312v534zM856 92v682h-211v-475h-276v-207h487z" />
    <glyph glyph-name="hyphen.case" horiz-adv-x="1079" 
d="M991 586h-903v368h903v-368z" />
    <glyph glyph-name="uni00AD.case" horiz-adv-x="1079" 
d="M991 586h-903v368h903v-368z" />
    <glyph glyph-name="endash.case" horiz-adv-x="1431" 
d="M1346 594h-1260v348h1260v-348z" />
    <glyph glyph-name="emdash.case" horiz-adv-x="1863" 
d="M1776 600h-1688v338h1688v-338z" />
    <glyph glyph-name="guillemotleft.case" horiz-adv-x="1482" 
d="M354 1202h451l-324 -532l305 -502h-436l-301 516zM981 1202h451l-334 -530l313 -504h-436l-309 516z" />
    <glyph glyph-name="guillemotright.case" horiz-adv-x="1484" 
d="M72 1202h436l309 -516l-315 -518h-451l334 530zM696 1202h437l301 -516l-306 -518h-450l323 532z" />
    <glyph glyph-name="guilsinglleft.case" horiz-adv-x="864" 
d="M362 1202h451l-334 -526l314 -508h-437l-309 522z" />
    <glyph glyph-name="guilsinglright.case" horiz-adv-x="868" 
d="M72 1202h436l309 -522l-315 -512h-451l334 526z" />
    <glyph glyph-name="space.tf" 
 />
    <glyph glyph-name="uni20BF.tf" 
d="M1233 387q0 -150 -92.5 -254.5t-278.5 -126.5v-217h-241v211h-91v-211h-241v211h-203v1434h203v182h241v-182h91v182h241v-191q158 -25 247 -118t89 -234q0 -28 -5.5 -58.5t-24 -71t-48 -75t-83 -66t-124.5 -48.5q77 -14 136.5 -45.5t93 -69.5t55 -85t28.5 -86.5t7 -80.5
zM676 1071h-150v-201h150q40 0 66 29t26 72t-26 71.5t-66 28.5zM526 360h152q43 0 71.5 29t28.5 78q0 51 -28.5 79.5t-71.5 28.5h-152v-215z" />
    <glyph glyph-name="cent.tf" 
d="M756 451l426 -60q-66 -376 -432 -422v-190h-209v190q-207 29 -319.5 171.5t-112.5 367.5q0 226 115.5 375t316.5 180v192h209v-192q172 -25 283.5 -126t142.5 -259l-420 -94q-7 84 -38 131t-77 47q-106 0 -106 -242q0 -248 106 -248q91 0 115 179z" />
    <glyph glyph-name="currency.tf" 
d="M432 305l-151 -145l-240 233l145 139q-53 106 -53 216q0 103 41 190l-139 135l244 238l135 -131q100 49 215 49t219 -49l143 139l240 -236l-152 -145q45 -82 45 -190q0 -107 -49 -207l160 -152l-244 -237l-164 155q-90 -41 -198 -41q-109 0 -197 39zM629 614
q57 0 93 38.5t36 92.5q0 57 -36 96.5t-93 39.5t-93 -39.5t-36 -96.5q0 -54 36 -92.5t93 -38.5z" />
    <glyph glyph-name="dollar.tf" 
d="M772 -162h-244v150q-219 21 -345.5 134t-151.5 300l446 100q9 -83 49.5 -127.5t110.5 -44.5q65 0 97 27t32 72q0 39 -24.5 65.5t-69.5 32.5l-146 20q-238 33 -338 139t-100 314q0 185 119 309.5t321 153.5v153h244v-153q185 -28 299.5 -131.5t140.5 -272.5l-448 -90
q-12 64 -49 102.5t-92 38.5q-50 0 -79.5 -24.5t-29.5 -65.5q0 -46 26 -69t85 -31l147 -18q217 -28 334 -147.5t117 -309.5q0 -195 -117.5 -317.5t-333.5 -153.5v-156z" />
    <glyph glyph-name="Euro.tf" 
d="M696 -37q-205 0 -344.5 115.5t-187.5 357.5h-111v226h88q-3 46 0 92h-88v225h111q49 233 190.5 362t347.5 129q92 0 178 -30.5t160 -89t125 -155.5t64 -220l-393 -111q-27 228 -146 228q-46 0 -71 -27t-41 -86h63h61v-225h-151q-3 -46 0 -92h151v-226h-57h-61
q16 -60 38.5 -78t65.5 -18q101 0 150 221l391 -127q-28 -148 -112.5 -257t-193.5 -161.5t-227 -52.5z" />
    <glyph glyph-name="liraturkish.tf" 
d="M604 0h-395v154v161q-90 -50 -113 -63l-37 -21v306l150 84v114l-150 -84v303l150 84v396h399v-35v-137l140 77l202 113v-305l-342 -189v-116l342 192v-307l-342 -188v-117l78 4q49 3 93.5 25.5t77 57.5t56 72t37.5 76l332 -219q-132 -438 -678 -438z" />
    <glyph glyph-name="uni20BD.tf" 
d="M817 571h-244v-102h355v-266h-355v-203h-407v203h-111v266h111v102h-111v287h111v576h582q225 0 357 -119.5t132 -327.5q0 -99 -35.5 -180t-95.5 -131.5t-134 -77.5t-155 -27zM700 1065h-127v-207h127q45 0 71 32t26 73t-25.5 71.5t-71.5 30.5z" />
    <glyph glyph-name="uni20B9.tf" 
d="M1051 0h-535l-67 326q-19 94 -54 127.5t-116 33.5h-181v336h244q57 0 92 28.5t35 78.5t-35 77t-92 27h-244v400h1100v-301h-135h-158q28 -48 35 -123h258v-256h-336q-89 -92 -231 -113q142 -14 217 -76.5t115 -220.5z" />
    <glyph glyph-name="sterling.tf" 
d="M928 389h284v-389h-1134v389q228 20 254 182h-254v265h153q-86 120 -86 254q0 114 69.5 202t182 133t246.5 45q512 0 561 -421l-440 -97q0 73 -27.5 114.5t-79.5 41.5q-34 0 -62 -23t-28 -63q0 -20 4 -39t14.5 -41t16.5 -33.5t22.5 -38.5t20.5 -34h320v-265h-279
q-30 -112 -164 -182h406z" />
    <glyph glyph-name="uni20A9.tf" 
d="M1221 1038v-254h-117l-8 -122h125v-254h-140l-24 -408h-367l-14 129q-17 155 -41 336q-26 -190 -41 -338l-14 -127h-367l-25 408h-139v254h125l-8 122h-117v254h103l-25 396h307l4 -174l23 -830q44 318 65 453l23 151h172l22 -155l66 -449q11 371 22 830l5 174h307
l-25 -396h103z" />
    <glyph glyph-name="yen.tf" 
d="M844 1434h504l-326 -588h145v-264h-290v-93h288v-235h-288v-254h-490v254h-283v235h283v93h-281v264h136l-322 588h518l56 -134q137 -321 147 -346q137 321 147 346z" />
    <glyph glyph-name="multiply.case.tf" 
d="M637 461l-311 -322l-232 242l312 317l-312 322l234 240l311 -322l309 317l230 -235l-310 -320l310 -321l-232 -240z" />
    <glyph glyph-name="plus.tf" 
d="M811 199h-354v366h-353v330h353v367h354v-367h352v-330h-352v-366z" />
    <glyph glyph-name="minus.tf" 
d="M1139 559h-1008v330h1008v-330z" />
    <glyph glyph-name="multiply.tf" 
d="M635 479l-311 -305l-232 229l311 302l-311 305l234 227l311 -305l309 301l230 -223l-310 -303l310 -306l-232 -227z" />
    <glyph glyph-name="divide.tf" 
d="M823 969h-374v342h374v-342zM1186 569h-1102v308h1102v-308zM823 135h-374v342h374v-342z" />
    <glyph glyph-name="equal.tf" 
d="M1112 786h-954v328h954v-328zM1112 315h-954v328h954v-328z" />
    <glyph glyph-name="notequal.tf" 
d="M500 162h-279l76 153h-139v328h303l16 33q9 19 26.5 55.5t26.5 54.5h-186h-186v328h536l76 154h279l-76 -154h139v-328h-303l-27 -55q-4 -7 -43 -88h152h221v-328h-537z" />
    <glyph glyph-name="greater.tf" 
d="M1149 424l-989 -279l2 394l278 61l441 98q-75 17 -224.5 50.5t-224.5 50.5l-268 59l-4 395l989 -278v-551z" />
    <glyph glyph-name="less.tf" 
d="M119 975l991 278l-2 -393l-279 -61l-440 -99q75 -16 224.5 -49.5t224.5 -50.5l268 -59l4 -396l-991 279v551z" />
    <glyph glyph-name="greaterequal.tf" 
d="M1118 678l-954 -244v354l162 31q83 16 534 99q-59 8 -166.5 24t-195.5 28.5t-166 22.5l-168 23v356l954 -209v-485zM1118 109h-954v307h954v-307z" />
    <glyph glyph-name="lessequal.tf" 
d="M1106 791v-357l-954 209v485l954 244v-354l-162 -31q-104 -20 -294.5 -54.5t-239.5 -43.5q23 -3 222.5 -32.5t303.5 -43.5zM1106 109h-954v307h954v-307z" />
    <glyph glyph-name="plusminus.tf" 
d="M795 508h-322v194h-317v308h317v245h322v-245h317v-308h-317v-194zM1112 109h-956v307h956v-307z" />
    <glyph glyph-name="approxequal.tf" 
d="M864 698q-99 0 -180 50l-55 34q-33 22 -49 32t-43.5 20t-53.5 10q-55 0 -93 -27.5t-68 -105.5l-275 157q43 159 137 247.5t224 88.5q103 0 213 -74l61 -38q58 -35 106 -35q55 0 93.5 27.5t68.5 105.5l275 -158q-43 -159 -137 -246.5t-224 -87.5zM864 154q-101 0 -180 49
l-55 35q-32 21 -49 31.5t-44 20t-53 9.5q-55 0 -93 -27.5t-68 -105.5l-275 158q43 159 137 247t224 88q104 0 213 -73l61 -39q58 -35 106 -35q55 0 93.5 27.5t68.5 105.5l275 -158q-43 -159 -137 -246t-224 -87z" />
    <glyph glyph-name="logicalnot.tf" 
d="M1096 291h-320v268h-635v348h955v-616z" />
    <glyph glyph-name="percent.tf" 
d="M307 803q-145 0 -223 89.5t-78 244.5t78 244t223 89q146 0 220.5 -89t74.5 -244t-74.5 -244.5t-220.5 -89.5zM377 0h-246l764 1434h248zM305 989q43 0 60.5 36.5t17.5 111.5t-17.5 111t-60.5 36q-78 0 -78 -147q0 -148 78 -148zM969 -37q-145 0 -223 89.5t-78 244.5
t78 244.5t223 89.5q146 0 220.5 -89.5t74.5 -244.5t-74.5 -244.5t-220.5 -89.5zM967 150q43 0 60 36t17 111t-17 111t-60 36q-78 0 -78 -147t78 -147z" />
    <glyph glyph-name="perthousand.tf" 
d="M281 807q-110 0 -180 91.5t-70 242.5q0 147 68.5 238t181.5 91q111 0 177 -92t66 -237q0 -151 -65.5 -242.5t-177.5 -91.5zM27 0l778 1434h213l-778 -1434h-213zM281 1284q-26 0 -42 -37.5t-16 -105.5q0 -148 56 -148q53 0 53 148q0 68 -14 105.5t-37 37.5zM1018 629
q104 0 164.5 -92t60.5 -238q0 -151 -60.5 -243.5t-164.5 -92.5q-78 0 -133 68q-55 -68 -131 -68q-101 0 -165.5 92.5t-64.5 243.5q0 147 63 238.5t167 91.5q79 0 131 -58q52 58 133 58zM760 152q25 0 34 35t9 112q0 141 -41 141q-45 0 -45 -141q0 -75 9.5 -111t33.5 -36z
M1008 152q25 0 34 35t9 112q0 141 -41 141q-47 0 -47 -141q0 -76 10 -111.5t35 -35.5z" />
    <glyph glyph-name="at.case" horiz-adv-x="2017" 
d="M1085 -262q-492 0 -767 238t-275 679q0 173 55.5 322.5t152 257.5t226 185t278.5 115t308 38q202 0 377 -56.5t301 -157t198 -246t72 -316.5q0 -115 -30 -210.5t-79.5 -159t-115.5 -107.5t-136.5 -64t-144.5 -20q-228 0 -307 174q-43 -82 -119 -128t-161 -46
q-81 0 -142.5 34.5t-98.5 95.5t-55 137.5t-18 166.5q0 172 81.5 287.5t229.5 115.5q155 0 244 -133v109h293v-455q0 -90 68 -90q73 0 120.5 76.5t47.5 220.5q0 212 -170 348.5t-463 136.5q-143 0 -265 -41t-213 -118.5t-142.5 -198t-51.5 -271.5q0 -307 179 -469.5
t509 -162.5q183 0 315.5 35t255.5 96l119 -267q-296 -151 -676 -151zM1055 498q51 0 77.5 47t26.5 127q0 178 -104 178q-51 0 -81 -47t-30 -131q0 -78 30 -126t81 -48z" />
    <glyph glyph-name="registered.case" horiz-adv-x="1882" 
d="M934 -170q-185 0 -349 68t-280.5 184.5t-184 277.5t-67.5 340q0 181 67.5 340.5t184 274t280.5 180.5t349 66q248 0 453 -112.5t323.5 -310.5t118.5 -438q0 -179 -70 -340t-189 -277.5t-285 -184.5t-351 -68zM938 88q177 0 313 82t207.5 220.5t71.5 309.5t-71.5 307.5
t-207.5 216t-313 79.5t-311.5 -79.5t-204.5 -216t-70 -307.5q0 -172 70 -310t204.5 -220t311.5 -82zM856 291h-254v835h412q128 0 209.5 -64.5t81.5 -164.5q0 -90 -52 -143.5t-135 -69.5q85 -9 126 -52t56 -140l31 -201h-272l-19 186q-8 76 -31.5 108.5t-82.5 32.5h-70v-327
zM856 950v-159h70q104 0 104 81q0 78 -104 78h-70z" />
    <glyph glyph-name="section.tf" 
d="M608 -434q-228 0 -365 109.5t-159 308.5l405 51q18 -133 113 -133q46 0 72 22t26 62q0 37 -21.5 60t-68.5 36l-239 70q-168 49 -243 135t-75 223q0 196 185 315q-47 54 -67.5 113.5t-20.5 144.5q0 175 132.5 281t356.5 106q199 0 322 -95.5t145 -266.5l-383 -64
q-6 58 -33.5 89.5t-71.5 31.5q-35 0 -56 -21.5t-21 -56.5q0 -36 26 -58.5t99 -43.5l198 -55q185 -53 271 -145t86 -238q0 -95 -48.5 -177.5t-130.5 -138.5q37 -42 59.5 -104.5t22.5 -128.5q0 -197 -140 -314.5t-376 -117.5zM793 391q34 40 34 90q0 39 -21 63.5t-67 39.5
l-204 69q-40 13 -76 29q-45 -54 -45 -104q0 -37 28 -57t84 -38l166 -53q73 -22 101 -39z" />
    <glyph glyph-name="degree.tf" 
d="M633 762q-211 0 -341 126t-130 320t133 322.5t338 128.5q206 0 340.5 -128.5t134.5 -322.5q0 -197 -131.5 -321.5t-343.5 -124.5zM635 1053q63 0 108 44t45 115q0 68 -45.5 112t-107.5 44q-61 0 -107.5 -44t-46.5 -112q0 -72 45 -115.5t109 -43.5z" />
    </font>
</defs>
</svg>
