<?xml version="1.0" standalone="no"?>
<!DOCTYPE svg PUBLIC "-//W3C//DTD SVG 1.1//EN" "http://www.w3.org/Graphics/SVG/1.1/DTD/svg11.dtd" >
<svg xmlns="http://www.w3.org/2000/svg" xmlns:xlink="http://www.w3.org/1999/xlink" version="1.1">
<metadata>
Created by FontForge 20170731 at Wed Dec 29 09:47:05 2021
 By Aleksey,,,
Copyright 2021 Dinamo (Johannes Breyer, Fabian Harb) &#38; Erkin Karamemet. All rights reserved.
</metadata>
<defs>
<font id="ABCWhyte-Thin" horiz-adv-x="1269" >
  <font-face 
    font-family="ABC Whyte Thin"
    font-weight="250"
    font-stretch="normal"
    units-per-em="2048"
    panose-1="2 11 0 4 4 2 2 6 2 3"
    ascent="1649"
    descent="-399"
    x-height="1004"
    cap-height="1434"
    bbox="-358 -551 2234 1972"
    underline-thickness="102"
    underline-position="-307"
    unicode-range="U+0020-FB02"
  />
<missing-glyph horiz-adv-x="1429" 
d="M1184 0h-938v1434h938v-1434zM307 1376v-1319h815v1319h-815z" />
    <glyph glyph-name="fi" unicode="fi" horiz-adv-x="1142" 
d="M936 1004v-1004h-59v948h-504v-948h-60v948h-272v56h272v163q0 267 287 267h113v-58h-125q-111 0 -163 -53t-52 -162v-157h563zM877 1253v181h61v-181h-61z" />
    <glyph glyph-name="fl" unicode="fl" horiz-adv-x="1130" 
d="M926 1434v-1434h-60v1376h-278q-111 0 -163 -53t-52 -162v-157h307v-56h-307v-948h-60v948h-272v56h272v163q0 251 252 265v2h361z" />
    <glyph glyph-name="f_f" unicode="ff" horiz-adv-x="1361" 
d="M1356 1434v-58h-125q-111 0 -163 -53t-52 -162v-157h307v-56h-307v-948h-60v948h-583v-948h-60v948h-272v56h272v163q0 267 287 267h113v-58h-125q-111 0 -163 -53t-52 -162v-157h583v163q0 267 287 267h113z" />
    <glyph glyph-name="f_f_i" unicode="ffi" horiz-adv-x="1888" 
d="M1681 1004v-1004h-59v948h-606v-948h-60v948h-583v-948h-60v948h-272v56h272v163q0 267 287 267h113v-58h-125q-111 0 -163 -53t-52 -162v-157h583v163q0 267 287 267h113v-58h-125q-111 0 -163 -53t-52 -162v-157h665zM1622 1253v181h61v-181h-61z" />
    <glyph glyph-name="f_f_l" unicode="ffl" horiz-adv-x="1865" 
d="M1661 1434v-1434h-59v1376h-371q-111 0 -163 -53t-52 -162v-157h307v-56h-307v-948h-60v948h-583v-948h-60v948h-272v56h272v163q0 267 287 267h113v-58h-125q-111 0 -163 -53t-52 -162v-157h583v163q0 267 287 267h418z" />
    <glyph glyph-name=".notdef" horiz-adv-x="1429" 
d="M1184 0h-938v1434h938v-1434zM307 1376v-1319h815v1319h-815z" />
    <glyph glyph-name=".null" horiz-adv-x="0" 
 />
    <glyph glyph-name="nonmarkingreturn" horiz-adv-x="682" 
 />
    <glyph glyph-name="space" unicode=" " horiz-adv-x="595" 
 />
    <glyph glyph-name="exclam" unicode="!" horiz-adv-x="524" 
d="M283 375h-39l-13 731v328h62v-328zM313 0h-102v172h102v-172z" />
    <glyph glyph-name="quotedbl" unicode="&#x22;" horiz-adv-x="716" 
d="M219 1024h-41l-8 305v105h57v-105zM539 1024h-41l-9 305v105h58v-105z" />
    <glyph glyph-name="numbersign" unicode="#" horiz-adv-x="1382" 
d="M342 0h-59l63 313l33 156h-133h-158v57h303l84 406h-285v57h297l93 445h59l-55 -269l-37 -176h125h289l92 445h59l-55 -271l-37 -174h133h141v-57h-286l-84 -406h268v-57h-281l-96 -469h-59l63 309q8 43 33 160h-145h-269zM535 932l-84 -406h413l84 406h-413z" />
    <glyph glyph-name="dollar" unicode="$" horiz-adv-x="1169" 
d="M602 -227h-57v202q-167 9 -287.5 94.5t-171.5 243.5l59 31q34 -138 144.5 -218.5t255.5 -88.5v692l-78 27q-46 15 -81 30t-75 37t-68.5 48t-52.5 59.5t-36.5 77t-12.5 94.5q0 109 55.5 189.5t145.5 121t203 45.5v191h57v-191q100 -4 182 -35.5t132 -77.5t79 -91t39 -87
l-55 -30q-8 30 -24 61t-47 67t-71.5 64t-102 48.5t-132.5 23.5v-625l125 -41q157 -50 246.5 -140.5t89.5 -238.5q0 -170 -123 -272.5t-338 -108.5v-202zM545 795v338v268q-150 -8 -247 -86.5t-97 -208.5q0 -117 79.5 -186t264.5 -125zM602 35q181 6 289 92.5t108 226.5
q0 73 -21 125.5t-70.5 95t-121.5 74t-184 64.5v-336v-342z" />
    <glyph glyph-name="percent" unicode="%" horiz-adv-x="1654" 
d="M420 623q-143 0 -229.5 114.5t-86.5 304.5q0 181 88 292.5t228 111.5t224.5 -110.5t84.5 -293.5q0 -192 -84 -305.5t-225 -113.5zM362 0h-71l1009 1434h70zM420 678q113 0 180.5 99t67.5 265q0 160 -67 254.5t-181 94.5q-117 0 -186.5 -94.5t-69.5 -254.5
q0 -165 70 -264.5t186 -99.5zM1239 -12q-143 0 -229 115t-86 305q0 181 87.5 292t227.5 111t224.5 -110t84.5 -293q0 -192 -84 -306t-225 -114zM1239 43q113 0 180.5 99.5t67.5 265.5q0 160 -67 254t-181 94q-117 0 -186.5 -94t-69.5 -254q0 -165 70 -265t186 -100z" />
    <glyph glyph-name="ampersand" unicode="&#x26;" horiz-adv-x="1312" 
d="M526 -25q-194 0 -299.5 102t-105.5 261q0 121 63.5 217.5t223.5 200.5q-109 192 -109 374q0 155 87.5 241.5t215.5 86.5q127 0 209 -75t82 -195q0 -125 -95 -227t-313 -224q72 -121 201 -260q107 -116 260 -239q116 167 160 415l55 -28q-42 -240 -166 -422
q124 -96 277 -174l-33 -54q-140 73 -278 181q-160 -181 -435 -181zM457 786l69 39q174 97 241 184t67 179q0 83 -60.5 149t-171.5 66q-108 0 -177 -74t-69 -199q0 -160 101 -344zM530 31q121 0 211.5 37.5t171.5 121.5q-187 153 -331 316q-87 100 -148 199
q-103 -67 -161 -132t-75.5 -116t-17.5 -115q0 -101 50.5 -173.5t128 -105t171.5 -32.5z" />
    <glyph glyph-name="quotesingle" unicode="'" horiz-adv-x="397" 
d="M219 1024h-41l-8 305v105h57v-105z" />
    <glyph glyph-name="parenleft" unicode="(" horiz-adv-x="612" 
d="M555 -256v-72q-220 85 -319 326t-99 629q0 377 98 610t320 330v-72q-169 -67 -263.5 -282.5t-94.5 -585.5q0 -379 95 -599t263 -284z" />
    <glyph glyph-name="parenright" unicode=")" horiz-adv-x="612" 
d="M57 1495v72q220 -85 319 -326t99 -629q0 -377 -98 -610t-320 -330v72q169 67 264 282.5t95 585.5q0 379 -95.5 599t-263.5 284z" />
    <glyph glyph-name="asterisk" unicode="*" horiz-adv-x="991" 
d="M496 1180l-158 -291l-53 33l41 69l131 226q-144 -3 -277 -3h-65v60l331 -6l-174 295l54 30l41 -77q105 -195 127 -234q57 107 139 256l31 55l51 -30l-172 -297l331 6v-60h-65q-181 0 -277 2l119 -200l54 -90l-54 -33z" />
    <glyph glyph-name="plus" unicode="+" horiz-adv-x="1251" 
d="M655 164h-57v530h-510v58h510v530l57 -2v-528h508v-58h-508v-530z" />
    <glyph glyph-name="comma" unicode="," horiz-adv-x="468" 
d="M186 -219h-55l111 219h-54v172h103v-172z" />
    <glyph glyph-name="hyphen" unicode="-" horiz-adv-x="749" 
d="M580 596h-410v68h410v-68z" />
    <glyph glyph-name="period" unicode="." horiz-adv-x="442" 
d="M272 0h-102v172h102v-172z" />
    <glyph glyph-name="slash" unicode="/" horiz-adv-x="794" 
d="M145 -227h-61l567 1888h62z" />
    <glyph glyph-name="zero" unicode="0" horiz-adv-x="1406" 
d="M709 -25q-119 0 -221 50t-178 144t-119.5 239t-43.5 325q0 173 45.5 313t123 228.5t178.5 136t215 47.5t213 -47.5t174 -136.5t118 -228.5t43 -312.5q0 -182 -42 -327t-116 -238.5t-173.5 -143t-216.5 -49.5zM709 33q116 0 209.5 55.5t152.5 152t90 222t31 270.5
q0 191 -55 340.5t-166 238.5t-262 89q-155 0 -269 -89t-170.5 -238.5t-56.5 -340.5q0 -145 32 -270.5t92.5 -222t156 -152t215.5 -55.5z" />
    <glyph glyph-name="one" unicode="1" horiz-adv-x="782" 
d="M532 0h-61v1067v219q-64 -104 -171 -186.5t-228 -122.5v67q127 50 240.5 147t193.5 243h26v-1434z" />
    <glyph glyph-name="two" unicode="2" horiz-adv-x="1122" 
d="M995 0h-860v66q84 59 153 110.5t150.5 119.5t145 130.5t125 138t102 147t65.5 152.5t25 160q0 185 -102.5 281t-257.5 96q-49 0 -96 -12t-94 -41.5t-82 -73.5t-56 -114.5t-20 -158.5l-62 11q1 110 34.5 197t91 140.5t130 81t154.5 27.5q192 0 308 -118.5t116 -309.5
q0 -189 -113 -368q-198 -315 -639 -605h309h473v-57z" />
    <glyph glyph-name="three" unicode="3" horiz-adv-x="1169" 
d="M584 -25q-208 0 -332.5 113t-124.5 309l61 19q-4 -175 106 -279t290 -104q165 0 269.5 95t104.5 243q0 157 -110 252.5t-283 95.5h-125v63h125q144 0 245 86.5t101 227.5q0 137 -95.5 221t-244.5 84q-152 0 -245.5 -93t-92.5 -247l-61 22q0 161 114 268t285 107
q187 0 297.5 -105t110.5 -257q0 -93 -43 -167.5t-105.5 -117t-136.5 -59.5q140 -24 235 -126.5t95 -254.5q0 -74 -25 -142t-75.5 -126t-138 -93t-201.5 -35z" />
    <glyph glyph-name="four" unicode="4" horiz-adv-x="1136" 
d="M809 0h-61v428h-678v57l643 949h96v-951h248v-55h-248v-428zM389 483h359v727v176l-613 -903h254z" />
    <glyph glyph-name="five" unicode="5" horiz-adv-x="1175" 
d="M586 -25q-104 0 -187 28t-137 77t-86.5 108.5t-44.5 128.5l64 31q21 -160 128 -237.5t263 -77.5q169 0 280 110.5t111 298.5q0 192 -105 298t-286 106q-217 0 -340 -201l-84 14l104 775h729v-58h-682l-45 -358q-12 -94 -43 -311q66 97 160 146.5t203 49.5q112 0 200 -36
t143.5 -99.5t84 -146t28.5 -179.5q0 -208 -129 -337.5t-329 -129.5z" />
    <glyph glyph-name="six" unicode="6" horiz-adv-x="1212" 
d="M635 -25q-77 0 -144 19.5t-131 69.5t-109.5 127t-73 200.5t-27.5 282.5q0 230 68.5 405t206 276t327.5 101q141 0 262 -47v-68q-132 56 -256 56q-148 0 -259.5 -65t-176 -180t-93 -263.5t-18.5 -323.5q6 39 23.5 82t53 90t82 83.5t116 60.5t149.5 24q109 0 197.5 -39.5
t143 -105.5t83 -147t28.5 -169t-29.5 -170.5t-84 -149.5t-142.5 -108t-196 -41zM635 33q164 0 275.5 110.5t111.5 298.5t-111.5 297t-275.5 109q-76 0 -146.5 -29.5t-124 -81.5t-86 -129t-32.5 -166q0 -180 115.5 -294.5t273.5 -114.5z" />
    <glyph glyph-name="seven" unicode="7" horiz-adv-x="1011" 
d="M367 0h-70q0 151 14.5 283.5t54 282.5t104.5 282t172.5 269.5t250.5 258.5h-281h-553v58h916v-45q-100 -87 -182.5 -176.5t-143 -177t-107 -173t-77 -175t-50.5 -171t-30.5 -173.5t-14 -170.5t-3.5 -172.5z" />
    <glyph glyph-name="eight" unicode="8" horiz-adv-x="1224" 
d="M612 -25q-99 0 -178.5 23t-132 61t-88 89.5t-51 107t-15.5 115.5q0 146 94 250.5t232 130.5q-119 33 -201 120.5t-82 227.5q0 154 114.5 256t307.5 102t307.5 -102t114.5 -256q0 -73 -24.5 -134t-66 -102.5t-86.5 -68.5t-95 -43q136 -29 226.5 -131.5t90.5 -249.5
q0 -60 -15.5 -115.5t-51.5 -107t-88.5 -89.5t-132.5 -61t-179 -23zM612 782q157 0 256 85.5t99 232.5q0 139 -99 220t-256 81q-154 0 -254 -81.5t-100 -219.5q0 -146 100 -232t254 -86zM612 33q182 0 291 92.5t109 243.5q0 155 -109.5 252.5t-290.5 97.5t-289 -97t-108 -253
q0 -152 107.5 -244t289.5 -92z" />
    <glyph glyph-name="nine" unicode="9" horiz-adv-x="1236" 
d="M526 -25q-90 0 -166 17.5t-151 68.5v66q136 -92 317 -92q229 0 359 190q147 213 141 615q-19 -69 -54 -125t-78 -93t-95 -61.5t-104 -35.5t-105 -11q-117 0 -208 38.5t-145.5 105t-82 147.5t-27.5 172q0 73 16.5 141t53.5 130t90 108.5t131 74t172 27.5q181 0 315 -117
q180 -159 180 -565q0 -194 -43 -348t-119 -252t-177 -149.5t-220 -51.5zM590 571q172 0 287.5 114t115.5 302q0 185 -116 299.5t-287 114.5q-175 0 -288.5 -110t-113.5 -304q0 -198 113 -307t289 -109z" />
    <glyph glyph-name="colon" unicode=":" horiz-adv-x="442" 
d="M272 772h-102v172h102v-172zM272 0h-102v172h102v-172z" />
    <glyph glyph-name="semicolon" unicode=";" horiz-adv-x="524" 
d="M324 772h-103v172h103v-172zM223 -219h-55l111 219h-54v172h103v-172z" />
    <glyph glyph-name="less" unicode="&#x3c;" horiz-adv-x="1339" 
d="M78 768l1102 504v-68l-762 -344l-297 -135q50 -23 149.5 -69t149.5 -68l760 -346v-68l-1102 512v82z" />
    <glyph glyph-name="equal" unicode="=" horiz-adv-x="1462" 
d="M1284 893h-1106v57h1106v-57zM1284 500h-1106v57h1106v-57z" />
    <glyph glyph-name="greater" unicode="&#x3e;" horiz-adv-x="1339" 
d="M1262 678l-1102 -504v68l762 344l297 135q-50 23 -149.5 69t-149.5 68l-760 346v68l1102 -512v-82z" />
    <glyph glyph-name="question" unicode="?" horiz-adv-x="909" 
d="M428 375h-61q2 129 32.5 202.5t116.5 155.5q143 134 190.5 210.5t47.5 174.5q0 125 -83 203t-216 78q-148 0 -229 -103t-72 -278l-62 10q-9 187 93.5 307.5t269.5 120.5q159 0 260.5 -95t101.5 -243q0 -111 -53 -199t-205 -225q-77 -71 -102 -131t-29 -188zM451 0h-103
v172h103v-172z" />
    <glyph glyph-name="at" unicode="@" horiz-adv-x="1855" 
d="M965 -248q-183 0 -336 56t-265 161.5t-174.5 267t-62.5 363.5q0 197 63 358.5t173.5 268t259.5 164t321 57.5q180 0 333 -58t259.5 -159.5t166.5 -242.5t60 -304q0 -117 -33.5 -214.5t-87.5 -157.5t-118 -93t-129 -33q-88 0 -132 52t-42 143q-45 -88 -123 -141.5
t-180 -53.5q-154 0 -250.5 108.5t-96.5 313.5q0 199 99 310.5t248 111.5q69 0 125.5 -19.5t91.5 -52t54.5 -59.5t33.5 -57v162h57v-637q0 -125 119 -125q51 0 103.5 29t98.5 82t75.5 140t29.5 191q0 150 -55.5 280.5t-154.5 224.5t-241.5 148t-310.5 54q-160 0 -298.5 -53.5
t-241 -152.5t-161.5 -249.5t-59 -335.5q0 -189 59 -340.5t164.5 -249t247.5 -149t310 -51.5q154 0 297.5 46t242.5 128l35 -52q-106 -85 -259 -132.5t-316 -47.5zM922 242q53 0 106 24t97.5 68t72 115.5t27.5 158.5q0 177 -82 272t-221 95q-126 0 -207.5 -96t-81.5 -271
t81.5 -270.5t207.5 -95.5z" />
    <glyph glyph-name="A" unicode="A" horiz-adv-x="1325" 
d="M1251 0h-71l-179 473h-679l-177 -473h-69l545 1434h81zM598 1219l-256 -689h639l-258 689q-10 28 -32 83t-32 82z" />
    <glyph glyph-name="B" unicode="B" horiz-adv-x="1409" 
d="M971 754q51 -11 101 -38t94.5 -71t72 -110.5t27.5 -145.5q0 -171 -109.5 -280t-290.5 -109h-620v1434h555q184 0 290.5 -98t106.5 -261q0 -69 -22.5 -127t-59 -96t-72.5 -61.5t-73 -36.5zM786 1376h-479v-602h479q168 0 257.5 84.5t89.5 216.5q0 131 -89.5 216t-257.5 85
zM307 57h549q159 0 251.5 96.5t92.5 235.5q0 140 -91 234t-251 94h-551v-660z" />
    <glyph glyph-name="C" unicode="C" horiz-adv-x="1488" 
d="M793 -25q-125 0 -230.5 39t-183 109t-132 166t-81.5 211.5t-27 244.5q0 211 76.5 371.5t225.5 251t352 90.5q112 0 208 -31t158.5 -76.5t111 -104t72.5 -105.5t35 -88l-61 -25q-13 46 -37.5 93.5t-69 98.5t-101 90.5t-139 65t-177.5 25.5q-187 0 -320.5 -82.5
t-200.5 -229t-67 -344.5q0 -149 39.5 -278t112.5 -226t185.5 -152.5t250.5 -55.5q399 0 536 395l62 -25q-22 -61 -51 -114.5t-79.5 -113.5t-112.5 -102t-154.5 -70t-200.5 -28z" />
    <glyph glyph-name="D" unicode="D" horiz-adv-x="1460" 
d="M614 0h-368v1434h366q330 0 519.5 -191t189.5 -524q0 -161 -44.5 -292t-131 -227t-222 -148t-309.5 -52zM307 1376v-1319h287q322 0 491.5 175t169.5 487t-170 484.5t-493 172.5h-285z" />
    <glyph glyph-name="E" unicode="E" horiz-adv-x="1286" 
d="M1184 0h-938v1434h938v-58h-877v-598h672v-57h-672v-664h877v-57z" />
    <glyph glyph-name="F" unicode="F" horiz-adv-x="1271" 
d="M307 0h-61v1434h983v-58h-922v-612h709v-57h-709v-707z" />
    <glyph glyph-name="G" unicode="G" horiz-adv-x="1603" 
d="M811 -25q-157 0 -285.5 58t-213 160t-130 240.5t-45.5 299.5q0 212 84.5 376.5t241 256.5t360.5 92q122 0 225 -32.5t169 -80t116 -109t74.5 -111t36.5 -95.5l-58 -22q-13 48 -37.5 96.5t-71 103.5t-106 96.5t-150.5 69t-198 27.5q-285 0 -452.5 -182.5t-167.5 -483.5
q0 -150 41.5 -278t118 -222.5t192 -148t256.5 -53.5q245 0 399.5 158t165.5 415h-561v58h623v-664h-62v367q-20 -61 -50 -114.5t-78 -105.5t-108 -89t-145 -60t-184 -23z" />
    <glyph glyph-name="H" unicode="H" horiz-adv-x="1576" 
d="M307 0h-61v1434h61v-656h963v656h61v-1434h-61v721h-963v-721z" />
    <glyph glyph-name="I" unicode="I" horiz-adv-x="552" 
d="M307 0h-61v1434h61v-1434z" />
    <glyph glyph-name="J" unicode="J" horiz-adv-x="960" 
d="M403 -25q-163 0 -253 116t-68 331l61 24q-13 -107 3.5 -189t56 -129.5t89.5 -71t109 -23.5q74 0 128 27.5t84 77.5t43.5 111.5t13.5 137.5v1047h61v-1072q0 -82 -17.5 -150t-55 -122t-102.5 -84.5t-153 -30.5z" />
    <glyph glyph-name="K" unicode="K" horiz-adv-x="1331" 
d="M1319 0h-84l-643 780l-285 -301v-479h-61v1434h61v-572v-299l817 871h84l-573 -607z" />
    <glyph glyph-name="L" unicode="L" horiz-adv-x="1130" 
d="M1098 0h-852v1434h61v-1377h791v-57z" />
    <glyph glyph-name="M" unicode="M" horiz-adv-x="1828" 
d="M307 0h-61v1434h100l490 -1145q44 -99 79 -193q70 167 82 195l490 1143h96v-1434h-61v1114v252l-582 -1366h-51l-582 1368v-260v-1108z" />
    <glyph glyph-name="N" unicode="N" horiz-adv-x="1576" 
d="M307 0h-61v1434h76l948 -1356v278v1078h61v-1434h-82l-942 1346v-291v-1055z" />
    <glyph glyph-name="O" unicode="O" horiz-adv-x="1630" 
d="M815 -25q-141 0 -266 55.5t-216.5 152.5t-144.5 237t-53 301q0 162 53 300.5t144.5 233.5t216.5 149t266 54t266 -54t216.5 -149.5t144.5 -234t53 -299.5q0 -160 -53 -300t-144.5 -237t-216.5 -153t-266 -56zM815 33q130 0 244.5 54t195.5 146t128 219t47 269
q0 141 -47 267t-128.5 217t-196 143.5t-243.5 52.5q-172 0 -313 -88.5t-221 -244.5t-80 -347q0 -190 79.5 -348t220.5 -249t314 -91z" />
    <glyph glyph-name="P" unicode="P" horiz-adv-x="1275" 
d="M307 0h-61v1434h506q107 0 192 -32t138 -87t80.5 -126.5t27.5 -154.5q0 -84 -27.5 -155.5t-81.5 -127t-140 -87t-196 -31.5h-438v-633zM307 1376v-686h428q80 0 146 19.5t110.5 52t75 77t44 93.5t13.5 102q0 68 -21.5 126.5t-65.5 108.5t-121.5 78.5t-180.5 28.5h-428z
" />
    <glyph glyph-name="Q" unicode="Q" horiz-adv-x="1654" 
d="M815 -25q-141 0 -266 55.5t-216.5 152.5t-144.5 237t-53 301q0 162 53 300.5t144.5 233.5t216.5 149t266 54t266 -54t216.5 -149.5t144.5 -234t53 -299.5q0 -158 -50.5 -294.5t-141.5 -236.5q59 -95 124.5 -124t182.5 -29v-62q-130 0 -209 35t-144 135
q-188 -170 -442 -170zM815 33q237 0 408 168l-136 209q-25 38 -48 64t-58.5 50.5t-84 34.5t-110.5 4v60q217 22 342 -166l138 -211q78 94 121 216.5t43 258.5q0 141 -47 267t-128.5 217t-196 143.5t-243.5 52.5q-172 0 -313 -88.5t-221 -244.5t-80 -347q0 -190 79.5 -348
t220.5 -249t314 -91z" />
    <glyph glyph-name="R" unicode="R" horiz-adv-x="1355" 
d="M307 0h-61v1434h510q184 0 303 -106t119 -281q0 -137 -79 -236t-218 -131q114 -20 171.5 -88.5t84.5 -183.5l98 -408h-68l-94 399q-31 133 -105 194.5t-233 61.5h-428v-655zM307 1376v-665h443q159 0 260.5 91.5t101.5 244.5q0 149 -102.5 239t-259.5 90h-443z" />
    <glyph glyph-name="S" unicode="S" horiz-adv-x="1224" 
d="M608 -25q-185 0 -312.5 87t-189.5 251l62 31q44 -142 165.5 -225.5t274.5 -83.5q191 0 306.5 86.5t115.5 232.5q0 128 -82 208t-231 124l-221 66q-328 98 -328 350q0 114 60.5 196t157.5 121t216 39q88 0 163.5 -21.5t124.5 -53t88 -73.5t59 -76t32 -67l-55 -30
q-12 30 -29.5 60t-52.5 68.5t-78 67t-109 48.5t-143 20q-160 0 -266.5 -79.5t-106.5 -215.5q0 -113 77.5 -183.5t246.5 -121.5l199 -60q344 -101 344 -385q0 -175 -130 -278t-358 -103z" />
    <glyph glyph-name="T" unicode="T" horiz-adv-x="1245" 
d="M635 0h-62v1376h-540v58h1179v-58h-577v-1376z" />
    <glyph glyph-name="U" unicode="U" horiz-adv-x="1363" 
d="M686 -25q-226 0 -343.5 141.5t-117.5 403.5v914h62v-897q0 -500 399 -500q202 0 296.5 127t94.5 373v897h62v-914q0 -263 -113.5 -404t-339.5 -141z" />
    <glyph glyph-name="V" unicode="V" horiz-adv-x="1253" 
d="M674 0h-94l-474 1434h66l340 -1035q62 -190 115 -344l92 273l366 1106h64z" />
    <glyph glyph-name="W" unicode="W" horiz-adv-x="1921" 
d="M569 0h-94l-358 1434h65l258 -1053q50 -201 84 -326q51 187 92 324l312 1055h65l310 -1055l96 -324l78 324l266 1055h63l-360 -1434h-92l-322 1083q-15 50 -71 252l-74 -254z" />
    <glyph glyph-name="X" unicode="X" horiz-adv-x="1206" 
d="M133 0h-74l506 737l-477 697h74l340 -498l102 -150q31 42 105 150l340 498h71l-481 -699l508 -735h-78l-356 522q-57 81 -113 164q-81 -125 -108 -164z" />
    <glyph glyph-name="Y" unicode="Y" horiz-adv-x="1298" 
d="M680 0h-62v637l-505 797h73l396 -631q8 -14 67 -105q63 92 74 109l389 627h74l-506 -799v-635z" />
    <glyph glyph-name="Z" unicode="Z" horiz-adv-x="1157" 
d="M1094 0h-1026v72l921 1304h-174h-684v58h934v-58l-932 -1319h168h793v-57z" />
    <glyph glyph-name="bracketleft" unicode="[" horiz-adv-x="651" 
d="M590 -307h-354v1853h354v-57h-293v-1739h293v-57z" />
    <glyph glyph-name="backslash" unicode="\" horiz-adv-x="794" 
d="M711 -227h-62l-567 1888h61z" />
    <glyph glyph-name="bracketright" unicode="]" horiz-adv-x="651" 
d="M61 1546h355v-1853h-355v57h293v1739h-293v57z" />
    <glyph glyph-name="asciicircum" unicode="^" horiz-adv-x="927" 
d="M193 690h-68l307 744h57l316 -744h-66l-188 449l-90 215l-86 -211z" />
    <glyph glyph-name="underscore" unicode="_" horiz-adv-x="1105" 
d="M1010 -213h-914v59h914v-59z" />
    <glyph glyph-name="grave" unicode="`" horiz-adv-x="520" 
d="M356 1159h-49l-205 234h93z" />
    <glyph glyph-name="a" unicode="a" horiz-adv-x="1083" 
d="M434 -25q-139 0 -222 69t-83 189q0 95 54 172t148.5 126.5t215 78t260.5 33.5v72q0 112 -73.5 184t-219.5 72q-268 0 -340 -207l-57 24q13 40 40 78.5t73 76.5t119.5 61.5t164.5 23.5q96 0 167 -27.5t110 -75.5t57 -103t18 -120v-518q0 -64 30.5 -95.5t78.5 -31.5h84v-57
h-76q-87 0 -131.5 48.5t-44.5 172.5q-51 -117 -145 -181.5t-228 -64.5zM434 33q67 0 130.5 24t119 73t89.5 135.5t34 199.5v125q-173 -7 -309.5 -48t-220.5 -121t-84 -188q0 -91 64.5 -145.5t176.5 -54.5z" />
    <glyph glyph-name="b" unicode="b" horiz-adv-x="1163" 
d="M621 -25q-128 0 -223.5 71.5t-133.5 172.5v-219h-59v1434h59v-451v-195q15 45 44.5 86t73 76t106 56.5t133.5 21.5q62 0 120.5 -18t112.5 -59t94 -100.5t64 -149.5t24 -199t-24 -199t-64.5 -150t-94.5 -101t-112 -59t-120 -18zM621 33q71 0 133 28.5t111.5 84t78.5 147.5
t29 209q0 228 -101.5 348.5t-250.5 120.5q-74 0 -138 -28.5t-114.5 -84t-79.5 -147t-29 -209.5t29 -210t79.5 -147.5t114.5 -83.5t138 -28z" />
    <glyph glyph-name="c" unicode="c" horiz-adv-x="1050" 
d="M557 -25q-193 0 -312.5 143.5t-119.5 385.5q0 147 52 266t150.5 188.5t225.5 69.5q155 0 258.5 -82t132.5 -194l-61 -19q-28 103 -114.5 170.5t-215.5 67.5q-154 0 -259.5 -123t-105.5 -344q0 -224 104 -347.5t265 -123.5q75 0 136 25.5t100 67.5t63 88t35 95l61 -18
q-36 -138 -139 -227t-256 -89z" />
    <glyph glyph-name="d" unicode="d" horiz-adv-x="1163" 
d="M543 -25q-62 0 -120 18t-112.5 59t-94.5 101t-64.5 150t-24.5 199t24 199t64.5 149.5t94.5 100.5t112.5 59t120.5 18q137 0 229 -71t127 -169v195v451h59v-1434h-59v219q-40 -102 -134.5 -173t-221.5 -71zM543 33q74 0 138 28t114 83.5t79 147.5t29 210t-29 209.5
t-79 147t-114 84t-138 28.5q-71 0 -133 -28.5t-112 -84.5t-79 -147.5t-29 -208.5t29 -209t79 -147.5t112 -84t133 -28.5z" />
    <glyph glyph-name="e" unicode="e" horiz-adv-x="1075" 
d="M547 -25q-195 0 -307.5 140.5t-112.5 416.5q0 118 34.5 213.5t92.5 156.5t132.5 93.5t156.5 32.5q194 0 309 -142t100 -370h-762q0 -107 20 -191t53.5 -138t80.5 -89.5t97 -50t106 -14.5q131 0 221 72t121 169l57 -26q-15 -46 -46.5 -91t-79.5 -87.5t-119.5 -68.5
t-153.5 -26zM188 571h707q0 99 -30 177.5t-80.5 126t-112 72t-129.5 24.5q-160 0 -254.5 -115t-100.5 -285z" />
    <glyph glyph-name="f" unicode="f" horiz-adv-x="718" 
d="M373 948v-948h-60v948h-272v56h272v163q0 267 287 267h113v-58h-125q-111 0 -163 -53t-52 -162v-157h307v-56h-307z" />
    <glyph glyph-name="g" unicode="g" horiz-adv-x="1148" 
d="M815 -399h-481q-138 0 -194 50.5t-56 137.5q0 72 43.5 130t105.5 95q-39 14 -69.5 49t-30.5 84q0 66 49 127t119 97q-135 104 -135 297q0 152 101.5 256t269.5 104q107 0 201.5 -55.5t131.5 -153.5q0 85 49.5 135t122.5 50h74v-56h-37q-28 0 -46 -2t-43.5 -12
t-40.5 -28.5t-26.5 -54.5t-11.5 -87v-88q0 -170 -107.5 -273.5t-271.5 -103.5q-107 0 -186 43q-65 -30 -108 -81.5t-43 -104.5q0 -50 35.5 -75.5t95.5 -25.5h467q125 0 203.5 -59t78.5 -168q0 -116 -74.5 -171.5t-185.5 -55.5zM532 354q140 0 229 88.5t89 221.5
q0 131 -90 219t-223 88q-139 0 -225.5 -86.5t-86.5 -220.5q0 -135 83.5 -222.5t223.5 -87.5zM348 -344h457q207 0 207 172q0 84 -63 128t-175 44h-483q-51 -25 -99.5 -83t-48.5 -120q0 -65 43.5 -103t161.5 -38z" />
    <glyph glyph-name="h" unicode="h" horiz-adv-x="1181" 
d="M264 0h-59v1434h57v-502v-154q7 32 31.5 71t66.5 81t111.5 70t151.5 28q97 0 170 -33t116 -91t63.5 -130.5t20.5 -159.5v-614h-61v598q0 180 -82.5 276.5t-231.5 96.5q-84 0 -149.5 -32t-103 -80t-61.5 -112t-32 -119.5t-8 -111.5v-516z" />
    <glyph glyph-name="i" unicode="i" horiz-adv-x="471" 
d="M266 1253h-61v181h61v-181zM264 0h-59v1004h59v-1004z" />
    <glyph glyph-name="j" unicode="j" horiz-adv-x="485" 
d="M281 1253h-64v181h64v-181zM39 -399h-113v57h107q38 0 69.5 10.5t59.5 34.5t43.5 68.5t15.5 107.5v1125h60v-1133q0 -136 -66.5 -203t-175.5 -67z" />
    <glyph glyph-name="k" unicode="k" horiz-adv-x="1101" 
d="M1077 0h-80l-489 559l-244 -209v-350h-59v1434h59v-729v-279l666 578h90l-469 -406z" />
    <glyph glyph-name="l" unicode="l" horiz-adv-x="468" 
d="M264 0h-59v1434h59v-1434z" />
    <glyph glyph-name="m" unicode="m" horiz-adv-x="1849" 
d="M264 0h-59v1004h57v-199q4 18 16 43t38.5 57.5t62.5 59t94 45t125 18.5q135 0 226.5 -75t113.5 -197q10 46 34 90t64 87t106 69t148 26q176 0 273.5 -104t97.5 -273v-651h-59v635q0 165 -86 250.5t-226 85.5q-65 0 -117.5 -18t-86 -45.5t-58 -68t-37 -77.5t-20 -83
t-9 -74.5t-1.5 -61.5v-543h-60v625q0 171 -85 258.5t-218 87.5q-54 0 -99 -11.5t-77 -29t-58 -46.5t-42 -56t-28 -67t-17.5 -68.5t-8.5 -72t-3.5 -67t-0.5 -61.5v-492z" />
    <glyph glyph-name="n" unicode="n" horiz-adv-x="1181" 
d="M264 0h-59v1004h57v-226q7 32 31.5 71t66.5 81t111.5 70t151.5 28q97 0 169.5 -33t115.5 -91t64 -131t21 -159v-614h-61v598q0 180 -82.5 276.5t-231.5 96.5q-84 0 -149.5 -32t-103 -80t-61.5 -112t-32 -119.5t-8 -111.5v-516z" />
    <glyph glyph-name="o" unicode="o" horiz-adv-x="1163" 
d="M582 -25q-84 0 -163.5 32t-147 94t-108 165.5t-40.5 233.5t41 234t108 166.5t146.5 95t163.5 32.5t163.5 -32.5t146.5 -95t107.5 -166.5t40.5 -234t-40.5 -233.5t-107.5 -165.5t-146.5 -94t-163.5 -32zM582 33q75 0 145 30t126 86t90 147.5t34 203.5t-34 204t-90 149
t-126 87.5t-145 30.5t-145 -30.5t-126.5 -87.5t-90.5 -149t-34 -204t34 -203.5t90.5 -147.5t126.5 -86t145 -30z" />
    <glyph glyph-name="p" unicode="p" horiz-adv-x="1163" 
d="M264 -399h-59v1403h59v-220q38 101 133.5 172.5t223.5 71.5q78 0 149.5 -30t132 -90.5t97 -165t36.5 -240.5t-36 -240.5t-96.5 -165t-132 -91t-150.5 -30.5q-71 0 -133.5 21.5t-106 56.5t-73 76t-44.5 86v-195v-419zM621 33q149 0 250.5 120.5t101.5 348.5q0 117 -29 209
t-78.5 147.5t-111.5 84t-133 28.5q-74 0 -138 -28t-114.5 -83.5t-79.5 -147.5t-29 -210t29 -209.5t79.5 -147t114.5 -84t138 -28.5z" />
    <glyph glyph-name="q" unicode="q" horiz-adv-x="1163" 
d="M958 -399h-59v419v195q-37 -98 -128 -169t-228 -71q-62 0 -120.5 18t-112.5 59t-94.5 101t-64.5 150t-24 199q0 136 36.5 240.5t97.5 165t132.5 90.5t149.5 30q127 0 221.5 -71t134.5 -173v220h59v-1403zM543 33q74 0 138 28.5t114 84t79 147t29 209.5t-29 210t-79 147.5
t-114 83.5t-138 28q-71 0 -133 -28.5t-112 -84t-79 -147.5t-29 -209t29 -208.5t79 -147.5t112 -84.5t133 -28.5z" />
    <glyph glyph-name="r" unicode="r" horiz-adv-x="788" 
d="M262 0h-57v1004h57v-252q25 109 112 186.5t218 77.5q87 0 156 -21v-59q-81 18 -152 18t-128 -26t-95 -70.5t-63.5 -108t-36.5 -135.5t-11 -155v-459z" />
    <glyph glyph-name="s" unicode="s" horiz-adv-x="968" 
d="M487 -25q-91 0 -163.5 25t-117 67t-70 90.5t-32.5 102.5l60 21q12 -99 97.5 -173.5t225.5 -74.5q149 0 227.5 59t78.5 152q0 84 -60.5 142t-167.5 85l-151 39q-40 10 -71.5 21t-70.5 32t-64.5 47t-43 66.5t-17.5 89.5q0 112 93 187t243 75q142 0 229 -66.5t113 -164.5
l-57 -25q-13 74 -87 136.5t-198 62.5q-129 0 -201.5 -59t-72.5 -136q0 -150 192 -198l154 -39q301 -76 301 -295q0 -116 -90.5 -192.5t-278.5 -76.5z" />
    <glyph glyph-name="t" unicode="t" horiz-adv-x="739" 
d="M705 0h-113q-287 0 -287 266v682h-270v56h270v288h60v-288h305v-56h-305v-676q0 -109 52 -162t163 -53h125v-57z" />
    <glyph glyph-name="u" unicode="u" horiz-adv-x="1159" 
d="M551 -25q-183 0 -273 106t-90 296v627h60v-607q0 -187 80.5 -275.5t220.5 -88.5q158 0 252 122t94 337v512h59v-1004h-57v236q-7 -24 -19 -51t-40.5 -66.5t-64.5 -69.5t-94.5 -52t-127.5 -22z" />
    <glyph glyph-name="v" unicode="v" horiz-adv-x="1064" 
d="M580 0h-84l-414 1004h65l236 -568l156 -383q56 146 147 379l223 572h64z" />
    <glyph glyph-name="w" unicode="w" horiz-adv-x="1636" 
d="M520 0h-84l-348 1004h64l198 -576q62 -183 129 -375q60 182 121 375l184 576h68l184 -576q62 -197 121 -375q34 105 127 375l201 576h63l-348 -1004h-86l-213 672l-84 264q-51 -174 -80 -264z" />
    <glyph glyph-name="x" unicode="x" horiz-adv-x="933" 
d="M135 0h-74l369 522l-334 482h72l199 -287q55 -81 98 -139q38 53 96 137l205 289h74l-338 -480l368 -524h-75l-226 324l-102 147q-58 -86 -100 -145z" />
    <glyph glyph-name="y" unicode="y" horiz-adv-x="1019" 
d="M623 338l241 666h66l-430 -1168q-24 -64 -45 -103.5t-54.5 -71.5t-80.5 -46t-115 -14h-111v57h111q91 0 145 39t96 153l72 197l-438 957h65l306 -666q53 -111 94 -211q36 92 78 211z" />
    <glyph glyph-name="z" unicode="z" horiz-adv-x="956" 
d="M879 0h-785v55l674 891h-170h-496v58h746v-52l-678 -895h180h527z" />
    <glyph glyph-name="braceleft" unicode="{" horiz-adv-x="626" 
d="M557 -307h-90q-188 0 -188 215v405q0 56 -3.5 92t-17 74.5t-38.5 60.5t-69.5 36t-107.5 14v59q63 0 107.5 14t69.5 36t38.5 60.5t17 74.5t3.5 92v405q0 215 188 215h90v-57h-88q-66 0 -97.5 -38t-31.5 -118v-426q0 -42 -2.5 -72.5t-12 -67t-27 -62t-49 -49.5t-75.5 -38
q55 -18 90 -47.5t50.5 -71t20.5 -78t5 -89.5v-426q0 -80 31.5 -118t97.5 -38h88v-57z" />
    <glyph glyph-name="bar" unicode="|" horiz-adv-x="530" 
d="M295 -227h-59v1888h59v-1888z" />
    <glyph glyph-name="braceright" unicode="}" horiz-adv-x="626" 
d="M70 1546h90q188 0 188 -215v-405q0 -56 3.5 -92t17 -74.5t38.5 -60.5t69.5 -36t107.5 -14v-59q-63 0 -107.5 -14t-69.5 -36t-38.5 -60.5t-17 -74.5t-3.5 -92v-405q0 -215 -188 -215h-90v57h88q66 0 97.5 38t31.5 118v426q0 42 2.5 72.5t12 67t27 62t49 49.5t75.5 38
q-55 18 -90 47.5t-50.5 71t-20.5 78t-5 89.5v426q0 80 -31.5 118t-97.5 38h-88v57z" />
    <glyph glyph-name="asciitilde" unicode="~" horiz-adv-x="1327" 
d="M889 696q-42 0 -85.5 11.5t-119.5 44.5l-61 26q-117 51 -183 51q-107 0 -213 -116l-43 45q118 131 262 131q79 0 205 -55l62 -27q117 -51 182 -51q107 0 213 116l43 -43q-114 -133 -262 -133z" />
    <glyph glyph-name="uni00A0" unicode="&#xa0;" horiz-adv-x="595" 
 />
    <glyph glyph-name="exclamdown" unicode="&#xa1;" horiz-adv-x="493" 
d="M197 1081h102v-172h-102v172zM227 707h39l13 -732v-327h-62v327z" />
    <glyph glyph-name="cent" unicode="&#xa2;" horiz-adv-x="1044" 
d="M573 -246h-57v223q-174 12 -279.5 154t-105.5 371q0 217 105.5 364.5t279.5 159.5v211h57v-209q77 -4 139.5 -29t104 -65t68 -85.5t39.5 -96.5l-58 -19q-64 225 -293 238v-701v-237q57 3 105 21.5t80.5 46t57.5 64t39 71.5t24 73l63 -18q-41 -140 -132 -224.5t-237 -91.5
v-221zM516 35v653v281q-139 -13 -230 -134.5t-91 -332.5t89 -333t232 -134z" />
    <glyph glyph-name="sterling" unicode="&#xa3;" horiz-adv-x="1167" 
d="M262 57h275h510v-57h-908v61q21 6 44.5 15t70.5 36t82 60.5t62.5 90.5t27.5 124q0 84 -24 149.5t-68 135.5h-191v57h152q-30 45 -44.5 70t-35 67t-29 84t-8.5 90q0 97 37 177.5t97.5 131t135 78t152.5 27.5q118 0 213 -41t159 -129t77 -213l-58 -31q-21 183 -126.5 270
t-264.5 87q-92 0 -173 -40t-134 -122.5t-53 -192.5q0 -22 2 -42t7.5 -41t9 -35.5t15 -36.5t15.5 -31.5t19 -33.5t18.5 -30t22 -33t20.5 -30h428v-57h-391q79 -136 79 -277q0 -106 -55 -196.5t-168 -141.5z" />
    <glyph glyph-name="currency" unicode="&#xa4;" horiz-adv-x="1310" 
d="M371 389l-166 -162l-37 39l164 166q-92 116 -92 289t92 289l-164 166l37 38l166 -161q115 106 284 106q170 0 285 -106l166 161l37 -38l-164 -166q92 -116 92 -289t-92 -289l164 -166l-37 -39l-166 162q-115 -106 -285 -106q-169 0 -284 106zM655 338q153 0 254 101
t101 282t-101 282t-254 101t-253.5 -101t-100.5 -282t100.5 -282t253.5 -101z" />
    <glyph glyph-name="yen" unicode="&#xa5;" horiz-adv-x="1228" 
d="M1085 1434h74l-465 -740h285v-57h-322v-250h322v-57h-322v-330h-61v330h-344v57h344v250h-344v57h307l-489 740h73l408 -623q49 -75 74 -113l71 111z" />
    <glyph glyph-name="brokenbar" unicode="&#xa6;" horiz-adv-x="530" 
d="M295 799h-59v862h59v-862zM295 -227h-59v866h59v-866z" />
    <glyph glyph-name="section" unicode="&#xa7;" horiz-adv-x="1179" 
d="M586 -420q-92 0 -164 23t-115.5 62t-69 80t-38.5 87l55 25q11 -42 32.5 -78.5t58.5 -72t99 -56.5t142 -21q132 0 221.5 75.5t89.5 197.5q0 91 -59.5 164t-192.5 112l-252 74q-301 89 -301 338q0 114 72 201.5t192 119.5q-64 40 -97.5 97t-33.5 145q0 137 100.5 221
t258.5 84q76 0 141 -18.5t106 -45.5t74 -63.5t49 -65.5t27 -59l-57 -26q-10 28 -23 53t-40.5 59t-62.5 58t-91 41.5t-123 17.5q-136 0 -219.5 -71.5t-83.5 -180.5q0 -100 56 -157.5t198 -98.5l251 -74q144 -42 222.5 -127t78.5 -211q0 -112 -73.5 -201t-202.5 -120
q143 -107 143 -266q0 -101 -51 -175.5t-133.5 -110.5t-183.5 -36zM743 207q123 13 204 94t81 188q0 213 -270 289l-273 78q-25 6 -51 16q-125 -14 -203.5 -89t-78.5 -189q0 -116 69.5 -186t200.5 -107l272 -78q19 -5 49 -16z" />
    <glyph glyph-name="dieresis" unicode="&#xa8;" horiz-adv-x="708" 
d="M225 1239h-82v143h82v-143zM565 1239h-82v143h82v-143z" />
    <glyph glyph-name="copyright" unicode="&#xa9;" horiz-adv-x="1818" 
d="M913 -72q-166 0 -312 61.5t-248.5 166.5t-162 250t-59.5 307q0 161 59.5 306.5t162 252.5t248.5 170t312 63q165 0 310 -63t246.5 -170t160 -252.5t58.5 -306.5q0 -162 -58.5 -307t-160 -250t-246.5 -166.5t-310 -61.5zM911 -14q154 0 287 56t225.5 153.5t145.5 231.5
t53 286t-53 287.5t-145.5 234t-225.5 156t-287 57.5q-205 0 -369 -98t-254.5 -265.5t-90.5 -371.5q0 -203 90.5 -369t254.5 -262t369 -96zM918 291q-168 0 -266.5 115.5t-98.5 314.5q0 187 97 308.5t263 121.5q128 0 219.5 -74t116.5 -178l-55 -22q-31 96 -104.5 157.5
t-174.5 61.5q-131 0 -216 -97t-85 -278q0 -180 84 -277.5t222 -97.5q63 0 114 23.5t83.5 62.5t51.5 76t31 78l60 -17q-39 -123 -123 -200.5t-219 -77.5z" />
    <glyph glyph-name="ordfeminine" unicode="&#xaa;" horiz-adv-x="1036" 
d="M489 592q-72 0 -134.5 26t-112.5 77t-78.5 136t-28.5 195q0 111 28.5 195t78.5 134t112 74.5t135 24.5q103 0 184.5 -45t119.5 -135v160h57v-822h-57v166q-38 -94 -117.5 -140t-186.5 -46zM494 647q139 0 221 95t82 282q0 188 -82 282.5t-221 94.5q-136 0 -215.5 -95
t-79.5 -282q0 -186 80 -281.5t215 -95.5z" />
    <glyph glyph-name="guillemotleft" unicode="&#xab;" horiz-adv-x="927" 
d="M119 516l256 387h71l-256 -387l256 -389h-73zM717 903h71l-256 -387l256 -389h-73l-254 389z" />
    <glyph glyph-name="logicalnot" unicode="&#xac;" horiz-adv-x="1456" 
d="M1266 385h-62v330h-1026v57h1088v-387z" />
    <glyph glyph-name="uni00AD" unicode="&#xad;" horiz-adv-x="749" 
d="M580 596h-410v68h410v-68z" />
    <glyph glyph-name="registered" unicode="&#xae;" horiz-adv-x="1232" 
d="M614 545q-205 0 -344 136.5t-139 344.5t138 343.5t345 135.5q208 0 348 -135.5t140 -343.5t-140.5 -344.5t-347.5 -136.5zM614 602q185 0 305.5 118.5t120.5 305.5t-120.5 304.5t-305.5 117.5q-183 0 -302 -117.5t-119 -304.5q0 -188 119 -306t302 -118zM514 801h-57v469
h196q62 0 104 -34.5t42 -86.5q0 -90 -101 -117q32 -8 51 -26.5t29 -59.5l33 -145h-63l-27 131q-8 40 -29.5 60t-64.5 20h-113v-211zM514 1214v-149h135q38 0 63 21t25 55q0 32 -25 52.5t-63 20.5h-135z" />
    <glyph glyph-name="macron" unicode="&#xaf;" horiz-adv-x="745" 
d="M674 1227h-602v55h602v-55z" />
    <glyph glyph-name="degree" unicode="&#xb0;" horiz-adv-x="839" 
d="M418 956q-126 0 -209.5 85t-83.5 208q0 124 84.5 210.5t210.5 86.5q127 0 211 -86t84 -211q0 -126 -84 -209.5t-213 -83.5zM420 1012q107 0 170 65.5t63 173.5q0 107 -63.5 172.5t-169.5 65.5q-102 0 -168 -66.5t-66 -171.5q0 -107 66 -173t168 -66z" />
    <glyph glyph-name="plusminus" unicode="&#xb1;" horiz-adv-x="1497" 
d="M780 457h-61v383h-529v57h529v385l61 -2v-383h527v-57h-527v-383zM1303 170h-1108v59h1108v-59z" />
    <glyph glyph-name="uni00B2" unicode="&#xb2;" horiz-adv-x="704" 
d="M600 821h-489v53q71 50 121 88.5t109.5 93.5t96 103.5t61.5 108t25 118.5q0 89 -48.5 140t-133.5 51q-35 0 -66.5 -10.5t-60 -34.5t-42 -69.5t-5.5 -108.5l-59 16q-10 117 55 189.5t178 72.5q108 0 175 -66.5t67 -174.5q0 -104 -64 -207q-100 -155 -321 -307h317h84v-56z
" />
    <glyph glyph-name="uni00B3" unicode="&#xb3;" horiz-adv-x="722" 
d="M360 809q-122 0 -191.5 67t-66.5 181l58 18q-7 -95 48 -153t152 -58q85 0 138 47.5t53 122.5q0 78 -55.5 127t-145.5 49h-80v58h80q77 0 126.5 44t49.5 113q0 68 -48 110t-124 42q-82 0 -129 -51.5t-41 -136.5l-57 20q-4 96 61 159.5t166 63.5t166.5 -58t65.5 -149
q0 -62 -34 -110.5t-95 -73.5q72 -25 112.5 -80t40.5 -127q0 -102 -68 -163.5t-182 -61.5z" />
    <glyph glyph-name="acute" unicode="&#xb4;" horiz-adv-x="520" 
d="M215 1159h-51l162 234h92z" />
    <glyph glyph-name="uni00B5" unicode="&#xb5;" horiz-adv-x="1216" 
d="M287 -401h-60v1405h60v-627q0 -173 84.5 -259.5t224.5 -86.5q68 0 122.5 22t89.5 61t60 85t37.5 100.5t17.5 100.5t5 92v512h59v-1004h-57v223q-5 -22 -17 -49.5t-38.5 -64.5t-62 -66t-92.5 -49.5t-124 -20.5q-213 0 -309 150v-524z" />
    <glyph glyph-name="paragraph" unicode="&#xb6;" horiz-adv-x="1099" 
d="M514 1434h459v-58h-139v-1777h-58v1777h-256v-1777h-59v1106h-25q-138 0 -251 106t-113 252q0 116 63 202t162 127.5t217 41.5z" />
    <glyph glyph-name="periodcentered" unicode="&#xb7;" horiz-adv-x="442" 
d="M272 575h-102v173h102v-173z" />
    <glyph glyph-name="cedilla" unicode="&#xb8;" horiz-adv-x="598" 
d="M299 -393q-58 0 -110.5 23t-86.5 63l39 43q69 -74 154 -74q59 0 94 25.5t35 72.5q0 43 -36 66.5t-83 23.5q-50 0 -90 -16l-33 41l127 145l47 -20l-47 -49q-23 -23 -57 -62q35 7 61 7q73 0 122.5 -35t49.5 -103q0 -70 -50.5 -110.5t-135.5 -40.5z" />
    <glyph glyph-name="uni00B9" unicode="&#xb9;" horiz-adv-x="518" 
d="M346 821h-57v457v217q-38 -52 -95 -91t-120 -56v59q159 59 239 213h33v-799z" />
    <glyph glyph-name="ordmasculine" unicode="&#xba;" horiz-adv-x="983" 
d="M492 592q-73 0 -136 25.5t-113.5 76.5t-79 136t-28.5 196t28.5 195t79 134t113 74.5t136.5 24.5t136.5 -24.5t112.5 -74.5t78.5 -134t28.5 -195t-28.5 -196t-78.5 -136t-113 -76.5t-136 -25.5zM492 647q134 0 213 95t79 282t-79 282t-213 95t-213.5 -95t-79.5 -282
t79.5 -282t213.5 -95z" />
    <glyph glyph-name="guillemotright" unicode="&#xbb;" horiz-adv-x="929" 
d="M395 514l-256 389h74l254 -389l-256 -387h-72zM481 903h74l254 -389l-256 -387h-72l256 387z" />
    <glyph glyph-name="onequarter" unicode="&#xbc;" horiz-adv-x="1529" 
d="M365 635h-58v457v217q-81 -111 -215 -148v60q160 59 240 213h33v-799zM221 0h-71l1009 1434h70zM1319 0h-57v231h-367v48l352 520h72v-514h133v-54h-133v-231zM1159 285h103v155v281l-297 -436h194z" />
    <glyph glyph-name="onehalf" unicode="&#xbd;" horiz-adv-x="1495" 
d="M365 635h-58v457v217q-81 -111 -215 -148v60q160 59 240 213h33v-799zM221 0h-71l1009 1434h70zM1417 0h-489v53q71 50 121 88.5t109.5 93.5t96 103.5t61.5 108t25 118.5q0 89 -48.5 140t-133.5 51q-35 0 -66.5 -11t-60 -34.5t-42 -69.5t-5.5 -109l-59 17
q-10 117 55 189.5t178 72.5q108 0 175 -67t67 -175q0 -104 -64 -207q-100 -155 -321 -307h317h84v-55z" />
    <glyph glyph-name="threequarters" unicode="&#xbe;" horiz-adv-x="1736" 
d="M365 623q-122 0 -192 66.5t-67 180.5l58 19q-7 -95 48.5 -153t152.5 -58q85 0 137.5 47.5t52.5 122.5q0 78 -55.5 127t-145.5 49h-80v57h80q77 0 126.5 44.5t49.5 113.5q0 68 -48 110t-124 42q-82 0 -129 -52t-41 -137l-57 21q-4 96 61 159.5t166 63.5t166.5 -58
t65.5 -149q0 -62 -34 -110.5t-95 -73.5q72 -25 112.5 -80t40.5 -127q0 -102 -67.5 -163.5t-181.5 -61.5zM428 0h-72l1010 1434h70zM1526 0h-58v231h-366v48l352 520h72v-514h133v-54h-133v-231zM1366 285h102v155v281l-297 -436h195z" />
    <glyph glyph-name="questiondown" unicode="&#xbf;" horiz-adv-x="899" 
d="M455 1079h102v-172h-102v172zM477 705h62q-1 -129 -32.5 -203t-117.5 -156q-143 -134 -190 -210.5t-47 -174.5q0 -125 83 -202.5t216 -77.5q148 0 229 102.5t72 277.5l61 -10q9 -187 -93 -307.5t-269 -120.5q-159 0 -261 95t-102 243q0 111 53 199t205 225
q77 71 102 131.5t29 188.5z" />
    <glyph glyph-name="Agrave" unicode="&#xc0;" horiz-adv-x="1325" 
d="M510 1843l178 -233h-53l-225 233h100zM1251 0h-71l-179 473h-679l-177 -473h-69l545 1434h81zM598 1219l-256 -689h639l-258 689q-10 28 -32 83t-32 82z" />
    <glyph glyph-name="Aacute" unicode="&#xc1;" horiz-adv-x="1325" 
d="M805 1843h102l-223 -233h-55zM1251 0h-71l-179 473h-679l-177 -473h-69l545 1434h81zM598 1219l-256 -689h639l-258 689q-10 28 -32 83t-32 82z" />
    <glyph glyph-name="Acircumflex" unicode="&#xc2;" horiz-adv-x="1325" 
d="M881 1610l-217 188l-220 -188h-65l231 233h105l231 -233h-65zM1251 0h-71l-179 473h-679l-177 -473h-69l545 1434h81zM598 1219l-256 -689h639l-258 689q-10 28 -32 83t-32 82z" />
    <glyph glyph-name="Atilde" unicode="&#xc3;" horiz-adv-x="1325" 
d="M393 1628h-63q-4 90 41.5 136t124.5 46q68 0 145 -53l66 -45q32 -22 44 -29.5t32 -13.5t46 -6q105 0 101 129h63q1 -91 -43.5 -136.5t-122.5 -45.5q-72 0 -149 53l-66 45q-5 3 -16 10.5t-14.5 10t-12.5 7.5t-12.5 6.5t-11 5t-12.5 4.5l-12.5 2.5t-15 2t-16.5 0.5
q-100 0 -96 -129zM1251 0h-71l-179 473h-679l-177 -473h-69l545 1434h81zM598 1219l-256 -689h639l-258 689q-10 28 -32 83t-32 82z" />
    <glyph glyph-name="Adieresis" unicode="&#xc4;" horiz-adv-x="1325" 
d="M422 1753h90v-143h-90v143zM797 1753h90v-143h-90v143zM1251 0h-71l-179 473h-679l-177 -473h-69l545 1434h81zM598 1219l-256 -689h639l-258 689q-10 28 -32 83t-32 82z" />
    <glyph glyph-name="Aring" unicode="&#xc5;" horiz-adv-x="1325" 
d="M662 1579q-87 0 -143 58.5t-56 140.5q0 80 56 137t143 57t140.5 -56.5t53.5 -137.5q0 -82 -53.5 -140.5t-140.5 -58.5zM662 1921q-62 0 -100 -43t-38 -100q0 -59 38 -103.5t100 -44.5q61 0 98 44.5t37 103.5q0 58 -37 100.5t-98 42.5zM1251 0h-71l-179 473h-679
l-177 -473h-69l545 1434h81zM598 1219l-256 -689h639l-258 689q-10 28 -32 83t-32 82z" />
    <glyph glyph-name="AE" unicode="&#xc6;" horiz-adv-x="1898" 
d="M1794 1434v-58h-778v-598h575v-57h-575v-664h778v-57h-840v465h-589l-297 -465h-74l926 1434h874zM954 522v477v383q-73 -112 -247 -383l-306 -477h553z" />
    <glyph glyph-name="Ccedilla" unicode="&#xc7;" horiz-adv-x="1488" 
d="M819 -25l-24 -24q-31 -31 -58 -62q35 7 62 7q73 0 122.5 -35t49.5 -103q0 -70 -51 -110.5t-136 -40.5q-58 0 -110 23t-86 63l39 43q69 -74 153 -74q59 0 94 25.5t35 72.5q0 43 -35.5 66.5t-82.5 23.5q-51 0 -91 -16l-32 41l88 100q-194 10 -335.5 115.5t-211.5 274.5
t-70 380t76.5 371.5t225.5 251t352 90.5q112 0 208 -31t158.5 -76.5t111 -104t72.5 -105.5t35 -88l-61 -25q-13 46 -37.5 93.5t-69 98.5t-101 90.5t-139 65t-177.5 25.5q-187 0 -320.5 -82.5t-200.5 -229t-67 -344.5q0 -149 39.5 -278t112.5 -226t185.5 -152.5t250.5 -55.5
q399 0 536 395l62 -25q-21 -59 -49 -111.5t-76.5 -111t-108.5 -101t-147.5 -72t-190.5 -32.5z" />
    <glyph glyph-name="Egrave" unicode="&#xc8;" horiz-adv-x="1286" 
d="M741 1610h-53l-225 233h100zM1184 0h-938v1434h938v-58h-877v-598h672v-57h-672v-664h877v-57z" />
    <glyph glyph-name="Eacute" unicode="&#xc9;" horiz-adv-x="1286" 
d="M737 1610h-55l176 233h103zM1184 0h-938v1434h938v-58h-877v-598h672v-57h-672v-664h877v-57z" />
    <glyph glyph-name="Ecircumflex" unicode="&#xca;" horiz-adv-x="1286" 
d="M498 1610h-66l232 233h104l231 -233h-65l-217 188zM1184 0h-938v1434h938v-58h-877v-598h672v-57h-672v-664h877v-57z" />
    <glyph glyph-name="Edieresis" unicode="&#xcb;" horiz-adv-x="1286" 
d="M565 1610h-90v143h90v-143zM940 1610h-90v143h90v-143zM1184 0h-938v1434h938v-58h-877v-598h672v-57h-672v-664h877v-57z" />
    <glyph glyph-name="Igrave" unicode="&#xcc;" horiz-adv-x="552" 
d="M303 1610h-53l-225 233h100zM307 0h-61v1434h61v-1434z" />
    <glyph glyph-name="Iacute" unicode="&#xcd;" horiz-adv-x="552" 
d="M299 1610h-55l176 233h102zM307 0h-61v1434h61v-1434z" />
    <glyph glyph-name="Icircumflex" unicode="&#xce;" horiz-adv-x="552" 
d="M59 1610h-65l231 233h105l231 -233h-65l-217 188zM307 0h-61v1434h61v-1434z" />
    <glyph glyph-name="Idieresis" unicode="&#xcf;" horiz-adv-x="552" 
d="M127 1610h-90v143h90v-143zM502 1610h-90v143h90v-143zM307 0h-61v1434h61v-1434z" />
    <glyph glyph-name="Eth" unicode="&#xd0;" horiz-adv-x="1468" 
d="M254 1434h367q330 0 519 -191t189 -524q0 -161 -44.5 -292t-130.5 -227t-221.5 -148t-309.5 -52h-369v692h-162v58h162v684zM315 57h287q322 0 492 175t170 487q0 311 -170.5 484t-493.5 173h-285v-626h385v-58h-385v-635z" />
    <glyph glyph-name="Ntilde" unicode="&#xd1;" horiz-adv-x="1576" 
d="M950 1610q-72 0 -149 53l-66 45q-5 3 -16 10.5t-14.5 10t-12.5 7.5t-12.5 6.5t-11 5t-12.5 4.5l-12.5 2.5t-15 2t-16.5 0.5q-100 0 -96 -129h-63q-4 90 41 136t124 46q69 0 146 -53l65 -45q32 -22 44.5 -29.5t32.5 -13.5t46 -6q105 0 101 129h63q1 -91 -43.5 -136.5
t-122.5 -45.5zM307 0h-61v1434h76l948 -1356v278v1078h61v-1434h-82l-942 1346v-291v-1055z" />
    <glyph glyph-name="Ograve" unicode="&#xd2;" horiz-adv-x="1630" 
d="M846 1610h-53l-226 233h101zM815 -25q-141 0 -266 55.5t-216.5 152.5t-144.5 237t-53 301q0 162 53 300.5t144.5 233.5t216.5 149t266 54t266 -54t216.5 -149.5t144.5 -234t53 -299.5q0 -160 -53 -300t-144.5 -237t-216.5 -153t-266 -56zM815 33q130 0 244.5 54
t195.5 146t128 219t47 269q0 141 -47 267t-128.5 217t-196 143.5t-243.5 52.5q-172 0 -313 -88.5t-221 -244.5t-80 -347q0 -190 79.5 -348t220.5 -249t314 -91z" />
    <glyph glyph-name="Oacute" unicode="&#xd3;" horiz-adv-x="1630" 
d="M842 1610h-56l177 233h102zM815 -25q-141 0 -266 55.5t-216.5 152.5t-144.5 237t-53 301q0 162 53 300.5t144.5 233.5t216.5 149t266 54t266 -54t216.5 -149.5t144.5 -234t53 -299.5q0 -160 -53 -300t-144.5 -237t-216.5 -153t-266 -56zM815 33q130 0 244.5 54t195.5 146
t128 219t47 269q0 141 -47 267t-128.5 217t-196 143.5t-243.5 52.5q-172 0 -313 -88.5t-221 -244.5t-80 -347q0 -190 79.5 -348t220.5 -249t314 -91z" />
    <glyph glyph-name="Ocircumflex" unicode="&#xd4;" horiz-adv-x="1630" 
d="M602 1610h-65l231 233h104l232 -233h-66l-217 188zM815 -25q-141 0 -266 55.5t-216.5 152.5t-144.5 237t-53 301q0 162 53 300.5t144.5 233.5t216.5 149t266 54t266 -54t216.5 -149.5t144.5 -234t53 -299.5q0 -160 -53 -300t-144.5 -237t-216.5 -153t-266 -56zM815 33
q130 0 244.5 54t195.5 146t128 219t47 269q0 141 -47 267t-128.5 217t-196 143.5t-243.5 52.5q-172 0 -313 -88.5t-221 -244.5t-80 -347q0 -190 79.5 -348t220.5 -249t314 -91z" />
    <glyph glyph-name="Otilde" unicode="&#xd5;" horiz-adv-x="1630" 
d="M985 1610q-72 0 -149 53l-66 45q-5 3 -16 10.5t-14.5 10t-12.5 7.5t-12.5 6.5t-11 5t-12.5 4.5l-12.5 2.5t-15 2t-16.5 0.5q-100 0 -96 -129h-64q-4 90 41.5 136t124.5 46q69 0 146 -53l65 -45q32 -22 44.5 -29.5t32.5 -13.5t46 -6q104 0 100 129h64q1 -91 -43.5 -136.5
t-122.5 -45.5zM815 -25q-141 0 -266 55.5t-216.5 152.5t-144.5 237t-53 301q0 162 53 300.5t144.5 233.5t216.5 149t266 54t266 -54t216.5 -149.5t144.5 -234t53 -299.5q0 -160 -53 -300t-144.5 -237t-216.5 -153t-266 -56zM815 33q130 0 244.5 54t195.5 146t128 219t47 269
q0 141 -47 267t-128.5 217t-196 143.5t-243.5 52.5q-172 0 -313 -88.5t-221 -244.5t-80 -347q0 -190 79.5 -348t220.5 -249t314 -91z" />
    <glyph glyph-name="Odieresis" unicode="&#xd6;" horiz-adv-x="1630" 
d="M670 1610h-90v143h90v-143zM1044 1610h-90v143h90v-143zM815 -25q-141 0 -266 55.5t-216.5 152.5t-144.5 237t-53 301q0 162 53 300.5t144.5 233.5t216.5 149t266 54t266 -54t216.5 -149.5t144.5 -234t53 -299.5q0 -160 -53 -300t-144.5 -237t-216.5 -153t-266 -56z
M815 33q130 0 244.5 54t195.5 146t128 219t47 269q0 141 -47 267t-128.5 217t-196 143.5t-243.5 52.5q-172 0 -313 -88.5t-221 -244.5t-80 -347q0 -190 79.5 -348t220.5 -249t314 -91z" />
    <glyph glyph-name="multiply" unicode="&#xd7;" horiz-adv-x="1253" 
d="M627 702l-416 -413l-41 43l414 413l-414 412l41 43l416 -414l415 414l41 -43l-413 -412l413 -413l-41 -43z" />
    <glyph glyph-name="Oslash" unicode="&#xd8;" horiz-adv-x="1632" 
d="M399 121l-120 -158l-48 39l123 160q-104 102 -161.5 245.5t-57.5 313.5q0 162 53 300.5t144.5 233.5t216.5 149t266 54q239 0 420 -145l133 174l45 -39l-135 -176q103 -98 160 -240t57 -311q0 -160 -53 -300t-144.5 -237t-216.5 -153t-266 -56q-233 0 -416 146zM393 213
l699 911q75 101 104 138q-164 139 -381 139q-172 0 -313 -88.5t-221 -244.5t-80 -347q0 -151 50 -282t142 -226zM815 33q130 0 244.5 54t195.5 146t128 219t47 269q0 148 -50 277t-141 223l-647 -848l-154 -201q161 -139 377 -139z" />
    <glyph glyph-name="Ugrave" unicode="&#xd9;" horiz-adv-x="1363" 
d="M709 1610h-54l-225 233h100zM686 -25q-226 0 -343.5 141.5t-117.5 403.5v914h62v-897q0 -500 399 -500q202 0 296.5 127t94.5 373v897h62v-914q0 -263 -113.5 -404t-339.5 -141z" />
    <glyph glyph-name="Uacute" unicode="&#xda;" horiz-adv-x="1363" 
d="M705 1610h-56l176 233h103zM686 -25q-226 0 -343.5 141.5t-117.5 403.5v914h62v-897q0 -500 399 -500q202 0 296.5 127t94.5 373v897h62v-914q0 -263 -113.5 -404t-339.5 -141z" />
    <glyph glyph-name="Ucircumflex" unicode="&#xdb;" horiz-adv-x="1363" 
d="M465 1610h-66l232 233h104l232 -233h-66l-217 188zM686 -25q-226 0 -343.5 141.5t-117.5 403.5v914h62v-897q0 -500 399 -500q202 0 296.5 127t94.5 373v897h62v-914q0 -263 -113.5 -404t-339.5 -141z" />
    <glyph glyph-name="Udieresis" unicode="&#xdc;" horiz-adv-x="1363" 
d="M532 1610h-90v143h90v-143zM907 1610h-90v143h90v-143zM686 -25q-226 0 -343.5 141.5t-117.5 403.5v914h62v-897q0 -500 399 -500q202 0 296.5 127t94.5 373v897h62v-914q0 -263 -113.5 -404t-339.5 -141z" />
    <glyph glyph-name="Yacute" unicode="&#xdd;" horiz-adv-x="1298" 
d="M698 1610h-55l176 233h103zM680 0h-62v637l-505 797h73l396 -631q8 -14 67 -105q63 92 74 109l389 627h74l-506 -799v-635z" />
    <glyph glyph-name="Thorn" unicode="&#xde;" horiz-adv-x="1296" 
d="M307 1151h436q106 0 189.5 -31.5t135.5 -87t79 -126.5t27 -154q0 -84 -27 -155.5t-79.5 -127t-137.5 -87.5t-193 -32h-430v-350h-61v1434h61v-283zM307 408h420q98 0 173.5 29t119.5 79t66 109.5t22 126.5q0 68 -20.5 126.5t-64 108.5t-119.5 78.5t-177 28.5h-420v-686z
" />
    <glyph glyph-name="germandbls" unicode="&#xdf;" horiz-adv-x="1167" 
d="M629 -25q-89 0 -183 27v61q92 -28 183 -28q152 0 255 94t103 254q0 86 -35 154.5t-94 111.5t-133.5 65.5t-157.5 22.5h-43v64h45q58 0 112.5 20.5t99.5 58.5t72.5 99.5t27.5 136.5q0 132 -84.5 208.5t-210.5 76.5q-158 0 -239 -98.5t-81 -264.5v-1038h-61v1040
q0 197 107 307.5t268 110.5q167 0 265.5 -101.5t98.5 -242.5q0 -111 -64 -206t-184 -134q152 -26 253.5 -130.5t101.5 -260.5q0 -189 -118 -298.5t-304 -109.5z" />
    <glyph glyph-name="agrave" unicode="&#xe0;" horiz-adv-x="1083" 
d="M528 1159h-49l-205 234h93zM434 -25q-139 0 -222 69t-83 189q0 95 54 172t148.5 126.5t215 78t260.5 33.5v72q0 112 -73.5 184t-219.5 72q-268 0 -340 -207l-57 24q13 40 40 78.5t73 76.5t119.5 61.5t164.5 23.5q96 0 167 -27.5t110 -75.5t57 -103t18 -120v-518
q0 -64 30.5 -95.5t78.5 -31.5h84v-57h-76q-87 0 -131.5 48.5t-44.5 172.5q-51 -117 -145 -181.5t-228 -64.5zM434 33q67 0 130.5 24t119 73t89.5 135.5t34 199.5v125q-173 -7 -309.5 -48t-220.5 -121t-84 -188q0 -91 64.5 -145.5t176.5 -54.5z" />
    <glyph glyph-name="aacute" unicode="&#xe1;" horiz-adv-x="1083" 
d="M532 1159h-51l162 234h92zM434 -25q-139 0 -222 69t-83 189q0 95 54 172t148.5 126.5t215 78t260.5 33.5v72q0 112 -73.5 184t-219.5 72q-268 0 -340 -207l-57 24q13 40 40 78.5t73 76.5t119.5 61.5t164.5 23.5q96 0 167 -27.5t110 -75.5t57 -103t18 -120v-518
q0 -64 30.5 -95.5t78.5 -31.5h84v-57h-76q-87 0 -131.5 48.5t-44.5 172.5q-51 -117 -145 -181.5t-228 -64.5zM434 33q67 0 130.5 24t119 73t89.5 135.5t34 199.5v125q-173 -7 -309.5 -48t-220.5 -121t-84 -188q0 -91 64.5 -145.5t176.5 -54.5z" />
    <glyph glyph-name="acircumflex" unicode="&#xe2;" horiz-adv-x="1083" 
d="M307 1159h-59l209 234h96l209 -234h-60l-196 189zM434 -25q-139 0 -222 69t-83 189q0 95 54 172t148.5 126.5t215 78t260.5 33.5v72q0 112 -73.5 184t-219.5 72q-268 0 -340 -207l-57 24q13 40 40 78.5t73 76.5t119.5 61.5t164.5 23.5q96 0 167 -27.5t110 -75.5t57 -103
t18 -120v-518q0 -64 30.5 -95.5t78.5 -31.5h84v-57h-76q-87 0 -131.5 48.5t-44.5 172.5q-51 -117 -145 -181.5t-228 -64.5zM434 33q67 0 130.5 24t119 73t89.5 135.5t34 199.5v125q-173 -7 -309.5 -48t-220.5 -121t-84 -188q0 -91 64.5 -145.5t176.5 -54.5z" />
    <glyph glyph-name="atilde" unicode="&#xe3;" horiz-adv-x="1083" 
d="M659 1178q-67 0 -137 53l-59 45q-31 23 -40.5 29.5t-28 13t-42.5 6.5q-92 0 -88 -129h-57q-4 90 37 136t112 46q63 0 133 -53l60 -45q29 -22 40.5 -29.5t30 -13.5t42.5 -6q94 0 90 129h57q1 -91 -39.5 -136.5t-110.5 -45.5zM434 -25q-139 0 -222 69t-83 189q0 95 54 172
t148.5 126.5t215 78t260.5 33.5v72q0 112 -73.5 184t-219.5 72q-268 0 -340 -207l-57 24q13 40 40 78.5t73 76.5t119.5 61.5t164.5 23.5q96 0 167 -27.5t110 -75.5t57 -103t18 -120v-518q0 -64 30.5 -95.5t78.5 -31.5h84v-57h-76q-87 0 -131.5 48.5t-44.5 172.5
q-51 -117 -145 -181.5t-228 -64.5zM434 33q67 0 130.5 24t119 73t89.5 135.5t34 199.5v125q-173 -7 -309.5 -48t-220.5 -121t-84 -188q0 -91 64.5 -145.5t176.5 -54.5z" />
    <glyph glyph-name="adieresis" unicode="&#xe4;" horiz-adv-x="1083" 
d="M377 1239h-82v143h82v-143zM717 1239h-82v143h82v-143zM434 -25q-139 0 -222 69t-83 189q0 95 54 172t148.5 126.5t215 78t260.5 33.5v72q0 112 -73.5 184t-219.5 72q-268 0 -340 -207l-57 24q13 40 40 78.5t73 76.5t119.5 61.5t164.5 23.5q96 0 167 -27.5t110 -75.5
t57 -103t18 -120v-518q0 -64 30.5 -95.5t78.5 -31.5h84v-57h-76q-87 0 -131.5 48.5t-44.5 172.5q-51 -117 -145 -181.5t-228 -64.5zM434 33q67 0 130.5 24t119 73t89.5 135.5t34 199.5v125q-173 -7 -309.5 -48t-220.5 -121t-84 -188q0 -91 64.5 -145.5t176.5 -54.5z" />
    <glyph glyph-name="aring" unicode="&#xe5;" horiz-adv-x="1083" 
d="M508 1112q-83 0 -136 55.5t-53 132.5t53 132t136 55q82 0 134 -55t52 -132q0 -78 -52 -133t-134 -55zM508 1161q59 0 94 41.5t35 97.5t-35 97t-94 41t-95 -41.5t-36 -96.5q0 -56 36 -97.5t95 -41.5zM434 -25q-139 0 -222 69t-83 189q0 95 54 172t148.5 126.5t215 78
t260.5 33.5v72q0 112 -73.5 184t-219.5 72q-268 0 -340 -207l-57 24q13 40 40 78.5t73 76.5t119.5 61.5t164.5 23.5q96 0 167 -27.5t110 -75.5t57 -103t18 -120v-518q0 -64 30.5 -95.5t78.5 -31.5h84v-57h-76q-87 0 -131.5 48.5t-44.5 172.5q-51 -117 -145 -181.5
t-228 -64.5zM434 33q67 0 130.5 24t119 73t89.5 135.5t34 199.5v125q-173 -7 -309.5 -48t-220.5 -121t-84 -188q0 -91 64.5 -145.5t176.5 -54.5z" />
    <glyph glyph-name="ae" unicode="&#xe6;" horiz-adv-x="1761" 
d="M449 -25q-151 0 -235.5 71.5t-84.5 191.5t93 212t246 140.5t343 52.5v47q0 130 -72.5 205.5t-220.5 75.5q-250 0 -346 -207l-53 22q14 32 32.5 61t52 63.5t75 59t104 41.5t135.5 17q155 0 240 -73t102 -179q43 119 141.5 185.5t221.5 66.5q198 0 313 -141.5t100 -370.5
h-764q0 -106 20.5 -190.5t54.5 -138.5t81 -89.5t96 -50t103 -14.5q131 0 222 70t130 167l59 -26q-19 -46 -52 -89.5t-82.5 -86t-121.5 -68t-155 -25.5q-148 0 -251 90t-134 248q-8 -62 -39 -121.5t-80.5 -108t-121 -78.5t-152.5 -30zM872 571h707q0 99 -30 177.5t-81 126
t-113.5 72t-131.5 24.5q-108 0 -187.5 -56t-119.5 -145t-44 -199zM449 33q51 0 100 13.5t97 47t84 83t58.5 127.5t22.5 175v111q-174 -4 -314 -47.5t-222 -123t-82 -181.5q0 -91 66 -148t190 -57z" />
    <glyph glyph-name="ccedilla" unicode="&#xe7;" horiz-adv-x="1050" 
d="M575 -25l-24 -24q-23 -23 -57 -62q35 7 61 7q73 0 122.5 -35t49.5 -103q0 -70 -50.5 -110.5t-135.5 -40.5q-58 0 -110.5 23t-86.5 63l39 43q69 -74 154 -74q59 0 94 25.5t35 72.5q0 43 -36 66.5t-83 23.5q-50 0 -90 -16l-33 41l90 102q-176 17 -282.5 158.5t-106.5 368.5
q0 147 52 266t150.5 188.5t225.5 69.5q155 0 258.5 -82t132.5 -194l-61 -19q-28 103 -114.5 170.5t-215.5 67.5q-154 0 -259.5 -123t-105.5 -344q0 -224 104 -347.5t265 -123.5q75 0 136 25.5t100 67.5t63 88t35 95l61 -18q-34 -134 -132.5 -222t-244.5 -94z" />
    <glyph glyph-name="egrave" unicode="&#xe8;" horiz-adv-x="1075" 
d="M565 1159h-49l-205 234h92zM547 -25q-195 0 -307.5 140.5t-112.5 416.5q0 118 34.5 213.5t92.5 156.5t132.5 93.5t156.5 32.5q194 0 309 -142t100 -370h-762q0 -107 20 -191t53.5 -138t80.5 -89.5t97 -50t106 -14.5q131 0 221 72t121 169l57 -26q-15 -46 -46.5 -91
t-79.5 -87.5t-119.5 -68.5t-153.5 -26zM188 571h707q0 99 -30 177.5t-80.5 126t-112 72t-129.5 24.5q-160 0 -254.5 -115t-100.5 -285z" />
    <glyph glyph-name="eacute" unicode="&#xe9;" horiz-adv-x="1075" 
d="M569 1159h-51l162 234h92zM547 -25q-195 0 -307.5 140.5t-112.5 416.5q0 118 34.5 213.5t92.5 156.5t132.5 93.5t156.5 32.5q194 0 309 -142t100 -370h-762q0 -107 20 -191t53.5 -138t80.5 -89.5t97 -50t106 -14.5q131 0 221 72t121 169l57 -26q-15 -46 -46.5 -91
t-79.5 -87.5t-119.5 -68.5t-153.5 -26zM188 571h707q0 99 -30 177.5t-80.5 126t-112 72t-129.5 24.5q-160 0 -254.5 -115t-100.5 -285z" />
    <glyph glyph-name="ecircumflex" unicode="&#xea;" horiz-adv-x="1075" 
d="M344 1159h-59l209 234h96l209 -234h-60l-196 189zM547 -25q-195 0 -307.5 140.5t-112.5 416.5q0 118 34.5 213.5t92.5 156.5t132.5 93.5t156.5 32.5q194 0 309 -142t100 -370h-762q0 -107 20 -191t53.5 -138t80.5 -89.5t97 -50t106 -14.5q131 0 221 72t121 169l57 -26
q-15 -46 -46.5 -91t-79.5 -87.5t-119.5 -68.5t-153.5 -26zM188 571h707q0 99 -30 177.5t-80.5 126t-112 72t-129.5 24.5q-160 0 -254.5 -115t-100.5 -285z" />
    <glyph glyph-name="edieresis" unicode="&#xeb;" horiz-adv-x="1075" 
d="M414 1239h-82v143h82v-143zM754 1239h-82v143h82v-143zM547 -25q-195 0 -307.5 140.5t-112.5 416.5q0 118 34.5 213.5t92.5 156.5t132.5 93.5t156.5 32.5q194 0 309 -142t100 -370h-762q0 -107 20 -191t53.5 -138t80.5 -89.5t97 -50t106 -14.5q131 0 221 72t121 169
l57 -26q-15 -46 -46.5 -91t-79.5 -87.5t-119.5 -68.5t-153.5 -26zM188 571h707q0 99 -30 177.5t-80.5 126t-112 72t-129.5 24.5q-160 0 -254.5 -115t-100.5 -285z" />
    <glyph glyph-name="igrave" unicode="&#xec;" horiz-adv-x="471" 
d="M258 1159h-49l-205 234h92zM266 0h-61v1004h59z" />
    <glyph glyph-name="iacute" unicode="&#xed;" horiz-adv-x="471" 
d="M262 1159h-51l162 234h92zM266 0h-61v1004h59z" />
    <glyph glyph-name="icircumflex" unicode="&#xee;" horiz-adv-x="471" 
d="M37 1159h-60l209 234h97l209 -234h-60l-196 189zM266 0h-61v1004h59z" />
    <glyph glyph-name="idieresis" unicode="&#xef;" horiz-adv-x="471" 
d="M106 1239h-81v143h81v-143zM446 1239h-81v143h81v-143zM266 0h-61v1004h59z" />
    <glyph glyph-name="eth" unicode="&#xf0;" horiz-adv-x="1097" 
d="M877 1419l-127 -125q186 -212 186 -645q0 -153 -23 -272t-61 -193.5t-92.5 -122.5t-112.5 -67t-125 -19q-90 0 -160 27.5t-113 72.5t-71 107t-38.5 124t-10.5 132q0 66 10 126.5t38 123t70.5 108t113 74.5t161.5 29q57 0 111.5 -17.5t106 -55t89.5 -104.5t52 -157
q3 478 -174 686l-185 -184l-37 39l185 184q-119 113 -301 113q-132 0 -209 -53v63q86 45 213 45q206 0 340 -125l127 125zM518 33q156 0 242 109t86 294q0 189 -91 297.5t-237 108.5q-159 0 -244.5 -105t-85.5 -299q0 -185 86.5 -295t243.5 -110z" />
    <glyph glyph-name="ntilde" unicode="&#xf1;" horiz-adv-x="1181" 
d="M741 1178q-67 0 -137 53l-59 45q-31 23 -40.5 29.5t-28 13t-42.5 6.5q-92 0 -88 -129h-57q-4 90 37 136t112 46q63 0 133 -53l60 -45q30 -23 40.5 -30t29 -13t42.5 -6q95 0 91 129h57q1 -91 -39.5 -136.5t-110.5 -45.5zM264 0h-59v1004h57v-226q7 32 31.5 71t66.5 81
t111.5 70t151.5 28q97 0 169.5 -33t115.5 -91t64 -131t21 -159v-614h-61v598q0 180 -82.5 276.5t-231.5 96.5q-84 0 -149.5 -32t-103 -80t-61.5 -112t-32 -119.5t-8 -111.5v-516z" />
    <glyph glyph-name="ograve" unicode="&#xf2;" horiz-adv-x="1163" 
d="M602 1159h-49l-205 234h92zM582 -25q-84 0 -163.5 32t-147 94t-108 165.5t-40.5 233.5t41 234t108 166.5t146.5 95t163.5 32.5t163.5 -32.5t146.5 -95t107.5 -166.5t40.5 -234t-40.5 -233.5t-107.5 -165.5t-146.5 -94t-163.5 -32zM582 33q75 0 145 30t126 86t90 147.5
t34 203.5t-34 204t-90 149t-126 87.5t-145 30.5t-145 -30.5t-126.5 -87.5t-90.5 -149t-34 -204t34 -203.5t90.5 -147.5t126.5 -86t145 -30z" />
    <glyph glyph-name="oacute" unicode="&#xf3;" horiz-adv-x="1163" 
d="M606 1159h-51l162 234h92zM582 -25q-84 0 -163.5 32t-147 94t-108 165.5t-40.5 233.5t41 234t108 166.5t146.5 95t163.5 32.5t163.5 -32.5t146.5 -95t107.5 -166.5t40.5 -234t-40.5 -233.5t-107.5 -165.5t-146.5 -94t-163.5 -32zM582 33q75 0 145 30t126 86t90 147.5
t34 203.5t-34 204t-90 149t-126 87.5t-145 30.5t-145 -30.5t-126.5 -87.5t-90.5 -149t-34 -204t34 -203.5t90.5 -147.5t126.5 -86t145 -30z" />
    <glyph glyph-name="ocircumflex" unicode="&#xf4;" horiz-adv-x="1163" 
d="M381 1159h-59l208 234h97l209 -234h-60l-196 189zM582 -25q-84 0 -163.5 32t-147 94t-108 165.5t-40.5 233.5t41 234t108 166.5t146.5 95t163.5 32.5t163.5 -32.5t146.5 -95t107.5 -166.5t40.5 -234t-40.5 -233.5t-107.5 -165.5t-146.5 -94t-163.5 -32zM582 33
q75 0 145 30t126 86t90 147.5t34 203.5t-34 204t-90 149t-126 87.5t-145 30.5t-145 -30.5t-126.5 -87.5t-90.5 -149t-34 -204t34 -203.5t90.5 -147.5t126.5 -86t145 -30z" />
    <glyph glyph-name="otilde" unicode="&#xf5;" horiz-adv-x="1163" 
d="M733 1178q-67 0 -137 53l-59 45q-31 23 -40.5 29.5t-28 13t-42.5 6.5q-92 0 -88 -129h-57q-4 90 37 136t112 46q63 0 133 -53l60 -45q30 -23 40.5 -30t29 -13t42.5 -6q94 0 90 129h58q1 -91 -39.5 -136.5t-110.5 -45.5zM582 -25q-84 0 -163.5 32t-147 94t-108 165.5
t-40.5 233.5t41 234t108 166.5t146.5 95t163.5 32.5t163.5 -32.5t146.5 -95t107.5 -166.5t40.5 -234t-40.5 -233.5t-107.5 -165.5t-146.5 -94t-163.5 -32zM582 33q75 0 145 30t126 86t90 147.5t34 203.5t-34 204t-90 149t-126 87.5t-145 30.5t-145 -30.5t-126.5 -87.5
t-90.5 -149t-34 -204t34 -203.5t90.5 -147.5t126.5 -86t145 -30z" />
    <glyph glyph-name="odieresis" unicode="&#xf6;" horiz-adv-x="1163" 
d="M451 1239h-82v143h82v-143zM791 1239h-82v143h82v-143zM582 -25q-84 0 -163.5 32t-147 94t-108 165.5t-40.5 233.5t41 234t108 166.5t146.5 95t163.5 32.5t163.5 -32.5t146.5 -95t107.5 -166.5t40.5 -234t-40.5 -233.5t-107.5 -165.5t-146.5 -94t-163.5 -32zM582 33
q75 0 145 30t126 86t90 147.5t34 203.5t-34 204t-90 149t-126 87.5t-145 30.5t-145 -30.5t-126.5 -87.5t-90.5 -149t-34 -204t34 -203.5t90.5 -147.5t126.5 -86t145 -30z" />
    <glyph glyph-name="divide" unicode="&#xf7;" horiz-adv-x="1497" 
d="M807 1049h-117v190h117v-190zM1307 696h-1117v58h1117v-58zM807 211h-117v190h117v-190z" />
    <glyph glyph-name="oslash" unicode="&#xf8;" horiz-adv-x="1169" 
d="M586 -25q-156 0 -277 97l-86 -115l-43 37l86 117q-139 146 -139 389q0 130 41 234t108 166.5t146.5 95t163.5 32.5q162 0 286 -106l68 90l45 -35l-72 -96q131 -144 131 -381q0 -130 -40.5 -233.5t-107.5 -165.5t-146.5 -94t-163.5 -32zM305 160l432 579l99 133
q-108 99 -250 99q-75 0 -145 -30.5t-126.5 -87.5t-90.5 -149t-34 -204q0 -212 115 -340zM586 33q75 0 145 30t126 86t90 147.5t34 203.5q0 199 -104 331l-424 -567l-107 -143q104 -88 240 -88z" />
    <glyph glyph-name="ugrave" unicode="&#xf9;" horiz-adv-x="1159" 
d="M594 1159h-49l-205 234h92zM551 -25q-183 0 -273 106t-90 296v627h60v-607q0 -187 80.5 -275.5t220.5 -88.5q158 0 252 122t94 337v512h59v-1004h-57v236q-7 -24 -19 -51t-40.5 -66.5t-64.5 -69.5t-94.5 -52t-127.5 -22z" />
    <glyph glyph-name="uacute" unicode="&#xfa;" horiz-adv-x="1159" 
d="M598 1159h-51l162 234h92zM551 -25q-183 0 -273 106t-90 296v627h60v-607q0 -187 80.5 -275.5t220.5 -88.5q158 0 252 122t94 337v512h59v-1004h-57v236q-7 -24 -19 -51t-40.5 -66.5t-64.5 -69.5t-94.5 -52t-127.5 -22z" />
    <glyph glyph-name="ucircumflex" unicode="&#xfb;" horiz-adv-x="1159" 
d="M373 1159h-60l209 234h96l209 -234h-59l-197 189zM551 -25q-183 0 -273 106t-90 296v627h60v-607q0 -187 80.5 -275.5t220.5 -88.5q158 0 252 122t94 337v512h59v-1004h-57v236q-7 -24 -19 -51t-40.5 -66.5t-64.5 -69.5t-94.5 -52t-127.5 -22z" />
    <glyph glyph-name="udieresis" unicode="&#xfc;" horiz-adv-x="1159" 
d="M442 1239h-82v143h82v-143zM782 1239h-82v143h82v-143zM551 -25q-183 0 -273 106t-90 296v627h60v-607q0 -187 80.5 -275.5t220.5 -88.5q158 0 252 122t94 337v512h59v-1004h-57v236q-7 -24 -19 -51t-40.5 -66.5t-64.5 -69.5t-94.5 -52t-127.5 -22z" />
    <glyph glyph-name="yacute" unicode="&#xfd;" horiz-adv-x="1019" 
d="M643 1393h92l-203 -234h-51zM623 338l241 666h66l-430 -1168q-24 -64 -45 -103.5t-54.5 -71.5t-80.5 -46t-115 -14h-111v57h111q91 0 145 39t96 153l72 197l-438 957h65l306 -666q53 -111 94 -211q36 92 78 211z" />
    <glyph glyph-name="thorn" unicode="&#xfe;" horiz-adv-x="1163" 
d="M264 -399h-59v1833h59v-451v-195q15 45 44.5 86t73 76t106 56.5t133.5 21.5q62 0 120.5 -18t112.5 -59t94 -100.5t64 -149.5t24 -199t-24 -199t-64.5 -150t-94.5 -101t-112 -59t-120 -18q-128 0 -223.5 71.5t-133.5 172.5v-194v-424zM621 33q71 0 133 28.5t111.5 84
t78.5 147.5t29 209q0 228 -101.5 348.5t-250.5 120.5q-74 0 -138 -28.5t-114.5 -84t-79.5 -147t-29 -209.5t29 -210t79.5 -147.5t114.5 -83.5t138 -28z" />
    <glyph glyph-name="ydieresis" unicode="&#xff;" horiz-adv-x="1019" 
d="M295 1382h82v-143h-82v143zM635 1382h82v-143h-82v143zM623 338l241 666h66l-430 -1168q-24 -64 -45 -103.5t-54.5 -71.5t-80.5 -46t-115 -14h-111v57h111q91 0 145 39t96 153l72 197l-438 957h65l306 -666q53 -111 94 -211q36 92 78 211z" />
    <glyph glyph-name="Amacron" unicode="&#x100;" horiz-adv-x="1325" 
d="M330 1726h661v-55h-661v55zM1251 0h-71l-179 473h-679l-177 -473h-69l545 1434h81zM598 1219l-256 -689h639l-258 689q-10 28 -32 83t-32 82z" />
    <glyph glyph-name="amacron" unicode="&#x101;" horiz-adv-x="1083" 
d="M807 1227h-602v55h602v-55zM434 -25q-139 0 -222 69t-83 189q0 95 54 172t148.5 126.5t215 78t260.5 33.5v72q0 112 -73.5 184t-219.5 72q-268 0 -340 -207l-57 24q13 40 40 78.5t73 76.5t119.5 61.5t164.5 23.5q96 0 167 -27.5t110 -75.5t57 -103t18 -120v-518
q0 -64 30.5 -95.5t78.5 -31.5h84v-57h-76q-87 0 -131.5 48.5t-44.5 172.5q-51 -117 -145 -181.5t-228 -64.5zM434 33q67 0 130.5 24t119 73t89.5 135.5t34 199.5v125q-173 -7 -309.5 -48t-220.5 -121t-84 -188q0 -91 64.5 -145.5t176.5 -54.5z" />
    <glyph glyph-name="Abreve" unicode="&#x102;" horiz-adv-x="1325" 
d="M659 1599q-122 0 -191 66.5t-77 173.5h55q11 -93 69 -137.5t144 -44.5q84 0 142 44.5t69 137.5h56q-8 -107 -77.5 -173.5t-189.5 -66.5zM1251 0h-71l-179 473h-679l-177 -473h-69l545 1434h81zM598 1219l-256 -689h639l-258 689q-10 28 -32 83t-32 82z" />
    <glyph glyph-name="abreve" unicode="&#x103;" horiz-adv-x="1083" 
d="M506 1153q-110 0 -173 66.5t-71 173.5h51q10 -93 63 -138t130 -45t129.5 45t62.5 138h52q-8 -107 -71 -173.5t-173 -66.5zM434 -25q-139 0 -222 69t-83 189q0 95 54 172t148.5 126.5t215 78t260.5 33.5v72q0 112 -73.5 184t-219.5 72q-268 0 -340 -207l-57 24
q13 40 40 78.5t73 76.5t119.5 61.5t164.5 23.5q96 0 167 -27.5t110 -75.5t57 -103t18 -120v-518q0 -64 30.5 -95.5t78.5 -31.5h84v-57h-76q-87 0 -131.5 48.5t-44.5 172.5q-51 -117 -145 -181.5t-228 -64.5zM434 33q67 0 130.5 24t119 73t89.5 135.5t34 199.5v125
q-173 -7 -309.5 -48t-220.5 -121t-84 -188q0 -91 64.5 -145.5t176.5 -54.5z" />
    <glyph glyph-name="Aogonek" unicode="&#x104;" horiz-adv-x="1325" 
d="M1165 -332q30 0 88 21v-56q-16 -10 -45 -16t-45 -6q-74 0 -116.5 43t-42.5 108q0 62 43.5 129.5t128.5 116.5l-175 465h-679l-177 -473h-69l545 1434h81l549 -1434q-99 -52 -144.5 -107.5t-45.5 -121.5q0 -45 28 -74t76 -29zM598 1219l-256 -689h639l-258 689
q-10 28 -32 83t-32 82z" />
    <glyph glyph-name="aogonek" unicode="&#x105;" horiz-adv-x="1083" 
d="M973 -332q30 0 88 21v-56q-16 -10 -45 -16t-45 -6q-74 0 -117 43t-43 108q0 60 39.5 124t118.5 114q-79 3 -120.5 52.5t-41.5 168.5q-51 -117 -145 -181.5t-228 -64.5q-139 0 -222 69t-83 189q0 95 54 172t148.5 126.5t215 78t260.5 33.5v72q0 112 -73.5 184t-219.5 72
q-268 0 -340 -207l-57 24q13 40 40 78.5t73 76.5t119.5 61.5t164.5 23.5q96 0 167 -27.5t110 -75.5t57 -103t18 -120v-518q0 -64 30.5 -95.5t78.5 -31.5h84v-57q-191 -99 -191 -229q0 -45 28.5 -74t76.5 -29zM807 465v125q-173 -7 -309.5 -48t-220.5 -121t-84 -188
q0 -91 64.5 -145.5t176.5 -54.5q67 0 130.5 24t119 73t89.5 135.5t34 199.5z" />
    <glyph glyph-name="Cacute" unicode="&#x106;" horiz-adv-x="1488" 
d="M817 1610h-55l176 233h102zM793 -25q-125 0 -230.5 39t-183 109t-132 166t-81.5 211.5t-27 244.5q0 211 76.5 371.5t225.5 251t352 90.5q112 0 208 -31t158.5 -76.5t111 -104t72.5 -105.5t35 -88l-61 -25q-13 46 -37.5 93.5t-69 98.5t-101 90.5t-139 65t-177.5 25.5
q-187 0 -320.5 -82.5t-200.5 -229t-67 -344.5q0 -149 39.5 -278t112.5 -226t185.5 -152.5t250.5 -55.5q399 0 536 395l62 -25q-22 -61 -51 -114.5t-79.5 -113.5t-112.5 -102t-154.5 -70t-200.5 -28z" />
    <glyph glyph-name="cacute" unicode="&#x107;" horiz-adv-x="1050" 
d="M580 1159h-52l162 234h92zM557 -25q-193 0 -312.5 143.5t-119.5 385.5q0 147 52 266t150.5 188.5t225.5 69.5q155 0 258.5 -82t132.5 -194l-61 -19q-28 103 -114.5 170.5t-215.5 67.5q-154 0 -259.5 -123t-105.5 -344q0 -224 104 -347.5t265 -123.5q75 0 136 25.5
t100 67.5t63 88t35 95l61 -18q-36 -138 -139 -227t-256 -89z" />
    <glyph glyph-name="Ccircumflex" unicode="&#x108;" horiz-adv-x="1488" 
d="M578 1610h-66l231 233h105l231 -233h-65l-217 188zM793 -25q-125 0 -230.5 39t-183 109t-132 166t-81.5 211.5t-27 244.5q0 211 76.5 371.5t225.5 251t352 90.5q112 0 208 -31t158.5 -76.5t111 -104t72.5 -105.5t35 -88l-61 -25q-13 46 -37.5 93.5t-69 98.5t-101 90.5
t-139 65t-177.5 25.5q-187 0 -320.5 -82.5t-200.5 -229t-67 -344.5q0 -149 39.5 -278t112.5 -226t185.5 -152.5t250.5 -55.5q399 0 536 395l62 -25q-22 -61 -51 -114.5t-79.5 -113.5t-112.5 -102t-154.5 -70t-200.5 -28z" />
    <glyph glyph-name="ccircumflex" unicode="&#x109;" horiz-adv-x="1050" 
d="M354 1159h-59l209 234h96l209 -234h-59l-197 189zM557 -25q-193 0 -312.5 143.5t-119.5 385.5q0 147 52 266t150.5 188.5t225.5 69.5q155 0 258.5 -82t132.5 -194l-61 -19q-28 103 -114.5 170.5t-215.5 67.5q-154 0 -259.5 -123t-105.5 -344q0 -224 104 -347.5
t265 -123.5q75 0 136 25.5t100 67.5t63 88t35 95l61 -18q-36 -138 -139 -227t-256 -89z" />
    <glyph glyph-name="Cdotaccent" unicode="&#x10a;" horiz-adv-x="1488" 
d="M825 1610h-61v180h61v-180zM793 -25q-125 0 -230.5 39t-183 109t-132 166t-81.5 211.5t-27 244.5q0 211 76.5 371.5t225.5 251t352 90.5q112 0 208 -31t158.5 -76.5t111 -104t72.5 -105.5t35 -88l-61 -25q-13 46 -37.5 93.5t-69 98.5t-101 90.5t-139 65t-177.5 25.5
q-187 0 -320.5 -82.5t-200.5 -229t-67 -344.5q0 -149 39.5 -278t112.5 -226t185.5 -152.5t250.5 -55.5q399 0 536 395l62 -25q-22 -61 -51 -114.5t-79.5 -113.5t-112.5 -102t-154.5 -70t-200.5 -28z" />
    <glyph glyph-name="cdotaccent" unicode="&#x10b;" horiz-adv-x="1050" 
d="M584 1253h-62v181h62v-181zM557 -25q-193 0 -312.5 143.5t-119.5 385.5q0 147 52 266t150.5 188.5t225.5 69.5q155 0 258.5 -82t132.5 -194l-61 -19q-28 103 -114.5 170.5t-215.5 67.5q-154 0 -259.5 -123t-105.5 -344q0 -224 104 -347.5t265 -123.5q75 0 136 25.5
t100 67.5t63 88t35 95l61 -18q-36 -138 -139 -227t-256 -89z" />
    <glyph glyph-name="Ccaron" unicode="&#x10c;" horiz-adv-x="1488" 
d="M1014 1843h65l-231 -233h-105l-231 233h66l217 -188zM793 -25q-125 0 -230.5 39t-183 109t-132 166t-81.5 211.5t-27 244.5q0 211 76.5 371.5t225.5 251t352 90.5q112 0 208 -31t158.5 -76.5t111 -104t72.5 -105.5t35 -88l-61 -25q-13 46 -37.5 93.5t-69 98.5t-101 90.5
t-139 65t-177.5 25.5q-187 0 -320.5 -82.5t-200.5 -229t-67 -344.5q0 -149 39.5 -278t112.5 -226t185.5 -152.5t250.5 -55.5q399 0 536 395l62 -25q-22 -61 -51 -114.5t-79.5 -113.5t-112.5 -102t-154.5 -70t-200.5 -28z" />
    <glyph glyph-name="ccaron" unicode="&#x10d;" horiz-adv-x="1050" 
d="M600 1159h-96l-209 234h59l199 -189l197 189h59zM557 -25q-193 0 -312.5 143.5t-119.5 385.5q0 147 52 266t150.5 188.5t225.5 69.5q155 0 258.5 -82t132.5 -194l-61 -19q-28 103 -114.5 170.5t-215.5 67.5q-154 0 -259.5 -123t-105.5 -344q0 -224 104 -347.5t265 -123.5
q75 0 136 25.5t100 67.5t63 88t35 95l61 -18q-36 -138 -139 -227t-256 -89z" />
    <glyph glyph-name="Dcaron" unicode="&#x10e;" horiz-adv-x="1460" 
d="M854 1843h66l-232 -233h-104l-232 233h66l217 -188zM614 0h-368v1434h366q330 0 519.5 -191t189.5 -524q0 -161 -44.5 -292t-131 -227t-222 -148t-309.5 -52zM307 1376v-1319h287q322 0 491.5 175t169.5 487t-170 484.5t-493 172.5h-285z" />
    <glyph glyph-name="dcaron" unicode="&#x10f;" horiz-adv-x="1159" 
d="M543 -25q-62 0 -120 18t-112.5 59t-94.5 101t-64.5 150t-24.5 199t24 199t64.5 149.5t94.5 100.5t112.5 59t120.5 18q137 0 229 -71t127 -169v195v451h59v-1434h-59v219q-40 -102 -134.5 -173t-221.5 -71zM1145 1102h-47l92 186h-45v146h88v-146zM543 33q74 0 138 28
t114 83.5t79 147.5t29 210t-29 209.5t-79 147t-114 84t-138 28.5q-71 0 -133 -28.5t-112 -84.5t-79 -147.5t-29 -208.5t29 -209t79 -147.5t112 -84t133 -28.5z" />
    <glyph glyph-name="Dcroat" unicode="&#x110;" horiz-adv-x="1468" 
d="M254 1434h367q330 0 519 -191t189 -524q0 -161 -44.5 -292t-130.5 -227t-221.5 -148t-309.5 -52h-369v692h-162v58h162v684zM315 57h287q322 0 492 175t170 487q0 311 -170.5 484t-493.5 173h-285v-626h385v-58h-385v-635z" />
    <glyph glyph-name="dcroat" unicode="&#x111;" horiz-adv-x="1134" 
d="M958 1255h187v-47h-187v-1208h-59v219q-40 -102 -134.5 -173t-221.5 -71q-62 0 -120 18t-112.5 59t-94.5 101t-64.5 150t-24.5 199t24 199t64.5 149.5t94.5 100.5t112.5 59t120.5 18q137 0 229 -71t127 -169v195v225h-389v47h389v179h59v-179zM543 33q74 0 138 28
t114 83.5t79 147.5t29 210t-29 209.5t-79 147t-114 84t-138 28.5q-71 0 -133 -28.5t-112 -84.5t-79 -147.5t-29 -208.5t29 -209t79 -147.5t112 -84t133 -28.5z" />
    <glyph glyph-name="Emacron" unicode="&#x112;" horiz-adv-x="1286" 
d="M1044 1671h-661v55h661v-55zM1184 0h-938v1434h938v-58h-877v-598h672v-57h-672v-664h877v-57z" />
    <glyph glyph-name="emacron" unicode="&#x113;" horiz-adv-x="1075" 
d="M844 1227h-602v55h602v-55zM547 -25q-195 0 -307.5 140.5t-112.5 416.5q0 118 34.5 213.5t92.5 156.5t132.5 93.5t156.5 32.5q194 0 309 -142t100 -370h-762q0 -107 20 -191t53.5 -138t80.5 -89.5t97 -50t106 -14.5q131 0 221 72t121 169l57 -26q-15 -46 -46.5 -91
t-79.5 -87.5t-119.5 -68.5t-153.5 -26zM188 571h707q0 99 -30 177.5t-80.5 126t-112 72t-129.5 24.5q-160 0 -254.5 -115t-100.5 -285z" />
    <glyph glyph-name="Ebreve" unicode="&#x114;" horiz-adv-x="1286" 
d="M713 1599q-122 0 -191.5 66.5t-77.5 173.5h56q11 -93 69 -137.5t144 -44.5q84 0 142 44.5t69 137.5h55q-8 -107 -77 -173.5t-189 -66.5zM1184 0h-938v1434h938v-58h-877v-598h672v-57h-672v-664h877v-57z" />
    <glyph glyph-name="ebreve" unicode="&#x115;" horiz-adv-x="1075" 
d="M543 1153q-110 0 -173 66.5t-71 173.5h51q10 -93 63 -138t130 -45t129.5 45t62.5 138h51q-8 -107 -70.5 -173.5t-172.5 -66.5zM547 -25q-195 0 -307.5 140.5t-112.5 416.5q0 118 34.5 213.5t92.5 156.5t132.5 93.5t156.5 32.5q194 0 309 -142t100 -370h-762
q0 -107 20 -191t53.5 -138t80.5 -89.5t97 -50t106 -14.5q131 0 221 72t121 169l57 -26q-15 -46 -46.5 -91t-79.5 -87.5t-119.5 -68.5t-153.5 -26zM188 571h707q0 99 -30 177.5t-80.5 126t-112 72t-129.5 24.5q-160 0 -254.5 -115t-100.5 -285z" />
    <glyph glyph-name="Edotaccent" unicode="&#x116;" horiz-adv-x="1286" 
d="M745 1610h-61v180h61v-180zM1184 0h-938v1434h938v-58h-877v-598h672v-57h-672v-664h877v-57z" />
    <glyph glyph-name="edotaccent" unicode="&#x117;" horiz-adv-x="1075" 
d="M573 1253h-61v181h61v-181zM547 -25q-195 0 -307.5 140.5t-112.5 416.5q0 118 34.5 213.5t92.5 156.5t132.5 93.5t156.5 32.5q194 0 309 -142t100 -370h-762q0 -107 20 -191t53.5 -138t80.5 -89.5t97 -50t106 -14.5q131 0 221 72t121 169l57 -26q-15 -46 -46.5 -91
t-79.5 -87.5t-119.5 -68.5t-153.5 -26zM188 571h707q0 99 -30 177.5t-80.5 126t-112 72t-129.5 24.5q-160 0 -254.5 -115t-100.5 -285z" />
    <glyph glyph-name="Eogonek" unicode="&#x118;" horiz-adv-x="1286" 
d="M1098 -332q30 0 88 21v-56q-16 -10 -45 -16t-45 -6q-74 0 -117 43t-43 108q0 60 39.5 124t118.5 114h-848v1434h938v-58h-877v-598h672v-57h-672v-664h877v-57q-191 -99 -191 -229q0 -45 28.5 -74t76.5 -29z" />
    <glyph glyph-name="eogonek" unicode="&#x119;" horiz-adv-x="1075" 
d="M127 532q0 118 34.5 213.5t92.5 156.5t132.5 93.5t156.5 32.5q194 0 309 -142t100 -370h-762q0 -107 20 -191t53.5 -138t80.5 -89.5t97 -50t106 -14.5q71 0 131.5 22.5t101.5 59.5t68 77t41 82l57 -26q-23 -71 -84.5 -138.5t-146.5 -105.5q-211 -96 -211 -233
q0 -47 24 -75t72 -28q38 0 96 21v-56q-16 -9 -47.5 -15.5t-50.5 -6.5q-73 0 -112.5 42.5t-39.5 108.5q0 53 31.5 109.5t95.5 103.5q-215 -9 -330.5 136t-115.5 421zM188 571h707q0 99 -30 177.5t-80.5 126t-112 72t-129.5 24.5q-160 0 -254.5 -115t-100.5 -285z" />
    <glyph glyph-name="Ecaron" unicode="&#x11a;" horiz-adv-x="1286" 
d="M934 1843h65l-231 -233h-104l-232 233h66l217 -188zM1184 0h-938v1434h938v-58h-877v-598h672v-57h-672v-664h877v-57z" />
    <glyph glyph-name="ecaron" unicode="&#x11b;" horiz-adv-x="1075" 
d="M590 1159h-96l-209 234h59l199 -189l196 189h60zM547 -25q-195 0 -307.5 140.5t-112.5 416.5q0 118 34.5 213.5t92.5 156.5t132.5 93.5t156.5 32.5q194 0 309 -142t100 -370h-762q0 -107 20 -191t53.5 -138t80.5 -89.5t97 -50t106 -14.5q131 0 221 72t121 169l57 -26
q-15 -46 -46.5 -91t-79.5 -87.5t-119.5 -68.5t-153.5 -26zM188 571h707q0 99 -30 177.5t-80.5 126t-112 72t-129.5 24.5q-160 0 -254.5 -115t-100.5 -285z" />
    <glyph glyph-name="Gcircumflex" unicode="&#x11c;" horiz-adv-x="1603" 
d="M600 1610h-65l231 233h104l232 -233h-66l-217 188zM811 -25q-157 0 -285.5 58t-213 160t-130 240.5t-45.5 299.5q0 212 84.5 376.5t241 256.5t360.5 92q122 0 225 -32.5t169 -80t116 -109t74.5 -111t36.5 -95.5l-58 -22q-13 48 -37.5 96.5t-71 103.5t-106 96.5t-150.5 69
t-198 27.5q-285 0 -452.5 -182.5t-167.5 -483.5q0 -150 41.5 -278t118 -222.5t192 -148t256.5 -53.5q245 0 399.5 158t165.5 415h-561v58h623v-664h-62v367q-20 -61 -50 -114.5t-78 -105.5t-108 -89t-145 -60t-184 -23z" />
    <glyph glyph-name="gcircumflex" unicode="&#x11d;" horiz-adv-x="1175" 
d="M385 1159h-59l209 234h96l209 -234h-60l-196 189zM815 -399h-481q-138 0 -194 50.5t-56 137.5q0 72 43.5 130t105.5 95q-39 14 -69.5 49t-30.5 84q0 66 49 127t119 97q-135 104 -135 297q0 152 101.5 256t269.5 104q107 0 201.5 -55.5t131.5 -153.5q0 85 49.5 135
t122.5 50h74v-56h-37q-28 0 -46 -2t-43.5 -12t-40.5 -28.5t-26.5 -54.5t-11.5 -87v-88q0 -170 -107.5 -273.5t-271.5 -103.5q-107 0 -186 43q-65 -30 -108 -81.5t-43 -104.5q0 -50 35.5 -75.5t95.5 -25.5h467q125 0 203.5 -59t78.5 -168q0 -116 -74.5 -171.5t-185.5 -55.5z
M532 354q140 0 229 88.5t89 221.5q0 131 -90 219t-223 88q-139 0 -225.5 -86.5t-86.5 -220.5q0 -135 83.5 -222.5t223.5 -87.5zM348 -344h457q207 0 207 172q0 84 -63 128t-175 44h-483q-51 -25 -99.5 -83t-48.5 -120q0 -65 43.5 -103t161.5 -38z" />
    <glyph glyph-name="Gbreve" unicode="&#x11e;" horiz-adv-x="1603" 
d="M815 1599q-122 0 -191 66.5t-77 173.5h55q11 -93 69 -137.5t144 -44.5q84 0 142 44.5t69 137.5h55q-8 -107 -77 -173.5t-189 -66.5zM811 -25q-157 0 -285.5 58t-213 160t-130 240.5t-45.5 299.5q0 212 84.5 376.5t241 256.5t360.5 92q122 0 225 -32.5t169 -80t116 -109
t74.5 -111t36.5 -95.5l-58 -22q-13 48 -37.5 96.5t-71 103.5t-106 96.5t-150.5 69t-198 27.5q-285 0 -452.5 -182.5t-167.5 -483.5q0 -150 41.5 -278t118 -222.5t192 -148t256.5 -53.5q245 0 399.5 158t165.5 415h-561v58h623v-664h-62v367q-20 -61 -50 -114.5t-78 -105.5
t-108 -89t-145 -60t-184 -23z" />
    <glyph glyph-name="gbreve" unicode="&#x11f;" horiz-adv-x="1175" 
d="M584 1153q-110 0 -173 66.5t-71 173.5h51q10 -93 63 -138t130 -45t129.5 45t62.5 138h51q-8 -107 -70.5 -173.5t-172.5 -66.5zM815 -399h-481q-138 0 -194 50.5t-56 137.5q0 72 43.5 130t105.5 95q-39 14 -69.5 49t-30.5 84q0 66 49 127t119 97q-135 104 -135 297
q0 152 101.5 256t269.5 104q107 0 201.5 -55.5t131.5 -153.5q0 85 49.5 135t122.5 50h74v-56h-37q-28 0 -46 -2t-43.5 -12t-40.5 -28.5t-26.5 -54.5t-11.5 -87v-88q0 -170 -107.5 -273.5t-271.5 -103.5q-107 0 -186 43q-65 -30 -108 -81.5t-43 -104.5q0 -50 35.5 -75.5
t95.5 -25.5h467q125 0 203.5 -59t78.5 -168q0 -116 -74.5 -171.5t-185.5 -55.5zM532 354q140 0 229 88.5t89 221.5q0 131 -90 219t-223 88q-139 0 -225.5 -86.5t-86.5 -220.5q0 -135 83.5 -222.5t223.5 -87.5zM348 -344h457q207 0 207 172q0 84 -63 128t-175 44h-483
q-51 -25 -99.5 -83t-48.5 -120q0 -65 43.5 -103t161.5 -38z" />
    <glyph glyph-name="Gdotaccent" unicode="&#x120;" horiz-adv-x="1603" 
d="M848 1610h-62v180h62v-180zM811 -25q-157 0 -285.5 58t-213 160t-130 240.5t-45.5 299.5q0 212 84.5 376.5t241 256.5t360.5 92q122 0 225 -32.5t169 -80t116 -109t74.5 -111t36.5 -95.5l-58 -22q-13 48 -37.5 96.5t-71 103.5t-106 96.5t-150.5 69t-198 27.5
q-285 0 -452.5 -182.5t-167.5 -483.5q0 -150 41.5 -278t118 -222.5t192 -148t256.5 -53.5q245 0 399.5 158t165.5 415h-561v58h623v-664h-62v367q-20 -61 -50 -114.5t-78 -105.5t-108 -89t-145 -60t-184 -23z" />
    <glyph glyph-name="gdotaccent" unicode="&#x121;" horiz-adv-x="1175" 
d="M614 1253h-61v181h61v-181zM815 -399h-481q-138 0 -194 50.5t-56 137.5q0 72 43.5 130t105.5 95q-39 14 -69.5 49t-30.5 84q0 66 49 127t119 97q-135 104 -135 297q0 152 101.5 256t269.5 104q107 0 201.5 -55.5t131.5 -153.5q0 85 49.5 135t122.5 50h74v-56h-37
q-28 0 -46 -2t-43.5 -12t-40.5 -28.5t-26.5 -54.5t-11.5 -87v-88q0 -170 -107.5 -273.5t-271.5 -103.5q-107 0 -186 43q-65 -30 -108 -81.5t-43 -104.5q0 -50 35.5 -75.5t95.5 -25.5h467q125 0 203.5 -59t78.5 -168q0 -116 -74.5 -171.5t-185.5 -55.5zM532 354
q140 0 229 88.5t89 221.5q0 131 -90 219t-223 88q-139 0 -225.5 -86.5t-86.5 -220.5q0 -135 83.5 -222.5t223.5 -87.5zM348 -344h457q207 0 207 172q0 84 -63 128t-175 44h-483q-51 -25 -99.5 -83t-48.5 -120q0 -65 43.5 -103t161.5 -38z" />
    <glyph glyph-name="uni0122" unicode="&#x122;" horiz-adv-x="1603" 
d="M811 -25q-157 0 -285.5 58t-213 160t-130 240.5t-45.5 299.5q0 212 84.5 376.5t241 256.5t360.5 92q122 0 225 -32.5t169 -80t116 -109t74.5 -111t36.5 -95.5l-58 -22q-13 48 -37.5 96.5t-71 103.5t-106 96.5t-150.5 69t-198 27.5q-285 0 -452.5 -182.5t-167.5 -483.5
q0 -150 41.5 -278t118 -222.5t192 -148t256.5 -53.5q245 0 399.5 158t165.5 415h-561v58h623v-664h-62v367q-20 -61 -50 -114.5t-78 -105.5t-108 -89t-145 -60t-184 -23zM815 -551h-47l92 186h-45v146h88v-146z" />
    <glyph glyph-name="uni0123" unicode="&#x123;" horiz-adv-x="1175" 
d="M627 1583h45l-92 -186h45v-146h-88v146zM815 -399h-481q-138 0 -194 50.5t-56 137.5q0 72 43.5 130t105.5 95q-39 14 -69.5 49t-30.5 84q0 66 49 127t119 97q-135 104 -135 297q0 152 101.5 256t269.5 104q107 0 201.5 -55.5t131.5 -153.5q0 85 49.5 135t122.5 50h74v-56
h-37q-28 0 -46 -2t-43.5 -12t-40.5 -28.5t-26.5 -54.5t-11.5 -87v-88q0 -170 -107.5 -273.5t-271.5 -103.5q-107 0 -186 43q-65 -30 -108 -81.5t-43 -104.5q0 -50 35.5 -75.5t95.5 -25.5h467q125 0 203.5 -59t78.5 -168q0 -116 -74.5 -171.5t-185.5 -55.5zM532 354
q140 0 229 88.5t89 221.5q0 131 -90 219t-223 88q-139 0 -225.5 -86.5t-86.5 -220.5q0 -135 83.5 -222.5t223.5 -87.5zM348 -344h457q207 0 207 172q0 84 -63 128t-175 44h-483q-51 -25 -99.5 -83t-48.5 -120q0 -65 43.5 -103t161.5 -38z" />
    <glyph glyph-name="Hcircumflex" unicode="&#x124;" horiz-adv-x="1576" 
d="M563 1610h-65l231 233h105l231 -233h-66l-217 188zM307 0h-61v1434h61v-656h963v656h61v-1434h-61v721h-963v-721z" />
    <glyph glyph-name="hcircumflex" unicode="&#x125;" horiz-adv-x="1181" 
d="M412 1589h-60l209 234h96l209 -234h-59l-197 189zM264 0h-59v1434h57v-502v-154q7 32 31.5 71t66.5 81t111.5 70t151.5 28q97 0 170 -33t116 -91t63.5 -130.5t20.5 -159.5v-614h-61v598q0 180 -82.5 276.5t-231.5 96.5q-84 0 -149.5 -32t-103 -80t-61.5 -112t-32 -119.5
t-8 -111.5v-516z" />
    <glyph glyph-name="Hbar" unicode="&#x126;" horiz-adv-x="1579" 
d="M1333 1206h150l-2 -55h-148v-1151h-61v721h-963v-721h-61v1151h-164v55h164v228h61v-228h963v228h61v-228zM309 778h963v373h-963v-373z" />
    <glyph glyph-name="hbar" unicode="&#x127;" horiz-adv-x="1198" 
d="M623 1028q97 0 170 -33t116 -91t63.5 -130.5t20.5 -159.5v-614h-61v598q0 180 -82.5 276.5t-231.5 96.5q-84 0 -149.5 -32t-103 -80t-61.5 -112t-32 -119.5t-8 -111.5v-516h-59v1208h-164v47h164v179h57v-179h414v-47h-414v-276v-154q7 32 31.5 71t66.5 81t111.5 70
t151.5 28z" />
    <glyph glyph-name="Itilde" unicode="&#x128;" horiz-adv-x="552" 
d="M442 1610q-72 0 -149 53l-66 45q-5 3 -16 10.5t-14.5 10t-12.5 7.5t-12.5 6.5t-11 5t-12.5 4.5l-12.5 2.5t-15 2t-16.5 0.5q-100 0 -96 -129h-63q-4 90 41.5 136t124.5 46q68 0 145 -53l66 -45q32 -22 44 -29.5t32 -13.5t46 -6q105 0 101 129h63q1 -91 -43.5 -136.5
t-122.5 -45.5zM307 0h-61v1434h61v-1434z" />
    <glyph glyph-name="itilde" unicode="&#x129;" horiz-adv-x="471" 
d="M389 1178q-67 0 -137 53l-59 45q-31 23 -40.5 29.5t-28 13t-42.5 6.5q-92 0 -88 -129h-57q-4 90 37 136t112 46q63 0 133 -53l60 -45q30 -23 40.5 -30t29 -13t42.5 -6q94 0 90 129h58q1 -91 -39.5 -136.5t-110.5 -45.5zM266 0h-61v1004h59z" />
    <glyph glyph-name="Imacron" unicode="&#x12a;" horiz-adv-x="552" 
d="M606 1671h-661v55h661v-55zM307 0h-61v1434h61v-1434z" />
    <glyph glyph-name="imacron" unicode="&#x12b;" horiz-adv-x="471" 
d="M537 1227h-603v55h603v-55zM266 0h-61v1004h59z" />
    <glyph glyph-name="Ibreve" unicode="&#x12c;" horiz-adv-x="552" 
d="M274 1599q-122 0 -191 66.5t-77 173.5h55q11 -93 69 -137.5t144 -44.5q84 0 142 44.5t69 137.5h56q-8 -107 -77.5 -173.5t-189.5 -66.5zM307 0h-61v1434h61v-1434z" />
    <glyph glyph-name="ibreve" unicode="&#x12d;" horiz-adv-x="471" 
d="M236 1153q-110 0 -173 66.5t-71 173.5h51q10 -93 63 -138t130 -45t129.5 45t62.5 138h51q-8 -107 -70.5 -173.5t-172.5 -66.5zM266 0h-61v1004h59z" />
    <glyph glyph-name="Iogonek" unicode="&#x12e;" horiz-adv-x="555" 
d="M223 -332q30 0 88 21v-56q-16 -10 -45 -16t-45 -6q-74 0 -117 43t-43 108q0 66 46.5 135.5t140.5 118.5v1418h61v-1434q-99 -52 -144.5 -107.5t-45.5 -121.5q0 -45 28 -74t76 -29z" />
    <glyph glyph-name="iogonek" unicode="&#x12f;" horiz-adv-x="487" 
d="M207 1434h61v-181h-61v181zM182 -332q30 0 88 21v-56q-16 -10 -45 -16t-45 -6q-74 0 -117 43t-43 108q0 66 46.5 135.5t140.5 118.5v988h59l2 -1004q-99 -52 -144.5 -107.5t-45.5 -121.5q0 -45 28 -74t76 -29z" />
    <glyph glyph-name="Idotaccent" unicode="&#x130;" horiz-adv-x="552" 
d="M307 1610h-61v180h61v-180zM307 0h-61v1434h61v-1434z" />
    <glyph glyph-name="dotlessi" unicode="&#x131;" horiz-adv-x="471" 
d="M266 0h-61v1004h59z" />
    <glyph glyph-name="IJ" unicode="&#x132;" horiz-adv-x="1497" 
d="M307 0h-61v1434h61v-1434zM940 -25q-163 0 -253.5 116t-68.5 331l62 24q-13 -107 3.5 -189t56 -129.5t89.5 -71t109 -23.5q60 0 106.5 18.5t76.5 50t49.5 77.5t27.5 97t8 111v1047h62v-1072q0 -82 -17.5 -150t-55 -122t-102.5 -84.5t-153 -30.5z" />
    <glyph glyph-name="ij" unicode="&#x133;" horiz-adv-x="956" 
d="M266 1253h-61v181h61v-181zM752 1253h-64v181h64v-181zM264 0h-59v1004h59v-1004zM510 -399h-113v57h107q38 0 69.5 10.5t59.5 34.5t43.5 68.5t15.5 107.5v1125h60v-1133q0 -136 -66.5 -203t-175.5 -67z" />
    <glyph glyph-name="Jcircumflex" unicode="&#x134;" horiz-adv-x="960" 
d="M492 1610h-66l231 233h105l231 -233h-65l-217 188zM403 -25q-163 0 -253 116t-68 331l61 24q-13 -107 3.5 -189t56 -129.5t89.5 -71t109 -23.5q74 0 128 27.5t84 77.5t43.5 111.5t13.5 137.5v1047h61v-1072q0 -82 -17.5 -150t-55 -122t-102.5 -84.5t-153 -30.5z" />
    <glyph glyph-name="jcircumflex" unicode="&#x135;" horiz-adv-x="452" 
d="M53 1159h-59l209 234h96l209 -234h-59l-197 189zM39 -399h-113v57h107q38 0 69.5 10.5t59.5 34.5t43.5 68.5t15.5 107.5v1125h60v-1133q0 -136 -66.5 -203t-175.5 -67z" />
    <glyph glyph-name="uni0136" unicode="&#x136;" horiz-adv-x="1331" 
d="M1208 1434l-573 -607l684 -827h-84l-643 780l-285 -301v-479h-61v1434h61v-572v-299l817 871h84zM772 -365h-45v146h88v-146l-88 -186h-47z" />
    <glyph glyph-name="uni0137" unicode="&#x137;" horiz-adv-x="1101" 
d="M1020 1004l-469 -406l526 -598h-80l-489 559l-244 -209v-350h-59v1434h59v-729v-279l666 578h90zM631 -365h-45v146h88v-146l-88 -186h-47z" />
    <glyph glyph-name="Lacute" unicode="&#x139;" horiz-adv-x="1130" 
d="M305 1610h-55l176 233h102zM1098 0h-852v1434h61v-1377h791v-57z" />
    <glyph glyph-name="lacute" unicode="&#x13a;" horiz-adv-x="464" 
d="M260 1589h-51l162 234h92zM264 0h-59v1434h59v-1434z" />
    <glyph glyph-name="uni013B" unicode="&#x13b;" horiz-adv-x="1130" 
d="M1098 0h-852v1434h61v-1377h791v-57zM618 -551h-47l93 186h-46v146h89v-146z" />
    <glyph glyph-name="uni013C" unicode="&#x13c;" horiz-adv-x="468" 
d="M264 0h-59v1434h59v-1434zM190 -551h-47l93 186h-46v146h89v-146z" />
    <glyph glyph-name="Lcaron" unicode="&#x13d;" horiz-adv-x="1130" 
d="M1098 0h-852v1434h61v-1377h791v-57zM700 1069h-51l103 205h-50v160h97v-160z" />
    <glyph glyph-name="lcaron" unicode="&#x13e;" horiz-adv-x="477" 
d="M264 0h-59v1434h59v-1434zM449 1102h-48l93 186h-45v146h88v-146z" />
    <glyph glyph-name="Ldot" unicode="&#x13f;" horiz-adv-x="1132" 
d="M1098 0h-852v1434h61v-1377h791v-57zM866 647h-102v172h102v-172z" />
    <glyph glyph-name="ldot" unicode="&#x140;" horiz-adv-x="694" 
d="M264 0h-59v1434h59v-1434zM621 596h-103v172h103v-172z" />
    <glyph glyph-name="Lslash" unicode="&#x141;" horiz-adv-x="1150" 
d="M328 575v-518h790v-57h-852v535l-160 -109v70l160 108v830h62v-789l514 350v-71z" />
    <glyph glyph-name="lslash" unicode="&#x142;" horiz-adv-x="540" 
d="M295 831l158 134v-76l-158 -133v-756h-59v707l-136 -115v76l136 114v652h59v-603z" />
    <glyph glyph-name="Nacute" unicode="&#x143;" horiz-adv-x="1576" 
d="M807 1610h-55l176 233h102zM307 0h-61v1434h76l948 -1356v278v1078h61v-1434h-82l-942 1346v-291v-1055z" />
    <glyph glyph-name="nacute" unicode="&#x144;" horiz-adv-x="1181" 
d="M614 1159h-51l162 234h92zM264 0h-59v1004h57v-226q7 32 31.5 71t66.5 81t111.5 70t151.5 28q97 0 169.5 -33t115.5 -91t64 -131t21 -159v-614h-61v598q0 180 -82.5 276.5t-231.5 96.5q-84 0 -149.5 -32t-103 -80t-61.5 -112t-32 -119.5t-8 -111.5v-516z" />
    <glyph glyph-name="uni0145" unicode="&#x145;" horiz-adv-x="1576" 
d="M307 0h-61v1434h76l948 -1356v278v1078h61v-1434h-82l-942 1346v-291v-1055zM741 -551h-47l92 186h-45v146h88v-146z" />
    <glyph glyph-name="uni0146" unicode="&#x146;" horiz-adv-x="1181" 
d="M264 0h-59v1004h57v-226q7 32 31.5 71t66.5 81t111.5 70t151.5 28q97 0 169.5 -33t115.5 -91t64 -131t21 -159v-614h-61v598q0 180 -82.5 276.5t-231.5 96.5q-84 0 -149.5 -32t-103 -80t-61.5 -112t-32 -119.5t-8 -111.5v-516zM553 -551h-47l92 186h-45v146h88v-146z" />
    <glyph glyph-name="Ncaron" unicode="&#x147;" horiz-adv-x="1576" 
d="M1004 1843h65l-231 -233h-105l-231 233h65l217 -188zM307 0h-61v1434h76l948 -1356v278v1078h61v-1434h-82l-942 1346v-291v-1055z" />
    <glyph glyph-name="ncaron" unicode="&#x148;" horiz-adv-x="1181" 
d="M635 1159h-96l-209 234h59l199 -189l196 189h60zM264 0h-59v1004h57v-226q7 32 31.5 71t66.5 81t111.5 70t151.5 28q97 0 169.5 -33t115.5 -91t64 -131t21 -159v-614h-61v598q0 180 -82.5 276.5t-231.5 96.5q-84 0 -149.5 -32t-103 -80t-61.5 -112t-32 -119.5t-8 -111.5
v-516z" />
    <glyph glyph-name="Eng" unicode="&#x14a;" horiz-adv-x="1576" 
d="M1063 -401h-45v57h49q92 0 147.5 58t55.5 159v127l-963 1346v-101v-190v-1055h-61v1434h76l948 -1328v84v166v1078h61v-1543q0 -81 -23.5 -140.5t-63.5 -91t-85 -46t-96 -14.5z" />
    <glyph glyph-name="eng" unicode="&#x14b;" horiz-adv-x="1181" 
d="M784 -399h-143v57h164q127 0 127 145v795q0 180 -82.5 276.5t-231.5 96.5q-84 0 -149.5 -32t-103 -80t-61.5 -112t-32 -119.5t-8 -111.5v-516h-59v1004h57v-226q7 32 31.5 71t66.5 81t111.5 70t151.5 28q97 0 170 -33t116 -91t63.5 -130.5t20.5 -159.5v-794
q0 -120 -49.5 -169.5t-159.5 -49.5z" />
    <glyph glyph-name="Omacron" unicode="&#x14c;" horiz-adv-x="1630" 
d="M1149 1671h-662v55h662v-55zM815 -25q-141 0 -266 55.5t-216.5 152.5t-144.5 237t-53 301q0 162 53 300.5t144.5 233.5t216.5 149t266 54t266 -54t216.5 -149.5t144.5 -234t53 -299.5q0 -160 -53 -300t-144.5 -237t-216.5 -153t-266 -56zM815 33q130 0 244.5 54
t195.5 146t128 219t47 269q0 141 -47 267t-128.5 217t-196 143.5t-243.5 52.5q-172 0 -313 -88.5t-221 -244.5t-80 -347q0 -190 79.5 -348t220.5 -249t314 -91z" />
    <glyph glyph-name="omacron" unicode="&#x14d;" horiz-adv-x="1163" 
d="M881 1227h-602v55h602v-55zM582 -25q-84 0 -163.5 32t-147 94t-108 165.5t-40.5 233.5t41 234t108 166.5t146.5 95t163.5 32.5t163.5 -32.5t146.5 -95t107.5 -166.5t40.5 -234t-40.5 -233.5t-107.5 -165.5t-146.5 -94t-163.5 -32zM582 33q75 0 145 30t126 86t90 147.5
t34 203.5t-34 204t-90 149t-126 87.5t-145 30.5t-145 -30.5t-126.5 -87.5t-90.5 -149t-34 -204t34 -203.5t90.5 -147.5t126.5 -86t145 -30z" />
    <glyph glyph-name="Obreve" unicode="&#x14e;" horiz-adv-x="1630" 
d="M817 1599q-122 0 -191 66.5t-77 173.5h55q11 -93 69 -137.5t144 -44.5q84 0 142 44.5t69 137.5h55q-8 -107 -77 -173.5t-189 -66.5zM815 -25q-141 0 -266 55.5t-216.5 152.5t-144.5 237t-53 301q0 162 53 300.5t144.5 233.5t216.5 149t266 54t266 -54t216.5 -149.5
t144.5 -234t53 -299.5q0 -160 -53 -300t-144.5 -237t-216.5 -153t-266 -56zM815 33q130 0 244.5 54t195.5 146t128 219t47 269q0 141 -47 267t-128.5 217t-196 143.5t-243.5 52.5q-172 0 -313 -88.5t-221 -244.5t-80 -347q0 -190 79.5 -348t220.5 -249t314 -91z" />
    <glyph glyph-name="obreve" unicode="&#x14f;" horiz-adv-x="1163" 
d="M580 1153q-110 0 -173 66.5t-71 173.5h51q10 -93 63 -138t130 -45t129.5 45t62.5 138h51q-8 -107 -70.5 -173.5t-172.5 -66.5zM582 -25q-84 0 -163.5 32t-147 94t-108 165.5t-40.5 233.5t41 234t108 166.5t146.5 95t163.5 32.5t163.5 -32.5t146.5 -95t107.5 -166.5
t40.5 -234t-40.5 -233.5t-107.5 -165.5t-146.5 -94t-163.5 -32zM582 33q75 0 145 30t126 86t90 147.5t34 203.5t-34 204t-90 149t-126 87.5t-145 30.5t-145 -30.5t-126.5 -87.5t-90.5 -149t-34 -204t34 -203.5t90.5 -147.5t126.5 -86t145 -30z" />
    <glyph glyph-name="Ohungarumlaut" unicode="&#x150;" horiz-adv-x="1630" 
d="M705 1610h-54l176 233h103zM983 1610h-53l178 233h100zM815 -25q-141 0 -266 55.5t-216.5 152.5t-144.5 237t-53 301q0 162 53 300.5t144.5 233.5t216.5 149t266 54t266 -54t216.5 -149.5t144.5 -234t53 -299.5q0 -160 -53 -300t-144.5 -237t-216.5 -153t-266 -56z
M815 33q130 0 244.5 54t195.5 146t128 219t47 269q0 141 -47 267t-128.5 217t-196 143.5t-243.5 52.5q-172 0 -313 -88.5t-221 -244.5t-80 -347q0 -190 79.5 -348t220.5 -249t314 -91z" />
    <glyph glyph-name="ohungarumlaut" unicode="&#x151;" horiz-adv-x="1163" 
d="M483 1159h-49l162 234h92zM737 1159h-49l162 234h92zM582 -25q-84 0 -163.5 32t-147 94t-108 165.5t-40.5 233.5t41 234t108 166.5t146.5 95t163.5 32.5t163.5 -32.5t146.5 -95t107.5 -166.5t40.5 -234t-40.5 -233.5t-107.5 -165.5t-146.5 -94t-163.5 -32zM582 33
q75 0 145 30t126 86t90 147.5t34 203.5t-34 204t-90 149t-126 87.5t-145 30.5t-145 -30.5t-126.5 -87.5t-90.5 -149t-34 -204t34 -203.5t90.5 -147.5t126.5 -86t145 -30z" />
    <glyph glyph-name="OE" unicode="&#x152;" horiz-adv-x="2338" 
d="M788 -25q-192 0 -340 95t-228.5 264.5t-80.5 386.5q0 330 179 533.5t470 203.5q217 0 369.5 -115.5t216.5 -314.5v406h860v-58h-798v-598h598v-57h-598v-664h798v-57h-860v412q-65 -201 -217.5 -319t-368.5 -118zM788 33q174 0 307.5 91.5t204 247t70.5 349.5
q0 193 -70.5 347t-204 243.5t-307.5 89.5q-176 0 -309.5 -89.5t-203.5 -243t-70 -347.5q0 -145 41 -271t115 -218.5t184.5 -145.5t242.5 -53z" />
    <glyph glyph-name="oe" unicode="&#x153;" horiz-adv-x="1923" 
d="M588 -25q-85 0 -165.5 31.5t-148.5 93t-109.5 165.5t-41.5 235q0 132 41.5 236.5t109.5 166t148.5 93.5t165.5 32q135 0 247.5 -79t163.5 -238q38 153 144.5 235t240.5 82q194 0 311.5 -142t102.5 -370h-762q0 -106 20.5 -190.5t54 -138.5t80 -89.5t95.5 -50t103 -14.5
q129 0 221 71.5t129 167.5l59 -26q-19 -46 -52.5 -90t-83 -86.5t-121 -68.5t-152.5 -26q-141 0 -242 81.5t-143 244.5q-33 -108 -100.5 -183.5t-147.5 -109t-168 -33.5zM588 33q76 0 144.5 29.5t122.5 86t86 147.5t32 204q0 114 -32 205.5t-86 148.5t-122.5 87t-144.5 30
q-77 0 -148 -30t-128 -86.5t-91.5 -148.5t-34.5 -206q0 -113 34.5 -204t91.5 -147.5t128 -86t148 -29.5zM1034 571h707q0 99 -30.5 177.5t-82 126t-114 72t-130.5 24.5q-107 0 -187 -56t-119.5 -145t-43.5 -199z" />
    <glyph glyph-name="Racute" unicode="&#x154;" horiz-adv-x="1355" 
d="M664 1610h-56l176 233h103zM307 0h-61v1434h510q184 0 303 -106t119 -281q0 -137 -79 -236t-218 -131q114 -20 171.5 -88.5t84.5 -183.5l98 -408h-68l-94 399q-31 133 -105 194.5t-233 61.5h-428v-655zM307 1376v-665h443q159 0 260.5 91.5t101.5 244.5q0 149 -102.5 239
t-259.5 90h-443z" />
    <glyph glyph-name="racute" unicode="&#x155;" horiz-adv-x="788" 
d="M467 1159h-51l162 234h92zM262 0h-57v1004h57v-252q25 109 112 186.5t218 77.5q87 0 156 -21v-59q-81 18 -152 18t-128 -26t-95 -70.5t-63.5 -108t-36.5 -135.5t-11 -155v-459z" />
    <glyph glyph-name="uni0156" unicode="&#x156;" horiz-adv-x="1355" 
d="M307 0h-61v1434h510q184 0 303 -106t119 -281q0 -137 -79 -236t-218 -131q114 -20 171.5 -88.5t84.5 -183.5l98 -408h-68l-94 399q-31 133 -105 194.5t-233 61.5h-428v-655zM307 1376v-665h443q159 0 260.5 91.5t101.5 244.5q0 149 -102.5 239t-259.5 90h-443zM653 -551
h-47l92 186h-45v146h88v-146z" />
    <glyph glyph-name="uni0157" unicode="&#x157;" horiz-adv-x="788" 
d="M262 0h-57v1004h57v-252q25 109 112 186.5t218 77.5q87 0 156 -21v-59q-81 18 -152 18t-128 -26t-95 -70.5t-63.5 -108t-36.5 -135.5t-11 -155v-459zM190 -551h-47l93 186h-46v146h89v-146z" />
    <glyph glyph-name="Rcaron" unicode="&#x158;" horiz-adv-x="1355" 
d="M860 1843h66l-232 -233h-104l-232 233h66l217 -188zM307 0h-61v1434h510q184 0 303 -106t119 -281q0 -137 -79 -236t-218 -131q114 -20 171.5 -88.5t84.5 -183.5l98 -408h-68l-94 399q-31 133 -105 194.5t-233 61.5h-428v-655zM307 1376v-665h443q159 0 260.5 91.5
t101.5 244.5q0 149 -102.5 239t-259.5 90h-443z" />
    <glyph glyph-name="rcaron" unicode="&#x159;" horiz-adv-x="788" 
d="M487 1159h-96l-209 234h60l198 -189l197 189h59zM262 0h-57v1004h57v-252q25 109 112 186.5t218 77.5q87 0 156 -21v-59q-81 18 -152 18t-128 -26t-95 -70.5t-63.5 -108t-36.5 -135.5t-11 -155v-459z" />
    <glyph glyph-name="Sacute" unicode="&#x15a;" horiz-adv-x="1224" 
d="M629 1610h-56l177 233h102zM608 -25q-185 0 -312.5 87t-189.5 251l62 31q44 -142 165.5 -225.5t274.5 -83.5q191 0 306.5 86.5t115.5 232.5q0 128 -82 208t-231 124l-221 66q-328 98 -328 350q0 114 60.5 196t157.5 121t216 39q88 0 163.5 -21.5t124.5 -53t88 -73.5
t59 -76t32 -67l-55 -30q-12 30 -29.5 60t-52.5 68.5t-78 67t-109 48.5t-143 20q-160 0 -266.5 -79.5t-106.5 -215.5q0 -113 77.5 -183.5t246.5 -121.5l199 -60q344 -101 344 -385q0 -175 -130 -278t-358 -103z" />
    <glyph glyph-name="sacute" unicode="&#x15b;" horiz-adv-x="968" 
d="M514 1159h-51l162 234h92zM487 -25q-91 0 -163.5 25t-117 67t-70 90.5t-32.5 102.5l60 21q12 -99 97.5 -173.5t225.5 -74.5q149 0 227.5 59t78.5 152q0 84 -60.5 142t-167.5 85l-151 39q-40 10 -71.5 21t-70.5 32t-64.5 47t-43 66.5t-17.5 89.5q0 112 93 187t243 75
q142 0 229 -66.5t113 -164.5l-57 -25q-13 74 -87 136.5t-198 62.5q-129 0 -201.5 -59t-72.5 -136q0 -150 192 -198l154 -39q301 -76 301 -295q0 -116 -90.5 -192.5t-278.5 -76.5z" />
    <glyph glyph-name="Scircumflex" unicode="&#x15c;" horiz-adv-x="1224" 
d="M389 1610h-65l231 233h104l232 -233h-66l-217 188zM608 -25q-185 0 -312.5 87t-189.5 251l62 31q44 -142 165.5 -225.5t274.5 -83.5q191 0 306.5 86.5t115.5 232.5q0 128 -82 208t-231 124l-221 66q-328 98 -328 350q0 114 60.5 196t157.5 121t216 39q88 0 163.5 -21.5
t124.5 -53t88 -73.5t59 -76t32 -67l-55 -30q-12 30 -29.5 60t-52.5 68.5t-78 67t-109 48.5t-143 20q-160 0 -266.5 -79.5t-106.5 -215.5q0 -113 77.5 -183.5t246.5 -121.5l199 -60q344 -101 344 -385q0 -175 -130 -278t-358 -103z" />
    <glyph glyph-name="scircumflex" unicode="&#x15d;" horiz-adv-x="968" 
d="M289 1159h-60l209 234h97l208 -234h-59l-197 189zM487 -25q-91 0 -163.5 25t-117 67t-70 90.5t-32.5 102.5l60 21q12 -99 97.5 -173.5t225.5 -74.5q149 0 227.5 59t78.5 152q0 84 -60.5 142t-167.5 85l-151 39q-40 10 -71.5 21t-70.5 32t-64.5 47t-43 66.5t-17.5 89.5
q0 112 93 187t243 75q142 0 229 -66.5t113 -164.5l-57 -25q-13 74 -87 136.5t-198 62.5q-129 0 -201.5 -59t-72.5 -136q0 -150 192 -198l154 -39q301 -76 301 -295q0 -116 -90.5 -192.5t-278.5 -76.5z" />
    <glyph glyph-name="Scedilla" unicode="&#x15e;" horiz-adv-x="1224" 
d="M655 -23l-24 -26q-31 -31 -58 -62q35 7 62 7q73 0 122.5 -35t49.5 -103q0 -70 -50.5 -110.5t-135.5 -40.5q-58 0 -110.5 23t-86.5 63l39 43q69 -74 153 -74q59 0 94 25.5t35 72.5q0 43 -35.5 66.5t-82.5 23.5q-50 0 -90 -16l-33 41l88 100q-179 4 -302.5 90.5
t-183.5 247.5l62 31q44 -142 165.5 -225.5t274.5 -83.5q191 0 306.5 86.5t115.5 232.5q0 128 -82 208t-231 124l-221 66q-328 98 -328 350q0 114 60.5 196t157.5 121t216 39q88 0 163.5 -21.5t124.5 -53t88 -73.5t59 -76t32 -67l-55 -30q-12 30 -29.5 60t-52.5 68.5t-78 67
t-109 48.5t-143 20q-160 0 -266.5 -79.5t-106.5 -215.5q0 -113 77.5 -183.5t246.5 -121.5l199 -60q344 -101 344 -385q0 -165 -116.5 -267t-324.5 -112z" />
    <glyph glyph-name="scedilla" unicode="&#x15f;" horiz-adv-x="968" 
d="M506 -25l-25 -24q-23 -23 -57 -62q35 7 61 7q73 0 122.5 -35t49.5 -103q0 -70 -50.5 -110.5t-135.5 -40.5q-58 0 -110.5 23t-86.5 63l39 43q69 -74 154 -74q59 0 94 25.5t35 72.5q0 43 -36 66.5t-83 23.5q-50 0 -90 -16l-33 41l88 102q-154 11 -239.5 93t-98.5 190l60 21
q12 -99 97.5 -173.5t225.5 -74.5q149 0 227.5 59t78.5 152q0 84 -60.5 142t-167.5 85l-151 39q-40 10 -71.5 21t-70.5 32t-64.5 47t-43 66.5t-17.5 89.5q0 112 93 187t243 75q142 0 229 -66.5t113 -164.5l-57 -25q-13 74 -87 136.5t-198 62.5q-129 0 -201.5 -59t-72.5 -136
q0 -150 192 -198l154 -39q301 -76 301 -295q0 -53 -19.5 -99t-59.5 -84t-109.5 -61t-161.5 -25z" />
    <glyph glyph-name="Scaron" unicode="&#x160;" horiz-adv-x="1224" 
d="M825 1843h66l-232 -233h-104l-231 233h65l217 -188zM608 -25q-185 0 -312.5 87t-189.5 251l62 31q44 -142 165.5 -225.5t274.5 -83.5q191 0 306.5 86.5t115.5 232.5q0 128 -82 208t-231 124l-221 66q-328 98 -328 350q0 114 60.5 196t157.5 121t216 39q88 0 163.5 -21.5
t124.5 -53t88 -73.5t59 -76t32 -67l-55 -30q-12 30 -29.5 60t-52.5 68.5t-78 67t-109 48.5t-143 20q-160 0 -266.5 -79.5t-106.5 -215.5q0 -113 77.5 -183.5t246.5 -121.5l199 -60q344 -101 344 -385q0 -175 -130 -278t-358 -103z" />
    <glyph glyph-name="scaron" unicode="&#x161;" horiz-adv-x="968" 
d="M535 1159h-97l-209 234h60l198 -189l197 189h59zM487 -25q-91 0 -163.5 25t-117 67t-70 90.5t-32.5 102.5l60 21q12 -99 97.5 -173.5t225.5 -74.5q149 0 227.5 59t78.5 152q0 84 -60.5 142t-167.5 85l-151 39q-40 10 -71.5 21t-70.5 32t-64.5 47t-43 66.5t-17.5 89.5
q0 112 93 187t243 75q142 0 229 -66.5t113 -164.5l-57 -25q-13 74 -87 136.5t-198 62.5q-129 0 -201.5 -59t-72.5 -136q0 -150 192 -198l154 -39q301 -76 301 -295q0 -116 -90.5 -192.5t-278.5 -76.5z" />
    <glyph glyph-name="uni0162" unicode="&#x162;" horiz-adv-x="1245" 
d="M635 1376v-1376l-47 -49q-31 -31 -58 -62q35 7 62 7q73 0 122.5 -35t49.5 -103q0 -70 -50.5 -110.5t-135.5 -40.5q-58 0 -110.5 23t-86.5 63l39 43q69 -74 153 -74q59 0 94 25.5t35 72.5q0 43 -35.5 66.5t-82.5 23.5q-50 0 -90 -16l-33 41l112 129v1372h-540v58h1179v-58
h-577z" />
    <glyph glyph-name="uni0163" unicode="&#x163;" horiz-adv-x="739" 
d="M705 57v-57h-113q-22 0 -68 4l11 -4l-48 -49q-23 -23 -57 -62q35 7 62 7q73 0 122.5 -35t49.5 -103q0 -70 -51 -110.5t-136 -40.5q-58 0 -110 23t-86 63l38 43q69 -74 154 -74q59 0 94 25.5t35 72.5q0 43 -36 66.5t-83 23.5q-50 0 -90 -16l-33 41l121 137
q-176 46 -176 254v682h-270v56h270v288h60v-288h305v-56h-305v-676q0 -109 52 -162t163 -53h125z" />
    <glyph glyph-name="Tcaron" unicode="&#x164;" horiz-adv-x="1245" 
d="M823 1843h66l-232 -233h-104l-231 233h65l217 -188zM635 0h-62v1376h-540v58h1179v-58h-577v-1376z" />
    <glyph glyph-name="tcaron" unicode="&#x165;" horiz-adv-x="739" 
d="M586 1102h-47l92 186h-45v146h88v-146zM705 0h-113q-287 0 -287 266v682h-270v56h270v288h60v-288h305v-56h-305v-676q0 -109 52 -162t163 -53h125v-57z" />
    <glyph glyph-name="Tbar" unicode="&#x166;" horiz-adv-x="1282" 
d="M1233 1434v-58h-578v-563h365v-53h-365v-760h-61v760h-356v53h356v563h-541v58h1180z" />
    <glyph glyph-name="tbar" unicode="&#x167;" horiz-adv-x="794" 
d="M616 57h125v-57h-112q-287 0 -287 266v312h-270v51h270v319h-270v56h270v288h59v-288h306v-56h-306v-319h306v-51h-306v-306q0 -109 52 -162t163 -53z" />
    <glyph glyph-name="Utilde" unicode="&#x168;" horiz-adv-x="1363" 
d="M848 1610q-73 0 -150 53l-65 45q-5 3 -16 10.5t-14.5 10t-12.5 7.5t-12.5 6.5t-11 5t-12.5 4.5l-12.5 2.5t-15 2t-16.5 0.5q-100 0 -96 -129h-64q-4 90 41.5 136t124.5 46q69 0 146 -53l65 -45q32 -22 44.5 -29.5t32.5 -13.5t46 -6q104 0 100 129h64q1 -91 -43.5 -136.5
t-122.5 -45.5zM686 -25q-226 0 -343.5 141.5t-117.5 403.5v914h62v-897q0 -500 399 -500q202 0 296.5 127t94.5 373v897h62v-914q0 -263 -113.5 -404t-339.5 -141z" />
    <glyph glyph-name="utilde" unicode="&#x169;" horiz-adv-x="1159" 
d="M725 1178q-67 0 -137 53l-60 45q-4 3 -13 10t-12 9t-10 7t-10 6.5t-9 5t-9.5 4.5t-9.5 3t-11.5 2.5t-12 1t-13.5 0.5q-92 0 -88 -129h-58q-4 90 37.5 136t112.5 46q63 0 133 -53l59 -45q29 -22 40.5 -29.5t30 -13.5t42.5 -6q94 0 90 129h57q1 -91 -39 -136.5t-110 -45.5z
M551 -25q-183 0 -273 106t-90 296v627h60v-607q0 -187 80.5 -275.5t220.5 -88.5q158 0 252 122t94 337v512h59v-1004h-57v236q-7 -24 -19 -51t-40.5 -66.5t-64.5 -69.5t-94.5 -52t-127.5 -22z" />
    <glyph glyph-name="Umacron" unicode="&#x16a;" horiz-adv-x="1363" 
d="M1012 1671h-662v55h662v-55zM686 -25q-226 0 -343.5 141.5t-117.5 403.5v914h62v-897q0 -500 399 -500q202 0 296.5 127t94.5 373v897h62v-914q0 -263 -113.5 -404t-339.5 -141z" />
    <glyph glyph-name="umacron" unicode="&#x16b;" horiz-adv-x="1159" 
d="M872 1227h-602v55h602v-55zM551 -25q-183 0 -273 106t-90 296v627h60v-607q0 -187 80.5 -275.5t220.5 -88.5q158 0 252 122t94 337v512h59v-1004h-57v236q-7 -24 -19 -51t-40.5 -66.5t-64.5 -69.5t-94.5 -52t-127.5 -22z" />
    <glyph glyph-name="Ubreve" unicode="&#x16c;" horiz-adv-x="1363" 
d="M680 1599q-122 0 -191 66.5t-77 173.5h55q11 -93 69 -137.5t144 -44.5q84 0 142 44.5t69 137.5h55q-8 -107 -77 -173.5t-189 -66.5zM686 -25q-226 0 -343.5 141.5t-117.5 403.5v914h62v-897q0 -500 399 -500q202 0 296.5 127t94.5 373v897h62v-914q0 -263 -113.5 -404
t-339.5 -141z" />
    <glyph glyph-name="ubreve" unicode="&#x16d;" horiz-adv-x="1159" 
d="M571 1153q-110 0 -172.5 66.5t-70.5 173.5h51q10 -93 62.5 -138t129.5 -45t130 45t63 138h51q-8 -107 -71 -173.5t-173 -66.5zM551 -25q-183 0 -273 106t-90 296v627h60v-607q0 -187 80.5 -275.5t220.5 -88.5q158 0 252 122t94 337v512h59v-1004h-57v236q-7 -24 -19 -51
t-40.5 -66.5t-64.5 -69.5t-94.5 -52t-127.5 -22z" />
    <glyph glyph-name="Uring" unicode="&#x16e;" horiz-adv-x="1363" 
d="M682 1579q-87 0 -143 58.5t-56 140.5q0 80 56 137t143 57t141 -56.5t54 -137.5q0 -82 -54 -140.5t-141 -58.5zM682 1630q61 0 98 44.5t37 103.5q0 58 -37 100.5t-98 42.5q-62 0 -99.5 -43t-37.5 -100q0 -59 37.5 -103.5t99.5 -44.5zM686 -25q-226 0 -343.5 141.5
t-117.5 403.5v914h62v-897q0 -500 399 -500q202 0 296.5 127t94.5 373v897h62v-914q0 -263 -113.5 -404t-339.5 -141z" />
    <glyph glyph-name="uring" unicode="&#x16f;" horiz-adv-x="1159" 
d="M573 1112q-83 0 -135.5 55.5t-52.5 132.5t52.5 132t135.5 55t135 -55t52 -132t-52.5 -132.5t-134.5 -55.5zM573 1161q59 0 94 41.5t35 97.5t-35 97t-94 41t-95 -41.5t-36 -96.5q0 -56 36 -97.5t95 -41.5zM551 -25q-183 0 -273 106t-90 296v627h60v-607
q0 -187 80.5 -275.5t220.5 -88.5q158 0 252 122t94 337v512h59v-1004h-57v236q-7 -24 -19 -51t-40.5 -66.5t-64.5 -69.5t-94.5 -52t-127.5 -22z" />
    <glyph glyph-name="Uhungarumlaut" unicode="&#x170;" horiz-adv-x="1363" 
d="M567 1610h-53l176 233h103zM846 1610h-53l178 233h100zM686 -25q-226 0 -343.5 141.5t-117.5 403.5v914h62v-897q0 -500 399 -500q202 0 296.5 127t94.5 373v897h62v-914q0 -263 -113.5 -404t-339.5 -141z" />
    <glyph glyph-name="uhungarumlaut" unicode="&#x171;" horiz-adv-x="1159" 
d="M475 1159h-49l162 234h92zM729 1159h-49l162 234h92zM551 -25q-183 0 -273 106t-90 296v627h60v-607q0 -187 80.5 -275.5t220.5 -88.5q158 0 252 122t94 337v512h59v-1004h-57v236q-7 -24 -19 -51t-40.5 -66.5t-64.5 -69.5t-94.5 -52t-127.5 -22z" />
    <glyph glyph-name="Uogonek" unicode="&#x172;" horiz-adv-x="1363" 
d="M756 -389q-73 0 -112.5 42.5t-39.5 108.5q0 53 32 110t99 105q-245 -17 -377.5 122t-132.5 421v914h62v-897q0 -500 399 -500q202 0 296.5 127t94.5 373v897h62v-914q0 -206 -65 -330t-197 -184q-215 -97 -215 -235q0 -47 24 -75t72 -28q38 0 96 21v-56
q-16 -9 -47.5 -15.5t-50.5 -6.5z" />
    <glyph glyph-name="uogonek" unicode="&#x173;" horiz-adv-x="1159" 
d="M868 -332q30 0 88 21v-56q-16 -10 -45 -16t-45 -6q-74 0 -116.5 43t-42.5 108q0 66 47.5 136.5t142.5 119.5v218q-7 -24 -19 -51t-40.5 -66.5t-64.5 -69.5t-94.5 -52t-127.5 -22q-183 0 -273 106t-90 296v627h60v-607q0 -187 80.5 -275.5t220.5 -88.5q158 0 252 122
t94 337v512h59v-1004q-99 -52 -144.5 -107.5t-45.5 -121.5q0 -45 28 -74t76 -29z" />
    <glyph glyph-name="Wcircumflex" unicode="&#x174;" horiz-adv-x="1921" 
d="M741 1610h-65l231 233h105l231 -233h-65l-217 188zM569 0h-94l-358 1434h65l258 -1053q50 -201 84 -326q51 187 92 324l312 1055h65l310 -1055l96 -324l78 324l266 1055h63l-360 -1434h-92l-322 1083q-15 50 -71 252l-74 -254z" />
    <glyph glyph-name="wcircumflex" unicode="&#x175;" horiz-adv-x="1636" 
d="M623 1159h-60l209 234h96l209 -234h-59l-197 189zM520 0h-84l-348 1004h64l198 -576q62 -183 129 -375q60 182 121 375l184 576h68l184 -576q62 -197 121 -375q34 105 127 375l201 576h63l-348 -1004h-86l-213 672l-84 264q-51 -174 -80 -264z" />
    <glyph glyph-name="Ycircumflex" unicode="&#x176;" horiz-adv-x="1298" 
d="M459 1610h-66l232 233h104l232 -233h-66l-217 188zM680 0h-62v637l-505 797h73l396 -631q8 -14 67 -105q63 92 74 109l389 627h74l-506 -799v-635z" />
    <glyph glyph-name="ycircumflex" unicode="&#x177;" horiz-adv-x="1019" 
d="M702 1159l-196 189l-199 -189h-59l209 234h96l209 -234h-60zM623 338l241 666h66l-430 -1168q-24 -64 -45 -103.5t-54.5 -71.5t-80.5 -46t-115 -14h-111v57h111q91 0 145 39t96 153l72 197l-438 957h65l306 -666q53 -111 94 -211q36 92 78 211z" />
    <glyph glyph-name="Ydieresis" unicode="&#x178;" horiz-adv-x="1298" 
d="M526 1610h-90v143h90v-143zM901 1610h-90v143h90v-143zM680 0h-62v637l-505 797h73l396 -631q8 -14 67 -105q63 92 74 109l389 627h74l-506 -799v-635z" />
    <glyph glyph-name="Zacute" unicode="&#x179;" horiz-adv-x="1157" 
d="M621 1610h-56l176 233h103zM1094 0h-1026v72l921 1304h-174h-684v58h934v-58l-932 -1319h168h793v-57z" />
    <glyph glyph-name="zacute" unicode="&#x17a;" horiz-adv-x="956" 
d="M502 1159h-51l161 234h93zM879 0h-785v55l674 891h-170h-496v58h746v-52l-678 -895h180h527z" />
    <glyph glyph-name="Zdotaccent" unicode="&#x17b;" horiz-adv-x="1157" 
d="M629 1610h-62v180h62v-180zM1094 0h-1026v72l921 1304h-174h-684v58h934v-58l-932 -1319h168h793v-57z" />
    <glyph glyph-name="zdotaccent" unicode="&#x17c;" horiz-adv-x="956" 
d="M506 1253h-62v181h62v-181zM879 0h-785v55l674 891h-170h-496v58h746v-52l-678 -895h180h527z" />
    <glyph glyph-name="Zcaron" unicode="&#x17d;" horiz-adv-x="1157" 
d="M817 1843h66l-232 -233h-104l-232 233h66l217 -188zM1094 0h-1026v72l921 1304h-174h-684v58h934v-58l-932 -1319h168h793v-57z" />
    <glyph glyph-name="zcaron" unicode="&#x17e;" horiz-adv-x="956" 
d="M522 1159h-96l-209 234h59l199 -189l197 189h59zM879 0h-785v55l674 891h-170h-496v58h746v-52l-678 -895h180h527z" />
    <glyph glyph-name="florin" unicode="&#x192;" horiz-adv-x="937" 
d="M55 -424q-110 0 -176 35v61q74 -39 176 -39q73 0 134 54.5t81 177.5l99 610q23 137 45 289h-221h-60v55h289l55 357q44 282 277 282q73 0 139 -16v-58q-72 17 -139 17q-99 0 -151 -67t-73 -201l-49 -314h289v-55h-297l-141 -895q-11 -71 -34 -124.5t-50 -85t-62 -51
t-66 -26t-65 -6.5z" />
    <glyph glyph-name="AEacute" unicode="&#x1fc;" horiz-adv-x="1898" 
d="M1434 1843h102l-223 -233h-56zM1794 1434v-58h-778v-598h575v-57h-575v-664h778v-57h-840v465h-589l-297 -465h-74l926 1434h874zM954 522v477v383q-73 -112 -247 -383l-306 -477h553z" />
    <glyph glyph-name="aeacute" unicode="&#x1fd;" horiz-adv-x="1761" 
d="M905 1159h-51l162 234h92zM449 -25q-151 0 -235.5 71.5t-84.5 191.5t93 212t246 140.5t343 52.5v47q0 130 -72.5 205.5t-220.5 75.5q-250 0 -346 -207l-53 22q14 32 32.5 61t52 63.5t75 59t104 41.5t135.5 17q155 0 240 -73t102 -179q43 119 141.5 185.5t221.5 66.5
q198 0 313 -141.5t100 -370.5h-764q0 -106 20.5 -190.5t54.5 -138.5t81 -89.5t96 -50t103 -14.5q131 0 222 70t130 167l59 -26q-19 -46 -52 -89.5t-82.5 -86t-121.5 -68t-155 -25.5q-148 0 -251 90t-134 248q-8 -62 -39 -121.5t-80.5 -108t-121 -78.5t-152.5 -30zM872 571
h707q0 99 -30 177.5t-81 126t-113.5 72t-131.5 24.5q-108 0 -187.5 -56t-119.5 -145t-44 -199zM449 33q51 0 100 13.5t97 47t84 83t58.5 127.5t22.5 175v111q-174 -4 -314 -47.5t-222 -123t-82 -181.5q0 -91 66 -148t190 -57z" />
    <glyph glyph-name="Oslashacute" unicode="&#x1fe;" horiz-adv-x="1632" 
d="M842 1610h-56l177 233h102zM399 121l-120 -158l-48 39l123 160q-104 102 -161.5 245.5t-57.5 313.5q0 162 53 300.5t144.5 233.5t216.5 149t266 54q239 0 420 -145l133 174l45 -39l-135 -176q103 -98 160 -240t57 -311q0 -160 -53 -300t-144.5 -237t-216.5 -153t-266 -56
q-233 0 -416 146zM393 213l699 911q75 101 104 138q-164 139 -381 139q-172 0 -313 -88.5t-221 -244.5t-80 -347q0 -151 50 -282t142 -226zM815 33q130 0 244.5 54t195.5 146t128 219t47 269q0 148 -50 277t-141 223l-647 -848l-154 -201q161 -139 377 -139z" />
    <glyph glyph-name="oslashacute" unicode="&#x1ff;" horiz-adv-x="1169" 
d="M647 1159h-51l162 234h92zM586 -25q-156 0 -277 97l-86 -115l-43 37l86 117q-139 146 -139 389q0 130 41 234t108 166.5t146.5 95t163.5 32.5q162 0 286 -106l68 90l45 -35l-72 -96q131 -144 131 -381q0 -130 -40.5 -233.5t-107.5 -165.5t-146.5 -94t-163.5 -32zM305 160
l432 579l99 133q-108 99 -250 99q-75 0 -145 -30.5t-126.5 -87.5t-90.5 -149t-34 -204q0 -212 115 -340zM586 33q75 0 145 30t126 86t90 147.5t34 203.5q0 199 -104 331l-424 -567l-107 -143q104 -88 240 -88z" />
    <glyph glyph-name="uni0218" unicode="&#x218;" horiz-adv-x="1224" 
d="M608 -25q-185 0 -312.5 87t-189.5 251l62 31q44 -142 165.5 -225.5t274.5 -83.5q191 0 306.5 86.5t115.5 232.5q0 128 -82 208t-231 124l-221 66q-328 98 -328 350q0 114 60.5 196t157.5 121t216 39q88 0 163.5 -21.5t124.5 -53t88 -73.5t59 -76t32 -67l-55 -30
q-12 30 -29.5 60t-52.5 68.5t-78 67t-109 48.5t-143 20q-160 0 -266.5 -79.5t-106.5 -215.5q0 -113 77.5 -183.5t246.5 -121.5l199 -60q344 -101 344 -385q0 -175 -130 -278t-358 -103zM602 -551h-47l92 186h-45v146h88v-146z" />
    <glyph glyph-name="uni0219" unicode="&#x219;" horiz-adv-x="968" 
d="M487 -25q-91 0 -163.5 25t-117 67t-70 90.5t-32.5 102.5l60 21q12 -99 97.5 -173.5t225.5 -74.5q149 0 227.5 59t78.5 152q0 84 -60.5 142t-167.5 85l-151 39q-40 10 -71.5 21t-70.5 32t-64.5 47t-43 66.5t-17.5 89.5q0 112 93 187t243 75q142 0 229 -66.5t113 -164.5
l-57 -25q-13 74 -87 136.5t-198 62.5q-129 0 -201.5 -59t-72.5 -136q0 -150 192 -198l154 -39q301 -76 301 -295q0 -116 -90.5 -192.5t-278.5 -76.5zM453 -551h-47l92 186h-45v146h88v-146z" />
    <glyph glyph-name="uni021A" unicode="&#x21a;" horiz-adv-x="1245" 
d="M635 0h-62v1376h-540v58h1179v-58h-577v-1376zM559 -551h-47l92 186h-45v146h88v-146z" />
    <glyph glyph-name="uni021B" unicode="&#x21b;" horiz-adv-x="739" 
d="M705 0h-113q-287 0 -287 266v682h-270v56h270v288h60v-288h305v-56h-305v-676q0 -109 52 -162t163 -53h125v-57zM459 -551h-47l92 186h-45v146h88v-146z" />
    <glyph glyph-name="uni0226" unicode="&#x226;" horiz-adv-x="1325" 
d="M631 1790h61v-180h-61v180zM1251 0h-71l-179 473h-679l-177 -473h-69l545 1434h81zM598 1219l-256 -689h639l-258 689q-10 28 -32 83t-32 82z" />
    <glyph glyph-name="uni0227" unicode="&#x227;" horiz-adv-x="1083" 
d="M537 1253h-62v181h62v-181zM434 -25q-139 0 -222 69t-83 189q0 95 54 172t148.5 126.5t215 78t260.5 33.5v72q0 112 -73.5 184t-219.5 72q-268 0 -340 -207l-57 24q13 40 40 78.5t73 76.5t119.5 61.5t164.5 23.5q96 0 167 -27.5t110 -75.5t57 -103t18 -120v-518
q0 -64 30.5 -95.5t78.5 -31.5h84v-57h-76q-87 0 -131.5 48.5t-44.5 172.5q-51 -117 -145 -181.5t-228 -64.5zM434 33q67 0 130.5 24t119 73t89.5 135.5t34 199.5v125q-173 -7 -309.5 -48t-220.5 -121t-84 -188q0 -91 64.5 -145.5t176.5 -54.5z" />
    <glyph glyph-name="uni0232" unicode="&#x232;" horiz-adv-x="1298" 
d="M1006 1671h-662v55h662v-55zM680 0h-62v637l-505 797h73l396 -631q8 -14 67 -105q63 92 74 109l389 627h74l-506 -799v-635z" />
    <glyph glyph-name="uni0233" unicode="&#x233;" horiz-adv-x="1019" 
d="M205 1282h602v-55h-602v55zM623 338l241 666h66l-430 -1168q-24 -64 -45 -103.5t-54.5 -71.5t-80.5 -46t-115 -14h-111v57h111q91 0 145 39t96 153l72 197l-438 957h65l306 -666q53 -111 94 -211q36 92 78 211z" />
    <glyph glyph-name="uni0237" unicode="&#x237;" horiz-adv-x="485" 
d="M39 -399h-113v57h107q38 0 69.5 10.5t59.5 34.5t43.5 68.5t15.5 107.5v1125h60v-1133q0 -136 -66.5 -203t-175.5 -67z" />
    <glyph glyph-name="circumflex" unicode="&#x2c6;" horiz-adv-x="759" 
d="M182 1159h-59l209 234h96l209 -234h-59l-197 189z" />
    <glyph glyph-name="caron" unicode="&#x2c7;" horiz-adv-x="759" 
d="M428 1159h-96l-209 234h59l199 -189l197 189h59z" />
    <glyph glyph-name="breve" unicode="&#x2d8;" horiz-adv-x="733" 
d="M367 1153q-110 0 -173 66.5t-71 173.5h51q10 -93 63 -138t130 -45t129.5 45t62.5 138h51q-8 -107 -70.5 -173.5t-172.5 -66.5z" />
    <glyph glyph-name="dotaccent" unicode="&#x2d9;" horiz-adv-x="471" 
d="M266 1253h-61v181h61v-181z" />
    <glyph glyph-name="ring" unicode="&#x2da;" horiz-adv-x="559" 
d="M281 1112q-83 0 -136 55.5t-53 132.5t53 132t136 55q82 0 134 -55t52 -132q0 -78 -52 -133t-134 -55zM281 1161q59 0 94 41.5t35 97.5t-35 97t-94 41t-95 -41.5t-36 -96.5q0 -56 36 -97.5t95 -41.5z" />
    <glyph glyph-name="ogonek" unicode="&#x2db;" horiz-adv-x="464" 
d="M262 -389q-74 0 -117 43t-43 108q0 68 50 140t149 121l49 -23q-99 -52 -144.5 -107.5t-45.5 -121.5q0 -45 28 -74t76 -29q30 0 88 21v-56q-16 -10 -45 -16t-45 -6z" />
    <glyph glyph-name="tilde" unicode="&#x2dc;" horiz-adv-x="745" 
d="M524 1178q-67 0 -137 53l-59 45q-31 23 -40.5 29.5t-28 13t-42.5 6.5q-92 0 -88 -129h-57q-4 90 37 136t112 46q63 0 133 -53l60 -45q30 -23 40.5 -30t29 -13t42.5 -6q94 0 90 129h58q1 -91 -39.5 -136.5t-110.5 -45.5z" />
    <glyph glyph-name="hungarumlaut" unicode="&#x2dd;" horiz-adv-x="684" 
d="M158 1159h-49l161 234h92zM412 1159h-50l162 234h92z" />
    <glyph glyph-name="uni0394" unicode="&#x394;" horiz-adv-x="1318" 
d="M616 1434h82l545 -1434h-1165zM547 1083l-379 -1026h983l-383 1022l-111 299q-4 -11 -110 -295z" />
    <glyph glyph-name="uni03A9" unicode="&#x3a9;" horiz-adv-x="1601" 
d="M696 0h-483v57h111h215q-190 83 -291 260t-101 404q0 330 180.5 533.5t473.5 203.5t473 -203.5t180 -533.5q0 -228 -100.5 -404.5t-290.5 -259.5h209h117v-57h-484v57q224 47 354 225.5t130 438.5q0 192 -71 346t-206 244t-311 90t-311 -90t-206 -244t-71 -346
q0 -260 129.5 -438.5t353.5 -225.5v-57z" />
    <glyph glyph-name="uni03BC" unicode="&#x3bc;" horiz-adv-x="1169" 
d="M264 -399h-59v1403h59v-627q0 -173 84.5 -259.5t224.5 -86.5q68 0 122.5 22t89.5 61t60 85t37.5 100.5t17.5 100.5t5 92v512h60v-1004h-58v223q-5 -22 -17 -49.5t-38.5 -64.5t-62 -66t-92.5 -49.5t-124 -20.5q-213 0 -309 150v-522z" />
    <glyph glyph-name="pi" unicode="&#x3c0;" horiz-adv-x="1247" 
d="M356 0h-61v946h-252v58h1106v-58h-260v-762q0 -59 26.5 -93t94.5 -34h139v-57h-141q-94 0 -137.5 45.5t-43.5 120.5v780h-471v-946z" />
    <glyph glyph-name="Wgrave" unicode="&#x1e80;" horiz-adv-x="1921" 
d="M985 1610h-53l-225 233h100zM569 0h-94l-358 1434h65l258 -1053q50 -201 84 -326q51 187 92 324l312 1055h65l310 -1055l96 -324l78 324l266 1055h63l-360 -1434h-92l-322 1083q-15 50 -71 252l-74 -254z" />
    <glyph glyph-name="wgrave" unicode="&#x1e81;" horiz-adv-x="1636" 
d="M844 1159h-49l-205 234h92zM520 0h-84l-348 1004h64l198 -576q62 -183 129 -375q60 182 121 375l184 576h68l184 -576q62 -197 121 -375q34 105 127 375l201 576h63l-348 -1004h-86l-213 672l-84 264q-51 -174 -80 -264z" />
    <glyph glyph-name="Wacute" unicode="&#x1e82;" horiz-adv-x="1921" 
d="M981 1610h-55l176 233h102zM569 0h-94l-358 1434h65l258 -1053q50 -201 84 -326q51 187 92 324l312 1055h65l310 -1055l96 -324l78 324l266 1055h63l-360 -1434h-92l-322 1083q-15 50 -71 252l-74 -254z" />
    <glyph glyph-name="wacute" unicode="&#x1e83;" horiz-adv-x="1636" 
d="M848 1159h-51l161 234h93zM520 0h-84l-348 1004h64l198 -576q62 -183 129 -375q60 182 121 375l184 576h68l184 -576q62 -197 121 -375q34 105 127 375l201 576h63l-348 -1004h-86l-213 672l-84 264q-51 -174 -80 -264z" />
    <glyph glyph-name="Wdieresis" unicode="&#x1e84;" horiz-adv-x="1921" 
d="M809 1610h-90v143h90v-143zM1184 1610h-90v143h90v-143zM569 0h-94l-358 1434h65l258 -1053q50 -201 84 -326q51 187 92 324l312 1055h65l310 -1055l96 -324l78 324l266 1055h63l-360 -1434h-92l-322 1083q-15 50 -71 252l-74 -254z" />
    <glyph glyph-name="wdieresis" unicode="&#x1e85;" horiz-adv-x="1636" 
d="M692 1239h-82v143h82v-143zM1032 1239h-82v143h82v-143zM520 0h-84l-348 1004h64l198 -576q62 -183 129 -375q60 182 121 375l184 576h68l184 -576q62 -197 121 -375q34 105 127 375l201 576h63l-348 -1004h-86l-213 672l-84 264q-51 -174 -80 -264z" />
    <glyph glyph-name="uni1E9E" unicode="&#x1e9e;" horiz-adv-x="1406" 
d="M788 -27q-217 0 -344 109v72q139 -121 344 -121q191 0 301.5 89.5t110.5 254.5q0 146 -106.5 243t-309.5 97h-194v55h182q163 0 264 86.5t101 216.5t-92.5 215.5t-258.5 85.5h-479v-1376h-61v1434h553q184 0 293.5 -98.5t109.5 -260.5q0 -67 -24 -125.5t-62.5 -97.5
t-81.5 -64.5t-86 -37.5q59 -9 115 -38t101.5 -74.5t73.5 -113.5t28 -147q0 -180 -122 -292t-356 -112z" />
    <glyph glyph-name="Ygrave" unicode="&#x1ef2;" horiz-adv-x="1298" 
d="M702 1610h-53l-225 233h100zM680 0h-62v637l-505 797h73l396 -631q8 -14 67 -105q63 92 74 109l389 627h74l-506 -799v-635z" />
    <glyph glyph-name="ygrave" unicode="&#x1ef3;" horiz-adv-x="1019" 
d="M367 1393l161 -234h-49l-205 234h93zM623 338l241 666h66l-430 -1168q-24 -64 -45 -103.5t-54.5 -71.5t-80.5 -46t-115 -14h-111v57h111q91 0 145 39t96 153l72 197l-438 957h65l306 -666q53 -111 94 -211q36 92 78 211z" />
    <glyph glyph-name="uni2002" unicode="&#x2002;" horiz-adv-x="1024" 
 />
    <glyph glyph-name="uni2003" unicode="&#x2003;" horiz-adv-x="2048" 
 />
    <glyph glyph-name="uni2009" unicode="&#x2009;" horiz-adv-x="256" 
 />
    <glyph glyph-name="uni200A" unicode="&#x200a;" horiz-adv-x="153" 
 />
    <glyph glyph-name="endash" unicode="&#x2013;" horiz-adv-x="1202" 
d="M1040 596h-878v59h878v-59z" />
    <glyph glyph-name="emdash" unicode="&#x2014;" horiz-adv-x="2033" 
d="M1872 596h-1710v59h1710v-59z" />
    <glyph glyph-name="quoteleft" unicode="&#x2018;" horiz-adv-x="444" 
d="M262 1436h51l-104 -209h51v-164h-98v164z" />
    <glyph glyph-name="quoteright" unicode="&#x2019;" horiz-adv-x="440" 
d="M203 1063h-51l104 209h-51v164h98v-164z" />
    <glyph glyph-name="quotesinglbase" unicode="&#x201a;" horiz-adv-x="475" 
d="M190 -209h-51l105 209h-51v164h98v-164z" />
    <glyph glyph-name="quotedblleft" unicode="&#x201c;" horiz-adv-x="729" 
d="M262 1436h51l-104 -209h51v-164h-98v164zM547 1436h51l-104 -209h51v-164h-99v164z" />
    <glyph glyph-name="quotedblright" unicode="&#x201d;" horiz-adv-x="724" 
d="M203 1063h-51l104 209h-51v164h98v-164zM487 1063h-51l105 209h-52v164h99v-164z" />
    <glyph glyph-name="quotedblbase" unicode="&#x201e;" horiz-adv-x="759" 
d="M190 -209h-51l105 209h-51v164h98v-164zM475 -209h-51l104 209h-51v164h98v-164z" />
    <glyph glyph-name="dagger" unicode="&#x2020;" horiz-adv-x="1011" 
d="M537 -227h-62v1126h-403v57h403v478h62v-478h403v-57h-403v-1126z" />
    <glyph glyph-name="daggerdbl" unicode="&#x2021;" horiz-adv-x="1118" 
d="M590 -227h-62v477h-403v57h403v592h-403v57h403v478h62v-478h403v-57h-403v-592h403v-57h-403v-477z" />
    <glyph glyph-name="bullet" unicode="&#x2022;" horiz-adv-x="1036" 
d="M518 389q-138 0 -238 97.5t-100 232.5q0 142 99.5 241t238.5 99t238.5 -99t99.5 -241q0 -135 -100 -232.5t-238 -97.5z" />
    <glyph glyph-name="ellipsis" unicode="&#x2026;" horiz-adv-x="1466" 
d="M272 0h-102v172h102v-172zM784 0h-102v172h102v-172zM1296 0h-102v172h102v-172z" />
    <glyph glyph-name="perthousand" unicode="&#x2030;" horiz-adv-x="2217" 
d="M729 1042q0 -192 -84 -305.5t-225 -113.5q-143 0 -229.5 114.5t-86.5 304.5q0 181 88 292.5t228 111.5t224.5 -110.5t84.5 -293.5zM291 0l1009 1434h70l-1008 -1434h-71zM164 1042q0 -165 70 -264.5t186 -99.5q113 0 180.5 99t67.5 265q0 160 -67 254.5t-181 94.5
q-117 0 -186.5 -94.5t-69.5 -254.5zM1806 811q140 0 225 -110t85 -293q0 -192 -84.5 -306t-225.5 -114q-101 0 -176 59.5t-110 165.5q-34 -107 -107 -166t-174 -59q-143 0 -229 115t-86 305q0 181 87.5 292t227.5 111q99 0 173 -58t108 -161q37 102 112 160.5t174 58.5z
M1239 43q113 0 180.5 99.5t67.5 265.5q0 160 -67 254t-181 94q-117 0 -186.5 -94t-69.5 -254q0 -165 70 -265t186 -100zM1806 43q113 0 180.5 99.5t67.5 265.5q0 160 -67 254t-181 94q-117 0 -186.5 -94t-69.5 -254q0 -165 70 -265t186 -100z" />
    <glyph glyph-name="guilsinglleft" unicode="&#x2039;" horiz-adv-x="585" 
d="M375 903h71l-256 -387l256 -389h-73l-254 387z" />
    <glyph glyph-name="guilsinglright" unicode="&#x203a;" horiz-adv-x="587" 
d="M139 903h74l254 -387l-256 -389h-72l256 389z" />
    <glyph glyph-name="fraction" unicode="&#x2044;" horiz-adv-x="368" 
d="M-287 0h-71l1009 1434h70z" />
    <glyph glyph-name="uni2070" unicode="&#x2070;" horiz-adv-x="849" 
d="M428 809q-143 0 -229 115t-86 305q0 181 87.5 292t227.5 111t224.5 -110t84.5 -293q0 -192 -84 -306t-225 -114zM428 864q113 0 180.5 99.5t67.5 265.5q0 160 -67 254t-181 94q-117 0 -186.5 -94t-69.5 -254q0 -165 70 -265t186 -100z" />
    <glyph glyph-name="uni2074" unicode="&#x2074;" horiz-adv-x="710" 
d="M498 821h-58v232h-366v47l352 520h72v-514h133v-53h-133v-232zM338 1106h102v156v280l-297 -436h195z" />
    <glyph glyph-name="uni2075" unicode="&#x2075;" horiz-adv-x="729" 
d="M362 809q-108 0 -177.5 54t-82.5 149l60 28q5 -85 56.5 -130.5t143.5 -45.5q90 0 144.5 57t54.5 152q0 97 -52.5 151t-146.5 54q-118 0 -178 -111l-65 13l59 440h418v-55h-371l-24 -185l-17 -129q73 82 181 82q118 0 188 -70.5t70 -189.5q0 -117 -73.5 -190.5
t-187.5 -73.5z" />
    <glyph glyph-name="uni2076" unicode="&#x2076;" horiz-adv-x="749" 
d="M389 809q-133 0 -203.5 100t-70.5 289q0 199 91.5 316.5t246.5 117.5q78 0 153 -28v-64q-82 35 -149 35q-133 0 -208.5 -97.5t-76.5 -283.5q26 62 83.5 101.5t133.5 39.5q116 0 186 -73.5t70 -188.5q0 -114 -72 -189t-184 -75zM389 864q88 0 142.5 57.5t54.5 151.5
q0 92 -54.5 149.5t-142.5 57.5q-83 0 -139.5 -59.5t-56.5 -147.5q0 -89 56.5 -149t139.5 -60z" />
    <glyph glyph-name="uni2077" unicode="&#x2077;" horiz-adv-x="657" 
d="M264 821h-63q0 102 13 191.5t45 187.5t94.5 191t154.5 174h-123h-311v55h518v-43q-87 -75 -149 -154.5t-96.5 -149.5t-54 -152.5t-24.5 -148t-4 -151.5z" />
    <glyph glyph-name="uni2078" unicode="&#x2078;" horiz-adv-x="743" 
d="M371 809q-118 0 -188 61t-70 164q0 71 40.5 126.5t110.5 80.5q-127 53 -127 186q0 91 65.5 148t168.5 57q104 0 169.5 -57t65.5 -148q0 -62 -32 -110t-93 -76q70 -25 110 -80.5t40 -126.5q0 -103 -70.5 -164t-189.5 -61zM371 1268q79 0 126.5 43.5t47.5 115.5
q0 68 -47.5 109t-126.5 41q-78 0 -125 -41t-47 -109q0 -72 47 -115.5t125 -43.5zM371 864q92 0 145 45.5t53 122.5q0 80 -54 129t-144 49q-89 0 -143 -49t-54 -129q0 -77 53 -122.5t144 -45.5z" />
    <glyph glyph-name="uni2079" unicode="&#x2079;" horiz-adv-x="759" 
d="M332 809q-115 0 -185 51v64q83 -60 185 -60q114 0 182 99q66 94 72 270q-32 -65 -90 -99t-131 -34q-119 0 -191 71t-72 191q0 121 73 195.5t190 74.5q107 0 180 -65q100 -89 100 -314q0 -204 -84 -324t-229 -120zM365 1155q91 0 148.5 58.5t57.5 152.5t-57.5 152.5
t-148.5 58.5q-92 0 -147.5 -57t-55.5 -154q0 -98 54.5 -154.5t148.5 -56.5z" />
    <glyph glyph-name="uni20A9" unicode="&#x20a9;" horiz-adv-x="1984" 
d="M1878 883v-58h-201l-61 -250h201v-57h-215l-129 -518h-93l-151 518h-473l-152 -518h-94l-129 518h-213v57h201l-64 250h-199v58h185l-135 551h65l133 -551h445l159 551h66l160 -551h444l137 551h64l-137 -551h186zM920 1083l-60 -200h262l-59 200q-13 42 -36.5 126
t-35.5 126q-12 -42 -35 -126t-36 -126zM780 825h-411l61 -250h279zM844 825l-72 -250h440l-73 250h-295zM1274 575h278l62 250h-412zM651 379l41 139h-248l33 -137q14 -54 41.5 -163t40.5 -163q74 262 92 324zM1503 379l35 139h-248l41 -139q11 -37 43.5 -149t50.5 -175z
" />
    <glyph glyph-name="Euro" unicode="&#x20ac;" horiz-adv-x="1409" 
d="M797 -25q-221 0 -353.5 159t-169.5 425h-176v55h170q-10 97 -2 252h-168v56h176q36 251 169.5 393.5t353.5 142.5q96 0 176.5 -31.5t130 -76t88 -104.5t56 -104.5t28.5 -88.5l-55 -23q-11 47 -29.5 92.5t-53.5 97.5t-79.5 91t-113 64.5t-148.5 25.5q-197 0 -312.5 -125.5
t-148.5 -353.5h272h250v-56h-528q-12 -105 0 -252h528v-55h-250h-270q23 -157 79 -272.5t153.5 -184.5t226.5 -69q66 0 121.5 15t98 43t76 63t59 81t43 91.5t32.5 99.5l59 -23q-13 -44 -27.5 -81t-37.5 -82t-49.5 -81t-64.5 -71.5t-82 -59.5t-102.5 -38.5t-125.5 -14.5z" />
    <glyph glyph-name="uni20B9" unicode="&#x20b9;" horiz-adv-x="1183" 
d="M1067 1434v-58h-190h-199q90 -44 140 -123t56 -182h193v-57h-195q-8 -121 -77 -209.5t-185 -118.5q49 -10 87 -30.5t62.5 -43.5t45.5 -62.5t32.5 -69.5t28.5 -81l127 -399h-65l-135 432q-34 113 -109 168t-203 55h-340v58h332q140 0 232 81t102 220h-666v57h668
q-9 139 -103 222t-233 83h-332v58h926z" />
    <glyph glyph-name="uni20BA" unicode="&#x20ba;" horiz-adv-x="1114" 
d="M371 0h-49v416v190q-25 -14 -138 -74l-67 -36v63l205 113v192l-205 -110v65l205 111v504h61v-252v-219q111 56 162 84l272 147v-64l-434 -233v-192l434 237v-65l-434 -236v-582h20q30 0 66 5t87.5 20t100 39.5t101.5 68.5t95.5 101t77.5 142.5t52 187.5l55 -23
q-19 -126 -71 -233.5t-133.5 -190t-200.5 -129.5t-262 -47z" />
    <glyph glyph-name="uni20BD" unicode="&#x20bd;" horiz-adv-x="1204" 
d="M668 633h-332v-227h338v-58h-338v-348h-62v348h-163v58h163v227h-163v57h163v744h400q210 0 324 -114t114 -286q0 -83 -28 -155t-81.5 -127.5t-139.5 -87t-195 -31.5zM662 1376h-326v-686h326q99 0 175 29t120.5 79t67 109.5t22.5 126.5q0 53 -12.5 101.5t-41.5 93
t-72.5 77t-110 51.5t-148.5 19z" />
    <glyph glyph-name="uni20BF" unicode="&#x20bf;" horiz-adv-x="1294" 
d="M879 754q51 -10 101 -36.5t94.5 -70t72 -111t27.5 -147.5q0 -171 -108.5 -280t-287.5 -109h-10v-217h-57v217h-193v-217h-57v217h-215v1434h215v215h57v-215h193v215h57v-217q160 -15 250 -111t90 -246q0 -70 -22.5 -128.5t-59.5 -96t-73 -60.5t-74 -36zM700 1376h-393
v-602h393q166 0 254 84t88 217q0 132 -88 216.5t-254 84.5zM307 57h461q158 0 249 96.5t91 235.5q0 140 -90 234t-248 94h-463v-660z" />
    <glyph glyph-name="uni2113" unicode="&#x2113;" horiz-adv-x="872" 
d="M471 -25q-26 0 -51.5 3.5t-61 17.5t-61.5 37.5t-45 68.5t-19 105v274q-82 -17 -155 -22v57q69 5 155 27v604q0 55 12 106t38.5 99t77.5 77t120 29q132 0 209.5 -102.5t77.5 -257.5q0 -87 -27.5 -174t-82.5 -169.5t-149 -151t-214 -105.5v-297q0 -82 54 -125t116 -43
q34 0 63.5 8.5t63.5 30.5t64.5 69t54.5 117l53 -27q-21 -77 -58.5 -131.5t-81.5 -79.5t-80.5 -35t-72.5 -10zM295 561q104 35 184.5 95.5t128.5 133.5t72.5 151.5t24.5 158.5q0 124 -61.5 212.5t-162.5 88.5q-186 0 -186 -283v-338v-219z" />
    <glyph glyph-name="uni2116" unicode="&#x2116;" horiz-adv-x="2326" 
d="M1874 592q-73 0 -136 25.5t-113 76.5t-78.5 136t-28.5 196t28.5 195t78.5 134t112.5 74.5t136.5 24.5t136.5 -24.5t112.5 -74.5t78.5 -134t28.5 -195t-28.5 -196t-78.5 -136t-113 -76.5t-136 -25.5zM307 0h-61v1434h76l948 -1356v278v1078h61v-1434h-82l-942 1346v-291
v-1055zM1874 647q134 0 213.5 95t79.5 282t-79.5 282t-213.5 95t-213.5 -95t-79.5 -282t79.5 -282t213.5 -95z" />
    <glyph glyph-name="uni2117" unicode="&#x2117;" horiz-adv-x="1818" 
d="M913 -72q-166 0 -312 61.5t-248.5 166.5t-162 250t-59.5 307q0 161 59.5 306.5t162 252.5t248.5 170t312 63q165 0 310 -63t246.5 -170t160 -252.5t58.5 -306.5q0 -162 -58.5 -307t-160 -250t-246.5 -166.5t-310 -61.5zM911 -14q154 0 287 56t225.5 153.5t145.5 231.5
t53 286t-53 287.5t-145.5 234t-225.5 156t-287 57.5q-205 0 -369 -98t-254.5 -265.5t-90.5 -371.5q0 -203 90.5 -369t254.5 -262t369 -96zM739 311h-57v815h274q145 0 231.5 -67t86.5 -205t-85.5 -204t-227.5 -66h-222v-273zM739 1071v-430h197q276 0 276 213
q0 217 -276 217h-197z" />
    <glyph glyph-name="trademark" unicode="&#x2122;" horiz-adv-x="1667" 
d="M397 662h-61v714h-260v58h583v-58h-262v-714zM866 662h-59v772h98l158 -459q13 -39 41 -117t41 -117l74 236l145 457h104v-772h-59v348v364l-231 -712h-66l-246 700v-352v-348z" />
    <glyph glyph-name="uni2126" unicode="&#x2126;" horiz-adv-x="1589" 
d="M690 0h-483v57h110h215q-190 83 -290.5 259.5t-100.5 404.5q0 330 180.5 533.5t473.5 203.5t473 -203.5t180 -533.5q0 -228 -100.5 -404.5t-290.5 -259.5h209h116v-57h-483v57q224 47 353.5 225.5t129.5 438.5q0 193 -71 346.5t-205.5 243.5t-310.5 90t-311 -90
t-206 -244t-71 -346q0 -260 129.5 -438.5t353.5 -225.5v-57z" />
    <glyph glyph-name="uni2153" unicode="&#x2153;" horiz-adv-x="1544" 
d="M367 635h-58v457v217q-81 -111 -215 -148v60q160 59 240 213h33v-799zM223 0h-71l1009 1434h70zM1184 -12q-122 0 -191.5 67t-66.5 181l57 18q-7 -95 48.5 -153t152.5 -58q85 0 137.5 47.5t52.5 122.5q0 78 -55 127t-145 49h-80v57h80q77 0 126.5 44.5t49.5 113.5
q0 68 -48 110t-124 42q-82 0 -129 -52t-41 -137l-58 21q-4 96 61.5 159.5t166.5 63.5t166 -58t65 -149q0 -62 -34 -110.5t-95 -73.5q72 -25 113 -80t41 -127q0 -102 -68 -163.5t-182 -61.5z" />
    <glyph glyph-name="uni2154" unicode="&#x2154;" horiz-adv-x="1738" 
d="M616 635h-489v53q71 50 121 88.5t109.5 93.5t96.5 103.5t62 108t25 118.5q0 89 -49 140t-134 51q-35 0 -66.5 -11t-60 -34.5t-42 -69.5t-5.5 -109l-59 17q-10 117 55 189.5t178 72.5q108 0 175 -67t67 -175q0 -106 -63 -207q-99 -154 -322 -307h317h84v-55zM418 0h-72
l1010 1434h69zM1378 -12q-122 0 -191.5 67t-66.5 181l58 18q-7 -95 48 -153t152 -58q85 0 138 47.5t53 122.5q0 78 -55.5 127t-145.5 49h-80v57h80q77 0 126.5 44.5t49.5 113.5q0 68 -48 110t-124 42q-82 0 -129 -52t-41 -137l-57 21q-4 96 61 159.5t166 63.5t166.5 -58
t65.5 -149q0 -62 -34 -110.5t-95 -73.5q72 -25 112.5 -80t40.5 -127q0 -102 -68 -163.5t-182 -61.5z" />
    <glyph glyph-name="uni2155" unicode="&#x2155;" horiz-adv-x="1589" 
d="M367 635h-58v457v217q-81 -111 -215 -148v60q160 59 240 213h33v-799zM223 0h-71l1009 1434h70zM1210 -12q-108 0 -177.5 53.5t-82.5 148.5l60 29q5 -85 56.5 -130.5t143.5 -45.5q90 0 144.5 57t54.5 152q0 97 -52.5 151t-146.5 54q-118 0 -178 -111l-65 12l59 441h418
v-56h-371l-24 -184l-17 -129q73 82 180 82q118 0 188 -70.5t70 -189.5q0 -117 -73 -190.5t-187 -73.5z" />
    <glyph glyph-name="uni2156" unicode="&#x2156;" horiz-adv-x="1783" 
d="M616 635h-489v53q71 50 121 88.5t109.5 93.5t96.5 103.5t62 108t25 118.5q0 89 -49 140t-134 51q-35 0 -66.5 -11t-60 -34.5t-42 -69.5t-5.5 -109l-59 17q-10 117 55 189.5t178 72.5q108 0 175 -67t67 -175q0 -106 -63 -207q-99 -154 -322 -307h317h84v-55zM418 0h-72
l1010 1434h69zM1405 -12q-108 0 -177.5 53.5t-82.5 148.5l59 29q4 -85 56.5 -130.5t144.5 -45.5q90 0 144.5 57t54.5 152q0 97 -52.5 151t-146.5 54q-118 0 -178 -111l-66 12l60 441h417v-56h-370l-25 -184l-16 -129q73 82 180 82q118 0 188 -70.5t70 -189.5
q0 -117 -73 -190.5t-187 -73.5z" />
    <glyph glyph-name="uni2157" unicode="&#x2157;" horiz-adv-x="1792" 
d="M362 623q-122 0 -191.5 66.5t-66.5 180.5l58 19q-7 -95 48 -153t152 -58q85 0 138 47.5t53 122.5q0 78 -55.5 127t-145.5 49h-80v57h80q77 0 126.5 44.5t49.5 113.5q0 68 -48 110t-124 42q-82 0 -129 -52t-41 -137l-57 21q-4 96 61 159.5t166 63.5t166.5 -58t65.5 -149
q0 -62 -34 -110.5t-95 -73.5q72 -25 112.5 -80t40.5 -127q0 -102 -68 -163.5t-182 -61.5zM426 0h-72l1010 1434h70zM1413 -12q-108 0 -177.5 53.5t-82.5 148.5l59 29q4 -85 56.5 -130.5t144.5 -45.5q90 0 144.5 57t54.5 152q0 97 -52.5 151t-146.5 54q-118 0 -178 -111
l-66 12l60 441h418v-56h-371l-25 -184l-16 -129q73 82 180 82q118 0 188 -70.5t70 -189.5q0 -117 -73 -190.5t-187 -73.5z" />
    <glyph glyph-name="uni2158" unicode="&#x2158;" horiz-adv-x="1753" 
d="M498 635h-58v231h-366v47l352 521h72v-514h133v-54h-133v-231zM383 0h-72l1010 1434h70zM338 920h102v155v281l-297 -436h195zM1370 -12q-108 0 -177.5 53.5t-82.5 148.5l59 29q4 -85 56.5 -130.5t144.5 -45.5q90 0 144.5 57t54.5 152q0 97 -52.5 151t-146.5 54
q-118 0 -178 -111l-66 12l60 441h418v-56h-371l-25 -184l-16 -129q73 82 180 82q118 0 188 -70.5t70 -189.5q0 -117 -73 -190.5t-187 -73.5z" />
    <glyph glyph-name="uni2159" unicode="&#x2159;" horiz-adv-x="1597" 
d="M367 635h-58v457v217q-81 -111 -215 -148v60q160 59 240 213h33v-799zM223 0h-71l1009 1434h70zM1231 -12q-134 0 -204.5 100t-70.5 289q0 199 91.5 316.5t246.5 117.5q76 0 154 -29v-63q-82 35 -150 35q-133 0 -208 -97.5t-76 -283.5q26 62 83.5 101.5t133.5 39.5
q116 0 186 -73.5t70 -188.5q0 -114 -72 -189t-184 -75zM1231 43q88 0 142 57.5t54 151.5q0 92 -54 149.5t-142 57.5q-83 0 -140 -59.5t-57 -147.5q0 -89 57 -149t140 -60z" />
    <glyph glyph-name="uni215A" unicode="&#x215a;" horiz-adv-x="1796" 
d="M362 623q-108 0 -177.5 53.5t-82.5 148.5l60 29q5 -85 56.5 -130.5t143.5 -45.5q90 0 144.5 57t54.5 152q0 97 -52.5 151t-146.5 54q-118 0 -178 -111l-65 12l59 441h418v-56h-371l-24 -184l-17 -129q73 82 181 82q118 0 188 -70.5t70 -189.5q0 -117 -73.5 -190.5
t-187.5 -73.5zM422 0h-72l1010 1434h70zM1430 -12q-134 0 -204.5 100t-70.5 289q0 199 91.5 316.5t246.5 117.5q76 0 154 -29v-63q-82 35 -150 35q-133 0 -208.5 -97.5t-76.5 -283.5q26 62 84 101.5t134 39.5q116 0 186 -73.5t70 -188.5q0 -114 -72 -189t-184 -75zM1430 43
q88 0 142 57.5t54 151.5q0 92 -54 149.5t-142 57.5q-83 0 -140 -59.5t-57 -147.5q0 -89 57 -149t140 -60z" />
    <glyph glyph-name="oneeighth" unicode="&#x215b;" horiz-adv-x="1576" 
d="M367 635h-58v457v217q-81 -111 -215 -148v60q160 59 240 213h33v-799zM223 0h-71l1009 1434h70zM1208 -12q-118 0 -188 61t-70 164q0 71 41 126.5t111 80.5q-127 53 -127 186q0 91 65 148t168 57q104 0 170 -57t66 -148q0 -62 -32 -110t-93 -76q70 -25 109.5 -80.5
t39.5 -126.5q0 -103 -70.5 -164t-189.5 -61zM1208 446q79 0 126.5 44t47.5 116q0 68 -47.5 109t-126.5 41q-78 0 -125 -41t-47 -109q0 -72 47 -116t125 -44zM1208 43q92 0 145.5 45.5t53.5 122.5q0 80 -54.5 129t-144.5 49q-89 0 -142.5 -49t-53.5 -129q0 -77 53 -122.5
t143 -45.5z" />
    <glyph glyph-name="threeeighths" unicode="&#x215c;" horiz-adv-x="1779" 
d="M362 623q-122 0 -191.5 66.5t-66.5 180.5l58 19q-7 -95 48 -153t152 -58q85 0 138 47.5t53 122.5q0 78 -55.5 127t-145.5 49h-80v57h80q77 0 126.5 44.5t49.5 113.5q0 68 -48 110t-124 42q-82 0 -129 -52t-41 -137l-57 21q-4 96 61 159.5t166 63.5t166.5 -58t65.5 -149
q0 -62 -34 -110.5t-95 -73.5q72 -25 112.5 -80t40.5 -127q0 -102 -68 -163.5t-182 -61.5zM426 0h-72l1010 1434h70zM1411 -12q-118 0 -188 61t-70 164q0 71 41 126.5t111 80.5q-127 53 -127 186q0 91 65 148t168 57q104 0 170 -57t66 -148q0 -62 -32 -110t-93 -76
q70 -25 109.5 -80.5t39.5 -126.5q0 -103 -70.5 -164t-189.5 -61zM1411 446q79 0 126.5 44t47.5 116q0 68 -47.5 109t-126.5 41q-78 0 -125 -41t-47 -109q0 -72 47 -116t125 -44zM1411 43q92 0 145.5 45.5t53.5 122.5q0 80 -54.5 129t-144.5 49q-89 0 -143 -49t-54 -129
q0 -77 53 -122.5t144 -45.5z" />
    <glyph glyph-name="fiveeighths" unicode="&#x215d;" horiz-adv-x="1775" 
d="M362 623q-108 0 -177.5 53.5t-82.5 148.5l60 29q5 -85 56.5 -130.5t143.5 -45.5q90 0 144.5 57t54.5 152q0 97 -52.5 151t-146.5 54q-118 0 -178 -111l-65 12l59 441h418v-56h-371l-24 -184l-17 -129q73 82 181 82q118 0 188 -70.5t70 -189.5q0 -117 -73.5 -190.5
t-187.5 -73.5zM422 0h-72l1010 1434h70zM1407 -12q-118 0 -188 61t-70 164q0 71 40.5 126.5t110.5 80.5q-126 52 -126 186q0 91 65 148t168 57q104 0 169.5 -57t65.5 -148q0 -130 -124 -186q70 -25 109.5 -80.5t39.5 -126.5q0 -103 -70.5 -164t-189.5 -61zM1407 446
q79 0 126.5 44t47.5 116q0 68 -47.5 109t-126.5 41q-78 0 -125 -41t-47 -109q0 -72 47 -116t125 -44zM1407 43q92 0 145.5 45.5t53.5 122.5q0 80 -54.5 129t-144.5 49q-89 0 -143 -49t-54 -129q0 -77 53 -122.5t144 -45.5z" />
    <glyph glyph-name="seveneighths" unicode="&#x215e;" horiz-adv-x="1591" 
d="M272 635h-63q0 102 13 191t45 187t94.5 191t154.5 174h-123h-311v56h518v-43q-87 -75 -149 -154.5t-96.5 -149.5t-54 -152.5t-24.5 -148t-4 -151.5zM238 0h-72l1010 1434h69zM1223 -12q-118 0 -188 61t-70 164q0 71 40.5 126.5t110.5 80.5q-127 53 -127 186
q0 91 65.5 148t168.5 57q104 0 169.5 -57t65.5 -148q0 -62 -32 -110t-93 -76q70 -25 110 -80.5t40 -126.5q0 -103 -70.5 -164t-189.5 -61zM1223 446q79 0 126.5 44t47.5 116q0 68 -47.5 109t-126.5 41q-78 0 -125 -41t-47 -109q0 -72 47 -116t125 -44zM1223 43
q92 0 145 45.5t53 122.5q0 80 -54 129t-144 49q-89 0 -143 -49t-54 -129q0 -77 53 -122.5t144 -45.5z" />
    <glyph glyph-name="uni215F" unicode="&#x215f;" horiz-adv-x="614" 
d="M365 635h-58v457v217q-81 -111 -215 -148v60q160 59 240 213h33v-799zM221 0h-71l1009 1434h70z" />
    <glyph glyph-name="arrowleft" unicode="&#x2190;" horiz-adv-x="1730" 
d="M1634 748v-62h-1433q37 -42 157 -162l289 -286l-43 -43l-510 522l510 522l43 -43l-289 -287q-127 -127 -157 -161h1433z" />
    <glyph glyph-name="arrowup" unicode="&#x2191;" horiz-adv-x="1171" 
d="M616 0h-61v1434q-34 -30 -162 -158l-287 -289l-43 43l523 510l522 -510l-43 -43l-287 289q-128 128 -162 158v-1434z" />
    <glyph glyph-name="arrowright" unicode="&#x2192;" horiz-adv-x="1732" 
d="M96 686v62h1434q-22 25 -158 161l-289 287l43 43l510 -522l-510 -522l-43 43l289 286q128 128 158 162h-1434z" />
    <glyph glyph-name="arrowdown" unicode="&#x2193;" horiz-adv-x="1171" 
d="M555 1434h61v-1434q34 30 162 158l287 288l43 -43l-522 -509l-523 509l43 43l287 -288q128 -128 162 -158v1434z" />
    <glyph glyph-name="uni2196" unicode="&#x2196;" horiz-adv-x="1294" 
d="M264 1376l955 -956l-43 -43l-953 954v-225v-408h-57v736h731v-58h-408h-225z" />
    <glyph glyph-name="uni2197" unicode="&#x2197;" horiz-adv-x="1300" 
d="M1075 1335l-956 -954l-43 43l954 952h-225h-408v58h736v-732h-58v408v225z" />
    <glyph glyph-name="uni2198" unicode="&#x2198;" horiz-adv-x="1284" 
d="M1012 57l-955 957l43 43l953 -955v226v407h57v-735h-731v57h407h226z" />
    <glyph glyph-name="uni2199" unicode="&#x2199;" horiz-adv-x="1290" 
d="M231 98l957 955l43 -43l-955 -953h226h407v-57h-735v731h57v-407v-226z" />
    <glyph glyph-name="uni21A4" unicode="&#x21a4;" horiz-adv-x="1884" 
d="M1579 748v411h57v-883h-57v410h-1376q37 -42 157 -162l289 -286l-43 -43l-510 522l510 522l43 -43l-289 -287q-127 -127 -157 -161h1376z" />
    <glyph glyph-name="uni21A5" unicode="&#x21a5;" horiz-adv-x="1196" 
d="M1077 987l-286 289q-128 128 -162 158v-1377h411v-57h-882v57h409v1377q-25 -22 -161 -158l-287 -289l-43 43l522 510l522 -510z" />
    <glyph glyph-name="uni21A6" unicode="&#x21a6;" horiz-adv-x="1884" 
d="M1235 1196l43 43l510 -522l-510 -522l-43 43l289 286q119 120 157 162h-1376v-412h-57v883h57v-409h1376q-30 34 -157 161z" />
    <glyph glyph-name="uni21A7" unicode="&#x21a7;" horiz-adv-x="1196" 
d="M791 158l286 288l43 -43l-522 -509l-522 509l43 43l287 -288l39 -39t42.5 -43t39 -38.5t40.5 -37.5v1376h-411v58h882v-58h-409v-1376q34 30 162 158z" />
    <glyph glyph-name="uni21B0" unicode="&#x21b0;" horiz-adv-x="1769" 
d="M176 748h1434v-748h-58v686h-1376q30 -34 158 -162l289 -286l-43 -43l-510 522l510 522l43 -43l-289 -287q-12 -13 -38.5 -39t-43.5 -42.5t-38.5 -39t-37.5 -40.5z" />
    <glyph glyph-name="uni21B1" unicode="&#x21b1;" horiz-adv-x="1769" 
d="M1147 1196l43 43l510 -522l-510 -522l-43 43l289 286q119 120 157 162h-1376v-686h-57v748h1433q-30 34 -157 161z" />
    <glyph glyph-name="uni21B2" unicode="&#x21b2;" horiz-adv-x="1771" 
d="M1552 748v686h58v-748h-1434q30 -34 158 -162l289 -286l-43 -43l-510 522l510 522l43 -43l-289 -287q-12 -13 -38.5 -39t-43.5 -42.5t-38.5 -39t-37.5 -40.5h1376z" />
    <glyph glyph-name="uni21B3" unicode="&#x21b3;" horiz-adv-x="1771" 
d="M1149 1196l43 43l510 -522l-510 -522l-43 43l289 286q119 120 157 162h-1433v748h57v-686h1376q-30 34 -157 161z" />
    <glyph glyph-name="partialdiff" unicode="&#x2202;" horiz-adv-x="1193" 
d="M569 -25q-114 0 -202.5 41t-141 110t-79.5 152t-27 173q0 71 16 136.5t52 124t87.5 101t127 67.5t167.5 25q65 0 127 -17.5t120 -54t103 -100t68 -147.5q15 392 -140.5 603.5t-449.5 211.5q-96 0 -202 -27v60q74 24 211 24q109 0 200.5 -27t156.5 -73t116.5 -110t83 -133
t52 -148t28.5 -150t8 -143q0 -160 -26.5 -283t-70.5 -200.5t-107.5 -127t-131 -69t-146.5 -19.5zM569 33q163 0 274 113t111 296q0 182 -111 294t-274 112q-168 0 -275.5 -107t-107.5 -299t108 -300.5t275 -108.5z" />
    <glyph glyph-name="uni2206" unicode="&#x2206;" horiz-adv-x="1296" 
d="M604 1434h82l545 -1434h-1165zM535 1083l-379 -1026h983l-383 1022l-111 299q-4 -11 -110 -295z" />
    <glyph glyph-name="product" unicode="&#x220f;" horiz-adv-x="1331" 
d="M80 1434h1171v-60h-209v-1601h-61v1601h-633v-1601h-61v1601h-207v60z" />
    <glyph glyph-name="summation" unicode="&#x2211;" horiz-adv-x="1048" 
d="M967 -229h-883v73l580 758l-580 758v74h883v-56h-559h-267l596 -776l-596 -776h267h559v-55z" />
    <glyph glyph-name="minus" unicode="&#x2212;" horiz-adv-x="1431" 
d="M1253 692h-1075v58h1075v-58z" />
    <glyph glyph-name="uni2215" unicode="&#x2215;" horiz-adv-x="657" 
d="M78 -227h-62l568 1888h61z" />
    <glyph glyph-name="radical" unicode="&#x221a;" horiz-adv-x="1259" 
d="M680 -227h-84l-338 946h-221v57h264l199 -555l139 -391l131 389l408 1215h63z" />
    <glyph glyph-name="infinity" unicode="&#x221e;" horiz-adv-x="1761" 
d="M485 367q-145 0 -244.5 103.5t-99.5 258.5t99.5 259t244.5 104q55 0 100.5 -12.5t95.5 -44.5t100 -93.5t100 -153.5q50 92 99.5 153.5t99.5 93.5t95.5 44.5t100.5 12.5q145 0 244.5 -104t99.5 -259t-99.5 -258.5t-244.5 -103.5q-55 0 -100.5 12.5t-95.5 44t-99.5 93
t-99.5 153.5q-96 -176 -189 -239.5t-207 -63.5zM494 424q116 0 194 74.5t158 230.5q-80 156 -158 230.5t-194 74.5q-135 0 -214 -90.5t-79 -214.5t79 -214.5t214 -90.5zM1268 424q135 0 214 90.5t79 214.5t-79 214.5t-214 90.5q-61 0 -111 -20.5t-92.5 -63.5t-76.5 -94
t-73 -127q39 -76 73 -127t76.5 -94t92.5 -63.5t111 -20.5z" />
    <glyph glyph-name="integral" unicode="&#x222b;" horiz-adv-x="745" 
d="M174 -401h-174v57h184q75 0 115.5 41t40.5 123v1374q0 48 11 88.5t36 76t71 55.5t109 20h174v-58h-204q-60 0 -98 -49t-38 -131v-1358q0 -48 -11.5 -89t-36.5 -75.5t-70.5 -54.5t-108.5 -20z" />
    <glyph glyph-name="approxequal" unicode="&#x2248;" horiz-adv-x="1327" 
d="M889 889q-43 0 -86.5 11t-118.5 44l-61 27q-117 51 -183 51q-106 0 -213 -117l-43 45q118 131 262 131q79 0 205 -55l62 -27q117 -51 182 -51q106 0 213 117l43 -43q-114 -133 -262 -133zM889 438q-42 0 -85.5 11.5t-119.5 44.5l-61 26q-117 51 -183 51q-107 0 -213 -116
l-43 45q118 131 262 131q77 0 205 -56l62 -26q117 -51 182 -51q107 0 213 116l43 -43q-114 -133 -262 -133z" />
    <glyph glyph-name="notequal" unicode="&#x2260;" horiz-adv-x="1462" 
d="M422 150h-74l219 350h-389v57h426l117 186l94 150h-211h-426v57h674l195 312h69l-194 -312h362v-57h-397l-127 -203l-84 -133h172h436v-57h-643z" />
    <glyph glyph-name="lessequal" unicode="&#x2264;" horiz-adv-x="1456" 
d="M1270 403v-65l-1104 428v70l1104 436v-66l-766 -299q-46 -17 -137.5 -52.5t-137.5 -53.5l275 -105zM1270 170h-1104v59h1104v-59z" />
    <glyph glyph-name="greaterequal" unicode="&#x2265;" horiz-adv-x="1456" 
d="M1290 766l-1104 -428v65l766 293l275 105q-46 18 -137.5 53.5t-137.5 52.5l-766 299v66l1104 -436v-70zM1290 170h-1104v59h1104v-59z" />
    <glyph glyph-name="angleleft" unicode="&#x2329;" horiz-adv-x="636" 
d="M518 1567l57 -25l-436 -919l432 -926l-55 -25l-440 949z" />
    <glyph glyph-name="angleright" unicode="&#x232a;" horiz-adv-x="634" 
d="M66 1542l55 25l440 -949l-442 -946l-58 25l437 919z" />
    <glyph glyph-name="uni2460" unicode="&#x2460;" horiz-adv-x="1830" 
d="M920 -84q-167 0 -315.5 62.5t-253 169.5t-165.5 254t-61 311q0 162 61 310t165.5 257t253 173.5t315.5 64.5q166 0 313 -64.5t250.5 -173.5t163 -257t59.5 -310q0 -164 -59.5 -311t-163 -254t-250 -169.5t-313.5 -62.5zM918 -27q207 0 374 98.5t260 267.5t93 374t-93 376
t-260 271t-374 100q-155 0 -292 -59t-233 -159t-151.5 -238t-55.5 -291t55.5 -290t152 -236t233 -156.5t291.5 -57.5zM981 317h-57v457v217q-38 -52 -95 -91t-120 -56v59q159 59 239 213h33v-799z" />
    <glyph glyph-name="uni2461" unicode="&#x2461;" horiz-adv-x="1830" 
d="M920 -84q-167 0 -315.5 62.5t-253 169.5t-165.5 254t-61 311q0 162 61 310t165.5 257t253 173.5t315.5 64.5q166 0 313 -64.5t250.5 -173.5t163 -257t59.5 -310q0 -164 -59.5 -311t-163 -254t-250 -169.5t-313.5 -62.5zM918 -27q207 0 374 98.5t260 267.5t93 374t-93 376
t-260 271t-374 100q-155 0 -292 -59t-233 -159t-151.5 -238t-55.5 -291t55.5 -290t152 -236t233 -156.5t291.5 -57.5zM1165 317h-489v54q71 50 121 88.5t109.5 93.5t96.5 103.5t62 108t25 118.5q0 89 -49 139.5t-134 50.5q-35 0 -66.5 -10.5t-60 -34.5t-42 -69.5
t-5.5 -108.5l-59 16q-10 117 55 189.5t178 72.5q108 0 175 -66.5t67 -174.5q0 -104 -64 -207q-100 -155 -321 -307h317h84v-56z" />
    <glyph glyph-name="uni2462" unicode="&#x2462;" horiz-adv-x="1830" 
d="M920 -84q-167 0 -315.5 62.5t-253 169.5t-165.5 254t-61 311q0 162 61 310t165.5 257t253 173.5t315.5 64.5q166 0 313 -64.5t250.5 -173.5t163 -257t59.5 -310q0 -164 -59.5 -311t-163 -254t-250 -169.5t-313.5 -62.5zM918 -27q207 0 374 98.5t260 267.5t93 374t-93 376
t-260 271t-374 100q-155 0 -292 -59t-233 -159t-151.5 -238t-55.5 -291t55.5 -290t152 -236t233 -156.5t291.5 -57.5zM907 305q-122 0 -191.5 67t-66.5 181l58 18q-7 -95 48 -153t152 -58q85 0 138 47.5t53 122.5q0 78 -55.5 127.5t-145.5 49.5h-80v57h80q77 0 126.5 44.5
t49.5 113.5q0 67 -47.5 109t-124.5 42q-82 0 -129 -51.5t-41 -136.5l-57 20q-4 96 61 159.5t166 63.5t166.5 -57.5t65.5 -148.5q0 -62 -34 -111t-95 -74q72 -25 112.5 -80t40.5 -127q0 -102 -68 -163.5t-182 -61.5z" />
    <glyph glyph-name="uni2463" unicode="&#x2463;" horiz-adv-x="1830" 
d="M920 -84q-167 0 -315.5 62.5t-253 169.5t-165.5 254t-61 311q0 162 61 310t165.5 257t253 173.5t315.5 64.5q166 0 313 -64.5t250.5 -173.5t163 -257t59.5 -310q0 -164 -59.5 -311t-163 -254t-250 -169.5t-313.5 -62.5zM918 -27q207 0 374 98.5t260 267.5t93 374t-93 376
t-260 271t-374 100q-155 0 -292 -59t-233 -159t-151.5 -238t-55.5 -291t55.5 -290t152 -236t233 -156.5t291.5 -57.5zM1030 317h-57v232h-367v47l352 520h72v-514h133v-53h-133v-232zM870 602h103v156v280l-297 -436h194z" />
    <glyph glyph-name="uni2464" unicode="&#x2464;" horiz-adv-x="1830" 
d="M920 -84q-167 0 -315.5 62.5t-253 169.5t-165.5 254t-61 311q0 162 61 310t165.5 257t253 173.5t315.5 64.5q166 0 313 -64.5t250.5 -173.5t163 -257t59.5 -310q0 -164 -59.5 -311t-163 -254t-250 -169.5t-313.5 -62.5zM918 -27q207 0 374 98.5t260 267.5t93 374t-93 376
t-260 271t-374 100q-155 0 -292 -59t-233 -159t-151.5 -238t-55.5 -291t55.5 -290t152 -236t233 -156.5t291.5 -57.5zM915 305q-108 0 -177.5 54t-82.5 149l60 29q5 -85 56.5 -131t143.5 -46q90 0 144.5 57t54.5 152q0 97 -52.5 151t-146.5 54q-119 0 -178 -110l-65 12
l59 440h418v-55h-371l-24 -184l-17 -129q72 81 181 81q118 0 188 -70.5t70 -189.5q0 -117 -73.5 -190.5t-187.5 -73.5z" />
    <glyph glyph-name="uni2465" unicode="&#x2465;" horiz-adv-x="1830" 
d="M920 -84q-167 0 -315.5 62.5t-253 169.5t-165.5 254t-61 311q0 162 61 310t165.5 257t253 173.5t315.5 64.5q166 0 313 -64.5t250.5 -173.5t163 -257t59.5 -310q0 -164 -59.5 -311t-163 -254t-250 -169.5t-313.5 -62.5zM918 -27q207 0 374 98.5t260 267.5t93 374t-93 376
t-260 271t-374 100q-155 0 -292 -59t-233 -159t-151.5 -238t-55.5 -291t55.5 -290t152 -236t233 -156.5t291.5 -57.5zM899 305q-133 0 -203.5 100t-70.5 289q0 199 91.5 316.5t246.5 117.5q78 0 153 -28v-64q-82 35 -149 35q-133 0 -208.5 -97.5t-76.5 -283.5
q26 62 83.5 101.5t133.5 39.5q116 0 186 -73.5t70 -188.5q0 -114 -72 -189t-184 -75zM899 360q88 0 142.5 57.5t54.5 151.5q0 92 -54.5 149.5t-142.5 57.5q-83 0 -140 -59.5t-57 -147.5q0 -89 57 -149t140 -60z" />
    <glyph glyph-name="uni2466" unicode="&#x2466;" horiz-adv-x="1830" 
d="M920 -84q-167 0 -315.5 62.5t-253 169.5t-165.5 254t-61 311q0 162 61 310t165.5 257t253 173.5t315.5 64.5q166 0 313 -64.5t250.5 -173.5t163 -257t59.5 -310q0 -164 -59.5 -311t-163 -254t-250 -169.5t-313.5 -62.5zM918 -27q207 0 374 98.5t260 267.5t93 374t-93 376
t-260 271t-374 100q-155 0 -292 -59t-233 -159t-151.5 -238t-55.5 -291t55.5 -290t152 -236t233 -156.5t291.5 -57.5zM874 317h-63q0 102 13 191.5t45 187.5t94.5 191t154.5 174h-123h-311v55h518v-43q-87 -75 -149 -154.5t-96.5 -149.5t-54 -152.5t-24.5 -148t-4 -151.5z
" />
    <glyph glyph-name="uni2467" unicode="&#x2467;" horiz-adv-x="1830" 
d="M920 -84q-167 0 -315.5 62.5t-253 169.5t-165.5 254t-61 311q0 162 61 310t165.5 257t253 173.5t315.5 64.5q166 0 313 -64.5t250.5 -173.5t163 -257t59.5 -310q0 -164 -59.5 -311t-163 -254t-250 -169.5t-313.5 -62.5zM918 -27q207 0 374 98.5t260 267.5t93 374t-93 376
t-260 271t-374 100q-155 0 -292 -59t-233 -159t-151.5 -238t-55.5 -291t55.5 -290t152 -236t233 -156.5t291.5 -57.5zM915 305q-118 0 -188 61t-70 164q0 71 41 126.5t111 80.5q-62 26 -94.5 74.5t-32.5 112.5q0 91 65 147.5t168 56.5q104 0 170 -56.5t66 -147.5
q0 -62 -32 -111t-93 -76q70 -25 110 -80.5t40 -126.5q0 -103 -71 -164t-190 -61zM915 764q79 0 127 44t48 116q0 68 -48 108.5t-127 40.5q-78 0 -125 -40.5t-47 -108.5q0 -72 47 -116t125 -44zM915 360q92 0 145.5 45.5t53.5 122.5q0 80 -54.5 129.5t-144.5 49.5
q-89 0 -142.5 -49.5t-53.5 -129.5q0 -77 53 -122.5t143 -45.5z" />
    <glyph glyph-name="uni2468" unicode="&#x2468;" horiz-adv-x="1830" 
d="M920 -84q-167 0 -315.5 62.5t-253 169.5t-165.5 254t-61 311q0 162 61 310t165.5 257t253 173.5t315.5 64.5q166 0 313 -64.5t250.5 -173.5t163 -257t59.5 -310q0 -164 -59.5 -311t-163 -254t-250 -169.5t-313.5 -62.5zM918 -27q207 0 374 98.5t260 267.5t93 374t-93 376
t-260 271t-374 100q-155 0 -292 -59t-233 -159t-151.5 -238t-55.5 -291t55.5 -290t152 -236t233 -156.5t291.5 -57.5zM895 305q-114 0 -184 51v64q83 -60 184 -60q115 0 182 99q66 94 72 270q-32 -65 -90 -99t-131 -34q-119 0 -190.5 71t-71.5 191q0 121 72.5 195.5
t189.5 74.5q107 0 180 -65q100 -89 100 -313q0 -204 -84.5 -324.5t-228.5 -120.5zM928 651q91 0 149 59t58 152t-58 152t-149 59q-92 0 -147.5 -57t-55.5 -154q0 -98 54.5 -154.5t148.5 -56.5z" />
    <glyph glyph-name="uni24EA" unicode="&#x24ea;" horiz-adv-x="1830" 
d="M920 -84q-167 0 -315.5 62.5t-253 169.5t-165.5 254t-61 311q0 162 61 310t165.5 257t253 173.5t315.5 64.5q166 0 313 -64.5t250.5 -173.5t163 -257t59.5 -310q0 -164 -59.5 -311t-163 -254t-250 -169.5t-313.5 -62.5zM918 -27q207 0 374 98.5t260 267.5t93 374t-93 376
t-260 271t-374 100q-155 0 -292 -59t-233 -159t-151.5 -238t-55.5 -291t55.5 -290t152 -236t233 -156.5t291.5 -57.5zM918 305q-143 0 -229.5 115t-86.5 305q0 181 88 292t228 111t224.5 -110t84.5 -293q0 -192 -84 -306t-225 -114zM918 360q112 0 179.5 99.5t67.5 265.5
q0 160 -66.5 254t-180.5 94q-117 0 -186.5 -94t-69.5 -254q0 -165 70 -265t186 -100z" />
    <glyph glyph-name="uni24FF" unicode="&#x24ff;" horiz-adv-x="1830" 
d="M920 -84q167 0 313.5 62.5t250 169.5t163 254t59.5 311q0 162 -59.5 310t-163 257t-250.5 173.5t-313 64.5q-167 0 -315.5 -64.5t-253 -173.5t-165.5 -257t-61 -310q0 -164 61 -311t165.5 -254t253 -169.5t315.5 -62.5zM918 305q-143 0 -229.5 115t-86.5 305
q0 181 88 292t228 111t224.5 -110t84.5 -293q0 -192 -84 -306t-225 -114zM918 360q112 0 179.5 99.5t67.5 265.5q0 160 -66.5 254t-180.5 94q-117 0 -186.5 -94t-69.5 -254q0 -165 70 -265t186 -100z" />
    <glyph glyph-name="lozenge" unicode="&#x25ca;" horiz-adv-x="1183" 
d="M621 0h-58l-469 719l469 715h58l469 -723zM782 350l234 361l-260 407l-164 256l-191 -295l-233 -360l260 -408l164 -256z" />
    <glyph glyph-name="uni274C" unicode="&#x274c;" horiz-adv-x="1566" 
d="M784 676l-673 -701l-41 41l673 701l-673 700l41 41l673 -700l674 700l39 -41l-674 -700l674 -701l-39 -41z" />
    <glyph glyph-name="uni2776" unicode="&#x2776;" horiz-adv-x="1830" 
d="M920 -84q167 0 313.5 62.5t250 169.5t163 254t59.5 311q0 162 -59.5 310t-163 257t-250.5 173.5t-313 64.5q-167 0 -315.5 -64.5t-253 -173.5t-165.5 -257t-61 -310q0 -164 61 -311t165.5 -254t253 -169.5t315.5 -62.5zM981 317h-57v457v217q-38 -52 -95 -91t-120 -56v59
q159 59 239 213h33v-799z" />
    <glyph glyph-name="uni2777" unicode="&#x2777;" horiz-adv-x="1830" 
d="M920 -84q167 0 313.5 62.5t250 169.5t163 254t59.5 311q0 162 -59.5 310t-163 257t-250.5 173.5t-313 64.5q-167 0 -315.5 -64.5t-253 -173.5t-165.5 -257t-61 -310q0 -164 61 -311t165.5 -254t253 -169.5t315.5 -62.5zM1165 317h-489v54q71 50 121 88.5t109.5 93.5
t96.5 103.5t62 108t25 118.5q0 89 -49 139.5t-134 50.5q-35 0 -66.5 -10.5t-60 -34.5t-42 -69.5t-5.5 -108.5l-59 16q-10 117 55 189.5t178 72.5q108 0 175 -66.5t67 -174.5q0 -104 -64 -207q-100 -155 -321 -307h317h84v-56z" />
    <glyph glyph-name="uni2778" unicode="&#x2778;" horiz-adv-x="1830" 
d="M920 -84q167 0 313.5 62.5t250 169.5t163 254t59.5 311q0 162 -59.5 310t-163 257t-250.5 173.5t-313 64.5q-167 0 -315.5 -64.5t-253 -173.5t-165.5 -257t-61 -310q0 -164 61 -311t165.5 -254t253 -169.5t315.5 -62.5zM907 305q-122 0 -191.5 67t-66.5 181l58 18
q-7 -95 48 -153t152 -58q85 0 138 47.5t53 122.5q0 78 -55.5 127.5t-145.5 49.5h-80v57h80q77 0 126.5 44.5t49.5 113.5q0 67 -47.5 109t-124.5 42q-82 0 -129 -51.5t-41 -136.5l-57 20q-4 96 61 159.5t166 63.5t166.5 -57.5t65.5 -148.5q0 -62 -34 -111t-95 -74
q72 -25 112.5 -80t40.5 -127q0 -102 -68 -163.5t-182 -61.5z" />
    <glyph glyph-name="uni2779" unicode="&#x2779;" horiz-adv-x="1830" 
d="M920 -84q167 0 313.5 62.5t250 169.5t163 254t59.5 311q0 162 -59.5 310t-163 257t-250.5 173.5t-313 64.5q-167 0 -315.5 -64.5t-253 -173.5t-165.5 -257t-61 -310q0 -164 61 -311t165.5 -254t253 -169.5t315.5 -62.5zM1030 317h-57v232h-367v47l352 520h72v-514h133
v-53h-133v-232zM870 602h103v156v280l-297 -436h194z" />
    <glyph glyph-name="uni277A" unicode="&#x277a;" horiz-adv-x="1830" 
d="M920 -84q167 0 313.5 62.5t250 169.5t163 254t59.5 311q0 162 -59.5 310t-163 257t-250.5 173.5t-313 64.5q-167 0 -315.5 -64.5t-253 -173.5t-165.5 -257t-61 -310q0 -164 61 -311t165.5 -254t253 -169.5t315.5 -62.5zM915 305q-108 0 -177.5 54t-82.5 149l60 29
q5 -85 56.5 -131t143.5 -46q90 0 144.5 57t54.5 152q0 97 -52.5 151t-146.5 54q-119 0 -178 -110l-65 12l59 440h418v-55h-371l-24 -184l-17 -129q72 81 181 81q118 0 188 -70.5t70 -189.5q0 -117 -73.5 -190.5t-187.5 -73.5z" />
    <glyph glyph-name="uni277B" unicode="&#x277b;" horiz-adv-x="1830" 
d="M920 -84q167 0 313.5 62.5t250 169.5t163 254t59.5 311q0 162 -59.5 310t-163 257t-250.5 173.5t-313 64.5q-167 0 -315.5 -64.5t-253 -173.5t-165.5 -257t-61 -310q0 -164 61 -311t165.5 -254t253 -169.5t315.5 -62.5zM899 305q-133 0 -203.5 100t-70.5 289
q0 199 91.5 316.5t246.5 117.5q78 0 153 -28v-64q-82 35 -149 35q-133 0 -208.5 -97.5t-76.5 -283.5q26 62 83.5 101.5t133.5 39.5q116 0 186 -73.5t70 -188.5q0 -114 -72 -189t-184 -75zM899 360q88 0 142.5 57.5t54.5 151.5q0 92 -54.5 149.5t-142.5 57.5
q-83 0 -140 -59.5t-57 -147.5q0 -89 57 -149t140 -60z" />
    <glyph glyph-name="uni277C" unicode="&#x277c;" horiz-adv-x="1830" 
d="M920 -84q167 0 313.5 62.5t250 169.5t163 254t59.5 311q0 162 -59.5 310t-163 257t-250.5 173.5t-313 64.5q-167 0 -315.5 -64.5t-253 -173.5t-165.5 -257t-61 -310q0 -164 61 -311t165.5 -254t253 -169.5t315.5 -62.5zM874 317h-63q0 102 13 191.5t45 187.5t94.5 191
t154.5 174h-123h-311v55h518v-43q-87 -75 -149 -154.5t-96.5 -149.5t-54 -152.5t-24.5 -148t-4 -151.5z" />
    <glyph glyph-name="uni277D" unicode="&#x277d;" horiz-adv-x="1830" 
d="M920 -84q167 0 313.5 62.5t250 169.5t163 254t59.5 311q0 162 -59.5 310t-163 257t-250.5 173.5t-313 64.5q-167 0 -315.5 -64.5t-253 -173.5t-165.5 -257t-61 -310q0 -164 61 -311t165.5 -254t253 -169.5t315.5 -62.5zM915 305q-118 0 -188 61t-70 164q0 71 41 126.5
t111 80.5q-62 26 -94.5 74.5t-32.5 112.5q0 91 65 147.5t168 56.5q104 0 170 -56.5t66 -147.5q0 -62 -32 -111t-93 -76q70 -25 110 -80.5t40 -126.5q0 -103 -71 -164t-190 -61zM915 764q79 0 127 44t48 116q0 68 -48 108.5t-127 40.5q-78 0 -125 -40.5t-47 -108.5
q0 -72 47 -116t125 -44zM915 360q92 0 145.5 45.5t53.5 122.5q0 80 -54.5 129.5t-144.5 49.5q-89 0 -142.5 -49.5t-53.5 -129.5q0 -77 53 -122.5t143 -45.5z" />
    <glyph glyph-name="uni277E" unicode="&#x277e;" horiz-adv-x="1830" 
d="M920 -84q167 0 313.5 62.5t250 169.5t163 254t59.5 311q0 162 -59.5 310t-163 257t-250.5 173.5t-313 64.5q-167 0 -315.5 -64.5t-253 -173.5t-165.5 -257t-61 -310q0 -164 61 -311t165.5 -254t253 -169.5t315.5 -62.5zM895 305q-114 0 -184 51v64q83 -60 184 -60
q115 0 182 99q66 94 72 270q-32 -65 -90 -99t-131 -34q-119 0 -190.5 71t-71.5 191q0 121 72.5 195.5t189.5 74.5q107 0 180 -65q100 -89 100 -313q0 -204 -84.5 -324.5t-228.5 -120.5zM928 651q91 0 149 59t58 152t-58 152t-149 59q-92 0 -147.5 -57t-55.5 -154
q0 -98 54.5 -154.5t148.5 -56.5z" />
    <glyph glyph-name="uni300A" unicode="&#x300a;" horiz-adv-x="960" 
d="M518 1567l57 -25l-436 -921l432 -924l-55 -25l-440 946zM842 1567l57 -25l-436 -921l432 -924l-55 -25l-441 946z" />
    <glyph glyph-name="uni300B" unicode="&#x300b;" horiz-adv-x="958" 
d="M66 1542l55 25l440 -946l-442 -949l-58 25l437 921zM389 1542l55 25l441 -946l-443 -949l-57 25l436 921z" />
    <glyph glyph-name="uni300C" unicode="&#x300c;" horiz-adv-x="653" 
d="M246 653h-62v893h432v-57h-370v-836z" />
    <glyph glyph-name="uni300D" unicode="&#x300d;" horiz-adv-x="417" 
d="M178 586h62v-893h-433v57h371v836z" />
    <glyph glyph-name="uni300E" unicode="&#x300e;" horiz-adv-x="825" 
d="M422 512h-238v1034h559v-252h-321v-782zM246 1489v-920h114v783h322v137h-436z" />
    <glyph glyph-name="uni300F" unicode="&#x300f;" horiz-adv-x="825" 
d="M397 727h238v-1034h-559v252h321v782zM573 -250v920h-114v-783h-322v-137h436z" />
    <glyph glyph-name="uni3010" unicode="&#x3010;" horiz-adv-x="702" 
d="M666 -307h-430v1853h430q-193 -225 -283 -449.5t-90 -482.5q0 -254 86 -469.5t287 -451.5z" />
    <glyph glyph-name="uni3011" unicode="&#x3011;" horiz-adv-x="700" 
d="M35 1548h430v-1853h-430q193 225 283 449.5t90 482.5q0 254 -86 469.5t-287 451.5z" />
    <glyph glyph-name="uni3014" unicode="&#x3014;" horiz-adv-x="548" 
d="M494 1524l-267 -293v-1225l265 -289l-43 -45l-283 318v1257l283 320z" />
    <glyph glyph-name="uni3015" unicode="&#x3015;" horiz-adv-x="550" 
d="M59 1522l43 45l283 -318v-1257l-283 -320l-45 43l267 293v1225z" />
    <glyph glyph-name="plus.alt" unicode="&#xe000;" horiz-adv-x="1585" 
d="M821 0h-57v688h-688v57h688v689h57v-689h688v-57h-688v-688z" />
    <glyph glyph-name="minus.alt" unicode="&#xe001;" horiz-adv-x="1789" 
d="M1612 688h-1434v57h1434v-57z" />
    <glyph glyph-name="multiply.alt" unicode="&#xe002;" horiz-adv-x="1583" 
d="M793 676l-674 -701l-41 41l674 701l-674 700l41 41l674 -700l673 700l39 -41l-674 -700l674 -701l-39 -41z" />
    <glyph glyph-name="uniE003" unicode="&#xe003;" horiz-adv-x="1925" 
d="M1784 1360l-1002 -1391l-618 881l47 41l573 -823l951 1329z" />
    <glyph glyph-name="uniE004" unicode="&#xe004;" horiz-adv-x="1966" 
d="M1776 1296h-1586v62h1586v-62zM1776 698h-1586v58h1586v-58zM1776 96h-1586v62h1586v-62z" />
    <glyph glyph-name="uniE005" unicode="&#xe005;" horiz-adv-x="1925" 
d="M1679 0h-1433v1434h1433v-1434zM309 1376v-1319h1307v1319h-1307z" />
    <glyph glyph-name="uniE006" unicode="&#xe006;" horiz-adv-x="1925" 
d="M1700 1434l-733 -1106l-369 598l51 35l166 -271l154 -250l166 250l516 778zM1679 0h-1433v1434h944v-58h-881v-1319h1307v607h63v-664z" />
    <glyph glyph-name="uniE007" unicode="&#xe007;" horiz-adv-x="1925" 
d="M1679 0h-1433v1434h1433v-1434zM309 1376v-1319h1307v1319h-1307zM1014 631h-103v172h103v-172z" />
    <glyph glyph-name="uniE008" unicode="&#xe008;" horiz-adv-x="1560" 
d="M1262 522l-490 -463l-485 463l45 45l239 -239q28 -28 85 -79t87 -81v1233h62v-1233q26 26 83.5 80t84.5 80l248 239zM1497 0h-1434v59h1434v-59z" />
    <glyph glyph-name="uniE009" unicode="&#xe009;" horiz-adv-x="1560" 
d="M1262 786l-490 -462l-485 462l45 45l239 -239q28 -28 85 -79t87 -81v1233h62v-1233q26 26 83.5 80t84.5 80l248 239zM1497 0h-1434v59h1434v-59z" />
    <glyph glyph-name="uniF8FF" unicode="&#xf8ff;" horiz-adv-x="1568" 
d="M1411 41l-57 -8q-71 116 -94 145q34 -120 43 -186l-25 -19q-72 11 -110.5 70t-61.5 152q-6 24 -18 78t-19 79q-5 -123 -47 -186q-39 32 -68 68t-51.5 83t-36 81t-36 100t-35.5 102q-41 111 -67 169.5t-60 100.5q-37 46 -78.5 73t-91.5 51t-84 50q-61 45 -117 125l104 86
l-53 56q-40 -8 -63 -8q-58 0 -95.5 19.5t-37.5 53.5t28 54t78 20q1 0 61 -10q-1 2 -4.5 12t-5.5 20.5t-2 28.5q0 26 19.5 44t50.5 18q41 0 60.5 -31t19.5 -76q0 -46 -35 -90l49 -51l78 65q213 -79 399 -510q152 -93 266.5 -261.5t165.5 -370.5q25 -105 31 -197z" />
    <glyph glyph-name="G.ss03" horiz-adv-x="1574" 
d="M811 -25q-163 0 -292 57.5t-212 160t-126.5 240t-43.5 300.5q0 212 84.5 376.5t241 256.5t360.5 92q122 0 225 -32.5t169 -80t116 -109t74.5 -111t36.5 -95.5l-58 -22q-13 48 -37.5 96.5t-71 103.5t-106 96.5t-150.5 69t-198 27.5q-285 0 -452.5 -182.5t-167.5 -483.5
q0 -151 39 -278.5t114 -222t191.5 -148t263.5 -53.5q256 0 407 156.5t154 416.5h-557v58h619q10 -207 -65 -364t-220 -241t-338 -84z" />
    <glyph glyph-name="Gbreve.ss03" horiz-adv-x="1574" 
d="M817 1599q-122 0 -191 66.5t-77 173.5h55q11 -93 69 -137.5t144 -44.5q84 0 142 44.5t69 137.5h55q-8 -107 -77 -173.5t-189 -66.5zM811 -25q-163 0 -292 57.5t-212 160t-126.5 240t-43.5 300.5q0 212 84.5 376.5t241 256.5t360.5 92q122 0 225 -32.5t169 -80t116 -109
t74.5 -111t36.5 -95.5l-58 -22q-13 48 -37.5 96.5t-71 103.5t-106 96.5t-150.5 69t-198 27.5q-285 0 -452.5 -182.5t-167.5 -483.5q0 -151 39 -278.5t114 -222t191.5 -148t263.5 -53.5q256 0 407 156.5t154 416.5h-557v58h619q10 -207 -65 -364t-220 -241t-338 -84z" />
    <glyph glyph-name="Gcircumflex.ss03" horiz-adv-x="1574" 
d="M602 1610h-65l231 233h104l232 -233h-66l-217 188zM811 -25q-163 0 -292 57.5t-212 160t-126.5 240t-43.5 300.5q0 212 84.5 376.5t241 256.5t360.5 92q122 0 225 -32.5t169 -80t116 -109t74.5 -111t36.5 -95.5l-58 -22q-13 48 -37.5 96.5t-71 103.5t-106 96.5t-150.5 69
t-198 27.5q-285 0 -452.5 -182.5t-167.5 -483.5q0 -151 39 -278.5t114 -222t191.5 -148t263.5 -53.5q256 0 407 156.5t154 416.5h-557v58h619q10 -207 -65 -364t-220 -241t-338 -84z" />
    <glyph glyph-name="uni0122.ss03" horiz-adv-x="1574" 
d="M811 -25q-163 0 -292 57.5t-212 160t-126.5 240t-43.5 300.5q0 212 84.5 376.5t241 256.5t360.5 92q122 0 225 -32.5t169 -80t116 -109t74.5 -111t36.5 -95.5l-58 -22q-13 48 -37.5 96.5t-71 103.5t-106 96.5t-150.5 69t-198 27.5q-285 0 -452.5 -182.5t-167.5 -483.5
q0 -151 39 -278.5t114 -222t191.5 -148t263.5 -53.5q256 0 407 156.5t154 416.5h-557v58h619q10 -207 -65 -364t-220 -241t-338 -84zM815 -551h-47l92 186h-45v146h88v-146z" />
    <glyph glyph-name="Gdotaccent.ss03" horiz-adv-x="1574" 
d="M850 1610h-62v180h62v-180zM811 -25q-163 0 -292 57.5t-212 160t-126.5 240t-43.5 300.5q0 212 84.5 376.5t241 256.5t360.5 92q122 0 225 -32.5t169 -80t116 -109t74.5 -111t36.5 -95.5l-58 -22q-13 48 -37.5 96.5t-71 103.5t-106 96.5t-150.5 69t-198 27.5
q-285 0 -452.5 -182.5t-167.5 -483.5q0 -151 39 -278.5t114 -222t191.5 -148t263.5 -53.5q256 0 407 156.5t154 416.5h-557v58h619q10 -207 -65 -364t-220 -241t-338 -84z" />
    <glyph glyph-name="a.ss01" horiz-adv-x="1163" 
d="M543 -25q-62 0 -120 18t-112.5 59t-94.5 101t-64.5 150t-24.5 199t24 199t64.5 149.5t94.5 100.5t112.5 59t120.5 18q137 0 229 -71t127 -169v216h59v-1004h-59v219q-40 -102 -134.5 -173t-221.5 -71zM543 33q74 0 138 28t114 83.5t79 147.5t29 210t-29 209.5t-79 147
t-114 84t-138 28.5q-71 0 -133 -28.5t-112 -84.5t-79 -147.5t-29 -208.5t29 -209t79 -147.5t112 -84t133 -28.5z" />
    <glyph glyph-name="aacute.ss01" horiz-adv-x="1163" 
d="M590 1159h-51l161 234h93zM543 -25q-62 0 -120 18t-112.5 59t-94.5 101t-64.5 150t-24.5 199t24 199t64.5 149.5t94.5 100.5t112.5 59t120.5 18q137 0 229 -71t127 -169v216h59v-1004h-59v219q-40 -102 -134.5 -173t-221.5 -71zM543 33q74 0 138 28t114 83.5t79 147.5
t29 210t-29 209.5t-79 147t-114 84t-138 28.5q-71 0 -133 -28.5t-112 -84.5t-79 -147.5t-29 -208.5t29 -209t79 -147.5t112 -84t133 -28.5z" />
    <glyph glyph-name="abreve.ss01" horiz-adv-x="1163" 
d="M563 1153q-110 0 -173 66.5t-71 173.5h52q10 -93 62.5 -138t129.5 -45t130 45t63 138h51q-8 -107 -71 -173.5t-173 -66.5zM543 -25q-62 0 -120 18t-112.5 59t-94.5 101t-64.5 150t-24.5 199t24 199t64.5 149.5t94.5 100.5t112.5 59t120.5 18q137 0 229 -71t127 -169v216
h59v-1004h-59v219q-40 -102 -134.5 -173t-221.5 -71zM543 33q74 0 138 28t114 83.5t79 147.5t29 210t-29 209.5t-79 147t-114 84t-138 28.5q-71 0 -133 -28.5t-112 -84.5t-79 -147.5t-29 -208.5t29 -209t79 -147.5t112 -84t133 -28.5z" />
    <glyph glyph-name="acircumflex.ss01" horiz-adv-x="1163" 
d="M365 1159h-60l209 234h96l209 -234h-59l-197 189zM543 -25q-62 0 -120 18t-112.5 59t-94.5 101t-64.5 150t-24.5 199t24 199t64.5 149.5t94.5 100.5t112.5 59t120.5 18q137 0 229 -71t127 -169v216h59v-1004h-59v219q-40 -102 -134.5 -173t-221.5 -71zM543 33
q74 0 138 28t114 83.5t79 147.5t29 210t-29 209.5t-79 147t-114 84t-138 28.5q-71 0 -133 -28.5t-112 -84.5t-79 -147.5t-29 -208.5t29 -209t79 -147.5t112 -84t133 -28.5z" />
    <glyph glyph-name="adieresis.ss01" horiz-adv-x="1163" 
d="M434 1239h-82v143h82v-143zM774 1239h-82v143h82v-143zM543 -25q-62 0 -120 18t-112.5 59t-94.5 101t-64.5 150t-24.5 199t24 199t64.5 149.5t94.5 100.5t112.5 59t120.5 18q137 0 229 -71t127 -169v216h59v-1004h-59v219q-40 -102 -134.5 -173t-221.5 -71zM543 33
q74 0 138 28t114 83.5t79 147.5t29 210t-29 209.5t-79 147t-114 84t-138 28.5q-71 0 -133 -28.5t-112 -84.5t-79 -147.5t-29 -208.5t29 -209t79 -147.5t112 -84t133 -28.5z" />
    <glyph glyph-name="uni0227.ss01" horiz-adv-x="1163" 
d="M594 1253h-62v181h62v-181zM543 -25q-62 0 -120 18t-112.5 59t-94.5 101t-64.5 150t-24.5 199t24 199t64.5 149.5t94.5 100.5t112.5 59t120.5 18q137 0 229 -71t127 -169v216h59v-1004h-59v219q-40 -102 -134.5 -173t-221.5 -71zM543 33q74 0 138 28t114 83.5t79 147.5
t29 210t-29 209.5t-79 147t-114 84t-138 28.5q-71 0 -133 -28.5t-112 -84.5t-79 -147.5t-29 -208.5t29 -209t79 -147.5t112 -84t133 -28.5z" />
    <glyph glyph-name="agrave.ss01" horiz-adv-x="1163" 
d="M586 1159h-49l-205 234h92zM543 -25q-62 0 -120 18t-112.5 59t-94.5 101t-64.5 150t-24.5 199t24 199t64.5 149.5t94.5 100.5t112.5 59t120.5 18q137 0 229 -71t127 -169v216h59v-1004h-59v219q-40 -102 -134.5 -173t-221.5 -71zM543 33q74 0 138 28t114 83.5t79 147.5
t29 210t-29 209.5t-79 147t-114 84t-138 28.5q-71 0 -133 -28.5t-112 -84.5t-79 -147.5t-29 -208.5t29 -209t79 -147.5t112 -84t133 -28.5z" />
    <glyph glyph-name="amacron.ss01" horiz-adv-x="1163" 
d="M864 1227h-602v55h602v-55zM543 -25q-62 0 -120 18t-112.5 59t-94.5 101t-64.5 150t-24.5 199t24 199t64.5 149.5t94.5 100.5t112.5 59t120.5 18q137 0 229 -71t127 -169v216h59v-1004h-59v219q-40 -102 -134.5 -173t-221.5 -71zM543 33q74 0 138 28t114 83.5t79 147.5
t29 210t-29 209.5t-79 147t-114 84t-138 28.5q-71 0 -133 -28.5t-112 -84.5t-79 -147.5t-29 -208.5t29 -209t79 -147.5t112 -84t133 -28.5z" />
    <glyph glyph-name="aogonek.ss01" horiz-adv-x="1163" 
d="M872 -332q31 0 89 21v-56q-16 -9 -45 -15.5t-46 -6.5q-74 0 -116.5 43t-42.5 108q0 66 47 135.5t141 118.5v203q-40 -102 -134.5 -173t-221.5 -71q-62 0 -120 18t-112.5 59t-94.5 101t-64.5 150t-24.5 199t24 199t64.5 149.5t94.5 100.5t112.5 59t120.5 18q137 0 229 -71
t127 -169v216h59v-1004q-99 -52 -144.5 -107.5t-45.5 -121.5q0 -45 28 -74t76 -29zM543 33q74 0 138 28t114 83.5t79 147.5t29 210t-29 209.5t-79 147t-114 84t-138 28.5q-71 0 -133 -28.5t-112 -84.5t-79 -147.5t-29 -208.5t29 -209t79 -147.5t112 -84t133 -28.5z" />
    <glyph glyph-name="aring.ss01" horiz-adv-x="1163" 
d="M565 1112q-83 0 -135.5 55.5t-52.5 132.5t52.5 132t135.5 55t135 -55t52 -132t-52.5 -132.5t-134.5 -55.5zM565 1161q59 0 94 41.5t35 97.5t-35 97t-94 41t-95 -41.5t-36 -96.5q0 -56 36 -97.5t95 -41.5zM543 -25q-62 0 -120 18t-112.5 59t-94.5 101t-64.5 150t-24.5 199
t24 199t64.5 149.5t94.5 100.5t112.5 59t120.5 18q137 0 229 -71t127 -169v216h59v-1004h-59v219q-40 -102 -134.5 -173t-221.5 -71zM543 33q74 0 138 28t114 83.5t79 147.5t29 210t-29 209.5t-79 147t-114 84t-138 28.5q-71 0 -133 -28.5t-112 -84.5t-79 -147.5t-29 -208.5
t29 -209t79 -147.5t112 -84t133 -28.5z" />
    <glyph glyph-name="atilde.ss01" horiz-adv-x="1163" 
d="M717 1178q-67 0 -137 53l-60 45q-4 3 -13 10t-12 9t-10 7t-10 6.5t-9 5t-9.5 4.5t-9.5 3t-11.5 2.5t-12 1t-13.5 0.5q-92 0 -88 -129h-58q-4 90 37.5 136t112.5 46q63 0 133 -53l59 -45q29 -22 40.5 -29.5t30 -13.5t42.5 -6q94 0 90 129h57q1 -91 -39 -136.5t-110 -45.5z
M543 -25q-62 0 -120 18t-112.5 59t-94.5 101t-64.5 150t-24.5 199t24 199t64.5 149.5t94.5 100.5t112.5 59t120.5 18q137 0 229 -71t127 -169v216h59v-1004h-59v219q-40 -102 -134.5 -173t-221.5 -71zM543 33q74 0 138 28t114 83.5t79 147.5t29 210t-29 209.5t-79 147
t-114 84t-138 28.5q-71 0 -133 -28.5t-112 -84.5t-79 -147.5t-29 -208.5t29 -209t79 -147.5t112 -84t133 -28.5z" />
    <glyph glyph-name="g.ss02" horiz-adv-x="1163" 
d="M522 -424q-96 0 -173 27.5t-124.5 74t-75 98.5t-36.5 109l61 21q5 -49 29 -96t66 -87t108 -65t145 -25q99 0 174 31.5t118 85.5t64 119t21 139v252q-40 -102 -134.5 -173t-221.5 -71q-85 0 -158 29.5t-131.5 89t-92.5 159t-34 228.5t33.5 228.5t92 159t132 89t158.5 29.5
q137 0 229 -71t129 -169v216h57v-1002q0 -65 -13.5 -124t-46.5 -115t-81.5 -97t-124 -65.5t-170.5 -24.5zM543 74q74 0 138 27.5t114 81.5t79 141t29 198q0 110 -29 197.5t-79 141.5t-114 82t-138 28q-160 0 -256.5 -115t-96.5 -334q0 -220 96.5 -334t256.5 -114z" />
    <glyph glyph-name="gbreve.ss02" horiz-adv-x="1163" 
d="M563 1153q-110 0 -173 66.5t-71 173.5h52q10 -93 62.5 -138t129.5 -45t130 45t63 138h51q-8 -107 -71 -173.5t-173 -66.5zM522 -424q-96 0 -173 27.5t-124.5 74t-75 98.5t-36.5 109l61 21q5 -49 29 -96t66 -87t108 -65t145 -25q99 0 174 31.5t118 85.5t64 119t21 139v252
q-40 -102 -134.5 -173t-221.5 -71q-85 0 -158 29.5t-131.5 89t-92.5 159t-34 228.5t33.5 228.5t92 159t132 89t158.5 29.5q137 0 229 -71t129 -169v216h57v-1002q0 -65 -13.5 -124t-46.5 -115t-81.5 -97t-124 -65.5t-170.5 -24.5zM543 74q74 0 138 27.5t114 81.5t79 141
t29 198q0 110 -29 197.5t-79 141.5t-114 82t-138 28q-160 0 -256.5 -115t-96.5 -334q0 -220 96.5 -334t256.5 -114z" />
    <glyph glyph-name="gcircumflex.ss02" horiz-adv-x="1163" 
d="M365 1159h-60l209 234h96l209 -234h-59l-197 189zM522 -424q-96 0 -173 27.5t-124.5 74t-75 98.5t-36.5 109l61 21q5 -49 29 -96t66 -87t108 -65t145 -25q99 0 174 31.5t118 85.5t64 119t21 139v252q-40 -102 -134.5 -173t-221.5 -71q-85 0 -158 29.5t-131.5 89
t-92.5 159t-34 228.5t33.5 228.5t92 159t132 89t158.5 29.5q137 0 229 -71t129 -169v216h57v-1002q0 -65 -13.5 -124t-46.5 -115t-81.5 -97t-124 -65.5t-170.5 -24.5zM543 74q74 0 138 27.5t114 81.5t79 141t29 198q0 110 -29 197.5t-79 141.5t-114 82t-138 28
q-160 0 -256.5 -115t-96.5 -334q0 -220 96.5 -334t256.5 -114z" />
    <glyph glyph-name="uni0123.ss02" horiz-adv-x="1163" 
d="M604 1583h45l-92 -186h45v-146h-88v146zM522 -424q-96 0 -173 27.5t-124.5 74t-75 98.5t-36.5 109l61 21q5 -49 29 -96t66 -87t108 -65t145 -25q99 0 174 31.5t118 85.5t64 119t21 139v252q-40 -102 -134.5 -173t-221.5 -71q-85 0 -158 29.5t-131.5 89t-92.5 159
t-34 228.5t33.5 228.5t92 159t132 89t158.5 29.5q137 0 229 -71t129 -169v216h57v-1002q0 -65 -13.5 -124t-46.5 -115t-81.5 -97t-124 -65.5t-170.5 -24.5zM543 74q74 0 138 27.5t114 81.5t79 141t29 198q0 110 -29 197.5t-79 141.5t-114 82t-138 28q-160 0 -256.5 -115
t-96.5 -334q0 -220 96.5 -334t256.5 -114z" />
    <glyph glyph-name="gdotaccent.ss02" horiz-adv-x="1163" 
d="M594 1253h-62v181h62v-181zM522 -424q-96 0 -173 27.5t-124.5 74t-75 98.5t-36.5 109l61 21q5 -49 29 -96t66 -87t108 -65t145 -25q99 0 174 31.5t118 85.5t64 119t21 139v252q-40 -102 -134.5 -173t-221.5 -71q-85 0 -158 29.5t-131.5 89t-92.5 159t-34 228.5
t33.5 228.5t92 159t132 89t158.5 29.5q137 0 229 -71t129 -169v216h57v-1002q0 -65 -13.5 -124t-46.5 -115t-81.5 -97t-124 -65.5t-170.5 -24.5zM543 74q74 0 138 27.5t114 81.5t79 141t29 198q0 110 -29 197.5t-79 141.5t-114 82t-138 28q-160 0 -256.5 -115t-96.5 -334
q0 -220 96.5 -334t256.5 -114z" />
    <glyph glyph-name="i.loclTRK" horiz-adv-x="487" 
d="M266 1253h-61v181h61v-181zM264 0h-59v1004h59v-1004z" />
    <glyph glyph-name="zero.osf" horiz-adv-x="1251" 
d="M629 -25q-218 0 -356 143.5t-138 375.5t137.5 374t356.5 142t353 -141.5t134 -374.5t-135 -376t-352 -143zM629 33q135 0 233 63t145.5 166t47.5 232q0 202 -111.5 330t-314.5 128t-317.5 -129t-114.5 -329q0 -129 49 -232t148.5 -166t234.5 -63z" />
    <glyph glyph-name="one.osf" horiz-adv-x="692" 
d="M471 0h-61v506v348q-118 -196 -318 -276v65q100 42 194.5 141t145.5 220h39v-1004z" />
    <glyph glyph-name="two.osf" horiz-adv-x="999" 
d="M872 0h-725v66q63 34 96.5 52.5t92 51.5t91 54.5t81.5 54.5t77 59t64 60.5t56 66.5t39.5 68.5t27.5 76t8 80.5q0 131 -81 206t-210 75q-37 0 -72.5 -6t-74.5 -23.5t-68.5 -45t-50.5 -75t-26 -108.5l-60 12q15 142 112 222.5t240 80.5q160 0 258.5 -95t98.5 -237
q0 -203 -172 -358q-154 -143 -434 -281h223h409v-57z" />
    <glyph glyph-name="three.osf" horiz-adv-x="1091" 
d="M535 -424q-201 0 -315 109.5t-111 306.5l59 16q-9 -162 95.5 -269.5t271.5 -107.5q168 0 267 96t99 248q0 146 -103 239t-263 93h-68v58h68q141 0 233 86t92 223q0 135 -91.5 217t-233.5 82q-138 0 -228.5 -75t-97.5 -200l-59 17q14 143 117.5 228t267.5 85
q175 0 280 -97.5t105 -258.5q0 -129 -68 -212t-170 -122q56 -17 104 -46.5t89 -73t64.5 -107t23.5 -138.5q0 -80 -26.5 -150.5t-77.5 -126t-134.5 -88t-189.5 -32.5z" />
    <glyph glyph-name="four.osf" horiz-adv-x="1087" 
d="M801 -399h-62v399h-659v68l641 936h80v-947h209v-57h-209v-399zM147 57h299h293v566v305z" />
    <glyph glyph-name="five.osf" horiz-adv-x="1083" 
d="M551 -424q-97 0 -174.5 25.5t-128 70t-81.5 98t-44 115.5l61 23q15 -90 72.5 -154.5t130.5 -92.5t152 -28q118 0 204 53.5t127 138t41 187.5q0 170 -98.5 273.5t-267.5 103.5q-117 0 -204 -70t-130 -169l-76 12l98 842h685v-58h-635l-50 -430l-30 -274q25 35 44.5 59
t53 54t68.5 48t86 30.5t110 12.5q185 0 297.5 -123.5t112.5 -306.5q0 -193 -121.5 -316.5t-302.5 -123.5z" />
    <glyph glyph-name="six.osf" horiz-adv-x="1208" 
d="M633 -25q-492 0 -492 695q0 78 10 154.5t33.5 155.5t59 148t88.5 130.5t119 105t154.5 69t191.5 25.5q48 0 116.5 -9.5t104.5 -25.5v-59q-124 37 -223 37q-134 0 -245 -52t-192.5 -152t-122.5 -259t-30 -360q53 158 169.5 237.5t258.5 79.5q204 0 331.5 -129t127.5 -330
q0 -207 -129.5 -334t-329.5 -127zM635 33q173 0 283 108t110 293q0 177 -111.5 290.5t-281.5 113.5t-282.5 -115.5t-112.5 -298.5q0 -179 111 -285t284 -106z" />
    <glyph glyph-name="seven.osf" horiz-adv-x="1024" 
d="M399 -399h-61q-4 147 6 273t43.5 271t92.5 273.5t160 265.5t239 262h-267h-565v58h926v-46q-125 -111 -221.5 -227.5t-159 -231.5t-103.5 -225.5t-61 -229t-26 -221.5t-3 -222z" />
    <glyph glyph-name="eight.osf" horiz-adv-x="1163" 
d="M582 -25q-110 0 -196.5 33t-139.5 89.5t-80 128t-27 153.5q0 77 24 141.5t65.5 109.5t88.5 75t101 47q-98 39 -166 124t-68 216q0 166 108.5 266t289.5 100t289 -100t108 -266q0 -131 -68 -216t-166 -124q54 -17 101 -47t88.5 -75t65.5 -109.5t24 -141.5
q0 -82 -27 -153.5t-79.5 -128t-139 -89.5t-196.5 -33zM582 778q146 0 241 88.5t95 227.5q0 138 -94.5 222.5t-241.5 84.5t-241.5 -84.5t-94.5 -222.5q0 -139 95 -227.5t241 -88.5zM582 33q166 0 272.5 98t106.5 250q0 149 -106.5 245.5t-272.5 96.5t-272.5 -96.5
t-106.5 -245.5q0 -152 106.5 -250t272.5 -98z" />
    <glyph glyph-name="nine.osf" horiz-adv-x="1249" 
d="M492 -424q-71 0 -153 7.5t-118 23.5v57q104 -31 273 -31q101 0 188.5 28.5t160 90.5t122 152.5t73 222.5t15.5 293q-37 -108 -108 -183t-155.5 -108t-179.5 -33q-211 0 -342 131.5t-131 335.5q0 208 133.5 336.5t339.5 128.5q82 0 152.5 -18.5t137.5 -66.5t113.5 -122
t74.5 -193t28 -272q0 -120 -19 -228.5t-65 -211t-115.5 -176.5t-178.5 -119t-246 -45zM608 156q177 0 292.5 116.5t115.5 302.5q0 179 -115 286.5t-293 107.5t-291.5 -108t-113.5 -296q0 -180 115 -294.5t290 -114.5z" />
    <glyph glyph-name="zero.tf" 
d="M641 -25q-119 0 -220.5 50t-178 144t-119.5 239t-43 325q0 173 45 313t122.5 228.5t178.5 136t215 47.5t213 -47.5t174 -136.5t118.5 -228.5t43.5 -312.5q0 -182 -42 -327t-116 -238.5t-174 -143t-217 -49.5zM641 33q116 0 209.5 55.5t152.5 152t90 222t31 270.5
q0 191 -55 340.5t-166 238.5t-262 89q-155 0 -269 -89t-170.5 -238.5t-56.5 -340.5q0 -145 32 -270.5t92.5 -222t156 -152t215.5 -55.5z" />
    <glyph glyph-name="one.tf" 
d="M748 1434v-1377h362v-57h-870v57h446v1010v219q-64 -104 -171 -186.5t-228 -122.5v67q127 50 240.5 147t193.5 243h27z" />
    <glyph glyph-name="two.tf" 
d="M1069 0h-860v66q84 59 153 110.5t150.5 119.5t145 130.5t125 138t102 147t65.5 152.5t25 160q0 185 -103 281t-258 96q-49 0 -96 -12t-94 -41.5t-82 -73.5t-56 -114.5t-20 -158.5l-61 11q1 110 34.5 197t90.5 140.5t129.5 81t154.5 27.5q192 0 308 -118.5t116 -309.5
q0 -190 -112 -368q-198 -315 -639 -605h309h473v-57z" />
    <glyph glyph-name="three.tf" 
d="M633 -25q-208 0 -332.5 113t-124.5 309l62 19q-4 -175 106 -279t289 -104q165 0 270 95t105 243q0 157 -110 252.5t-284 95.5h-125v63h125q144 0 245.5 86.5t101.5 227.5q0 137 -95.5 221t-244.5 84q-152 0 -245.5 -93t-92.5 -247l-62 22q0 161 114.5 268t285.5 107
q187 0 297 -104.5t110 -257.5q0 -93 -43 -167.5t-105.5 -117t-136.5 -59.5q140 -24 235 -126.5t95 -254.5q0 -74 -25 -142t-75.5 -126t-138 -93t-201.5 -35z" />
    <glyph glyph-name="four.tf" 
d="M874 0h-61v428h-678v57l643 949h96v-951h248v-55h-248v-428zM455 483h358v727v176l-612 -903h254z" />
    <glyph glyph-name="five.tf" 
d="M633 -25q-104 0 -187 28t-137 77t-86.5 108.5t-44.5 128.5l64 31q21 -160 128 -237.5t263 -77.5q169 0 280 110.5t111 298.5q0 192 -105 298t-286 106q-217 0 -340 -201l-84 14l104 775h729v-58h-682l-45 -358q-12 -94 -43 -311q66 97 160 146.5t203 49.5
q112 0 200.5 -36t143.5 -99.5t84 -146t29 -179.5q0 -207 -129.5 -337t-329.5 -130z" />
    <glyph glyph-name="six.tf" 
d="M664 -25q-77 0 -144 19.5t-131 69.5t-110 127t-73.5 200.5t-27.5 282.5q0 230 68.5 405t206 276t327.5 101q141 0 262 -47v-68q-132 56 -256 56q-119 0 -215 -43t-160.5 -118.5t-106 -180.5t-57 -228t-7.5 -262q6 39 23.5 82t53 90t82 83.5t116 60.5t149.5 24
q109 0 197.5 -39.5t143 -105.5t83 -147t28.5 -169t-29.5 -170.5t-84 -149.5t-142.5 -108t-196 -41zM664 33q164 0 275.5 110.5t111.5 298.5t-111.5 297t-275.5 109q-158 0 -274 -114.5t-116 -291.5q0 -180 116 -294.5t274 -114.5z" />
    <glyph glyph-name="seven.tf" 
d="M506 0h-70q0 151 14.5 283.5t54 282.5t104.5 282t172.5 269.5t250.5 258.5h-280h-553v58h915v-45q-100 -87 -182.5 -176.5t-143 -177t-107 -173t-77 -175t-50.5 -171t-30.5 -173.5t-14 -170.5t-3.5 -172.5z" />
    <glyph glyph-name="eight.tf" 
d="M635 -25q-99 0 -178.5 23t-132 61t-88 89.5t-51 107t-15.5 115.5q0 146 94 250.5t232 130.5q-119 33 -201 120.5t-82 227.5q0 154 114.5 256t307.5 102t307.5 -102t114.5 -256q0 -73 -24.5 -134t-66.5 -102.5t-87 -68.5t-95 -43q136 -29 227 -131.5t91 -249.5
q0 -60 -15.5 -115.5t-51.5 -107t-88.5 -89.5t-132.5 -61t-179 -23zM635 782q157 0 255.5 85.5t98.5 232.5q0 139 -98.5 220t-255.5 81q-154 0 -254 -81.5t-100 -219.5q0 -146 100 -232t254 -86zM635 33q182 0 290.5 92t108.5 244q0 155 -109 252.5t-290 97.5t-289 -97
t-108 -253q0 -152 107.5 -244t289.5 -92z" />
    <glyph glyph-name="nine.tf" 
d="M543 -25q-90 0 -166.5 17.5t-151.5 68.5v66q136 -92 318 -92q228 0 358 190q147 213 141 615q-19 -69 -54 -125t-78 -93t-95 -61.5t-104 -35.5t-105 -11q-117 0 -208 38.5t-145.5 105t-82 147.5t-27.5 172q0 73 16.5 141t53.5 130t90 108.5t131 74t172 27.5
q182 0 316 -117q180 -159 180 -565q0 -194 -43 -348t-119 -252t-177 -149.5t-220 -51.5zM606 571q172 0 288 114.5t116 301.5q0 185 -116.5 299.5t-287.5 114.5q-175 0 -288 -110t-113 -304q0 -198 112.5 -307t288.5 -109z" />
    <glyph glyph-name="zero.subs" horiz-adv-x="849" 
d="M428 -233q-143 0 -229 114.5t-86 304.5q0 181 87.5 292.5t227.5 111.5t224.5 -110.5t84.5 -293.5q0 -192 -84 -305.5t-225 -113.5zM428 -178q113 0 180.5 99t67.5 265q0 160 -67 254.5t-181 94.5q-117 0 -186.5 -94.5t-69.5 -254.5q0 -165 70 -264.5t186 -99.5z" />
    <glyph glyph-name="one.subs" horiz-adv-x="518" 
d="M346 -221h-57v457v217q-81 -111 -215 -148v60q159 59 239 213h33v-799z" />
    <glyph glyph-name="two.subs" horiz-adv-x="704" 
d="M600 -221h-489v53q71 50 121 88.5t109.5 93.5t96 103.5t61.5 108t25 118.5q0 89 -48.5 140t-133.5 51q-35 0 -66.5 -11t-60 -34.5t-42 -69.5t-5.5 -109l-59 17q-10 117 55 189.5t178 72.5q108 0 175 -67t67 -175q0 -104 -64 -207q-100 -155 -321 -307h317h84v-55z" />
    <glyph glyph-name="three.subs" horiz-adv-x="722" 
d="M360 -233q-122 0 -191.5 66.5t-66.5 180.5l58 19q-7 -95 48 -153t152 -58q85 0 138 47.5t53 122.5q0 78 -55.5 127t-145.5 49h-80v57h80q77 0 126.5 44.5t49.5 113.5q0 68 -48 110t-124 42q-82 0 -129 -52t-41 -137l-57 21q-4 96 61 159.5t166 63.5t166.5 -58t65.5 -149
q0 -62 -34 -110.5t-95 -73.5q72 -25 112.5 -80t40.5 -127q0 -102 -68 -163.5t-182 -61.5z" />
    <glyph glyph-name="four.subs" horiz-adv-x="710" 
d="M498 -221h-58v231h-366v47l352 521h72v-515h133v-53h-133v-231zM338 63h102v156v281l-297 -437h195z" />
    <glyph glyph-name="five.subs" horiz-adv-x="729" 
d="M362 -233q-108 0 -177.5 53.5t-82.5 148.5l60 29q5 -85 56.5 -130.5t143.5 -45.5q90 0 144.5 57t54.5 152q0 97 -52.5 151t-146.5 54q-118 0 -178 -111l-65 12l59 441h418v-56h-371l-24 -184l-17 -129q73 82 181 82q118 0 188 -70.5t70 -189.5q0 -117 -73.5 -190.5
t-187.5 -73.5z" />
    <glyph glyph-name="six.subs" horiz-adv-x="749" 
d="M389 -233q-133 0 -203.5 100t-70.5 289q0 199 91.5 316.5t246.5 117.5q75 0 153 -29v-63q-80 34 -149 34q-133 0 -208.5 -97t-76.5 -283q26 62 83.5 101.5t133.5 39.5q116 0 186 -73.5t70 -188.5q0 -114 -72 -189t-184 -75zM389 -178q88 0 142.5 57.5t54.5 151.5
q0 92 -54.5 149.5t-142.5 57.5q-83 0 -139.5 -59.5t-56.5 -147.5q0 -89 56.5 -149t139.5 -60z" />
    <glyph glyph-name="seven.subs" horiz-adv-x="657" 
d="M266 -221h-63q0 102 13 191t45 187t94.5 191t154.5 174h-123h-311v56h518v-43q-87 -75 -149 -154.5t-96.5 -149.5t-54 -152.5t-24.5 -148t-4 -151.5z" />
    <glyph glyph-name="eight.subs" horiz-adv-x="743" 
d="M371 -233q-118 0 -188 61t-70 164q0 71 40.5 126.5t110.5 80.5q-127 53 -127 186q0 91 65.5 148t168.5 57q104 0 169.5 -57t65.5 -148q0 -62 -32 -110t-93 -76q70 -25 110 -80.5t40 -126.5q0 -103 -70.5 -164t-189.5 -61zM371 225q79 0 126.5 44t47.5 116q0 68 -47.5 109
t-126.5 41q-78 0 -125 -41t-47 -109q0 -72 47 -116t125 -44zM371 -178q92 0 145 45.5t53 122.5q0 80 -54 129t-144 49q-89 0 -143 -49t-54 -129q0 -77 53 -122.5t144 -45.5z" />
    <glyph glyph-name="nine.subs" horiz-adv-x="759" 
d="M332 -233q-115 0 -185 51v63q82 -59 185 -59q115 0 182 98q66 94 72 270q-32 -65 -90 -99t-131 -34q-119 0 -191 71t-72 191q0 121 73 196t190 75q106 0 180 -66q100 -89 100 -313q0 -204 -84 -324t-229 -120zM365 113q91 0 148.5 58.5t57.5 152.5t-57.5 152.5
t-148.5 58.5q-92 0 -147.5 -57t-55.5 -154q0 -98 54.5 -154.5t148.5 -56.5z" />
    <glyph glyph-name="zero.dnom" horiz-adv-x="849" 
d="M428 -12q-143 0 -229 115t-86 305q0 181 87.5 292t227.5 111t224.5 -110t84.5 -293q0 -192 -84 -306t-225 -114zM428 43q113 0 180.5 99.5t67.5 265.5q0 160 -67 254t-181 94q-117 0 -186.5 -94t-69.5 -254q0 -165 70 -265t186 -100z" />
    <glyph glyph-name="one.dnom" horiz-adv-x="518" 
d="M346 0h-57v457v217q-81 -111 -215 -148v60q159 59 239 213h33v-799z" />
    <glyph glyph-name="two.dnom" horiz-adv-x="704" 
d="M602 0h-489v53q71 50 121 88.5t109.5 93.5t96 103.5t61.5 108t25 118.5q0 89 -48.5 140t-133.5 51q-35 0 -66.5 -11t-60 -34.5t-42 -69.5t-5.5 -109l-59 17q-10 117 55 189.5t178 72.5q108 0 175 -67t67 -175q0 -104 -64 -207q-100 -155 -321 -307h317h84v-55z" />
    <glyph glyph-name="three.dnom" horiz-adv-x="722" 
d="M360 -12q-122 0 -191.5 67t-66.5 181l58 18q-7 -95 48 -153t152 -58q85 0 138 47.5t53 122.5q0 78 -55.5 127t-145.5 49h-80v57h80q77 0 126.5 44.5t49.5 113.5q0 68 -48 110t-124 42q-82 0 -129 -52t-41 -137l-57 21q-4 96 61 159.5t166 63.5t166.5 -58t65.5 -149
q0 -62 -34 -110.5t-95 -73.5q72 -25 112.5 -80t40.5 -127q0 -102 -68 -163.5t-182 -61.5z" />
    <glyph glyph-name="four.dnom" horiz-adv-x="710" 
d="M498 0h-58v231h-366v48l352 520h72v-514h133v-54h-133v-231zM338 285h102v155v281l-297 -436h195z" />
    <glyph glyph-name="five.dnom" horiz-adv-x="729" 
d="M365 -12q-108 0 -178 53.5t-83 148.5l60 29q4 -85 56.5 -130.5t144.5 -45.5q89 0 143.5 57t54.5 152q0 97 -52 151t-146 54q-119 0 -179 -111l-65 12l59 441h418v-56h-371l-24 -184l-17 -129q73 82 181 82q118 0 188 -70.5t70 -189.5q0 -117 -73 -190.5t-187 -73.5z" />
    <glyph glyph-name="six.dnom" horiz-adv-x="749" 
d="M389 -12q-133 0 -203.5 100t-70.5 289q0 199 91.5 316.5t246.5 117.5q75 0 153 -29v-63q-82 35 -149 35q-133 0 -208.5 -97.5t-76.5 -283.5q26 62 83.5 101.5t133.5 39.5q116 0 186 -73.5t70 -188.5q0 -114 -72 -189t-184 -75zM389 43q88 0 142.5 57.5t54.5 151.5
q0 92 -54.5 149.5t-142.5 57.5q-83 0 -139.5 -59.5t-56.5 -147.5q0 -89 56.5 -149t139.5 -60z" />
    <glyph glyph-name="seven.dnom" horiz-adv-x="657" 
d="M264 0h-63q0 102 13 191t45 187t94.5 191t154.5 174h-123h-311v56h518v-43q-87 -75 -149 -154.5t-96.5 -149.5t-54 -152.5t-24.5 -148t-4 -151.5z" />
    <glyph glyph-name="eight.dnom" horiz-adv-x="743" 
d="M371 -12q-118 0 -188 61t-70 164q0 71 40.5 126.5t110.5 80.5q-127 53 -127 186q0 91 65.5 148t168.5 57q104 0 169.5 -57t65.5 -148q0 -62 -32 -110t-93 -76q70 -25 110 -80.5t40 -126.5q0 -103 -70.5 -164t-189.5 -61zM371 446q79 0 126.5 44t47.5 116q0 68 -47.5 109
t-126.5 41q-78 0 -125 -41t-47 -109q0 -72 47 -116t125 -44zM371 43q92 0 145 45.5t53 122.5q0 80 -54 129t-144 49q-89 0 -143 -49t-54 -129q0 -77 53 -122.5t144 -45.5z" />
    <glyph glyph-name="nine.dnom" horiz-adv-x="759" 
d="M332 -12q-115 0 -185 51v63q82 -59 185 -59q115 0 182 98q66 94 72 271q-32 -65 -90 -99t-131 -34q-119 0 -191 71t-72 191q0 121 73 195.5t190 74.5q106 0 180 -66q100 -89 100 -313q0 -204 -84 -324t-229 -120zM365 334q91 0 148.5 58.5t57.5 152.5t-57.5 152.5
t-148.5 58.5q-92 0 -147.5 -57t-55.5 -154q0 -98 54.5 -154.5t148.5 -56.5z" />
    <glyph glyph-name="zero.numr" horiz-adv-x="849" 
d="M428 623q-143 0 -229 114.5t-86 304.5q0 181 87.5 292.5t227.5 111.5t224.5 -110.5t84.5 -293.5q0 -192 -84 -305.5t-225 -113.5zM428 678q113 0 180.5 99t67.5 265q0 160 -67 254.5t-181 94.5q-117 0 -186.5 -94.5t-69.5 -254.5q0 -165 70 -264.5t186 -99.5z" />
    <glyph glyph-name="one.numr" horiz-adv-x="518" 
d="M346 635h-57v457v217q-81 -111 -215 -148v60q159 59 239 213h33v-799z" />
    <glyph glyph-name="two.numr" horiz-adv-x="704" 
d="M600 635h-489v53q71 50 121 88.5t109.5 93.5t96 103.5t61.5 108t25 118.5q0 89 -48.5 140t-133.5 51q-35 0 -66.5 -11t-60 -34.5t-42 -69.5t-5.5 -109l-59 17q-10 117 55 189.5t178 72.5q108 0 175 -67t67 -175q0 -104 -64 -207q-100 -155 -321 -307h317h84v-55z" />
    <glyph glyph-name="three.numr" horiz-adv-x="722" 
d="M360 623q-122 0 -191.5 66.5t-66.5 180.5l58 19q-7 -95 48 -153t152 -58q85 0 138 47.5t53 122.5q0 78 -55.5 127t-145.5 49h-80v57h80q77 0 126.5 44.5t49.5 113.5q0 68 -48 110t-124 42q-82 0 -129 -52t-41 -137l-57 21q-4 96 61 159.5t166 63.5t166.5 -58t65.5 -149
q0 -62 -34 -110.5t-95 -73.5q72 -25 112.5 -80t40.5 -127q0 -102 -68 -163.5t-182 -61.5z" />
    <glyph glyph-name="four.numr" horiz-adv-x="710" 
d="M498 635h-58v231h-366v47l352 521h72v-514h133v-54h-133v-231zM338 920h102v155v281l-297 -436h195z" />
    <glyph glyph-name="five.numr" horiz-adv-x="729" 
d="M362 623q-108 0 -177.5 53.5t-82.5 148.5l60 29q5 -85 56.5 -130.5t143.5 -45.5q90 0 144.5 57t54.5 152q0 97 -52.5 151t-146.5 54q-118 0 -178 -111l-65 12l59 441h418v-56h-371l-24 -184l-17 -129q73 82 181 82q118 0 188 -70.5t70 -189.5q0 -117 -73.5 -190.5
t-187.5 -73.5z" />
    <glyph glyph-name="six.numr" horiz-adv-x="749" 
d="M389 623q-133 0 -203.5 100t-70.5 289q0 199 91.5 316.5t246.5 117.5q75 0 153 -29v-63q-82 35 -149 35q-133 0 -208.5 -97.5t-76.5 -283.5q26 62 83.5 101.5t133.5 39.5q116 0 186 -73.5t70 -188.5q0 -114 -72 -189t-184 -75zM389 678q88 0 142.5 57.5t54.5 151.5
q0 92 -54.5 149.5t-142.5 57.5q-83 0 -139.5 -59.5t-56.5 -147.5q0 -89 56.5 -149t139.5 -60z" />
    <glyph glyph-name="seven.numr" horiz-adv-x="657" 
d="M264 635h-63q0 102 13 191t45 187t94.5 191t154.5 174h-123h-311v56h518v-43q-87 -75 -149 -154.5t-96.5 -149.5t-54 -152.5t-24.5 -148t-4 -151.5z" />
    <glyph glyph-name="eight.numr" horiz-adv-x="743" 
d="M371 623q-118 0 -188 61t-70 164q0 71 40.5 126.5t110.5 80.5q-127 53 -127 186q0 91 65.5 148t168.5 57q104 0 169.5 -57t65.5 -148q0 -62 -32 -110t-93 -76q70 -25 110 -80.5t40 -126.5q0 -103 -70.5 -164t-189.5 -61zM371 1081q79 0 126.5 44t47.5 116q0 68 -47.5 109
t-126.5 41q-78 0 -125 -41t-47 -109q0 -72 47 -116t125 -44zM371 678q92 0 145 45.5t53 122.5q0 80 -54 129t-144 49q-89 0 -143 -49t-54 -129q0 -77 53 -122.5t144 -45.5z" />
    <glyph glyph-name="nine.numr" horiz-adv-x="759" 
d="M332 623q-115 0 -185 51v63q82 -59 185 -59q115 0 182 98q66 94 72 271q-32 -65 -90 -99.5t-131 -34.5q-119 0 -191 71.5t-72 191.5q0 121 73 195.5t190 74.5q106 0 180 -66q100 -89 100 -313q0 -204 -84 -324t-229 -120zM365 969q91 0 148.5 58.5t57.5 152.5
t-57.5 152.5t-148.5 58.5q-92 0 -147.5 -57t-55.5 -154q0 -98 54.5 -154.5t148.5 -56.5z" />
    <glyph glyph-name="exclamdown.case" horiz-adv-x="546" 
d="M223 1434h103v-172h-103v172zM254 1059h39l12 -731v-328h-61v328z" />
    <glyph glyph-name="questiondown.case" horiz-adv-x="909" 
d="M459 1434h102v-172h-102v172zM481 1059h62q-1 -129 -32.5 -203t-117.5 -156q-143 -134 -190 -210.5t-47 -174.5q0 -125 83 -202.5t216 -77.5q148 0 229 103t72 278l61 -10q9 -188 -93 -308.5t-269 -120.5q-159 0 -261 95t-102 243q0 111 53 199t205 225q77 71 102 131.5
t29 188.5z" />
    <glyph glyph-name="period.tf" 
d="M696 0h-123v207h123v-207z" />
    <glyph glyph-name="comma.tf" 
d="M575 -262h-65l133 262h-65v207h122v-207z" />
    <glyph glyph-name="colon.tf" 
d="M696 797h-123v207h123v-207zM696 0h-123v207h123v-207z" />
    <glyph glyph-name="semicolon.tf" 
d="M711 797h-123v207h123v-207zM586 -262h-66l131 262h-63v207h123v-207z" />
    <glyph glyph-name="numbersign.tf" 
d="M299 0h-61l65 313q13 64 33 156h-133h-97v57h242l84 406h-264v57h276l93 445h61l-57 -269l-37 -176h125h248l92 445h61l-57 -271l-37 -174h133h100v-57h-245l-84 -406h247v-57h-260l-96 -469h-61l63 303l35 166h-145h-228zM494 932l-84 -406h368l84 406h-368z" />
    <glyph glyph-name="parenleft.case" horiz-adv-x="622" 
d="M563 -154v-71q-220 85 -319 326t-99 628q0 377 98 610t320 330v-72q-169 -67 -263.5 -282.5t-94.5 -585.5q0 -379 95 -599t263 -284z" />
    <glyph glyph-name="parenright.case" horiz-adv-x="622" 
d="M59 1597v72q220 -85 319 -326t99 -628q0 -377 -98 -610t-320 -330v71q169 67 264 283t95 586q0 379 -95.5 598.5t-263.5 283.5z" />
    <glyph glyph-name="braceleft.case" horiz-adv-x="638" 
d="M565 -205h-90q-188 0 -188 215v406q0 56 -3.5 92t-17 74.5t-38.5 60t-69.5 35.5t-107.5 14v60q63 0 107.5 14t69.5 35.5t38.5 60t17 74.5t3.5 92v406q0 215 188 215h90v-58h-88q-66 0 -97.5 -38t-31.5 -117v-426q0 -42 -2.5 -72.5t-12 -67t-27 -62t-49 -49.5t-75.5 -38
q54 -18 89.5 -47.5t51 -71t20.5 -78.5t5 -90v-426q0 -79 31.5 -117t97.5 -38h88v-58z" />
    <glyph glyph-name="braceright.case" horiz-adv-x="638" 
d="M74 1649h90q188 0 188 -215v-406q0 -56 3.5 -92t17 -74.5t38.5 -60t69.5 -35.5t107.5 -14v-60q-63 0 -107.5 -14t-69.5 -35.5t-38.5 -60t-17 -74.5t-3.5 -92v-406q0 -215 -188 -215h-90v58h88q66 0 97.5 38t31.5 117v426q0 42 2.5 72.5t12 67t27 62t49 49.5t75.5 38
q-54 18 -89.5 47.5t-51 71t-20.5 78.5t-5 90v426q0 79 -31.5 117t-97.5 38h-88v58z" />
    <glyph glyph-name="bracketleft.case" horiz-adv-x="663" 
d="M600 -205h-354v1854h354v-58h-293v-1738h293v-58z" />
    <glyph glyph-name="bracketright.case" horiz-adv-x="665" 
d="M66 1647h354v-1854h-354v57h292v1739h-292v58z" />
    <glyph glyph-name="angleleft.case" horiz-adv-x="655" 
d="M530 1669l58 -24l-436 -920l432 -926l-56 -24l-440 948z" />
    <glyph glyph-name="angleright.case" horiz-adv-x="655" 
d="M72 1645l55 24l440 -948l-442 -946l-57 24l436 920z" />
    <glyph glyph-name="uni3010.case" horiz-adv-x="716" 
d="M676 -205h-430v1854h430q-193 -225 -283 -449.5t-90 -482.5q0 -254 86 -470t287 -452z" />
    <glyph glyph-name="uni3011.case" horiz-adv-x="716" 
d="M41 1649h430v-1854h-430q193 225 283 449.5t90 482.5q0 254 -86 470t-287 452z" />
    <glyph glyph-name="uni300C.case" horiz-adv-x="663" 
d="M256 756h-61v893h432v-58h-371v-835z" />
    <glyph glyph-name="uni300D.case" horiz-adv-x="667" 
d="M412 688h61v-893h-432v58h371v835z" />
    <glyph glyph-name="uni300A.case" horiz-adv-x="978" 
d="M530 1669l58 -24l-436 -922l432 -924l-56 -24l-440 946zM854 1669l57 -24l-436 -922l432 -924l-55 -24l-440 946z" />
    <glyph glyph-name="uni300B.case" horiz-adv-x="978" 
d="M72 1645l55 24l440 -946l-442 -948l-57 24l436 922zM395 1645l56 24l440 -946l-442 -948l-58 24l436 922z" />
    <glyph glyph-name="uni3014.case" horiz-adv-x="567" 
d="M504 1626l-266 -293v-1224l264 -289l-43 -45l-283 317v1258l283 319z" />
    <glyph glyph-name="uni3015.case" horiz-adv-x="565" 
d="M66 1626l43 45l282 -317v-1258l-282 -319l-46 43l267 293v1224z" />
    <glyph glyph-name="uni300E.case" horiz-adv-x="835" 
d="M432 614h-237v1035h559v-252h-322v-783zM256 1591v-919h115v782h321v137h-436z" />
    <glyph glyph-name="uni300F.case" horiz-adv-x="868" 
d="M403 831h238v-1034h-559v252h321v782zM580 -145v919h-115v-782h-322v-137h437z" />
    <glyph glyph-name="hyphen.case" horiz-adv-x="761" 
d="M586 694h-410v68h410v-68z" />
    <glyph glyph-name="uni00AD.case" horiz-adv-x="761" 
d="M586 694h-410v68h410v-68z" />
    <glyph glyph-name="endash.case" horiz-adv-x="1193" 
d="M1036 698h-878v60h878v-60z" />
    <glyph glyph-name="emdash.case" horiz-adv-x="2025" 
d="M1868 698h-1710v60h1710v-60z" />
    <glyph glyph-name="guillemotleft.case" horiz-adv-x="958" 
d="M133 680l256 387h72l-256 -387l256 -389h-74zM731 1067h72l-256 -387l256 -389h-74l-254 389z" />
    <glyph glyph-name="guillemotright.case" horiz-adv-x="958" 
d="M412 678l-256 389h73l254 -389l-256 -387h-71zM498 1067h73l254 -389l-256 -387h-71l256 387z" />
    <glyph glyph-name="guilsinglleft.case" horiz-adv-x="616" 
d="M389 1067h72l-256 -387l256 -389h-74l-254 387z" />
    <glyph glyph-name="guilsinglright.case" horiz-adv-x="616" 
d="M156 1067h73l254 -387l-256 -389h-71l256 389z" />
    <glyph glyph-name="space.tf" 
 />
    <glyph glyph-name="uni20BF.tf" 
d="M866 754q51 -10 101 -36.5t94.5 -70t72 -111t27.5 -147.5q0 -171 -108 -280t-287 -109h-10v-217h-58v217h-192v-217h-57v217h-216v1434h216v215h57v-215h192v215h58v-217q160 -15 250 -111t90 -246q0 -70 -22.5 -128.5t-60 -96t-73.5 -60.5t-74 -36zM688 1376h-393v-602
h393q166 0 254 84t88 217q0 132 -88 216.5t-254 84.5zM295 57h461q158 0 249 96.5t91 235.5q0 140 -90 234t-248 94h-463v-660z" />
    <glyph glyph-name="cent.tf" 
d="M686 -246h-57v223q-174 12 -279.5 154t-105.5 371q0 217 105.5 364.5t279.5 159.5v211h57v-209q147 -7 234.5 -86t115.5 -190l-57 -19q-64 225 -293 238v-701v-237q71 4 126.5 30t90.5 68.5t55.5 85.5t32.5 92l64 -18q-41 -140 -132 -224.5t-237 -91.5v-221zM629 35v653
v281q-139 -13 -230.5 -134.5t-91.5 -332.5t89 -333t233 -134z" />
    <glyph glyph-name="currency.tf" 
d="M350 389l-166 -162l-37 39l164 166q-92 116 -92 289t92 289l-164 166l37 38l166 -161q115 106 285 106t285 -106l165 161l37 -38l-164 -166q93 -117 93 -289t-93 -289l164 -166l-37 -39l-165 162q-115 -106 -285 -106t-285 106zM635 338q153 0 253.5 101t100.5 282
t-100.5 282t-253.5 101t-253.5 -101t-100.5 -282t100.5 -282t253.5 -101z" />
    <glyph glyph-name="dollar.tf" 
d="M653 -227h-57v202q-167 9 -287.5 94.5t-171.5 243.5l60 31q34 -138 144 -218.5t255 -88.5v692l-78 27q-55 19 -96.5 37t-87 47.5t-74.5 64t-48 85.5t-19 112q0 109 55.5 189.5t145 121t202.5 45.5v191h57v-191q100 -4 182 -35.5t132 -77.5t79 -91t39 -87l-55 -30
q-8 30 -24 61t-47 67t-71.5 64t-102 48.5t-132.5 23.5v-625l125 -41q157 -50 246.5 -140.5t89.5 -238.5q0 -170 -123 -272.5t-338 -108.5v-202zM596 795v338v268q-150 -8 -247 -86.5t-97 -208.5q0 -117 79.5 -186t264.5 -125zM653 35q181 6 289.5 92.5t108.5 226.5
q0 73 -21 125.5t-71 95t-122 74t-184 64.5v-336v-342z" />
    <glyph glyph-name="Euro.tf" 
d="M709 -25q-107 0 -193 43.5t-145 123t-96 185t-52 234.5h-168l2 55h160q-8 140 4 252h-160v56h168q38 251 167 392.5t339 141.5q91 0 166.5 -31.5t122 -75.5t82.5 -103.5t52 -104t26 -88.5l-54 -23q-10 47 -26.5 92.5t-49 97t-74.5 90t-106.5 64t-140.5 25.5
q-187 0 -298.5 -124.5t-147.5 -352.5h260h237l-2 -56h-501q-14 -140 -5 -252h502v-55h-237h-258q31 -242 138.5 -385t289.5 -143q74 0 136 22.5t104.5 58t77 89t56 106.5t39.5 119l58 -22q-19 -63 -41 -115t-61.5 -113.5t-88 -103.5t-121.5 -70.5t-161 -28.5z" />
    <glyph glyph-name="liraturkish.tf" 
d="M449 0h-50v416v190q-48 -26 -137 -74l-67 -36v63l204 113v192l-204 -110v65l204 111v504h62v-252v-219q111 56 162 84l272 147v-64l-434 -233v-192l434 237v-65l-434 -236v-582h20q30 0 66 5t87.5 20t100 39.5t101.5 68.5t95.5 101t77.5 142.5t52 187.5l55 -23
q-19 -126 -71 -233.5t-133.5 -190t-200.5 -129.5t-262 -47z" />
    <glyph glyph-name="uni20BD.tf" 
d="M700 633h-331v-227h338v-58h-338v-348h-62v348h-164v58h164v227h-164v57h164v744h400q210 0 324 -114t114 -286q0 -83 -28 -155t-82 -127.5t-140 -87t-195 -31.5zM694 1376h-325v-686h325q99 0 175 29t120.5 79t67 109.5t22.5 126.5q0 53 -12.5 101.5t-41.5 93t-72.5 77
t-110 51.5t-148.5 19z" />
    <glyph glyph-name="uni20B9.tf" 
d="M1110 1434v-58h-190h-199q90 -44 140.5 -123.5t56.5 -181.5h192v-57h-195q-8 -121 -77 -209.5t-185 -118.5q49 -10 87 -30.5t62.5 -43.5t45.5 -62.5t32.5 -69.5t28.5 -81l127 -399h-65l-135 432q-34 113 -109 168t-203 55h-340v58h332q140 0 232 81t102 220h-666v57h668
q-9 139 -103 222t-233 83h-332v58h926z" />
    <glyph glyph-name="sterling.tf" 
d="M313 57h275h510v-57h-908v61q21 6 44.5 15t70.5 36t82 60.5t62.5 90.5t27.5 124q0 84 -24 149.5t-68 135.5h-190v57h151q-30 45 -44.5 70t-35 67t-29 84t-8.5 90q0 97 37 177.5t97.5 131t135 78t152.5 27.5q118 0 213 -41t159 -129t77 -213l-58 -31q-21 183 -126.5 270
t-264.5 87q-92 0 -173 -40t-134 -122.5t-53 -192.5q0 -22 2 -42t7.5 -41t9 -35.5t15 -36.5t15.5 -31.5t19 -33.5t18.5 -30t22 -33t20.5 -30h428v-57h-391q80 -138 80 -277q0 -106 -55.5 -196.5t-168.5 -141.5z" />
    <glyph glyph-name="uni20A9.tf" 
d="M1221 862v-57h-238l-27 -250h226v-57h-232l-53 -498h-82l-137 616q-34 149 -43 193q-24 -108 -41 -193l-135 -616h-84l-53 498h-232v57h225l-26 250h-240v57h234l-60 572h62l104 -1039l31 -315q9 40 30.5 144t34.5 161l115 537h72l116 -539q5 -20 66 -303l31 307
l102 1047h64l-62 -572h232z" />
    <glyph glyph-name="yen.tf" 
d="M1106 1434h74l-465 -740h284v-57h-321v-250h321v-57h-321v-330h-62v330h-344v57h344v250h-344v57h308l-490 740h74l407 -623q49 -75 74 -113l72 111z" />
    <glyph glyph-name="multiply.case.tf" 
d="M635 702l-416 -413l-41 43l414 413l-414 412l41 43l416 -414l416 414l41 -43l-414 -412l414 -413l-41 -43z" />
    <glyph glyph-name="plus.tf" 
d="M664 164h-58v530h-510v58h510v530l58 -2v-528h507v-58h-507v-530z" />
    <glyph glyph-name="minus.tf" 
d="M1118 692h-968v58h968v-58z" />
    <glyph glyph-name="multiply.tf" 
d="M635 702l-416 -413l-41 43l414 413l-414 412l41 43l416 -414l416 414l41 -43l-414 -412l414 -413l-41 -43z" />
    <glyph glyph-name="divide.tf" 
d="M686 1049h-104v190h104v-190zM1137 696h-1006v58h1006v-58zM686 211h-104v190h104v-190z" />
    <glyph glyph-name="equal.tf" 
d="M1133 893h-996v57h996v-57zM1133 500h-996v57h996v-57z" />
    <glyph glyph-name="notequal.tf" 
d="M356 150h-65l196 350h-350v57h385l105 186q13 24 42 75t42 75h-189h-385v57h606l177 312h63l-176 -312h326v-57h-357l-114 -203q-14 -22 -38 -66t-38 -67h155h392v-57h-578z" />
    <glyph glyph-name="greater.tf" 
d="M1171 678l-991 -504v68l686 344l269 135q-52 25 -145 72.5t-126 64.5l-684 346v68l991 -512v-82z" />
    <glyph glyph-name="less.tf" 
d="M98 768l992 504v-68l-684 -344l-269 -135q34 -17 126.5 -64.5t144.5 -72.5l682 -346v-68l-992 512v82z" />
    <glyph glyph-name="greaterequal.tf" 
d="M1141 766l-994 -428v65l691 293l245 105q-41 17 -122.5 52.5t-122.5 53.5l-691 299v66l994 -436v-70zM1141 170h-994v59h994v-59z" />
    <glyph glyph-name="lessequal.tf" 
d="M1122 403v-65l-993 428v70l993 436v-66l-690 -299q-41 -18 -123 -53t-123 -53l246 -105zM1122 170h-993v59h993v-59z" />
    <glyph glyph-name="plusminus.tf" 
d="M664 457h-56v383h-475v57h475v385l56 -2v-383h473v-57h-473v-383zM1133 170h-996v59h996v-59z" />
    <glyph glyph-name="approxequal.tf" 
d="M860 889q-43 0 -86.5 11t-118.5 44l-61 27q-117 51 -182 51q-106 0 -213 -117l-43 45q118 131 262 131q79 0 205 -55l61 -27q117 -51 182 -51q106 0 213 117l43 -43q-114 -133 -262 -133zM860 438q-42 0 -85.5 11.5t-119.5 44.5l-61 26q-117 51 -182 51q-107 0 -213 -116
l-43 45q118 131 262 131q77 0 205 -56l61 -26q117 -51 182 -51q107 0 213 116l43 -43q-114 -133 -262 -133z" />
    <glyph glyph-name="logicalnot.tf" 
d="M1118 385h-55v330h-924v57h979v-387z" />
    <glyph glyph-name="percent.tf" 
d="M360 776q-114 0 -185 91t-71 255q0 159 74 248.5t182 89.5t180 -89.5t72 -248.5q0 -165 -69.5 -255.5t-182.5 -90.5zM332 0h-64l664 1434h63zM360 829q90 0 140.5 81.5t50.5 211.5q0 124 -51 202.5t-140 78.5q-91 0 -142.5 -78.5t-51.5 -202.5q0 -130 51.5 -211.5
t142.5 -81.5zM909 -23q-114 0 -185 91.5t-71 255.5q0 159 74 248.5t182 89.5t180 -89.5t72 -248.5q0 -165 -70 -256t-182 -91zM909 31q90 0 140.5 81.5t50.5 211.5q0 124 -51 202t-140 78q-91 0 -142.5 -78t-51.5 -202q0 -130 51.5 -211.5t142.5 -81.5z" />
    <glyph glyph-name="perthousand.tf" 
d="M233 776q-93 0 -143.5 89t-50.5 257q0 162 53 250t141 88t139.5 -87.5t51.5 -250.5q0 -169 -49 -257.5t-142 -88.5zM109 0l663 1434h64l-664 -1434h-63zM233 1403q-68 0 -100.5 -76.5t-32.5 -204.5q0 -87 13 -151t43.5 -103t76.5 -39q129 0 129 293q0 281 -129 281z
M1042 662q88 0 139.5 -87.5t51.5 -250.5q0 -170 -49 -258.5t-142 -88.5q-114 0 -165 138q-48 -138 -162 -138q-93 0 -144 89.5t-51 257.5q0 162 53 250t142 88q115 0 162 -140q50 140 165 140zM715 31q129 0 129 293q0 280 -129 280q-69 0 -101 -76t-32 -204q0 -87 13 -151
t43.5 -103t76.5 -39zM1042 31q129 0 129 293q0 280 -129 280q-69 0 -101 -76t-32 -204q0 -87 13 -151t43.5 -103t76.5 -39z" />
    <glyph glyph-name="at.case" horiz-adv-x="1867" 
d="M971 -145q-183 0 -336 56t-265 161t-174.5 266.5t-62.5 363.5q0 197 63 358.5t173.5 268t259.5 164t321 57.5q180 0 333 -58t259.5 -159.5t166.5 -242.5t60 -304q0 -94 -22 -176t-59 -140t-85 -99.5t-99.5 -61.5t-102.5 -20q-88 0 -132 51.5t-42 142.5
q-45 -88 -122.5 -141t-180.5 -53q-154 0 -250 108.5t-96 313.5q0 199 98.5 310.5t247.5 111.5q56 0 104.5 -14t80 -34t57.5 -48t39 -49t24 -44v162h57v-637q0 -125 119 -125q51 0 103.5 29t98.5 82t75.5 140t29.5 191q0 150 -55.5 280.5t-154.5 224.5t-241.5 148t-310.5 54
q-160 0 -298.5 -53.5t-241 -152.5t-161.5 -249.5t-59 -335.5q0 -189 59 -340.5t164.5 -249t247.5 -149t310 -51.5q154 0 297.5 46t242.5 128l35 -51q-106 -85 -259 -132.5t-316 -47.5zM928 344q53 0 106 24t97.5 68t72 116t27.5 159q0 177 -82 271.5t-221 94.5
q-126 0 -207.5 -95.5t-81.5 -270.5t81.5 -271t207.5 -96z" />
    <glyph glyph-name="registered.case" horiz-adv-x="1818" 
d="M913 -72q-166 0 -312 61.5t-248.5 166.5t-162 250t-59.5 307q0 161 59.5 306.5t162 252.5t248.5 170t312 63q165 0 310 -63t246.5 -170t160 -252.5t58.5 -306.5q0 -162 -58.5 -307t-160 -250t-246.5 -166.5t-310 -61.5zM911 -14q154 0 287 56t225.5 153.5t145.5 231.5
t53 286t-53 287.5t-145.5 234t-225.5 156t-287 57.5q-205 0 -369 -98t-254.5 -265.5t-90.5 -371.5q0 -203 90.5 -369t254.5 -262t369 -96zM727 311h-57v815h297q118 0 191 -56t73 -169q0 -53 -20.5 -94t-52.5 -63.5t-60 -34t-54 -15.5q56 -12 88.5 -52t57.5 -124l63 -205
h-67l-68 228q-21 70 -70.5 104.5t-142.5 34.5h-178v-369zM727 1069v-338h234q93 0 150.5 40t57.5 130q0 168 -208 168h-234z" />
    <glyph glyph-name="section.tf" 
d="M633 -420q-92 0 -164 23t-115.5 62t-69 80t-38.5 87l55 25q11 -42 32.5 -78.5t58.5 -72t99 -56.5t142 -21q131 0 220 75.5t89 197.5q0 91 -59.5 164t-192.5 112l-250 74q-301 89 -301 338q0 114 72 201.5t192 119.5q-64 40 -97.5 97t-33.5 145q0 137 100.5 221t258.5 84
q76 0 140 -18.5t105 -45.5t74 -63.5t49 -65.5t27 -59l-57 -26q-10 28 -23 53t-40.5 59t-62.5 58t-90.5 41.5t-121.5 17.5q-136 0 -219.5 -71.5t-83.5 -180.5q0 -100 56 -157.5t198 -98.5l249 -74q144 -43 223 -127.5t79 -210.5q0 -112 -74 -200.5t-203 -120.5
q143 -107 143 -266q0 -151 -105.5 -236.5t-260.5 -85.5zM788 207q123 13 204 94t81 188q0 213 -270 289l-271 78q-25 6 -51 16q-125 -14 -203.5 -89t-78.5 -189q0 -116 69.5 -186t200.5 -107l270 -78q19 -5 49 -16z" />
    <glyph glyph-name="degree.tf" 
d="M633 956q-126 0 -209.5 85t-83.5 208q0 124 84.5 210.5t210.5 86.5q127 0 211 -86t84 -211q0 -126 -84 -209.5t-213 -83.5zM635 1012q107 0 170 65.5t63 173.5q0 107 -63.5 172.5t-169.5 65.5q-102 0 -168 -66.5t-66 -171.5q0 -107 65.5 -173t168.5 -66z" />
    </font>
</defs>
</svg>
