<?xml version="1.0" standalone="no"?>
<!DOCTYPE svg PUBLIC "-//W3C//DTD SVG 1.1//EN" "http://www.w3.org/Graphics/SVG/1.1/DTD/svg11.dtd" >
<svg xmlns="http://www.w3.org/2000/svg" xmlns:xlink="http://www.w3.org/1999/xlink" version="1.1">
<metadata>
Created by FontForge 20170731 at Wed Dec 29 09:47:00 2021
 By Aleksey,,,
Copyright 2021 Dinamo (Johannes Breyer, Fabian Harb) &#38; Erkin Karamemet. All rights reserved.
</metadata>
<defs>
<font id="ABCWhyte-ThinItalic" horiz-adv-x="1269" >
  <font-face 
    font-family="ABC Whyte Thin"
    font-weight="250"
    font-style="italic"
    font-stretch="normal"
    units-per-em="2048"
    panose-1="2 11 0 4 4 2 2 6 2 3"
    ascent="1649"
    descent="-399"
    x-height="1004"
    cap-height="1434"
    bbox="-459 -551 2523 1972"
    underline-thickness="102"
    underline-position="-307"
    slope="-12"
    unicode-range="U+0020-FB02"
  />
<missing-glyph horiz-adv-x="1427" 
d="M1073 0h-930l303 1434h930zM496 1376l-279 -1319h807l279 1319h-807z" />
    <glyph glyph-name="fi" unicode="fi" horiz-adv-x="1138" 
d="M1036 1004l-211 -1004h-61l201 948h-504l-201 -948h-59l200 948h-268l12 56h269l35 163q28 131 104 199t223 68h123l-12 -58h-123q-109 0 -171.5 -53.5t-86.5 -161.5l-33 -157h563zM1030 1253l39 181h64l-39 -181h-64z" />
    <glyph glyph-name="fl" unicode="fl" horiz-adv-x="1126" 
d="M1116 1434l-303 -1434h-59l290 1376h-280q-109 0 -171.5 -53.5t-86.5 -161.5l-33 -157h305l-12 -56h-305l-201 -948h-59l200 948h-268l12 56h269l35 163q28 131 104 199t223 68h340z" />
    <glyph glyph-name="f_f" unicode="ff" horiz-adv-x="1349" 
d="M1542 1434l-12 -58h-123q-109 0 -171.5 -53.5t-86.5 -161.5l-33 -157h305l-12 -56h-305l-201 -948h-59l200 948h-583l-201 -948h-59l200 948h-268l12 56h269l35 163q28 131 104 199t223 68h123l-12 -58h-123q-109 0 -171.5 -53.5t-86.5 -161.5l-33 -157h584l35 163
q28 131 104 199t223 68h123z" />
    <glyph glyph-name="f_f_i" unicode="ffi" horiz-adv-x="1884" 
d="M1782 1004l-211 -1004h-62l201 948h-606l-201 -948h-59l200 948h-583l-201 -948h-59l200 948h-268l12 56h269l35 163q28 131 104 199t223 68h123l-12 -58h-123q-109 0 -171.5 -53.5t-86.5 -161.5l-33 -157h584l35 163q28 131 104 199t223 68h123l-12 -58h-123
q-109 0 -171.5 -53.5t-86.5 -161.5l-33 -157h666zM1776 1253l39 181h63l-39 -181h-63z" />
    <glyph glyph-name="f_f_l" unicode="ffl" horiz-adv-x="1861" 
d="M1851 1434l-303 -1434h-59l291 1376h-373q-109 0 -171.5 -53.5t-86.5 -161.5l-33 -157h305l-12 -56h-305l-201 -948h-59l200 948h-583l-201 -948h-59l200 948h-268l12 56h269l35 163q28 131 104 199t223 68h123l-12 -58h-123q-109 0 -171.5 -53.5t-86.5 -161.5l-33 -157
h584l35 163q28 131 104 199t223 68h432z" />
    <glyph glyph-name=".notdef" horiz-adv-x="1427" 
d="M1073 0h-930l303 1434h930zM496 1376l-279 -1319h807l279 1319h-807z" />
    <glyph glyph-name=".null" horiz-adv-x="0" 
 />
    <glyph glyph-name="nonmarkingreturn" horiz-adv-x="682" 
 />
    <glyph glyph-name="space" unicode=" " horiz-adv-x="604" 
 />
    <glyph glyph-name="exclam" unicode="!" horiz-adv-x="530" 
d="M258 375h-39l143 731l66 328h64l-70 -328zM209 0h-103l35 172h103z" />
    <glyph glyph-name="quotedbl" unicode="&#x22;" horiz-adv-x="720" 
d="M330 1024h-47l57 305l22 105h64l-23 -105zM649 1024h-47l57 305l23 105h63l-22 -105z" />
    <glyph glyph-name="numbersign" unicode="#" horiz-adv-x="1376" 
d="M236 0h-66l129 313q10 25 33 78t33 78h-134h-151l12 57h297l170 406h-278l12 57h291l186 445h66l-113 -269q-19 -42 -76 -176h123h287l186 445h66l-113 -271l-74 -174h133h142l-13 -57h-286l-170 -406h268l-12 -57h-281l-194 -469h-68l129 309q10 27 33 80.5t33 79.5
h-144h-262zM625 932l-170 -406h407l170 406h-407z" />
    <glyph glyph-name="dollar" unicode="$" horiz-adv-x="1181" 
d="M463 -227h-62l45 209q-163 20 -263 106t-128 225l60 31q17 -127 105.5 -206.5t236.5 -98.5l147 688l-82 33q-55 22 -97 46.5t-79 59.5t-56.5 83t-19.5 106q0 188 128.5 295.5t359.5 107.5l41 191h61l-41 -197q84 -12 152.5 -47t109 -79.5t63.5 -86t30 -76.5l-58 -26
q-6 32 -25.5 68.5t-54.5 76t-95 70t-134 41.5l-133 -625l74 -29q139 -55 216.5 -138t77.5 -216q0 -193 -139.5 -301t-396.5 -107zM616 788l72 336q40 187 57 275q-197 0 -305 -91.5t-108 -248.5q0 -94 66 -156t218 -115zM518 35q216 -3 339.5 93t123.5 257
q0 115 -75.5 189.5t-243.5 132.5l-60 -281z" />
    <glyph glyph-name="percent" unicode="%" horiz-adv-x="1736" 
d="M487 623q-133 0 -207.5 88t-74.5 245q0 116 40.5 226t124 187t191.5 77q134 0 209.5 -88.5t75.5 -245.5q0 -86 -24.5 -171.5t-69 -157t-114 -116t-151.5 -44.5zM311 0h-80l1293 1434h78zM487 678q89 0 159.5 67.5t105 164.5t34.5 200q0 130 -60.5 205.5t-164.5 75.5
q-88 0 -158 -68t-104.5 -166t-34.5 -201q0 -130 59.5 -204t163.5 -74zM1266 -12q-133 0 -208 88.5t-75 245.5q0 85 24.5 170.5t68 157t112.5 116.5t151 45q134 0 209.5 -88.5t75.5 -245.5q0 -116 -41 -226t-125 -186.5t-192 -76.5zM1266 43q89 0 159.5 67.5t105 164.5
t34.5 200q0 130 -61 205.5t-165 75.5q-88 0 -158 -68t-104.5 -165.5t-34.5 -200.5q0 -130 60 -204.5t164 -74.5z" />
    <glyph glyph-name="ampersand" unicode="&#x26;" horiz-adv-x="1316" 
d="M477 -25q-169 0 -277 97.5t-108 255.5q0 276 354 438q-43 119 -43 252q0 66 12 127.5t38.5 119t66 100t98.5 68t132 25.5q121 0 201.5 -73t80.5 -187q0 -66 -31 -125t-72.5 -100.5t-120.5 -89t-135 -74.5t-157 -72q59 -132 146 -250q117 -154 243 -258q147 166 207 441
l55 -29q-60 -272 -217 -451q122 -91 254 -159l-33 -56q-131 67 -262 170q-179 -170 -432 -170zM498 791l108 49q83 37 142 70t114 77t83 97t28 114q0 83 -59.5 144t-163.5 61q-74 0 -130.5 -31.5t-90.5 -86t-51 -123t-17 -146.5q0 -121 37 -225zM477 31q222 0 385 153
q-160 144 -248 269q-89 126 -147 260q-313 -151 -313 -385q0 -140 97 -218.5t226 -78.5z" />
    <glyph glyph-name="quotesingle" unicode="'" horiz-adv-x="401" 
d="M330 1024h-47l57 305l22 105h64l-23 -105z" />
    <glyph glyph-name="parenleft" unicode="(" horiz-adv-x="622" 
d="M406 -262l-15 -66q-136 58 -200 197t-64 369q0 162 24.5 331.5t78.5 337.5t131 304.5t190.5 233t247.5 122.5l-17 -70q-124 -32 -227 -133.5t-169.5 -236t-112.5 -295.5t-65.5 -309.5t-19.5 -280.5q0 -219 56 -339t162 -165z" />
    <glyph glyph-name="parenright" unicode=")" horiz-adv-x="622" 
d="M266 1501l15 66q136 -58 200 -197t64 -369q0 -162 -24.5 -331.5t-78.5 -337.5t-131 -304.5t-190.5 -233t-247.5 -122.5l16 70q124 32 227 133.5t169.5 236t112.5 295.5t65.5 309.5t19.5 280.5q0 219 -55.5 339t-161.5 165z" />
    <glyph glyph-name="asterisk" unicode="*" horiz-adv-x="987" 
d="M637 1182l-217 -293l-53 33l53 69q158 201 178 226q-138 -3 -272 -3h-66l12 60l330 -8l-108 307l61 24l18 -59l78 -256q37 52 193 262l41 55l51 -38l-234 -297l330 8l-12 -60h-66q-180 0 -272 2q46 -133 80 -225l26 -71l-59 -27z" />
    <glyph glyph-name="plus" unicode="+" horiz-adv-x="1247" 
d="M700 164h-57v530h-510v58h510v530l57 -2v-528h508v-58h-508v-530z" />
    <glyph glyph-name="comma" unicode="," horiz-adv-x="473" 
d="M55 -219h-57l152 219h-52l37 172h105l-37 -172z" />
    <glyph glyph-name="hyphen" unicode="-" horiz-adv-x="753" 
d="M596 596h-406l15 68h405z" />
    <glyph glyph-name="period" unicode="." horiz-adv-x="452" 
d="M186 0h-102l37 172h102z" />
    <glyph glyph-name="slash" unicode="/" horiz-adv-x="829" 
d="M14 -227h-67l962 1888h68z" />
    <glyph glyph-name="zero" unicode="0" horiz-adv-x="1421" 
d="M686 -25q-227 0 -363.5 152.5t-136.5 443.5q0 124 26.5 249.5t81 240t129.5 203t179.5 141.5t222.5 53q228 0 365 -152.5t137 -445.5q0 -124 -27 -249.5t-81.5 -239.5t-129.5 -202.5t-179.5 -141t-223.5 -52.5zM686 33q131 0 243 76t183.5 197t111.5 265.5t40 286.5
q0 253 -118 398t-321 145q-88 0 -168 -35.5t-142 -96.5t-113 -142t-84 -173.5t-50.5 -189.5t-17.5 -191q0 -252 117 -396t319 -144z" />
    <glyph glyph-name="one" unicode="1" horiz-adv-x="782" 
d="M424 0h-62l226 1067l47 221q-83 -107 -208 -190.5t-255 -124.5l16 71q133 49 264.5 147t233.5 243h41z" />
    <glyph glyph-name="two" unicode="2" horiz-adv-x="1146" 
d="M940 0h-864l14 66q31 21 102.5 66t137.5 86.5t153.5 103t160.5 119.5t147 133t125.5 147.5t83.5 157.5t32 168q0 151 -102.5 252.5t-261.5 101.5q-45 0 -90 -10.5t-93 -37.5t-86 -68.5t-66 -108.5t-36 -152l-57 16q16 139 81 235.5t154.5 139.5t194.5 43
q129 0 227.5 -57.5t147.5 -149.5t49 -202q0 -231 -201 -459q-118 -135 -286.5 -257.5t-416.5 -275.5h291h471z" />
    <glyph glyph-name="three" unicode="3" horiz-adv-x="1185" 
d="M553 -25q-201 0 -320 110.5t-110 303.5l63 25q-17 -174 87.5 -277.5t273.5 -103.5q178 0 289.5 102t111.5 264q0 140 -100.5 232t-241.5 92h-104l16 59h115q180 0 290.5 85t110.5 241q0 128 -98.5 210.5t-239.5 82.5q-157 0 -260.5 -92.5t-111.5 -235.5l-60 21
q20 166 135.5 265t294.5 99q183 0 292.5 -101t109.5 -247q0 -143 -86 -240.5t-234 -128.5q97 -38 167.5 -127t70.5 -213q0 -182 -127 -304t-334 -122z" />
    <glyph glyph-name="four" unicode="4" horiz-adv-x="1142" 
d="M711 0h-62l90 428h-678l13 57l837 949h103l-201 -951h246l-12 -55h-246zM397 483h355l153 727q13 57 19 86t20 90l-799 -903h252z" />
    <glyph glyph-name="five" unicode="5" horiz-adv-x="1198" 
d="M547 -25q-91 0 -164.5 21t-122 55.5t-83 81.5t-51 95.5t-20.5 101.5l60 18q7 -150 110.5 -232.5t270.5 -82.5q196 0 320 127t124 332q0 151 -99.5 252.5t-252.5 101.5q-127 0 -208.5 -47.5t-154.5 -153.5l-81 23l243 766h748l-12 -58h-697l-127 -403l-80 -254
q81 105 166 144.5t203 39.5q95 0 174.5 -34t132.5 -91.5t82 -131.5t29 -154q0 -226 -142.5 -371.5t-367.5 -145.5z" />
    <glyph glyph-name="six" unicode="6" horiz-adv-x="1226" 
d="M602 -25q-204 0 -315 130.5t-111 357.5q0 160 30 306.5t91 272t148 217.5t207.5 144.5t262.5 52.5q182 0 295 -55l-12 -62q-132 58 -280 58q-120 0 -222.5 -41.5t-178 -112.5t-133 -169.5t-92 -209.5t-50.5 -235q21 50 55 95.5t84.5 88t123.5 67.5t157 25q103 0 185 -35
t132.5 -95t77 -134.5t26.5 -157.5q0 -140 -58.5 -255t-169.5 -184t-253 -69zM602 33q183 0 300.5 128.5t117.5 317.5q0 167 -101 268t-257 101q-183 0 -300.5 -129t-117.5 -318q0 -167 100.5 -267.5t257.5 -100.5z" />
    <glyph glyph-name="seven" unicode="7" horiz-adv-x="1024" 
d="M254 0h-70q20 147 56 281.5t103.5 284.5t160.5 284t233 271.5t316 254.5h-277h-536l12 58h907l-8 -45q-192 -131 -341 -274.5t-244 -277.5t-161.5 -283t-99.5 -278.5t-51 -275.5z" />
    <glyph glyph-name="eight" unicode="8" horiz-adv-x="1236" 
d="M573 -25q-110 0 -196.5 31t-139.5 84.5t-80.5 121t-27.5 144.5q0 145 105 263t288 143q-90 34 -155.5 110.5t-65.5 188.5q0 176 126.5 286.5t315.5 110.5q192 0 303 -97.5t111 -240.5q0 -134 -92.5 -239t-245.5 -140q100 -29 174 -117.5t74 -215.5q0 -183 -141.5 -308
t-352.5 -125zM696 782q166 0 278.5 94t112.5 238q0 132 -95 209.5t-247 77.5q-160 0 -271.5 -94.5t-111.5 -237.5q0 -130 93.5 -208.5t240.5 -78.5zM565 33q186 0 311 105t125 265q0 146 -104 233t-266 87q-186 0 -311 -105.5t-125 -265.5q0 -145 103.5 -232t266.5 -87z" />
    <glyph glyph-name="nine" unicode="9" horiz-adv-x="1273" 
d="M438 -25q-71 0 -154 16t-141 50l13 63q123 -69 280 -69q273 0 459 196q193 207 223 570q-18 -42 -42.5 -80.5t-64 -77.5t-88 -67t-116 -46t-145.5 -18q-105 0 -189.5 35.5t-138 95.5t-81.5 135t-28 158q0 105 34 199.5t96 166t154.5 113t203.5 41.5q104 0 193 -41
t151 -115q127 -149 127 -387q0 -147 -28 -283t-88 -256t-146.5 -208t-210.5 -139.5t-273 -51.5zM659 571q190 0 316.5 121.5t126.5 306.5q0 110 -54.5 202.5t-142.5 144t-186 51.5q-194 0 -311 -130t-117 -325q0 -170 105.5 -270.5t262.5 -100.5z" />
    <glyph glyph-name="colon" unicode=":" horiz-adv-x="444" 
d="M330 772h-103l37 172h103zM168 0h-102l36 172h103z" />
    <glyph glyph-name="semicolon" unicode=";" horiz-adv-x="532" 
d="M381 772h-102l36 172h103zM72 -219h-58l152 219h-51l37 172h104l-37 -172z" />
    <glyph glyph-name="less" unicode="&#x3c;" horiz-adv-x="1382" 
d="M131 768l1102 504v-68l-762 -344l-297 -135q50 -23 149.5 -69t149.5 -68l760 -346v-68l-1102 512v82z" />
    <glyph glyph-name="equal" unicode="=" horiz-adv-x="1589" 
d="M1382 893h-1106v57h1106v-57zM1382 500h-1106v57h1106v-57z" />
    <glyph glyph-name="greater" unicode="&#x3e;" horiz-adv-x="1382" 
d="M1346 678l-1102 -504v68l762 344l297 135q-50 23 -149.5 69t-149.5 68l-760 346v68l1102 -512v-82z" />
    <glyph glyph-name="question" unicode="?" horiz-adv-x="921" 
d="M410 375h-64q15 66 23 96t25 76t37.5 74t55.5 62.5t84 68.5q58 40 81.5 56.5t68 50t63 52t46 50t38.5 58t20 60.5t9 72q0 104 -77.5 176t-203.5 72q-161 0 -251.5 -101t-88.5 -280l-57 12q-3 191 104.5 308.5t288.5 117.5q152 0 249 -87t97 -218q0 -43 -10.5 -83.5
t-23.5 -71t-43.5 -66.5t-51.5 -57.5t-68.5 -58t-72.5 -54t-84 -58.5q-51 -35 -81 -63.5t-50 -67t-30 -71.5t-27 -100q-4 -17 -6 -25zM360 0h-102l37 172h102z" />
    <glyph glyph-name="at" unicode="@" horiz-adv-x="1875" 
d="M948 -248q-230 0 -412 97t-284 271t-102 394q0 193 66 364.5t183.5 297t288.5 199t371 73.5q173 0 318.5 -53.5t242.5 -146.5t151 -219t54 -269q0 -130 -41 -241.5t-106 -182.5t-143.5 -110.5t-156.5 -39.5q-98 0 -142.5 51t-25.5 136q-138 -187 -327 -187
q-126 0 -202.5 82t-76.5 226q0 138 50.5 259t150.5 199t229 78q63 0 113.5 -20t82 -53.5t50 -64t29.5 -63.5q21 105 37 175h55l-135 -637q-11 -62 20 -93.5t90 -31.5q67 0 135.5 38.5t124.5 104.5t91.5 165t35.5 210q0 131 -49 246t-138 200.5t-223 135t-294 49.5
q-189 0 -349 -69t-268 -187.5t-168.5 -279t-60.5 -341.5q0 -205 95 -366t261.5 -249.5t374.5 -88.5q164 0 310.5 46t246.5 132l33 -56q-230 -180 -586 -180zM889 242q105 0 196 70t141 176.5t50 218.5q0 124 -69 196t-179 72q-109 0 -193.5 -69.5t-126.5 -176.5t-42 -227
q0 -126 61 -193t162 -67z" />
    <glyph glyph-name="A" unicode="A" horiz-adv-x="1327" 
d="M1141 0h-66l-78 473h-671l-275 -473h-74l842 1434h82zM680 1083l-322 -553h631l-90 549q-28 180 -45 299q-82 -137 -174 -295z" />
    <glyph glyph-name="B" unicode="B" horiz-adv-x="1417" 
d="M776 0h-633l303 1434h512q165 0 265 -86.5t100 -235.5q0 -129 -82 -227.5t-223 -136.5q92 -25 161.5 -106.5t69.5 -205.5q0 -188 -135.5 -312t-337.5 -124zM496 1376l-127 -602h471q183 0 301.5 92.5t118.5 245.5q0 120 -80.5 192t-225.5 72h-458zM356 717l-139 -660h557
q177 0 292.5 107t115.5 272q0 56 -19 105.5t-57 89.5t-101.5 63t-144.5 23h-504z" />
    <glyph glyph-name="C" unicode="C" horiz-adv-x="1499" 
d="M754 -25q-258 0 -415 172t-157 437q0 177 49 334.5t138.5 278t226.5 191t303 70.5q113 0 210.5 -31t161.5 -78t112 -105.5t71 -109.5t31 -94l-62 -16q-12 48 -36 96t-68 100t-100.5 91t-140 64.5t-179.5 25.5q-124 0 -230 -43t-182.5 -119t-131 -178.5t-81 -222
t-26.5 -248.5q0 -158 61 -284.5t176.5 -199.5t266.5 -73q402 0 579 397l60 -29q-27 -60 -62 -114t-91 -113t-122.5 -101.5t-160.5 -70t-201 -27.5z" />
    <glyph glyph-name="D" unicode="D" horiz-adv-x="1480" 
d="M580 0h-437l303 1434h289q140 0 259.5 -43.5t207.5 -124.5t137.5 -204t49.5 -274q0 -163 -56.5 -306.5t-159 -250.5t-256 -169t-337.5 -62zM494 1376l-279 -1319h365q173 0 315.5 58t236 158t144.5 232.5t51 282.5q0 274 -164 431t-450 157h-219z" />
    <glyph glyph-name="E" unicode="E" horiz-adv-x="1280" 
d="M1073 0h-930l303 1434h930l-12 -58h-868l-127 -598h665l-12 -57h-666l-139 -664h868z" />
    <glyph glyph-name="F" unicode="F" horiz-adv-x="1280" 
d="M205 0h-62l303 1434h975l-12 -58h-913l-129 -612h702l-12 -57h-703z" />
    <glyph glyph-name="G" unicode="G" horiz-adv-x="1603" 
d="M758 -25q-172 0 -303.5 80.5t-203 224.5t-71.5 330q0 166 55 319t153 270.5t244 188t316 70.5q121 0 223 -31.5t166.5 -77.5t112.5 -105.5t70.5 -109t31.5 -94.5l-63 -18q-11 48 -33.5 96t-66.5 100.5t-102 92t-146 65t-193 25.5q-127 0 -240 -42.5t-196.5 -118
t-144.5 -175t-92 -216t-31 -239.5q0 -255 141.5 -416t370.5 -161q250 0 417.5 153.5t235.5 419.5h-553l10 58h617l-140 -664h-61l74 340q-33 -61 -68 -110.5t-87.5 -98.5t-113.5 -82t-145.5 -53.5t-183.5 -20.5z" />
    <glyph glyph-name="H" unicode="H" horiz-adv-x="1570" 
d="M203 0h-60l303 1434h60l-139 -656h954l139 656h60l-303 -1434h-60l152 721h-955z" />
    <glyph glyph-name="I" unicode="I" horiz-adv-x="559" 
d="M205 0h-62l303 1434h62z" />
    <glyph glyph-name="J" unicode="J" horiz-adv-x="958" 
d="M301 -25q-163 0 -233.5 121.5t-1.5 331.5l65 8q-36 -104 -37 -184t28.5 -126.5t74 -69.5t102.5 -23q266 0 342 354l223 1047h60l-228 -1072q-19 -87 -48.5 -154t-75.5 -121t-114.5 -83t-156.5 -29z" />
    <glyph glyph-name="K" unicode="K" horiz-adv-x="1312" 
d="M1313 1434h90l-705 -615l498 -819h-74l-469 776l-352 -307l-98 -469h-60l303 1434h60l-123 -582l-61 -289z" />
    <glyph glyph-name="L" unicode="L" horiz-adv-x="1126" 
d="M987 0h-844l303 1434h62l-291 -1377h782z" />
    <glyph glyph-name="M" unicode="M" horiz-adv-x="1822" 
d="M205 0h-62l303 1434h99l237 -1141q37 -175 41 -197q40 66 123 197l721 1141h105l-304 -1434h-61l235 1114q6 28 17 78t20 92t17 82l-862 -1366h-56l-282 1368l-56 -260z" />
    <glyph glyph-name="N" unicode="N" horiz-adv-x="1570" 
d="M203 0h-60l303 1434h68l660 -1356l59 282l227 1074h60l-303 -1434h-74l-656 1346l-61 -291z" />
    <glyph glyph-name="O" unicode="O" horiz-adv-x="1652" 
d="M813 -25q-182 0 -326.5 79.5t-225.5 223t-81 324.5q0 177 57.5 335.5t157 272.5t239.5 181t298 67q278 0 455.5 -176t177.5 -453q0 -235 -98 -430.5t-271 -309.5t-383 -114zM809 33q145 0 273.5 63t220 169.5t145 253.5t53.5 310q0 158 -70 288t-200 207t-295 77
q-194 0 -353 -106t-249 -286.5t-90 -396.5q0 -163 69.5 -294.5t199.5 -208t296 -76.5z" />
    <glyph glyph-name="P" unicode="P" horiz-adv-x="1288" 
d="M205 0h-62l303 1434h451q98 0 177.5 -31t130 -83.5t77.5 -119.5t27 -141q0 -193 -138 -309.5t-352 -116.5h-481zM496 1376l-146 -686h451q202 0 323 100t121 269q0 60 -21.5 115t-63 101t-111 73.5t-158.5 27.5h-395z" />
    <glyph glyph-name="Q" unicode="Q" horiz-adv-x="1671" 
d="M813 -25q-182 0 -326.5 79.5t-225.5 223t-81 324.5q0 177 57.5 335.5t157 272.5t239.5 181t298 67q278 0 455.5 -176t177.5 -453q0 -212 -81 -392.5t-224 -299.5q39 -63 100.5 -82.5t179.5 -19.5l-12 -60q-110 0 -190.5 26.5t-125.5 98.5q-186 -125 -399 -125zM809 33
q209 0 375 125l-90 217q-22 52 -41.5 84t-51 60t-77.5 39t-111 7l12 58q117 6 190.5 -40.5t127.5 -172.5q16 -36 44 -107.5t44 -107.5q126 110 198 276t72 358q0 158 -70 288t-200 207t-295 77q-194 0 -353 -106t-249 -286.5t-90 -396.5q0 -163 69.5 -294.5t199.5 -208
t296 -76.5z" />
    <glyph glyph-name="R" unicode="R" horiz-adv-x="1378" 
d="M205 0h-62l303 1434h461q175 0 278 -97t103 -239q0 -176 -97 -282.5t-261 -135.5q94 -25 136.5 -96t57.5 -195l50 -389h-64l-45 379q-7 60 -17.5 100.5t-30.5 76.5t-51 56t-78.5 31.5t-113.5 11.5h-430zM496 1376l-142 -665h434q202 0 320.5 100.5t118.5 282.5
q0 121 -84 201.5t-244 80.5h-403z" />
    <glyph glyph-name="S" unicode="S" horiz-adv-x="1214" 
d="M561 -25q-197 0 -329.5 90t-159.5 248l59 31q20 -142 140 -225.5t288 -83.5q193 0 315.5 95t122.5 255q0 217 -276 307l-184 62q-112 37 -182 112t-70 189q0 185 127 294t331 109q86 0 158.5 -22t118.5 -55t80.5 -75t50 -78t20.5 -67l-57 -24q-5 29 -18.5 60t-43 68.5
t-69 66t-103 48t-139.5 19.5q-179 0 -286 -92t-107 -250q0 -90 61.5 -151.5t192.5 -106.5l164 -56q134 -45 214.5 -135t80.5 -219q0 -188 -138 -301t-362 -113z" />
    <glyph glyph-name="T" unicode="T" horiz-adv-x="1232" 
d="M524 0h-61l291 1376h-535l12 58h1168l-13 -58h-571z" />
    <glyph glyph-name="U" unicode="U" horiz-adv-x="1361" 
d="M588 -25q-230 0 -321 138.5t-38 386.5l199 934h61l-196 -916q-49 -232 23 -358.5t272 -126.5q199 0 318 128t173 376l193 897h61l-194 -914q-57 -268 -191 -406.5t-360 -138.5z" />
    <glyph glyph-name="V" unicode="V" horiz-adv-x="1247" 
d="M565 0h-96l-164 1434h60l122 -1047q11 -119 37 -332q61 105 152 273l594 1106h67z" />
    <glyph glyph-name="W" unicode="W" horiz-adv-x="1908" 
d="M461 0h-94l-52 1434h62l35 -1059q5 -168 12 -320q125 254 162 324l530 1055h66l82 -1055q14 -191 26 -324q121 263 148 324l483 1055h68l-660 -1434h-92l-88 1083l-19 252l-126 -254z" />
    <glyph glyph-name="X" unicode="X" horiz-adv-x="1196" 
d="M33 0h-78l655 737l-325 697h67l230 -494q27 -54 71 -154q54 56 135 150l443 498h78l-625 -699l346 -735h-69l-244 526l-76 164q-78 -93 -141 -164z" />
    <glyph glyph-name="Y" unicode="Y" horiz-adv-x="1294" 
d="M571 0h-61l135 637l-332 797h70l258 -629l43 -98q52 56 98 110l514 617h80l-671 -799z" />
    <glyph glyph-name="Z" unicode="Z" horiz-adv-x="1140" 
d="M977 0h-1018l14 72l1184 1304h-172h-672l13 58h925l-12 -58l-1196 -1319h166h780z" />
    <glyph glyph-name="bracketleft" unicode="[" horiz-adv-x="647" 
d="M416 -307h-350l393 1853h350l-12 -57h-289l-369 -1739h289z" />
    <glyph glyph-name="backslash" unicode="\" horiz-adv-x="780" 
d="M545 -227h-60l-159 1888h59z" />
    <glyph glyph-name="bracketright" unicode="]" horiz-adv-x="647" 
d="M281 1546h350l-393 -1853h-351l13 57h288l369 1739h-289z" />
    <glyph glyph-name="asciicircum" unicode="^" horiz-adv-x="931" 
d="M264 690h-67l307 744h57l316 -744h-66l-190 453q-62 145 -89 211l-86 -209z" />
    <glyph glyph-name="underscore" unicode="_" horiz-adv-x="1095" 
d="M862 -213h-913l12 59h913z" />
    <glyph glyph-name="grave" unicode="`" horiz-adv-x="514" 
d="M489 1159h-45l-153 234h88z" />
    <glyph glyph-name="a" unicode="a" horiz-adv-x="1081" 
d="M369 -25q-130 0 -203.5 65t-73.5 185q0 108 63.5 190.5t171 129.5t236.5 69.5t273 20.5l8 37q7 43 6 85t-21.5 81t-53 68.5t-87.5 47t-125 17.5q-74 0 -135.5 -19t-102 -51t-67 -65.5t-41.5 -69.5l-55 31q8 21 24.5 47t51 59.5t78 60.5t110 45.5t143.5 18.5
q84 0 153.5 -25.5t116.5 -75t64.5 -122t-2.5 -166.5l-98 -446q-29 -136 88 -136h84l-12 -57h-74q-102 0 -135 64t-4 145q-141 -234 -381 -234zM373 33q63 0 126 23.5t121.5 71t105 129.5t69.5 189l28 136q-128 -1 -241.5 -20.5t-211.5 -59t-156 -110.5t-58 -165
q0 -93 59 -143.5t158 -50.5z" />
    <glyph glyph-name="b" unicode="b" horiz-adv-x="1159" 
d="M573 -25q-145 0 -238 78.5t-120 212.5l-55 -266h-60l306 1434h59l-92 -430l-37 -168q57 89 144.5 140.5t199.5 51.5q153 0 256.5 -103.5t103.5 -291.5q0 -129 -32 -246.5t-90 -209.5t-147.5 -147t-197.5 -55zM569 33q94 0 172.5 50.5t129.5 134t78.5 190t27.5 221.5
q0 161 -85.5 251.5t-217.5 90.5q-96 0 -176 -49.5t-132.5 -132.5t-81 -188.5t-28.5 -219.5q0 -161 89 -254.5t224 -93.5z" />
    <glyph glyph-name="c" unicode="c" horiz-adv-x="1046" 
d="M475 -25q-162 0 -260 106.5t-98 297.5q0 120 35 236t96.5 208t156.5 148.5t205 56.5q157 0 249.5 -82.5t115.5 -202.5l-62 -16q-20 104 -98 174t-203 70q-99 0 -183 -52.5t-137 -137t-82.5 -187.5t-29.5 -207q0 -173 81.5 -263.5t213.5 -90.5q74 0 139 26t111 69.5
t77.5 90.5t51.5 98l61 -28q-147 -314 -440 -314z" />
    <glyph glyph-name="d" unicode="d" horiz-adv-x="1159" 
d="M479 -25q-153 0 -256.5 104t-103.5 292q0 129 32 246.5t90 209.5t147.5 146.5t197.5 54.5q145 0 238 -78.5t120 -212.5q7 38 47 228l101 469h59l-305 -1434h-58l35 168q-57 -89 -144.5 -141t-199.5 -52zM485 33q96 0 176 49.5t132.5 132.5t81 188.5t28.5 219.5
q0 161 -89 254.5t-224 93.5q-94 0 -172.5 -50.5t-129.5 -134t-78.5 -190t-27.5 -221.5q0 -161 85.5 -251.5t217.5 -90.5z" />
    <glyph glyph-name="e" unicode="e" horiz-adv-x="1079" 
d="M473 -25q-159 0 -257.5 100t-98.5 302q0 119 34 234t96 208.5t158.5 151t210.5 57.5q102 0 180.5 -41t120 -110.5t52.5 -162.5t-21 -198h-755q-24 -98 -14.5 -185.5t42.5 -153.5t98.5 -105t153.5 -39q76 0 141.5 21.5t112.5 59t79 77t56 85.5l58 -30q-144 -271 -447 -271
zM203 571h694q24 108 -1 198.5t-98.5 146t-181.5 55.5q-80 0 -149.5 -32t-120.5 -88t-87 -126.5t-56 -153.5z" />
    <glyph glyph-name="f" unicode="f" horiz-adv-x="706" 
d="M461 948l-201 -948h-59l200 948h-268l12 56h269l35 163q28 131 104 199t223 68h123l-12 -58h-123q-109 0 -171.5 -53.5t-86.5 -161.5l-33 -157h305l-12 -56h-305z" />
    <glyph glyph-name="g" unicode="g" horiz-adv-x="1107" 
d="M614 -399h-452q-119 0 -175.5 50t-56.5 128q0 84 60.5 146.5t148.5 97.5q-35 15 -62.5 52.5t-27.5 80.5q0 80 59 146.5t148 109.5q-68 84 -68 204q0 175 110.5 293.5t279.5 118.5q118 0 206 -56.5t121 -156.5q10 92 65.5 140.5t131.5 48.5h76l-11 -56h-39q-28 0 -46 -2
t-43.5 -11.5t-42.5 -27.5t-31.5 -53.5t-20.5 -85.5l-12 -104q-21 -177 -132 -271t-265 -94q-150 0 -242 76q-81 -37 -132.5 -91.5t-51.5 -119.5q0 -45 34.5 -77t98.5 -32h424q122 0 192 -54t70 -148q0 -118 -85 -185t-229 -67zM532 354q153 0 246.5 95t93.5 243
q0 121 -81.5 201t-215.5 80q-147 0 -237 -104t-90 -255q0 -122 74 -191t210 -69zM178 -344h422q134 0 199 51.5t65 142.5q0 150 -223 150h-426q-86 -23 -154.5 -80.5t-68.5 -130.5q0 -55 43 -94t143 -39z" />
    <glyph glyph-name="h" unicode="h" horiz-adv-x="1175" 
d="M160 0h-60l306 1434h57l-109 -504l-32 -152q11 25 30.5 54.5t53 65t73 64t95.5 47.5t116 19q190 0 273.5 -126t40.5 -331l-123 -571h-62l119 557q43 206 -25 310t-221 104q-78 0 -145 -32t-112 -80t-80.5 -112t-55 -119.5t-31.5 -111.5z" />
    <glyph glyph-name="i" unicode="i" horiz-adv-x="475" 
d="M430 1253h-63l39 181h63zM162 0h-62l213 1004h60z" />
    <glyph glyph-name="j" unicode="j" horiz-adv-x="491" 
d="M449 1253h-66l39 181h65zM-156 -399h-102l12 57h94q195 0 242 215l240 1131h59l-239 -1137q-28 -130 -99.5 -198t-206.5 -68z" />
    <glyph glyph-name="k" unicode="k" horiz-adv-x="1089" 
d="M1032 1004h92l-557 -412l391 -592h-73l-365 557l-287 -211l-73 -346h-60l303 1434h60l-154 -729q-43 -199 -59 -279z" />
    <glyph glyph-name="l" unicode="l" horiz-adv-x="473" 
d="M160 0h-60l303 1434h60z" />
    <glyph glyph-name="m" unicode="m" horiz-adv-x="1835" 
d="M158 0h-58l213 1004h56l-41 -193q10 25 33 56.5t64 70t107 64.5t142 26q139 0 221.5 -74.5t87.5 -195.5q21 48 50 90t74 85.5t111 69t144 25.5q177 0 262.5 -113.5t44.5 -306.5l-129 -608h-57l127 602q39 187 -33.5 278t-220.5 91q-48 0 -91 -11.5t-76 -29t-62 -46
t-49 -54.5t-38.5 -64t-29.5 -65.5t-22 -66.5t-15.5 -59.5t-11.5 -52.5l-111 -522h-59l127 604q39 186 -32 276.5t-220 90.5q-49 0 -92.5 -11.5t-76.5 -29t-62.5 -46t-49.5 -55t-38.5 -65t-29.5 -65.5t-22 -66.5t-15.5 -59.5t-11.5 -53z" />
    <glyph glyph-name="n" unicode="n" horiz-adv-x="1175" 
d="M160 0h-60l213 1004h58l-49 -226q11 25 30.5 54.5t53.5 65t74 64t96 47.5t116 19q190 0 271.5 -125.5t37.5 -333.5l-120 -569h-62l119 557q43 206 -25 310t-221 104q-78 0 -145 -32t-112 -80t-80.5 -112t-55 -119.5t-31.5 -111.5z" />
    <glyph glyph-name="o" unicode="o" horiz-adv-x="1153" 
d="M524 -25q-82 0 -154.5 29t-128.5 83t-89 140t-33 193q0 113 36.5 222t101.5 195t163 138.5t211 52.5q82 0 154 -28.5t128 -83t88.5 -140t32.5 -192.5q0 -90 -22.5 -178.5t-67 -166t-105.5 -136.5t-142.5 -93.5t-172.5 -34.5zM522 33q97 0 182.5 48t142.5 125t89.5 174
t32.5 195q0 186 -95 291t-243 105q-97 0 -182.5 -48t-142.5 -125.5t-89.5 -174.5t-32.5 -195q0 -186 95 -290.5t243 -104.5z" />
    <glyph glyph-name="p" unicode="p" horiz-adv-x="1159" 
d="M76 -399h-60l297 1403h60l-37 -168q57 89 144.5 140.5t199.5 51.5q153 0 256.5 -103.5t103.5 -291.5q0 -129 -32 -246.5t-90 -209.5t-147.5 -147t-197.5 -55q-145 0 -238 78.5t-120 212.5l-43 -209zM569 33q94 0 172.5 50.5t129.5 134t78.5 190t27.5 221.5
q0 161 -85.5 251.5t-217.5 90.5q-96 0 -176 -49.5t-132.5 -132.5t-81 -188.5t-28.5 -219.5q0 -161 89 -254.5t224 -93.5z" />
    <glyph glyph-name="q" unicode="q" horiz-adv-x="1159" 
d="M762 -399h-62l91 426l30 141q-57 -89 -143.5 -141t-198.5 -52q-153 0 -256.5 104t-103.5 292q0 129 32 246.5t90 209.5t147.5 146.5t197.5 54.5q144 0 236.5 -78.5t119.5 -212.5l55 267h62zM485 33q96 0 176 49.5t132.5 132.5t81 188.5t28.5 219.5q0 161 -89 254.5
t-224 93.5q-94 0 -172.5 -50.5t-129.5 -134t-78.5 -190t-27.5 -221.5q0 -161 85.5 -251.5t217.5 -90.5z" />
    <glyph glyph-name="r" unicode="r" horiz-adv-x="788" 
d="M162 0h-62l215 1004h58l-54 -252q50 110 152 187t231 77q87 0 152 -21l-12 -59q-81 18 -150 18q-83 0 -155.5 -39t-125.5 -107.5t-91 -156.5t-60 -192z" />
    <glyph glyph-name="s" unicode="s" horiz-adv-x="970" 
d="M446 -25q-96 0 -171.5 25t-120.5 67t-68 91.5t-23 101.5l60 21q0 -102 84.5 -174t236.5 -72q147 0 225.5 65.5t78.5 163.5q0 79 -52.5 132t-144.5 79l-137 39q-228 65 -228 236q0 124 94.5 201t243.5 77q146 0 240 -74t108 -182l-59 -22q-13 94 -87.5 157.5t-201.5 63.5
t-201.5 -61t-74.5 -152q0 -135 172 -183l137 -38q118 -33 188 -100.5t70 -168.5q0 -127 -96 -210t-273 -83z" />
    <glyph glyph-name="t" unicode="t" horiz-adv-x="749" 
d="M631 0h-139q-307 0 -240 315l133 633h-266l12 56h266l62 288h59l-61 -288h303l-12 -56h-304l-137 -647q-52 -244 180 -244h156z" />
    <glyph glyph-name="u" unicode="u" horiz-adv-x="1155" 
d="M463 -25q-195 0 -266 125.5t-19 358.5l119 545h59l-118 -566q-84 -405 223 -405q154 0 267 121t159 338l108 512h60l-213 -1004h-58q47 210 52 236q-133 -261 -373 -261z" />
    <glyph glyph-name="v" unicode="v" horiz-adv-x="1050" 
d="M467 0h-84l-199 1004h62l106 -560q52 -259 80 -391q56 92 225 377l342 574h68z" />
    <glyph glyph-name="w" unicode="w" horiz-adv-x="1615" 
d="M406 0h-82l-131 1004h59l72 -576l49 -375q125 240 198 377l306 574h69l60 -576q22 -223 38 -375l209 377l318 574h65l-557 -1004h-84l-69 672l-27 260q-79 -145 -139 -260z" />
    <glyph glyph-name="x" unicode="x" horiz-adv-x="925" 
d="M37 0h-80l475 526l-227 478h65l136 -289l67 -140q52 54 125 138l262 291h80l-436 -480l254 -524h-72l-154 324q-60 126 -71 147l-131 -145z" />
    <glyph glyph-name="y" unicode="y" horiz-adv-x="1011" 
d="M580 338l383 666h67l-672 -1168q-73 -129 -144.5 -182t-201.5 -53h-108l12 57h100q91 0 154.5 39t128.5 153l117 203l-230 951h66l156 -664q18 -81 51 -213q45 82 121 211z" />
    <glyph glyph-name="z" unicode="z" horiz-adv-x="944" 
d="M762 0h-776l12 55l848 891h-170h-481l12 58h737l-10 -52l-852 -895h178h512z" />
    <glyph glyph-name="braceleft" unicode="{" horiz-adv-x="620" 
d="M379 -307h-76q-97 0 -138 56.5t-18 158.5l66 303q34 155 38 187q14 117 -46 159q-47 33 -146 33l13 59q50 0 89.5 8.5t67.5 22.5t49.5 38t35.5 49t25.5 61t18.5 68t16 77q7 36 11 55l66 303q23 107 75 161t146 54h100l-12 -57h-88q-126 0 -160 -156l-72 -336
q-3 -16 -11 -55t-12.5 -59t-14.5 -56t-20.5 -57t-28.5 -49.5t-38.5 -46t-51 -34.5t-66.5 -26q38 -12 63 -32.5t36.5 -49t16 -56t0 -66.5t-9.5 -67t-15 -70q-5 -21 -7 -31l-72 -336q-34 -156 94 -156h88z" />
    <glyph glyph-name="bar" unicode="|" horiz-adv-x="532" 
d="M141 -227h-59l401 1888h60z" />
    <glyph glyph-name="braceright" unicode="}" horiz-adv-x="620" 
d="M291 1546h76q97 0 137.5 -56t17.5 -159l-65 -303q-4 -17 -11 -49q-10 -41 -14 -61.5t-10 -55.5t-6 -53t2 -45t10.5 -40.5t23 -30.5t36 -25t52.5 -13.5t70 -5.5l-12 -59q-50 0 -89.5 -8.5t-67.5 -22.5t-49.5 -38t-35.5 -49t-25.5 -61t-18.5 -68t-16 -77q-7 -36 -11 -55
l-66 -303q-23 -107 -75 -161t-146 -54h-100l12 57h88q126 0 160 156l71 336q3 15 9 43.5t9.5 46.5t10.5 45.5t13 46.5t17 43.5t22.5 42t28 37t35.5 33t44.5 26t54.5 19.5q-38 12 -63 32.5t-36.5 49t-16 56t0 66.5t9.5 67t15 70q5 21 7 31l72 336q34 156 -94 156h-88z" />
    <glyph glyph-name="asciitilde" unicode="~" horiz-adv-x="1306" 
d="M934 696q-42 0 -85.5 11.5t-119.5 44.5l-61 26q-117 51 -183 51q-107 0 -213 -116l-43 45q118 131 263 131q78 0 204 -55l62 -27q117 -51 182 -51q107 0 213 116l43 -43q-114 -133 -262 -133z" />
    <glyph glyph-name="uni00A0" unicode="&#xa0;" horiz-adv-x="604" 
 />
    <glyph glyph-name="exclamdown" unicode="&#xa1;" horiz-adv-x="497" 
d="M322 1081h102l-35 -172h-102zM272 707h39l-143 -732l-66 -327h-63l70 327z" />
    <glyph glyph-name="cent" unicode="&#xa2;" horiz-adv-x="1052" 
d="M412 -246h-60l49 230q-129 24 -204.5 127t-75.5 268q0 96 22 190t66 176.5t103 146t139.5 100t169.5 36.5l45 209h61l-45 -213q124 -19 201.5 -100t93.5 -181l-62 -18q-19 95 -80.5 162t-164.5 80l-131 -615l-68 -319q133 0 235.5 75.5t155.5 206.5l58 -26
q-76 -162 -189 -238t-272 -76zM412 39l135 631q10 50 31.5 150.5t31.5 150.5q-97 -3 -179.5 -56.5t-135.5 -137.5t-82 -185.5t-29 -204.5q0 -150 62 -238.5t166 -109.5z" />
    <glyph glyph-name="sterling" unicode="&#xa3;" horiz-adv-x="1148" 
d="M760 1454q178 0 289 -104.5t112 -276.5l-61 -26q0 159 -91.5 254.5t-244.5 95.5q-93 0 -171 -33t-128.5 -88t-78.5 -126.5t-28 -148.5q0 -54 9.5 -103t21.5 -81t30 -73q5 -10 7 -15h424l-12 -57h-387q34 -96 34 -201q0 -135 -76 -246t-216 -168h256h505l-10 -57h-899
l12 61q101 28 180.5 80t132 138t52.5 192t-43 201h-189l13 57h151q-19 42 -30.5 72.5t-21 81.5t-9.5 108q0 89 31.5 172t89 148t148 104t198.5 39z" />
    <glyph glyph-name="currency" unicode="&#xa4;" horiz-adv-x="1298" 
d="M369 395l-197 -168l-35 43l197 172q-55 86 -55 207q0 224 137 371l-135 164l41 37l135 -162q124 100 280 100q177 0 283 -112l197 172l34 -43l-194 -175q57 -88 57 -210q0 -111 -36.5 -206.5t-102.5 -164.5l129 -158l-43 -37l-129 156q-118 -98 -277 -98q-180 0 -286 112
zM655 338q114 0 206 62t143 165.5t51 225.5q0 145 -87 229t-231 84q-114 0 -206 -62t-142.5 -165t-50.5 -224q0 -146 86.5 -230.5t230.5 -84.5z" />
    <glyph glyph-name="yen" unicode="&#xa5;" horiz-adv-x="1226" 
d="M1266 1434h77l-616 -740h283l-13 -57h-317l-53 -250h317l-12 -57h-318l-69 -330h-62l70 330h-340l12 57h340l53 250h-339l12 57h303l-328 740h68l272 -629q27 -55 49 -107l88 103z" />
    <glyph glyph-name="brokenbar" unicode="&#xa6;" horiz-adv-x="532" 
d="M360 799h-59l182 862h60zM141 -227h-59l184 866h60z" />
    <glyph glyph-name="section" unicode="&#xa7;" horiz-adv-x="1183" 
d="M459 -420q-76 0 -140.5 18t-106.5 46t-73 64t-46.5 68.5t-20.5 63.5l59 29q4 -36 23.5 -73t56 -73.5t100.5 -59.5t146 -23q144 0 235.5 76t91.5 202q0 175 -233 256l-174 62q-133 47 -202 119t-69 184q0 130 84 225t238 145q-84 73 -84 191q0 154 107.5 256t281.5 102
q72 0 135 -19t105 -48t74 -65.5t48 -69t21 -60.5l-57 -27q-4 32 -25.5 69.5t-59.5 74.5t-102 61.5t-141 24.5q-143 0 -234 -80.5t-91 -206.5q0 -52 13 -87.5t48 -64.5t81 -49.5t128 -48.5l121 -41q144 -49 216 -123t72 -188q0 -137 -89.5 -238t-235.5 -145q88 -85 88 -203
q0 -152 -107 -248t-282 -96zM709 168q132 28 222.5 123t90.5 209q0 98 -60 160t-188 106l-156 53q-80 26 -131 51q-137 -30 -228 -120.5t-91 -204.5q0 -96 60.5 -155.5t187.5 -104.5l137 -49q93 -33 156 -68z" />
    <glyph glyph-name="dieresis" unicode="&#xa8;" horiz-adv-x="704" 
d="M383 1239h-82l29 143h82zM719 1239h-82l29 143h82z" />
    <glyph glyph-name="copyright" unicode="&#xa9;" horiz-adv-x="1851" 
d="M975 -72q-166 0 -312 61.5t-248.5 166.5t-162 250t-59.5 307q0 161 59.5 306.5t162 252.5t248.5 170t312 63q165 0 310 -63t246 -170t159.5 -252.5t58.5 -306.5q0 -217 -99 -396.5t-277 -284t-398 -104.5zM973 -14q205 0 368 96t252.5 261.5t89.5 369.5t-89.5 371.5
t-252.5 265.5t-368 98q-154 0 -287.5 -57.5t-227 -156t-147 -234t-53.5 -287.5t53.5 -286.5t147 -231.5t227 -153t287.5 -56zM979 291q-168 0 -266.5 115.5t-98.5 314.5q0 187 97.5 308.5t263.5 121.5q128 0 219.5 -74t116.5 -178l-56 -22q-31 97 -104.5 158t-173.5 61
q-131 0 -216 -97t-85 -278q0 -180 83.5 -277.5t221.5 -97.5q63 0 114.5 23.5t83.5 62.5t51.5 76t31.5 78l59 -17q-39 -123 -123 -200.5t-219 -77.5z" />
    <glyph glyph-name="ordfeminine" unicode="&#xaa;" horiz-adv-x="1030" 
d="M549 592q-133 0 -224.5 89.5t-91.5 256.5q0 98 28 190.5t78.5 165t127.5 116.5t168 44q116 0 197 -60t108 -159l43 199h57l-174 -822h-55l27 127q-48 -69 -123.5 -108t-165.5 -39zM559 647q103 0 184 69.5t121.5 177.5t40.5 232q0 128 -77.5 200.5t-190.5 72.5
q-103 0 -183 -68.5t-119.5 -171.5t-39.5 -217q0 -142 75.5 -218.5t188.5 -76.5z" />
    <glyph glyph-name="guillemotleft" unicode="&#xab;" horiz-adv-x="933" 
d="M459 903h76l-342 -395l167 -381h-67l-170 387zM821 903h76l-369 -428l154 -348h-68l-155 354z" />
    <glyph glyph-name="logicalnot" unicode="&#xac;" horiz-adv-x="1515" 
d="M1311 385h-62v330h-1026v57h1088v-387z" />
    <glyph glyph-name="uni00AD" unicode="&#xad;" horiz-adv-x="753" 
d="M596 596h-406l15 68h405z" />
    <glyph glyph-name="registered" unicode="&#xae;" horiz-adv-x="1243" 
d="M725 545q-205 0 -344 136.5t-139 344.5t138 343.5t345 135.5q208 0 347.5 -135.5t139.5 -343.5t-140 -344.5t-347 -136.5zM725 602q185 0 305.5 118.5t120.5 305.5t-120.5 304.5t-305.5 117.5q-183 0 -302.5 -117.5t-119.5 -304.5t119.5 -305.5t302.5 -118.5zM625 801
h-58v469h197q62 0 103.5 -34.5t41.5 -86.5q0 -90 -100 -117q32 -8 51 -26.5t29 -59.5l33 -145h-64l-27 131q-8 40 -29.5 60t-64.5 20h-112v-211zM625 1214v-149h135q38 0 63 21t25 55q0 32 -25 52.5t-63 20.5h-135z" />
    <glyph glyph-name="macron" unicode="&#xaf;" horiz-adv-x="741" 
d="M823 1227h-598l13 55h598z" />
    <glyph glyph-name="degree" unicode="&#xb0;" horiz-adv-x="845" 
d="M571 956q-126 0 -209 85t-83 208q0 124 84 210.5t210 86.5q127 0 211 -86t84 -211q0 -126 -84 -209.5t-213 -83.5zM573 1012q107 0 170.5 65.5t63.5 173.5q0 107 -64 172.5t-170 65.5q-102 0 -167.5 -66.5t-65.5 -171.5q0 -108 65.5 -173.5t167.5 -65.5z" />
    <glyph glyph-name="plusminus" unicode="&#xb1;" horiz-adv-x="1521" 
d="M807 457h-62v383h-528v57h528v385l62 -2v-383h526v-57h-526v-383zM1329 170h-1108v59h1108v-59z" />
    <glyph glyph-name="uni00B2" unicode="&#xb2;" horiz-adv-x="712" 
d="M692 821h-491l12 56q280 172 393 286.5t113 235.5q0 76 -50 127t-124 51q-91 0 -145 -59.5t-54 -161.5l-55 14q3 120 73 191t183 71q98 0 164.5 -66.5t66.5 -164.5q0 -129 -112 -250q-106 -113 -363 -274h309h93z" />
    <glyph glyph-name="uni00B3" unicode="&#xb3;" horiz-adv-x="729" 
d="M471 809q-118 0 -185 67t-59 177l62 22q-17 -93 34 -152t146 -59q91 0 148 51.5t57 133.5q0 70 -49.5 116.5t-122.5 46.5h-74l16 56h72q95 0 149 43.5t54 120.5q0 63 -48 104t-122 41q-85 0 -138.5 -50.5t-50.5 -129.5l-57 18q7 99 75 158t171 59q100 0 164.5 -55.5
t64.5 -142.5q0 -74 -42 -127.5t-118 -75.5q55 -26 85 -74t30 -106q0 -106 -73.5 -174t-188.5 -68z" />
    <glyph glyph-name="acute" unicode="&#xb4;" horiz-adv-x="522" 
d="M360 1159h-57l211 234h94z" />
    <glyph glyph-name="uni00B5" unicode="&#xb5;" horiz-adv-x="1216" 
d="M272 -401h-59v1405h59v-627q0 -173 84.5 -259.5t225.5 -86.5q68 0 122.5 22t89.5 61t59.5 84.5t37 100.5t17.5 100.5t5 92.5v512h60v-1004h-58v223q-5 -23 -16.5 -50t-38.5 -64t-62 -66t-92 -49.5t-124 -20.5q-214 0 -310 150v-524z" />
    <glyph glyph-name="paragraph" unicode="&#xb6;" horiz-adv-x="1099" 
d="M655 1434h512l-12 -58h-139l-377 -1777h-55l377 1777h-254l-377 -1777h-60l234 1106h-27q-124 0 -205.5 85t-81.5 232q0 77 29.5 149.5t85.5 131.5t147 95t203 36z" />
    <glyph glyph-name="periodcentered" unicode="&#xb7;" horiz-adv-x="450" 
d="M289 575h-103l37 173h103z" />
    <glyph glyph-name="cedilla" unicode="&#xb8;" horiz-adv-x="618" 
d="M145 -393q-121 0 -184 90l43 39q19 -28 54 -51t87 -23q62 0 102 25.5t40 79.5q0 39 -29.5 61t-73.5 22q-45 0 -88 -16l-30 47l180 150l35 -31l-50 -41q-15 -12 -42.5 -35t-41.5 -35q27 7 54 7q65 0 105 -36.5t40 -88.5q0 -66 -51.5 -115t-149.5 -49z" />
    <glyph glyph-name="uni00B9" unicode="&#xb9;" horiz-adv-x="518" 
d="M414 821h-60l88 414l54 252q-52 -61 -109 -97t-135 -47l14 64q91 22 154 74t119 139h43z" />
    <glyph glyph-name="ordmasculine" unicode="&#xba;" horiz-adv-x="976" 
d="M545 592q-145 0 -228.5 87.5t-83.5 256.5q0 96 28 187.5t79 165.5t130 119.5t173 45.5q145 0 229 -91t84 -261q0 -95 -28 -185.5t-79 -163t-130.5 -117t-173.5 -44.5zM545 647q78 0 145.5 39t112.5 102t70.5 143.5t25.5 164.5q0 146 -67.5 224.5t-190.5 78.5
q-80 0 -147.5 -40.5t-111 -107t-67.5 -147.5t-24 -164q0 -141 66 -217t188 -76z" />
    <glyph glyph-name="guillemotright" unicode="&#xbb;" horiz-adv-x="931" 
d="M256 903h68l155 -354l-362 -422h-76l369 428zM578 903h67l170 -387l-336 -389h-76l342 395z" />
    <glyph glyph-name="onequarter" unicode="&#xbc;" horiz-adv-x="1466" 
d="M166 0h-80l1292 1434h78zM383 635h-59l88 414q9 42 26.5 125.5t26.5 125.5q-51 -60 -108.5 -96t-135.5 -47l15 64q90 22 153 73.5t119 139.5h43zM1237 0h-57l49 231h-367l10 50l459 518h76l-109 -514h134l-13 -54h-133zM1149 285h90l31 143l61 291l-383 -434h201z" />
    <glyph glyph-name="onehalf" unicode="&#xbd;" horiz-adv-x="1544" 
d="M164 0h-80l1292 1434h78zM381 635h-59l88 414q9 42 26.5 125.5t26.5 125.5q-51 -60 -108.5 -96t-135.5 -47l14 64q91 22 154 74t119 139h43zM1354 0h-492l12 55q280 172 393 287t113 236q0 76 -50 127t-124 51q-91 0 -144.5 -59.5t-53.5 -161.5l-56 14q3 120 73 191
t183 71q98 0 165 -66.5t67 -164.5q0 -128 -113 -250q-110 -117 -362 -275h309h92z" />
    <glyph glyph-name="threequarters" unicode="&#xbe;" horiz-adv-x="1716" 
d="M432 623q-118 0 -185 66.5t-59 176.5l62 23q-17 -93 34 -152t146 -59q91 0 148 51t57 133q0 70 -50 117t-122 47h-74l17 55h71q95 0 149 43.5t54 120.5q0 63 -48.5 104.5t-121.5 41.5q-85 0 -138 -51t-50 -130l-58 19q7 99 75 158t171 59q100 0 164.5 -56t64.5 -143
q0 -74 -41.5 -127.5t-117.5 -75.5q55 -26 84.5 -74t29.5 -106q0 -106 -73.5 -173.5t-188.5 -67.5zM328 0h-80l1292 1434h78zM1399 0h-58l50 231h-367l10 50l459 518h76l-109 -514h133l-12 -54h-133zM1311 285h90l31 143l61 291l-383 -434h201z" />
    <glyph glyph-name="questiondown" unicode="&#xbf;" horiz-adv-x="913" 
d="M573 1079h103l-37 -172h-102zM524 705h64q-11 -47 -16.5 -70t-16 -59t-20.5 -56t-26.5 -48.5t-36 -49.5t-47.5 -45.5t-63 -48.5q-64 -44 -94 -65t-76.5 -58t-67.5 -62t-45 -61t-33 -73t-9 -81q0 -104 77 -175.5t203 -71.5q161 0 251.5 100.5t88.5 279.5l58 -12
q3 -191 -104.5 -308.5t-288.5 -117.5q-152 0 -249.5 87.5t-97.5 217.5q0 73 22.5 132.5t80 117t102 92t140.5 100.5q7 5 10 7q51 35 81 63.5t50 67t30 72t27 100.5q4 16 6 25z" />
    <glyph glyph-name="Agrave" unicode="&#xc0;" horiz-adv-x="1327" 
d="M784 1841l123 -233h-51l-168 233h96zM1141 0h-66l-78 473h-671l-275 -473h-74l842 1434h82zM680 1083l-322 -553h631l-90 549q-28 180 -45 299q-82 -137 -174 -295z" />
    <glyph glyph-name="Aacute" unicode="&#xc1;" horiz-adv-x="1327" 
d="M1090 1841h102l-272 -233h-64zM-23 0l842 1434h82l240 -1434h-66l-78 473h-671l-275 -473h-74zM680 1083l-322 -553h631l-90 549q-28 180 -45 299q-82 -137 -174 -295z" />
    <glyph glyph-name="Acircumflex" unicode="&#xc2;" horiz-adv-x="1327" 
d="M1102 1608l-166 188l-258 -188h-74l283 233h106l172 -233h-63zM-23 0l842 1434h82l240 -1434h-66l-78 473h-671l-275 -473h-74zM680 1083l-322 -553h631l-90 549q-28 180 -45 299q-82 -137 -174 -295z" />
    <glyph glyph-name="Atilde" unicode="&#xc3;" horiz-adv-x="1327" 
d="M1196 1792h68q-42 -182 -203 -182q-76 0 -143 53l-54 45q-32 28 -55.5 38.5t-52.5 10.5q-100 0 -129 -129h-68q17 90 70.5 136t130.5 46q74 0 141 -53l53 -45q36 -28 59 -38.5t52 -10.5q102 0 131 129zM-23 0l842 1434h82l240 -1434h-66l-78 473h-671l-275 -473h-74z
M680 1083l-322 -553h631l-90 549q-28 180 -45 299q-82 -137 -174 -295z" />
    <glyph glyph-name="Adieresis" unicode="&#xc4;" horiz-adv-x="1327" 
d="M696 1753h90l-32 -143h-90zM1065 1753h90l-31 -143h-90zM-23 0l842 1434h82l240 -1434h-66l-78 473h-671l-275 -473h-74zM680 1083l-322 -553h631l-90 549q-28 180 -45 299q-82 -137 -174 -295z" />
    <glyph glyph-name="Aring" unicode="&#xc5;" horiz-adv-x="1327" 
d="M897 1579q-77 0 -127.5 51t-50.5 123q0 87 64.5 153t154.5 66q78 0 126 -48.5t48 -119.5q0 -90 -62.5 -157.5t-152.5 -67.5zM934 1921q-67 0 -110.5 -52t-43.5 -116q0 -52 33 -87.5t88 -35.5q66 0 109 54t43 118q0 52 -31.5 85.5t-87.5 33.5zM1141 0h-66l-78 473h-671
l-275 -473h-74l842 1434h82zM680 1083l-322 -553h631l-90 549q-28 180 -45 299q-82 -137 -174 -295z" />
    <glyph glyph-name="AE" unicode="&#xc6;" horiz-adv-x="1892" 
d="M1989 1434l-13 -58h-772l-127 -598h572l-13 -57h-571l-139 -664h772l-12 -57h-832l98 465h-583l-394 -465h-79l1220 1434h873zM965 522l100 475l82 385q-256 -296 -320 -374l-409 -486h547z" />
    <glyph glyph-name="Ccedilla" unicode="&#xc7;" horiz-adv-x="1499" 
d="M899 1401q-124 0 -230 -43t-182.5 -119t-131 -178.5t-81 -222t-26.5 -248.5q0 -158 61 -284.5t176.5 -199.5t266.5 -73q402 0 579 397l60 -29q-26 -56 -58 -107t-83.5 -107.5t-111.5 -98.5t-144 -72.5t-179 -38.5l-22 -18q-14 -11 -42 -35t-42 -35q27 7 53 7
q65 0 105 -36.5t40 -88.5q0 -66 -51 -115t-149 -49q-60 0 -108 24.5t-77 65.5l43 39q19 -28 54.5 -51t87.5 -23q62 0 101.5 25.5t39.5 79.5q0 39 -29.5 61t-73.5 22q-45 0 -88 -16l-30 47l114 94q-169 3 -297 83.5t-195 217t-67 308.5q0 177 49 334.5t138.5 278t226.5 191
t303 70.5q113 0 210.5 -31t161.5 -78t112 -105.5t71 -109.5t31 -94l-62 -16q-12 48 -36 96t-68 100t-100.5 91t-140 64.5t-179.5 25.5z" />
    <glyph glyph-name="Egrave" unicode="&#xc8;" horiz-adv-x="1280" 
d="M969 1608h-51l-168 233h96zM1073 0h-930l303 1434h930l-12 -58h-868l-127 -598h665l-12 -57h-666l-139 -664h868z" />
    <glyph glyph-name="Eacute" unicode="&#xc9;" horiz-adv-x="1280" 
d="M969 1608h-64l234 233h102zM1073 0h-930l303 1434h930l-12 -58h-868l-127 -598h665l-12 -57h-666l-139 -664h868z" />
    <glyph glyph-name="Ecircumflex" unicode="&#xca;" horiz-adv-x="1280" 
d="M735 1608h-73l282 233h107l172 -233h-64l-166 188zM1073 0h-930l303 1434h930l-12 -58h-868l-127 -598h665l-12 -57h-666l-139 -664h868z" />
    <glyph glyph-name="Edieresis" unicode="&#xcb;" horiz-adv-x="1280" 
d="M799 1610h-90l32 143h90zM1169 1610h-90l31 143h90zM1073 0h-930l303 1434h930l-12 -58h-868l-127 -598h665l-12 -57h-666l-139 -664h868z" />
    <glyph glyph-name="Igrave" unicode="&#xcc;" horiz-adv-x="559" 
d="M537 1608h-52l-168 233h97zM205 0h-62l303 1434h62z" />
    <glyph glyph-name="Iacute" unicode="&#xcd;" horiz-adv-x="559" 
d="M537 1608h-64l234 233h102zM205 0h-62l303 1434h62z" />
    <glyph glyph-name="Icircumflex" unicode="&#xce;" horiz-adv-x="559" 
d="M299 1608h-74l283 233h106l172 -233h-63l-166 188zM205 0h-62l303 1434h62z" />
    <glyph glyph-name="Idieresis" unicode="&#xcf;" horiz-adv-x="559" 
d="M367 1610h-91l33 143h90zM737 1610h-90l31 143h90zM205 0h-62l303 1434h62z" />
    <glyph glyph-name="Eth" unicode="&#xd0;" horiz-adv-x="1480" 
d="M455 1434h288q140 0 259.5 -43.5t207.5 -124.5t137.5 -204t49.5 -274q0 -163 -56.5 -306.5t-159 -250.5t-256 -169t-337.5 -62h-436l145 692h-162l12 58h162zM223 57h365q173 0 315.5 58t236 158t144.5 232.5t51 282.5q0 274 -164 431t-450 157h-219l-133 -626h383
l-13 -58h-383z" />
    <glyph glyph-name="Ntilde" unicode="&#xd1;" horiz-adv-x="1570" 
d="M1180 1610q-77 0 -144 53l-53 45q-32 28 -56 38.5t-53 10.5q-100 0 -129 -129h-67q17 90 70.5 136t130.5 46q74 0 141 -53l53 -45q36 -28 59 -38.5t52 -10.5q102 0 131 129h67q-42 -182 -202 -182zM203 0h-60l303 1434h68l660 -1356l59 282l227 1074h60l-303 -1434h-74
l-656 1346l-61 -291z" />
    <glyph glyph-name="Ograve" unicode="&#xd2;" horiz-adv-x="1652" 
d="M1069 1608h-51l-168 233h96zM813 -25q-182 0 -326.5 79.5t-225.5 223t-81 324.5q0 177 57.5 335.5t157 272.5t239.5 181t298 67q278 0 455.5 -176t177.5 -453q0 -235 -98 -430.5t-271 -309.5t-383 -114zM809 33q145 0 273.5 63t220 169.5t145 253.5t53.5 310
q0 158 -70 288t-200 207t-295 77q-194 0 -353 -106t-249 -286.5t-90 -396.5q0 -163 69.5 -294.5t199.5 -208t296 -76.5z" />
    <glyph glyph-name="Oacute" unicode="&#xd3;" horiz-adv-x="1652" 
d="M1069 1608h-63l233 233h102zM813 -25q-182 0 -326.5 79.5t-225.5 223t-81 324.5q0 177 57.5 335.5t157 272.5t239.5 181t298 67q278 0 455.5 -176t177.5 -453q0 -235 -98 -430.5t-271 -309.5t-383 -114zM809 33q145 0 273.5 63t220 169.5t145 253.5t53.5 310
q0 158 -70 288t-200 207t-295 77q-194 0 -353 -106t-249 -286.5t-90 -396.5q0 -163 69.5 -294.5t199.5 -208t296 -76.5z" />
    <glyph glyph-name="Ocircumflex" unicode="&#xd4;" horiz-adv-x="1652" 
d="M831 1608h-73l282 233h107l172 -233h-64l-165 188zM813 -25q-182 0 -326.5 79.5t-225.5 223t-81 324.5q0 177 57.5 335.5t157 272.5t239.5 181t298 67q278 0 455.5 -176t177.5 -453q0 -235 -98 -430.5t-271 -309.5t-383 -114zM809 33q145 0 273.5 63t220 169.5t145 253.5
t53.5 310q0 158 -70 288t-200 207t-295 77q-194 0 -353 -106t-249 -286.5t-90 -396.5q0 -163 69.5 -294.5t199.5 -208t296 -76.5z" />
    <glyph glyph-name="Otilde" unicode="&#xd5;" horiz-adv-x="1652" 
d="M1210 1610q-76 0 -143 53l-53 45q-32 28 -56 38.5t-53 10.5q-100 0 -129 -129h-67q17 91 70 136.5t130 45.5q75 0 142 -53l53 -45q36 -28 58.5 -38.5t51.5 -10.5q103 0 132 129h67q-42 -182 -203 -182zM813 -25q-182 0 -326.5 79.5t-225.5 223t-81 324.5
q0 177 57.5 335.5t157 272.5t239.5 181t298 67q278 0 455.5 -176t177.5 -453q0 -235 -98 -430.5t-271 -309.5t-383 -114zM809 33q145 0 273.5 63t220 169.5t145 253.5t53.5 310q0 158 -70 288t-200 207t-295 77q-194 0 -353 -106t-249 -286.5t-90 -396.5q0 -163 69.5 -294.5
t199.5 -208t296 -76.5z" />
    <glyph glyph-name="Odieresis" unicode="&#xd6;" horiz-adv-x="1652" 
d="M899 1610h-90l33 143h90zM1270 1610h-90l30 143h90zM813 -25q-182 0 -326.5 79.5t-225.5 223t-81 324.5q0 177 57.5 335.5t157 272.5t239.5 181t298 67q278 0 455.5 -176t177.5 -453q0 -235 -98 -430.5t-271 -309.5t-383 -114zM809 33q145 0 273.5 63t220 169.5
t145 253.5t53.5 310q0 158 -70 288t-200 207t-295 77q-194 0 -353 -106t-249 -286.5t-90 -396.5q0 -163 69.5 -294.5t199.5 -208t296 -76.5z" />
    <glyph glyph-name="multiply" unicode="&#xd7;" horiz-adv-x="1288" 
d="M694 702l-415 -413l-41 43l413 413l-413 412l41 43l415 -414l416 414l41 -43l-414 -412l414 -413l-41 -43z" />
    <glyph glyph-name="Oslash" unicode="&#xd8;" horiz-adv-x="1652" 
d="M362 147l-178 -186l-41 41l181 186q-144 174 -144 414q0 177 57.5 335.5t157 272.5t239.5 181t298 67q274 0 452 -172l197 203l39 -41l-197 -205q142 -167 142 -414q0 -235 -98 -430.5t-271 -309.5t-383 -114q-273 0 -451 172zM369 236l766 792l204 211
q-159 162 -403 162q-194 0 -353 -106t-249 -286.5t-90 -396.5q0 -220 125 -376zM809 33q145 0 273.5 63t220 169.5t145 253.5t53.5 310q0 211 -123 369l-796 -825l-174 -180q157 -160 401 -160z" />
    <glyph glyph-name="Ugrave" unicode="&#xd9;" horiz-adv-x="1361" 
d="M934 1608h-51l-168 233h96zM588 -25q-230 0 -321 138.5t-38 386.5l199 934h61l-196 -916q-49 -232 23 -358.5t272 -126.5q199 0 318 128t173 376l193 897h61l-194 -914q-57 -268 -191 -406.5t-360 -138.5z" />
    <glyph glyph-name="Uacute" unicode="&#xda;" horiz-adv-x="1361" 
d="M934 1608h-64l234 233h102zM588 -25q-230 0 -321 138.5t-38 386.5l199 934h61l-196 -916q-49 -232 23 -358.5t272 -126.5q199 0 318 128t173 376l193 897h61l-194 -914q-57 -268 -191 -406.5t-360 -138.5z" />
    <glyph glyph-name="Ucircumflex" unicode="&#xdb;" horiz-adv-x="1361" 
d="M696 1608h-73l282 233h107l172 -233h-64l-166 188zM588 -25q-230 0 -321 138.5t-38 386.5l199 934h61l-196 -916q-49 -232 23 -358.5t272 -126.5q199 0 318 128t173 376l193 897h61l-194 -914q-57 -268 -191 -406.5t-360 -138.5z" />
    <glyph glyph-name="Udieresis" unicode="&#xdc;" horiz-adv-x="1361" 
d="M764 1610h-90l33 143h90zM1135 1610h-91l31 143h90zM588 -25q-230 0 -321 138.5t-38 386.5l199 934h61l-196 -916q-49 -232 23 -358.5t272 -126.5q199 0 318 128t173 376l193 897h61l-194 -914q-57 -268 -191 -406.5t-360 -138.5z" />
    <glyph glyph-name="Yacute" unicode="&#xdd;" horiz-adv-x="1294" 
d="M899 1608h-63l233 233h102zM571 0h-61l135 637l-332 797h70l258 -629l43 -98q52 56 98 110l514 617h80l-671 -799z" />
    <glyph glyph-name="Thorn" unicode="&#xde;" horiz-adv-x="1290" 
d="M449 1151h374q191 0 296.5 -99.5t105.5 -240.5q0 -210 -142 -335.5t-372 -125.5h-432l-74 -350h-62l303 1434h62zM291 408h420q204 0 327 109t123 294q0 52 -21 101t-62 90.5t-109 66.5t-154 25h-379z" />
    <glyph glyph-name="germandbls" unicode="&#xdf;" horiz-adv-x="1171" 
d="M543 -25q-115 0 -203 27l12 61q86 -28 178 -28q201 0 317 107t116 290q0 137 -101 221t-248 84h-41l13 64h45q153 0 268 98.5t115 247.5q0 118 -80 186t-189 68q-80 0 -145.5 -30.5t-107.5 -82t-68 -108.5t-39 -121l-223 -1059h-62l226 1067q41 191 151.5 291t272.5 100
q139 0 233 -86.5t94 -218.5q0 -142 -92 -248t-233 -137q119 -24 197.5 -117t78.5 -219q0 -211 -134 -334t-351 -123z" />
    <glyph glyph-name="agrave" unicode="&#xe0;" horiz-adv-x="1081" 
d="M641 1159h-45l-154 234h88zM369 -25q-130 0 -203.5 65t-73.5 185q0 108 63.5 190.5t171 129.5t236.5 69.5t273 20.5l8 37q7 43 6 85t-21.5 81t-53 68.5t-87.5 47t-125 17.5q-74 0 -135.5 -19t-102 -51t-67 -65.5t-41.5 -69.5l-55 31q8 21 24.5 47t51 59.5t78 60.5
t110 45.5t143.5 18.5q84 0 153.5 -25.5t116.5 -75t64.5 -122t-2.5 -166.5l-98 -446q-29 -136 88 -136h84l-12 -57h-74q-102 0 -135 64t-4 145q-141 -234 -381 -234zM373 33q63 0 126 23.5t121.5 71t105 129.5t69.5 189l28 136q-128 -1 -241.5 -20.5t-211.5 -59t-156 -110.5
t-58 -165q0 -93 59 -143.5t158 -50.5z" />
    <glyph glyph-name="aacute" unicode="&#xe1;" horiz-adv-x="1081" 
d="M647 1159h-57l211 234h94zM369 -25q-130 0 -203.5 65t-73.5 185q0 108 63.5 190.5t171 129.5t236.5 69.5t273 20.5l8 37q7 43 6 85t-21.5 81t-53 68.5t-87.5 47t-125 17.5q-74 0 -135.5 -19t-102 -51t-67 -65.5t-41.5 -69.5l-55 31q8 21 24.5 47t51 59.5t78 60.5
t110 45.5t143.5 18.5q84 0 153.5 -25.5t116.5 -75t64.5 -122t-2.5 -166.5l-98 -446q-29 -136 88 -136h84l-12 -57h-74q-102 0 -135 64t-4 145q-141 -234 -381 -234zM373 33q63 0 126 23.5t121.5 71t105 129.5t69.5 189l28 136q-128 -1 -241.5 -20.5t-211.5 -59t-156 -110.5
t-58 -165q0 -93 59 -143.5t158 -50.5z" />
    <glyph glyph-name="acircumflex" unicode="&#xe2;" horiz-adv-x="1081" 
d="M422 1159h-66l256 234h97l157 -234h-57l-152 189zM369 -25q-130 0 -203.5 65t-73.5 185q0 108 63.5 190.5t171 129.5t236.5 69.5t273 20.5l8 37q7 43 6 85t-21.5 81t-53 68.5t-87.5 47t-125 17.5q-74 0 -135.5 -19t-102 -51t-67 -65.5t-41.5 -69.5l-55 31q8 21 24.5 47
t51 59.5t78 60.5t110 45.5t143.5 18.5q84 0 153.5 -25.5t116.5 -75t64.5 -122t-2.5 -166.5l-98 -446q-29 -136 88 -136h84l-12 -57h-74q-102 0 -135 64t-4 145q-141 -234 -381 -234zM373 33q63 0 126 23.5t121.5 71t105 129.5t69.5 189l28 136q-128 -1 -241.5 -20.5
t-211.5 -59t-156 -110.5t-58 -165q0 -93 59 -143.5t158 -50.5z" />
    <glyph glyph-name="atilde" unicode="&#xe3;" horiz-adv-x="1081" 
d="M766 1178q-69 0 -129 53l-49 45q-29 28 -51 38.5t-48 10.5q-90 0 -116 -129h-62q14 90 63.5 136t119.5 46q67 0 127 -53l49 -45q33 -28 53.5 -38.5t46.5 -10.5q93 0 119 129h61q-36 -182 -184 -182zM369 -25q-130 0 -203.5 65t-73.5 185q0 108 63.5 190.5t171 129.5
t236.5 69.5t273 20.5l8 37q7 43 6 85t-21.5 81t-53 68.5t-87.5 47t-125 17.5q-74 0 -135.5 -19t-102 -51t-67 -65.5t-41.5 -69.5l-55 31q8 21 24.5 47t51 59.5t78 60.5t110 45.5t143.5 18.5q84 0 153.5 -25.5t116.5 -75t64.5 -122t-2.5 -166.5l-98 -446q-29 -136 88 -136h84
l-12 -57h-74q-102 0 -135 64t-4 145q-141 -234 -381 -234zM373 33q63 0 126 23.5t121.5 71t105 129.5t69.5 189l28 136q-128 -1 -241.5 -20.5t-211.5 -59t-156 -110.5t-58 -165q0 -93 59 -143.5t158 -50.5z" />
    <glyph glyph-name="adieresis" unicode="&#xe4;" horiz-adv-x="1081" 
d="M508 1239h-82l29 143h82zM844 1239h-82l29 143h81zM369 -25q-130 0 -203.5 65t-73.5 185q0 108 63.5 190.5t171 129.5t236.5 69.5t273 20.5l8 37q7 43 6 85t-21.5 81t-53 68.5t-87.5 47t-125 17.5q-74 0 -135.5 -19t-102 -51t-67 -65.5t-41.5 -69.5l-55 31q8 21 24.5 47
t51 59.5t78 60.5t110 45.5t143.5 18.5q84 0 153.5 -25.5t116.5 -75t64.5 -122t-2.5 -166.5l-98 -446q-29 -136 88 -136h84l-12 -57h-74q-102 0 -135 64t-4 145q-141 -234 -381 -234zM373 33q63 0 126 23.5t121.5 71t105 129.5t69.5 189l28 136q-128 -1 -241.5 -20.5
t-211.5 -59t-156 -110.5t-58 -165q0 -93 59 -143.5t158 -50.5z" />
    <glyph glyph-name="aring" unicode="&#xe5;" horiz-adv-x="1081" 
d="M612 1112q-74 0 -122 48.5t-48 117.5q0 83 61.5 146t147.5 63q73 0 119.5 -47t46.5 -113q0 -86 -59.5 -150.5t-145.5 -64.5zM614 1161q64 0 105 51t41 113q0 48 -30 80.5t-83 32.5q-64 0 -105.5 -49.5t-41.5 -110.5q0 -49 31 -83t83 -34zM369 -25q-130 0 -203.5 65
t-73.5 185q0 108 63.5 190.5t171 129.5t236.5 69.5t273 20.5l8 37q7 43 6 85t-21.5 81t-53 68.5t-87.5 47t-125 17.5q-74 0 -135.5 -19t-102 -51t-67 -65.5t-41.5 -69.5l-55 31q8 21 24.5 47t51 59.5t78 60.5t110 45.5t143.5 18.5q84 0 153.5 -25.5t116.5 -75t64.5 -122
t-2.5 -166.5l-98 -446q-29 -136 88 -136h84l-12 -57h-74q-102 0 -135 64t-4 145q-141 -234 -381 -234zM373 33q63 0 126 23.5t121.5 71t105 129.5t69.5 189l28 136q-128 -1 -241.5 -20.5t-211.5 -59t-156 -110.5t-58 -165q0 -93 59 -143.5t158 -50.5z" />
    <glyph glyph-name="ae" unicode="&#xe6;" horiz-adv-x="1759" 
d="M362 -25q-128 0 -199 70t-71 180q0 89 43 160t113.5 116.5t167.5 76t199 43t214 12.5l11 49q16 74 -7.5 139t-90 107.5t-164.5 42.5q-138 0 -223 -51t-144 -154l-53 31q126 231 424 231q122 0 210.5 -63t112.5 -179q63 112 165.5 177t225.5 65q82 0 149 -27t110.5 -74
t69 -111.5t24.5 -140t-23 -159.5h-756q-25 -97 -15.5 -184.5t42.5 -154t99.5 -105.5t154.5 -39q140 0 238 69t155 174l58 -30q-161 -271 -451 -271q-134 0 -231 78.5t-121 233.5q-63 -147 -181.5 -229.5t-255.5 -82.5zM881 571h694q24 108 -1 198.5t-98 146t-180 55.5
q-158 0 -265 -113t-150 -287zM362 33q62 0 126 23.5t125 70t109 129t69 188.5l26 136q-89 0 -175 -9t-177 -34t-158.5 -63t-111 -101t-43.5 -144q0 -82 58.5 -139t151.5 -57z" />
    <glyph glyph-name="ccedilla" unicode="&#xe7;" horiz-adv-x="1046" 
d="M475 33q74 0 139 26t111 69.5t77.5 90.5t51.5 98l61 -28q-127 -271 -362 -307l-27 -23q-15 -11 -42.5 -35t-41.5 -35q27 7 54 7q65 0 105 -36.5t40 -88.5q0 -66 -51.5 -115t-149.5 -49q-121 0 -184 90l43 39q19 -28 54 -51t87 -23q62 0 102 25.5t40 79.5q0 39 -29.5 61
t-73.5 22q-45 0 -88 -16l-31 47l113 94q-160 0 -258 106.5t-98 297.5q0 120 35 236t96.5 208t156.5 148.5t205 56.5q157 0 249.5 -82.5t115.5 -202.5l-62 -16q-20 104 -98 174t-203 70q-99 0 -183 -52.5t-137 -137t-82.5 -187.5t-29.5 -207q0 -173 81.5 -263.5t213.5 -90.5z
" />
    <glyph glyph-name="egrave" unicode="&#xe8;" horiz-adv-x="1079" 
d="M692 1159h-45l-153 234h88zM473 -25q-159 0 -257.5 100t-98.5 302q0 119 34 234t96 208.5t158.5 151t210.5 57.5q102 0 180.5 -41t120 -110.5t52.5 -162.5t-21 -198h-755q-24 -98 -14.5 -185.5t42.5 -153.5t98.5 -105t153.5 -39q76 0 141.5 21.5t112.5 59t79 77t56 85.5
l58 -30q-144 -271 -447 -271zM203 571h694q24 108 -1 198.5t-98.5 146t-181.5 55.5q-80 0 -149.5 -32t-120.5 -88t-87 -126.5t-56 -153.5z" />
    <glyph glyph-name="eacute" unicode="&#xe9;" horiz-adv-x="1079" 
d="M698 1159h-57l211 234h94zM473 -25q-159 0 -257.5 100t-98.5 302q0 119 34 234t96 208.5t158.5 151t210.5 57.5q102 0 180.5 -41t120 -110.5t52.5 -162.5t-21 -198h-755q-24 -98 -14.5 -185.5t42.5 -153.5t98.5 -105t153.5 -39q76 0 141.5 21.5t112.5 59t79 77t56 85.5
l58 -30q-144 -271 -447 -271zM203 571h694q24 108 -1 198.5t-98.5 146t-181.5 55.5q-80 0 -149.5 -32t-120.5 -88t-87 -126.5t-56 -153.5z" />
    <glyph glyph-name="ecircumflex" unicode="&#xea;" horiz-adv-x="1079" 
d="M473 1159h-65l256 234h96l158 -234h-58l-151 189zM473 -25q-159 0 -257.5 100t-98.5 302q0 119 34 234t96 208.5t158.5 151t210.5 57.5q102 0 180.5 -41t120 -110.5t52.5 -162.5t-21 -198h-755q-24 -98 -14.5 -185.5t42.5 -153.5t98.5 -105t153.5 -39q76 0 141.5 21.5
t112.5 59t79 77t56 85.5l58 -30q-144 -271 -447 -271zM203 571h694q24 108 -1 198.5t-98.5 146t-181.5 55.5q-80 0 -149.5 -32t-120.5 -88t-87 -126.5t-56 -153.5z" />
    <glyph glyph-name="edieresis" unicode="&#xeb;" horiz-adv-x="1079" 
d="M559 1239h-82l29 143h82zM895 1239h-82l29 143h82zM473 -25q-159 0 -257.5 100t-98.5 302q0 119 34 234t96 208.5t158.5 151t210.5 57.5q102 0 180.5 -41t120 -110.5t52.5 -162.5t-21 -198h-755q-24 -98 -14.5 -185.5t42.5 -153.5t98.5 -105t153.5 -39q76 0 141.5 21.5
t112.5 59t79 77t56 85.5l58 -30q-144 -271 -447 -271zM203 571h694q24 108 -1 198.5t-98.5 146t-181.5 55.5q-80 0 -149.5 -32t-120.5 -88t-87 -126.5t-56 -153.5z" />
    <glyph glyph-name="igrave" unicode="&#xec;" horiz-adv-x="475" 
d="M399 1159h-45l-153 234h88zM162 0h-62l213 1004h60z" />
    <glyph glyph-name="iacute" unicode="&#xed;" horiz-adv-x="475" 
d="M406 1159h-58l211 234h94zM162 0h-62l213 1004h60z" />
    <glyph glyph-name="icircumflex" unicode="&#xee;" horiz-adv-x="475" 
d="M180 1159h-65l256 234h96l158 -234h-58l-151 189zM162 0h-62l213 1004h60z" />
    <glyph glyph-name="idieresis" unicode="&#xef;" horiz-adv-x="475" 
d="M266 1239h-82l29 143h82zM602 1239h-82l29 143h82zM162 0h-62l213 1004h60z" />
    <glyph glyph-name="eth" unicode="&#xf0;" horiz-adv-x="1110" 
d="M1014 1458l33 -39l-158 -133q98 -143 98 -377q0 -100 -11 -202t-34.5 -209t-65 -199t-97 -166t-136 -116t-176.5 -42q-91 0 -161 32.5t-112 89t-62.5 127.5t-20.5 153q0 76 19.5 151t58.5 141.5t92 118t124 81.5t150 30q44 0 86.5 -11t85 -36t76.5 -62t59 -93t35 -126
q82 462 -53 676l-215 -180l-33 39l217 182q-100 117 -278 117q-108 0 -209 -45l14 61q99 37 199 37q201 0 319 -131zM469 33q109 0 197 68.5t134 173t46 217.5q0 165 -83.5 256.5t-213.5 91.5q-109 0 -197 -68.5t-134 -173t-46 -217.5q0 -163 84 -255.5t213 -92.5z" />
    <glyph glyph-name="ntilde" unicode="&#xf1;" horiz-adv-x="1175" 
d="M885 1178q-69 0 -129 53l-49 45q-29 28 -51 38.5t-48 10.5q-90 0 -116 -129h-62q14 91 63 136.5t119 45.5q67 0 127 -53l49 -45q32 -28 53 -38.5t48 -10.5q93 0 119 129h61q-36 -182 -184 -182zM160 0h-60l213 1004h58l-49 -226q11 25 30.5 54.5t53.5 65t74 64t96 47.5
t116 19q190 0 271.5 -125.5t37.5 -333.5l-120 -569h-62l119 557q43 206 -25 310t-221 104q-78 0 -145 -32t-112 -80t-80.5 -112t-55 -119.5t-31.5 -111.5z" />
    <glyph glyph-name="ograve" unicode="&#xf2;" horiz-adv-x="1153" 
d="M725 1159h-45l-154 234h88zM524 -25q-82 0 -154.5 29t-128.5 83t-89 140t-33 193q0 113 36.5 222t101.5 195t163 138.5t211 52.5q82 0 154 -28.5t128 -83t88.5 -140t32.5 -192.5q0 -90 -22.5 -178.5t-67 -166t-105.5 -136.5t-142.5 -93.5t-172.5 -34.5zM522 33
q97 0 182.5 48t142.5 125t89.5 174t32.5 195q0 186 -95 291t-243 105q-97 0 -182.5 -48t-142.5 -125.5t-89.5 -174.5t-32.5 -195q0 -186 95 -290.5t243 -104.5z" />
    <glyph glyph-name="oacute" unicode="&#xf3;" horiz-adv-x="1153" 
d="M731 1159h-57l211 234h94zM524 -25q-82 0 -154.5 29t-128.5 83t-89 140t-33 193q0 113 36.5 222t101.5 195t163 138.5t211 52.5q82 0 154 -28.5t128 -83t88.5 -140t32.5 -192.5q0 -90 -22.5 -178.5t-67 -166t-105.5 -136.5t-142.5 -93.5t-172.5 -34.5zM522 33
q97 0 182.5 48t142.5 125t89.5 174t32.5 195q0 186 -95 291t-243 105q-97 0 -182.5 -48t-142.5 -125.5t-89.5 -174.5t-32.5 -195q0 -186 95 -290.5t243 -104.5z" />
    <glyph glyph-name="ocircumflex" unicode="&#xf4;" horiz-adv-x="1153" 
d="M506 1159h-66l256 234h97l157 -234h-57l-152 189zM524 -25q-82 0 -154.5 29t-128.5 83t-89 140t-33 193q0 113 36.5 222t101.5 195t163 138.5t211 52.5q82 0 154 -28.5t128 -83t88.5 -140t32.5 -192.5q0 -90 -22.5 -178.5t-67 -166t-105.5 -136.5t-142.5 -93.5
t-172.5 -34.5zM522 33q97 0 182.5 48t142.5 125t89.5 174t32.5 195q0 186 -95 291t-243 105q-97 0 -182.5 -48t-142.5 -125.5t-89.5 -174.5t-32.5 -195q0 -186 95 -290.5t243 -104.5z" />
    <glyph glyph-name="otilde" unicode="&#xf5;" horiz-adv-x="1153" 
d="M850 1178q-69 0 -129 53l-49 45q-29 28 -51 38.5t-48 10.5q-90 0 -116 -129h-62q14 90 63.5 136t119.5 46q67 0 127 -53l49 -45q33 -28 53.5 -38.5t46.5 -10.5q93 0 119 129h61q-36 -182 -184 -182zM524 -25q-82 0 -154.5 29t-128.5 83t-89 140t-33 193q0 113 36.5 222
t101.5 195t163 138.5t211 52.5q82 0 154 -28.5t128 -83t88.5 -140t32.5 -192.5q0 -90 -22.5 -178.5t-67 -166t-105.5 -136.5t-142.5 -93.5t-172.5 -34.5zM522 33q97 0 182.5 48t142.5 125t89.5 174t32.5 195q0 186 -95 291t-243 105q-97 0 -182.5 -48t-142.5 -125.5
t-89.5 -174.5t-32.5 -195q0 -186 95 -290.5t243 -104.5z" />
    <glyph glyph-name="odieresis" unicode="&#xf6;" horiz-adv-x="1153" 
d="M592 1239h-82l29 143h82zM928 1239h-82l28 143h82zM524 -25q-82 0 -154.5 29t-128.5 83t-89 140t-33 193q0 113 36.5 222t101.5 195t163 138.5t211 52.5q82 0 154 -28.5t128 -83t88.5 -140t32.5 -192.5q0 -90 -22.5 -178.5t-67 -166t-105.5 -136.5t-142.5 -93.5
t-172.5 -34.5zM522 33q97 0 182.5 48t142.5 125t89.5 174t32.5 195q0 186 -95 291t-243 105q-97 0 -182.5 -48t-142.5 -125.5t-89.5 -174.5t-32.5 -195q0 -186 95 -290.5t243 -104.5z" />
    <glyph glyph-name="divide" unicode="&#xf7;" horiz-adv-x="1515" 
d="M864 1049h-116v190h116v-190zM1364 696h-1116v58h1116v-58zM864 211h-116v190h116v-190z" />
    <glyph glyph-name="oslash" unicode="&#xf8;" horiz-adv-x="1153" 
d="M524 -25q-82 0 -156.5 30.5t-125.5 84.5l-129 -135l-41 41l131 137q-84 114 -84 287q0 113 36.5 222t101.5 195t163 138.5t211 52.5q187 0 301 -135l117 121l43 -39l-123 -127q65 -117 65 -264q0 -90 -22.5 -178.5t-67 -166t-105.5 -136.5t-142.5 -93.5t-172.5 -34.5z
M248 176l487 510q50 54 154 162q-92 123 -258 123q-97 0 -182.5 -48t-143 -125.5t-90.5 -174.5t-33 -195q0 -146 66 -252zM522 33q97 0 182.5 48t143 125t90.5 174t33 195q0 133 -49 226l-478 -500q-80 -85 -159 -168q41 -45 104 -72.5t133 -27.5z" />
    <glyph glyph-name="ugrave" unicode="&#xf9;" horiz-adv-x="1155" 
d="M729 1159h-45l-154 234h88zM463 -25q-195 0 -266 125.5t-19 358.5l119 545h59l-118 -566q-84 -405 223 -405q154 0 267 121t159 338l108 512h60l-213 -1004h-58q47 210 52 236q-133 -261 -373 -261z" />
    <glyph glyph-name="uacute" unicode="&#xfa;" horiz-adv-x="1155" 
d="M729 1159h-57l211 234h94zM463 -25q-195 0 -266 125.5t-19 358.5l119 545h59l-118 -566q-84 -405 223 -405q154 0 267 121t159 338l108 512h60l-213 -1004h-58q47 210 52 236q-133 -261 -373 -261z" />
    <glyph glyph-name="ucircumflex" unicode="&#xfb;" horiz-adv-x="1155" 
d="M510 1159h-66l256 234h97l157 -234h-57l-152 189zM463 -25q-195 0 -266 125.5t-19 358.5l119 545h59l-118 -566q-84 -405 223 -405q154 0 267 121t159 338l108 512h60l-213 -1004h-58q47 210 52 236q-133 -261 -373 -261z" />
    <glyph glyph-name="udieresis" unicode="&#xfc;" horiz-adv-x="1155" 
d="M596 1239h-82l29 143h82zM932 1239h-82l29 143h82zM463 -25q-195 0 -266 125.5t-19 358.5l119 545h59l-118 -566q-84 -405 223 -405q154 0 267 121t159 338l108 512h60l-213 -1004h-58q47 210 52 236q-133 -261 -373 -261z" />
    <glyph glyph-name="yacute" unicode="&#xfd;" horiz-adv-x="1011" 
d="M803 1393h94l-248 -234h-57zM580 338l383 666h67l-672 -1168q-73 -129 -144.5 -182t-201.5 -53h-108l12 57h100q91 0 154.5 39t128.5 153l117 203l-230 951h66l156 -664q18 -81 51 -213q45 82 121 211z" />
    <glyph glyph-name="thorn" unicode="&#xfe;" horiz-adv-x="1159" 
d="M78 -397h-62l390 1831h61l-92 -424l-37 -174q57 89 143.5 140.5t198.5 51.5q153 0 256.5 -103.5t103.5 -291.5q0 -129 -32 -246.5t-90 -209.5t-147.5 -147t-197.5 -55q-144 0 -236.5 78.5t-119.5 212.5l-43 -209zM569 33q94 0 172.5 50.5t129.5 134t78.5 190t27.5 221.5
q0 161 -85.5 251.5t-217.5 90.5q-96 0 -176 -49.5t-132.5 -132.5t-81 -188.5t-28.5 -219.5q0 -161 89 -254.5t224 -93.5z" />
    <glyph glyph-name="ydieresis" unicode="&#xff;" horiz-adv-x="1011" 
d="M457 1382h82l-29 -143h-82zM793 1382h81l-28 -143h-82zM580 338l383 666h67l-672 -1168q-73 -129 -144.5 -182t-201.5 -53h-108l12 57h100q91 0 154.5 39t128.5 153l117 203l-230 951h66l156 -664q18 -81 51 -213q45 82 121 211z" />
    <glyph glyph-name="Amacron" unicode="&#x100;" horiz-adv-x="1327" 
d="M586 1671l12 55h657l-12 -55h-657zM-23 0l842 1434h82l240 -1434h-66l-78 473h-671l-275 -473h-74zM680 1083l-322 -553h631l-90 549q-28 180 -45 299q-82 -137 -174 -295z" />
    <glyph glyph-name="amacron" unicode="&#x101;" horiz-adv-x="1081" 
d="M932 1227h-598l12 55h598zM369 -25q-130 0 -203.5 65t-73.5 185q0 108 63.5 190.5t171 129.5t236.5 69.5t273 20.5l8 37q7 43 6 85t-21.5 81t-53 68.5t-87.5 47t-125 17.5q-74 0 -135.5 -19t-102 -51t-67 -65.5t-41.5 -69.5l-55 31q8 21 24.5 47t51 59.5t78 60.5
t110 45.5t143.5 18.5q84 0 153.5 -25.5t116.5 -75t64.5 -122t-2.5 -166.5l-98 -446q-29 -136 88 -136h84l-12 -57h-74q-102 0 -135 64t-4 145q-141 -234 -381 -234zM373 33q63 0 126 23.5t121.5 71t105 129.5t69.5 189l28 136q-128 -1 -241.5 -20.5t-211.5 -59t-156 -110.5
t-58 -165q0 -93 59 -143.5t158 -50.5z" />
    <glyph glyph-name="Abreve" unicode="&#x102;" horiz-adv-x="1327" 
d="M907 1599q-120 0 -177 67t-42 173h51q-11 -182 170 -182q85 0 153 44.5t101 137.5h62q-34 -109 -115.5 -174.5t-202.5 -65.5zM-23 0l842 1434h82l240 -1434h-66l-78 473h-671l-275 -473h-74zM680 1083l-322 -553h631l-90 549q-28 180 -45 299q-82 -137 -174 -295z" />
    <glyph glyph-name="abreve" unicode="&#x103;" horiz-adv-x="1081" 
d="M629 1153q-109 0 -161 67t-38 173h47q-6 -94 35.5 -138.5t118.5 -44.5t138.5 45t92.5 138h56q-31 -110 -104.5 -175t-184.5 -65zM369 -25q-130 0 -203.5 65t-73.5 185q0 108 63.5 190.5t171 129.5t236.5 69.5t273 20.5l8 37q7 43 6 85t-21.5 81t-53 68.5t-87.5 47
t-125 17.5q-74 0 -135.5 -19t-102 -51t-67 -65.5t-41.5 -69.5l-55 31q8 21 24.5 47t51 59.5t78 60.5t110 45.5t143.5 18.5q84 0 153.5 -25.5t116.5 -75t64.5 -122t-2.5 -166.5l-98 -446q-29 -136 88 -136h84l-12 -57h-74q-102 0 -135 64t-4 145q-141 -234 -381 -234zM373 33
q63 0 126 23.5t121.5 71t105 129.5t69.5 189l28 136q-128 -1 -241.5 -20.5t-211.5 -59t-156 -110.5t-58 -165q0 -93 59 -143.5t158 -50.5z" />
    <glyph glyph-name="Aogonek" unicode="&#x104;" horiz-adv-x="1327" 
d="M905 -229q-11 -46 7.5 -74.5t66.5 -28.5q40 0 98 21l-12 -58q-41 -20 -84 -20q-74 0 -109 43t-24 108q12 65 68.5 134.5t156.5 119.5l-76 457h-671l-275 -473h-74l842 1434h82l240 -1434q-209 -99 -236 -229zM680 1083l-322 -553h631l-90 549q-28 180 -45 299
q-82 -137 -174 -295z" />
    <glyph glyph-name="aogonek" unicode="&#x105;" horiz-adv-x="1081" 
d="M975 57l-12 -57q-209 -99 -236 -229q-11 -46 7.5 -74.5t66.5 -28.5q40 0 98 21l-12 -58q-41 -20 -84 -20q-74 0 -109 43t-24 108q10 60 59.5 124t136.5 114q-46 4 -76 24.5t-42 50.5t-11.5 64t13.5 70q-141 -234 -381 -234q-130 0 -203.5 65t-73.5 185q0 108 63.5 190.5
t171 129.5t236.5 69.5t273 20.5l8 37q7 43 6 85t-21.5 81t-53 68.5t-87.5 47t-125 17.5q-74 0 -135.5 -19t-102 -51t-67 -65.5t-41.5 -69.5l-55 31q8 21 24.5 47t51 59.5t78 60.5t110 45.5t143.5 18.5q84 0 153.5 -25.5t116.5 -75t64.5 -122t-2.5 -166.5l-98 -446
q-29 -136 88 -136h84zM373 33q63 0 126 23.5t121.5 71t105 129.5t69.5 189l28 136q-128 -1 -241.5 -20.5t-211.5 -59t-156 -110.5t-58 -165q0 -93 59 -143.5t158 -50.5z" />
    <glyph glyph-name="Cacute" unicode="&#x106;" horiz-adv-x="1499" 
d="M1036 1608h-63l233 233h103zM754 -25q-258 0 -415 172t-157 437q0 177 49 334.5t138.5 278t226.5 191t303 70.5q113 0 210.5 -31t161.5 -78t112 -105.5t71 -109.5t31 -94l-62 -16q-12 48 -36 96t-68 100t-100.5 91t-140 64.5t-179.5 25.5q-124 0 -230 -43t-182.5 -119
t-131 -178.5t-81 -222t-26.5 -248.5q0 -158 61 -284.5t176.5 -199.5t266.5 -73q402 0 579 397l60 -29q-27 -60 -62 -114t-91 -113t-122.5 -101.5t-160.5 -70t-201 -27.5z" />
    <glyph glyph-name="cacute" unicode="&#x107;" horiz-adv-x="1046" 
d="M696 1159h-57l211 234h94zM475 -25q-162 0 -260 106.5t-98 297.5q0 120 35 236t96.5 208t156.5 148.5t205 56.5q157 0 249.5 -82.5t115.5 -202.5l-62 -16q-20 104 -98 174t-203 70q-99 0 -183 -52.5t-137 -137t-82.5 -187.5t-29.5 -207q0 -173 81.5 -263.5t213.5 -90.5
q74 0 139 26t111 69.5t77.5 90.5t51.5 98l61 -28q-147 -314 -440 -314z" />
    <glyph glyph-name="Ccircumflex" unicode="&#x108;" horiz-adv-x="1499" 
d="M799 1608h-74l283 233h106l172 -233h-63l-166 188zM754 -25q-258 0 -415 172t-157 437q0 177 49 334.5t138.5 278t226.5 191t303 70.5q113 0 210.5 -31t161.5 -78t112 -105.5t71 -109.5t31 -94l-62 -16q-12 48 -36 96t-68 100t-100.5 91t-140 64.5t-179.5 25.5
q-124 0 -230 -43t-182.5 -119t-131 -178.5t-81 -222t-26.5 -248.5q0 -158 61 -284.5t176.5 -199.5t266.5 -73q402 0 579 397l60 -29q-27 -60 -62 -114t-91 -113t-122.5 -101.5t-160.5 -70t-201 -27.5z" />
    <glyph glyph-name="ccircumflex" unicode="&#x109;" horiz-adv-x="1046" 
d="M471 1159h-65l256 234h96l157 -234h-57l-151 189zM475 -25q-162 0 -260 106.5t-98 297.5q0 120 35 236t96.5 208t156.5 148.5t205 56.5q157 0 249.5 -82.5t115.5 -202.5l-62 -16q-20 104 -98 174t-203 70q-99 0 -183 -52.5t-137 -137t-82.5 -187.5t-29.5 -207
q0 -173 81.5 -263.5t213.5 -90.5q74 0 139 26t111 69.5t77.5 90.5t51.5 98l61 -28q-147 -314 -440 -314z" />
    <glyph glyph-name="Cdotaccent" unicode="&#x10a;" horiz-adv-x="1499" 
d="M1044 1610h-63l39 180h63zM754 -25q-258 0 -415 172t-157 437q0 177 49 334.5t138.5 278t226.5 191t303 70.5q113 0 210.5 -31t161.5 -78t112 -105.5t71 -109.5t31 -94l-62 -16q-12 48 -36 96t-68 100t-100.5 91t-140 64.5t-179.5 25.5q-124 0 -230 -43t-182.5 -119
t-131 -178.5t-81 -222t-26.5 -248.5q0 -158 61 -284.5t176.5 -199.5t266.5 -73q402 0 579 397l60 -29q-27 -60 -62 -114t-91 -113t-122.5 -101.5t-160.5 -70t-201 -27.5z" />
    <glyph glyph-name="cdotaccent" unicode="&#x10b;" horiz-adv-x="1046" 
d="M717 1253h-64l39 181h64zM475 -25q-162 0 -260 106.5t-98 297.5q0 120 35 236t96.5 208t156.5 148.5t205 56.5q157 0 249.5 -82.5t115.5 -202.5l-62 -16q-20 104 -98 174t-203 70q-99 0 -183 -52.5t-137 -137t-82.5 -187.5t-29.5 -207q0 -173 81.5 -263.5t213.5 -90.5
q74 0 139 26t111 69.5t77.5 90.5t51.5 98l61 -28q-147 -314 -440 -314z" />
    <glyph glyph-name="Ccaron" unicode="&#x10c;" horiz-adv-x="1499" 
d="M1274 1841h72l-283 -233h-105l-174 233h64l166 -188zM754 -25q-258 0 -415 172t-157 437q0 177 49 334.5t138.5 278t226.5 191t303 70.5q113 0 210.5 -31t161.5 -78t112 -105.5t71 -109.5t31 -94l-62 -16q-12 48 -36 96t-68 100t-100.5 91t-140 64.5t-179.5 25.5
q-124 0 -230 -43t-182.5 -119t-131 -178.5t-81 -222t-26.5 -248.5q0 -158 61 -284.5t176.5 -199.5t266.5 -73q402 0 579 397l60 -29q-27 -60 -62 -114t-91 -113t-122.5 -101.5t-160.5 -70t-201 -27.5z" />
    <glyph glyph-name="ccaron" unicode="&#x10d;" horiz-adv-x="1046" 
d="M719 1159h-96l-158 234h55l154 -189l235 189h66zM475 -25q-162 0 -260 106.5t-98 297.5q0 120 35 236t96.5 208t156.5 148.5t205 56.5q157 0 249.5 -82.5t115.5 -202.5l-62 -16q-20 104 -98 174t-203 70q-99 0 -183 -52.5t-137 -137t-82.5 -187.5t-29.5 -207
q0 -173 81.5 -263.5t213.5 -90.5q74 0 139 26t111 69.5t77.5 90.5t51.5 98l61 -28q-147 -314 -440 -314z" />
    <glyph glyph-name="Dcaron" unicode="&#x10e;" horiz-adv-x="1480" 
d="M1135 1841h71l-282 -233h-105l-174 233h64l165 -188zM580 0h-437l303 1434h289q140 0 259.5 -43.5t207.5 -124.5t137.5 -204t49.5 -274q0 -163 -56.5 -306.5t-159 -250.5t-256 -169t-337.5 -62zM494 1376l-279 -1319h365q173 0 315.5 58t236 158t144.5 232.5t51 282.5
q0 274 -164 431t-450 157h-219z" />
    <glyph glyph-name="dcaron" unicode="&#x10f;" horiz-adv-x="1183" 
d="M479 -25q-153 0 -256.5 104t-103.5 292q0 129 32 246.5t90 209.5t147.5 146.5t197.5 54.5q145 0 238 -78.5t120 -212.5q7 38 47 228l101 469h59l-305 -1434h-58l35 168q-57 -89 -144.5 -141t-199.5 -52zM1262 1100h-48l127 186h-43l33 146h88l-30 -146zM485 33
q96 0 176 49.5t132.5 132.5t81 188.5t28.5 219.5q0 161 -89 254.5t-224 93.5q-94 0 -172.5 -50.5t-129.5 -134t-78.5 -190t-27.5 -221.5q0 -161 85.5 -251.5t217.5 -90.5z" />
    <glyph glyph-name="Dcroat" unicode="&#x110;" horiz-adv-x="1542" 
d="M455 1434h288q140 0 259.5 -43.5t207.5 -124.5t137.5 -204t49.5 -274q0 -163 -56.5 -306.5t-159 -250.5t-256 -169t-337.5 -62h-436l145 692h-162l12 58h162zM223 57h365q173 0 315.5 58t236 158t144.5 232.5t51 282.5q0 274 -164 431t-450 157h-219l-133 -626h383
l-13 -58h-383z" />
    <glyph glyph-name="dcroat" unicode="&#x111;" horiz-adv-x="1159" 
d="M1112 1255h188l-10 -47h-186l-258 -1208h-58l35 168q-57 -89 -144.5 -141t-199.5 -52q-153 0 -256.5 104t-103.5 292q0 129 32 246.5t90 209.5t147.5 146.5t197.5 54.5q145 0 238 -78.5t120 -212.5q7 38 47 228l51 243h-380l10 47h381l39 179h59zM485 33q96 0 176 49.5
t132.5 132.5t81 188.5t28.5 219.5q0 161 -89 254.5t-224 93.5q-94 0 -172.5 -50.5t-129.5 -134t-78.5 -190t-27.5 -221.5q0 -161 85.5 -251.5t217.5 -90.5z" />
    <glyph glyph-name="Emacron" unicode="&#x112;" horiz-adv-x="1280" 
d="M1292 1671h-657l12 55h658zM1073 0h-930l303 1434h930l-12 -58h-868l-127 -598h665l-12 -57h-666l-139 -664h868z" />
    <glyph glyph-name="emacron" unicode="&#x113;" horiz-adv-x="1079" 
d="M983 1227h-598l12 55h598zM473 -25q-159 0 -257.5 100t-98.5 302q0 119 34 234t96 208.5t158.5 151t210.5 57.5q102 0 180.5 -41t120 -110.5t52.5 -162.5t-21 -198h-755q-24 -98 -14.5 -185.5t42.5 -153.5t98.5 -105t153.5 -39q76 0 141.5 21.5t112.5 59t79 77t56 85.5
l58 -30q-144 -271 -447 -271zM203 571h694q24 108 -1 198.5t-98.5 146t-181.5 55.5q-80 0 -149.5 -32t-120.5 -88t-87 -126.5t-56 -153.5z" />
    <glyph glyph-name="Ebreve" unicode="&#x114;" horiz-adv-x="1280" 
d="M967 1599q-120 0 -177 67t-42 173h51q-11 -182 170 -182q85 0 153 44.5t101 137.5h61q-34 -109 -115 -174.5t-202 -65.5zM1073 0h-930l303 1434h930l-12 -58h-868l-127 -598h665l-12 -57h-666l-139 -664h868z" />
    <glyph glyph-name="ebreve" unicode="&#x115;" horiz-adv-x="1079" 
d="M680 1153q-109 0 -161 67t-38 173h47q-6 -94 35.5 -138.5t118.5 -44.5t138.5 45t92.5 138h56q-31 -110 -104.5 -175t-184.5 -65zM473 -25q-159 0 -257.5 100t-98.5 302q0 119 34 234t96 208.5t158.5 151t210.5 57.5q102 0 180.5 -41t120 -110.5t52.5 -162.5t-21 -198
h-755q-24 -98 -14.5 -185.5t42.5 -153.5t98.5 -105t153.5 -39q76 0 141.5 21.5t112.5 59t79 77t56 85.5l58 -30q-144 -271 -447 -271zM203 571h694q24 108 -1 198.5t-98.5 146t-181.5 55.5q-80 0 -149.5 -32t-120.5 -88t-87 -126.5t-56 -153.5z" />
    <glyph glyph-name="Edotaccent" unicode="&#x116;" horiz-adv-x="1280" 
d="M977 1610h-64l39 180h64zM1073 0h-930l303 1434h930l-12 -58h-868l-127 -598h665l-12 -57h-666l-139 -664h868z" />
    <glyph glyph-name="edotaccent" unicode="&#x117;" horiz-adv-x="1079" 
d="M719 1253h-64l39 181h64zM473 -25q-159 0 -257.5 100t-98.5 302q0 119 34 234t96 208.5t158.5 151t210.5 57.5q102 0 180.5 -41t120 -110.5t52.5 -162.5t-21 -198h-755q-24 -98 -14.5 -185.5t42.5 -153.5t98.5 -105t153.5 -39q76 0 141.5 21.5t112.5 59t79 77t56 85.5
l58 -30q-144 -271 -447 -271zM203 571h694q24 108 -1 198.5t-98.5 146t-181.5 55.5q-80 0 -149.5 -32t-120.5 -88t-87 -126.5t-56 -153.5z" />
    <glyph glyph-name="Eogonek" unicode="&#x118;" horiz-adv-x="1280" 
d="M1376 1434l-12 -58h-868l-127 -598h665l-12 -57h-666l-139 -664h868l-12 -57q-208 -99 -235 -229q-11 -46 7 -74.5t66 -28.5q41 0 99 21l-13 -58q-41 -20 -84 -20q-74 0 -109 43t-24 108q10 60 60 124t137 114h-834l303 1434h930z" />
    <glyph glyph-name="eogonek" unicode="&#x119;" horiz-adv-x="1079" 
d="M117 377q0 119 34 234t96 208.5t158.5 151t210.5 57.5q102 0 180.5 -41t120 -110.5t52.5 -162.5t-21 -198h-755q-24 -98 -14.5 -185.5t42.5 -153.5t98.5 -105t153.5 -39q76 0 141.5 21.5t112.5 59t79 77t56 85.5l58 -30q-87 -166 -248 -236q-130 -57 -193.5 -114.5
t-77.5 -124.5q-11 -46 7.5 -74.5t66.5 -28.5q40 0 98 21l-12 -58q-41 -20 -84 -20q-74 0 -109 43t-24 108q10 54 50 110t112 103q-188 -7 -288.5 99t-100.5 303zM203 571h694q24 108 -1 198.5t-98.5 146t-181.5 55.5q-80 0 -149.5 -32t-120.5 -88t-87 -126.5t-56 -153.5z
" />
    <glyph glyph-name="Ecaron" unicode="&#x11a;" horiz-adv-x="1280" 
d="M1210 1841h72l-283 -233h-104l-174 233h63l166 -188zM1073 0h-930l303 1434h930l-12 -58h-868l-127 -598h665l-12 -57h-666l-139 -664h868z" />
    <glyph glyph-name="ecaron" unicode="&#x11b;" horiz-adv-x="1079" 
d="M721 1159h-96l-158 234h55l154 -189l235 189h66zM473 -25q-159 0 -257.5 100t-98.5 302q0 119 34 234t96 208.5t158.5 151t210.5 57.5q102 0 180.5 -41t120 -110.5t52.5 -162.5t-21 -198h-755q-24 -98 -14.5 -185.5t42.5 -153.5t98.5 -105t153.5 -39q76 0 141.5 21.5
t112.5 59t79 77t56 85.5l58 -30q-144 -271 -447 -271zM203 571h694q24 108 -1 198.5t-98.5 146t-181.5 55.5q-80 0 -149.5 -32t-120.5 -88t-87 -126.5t-56 -153.5z" />
    <glyph glyph-name="Gcircumflex" unicode="&#x11c;" horiz-adv-x="1603" 
d="M838 1608h-74l283 233h106l172 -233h-63l-166 188zM758 -25q-172 0 -303.5 80.5t-203 224.5t-71.5 330q0 166 55 319t153 270.5t244 188t316 70.5q121 0 223 -31.5t166.5 -77.5t112.5 -105.5t70.5 -109t31.5 -94.5l-63 -18q-11 48 -33.5 96t-66.5 100.5t-102 92t-146 65
t-193 25.5q-127 0 -240 -42.5t-196.5 -118t-144.5 -175t-92 -216t-31 -239.5q0 -255 141.5 -416t370.5 -161q250 0 417.5 153.5t235.5 419.5h-553l10 58h617l-140 -664h-61l74 340q-33 -61 -68 -110.5t-87.5 -98.5t-113.5 -82t-145.5 -53.5t-183.5 -20.5z" />
    <glyph glyph-name="gcircumflex" unicode="&#x11d;" horiz-adv-x="1157" 
d="M483 1159h-65l256 234h96l158 -234h-58l-151 189zM614 -399h-452q-119 0 -175.5 50t-56.5 128q0 84 60.5 146.5t148.5 97.5q-35 15 -62.5 52.5t-27.5 80.5q0 80 59 146.5t148 109.5q-68 84 -68 204q0 175 110.5 293.5t279.5 118.5q118 0 206 -56.5t121 -156.5
q10 92 65.5 140.5t131.5 48.5h76l-11 -56h-39q-28 0 -46 -2t-43.5 -11.5t-42.5 -27.5t-31.5 -53.5t-20.5 -85.5l-12 -104q-21 -177 -132 -271t-265 -94q-150 0 -242 76q-81 -37 -132.5 -91.5t-51.5 -119.5q0 -45 34.5 -77t98.5 -32h424q122 0 192 -54t70 -148
q0 -118 -85 -185t-229 -67zM532 354q153 0 246.5 95t93.5 243q0 121 -81.5 201t-215.5 80q-147 0 -237 -104t-90 -255q0 -122 74 -191t210 -69zM178 -344h422q134 0 199 51.5t65 142.5q0 150 -223 150h-426q-86 -23 -154.5 -80.5t-68.5 -130.5q0 -55 43 -94t143 -39z" />
    <glyph glyph-name="Gbreve" unicode="&#x11e;" horiz-adv-x="1603" 
d="M1073 1599q-120 0 -177 67t-42 173h51q-11 -182 170 -182q85 0 153 44.5t101 137.5h62q-34 -109 -115.5 -174.5t-202.5 -65.5zM758 -25q-172 0 -303.5 80.5t-203 224.5t-71.5 330q0 166 55 319t153 270.5t244 188t316 70.5q121 0 223 -31.5t166.5 -77.5t112.5 -105.5
t70.5 -109t31.5 -94.5l-63 -18q-11 48 -33.5 96t-66.5 100.5t-102 92t-146 65t-193 25.5q-127 0 -240 -42.5t-196.5 -118t-144.5 -175t-92 -216t-31 -239.5q0 -255 141.5 -416t370.5 -161q250 0 417.5 153.5t235.5 419.5h-553l10 58h617l-140 -664h-61l74 340
q-33 -61 -68 -110.5t-87.5 -98.5t-113.5 -82t-145.5 -53.5t-183.5 -20.5z" />
    <glyph glyph-name="gbreve" unicode="&#x11f;" horiz-adv-x="1157" 
d="M676 1153q-109 0 -161 67t-38 173h47q-6 -94 35.5 -138.5t118.5 -44.5t138.5 45t92.5 138h56q-31 -110 -104.5 -175t-184.5 -65zM614 -399h-452q-119 0 -175.5 50t-56.5 128q0 84 60.5 146.5t148.5 97.5q-35 15 -62.5 52.5t-27.5 80.5q0 80 59 146.5t148 109.5
q-68 84 -68 204q0 175 110.5 293.5t279.5 118.5q118 0 206 -56.5t121 -156.5q10 92 65.5 140.5t131.5 48.5h76l-11 -56h-39q-28 0 -46 -2t-43.5 -11.5t-42.5 -27.5t-31.5 -53.5t-20.5 -85.5l-12 -104q-21 -177 -132 -271t-265 -94q-150 0 -242 76q-81 -37 -132.5 -91.5
t-51.5 -119.5q0 -45 34.5 -77t98.5 -32h424q122 0 192 -54t70 -148q0 -118 -85 -185t-229 -67zM532 354q153 0 246.5 95t93.5 243q0 121 -81.5 201t-215.5 80q-147 0 -237 -104t-90 -255q0 -122 74 -191t210 -69zM178 -344h422q134 0 199 51.5t65 142.5q0 150 -223 150h-426
q-86 -23 -154.5 -80.5t-68.5 -130.5q0 -55 43 -94t143 -39z" />
    <glyph glyph-name="Gdotaccent" unicode="&#x120;" horiz-adv-x="1603" 
d="M1083 1610h-63l39 180h63zM758 -25q-172 0 -303.5 80.5t-203 224.5t-71.5 330q0 166 55 319t153 270.5t244 188t316 70.5q121 0 223 -31.5t166.5 -77.5t112.5 -105.5t70.5 -109t31.5 -94.5l-63 -18q-11 48 -33.5 96t-66.5 100.5t-102 92t-146 65t-193 25.5
q-127 0 -240 -42.5t-196.5 -118t-144.5 -175t-92 -216t-31 -239.5q0 -255 141.5 -416t370.5 -161q250 0 417.5 153.5t235.5 419.5h-553l10 58h617l-140 -664h-61l74 340q-33 -61 -68 -110.5t-87.5 -98.5t-113.5 -82t-145.5 -53.5t-183.5 -20.5z" />
    <glyph glyph-name="gdotaccent" unicode="&#x121;" horiz-adv-x="1157" 
d="M729 1253h-63l39 181h63zM614 -399h-452q-119 0 -175.5 50t-56.5 128q0 84 60.5 146.5t148.5 97.5q-35 15 -62.5 52.5t-27.5 80.5q0 80 59 146.5t148 109.5q-68 84 -68 204q0 175 110.5 293.5t279.5 118.5q118 0 206 -56.5t121 -156.5q10 92 65.5 140.5t131.5 48.5h76
l-11 -56h-39q-28 0 -46 -2t-43.5 -11.5t-42.5 -27.5t-31.5 -53.5t-20.5 -85.5l-12 -104q-21 -177 -132 -271t-265 -94q-150 0 -242 76q-81 -37 -132.5 -91.5t-51.5 -119.5q0 -45 34.5 -77t98.5 -32h424q122 0 192 -54t70 -148q0 -118 -85 -185t-229 -67zM532 354
q153 0 246.5 95t93.5 243q0 121 -81.5 201t-215.5 80q-147 0 -237 -104t-90 -255q0 -122 74 -191t210 -69zM178 -344h422q134 0 199 51.5t65 142.5q0 150 -223 150h-426q-86 -23 -154.5 -80.5t-68.5 -130.5q0 -55 43 -94t143 -39z" />
    <glyph glyph-name="uni0122" unicode="&#x122;" horiz-adv-x="1603" 
d="M758 -25q-172 0 -303.5 80.5t-203 224.5t-71.5 330q0 166 55 319t153 270.5t244 188t316 70.5q121 0 223 -31.5t166.5 -77.5t112.5 -105.5t70.5 -109t31.5 -94.5l-63 -18q-11 48 -33.5 96t-66.5 100.5t-102 92t-146 65t-193 25.5q-127 0 -240 -42.5t-196.5 -118
t-144.5 -175t-92 -216t-31 -239.5q0 -255 141.5 -416t370.5 -161q250 0 417.5 153.5t235.5 419.5h-553l10 58h617l-140 -664h-61l74 340q-33 -61 -68 -110.5t-87.5 -98.5t-113.5 -82t-145.5 -53.5t-183.5 -20.5zM614 -551h-47l127 186h-43l33 146h88l-31 -146z" />
    <glyph glyph-name="uni0123" unicode="&#x123;" horiz-adv-x="1157" 
d="M791 1585h47l-127 -186h43l-31 -146h-90l31 146zM614 -399h-452q-119 0 -175.5 50t-56.5 128q0 84 60.5 146.5t148.5 97.5q-35 15 -62.5 52.5t-27.5 80.5q0 80 59 146.5t148 109.5q-68 84 -68 204q0 175 110.5 293.5t279.5 118.5q118 0 206 -56.5t121 -156.5
q10 92 65.5 140.5t131.5 48.5h76l-11 -56h-39q-28 0 -46 -2t-43.5 -11.5t-42.5 -27.5t-31.5 -53.5t-20.5 -85.5l-12 -104q-21 -177 -132 -271t-265 -94q-150 0 -242 76q-81 -37 -132.5 -91.5t-51.5 -119.5q0 -45 34.5 -77t98.5 -32h424q122 0 192 -54t70 -148
q0 -118 -85 -185t-229 -67zM532 354q153 0 246.5 95t93.5 243q0 121 -81.5 201t-215.5 80q-147 0 -237 -104t-90 -255q0 -122 74 -191t210 -69zM178 -344h422q134 0 199 51.5t65 142.5q0 150 -223 150h-426q-86 -23 -154.5 -80.5t-68.5 -130.5q0 -55 43 -94t143 -39z" />
    <glyph glyph-name="Hcircumflex" unicode="&#x124;" horiz-adv-x="1570" 
d="M807 1608h-74l283 233h106l172 -233h-63l-166 188zM203 0h-60l303 1434h60l-139 -656h954l139 656h60l-303 -1434h-60l152 721h-955z" />
    <glyph glyph-name="hcircumflex" unicode="&#x125;" horiz-adv-x="1175" 
d="M623 1589h-66l256 234h96l158 -234h-57l-152 189zM160 0h-60l306 1434h57l-109 -504l-32 -152q11 25 30.5 54.5t53 65t73 64t95.5 47.5t116 19q190 0 273.5 -126t40.5 -331l-123 -571h-62l119 557q43 206 -25 310t-221 104q-78 0 -145 -32t-112 -80t-80.5 -112
t-55 -119.5t-31.5 -111.5z" />
    <glyph glyph-name="Hbar" unicode="&#x126;" horiz-adv-x="1572" 
d="M1473 1206h157l-14 -55h-156l-243 -1151h-60l152 721h-955l-151 -721h-60l244 1151h-156l13 55h155l47 228h60l-49 -228h954l49 228h60zM367 778h954l80 373h-955z" />
    <glyph glyph-name="hbar" unicode="&#x127;" horiz-adv-x="1175" 
d="M690 1028q190 0 273.5 -126t40.5 -331l-123 -571h-62l119 557q43 206 -25 310t-221 104q-78 0 -145 -32t-112 -80t-80.5 -112t-55 -119.5t-31.5 -111.5l-108 -516h-60l258 1208h-182l10 47h181l39 179h57l-39 -179h391l-10 -47h-391l-60 -278l-32 -152q11 25 30.5 54.5
t53 65t73 64t95.5 47.5t116 19z" />
    <glyph glyph-name="Itilde" unicode="&#x128;" horiz-adv-x="559" 
d="M678 1610q-76 0 -143 53l-54 45q-32 28 -55.5 38.5t-52.5 10.5q-100 0 -129 -129h-68q17 90 70.5 136t130.5 46q74 0 141 -53l53 -45q36 -28 59 -38.5t52 -10.5q102 0 131 129h68q-42 -182 -203 -182zM205 0h-62l303 1434h62z" />
    <glyph glyph-name="itilde" unicode="&#x129;" horiz-adv-x="475" 
d="M524 1178q-69 0 -129 53l-49 45q-29 28 -50.5 38.5t-47.5 10.5q-91 0 -117 -129h-61q14 91 63 136.5t119 45.5q67 0 127 -53l49 -45q33 -28 53.5 -38.5t46.5 -10.5q93 0 119 129h62q-36 -182 -185 -182zM162 0h-62l213 1004h60z" />
    <glyph glyph-name="Imacron" unicode="&#x12a;" horiz-adv-x="559" 
d="M860 1671h-657l12 55h657zM205 0h-62l303 1434h62z" />
    <glyph glyph-name="imacron" unicode="&#x12b;" horiz-adv-x="475" 
d="M690 1227h-598l12 55h598zM162 0h-62l213 1004h60z" />
    <glyph glyph-name="Ibreve" unicode="&#x12c;" horiz-adv-x="559" 
d="M535 1599q-120 0 -177.5 67t-42.5 173h52q-11 -182 170 -182q85 0 153 44.5t101 137.5h61q-34 -109 -115 -174.5t-202 -65.5zM205 0h-62l303 1434h62z" />
    <glyph glyph-name="ibreve" unicode="&#x12d;" horiz-adv-x="475" 
d="M387 1153q-109 0 -161 67t-38 173h48q-11 -183 153 -183q77 0 139 45t93 138h55q-31 -110 -104.5 -175t-184.5 -65zM162 0h-62l213 1004h60z" />
    <glyph glyph-name="Iogonek" unicode="&#x12e;" horiz-adv-x="559" 
d="M510 1434l-303 -1434q-209 -99 -236 -229q-11 -46 7.5 -74.5t66.5 -28.5q40 0 98 21l-12 -58q-41 -20 -84 -20q-74 0 -109 43t-24 108q12 67 71.5 137.5t164.5 120.5l299 1414h61z" />
    <glyph glyph-name="iogonek" unicode="&#x12f;" horiz-adv-x="475" 
d="M365 1253l38 181h64l-39 -181h-63zM106 20l209 984h60l-211 -1004q-209 -99 -236 -229q-11 -46 7.5 -74.5t66.5 -28.5q40 0 98 21l-12 -58q-41 -20 -84 -20q-74 0 -109 43t-24 108q12 67 71 137.5t164 120.5z" />
    <glyph glyph-name="Idotaccent" unicode="&#x130;" horiz-adv-x="559" 
d="M545 1610h-64l39 180h64zM205 0h-62l303 1434h62z" />
    <glyph glyph-name="dotlessi" unicode="&#x131;" horiz-adv-x="475" 
d="M162 0h-62l213 1004h60z" />
    <glyph glyph-name="IJ" unicode="&#x132;" horiz-adv-x="1503" 
d="M205 0h-62l303 1434h62zM846 -25q-163 0 -234 121.5t-2 331.5l66 8q-36 -104 -37 -184t28.5 -126.5t74 -69.5t102.5 -23q266 0 342 354l223 1047h59l-227 -1072q-19 -87 -48.5 -154t-75.5 -121t-114.5 -83t-156.5 -29z" />
    <glyph glyph-name="ij" unicode="&#x133;" horiz-adv-x="966" 
d="M430 1253h-63l39 181h63zM924 1253h-66l39 181h66zM162 0h-62l213 1004h60zM319 -399h-102l12 57h95q194 0 241 215l240 1131h59l-239 -1137q-28 -130 -99.5 -198t-206.5 -68z" />
    <glyph glyph-name="Jcircumflex" unicode="&#x134;" horiz-adv-x="958" 
d="M717 1608h-74l283 233h106l172 -233h-63l-166 188zM301 -25q-163 0 -233.5 121.5t-1.5 331.5l65 8q-36 -104 -37 -184t28.5 -126.5t74 -69.5t102.5 -23q266 0 342 354l223 1047h60l-228 -1072q-19 -87 -48.5 -154t-75.5 -121t-114.5 -83t-156.5 -29z" />
    <glyph glyph-name="jcircumflex" unicode="&#x135;" horiz-adv-x="489" 
d="M197 1159h-66l256 234h96l158 -234h-57l-152 189zM-143 -399h-117l12 57h105q81 0 144 50.5t89 170.5l240 1125h59l-242 -1133q-30 -137 -106 -203.5t-184 -66.5z" />
    <glyph glyph-name="uni0136" unicode="&#x136;" horiz-adv-x="1312" 
d="M1313 1434h90l-705 -615l498 -819h-74l-469 776l-352 -307l-98 -469h-60l303 1434h60l-123 -582l-61 -289zM586 -365h-43l32 146h89l-31 -146l-127 -186h-47z" />
    <glyph glyph-name="uni0137" unicode="&#x137;" horiz-adv-x="1089" 
d="M1032 1004h92l-557 -412l391 -592h-73l-365 557l-287 -211l-73 -346h-60l303 1434h60l-154 -729q-43 -199 -59 -279zM444 -365h-43l33 146h88l-30 -146l-127 -186h-48z" />
    <glyph glyph-name="Lacute" unicode="&#x139;" horiz-adv-x="1126" 
d="M537 1608h-64l234 233h102zM987 0h-844l303 1434h62l-291 -1377h782z" />
    <glyph glyph-name="lacute" unicode="&#x13a;" horiz-adv-x="473" 
d="M496 1589h-58l211 234h94zM160 0h-60l303 1434h60z" />
    <glyph glyph-name="uni013B" unicode="&#x13b;" horiz-adv-x="1126" 
d="M987 0h-844l303 1434h62l-291 -1377h782zM399 -551h-47l127 186h-43l33 146h88l-31 -146z" />
    <glyph glyph-name="uni013C" unicode="&#x13c;" horiz-adv-x="473" 
d="M160 0h-60l303 1434h60zM-27 -551h-47l127 186h-43l33 146h88l-31 -146z" />
    <glyph glyph-name="Lcaron" unicode="&#x13d;" horiz-adv-x="1128" 
d="M987 0h-844l303 1434h62l-291 -1377h782zM817 1067h-53l141 205h-47l35 160h96l-33 -160z" />
    <glyph glyph-name="lcaron" unicode="&#x13e;" horiz-adv-x="497" 
d="M160 0h-60l303 1434h60zM571 1100h-47l127 186h-43l33 146h88l-31 -146z" />
    <glyph glyph-name="Ldot" unicode="&#x13f;" horiz-adv-x="1130" 
d="M987 0h-844l303 1434h62l-291 -1377h782zM901 647h-102l37 172h102z" />
    <glyph glyph-name="ldot" unicode="&#x140;" horiz-adv-x="696" 
d="M160 0h-60l303 1434h60zM645 596h-102l37 172h102z" />
    <glyph glyph-name="Lslash" unicode="&#x141;" horiz-adv-x="1202" 
d="M344 571l-108 -514h782l-12 -57h-844l112 530l-182 -110l17 76l180 108l176 830h61l-166 -787l582 352l-16 -75z" />
    <glyph glyph-name="lslash" unicode="&#x142;" horiz-adv-x="542" 
d="M362 834l187 137l-19 -82l-184 -137l-160 -752h-59l147 700l-157 -116l20 84l156 114l137 652h59z" />
    <glyph glyph-name="Nacute" unicode="&#x143;" horiz-adv-x="1570" 
d="M1038 1608h-63l233 233h103zM203 0h-60l303 1434h68l660 -1356l59 282l227 1074h60l-303 -1434h-74l-656 1346l-61 -291z" />
    <glyph glyph-name="nacute" unicode="&#x144;" horiz-adv-x="1175" 
d="M766 1159h-57l211 234h94zM160 0h-60l213 1004h58l-49 -226q11 25 30.5 54.5t53.5 65t74 64t96 47.5t116 19q190 0 271.5 -125.5t37.5 -333.5l-120 -569h-62l119 557q43 206 -25 310t-221 104q-78 0 -145 -32t-112 -80t-80.5 -112t-55 -119.5t-31.5 -111.5z" />
    <glyph glyph-name="uni0145" unicode="&#x145;" horiz-adv-x="1570" 
d="M203 0h-60l303 1434h68l660 -1356l59 282l227 1074h60l-303 -1434h-74l-656 1346l-61 -291zM520 -551h-47l127 186h-43l33 146h88l-31 -146z" />
    <glyph glyph-name="uni0146" unicode="&#x146;" horiz-adv-x="1175" 
d="M160 0h-60l213 1004h58l-49 -226q11 25 30.5 54.5t53.5 65t74 64t96 47.5t116 19q190 0 271.5 -125.5t37.5 -333.5l-120 -569h-62l119 557q43 206 -25 310t-221 104q-78 0 -145 -32t-112 -80t-80.5 -112t-55 -119.5t-31.5 -111.5zM348 -551h-47l127 186h-43l33 146h88
l-31 -146z" />
    <glyph glyph-name="Ncaron" unicode="&#x147;" horiz-adv-x="1570" 
d="M1276 1841h72l-283 -233h-104l-175 233h64l166 -188zM203 0h-60l303 1434h68l660 -1356l59 282l227 1074h60l-303 -1434h-74l-656 1346l-61 -291z" />
    <glyph glyph-name="ncaron" unicode="&#x148;" horiz-adv-x="1175" 
d="M788 1159h-96l-157 234h55l153 -189l236 189h65zM160 0h-60l213 1004h58l-49 -226q11 25 30.5 54.5t53.5 65t74 64t96 47.5t116 19q190 0 271.5 -125.5t37.5 -333.5l-120 -569h-62l119 557q43 206 -25 310t-221 104q-78 0 -145 -32t-112 -80t-80.5 -112t-55 -119.5
t-31.5 -111.5z" />
    <glyph glyph-name="Eng" unicode="&#x14a;" horiz-adv-x="1570" 
d="M889 -401h-66l13 57h67q88 0 146.5 56.5t80.5 160.5l29 137l-672 1336l-24 -113l-37 -178l-223 -1055h-60l303 1434h68l666 -1328l24 123q6 25 16.5 74t12.5 57l227 1074h60l-328 -1543q-34 -161 -111.5 -226.5t-191.5 -65.5z" />
    <glyph glyph-name="eng" unicode="&#x14b;" horiz-adv-x="1175" 
d="M600 -399h-154l15 57h162q122 0 155 145l160 754q43 206 -25 310t-221 104q-78 0 -145 -32t-112 -80t-80.5 -112t-55 -119.5t-31.5 -111.5l-108 -516h-60l213 1004h58l-49 -226q11 25 30.5 54.5t53.5 65t74 64t96 47.5t116 19q190 0 271.5 -125.5t37.5 -333.5l-159 -759
q-25 -115 -80 -162t-162 -47z" />
    <glyph glyph-name="Omacron" unicode="&#x14c;" horiz-adv-x="1652" 
d="M1393 1671h-658l13 55h657zM813 -25q-182 0 -326.5 79.5t-225.5 223t-81 324.5q0 177 57.5 335.5t157 272.5t239.5 181t298 67q278 0 455.5 -176t177.5 -453q0 -235 -98 -430.5t-271 -309.5t-383 -114zM809 33q145 0 273.5 63t220 169.5t145 253.5t53.5 310
q0 158 -70 288t-200 207t-295 77q-194 0 -353 -106t-249 -286.5t-90 -396.5q0 -163 69.5 -294.5t199.5 -208t296 -76.5z" />
    <glyph glyph-name="omacron" unicode="&#x14d;" horiz-adv-x="1153" 
d="M1016 1227h-598l12 55h598zM524 -25q-82 0 -154.5 29t-128.5 83t-89 140t-33 193q0 113 36.5 222t101.5 195t163 138.5t211 52.5q82 0 154 -28.5t128 -83t88.5 -140t32.5 -192.5q0 -90 -22.5 -178.5t-67 -166t-105.5 -136.5t-142.5 -93.5t-172.5 -34.5zM522 33
q97 0 182.5 48t142.5 125t89.5 174t32.5 195q0 186 -95 291t-243 105q-97 0 -182.5 -48t-142.5 -125.5t-89.5 -174.5t-32.5 -195q0 -186 95 -290.5t243 -104.5z" />
    <glyph glyph-name="Obreve" unicode="&#x14e;" horiz-adv-x="1652" 
d="M1067 1599q-120 0 -177 67t-42 173h51q-11 -182 170 -182q85 0 153 44.5t101 137.5h61q-34 -109 -115 -174.5t-202 -65.5zM813 -25q-182 0 -326.5 79.5t-225.5 223t-81 324.5q0 177 57.5 335.5t157 272.5t239.5 181t298 67q278 0 455.5 -176t177.5 -453
q0 -235 -98 -430.5t-271 -309.5t-383 -114zM809 33q145 0 273.5 63t220 169.5t145 253.5t53.5 310q0 158 -70 288t-200 207t-295 77q-194 0 -353 -106t-249 -286.5t-90 -396.5q0 -163 69.5 -294.5t199.5 -208t296 -76.5z" />
    <glyph glyph-name="obreve" unicode="&#x14f;" horiz-adv-x="1153" 
d="M713 1153q-109 0 -161 67t-38 173h47q-6 -94 35.5 -138.5t118.5 -44.5t138.5 45t92.5 138h55q-31 -110 -104 -175t-184 -65zM524 -25q-82 0 -154.5 29t-128.5 83t-89 140t-33 193q0 113 36.5 222t101.5 195t163 138.5t211 52.5q82 0 154 -28.5t128 -83t88.5 -140
t32.5 -192.5q0 -90 -22.5 -178.5t-67 -166t-105.5 -136.5t-142.5 -93.5t-172.5 -34.5zM522 33q97 0 182.5 48t142.5 125t89.5 174t32.5 195q0 186 -95 291t-243 105q-97 0 -182.5 -48t-142.5 -125.5t-89.5 -174.5t-32.5 -195q0 -186 95 -290.5t243 -104.5z" />
    <glyph glyph-name="Ohungarumlaut" unicode="&#x150;" horiz-adv-x="1652" 
d="M887 1608h-58l232 233h102zM1163 1608h-55l229 233h105zM813 -25q-182 0 -326.5 79.5t-225.5 223t-81 324.5q0 177 57.5 335.5t157 272.5t239.5 181t298 67q278 0 455.5 -176t177.5 -453q0 -235 -98 -430.5t-271 -309.5t-383 -114zM809 33q145 0 273.5 63t220 169.5
t145 253.5t53.5 310q0 158 -70 288t-200 207t-295 77q-194 0 -353 -106t-249 -286.5t-90 -396.5q0 -163 69.5 -294.5t199.5 -208t296 -76.5z" />
    <glyph glyph-name="ohungarumlaut" unicode="&#x151;" horiz-adv-x="1153" 
d="M580 1159h-52l209 234h94zM831 1159h-51l209 234h94zM524 -25q-82 0 -154.5 29t-128.5 83t-89 140t-33 193q0 113 36.5 222t101.5 195t163 138.5t211 52.5q82 0 154 -28.5t128 -83t88.5 -140t32.5 -192.5q0 -90 -22.5 -178.5t-67 -166t-105.5 -136.5t-142.5 -93.5
t-172.5 -34.5zM522 33q97 0 182.5 48t142.5 125t89.5 174t32.5 195q0 186 -95 291t-243 105q-97 0 -182.5 -48t-142.5 -125.5t-89.5 -174.5t-32.5 -195q0 -186 95 -290.5t243 -104.5z" />
    <glyph glyph-name="OE" unicode="&#x152;" horiz-adv-x="2426" 
d="M776 -25q-271 0 -430.5 178.5t-159.5 477.5q0 231 95 421.5t257.5 298t356.5 107.5q244 0 402.5 -144.5t191.5 -383.5l104 504h930l-12 -58h-869l-126 -598h665l-12 -57h-666l-139 -664h868l-12 -57h-930q29 147 62 297q-96 -150 -246.5 -236t-329.5 -86zM768 33
q143 0 268 60t213 163t138.5 245.5t50.5 303.5q0 265 -149 430.5t-394 165.5q-182 0 -330.5 -101t-232.5 -276.5t-84 -388.5q0 -170 58 -304.5t177.5 -216t284.5 -81.5z" />
    <glyph glyph-name="oe" unicode="&#x153;" horiz-adv-x="1923" 
d="M528 -25q-82 0 -155 29t-130 83t-90.5 140.5t-33.5 192.5q0 153 62.5 290.5t183 227.5t270.5 90q143 0 250.5 -86t138.5 -244q64 148 177 239t261 91q83 0 151 -27.5t110.5 -76t67.5 -113.5t23.5 -139.5t-22.5 -155.5h-756q-14 -79 -13.5 -150.5t21 -132.5t55.5 -105.5
t91 -69.5t127 -25q75 0 140.5 21.5t113 59t81 77t58.5 85.5l57 -30q-154 -271 -450 -271q-133 0 -229.5 76.5t-120.5 227.5q-67 -137 -179.5 -220.5t-259.5 -83.5zM526 33q97 0 182 48t141.5 125t89 173.5t32.5 195.5q0 186 -94 291t-242 105q-97 0 -183 -48t-143.5 -125.5
t-91 -174.5t-33.5 -195q0 -186 97 -290.5t245 -104.5zM1047 571h694q24 106 -1.5 197t-98.5 147t-179 56q-80 0 -150 -32t-121 -88t-87.5 -126.5t-56.5 -153.5z" />
    <glyph glyph-name="Racute" unicode="&#x154;" horiz-adv-x="1378" 
d="M901 1608h-63l233 233h103zM205 0h-62l303 1434h461q175 0 278 -97t103 -239q0 -176 -97 -282.5t-261 -135.5q94 -25 136.5 -96t57.5 -195l50 -389h-64l-45 379q-7 60 -17.5 100.5t-30.5 76.5t-51 56t-78.5 31.5t-113.5 11.5h-430zM496 1376l-142 -665h434
q202 0 320.5 100.5t118.5 282.5q0 121 -84 201.5t-244 80.5h-403z" />
    <glyph glyph-name="racute" unicode="&#x155;" horiz-adv-x="788" 
d="M594 1159h-57l211 234h94zM162 0h-62l215 1004h58l-54 -252q50 110 152 187t231 77q87 0 152 -21l-12 -59q-81 18 -150 18q-83 0 -155.5 -39t-125.5 -107.5t-91 -156.5t-60 -192z" />
    <glyph glyph-name="uni0156" unicode="&#x156;" horiz-adv-x="1378" 
d="M205 0h-62l303 1434h461q175 0 278 -97t103 -239q0 -176 -97 -282.5t-261 -135.5q94 -25 136.5 -96t57.5 -195l50 -389h-64l-45 379q-7 60 -17.5 100.5t-30.5 76.5t-51 56t-78.5 31.5t-113.5 11.5h-430zM496 1376l-142 -665h434q202 0 320.5 100.5t118.5 282.5
q0 121 -84 201.5t-244 80.5h-403zM475 -551h-47l127 186h-43l33 146h88l-31 -146z" />
    <glyph glyph-name="uni0157" unicode="&#x157;" horiz-adv-x="788" 
d="M162 0h-62l215 1004h58l-54 -252q50 110 152 187t231 77q87 0 152 -21l-12 -59q-81 18 -150 18q-83 0 -155.5 -39t-125.5 -107.5t-91 -156.5t-60 -192zM-25 -551h-47l127 186h-43l33 146h88l-31 -146z" />
    <glyph glyph-name="Rcaron" unicode="&#x158;" horiz-adv-x="1378" 
d="M1155 1841h72l-283 -233h-104l-174 233h63l166 -188zM205 0h-62l303 1434h461q175 0 278 -97t103 -239q0 -176 -97 -282.5t-261 -135.5q94 -25 136.5 -96t57.5 -195l50 -389h-64l-45 379q-7 60 -17.5 100.5t-30.5 76.5t-51 56t-78.5 31.5t-113.5 11.5h-430zM496 1376
l-142 -665h434q202 0 320.5 100.5t118.5 282.5q0 121 -84 201.5t-244 80.5h-403z" />
    <glyph glyph-name="rcaron" unicode="&#x159;" horiz-adv-x="788" 
d="M637 1159h-96l-158 234h55l154 -189l235 189h66zM162 0h-62l215 1004h58l-54 -252q50 110 152 187t231 77q87 0 152 -21l-12 -59q-81 18 -150 18q-83 0 -155.5 -39t-125.5 -107.5t-91 -156.5t-60 -192z" />
    <glyph glyph-name="Sacute" unicode="&#x15a;" horiz-adv-x="1214" 
d="M862 1608h-63l233 233h103zM561 -25q-197 0 -329.5 90t-159.5 248l59 31q20 -142 140 -225.5t288 -83.5q193 0 315.5 95t122.5 255q0 217 -276 307l-184 62q-112 37 -182 112t-70 189q0 185 127 294t331 109q86 0 158.5 -22t118.5 -55t80.5 -75t50 -78t20.5 -67l-57 -24
q-5 29 -18.5 60t-43 68.5t-69 66t-103 48t-139.5 19.5q-179 0 -286 -92t-107 -250q0 -90 61.5 -151.5t192.5 -106.5l164 -56q134 -45 214.5 -135t80.5 -219q0 -188 -138 -301t-362 -113z" />
    <glyph glyph-name="sacute" unicode="&#x15b;" horiz-adv-x="970" 
d="M623 1159h-58l211 234h94zM446 -25q-96 0 -171.5 25t-120.5 67t-68 91.5t-23 101.5l60 21q0 -102 84.5 -174t236.5 -72q147 0 225.5 65.5t78.5 163.5q0 79 -52.5 132t-144.5 79l-137 39q-228 65 -228 236q0 124 94.5 201t243.5 77q146 0 240 -74t108 -182l-59 -22
q-13 94 -87.5 157.5t-201.5 63.5t-201.5 -61t-74.5 -152q0 -135 172 -183l137 -38q118 -33 188 -100.5t70 -168.5q0 -127 -96 -210t-273 -83z" />
    <glyph glyph-name="Scircumflex" unicode="&#x15c;" horiz-adv-x="1214" 
d="M625 1608h-74l283 233h106l172 -233h-63l-166 188zM561 -25q-197 0 -329.5 90t-159.5 248l59 31q20 -142 140 -225.5t288 -83.5q193 0 315.5 95t122.5 255q0 217 -276 307l-184 62q-112 37 -182 112t-70 189q0 185 127 294t331 109q86 0 158.5 -22t118.5 -55t80.5 -75
t50 -78t20.5 -67l-57 -24q-5 29 -18.5 60t-43 68.5t-69 66t-103 48t-139.5 19.5q-179 0 -286 -92t-107 -250q0 -90 61.5 -151.5t192.5 -106.5l164 -56q134 -45 214.5 -135t80.5 -219q0 -188 -138 -301t-362 -113z" />
    <glyph glyph-name="scircumflex" unicode="&#x15d;" horiz-adv-x="970" 
d="M418 1159h-66l256 234h97l157 -234h-57l-152 189zM446 -25q-96 0 -171.5 25t-120.5 67t-68 91.5t-23 101.5l60 21q0 -102 84.5 -174t236.5 -72q147 0 225.5 65.5t78.5 163.5q0 79 -52.5 132t-144.5 79l-137 39q-228 65 -228 236q0 124 94.5 201t243.5 77q146 0 240 -74
t108 -182l-59 -22q-13 94 -87.5 157.5t-201.5 63.5t-201.5 -61t-74.5 -152q0 -135 172 -183l137 -38q118 -33 188 -100.5t70 -168.5q0 -127 -96 -210t-273 -83z" />
    <glyph glyph-name="Scedilla" unicode="&#x15e;" horiz-adv-x="1214" 
d="M741 1399q-179 0 -286 -92t-107 -250q0 -90 61.5 -151.5t192.5 -106.5l164 -56q134 -45 214.5 -135t80.5 -219q0 -185 -132 -297t-349 -117l-21 -16q-15 -11 -42 -35t-42 -35q27 7 53 7q65 0 105.5 -37t40.5 -88q0 -66 -51.5 -115t-149.5 -49q-121 0 -184 90l43 39
q19 -28 54 -51t87 -23q62 0 101.5 25.5t39.5 79.5q0 39 -29 61t-73 22q-45 0 -88 -16l-31 47l115 96q-176 12 -293 100.5t-143 235.5l59 31q20 -142 140 -225.5t288 -83.5q193 0 315.5 95t122.5 255q0 217 -276 307l-184 62q-112 37 -182 112t-70 189q0 185 127 294t331 109
q86 0 158.5 -22t118.5 -55t80.5 -75t50 -78t20.5 -67l-57 -24q-5 29 -18.5 60t-43 68.5t-69 66t-103 48t-139.5 19.5z" />
    <glyph glyph-name="scedilla" unicode="&#x15f;" horiz-adv-x="970" 
d="M420 575l137 -38q118 -33 188 -100.5t70 -168.5q0 -127 -96 -210t-273 -83h-8l-20 -16q-14 -12 -42 -35t-42 -35q27 7 53 7q65 0 105 -36.5t40 -88.5q0 -66 -51 -115t-149 -49q-60 0 -108 24.5t-77 65.5l43 39q19 -28 54.5 -51t87.5 -23q62 0 101.5 25.5t39.5 79.5
q0 39 -29 61t-73 22q-45 0 -88 -16l-31 47l119 99q-150 19 -229 100t-79 180l60 21q0 -102 84.5 -174t236.5 -72q147 0 225.5 65.5t78.5 163.5q0 79 -52.5 132t-144.5 79l-137 39q-228 65 -228 236q0 124 94.5 201t243.5 77q146 0 240 -74t108 -182l-59 -22
q-13 94 -87.5 157.5t-201.5 63.5t-201.5 -61t-74.5 -152q0 -135 172 -183z" />
    <glyph glyph-name="Scaron" unicode="&#x160;" horiz-adv-x="1214" 
d="M1100 1841h71l-282 -233h-105l-174 233h64l166 -188zM561 -25q-197 0 -329.5 90t-159.5 248l59 31q20 -142 140 -225.5t288 -83.5q193 0 315.5 95t122.5 255q0 217 -276 307l-184 62q-112 37 -182 112t-70 189q0 185 127 294t331 109q86 0 158.5 -22t118.5 -55t80.5 -75
t50 -78t20.5 -67l-57 -24q-5 29 -18.5 60t-43 68.5t-69 66t-103 48t-139.5 19.5q-179 0 -286 -92t-107 -250q0 -90 61.5 -151.5t192.5 -106.5l164 -56q134 -45 214.5 -135t80.5 -219q0 -188 -138 -301t-362 -113z" />
    <glyph glyph-name="scaron" unicode="&#x161;" horiz-adv-x="970" 
d="M666 1159h-97l-157 234h55l154 -189l235 189h66zM446 -25q-96 0 -171.5 25t-120.5 67t-68 91.5t-23 101.5l60 21q0 -102 84.5 -174t236.5 -72q147 0 225.5 65.5t78.5 163.5q0 79 -52.5 132t-144.5 79l-137 39q-228 65 -228 236q0 124 94.5 201t243.5 77q146 0 240 -74
t108 -182l-59 -22q-13 94 -87.5 157.5t-201.5 63.5t-201.5 -61t-74.5 -152q0 -135 172 -183l137 -38q118 -33 188 -100.5t70 -168.5q0 -127 -96 -210t-273 -83z" />
    <glyph glyph-name="uni0162" unicode="&#x162;" horiz-adv-x="1232" 
d="M219 1376l12 58h1168l-13 -58h-571l-291 -1376l-49 -41q-14 -11 -42 -35t-42 -35q27 7 53 7q65 0 105.5 -37t40.5 -88q0 -66 -51.5 -115t-149.5 -49q-121 0 -184 90l43 39q19 -28 54 -51t87 -23q62 0 101.5 25.5t39.5 79.5q0 39 -29 61t-73 22q-45 0 -88 -16l-31 47
l156 129l289 1366h-535z" />
    <glyph glyph-name="uni0163" unicode="&#x163;" horiz-adv-x="749" 
d="M748 948h-304l-137 -647q-52 -244 180 -244h156l-12 -57h-139q-32 0 -46 2l3 -2l-50 -41q-14 -12 -41.5 -35t-42.5 -35q27 7 54 7q65 0 105 -36.5t40 -88.5q0 -66 -51.5 -115t-149.5 -49q-121 0 -184 90l43 39q19 -28 54 -51t87 -23q62 0 102 25.5t40 79.5q0 39 -29.5 61
t-73.5 22q-45 0 -88 -16l-31 47l156 129q-191 50 -137 305l133 633h-266l12 56h266l62 288h59l-61 -288h303z" />
    <glyph glyph-name="Tcaron" unicode="&#x164;" horiz-adv-x="1232" 
d="M1094 1841h71l-282 -233h-105l-174 233h64l166 -188zM524 0h-61l291 1376h-535l12 58h1168l-13 -58h-571z" />
    <glyph glyph-name="tcaron" unicode="&#x165;" horiz-adv-x="749" 
d="M694 1100h-47l127 186h-43l33 146h88l-31 -146zM631 0h-139q-307 0 -240 315l133 633h-266l12 56h266l62 288h59l-61 -288h303l-12 -56h-304l-137 -647q-52 -244 180 -244h156z" />
    <glyph glyph-name="Tbar" unicode="&#x166;" horiz-adv-x="1273" 
d="M1421 1434l-12 -58h-571l-119 -563h360l-12 -53h-360l-160 -760h-62l160 760h-352l12 53h352l119 563h-534l12 58h1167z" />
    <glyph glyph-name="tbar" unicode="&#x167;" horiz-adv-x="786" 
d="M795 1004l-13 -56h-303l-67 -319h305l-12 -51h-304l-59 -277q-52 -244 180 -244h156l-12 -57h-140q-154 0 -213.5 78t-25.5 237l55 263h-266l12 51h264l68 319h-266l12 56h266l62 288h59l-61 -288h303z" />
    <glyph glyph-name="Utilde" unicode="&#x168;" horiz-adv-x="1361" 
d="M1075 1610q-76 0 -143 53l-53 45q-32 28 -56 38.5t-53 10.5q-100 0 -129 -129h-68q17 90 70.5 136t130.5 46q74 0 141 -53l54 -45q36 -28 58.5 -38.5t51.5 -10.5q102 0 131 129h68q-42 -182 -203 -182zM588 -25q-230 0 -321 138.5t-38 386.5l199 934h61l-196 -916
q-49 -232 23 -358.5t272 -126.5q199 0 318 128t173 376l193 897h61l-194 -914q-57 -268 -191 -406.5t-360 -138.5z" />
    <glyph glyph-name="utilde" unicode="&#x169;" horiz-adv-x="1155" 
d="M854 1178q-69 0 -129 53l-49 45q-29 28 -50.5 38.5t-47.5 10.5q-91 0 -117 -129h-62q14 90 63.5 136t119.5 46q67 0 127 -53l49 -45q33 -28 53.5 -38.5t46.5 -10.5q93 0 119 129h61q-36 -182 -184 -182zM463 -25q-195 0 -266 125.5t-19 358.5l119 545h59l-118 -566
q-84 -405 223 -405q154 0 267 121t159 338l108 512h60l-213 -1004h-58q47 210 52 236q-133 -261 -373 -261z" />
    <glyph glyph-name="Umacron" unicode="&#x16a;" horiz-adv-x="1361" 
d="M1257 1671h-657l12 55h658zM588 -25q-230 0 -321 138.5t-38 386.5l199 934h61l-196 -916q-49 -232 23 -358.5t272 -126.5q199 0 318 128t173 376l193 897h61l-194 -914q-57 -268 -191 -406.5t-360 -138.5z" />
    <glyph glyph-name="umacron" unicode="&#x16b;" horiz-adv-x="1155" 
d="M1020 1227h-598l12 55h598zM463 -25q-195 0 -266 125.5t-19 358.5l119 545h59l-118 -566q-84 -405 223 -405q154 0 267 121t159 338l108 512h60l-213 -1004h-58q47 210 52 236q-133 -261 -373 -261z" />
    <glyph glyph-name="Ubreve" unicode="&#x16c;" horiz-adv-x="1361" 
d="M932 1599q-120 0 -177 67t-42 173h51q-11 -182 170 -182q85 0 153 44.5t101 137.5h61q-34 -109 -115 -174.5t-202 -65.5zM588 -25q-230 0 -321 138.5t-38 386.5l199 934h61l-196 -916q-49 -232 23 -358.5t272 -126.5q199 0 318 128t173 376l193 897h61l-194 -914
q-57 -268 -191 -406.5t-360 -138.5z" />
    <glyph glyph-name="ubreve" unicode="&#x16d;" horiz-adv-x="1155" 
d="M717 1153q-109 0 -161 67t-38 173h47q-6 -94 35.5 -138.5t118.5 -44.5t138.5 45t92.5 138h56q-31 -110 -104.5 -175t-184.5 -65zM463 -25q-195 0 -266 125.5t-19 358.5l119 545h59l-118 -566q-84 -405 223 -405q154 0 267 121t159 338l108 512h60l-213 -1004h-58
q47 210 52 236q-133 -261 -373 -261z" />
    <glyph glyph-name="Uring" unicode="&#x16e;" horiz-adv-x="1361" 
d="M911 1579q-77 0 -127.5 51t-50.5 123q0 87 64.5 153t154.5 66q78 0 126 -48.5t48 -119.5q0 -90 -62.5 -157.5t-152.5 -67.5zM915 1630q66 0 109 54t43 118q0 52 -31.5 85.5t-87.5 33.5q-67 0 -110 -52t-43 -116q0 -52 32.5 -87.5t87.5 -35.5zM588 -25q-230 0 -321 138.5
t-38 386.5l199 934h61l-196 -916q-49 -232 23 -358.5t272 -126.5q199 0 318 128t173 376l193 897h61l-194 -914q-57 -268 -191 -406.5t-360 -138.5z" />
    <glyph glyph-name="uring" unicode="&#x16f;" horiz-adv-x="1155" 
d="M700 1112q-74 0 -122 48.5t-48 117.5q0 83 61.5 146t147.5 63q73 0 119.5 -47t46.5 -113q0 -86 -59.5 -150.5t-145.5 -64.5zM702 1161q64 0 105 51t41 113q0 48 -30 80.5t-83 32.5q-64 0 -105.5 -49.5t-41.5 -110.5q0 -49 31 -83t83 -34zM463 -25q-195 0 -266 125.5
t-19 358.5l119 545h59l-118 -566q-84 -405 223 -405q154 0 267 121t159 338l108 512h60l-213 -1004h-58q47 210 52 236q-133 -261 -373 -261z" />
    <glyph glyph-name="Uhungarumlaut" unicode="&#x170;" horiz-adv-x="1361" 
d="M752 1608h-58l232 233h102zM1028 1608h-55l229 233h105zM588 -25q-230 0 -321 138.5t-38 386.5l199 934h61l-196 -916q-49 -232 23 -358.5t272 -126.5q199 0 318 128t173 376l193 897h61l-194 -914q-57 -268 -191 -406.5t-360 -138.5z" />
    <glyph glyph-name="uhungarumlaut" unicode="&#x171;" horiz-adv-x="1155" 
d="M584 1159h-52l209 234h95zM836 1159h-52l209 234h94zM463 -25q-195 0 -266 125.5t-19 358.5l119 545h59l-118 -566q-84 -405 223 -405q154 0 267 121t159 338l108 512h60l-213 -1004h-58q47 210 52 236q-133 -261 -373 -261z" />
    <glyph glyph-name="Uogonek" unicode="&#x172;" horiz-adv-x="1361" 
d="M592 -389q-74 0 -109 43t-24 108q10 53 53 109.5t117 103.5q-248 -9 -352.5 125t-47.5 400l199 934h61l-196 -916q-49 -232 23 -358.5t272 -126.5q199 0 318 128t173 376l193 897h61l-194 -914q-46 -214 -136.5 -340.5t-244.5 -189.5q-104 -43 -166 -99.5t-76 -119.5
q-11 -46 7.5 -74.5t66.5 -28.5q40 0 98 21l-12 -58q-41 -20 -84 -20z" />
    <glyph glyph-name="uogonek" unicode="&#x173;" horiz-adv-x="1155" 
d="M1055 1004l-213 -1004q-209 -99 -236 -229q-11 -46 7.5 -74.5t66.5 -28.5q40 0 98 21l-12 -58q-41 -20 -84 -20q-74 0 -109 43t-24 108q12 68 73 139t169 122q8 38 23 107t22 106q-133 -261 -373 -261q-195 0 -266 125.5t-19 358.5l119 545h59l-118 -566
q-84 -405 223 -405q154 0 267 121t159 338l108 512h60z" />
    <glyph glyph-name="Wcircumflex" unicode="&#x174;" horiz-adv-x="1908" 
d="M971 1608h-74l283 233h106l172 -233h-63l-166 188zM461 0h-94l-52 1434h62l35 -1059q5 -168 12 -320q125 254 162 324l530 1055h66l82 -1055q14 -191 26 -324q121 263 148 324l483 1055h68l-660 -1434h-92l-88 1083l-19 252l-126 -254z" />
    <glyph glyph-name="wcircumflex" unicode="&#x175;" horiz-adv-x="1615" 
d="M750 1159h-66l256 234h96l158 -234h-57l-152 189zM406 0h-82l-131 1004h59l72 -576l49 -375q125 240 198 377l306 574h69l60 -576q22 -223 38 -375l209 377l318 574h65l-557 -1004h-84l-69 672l-27 260q-79 -145 -139 -260z" />
    <glyph glyph-name="Ycircumflex" unicode="&#x176;" horiz-adv-x="1294" 
d="M662 1608h-74l282 233h107l172 -233h-64l-165 188zM571 0h-61l135 637l-332 797h70l258 -629l43 -98q52 56 98 110l514 617h80l-671 -799z" />
    <glyph glyph-name="ycircumflex" unicode="&#x177;" horiz-adv-x="1011" 
d="M811 1159l-152 189l-235 -189h-66l256 234h97l157 -234h-57zM580 338l383 666h67l-672 -1168q-73 -129 -144.5 -182t-201.5 -53h-108l12 57h100q91 0 154.5 39t128.5 153l117 203l-230 951h66l156 -664q18 -81 51 -213q45 82 121 211z" />
    <glyph glyph-name="Ydieresis" unicode="&#x178;" horiz-adv-x="1294" 
d="M729 1610h-90l33 143h90zM1100 1610h-90l30 143h90zM571 0h-61l135 637l-332 797h70l258 -629l43 -98q52 56 98 110l514 617h80l-671 -799z" />
    <glyph glyph-name="Zacute" unicode="&#x179;" horiz-adv-x="1140" 
d="M825 1608h-63l233 233h103zM977 0h-1018l14 72l1184 1304h-172h-672l13 58h925l-12 -58l-1196 -1319h166h780z" />
    <glyph glyph-name="zacute" unicode="&#x17a;" horiz-adv-x="944" 
d="M637 1159h-57l211 234h94zM762 0h-776l12 55l848 891h-170h-481l12 58h737l-10 -52l-852 -895h178h512z" />
    <glyph glyph-name="Zdotaccent" unicode="&#x17b;" horiz-adv-x="1140" 
d="M834 1610h-64l39 180h63zM977 0h-1018l14 72l1184 1304h-172h-672l13 58h925l-12 -58l-1196 -1319h166h780z" />
    <glyph glyph-name="zdotaccent" unicode="&#x17c;" horiz-adv-x="944" 
d="M657 1253h-63l39 181h63zM762 0h-776l12 55l848 891h-170h-481l12 58h737l-10 -52l-852 -895h178h512z" />
    <glyph glyph-name="Zcaron" unicode="&#x17d;" horiz-adv-x="1140" 
d="M1063 1841h72l-283 -233h-104l-175 233h64l166 -188zM977 0h-1018l14 72l1184 1304h-172h-672l13 58h925l-12 -58l-1196 -1319h166h780z" />
    <glyph glyph-name="zcaron" unicode="&#x17e;" horiz-adv-x="944" 
d="M659 1159h-96l-157 234h55l153 -189l236 189h65zM762 0h-776l12 55l848 891h-170h-481l12 58h737l-10 -52l-852 -895h178h512z" />
    <glyph glyph-name="florin" unicode="&#x192;" horiz-adv-x="950" 
d="M-121 -424q-125 0 -184 35l12 61q67 -39 168 -39q32 0 65.5 11.5t69.5 36.5t69.5 72.5t57.5 111.5l228 610q22 57 59.5 162.5t44.5 124.5h-221h-60l13 57h286l131 357q50 138 128.5 210t199.5 72q103 0 150 -28l-13 -58q-59 29 -135 29q-191 0 -284 -268l-109 -314h285
l-15 -57h-290l-330 -893q-107 -293 -326 -293z" />
    <glyph glyph-name="AEacute" unicode="&#x1fc;" horiz-adv-x="1892" 
d="M1718 1841h103l-273 -233h-63zM1989 1434l-13 -58h-772l-127 -598h572l-13 -57h-571l-139 -664h772l-12 -57h-832l98 465h-583l-394 -465h-79l1220 1434h873zM965 522l100 475l82 385q-256 -296 -320 -374l-409 -486h547z" />
    <glyph glyph-name="aeacute" unicode="&#x1fd;" horiz-adv-x="1759" 
d="M999 1159h-57l211 234h94zM362 -25q-128 0 -199 70t-71 180q0 89 43 160t113.5 116.5t167.5 76t199 43t214 12.5l11 49q16 74 -7.5 139t-90 107.5t-164.5 42.5q-138 0 -223 -51t-144 -154l-53 31q126 231 424 231q122 0 210.5 -63t112.5 -179q63 112 165.5 177t225.5 65
q82 0 149 -27t110.5 -74t69 -111.5t24.5 -140t-23 -159.5h-756q-25 -97 -15.5 -184.5t42.5 -154t99.5 -105.5t154.5 -39q140 0 238 69t155 174l58 -30q-161 -271 -451 -271q-134 0 -231 78.5t-121 233.5q-63 -147 -181.5 -229.5t-255.5 -82.5zM881 571h694q24 108 -1 198.5
t-98 146t-180 55.5q-158 0 -265 -113t-150 -287zM362 33q62 0 126 23.5t125 70t109 129t69 188.5l26 136q-89 0 -175 -9t-177 -34t-158.5 -63t-111 -101t-43.5 -144q0 -82 58.5 -139t151.5 -57z" />
    <glyph glyph-name="Oslashacute" unicode="&#x1fe;" horiz-adv-x="1652" 
d="M1073 1608h-63l233 233h103zM362 147l-178 -186l-41 41l181 186q-144 174 -144 414q0 177 57.5 335.5t157 272.5t239.5 181t298 67q274 0 452 -172l197 203l39 -41l-197 -205q142 -167 142 -414q0 -235 -98 -430.5t-271 -309.5t-383 -114q-273 0 -451 172zM369 236
l766 792l204 211q-159 162 -403 162q-194 0 -353 -106t-249 -286.5t-90 -396.5q0 -220 125 -376zM809 33q145 0 273.5 63t220 169.5t145 253.5t53.5 310q0 211 -123 369l-796 -825l-174 -180q157 -160 401 -160z" />
    <glyph glyph-name="oslashacute" unicode="&#x1ff;" horiz-adv-x="1153" 
d="M682 1159h-57l211 234h94zM524 -25q-82 0 -156.5 30.5t-125.5 84.5l-129 -135l-41 41l131 137q-84 114 -84 287q0 113 36.5 222t101.5 195t163 138.5t211 52.5q187 0 301 -135l117 121l43 -39l-123 -127q65 -117 65 -264q0 -90 -22.5 -178.5t-67 -166t-105.5 -136.5
t-142.5 -93.5t-172.5 -34.5zM248 176l487 510q50 54 154 162q-92 123 -258 123q-97 0 -182.5 -48t-143 -125.5t-90.5 -174.5t-33 -195q0 -146 66 -252zM522 33q97 0 182.5 48t143 125t90.5 174t33 195q0 133 -49 226l-478 -500q-80 -85 -159 -168q41 -45 104 -72.5
t133 -27.5z" />
    <glyph glyph-name="uni0218" unicode="&#x218;" horiz-adv-x="1214" 
d="M561 -25q-197 0 -329.5 90t-159.5 248l59 31q20 -142 140 -225.5t288 -83.5q193 0 315.5 95t122.5 255q0 217 -276 307l-184 62q-112 37 -182 112t-70 189q0 185 127 294t331 109q86 0 158.5 -22t118.5 -55t80.5 -75t50 -78t20.5 -67l-57 -24q-5 29 -18.5 60t-43 68.5
t-69 66t-103 48t-139.5 19.5q-179 0 -286 -92t-107 -250q0 -90 61.5 -151.5t192.5 -106.5l164 -56q134 -45 214.5 -135t80.5 -219q0 -188 -138 -301t-362 -113zM403 -551h-47l127 186h-43l33 146h88l-31 -146z" />
    <glyph glyph-name="uni0219" unicode="&#x219;" horiz-adv-x="970" 
d="M446 -25q-96 0 -171.5 25t-120.5 67t-68 91.5t-23 101.5l60 21q0 -102 84.5 -174t236.5 -72q147 0 225.5 65.5t78.5 163.5q0 79 -52.5 132t-144.5 79l-137 39q-228 65 -228 236q0 124 94.5 201t243.5 77q146 0 240 -74t108 -182l-59 -22q-13 94 -87.5 157.5t-201.5 63.5
t-201.5 -61t-74.5 -152q0 -135 172 -183l137 -38q118 -33 188 -100.5t70 -168.5q0 -127 -96 -210t-273 -83zM242 -551h-47l127 186h-43l32 146h88l-30 -146z" />
    <glyph glyph-name="uni021A" unicode="&#x21a;" horiz-adv-x="1232" 
d="M524 0h-61l291 1376h-535l12 58h1168l-13 -58h-571zM336 -551h-47l127 186h-43l33 146h88l-31 -146z" />
    <glyph glyph-name="uni021B" unicode="&#x21b;" horiz-adv-x="749" 
d="M631 0h-139q-307 0 -240 315l133 633h-266l12 56h266l62 288h59l-61 -288h303l-12 -56h-304l-137 -647q-52 -244 180 -244h156zM223 -551h-47l127 186h-43l33 146h88l-31 -146z" />
    <glyph glyph-name="uni0226" unicode="&#x226;" horiz-adv-x="1327" 
d="M903 1790h64l-39 -180h-64zM1141 0h-66l-78 473h-671l-275 -473h-74l842 1434h82zM680 1083l-322 -553h631l-90 549q-28 180 -45 299q-82 -137 -174 -295z" />
    <glyph glyph-name="uni0227" unicode="&#x227;" horiz-adv-x="1081" 
d="M668 1253h-64l39 181h64zM369 -25q-130 0 -203.5 65t-73.5 185q0 108 63.5 190.5t171 129.5t236.5 69.5t273 20.5l8 37q7 43 6 85t-21.5 81t-53 68.5t-87.5 47t-125 17.5q-74 0 -135.5 -19t-102 -51t-67 -65.5t-41.5 -69.5l-55 31q8 21 24.5 47t51 59.5t78 60.5t110 45.5
t143.5 18.5q84 0 153.5 -25.5t116.5 -75t64.5 -122t-2.5 -166.5l-98 -446q-29 -136 88 -136h84l-12 -57h-74q-102 0 -135 64t-4 145q-141 -234 -381 -234zM373 33q63 0 126 23.5t121.5 71t105 129.5t69.5 189l28 136q-128 -1 -241.5 -20.5t-211.5 -59t-156 -110.5t-58 -165
q0 -93 59 -143.5t158 -50.5z" />
    <glyph glyph-name="uni0232" unicode="&#x232;" horiz-adv-x="1294" 
d="M1223 1671h-658l13 55h657zM571 0h-61l135 637l-332 797h70l258 -629l43 -98q52 56 98 110l514 617h80l-671 -799z" />
    <glyph glyph-name="uni0233" unicode="&#x233;" horiz-adv-x="1011" 
d="M348 1282h598l-12 -55h-598zM580 338l383 666h67l-672 -1168q-73 -129 -144.5 -182t-201.5 -53h-108l12 57h100q91 0 154.5 39t128.5 153l117 203l-230 951h66l156 -664q18 -81 51 -213q45 82 121 211z" />
    <glyph glyph-name="uni0237" unicode="&#x237;" horiz-adv-x="489" 
d="M-143 -399h-117l12 57h105q81 0 144 50.5t89 170.5l240 1125h59l-242 -1133q-30 -137 -106 -203.5t-184 -66.5z" />
    <glyph glyph-name="circumflex" unicode="&#x2c6;" horiz-adv-x="755" 
d="M328 1159h-66l256 234h96l158 -234h-57l-152 189z" />
    <glyph glyph-name="caron" unicode="&#x2c7;" horiz-adv-x="755" 
d="M565 1159h-96l-158 234h56l153 -189l236 189h65z" />
    <glyph glyph-name="breve" unicode="&#x2d8;" horiz-adv-x="733" 
d="M510 1153q-109 0 -161 67t-38 173h47q-6 -94 35.5 -138.5t118.5 -44.5t138.5 45t92.5 138h56q-31 -110 -104.5 -175t-184.5 -65z" />
    <glyph glyph-name="dotaccent" unicode="&#x2d9;" horiz-adv-x="473" 
d="M428 1253h-63l38 181h64z" />
    <glyph glyph-name="ring" unicode="&#x2da;" horiz-adv-x="559" 
d="M432 1112q-74 0 -122 48.5t-48 117.5q0 83 61.5 146t147.5 63q73 0 119.5 -47t46.5 -113q0 -86 -59.5 -150.5t-145.5 -64.5zM434 1161q64 0 105 51t41 113q0 48 -30 80.5t-83 32.5q-64 0 -106 -49.5t-42 -110.5q0 -49 31.5 -83t83.5 -34z" />
    <glyph glyph-name="ogonek" unicode="&#x2db;" horiz-adv-x="489" 
d="M109 -389q-74 0 -109.5 43t-24.5 108q12 69 73.5 141t170.5 122l49 -25q-208 -99 -235 -229q-11 -46 7 -74.5t66 -28.5q41 0 99 21l-12 -58q-41 -20 -84 -20z" />
    <glyph glyph-name="tilde" unicode="&#x2dc;" horiz-adv-x="747" 
d="M674 1178q-69 0 -129 53l-49 45q-29 28 -51 38.5t-48 10.5q-90 0 -116 -129h-62q14 91 63 136.5t119 45.5q67 0 127 -53l50 -45q33 -28 53.5 -38.5t46.5 -10.5q93 0 119 129h61q-36 -182 -184 -182z" />
    <glyph glyph-name="hungarumlaut" unicode="&#x2dd;" horiz-adv-x="681" 
d="M299 1159h-51l209 234h94zM551 1159h-51l209 234h94z" />
    <glyph glyph-name="uni0394" unicode="&#x394;" horiz-adv-x="1329" 
d="M819 1434h82l242 -1434h-1166zM680 1083l-596 -1026h981l-164 1022l-47 299q-90 -151 -174 -295z" />
    <glyph glyph-name="uni03A9" unicode="&#x3a9;" horiz-adv-x="1568" 
d="M580 0h-490l12 57h111h252q-133 82 -207 228t-74 331q0 174 54 330t147 268.5t224.5 178t279.5 65.5q260 0 427 -172.5t167 -445.5q0 -261 -134.5 -475t-338.5 -308h141h168l-12 -57h-525l13 57q109 0 222 63.5t202.5 168t146.5 251t57 300.5q0 156 -65.5 284
t-187.5 203.5t-277 75.5q-182 0 -331.5 -104t-233.5 -281.5t-84 -390.5q0 -202 94 -357t254 -215z" />
    <glyph glyph-name="uni03BC" unicode="&#x3bc;" horiz-adv-x="1155" 
d="M57 -399h-59l299 1403h59l-133 -627q-37 -172 30 -258t208 -86q154 0 267 121t159 338l108 512h60l-213 -1004h-58q47 210 52 236q-133 -261 -375 -261q-117 0 -187.5 45t-99.5 119z" />
    <glyph glyph-name="pi" unicode="&#x3c0;" horiz-adv-x="1220" 
d="M236 0h-62l201 946h-248l12 58h1094l-12 -58h-256l-162 -762q-12 -60 6 -93.5t86 -33.5h137l-12 -57h-125q-96 0 -133.5 49t-18.5 135l160 762h-467z" />
    <glyph glyph-name="Wgrave" unicode="&#x1e80;" horiz-adv-x="1908" 
d="M1188 1608h-51l-168 233h96zM461 0h-94l-52 1434h62l35 -1059q5 -168 12 -320q125 254 162 324l530 1055h66l82 -1055q14 -191 26 -324q121 263 148 324l483 1055h68l-660 -1434h-92l-88 1083l-19 252l-126 -254z" />
    <glyph glyph-name="wgrave" unicode="&#x1e81;" horiz-adv-x="1615" 
d="M938 1159h-45l-154 234h88zM406 0h-82l-131 1004h59l72 -576l49 -375q125 240 198 377l306 574h69l60 -576q22 -223 38 -375l209 377l318 574h65l-557 -1004h-84l-69 672l-27 260q-79 -145 -139 -260z" />
    <glyph glyph-name="Wacute" unicode="&#x1e82;" horiz-adv-x="1908" 
d="M1208 1608h-63l233 233h103zM461 0h-94l-52 1434h62l35 -1059q5 -168 12 -320q125 254 162 324l530 1055h66l82 -1055q14 -191 26 -324q121 263 148 324l483 1055h68l-660 -1434h-92l-88 1083l-19 252l-126 -254z" />
    <glyph glyph-name="wacute" unicode="&#x1e83;" horiz-adv-x="1615" 
d="M975 1159h-57l210 234h95zM406 0h-82l-131 1004h59l72 -576l49 -375q125 240 198 377l306 574h69l60 -576q22 -223 38 -375l209 377l318 574h65l-557 -1004h-84l-69 672l-27 260q-79 -145 -139 -260z" />
    <glyph glyph-name="Wdieresis" unicode="&#x1e84;" horiz-adv-x="1908" 
d="M1038 1610h-90l33 143h90zM1409 1610h-90l31 143h90zM461 0h-94l-52 1434h62l35 -1059q5 -168 12 -320q125 254 162 324l530 1055h66l82 -1055q14 -191 26 -324q121 263 148 324l483 1055h68l-660 -1434h-92l-88 1083l-19 252l-126 -254z" />
    <glyph glyph-name="wdieresis" unicode="&#x1e85;" horiz-adv-x="1615" 
d="M836 1239h-82l28 143h82zM1171 1239h-81l28 143h82zM406 0h-82l-131 1004h59l72 -576l49 -375q125 240 198 377l306 574h69l60 -576q22 -223 38 -375l209 377l318 574h65l-557 -1004h-84l-69 672l-27 260q-79 -145 -139 -260z" />
    <glyph glyph-name="uni1E9E" unicode="&#x1e9e;" horiz-adv-x="1425" 
d="M729 -27q-114 0 -214 33t-153 96l17 74q109 -143 352 -143q201 0 326 105t125 280q0 130 -88 214.5t-250 84.5h-209l12 57h191q190 0 307 91.5t117 256.5q0 110 -82.5 182t-229.5 72h-454l-291 -1376h-62l303 1434h508q167 0 269 -86t102 -226t-83.5 -241t-231.5 -138
q96 -24 167.5 -109t71.5 -214q0 -199 -142.5 -323t-377.5 -124z" />
    <glyph glyph-name="Ygrave" unicode="&#x1ef2;" horiz-adv-x="1294" 
d="M899 1608h-51l-168 233h96zM571 0h-61l135 637l-332 797h70l258 -629l43 -98q52 56 98 110l514 617h80l-671 -799z" />
    <glyph glyph-name="ygrave" unicode="&#x1ef3;" horiz-adv-x="1011" 
d="M532 1393l111 -234h-45l-154 234h88zM580 338l383 666h67l-672 -1168q-73 -129 -144.5 -182t-201.5 -53h-108l12 57h100q91 0 154.5 39t128.5 153l117 203l-230 951h66l156 -664q18 -81 51 -213q45 82 121 211z" />
    <glyph glyph-name="uni2002" unicode="&#x2002;" horiz-adv-x="1024" 
 />
    <glyph glyph-name="uni2003" unicode="&#x2003;" horiz-adv-x="2048" 
 />
    <glyph glyph-name="uni2009" unicode="&#x2009;" horiz-adv-x="256" 
 />
    <glyph glyph-name="uni200A" unicode="&#x200a;" horiz-adv-x="153" 
 />
    <glyph glyph-name="endash" unicode="&#x2013;" horiz-adv-x="1200" 
d="M1053 596h-871l13 59h870z" />
    <glyph glyph-name="emdash" unicode="&#x2014;" horiz-adv-x="2023" 
d="M1876 596h-1694l13 59h1693z" />
    <glyph glyph-name="quoteleft" unicode="&#x2018;" horiz-adv-x="450" 
d="M455 1436h53l-143 -209h49l-35 -164h-100l34 164z" />
    <glyph glyph-name="quoteright" unicode="&#x2019;" horiz-adv-x="444" 
d="M322 1063h-54l144 209h-50l37 164h99l-35 -164z" />
    <glyph glyph-name="quotesinglbase" unicode="&#x201a;" horiz-adv-x="479" 
d="M63 -209h-53l144 209h-50l37 164h99l-35 -164z" />
    <glyph glyph-name="quotedblleft" unicode="&#x201c;" horiz-adv-x="735" 
d="M455 1436h53l-143 -209h49l-35 -164h-100l34 164zM739 1436h54l-144 -209h49l-34 -164h-101l35 164z" />
    <glyph glyph-name="quotedblright" unicode="&#x201d;" horiz-adv-x="729" 
d="M322 1063h-54l144 209h-50l37 164h99l-35 -164zM606 1063h-53l143 209h-49l37 164h98l-34 -164z" />
    <glyph glyph-name="quotedblbase" unicode="&#x201e;" horiz-adv-x="763" 
d="M63 -209h-53l144 209h-50l37 164h99l-35 -164zM348 -209h-53l143 209h-49l37 164h98l-35 -164z" />
    <glyph glyph-name="dagger" unicode="&#x2020;" horiz-adv-x="1040" 
d="M631 -227h-62v1126h-403v57h403v478h62v-478h403v-57h-403v-1126z" />
    <glyph glyph-name="daggerdbl" unicode="&#x2021;" horiz-adv-x="1171" 
d="M639 -227h-61v477h-404v57h404v592h-404v57h404v478h61v-478h403v-57h-403v-592h403v-57h-403v-477z" />
    <glyph glyph-name="bullet" unicode="&#x2022;" horiz-adv-x="1040" 
d="M561 389q-138 0 -238 97.5t-100 232.5q0 142 99.5 241t238.5 99t238.5 -99t99.5 -241q0 -135 -100 -232.5t-238 -97.5z" />
    <glyph glyph-name="ellipsis" unicode="&#x2026;" horiz-adv-x="1476" 
d="M186 0h-102l37 172h102zM698 0h-102l37 172h102zM1210 0h-102l37 172h102z" />
    <glyph glyph-name="perthousand" unicode="&#x2030;" horiz-adv-x="2301" 
d="M487 623q-133 0 -207.5 88t-74.5 245q0 116 40.5 226t124 187t191.5 77q134 0 209.5 -88.5t75.5 -245.5q0 -86 -24.5 -171.5t-69 -157t-114 -116t-151.5 -44.5zM231 0l1293 1434h78l-1291 -1434h-80zM561 1391q-88 0 -158 -68t-104.5 -166t-34.5 -201q0 -130 59.5 -204
t163.5 -74q89 0 159.5 67.5t105 164.5t34.5 200q0 130 -60.5 205.5t-164.5 75.5zM1915 811q134 0 209.5 -88.5t75.5 -245.5q0 -86 -24.5 -171.5t-69 -157t-114 -116t-151.5 -44.5q-110 0 -180 60t-92 171q-47 -104 -125 -167.5t-178 -63.5q-133 0 -208 88.5t-75 245.5
q0 85 24.5 170.5t68 157t112.5 116.5t151 45q108 0 180 -60t95 -169q47 103 124.5 166t176.5 63zM1266 43q89 0 159.5 67.5t105 164.5t34.5 200q0 130 -61 205.5t-165 75.5q-88 0 -158 -68t-104.5 -165.5t-34.5 -200.5q0 -130 60 -204.5t164 -74.5zM1841 43q89 0 159.5 67.5
t105 164.5t34.5 200q0 130 -60.5 205.5t-164.5 75.5q-88 0 -158 -68t-104.5 -165.5t-34.5 -200.5q0 -130 59.5 -204.5t163.5 -74.5z" />
    <glyph glyph-name="guilsinglleft" unicode="&#x2039;" horiz-adv-x="587" 
d="M459 903h76l-340 -395l170 -381h-68l-174 387z" />
    <glyph glyph-name="guilsinglright" unicode="&#x203a;" horiz-adv-x="587" 
d="M229 903h68l174 -387l-336 -389h-76l340 395z" />
    <glyph glyph-name="fraction" unicode="&#x2044;" horiz-adv-x="368" 
d="M-379 0h-80l1293 1434h77z" />
    <glyph glyph-name="uni2070" unicode="&#x2070;" horiz-adv-x="854" 
d="M543 809q-133 0 -208 88.5t-75 245.5q0 85 24.5 170.5t68 157t112.5 116.5t151 45q134 0 209.5 -88.5t75.5 -245.5q0 -116 -41 -226t-125 -186.5t-192 -76.5zM543 864q89 0 159.5 67.5t105 164.5t34.5 200q0 130 -61 205.5t-165 75.5q-88 0 -158 -68t-104.5 -165.5
t-34.5 -200.5q0 -130 60 -204.5t164 -74.5z" />
    <glyph glyph-name="uni2074" unicode="&#x2074;" horiz-adv-x="708" 
d="M565 821h-57l49 232h-367l11 49l458 518h76l-108 -514h133l-12 -53h-134zM477 1106h90l31 143l61 291l-383 -434h201z" />
    <glyph glyph-name="uni2075" unicode="&#x2075;" horiz-adv-x="737" 
d="M467 809q-113 0 -179.5 56t-70.5 155l57 18q0 -82 50.5 -128t142.5 -46q101 0 164 65t63 171q0 76 -50.5 127t-127.5 51q-65 0 -106.5 -24.5t-83.5 -86.5l-64 19l137 434h428l-12 -55h-377l-65 -209l-29 -94q63 71 172 71q103 0 171.5 -66.5t68.5 -166.5
q0 -128 -81 -209.5t-208 -81.5z" />
    <glyph glyph-name="uni2076" unicode="&#x2076;" horiz-adv-x="751" 
d="M496 809q-114 0 -178 72t-64 202q0 245 114 397t298 152q99 0 174 -35l-13 -59q-80 37 -159 37q-139 0 -226 -94.5t-118 -251.5q76 106 213 106q105 0 170 -67.5t65 -173.5q0 -123 -78.5 -204t-197.5 -81zM496 864q93 0 154 64.5t61 163.5q0 85 -50.5 136.5t-132.5 51.5
q-92 0 -152.5 -65.5t-60.5 -163.5q0 -84 50.5 -135.5t130.5 -51.5z" />
    <glyph glyph-name="uni2077" unicode="&#x2077;" horiz-adv-x="649" 
d="M330 821h-64q60 469 449 744h-115h-305l12 55h514l-8 -43q-130 -89 -222.5 -185.5t-145 -194.5t-78.5 -186.5t-37 -189.5z" />
    <glyph glyph-name="uni2078" unicode="&#x2078;" horiz-adv-x="747" 
d="M477 809q-112 0 -179 58t-67 155q0 81 52 143.5t137 85.5q-96 50 -96 156q0 98 70.5 161.5t178.5 63.5q100 0 163 -54t63 -140q0 -70 -42.5 -125.5t-119.5 -81.5q53 -27 84 -73.5t31 -104.5q0 -104 -79.5 -174t-195.5 -70zM545 1268q83 0 137.5 48t54.5 120
q0 64 -44.5 102.5t-117.5 38.5q-84 0 -139 -47.5t-55 -118.5q0 -64 45 -103.5t119 -39.5zM473 864q93 0 155 53.5t62 133.5q0 72 -49.5 116.5t-132.5 44.5q-93 0 -155 -54t-62 -134q0 -72 49.5 -116t132.5 -44z" />
    <glyph glyph-name="uni2079" unicode="&#x2079;" horiz-adv-x="776" 
d="M410 809q-112 0 -174 41l12 59q28 -20 72.5 -32.5t87.5 -12.5q142 0 239 103q89 95 111 250q-78 -119 -228 -119q-110 0 -178.5 67.5t-68.5 173.5q0 128 77 210.5t197 82.5q122 0 195 -88q71 -83 71 -217q0 -234 -113 -376t-300 -142zM528 1155q98 0 163 62t65 157
q0 83 -58 142t-137 59q-97 0 -158 -65t-61 -169q0 -83 51.5 -134.5t134.5 -51.5z" />
    <glyph glyph-name="uni20A9" unicode="&#x20a9;" horiz-adv-x="1964" 
d="M1944 1434h67l-254 -551h178l-12 -58h-192l-115 -250h192l-12 -57h-207l-237 -518h-92l-43 518h-474l-260 -518h-94l-18 518h-207l12 57h193l-9 250h-192l12 58h178l-20 551h61l19 -551h444l277 551h65l43 -551h445zM1026 1081l-100 -198h262l-17 200l-18 252zM834 825
h-414l8 -250h279zM897 825l-125 -250h440l-20 250h-295zM1272 575h278l115 250h-414zM608 379l70 139h-248l4 -143q5 -168 12 -320q125 254 162 324zM1460 379l64 139h-248l10 -139q10 -131 27 -324q88 192 147 324z" />
    <glyph glyph-name="Euro" unicode="&#x20ac;" horiz-adv-x="1398" 
d="M711 -25q-219 0 -330.5 149t-101.5 435h-170l10 55h162q12 125 45 252h-152l10 56h158q37 114 92 209.5t128 169.5t167.5 115.5t200.5 41.5q94 0 171.5 -31.5t123.5 -78t78 -104t44 -105t13 -86.5l-64 -21q-1 43 -12.5 89t-38.5 97t-67 91t-105 66t-145 26
q-92 0 -174.5 -37t-147 -103t-114 -151.5t-84.5 -187.5h274h254l-10 -56h-537q-42 -153 -47 -252h528l-10 -55h-235h-285q-10 -256 87 -391t282 -135q94 0 179 34.5t147.5 93t108 127.5t73.5 146l57 -26q-20 -56 -51.5 -112t-82 -115t-111.5 -104t-144 -73.5t-174 -28.5z
" />
    <glyph glyph-name="uni20B9" unicode="&#x20b9;" horiz-adv-x="1175" 
d="M1251 1434l-12 -58h-188h-224q63 -26 108.5 -107t45.5 -182v-16h195l-13 -57h-190q-24 -123 -119 -216t-209 -114q39 -9 68 -23.5t48.5 -36.5t32 -43.5t20.5 -55t12 -59t8 -67.5l40 -399h-65l-41 432q-9 113 -71 168t-189 55h-338l12 58h322q155 0 268 86t141 215h-667
l12 57h664v14q0 133 -78.5 212t-214.5 79h-307l12 58h917z" />
    <glyph glyph-name="uni20BA" unicode="&#x20ba;" horiz-adv-x="1134" 
d="M279 0h-66l84 403q7 35 43 197l-152 -74l-75 -37l16 70l225 113l39 186l-225 -110l16 71l226 111l106 504h62l-54 -252q-29 -132 -45 -219l183 90l296 141l-16 -70l-479 -233l-39 -186l479 237l-14 -72l-481 -235l-121 -576h22q42 0 83.5 3.5t103.5 17.5t117.5 37t119 66
t114.5 100.5t97.5 145t75.5 194.5l55 -23q-73 -293 -279 -446.5t-517 -153.5z" />
    <glyph glyph-name="uni20BD" unicode="&#x20bd;" horiz-adv-x="1208" 
d="M475 1434h348q191 0 297.5 -99.5t106.5 -240.5q0 -209 -140 -335t-356 -126h-364l-48 -227h332l-12 -58h-332l-74 -348h-61l74 348h-166l12 58h166l47 227h-166l13 57h165zM379 690h334q204 0 327 109.5t123 294.5q0 52 -21 100.5t-62 90t-109 66.5t-154 25h-293z" />
    <glyph glyph-name="uni20BF" unicode="&#x20bf;" horiz-adv-x="1288" 
d="M915 748q93 -25 162.5 -106.5t69.5 -205.5q0 -188 -135.5 -312t-337.5 -124h-15l-47 -217h-57l47 217h-190l-47 -217h-58l47 217h-211l303 1434h211l48 215h57l-47 -215h141q33 0 49 -2l47 217h58l-49 -226q120 -25 190 -106.5t70 -204.5q0 -128 -82 -227t-224 -137z
M852 1376h-356l-127 -602h368q183 0 301.5 92.5t118.5 245.5q0 120 -80 192t-225 72zM217 57h455q177 0 292 106.5t115 272.5q0 56 -19 105.5t-56.5 89.5t-101 63t-144.5 23h-402z" />
    <glyph glyph-name="uni2113" unicode="&#x2113;" horiz-adv-x="901" 
d="M412 -25q-60 0 -107 17t-82.5 55.5t-44 100.5t7.5 153l37 176q-62 -14 -155 -18l14 59q61 2 156 21l139 649q62 270 266 270q111 0 182.5 -76t71.5 -202q0 -118 -48.5 -230t-131.5 -200.5t-193 -154.5t-233 -101l-49 -238q-11 -62 -2.5 -105t35.5 -69t58.5 -37.5
t67.5 -11.5q53 0 103 21t101 74.5t83 135.5l53 -33q-27 -70 -67.5 -122.5t-86 -80t-89 -40.5t-86.5 -13zM305 559q225 72 377 241t152 376q0 102 -55.5 163.5t-135.5 61.5q-41 0 -74.5 -15t-54.5 -37t-38 -56.5t-26 -64.5t-18 -69l-67 -321q-6 -30 -60 -279z" />
    <glyph glyph-name="uni2116" unicode="&#x2116;" horiz-adv-x="2326" 
d="M1935 592q-145 0 -228 87.5t-83 256.5q0 96 28 187.5t79 165.5t130 119.5t173 45.5q145 0 229 -91t84 -261q0 -95 -28.5 -185.5t-79.5 -163t-130.5 -117t-173.5 -44.5zM203 0h-60l303 1434h68l660 -1356l59 282l227 1074h60l-303 -1434h-74l-656 1346l-61 -291zM1935 647
q103 0 186 66t126 168t43 215q0 146 -67.5 224.5t-190.5 78.5q-105 0 -187.5 -70t-123 -173t-40.5 -216q0 -141 66 -217t188 -76z" />
    <glyph glyph-name="uni2117" unicode="&#x2117;" horiz-adv-x="1851" 
d="M975 -72q-166 0 -312 61.5t-248.5 166.5t-162 250t-59.5 307q0 161 59.5 306.5t162 252.5t248.5 170t312 63q165 0 310 -63t246 -170t159.5 -252.5t58.5 -306.5q0 -217 -99 -396.5t-277 -284t-398 -104.5zM973 -14q205 0 368 96t252.5 261.5t89.5 369.5t-89.5 371.5
t-252.5 265.5t-368 98q-154 0 -287.5 -57.5t-227 -156t-147 -234t-53.5 -287.5t53.5 -286.5t147 -231.5t227 -153t287.5 -56zM801 311h-58v815h275q145 0 231 -67t86 -205t-85.5 -204t-227.5 -66h-221v-273zM801 1071v-430h196q277 0 277 213q0 217 -277 217h-196z" />
    <glyph glyph-name="trademark" unicode="&#x2122;" horiz-adv-x="1662" 
d="M428 662h-61l151 714h-258l12 58h580l-12 -58h-260zM893 662h-59l163 772h93l61 -459l31 -234l125 236l241 457h105l-164 -772h-59l73 348q21 99 40.5 188t27 125.5t10.5 50.5l-377 -712h-71l-91 700q-2 -10 -75 -352z" />
    <glyph glyph-name="uni2126" unicode="&#x2126;" horiz-adv-x="1648" 
d="M752 0h-484v57h111h215q-190 83 -290.5 259.5t-100.5 404.5q0 330 180 533.5t473 203.5t473 -203.5t180 -533.5q0 -228 -100.5 -404.5t-290.5 -259.5h209h117v-57h-483v57q224 47 353.5 225.5t129.5 438.5q0 192 -71 346t-206 244t-311 90t-311 -90t-206 -244t-71 -346
q0 -260 130 -438.5t354 -225.5v-57z" />
    <glyph glyph-name="uni2153" unicode="&#x2153;" horiz-adv-x="1581" 
d="M164 0h-80l1292 1434h78zM381 635h-59l88 414q9 42 26.5 125.5t26.5 125.5q-51 -60 -108.5 -96t-135.5 -47l14 64q91 22 154 74t119 139h43zM1157 -12q-118 0 -185 66.5t-59 176.5l62 23q-17 -93 34 -152t146 -59q91 0 148 51t57 133q0 70 -50 117t-122 47h-74l16 55h72
q95 0 149 43.5t54 120.5q0 63 -48.5 104.5t-121.5 41.5q-85 0 -138 -51t-50 -130l-58 19q7 99 75 158t171 59q100 0 164.5 -56t64.5 -143q0 -74 -41.5 -127t-117.5 -75q54 -26 84 -74.5t30 -106.5q0 -106 -73.5 -173.5t-188.5 -67.5z" />
    <glyph glyph-name="uni2154" unicode="&#x2154;" horiz-adv-x="1746" 
d="M659 635h-491l12 55q280 172 393 286.5t113 235.5q0 76 -50 127.5t-124 51.5q-91 0 -145 -60t-54 -162l-55 15q3 120 73 191t183 71q98 0 164.5 -67t66.5 -165q0 -128 -112 -249q-109 -116 -363 -275h310h92zM332 0h-80l1292 1434h78zM1325 -12q-118 0 -185 66.5
t-59 176.5l62 23q-17 -93 34 -152t146 -59q91 0 148 51t57 133q0 70 -50 117t-122 47h-74l16 55h72q95 0 149 43.5t54 120.5q0 63 -48.5 104.5t-121.5 41.5q-85 0 -138.5 -51t-50.5 -130l-57 19q7 99 75 158t171 59q100 0 164.5 -56t64.5 -143q0 -74 -41.5 -127t-117.5 -75
q54 -26 84 -74.5t30 -106.5q0 -106 -73.5 -173.5t-188.5 -67.5z" />
    <glyph glyph-name="uni2155" unicode="&#x2155;" horiz-adv-x="1619" 
d="M164 0h-80l1292 1434h78zM381 635h-59l88 414q9 42 26.5 125.5t26.5 125.5q-51 -60 -108.5 -96t-135.5 -47l14 64q91 22 154 74t119 139h43zM1171 -12q-113 0 -179 55.5t-70 155.5l57 18q0 -82 50 -128t142 -46q101 0 164.5 65t63.5 171q0 76 -50.5 127t-127.5 51
q-66 0 -108 -24.5t-83 -86.5l-63 19l137 434h428l-12 -56h-377l-66 -208l-28 -95q64 72 172 72q103 0 171 -66.5t68 -166.5q0 -128 -81 -209.5t-208 -81.5z" />
    <glyph glyph-name="uni2156" unicode="&#x2156;" horiz-adv-x="1787" 
d="M659 635h-491l12 55q280 172 393 286.5t113 235.5q0 76 -50 127.5t-124 51.5q-91 0 -145 -60t-54 -162l-55 15q3 120 73 191t183 71q98 0 164.5 -67t66.5 -165q0 -128 -112 -249q-109 -116 -363 -275h310h92zM332 0h-80l1292 1434h78zM1339 -12q-113 0 -179 55.5
t-70 155.5l57 18q0 -82 50 -128t142 -46q101 0 164.5 65t63.5 171q0 76 -50.5 127t-127.5 51q-66 0 -108 -24.5t-83 -86.5l-63 19l137 434h428l-12 -56h-377l-66 -208l-28 -95q64 72 172 72q103 0 171 -66.5t68 -166.5q0 -128 -81 -209.5t-208 -81.5z" />
    <glyph glyph-name="uni2157" unicode="&#x2157;" horiz-adv-x="1779" 
d="M428 623q-118 0 -185 66.5t-59 176.5l62 23q-17 -93 34 -152t146 -59q91 0 148 51t57 133q0 70 -50 117t-122 47h-74l16 55h72q95 0 149 43.5t54 120.5q0 63 -48.5 104.5t-121.5 41.5q-85 0 -138.5 -51t-50.5 -130l-57 19q7 99 75 158t171 59q100 0 164.5 -56t64.5 -143
q0 -74 -42 -127.5t-118 -75.5q55 -26 85 -74t30 -106q0 -106 -73.5 -173.5t-188.5 -67.5zM324 0h-80l1292 1434h78zM1331 -12q-113 0 -179.5 56t-70.5 155l58 18q0 -82 50 -128t142 -46q101 0 164.5 65t63.5 171q0 76 -51 127t-128 51q-65 0 -106.5 -24.5t-83.5 -86.5
l-64 19l138 434h428l-13 -56h-376l-66 -208l-29 -95q64 72 172 72q103 0 171.5 -66.5t68.5 -166.5q0 -128 -81 -209.5t-208 -81.5z" />
    <glyph glyph-name="uni2158" unicode="&#x2158;" horiz-adv-x="1767" 
d="M528 635h-57l49 231h-366l10 49l459 519h75l-108 -514h133l-12 -54h-133zM305 0h-80l1293 1434h77zM440 920h90l31 143l62 291l-383 -434h200zM1313 -12q-113 0 -179.5 56t-70.5 155l57 18q0 -82 50.5 -128t142.5 -46q101 0 164 65t63 171q0 76 -50.5 127t-127.5 51
q-66 0 -108 -24.5t-83 -86.5l-63 19l137 434h428l-12 -56h-377l-65 -208l-29 -95q64 72 172 72q103 0 171.5 -66.5t68.5 -166.5q0 -128 -81 -209.5t-208 -81.5z" />
    <glyph glyph-name="uni2159" unicode="&#x2159;" horiz-adv-x="1615" 
d="M164 0h-80l1292 1434h78zM381 635h-59l88 414q9 42 26.5 125.5t26.5 125.5q-51 -60 -108.5 -96t-135.5 -47l14 64q91 22 154 74t119 139h43zM1184 -12q-114 0 -178 72t-64 202q0 245 114 397t298 152q99 0 174 -35l-12 -59q-80 37 -160 37q-139 0 -226 -94.5t-118 -251.5
q76 106 213 106q105 0 170 -68t65 -174q0 -123 -78.5 -203.5t-197.5 -80.5zM1184 43q94 0 154.5 64.5t60.5 162.5q0 85 -50 137t-132 52q-92 0 -152.5 -65.5t-60.5 -164.5q0 -84 50 -135t130 -51z" />
    <glyph glyph-name="uni215A" unicode="&#x215a;" horiz-adv-x="1779" 
d="M424 623q-113 0 -179.5 56t-70.5 155l57 18q0 -82 50.5 -128t142.5 -46q101 0 164 64.5t63 170.5q0 76 -50.5 127.5t-127.5 51.5q-65 0 -106.5 -24.5t-83.5 -86.5l-64 18l137 435h428l-12 -56h-377l-65 -209l-29 -94q64 72 172 72q103 0 171.5 -67t68.5 -167
q0 -128 -81 -209t-208 -81zM328 0h-80l1292 1434h78zM1348 -12q-114 0 -178 72t-64 202q0 245 114 397t298 152q99 0 174 -35l-13 -59q-80 37 -159 37q-139 0 -226 -94.5t-118 -251.5q76 106 213 106q105 0 170 -68t65 -174q0 -123 -78.5 -203.5t-197.5 -80.5zM1348 43
q94 0 154.5 64.5t60.5 162.5q0 85 -50.5 137t-132.5 52q-92 0 -152.5 -65.5t-60.5 -164.5q0 -84 50.5 -135t130.5 -51z" />
    <glyph glyph-name="oneeighth" unicode="&#x215b;" horiz-adv-x="1597" 
d="M164 0h-80l1292 1434h78zM381 635h-59l88 414q9 42 26.5 125.5t26.5 125.5q-51 -60 -108.5 -96t-135.5 -47l14 64q91 22 154 74t119 139h43zM1163 -12q-112 0 -178.5 58t-66.5 155q0 81 51.5 143.5t136.5 85.5q-96 50 -96 156q0 98 71 161.5t179 63.5q100 0 162.5 -54.5
t62.5 -140.5q0 -70 -42.5 -125t-119.5 -81q53 -27 84 -74t31 -105q0 -104 -79.5 -173.5t-195.5 -69.5zM1231 446q83 0 137.5 48t54.5 120q0 64 -44.5 103t-116.5 39q-84 0 -139.5 -47.5t-55.5 -118.5q0 -65 45.5 -104.5t118.5 -39.5zM1159 43q94 0 155.5 53t61.5 133
q0 73 -49.5 117.5t-132.5 44.5q-93 0 -155 -54t-62 -134q0 -72 49.5 -116t132.5 -44z" />
    <glyph glyph-name="threeeighths" unicode="&#x215c;" horiz-adv-x="1757" 
d="M428 623q-118 0 -185 66.5t-59 176.5l62 23q-17 -93 34 -152t146 -59q91 0 148 51t57 133q0 70 -50 117t-122 47h-74l16 55h72q95 0 149 43.5t54 120.5q0 63 -48.5 104.5t-121.5 41.5q-85 0 -138.5 -51t-50.5 -130l-57 19q7 99 75 158t171 59q100 0 164.5 -56t64.5 -143
q0 -74 -42 -127.5t-118 -75.5q55 -26 85 -74t30 -106q0 -106 -73.5 -173.5t-188.5 -67.5zM324 0h-80l1292 1434h78zM1323 -12q-112 0 -179 58t-67 155q0 81 52 143.5t137 85.5q-97 51 -97 156q0 98 71 161.5t179 63.5q100 0 163 -54.5t63 -140.5q0 -70 -42.5 -125
t-119.5 -81q53 -27 83.5 -74t30.5 -105q0 -104 -79 -173.5t-195 -69.5zM1391 446q83 0 137.5 48t54.5 120q0 64 -45 103t-117 39q-84 0 -139 -47.5t-55 -118.5q0 -65 45.5 -104.5t118.5 -39.5zM1319 43q94 0 155.5 53t61.5 133q0 73 -49.5 117.5t-132.5 44.5q-93 0 -155 -54
t-62 -134q0 -72 49.5 -116t132.5 -44z" />
    <glyph glyph-name="fiveeighths" unicode="&#x215d;" horiz-adv-x="1761" 
d="M424 623q-113 0 -179.5 56t-70.5 155l57 18q0 -82 50.5 -128t142.5 -46q101 0 164 64.5t63 170.5q0 76 -50.5 127.5t-127.5 51.5q-65 0 -106.5 -24.5t-83.5 -86.5l-64 18l137 435h428l-12 -56h-377l-65 -209l-29 -94q64 72 172 72q103 0 171.5 -67t68.5 -167
q0 -128 -81 -209t-208 -81zM328 0h-80l1292 1434h78zM1327 -12q-112 0 -179 58t-67 155q0 81 52 143.5t137 85.5q-96 50 -96 156q0 98 70.5 161.5t178.5 63.5q100 0 163 -54.5t63 -140.5q0 -70 -42.5 -125t-119.5 -81q53 -27 84 -74t31 -105q0 -104 -79.5 -173.5
t-195.5 -69.5zM1395 446q83 0 137.5 48t54.5 120q0 64 -45 103t-117 39q-84 0 -139 -47.5t-55 -118.5q0 -65 45.5 -104.5t118.5 -39.5zM1323 43q94 0 155.5 53t61.5 133q0 73 -49.5 117.5t-132.5 44.5q-93 0 -155 -54t-62 -134q0 -72 49.5 -116t132.5 -44z" />
    <glyph glyph-name="seveneighths" unicode="&#x215e;" horiz-adv-x="1533" 
d="M100 0h-80l1293 1434h78zM315 635h-63q60 469 448 743h-114h-305l12 56h514l-8 -43q-130 -89 -222.5 -185.5t-145 -194.5t-79 -186.5t-37.5 -189.5zM1100 -12q-112 0 -179 58t-67 155q0 81 51.5 143.5t136.5 85.5q-96 50 -96 156q0 98 71 161.5t179 63.5
q100 0 162.5 -54.5t62.5 -140.5q0 -70 -42 -125t-119 -81q53 -27 83.5 -74t30.5 -105q0 -104 -79 -173.5t-195 -69.5zM1167 446q83 0 138 48t55 120q0 64 -45 103t-117 39q-84 0 -139 -47.5t-55 -118.5q0 -65 45 -104.5t118 -39.5zM1096 43q94 0 155.5 53t61.5 133
q0 72 -50 117t-133 45q-93 0 -155 -54t-62 -134q0 -72 50 -116t133 -44z" />
    <glyph glyph-name="uni215F" unicode="&#x215f;" horiz-adv-x="645" 
d="M162 0h-80l1292 1434h78zM379 635h-60l89 414q9 42 26.5 125.5t26.5 125.5q-51 -60 -108.5 -96t-135.5 -47l14 64q91 22 154 74t119 139h43z" />
    <glyph glyph-name="arrowleft" unicode="&#x2190;" horiz-adv-x="1738" 
d="M1692 745v-61h-1434q30 -34 158 -162l289 -286l-43 -43l-510 522l510 522l43 -43l-289 -287q-128 -128 -158 -162h1434z" />
    <glyph glyph-name="arrowup" unicode="&#x2191;" horiz-adv-x="1179" 
d="M729 0h-61v1434q-34 -30 -162 -158l-287 -289l-43 43l522 510l523 -510l-43 -43l-287 289q-128 128 -162 158v-1434z" />
    <glyph glyph-name="arrowright" unicode="&#x2192;" horiz-adv-x="1736" 
d="M137 686v62h1434q-22 25 -158 161l-289 287l43 43l510 -522l-510 -522l-43 43l289 286q128 128 158 162h-1434z" />
    <glyph glyph-name="arrowdown" unicode="&#x2193;" horiz-adv-x="1179" 
d="M543 1434h61v-1434q34 30 162 158l287 288l43 -43l-523 -509l-522 509l43 43l287 -288q128 -128 162 -158v1434z" />
    <glyph glyph-name="uni2196" unicode="&#x2196;" horiz-adv-x="1427" 
d="M383 1376l954 -956l-43 -43l-952 954v-225v-408h-57v736h731v-58h-408h-225z" />
    <glyph glyph-name="uni2197" unicode="&#x2197;" horiz-adv-x="1210" 
d="M1081 1335l-956 -954l-43 43l954 952h-225h-408v58h736v-732h-58v408v225z" />
    <glyph glyph-name="uni2198" unicode="&#x2198;" horiz-adv-x="1423" 
d="M1116 57l-954 957l43 43l952 -955v226v407h57v-735h-731v57h408h225z" />
    <glyph glyph-name="uni2199" unicode="&#x2199;" horiz-adv-x="1173" 
d="M213 98l956 955l43 -43l-954 -953h225h408v-57h-735v731h57v-407v-226z" />
    <glyph glyph-name="uni21A4" unicode="&#x21a4;" horiz-adv-x="1892" 
d="M1632 748v411h58v-883h-58v410h-1376q30 -34 158 -162l288 -286l-43 -43l-509 522l509 522l43 -43l-288 -287q-136 -136 -158 -161h1376z" />
    <glyph glyph-name="uni21A5" unicode="&#x21a5;" horiz-adv-x="1312" 
d="M1184 987l-287 289q-128 128 -162 158v-1377h412v-57h-883v57h410v1377q-34 -30 -162 -158l-287 -289l-43 43l523 510l522 -510z" />
    <glyph glyph-name="uni21A6" unicode="&#x21a6;" horiz-adv-x="1894" 
d="M1282 1196l43 43l510 -522l-510 -522l-43 43l289 286q128 128 158 162h-1377v-412h-57v883h57v-409h1377q-22 25 -158 161z" />
    <glyph glyph-name="uni21A7" unicode="&#x21a7;" horiz-adv-x="1314" 
d="M893 158l287 288l43 -43l-523 -509l-522 509l43 43l287 -288q128 -128 162 -158v1376h-412v58h883v-58h-410v-1376q34 30 162 158z" />
    <glyph glyph-name="uni21B0" unicode="&#x21b0;" horiz-adv-x="1849" 
d="M227 748h1434v-748h-57v686h-1377q30 -34 158 -162l289 -286l-43 -43l-510 522l510 522l43 -43l-289 -287q-136 -136 -158 -161z" />
    <glyph glyph-name="uni21B1" unicode="&#x21b1;" horiz-adv-x="1724" 
d="M1147 1196l43 43l510 -522l-510 -522l-43 43l289 286q119 120 157 162h-1376v-686h-57v748h1433q-30 34 -157 161z" />
    <glyph glyph-name="uni21B2" unicode="&#x21b2;" horiz-adv-x="1726" 
d="M1599 748v686h58v-748h-1434q30 -34 158 -162l289 -286l-43 -43l-510 522l510 522l43 -43l-289 -287q-136 -136 -158 -161h1376z" />
    <glyph glyph-name="uni21B3" unicode="&#x21b3;" horiz-adv-x="1849" 
d="M1268 1196l43 43l510 -522l-510 -522l-43 43l288 286q128 128 158 162h-1433v748h57v-686h1376q-22 25 -158 161z" />
    <glyph glyph-name="partialdiff" unicode="&#x2202;" horiz-adv-x="1241" 
d="M627 -25q-91 0 -167.5 27t-128 73t-87 107.5t-52 129t-16.5 139.5q0 90 27 169.5t80 144.5t141.5 102.5t202.5 37.5q65 0 127 -17.5t119.5 -54t102.5 -100t68 -147.5q15 392 -140 603.5t-449 211.5q-97 0 -203 -27v60q67 24 211 24q109 0 200.5 -27t156.5 -73t116.5 -110
t83 -133t52 -148t28.5 -150t8 -143q0 -160 -26.5 -283t-70.5 -200.5t-107 -127t-130.5 -69t-146.5 -19.5zM627 33q163 0 274 113t111 296q0 182 -111 294t-274 112q-168 0 -275.5 -107t-107.5 -299t108 -300.5t275 -108.5z" />
    <glyph glyph-name="uni2206" unicode="&#x2206;" horiz-adv-x="1384" 
d="M604 1434h82l545 -1434h-1165zM535 1083l-379 -1026h983l-383 1022l-111 299q-4 -11 -110 -295z" />
    <glyph glyph-name="product" unicode="&#x220f;" horiz-adv-x="1505" 
d="M246 1434h1171v-60h-209v-1601h-61v1601h-633v-1601h-61v1601h-207v60z" />
    <glyph glyph-name="summation" unicode="&#x2211;" horiz-adv-x="1347" 
d="M1139 -229h-883v73l580 758l-580 758v74h883v-56h-559h-267l596 -776l-596 -776h267h559v-55z" />
    <glyph glyph-name="minus" unicode="&#x2212;" horiz-adv-x="1456" 
d="M1305 692h-1076v58h1076v-58z" />
    <glyph glyph-name="uni2215" unicode="&#x2215;" horiz-adv-x="669" 
d="M-66 -227h-67l962 1888h68z" />
    <glyph glyph-name="radical" unicode="&#x221a;" horiz-adv-x="1234" 
d="M723 -227h-84l-338 946h-221v57h264l199 -555l139 -391l131 389l408 1215h63z" />
    <glyph glyph-name="infinity" unicode="&#x221e;" horiz-adv-x="1769" 
d="M535 367q-145 0 -245 104t-100 258q0 155 100 259t245 104q55 0 100.5 -12.5t95.5 -44.5t99.5 -93.5t99.5 -153.5q50 92 99.5 153.5t99.5 93.5t95.5 44.5t100.5 12.5q145 0 244.5 -104t99.5 -259t-99.5 -258.5t-244.5 -103.5q-55 0 -100.5 12.5t-95.5 44t-99.5 93
t-99.5 153.5q-50 -92 -99.5 -153.5t-99.5 -93t-95.5 -44t-100.5 -12.5zM543 424q116 0 194 74.5t158 230.5q-80 156 -158 230.5t-194 74.5q-135 0 -214 -90.5t-79 -214.5t79 -214.5t214 -90.5zM1317 424q135 0 214 90.5t79 214.5t-79 214.5t-214 90.5q-116 0 -194 -74.5
t-158 -230.5q80 -156 158 -230.5t194 -74.5z" />
    <glyph glyph-name="integral" unicode="&#x222b;" horiz-adv-x="636" 
d="M125 -401h-174v57h184q75 0 115.5 41t40.5 123v1374q0 48 11 88.5t36 76t71 55.5t109 20h174v-58h-205q-59 0 -97 -49t-38 -131v-1358q0 -48 -11.5 -89t-36.5 -75.5t-70.5 -54.5t-108.5 -20z" />
    <glyph glyph-name="approxequal" unicode="&#x2248;" horiz-adv-x="1396" 
d="M969 889q-43 0 -86.5 11t-118.5 44l-62 27q-117 51 -182 51q-106 0 -213 -117l-43 45q118 131 262 131q79 0 205 -55l62 -27q117 -51 182 -51q106 0 213 117l43 -43q-114 -133 -262 -133zM969 438q-42 0 -85.5 11.5t-119.5 44.5l-62 26q-117 51 -182 51q-107 0 -213 -116
l-43 45q118 131 262 131q77 0 205 -56l62 -26q117 -51 182 -51q107 0 213 116l43 -43q-114 -133 -262 -133z" />
    <glyph glyph-name="notequal" unicode="&#x2260;" horiz-adv-x="1589" 
d="M520 150h-74l220 350h-390v57h426l117 186l94 150h-211h-426v57h674l195 312h69l-194 -312h362v-57h-397l-127 -203l-84 -133h172h436v-57h-643z" />
    <glyph glyph-name="lessequal" unicode="&#x2264;" horiz-adv-x="1456" 
d="M1288 403v-65l-1104 428v70l1104 436v-66l-766 -299q-46 -17 -137 -52.5t-137 -53.5l274 -105zM1288 170h-1104v59h1104v-59z" />
    <glyph glyph-name="greaterequal" unicode="&#x2265;" horiz-adv-x="1523" 
d="M1358 766l-1104 -428v65l766 293l274 105q-46 18 -137 53.5t-137 52.5l-766 299v66l1104 -436v-70zM1358 170h-1104v59h1104v-59z" />
    <glyph glyph-name="angleleft" unicode="&#x2329;" horiz-adv-x="643" 
d="M754 1567l51 -33l-633 -918l227 -925l-59 -19l-231 949z" />
    <glyph glyph-name="angleright" unicode="&#x232a;" horiz-adv-x="632" 
d="M293 1548l59 19l232 -949l-645 -946l-52 33l633 918z" />
    <glyph glyph-name="uni2460" unicode="&#x2460;" horiz-adv-x="1859" 
d="M924 -84q-216 0 -385.5 94t-264 263.5t-94.5 385.5q0 191 67.5 353.5t183 272.5t270 171.5t327.5 61.5q161 0 299.5 -55t236 -152.5t153 -236t55.5 -300.5q0 -191 -67.5 -353.5t-183 -272t-270 -171t-327.5 -61.5zM918 -25q161 0 305 57.5t250.5 159.5t168.5 253t62 329
q0 195 -83.5 350.5t-237.5 244.5t-351 89q-161 0 -305 -57.5t-250.5 -159.5t-168.5 -253t-62 -329q0 -195 83.5 -350.5t237.5 -244.5t351 -89zM952 317h-59l88 414q9 42 26.5 126t26.5 126q-52 -61 -108.5 -96.5t-134.5 -46.5l14 63q90 22 153 73.5t119 139.5h43z" />
    <glyph glyph-name="uni2461" unicode="&#x2461;" horiz-adv-x="1859" 
d="M924 -84q-216 0 -385.5 94t-264 263.5t-94.5 385.5q0 191 67.5 353.5t183 272.5t270 171.5t327.5 61.5q161 0 299.5 -55t236 -152.5t153 -236t55.5 -300.5q0 -191 -67.5 -353.5t-183 -272t-270 -171t-327.5 -61.5zM918 -25q161 0 305 57.5t250.5 159.5t168.5 253t62 329
q0 195 -83.5 350.5t-237.5 244.5t-351 89q-161 0 -305 -57.5t-250.5 -159.5t-168.5 -253t-62 -329q0 -195 83.5 -350.5t237.5 -244.5t351 -89zM1157 315h-491l12 56q280 172 393 286.5t113 235.5q0 76 -50 127t-124 51q-91 0 -145 -59.5t-54 -161.5l-55 14q3 120 73 191
t183 71q98 0 164.5 -66.5t66.5 -164.5q0 -128 -113 -250q-108 -115 -362 -274h309h92z" />
    <glyph glyph-name="uni2462" unicode="&#x2462;" horiz-adv-x="1859" 
d="M924 -84q-216 0 -385.5 94t-264 263.5t-94.5 385.5q0 191 67.5 353.5t183 272.5t270 171.5t327.5 61.5q161 0 299.5 -55t236 -152.5t153 -236t55.5 -300.5q0 -191 -67.5 -353.5t-183 -272t-270 -171t-327.5 -61.5zM918 -25q161 0 305 57.5t250.5 159.5t168.5 253t62 329
q0 195 -83.5 350.5t-237.5 244.5t-351 89q-161 0 -305 -57.5t-250.5 -159.5t-168.5 -253t-62 -329q0 -195 83.5 -350.5t237.5 -244.5t351 -89zM930 305q-118 0 -185 67t-59 177l62 22q-17 -93 34 -152t146 -59q91 0 148 51.5t57 133.5q0 70 -50 117t-122 47h-74l16 55h72
q95 0 149 43.5t54 120.5q0 63 -48 104t-122 41q-85 0 -138.5 -50.5t-50.5 -129.5l-57 18q7 99 75 158t171 59q100 0 164.5 -55.5t64.5 -142.5q0 -74 -42 -127.5t-118 -75.5q55 -26 85 -74t30 -106q0 -106 -73.5 -174t-188.5 -68z" />
    <glyph glyph-name="uni2463" unicode="&#x2463;" horiz-adv-x="1859" 
d="M924 -84q-216 0 -385.5 94t-264 263.5t-94.5 385.5q0 191 67.5 353.5t183 272.5t270 171.5t327.5 61.5q161 0 299.5 -55t236 -152.5t153 -236t55.5 -300.5q0 -191 -67.5 -353.5t-183 -272t-270 -171t-327.5 -61.5zM918 -25q161 0 305 57.5t250.5 159.5t168.5 253t62 329
q0 195 -83.5 350.5t-237.5 244.5t-351 89q-161 0 -305 -57.5t-250.5 -159.5t-168.5 -253t-62 -329q0 -195 83.5 -350.5t237.5 -244.5t351 -89zM1008 317h-58l49 232h-366l10 49l459 518h76l-109 -514h133l-12 -53h-133zM920 602h90l30 143l62 291l-383 -434h201z" />
    <glyph glyph-name="uni2464" unicode="&#x2464;" horiz-adv-x="1859" 
d="M924 -84q-216 0 -385.5 94t-264 263.5t-94.5 385.5q0 191 67.5 353.5t183 272.5t270 171.5t327.5 61.5q161 0 299.5 -55t236 -152.5t153 -236t55.5 -300.5q0 -191 -67.5 -353.5t-183 -272t-270 -171t-327.5 -61.5zM918 -25q161 0 305 57.5t250.5 159.5t168.5 253t62 329
q0 195 -83.5 350.5t-237.5 244.5t-351 89q-161 0 -305 -57.5t-250.5 -159.5t-168.5 -253t-62 -329q0 -195 83.5 -350.5t237.5 -244.5t351 -89zM928 305q-113 0 -179.5 56t-70.5 155l57 19q0 -82 50.5 -128.5t142.5 -46.5q101 0 164 65t63 171q0 76 -50.5 127t-127.5 51
q-66 0 -108 -24t-83 -86l-63 18l137 434h428l-12 -55h-377l-65 -209l-29 -94q63 71 172 71q103 0 171.5 -66.5t68.5 -166.5q0 -128 -81 -209.5t-208 -81.5z" />
    <glyph glyph-name="uni2465" unicode="&#x2465;" horiz-adv-x="1859" 
d="M924 -84q-216 0 -385.5 94t-264 263.5t-94.5 385.5q0 191 67.5 353.5t183 272.5t270 171.5t327.5 61.5q161 0 299.5 -55t236 -152.5t153 -236t55.5 -300.5q0 -191 -67.5 -353.5t-183 -272t-270 -171t-327.5 -61.5zM918 -25q161 0 305 57.5t250.5 159.5t168.5 253t62 329
q0 195 -83.5 350.5t-237.5 244.5t-351 89q-161 0 -305 -57.5t-250.5 -159.5t-168.5 -253t-62 -329q0 -195 83.5 -350.5t237.5 -244.5t351 -89zM922 305q-114 0 -178 72.5t-64 202.5q0 245 114 396.5t298 151.5q101 0 174 -34l-13 -60q-80 37 -159 37q-139 0 -226 -94.5
t-118 -251.5q76 106 213 106q105 0 170 -67.5t65 -173.5q0 -123 -78.5 -204t-197.5 -81zM922 360q93 0 154 64.5t61 163.5q0 85 -50.5 136.5t-132.5 51.5q-92 0 -152.5 -65.5t-60.5 -163.5q0 -84 50.5 -135.5t130.5 -51.5z" />
    <glyph glyph-name="uni2466" unicode="&#x2466;" horiz-adv-x="1859" 
d="M924 -84q-216 0 -385.5 94t-264 263.5t-94.5 385.5q0 191 67.5 353.5t183 272.5t270 171.5t327.5 61.5q161 0 299.5 -55t236 -152.5t153 -236t55.5 -300.5q0 -191 -67.5 -353.5t-183 -272t-270 -171t-327.5 -61.5zM918 -25q161 0 305 57.5t250.5 159.5t168.5 253t62 329
q0 195 -83.5 350.5t-237.5 244.5t-351 89q-161 0 -305 -57.5t-250.5 -159.5t-168.5 -253t-62 -329q0 -195 83.5 -350.5t237.5 -244.5t351 -89zM840 317h-64q60 469 449 744h-115h-305l12 55h514l-8 -43q-130 -89 -222.5 -185.5t-145 -194.5t-78.5 -186.5t-37 -189.5z" />
    <glyph glyph-name="uni2467" unicode="&#x2467;" horiz-adv-x="1859" 
d="M924 -84q-216 0 -385.5 94t-264 263.5t-94.5 385.5q0 191 67.5 353.5t183 272.5t270 171.5t327.5 61.5q161 0 299.5 -55t236 -152.5t153 -236t55.5 -300.5q0 -191 -67.5 -353.5t-183 -272t-270 -171t-327.5 -61.5zM918 -25q161 0 305 57.5t250.5 159.5t168.5 253t62 329
q0 195 -83.5 350.5t-237.5 244.5t-351 89q-161 0 -305 -57.5t-250.5 -159.5t-168.5 -253t-62 -329q0 -195 83.5 -350.5t237.5 -244.5t351 -89zM928 305q-112 0 -179 58t-67 155q0 81 51.5 144t136.5 86q-96 50 -96 155q0 98 71 161.5t179 63.5q100 0 162.5 -54t62.5 -140
q0 -70 -42.5 -125.5t-119.5 -81.5q53 -27 84 -73.5t31 -104.5q0 -104 -79 -174t-195 -70zM995 764q83 0 138 48t55 120q0 64 -44.5 102.5t-117.5 38.5q-84 0 -139.5 -47.5t-55.5 -118.5q0 -64 45 -103.5t119 -39.5zM924 360q93 0 155 53.5t62 133.5q0 72 -50 117t-133 45
q-93 0 -155 -54.5t-62 -134.5q0 -72 50 -116t133 -44z" />
    <glyph glyph-name="uni2468" unicode="&#x2468;" horiz-adv-x="1859" 
d="M924 -84q-216 0 -385.5 94t-264 263.5t-94.5 385.5q0 191 67.5 353.5t183 272.5t270 171.5t327.5 61.5q161 0 299.5 -55t236 -152.5t153 -236t55.5 -300.5q0 -191 -67.5 -353.5t-183 -272t-270 -171t-327.5 -61.5zM918 -25q161 0 305 57.5t250.5 159.5t168.5 253t62 329
q0 195 -83.5 350.5t-237.5 244.5t-351 89q-161 0 -305 -57.5t-250.5 -159.5t-168.5 -253t-62 -329q0 -195 83.5 -350.5t237.5 -244.5t351 -89zM860 305q-112 0 -174 41l12 60q28 -20 72.5 -33t87.5 -13q143 0 240 103q87 94 110 250q-78 -119 -227 -119q-110 0 -179 68
t-69 174q0 127 77.5 209.5t197.5 82.5q121 0 194 -88q72 -84 72 -217q0 -234 -113.5 -376t-300.5 -142zM979 651q98 0 162.5 62t64.5 157q0 83 -57.5 142t-136.5 59q-97 0 -158 -64.5t-61 -168.5q0 -83 51.5 -135t134.5 -52z" />
    <glyph glyph-name="uni24EA" unicode="&#x24ea;" horiz-adv-x="1859" 
d="M924 -84q-216 0 -385.5 94t-264 263.5t-94.5 385.5q0 191 67.5 353.5t183 272.5t270 171.5t327.5 61.5q161 0 299.5 -55t236 -152.5t153 -236t55.5 -300.5q0 -191 -67.5 -353.5t-183 -272t-270 -171t-327.5 -61.5zM918 -25q161 0 305 57.5t250.5 159.5t168.5 253t62 329
q0 195 -83.5 350.5t-237.5 244.5t-351 89q-161 0 -305 -57.5t-250.5 -159.5t-168.5 -253t-62 -329q0 -195 83.5 -350.5t237.5 -244.5t351 -89zM928 305q-133 0 -208 88.5t-75 245.5q0 85 24.5 170.5t68 157t112.5 116.5t151 45q134 0 209.5 -88t75.5 -245q0 -116 -41 -226.5
t-125 -187t-192 -76.5zM928 360q89 0 159.5 67.5t105 165t34.5 200.5q0 130 -60.5 205t-165.5 75q-88 0 -158 -68t-104 -165.5t-34 -200.5q0 -130 59.5 -204.5t163.5 -74.5z" />
    <glyph glyph-name="uni24FF" unicode="&#x24ff;" horiz-adv-x="1855" 
d="M907 -84q175 0 332.5 63t275.5 175t187.5 278.5t69.5 362.5q0 159 -53 293.5t-148.5 229t-232 147.5t-298.5 53q-175 0 -332.5 -63t-275.5 -175t-187 -278.5t-69 -362.5q0 -212 91 -376.5t257.5 -255.5t382.5 -91zM926 305q-133 0 -208 88.5t-75 245.5q0 85 24.5 170.5
t68 157t112.5 116.5t151 45q134 0 209.5 -88t75.5 -245q0 -116 -41 -226.5t-125 -187t-192 -76.5zM926 360q89 0 159.5 67.5t105 165t34.5 200.5q0 130 -60.5 205t-165.5 75q-88 0 -158 -68t-104.5 -165.5t-34.5 -200.5q0 -130 60 -204.5t164 -74.5z" />
    <glyph glyph-name="lozenge" unicode="&#x25ca;" horiz-adv-x="1187" 
d="M668 0h-58l-469 719l469 715h58l469 -723zM829 350l234 361l-260 407l-164 256l-190 -295l-234 -360l260 -408l164 -256z" />
    <glyph glyph-name="uni274C" unicode="&#x274c;" horiz-adv-x="1705" 
d="M901 676l-674 -701l-41 41l674 701l-674 700l41 41l674 -700l674 700l39 -41l-674 -700l674 -701l-39 -41z" />
    <glyph glyph-name="uni2776" unicode="&#x2776;" horiz-adv-x="1855" 
d="M907 -84q175 0 332.5 63t275.5 175t187.5 278.5t69.5 362.5q0 159 -53 293.5t-148.5 229t-232 147.5t-298.5 53q-175 0 -332.5 -63t-275.5 -175t-187 -278.5t-69 -362.5q0 -212 91 -376.5t257.5 -255.5t382.5 -91zM950 317h-59l88 414q9 42 26.5 126t26.5 126
q-51 -60 -108.5 -96t-135.5 -47l15 63q90 22 153 73.5t119 139.5h43z" />
    <glyph glyph-name="uni2777" unicode="&#x2777;" horiz-adv-x="1855" 
d="M907 -84q175 0 332.5 63t275.5 175t187.5 278.5t69.5 362.5q0 159 -53 293.5t-148.5 229t-232 147.5t-298.5 53q-175 0 -332.5 -63t-275.5 -175t-187 -278.5t-69 -362.5q0 -212 91 -376.5t257.5 -255.5t382.5 -91zM1155 315h-491l12 56q280 172 393 286.5t113 235.5
q0 76 -50 127t-124 51q-91 0 -145 -59.5t-54 -161.5l-55 14q3 120 73 191t183 71q98 0 164.5 -66.5t66.5 -164.5q0 -128 -113 -250q-108 -115 -362 -274h309h92z" />
    <glyph glyph-name="uni2778" unicode="&#x2778;" horiz-adv-x="1855" 
d="M907 -84q175 0 332.5 63t275.5 175t187.5 278.5t69.5 362.5q0 159 -53 293.5t-148.5 229t-232 147.5t-298.5 53q-175 0 -332.5 -63t-275.5 -175t-187 -278.5t-69 -362.5q0 -212 91 -376.5t257.5 -255.5t382.5 -91zM928 305q-118 0 -185 67t-59 177l61 22
q-17 -93 34.5 -152t146.5 -59q91 0 147.5 51.5t56.5 133.5q0 70 -50 117t-122 47h-73l16 55h72q95 0 149 43.5t54 120.5q0 63 -48 104t-122 41q-85 0 -138.5 -50.5t-50.5 -129.5l-57 18q7 99 75 158t171 59q100 0 164.5 -55.5t64.5 -142.5q0 -74 -42 -127.5t-118 -75.5
q55 -26 85 -74t30 -106q0 -106 -73.5 -174t-188.5 -68z" />
    <glyph glyph-name="uni2779" unicode="&#x2779;" horiz-adv-x="1855" 
d="M907 -84q175 0 332.5 63t275.5 175t187.5 278.5t69.5 362.5q0 159 -53 293.5t-148.5 229t-232 147.5t-298.5 53q-175 0 -332.5 -63t-275.5 -175t-187 -278.5t-69 -362.5q0 -212 91 -376.5t257.5 -255.5t382.5 -91zM1006 317h-58l49 232h-366l10 49l459 518h76l-109 -514
h133l-12 -53h-133zM918 602h90l30 143l62 291l-383 -434h201z" />
    <glyph glyph-name="uni277A" unicode="&#x277a;" horiz-adv-x="1855" 
d="M907 -84q175 0 332.5 63t275.5 175t187.5 278.5t69.5 362.5q0 159 -53 293.5t-148.5 229t-232 147.5t-298.5 53q-175 0 -332.5 -63t-275.5 -175t-187 -278.5t-69 -362.5q0 -212 91 -376.5t257.5 -255.5t382.5 -91zM926 305q-113 0 -179.5 56t-70.5 155l57 19
q0 -82 50.5 -128.5t142.5 -46.5q101 0 164 65t63 171q0 76 -50.5 127t-127.5 51q-66 0 -108 -24t-83 -86l-63 18l137 434h428l-12 -55h-377l-66 -209l-28 -94q63 71 172 71q103 0 171 -66.5t68 -166.5q0 -128 -80.5 -209.5t-207.5 -81.5z" />
    <glyph glyph-name="uni277B" unicode="&#x277b;" horiz-adv-x="1855" 
d="M907 -84q175 0 332.5 63t275.5 175t187.5 278.5t69.5 362.5q0 159 -53 293.5t-148.5 229t-232 147.5t-298.5 53q-175 0 -332.5 -63t-275.5 -175t-187 -278.5t-69 -362.5q0 -212 91 -376.5t257.5 -255.5t382.5 -91zM920 305q-114 0 -178 72.5t-64 202.5q0 245 114 396.5
t298 151.5q101 0 174 -34l-13 -60q-80 37 -159 37q-139 0 -226 -94.5t-118 -251.5q76 106 213 106q105 0 170 -67.5t65 -173.5q0 -123 -78.5 -204t-197.5 -81zM920 360q93 0 154 64.5t61 163.5q0 85 -50.5 136.5t-132.5 51.5q-92 0 -152.5 -65.5t-60.5 -163.5
q0 -84 50.5 -135.5t130.5 -51.5z" />
    <glyph glyph-name="uni277C" unicode="&#x277c;" horiz-adv-x="1855" 
d="M907 -84q175 0 332.5 63t275.5 175t187.5 278.5t69.5 362.5q0 159 -53 293.5t-148.5 229t-232 147.5t-298.5 53q-175 0 -332.5 -63t-275.5 -175t-187 -278.5t-69 -362.5q0 -212 91 -376.5t257.5 -255.5t382.5 -91zM838 317h-64q60 469 449 744h-115h-305l12 55h514
l-8 -43q-130 -89 -222.5 -185.5t-145 -194.5t-78.5 -186.5t-37 -189.5z" />
    <glyph glyph-name="uni277D" unicode="&#x277d;" horiz-adv-x="1855" 
d="M907 -84q175 0 332.5 63t275.5 175t187.5 278.5t69.5 362.5q0 159 -53 293.5t-148.5 229t-232 147.5t-298.5 53q-175 0 -332.5 -63t-275.5 -175t-187 -278.5t-69 -362.5q0 -212 91 -376.5t257.5 -255.5t382.5 -91zM926 305q-112 0 -179 58t-67 155q0 81 51.5 144
t136.5 86q-96 50 -96 155q0 98 71 161.5t179 63.5q100 0 162.5 -54t62.5 -140q0 -70 -42.5 -125.5t-119.5 -81.5q53 -27 84 -73.5t31 -104.5q0 -104 -79 -174t-195 -70zM993 764q83 0 138 48t55 120q0 64 -44.5 102.5t-117.5 38.5q-84 0 -139.5 -47.5t-55.5 -118.5
q0 -64 45 -103.5t119 -39.5zM922 360q93 0 155 53.5t62 133.5q0 72 -50 117t-133 45q-93 0 -155 -54.5t-62 -134.5q0 -72 50 -116t133 -44z" />
    <glyph glyph-name="uni277E" unicode="&#x277e;" horiz-adv-x="1855" 
d="M907 -84q175 0 332.5 63t275.5 175t187.5 278.5t69.5 362.5q0 159 -53 293.5t-148.5 229t-232 147.5t-298.5 53q-175 0 -332.5 -63t-275.5 -175t-187 -278.5t-69 -362.5q0 -212 91 -376.5t257.5 -255.5t382.5 -91zM862 305q-112 0 -174 41l12 60q28 -20 72.5 -33
t87.5 -13q143 0 240 103q87 94 110 250q-78 -119 -227 -119q-110 0 -179 68t-69 174q0 127 77.5 209.5t197.5 82.5q121 0 194 -88q72 -84 72 -217q0 -234 -113.5 -376t-300.5 -142zM981 651q98 0 162.5 62t64.5 157q0 83 -57.5 142t-136.5 59q-97 0 -158 -64.5t-61 -168.5
q0 -83 51.5 -135t134.5 -52z" />
    <glyph glyph-name="uni300A" unicode="&#x300a;" horiz-adv-x="970" 
d="M754 1567l51 -33l-633 -918l227 -925l-59 -19l-231 949zM1098 1567l51 -33l-664 -963l217 -880l-59 -19l-221 906z" />
    <glyph glyph-name="uni300B" unicode="&#x300b;" horiz-adv-x="962" 
d="M319 1548l60 19l221 -905l-676 -990l-51 33l664 963zM623 1548l59 19l231 -949l-645 -946l-51 33l633 918z" />
    <glyph glyph-name="uni300C" unicode="&#x300c;" horiz-adv-x="657" 
d="M279 653h-62l189 893h428l-13 -57h-366z" />
    <glyph glyph-name="uni300D" unicode="&#x300d;" horiz-adv-x="417" 
d="M197 586h61l-188 -893h-428l12 57h366z" />
    <glyph glyph-name="uni300E" unicode="&#x300e;" horiz-adv-x="831" 
d="M422 512h-236l222 1034h555l-64 -293h-319zM457 1489l-197 -920h115l157 742h318l39 178h-432z" />
    <glyph glyph-name="uni300F" unicode="&#x300f;" horiz-adv-x="829" 
d="M451 727h235l-221 -1034h-555l63 293h320zM416 -250l196 920h-114l-158 -742h-317l-39 -178h432z" />
    <glyph glyph-name="uni3010" unicode="&#x3010;" horiz-adv-x="698" 
d="M492 -307h-426l395 1853h426q-239 -226 -377 -450t-193 -482q-56 -248 -15.5 -466.5t190.5 -454.5z" />
    <glyph glyph-name="uni3011" unicode="&#x3011;" horiz-adv-x="698" 
d="M258 1546h426l-395 -1853h-426q239 225 376.5 449.5t192.5 482.5q56 247 16 466t-190 455z" />
    <glyph glyph-name="uni3014" unicode="&#x3014;" horiz-adv-x="548" 
d="M711 1522l-328 -297l-258 -1221l199 -291l-50 -41l-215 320l267 1257l346 320z" />
    <glyph glyph-name="uni3015" unicode="&#x3015;" horiz-adv-x="546" 
d="M274 1526l50 41l215 -320l-267 -1257l-346 -320l-39 47l328 297l258 1221z" />
    <glyph glyph-name="plus.alt" unicode="&#xe000;" horiz-adv-x="1593" 
d="M870 0h-57v688h-688v57h688v689h57v-689h689v-57h-689v-688z" />
    <glyph glyph-name="minus.alt" unicode="&#xe001;" horiz-adv-x="1816" 
d="M1663 688h-1434v57h1434v-57z" />
    <glyph glyph-name="multiply.alt" unicode="&#xe002;" horiz-adv-x="1839" 
d="M967 676l-674 -701l-41 41l674 701l-674 700l41 41l674 -700l673 700l39 -41l-673 -700l673 -701l-39 -41z" />
    <glyph glyph-name="uniE003" unicode="&#xe003;" horiz-adv-x="1966" 
d="M1917 1360l-1002 -1391l-618 881l47 41l574 -823l950 1329z" />
    <glyph glyph-name="uniE004" unicode="&#xe004;" horiz-adv-x="2236" 
d="M1958 1296h-1585v62h1585v-62zM1958 698h-1585v58h1585v-58zM1958 96h-1585v62h1585v-62z" />
    <glyph glyph-name="uniE005" unicode="&#xe005;" horiz-adv-x="1966" 
d="M1745 0h-1434v1434h1434v-1434zM375 1376v-1319h1306v1319h-1306z" />
    <glyph glyph-name="uniE006" unicode="&#xe006;" horiz-adv-x="1966" 
d="M1778 1434l-734 -1106l-368 598l51 35l166 -271l154 -250l165 250l517 778zM1757 0h-1433v1434h944v-58h-881v-1319h1307v607h63v-664z" />
    <glyph glyph-name="uniE007" unicode="&#xe007;" horiz-adv-x="1966" 
d="M1745 0h-1434v1434h1434v-1434zM375 1376v-1319h1306v1319h-1306zM1079 631h-102v172h102v-172z" />
    <glyph glyph-name="uniE008" unicode="&#xe008;" horiz-adv-x="1585" 
d="M1196 522l-489 -463l-486 463l45 45l240 -239q28 -28 85 -79t87 -81v1233h61v-1233q26 26 83.5 80t84.5 80l248 239zM1432 0h-1434v59h1434v-59z" />
    <glyph glyph-name="uniE009" unicode="&#xe009;" horiz-adv-x="1585" 
d="M1206 786l-489 -462l-486 462l45 45l240 -239q28 -28 85 -79t87 -81v1233h62v-1233q26 26 83.5 80t84.5 80l247 239zM1442 0h-1434v59h1434v-59z" />
    <glyph glyph-name="uniF8FF" unicode="&#xf8ff;" horiz-adv-x="1568" 
d="M1290 145q9 -100 0 -198h-57q-50 116 -72 159q15 -111 15 -190l-27 -14q-37 12 -63.5 36.5t-41 59.5t-22 69t-10.5 78q-11 161 -11 162q-27 -128 -75 -176q-28 32 -50 68t-35 67t-24.5 76.5t-17 76.5t-15 87t-16.5 90q-35 173 -53 223q-12 35 -29 64q-30 52 -66 85
t-81.5 64.5t-75.5 61.5q-52 52 -96 141l114 70l-43 63q-35 -4 -63 0q-57 8 -92 34t-29 60t37 50.5t80 7.5q13 -3 59 -21q0 1 -3 14t-2.5 19t3.5 31q5 24 26.5 38.5t51.5 10.5q41 -6 56 -40.5t7 -78.5q-10 -51 -49 -82l41 -59l86 53q201 -113 316 -567q134 -115 221 -300
t106 -393z" />
    <glyph glyph-name="G.ss03" horiz-adv-x="1601" 
d="M809 -25q-193 0 -335.5 88t-215 240t-72.5 348q0 126 32.5 245t96.5 220.5t152.5 178t208 120t256.5 43.5q105 0 196 -21.5t154 -58t112.5 -80t80.5 -92.5t49 -89t26 -77l-63 -18q-12 49 -34.5 96.5t-67 100t-104 92t-150 65t-199.5 25.5q-127 0 -237.5 -40.5t-191 -112
t-138.5 -166.5t-86.5 -204.5t-28.5 -226.5q0 -279 149 -448.5t408 -169.5q141 0 254 44t188 122.5t120 180.5t61 226h-576l10 58h635q-11 -117 -42.5 -219t-88.5 -189t-135 -149t-186 -97t-238 -35z" />
    <glyph glyph-name="Gbreve.ss03" horiz-adv-x="1601" 
d="M1059 1599q-120 0 -177 67t-42 173h51q-11 -182 170 -182q85 0 153 44.5t101 137.5h61q-34 -109 -115 -174.5t-202 -65.5zM809 -25q-193 0 -335.5 88t-215 240t-72.5 348q0 126 32.5 245t96.5 220.5t152.5 178t208 120t256.5 43.5q105 0 196 -21.5t154 -58t112.5 -80
t80.5 -92.5t49 -89t26 -77l-63 -18q-12 49 -34.5 96.5t-67 100t-104 92t-150 65t-199.5 25.5q-127 0 -237.5 -40.5t-191 -112t-138.5 -166.5t-86.5 -204.5t-28.5 -226.5q0 -279 149 -448.5t408 -169.5q141 0 254 44t188 122.5t120 180.5t61 226h-576l10 58h635
q-11 -117 -42.5 -219t-88.5 -189t-135 -149t-186 -97t-238 -35z" />
    <glyph glyph-name="Gcircumflex.ss03" horiz-adv-x="1601" 
d="M823 1608h-73l282 233h107l172 -233h-64l-166 188zM809 -25q-193 0 -335.5 88t-215 240t-72.5 348q0 126 32.5 245t96.5 220.5t152.5 178t208 120t256.5 43.5q105 0 196 -21.5t154 -58t112.5 -80t80.5 -92.5t49 -89t26 -77l-63 -18q-12 49 -34.5 96.5t-67 100t-104 92
t-150 65t-199.5 25.5q-127 0 -237.5 -40.5t-191 -112t-138.5 -166.5t-86.5 -204.5t-28.5 -226.5q0 -279 149 -448.5t408 -169.5q141 0 254 44t188 122.5t120 180.5t61 226h-576l10 58h635q-11 -117 -42.5 -219t-88.5 -189t-135 -149t-186 -97t-238 -35z" />
    <glyph glyph-name="uni0122.ss03" horiz-adv-x="1601" 
d="M809 -25q-193 0 -335.5 88t-215 240t-72.5 348q0 126 32.5 245t96.5 220.5t152.5 178t208 120t256.5 43.5q105 0 196 -21.5t154 -58t112.5 -80t80.5 -92.5t49 -89t26 -77l-63 -18q-12 49 -34.5 96.5t-67 100t-104 92t-150 65t-199.5 25.5q-127 0 -237.5 -40.5t-191 -112
t-138.5 -166.5t-86.5 -204.5t-28.5 -226.5q0 -279 149 -448.5t408 -169.5q141 0 254 44t188 122.5t120 180.5t61 226h-576l10 58h635q-11 -117 -42.5 -219t-88.5 -189t-135 -149t-186 -97t-238 -35zM612 -551h-47l127 186h-43l33 146h88l-31 -146z" />
    <glyph glyph-name="Gdotaccent.ss03" horiz-adv-x="1601" 
d="M1069 1610h-63l38 180h64zM809 -25q-193 0 -335.5 88t-215 240t-72.5 348q0 126 32.5 245t96.5 220.5t152.5 178t208 120t256.5 43.5q105 0 196 -21.5t154 -58t112.5 -80t80.5 -92.5t49 -89t26 -77l-63 -18q-12 49 -34.5 96.5t-67 100t-104 92t-150 65t-199.5 25.5
q-127 0 -237.5 -40.5t-191 -112t-138.5 -166.5t-86.5 -204.5t-28.5 -226.5q0 -279 149 -448.5t408 -169.5q141 0 254 44t188 122.5t120 180.5t61 226h-576l10 58h635q-11 -117 -42.5 -219t-88.5 -189t-135 -149t-186 -97t-238 -35z" />
    <glyph glyph-name="a.ss01" horiz-adv-x="1159" 
d="M479 -25q-153 0 -256.5 104t-103.5 292q0 129 32 246.5t90 209.5t147.5 146.5t197.5 54.5q145 0 238 -78.5t120 -212.5l55 267h60l-213 -1004h-58q6 27 17.5 83.5t17.5 84.5q-57 -89 -144.5 -141t-199.5 -52zM485 33q96 0 176 49.5t132.5 132.5t81 188.5t28.5 219.5
q0 161 -89 254.5t-224 93.5q-94 0 -172.5 -50.5t-129.5 -134t-78.5 -190t-27.5 -221.5q0 -161 85.5 -251.5t217.5 -90.5z" />
    <glyph glyph-name="aacute.ss01" horiz-adv-x="1159" 
d="M692 1159h-57l211 234h94zM479 -25q-153 0 -256.5 104t-103.5 292q0 129 32 246.5t90 209.5t147.5 146.5t197.5 54.5q145 0 238 -78.5t120 -212.5l55 267h60l-213 -1004h-58q6 27 17.5 83.5t17.5 84.5q-57 -89 -144.5 -141t-199.5 -52zM485 33q96 0 176 49.5t132.5 132.5
t81 188.5t28.5 219.5q0 161 -89 254.5t-224 93.5q-94 0 -172.5 -50.5t-129.5 -134t-78.5 -190t-27.5 -221.5q0 -161 85.5 -251.5t217.5 -90.5z" />
    <glyph glyph-name="abreve.ss01" horiz-adv-x="1159" 
d="M674 1153q-109 0 -161 67t-38 173h47q-6 -94 35.5 -138.5t118.5 -44.5t138.5 45t92.5 138h56q-31 -110 -104.5 -175t-184.5 -65zM479 -25q-153 0 -256.5 104t-103.5 292q0 129 32 246.5t90 209.5t147.5 146.5t197.5 54.5q145 0 238 -78.5t120 -212.5l55 267h60
l-213 -1004h-58q6 27 17.5 83.5t17.5 84.5q-57 -89 -144.5 -141t-199.5 -52zM485 33q96 0 176 49.5t132.5 132.5t81 188.5t28.5 219.5q0 161 -89 254.5t-224 93.5q-94 0 -172.5 -50.5t-129.5 -134t-78.5 -190t-27.5 -221.5q0 -161 85.5 -251.5t217.5 -90.5z" />
    <glyph glyph-name="acircumflex.ss01" horiz-adv-x="1159" 
d="M467 1159h-66l256 234h97l157 -234h-57l-152 189zM479 -25q-153 0 -256.5 104t-103.5 292q0 129 32 246.5t90 209.5t147.5 146.5t197.5 54.5q145 0 238 -78.5t120 -212.5l55 267h60l-213 -1004h-58q6 27 17.5 83.5t17.5 84.5q-57 -89 -144.5 -141t-199.5 -52zM485 33
q96 0 176 49.5t132.5 132.5t81 188.5t28.5 219.5q0 161 -89 254.5t-224 93.5q-94 0 -172.5 -50.5t-129.5 -134t-78.5 -190t-27.5 -221.5q0 -161 85.5 -251.5t217.5 -90.5z" />
    <glyph glyph-name="adieresis.ss01" horiz-adv-x="1159" 
d="M553 1239h-82l29 143h82zM889 1239h-82l29 143h82zM479 -25q-153 0 -256.5 104t-103.5 292q0 129 32 246.5t90 209.5t147.5 146.5t197.5 54.5q145 0 238 -78.5t120 -212.5l55 267h60l-213 -1004h-58q6 27 17.5 83.5t17.5 84.5q-57 -89 -144.5 -141t-199.5 -52zM485 33
q96 0 176 49.5t132.5 132.5t81 188.5t28.5 219.5q0 161 -89 254.5t-224 93.5q-94 0 -172.5 -50.5t-129.5 -134t-78.5 -190t-27.5 -221.5q0 -161 85.5 -251.5t217.5 -90.5z" />
    <glyph glyph-name="uni0227.ss01" horiz-adv-x="1159" 
d="M713 1253h-64l39 181h64zM479 -25q-153 0 -256.5 104t-103.5 292q0 129 32 246.5t90 209.5t147.5 146.5t197.5 54.5q145 0 238 -78.5t120 -212.5l55 267h60l-213 -1004h-58q6 27 17.5 83.5t17.5 84.5q-57 -89 -144.5 -141t-199.5 -52zM485 33q96 0 176 49.5t132.5 132.5
t81 188.5t28.5 219.5q0 161 -89 254.5t-224 93.5q-94 0 -172.5 -50.5t-129.5 -134t-78.5 -190t-27.5 -221.5q0 -161 85.5 -251.5t217.5 -90.5z" />
    <glyph glyph-name="agrave.ss01" horiz-adv-x="1159" 
d="M686 1159h-45l-154 234h88zM479 -25q-153 0 -256.5 104t-103.5 292q0 129 32 246.5t90 209.5t147.5 146.5t197.5 54.5q145 0 238 -78.5t120 -212.5l55 267h60l-213 -1004h-58q6 27 17.5 83.5t17.5 84.5q-57 -89 -144.5 -141t-199.5 -52zM485 33q96 0 176 49.5
t132.5 132.5t81 188.5t28.5 219.5q0 161 -89 254.5t-224 93.5q-94 0 -172.5 -50.5t-129.5 -134t-78.5 -190t-27.5 -221.5q0 -161 85.5 -251.5t217.5 -90.5z" />
    <glyph glyph-name="amacron.ss01" horiz-adv-x="1159" 
d="M977 1227h-598l12 55h598zM479 -25q-153 0 -256.5 104t-103.5 292q0 129 32 246.5t90 209.5t147.5 146.5t197.5 54.5q145 0 238 -78.5t120 -212.5l55 267h60l-213 -1004h-58q6 27 17.5 83.5t17.5 84.5q-57 -89 -144.5 -141t-199.5 -52zM485 33q96 0 176 49.5t132.5 132.5
t81 188.5t28.5 219.5q0 161 -89 254.5t-224 93.5q-94 0 -172.5 -50.5t-129.5 -134t-78.5 -190t-27.5 -221.5q0 -161 85.5 -251.5t217.5 -90.5z" />
    <glyph glyph-name="aogonek.ss01" horiz-adv-x="1159" 
d="M1059 1004l-213 -1004q-209 -99 -236 -229q-11 -46 7.5 -74.5t66.5 -28.5q40 0 98 21l-12 -58q-41 -20 -84 -20q-74 0 -109 43t-24 108q12 68 72.5 139t167.5 122l30 145q-57 -89 -144.5 -141t-199.5 -52q-153 0 -256.5 104t-103.5 292q0 129 32 246.5t90 209.5
t147.5 146.5t197.5 54.5q145 0 238 -78.5t120 -212.5l55 267h60zM485 33q96 0 176 49.5t132.5 132.5t81 188.5t28.5 219.5q0 161 -89 254.5t-224 93.5q-94 0 -172.5 -50.5t-129.5 -134t-78.5 -190t-27.5 -221.5q0 -161 85.5 -251.5t217.5 -90.5z" />
    <glyph glyph-name="aring.ss01" horiz-adv-x="1159" 
d="M657 1112q-74 0 -122 48.5t-48 117.5q0 83 61.5 146t147.5 63q73 0 119.5 -47t46.5 -113q0 -86 -59.5 -150.5t-145.5 -64.5zM659 1161q64 0 105 51t41 113q0 48 -30 80.5t-83 32.5q-64 0 -105.5 -49.5t-41.5 -110.5q0 -49 31 -83t83 -34zM479 -25q-153 0 -256.5 104
t-103.5 292q0 129 32 246.5t90 209.5t147.5 146.5t197.5 54.5q145 0 238 -78.5t120 -212.5l55 267h60l-213 -1004h-58q6 27 17.5 83.5t17.5 84.5q-57 -89 -144.5 -141t-199.5 -52zM485 33q96 0 176 49.5t132.5 132.5t81 188.5t28.5 219.5q0 161 -89 254.5t-224 93.5
q-94 0 -172.5 -50.5t-129.5 -134t-78.5 -190t-27.5 -221.5q0 -161 85.5 -251.5t217.5 -90.5z" />
    <glyph glyph-name="atilde.ss01" horiz-adv-x="1159" 
d="M811 1178q-69 0 -129 53l-49 45q-29 28 -50.5 38.5t-47.5 10.5q-91 0 -117 -129h-62q14 90 63.5 136t119.5 46q67 0 127 -53l49 -45q33 -28 53.5 -38.5t46.5 -10.5q93 0 119 129h61q-36 -182 -184 -182zM479 -25q-153 0 -256.5 104t-103.5 292q0 129 32 246.5t90 209.5
t147.5 146.5t197.5 54.5q145 0 238 -78.5t120 -212.5l55 267h60l-213 -1004h-58q6 27 17.5 83.5t17.5 84.5q-57 -89 -144.5 -141t-199.5 -52zM485 33q96 0 176 49.5t132.5 132.5t81 188.5t28.5 219.5q0 161 -89 254.5t-224 93.5q-94 0 -172.5 -50.5t-129.5 -134t-78.5 -190
t-27.5 -221.5q0 -161 85.5 -251.5t217.5 -90.5z" />
    <glyph glyph-name="g.ss02" horiz-adv-x="1173" 
d="M1016 1004h57l-213 -1006q-88 -422 -471 -422q-187 0 -289.5 88t-105.5 221l61 21q3 -133 95.5 -203t246.5 -70q92 0 164.5 31t119 86t75 117.5t45.5 138.5q7 30 20.5 93.5t20.5 93.5q-61 -84 -153.5 -130.5t-205.5 -46.5q-98 0 -178 41.5t-131 131t-51 214.5
q0 119 33 230.5t93.5 200t153 141.5t203.5 53q79 0 144 -24t107.5 -63.5t68.5 -82.5t39 -90zM496 74q101 0 184.5 48.5t136.5 127t82 174.5t29 194q0 88 -26.5 157t-72 111t-102 63.5t-121.5 21.5q-98 0 -179 -49.5t-131.5 -130t-78 -179.5t-27.5 -202q0 -167 84.5 -251.5
t221.5 -84.5z" />
    <glyph glyph-name="gbreve.ss02" horiz-adv-x="1173" 
d="M711 1153q-109 0 -161 67t-38 173h47q-6 -94 35.5 -138.5t118.5 -44.5t138.5 45t92.5 138h55q-31 -110 -104 -175t-184 -65zM1016 1004h57l-213 -1006q-88 -422 -471 -422q-187 0 -289.5 88t-105.5 221l61 21q3 -133 95.5 -203t246.5 -70q92 0 164.5 31t119 86t75 117.5
t45.5 138.5q7 30 20.5 93.5t20.5 93.5q-61 -84 -153.5 -130.5t-205.5 -46.5q-98 0 -178 41.5t-131 131t-51 214.5q0 119 33 230.5t93.5 200t153 141.5t203.5 53q79 0 144 -24t107.5 -63.5t68.5 -82.5t39 -90zM496 74q101 0 184.5 48.5t136.5 127t82 174.5t29 194
q0 88 -26.5 157t-72 111t-102 63.5t-121.5 21.5q-98 0 -179 -49.5t-131.5 -130t-78 -179.5t-27.5 -202q0 -167 84.5 -251.5t221.5 -84.5z" />
    <glyph glyph-name="gcircumflex.ss02" horiz-adv-x="1173" 
d="M891 1159l-152 189l-235 -189h-66l256 234h97l157 -234h-57zM1016 1004h57l-213 -1006q-88 -422 -471 -422q-187 0 -289.5 88t-105.5 221l61 21q3 -133 95.5 -203t246.5 -70q92 0 164.5 31t119 86t75 117.5t45.5 138.5q7 30 20.5 93.5t20.5 93.5q-61 -84 -153.5 -130.5
t-205.5 -46.5q-98 0 -178 41.5t-131 131t-51 214.5q0 119 33 230.5t93.5 200t153 141.5t203.5 53q79 0 144 -24t107.5 -63.5t68.5 -82.5t39 -90zM496 74q101 0 184.5 48.5t136.5 127t82 174.5t29 194q0 88 -26.5 157t-72 111t-102 63.5t-121.5 21.5q-98 0 -179 -49.5
t-131.5 -130t-78 -179.5t-27.5 -202q0 -167 84.5 -251.5t221.5 -84.5z" />
    <glyph glyph-name="uni0123.ss02" horiz-adv-x="1173" 
d="M731 1399h43l-31 -146h-90l31 146l127 186h47zM1016 1004h57l-213 -1006q-88 -422 -471 -422q-187 0 -289.5 88t-105.5 221l61 21q3 -133 95.5 -203t246.5 -70q92 0 164.5 31t119 86t75 117.5t45.5 138.5q7 30 20.5 93.5t20.5 93.5q-61 -84 -153.5 -130.5t-205.5 -46.5
q-98 0 -178 41.5t-131 131t-51 214.5q0 119 33 230.5t93.5 200t153 141.5t203.5 53q79 0 144 -24t107.5 -63.5t68.5 -82.5t39 -90zM496 74q101 0 184.5 48.5t136.5 127t82 174.5t29 194q0 88 -26.5 157t-72 111t-102 63.5t-121.5 21.5q-98 0 -179 -49.5t-131.5 -130
t-78 -179.5t-27.5 -202q0 -167 84.5 -251.5t221.5 -84.5z" />
    <glyph glyph-name="gdotaccent.ss02" horiz-adv-x="1173" 
d="M725 1434h63l-38 -181h-64zM1016 1004h57l-213 -1006q-88 -422 -471 -422q-187 0 -289.5 88t-105.5 221l61 21q3 -133 95.5 -203t246.5 -70q92 0 164.5 31t119 86t75 117.5t45.5 138.5q7 30 20.5 93.5t20.5 93.5q-61 -84 -153.5 -130.5t-205.5 -46.5q-98 0 -178 41.5
t-131 131t-51 214.5q0 119 33 230.5t93.5 200t153 141.5t203.5 53q79 0 144 -24t107.5 -63.5t68.5 -82.5t39 -90zM496 74q101 0 184.5 48.5t136.5 127t82 174.5t29 194q0 88 -26.5 157t-72 111t-102 63.5t-121.5 21.5q-98 0 -179 -49.5t-131.5 -130t-78 -179.5t-27.5 -202
q0 -167 84.5 -251.5t221.5 -84.5z" />
    <glyph glyph-name="i.loclTRK" horiz-adv-x="475" 
d="M430 1253h-63l39 181h63zM162 0h-62l213 1004h60z" />
    <glyph glyph-name="zero.osf" horiz-adv-x="1271" 
d="M580 -25q-198 0 -320.5 127t-122.5 324q0 161 66 293.5t189.5 211.5t281.5 79q201 0 328.5 -126t127.5 -321q0 -123 -38 -230.5t-107.5 -186.5t-174 -125t-230.5 -46zM582 33q148 0 260 72t168.5 189t56.5 259q0 172 -106 285.5t-291 113.5q-138 0 -246 -70.5
t-165.5 -187t-57.5 -254.5q0 -84 24 -157t70 -129t120 -88.5t167 -32.5z" />
    <glyph glyph-name="one.osf" horiz-adv-x="696" 
d="M362 0h-61l107 506q13 57 37.5 171t37.5 171q-155 -195 -372 -275l14 70q109 44 223 141t187 220h40z" />
    <glyph glyph-name="two.osf" horiz-adv-x="995" 
d="M772 2h-717l15 66q391 169 569 316.5t178 330.5q0 118 -81 187t-193 69q-253 0 -297 -262l-58 14q24 147 113.5 226t241.5 79q142 0 241 -88.5t99 -220.5q0 -189 -183 -354q-164 -153 -532 -308q82 4 211 4h405z" />
    <glyph glyph-name="three.osf" horiz-adv-x="1114" 
d="M412 -424q-206 0 -314.5 106t-95.5 302l59 24q-20 -177 74.5 -277t267.5 -100q174 0 290 103.5t116 263.5q0 142 -95 226.5t-235 84.5h-86l17 58h86q173 0 284 94t111 244q0 120 -87 194t-222 74q-147 0 -247.5 -91t-101.5 -231l-55 21q10 160 123.5 258t282.5 98
q87 0 158 -28t115.5 -74t68.5 -103t24 -118q0 -90 -35.5 -163.5t-89 -116t-106 -66t-96.5 -27.5q97 -20 173 -111.5t76 -218.5q0 -183 -129 -304.5t-331 -121.5z" />
    <glyph glyph-name="four.osf" horiz-adv-x="1085" 
d="M614 -399h-61l86 399h-655l14 68l831 936h84l-200 -947h207l-13 -57h-207zM66 57h294h291l119 566q26 115 66 305z" />
    <glyph glyph-name="five.osf" horiz-adv-x="1134" 
d="M414 -430q-94 0 -173.5 31t-128.5 80t-75.5 108t-24.5 117l60 31q-5 -95 46 -167.5t129.5 -107.5t166.5 -35q196 0 319 129t123 332q0 148 -91.5 243t-240.5 95q-122 0 -206 -47t-154 -150l-82 23l240 752h737l-12 -56h-687l-124 -399q-13 -41 -39 -124t-39 -124
q79 102 166 142t200 40q184 0 291 -115t107 -280q0 -225 -142 -371.5t-366 -146.5z" />
    <glyph glyph-name="six.osf" horiz-adv-x="1220" 
d="M590 -25q-216 0 -318 135t-102 379q0 151 32.5 293t98 264t156.5 214t215 144t266 52q166 0 274 -63l-12 -62q-117 68 -260 68q-127 0 -236.5 -44t-190.5 -121t-141.5 -182t-95.5 -225.5t-47 -253.5q13 49 47.5 103.5t89.5 107t138 87t176 34.5q128 0 222 -58
t138.5 -147.5t44.5 -195.5q0 -144 -62.5 -264.5t-176.5 -192.5t-256 -72zM580 31q191 0 317.5 136.5t126.5 332.5q0 158 -99 254t-245 96q-120 0 -221 -64t-158 -171.5t-57 -233.5q0 -155 98 -252.5t238 -97.5z" />
    <glyph glyph-name="seven.osf" horiz-adv-x="1024" 
d="M201 -399h-62q11 59 19 100t27 118.5t40 138.5t56.5 149t77 162.5t101.5 166t129.5 172.5t162 169.5t198.5 168.5h-262h-555l12 58h918l-10 -46q-140 -104 -257.5 -218.5t-198 -215t-146.5 -215.5t-104.5 -201t-70.5 -191.5t-45.5 -168t-29.5 -147.5z" />
    <glyph glyph-name="eight.osf" horiz-adv-x="1185" 
d="M543 -25q-197 0 -310.5 104.5t-113.5 256.5q0 72 23 140t69 128t123 105t176 63q-82 37 -140.5 110.5t-58.5 182.5q0 178 120 285.5t310 107.5q178 0 282.5 -100t104.5 -250q0 -135 -92.5 -239t-247.5 -130q93 -34 159.5 -123t66.5 -210q0 -185 -132 -308t-339 -123z
M694 780q157 0 265 93.5t108 236.5q0 132 -94 212.5t-234 80.5q-156 0 -261 -93.5t-105 -234.5q0 -130 93.5 -212.5t227.5 -82.5zM541 31q174 0 291.5 106t117.5 266q0 149 -95.5 235.5t-256.5 86.5q-177 0 -296.5 -106.5t-119.5 -266.5q0 -145 101 -233t258 -88z" />
    <glyph glyph-name="nine.osf" 
d="M373 -422q-159 0 -281 45l12 62q127 -47 261 -47q128 0 236 43t185 117.5t134.5 176.5t89.5 217t43 242q-12 -49 -47 -103.5t-91 -106.5t-141.5 -86t-183.5 -34q-189 0 -311.5 113.5t-122.5 294.5q0 138 58 255t170 189t257 72q210 0 338.5 -137t128.5 -377
q0 -151 -29 -288.5t-89.5 -256t-146.5 -205.5t-207 -136.5t-263 -49.5zM588 162q187 0 315.5 130.5t128.5 315.5q0 106 -55.5 190.5t-143 128.5t-186.5 44q-191 0 -309.5 -130t-118.5 -319q0 -165 105.5 -262.5t263.5 -97.5z" />
    <glyph glyph-name="zero.tf" 
d="M610 -25q-227 0 -363 152.5t-136 443.5q0 124 26.5 249.5t81 240t129.5 203t179.5 141.5t222.5 53q228 0 364.5 -152.5t136.5 -445.5q0 -124 -27 -249.5t-81.5 -239.5t-129.5 -202.5t-179.5 -141t-223.5 -52.5zM610 33q131 0 243 76t183.5 197t111.5 265.5t40 286.5
q0 253 -117.5 398t-320.5 145q-130 0 -241.5 -76.5t-183 -198t-111.5 -266.5t-40 -287q0 -252 117 -396t319 -144z" />
    <glyph glyph-name="one.tf" 
d="M932 1434l-291 -1377h385l-12 -57h-862l12 57h416l213 1010l47 221q-83 -107 -208 -190.5t-255 -124.5l16 71q133 49 264.5 147t233.5 243h41z" />
    <glyph glyph-name="two.tf" 
d="M1001 0h-864l15 66q31 21 102.5 66t137.5 86.5t153.5 103t160.5 119.5t147 133t125.5 147.5t83.5 157.5t32 168q0 151 -102.5 252.5t-262.5 101.5q-45 0 -90 -10.5t-93 -37.5t-86 -68.5t-66 -108.5t-36 -152l-57 16q16 139 81 235.5t154.5 139.5t194.5 43
q129 0 227.5 -57.5t147.5 -149.5t49 -202q0 -231 -201 -459q-118 -135 -287 -258t-415 -275h291h471z" />
    <glyph glyph-name="three.tf" 
d="M594 -25q-201 0 -320 110.5t-110 303.5l63 25q-17 -174 87.5 -277.5t273.5 -103.5q178 0 289.5 102t111.5 264q0 140 -100.5 232t-241.5 92h-104l16 59h115q180 0 290.5 85t110.5 241q0 128 -98.5 210.5t-239.5 82.5q-157 0 -260.5 -92.5t-111.5 -235.5l-60 21
q20 166 135.5 265t294.5 99q183 0 292.5 -101t109.5 -247q0 -143 -86 -240.5t-234 -128.5q97 -38 167.5 -127t70.5 -213q0 -182 -127 -304t-334 -122z" />
    <glyph glyph-name="four.tf" 
d="M772 0h-61l90 428h-678l12 57l838 949h102l-201 -951h246l-12 -55h-246zM459 483h354l154 727q13 57 19 86t20 90l-799 -903h252z" />
    <glyph glyph-name="five.tf" 
d="M584 -25q-91 0 -164.5 21t-122 55.5t-83 81.5t-51 95.5t-20.5 101.5l60 18q7 -150 110.5 -232.5t270.5 -82.5q196 0 320 127t124 332q0 151 -99.5 252.5t-252.5 101.5q-127 0 -208.5 -47.5t-154.5 -153.5l-82 23l244 766h748l-13 -58h-696l-127 -403l-80 -254
q81 105 166 144.5t203 39.5q95 0 174.5 -34t132.5 -91.5t82 -131.5t29 -154q0 -226 -142.5 -371.5t-367.5 -145.5z" />
    <glyph glyph-name="six.tf" 
d="M623 -25q-204 0 -315 130.5t-111 357.5q0 160 30 306.5t91 272t148 217.5t207.5 144.5t262.5 52.5q182 0 295 -55l-12 -62q-132 58 -281 58q-120 0 -222.5 -41.5t-178 -112.5t-133 -169.5t-92 -209.5t-50.5 -235q21 50 55 95.5t84.5 88t123.5 67.5t157 25q83 0 152.5 -23
t118.5 -63t83.5 -93.5t51 -115t16.5 -127.5q0 -140 -58.5 -255t-169.5 -184t-253 -69zM623 33q183 0 300 128.5t117 317.5q0 167 -101 268t-257 101q-183 0 -300.5 -129t-117.5 -318q0 -167 101 -267.5t258 -100.5z" />
    <glyph glyph-name="seven.tf" 
d="M395 0h-69q20 147 56 281.5t103 284.5t160 284t233 271.5t316 254.5h-276h-537l12 58h907l-8 -45q-192 -131 -341 -274.5t-244 -277.5t-161.5 -283t-99.5 -278.5t-51 -275.5z" />
    <glyph glyph-name="eight.tf" 
d="M592 -25q-110 0 -197 31t-140 84.5t-80.5 121t-27.5 144.5q0 145 105.5 263t288.5 143q-41 16 -78.5 41t-71 61.5t-53 87.5t-19.5 109q0 176 127 286.5t316 110.5q192 0 303 -97.5t111 -240.5q0 -134 -92.5 -239t-245.5 -140q100 -29 173.5 -117.5t73.5 -215.5
q0 -183 -141 -308t-352 -125zM715 782q166 0 278.5 94t112.5 238q0 132 -95 209.5t-247 77.5q-160 0 -271.5 -94.5t-111.5 -237.5q0 -130 93.5 -208.5t240.5 -78.5zM584 33q186 0 311 105t125 265q0 146 -104.5 233t-266.5 87q-186 0 -311 -105.5t-125 -265.5
q0 -145 104 -232t267 -87z" />
    <glyph glyph-name="nine.tf" 
d="M434 -25q-71 0 -154 16t-141 50l13 63q123 -69 280 -69q273 0 459 196q193 207 223 570q-18 -42 -42.5 -80.5t-64.5 -77.5t-88 -67t-116 -46t-146 -18q-105 0 -189.5 35.5t-137.5 95.5t-81 135t-28 158q0 105 34 199.5t96 166t154.5 113t203.5 41.5q104 0 193 -41
t151 -115q127 -149 127 -387q0 -147 -28 -283t-88 -256t-146.5 -208t-210.5 -139.5t-273 -51.5zM655 571q190 0 316.5 121.5t126.5 306.5q0 110 -54.5 202.5t-142.5 144t-186 51.5q-194 0 -311 -130t-117 -325q0 -170 105.5 -270.5t262.5 -100.5z" />
    <glyph glyph-name="zero.subs" horiz-adv-x="854" 
d="M322 -233q-133 0 -208 88t-75 245q0 116 40.5 226t124 187t191.5 77q134 0 209.5 -88.5t75.5 -245.5q0 -116 -41 -226t-125 -186.5t-192 -76.5zM322 -178q89 0 159.5 67.5t105 164.5t34.5 200q0 130 -61 205.5t-165 75.5q-88 0 -158 -68t-104.5 -166t-34.5 -201
q0 -130 60 -204t164 -74z" />
    <glyph glyph-name="one.subs" horiz-adv-x="518" 
d="M190 -221h-59l88 414q9 42 26.5 125.5t26.5 125.5q-52 -61 -108.5 -96.5t-134.5 -46.5l14 64q90 22 153 73.5t119 139.5h43z" />
    <glyph glyph-name="two.subs" horiz-adv-x="712" 
d="M471 -221h-491l12 55q280 172 393 286.5t113 235.5q0 76 -50 127.5t-124 51.5q-91 0 -145 -60t-54 -162l-55 15q3 120 73 191t183 71q98 0 164.5 -67t66.5 -165q0 -127 -113 -249q-110 -117 -362 -275h309h92z" />
    <glyph glyph-name="three.subs" horiz-adv-x="729" 
d="M250 -233q-118 0 -185 66.5t-59 176.5l62 23q-17 -93 34 -152t146 -59q91 0 148 51t57 133q0 70 -50 117t-122 47h-74l16 55h72q95 0 149 43.5t54 120.5q0 63 -48.5 104.5t-121.5 41.5q-85 0 -138.5 -51t-50.5 -130l-57 19q7 99 75 158t171 59q100 0 164.5 -56t64.5 -143
q0 -74 -42 -127.5t-118 -75.5q55 -26 85 -74t30 -106q0 -106 -73.5 -173.5t-188.5 -67.5z" />
    <glyph glyph-name="four.subs" horiz-adv-x="706" 
d="M344 -221h-57l49 231h-367l11 49l458 519h76l-108 -515h133l-13 -53h-133zM256 63h90l31 144l61 291l-383 -435h201z" />
    <glyph glyph-name="five.subs" horiz-adv-x="737" 
d="M246 -233q-113 0 -179.5 55.5t-70.5 154.5l57 19q0 -82 50.5 -128t142.5 -46q101 0 164 64.5t63 170.5q0 76 -50.5 127.5t-127.5 51.5q-66 0 -108 -24.5t-83 -86.5l-63 18l137 435h428l-12 -56h-377l-65 -209l-29 -94q64 72 172 72q103 0 171.5 -67t68.5 -167
q0 -128 -81 -209t-208 -81z" />
    <glyph glyph-name="six.subs" horiz-adv-x="751" 
d="M276 -233q-114 0 -177.5 72t-63.5 202q0 245 113.5 397t297.5 152q100 0 175 -35l-13 -59q-77 36 -159 36q-139 0 -226.5 -94.5t-118.5 -251.5q77 107 213 107q105 0 170.5 -68t65.5 -174q0 -123 -79 -203.5t-198 -80.5zM276 -178q94 0 155 64.5t61 162.5q0 85 -50.5 137
t-132.5 52q-92 0 -152.5 -65.5t-60.5 -164.5q0 -84 50 -135t130 -51z" />
    <glyph glyph-name="seven.subs" horiz-adv-x="649" 
d="M109 -221h-64q59 468 449 743h-115h-305l12 56h514l-8 -43q-130 -89 -222.5 -185.5t-145 -194.5t-78.5 -186.5t-37 -189.5z" />
    <glyph glyph-name="eight.subs" horiz-adv-x="747" 
d="M256 -233q-112 0 -179 58t-67 155q0 81 52 143.5t137 85.5q-97 51 -97 156q0 98 71 161.5t179 63.5q100 0 163 -54.5t63 -140.5q0 -70 -42.5 -125.5t-119.5 -81.5q53 -27 83.5 -73.5t30.5 -104.5q0 -104 -79 -173.5t-195 -69.5zM324 225q83 0 137.5 48t54.5 120
q0 64 -45 103t-117 39q-84 0 -139 -47.5t-55 -118.5q0 -65 45.5 -104.5t118.5 -39.5zM252 -178q94 0 155.5 53t61.5 133q0 73 -49.5 117.5t-132.5 44.5q-93 0 -155 -54t-62 -134q0 -72 49.5 -116t132.5 -44z" />
    <glyph glyph-name="nine.subs" horiz-adv-x="776" 
d="M188 -233q-113 0 -174 40l13 60q62 -45 159 -45q144 0 240 102q89 95 111 250q-78 -119 -228 -119q-110 0 -179 68t-69 174q0 128 77.5 210.5t197.5 82.5q121 0 194 -88q72 -84 72 -217q0 -234 -113.5 -376t-300.5 -142zM307 113q98 0 163 62t65 157q0 83 -58 141.5
t-137 58.5q-97 0 -158 -64.5t-61 -168.5q0 -83 51.5 -134.5t134.5 -51.5z" />
    <glyph glyph-name="zero.dnom" horiz-adv-x="854" 
d="M367 -12q-133 0 -208 88.5t-75 245.5q0 85 24.5 170.5t68 157t112.5 116.5t151 45q134 0 209.5 -88.5t75.5 -245.5q0 -116 -41 -226t-125 -186.5t-192 -76.5zM367 43q89 0 159.5 67.5t105 164.5t34.5 200q0 130 -61 205.5t-165 75.5q-88 0 -158 -68t-104.5 -165.5
t-34.5 -200.5q0 -130 60 -204.5t164 -74.5z" />
    <glyph glyph-name="one.dnom" horiz-adv-x="518" 
d="M238 0h-60l88 414q9 42 26.5 126t26.5 126q-52 -61 -108.5 -97t-134.5 -47l14 64q90 22 153 73.5t119 139.5h44z" />
    <glyph glyph-name="two.dnom" horiz-adv-x="712" 
d="M518 0h-491l12 55q280 172 393 287t113 236q0 76 -50 127t-124 51q-91 0 -145 -59.5t-54 -161.5l-55 14q3 120 73 191t183 71q98 0 164.5 -66.5t66.5 -164.5q0 -129 -112 -250q-109 -116 -363 -275h309h92z" />
    <glyph glyph-name="three.dnom" horiz-adv-x="729" 
d="M297 -12q-118 0 -185 66.5t-59 176.5l62 23q-17 -93 34 -152t146 -59q91 0 148 51t57 133q0 70 -50 117t-122 47h-74l16 55h72q95 0 149 43.5t54 120.5q0 63 -48.5 104.5t-121.5 41.5q-85 0 -138.5 -51t-50.5 -130l-57 19q7 99 75 158t171 59q100 0 164.5 -56t64.5 -143
q0 -74 -42 -127t-118 -75q55 -26 85 -74.5t30 -106.5q0 -106 -73.5 -173.5t-188.5 -67.5z" />
    <glyph glyph-name="four.dnom" horiz-adv-x="708" 
d="M391 0h-57l49 231h-367l11 50l458 518h76l-108 -514h133l-13 -54h-133zM303 285h90l31 143l61 291l-383 -434h201z" />
    <glyph glyph-name="five.dnom" horiz-adv-x="737" 
d="M293 -12q-113 0 -179.5 56t-70.5 155l57 18q0 -82 50.5 -128t142.5 -46q101 0 164 65t63 171q0 76 -50.5 127t-127.5 51q-65 0 -106.5 -24.5t-83.5 -86.5l-64 19l137 434h428l-12 -56h-377l-65 -208l-29 -95q64 72 172 72q103 0 171.5 -66.5t68.5 -166.5
q0 -128 -81 -209.5t-208 -81.5z" />
    <glyph glyph-name="six.dnom" horiz-adv-x="751" 
d="M322 -12q-114 0 -178 72t-64 202q0 245 114 397t298 152q99 0 174 -35l-13 -59q-80 37 -159 37q-139 0 -226 -94.5t-118 -251.5q76 106 212 106q105 0 170.5 -68t65.5 -174q0 -123 -78.5 -203.5t-197.5 -80.5zM322 43q94 0 154.5 64.5t60.5 162.5q0 85 -50.5 137
t-132.5 52q-92 0 -152.5 -65.5t-60.5 -164.5q0 -84 50.5 -135t130.5 -51z" />
    <glyph glyph-name="seven.dnom" horiz-adv-x="649" 
d="M154 0h-64q59 468 449 743h-115h-305l12 56h514l-8 -43q-130 -89 -222.5 -185.5t-145 -194.5t-78.5 -186.5t-37 -189.5z" />
    <glyph glyph-name="eight.dnom" horiz-adv-x="747" 
d="M303 -12q-112 0 -179 58t-67 155q0 81 52 143.5t137 85.5q-96 50 -96 156q0 98 70.5 161.5t178.5 63.5q100 0 163 -54.5t63 -140.5q0 -70 -42.5 -125t-119.5 -81q53 -27 84 -74t31 -105q0 -104 -79.5 -173.5t-195.5 -69.5zM371 446q83 0 137.5 48t54.5 120q0 64 -45 103
t-117 39q-84 0 -139 -47.5t-55 -118.5q0 -65 45.5 -104.5t118.5 -39.5zM299 43q94 0 155.5 53t61.5 133q0 73 -49.5 117.5t-132.5 44.5q-93 0 -155 -54t-62 -134q0 -72 49.5 -116t132.5 -44z" />
    <glyph glyph-name="nine.dnom" horiz-adv-x="776" 
d="M236 -12q-113 0 -175 41l13 59q62 -45 159 -45q144 0 240 102q89 95 111 250q-78 -119 -228 -119q-110 0 -178.5 68t-68.5 174q0 128 77 210.5t197 82.5q122 0 195 -88q71 -83 71 -217q0 -234 -113 -376t-300 -142zM354 334q98 0 163 62t65 157q0 83 -58 142t-137 59
q-97 0 -158 -65t-61 -169q0 -83 51.5 -134.5t134.5 -51.5z" />
    <glyph glyph-name="zero.numr" horiz-adv-x="854" 
d="M502 623q-133 0 -208 88t-75 245q0 116 40.5 226t124 187t191.5 77q134 0 209.5 -88.5t75.5 -245.5q0 -116 -41 -226t-125 -186.5t-192 -76.5zM502 678q89 0 159.5 67.5t105 164.5t34.5 200q0 130 -61 205.5t-165 75.5q-67 0 -124.5 -40t-94 -103.5t-57 -139.5
t-20.5 -152q0 -130 59.5 -204t163.5 -74z" />
    <glyph glyph-name="one.numr" horiz-adv-x="518" 
d="M375 635h-60l88 414q9 42 27 125.5t27 125.5q-51 -60 -108.5 -96t-135.5 -47l14 64q91 22 154 74t119 139h43z" />
    <glyph glyph-name="two.numr" horiz-adv-x="712" 
d="M653 635h-491l12 55q280 172 393 286.5t113 235.5q0 76 -50 127.5t-124 51.5q-91 0 -145 -60t-54 -162l-55 15q3 120 73 191t183 71q98 0 164.5 -67t66.5 -165q0 -128 -112 -249q-109 -116 -363 -275h309h93z" />
    <glyph glyph-name="three.numr" horiz-adv-x="729" 
d="M432 623q-118 0 -185 66.5t-59 176.5l62 23q-17 -93 34 -152t146 -59q91 0 148 51t57 133q0 70 -50 117t-122 47h-74l17 55h71q95 0 149 43.5t54 120.5q0 63 -48.5 104.5t-121.5 41.5q-85 0 -138 -51t-50 -130l-58 19q7 99 75 158t171 59q100 0 164.5 -56t64.5 -143
q0 -74 -41.5 -127.5t-117.5 -75.5q55 -26 84.5 -74t29.5 -106q0 -106 -73.5 -173.5t-188.5 -67.5z" />
    <glyph glyph-name="four.numr" horiz-adv-x="708" 
d="M526 635h-57l49 231h-366l10 49l459 519h75l-108 -514h133l-12 -54h-134zM438 920h90l31 143l62 291l-383 -434h200z" />
    <glyph glyph-name="five.numr" horiz-adv-x="737" 
d="M428 623q-113 0 -179.5 56t-70.5 155l58 18q0 -82 50 -128t142 -46q101 0 164 64.5t63 170.5q0 76 -50.5 127.5t-127.5 51.5q-65 0 -106.5 -24.5t-83.5 -86.5l-64 18l137 435h428l-12 -56h-377l-65 -209l-29 -94q64 72 172 72q103 0 171.5 -67t68.5 -167q0 -128 -81 -209
t-208 -81z" />
    <glyph glyph-name="six.numr" horiz-adv-x="751" 
d="M457 623q-114 0 -178 72t-64 202q0 245 114 397t298 152q99 0 174 -35l-13 -59q-80 37 -159 37q-139 0 -226 -94.5t-118 -252.5q77 107 213 107q105 0 170 -68t65 -174q0 -123 -78.5 -203.5t-197.5 -80.5zM457 678q94 0 154.5 64.5t60.5 162.5q0 85 -50.5 137t-132.5 52
q-92 0 -152.5 -65.5t-60.5 -164.5q0 -84 50.5 -135t130.5 -51z" />
    <glyph glyph-name="seven.numr" horiz-adv-x="649" 
d="M289 635h-64q59 468 449 743h-115h-305l12 56h514l-8 -43q-130 -89 -222.5 -185.5t-145 -194.5t-78.5 -186.5t-37 -189.5z" />
    <glyph glyph-name="eight.numr" horiz-adv-x="747" 
d="M438 623q-112 0 -178.5 58t-66.5 155q0 81 51.5 143.5t136.5 85.5q-96 50 -96 156q0 98 71 161.5t179 63.5q100 0 162.5 -54.5t62.5 -140.5q0 -70 -42.5 -125.5t-119.5 -81.5q53 -27 84 -73.5t31 -104.5q0 -104 -79.5 -173.5t-195.5 -69.5zM506 1081q83 0 137.5 48
t54.5 120q0 64 -44.5 103t-116.5 39q-84 0 -139.5 -47.5t-55.5 -118.5q0 -65 45.5 -104.5t118.5 -39.5zM434 678q94 0 155.5 53t61.5 133q0 73 -49.5 117.5t-132.5 44.5q-93 0 -155 -54t-62 -134q0 -72 49.5 -116t132.5 -44z" />
    <glyph glyph-name="nine.numr" horiz-adv-x="776" 
d="M371 623q-112 0 -174 41l12 59q28 -20 72.5 -32.5t87.5 -12.5q143 0 239 102q89 95 111 250q-78 -119 -227 -119q-110 0 -179 68t-69 174q0 128 77 210.5t197 82.5q122 0 195 -88q71 -83 71 -217q0 -234 -113 -376t-300 -142zM489 969q98 0 163 62t65 157q0 83 -58 142
t-137 59q-97 0 -158 -65t-61 -169q0 -83 51.5 -134.5t134.5 -51.5z" />
    <glyph glyph-name="exclamdown.case" horiz-adv-x="552" 
d="M424 1434h102l-34 -172h-103zM375 1059h39l-144 -731l-65 -328h-64l70 328z" />
    <glyph glyph-name="questiondown.case" horiz-adv-x="925" 
d="M655 1434h103l-37 -172h-103zM606 1059h64q-11 -47 -16.5 -70t-16 -59t-20.5 -56t-26.5 -48.5t-36 -49.5t-47.5 -45.5t-63 -48.5q-57 -39 -81.5 -56t-68 -50t-62.5 -52.5t-46 -50.5t-38 -57.5t-20 -60.5t-9 -72q0 -104 77 -176t203 -72q161 0 251.5 101t88.5 280l58 -13
q3 -191 -105 -308.5t-289 -117.5q-152 0 -249 87.5t-97 218.5q0 43 10 82t23 69.5t41.5 65t50 56.5t66 56.5t70.5 53t81 56.5q9 6 13 9q51 35 81 63.5t50 67t30 72t27 100.5q1 5 2 8t2 8t2 9z" />
    <glyph glyph-name="period.tf" 
d="M594 0h-123l45 207h123z" />
    <glyph glyph-name="comma.tf" 
d="M424 -262h-68l181 262h-62l45 207h125l-43 -207z" />
    <glyph glyph-name="colon.tf" 
d="M760 797h-123l45 207h123zM590 0h-123l45 207h123z" />
    <glyph glyph-name="semicolon.tf" 
d="M774 797h-123l45 207h123zM426 -262h-68l181 262h-62l45 207h125l-43 -207z" />
    <glyph glyph-name="numbersign.tf" 
d="M193 0h-64l129 313q19 49 64 156h-132h-92l13 57h237l170 406h-260l12 57h273l186 445h64l-113 -269q-7 -16 -74 -176h123h250l186 445h64l-113 -271l-74 -174h132h98l-12 -57h-242l-170 -406h244l-13 -57h-256l-194 -469h-64l127 309l68 160h-144h-229zM582 932
l-170 -406h372l170 406h-372z" />
    <glyph glyph-name="parenleft.case" horiz-adv-x="636" 
d="M436 -158l-14 -65q-136 58 -200 196.5t-64 368.5q0 162 24.5 331.5t78.5 337.5t130.5 304.5t190 233t247.5 122.5l-16 -69q-124 -32 -227 -133.5t-169.5 -236t-112.5 -296t-65.5 -310t-19.5 -280.5q0 -219 55.5 -339t161.5 -165z" />
    <glyph glyph-name="parenright.case" horiz-adv-x="634" 
d="M293 1604l14 65q136 -58 200 -196.5t64 -368.5q0 -162 -24.5 -331.5t-78.5 -337.5t-130.5 -304.5t-190 -233t-247.5 -122.5l16 69q124 32 227 133.5t169.5 236t112.5 296t65.5 310t19.5 280.5q0 219 -55.5 339t-161.5 165z" />
    <glyph glyph-name="braceleft.case" horiz-adv-x="636" 
d="M414 -205h-76q-97 0 -138 56.5t-18 158.5l66 303q34 155 38 187q14 117 -46 159q-47 33 -146 33l12 60q50 0 90 9.5t67.5 20.5t50.5 40.5t35 46.5t25.5 63.5t18 66.5t16.5 78q7 35 11 53l65 304q23 107 75.5 161t146.5 54h100l-12 -58h-88q-65 0 -104 -38t-56 -117
l-72 -336q-3 -15 -9 -43.5t-9.5 -46.5t-10.5 -45.5t-13 -46.5t-17 -43.5t-22.5 -42t-28 -37t-35.5 -33t-44.5 -26t-54.5 -19.5q38 -12 63 -32.5t36.5 -49.5t16 -56.5t0 -66.5t-10 -67t-14.5 -70q-5 -21 -7 -31l-71 -336q-34 -155 94 -155h88z" />
    <glyph glyph-name="braceright.case" horiz-adv-x="638" 
d="M317 1649h76q97 0 138 -56.5t18 -158.5l-66 -304q-34 -155 -38 -186q-14 -116 45 -158q47 -34 147 -34l-12 -60q-50 0 -90 -9t-67.5 -22t-50 -39.5t-35.5 -47.5t-25.5 -62t-18.5 -67.5t-16 -77.5q-7 -36 -11 -54l-65 -303q-23 -107 -75 -161t-146 -54h-101l13 58h88
q64 0 103 37.5t56 117.5l72 336q3 15 9 43.5t9.5 46.5t10.5 45.5t13 46.5t17 43.5t22.5 42t28 37t35.5 33t44.5 26t54.5 19.5q-38 12 -63 32.5t-36.5 49.5t-16 56.5t0 66.5t10 67t14.5 70q5 21 7 31l71 336q34 155 -94 155h-88z" />
    <glyph glyph-name="bracketleft.case" horiz-adv-x="663" 
d="M451 -203h-351l394 1854h350l-13 -58h-288l-369 -1738h289z" />
    <glyph glyph-name="bracketright.case" horiz-adv-x="659" 
d="M305 1651h350l-393 -1854h-350l12 58h289l369 1738h-289z" />
    <glyph glyph-name="angleleft.case" horiz-adv-x="651" 
d="M778 1673l51 -33l-632 -917l227 -926l-59 -18l-232 948z" />
    <glyph glyph-name="angleright.case" horiz-adv-x="651" 
d="M322 1649l59 18l231 -948l-645 -946l-51 32l633 918z" />
    <glyph glyph-name="uni3010.case" horiz-adv-x="714" 
d="M524 -203h-426l396 1854h426q-239 -226 -377 -450t-193 -482q-56 -247 -16 -466.5t190 -455.5z" />
    <glyph glyph-name="uni3011.case" horiz-adv-x="716" 
d="M287 1651h426l-396 -1854h-426q239 226 377 450t193 482q56 247 16 466.5t-190 455.5z" />
    <glyph glyph-name="uni300C.case" horiz-adv-x="669" 
d="M311 756h-61l188 893h428l-12 -58h-367z" />
    <glyph glyph-name="uni300D.case" horiz-adv-x="673" 
d="M457 690h61l-188 -893h-428l12 58h367z" />
    <glyph glyph-name="uni300A.case" horiz-adv-x="980" 
d="M778 1671l51 -33l-632 -917l227 -926l-59 -18l-232 948zM1122 1671l52 -33l-664 -962l217 -881l-59 -18l-222 905z" />
    <glyph glyph-name="uni300B.case" horiz-adv-x="978" 
d="M346 1651l60 18l221 -905l-676 -989l-51 32l663 963zM649 1651l60 18l231 -948l-645 -946l-51 32l633 918z" />
    <glyph glyph-name="uni3014.case" horiz-adv-x="565" 
d="M741 1626l-327 -297l-258 -1220l198 -291l-49 -41l-215 319l266 1258l346 319z" />
    <glyph glyph-name="uni3015.case" horiz-adv-x="563" 
d="M303 1628l49 41l215 -319l-266 -1258l-346 -319l-39 47l328 297l258 1220z" />
    <glyph glyph-name="uni300E.case" horiz-adv-x="847" 
d="M455 614h-236l221 1035h555l-63 -293h-320zM489 1591l-196 -919h115l157 741h318l39 178h-433z" />
    <glyph glyph-name="uni300F.case" horiz-adv-x="882" 
d="M487 831h236l-221 -1034h-555l63 293h320zM453 -145l196 919h-114l-158 -741h-318l-39 -178h433z" />
    <glyph glyph-name="hyphen.case" horiz-adv-x="776" 
d="M625 694h-406l14 68h406z" />
    <glyph glyph-name="uni00AD.case" horiz-adv-x="776" 
d="M625 694h-406l14 68h406z" />
    <glyph glyph-name="endash.case" horiz-adv-x="1204" 
d="M1071 698h-870l12 60h870z" />
    <glyph glyph-name="emdash.case" horiz-adv-x="2027" 
d="M1894 698h-1693l12 60h1694z" />
    <glyph glyph-name="guillemotleft.case" horiz-adv-x="960" 
d="M508 1067h76l-342 -395l168 -381h-68l-170 387zM870 1067h76l-368 -428l153 -348h-67l-156 354z" />
    <glyph glyph-name="guillemotright.case" horiz-adv-x="968" 
d="M313 1067h68l156 -354l-363 -422h-76l369 428zM635 1067h67l170 -387l-335 -389h-76l342 395z" />
    <glyph glyph-name="guilsinglleft.case" horiz-adv-x="620" 
d="M508 1067h76l-340 -395l170 -381h-68l-174 387z" />
    <glyph glyph-name="guilsinglright.case" horiz-adv-x="618" 
d="M281 1067h67l174 -387l-336 -389h-75l340 395z" />
    <glyph glyph-name="space.tf" 
 />
    <glyph glyph-name="uni20BF.tf" 
d="M907 748q93 -25 162.5 -106.5t69.5 -205.5q0 -188 -135.5 -312t-337.5 -124h-15l-47 -217h-57l47 217h-191l-47 -217h-57l47 217h-211l303 1434h211l47 215h58l-47 -215h141q33 0 49 -2l47 217h57l-49 -226q120 -25 190 -106.5t70 -204.5q0 -129 -82 -227.5t-223 -136.5z
M844 1376h-357l-127 -602h369q183 0 301.5 92.5t118.5 245.5q0 120 -80 192t-225 72zM209 57h455q177 0 292 106.5t115 272.5q0 56 -19 105.5t-56.5 89.5t-101 63t-144.5 23h-402z" />
    <glyph glyph-name="cent.tf" 
d="M520 -246h-59l49 230q-129 24 -205 127t-76 268q0 96 22 190t66 176.5t103 146t139.5 100t169.5 36.5l45 209h62l-45 -213q124 -19 201 -100t93 -181l-61 -18q-19 95 -81 162t-165 80l-131 -615l-67 -319q133 0 235.5 75.5t155.5 206.5l57 -26q-76 -162 -189 -238
t-272 -76zM520 39l135 631q10 50 32 150.5t32 150.5q-97 -3 -179.5 -56.5t-135.5 -137.5t-82 -185.5t-29 -204.5q0 -150 61.5 -238.5t165.5 -109.5z" />
    <glyph glyph-name="currency.tf" 
d="M354 395l-196 -168l-35 43l196 172q-55 86 -55 207q0 224 137 371l-135 164l41 37l135 -162q124 100 281 100q177 0 283 -112l196 172l35 -43l-195 -175q58 -89 58 -210q0 -111 -36.5 -206.5t-102.5 -164.5l129 -158l-43 -37l-129 156q-118 -98 -277 -98q-181 0 -287 112
zM641 338q114 0 206 62t142.5 165.5t50.5 225.5q0 145 -86.5 229t-230.5 84q-114 0 -206 -62t-142.5 -165t-50.5 -224q0 -146 86.5 -230.5t230.5 -84.5z" />
    <glyph glyph-name="dollar.tf" 
d="M506 -227h-62l45 209q-163 20 -263 106t-128 225l60 31q17 -127 105.5 -206.5t236.5 -98.5l147 688l-82 33q-55 22 -97 46.5t-79 59.5t-56.5 83t-19.5 106q0 188 128.5 295.5t359.5 107.5l41 191h61l-41 -197q84 -12 152.5 -47t109 -79.5t63.5 -86t30 -76.5l-58 -26
q-6 32 -25.5 68.5t-54.5 76t-95 70t-134 41.5l-133 -625l74 -29q139 -55 216.5 -138t77.5 -216q0 -193 -139.5 -301t-396.5 -107zM659 788l72 336q40 187 57 275q-197 0 -305 -91.5t-108 -248.5q0 -94 66 -156t218 -115zM561 35q216 -3 339.5 93t123.5 257
q0 115 -75.5 189.5t-243.5 132.5l-60 -281z" />
    <glyph glyph-name="Euro.tf" 
d="M635 -25q-208 0 -311 149t-88 435h-162l10 55h154q11 114 47 252h-144l11 56h149q37 114 91 209.5t124.5 169.5t160.5 115.5t191 41.5q90 0 162.5 -31.5t115.5 -78t72.5 -104t40.5 -105t11 -86.5l-60 -21q-1 43 -11 89t-35 97t-62 91t-98.5 66t-137.5 26
q-171 0 -301.5 -133t-202.5 -346h263h241l-12 -56h-510q-33 -111 -49 -252h504l-13 -55h-223h-270q-15 -256 75.5 -391t266.5 -135q89 0 170 34.5t141.5 93t105 127.5t72.5 146l54 -26q-20 -56 -51 -112t-80 -115t-108 -104t-138.5 -73.5t-165.5 -28.5z" />
    <glyph glyph-name="liraturkish.tf" 
d="M346 0h-65l84 403q7 35 43 197l-152 -74l-76 -37l17 70l225 113l39 186l-225 -110l16 71l225 111l107 504h61l-53 -252q-29 -132 -45 -219l182 90l297 141l-16 -70l-480 -233l-38 -186l479 237l-15 -72l-481 -235l-121 -576h23q42 0 83.5 3.5t103.5 17.5t117.5 37
t118.5 66t114.5 100.5t97.5 145t75 194.5l56 -23q-73 -293 -279.5 -446.5t-517.5 -153.5z" />
    <glyph glyph-name="uni20BD.tf" 
d="M506 1434h348q191 0 297 -99.5t106 -240.5q0 -209 -139.5 -335t-355.5 -126h-365l-47 -227h332l-12 -58h-332l-74 -348h-61l73 348h-165l12 58h166l47 227h-166l12 57h166zM410 690h333q204 0 327.5 109.5t123.5 294.5q0 52 -21 100.5t-62 90t-109 66.5t-154 25h-293z
" />
    <glyph glyph-name="uni20B9.tf" 
d="M1298 1434l-12 -58h-188h-224q63 -26 108.5 -107t45.5 -182v-16h195l-13 -57h-190q-24 -123 -119 -216t-209 -114q39 -9 68 -23.5t48.5 -36.5t32 -43.5t20.5 -55t12 -59t8 -67.5l41 -399h-66l-41 432q-9 113 -71 168t-189 55h-338l12 58h322q155 0 268.5 86t141.5 215
h-668l12 57h664v14q0 133 -78.5 212t-214.5 79h-307l12 58h917z" />
    <glyph glyph-name="sterling.tf" 
d="M819 1454q178 0 289.5 -104.5t112.5 -276.5l-62 -26q0 159 -91.5 254.5t-244.5 95.5q-93 0 -171 -33t-128 -88.5t-78 -126.5t-28 -148q0 -58 12 -113t21.5 -79t33.5 -80h424l-12 -57h-387q35 -99 35 -201q0 -135 -76.5 -246t-216.5 -168h256h506l-10 -57h-900l13 61
q75 21 139 56t115 85.5t80.5 119.5t29.5 149q0 106 -43 201h-188l12 57h152q-20 43 -31 72.5t-21 81t-10 108.5q0 89 31.5 172t89 148t148 104t198.5 39z" />
    <glyph glyph-name="uni20A9.tf" 
d="M1288 862l-12 -57h-229l-80 -250h217l-13 -57h-223l-155 -498h-93l-2 612v197q-8 -18 -37.5 -89t-44.5 -104l-260 -616h-94l55 498h-225l12 57h220l26 250h-233l12 57h227l64 572h61l-116 -1039l-37 -315q75 170 131 305l223 537h74l-2 -535q0 -119 4 -307q67 218 96 307
l324 1047h65l-180 -572h225z" />
    <glyph glyph-name="yen.tf" 
d="M1286 1434h78l-616 -740h282l-12 -57h-318l-53 -250h318l-13 -57h-317l-70 -330h-61l69 330h-340l13 57h340l53 250h-340l12 57h303l-327 740h67l273 -629q27 -55 49 -107l88 103z" />
    <glyph glyph-name="multiply.case.tf" 
d="M686 702l-416 -413l-41 43l414 413l-414 412l41 43l416 -414l416 414l41 -43l-414 -412l414 -413l-41 -43z" />
    <glyph glyph-name="plus.tf" 
d="M713 164h-58v530h-510v58h510v530l58 -2v-528h508v-58h-508v-530z" />
    <glyph glyph-name="minus.tf" 
d="M1159 692h-969v58h969v-58z" />
    <glyph glyph-name="multiply.tf" 
d="M686 702l-416 -413l-41 43l414 413l-414 412l41 43l416 -414l416 414l41 -43l-414 -412l414 -413l-41 -43z" />
    <glyph glyph-name="divide.tf" 
d="M735 1049h-104v190h104v-190zM1184 696h-1004v58h1004v-58zM735 211h-104v190h104v-190z" />
    <glyph glyph-name="equal.tf" 
d="M1167 893h-995v57h995v-57zM1167 500h-995v57h995v-57z" />
    <glyph glyph-name="notequal.tf" 
d="M391 150h-65l196 350h-350v57h383l104 186l86 150h-190h-383v57h606l176 312h62l-174 -312h325v-57h-358l-113 -203q-15 -25 -75 -133h153h393v-57h-579z" />
    <glyph glyph-name="greater.tf" 
d="M1233 678l-991 -504v68l686 344l266 135q-45 23 -134 69t-134 68l-684 346v68l991 -512v-82z" />
    <glyph glyph-name="less.tf" 
d="M131 768l991 504v-68l-686 -344l-266 -135q45 -22 134 -68t134 -69l684 -346v-68l-991 512v82z" />
    <glyph glyph-name="greaterequal.tf" 
d="M1176 766l-994 -428v65l688 293l248 105q-42 17 -124 52.5t-124 53.5l-688 299v66l994 -436v-70zM1176 170h-994v59h994v-59z" />
    <glyph glyph-name="lessequal.tf" 
d="M1139 403v-65l-994 428v70l994 436v-66l-688 -299q-50 -21 -144 -61.5t-104 -44.5l248 -105zM1139 170h-994v59h994v-59z" />
    <glyph glyph-name="plusminus.tf" 
d="M682 457h-55v383h-477v57h477v385l55 -2v-383h473v-57h-473v-383zM1151 170h-997v59h997v-59z" />
    <glyph glyph-name="approxequal.tf" 
d="M905 889q-43 0 -86.5 11t-118.5 44l-61 27q-117 51 -182 51q-106 0 -213 -117l-43 45q118 131 262 131q79 0 205 -55l61 -27q117 -51 182 -51q106 0 213 117l43 -43q-114 -133 -262 -133zM905 438q-42 0 -85.5 11.5t-119.5 44.5l-61 26q-117 51 -182 51q-107 0 -213 -116
l-43 45q118 131 262 131q77 0 205 -56l61 -26q117 -51 182 -51q107 0 213 116l43 -43q-114 -133 -262 -133z" />
    <glyph glyph-name="logicalnot.tf" 
d="M1135 385h-56v330h-923v57h979v-387z" />
    </font>
</defs>
</svg>
