<?xml version="1.0" encoding="UTF-8" standalone="no"?>
<svg
   width="21"
   height="12"
   viewBox="0 0 21 12"
   fill="none"
   version="1.1"
   id="svg28"
   xmlns="http://www.w3.org/2000/svg"
   xmlns:svg="http://www.w3.org/2000/svg">
  <defs
     id="defs32" />
  <path
     fill-rule="evenodd"
     clip-rule="evenodd"
     d="M 17.2427,4.57739 C 14.4364,4.71677 11.4395,4.42576 8.61502,4.48615 6.44091,4.50673 4.20494,4.36684 2.03833,4.31091 1.67722,4.30159 0.508946,4.08518 0.511467,5.11512 0.523984,6.04307 1.62228,5.91803 2.0065,5.95534 2.75432,5.97647 3.49964,6.0231 4.24746,6.04423 l 8.77644,0.15716 c 1.4213,0.00929 2.9781,-0.04547 4.3663,0.03784 -0.1811,0.26557 -1.0883,1.07848 -1.4025,1.38262 l -2.1566,1.95296 c -0.2274,0.2096 -0.5597,0.43479 -0.7615,0.64689 -0.6029,0.6107 0.0525,1.5753 0.8509,1.344 0.5323,-0.1543 1.748,-1.4778 2.2516,-1.86655 L 19.6849,6.30759 C 19.9123,6.09799 20.2216,5.84485 20.1641,5.3759 20.1485,5.27142 19.8648,4.4716 19.7955,4.38764 19.5874,4.13575 15.3316,1.12251 14.9186,0.850728 14.3363,0.459536 13.5973,-0.178566 13.0844,0.569649 12.4846,1.4124 13.4255,1.83841 13.9615,2.17363 c 0.4592,0.32776 3.0988,2.15436 3.2812,2.40376 z"
     fill="#FFFFFF"
     id="path26"
     style="fill:#140840;fill-opacity:1" />
</svg>
