<svg xmlns="http://www.w3.org/2000/svg" viewBox="0 0 19.66 11.38"><defs><style>.cls-1{fill:#abffeb;fill-rule:evenodd;}</style></defs><title>arrow-menu_1</title><g id="Capa_2" data-name="Capa 2"><g id="Capa_1-2" data-name="Capa 1"><path class="cls-1" d="M16.73,4.35c-2.81.14-5.8-.15-8.63-.09-2.17,0-4.41-.12-6.57-.17-.36,0-1.53-.23-1.53.8s1.11.81,1.5.84c.74,0,1.49.07,2.24.09L12.51,6c1.42,0,3-.05,4.37,0-.18.26-1.09,1.07-1.4,1.38L13.32,9.35c-.23.21-.56.44-.76.65a.82.82,0,0,0,.85,1.34c.53-.15,1.75-1.48,2.25-1.86l3.51-3.4a1,1,0,0,0,.48-.93,6.25,6.25,0,0,0-.37-1C19.08,3.91,14.82.9,14.41.63c-.59-.39-1.32-1-1.84-.28s.34,1.27.88,1.6S16.55,4.1,16.73,4.35Z"/></g></g></svg>