<?xml version="1.0" encoding="UTF-8" standalone="no"?>
<svg
   xmlns:dc="http://purl.org/dc/elements/1.1/"
   xmlns:cc="http://creativecommons.org/ns#"
   xmlns:rdf="http://www.w3.org/1999/02/22-rdf-syntax-ns#"
   xmlns:svg="http://www.w3.org/2000/svg"
   xmlns="http://www.w3.org/2000/svg"
   xmlns:sodipodi="http://sodipodi.sourceforge.net/DTD/sodipodi-0.dtd"
   xmlns:inkscape="http://www.inkscape.org/namespaces/inkscape"
   id="Layer_1"
   data-name="Layer 1"
   viewBox="0 0 20.06 11.78"
   version="1.1"
   sodipodi:docname="arrow-w.svg"
   inkscape:version="1.0.2-2 (e86c870879, 2021-01-15)">
  <metadata
     id="metadata34">
    <rdf:RDF>
      <cc:Work
         rdf:about="">
        <dc:format>image/svg+xml</dc:format>
        <dc:type
           rdf:resource="http://purl.org/dc/dcmitype/StillImage" />
        <dc:title>Arrow_mint</dc:title>
      </cc:Work>
    </rdf:RDF>
  </metadata>
  <sodipodi:namedview
     pagecolor="#ffffff"
     bordercolor="#666666"
     borderopacity="1"
     objecttolerance="10"
     gridtolerance="10"
     guidetolerance="10"
     inkscape:pageopacity="0"
     inkscape:pageshadow="2"
     inkscape:window-width="1366"
     inkscape:window-height="705"
     id="namedview32"
     showgrid="false"
     inkscape:zoom="33.898305"
     inkscape:cx="10.03"
     inkscape:cy="5.89"
     inkscape:window-x="-8"
     inkscape:window-y="-8"
     inkscape:window-maximized="1"
     inkscape:current-layer="Layer_1" />
  <defs
     id="defs25">
    <style
       id="style23">.cls-1{fill:#abffeb;fill-rule:evenodd;}</style>
  </defs>
  <title
     id="title27">Arrow_mint</title>
  <path
     class="cls-1"
     d="M22.36,12h0a.92.92,0,0,0-.06-.22l-.11-.32-.12-.32A.67.67,0,0,0,22,11a.41.41,0,0,0-.06-.11l-.11-.1-.17-.14-.55-.41L19.55,9.07C18.41,8.25,17.24,7.43,17,7.29h0L16.57,7A2.65,2.65,0,0,0,16,6.7a1,1,0,0,0-.58,0,1,1,0,0,0-.54.41h0a1.1,1.1,0,0,0-.23.69A1,1,0,0,0,15,8.3a2,2,0,0,0,.46.37l.44.28.68.47,1.06.75,1,.74.11.08c-1.24,0-2.49,0-3.77,0-1.45-.05-2.91-.11-4.33-.08h0c-2.17,0-4.39-.12-6.57-.17a3.27,3.27,0,0,0-.94,0,1,1,0,0,0-.55.29,1,1,0,0,0-.24.7h0a1,1,0,0,0,.24.65,1,1,0,0,0,.52.3,2.58,2.58,0,0,0,.53.07l.39,0H4l1.12,0,1.12,0h0v-.2h0v.2L15,13h0v-.2h0V13c1.29,0,2.67,0,3.94,0l-.36.35-.75.7L15.7,16l.13.15h0L15.7,16h0l-.38.32a2.57,2.57,0,0,0-.39.34h0a1,1,0,0,0-.13,1.23,1,1,0,0,0,1.18.44,2,2,0,0,0,.57-.33c.2-.16.43-.36.64-.56.45-.41.86-.82,1.1-1h0l3.51-3.39A1.23,1.23,0,0,0,22.36,12ZM16,8.78Zm5.73,4.13ZM16.92,7.46Zm-6.3,3.63ZM4,12.68v-.12H4Zm11.07,4.15Z"
     transform="translate(-2.31 -6.63)"
     id="path29"
     style="fill:#ffffff" />
</svg>
