<svg width="54" height="54" viewBox="0 0 54 54" fill="none" xmlns="http://www.w3.org/2000/svg">
<rect x="1" y="1" width="52" height="52" stroke="#ABFFEB" stroke-width="2"/>
<mask id="path-2-outside-1_2721_52596" maskUnits="userSpaceOnUse" x="17.9236" y="10.8544" width="20.717" height="30.6194" fill="black">
<rect fill="white" x="17.9236" y="10.8544" width="20.717" height="30.6194"/>
<path fill-rule="evenodd" clip-rule="evenodd" d="M26.841 16.7388C27.0384 20.7144 26.6262 24.9601 26.7117 28.9614C26.7409 32.0414 26.5427 35.209 26.4635 38.2784C26.4503 38.7899 26.1437 40.445 27.6028 40.4414C28.9174 40.4237 28.7402 38.8678 28.7931 38.3235C28.823 37.2641 28.8891 36.2082 28.919 35.1488L29.1417 22.7155C29.1548 20.702 29.0772 18.4965 29.1953 16.5299C29.5715 16.7865 30.7231 18.0716 31.154 18.5168L33.9207 21.5719C34.2176 21.8941 34.5366 22.3649 34.837 22.6508C35.7023 23.5048 37.0688 22.5764 36.7411 21.4453C36.5225 20.6912 34.6475 18.969 34.0968 18.2556L29.2921 13.2791C28.9952 12.9569 28.6366 12.5188 27.9722 12.6002C27.8242 12.6224 26.6911 13.0242 26.5722 13.1225C26.2153 13.4172 21.9466 19.4463 21.5616 20.0313C21.0074 20.8562 20.1034 21.9032 21.1634 22.6298C22.3573 23.4795 22.9608 22.1466 23.4357 21.3872C23.9 20.7366 26.4877 16.9972 26.841 16.7388Z"/>
</mask>
<path fill-rule="evenodd" clip-rule="evenodd" d="M26.841 16.7388C27.0384 20.7144 26.6262 24.9601 26.7117 28.9614C26.7409 32.0414 26.5427 35.209 26.4635 38.2784C26.4503 38.7899 26.1437 40.445 27.6028 40.4414C28.9174 40.4237 28.7402 38.8678 28.7931 38.3235C28.823 37.2641 28.8891 36.2082 28.919 35.1488L29.1417 22.7155C29.1548 20.702 29.0772 18.4965 29.1953 16.5299C29.5715 16.7865 30.7231 18.0716 31.154 18.5168L33.9207 21.5719C34.2176 21.8941 34.5366 22.3649 34.837 22.6508C35.7023 23.5048 37.0688 22.5764 36.7411 21.4453C36.5225 20.6912 34.6475 18.969 34.0968 18.2556L29.2921 13.2791C28.9952 12.9569 28.6366 12.5188 27.9722 12.6002C27.8242 12.6224 26.6911 13.0242 26.5722 13.1225C26.2153 13.4172 21.9466 19.4463 21.5616 20.0313C21.0074 20.8562 20.1034 21.9032 21.1634 22.6298C22.3573 23.4795 22.9608 22.1466 23.4357 21.3872C23.9 20.7366 26.4877 16.9972 26.841 16.7388Z" fill="#ABFFEB"/>
<path fill-rule="evenodd" clip-rule="evenodd" d="M26.841 16.7388C27.0384 20.7144 26.6262 24.9601 26.7117 28.9614C26.7409 32.0414 26.5427 35.209 26.4635 38.2784C26.4503 38.7899 26.1437 40.445 27.6028 40.4414C28.9174 40.4237 28.7402 38.8678 28.7931 38.3235C28.823 37.2641 28.8891 36.2082 28.919 35.1488L29.1417 22.7155C29.1548 20.702 29.0772 18.4965 29.1953 16.5299C29.5715 16.7865 30.7231 18.0716 31.154 18.5168L33.9207 21.5719C34.2176 21.8941 34.5366 22.3649 34.837 22.6508C35.7023 23.5048 37.0688 22.5764 36.7411 21.4453C36.5225 20.6912 34.6475 18.969 34.0968 18.2556L29.2921 13.2791C28.9952 12.9569 28.6366 12.5188 27.9722 12.6002C27.8242 12.6224 26.6911 13.0242 26.5722 13.1225C26.2153 13.4172 21.9466 19.4463 21.5616 20.0313C21.0074 20.8562 20.1034 21.9032 21.1634 22.6298C22.3573 23.4795 22.9608 22.1466 23.4357 21.3872C23.9 20.7366 26.4877 16.9972 26.841 16.7388Z" stroke="#ABFFEB" stroke-width="0.4" mask="url(#path-2-outside-1_2721_52596)"/>
</svg>
