<svg id="Layer_1" data-name="Layer 1" xmlns="http://www.w3.org/2000/svg" viewBox="0 0 54 54"><defs><style>.cls-1{fill:#97dfd1;}.cls-2{fill:#160643;stroke:#160643;stroke-width:0.2px;}</style></defs><title>back to top</title><rect class="cls-1" width="54" height="54"/><path class="cls-2" d="M27,40.54h0a1.11,1.11,0,0,0,.8-.29,1.25,1.25,0,0,0,.36-.64,3.82,3.82,0,0,0,.11-.72,2.44,2.44,0,0,1,0-.28,2.35,2.35,0,0,1,0-.28h0c0-.53,0-1.06.06-1.59h0c0-.53.05-1.06.07-1.59h0l.22-12.43h0c0-.64,0-1.3,0-2,0-1.36,0-2.74,0-4l.25.23.55.56.55.59.45.48,2.76,3.05h0c.13.13.26.3.39.46l.07.09a6.26,6.26,0,0,0,.46.53,1.19,1.19,0,0,0,1.53.16,1.29,1.29,0,0,0,.54-1.46,2.66,2.66,0,0,0-.44-.75c-.22-.28-.49-.59-.78-.9s-.38-.42-.57-.61c-.36-.39-.69-.73-.87-1h0l-4.81-5-.05-.05a1.5,1.5,0,0,0-1.35-.66h0l-.28.08-.45.16-.44.17L26,13a.26.26,0,0,0-.1.07.52.52,0,0,0-.13.13c-.05.06-.12.14-.19.24l-.58.76c-.46.62-1,1.42-1.62,2.23C22.2,18,21,19.68,20.85,20l-.18.25-.27.4a4,4,0,0,0-.37.7,1.22,1.22,0,0,0-.06.73,1.13,1.13,0,0,0,.5.65,1.33,1.33,0,0,0,.86.29,1.13,1.13,0,0,0,.67-.31,3,3,0,0,0,.5-.61c.08-.13.17-.27.24-.4l.15-.24.41-.59.26-.37L24.63,19c.37-.52.74-1,1-1.43l.39-.49.06-.07c.08,1.91,0,3.88,0,5.86l0,.63C26,25.31,25.94,27.16,26,29c0,2-.06,4.1-.14,6.16,0,1.06-.08,2.11-.11,3.16,0,0,0,.12,0,.19a4.14,4.14,0,0,0,0,1.1,1.13,1.13,0,0,0,1.22,1Z"/></svg>