<svg width="29" height="17" viewBox="0 0 29 17" fill="none" xmlns="http://www.w3.org/2000/svg">
<path d="M0.458567 7.60422L0.458552 7.60312C0.457616 7.21835 0.566603 6.93789 0.749625 6.73958C0.930998 6.54306 1.17521 6.43796 1.42568 6.38333C1.811 6.29929 2.24232 6.33079 2.52567 6.35147C2.60483 6.35725 2.67245 6.36219 2.72428 6.36353C3.7694 6.3905 4.82444 6.43119 5.8828 6.472C7.93794 6.55124 10.0056 6.63097 12.0372 6.61177C13.8368 6.57331 15.6856 6.63537 17.5338 6.69742C17.7435 6.70446 17.9533 6.7115 18.1629 6.7184C20.1416 6.78346 22.1138 6.83545 24.025 6.75192C24.0022 6.73248 23.9773 6.71166 23.9504 6.68952C23.8237 6.58535 23.6552 6.45443 23.4571 6.305C23.061 6.00625 22.5499 5.63576 22.0259 5.26134C21.5019 4.887 20.9657 4.50915 20.5197 4.19579C20.3871 4.1026 20.2623 4.01507 20.1482 3.93501C19.881 3.74747 19.6722 3.60095 19.5572 3.51887C19.485 3.47376 19.4042 3.42554 19.3196 3.37499C19.1914 3.29845 19.0543 3.21656 18.9243 3.13202C18.7032 2.98836 18.4833 2.82542 18.3136 2.63589C18.1433 2.44572 18.0189 2.22357 17.9994 1.96285C17.9798 1.70177 18.0666 1.41771 18.2882 1.10617C18.4803 0.826183 18.7005 0.666647 18.9415 0.603728C19.1809 0.541257 19.4273 0.577612 19.6663 0.662988C19.905 0.74827 20.1436 0.885039 20.3713 1.03256C20.5063 1.12004 20.6424 1.21473 20.7731 1.30556C20.8598 1.36592 20.9442 1.42458 21.0241 1.47829C21.3198 1.67294 22.9744 2.83723 24.5903 3.99618C25.3991 4.57625 26.1991 5.15568 26.8156 5.61253C27.1237 5.8409 27.3865 6.039 27.5816 6.19139C27.6792 6.26754 27.7604 6.33274 27.8223 6.38485C27.8818 6.43496 27.9296 6.4781 27.9547 6.50847C27.9759 6.53413 27.9976 6.5757 28.0175 6.61716C28.039 6.66213 28.0636 6.71858 28.0899 6.78201C28.1425 6.90906 28.2031 7.06791 28.2612 7.22697C28.3192 7.38612 28.3749 7.54638 28.4177 7.67649C28.4589 7.80206 28.4916 7.91002 28.4987 7.95736L28.4991 7.95997L28.499 7.95998C28.5825 8.64132 28.1569 9.02957 27.8446 9.31448C27.8258 9.33162 27.8074 9.34839 27.7896 9.36483L22.8138 14.1687L22.8058 14.1764L22.8055 14.176C22.5716 14.3565 22.2284 14.6809 21.8426 15.0456C21.6473 15.2303 21.441 15.4252 21.2325 15.6171C20.9249 15.9001 20.6141 16.1745 20.332 16.3923C20.0532 16.6075 19.791 16.7767 19.5825 16.8371C18.9693 17.0148 18.4113 16.7319 18.1238 16.2911C17.8351 15.8487 17.8135 15.238 18.2774 14.7675C18.2776 14.7673 18.2779 14.7671 18.2781 14.7668L18.3492 14.837C18.5128 14.6652 18.7368 14.4872 18.9589 14.3108C19.1251 14.1789 19.2902 14.0478 19.4281 13.9207L0.458567 7.60422ZM0.458567 7.60422C0.463287 7.95429 0.571272 8.21446 0.747085 8.40397C0.921001 8.59143 1.15343 8.70131 1.39341 8.76749C1.63349 8.83369 1.88807 8.85804 2.11328 8.86954C2.21385 8.87467 2.30574 8.87724 2.3885 8.87956C2.49735 8.8826 2.59043 8.88521 2.66678 8.89262L2.66676 8.89285L2.67362 8.89305C3.20233 8.90799 3.7303 8.93194 4.25926 8.95595L4.25972 8.95597C4.78824 8.97995 5.31777 9.00398 5.84832 9.01898L5.84935 9.019L18.2826 9.24164L18.2837 9.24165C18.9221 9.24583 19.5781 9.24093 20.2389 9.236C21.6009 9.22584 22.983 9.21553 24.2715 9.28418C24.2102 9.35439 24.1326 9.4373 24.0425 9.52966C23.8802 9.69593 23.6827 9.88761 23.4785 10.0817C23.279 10.2714 23.0718 10.4645 22.8864 10.6374C22.6955 10.8154 22.5277 10.9719 22.4149 11.081L0.458567 7.60422Z" fill="white" stroke="white" stroke-width="0.2"/>
</svg>
