<svg width="20" height="20" viewBox="0 0 20 20" fill="none" xmlns="http://www.w3.org/2000/svg">
<path d="M6.66651 10H3.33301V12.5H6.66651V10Z" fill="#ABFFEB"/>
<path d="M11.6665 10H8.33301V12.5H11.6665V10Z" fill="#ABFFEB"/>
<path d="M16.6665 10H13.333V12.5H16.6665V10Z" fill="#ABFFEB"/>
<path d="M6.66651 14.167H3.33301V16.667H6.66651V14.167Z" fill="#ABFFEB"/>
<path d="M11.6665 14.167H8.33301V16.667H11.6665V14.167Z" fill="#ABFFEB"/>
<path d="M16.6665 14.167H13.333V16.667H16.6665V14.167Z" fill="#ABFFEB"/>
<path d="M18.3333 1.6665H15.8333V0H14.1667V1.66675H5.83325V0H4.16675V1.66675H1.66675C0.75025 1.66675 0 2.417 0 3.3335V20H20V3.33325C20 2.41675 19.2498 1.6665 18.3333 1.6665ZM18.3333 18.3333H1.66675V8.33325H18.3333V18.3333ZM1.66675 6.6665V3.33325H4.16675V5H5.83325V3.33325H14.1667V5H15.8333V3.33325H18.3333V6.6665H1.66675Z" fill="#ABFFEB"/>
</svg>
