<svg width="18" height="11" viewBox="0 0 18 11" fill="none" xmlns="http://www.w3.org/2000/svg">
<path d="M0.186099 4.86827L0.186114 4.86937C0.189111 5.09163 0.257985 5.26025 0.372796 5.384C0.485708 5.50571 0.635246 5.57563 0.785926 5.61718C0.936708 5.65876 1.0956 5.67382 1.2342 5.6809C1.2982 5.68416 1.35501 5.68573 1.40551 5.68713C1.4704 5.68892 1.52485 5.69042 1.57067 5.69487L1.57065 5.6951L1.57752 5.6953C1.90023 5.70442 2.22254 5.71904 2.54585 5.73371L2.54624 5.73373C2.86914 5.74838 3.19303 5.76308 3.51761 5.77226L3.51864 5.77228L11.1167 5.90834L11.1179 5.90835C11.5092 5.91091 11.9108 5.90791 12.3149 5.90489C13.1179 5.8989 13.931 5.89283 14.6937 5.93012C14.6685 5.9573 14.6403 5.9868 14.6095 6.01833C14.5109 6.11942 14.3906 6.23617 14.266 6.35466C14.1448 6.46983 14.0183 6.58782 13.9048 6.6936C13.788 6.80251 13.6851 6.89848 13.6162 6.96513L11.7504 8.65479L11.7504 8.65478L11.7497 8.65538C11.6684 8.73032 11.5709 8.80779 11.4691 8.88862C11.4519 8.90228 11.4346 8.91604 11.4172 8.9299C11.2996 9.02364 11.1791 9.12204 11.0864 9.21932C10.7886 9.52163 10.8029 9.91528 10.9878 10.1987C11.1717 10.4805 11.5294 10.6624 11.9226 10.5485C12.0578 10.5093 12.2232 10.4016 12.3936 10.2701C12.5674 10.1359 12.7583 9.96731 12.9465 9.79415C13.0754 9.67554 13.2023 9.55559 13.3221 9.44239C13.5567 9.22062 13.7638 9.02477 13.9052 8.91564L13.9056 8.91613L13.9136 8.90842L16.9539 5.97302C16.965 5.96288 16.9764 5.95247 16.9881 5.94177C17.1782 5.76863 17.453 5.51839 17.3994 5.08146L17.3995 5.08145L17.3991 5.07884C17.3942 5.04589 17.3728 4.97626 17.3481 4.90082C17.3218 4.82084 17.2876 4.7225 17.252 4.62492C17.2165 4.52743 17.1792 4.4298 17.1468 4.35146C17.1306 4.31238 17.1152 4.27716 17.1016 4.24879C17.0897 4.22392 17.0746 4.19429 17.0582 4.17441C17.0403 4.15272 17.0083 4.12419 16.9724 4.09389C16.934 4.06161 16.8839 4.02143 16.8242 3.97476C16.7045 3.88134 16.5436 3.76005 16.3552 3.62042C15.9783 3.34106 15.4892 2.98683 14.9949 2.63229C14.0079 1.92442 12.9963 1.21258 12.8144 1.0928C12.7668 1.06081 12.7157 1.02529 12.6628 0.988517C12.5823 0.932558 12.4977 0.873731 12.4151 0.82016C12.2751 0.729462 12.1263 0.64396 11.9762 0.590327C11.8258 0.536601 11.6668 0.51228 11.5104 0.553109C11.3522 0.594382 11.2105 0.698585 11.089 0.875519C10.9501 1.071 10.8928 1.25334 10.9056 1.42424C10.9184 1.59478 10.9997 1.73829 11.1074 1.85856C11.2146 1.97819 11.3523 2.07997 11.4884 2.16841C11.5679 2.22013 11.6536 2.27132 11.7328 2.31864C11.784 2.3492 11.8324 2.37814 11.8747 2.40456C11.9454 2.45494 12.0728 2.54433 12.2354 2.65849C12.3051 2.70739 12.3813 2.76083 12.4622 2.8177C12.7347 3.00919 13.0623 3.24003 13.3824 3.46869C13.7026 3.69745 14.0146 3.92363 14.2562 4.10589C14.3607 4.18474 14.4515 4.25494 14.5238 4.31333C13.3892 4.35824 12.2199 4.32722 11.0456 4.28861C10.9175 4.2844 10.7894 4.28009 10.6612 4.27579C9.53194 4.23788 8.4011 4.19991 7.30025 4.22343C6.05966 4.23515 4.79792 4.18649 3.54269 4.13809C2.89568 4.11314 2.2504 4.08825 1.61064 4.07174C1.58128 4.07098 1.54195 4.06809 1.49526 4.06467C1.32271 4.052 1.04967 4.03196 0.807759 4.08472C0.650088 4.11911 0.492419 4.18608 0.374301 4.31407C0.254532 4.44384 0.185511 4.62536 0.186099 4.86827Z" fill="#160643" stroke="#160643" stroke-width="0.2"/>
</svg>
