<svg width="18" height="332" viewBox="0 0 18 332" fill="none" xmlns="http://www.w3.org/2000/svg">
<path d="M3.19713 231.965C3.37652 231.336 3.56534 230.736 3.77305 230.022C3.7164 229.622 3.65031 229.136 3.58422 228.679C3.54646 228.45 3.47093 228.021 3.49925 227.964C3.86746 227.021 3.46149 225.792 3.63143 224.706C3.70696 224.249 3.59366 223.506 3.57478 222.877C3.52758 221.763 3.36707 220.705 3.5559 219.505C3.99964 216.762 3.85802 213.789 3.85802 210.874C3.85802 209.331 3.81081 207.759 3.91467 206.302C3.98075 205.273 3.92411 204.559 3.74472 204.016C3.96187 202.644 4.16014 201.415 4.36785 200.1C4.23567 199.786 4.12237 199.5 3.97131 199.157C4.02796 198.957 4.06573 198.757 4.13181 198.614C4.54723 197.671 4.55667 197.643 4.36785 196.242C4.29232 195.699 4.1979 195.156 4.16014 194.613C4.14126 194.328 4.22623 193.956 4.27343 193.613C4.33008 193.899 4.38673 194.185 4.45282 194.47C4.49058 194.356 4.5189 194.242 4.55667 194.156C4.46226 193.985 4.36785 193.842 4.27343 193.67C4.41505 192.842 4.52835 192.156 4.28287 191.184C4.12237 190.555 4.14126 189.498 4.07517 188.612C4.24511 187.212 4.45282 185.726 4.60388 184.182C4.66052 183.611 4.60388 182.925 4.56611 182.296C4.51891 181.582 4.42449 180.924 4.37729 180.238C4.32064 179.41 4.51891 179.267 4.72661 179.295C4.72661 178.752 4.69829 178.238 4.73605 177.724C4.80214 176.781 4.74549 175.98 4.61332 175.094C4.32064 173.151 4.37729 171.779 4.65108 170.322C4.61332 169.036 4.57555 168.178 4.57555 167.35C4.56611 165.692 4.57555 164.063 4.57555 162.406C4.57555 161.034 4.56611 159.691 4.585 158.319C4.585 158.062 4.68885 157.776 4.75494 157.576C5.12314 156.547 5.15147 155.175 5.17035 153.804C5.17035 153.575 5.1137 153.346 5.08538 153.089C5.01929 152.518 4.94376 151.975 4.84935 151.174C5.04761 151.403 5.14203 151.489 5.31197 151.689C5.28365 149.745 5.25532 147.916 5.227 146.03C5.16091 146.03 5.02873 146.002 4.83991 145.945C5.03817 144.744 5.51024 143.915 5.29309 142.601C5.12314 141.629 5.43471 140.086 4.77382 139.657C5.34029 138.571 5.44415 137.257 5.29309 135.628C5.19867 134.57 5.17035 133.456 5.10426 132.255C5.18923 132.055 5.30253 131.827 5.41582 131.598C5.29309 130.884 5.15147 130.284 5.07594 129.626C4.96265 128.683 4.91544 127.826 5.16091 126.854C5.31197 126.254 5.29309 125.282 5.35918 124.196C5.35918 124.196 5.44415 123.996 5.53856 123.853C5.63297 123.682 5.72738 123.568 5.869 123.339C5.79347 123.11 5.75571 122.882 5.69906 122.768C5.36862 122.139 5.25532 121.453 5.36862 120.167C5.50079 118.652 5.65185 117.052 5.53856 115.423C5.51968 115.08 5.5008 114.708 5.44415 114.423C5.17979 113.222 5.17035 113.251 5.61409 112.565C5.56688 111.879 5.49135 111.193 5.46303 110.479C5.40638 108.907 5.51968 107.278 5.21756 105.849C5.20812 105.792 5.19868 105.706 5.19868 105.678C5.62353 103.048 5.19868 100.105 5.49135 97.4185C5.56688 96.7612 5.5008 95.9611 5.5008 94.8179C5.5008 94.8179 5.59521 94.475 5.68962 94.1606C5.67074 94.0177 5.67074 93.8177 5.64241 93.7891C5.25532 93.189 5.28365 92.1601 5.33085 91.0742C5.37806 90.1025 5.40638 89.1308 5.41582 88.1592C5.43471 86.5302 5.42527 84.9298 5.44415 83.3009C5.45359 82.3864 5.47247 82.3864 5.95397 81.7291C5.87844 81.3004 5.80292 80.8431 5.7085 80.3001C5.63297 80.7002 5.58577 80.9574 5.53856 81.2146C5.25532 81.1575 5.20812 80.5573 5.27421 79.9858C5.32141 79.5571 5.48191 79.2427 5.61409 78.8141C5.53856 78.6426 5.43471 78.3568 5.32141 78.071C5.548 76.8993 5.65186 75.6705 5.56689 74.3844C5.53856 73.9843 5.36862 73.67 5.25532 73.2985C5.34974 71.2122 5.45359 68.8974 5.56689 66.5825C5.59521 66.0967 5.69906 65.6395 5.72739 65.1536C5.83124 63.4389 5.91621 61.6957 6.00118 59.981C6.01062 59.8666 5.93509 59.6952 5.86901 59.4666C5.57633 60.2667 5.88789 61.8386 5.43471 62.353C5.32141 60.924 5.20812 59.5237 5.10427 58.152C5.1798 57.5804 5.33086 56.9802 5.33086 56.3515C5.31197 53.8652 5.23644 51.4075 5.18924 48.9212C5.17036 48.0924 5.18924 47.2636 5.18924 46.3205C5.41583 46.3777 5.57633 46.4063 5.83124 46.4634C5.73683 45.9776 5.68962 45.4918 5.62353 45.4632C5.32141 45.2917 5.27421 44.5487 5.21756 43.8628C5.07594 42.0624 5.08538 42.0624 4.70774 41.0907C4.76438 40.6906 4.80215 40.2619 4.87768 39.8618C5.00986 39.176 4.99097 38.5758 4.89656 37.8328C4.82103 37.2326 4.77382 36.3753 4.8588 35.8323C5.03818 34.6892 4.97209 33.8318 4.70774 33.0602C5.00985 31.0026 5.17036 29.0307 4.96265 26.8873C4.906 26.2871 4.94377 25.5727 4.92488 24.944C4.87768 24.3152 4.906 23.6294 4.81159 23.315C4.41506 22.029 4.40562 20.3143 4.22623 18.7996C4.1035 17.7422 4.14126 16.5419 4.16015 15.3988C4.37729 15.9418 4.50003 16.4848 4.37729 17.3993C4.28288 18.1423 4.33009 18.1995 4.66997 18.5996C4.6983 17.7136 4.76438 16.7991 4.7455 15.9418C4.73606 15.4274 4.60388 14.913 4.49059 14.4843C4.33009 13.827 4.14126 13.2554 3.96188 12.6267C3.9902 12.5124 4.01853 12.3981 4.05629 12.2838C4.25456 12.541 4.45282 12.7982 4.66997 13.0554C4.68885 12.7982 4.72662 12.5124 4.70774 12.4552C4.25456 11.2835 4.23568 9.42594 3.95244 7.99702C3.82026 7.33972 3.63144 6.65384 3.77306 5.6536C3.8297 5.2535 3.65032 4.5962 3.57479 4.05322C3.3482 2.42425 3.59367 1.13823 4.16015 0.795289C4.50003 0.595241 4.83991 0.252301 5.1798 0.0236745C5.27421 -0.0334821 5.36862 0.0236745 5.47248 0.0808311C5.69907 0.195144 5.92565 0.480927 6.15224 0.452349C6.72816 0.395193 7.29463 0.195144 7.87055 0.10941C7.99328 0.0808313 8.12546 0.195145 8.24819 0.252301C8.68249 0.452349 9.12623 0.795289 9.56996 0.852446C10.2309 0.938181 10.533 1.59548 10.6179 3.53881C10.6463 4.16753 10.5991 5.11061 10.7124 5.33924C10.9389 5.76791 11.2411 5.91081 11.5149 5.93938C11.8453 5.93938 12.1946 5.33924 12.459 6.48237C12.4684 6.56811 12.61 6.36806 12.695 6.36806C13.0915 6.39664 13.4975 6.45379 13.894 6.51095C14.2434 6.53953 14.6021 6.56811 14.9515 6.65384C15.1403 6.711 15.3291 6.88247 15.5179 6.9682C15.9428 7.16825 16.0844 8.0256 16.1222 9.16873C16.1694 10.5976 16.2071 12.0266 16.2638 13.827C16.1411 13.2269 16.0655 12.9125 15.9806 12.5981C15.9428 12.5981 15.905 12.6267 15.8673 12.6267C15.8673 13.1125 15.8578 13.5698 15.8673 14.0556C15.905 15.1702 15.9617 16.2562 15.99 17.3707C16.0183 18.4281 15.7823 20.1428 15.5463 21.143C15.2441 22.4005 15.1969 23.7722 15.3952 25.5727C15.5463 24.0295 15.669 22.772 15.8106 21.4002C16.3393 22.5148 16.3582 23.9437 15.9145 25.4298C15.99 25.6298 16.0655 25.8299 16.0844 25.8585C15.99 27.316 15.8861 28.6306 15.8295 29.9452C15.8106 30.4024 15.9145 30.9168 15.9806 31.3741C16.0561 31.8885 16.1599 32.3743 16.226 32.8887C16.3771 34.089 16.3488 35.2036 16.226 36.461C16.0655 38.0614 16.0466 39.7761 15.9711 41.5194C16.0561 41.8623 16.4337 41.7194 16.2071 42.7768C16.0844 42.7482 15.9522 42.6911 15.7823 42.6339C15.8012 42.9197 15.7917 43.1483 15.8295 43.2912C15.9239 43.6342 16.075 43.8914 16.1411 44.2629C16.2449 44.8059 16.4054 45.5775 16.3488 46.0062C16.1883 47.2636 16.3488 48.1495 16.6131 49.1498C16.4432 49.4641 16.311 49.7213 16.1505 50.0071C16.2355 50.6644 16.3582 51.3503 16.4054 52.0362C16.4243 52.2648 16.2543 52.6078 16.1883 52.8364C16.4148 54.7797 16.6792 56.6087 16.2355 58.6378C16.0466 59.5237 16.0372 60.5525 16.3488 61.5813C16.6414 62.553 16.7831 63.9819 16.9719 65.1251C16.6886 66.0396 16.5565 65.0393 16.3676 64.9536C16.396 66.0967 16.4243 67.1827 16.4432 68.3544C16.6414 68.6973 17.0285 68.7545 16.7831 70.0977C16.6603 69.9834 16.547 69.8976 16.396 69.7547C16.3488 70.5264 16.3016 71.2694 16.2449 72.1553C16.3771 72.2125 16.4904 72.2696 16.6037 72.3268C16.6886 73.6128 16.5942 74.6416 16.1883 75.0417C16.4054 75.7562 16.6037 76.3849 16.8397 77.1565C16.6603 78.1853 16.4809 79.2142 16.3016 80.2144C16.2071 80.8145 16.1127 81.3575 16.3393 81.9863C16.4148 82.272 16.4243 82.8722 16.4054 83.2723C16.3676 83.9296 16.2638 84.5583 16.2166 85.2442C16.0938 86.8446 16.1694 87.1304 16.8019 87.4733C16.8114 87.9305 16.8303 88.4164 16.8491 89.0165C16.6981 89.0165 16.5848 89.0165 16.4148 89.0165C16.4148 89.6452 16.3771 90.2454 16.4243 90.7884C16.5848 92.7317 16.4715 94.675 16.4809 96.6184C16.4904 99.6762 16.5376 102.734 16.547 105.792C16.547 106.764 16.4337 107.707 16.396 108.678C16.3676 109.507 16.3015 110.393 16.6981 110.707C16.7831 110.765 16.8775 111.45 16.8491 111.765C16.7736 112.708 16.632 113.594 16.5093 114.623C16.3204 114.48 16.141 114.365 15.8861 114.194C15.8956 114.794 15.8484 115.451 15.9333 115.852C15.9994 116.166 16.2166 116.194 16.462 116.452C16.4998 116.766 16.5753 117.423 16.632 117.909C16.5187 118.481 16.4337 118.938 16.3393 119.367L16.3488 119.338C16.3865 119.824 16.3582 120.538 16.462 120.767C16.8491 121.596 16.8114 122.739 16.8303 123.939C16.4148 123.968 16.7075 122.482 16.4148 122.31C16.2827 123.339 16.3771 124.311 16.6603 124.854C17.0757 125.654 17.0757 125.654 16.868 127.797C16.7547 127.111 16.6792 126.654 16.6226 126.311C16.5093 126.454 16.4526 126.454 16.4337 126.54C16.2449 127.483 16.2543 128.34 16.4809 129.255C16.7264 130.255 16.9813 131.312 16.6509 132.627C16.8397 133.799 16.396 134.97 16.6509 136.199C16.6886 136.399 16.6603 136.885 16.6037 137.085C16.1033 139 16.3488 140.886 16.5753 142.829C16.6509 143.43 16.7642 144.03 16.7736 144.63C16.7925 146.916 17.0474 149.088 17.1607 151.317C17.2268 152.689 17.1796 152.86 16.6131 153.061C16.6981 153.489 16.8019 153.804 16.8397 154.204C16.9152 155.004 17.0474 155.918 16.9719 156.633C16.7736 158.69 16.7264 160.634 16.9436 162.691C17.0568 163.806 17.0096 163.863 16.5659 164.692C17.1513 165.721 16.8491 167.15 16.7642 168.493C16.7075 169.464 16.4904 170.379 16.6792 171.465C16.7264 171.751 16.5753 172.351 16.5093 172.808C16.3299 173.98 16.2827 175.323 16.5659 176.209C17.038 177.724 16.9624 179.381 16.7736 180.924C16.4998 183.268 16.5942 185.44 16.8303 187.697C16.9058 188.44 16.8114 189.355 16.7736 190.184C16.7547 190.755 16.632 191.384 16.6886 191.87C16.9908 194.556 16.7358 197.185 16.6698 199.815C16.632 201.301 16.6037 202.844 16.6792 204.33C16.7642 206.13 16.7264 207.845 16.5376 209.531C16.4337 210.417 16.462 211.246 16.5093 212.189C16.5942 213.904 16.5565 215.647 16.5281 217.39C16.4998 219.448 16.4337 221.477 16.396 223.535C16.3865 223.906 16.4243 224.306 16.4526 224.706C16.6792 227.478 16.6698 227.536 15.905 228.507C16.0372 229.136 16.1694 229.793 16.3015 230.422C15.905 231.822 15.905 232.108 16.3393 233.537C16.3015 233.794 16.2732 234.109 16.226 234.394C16.1788 234.68 16.1222 234.966 16.0561 235.309C16.1599 235.68 16.2638 236.023 16.3582 236.366C16.396 236.509 16.4809 236.709 16.4715 236.824C16.3582 238.338 16.5848 239.91 16.396 241.396C16.311 242.053 16.1977 242.711 16.1694 243.397C16.0655 246.369 15.9994 249.369 15.9145 252.342C15.9145 252.484 15.8861 252.627 15.8956 252.713C16.1316 254.999 15.6879 257.171 15.8106 259.458C15.8295 259.801 15.7823 260.286 15.7162 260.544C15.4613 261.515 15.5085 262.744 15.584 263.687C15.6973 265.173 15.5085 266.259 15.2819 267.317C15.1119 268.117 15.0364 268.831 15.1497 269.689C15.3291 271.089 15.3385 272.489 15.2158 273.918C15.2064 274.032 15.178 274.175 15.1969 274.29C15.4235 276.89 15.0364 279.377 15.027 281.949C15.027 282.949 14.8759 283.949 14.8098 284.978C14.7437 286.064 14.621 287.178 14.6682 288.236C14.7154 289.35 14.6682 290.208 14.4039 290.894C14.2056 291.408 14.1961 291.894 14.2528 292.637C14.3094 293.351 14.3 294.18 14.2434 294.895C14.1206 296.524 14.1678 298.295 13.7713 299.696C13.7335 299.839 13.7619 300.182 13.7807 300.439C13.7902 300.639 13.8657 300.868 13.8468 300.982C13.5069 303.039 13.8374 305.411 13.5353 307.469C13.4692 307.926 13.3559 308.355 13.2709 308.784C13.2615 308.841 13.2331 308.841 13.2237 308.898C13.0066 310.213 12.7894 311.527 12.5723 312.842C12.459 313.556 12.4118 316.214 12.4778 317.271C12.1285 318.557 11.6565 319.615 11.7792 321.587C11.7886 321.73 11.7225 321.93 11.6848 322.073C11.6565 322.158 11.6093 322.187 11.5337 322.301C11.3827 321.987 11.2222 321.615 11.0145 321.187C10.9295 321.701 10.8634 322.101 10.7879 322.444C10.5141 323.673 9.97592 323.959 9.59828 323.016C9.3528 322.416 9.38113 321.673 9.50386 320.872C9.59828 320.272 9.80598 319.701 9.65492 318.929C9.25839 318.872 9.32448 320.044 9.1923 320.415C8.81465 320.844 8.48421 321.187 8.04047 321.673C8.07824 320.815 8.08768 320.244 8.13489 319.729C8.34259 317.757 8.0688 316.328 7.37959 315.957C7.11523 314.699 7.44568 313.556 7.57785 312.556C7.75724 311.156 7.88942 309.87 7.83277 308.384C7.78556 307.24 7.84221 306.269 8.2765 305.84C8.17265 304.04 8.05936 302.382 7.99327 300.725C7.9555 299.782 7.93662 298.724 8.04047 297.838C8.32371 295.523 8.36148 293.151 8.35204 290.751C8.35204 290.065 8.31427 289.522 8.53142 289.036C8.75801 288.493 8.69192 287.75 8.56918 287.064C8.42757 286.321 8.28595 285.607 8.12545 284.835C8.44645 283.492 8.91851 282.377 8.73913 280.405C8.93739 280.291 9.11677 280.177 9.3056 280.062C9.3056 279.948 9.32448 279.777 9.3056 279.72C9.09789 279.148 8.8713 278.662 8.68248 278.033C8.48421 277.348 8.31427 276.547 8.10656 275.633C8.0688 275.69 7.94606 275.89 7.795 276.147C7.88942 276.576 7.9555 276.862 8.02159 277.176C8.28595 278.376 8.25762 278.576 7.71947 279.205C8.07824 280.12 8.16321 281.148 7.9555 282.463C7.80444 283.435 7.72892 284.549 7.6345 285.635C7.61562 285.864 7.57786 286.207 7.61562 286.378C7.84221 287.436 7.67227 288.093 7.37015 288.522C7.62506 290.608 7.54009 292.608 7.50233 294.58C7.49288 295.009 7.43624 295.523 7.35127 295.866C7.09635 296.838 6.93585 297.752 7.08691 299.067C7.13412 299.496 6.94529 300.239 6.85088 300.81C6.81312 301.039 6.74703 301.21 6.69038 301.439C6.24664 303.268 6.24664 303.268 6.95473 304.354C6.85088 305.24 6.73759 306.154 6.63373 307.069C6.57709 307.612 6.50156 308.184 6.49211 308.755C6.47323 310.27 6.31273 311.441 5.82179 311.813C5.82179 313.471 5.86899 315.014 5.8029 316.5C5.76514 317.329 5.56687 318.186 5.35917 318.815C5.13258 319.501 5.07593 320.158 5.07593 321.072C5.07593 322.787 5.02872 324.502 4.99096 326.359C4.42449 326.245 4.13181 328.417 3.55589 327.417C3.30098 328.217 3.14992 328.96 3.18769 330.017C3.20657 330.389 3.14992 330.789 3.09327 331.161C2.98942 331.875 2.73451 332.246 2.56457 331.818C2.34742 331.303 2.15859 330.875 1.8848 330.675C1.62044 330.503 1.37497 330.103 1.1295 329.789C1.01621 329.617 0.902911 329.389 0.761294 329.103C1.15782 327.845 1.20503 326.902 0.921794 325.588C0.638559 324.216 0.478057 322.558 1.05397 321.215C1.4033 320.387 1.14838 319.758 0.89347 319.215C0.921794 318.872 0.931236 318.529 0.978441 318.243C1.32777 316.357 1.18615 314.356 1.17671 312.356C0.865146 311.784 1.10118 311.099 1.12006 310.441C1.1295 310.013 1.1295 309.498 1.07285 309.098C0.931236 307.926 0.751852 306.755 0.591352 305.612C0.969002 304.983 0.940676 306.24 1.17671 306.412C1.35609 306.097 1.48827 305.726 1.34665 304.897C1.07285 303.325 1.09174 301.725 1.25224 300.067C1.33721 299.21 1.39386 298.295 1.45995 297.467C1.36553 297.238 1.31833 297.095 1.27112 297.009C0.799059 296.152 0.770737 295.066 1.2428 294.295C1.58268 293.723 1.81871 293.037 1.96033 291.78C1.7715 291.78 1.62989 291.78 1.47883 291.78C1.47883 291.522 1.4505 291.265 1.47883 291.151C1.60156 290.608 1.7243 290.093 1.86592 289.608C2.01698 289.093 2.10195 288.636 2.02642 287.864C1.96977 287.236 2.06418 286.493 2.09251 285.692C2.00754 285.721 1.90368 285.778 1.71486 285.864C1.82815 285.121 1.91312 284.492 2.01698 283.806C1.95089 283.549 1.8848 283.206 1.79039 282.949C1.53548 282.177 1.45994 281.434 1.74318 280.577C1.82815 280.32 1.8848 279.92 1.91312 279.548C1.98865 278.748 1.9981 277.862 2.10195 277.119C2.19636 276.404 2.37574 275.804 2.54569 275.061C2.67786 275.261 2.83836 275.49 2.98942 275.719C3.01775 275.604 3.04607 275.49 3.0744 275.347C2.83836 274.718 2.59289 274.09 2.30966 273.347C2.49848 273.004 2.64954 272.718 2.79116 272.432C2.78172 272.289 2.79116 272.118 2.77228 272.061C2.4796 271.432 2.17748 270.746 1.86592 270.174C1.69598 269.86 1.47883 269.631 1.60156 268.888C1.70542 268.26 1.89424 268.488 2.05474 268.717C2.13027 268.831 2.2058 268.888 2.35686 269.088C2.34742 268.374 2.32854 267.888 2.32854 267.402C2.3191 266.631 2.3191 265.888 2.30966 265.116C2.30966 264.859 2.32854 264.544 2.29077 264.373C2.0453 263.173 2.13972 262.058 2.44183 261.201C3.14048 259.229 2.94222 256.828 2.82892 254.485C2.79116 253.742 2.75339 253.199 2.86669 252.456C2.97998 251.741 3.00831 250.855 3.05551 250.027C3.08384 249.455 3.02719 248.798 3.10272 248.312C3.3954 246.226 3.17825 243.968 3.34819 241.853C3.35763 241.796 3.36707 241.71 3.35763 241.653C2.93278 239.653 3.47093 237.909 3.53702 236.052C3.5559 235.538 3.53702 235.023 3.53702 234.966C3.2821 233.937 3.10272 233.223 2.89501 232.394C3.02719 232.222 3.10272 232.108 3.17825 231.994C3.30099 232.251 3.33875 233.28 3.63143 232.222C3.47093 232.08 3.32931 232.022 3.19713 231.965ZM12.2229 142.144C12.4495 141.486 12.289 141.201 12.0436 141.086C12.1096 141.458 12.1757 141.829 12.2418 142.172C12.1002 142.344 11.9303 142.401 12.0436 143.172C12.1002 142.858 12.1569 142.515 12.2229 142.144ZM9.98538 73.1841C9.95705 72.6983 9.92873 72.2125 9.9004 71.7266C9.71158 72.4697 9.83432 72.8412 10.0043 73.1556C9.99482 73.3556 9.95705 73.5557 9.97593 73.6986C9.99482 73.87 10.0703 73.9558 10.1176 74.0986C10.1364 73.9272 10.1931 73.6985 10.1742 73.6414C10.127 73.4413 10.0515 73.327 9.98538 73.1841ZM8.43701 158.976C8.58807 159.662 8.74857 160.319 9.0979 160.005C8.87131 159.691 8.65416 159.348 8.42757 159.033C8.39925 158.805 8.38037 158.576 8.32372 158.033C8.21986 158.633 8.16322 158.976 8.04048 159.719C8.25763 159.291 8.35204 159.148 8.43701 158.976ZM4.12237 315.357C4.04684 315.671 3.98075 315.985 3.90522 316.3C3.94299 316.357 3.97131 316.386 4.00907 316.443C4.0374 316.071 4.07516 315.7 4.10349 315.3C4.21678 315.185 4.33952 315.1 4.45281 314.985C4.39616 314.728 4.33952 314.471 4.23566 313.956C4.18846 314.671 4.16013 315.014 4.12237 315.357ZM9.06013 193.356C9.21119 192.87 9.37169 192.413 9.5794 191.784C9.01293 192.07 9.01293 192.07 9.07901 193.327C9.23007 194.328 9.23007 194.328 9.60772 193.613C9.38113 193.499 9.22063 193.413 9.06013 193.356ZM8.41813 78.6998C8.5031 78.4997 8.67305 78.2997 8.67305 78.0996C8.67305 77.2137 8.62584 76.3563 8.58808 75.3847C8.4559 75.2989 8.32372 75.2418 8.14434 75.156C8.38981 76.3849 8.38981 76.3849 8.43702 78.7569C8.26707 78.2997 8.10657 77.8424 7.87998 77.2423C7.83278 78.2997 7.68172 79.2142 7.89887 80.3001C8.17266 79.9572 8.36149 79.5571 8.41813 78.6998ZM15.5746 47.1779C15.754 47.1207 15.9522 47.035 15.9145 46.3205C15.905 46.0347 15.7728 45.8347 15.6312 45.3489C15.6123 46.2062 15.5935 46.7206 15.584 47.235C15.433 47.5208 15.2536 47.8923 15.3858 48.4353C15.5557 49.1212 15.5368 49.6356 15.4235 50.3786C15.2913 51.2646 15.4896 51.436 15.7351 51.3503C15.9522 49.7785 15.6407 48.5211 15.5746 47.1779ZM9.43778 89.2737C9.87208 89.2451 9.87208 89.2451 9.83432 87.9305C9.68326 88.4735 9.56052 88.8736 9.44723 89.3023C8.95628 90.1025 9.39058 91.3028 9.2584 92.5031C9.62661 92.0744 9.67381 92.7317 9.71158 93.4176C9.73046 93.8748 9.72102 94.3321 9.77767 94.7608C9.80599 94.9894 9.92873 95.3037 9.99482 95.2752C10.0987 95.218 10.2497 94.9608 10.2686 94.675C10.3536 93.6748 10.0043 94.2464 9.97593 93.7605C9.79655 92.2745 9.61717 90.7884 9.43778 89.2737ZM9.34337 253.542C9.38113 252.913 9.4189 252.284 9.44722 251.656C9.51331 250.398 9.63604 249.341 10.127 249.169C10.2025 249.141 10.2686 248.941 10.363 248.769C10.2875 248.226 10.212 247.798 10.1459 247.34C9.93816 247.598 9.74934 247.769 9.58884 248.055C9.36225 248.455 9.15454 248.912 9.18286 249.855C9.20175 250.684 9.17342 251.541 9.20175 252.37C9.21119 252.77 9.29616 253.142 9.35281 253.513C9.33392 254.428 9.3056 255.342 9.27728 256.543C9.79654 254.942 9.79654 254.942 9.34337 253.542ZM9.68325 260.086C9.59828 259.429 9.75878 258.486 9.40001 257.771C9.27728 258.429 9.09789 259 9.07901 259.6C9.03181 261.172 8.95627 262.658 8.49366 263.744C8.68248 264.287 8.83354 264.687 9.0318 265.23C9.09789 264.487 9.13566 263.944 9.17342 263.487C9.36225 263.287 9.51331 263.144 9.75878 262.887C9.54163 262.315 9.32448 262.03 9.24895 261.544C9.09789 260.458 9.54163 260.744 9.68325 260.086ZM10.5235 64.925C10.4669 63.5532 10.4197 62.4387 10.3725 61.2956C10.3441 61.2956 10.3158 61.3241 10.2969 61.3241C10.1836 62.6959 10.0703 64.0391 9.94761 65.5537C9.81543 65.2394 9.75879 65.0965 9.68326 64.9536C9.33393 66.5254 9.56996 67.9257 9.7399 69.4118C10.0043 69.1832 10.0798 68.7259 9.99482 68.1829C9.77767 66.7826 9.99482 65.9824 10.363 65.2965C10.4386 65.1251 10.5046 64.9536 10.5235 64.925ZM6.59598 85.9015C6.4638 87.7877 6.49212 91.0742 6.6243 91.9315C6.97363 89.3309 6.97363 87.359 6.59598 85.9015ZM14.9231 109.05C14.9703 109.05 15.0175 109.05 15.0647 109.05C15.0931 106.278 15.1308 103.506 15.1403 100.734C15.1403 100.534 15.027 100.362 14.9137 100.019C14.9231 103.191 14.9231 106.135 14.9231 109.05ZM9.86264 107.421C9.70214 105.392 9.5794 103.82 9.42834 101.877C9.31505 103.506 9.23008 104.677 9.13566 105.935C9.35281 106.392 9.56052 106.821 9.86264 107.421ZM8.52199 86.1587C8.5031 86.9589 8.55031 87.902 8.44646 88.5878C8.27651 89.6738 8.43702 90.0739 8.70137 90.5598C9.04125 86.9875 9.03181 86.7588 8.52199 86.1587ZM1.83759 326.988C1.92256 326.702 2.11139 326.359 2.18692 325.845C2.26245 325.359 2.00754 324.645 1.79039 324.616C1.54492 324.587 1.4505 325.073 1.43162 325.731C1.41274 326.388 1.46938 326.902 1.83759 326.988ZM15.7728 132.856C16.2827 132.484 16.2732 132.513 16.0466 131.284C15.9617 130.827 15.9239 130.312 15.82 129.426C15.5368 131.17 15.5935 132.684 15.584 134.142C15.584 134.199 15.6312 134.285 15.6784 134.399C15.7162 133.827 15.7445 133.313 15.7728 132.856ZM6.9453 163.663C6.75648 161.548 6.59597 159.805 6.43547 158.062C6.38827 158.119 6.33162 158.147 6.28441 158.205C6.3033 160.062 6.3033 161.948 6.9453 163.663ZM15.8106 90.0453C15.669 90.7026 15.4802 91.1885 15.5085 91.4171C15.6501 92.4745 15.4046 93.7891 15.7634 95.0465C15.8767 93.3033 16.0089 91.9315 15.8106 90.0453ZM14.1017 55.6085C14.149 55.5513 14.1962 55.5227 14.2528 55.4656C14.2528 54.2939 14.2717 53.1507 14.2434 51.979C14.2339 51.7218 14.0829 51.5218 13.9979 51.2932C13.9412 51.5789 13.8374 51.8933 13.8468 52.1791C13.8657 53.065 13.9129 53.9509 13.9696 54.8369C13.979 55.1227 14.0545 55.3799 14.1017 55.6085ZM7.29463 96.2183C7.64395 97.9044 7.89887 98.8189 8.04048 98.9903C8.04048 98.2759 8.10657 97.4757 8.0216 96.847C7.88942 95.9325 7.5873 95.9039 7.29463 96.2183ZM5.94453 119.538C6.48268 118.566 6.43548 117.166 5.85012 115.652C5.87844 116.938 5.90677 118.109 5.94453 119.538ZM9.0318 268.717C8.7108 269.317 8.46533 270.717 8.52198 271.518C8.54086 271.803 8.69192 272.003 8.8713 272.461C8.93739 271.089 8.97516 270.06 9.0318 268.717ZM8.21987 58.552C8.66361 57.1803 8.68249 56.2086 8.38037 54.2939C8.22931 55.6656 8.08769 56.9231 8.21987 58.552ZM15.669 69.3261C16.1222 67.4399 15.8389 65.668 15.669 63.839C15.669 65.668 15.669 67.4971 15.669 69.3261ZM15.7728 124.054C15.8956 123.339 15.9617 122.51 15.8389 121.567C15.3008 123.453 15.4235 124.939 16.1977 125.54C16.0278 124.939 15.9145 124.539 15.7728 124.054ZM14.0357 127.169C13.7335 129.741 13.7335 130.598 13.9979 132.856C13.9224 130.941 14.3472 129.312 14.0357 127.169ZM7.37016 43.8628C7.08692 45.1488 7.37016 46.5206 7.29463 47.8638C7.69116 46.6635 7.46457 45.2631 7.37016 43.8628ZM15.6123 75.8419C15.7445 74.5559 15.9145 73.7271 15.8673 72.9841C15.8295 72.3268 15.7917 71.3265 15.4613 70.8979C15.4424 71.2122 15.3952 71.4123 15.4235 71.5552C15.6029 72.584 15.7162 73.5842 15.4235 74.6416C15.4046 74.7274 15.499 75.156 15.6123 75.8419ZM14.7532 69.7547C14.9609 69.4118 15.1403 69.2118 15.1403 69.0689C15.112 67.9829 15.0553 66.8969 14.9987 65.8395C14.9609 65.8681 14.9231 65.8681 14.8759 65.8967C14.8476 67.0112 14.8098 68.1544 14.7532 69.7547ZM15.9994 104.249C16.0278 103.106 16.0466 102.305 16.0655 101.248C15.8389 101.305 15.6595 101.362 15.3858 101.42C15.6123 102.448 15.7634 103.163 15.9994 104.249ZM13.9885 102.763C14.0262 102.734 14.0734 102.706 14.1112 102.648C14.0734 102.105 14.0168 101.591 13.9979 101.048C13.979 100.448 13.9979 99.8191 13.9979 99.1904C13.6391 99.7905 13.6297 99.7905 13.6863 100.334C13.7713 101.162 13.8846 101.962 13.9885 102.763ZM13.8657 85.1013C13.8091 86.5016 13.7619 87.4733 13.7147 88.7307C14.2622 86.5302 14.2622 86.5302 13.8657 85.1013ZM8.30484 48.7783C8.46534 49.8642 8.56919 50.5787 8.68249 51.3503C8.90908 50.4358 8.9374 49.5213 8.7297 48.9212C8.66361 48.7497 8.50311 48.8354 8.30484 48.7783ZM8.8902 31.2312C9.03182 28.7735 8.98461 28.1162 8.59752 26.5729C8.71081 28.2876 8.80523 29.7737 8.8902 31.2312ZM9.5794 246.169C10.0043 245.368 10.0043 245.368 9.82487 244.111C9.38113 245.168 9.38113 245.168 9.5794 246.169ZM9.98537 152.032C9.4189 153.832 9.40946 154.089 9.80599 155.09C9.86264 154.032 9.91928 153.032 9.98537 152.032ZM6.6243 64.0391C6.98307 62.9817 6.93586 62.2101 6.71871 61.2384C6.44492 62.0958 6.48268 62.8674 6.6243 64.0391ZM15.6123 38.0614C15.263 40.4334 15.263 40.4334 15.6784 41.4336C15.6595 40.1762 15.6407 39.1188 15.6123 38.0614ZM14.2434 47.4637C14.2622 46.5492 14.2811 45.6347 14.3095 44.5487C13.8468 45.6061 13.8468 45.6632 14.2434 47.4637ZM15.1497 193.156C15.1969 193.156 15.2441 193.184 15.2913 193.184C15.3008 191.87 15.4141 190.584 15.1497 189.269C15.1497 190.555 15.1497 191.841 15.1497 193.156ZM4.22622 275.319C4.98152 273.975 4.98152 273.975 4.86823 272.861C4.64164 273.718 4.43393 274.518 4.22622 275.319ZM15.8767 139.657C15.5463 140.457 15.6407 141.372 15.6029 142.315C16.1127 141.172 16.1127 141.172 15.8767 139.657ZM9.67381 295.066C9.88151 294.523 9.89095 293.923 9.74934 293.237C9.33392 294.009 9.33392 294.009 9.67381 295.066ZM6.69983 57.5804C6.4638 59.3808 6.4638 59.3808 6.85089 60.0095C6.79425 59.0665 6.74704 58.3234 6.69983 57.5804ZM8.9846 163.091C8.62584 163.72 8.65416 164.349 8.90907 165.263C9.06957 164.549 9.22063 164.035 8.9846 163.091ZM14.4511 79.0141C14.4794 77.9281 14.6021 77.2137 14.2434 76.6993C14.1395 77.528 14.1017 78.1568 14.4511 79.0141ZM13.8279 162.749C13.7807 163.577 13.743 164.006 13.7241 164.435C13.7147 164.606 13.743 164.806 13.7524 164.978C14.1867 164.635 14.1867 164.635 13.8279 162.749ZM9.0979 55.8657C9.16399 55.8657 9.22064 55.8943 9.28673 55.8943C9.22064 55.0655 9.5794 54.2367 9.19231 53.0936C9.15455 54.2081 9.12622 55.0369 9.0979 55.8657ZM9.40945 266.802C9.24895 266.574 9.15454 266.316 9.05069 266.316C8.99404 266.316 8.88074 266.774 8.89963 266.945C8.92795 267.231 9.05069 267.631 9.10733 267.602C9.20175 267.545 9.27728 267.174 9.40945 266.802ZM14.9987 92.4745C14.8382 93.4747 14.9231 94.3321 15.1686 95.3037C15.4046 94.0463 15.0648 93.3604 14.9987 92.4745ZM15.754 58.0376C15.8578 57.066 15.8389 56.4373 15.4802 55.78C15.499 56.6945 15.348 57.4089 15.754 58.0376ZM15.754 77.1565C15.754 78.1568 15.754 78.7569 15.754 79.4142C16.1411 78.7855 16.1411 78.7855 15.754 77.1565ZM8.69193 144.344C8.42757 145.402 8.42757 145.402 8.75801 146.83C8.72969 145.945 8.71081 145.201 8.69193 144.344ZM8.6164 103.677C8.6164 104.535 8.6164 105.106 8.6164 105.906C8.92796 104.849 8.92796 104.849 8.6164 103.677ZM5.227 19.3426C4.96265 20.2857 5.13259 20.9144 5.40639 21.4288C5.34974 20.7429 5.28365 20.0571 5.227 19.3426ZM7.2191 100.476C7.03971 101.362 7.1058 101.991 7.24742 102.934C7.40792 101.962 7.43625 101.305 7.2191 100.476ZM15.263 119.624C14.6777 119.51 14.6493 119.624 14.7721 121.081C14.9326 120.624 15.0647 120.224 15.263 119.624ZM14.9042 142.315C14.9892 142.258 15.0647 142.201 15.1497 142.144C15.0836 141.572 15.027 140.972 14.9609 140.4C14.9137 140.429 14.8665 140.486 14.8098 140.515C14.8476 141.086 14.8759 141.686 14.9042 142.315ZM15.8106 80.9574C15.4141 82.4721 15.4141 82.4721 15.6784 83.3009C15.7068 82.6436 15.7445 82.0434 15.8106 80.9574ZM9.71157 296.181C9.33392 296.466 9.24895 296.895 9.31504 297.467C9.33392 297.61 9.44722 297.667 9.51331 297.781C9.56995 297.352 9.6266 296.924 9.71157 296.181ZM11.6093 293.494C11.6565 293.494 11.7037 293.494 11.7509 293.494C11.7981 292.808 11.8642 292.123 11.6093 291.522C11.6093 292.18 11.6093 292.837 11.6093 293.494ZM6.55821 76.9279C6.60542 76.9279 6.64318 76.9279 6.69039 76.9279C6.69039 76.242 6.69039 75.5561 6.69039 74.8988C6.64318 74.8988 6.60542 74.8988 6.55821 74.8988C6.55821 75.5847 6.55821 76.2706 6.55821 76.9279ZM5.78403 100.391C5.7085 101.248 5.67074 101.705 5.60465 102.448C6.05783 102.048 6.10503 101.562 5.78403 100.391ZM4.09405 266.316C4.0374 266.288 3.99019 266.259 3.93355 266.202C3.8769 266.859 3.7636 267.488 3.89578 268.145C3.94299 268.145 3.99963 268.174 4.04684 268.174C4.05628 267.574 4.07516 266.945 4.09405 266.316ZM13.7996 121.567C14.0357 119.995 14.0357 119.995 13.6769 119.31C13.7147 120.081 13.743 120.624 13.7996 121.567ZM16.1505 212.675C16.0561 211.589 15.905 211.389 15.7162 211.875C15.6879 211.96 15.6973 212.36 15.7067 212.36C15.8484 212.503 15.9994 212.561 16.1505 212.675ZM8.97517 73.87C8.94684 73.0413 8.91852 72.4697 8.89019 71.7266C8.58808 72.6412 8.58808 72.6412 8.97517 73.87ZM9.04125 156.204C8.97516 156.176 8.91852 156.147 8.85243 156.09C8.68248 156.547 8.60695 157.033 8.91851 157.89C8.97516 157.147 9.01293 156.661 9.04125 156.204ZM12.4967 73.2699C12.4307 73.2985 12.374 73.327 12.3079 73.327C12.3362 73.9558 12.3646 74.5845 12.4023 75.5276C12.7328 74.5273 12.5912 73.8986 12.4967 73.2699ZM13.2048 125.054C13.422 124.282 13.2992 123.825 13.1104 123.168C13.0066 123.968 12.9594 124.511 13.2048 125.054ZM8.28596 93.6462C8.41813 93.9034 8.51255 94.1892 8.57863 94.1606C8.65416 94.132 8.70137 93.7605 8.75802 93.5319C8.68249 93.3604 8.60696 93.0746 8.53143 93.0461C8.47478 93.0461 8.39925 93.3604 8.28596 93.6462ZM13.1954 82.5578C12.9405 83.7581 12.9405 83.7581 13.3559 84.4154C13.2898 83.6438 13.2426 83.1008 13.1954 82.5578ZM15.348 117.109C15.2253 118.538 15.2253 118.538 15.6501 118.767C15.5557 118.224 15.4613 117.738 15.348 117.109ZM8.09713 68.5545C8.19154 67.4399 8.25763 66.754 8.33316 65.8967C7.96496 66.6111 7.96496 66.6111 8.09713 68.5545ZM10.2875 180.267C10.5046 179.753 10.6463 179.353 10.4952 178.552C10.2214 178.838 10.1553 179.324 10.2875 180.267ZM14.385 277.519C14.4133 275.919 14.4133 275.919 14.0545 276.119C14.1678 276.605 14.2811 277.062 14.385 277.519ZM6.71871 111.193C6.51101 112.422 6.51101 112.422 6.71871 113.337C6.71871 112.508 6.71871 111.851 6.71871 111.193ZM9.4189 112.451C9.64549 111.908 9.70214 111.45 9.5322 110.936C9.49443 110.822 9.39058 110.908 9.2584 110.879C9.31505 111.479 9.36225 111.908 9.4189 112.451ZM3.85802 245.14C3.81081 245.14 3.75416 245.14 3.70696 245.14C3.73528 245.94 3.7636 246.769 3.79193 247.569C3.81081 247.569 3.83913 247.54 3.85802 247.54C3.85802 246.74 3.85802 245.94 3.85802 245.14ZM8.72025 244.625C8.5031 244.454 8.32371 244.311 8.09712 244.14C8.29539 245.254 8.29539 245.254 8.72025 244.625ZM4.0846 304.354C4.29231 303.325 4.29231 302.839 3.95243 302.211C4.00907 303.011 4.0374 303.468 4.0846 304.354ZM4.0846 298.153C4.11293 298.01 4.14125 297.867 4.16958 297.695C4.07516 297.581 3.98075 297.324 3.89578 297.381C3.82025 297.41 3.74472 297.724 3.70696 297.953C3.68807 298.038 3.79193 298.438 3.83913 298.438C3.91466 298.467 3.99963 298.267 4.0846 298.153ZM3.04607 304.526C2.67786 304.611 2.69674 305.126 2.81004 306.126C2.91389 305.354 2.97998 304.954 3.04607 304.526ZM13.8374 111.651C14.0073 110.336 14.0073 110.336 13.7241 109.65C13.7619 110.336 13.7902 110.793 13.8374 111.651ZM8.05937 29.6594C8.11602 29.6594 8.17266 29.6594 8.22931 29.688C8.22931 29.1164 8.22931 28.5448 8.22931 27.9733C8.20099 27.9733 8.16322 27.9447 8.1349 27.9447C8.10658 28.5162 8.08769 29.0878 8.05937 29.6594ZM8.21986 313.471C7.91774 313.928 7.91774 313.928 8.01215 314.871C8.09712 314.299 8.16321 313.871 8.21986 313.471ZM6.72815 95.0751C6.66207 95.1037 6.59598 95.1609 6.52989 95.1894C6.56765 95.7038 6.60542 96.2468 6.64318 96.7612C6.69983 96.7327 6.75648 96.7041 6.81313 96.6755C6.7848 96.1611 6.75648 95.6181 6.72815 95.0751ZM6.69982 246.369C6.64318 246.254 6.57709 246.14 6.52044 245.997C6.44491 246.397 6.36938 246.797 6.29385 247.197C6.34106 247.283 6.37882 247.369 6.42603 247.455C6.511 247.112 6.60541 246.74 6.69982 246.369ZM13.0915 243.254C12.8649 243.597 12.6856 243.968 12.9688 244.768C13.016 244.14 13.0538 243.711 13.0915 243.254ZM14.2056 69.5833C14.1773 69.0689 14.1395 68.5545 14.1112 68.04C13.8846 68.6973 13.9035 69.2403 14.2056 69.5833ZM10.5518 138.257C10.2969 139.429 10.2969 139.429 10.4574 140.372C10.4858 139.714 10.5141 139.114 10.5518 138.257ZM9.98537 211.332C10.0798 211.017 10.1648 210.817 10.1553 210.674C10.1459 210.474 10.0703 210.189 10.0137 210.131C9.95705 210.074 9.88152 210.331 9.81543 210.446C9.86263 210.674 9.9004 210.932 9.98537 211.332ZM9.86264 54.3796C10.127 53.5794 10.127 53.065 9.90985 52.522C9.89096 53.0079 9.88152 53.4937 9.86264 54.3796ZM9.93816 237.367C9.89096 237.395 9.83431 237.424 9.7871 237.424C9.79654 237.795 9.81543 238.138 9.82487 238.51C9.88151 238.481 9.98537 238.424 9.98537 238.395C9.97593 238.052 9.95704 237.709 9.93816 237.367ZM9.75878 125.911C9.83431 125.625 9.89096 125.425 9.93817 125.197C9.94761 125.168 9.84376 124.854 9.82487 124.882C9.7399 125.025 9.67381 125.225 9.59828 125.425C9.64549 125.54 9.68325 125.682 9.75878 125.911ZM14.8382 114.48C14.8759 114.508 14.9137 114.566 14.9515 114.594C14.9892 114.394 15.0459 114.223 15.0647 114.023C15.0836 113.794 15.0553 113.508 15.0459 113.251C14.9987 113.251 14.9609 113.251 14.9231 113.251C14.8948 113.68 14.8665 114.08 14.8382 114.48ZM8.61639 234.652C8.51254 235.423 8.45589 235.966 8.70136 236.481C8.93739 235.738 8.77689 235.309 8.61639 234.652ZM9.04125 213.818C9.06013 214.79 9.13566 215.161 9.36225 215.19C9.39057 215.19 9.4189 215.018 9.48499 214.818C9.36225 214.532 9.23951 214.275 9.04125 213.818ZM13.8657 116.766C13.9035 116.766 13.9412 116.766 13.979 116.766C13.979 116.252 13.979 115.709 13.979 115.194C13.9412 115.194 13.9035 115.194 13.8657 115.194C13.8657 115.709 13.8657 116.223 13.8657 116.766ZM7.92719 121.396C7.87998 121.424 7.83278 121.481 7.78557 121.51C7.77613 122.082 7.76669 122.653 8.11601 123.053C8.03104 122.339 7.97439 121.853 7.92719 121.396ZM7.57787 70.4406C7.55898 70.2691 7.54954 70.0977 7.53066 69.9262C7.41736 69.9834 7.30407 70.0405 7.19078 70.1263C7.20966 70.3549 7.22854 70.5835 7.23798 70.8121C7.36072 70.6693 7.47401 70.5549 7.57787 70.4406ZM9.30561 78.1853C9.36226 78.1853 9.40946 78.1853 9.46611 78.2139C9.46611 77.6709 9.46611 77.1565 9.46611 76.6135C9.42834 76.6135 9.39058 76.6135 9.35281 76.6135C9.33393 77.1279 9.32449 77.6424 9.30561 78.1853ZM12.8838 303.725C12.7988 304.726 12.7988 304.726 13.0443 305.183C12.9877 304.611 12.9405 304.154 12.8838 303.725ZM12.5062 76.4706C12.459 76.4706 12.4118 76.4992 12.3646 76.4992C12.3834 77.0422 12.4023 77.6138 12.4118 78.1568C12.459 78.1568 12.4967 78.1282 12.5439 78.1282C12.5251 77.5852 12.5156 77.0136 12.5062 76.4706ZM12.2701 120.338C12.2701 119.681 12.2701 119.167 12.2701 118.338C12.0813 119.167 11.9303 119.681 12.2701 120.338ZM4.02796 260.886C4.07516 260.944 4.13181 261.001 4.17902 261.058C4.21678 260.715 4.24511 260.372 4.28287 260.001C4.24511 259.972 4.20734 259.915 4.16958 259.886C4.13181 260.229 4.08461 260.544 4.02796 260.886ZM14.2339 82.272C14.3567 81.9577 14.4322 81.8719 14.4605 81.7005C14.4794 81.5862 14.4416 81.2146 14.4227 81.2146C14.3567 81.2146 14.2528 81.2432 14.2245 81.3575C14.1962 81.5004 14.2245 81.7862 14.2339 82.272ZM11.7414 159.348C11.8075 158.976 11.8736 158.748 11.8642 158.576C11.8547 158.405 11.7603 158.262 11.7037 158.119C11.6565 158.29 11.5809 158.462 11.5809 158.662C11.5809 158.833 11.6565 159.005 11.7414 159.348ZM15.4613 154.632C15.5274 154.575 15.584 154.518 15.6501 154.461C15.6123 154.118 15.5651 153.746 15.5274 153.403C15.4802 153.461 15.433 153.489 15.3857 153.546C15.4141 153.918 15.433 154.261 15.4613 154.632ZM2.6401 321.673C2.55513 321.501 2.48904 321.33 2.41351 321.301C2.38518 321.272 2.32854 321.53 2.29077 321.644C2.35686 321.815 2.42295 322.015 2.49848 322.158C2.50792 322.158 2.57401 321.901 2.6401 321.673ZM10.9578 224.049C10.9956 223.963 11.0428 223.878 11.0806 223.792C10.9956 223.449 10.92 223.106 10.8351 222.792C10.7973 222.877 10.7595 222.963 10.7123 223.049C10.7973 223.363 10.8728 223.706 10.9578 224.049ZM10.9106 303.954C10.8728 303.811 10.8256 303.697 10.7879 303.554C10.684 303.868 10.5802 304.211 10.4763 304.526C10.5141 304.64 10.5518 304.754 10.5802 304.868C10.684 304.583 10.7973 304.268 10.9106 303.954ZM10.5991 91.017C10.5235 90.8455 10.4669 90.6741 10.4008 90.5883C10.3725 90.5598 10.2875 90.9027 10.2875 90.9027C10.3441 91.1313 10.4102 91.3028 10.4669 91.5028C10.5046 91.3885 10.5424 91.2456 10.5991 91.017ZM15.2536 89.1594C15.1969 89.1594 15.1497 89.1594 15.0931 89.188C15.112 89.5881 15.1308 89.9882 15.1403 90.3883C15.178 90.3883 15.2158 90.3597 15.2536 90.3597C15.2536 89.9596 15.2536 89.5595 15.2536 89.1594ZM10.1742 42.9483C10.2025 42.4339 10.2308 42.0909 10.2403 41.748C10.2403 41.5765 10.212 41.4051 10.1742 41.005C10.0703 41.7766 9.90985 42.2624 10.1742 42.9483ZM7.94607 33.7461C7.99328 33.7747 8.04049 33.7747 8.09713 33.8032C8.09713 33.346 8.09713 32.8601 8.09713 32.4029C8.05937 32.4029 8.03105 32.4029 7.99328 32.3743C7.9744 32.8601 7.96496 33.2888 7.94607 33.7461ZM9.7871 229.193C9.92872 228.593 10.0043 228.336 10.0609 228.05C10.0798 227.936 10.0515 227.736 10.0231 227.336C9.91928 227.678 9.83431 227.85 9.79654 228.107C9.76822 228.279 9.7871 228.564 9.7871 229.193ZM7.2191 125.797C7.17189 125.768 7.12468 125.768 7.07748 125.74C7.09636 126.311 7.1058 126.854 7.12468 127.426C7.15301 127.426 7.19077 127.426 7.2191 127.426C7.2191 126.883 7.2191 126.34 7.2191 125.797ZM6.3505 216.704C6.41659 216.762 6.47324 216.819 6.53932 216.876C6.56765 216.533 6.60541 216.19 6.63374 215.847C6.63374 215.818 6.52988 215.704 6.52988 215.733C6.46379 216.047 6.40715 216.39 6.3505 216.704ZM9.71157 314.099C9.74933 314.214 9.77766 314.328 9.81542 314.471C9.89095 314.242 9.97592 314.014 10.042 313.756C10.042 313.756 9.96648 313.528 9.92872 313.413C9.86263 313.642 9.7871 313.871 9.71157 314.099ZM9.02237 39.5761C8.98461 39.7475 8.94684 39.919 8.91852 40.0905C9.00349 40.1476 9.08846 40.2619 9.17343 40.2619C9.22064 40.2619 9.30561 40.0333 9.29617 39.919C9.29617 39.6904 9.24896 39.4903 9.2112 39.2617C9.15455 39.3474 9.08846 39.4617 9.02237 39.5761ZM15.6784 174.923C15.6973 176.009 15.7067 176.58 16.0466 176.752C15.9239 176.152 15.8389 175.723 15.6784 174.923ZM16.1788 198.043C16.1316 198.043 16.0844 198.071 16.0372 198.071C16.0561 198.414 16.075 198.729 16.0938 199.072C16.1222 199.072 16.1599 199.043 16.1883 199.043C16.1788 198.7 16.1788 198.386 16.1788 198.043ZM15.4613 137.257C15.5557 137.114 15.6407 137.057 15.6501 136.971C15.669 136.742 15.6407 136.514 15.6312 136.256C15.5651 136.314 15.4613 136.342 15.4424 136.457C15.4141 136.657 15.4518 136.914 15.4613 137.257ZM15.433 227.021C15.4707 226.964 15.5179 226.935 15.5557 226.878C15.5179 226.507 15.4896 226.135 15.4518 225.764C15.4046 225.821 15.348 225.878 15.3008 225.935C15.348 226.307 15.3952 226.678 15.433 227.021ZM14.8759 19.1997C15.027 19.3426 15.0931 19.4855 15.1592 19.4569C15.2064 19.4569 15.2536 19.2569 15.2913 19.1711C15.2441 18.9997 15.1969 18.7425 15.1403 18.7139C15.0931 18.6853 15.027 18.9139 14.8759 19.1997ZM15.2441 79.8429C15.3008 79.8429 15.348 79.8429 15.4046 79.8429C15.3952 79.4999 15.3858 79.1856 15.3669 78.8426C15.3291 78.8426 15.2913 78.8712 15.2536 78.8712C15.2536 79.1856 15.2536 79.5285 15.2441 79.8429ZM8.91852 81.529C8.88075 81.4718 8.84299 81.4433 8.80522 81.3861C8.74858 81.7862 8.68249 82.1863 8.62584 82.5864C8.6636 82.6436 8.70137 82.6721 8.73913 82.7293C8.79578 82.3292 8.85243 81.9291 8.91852 81.529ZM15.1497 230.994C15.0742 230.794 15.027 230.565 14.9987 230.593C14.9515 230.622 14.8854 230.794 14.8759 230.936C14.8665 231.079 14.9137 231.251 14.942 231.422C14.9987 231.279 15.0647 231.165 15.1497 230.994ZM14.4888 71.3265C14.4322 71.298 14.3661 71.2694 14.3095 71.2694C14.3 71.6695 14.2906 72.041 14.2906 72.4411C14.3378 72.4411 14.385 72.4697 14.4322 72.4697C14.4416 72.0696 14.47 71.6981 14.4888 71.3265ZM14.0734 174.323C14.1206 173.951 14.1678 173.751 14.1584 173.523C14.1584 173.408 14.0829 173.265 14.0357 173.151C13.9979 173.351 13.9412 173.523 13.9224 173.751C13.9224 173.894 13.9979 174.037 14.0734 174.323ZM13.8374 183.839C13.7807 184.782 13.8279 185.183 13.9884 185.411C14.0073 185.44 14.064 185.354 14.1395 185.24C14.064 184.868 13.9884 184.497 13.8374 183.839ZM8.25763 179.438C8.30483 179.438 8.3426 179.467 8.3898 179.467C8.39925 178.952 8.40869 178.467 8.41813 177.952C8.38036 177.952 8.35204 177.924 8.31428 177.924C8.29539 178.438 8.27651 178.952 8.25763 179.438ZM13.8468 35.8895C13.8185 35.8895 13.7902 35.8895 13.7619 35.8895C13.7619 36.3467 13.7619 36.804 13.7619 37.2612C13.7902 37.2612 13.8185 37.2612 13.8468 37.2612C13.8468 36.8325 13.8468 36.3753 13.8468 35.8895ZM8.05936 218.391C8.08768 218.333 8.11601 218.248 8.14433 218.19C8.08768 217.933 8.03104 217.676 7.97439 217.39C7.93663 217.505 7.88942 217.59 7.85165 217.705C7.92718 217.933 7.99327 218.162 8.05936 218.391ZM13.8752 146.916C13.8279 146.802 13.7807 146.716 13.7241 146.602C13.6486 146.945 13.573 147.288 13.4975 147.631C13.5353 147.716 13.5636 147.774 13.6014 147.859C13.6958 147.545 13.7902 147.231 13.8752 146.916ZM7.33239 81.9291C7.38904 81.9577 7.44569 81.9577 7.51178 81.9863C7.51178 81.5862 7.51178 81.2146 7.51178 80.8146C7.47401 80.8146 7.43625 80.786 7.39848 80.786C7.37016 81.1861 7.35127 81.5576 7.33239 81.9291ZM7.46456 235.795C7.51177 235.795 7.55898 235.823 7.60618 235.823C7.60618 235.28 7.60618 234.737 7.60618 234.194C7.57786 234.194 7.54953 234.194 7.53065 234.166C7.50233 234.737 7.48345 235.28 7.46456 235.795ZM7.49289 143.23C7.45513 143.23 7.41736 143.201 7.3796 143.201C7.37015 143.573 7.35127 143.973 7.34183 144.344C7.3796 144.344 7.4268 144.373 7.46457 144.373C7.47401 144.001 7.48345 143.601 7.49289 143.23ZM12.8083 36.7182C12.8555 36.4039 12.9122 36.2038 12.9122 35.9752C12.9122 35.8609 12.8366 35.718 12.7989 35.6037C12.7517 35.8037 12.6856 35.9466 12.6667 36.1752C12.6572 36.261 12.7328 36.461 12.8083 36.7182ZM12.8555 64.8964C12.8838 64.725 12.9027 64.5821 12.931 64.4106C12.78 64.2963 12.6289 64.182 12.4873 64.0677C12.4779 64.1534 12.4684 64.2391 12.459 64.3249C12.5912 64.5249 12.7233 64.725 12.8555 64.8964ZM12.053 138.428C12.1285 138.628 12.1757 138.829 12.2418 138.914C12.2701 138.943 12.3268 138.743 12.374 138.628C12.3174 138.428 12.2607 138.228 12.2041 138.028C12.1663 138.143 12.1191 138.257 12.053 138.428ZM6.44492 33.0316C6.39771 33.0316 6.34107 33.0316 6.29386 33.0316C6.32219 33.546 6.35995 34.0319 6.38827 34.5463C6.4166 34.5177 6.45436 34.5177 6.48269 34.4891C6.47324 34.0319 6.45436 33.5175 6.44492 33.0316ZM5.84068 156.833C5.85956 156.661 5.87844 156.518 5.89732 156.347C5.79347 156.233 5.69906 156.147 5.59521 156.033C5.57632 156.204 5.548 156.547 5.55744 156.547C5.64241 156.69 5.74626 156.776 5.84068 156.833ZM11.4676 295.409C11.4204 295.723 11.3732 295.923 11.3732 296.152C11.3732 296.266 11.4393 296.409 11.4865 296.552C11.5337 296.324 11.5904 296.095 11.6187 295.838C11.6187 295.781 11.5432 295.609 11.4676 295.409ZM4.41505 307.812C4.45281 307.783 4.49058 307.783 4.52834 307.755C4.5189 307.469 4.5189 307.155 4.49058 306.869C4.49058 306.84 4.38672 306.869 4.33008 306.869C4.3584 307.183 4.38672 307.498 4.41505 307.812ZM10.4952 199.786C10.5613 199.557 10.6179 199.386 10.6368 199.186C10.6557 199.072 10.599 198.9 10.5707 198.757C10.5046 198.929 10.4291 199.1 10.3725 199.3C10.363 199.3 10.4291 199.529 10.4952 199.786ZM10.5802 239.939C10.533 239.881 10.4952 239.824 10.448 239.796C10.4008 240.167 10.3536 240.567 10.3064 240.939C10.3441 240.996 10.3819 241.025 10.4197 241.082C10.4763 240.71 10.5235 240.31 10.5802 239.939ZM10.3536 233.68C10.2875 233.508 10.2308 233.337 10.1648 233.28C10.1459 233.251 10.0515 233.566 10.0609 233.594C10.1081 233.794 10.1742 233.994 10.2308 234.194C10.2592 234.023 10.2969 233.909 10.3536 233.68ZM6.5771 83.358C6.6243 83.158 6.69039 83.0151 6.68095 82.8722C6.68095 82.7293 6.60542 82.615 6.56765 82.4721C6.52045 82.6436 6.4638 82.7865 6.43548 82.9865C6.43548 83.0437 6.52045 83.2151 6.5771 83.358ZM9.78711 150.231C9.82487 150.26 9.8532 150.317 9.89096 150.346C9.91928 150.06 9.94761 149.803 9.96649 149.517C9.96649 149.488 9.9004 149.402 9.87208 149.374C9.84375 149.66 9.81543 149.945 9.78711 150.231ZM7.98383 198.586C7.99327 198.414 8.01216 198.271 8.0216 198.1C7.9083 198.043 7.79501 197.986 7.68171 197.928C7.67227 198.043 7.66283 198.129 7.65339 198.243C7.76668 198.357 7.87998 198.471 7.98383 198.586ZM7.23798 66.6397C7.38904 66.7826 7.46457 66.8969 7.54954 66.8969C7.58731 66.8969 7.68172 66.6397 7.67228 66.5825C7.64395 66.3825 7.59675 66.1825 7.5401 66.0396C7.53066 66.011 7.44569 66.211 7.23798 66.6397ZM8.6636 109.421C8.62584 109.307 8.59752 109.193 8.55975 109.078C8.53143 109.164 8.48422 109.279 8.48422 109.336C8.49366 109.479 8.54087 109.621 8.56919 109.764C8.59752 109.65 8.6164 109.564 8.6636 109.421ZM14.6493 103.877C14.621 103.849 14.5927 103.849 14.5644 103.82C14.536 104.163 14.4983 104.535 14.47 104.906C14.5077 104.935 14.536 104.963 14.5738 104.992C14.5927 104.592 14.621 104.249 14.6493 103.877ZM14.7721 162.691C14.8854 162.434 14.9609 162.32 14.9892 162.148C15.0081 162.034 14.9703 161.691 14.9515 161.691C14.8854 161.691 14.791 161.72 14.7532 161.834C14.7249 161.977 14.7626 162.263 14.7721 162.691ZM11.5337 152.775C11.4771 152.603 11.4393 152.518 11.3921 152.403C11.3638 152.575 11.3355 152.718 11.326 152.889C11.326 152.975 11.3732 153.089 11.3921 153.175C11.4299 153.061 11.4771 152.946 11.5337 152.775ZM11.3827 127.826C11.4204 127.826 11.4488 127.854 11.4865 127.854C11.4865 127.512 11.4865 127.169 11.4865 126.826C11.4676 126.826 11.4488 126.826 11.4299 126.826C11.4204 127.169 11.4016 127.483 11.3827 127.826ZM11.6565 46.3777C11.6187 46.3491 11.5809 46.3491 11.5432 46.3205C11.5337 46.6063 11.5149 46.8921 11.5054 47.2065C11.5432 47.235 11.5809 47.235 11.6187 47.2636C11.6281 46.9493 11.6376 46.6635 11.6565 46.3777ZM12.289 93.9606C12.374 93.6748 12.4306 93.5605 12.4306 93.4176C12.4401 93.2461 12.3929 93.0746 12.374 92.9032C12.3268 92.9603 12.2324 93.0175 12.2324 93.0746C12.2324 93.3033 12.2607 93.5319 12.289 93.9606ZM6.56765 198.1C6.52988 198.071 6.49212 198.014 6.4638 197.986C6.42603 198.243 6.37883 198.529 6.34106 198.786C6.38827 198.843 6.44491 198.929 6.49212 198.986C6.52044 198.671 6.53933 198.386 6.56765 198.1ZM13.1576 180.61C13.2048 180.639 13.252 180.639 13.2992 180.667C13.2992 180.381 13.2992 180.096 13.2992 179.838C13.2709 179.838 13.2426 179.81 13.2143 179.81C13.1954 180.067 13.1765 180.324 13.1576 180.61ZM14.9987 73.4699C15.0553 73.4699 15.112 73.4413 15.1686 73.4413C15.1403 73.0984 15.1214 72.784 15.0931 72.4411C15.0553 72.4697 15.0175 72.4697 14.9798 72.4983C14.9798 72.8126 14.9892 73.1556 14.9987 73.4699ZM9.38113 131.627C9.28672 131.484 9.22063 131.341 9.1451 131.312C9.11678 131.312 9.06958 131.541 9.03181 131.655C9.10734 131.798 9.18287 131.97 9.2584 132.084C9.26784 132.113 9.32449 131.855 9.38113 131.627ZM3.09328 284.006C3.15937 284.121 3.19713 284.206 3.24434 284.292C3.26322 284.178 3.30098 284.063 3.30098 283.978C3.29154 283.835 3.24434 283.692 3.21601 283.549C3.18769 283.663 3.14992 283.806 3.09328 284.006ZM14.215 94.132C14.1678 94.132 14.1206 94.1035 14.0734 94.1035C14.0734 94.3892 14.0734 94.7036 14.0734 94.9894C14.1017 94.9894 14.1301 95.018 14.1584 95.018C14.1867 94.7322 14.2056 94.4178 14.215 94.132ZM2.78172 279.548C2.72507 279.405 2.6873 279.205 2.64954 279.205C2.60233 279.205 2.56457 279.405 2.51736 279.491C2.56457 279.634 2.61177 279.805 2.65898 279.948C2.6873 279.834 2.72507 279.72 2.78172 279.548ZM12.2985 105.535C12.2513 105.535 12.2041 105.563 12.1569 105.563C12.1757 105.906 12.1946 106.221 12.2135 106.564C12.2418 106.564 12.2701 106.535 12.2985 106.535C12.2985 106.192 12.2985 105.878 12.2985 105.535ZM11.4016 132.37C11.4393 132.227 11.4865 132.113 11.4865 132.055C11.4582 131.913 11.4204 131.798 11.3827 131.684C11.3638 131.77 11.3166 131.884 11.3166 131.941C11.326 132.084 11.3638 132.227 11.4016 132.37ZM7.35127 224.992C7.44568 225.106 7.51177 225.221 7.56842 225.221C7.61562 225.192 7.68171 224.992 7.68171 224.849C7.68171 224.706 7.61562 224.563 7.57786 224.421C7.52121 224.535 7.48345 224.649 7.35127 224.992ZM7.49289 263.316C7.54009 263.23 7.60618 263.144 7.59674 263.116C7.5873 262.944 7.55897 262.801 7.53065 262.658C7.50233 262.715 7.44568 262.773 7.44568 262.83C7.45512 262.973 7.48344 263.144 7.49289 263.316ZM7.15301 160.662C7.19077 160.377 7.21909 160.205 7.21909 160.062C7.21909 159.948 7.18133 159.862 7.15301 159.748C7.11524 159.862 7.04915 159.976 7.03971 160.091C7.04915 160.234 7.09636 160.405 7.15301 160.662ZM9.90984 306.469C9.95704 306.355 9.97592 306.297 10.0042 306.212C9.96648 306.097 9.92872 305.954 9.89095 305.84C9.88151 305.84 9.80598 306.012 9.81542 306.04C9.84375 306.183 9.88151 306.326 9.90984 306.469ZM6.63374 103.763C6.70927 103.506 6.7848 103.363 6.77536 103.277C6.75648 103.077 6.69983 102.906 6.66206 102.706C6.6243 102.82 6.54877 102.934 6.54877 103.048C6.54877 103.249 6.58654 103.449 6.63374 103.763ZM6.59598 138.486C6.6243 138.314 6.66206 138.171 6.6715 138C6.6715 137.943 6.6243 137.828 6.60542 137.743C6.57709 137.885 6.52989 138 6.52045 138.143C6.511 138.228 6.55821 138.343 6.59598 138.486ZM6.27497 145.83C6.42603 145.63 6.50156 145.63 6.52989 145.516C6.55821 145.344 6.53933 145.116 6.54877 144.916C6.52045 144.887 6.49212 144.887 6.4638 144.859C6.40715 145.087 6.36939 145.316 6.27497 145.83ZM5.79347 57.809C5.84068 57.7519 5.90677 57.7519 5.90677 57.6947C5.91621 57.5232 5.90677 57.3518 5.89733 57.2089C5.85012 57.2374 5.77459 57.266 5.76515 57.3518C5.75571 57.4661 5.77459 57.6375 5.79347 57.809ZM5.52912 127.626C5.59521 127.254 5.65185 127.054 5.6613 126.854C5.67074 126.768 5.58577 126.654 5.548 126.54C5.51024 126.683 5.45359 126.826 5.43471 126.969C5.43471 127.111 5.48191 127.283 5.52912 127.626ZM9.23008 114.708C9.29617 114.908 9.34337 115.051 9.39058 115.137C9.40946 115.166 9.49443 114.88 9.48499 114.823C9.46611 114.651 9.4189 114.48 9.36225 114.423C9.34337 114.394 9.29617 114.594 9.23008 114.708ZM9.52276 49.8928C9.40002 49.6642 9.35281 49.5499 9.30561 49.5213C9.29617 49.5213 9.23952 49.7214 9.23952 49.8071C9.24896 49.95 9.28673 50.2072 9.31505 50.2072C9.38114 50.1786 9.42835 50.0357 9.52276 49.8928ZM4.76437 244.54C4.80214 244.397 4.85879 244.282 4.84935 244.254C4.83046 244.111 4.7927 243.968 4.75493 243.825C4.72661 243.911 4.6794 243.997 4.68885 244.054C4.69829 244.225 4.73605 244.368 4.76437 244.54ZM9.32449 122.768C9.2584 122.625 9.22064 122.51 9.17343 122.482C9.16399 122.482 9.0979 122.653 9.10734 122.739C9.11678 122.882 9.15455 123.025 9.17343 123.168C9.22064 123.053 9.2584 122.939 9.32449 122.768ZM9.00348 221.534C9.04125 221.277 9.0979 221.105 9.08845 220.963C9.08845 220.848 9.01292 220.734 8.97516 220.648C8.93739 220.791 8.89019 220.934 8.88075 221.105C8.88075 221.22 8.94684 221.334 9.00348 221.534ZM15.3763 186.269C15.3385 186.326 15.3008 186.383 15.263 186.469C15.3385 186.754 15.4046 187.012 15.4802 187.297C15.5085 187.24 15.5274 187.183 15.5557 187.126C15.499 186.84 15.433 186.554 15.3763 186.269ZM15.3385 31.2312C15.3763 30.9454 15.4046 30.7739 15.4046 30.631C15.4046 30.5453 15.3574 30.4596 15.3291 30.3453C15.2913 30.4596 15.2347 30.5739 15.2253 30.6882C15.2253 30.8025 15.2819 30.9454 15.3385 31.2312ZM15.3858 76.4421C15.348 76.4706 15.3197 76.4992 15.2819 76.4992C15.3008 76.785 15.3197 77.0708 15.3385 77.3852C15.3763 77.3566 15.4046 77.3566 15.4424 77.328C15.4235 77.0422 15.4046 76.7564 15.3858 76.4421ZM14.9231 111.622C14.9326 111.365 14.9515 111.193 14.942 111.05C14.9326 110.965 14.8665 110.85 14.857 110.85C14.8193 110.936 14.7626 111.108 14.7721 111.193C14.791 111.365 14.8476 111.451 14.9231 111.622ZM14.7532 29.2021C14.7249 29.2021 14.6965 29.2021 14.6588 29.1735C14.6493 29.5165 14.6399 29.8309 14.6305 30.1738C14.6682 30.1738 14.7154 30.2024 14.7532 30.2024C14.7532 29.8594 14.7532 29.5451 14.7532 29.2021ZM13.7052 97.9044C13.7524 97.933 13.7996 97.933 13.8468 97.9615C13.8468 97.6472 13.8468 97.3328 13.8468 97.0184C13.8185 97.0184 13.7807 96.9899 13.7524 96.9899C13.743 97.2756 13.7241 97.59 13.7052 97.9044ZM8.78634 117.595C8.73913 117.509 8.69193 117.395 8.67304 117.423C8.64472 117.481 8.6164 117.623 8.60696 117.738C8.60696 117.823 8.64472 117.909 8.6636 117.995C8.71081 117.852 8.74857 117.738 8.78634 117.595ZM8.44646 95.9611C8.48422 95.8182 8.53143 95.6753 8.53143 95.6753C8.49366 95.5324 8.44646 95.4181 8.40869 95.3037C8.38981 95.3895 8.33316 95.5038 8.3426 95.561C8.37093 95.7038 8.40869 95.8182 8.44646 95.9611ZM7.28518 178.352C7.29462 178.238 7.30407 178.124 7.32295 178.009C7.28518 178.009 7.24742 177.981 7.21909 178.009C7.20965 178.009 7.20021 178.152 7.20021 178.181C7.22854 178.238 7.25686 178.295 7.28518 178.352ZM6.60542 27.9733C6.58654 27.8875 6.5771 27.7446 6.55822 27.7161C6.52989 27.6875 6.49213 27.7732 6.4638 27.8304C6.48268 27.9161 6.49213 28.059 6.51101 28.0876C6.53933 28.0876 6.5771 28.0018 6.60542 27.9733ZM6.67151 65.2965C6.63374 65.1822 6.58654 65.0965 6.53933 64.9822C6.52045 65.0965 6.47324 65.2394 6.48268 65.2965C6.50157 65.4394 6.54877 65.5537 6.58654 65.668C6.6243 65.5823 6.64318 65.468 6.67151 65.2965ZM5.97285 243.797C5.95397 243.711 5.94453 243.568 5.92564 243.539C5.89732 243.511 5.85956 243.597 5.83123 243.654C5.85011 243.739 5.85956 243.882 5.87844 243.911C5.89732 243.911 5.93509 243.825 5.97285 243.797ZM5.04761 261.515C5.09482 261.63 5.14202 261.772 5.1609 261.744C5.20811 261.658 5.24588 261.544 5.28364 261.429C5.25532 261.372 5.21755 261.229 5.18923 261.258C5.14202 261.258 5.09482 261.401 5.04761 261.515ZM4.68884 323.273C4.66052 323.33 4.64163 323.387 4.61331 323.444C4.66052 323.644 4.71717 323.844 4.76437 324.073C4.7927 324.016 4.82102 323.959 4.84934 323.873C4.79269 323.673 4.73605 323.473 4.68884 323.273ZM4.38673 222.877C4.41505 222.934 4.44337 223.02 4.48114 223.049C4.49058 223.049 4.52834 222.963 4.52834 222.963C4.5189 222.877 4.49058 222.763 4.48114 222.677C4.44337 222.734 4.41505 222.792 4.38673 222.877ZM4.1979 322.616C4.22622 322.558 4.28287 322.53 4.29231 322.444C4.30175 322.358 4.27343 322.216 4.25455 322.13C4.20734 322.216 4.16957 322.273 4.12237 322.358C4.15069 322.444 4.16957 322.53 4.1979 322.616ZM4.06572 229.736C4.10349 229.622 4.13181 229.565 4.16014 229.479C4.12237 229.365 4.08461 229.25 4.0374 229.165C4.02796 229.136 3.96187 229.336 3.96187 229.336C3.99019 229.479 4.02796 229.593 4.06572 229.736ZM13.5164 55.4942C13.5447 55.6371 13.573 55.7799 13.6014 55.9228C13.6297 55.8657 13.6863 55.7514 13.6863 55.7228C13.6675 55.5513 13.6391 55.4084 13.6108 55.2655C13.5825 55.3227 13.5542 55.3799 13.5164 55.4942ZM13.4881 79.2427C13.4503 79.3571 13.3937 79.4428 13.3937 79.4714C13.4031 79.6143 13.4314 79.7571 13.4597 79.9286C13.4881 79.8715 13.5447 79.7857 13.5353 79.7286C13.5353 79.5857 13.507 79.4142 13.4881 79.2427ZM13.252 151.689C13.2898 151.689 13.3276 151.66 13.3748 151.66C13.3559 151.374 13.3464 151.117 13.3276 150.831C13.2992 150.831 13.2804 150.86 13.252 150.86C13.252 151.117 13.252 151.403 13.252 151.689ZM15.2819 183.468C15.3102 183.411 15.3574 183.354 15.3574 183.268C15.3574 183.153 15.3291 183.039 15.3102 182.925C15.2819 182.982 15.2347 183.039 15.2347 183.096C15.2347 183.239 15.263 183.354 15.2819 183.468ZM14.4605 84.9298C14.5077 84.8155 14.5644 84.7012 14.5644 84.7012C14.5455 84.5583 14.5077 84.444 14.4794 84.3011C14.4511 84.3583 14.3944 84.444 14.3944 84.5012C14.4039 84.644 14.4322 84.7869 14.4605 84.9298ZM11.6565 277.062C11.6753 276.862 11.6942 276.69 11.7131 276.519C11.6753 276.49 11.6281 276.404 11.6093 276.462C11.5809 276.547 11.5621 276.69 11.5621 276.805C11.5715 276.862 11.6093 276.947 11.6565 277.062ZM15.8673 120.138C15.9333 120.253 15.9805 120.338 16.0278 120.396C16.0372 120.396 16.0938 120.195 16.0844 120.11C16.075 119.967 16.0278 119.853 15.9994 119.71C15.9617 119.824 15.9239 119.938 15.8673 120.138ZM11.3449 165.464C11.3166 165.435 11.2788 165.406 11.2505 165.406C11.2411 165.406 11.2222 165.521 11.2316 165.549C11.2505 165.635 11.2788 165.692 11.3071 165.778C11.3166 165.664 11.326 165.578 11.3449 165.464ZM11.3921 310.984C11.3543 310.984 11.3166 310.984 11.2788 310.984C11.2694 311.241 11.2599 311.47 11.241 311.727C11.2694 311.756 11.3071 311.756 11.3355 311.784C11.3638 311.499 11.3732 311.241 11.3921 310.984ZM14.3189 49.8928C14.2339 49.7785 14.1867 49.6642 14.1395 49.6642C14.1112 49.6642 14.0734 49.8071 14.0451 49.8642C14.0734 49.9786 14.1112 50.2072 14.1395 50.2072C14.1867 50.2358 14.2339 50.0643 14.3189 49.8928ZM10.4386 128.197C10.4008 128.169 10.3725 128.14 10.3347 128.112C10.3064 128.369 10.2875 128.655 10.2592 128.912C10.2875 128.94 10.3253 128.969 10.3536 128.998C10.3913 128.74 10.4102 128.455 10.4386 128.197ZM10.278 220.162C10.3064 220.162 10.3253 220.162 10.3536 220.162C10.3441 219.877 10.3441 219.562 10.3347 219.276C10.3158 219.276 10.2969 219.276 10.278 219.276C10.278 219.562 10.278 219.877 10.278 220.162ZM10.0609 113.394C10.0987 113.251 10.1553 113.137 10.1459 113.079C10.1176 112.937 10.0798 112.822 10.042 112.708C10.0137 112.794 9.96649 112.908 9.97593 112.937C9.99481 113.137 10.0326 113.251 10.0609 113.394ZM10.0987 223.392C10.1175 223.22 10.127 223.049 10.1364 222.906C10.0987 222.906 10.0515 222.849 10.0326 222.906C10.0043 222.963 9.99481 223.106 9.99481 223.22C10.0043 223.277 10.0515 223.306 10.0987 223.392ZM15.82 154.575C15.8673 154.718 15.9145 154.89 15.9617 155.032C15.9994 155.004 16.0655 154.975 16.0655 154.918C16.075 154.747 16.0561 154.547 16.0466 154.375C15.9617 154.432 15.8861 154.489 15.82 154.575ZM10.0892 231.308C10.0609 231.337 10.042 231.365 10.0137 231.394C10.042 231.651 10.0703 231.908 10.0892 232.165C10.1175 232.137 10.1459 232.108 10.1742 232.08C10.1459 231.822 10.1175 231.565 10.0892 231.308ZM9.73046 96.9041C9.75879 96.847 9.80599 96.7612 9.80599 96.7041C9.80599 96.6184 9.76823 96.504 9.74934 96.4183C9.72102 96.4755 9.67381 96.5612 9.67381 96.6184C9.67381 96.7041 9.71158 96.8184 9.73046 96.9041ZM14.1584 193.327C14.1773 193.242 14.1962 193.127 14.215 193.042C14.1867 193.013 14.1489 192.956 14.1206 192.927C14.1112 192.927 14.0923 193.042 14.0923 193.07C14.1017 193.184 14.1301 193.242 14.1584 193.327ZM9.44722 315.414C9.49442 315.528 9.54163 315.671 9.55107 315.671C9.59828 315.557 9.63604 315.414 9.6738 315.271C9.64548 315.214 9.59828 315.1 9.57939 315.128C9.53219 315.185 9.49442 315.3 9.44722 315.414ZM3.53701 320.272C3.50869 320.215 3.48037 320.158 3.45204 320.129C3.41428 320.358 3.36707 320.558 3.32931 320.787C3.35763 320.844 3.38595 320.901 3.41428 320.958C3.46148 320.701 3.49925 320.501 3.53701 320.272ZM15.3385 53.5223C15.3858 53.5223 15.4235 53.5223 15.4707 53.4937C15.4424 53.2079 15.4141 52.8935 15.3763 52.6078C15.348 52.6363 15.3197 52.6649 15.2913 52.6649C15.3102 52.9793 15.3197 53.2365 15.3385 53.5223Z" fill="#FF9E44"/>
</svg>
