<svg width="23" height="329" viewBox="0 0 23 329" fill="none" xmlns="http://www.w3.org/2000/svg">
<path d="M12.0454 4.56837C12.1962 4.97203 12.332 5.37286 12.5237 5.89143C12.69 5.84235 12.9167 5.7779 13.1889 5.69522C13.4707 6.20398 13.6642 6.66927 13.4677 7.59707C13.3425 8.18991 13.5818 9.06589 13.691 10.239C13.9498 9.24247 14.139 8.52768 14.3477 7.68257C14.5039 7.92644 14.6267 8.27121 14.7457 8.29363C15.5514 8.36509 15.4738 9.31537 15.5133 10.3413C15.569 12.2011 15.6991 14.075 15.7994 15.9432C15.4439 16.707 15.2064 17.5199 15.6028 18.6131C16.1701 17.782 15.8742 16.8149 15.7855 15.9137C15.9978 14.9621 16.2092 14.0371 16.4067 13.0827C16.4621 16.2557 16.235 19.3755 16.0711 22.4C16.4506 23.1148 16.8161 23.8001 17.1676 24.4561C17.2132 24.4379 17.2587 24.4196 17.3051 24.3748C17.1896 23.817 17.154 23.1134 16.9586 22.7013C16.6926 22.1688 16.6952 21.66 16.8436 21.2592C17.1889 20.3594 17.1484 19.3601 17.0783 18.3552C16.934 16.0231 17.1736 13.8437 17.5173 11.6839C17.6164 10.979 17.7908 10.2614 18.3409 10.3651L18.327 10.3356C18.56 11.8269 18.0587 12.9116 17.7146 14.2137C18.187 14.8387 18.1316 15.5788 17.804 16.4015C17.6731 16.7252 17.6129 17.1695 17.614 17.5717C17.6053 18.6958 17.6718 19.8072 17.6928 20.9368C17.7099 21.7441 17.6833 22.5163 17.6856 23.3208C17.6888 24.0987 17.6928 24.8499 17.7008 25.9235C18.0927 25.4077 18.1675 24.5373 18.6742 25.0349C18.7904 25.1372 19.0958 24.5248 19.2834 24.2921C19.6221 25.3208 19.9487 26.2669 20.3014 27.325C20.1081 27.2886 19.9743 27.2634 19.8554 27.2409C19.7025 28.2038 19.5199 29.161 19.4117 30.1323C19.3673 30.5527 19.4084 31.0965 19.5303 31.4679C19.8114 32.4322 19.7784 33.3908 19.7957 34.627C19.3197 34.1084 18.973 33.7482 18.5109 33.2591C18.5151 32.2682 17.6493 30.8989 18.603 29.7118C18.8641 29.5198 19.0237 29.2283 18.8449 28.3369C18.7476 28.9886 18.6753 29.3502 18.617 29.7412C18.5221 29.4553 18.4262 29.1961 18.3592 28.969C17.3067 29.5479 17.2511 29.859 17.604 31.346C17.7753 32.0215 17.8546 32.7601 17.9804 33.4539C18.0568 33.8435 18.1323 34.2598 18.2199 34.7587C18.4948 34.5961 18.7243 34.4518 18.9686 34.3102C19.4905 35.6683 18.928 36.7951 18.9629 37.9542C18.2503 38.2219 18.0834 36.9844 17.6335 36.5779C17.7065 35.7608 17.55 35.0881 17.1809 34.5093C17.1468 35.0657 17.1572 35.6305 17.243 36.1827C17.2672 36.3481 17.5033 36.4462 17.6493 36.5541C17.8196 37.2563 17.5776 38.2023 18.114 38.7054C18.1577 38.7405 18.0799 39.2619 18.0549 39.552C17.5656 40.2906 17.5269 40.9801 18.0136 42.4924C18.026 41.2618 18.0256 40.4041 18.041 39.5225C18.4338 38.9802 18.7462 39.4679 19.1033 39.964C19.4481 38.2065 19.0902 35.9949 20.2345 34.9241C20.39 35.6235 20.5613 36.299 20.7811 37.3053C20.4446 37.0811 20.3126 37.0026 20.1806 36.9241C19.8004 36.6648 19.611 36.9507 19.5732 37.6137C19.5474 37.9304 19.5197 38.3004 19.6007 38.5569C20.0595 40.0103 19.7805 41.5926 19.969 43.0754C19.9792 43.2114 19.93 43.3361 19.8911 43.5968C19.2747 42.8105 19.7545 41.4805 19.3025 40.6984C18.9625 41.0096 19.0362 41.4791 19.1247 41.9514C19.215 42.3704 19.455 42.7909 19.1235 43.2912C19.0137 43.0025 18.9039 42.7138 18.7113 42.2219C18.6632 42.7488 18.5788 43.0278 18.6143 43.3025C18.6751 44.1448 18.8638 44.3144 19.7596 44.376C19.7227 45.0123 19.8885 45.8476 19.2231 45.615C18.8681 45.4944 18.7614 45.9836 18.7003 46.4545C18.6402 46.8988 18.6376 47.4076 18.5774 47.8518C18.534 48.2457 18.4459 48.6311 18.3726 49.0193C19.0205 49.329 19.0818 49.287 19.1399 48.4671C19.1777 47.8042 19.1866 47.109 19.2205 46.1237C19.4001 46.5596 19.5424 46.7741 19.5796 46.9955C19.8275 48.4895 19.9268 49.9555 19.4294 51.3627C19.2633 51.8406 19.3129 52.5736 19.2611 53.2071C19.3755 53.3627 19.5178 53.5771 19.6749 53.7943C19.5841 54.2596 19.4951 54.6717 19.4219 55.0599C19.7364 55.9232 19.9441 55.1048 20.3492 55.0739C20.1312 55.7565 19.8443 56.2652 19.7944 56.8454C19.7436 57.4523 19.9298 58.1307 20.0231 58.8987C19.9126 59.0655 19.7556 59.2771 19.5838 59.4859C19.4043 59.0501 19.2526 58.6731 19.087 58.2666C18.8191 59.5294 18.8637 65.193 19.1386 66.7725C18.4697 67.0752 18.6291 68.097 18.661 68.907C18.709 70.1222 19.1786 70.8271 19.8061 71.2938C19.7507 72.0338 19.5251 72.5005 19.1694 72.8355L19.1833 72.865C19.3222 71.8727 18.8965 71.6316 18.5228 71.1859C18.3587 72.0394 18.2123 72.8159 18.064 73.6456C18.7804 73.7003 18.2829 74.6786 18.4029 75.1032C18.7069 75.4017 18.9533 75.6358 19.1996 75.8698C19.1951 76.003 19.2063 76.1123 19.2017 76.2454C18.8366 76.4178 18.4575 76.5608 18.0627 76.7276C17.8948 77.2588 17.7083 77.8937 17.4884 78.6295C18.1193 78.5608 18.6741 78.5314 19.41 78.4557C19.3136 79.0808 19.2962 79.5867 19.1654 79.9105C18.3793 81.8796 18.0466 83.7198 18.1249 86.2272C17.9707 86.3589 17.7097 86.5509 17.4636 86.7457C17.5045 86.8607 17.5594 87.005 17.6003 87.1199C17.7973 87.0499 17.9794 86.977 18.1606 86.9307C18.4108 87.4871 17.9903 88.3995 17.1571 89.1269C17.1166 89.8697 17.2804 90.3294 17.7255 90.4402L17.7116 90.4107C17.5047 91.2026 17.389 91.958 18.2728 92.3659C17.8883 92.6686 17.7666 92.7261 17.657 92.8662C17.2976 93.3077 17.3127 93.7394 17.6864 94.1851C18.1336 94.6714 18.4975 95.8389 18.3632 96.698C18.0715 98.6531 18.1059 100.697 18.0223 102.691C17.9781 103.54 17.9042 104.384 17.8609 105.207C17.8462 105.633 17.8316 106.059 17.8922 106.472C18.0255 107.382 17.9813 108.231 17.8898 109.152C17.7602 110.307 17.8965 111.565 17.4863 112.614C17.4046 112.813 17.4643 113.253 17.5286 113.56C17.7614 114.622 17.5703 115.39 17.1144 116.028C17.3498 116.582 17.5712 117.106 17.8623 117.777C17.9401 117.256 17.9845 116.835 18.0596 116.394C18.147 116.464 18.2511 116.483 18.3069 116.601C18.5878 117.137 18.682 117.878 18.4703 118.374C17.7556 120.008 17.9145 121.914 18.0771 123.714C18.206 125.186 18.176 126.493 17.8923 127.78C17.7847 128.296 17.5155 128.727 17.2537 129.375C17.2791 129.942 17.6879 129.805 18.0086 130.053C17.9855 130.29 17.9921 130.532 17.9393 130.764C17.8864 130.995 17.7899 131.191 17.6906 131.467C17.8543 131.927 18.0181 132.387 18.154 132.787C17.9425 133.712 17.7487 134.56 17.5188 135.589C17.2939 135.6 16.8552 135.303 16.8037 136.366C17.2591 136.612 17.7276 136.915 17.52 138.162C17.2709 138.008 17.0367 137.857 16.7151 137.635C16.7599 138.073 16.7917 138.454 16.8383 138.838C17.0771 138.856 17.2862 138.869 17.4804 138.878C17.6558 140.305 16.8963 141.502 17.4741 142.978C17.1943 142.845 17.0326 142.761 16.7379 142.625C17.3827 144.328 16.7673 145.686 16.6695 147.222C16.4261 147.337 16.1827 147.452 15.8474 147.63C15.9956 148.542 16.1307 149.398 16.265 150.281C16.6561 150.221 16.9581 150.144 16.7905 149.362C16.648 148.719 16.7416 148.173 16.9653 147.76C17.0767 147.567 17.2867 147.553 17.5162 147.408C17.4731 148.66 17.6103 149.892 17.3588 150.675C16.9237 152.014 17.2189 153.436 17.0542 154.745C16.7423 157.286 17.1328 159.852 17.0904 162.391C17.0748 162.843 17.2386 163.303 17.3122 163.772C16.8594 165.188 16.8585 165.215 17.4416 166.102C17.24 166.305 17.0534 166.511 16.8825 166.693C16.8761 166.88 16.8399 167.06 16.8539 167.09C17.2592 167.488 17.3097 168.194 17.1557 168.755C16.9146 169.674 17.1065 170.622 17.0604 171.524C17.0245 172.134 16.9588 172.738 16.9071 173.372C16.884 173.608 16.7977 173.941 16.8535 174.058C17.26 174.859 16.9527 175.524 16.823 176.25C16.7303 176.769 16.6674 177.293 16.5683 177.998C16.8842 177.95 17.0505 177.901 17.2159 177.879L17.202 177.849C17.209 178.95 16.8592 179.983 17.1329 181.16C17.186 181.357 17.1286 181.722 17.0469 181.921C16.593 182.934 16.6819 184.264 16.478 185.405C16.3863 185.897 16.5148 186.511 16.555 187.081C16.5662 187.191 16.636 187.338 16.6202 187.362C16.1617 188.508 16.5961 189.367 16.9227 190.313C17.0595 190.687 17.1128 191.314 17.0395 191.702C16.7995 193.024 17.0893 194.606 16.4672 195.722C16.5376 197.156 16.2299 198.706 16.815 199.968C17.2475 200.881 17.3195 201.832 17.3117 202.93C17.2898 205.74 17.3423 208.564 17.365 211.382C17.3616 211.918 17.3293 212.421 17.3027 213.193C17.0081 213.057 16.772 212.959 16.5359 212.861C17.1344 211.125 17.1418 210.912 16.5706 209.678C16.3231 210.784 16.2288 211.785 16.5517 212.837C16.5583 213.08 16.5009 213.444 16.5576 213.535C16.8589 213.914 17.1768 214.242 17.5524 214.634C17.3493 215.319 17.1804 215.877 17.0107 216.462C16.7709 216.47 16.5033 216.42 16.4822 217.032C16.4474 218.044 16.3986 219.026 16.4242 220.023C16.4571 220.806 16.5941 221.609 16.9717 222.378C16.9985 222.034 17.0188 221.877 17.0234 221.744C17.0096 219.972 17.0106 218.204 16.9967 216.432C17.3295 216.763 17.4329 217.238 17.4249 217.907C17.4161 219.031 17.438 220.134 17.459 221.263C17.4905 222.958 17.2283 224.49 16.848 225.972C16.7274 226.432 16.5938 226.836 16.817 227.307C17.4737 228.663 17.1621 229.891 16.7427 231.206C17.0243 231.286 17.2753 231.387 17.6015 231.475C17.4582 233.029 17.8818 234.637 17.3928 236.233C17.1906 236.892 17.5099 238.051 17.5819 239.002C17.6034 239.248 17.6965 239.587 17.6473 239.712C17.2936 240.422 17.4566 241.337 17.4134 242.16C17.3196 242.276 17.2406 242.396 17.1459 242.539C17.1887 242.6 17.2315 242.662 17.2594 242.721C17.2965 242.513 17.3326 242.333 17.3845 242.128C17.9015 242.761 18.071 243.49 18.0446 244.691C17.9743 247.171 18.0972 249.686 18.1616 252.164C18.2306 254.509 18.3302 256.833 18.4298 259.156C18.4636 259.913 18.5569 260.681 18.6344 261.473C18.5322 261.4 18.3704 261.316 18.165 261.197C18.1508 262.481 18.1699 263.664 18.5199 264.802C18.5869 265.029 18.7273 265.297 18.7051 265.507C18.5268 267.644 19.2285 269.867 18.7213 271.996C18.6684 272.227 18.6259 272.594 18.6947 272.768C19.1432 274.086 18.9023 275.434 18.8704 276.795C18.8649 276.955 18.8427 277.165 18.8846 277.253C19.4008 278.342 19.3234 279.721 19.4012 280.942C19.507 282.65 19.8359 284.401 19.5821 286.122C19.5043 286.643 19.4738 287.093 19.6952 287.617C19.8618 287.997 19.8704 288.615 19.9125 289.132C20.0284 290.548 19.8739 291.993 20.2147 293.397C20.2529 293.592 20.1824 293.9 20.1147 294.129C19.8465 294.963 19.8758 295.853 20.1159 296.702C20.2881 297.351 20.3721 297.956 20.2721 298.688C20.2119 299.132 20.3571 299.696 20.4596 300.198C20.7418 301.564 20.9821 302.842 20.6902 304.368C20.4344 305.714 20.607 307.221 21.4504 308.371C21.2342 309.001 21.0347 309.579 20.8184 310.209C20.9776 310.801 21.7014 310.643 21.6062 311.67C21.5609 312.118 21.2646 312.464 21.0381 312.957C21.0894 313.208 21.177 313.707 21.2803 314.182C21.3316 314.433 21.3931 314.82 21.4814 314.863C22.1589 315.178 21.9402 316.317 22.2137 317.065C21.9008 317.462 21.3804 317.363 21.4069 318.333C21.4379 319.17 21.8774 319.012 22.1507 319.331C21.8423 319.595 21.5655 319.811 21.2878 320.053C21.0408 320.274 20.8493 320.185 20.6521 319.826C20.4122 319.405 20.1565 319.009 19.8161 318.462C20.0259 318.019 20.2357 317.576 20.4288 317.184C20.2668 316.671 20.0603 316.15 19.9151 315.586C19.7307 314.855 19.4638 314.349 18.9507 314.038C18.9427 314.706 18.9532 315.271 18.947 315.886C19.1348 316.082 19.3077 316.276 19.4955 316.472C19.1253 317.662 19.4437 318.848 19.488 320.169C18.7827 320.224 18.5006 321.028 18.507 322.584C18.1433 321.846 17.9191 321.401 17.6392 320.839C17.3003 321.553 16.6546 321.619 16.125 321.787C15.6252 321.961 14.9984 321.038 14.3719 320.545C14.1575 321.121 14.0882 321.832 14.1192 322.668C14.1606 323.641 14.1309 323.635 13.4441 323.586C13.5128 323.331 13.5823 323.05 13.6658 322.797C13.6389 322.712 13.611 322.653 13.584 322.567C13.2914 322.807 12.9848 323.017 12.7062 323.286C12.4276 323.555 12.175 323.937 11.8314 324.354C11.7895 324.266 11.6482 324.025 11.4789 323.725C11.3677 324.347 11.289 324.895 11.1574 325.675C11.4184 325.483 11.5568 325.375 11.7259 325.246C11.7931 325.902 11.7931 325.902 11.2877 327.977C11.1212 327.597 10.9547 327.218 10.7882 326.838C10.7168 327.173 10.6769 327.46 10.6046 327.822C10.4029 327.596 10.2458 327.379 10.044 327.153C9.8555 327.412 9.69123 327.837 9.5121 328.259C9.4684 328.224 9.42471 328.189 9.38102 328.154C9.37807 327.805 9.37603 327.429 9.37674 326.974C8.2679 328.319 7.21608 328.443 6.50471 327.37C7.13978 326.311 7.62983 325.117 6.7602 323.425C7.4245 323.256 8.1148 324.94 8.50148 323.271C8.01814 322.965 7.51901 322.684 6.96224 322.338C7.0931 322.014 7.2036 321.847 7.19148 321.764C7.04329 320.852 6.89602 319.913 6.65587 319.064C6.57674 318.754 6.2542 318.559 6.04512 318.546C5.92617 318.524 5.71547 318.994 5.7063 319.26C5.6724 320.245 5.36973 320.778 4.88589 321.357C5.21209 321.445 5.53554 321.613 5.87844 321.651C6.29568 321.703 6.47706 322.085 6.48298 322.783C6.48135 323.265 6.47881 323.774 6.40467 324.189C6.24245 324.989 6.14061 325.774 6.21446 326.673C6.305 327.52 6.03391 328.005 5.55719 327.942C4.85743 327.837 4.16135 327.626 3.46343 327.467C3.40628 326.518 3.74073 326.367 4.02028 326.071C4.02261 325.134 3.63561 324.203 3.92412 323.212C4.79996 324.289 4.89009 324.279 5.81317 323.113C5.73129 322.883 5.63545 322.623 5.55357 322.394C5.04936 323.129 4.63149 321.791 4.11404 322.042C3.88459 322.186 3.61308 321.813 3.59046 321.166C3.56418 320.625 3.72295 320.36 3.98031 320.275C4.5554 320.088 4.50376 318.98 4.79339 318.391C5.16286 317.656 4.87261 316.959 4.67432 316.197C4.44812 315.378 3.98035 314.619 4.24187 313.543C5.13196 313.336 5.13196 313.336 4.90769 310.72C5.10098 310.757 5.29427 310.793 5.44296 310.821C5.28653 310.148 5.14405 309.505 5.00248 308.835C5.17245 308.68 5.34334 308.497 5.51423 308.315C5.45842 308.198 5.40169 308.106 5.34588 307.989C5.2308 308.289 5.13151 308.565 5.01643 308.865C4.64584 309.197 4.58036 310.23 4.02747 310.206C3.9076 310.21 3.80668 310.968 3.57082 311.299C3.59464 310.607 3.61939 309.888 3.64687 309.089C3.92093 308.953 4.22655 308.769 4.45508 308.652C4.69807 307.679 4.92343 306.783 5.15155 305.808C5.18129 305.814 5.09482 305.717 4.93585 305.553C5.42794 304.734 5.10316 303.735 5.2169 302.604C4.09228 303.973 4.40556 306.177 3.95575 307.941C3.91693 306.46 3.88566 305.194 3.82464 303.923C3.78054 303.03 4.19503 303.162 4.58804 303.048C3.89795 301.793 3.81931 300.598 4.41711 299.317C4.593 299.86 4.78283 300.432 4.98479 301.086C5.4007 300.307 5.0416 299.435 5.1853 298.739C5.32715 298.095 5.49875 297.458 5.72982 296.831C6.0818 298.345 5.61253 300.24 6.45498 301.417C6.53115 301.378 6.60733 301.338 6.68351 301.299C6.63503 300.968 6.63299 300.593 6.53715 300.334C6.19292 299.465 6.20829 298.583 6.41695 297.738C6.53936 297.225 6.50942 296.79 6.48222 296.276C6.40155 294.706 6.41642 294.709 5.77298 293.837C6.0402 293.03 6.36598 292.261 6.54491 291.41C6.6163 291.075 6.36698 290.492 6.27573 290.1C6.36361 289.285 6.45241 288.444 6.56616 287.313C6.5355 287.334 6.70273 287.259 6.82901 287.068C7.08157 286.687 7.17241 286.222 6.92126 285.692C6.87941 285.603 6.85333 285.491 6.81056 285.43C6.0946 284.491 6.09673 283.124 6.14163 281.819C6.17075 280.538 6.29091 279.221 6.48266 277.997C6.63735 276.981 6.65772 276.824 6.2094 275.936C6.04106 275.609 5.96834 275.113 5.86313 274.691C5.74764 274.133 5.64793 273.552 5.49424 272.799C5.85568 272.733 6.26355 272.622 6.77642 272.505C6.64993 272.266 6.58292 272.039 6.47975 271.993C6.31711 271.936 6.1174 272.086 5.95568 272.002C5.57184 271.849 5.4042 271.067 5.61857 270.491C5.68446 270.316 5.80708 270.231 5.88692 270.086C5.96676 269.94 6.03173 269.791 6.09762 269.616C5.53952 268.439 4.84394 267.343 5.71375 265.55C4.97234 265.786 4.60837 266.36 4.3329 267.407C4.12157 266.59 4.22819 266.101 4.4668 265.69C4.94311 264.896 5.18517 263.95 5.04798 262.718C5.01254 262.443 5.12853 262.117 5.16927 261.803C5.32395 260.787 5.55207 259.811 5.30622 258.693C5.25407 258.468 5.27994 258.152 5.31792 257.918C5.49297 256.745 5.25466 255.842 4.69218 255.227C4.73658 254.806 4.77731 254.492 4.82355 254.019C4.05699 254.115 4.26282 255.092 4.1898 255.909C3.64078 256.208 3.37905 256.855 3.53295 258.037C3.60292 258.613 3.50567 259.264 3.47726 260.09C3.97293 260.907 4.22449 262.295 4.47788 263.629C4.74431 265.019 4.57068 265.281 3.70828 265.119C3.6536 265.403 3.59891 265.688 3.52936 265.969C2.97738 265.919 2.97738 265.919 2.52806 266.799C2.65301 265.777 2.75484 264.993 2.84272 264.178C3.75339 264.243 3.78496 264.195 3.65877 262.644C3.50366 262.802 3.37921 262.939 3.25476 263.077C3.14843 262.253 3.14843 262.253 3.38775 261.386C3.09221 261.277 2.79666 261.168 2.53086 261.064C2.53502 260.073 2.53919 259.082 2.55823 258.094C2.56464 257.908 2.61658 257.703 2.6676 257.525C2.95977 256.428 2.95977 256.428 2.23395 256.211C2.80392 253.129 2.69176 249.864 2.78685 246.666C3.33538 247.252 3.35462 246.693 3.32355 245.856C3.11743 246.192 2.95958 246.431 2.80081 246.696C2.48011 246.447 2.36003 246.023 2.41084 245.416C2.55504 243.835 2.71318 242.284 2.44196 240.597C2.29378 239.685 2.54043 238.606 2.63085 237.283C3.18957 239.747 2.50868 242.138 3.27353 244.265C3.29665 244.028 3.33372 243.821 3.34196 243.581C3.34359 243.099 3.28482 242.633 3.30131 242.153C3.35742 240.958 3.44234 239.794 3.20107 238.543C3.0483 237.764 3.02365 236.74 3.38008 235.95C3.4361 236.497 3.15492 237.274 3.69682 237.618C3.84714 237.164 3.96496 236.784 4.08371 236.377C4.12161 237.886 4.12161 237.886 4.71819 237.944C4.63061 237.445 4.55789 236.949 4.43873 236.498C4.41266 236.386 4.20174 236.427 4.06792 236.401C4.09196 236.138 4.07413 235.786 4.15306 235.667C4.51611 235.119 4.51112 234.394 4.46243 233.635C4.45031 233.552 4.39267 233.488 4.32382 233.314C4.22178 233.67 4.13552 234.002 3.98154 234.562C3.78763 233.239 4.10974 232.577 4.56202 232.045C4.40487 231.828 4.28867 231.726 4.20404 231.576C3.97805 231.185 3.75685 231.089 3.47821 231.359C3.18471 231.625 3.184 232.08 3.25672 232.577C3.29216 232.851 3.29787 233.12 3.30449 233.363C3.17159 233.311 3.05355 233.262 2.92065 233.21C2.93094 233.346 2.95701 233.458 2.9673 233.594C3.07504 233.507 3.18279 233.42 3.29054 233.333C3.70912 234.216 3.67888 235.095 3.3643 235.974C3.25543 235.658 3.14564 235.37 3.00886 234.996C2.87525 235.399 2.76017 235.699 2.59316 236.204C2.481 232.94 2.37363 229.971 2.25598 226.867C1.98946 227.218 1.80095 227.478 1.59758 227.734C1.55481 227.673 1.51295 227.584 1.47017 227.523C1.53881 227.268 1.63627 227.045 1.67517 226.784C1.75756 226.129 1.9152 225.462 1.8768 224.839C1.76089 223.423 1.71629 223.415 2.44811 222.588C1.47797 222.512 1.92687 220.774 1.38384 220.029C1.59476 219.988 1.80475 219.974 2.06119 219.915C2.12025 219.069 2.16444 218.219 2.22808 217.24C2.1407 217.169 2.01055 217.038 1.87948 216.933L1.89343 216.962C1.78914 216.514 1.68485 216.065 1.58056 215.617L1.59451 215.646C1.7375 215.405 1.87956 215.191 2.02255 214.949C1.96744 214.376 1.91234 213.803 1.8497 213.014C2.68165 213.626 2.03192 215.112 2.69847 215.747C2.72526 215.404 2.81151 215.071 2.77698 214.77C2.71435 213.981 2.60618 213.21 2.52867 212.418C2.51747 212.309 2.52297 212.149 2.49415 212.117C1.56911 211.165 1.98573 209.931 2.13288 208.699C2.21618 208.017 2.15171 207.282 2.14467 206.181C1.64413 206.811 1.33026 207.234 0.87707 207.792C0.926759 206.783 1.13176 206.044 0.782029 205.335C0.697398 205.185 0.793734 204.56 0.906979 204.313C1.21606 203.594 1.18041 202.891 0.941176 202.015C1.18753 202.249 1.43389 202.483 1.70907 202.749C1.83677 201.648 1.96172 200.626 2.08575 199.631C2.41928 199.506 2.44606 199.163 2.23381 198.372C2.16722 199.003 2.12648 199.317 2.10062 199.634C1.97892 199.691 1.79957 199.684 1.74947 199.835C1.61677 200.212 1.54264 200.627 1.38224 201.374C1.16817 200.637 0.986785 200.254 0.941054 199.844C0.898989 199.327 0.960089 198.856 1.34097 198.659C1.98013 198.351 2.01903 198.09 1.94498 196.763C1.92624 196.438 2.01982 195.893 2.12574 195.859C2.74911 195.575 2.58422 194.713 2.595 193.964C2.33836 193.594 2.09659 193.227 1.74044 192.704C1.67913 192.746 1.47942 192.896 1.27972 193.046L1.2955 193.023C0.704204 192.375 0.542271 191.862 0.721198 191.011C0.791669 190.703 0.939234 190.329 1.09067 190.277C1.21146 190.246 1.40862 190.605 1.54998 190.846C1.64857 191.025 1.69888 191.303 1.83199 191.784C1.93953 191.268 2.01 190.959 2.0656 190.648C2.10359 190.414 2.11916 189.962 2.17956 189.946C2.6469 189.847 2.55748 189.401 2.31571 189.034C2.07302 188.693 1.87239 188.87 1.80763 189.447C1.78818 189.578 1.71017 189.67 1.66189 189.768C0.947982 189.205 1.0599 188.127 1.1933 187.294C1.32579 186.489 1.70646 185.864 2.06748 184.94C1.73579 185.011 1.53974 185.055 1.28331 185.114C1.15803 183.536 1.06157 181.99 1.38327 180.469C1.54458 179.695 1.58419 178.979 1.2976 178.175C1.18782 177.886 1.23588 177.359 1.27936 176.965C1.30889 176.542 1.44159 176.165 1.4702 175.768C1.51439 174.919 1.61439 174.187 2.18674 174.081C2.15588 173.673 2.16688 173.353 2.09894 173.153C1.42627 171.391 1.59907 169.414 1.58887 167.536C1.57113 165.442 1.92786 163.338 1.43065 161.261C1.40366 161.176 1.37942 161.01 1.411 160.963C1.99759 159.572 1.72912 157.806 2.00713 156.251C2.1554 155.421 2.11313 154.475 2.53933 153.831C2.60247 153.736 2.56794 153.435 2.59839 152.985C2.33188 153.337 2.17494 153.548 1.93999 153.853C1.90822 153.471 1.81421 153.159 1.87919 153.01C2.21047 152.081 2.11422 150.964 2.17878 149.958C2.21197 149.428 2.06766 148.838 1.96703 148.283C1.77974 147.202 1.45312 146.256 1.82605 144.986C2.09694 144.073 1.94855 142.731 1.85596 141.508C1.77154 141.787 1.68712 142.066 1.60361 142.318C1.559 142.31 1.49953 142.298 1.45492 142.29C1.43139 141.669 1.31864 141.031 1.39828 140.457C1.59736 139.02 1.52036 137.344 2.27438 136.307C2.35331 136.188 2.48325 135.89 2.4414 135.802C2.06813 134.472 2.57122 133.334 2.58455 132.077C2.59909 129.48 2.73258 126.905 2.82329 124.269C2.71921 124.249 2.60026 124.227 2.31775 124.174C2.6637 122.818 2.97532 121.591 3.32126 120.235C3.11218 120.223 2.91889 120.186 2.60572 120.154C2.7208 119.854 2.75787 119.647 2.83496 119.581C3.34579 119.088 3.4293 118.835 3.06379 118.15C2.81172 117.647 2.79482 117.268 2.90327 116.726C3.04788 116.003 3.22314 115.259 3.05734 114.423L3.04155 114.447C3.52306 114.806 3.62785 114.37 3.59312 113.64C3.54106 111.673 3.37005 109.685 3.46576 107.773C3.5127 106.844 3.38671 105.721 3.81933 104.891C3.96323 104.624 3.9509 104.112 4.02778 103.617C3.27934 102.753 3.43861 101.603 3.63862 100.14C3.8033 100.573 3.87123 100.774 3.96706 101.033C3.98376 100.983 4.03112 100.911 4.03387 100.831C4.13091 99.7506 4.22887 98.6434 4.29618 97.5572C4.39027 96.1276 4.48527 94.6715 4.53475 93.2335C4.58515 91.7689 4.41252 90.2622 4.89228 88.9322C4.99249 88.6295 4.86121 88.0955 4.89074 87.6722C4.93768 86.743 5.02923 85.8222 5.1059 84.8986C5.1114 84.7388 5.19124 84.593 5.18096 84.4571C4.85647 82.1446 5.48451 79.9848 5.26502 77.6653C5.18934 76.8201 5.40075 75.8951 5.46073 75.022C5.54453 73.4565 5.59951 71.8587 5.66844 70.2904C5.67761 70.0241 5.68677 69.7578 5.7108 69.4943C5.89206 67.706 6.19319 65.9134 6.24063 64.0999C6.27728 63.0347 6.37158 62.034 6.51048 61.0417C6.6059 60.4433 6.70132 59.8448 6.81344 59.1959C6.70753 59.2295 6.55609 59.2814 6.32939 59.3459C6.39903 57.3221 6.27538 55.2618 6.59046 53.4987C6.88701 51.8393 6.82487 50.1658 6.98576 48.5344C7.03566 47.9542 7.11529 47.3796 7.19401 46.8316C7.32558 46.0523 7.38006 45.339 7.24491 44.4826C7.15824 43.957 7.2397 43.3291 7.2896 42.7489C7.39673 41.3754 7.48806 40.0257 7.63888 38.6873C7.89519 36.4575 8.09203 34.2164 7.88741 31.8997C8.07225 31.7469 8.22552 31.6418 8.34905 31.5311C8.35547 31.3446 8.38887 31.2437 8.3628 31.1316C8.05176 29.7329 8.33823 28.3664 8.44352 27.0461C8.57376 25.4358 8.85086 23.9067 9.05544 22.3104C9.07672 22.1268 9.02458 21.9025 9.03191 21.6895C9.06877 21.0532 9.1205 20.4197 9.30697 19.7848C9.19809 19.4695 9.08922 19.1541 8.9943 18.8682C9.01467 18.7113 9.01925 18.5781 9.05082 18.5304C9.83642 17.4457 9.4936 15.6657 9.72151 14.2614C9.87253 13.3518 9.77445 12.288 9.79349 11.2999C9.80265 11.0336 9.85825 10.7225 9.80519 10.5249C9.52868 9.42751 9.74946 8.66507 10.1235 7.79753C10.4001 7.15282 10.4489 6.17033 10.5981 5.314C10.7649 4.38057 10.9177 3.41774 11.0845 2.4843C11.2152 1.73168 11.6153 0.97625 10.8047 0.180195C10.8808 0.140928 10.9728 0.0778673 11.049 0.0386301C11.2878 0.0568518 11.5424 0.0512503 11.8416 0.0540579C11.8475 0.752003 11.8432 1.31401 11.8518 1.93208C12.5854 2.79403 12.6041 3.11918 11.9972 4.6665C11.8357 5.01127 11.5412 5.30418 11.9301 6.18154C12.0161 5.4205 12.0308 4.99445 12.0454 4.56837ZM3.35937 122.172C3.26466 122.315 3.16903 122.485 3.07432 122.628C3.11709 122.689 3.17473 122.754 3.21843 122.789C3.25549 122.582 3.30835 122.35 3.34542 122.143C3.6819 122.367 3.75146 122.085 3.70277 121.326C3.55429 121.727 3.45683 121.949 3.35937 122.172ZM13.8532 239.506C13.6228 239.677 13.3636 239.815 13.7124 240.551C13.7578 240.104 13.7985 239.79 13.8244 239.473C14.1744 238.869 13.9566 238.239 13.8281 237.625C13.6723 238.239 13.6354 238.875 13.8532 239.506ZM13.1801 50.7474C13.4381 50.2064 13.6386 49.601 13.4254 48.8371C13.4322 49.5085 12.7466 49.8616 13.1959 50.7236C13.1041 51.2155 13.0114 51.7341 12.9048 52.2232C13.439 51.9219 13.5307 51.43 13.1801 50.7474ZM13.2855 93.7842C13.3868 93.8837 13.4742 93.9538 13.5755 94.0533C13.5689 93.8109 13.5771 93.5712 13.5705 93.3288C13.5259 93.3203 13.4813 93.3119 13.4367 93.3035C13.3857 93.4815 13.3347 93.6595 13.2836 93.8375C13.1757 93.4955 13.0668 93.1802 12.8928 92.5845C12.8152 93.5348 12.7625 94.1949 12.7247 94.8578C12.7833 94.8957 12.8428 94.9069 12.9013 94.9447C13.034 94.5677 13.1667 94.1907 13.2855 93.7842ZM17.355 121.648C17.2763 122.196 16.9029 122.608 17.1328 123.321C17.7653 122.771 17.7903 122.481 17.355 121.648C17.4207 121.044 17.5022 120.416 17.5836 119.788C17.2215 120.31 17.1846 120.946 17.355 121.648ZM2.93403 161.062C2.80754 160.824 2.68197 160.559 2.48572 160.173C2.40334 160.828 2.34407 161.246 2.2459 161.924C2.55977 161.501 2.74736 161.268 2.92008 161.033C3.28018 160.136 3.01579 159.121 3.01996 158.13C3.41551 157.508 2.9896 156.838 3.08685 156.186C3.02646 156.201 2.95212 156.187 2.89172 156.203C2.94408 156.856 2.99643 157.509 3.04878 158.162C2.79968 158.008 2.56636 157.83 2.24474 157.609C2.30351 158.075 2.31034 158.747 2.42745 158.822C3.14595 159.253 2.87139 160.273 2.93403 161.062ZM15.6066 99.3946C15.5027 99.8038 15.3542 100.205 15.3238 100.655C15.2915 101.158 15.4663 101.298 15.73 101.026C15.6889 100.482 15.6487 99.9117 15.6066 99.3946C15.7395 99.4464 15.8864 99.5277 16.0332 99.609C16.0895 98.8423 16.1273 98.1794 16.1827 97.4394C15.9754 97.3736 15.7682 97.3077 15.4727 97.1984C15.5305 97.6917 15.5781 98.0491 15.6117 98.3771C15.6295 98.7288 15.6036 99.0456 15.6066 99.3946ZM3.86689 226.152C3.70425 226.094 3.54161 226.037 3.3641 225.977C3.37368 226.568 3.34232 227.045 3.41687 227.488C3.46627 227.792 3.65315 228.015 3.77872 228.279C3.87801 228.003 4.05165 227.741 4.06081 227.475C4.06152 227.019 3.94328 226.542 3.86873 226.099C4.04349 226.239 4.20246 226.403 4.42 226.605C4.32283 225.514 4.23412 224.613 4.16028 223.715C3.73041 224.464 3.62858 225.249 3.86689 226.152ZM3.18977 249.744C3.09568 251.173 2.98672 252.6 2.9075 254.033C2.90201 254.192 3.07127 254.492 3.18839 254.568C3.30642 254.617 3.50521 254.494 3.57019 254.345C3.70105 254.021 3.7594 253.63 3.84841 253.218C4.235 253.291 4.56211 253.353 5.05278 253.445C4.59123 252.072 4.63613 250.767 4.57511 249.496C4.53763 248.845 4.62938 248.354 4.95446 248.04C5.09378 247.905 5.19307 247.629 5.35092 247.391C5.00944 246.442 4.68007 245.576 4.40652 244.827C4.59003 243.843 4.85909 242.983 4.87537 242.075C4.88066 241.486 4.7613 240.606 4.28345 240.141C4.18599 240.363 4.05971 240.554 4.02264 240.761C3.66775 242.812 3.77562 244.896 4.06283 246.987C4.09735 247.288 4.18769 247.707 4.1218 247.883C3.81089 248.655 3.91905 249.426 4.06999 250.258C4.18273 250.896 4.17469 251.564 4.22246 252.351C3.11005 252.061 3.62413 250.603 3.18977 249.744ZM7.4328 317.361C7.30977 316.587 7.16179 316.104 7.19132 315.68C7.23572 315.26 7.42881 314.867 7.52902 314.565C7.3186 313.721 7.13426 312.989 6.93689 312.202C6.53564 312.555 6.48666 313.108 6.58178 313.823C6.65084 314.426 6.71897 315.055 6.6979 315.668C6.66949 316.493 6.84721 316.982 7.4328 317.361ZM16.7537 50.4026C16.6977 49.856 16.689 49.2379 16.5559 48.7572C16.3446 47.9401 16.4093 47.3627 16.7436 46.7825C17.0927 46.205 17.0264 45.5225 16.7974 44.7825C15.9979 45.8378 15.9065 48.9296 16.7537 50.4026ZM16.372 58.4516C16.0664 56.8931 16.8536 55.3262 16.1764 53.6976C16.051 53.8616 15.8977 53.9667 15.8932 54.0999C15.827 55.5883 15.6995 57.1188 16.372 58.4516ZM7.16284 308.68C7.07363 308.663 6.98533 308.619 6.89612 308.603C6.82698 309.742 6.61465 310.694 6.08437 311.317C5.959 311.481 5.94159 311.987 5.91389 312.357C5.90473 312.624 5.96991 312.904 6.00444 313.205C6.07878 313.219 6.13734 313.257 6.21169 313.271C6.11452 312.181 6.35771 311.637 6.8882 311.442C7.02569 311.361 7.20207 311.019 7.21032 310.779C7.23414 310.087 7.18362 309.38 7.16284 308.68ZM16.7076 99.1465C17.6931 98.3406 17.862 97.7828 17.7012 95.93C16.9173 96.5326 16.9161 97.8725 16.7076 99.1465ZM14.7228 74.195C14.1947 75.6232 14.6479 76.8075 14.7962 78.1488C15.2909 76.8215 15.3024 75.6176 14.7228 74.195ZM13.7344 101.615C12.9297 103.687 13.0914 105.514 13.7622 107.329C13.7488 106.415 13.5699 105.523 13.5407 104.633C13.5272 103.72 13.6485 102.805 13.7344 101.615ZM16.4146 85.0471C15.9906 86.4949 15.9876 87.888 16.0394 89.4255C16.6837 88.0996 16.7899 86.7527 16.4146 85.0471ZM13.3415 224.802C13.4414 225.813 12.8368 226.422 13.259 227.199C13.4134 227.496 13.8231 227.332 14.0164 227.368C14.0123 226.617 14.0158 226.082 14.008 225.437C13.8779 225.305 13.6892 225.136 13.3415 224.802ZM16.6477 251.798C16.2748 253.068 16.2653 254.648 16.6134 255.839C16.7443 255.515 16.9634 255.235 16.9577 254.966C16.9015 253.99 16.7709 253.001 16.6477 251.798ZM12.7485 59.3767C13.2536 58.6142 12.8963 57.6892 12.9554 56.8427C13.0135 56.0228 13.0131 55.1651 13.0424 54.3129C12.731 55.9695 12.5534 57.6514 12.7485 59.3767ZM16.1143 228.595C16.6235 228.583 16.5656 228.09 16.4474 227.612C16.2212 226.792 15.9494 225.991 16.1618 225.039C16.1961 224.911 15.9971 224.606 15.8734 224.288C15.5656 225.838 15.9547 227.144 16.1143 228.595ZM16.1549 24.7476C15.8053 26.2094 16.6409 26.7154 16.9378 27.6558C16.9598 27.0167 16.9818 26.3776 17.0038 25.7385C16.5717 25.6838 16.5717 25.6838 16.1549 24.7476ZM15.2664 20.5598C14.9859 22.6243 14.9881 23.4288 15.2042 24.5416C15.5744 23.3517 15.623 21.9403 15.2664 20.5598ZM14.6943 30.6635C14.2007 34.1351 14.1945 34.7503 14.5275 35.51C14.5825 33.9122 14.6384 32.2879 14.6943 30.6635ZM2.30331 180.696C2.24138 179.451 2.17945 178.207 2.11752 176.962C1.64896 178.402 1.69989 179.966 2.30331 180.696ZM17.7792 68.8748C17.5649 67.7087 17.3982 66.9 17.2212 65.9554C16.9864 66.6884 16.7869 67.2673 16.619 67.7984C16.6879 67.9722 16.7139 68.0843 16.7576 68.1194C17.0346 68.3324 17.3126 68.5188 17.7792 68.8748ZM14.3837 20.5542C14.3339 19.3924 14.285 18.2039 14.2164 16.7168C13.655 18.2459 13.7791 19.4218 14.3837 20.5542ZM14.2617 21.9249C13.9139 23.3335 13.9547 25.1905 14.3251 26.1716C14.3141 24.749 14.2884 23.3237 14.2617 21.9249ZM13.6549 190.903C13.8633 191.371 14.1719 191.537 14.3092 191.027C14.4808 190.389 14.6718 189.621 14.415 188.822C13.9337 188.892 14.1523 189.496 14.094 189.887C14.0217 190.249 13.8165 190.559 13.6549 190.903ZM17.9892 82.3421C18.442 80.9266 18.4139 80.4388 17.8809 79.4003C17.3685 80.3758 17.8772 81.2489 17.9892 82.3421ZM12.862 109.571C12.8722 109.707 12.8965 109.872 12.9068 110.008C13.1568 110.136 13.4217 110.266 13.7005 110.426C13.8005 109.694 14.0446 109.124 13.6169 108.507C13.3346 108.883 13.0978 109.24 12.862 109.571ZM2.97661 151.127C3.20044 148.971 3.21398 148.143 2.97016 147.4C2.85642 148.531 2.74725 149.529 2.66782 150.532C2.64929 150.636 2.80735 150.827 2.97661 151.127ZM13.4736 311.424C13.1391 311.575 12.9115 311.666 12.5622 311.815C12.8357 312.563 13.0684 313.197 13.3838 314.033C13.4186 313.022 13.4424 312.329 13.4736 311.424ZM14.6258 255.759C14.5505 255.772 14.4744 255.811 14.3991 255.824C14.5724 256.875 14.7318 257.897 14.9303 259.086C15.5643 257.625 14.8 256.784 14.6258 255.759ZM8.3512 295.02C8.65233 293.228 8.64204 293.092 8.03771 292.388C7.89972 293.354 8.0971 294.142 8.3512 295.02ZM14.2505 39.21C14.0288 39.9991 14.0288 39.9991 14.2524 43.0698C14.4575 40.5891 14.4666 40.3229 14.2505 39.21ZM11.2204 6.79822C11.05 7.83816 11.0717 8.51231 11.4827 9.17943C11.9023 8.29365 11.6688 7.68679 11.2204 6.79822ZM14.0248 93.1732C14.7036 92.1486 14.7091 91.9889 14.1279 91.0485C14.132 91.7997 13.609 92.2103 14.0248 93.1732ZM2.74414 198.763C2.79854 199.792 2.83144 200.575 2.86434 201.359C3.3606 199.549 3.3606 199.549 2.74414 198.763ZM11.0668 9.95868C11.2177 10.7912 11.3435 11.4849 11.5084 12.3469C11.8697 10.11 11.8315 9.91522 11.0668 9.95868ZM11.954 142.045C12.0266 142.112 12.0833 142.203 12.1558 142.27C12.2533 142.047 12.4594 141.711 12.4184 141.596C12.2714 141.086 12.5747 140.098 11.8759 139.966C11.8949 140.72 11.9323 141.37 11.954 142.045ZM15.9499 171.181C15.6199 172.941 15.6199 172.941 16.0032 173.978C16.1236 173.09 16.376 172.28 15.9499 171.181ZM17.2813 103.784C17.4351 102.795 17.4793 101.945 17.1508 101.053C16.6681 102.034 16.9547 102.838 17.2813 103.784ZM20.0424 313.627C20.3331 313.441 20.5234 313.128 20.329 312.689C20.0937 312.136 19.7498 312.125 19.4239 312.465C19.6489 312.883 19.8312 313.239 20.0424 313.627ZM14.278 247.599C14.3412 247.504 14.4043 247.409 14.4674 247.314C14.4357 246.932 14.3881 246.575 14.3442 246.111C14.0098 246.262 13.7506 246.401 13.5072 246.516C13.5035 246.623 13.4998 246.729 13.4962 246.836C13.7574 247.073 14.0177 247.336 14.278 247.599ZM16.0123 27.5885C15.937 27.6011 15.8627 27.5871 15.8023 27.6025C15.6847 28.4112 15.5531 29.1905 15.9289 30.0117C15.9573 29.1862 15.9848 28.3874 16.0123 27.5885ZM3.34267 210.508C2.9727 212.127 2.99623 212.748 3.48823 213.671C3.44963 212.619 3.40644 211.699 3.34267 210.508ZM15.2192 26.7154C14.7587 27.4862 14.6875 28.25 14.9418 29.5577C15.0082 28.4981 15.4363 27.8015 15.2192 26.7154ZM15.1857 89.881C15.26 89.895 15.3204 89.8796 15.3948 89.8936C15.4278 88.9349 15.4617 87.9497 15.4947 86.991C15.3715 87.9595 14.9826 88.8242 15.1857 89.881ZM16.904 40.3803C16.8189 41.1147 16.7495 41.8253 17.1077 42.7236C17.2615 41.7341 17.3308 41.0236 16.904 40.3803ZM2.837 217.81C2.76265 217.796 2.68739 217.809 2.61305 217.795C2.64595 218.578 2.6649 219.332 2.70167 220.438C3.15649 219.398 3.03346 218.624 2.837 217.81ZM2.8696 164.239C2.94669 164.173 3.02287 164.134 3.09996 164.068C3.05515 163.631 3.01033 163.194 2.92824 162.535C2.66081 162.913 2.51966 163.101 2.33024 163.387C2.55714 163.752 2.71337 163.995 2.8696 164.239ZM9.99936 323.232C10.5463 322.558 10.5626 321.649 10.08 320.888C10.0534 321.661 10.0278 322.406 9.99936 323.232ZM19.1794 296.954C18.864 296.118 19.0727 295.273 18.5445 294.53C18.6007 295.505 18.4227 296.329 19.1794 296.954ZM15.7266 208.983C15.6522 208.969 15.577 208.982 15.5026 208.968C15.3079 209.842 15.457 210.728 15.6358 211.619C15.6661 210.741 15.6963 209.862 15.7266 208.983ZM2.6043 186.301C2.20642 187.861 2.25765 188.112 2.96107 188.11C2.86136 187.529 2.74587 186.971 2.6043 186.301ZM14.0129 14.8023C13.8816 14.2684 13.8034 13.932 13.7094 13.6195C13.5561 13.7246 13.374 13.7974 13.2775 13.9937C13.1977 14.1394 13.2164 14.4646 13.1915 14.7547C13.4609 14.7519 13.6551 14.7617 14.0129 14.8023ZM17.5246 251.106C17.134 252.453 17.1676 252.781 17.8353 253.818C17.7196 252.831 17.6272 252.037 17.5246 251.106ZM15.6126 33.1148C15.6869 33.1288 15.7613 33.1428 15.8356 33.1568C15.9477 32.5079 16.3451 31.8324 15.6273 30.9466C15.612 31.8281 15.6197 32.4729 15.6126 33.1148ZM15.1443 81.0822C14.307 81.0583 14.307 81.0583 14.2777 81.9105C14.5973 81.7563 15.0166 82.1838 15.1443 81.0822ZM17.7928 47.1679C18.1964 45.8771 18.1964 45.8771 17.6554 45.5071C17.7096 46.1069 17.7517 46.6241 17.7928 47.1679ZM13.4206 234.68C13.6057 234.956 13.7285 235.301 13.8335 235.294C13.9533 235.29 14.1446 234.951 14.1361 234.761C14.1286 234.546 13.9603 234.219 13.8274 234.167C13.7391 234.124 13.5933 234.445 13.4206 234.68ZM4.05654 216.727C3.68207 216.736 3.4572 216.748 3.17286 216.748C3.62321 218.012 3.62321 218.012 4.05654 216.727ZM17.1599 269.531C17.4157 268.185 17.4167 268.159 16.7505 268.381C16.9012 268.785 17.0232 269.156 17.1599 269.531ZM17.9294 281.093C18.0176 281.137 18.1217 281.156 18.21 281.2C18.3176 280.684 18.4837 280.206 18.1431 279.231C18.0394 280.069 17.9765 280.593 17.9294 281.093ZM15.4639 69.6176C15.1962 71.3093 15.1962 71.3093 15.7521 71.6821C15.67 71.0233 15.5861 70.4179 15.4639 69.6176ZM3.40546 129.096C3.73033 128.353 3.64824 127.694 3.41471 127.087C3.35432 127.103 3.27906 127.115 3.21867 127.131C3.28589 127.787 3.33824 128.44 3.40546 129.096ZM17.207 126.82C17.2949 126.005 17.3429 125.478 17.391 124.951C17.0176 125.364 16.6889 125.784 17.207 126.82ZM9.07926 86.8537C9.02295 87.6203 8.96756 88.3604 8.91124 89.127C9.07164 88.38 9.51179 87.7661 9.07926 86.8537ZM17.0058 77.8684C16.823 78.3968 16.3131 78.8635 16.9417 79.7325C16.9655 79.0401 16.9856 78.4543 17.0058 77.8684ZM14.5498 102.706C14.8317 101.473 14.8317 101.473 14.4243 100.699C14.4609 101.376 14.503 101.893 14.5498 102.706ZM16.3901 34.4406C16.3708 34.9998 16.3516 35.559 16.3333 36.0916C16.635 35.5856 16.8318 35.0867 16.3901 34.4406ZM2.1863 224.977C2.24394 225.042 2.3025 225.08 2.36014 225.144C2.48368 225.033 2.63603 224.955 2.70192 224.78C2.76872 224.578 2.74907 224.279 2.7731 224.016C2.62075 224.094 2.4414 224.087 2.34577 224.257C2.2362 224.397 2.24007 224.72 2.1863 224.977ZM2.07121 169.61C2.12977 169.648 2.2032 169.688 2.26176 169.726C2.33498 169.338 2.42215 168.979 2.49537 168.591C2.39221 168.545 2.28996 168.472 2.18679 168.426C2.15818 168.822 2.11469 169.216 2.07121 169.61ZM17.007 258.754C17.4563 257.874 17.4563 257.874 16.9858 257.196C16.9944 257.814 16.9928 258.296 17.007 258.754ZM16.8528 203.219C16.5798 203.757 16.4705 204.326 16.9808 204.717C16.9378 204.226 16.8958 203.709 16.8528 203.219ZM11.263 15.9993C11.2195 16.3931 11.1909 16.7897 11.1243 17.4204C11.6017 17.028 11.7335 16.6776 11.263 15.9993ZM2.21641 166.26C2.96972 165.679 2.96972 165.679 2.59209 164.911C2.48913 165.293 2.388 165.623 2.21641 166.26ZM13.3306 125.526C13.0172 125.065 12.9065 124.803 12.8164 124.813C12.7114 124.82 12.5517 125.111 12.562 125.247C12.5844 125.466 12.7248 125.734 12.828 125.78C12.9302 125.853 13.0714 125.665 13.3306 125.526ZM14.2985 78.6981C14.1935 78.7052 14.0885 78.7122 13.9844 78.6926C14.0022 79.0443 14.0209 79.3695 14.0536 79.7241C14.0527 79.7507 14.2776 79.7395 14.2776 79.7395C14.2895 79.3933 14.3014 79.0471 14.2985 78.6981ZM16.1755 243.776C16.0243 244.257 15.9268 244.48 15.8424 244.759C15.7747 244.987 15.7358 245.248 15.682 245.506C16.0368 245.197 16.3619 244.883 16.1755 243.776ZM16.1736 232.09C16.2479 232.104 16.3222 232.118 16.3966 232.132C16.3973 231.677 16.3989 231.195 16.3996 230.739C16.3402 230.728 16.2807 230.717 16.2212 230.705C16.2047 231.185 16.1891 231.637 16.1736 232.09ZM16.504 154.642C16.0248 155.087 16.0248 155.087 16.2791 156.395C16.3809 155.61 16.4411 155.166 16.504 154.642ZM10.1247 21.6811C10.0494 21.6937 9.97415 21.7063 9.89889 21.7189C9.92608 22.2333 9.95236 22.7743 9.97956 23.2886C10.2218 22.7715 10.4641 22.2543 10.1247 21.6811ZM11.3588 179.348C11.4341 179.335 11.5084 179.349 11.5986 179.339C11.7814 178.811 11.6929 178.339 11.3292 177.6C11.3314 178.404 11.3447 178.889 11.3588 179.348ZM2.72652 143.173C3.10332 142.225 3.10332 142.225 2.59299 141.834C2.65084 142.328 2.6817 142.736 2.72652 143.173ZM16.6389 110.712C17.133 110.269 17.0175 109.711 17.0079 109.12C16.4914 109.344 16.7073 110.028 16.6389 110.712ZM17.1004 265.606C17.0261 265.592 16.9508 265.605 16.8765 265.591C16.7113 266.042 16.6957 266.495 17.1104 267.056C17.1018 266.437 17.1015 266.009 17.1004 265.606ZM15.2989 91.3764C15.2245 91.3624 15.165 91.3512 15.0907 91.3372C14.9125 91.7324 14.8383 92.1472 15.2039 92.8326C15.2556 92.1991 15.2851 91.7758 15.2989 91.3764ZM11.515 194.815C11.4416 194.774 11.3821 194.763 11.3087 194.723C11.0524 195.21 11.0796 195.725 11.4136 196.458C11.4513 195.795 11.4827 195.318 11.515 194.815ZM2.91896 193.248C3.1267 192.43 3.1267 192.43 2.82158 191.729C2.85998 192.353 2.88901 192.814 2.91896 193.248ZM15.9313 284.362C16.1014 284.635 16.2 284.814 16.3162 284.917C16.345 284.949 16.5214 284.607 16.5084 284.551C16.4553 284.353 16.3437 284.118 16.2424 284.018C16.1987 283.983 16.0715 284.2 15.9313 284.362ZM16.4976 191.359C16.4233 191.345 16.3638 191.334 16.2895 191.32C16.2302 191.737 16.0074 192.124 16.4491 192.77C16.4702 192.158 16.4839 191.758 16.4976 191.359ZM11.5838 74.0857C11.4946 74.0689 11.4194 74.0815 11.3301 74.0647C11.3452 74.4964 11.3445 74.9519 11.3596 75.3835C11.4191 75.3948 11.4795 75.3793 11.5389 75.3906C11.5536 74.9645 11.5692 74.5118 11.5838 74.0857ZM6.72407 304.469C6.32761 305.118 6.32761 305.118 6.53435 306.069C6.61674 305.414 6.66297 304.94 6.72407 304.469ZM12.7048 128.49C12.654 129.097 12.6226 129.574 12.5663 130.34C12.9488 129.662 13.2014 129.281 12.7048 128.49ZM15.8516 112.279C15.4142 112.813 15.3429 113.148 15.7047 113.94C15.7564 113.306 15.7832 112.963 15.8516 112.279ZM15.1364 166.552C15.3599 165.709 15.3599 165.709 14.9935 165.051C15.0468 165.677 15.0916 166.114 15.1364 166.552ZM11.4422 284.346C11.5564 284.073 11.665 283.959 11.6854 283.802C11.7085 283.566 11.7019 283.323 11.6655 283.075C11.6525 283.019 11.4452 282.953 11.4285 283.004C11.3469 283.203 11.294 283.434 11.2858 283.674C11.2803 283.833 11.3631 284.037 11.4422 284.346ZM16.4603 235.066C16.4777 234.56 16.496 234.027 16.5253 233.175C16.1243 233.957 16.21 234.509 16.4603 235.066ZM16.585 206.652C16.6136 206.256 16.6413 205.886 16.679 205.223C16.198 205.722 16.1554 206.089 16.585 206.652ZM15.6736 207.043C15.8461 206.379 15.8951 205.825 15.6254 205.399C15.5641 205.441 15.4888 205.454 15.4275 205.496C15.5142 206.022 15.586 206.544 15.6736 207.043ZM8.75091 326.025C8.74154 325.862 8.73217 325.7 8.72372 325.511C8.49793 325.548 8.28702 325.589 8.07611 325.63C8.0864 325.766 8.09668 325.902 8.10697 326.038C8.31605 326.05 8.54092 326.039 8.75091 326.025ZM14.097 244.162C13.9522 244.456 13.8575 244.599 13.8056 244.803C13.7889 244.854 13.9144 245.119 13.9293 245.122C14.037 245.035 14.1597 244.951 14.2404 244.778C14.2729 244.704 14.1762 244.471 14.097 244.162ZM19.0201 52.3844C18.9213 51.7761 18.857 51.4692 18.7573 50.8875C18.5077 51.6177 18.5859 51.9541 19.0201 52.3844ZM14.3609 88.6266C14.4483 88.6967 14.5208 88.7639 14.6091 88.8074C14.6404 88.3309 14.6857 87.8838 14.7171 87.4073C14.6576 87.3961 14.5991 87.3582 14.5396 87.347C14.4952 87.7675 14.4201 88.2089 14.3609 88.6266ZM16.9479 240.464C17.0241 240.425 17.0994 240.412 17.1607 240.37C17.2497 239.958 17.2774 239.588 16.8071 239.339C16.8658 239.806 16.9143 240.136 16.9479 240.464ZM18.3423 283.878C18.4176 283.865 18.4919 283.879 18.5672 283.867C18.5494 283.515 18.5455 283.193 18.5277 282.841C18.4831 282.833 18.4227 282.848 18.3781 282.84C18.3662 283.186 18.3543 283.532 18.3423 283.878ZM15.2131 184.765C15.2069 185.38 15.1393 186.037 15.6877 186.194C15.5118 185.652 15.362 185.222 15.2131 184.765ZM1.97958 204.891C1.74942 205.491 1.7645 205.922 2.25334 206.068C2.1351 205.59 2.05688 205.254 1.97958 204.891ZM17.0795 132.263C17.0043 132.276 16.929 132.288 16.8537 132.301C16.8716 132.653 16.9043 133.007 16.9212 133.386C16.9816 133.37 17.0262 133.379 17.0866 133.363C17.0845 132.988 17.0816 132.639 17.0795 132.263ZM14.2908 168.51C14.3652 168.524 14.4395 168.538 14.513 168.578C14.3956 168.074 14.8127 167.697 14.4471 167.011C14.3982 167.565 14.3371 168.036 14.2908 168.51ZM16.1295 164.22C16.2048 164.207 16.2791 164.221 16.3693 164.211C16.3682 163.809 16.3512 163.431 16.3501 163.028C16.2906 163.017 16.2303 163.032 16.1856 163.024C16.157 163.421 16.1433 163.82 16.1295 164.22ZM12.2627 215.272C12.2032 215.261 12.1289 215.247 12.0703 215.209C12.0268 215.603 11.9843 215.97 11.9408 216.364C12.0142 216.404 12.0737 216.415 12.1471 216.456C12.1757 216.059 12.2192 215.666 12.2627 215.272ZM8.56913 315.216C8.64256 315.257 8.71598 315.298 8.80428 315.341C8.84501 315.027 8.90062 314.716 8.95713 314.378C8.88371 314.338 8.81028 314.297 8.73685 314.256C8.68125 314.567 8.62473 314.905 8.56913 315.216ZM8.58161 103.055C8.50727 103.041 8.44779 103.03 8.37253 103.043C8.37549 103.392 8.37753 103.767 8.38049 104.116C8.43996 104.128 8.48457 104.136 8.54404 104.147C8.55687 103.774 8.56878 103.428 8.58161 103.055ZM15.4388 180.814C15.1268 181.184 15.0247 181.54 15.4403 182.074C15.4298 181.509 15.4269 181.16 15.4388 180.814ZM15.5427 213.022C15.4194 213.562 15.361 213.953 15.6938 214.284C15.9677 213.719 15.7835 213.416 15.5427 213.022ZM12.3686 220.893C12.2784 220.903 12.2023 220.942 12.1121 220.952C12.1606 221.283 12.2091 221.614 12.2576 221.944C12.318 221.929 12.3783 221.914 12.4387 221.898C12.4051 221.57 12.3864 221.245 12.3686 220.893ZM12.9891 212.863C13.4617 212.174 13.4849 211.938 13.1902 211.802C13.1179 212.163 13.0614 212.501 12.9891 212.863ZM5.64124 232.865C5.59663 232.857 5.55202 232.848 5.52137 232.869C5.50946 233.216 5.48359 233.532 5.50142 233.884C5.49867 233.964 5.60092 234.037 5.74503 234.198C5.70479 233.628 5.67301 233.246 5.64124 232.865ZM16.6382 118.994C16.5955 118.932 16.5378 118.867 16.495 118.806C16.4161 118.925 16.3074 119.038 16.2871 119.195C16.2509 119.376 16.2882 119.598 16.2957 119.813C16.3403 119.822 16.385 119.83 16.4286 119.865C16.4982 119.584 16.5678 119.302 16.6382 118.994ZM11.3294 201.078C11.2541 201.091 11.1789 201.104 11.1027 201.143C11.166 201.477 11.2154 201.781 11.2788 202.114C11.3243 202.096 11.3847 202.081 11.4302 202.062C11.3975 201.708 11.363 201.406 11.3294 201.078ZM16.1589 65.5139C16.0029 65.6989 15.8663 65.7536 15.8459 65.9106C15.8265 66.0409 15.8935 66.268 15.9177 66.4333C16.0097 66.3703 16.1305 66.3394 16.1787 66.2413C16.2288 66.09 16.1767 65.8657 16.1589 65.5139ZM15.6276 77.4746C15.7019 77.4886 15.7614 77.4998 15.8367 77.4872C15.8467 77.1943 15.8568 76.9014 15.8669 76.6085C15.7916 76.6211 15.6429 76.593 15.642 76.6197C15.6171 76.9098 15.6377 77.1817 15.6276 77.4746ZM18.9838 292.2C18.6246 293.071 18.6246 293.071 18.9966 293.57C18.9954 293.167 18.9925 292.818 18.9838 292.2ZM13.5282 222.854C13.4539 222.84 13.3796 222.826 13.3052 222.812C13.31 223.108 13.3157 223.377 13.3502 223.678C13.3493 223.705 13.4543 223.698 13.5129 223.736C13.5081 223.44 13.5182 223.147 13.5282 222.854ZM16.5135 74.345C16.4252 74.3015 16.3369 74.2581 16.2486 74.2146C16.2227 74.5314 16.2126 74.8243 16.1868 75.1411C16.2462 75.1523 16.3048 75.1901 16.3791 75.2041C16.419 74.9168 16.4588 74.6295 16.5135 74.345ZM16.2153 95.623C16.1567 95.5852 16.0824 95.5712 16.0238 95.5334C15.9961 95.9033 15.658 96.1612 16.0208 96.9265C16.1013 96.3252 16.1587 95.9608 16.2153 95.623ZM17.6391 84.6883C17.6995 84.6729 17.7757 84.6336 17.8361 84.6182C17.7894 84.2342 17.7279 83.8474 17.6813 83.4633C17.6209 83.4788 17.5447 83.518 17.4843 83.5334C17.5309 83.9174 17.5776 84.3015 17.6391 84.6883ZM16.4565 106.443C16.543 106.54 16.6146 106.633 16.701 106.73C16.8031 106.374 16.8893 106.042 16.9914 105.686C16.9337 105.622 16.8761 105.557 16.8185 105.493C16.7025 105.819 16.5725 106.116 16.4565 106.443ZM11.1501 149.317C11.0748 149.33 10.9838 149.366 10.9085 149.379C10.9421 149.707 10.9766 150.008 10.9954 150.333C11.0558 150.318 11.131 150.305 11.1914 150.29C11.1736 149.938 11.1697 149.616 11.1501 149.317ZM15.0686 237.671C15.1244 237.789 15.1812 237.88 15.2518 238C15.3187 237.799 15.4012 237.573 15.4681 237.371C15.469 237.344 15.3983 237.224 15.3704 237.165C15.2599 237.332 15.1643 237.501 15.0686 237.671ZM16.8358 208.495C16.8683 208.421 16.8868 208.317 16.9193 208.243C16.7892 208.111 16.6748 207.956 16.5446 207.824C16.5103 207.952 16.4909 208.082 16.4566 208.209C16.5728 208.312 16.7038 208.417 16.8358 208.495ZM16.5765 43.374C16.558 43.4777 16.5394 43.5814 16.52 43.7117C16.6669 43.793 16.8277 43.9037 16.9745 43.985C16.9931 43.8813 17.0116 43.7776 17.0301 43.6739C16.8842 43.5659 16.7234 43.4552 16.5765 43.374ZM14.4524 125.979C14.3771 125.991 14.3028 125.977 14.2275 125.99C14.262 126.291 14.3114 126.595 14.3469 126.87C14.4073 126.855 14.4528 126.837 14.5132 126.821C14.4926 126.549 14.4729 126.251 14.4524 125.979ZM14.239 138.267C14.1795 138.256 14.1052 138.242 14.0457 138.231C14.0347 138.551 14.0237 138.87 14.0127 139.19C14.0722 139.201 14.1168 139.209 14.1763 139.22C14.2022 138.904 14.228 138.587 14.239 138.267ZM18.8204 27.7427C18.8109 27.1512 18.7921 26.8261 18.7937 26.3439C18.4362 26.7321 18.3797 27.0699 18.8204 27.7427ZM15.6911 120.423C15.6177 120.382 15.5591 120.345 15.4866 120.277C15.4319 120.562 15.3772 120.846 15.3374 121.134C15.3811 121.169 15.4397 121.207 15.4834 121.242C15.5529 120.96 15.6216 120.705 15.6911 120.423ZM4.20841 231.014C4.41525 230.222 4.24507 229.949 4.04332 229.723C4.0145 229.691 3.95227 229.759 3.84636 229.793C3.94036 230.106 4.03436 230.418 4.20841 231.014ZM16.9127 73.6162C16.9275 73.619 16.9424 73.6218 16.9721 73.6274C16.9896 73.1214 17.0061 72.6421 17.0235 72.1362C16.9937 72.1306 16.964 72.125 16.9342 72.1194C16.9168 72.6253 16.9143 73.134 16.9127 73.6162ZM17.939 61.186C17.9845 61.1678 18.0458 61.1257 18.0914 61.1075C18.0122 60.7978 17.934 60.4614 17.8549 60.1517C17.8084 60.1965 17.7471 60.2386 17.7016 60.2568C17.7807 60.5665 17.8599 60.8762 17.939 61.186ZM16.2458 126.049C16.1724 126.008 16.0989 125.968 16.0106 125.924C15.9987 126.27 15.9877 126.59 15.9758 126.936C16.0056 126.942 16.0492 126.977 16.079 126.982C16.1355 126.645 16.1902 126.36 16.2458 126.049ZM12.5886 118.82C12.5552 118.921 12.5227 118.995 12.5042 119.099C12.692 119.295 12.8798 119.491 13.0667 119.714C13.1001 119.613 13.1325 119.539 13.1511 119.435C12.9642 119.212 12.7764 119.016 12.5886 118.82ZM15.5035 168.497C15.4291 168.483 15.3696 168.472 15.2953 168.458C15.301 168.727 15.3207 169.025 15.3264 169.295C15.371 169.303 15.4314 169.288 15.476 169.296C15.4842 169.056 15.4934 168.79 15.5035 168.497ZM7.17875 92.0702C7.25401 92.0576 7.32927 92.045 7.40453 92.0324C7.35422 91.7548 7.31877 91.4802 7.26846 91.2027C7.22294 91.2209 7.16255 91.2363 7.11702 91.2545C7.12181 91.5502 7.14331 91.7955 7.17875 92.0702ZM2.10228 203.064C2.12743 203.203 2.16838 203.318 2.19353 203.457C2.33193 203.349 2.47125 203.214 2.61057 203.08L2.54447 202.826C2.39212 202.905 2.25463 202.986 2.10228 203.064ZM4.98563 325.851C4.87218 325.669 4.80333 325.495 4.75781 325.513C4.68163 325.553 4.60179 325.698 4.59721 325.832C4.59354 325.938 4.66331 326.085 4.70425 326.2C4.78226 326.108 4.86118 325.989 4.98563 325.851ZM3.2938 134.516C3.23524 134.478 3.17576 134.467 3.1172 134.429C3.0783 134.689 3.05427 134.953 3.01537 135.214C3.07484 135.225 3.11853 135.26 3.17801 135.271C3.21599 135.037 3.25489 134.776 3.2938 134.516ZM16.0014 258.404C16.1675 257.926 16.2631 257.756 16.2528 257.62C16.2444 257.431 16.1458 257.252 16.0779 257.051C16.0323 257.07 15.9859 257.114 15.9404 257.133C15.9452 257.428 15.9648 257.727 16.0014 258.404ZM16.1522 182.261C16.0937 182.224 16.036 182.159 15.9775 182.121C15.9274 182.273 15.8475 182.418 15.8262 182.602C15.8049 182.786 15.858 182.983 15.8804 183.202C15.925 183.21 15.9705 183.192 16.0151 183.201C16.0568 182.86 16.1115 182.575 16.1522 182.261ZM13.8576 256.338C13.9338 256.299 13.9942 256.283 14.0704 256.244C14.02 255.967 13.9688 255.716 13.9185 255.438C13.873 255.456 13.8275 255.475 13.7671 255.49C13.7867 255.789 13.8222 256.063 13.8576 256.338ZM7.0856 293.093C7.06615 293.224 7.03183 293.351 7.01238 293.481C7.14528 293.533 7.29306 293.588 7.42596 293.64C7.44083 293.643 7.47881 293.409 7.47881 293.409C7.34866 293.277 7.21759 293.172 7.0856 293.093ZM11.4059 165.366C11.3456 165.381 11.2852 165.397 11.2239 165.439C11.2611 165.66 11.3133 165.885 11.3506 166.106C11.3961 166.088 11.4416 166.07 11.4871 166.051C11.4508 165.803 11.4284 165.585 11.4059 165.366ZM11.8546 155.373C11.796 155.335 11.7514 155.327 11.6928 155.289C11.6539 155.55 11.6141 155.837 11.5752 156.098C11.6338 156.136 11.6933 156.147 11.7518 156.185C11.7907 155.924 11.8147 155.66 11.8546 155.373ZM11.7749 128.985C11.9122 128.475 11.992 128.329 11.9984 128.143C12.003 128.01 11.9481 127.865 11.9081 127.724C11.8774 127.745 11.8319 127.763 11.8022 127.757C11.8079 128.026 11.7978 128.319 11.7749 128.985ZM15.7024 137.927C15.7573 138.071 15.7806 138.263 15.8392 138.301C15.8977 138.339 15.9906 138.249 16.0668 138.21C16.0277 138.042 15.9737 137.871 15.9346 137.703C15.8723 137.771 15.811 137.813 15.7024 137.927ZM16.1745 115.073C16.261 115.17 16.3186 115.235 16.3763 115.299C16.4106 115.172 16.4746 115.05 16.4783 114.943C16.481 114.863 16.3797 114.764 16.323 114.673C16.2738 114.797 16.2395 114.925 16.1745 115.073ZM15.2468 200.745C15.3063 200.756 15.3806 200.77 15.4401 200.781C15.4335 200.539 15.4269 200.296 15.4063 200.024C15.3617 200.016 15.3162 200.034 15.2716 200.026C15.2624 200.292 15.2541 200.532 15.2468 200.745ZM9.60004 312.221C9.69475 312.078 9.75697 312.01 9.79129 311.882C9.808 311.832 9.74006 311.631 9.71033 311.626C9.63598 311.612 9.57376 311.68 9.49758 311.72C9.52274 311.858 9.54789 311.997 9.60004 312.221ZM16.0346 177.415C15.9399 177.558 15.8628 177.624 15.8443 177.728C15.8397 177.861 15.8798 178.002 15.9049 178.141C15.9671 178.072 16.0582 178.036 16.0767 177.932C16.111 177.805 16.071 177.663 16.0346 177.415ZM12.9566 203.369C12.874 203.594 12.7793 203.737 12.7924 203.793C12.8463 203.964 12.9328 204.061 13.0035 204.181C13.0518 204.083 13.1613 203.943 13.1483 203.887C13.1389 203.725 13.0534 203.601 12.9566 203.369ZM3.68677 218.774C3.6163 219.083 3.56528 219.261 3.55978 219.42C3.55703 219.5 3.68902 219.579 3.74666 219.643C3.78098 219.516 3.84504 219.394 3.85054 219.234C3.86724 219.183 3.78169 219.06 3.68677 218.774ZM15.3296 173.985C15.2189 173.723 15.1649 173.552 15.0784 173.456C15.0645 173.426 14.9094 173.585 14.9057 173.691C14.9002 173.851 14.969 174.025 15.0072 174.22C15.1001 174.13 15.1921 174.067 15.3296 173.985ZM14.8796 123.567C15.0207 123.379 15.0978 123.313 15.0839 123.284C15.0596 123.118 15.0047 122.974 14.9507 122.803C14.9434 123.016 14.9212 123.226 14.8796 123.567ZM5.48413 203.943C5.41549 204.198 5.35052 204.347 5.32924 204.53C5.32557 204.637 5.41112 204.76 5.45206 204.875C5.51795 204.7 5.61266 204.557 5.66368 204.379C5.6813 204.302 5.56693 204.146 5.48413 203.943ZM5.22762 326.647C5.32437 326.88 5.36348 327.048 5.42295 327.059C5.4973 327.073 5.58926 327.01 5.62266 326.909C5.65515 326.835 5.58997 326.555 5.5751 326.552C5.47102 326.532 5.37905 326.595 5.22762 326.647ZM12.033 38.4168C11.9875 38.435 11.928 38.4238 11.8825 38.442C11.8891 38.6845 11.9097 38.9563 11.9312 39.2016C11.9767 39.1834 12.0362 39.1946 12.0817 39.1764C12.0611 38.9045 12.0545 38.662 12.033 38.4168ZM13.5982 209.949C13.5016 210.145 13.406 210.315 13.4051 210.341C13.46 210.486 13.5446 210.635 13.632 210.706C13.6608 210.738 13.8038 210.497 13.7908 210.441C13.7665 210.275 13.681 210.152 13.5982 209.949ZM13.5659 216.107C13.4812 215.957 13.4263 215.813 13.3669 215.802C13.3074 215.79 13.2433 215.912 13.1811 215.981C13.2369 216.099 13.2909 216.27 13.3774 216.366C13.3922 216.369 13.4879 216.2 13.5659 216.107ZM14.7667 97.7085C14.8104 97.7436 14.8383 97.8024 14.8689 97.7814C14.8987 97.787 14.9312 97.7127 14.9172 97.6833C14.8827 97.382 14.8482 97.0806 14.8136 96.7793C14.7681 96.7975 14.7226 96.8157 14.6622 96.8312C14.7116 97.1353 14.7312 97.4338 14.7667 97.7085ZM16.1488 60.1517C16.1051 60.1166 16.0624 60.055 16.0038 60.0171C15.9352 60.2722 15.8823 60.5034 15.8137 60.7585C15.8574 60.7936 15.9011 60.8286 15.9438 60.8903C16.0273 60.638 16.096 60.3829 16.1488 60.1517ZM16.6483 30.4154C16.678 30.421 16.7226 30.4294 16.7524 30.435C16.7606 30.1953 16.768 29.9823 16.7762 29.7426C16.7465 29.737 16.7019 29.7286 16.6721 29.723C16.6639 29.9627 16.6565 30.1757 16.6483 30.4154ZM7.61839 288.048C7.78948 288.294 7.84621 288.385 7.90385 288.45C7.91872 288.453 7.99856 288.307 8.0004 288.254C7.99011 288.118 7.951 287.95 7.89244 287.912C7.83388 287.874 7.75587 287.966 7.61839 288.048ZM13.3466 116.363C13.3921 116.345 13.4516 116.356 13.4971 116.338C13.4765 116.066 13.4569 115.767 13.4214 115.493C13.3759 115.511 13.3164 115.5 13.2709 115.518C13.3064 115.792 13.326 116.091 13.3466 116.363ZM11.681 173.03C11.5119 173.159 11.4069 173.166 11.3884 173.269C11.355 173.37 11.3635 173.559 11.3589 173.693C11.4332 173.707 11.5513 173.756 11.5837 173.681C11.6181 173.554 11.6245 173.367 11.681 173.03ZM17.7588 278.22C17.8044 278.202 17.8508 278.157 17.8963 278.139C17.8302 277.885 17.765 277.605 17.7138 277.354C17.6683 277.372 17.6367 277.42 17.5912 277.438C17.6424 277.689 17.7076 277.969 17.7588 278.22ZM18.7881 308.325C18.763 308.186 18.736 308.101 18.7099 307.989C18.6477 308.057 18.5855 308.126 18.5521 308.227C18.5354 308.277 18.5912 308.395 18.6033 308.478C18.6795 308.439 18.7417 308.37 18.7881 308.325ZM2.66837 176.611C2.74272 176.625 2.81706 176.639 2.87745 176.623C2.85505 176.405 2.83172 176.213 2.82418 175.997C2.77866 176.015 2.68853 176.025 2.67275 176.049C2.65146 176.232 2.65992 176.421 2.66837 176.611ZM9.73748 33.8029C9.69379 33.7679 9.65101 33.7062 9.60732 33.6712C9.54143 33.8464 9.47554 34.0216 9.40965 34.1968C9.48217 34.264 9.54072 34.3019 9.61324 34.3692C9.64939 34.1884 9.70041 34.0103 9.73748 33.8029ZM14.3915 13.8016C14.3572 13.9292 14.308 14.0539 14.3192 14.1633C14.3174 14.2165 14.4197 14.2894 14.4773 14.3539C14.4967 14.2235 14.5311 14.096 14.5356 13.9628C14.5366 13.9362 14.4631 13.8956 14.3915 13.8016ZM11.2236 157.184C11.2487 157.323 11.2581 157.485 11.273 157.488C11.3482 157.475 11.4244 157.436 11.5006 157.397C11.4745 157.285 11.4494 157.146 11.4382 157.037C11.362 157.076 11.2858 157.115 11.2236 157.184ZM13.7791 98.1388C13.7364 98.0771 13.6936 98.0155 13.6517 97.9272C13.6174 98.0547 13.5673 98.2061 13.5627 98.3392C13.5581 98.4724 13.5982 98.6139 13.6242 98.7261C13.6865 98.6574 13.7775 98.6209 13.796 98.5172C13.8295 98.4163 13.7894 98.2748 13.7791 98.1388ZM15.3888 67.8881C15.4437 68.0325 15.4846 68.1474 15.5255 68.2624C15.5878 68.1937 15.6946 68.1334 15.6983 68.0269C15.7168 67.9232 15.647 67.776 15.6061 67.6611C15.543 67.7564 15.4816 67.7984 15.3888 67.8881ZM15.714 73.6582C15.6685 73.6765 15.623 73.6947 15.5774 73.7129C15.612 74.0142 15.6465 74.3156 15.681 74.6169C15.7265 74.5987 15.7721 74.5804 15.8325 74.565C15.7831 74.2609 15.7485 73.9596 15.714 73.6582ZM15.6261 84.0408C15.5406 83.9174 15.4829 83.853 15.4262 83.7619C15.3937 83.8361 15.3306 83.9315 15.3436 83.9875C15.3539 84.1235 15.4097 84.2412 15.4506 84.3561C15.498 84.2847 15.5463 84.1865 15.6261 84.0408ZM8.72139 316.88C8.60998 317.073 8.54593 317.195 8.48187 317.317C8.5386 317.408 8.59257 317.579 8.65205 317.591C8.71152 317.602 8.80623 317.459 8.82477 317.355C8.84239 317.278 8.78749 317.134 8.72139 316.88ZM16.5817 90.6266C16.5223 90.6154 16.447 90.628 16.3875 90.6168C16.4081 90.8887 16.4287 91.1606 16.4493 91.4324C16.479 91.4381 16.5245 91.4199 16.5543 91.4255C16.5634 91.1592 16.5726 90.8929 16.5817 90.6266ZM14.0112 164.892C14.0856 164.906 14.159 164.947 14.2185 164.958C14.2119 164.716 14.2201 164.476 14.2144 164.207C14.1698 164.199 14.1252 164.19 14.0806 164.182C14.0575 164.419 14.0344 164.655 14.0112 164.892ZM12.536 225.16C12.4896 225.204 12.4283 225.246 12.3818 225.291C12.4628 225.548 12.5289 225.801 12.6099 226.058C12.6405 226.037 12.6712 226.016 12.7018 225.995C12.6357 225.741 12.5863 225.437 12.536 225.16ZM14.8574 156.395C14.9187 156.353 14.98 156.311 15.0562 156.271C15.004 156.047 14.9361 155.847 14.8839 155.623C14.8384 155.641 14.8068 155.688 14.7613 155.707C14.7977 155.955 14.835 156.176 14.8574 156.395ZM15.0189 202.149C15.1035 202.299 15.1436 202.441 15.2161 202.508C15.2449 202.54 15.3536 202.427 15.3405 202.371C15.3451 202.238 15.3042 202.123 15.279 201.984C15.2028 202.023 15.1267 202.062 15.0189 202.149ZM15.9 217.86C15.7865 217.678 15.7326 217.507 15.6452 217.437C15.6015 217.402 15.5207 217.574 15.4734 217.646C15.5431 217.793 15.5822 217.961 15.6678 218.085C15.6817 218.114 15.7764 217.971 15.9 217.86ZM17.3063 247.447C17.2301 247.486 17.1846 247.504 17.1242 247.52C17.1493 247.658 17.1587 247.821 17.2006 247.909C17.2285 247.968 17.3371 247.855 17.3975 247.839C17.3724 247.7 17.3314 247.585 17.3063 247.447ZM17.4579 243.911C17.3028 244.069 17.2108 244.132 17.2099 244.159C17.2193 244.321 17.2584 244.489 17.2826 244.655C17.3197 244.447 17.3707 244.269 17.4579 243.911ZM16.7937 83.162C16.7528 83.0471 16.7258 82.9616 16.7127 82.9055C16.6645 83.0036 16.6022 83.0723 16.5688 83.1732C16.5521 83.2237 16.6089 83.3148 16.6359 83.4003C16.6832 83.3288 16.7464 83.2335 16.7937 83.162ZM12.8522 191.181C12.9694 191.257 13.0419 191.324 13.1171 191.311C13.1469 191.317 13.2137 191.115 13.2146 191.088C13.1736 190.973 13.116 190.909 13.0602 190.791C12.9961 190.913 12.9479 191.011 12.8522 191.181ZM13.1007 180.48C13.1435 180.542 13.1854 180.63 13.2002 180.633C13.2458 180.615 13.2643 180.511 13.2968 180.437C13.254 180.375 13.1964 180.311 13.1545 180.222C13.136 180.326 13.1183 180.403 13.1007 180.48ZM16.0949 92.5985C16.1738 92.4794 16.2676 92.3631 16.2555 92.2804C16.2443 92.1711 16.1605 91.9945 16.1011 91.9833C16.0416 91.972 15.932 92.1122 15.9283 92.2187C15.9405 92.3014 16.026 92.4247 16.0949 92.5985ZM16.758 61.151C16.8174 61.1622 16.862 61.1706 16.9215 61.1818C16.9149 60.9393 16.9083 60.6969 16.9017 60.4544C16.8719 60.4488 16.8422 60.4432 16.8115 60.4642C16.7893 60.6745 16.7662 60.9113 16.758 61.151ZM14.3489 132.901C14.3155 133.002 14.2811 133.129 14.2468 133.257C14.2905 133.292 14.3621 133.386 14.377 133.389C14.4401 133.293 14.4744 133.166 14.5227 133.068C14.4651 133.003 14.4214 132.968 14.3489 132.901ZM16.18 63.1594C16.1336 63.2042 16.0583 63.2168 16.0565 63.2701C16.0389 63.3472 16.0807 63.4355 16.1077 63.5209C16.1542 63.4761 16.2294 63.4635 16.2313 63.4102C16.2331 63.357 16.1912 63.2687 16.18 63.1594ZM14.4341 111.288C14.3904 111.253 14.3607 111.247 14.317 111.212C14.2966 111.369 14.2763 111.526 14.2559 111.683C14.2559 111.683 14.3135 111.748 14.3144 111.721C14.3645 111.57 14.3989 111.442 14.4341 111.288ZM15.2351 67.1355C15.2081 67.05 15.1978 66.9141 15.169 66.8818C15.1402 66.8496 15.0779 66.9183 15.0166 66.9603C15.0576 67.0752 15.0836 67.1874 15.1097 67.2995C15.1562 67.2546 15.2026 67.2098 15.2351 67.1355ZM14.7463 84.3842C14.6598 84.2875 14.5882 84.1935 14.5288 84.1823C14.499 84.1767 14.4341 84.3253 14.4471 84.3814C14.4732 84.4935 14.529 84.6112 14.5699 84.7261C14.6033 84.6252 14.6516 84.5271 14.7463 84.3842ZM10.6454 177.9C10.7143 178.074 10.7701 178.191 10.8119 178.28C10.8444 178.205 10.9215 178.14 10.9233 178.086C10.9279 177.953 10.8879 177.812 10.8767 177.702C10.8154 177.744 10.7532 177.813 10.6454 177.9ZM10.5426 170.885C10.5993 170.976 10.67 171.097 10.6709 171.07C10.7183 170.999 10.7675 170.874 10.8157 170.776C10.773 170.714 10.7171 170.597 10.7014 170.62C10.654 170.692 10.6057 170.79 10.5426 170.885ZM11.5934 136C11.624 135.979 11.6547 135.958 11.7011 135.913C11.6481 135.715 11.595 135.518 11.5577 135.296C11.5271 135.317 11.4806 135.362 11.45 135.383C11.4872 135.605 11.5403 135.802 11.5934 136ZM11.6294 68.4123C11.6758 68.3675 11.7362 68.3521 11.7538 68.275C11.7715 68.1979 11.7603 68.0886 11.7481 68.0059C11.6868 68.0479 11.6255 68.09 11.5782 68.1615C11.5624 68.1853 11.6182 68.303 11.6294 68.4123ZM12.804 9.05327C12.7836 9.21025 12.7633 9.36721 12.7438 9.49757C12.7884 9.50597 12.8609 9.57324 12.8776 9.52279C12.9101 9.44852 12.9287 9.34479 12.9174 9.23548C12.9184 9.20885 12.8607 9.14439 12.804 9.05327ZM4.64478 195.718C4.55282 195.781 4.5073 195.799 4.46086 195.844C4.5018 195.959 4.52695 196.097 4.58368 196.189C4.59763 196.218 4.67564 196.125 4.73603 196.11C4.69601 195.969 4.66994 195.856 4.64478 195.718ZM3.86971 210.849C3.89669 210.934 3.90698 211.07 3.9358 211.102C3.97949 211.137 4.02685 211.066 4.08816 211.024C4.06117 210.938 4.05088 210.802 4.02206 210.77C3.97745 210.762 3.9301 210.833 3.86971 210.849ZM2.86601 227.839C2.7713 227.982 2.70816 228.078 2.67476 228.179C2.67293 228.232 2.72599 228.429 2.74086 228.432C2.8152 228.446 2.92112 228.413 2.93873 228.335C2.95818 228.205 2.90329 228.061 2.86601 227.839ZM8.75079 39.8618C8.79632 39.8435 8.84092 39.8519 8.88645 39.8337C8.87891 39.6179 8.85558 39.4259 8.84805 39.21C8.80252 39.2283 8.75792 39.2198 8.71239 39.2381C8.71993 39.4539 8.72747 39.6698 8.75079 39.8618ZM3.78101 167.761C3.82653 167.743 3.85627 167.749 3.90179 167.73C3.87755 167.565 3.85331 167.4 3.82907 167.234L3.75381 167.247C3.74831 167.407 3.77255 167.572 3.78101 167.761ZM2.26167 171.468C2.33418 171.536 2.39091 171.627 2.46434 171.667C2.47921 171.67 2.5451 171.495 2.54601 171.468C2.48929 171.377 2.43256 171.286 2.36005 171.219C2.32848 171.267 2.29599 171.341 2.26167 171.468ZM14.6705 254.026C14.624 254.07 14.5785 254.089 14.5172 254.131C14.5582 254.246 14.6 254.334 14.6261 254.446C14.6725 254.401 14.7347 254.332 14.7514 254.282C14.77 254.178 14.6984 254.084 14.6705 254.026ZM1.86632 182.088C1.89423 182.147 1.9203 182.259 1.96399 182.294C1.99281 182.326 2.05595 182.231 2.10147 182.213C2.05962 182.124 2.01867 182.009 1.97682 181.921C1.93038 181.966 1.89789 182.04 1.86632 182.088ZM2.55589 138.129C2.56892 138.185 2.58104 138.267 2.57921 138.321C2.65539 138.282 2.74643 138.245 2.82353 138.179C2.82353 138.179 2.82627 138.099 2.82811 138.046C2.73615 138.109 2.64602 138.119 2.55589 138.129ZM14.0722 242.71C14.0221 242.861 13.9738 242.959 13.9543 243.089C13.9525 243.143 14.0223 243.29 14.038 243.266C14.0994 243.224 14.1625 243.129 14.2247 243.06C14.1968 243.001 14.1689 242.942 14.0722 242.71ZM16.014 169.317C15.9685 169.335 15.9239 169.327 15.8635 169.342C15.8841 169.614 15.9055 169.859 15.9261 170.131C15.9716 170.113 16.0162 170.121 16.0618 170.103C16.0561 169.834 16.0355 169.562 16.014 169.317ZM15.9327 156.892C15.8575 156.905 15.7813 156.944 15.706 156.957C15.7172 157.066 15.7433 157.178 15.7545 157.288C15.8307 157.248 15.9068 157.209 15.9691 157.14C15.9839 157.143 15.9588 157.004 15.9327 156.892ZM15.6779 162.124C15.6323 162.143 15.5719 162.158 15.5413 162.179C15.5255 162.203 15.5218 162.309 15.5367 162.312C15.5804 162.347 15.625 162.356 15.6687 162.391C15.6714 162.311 15.6742 162.231 15.6779 162.124ZM15.9407 129.261C15.9835 129.323 16.0114 129.382 16.0542 129.443C16.0866 129.369 16.1489 129.3 16.1358 129.244C16.1228 129.188 16.0652 129.124 16.0224 129.062C16.0057 129.113 15.9732 129.187 15.9407 129.261ZM18.1174 62.9617C18.0755 62.8735 18.0188 62.7824 17.9769 62.6941C17.8952 62.8931 17.8284 63.0949 17.7468 63.2939C17.7895 63.3556 17.8174 63.4144 17.8611 63.4495C17.9419 63.2771 18.0226 63.1047 18.1174 62.9617ZM18.0016 58.062C17.9115 58.0718 17.8223 58.055 17.8214 58.0816C17.787 58.2092 17.7973 58.3451 17.7927 58.4783C17.8383 58.46 17.9266 58.5035 17.9433 58.453C17.9618 58.3493 17.9664 58.2162 18.0016 58.062ZM17.3633 69.6541C17.3372 69.5419 17.3102 69.4564 17.2981 69.3737C17.2359 69.4424 17.1885 69.5139 17.1254 69.6092C17.1682 69.6709 17.1933 69.8096 17.2379 69.818C17.2825 69.8264 17.3159 69.7255 17.3633 69.6541Z" fill="#FF9E44"/>
</svg>
