<svg width="10" height="6" viewBox="0 0 10 6" fill="none" xmlns="http://www.w3.org/2000/svg">
<path fill-rule="evenodd" clip-rule="evenodd" d="M4.10758 2.13654C4.54583 1.80777 4.54583 1.80777 4.54583 1.80777C4.76887 1.58887 4.98776 1.81192 5.2957 2.04281C5.48421 2.17343 6.05885 2.82398 6.27402 3.0495L7.65472 4.59626C7.80293 4.75938 7.96155 4.99725 8.11171 5.14217C8.54399 5.575 9.23745 5.1154 9.07749 4.54604C8.97085 4.16648 8.0335 3.29303 7.75918 2.93233L5.35986 0.41139C5.21165 0.248266 5.03289 0.0266484 4.69751 0.064385C4.62276 0.0747931 4.04952 0.271149 3.98907 0.319903C3.80775 0.466166 1.62681 3.47251 1.42991 3.76437C1.14657 4.17583 0.685803 4.69715 1.21687 5.06692C1.81489 5.49908 2.12549 4.83283 2.36854 4.45387C2.60574 4.12951 3.9282 2.26461 4.10758 2.13654Z" fill="#EF4136"/>
</svg>
