<svg width="14" height="9" viewBox="0 0 14 9" fill="none" xmlns="http://www.w3.org/2000/svg">
<path d="M8.13653 5.14358L8.13651 5.14355L8.13462 5.14497L8.13073 5.14789L8.12686 5.1508L8.123 5.15369L8.11915 5.15658L8.11532 5.15945L8.11151 5.16231L8.1077 5.16517L8.10392 5.168L8.10015 5.17083L8.0964 5.17365L8.09265 5.17646L8.08893 5.17925L8.08522 5.18203L8.08152 5.18481L8.07784 5.18757L8.07418 5.19032L8.07053 5.19306L8.06689 5.19579L8.06327 5.1985L8.05966 5.20121L8.05607 5.2039L8.05249 5.20659L8.04893 5.20926L8.04538 5.21192L8.04184 5.21458L8.03832 5.21722L8.03482 5.21985L8.03133 5.22246L8.02785 5.22507L8.02439 5.22767L8.02094 5.23026L8.01751 5.23283L8.01409 5.2354L8.01068 5.23795L8.00729 5.2405L8.00392 5.24303L8.00055 5.24555L7.99721 5.24806L7.99387 5.25056L7.99055 5.25305L7.98725 5.25553L7.98395 5.258L7.98068 5.26046L7.97741 5.26291L7.97416 5.26535L7.97093 5.26778L7.9677 5.2702L7.96449 5.2726L7.9613 5.275L7.95812 5.27739L7.95495 5.27976L7.9518 5.28213L7.94866 5.28448L7.94553 5.28683L7.94242 5.28916L7.93932 5.29149L7.93623 5.2938L7.93316 5.29611L7.9301 5.2984L7.92706 5.30069L7.92403 5.30296L7.92101 5.30523L7.918 5.30748L7.91501 5.30972L7.91203 5.31196L7.90907 5.31418L7.90612 5.3164L7.90318 5.3186L7.90026 5.3208L7.89734 5.32298L7.89444 5.32516L7.89156 5.32732L7.88869 5.32947L7.88583 5.33162L7.88298 5.33376L7.88015 5.33588L7.87733 5.338L7.87452 5.3401L7.87172 5.3422L7.86894 5.34429L7.86617 5.34636L7.86342 5.34843L7.86067 5.35049L7.85794 5.35254L7.85523 5.35458L7.85252 5.35661L7.84983 5.35863L7.84715 5.36064L7.84448 5.36264L7.84183 5.36463L7.83918 5.36661L7.83656 5.36858L7.83394 5.37055L7.83133 5.3725L7.82874 5.37445L7.82616 5.37638L7.82359 5.37831L7.82104 5.38022L7.8185 5.38213L7.81597 5.38403L7.81345 5.38592L7.81094 5.3878L7.80845 5.38967L7.80597 5.39153L7.8035 5.39338L7.80104 5.39523L7.79859 5.39706L7.79616 5.39889L7.79374 5.4007L7.79133 5.40251L7.78893 5.40431L7.78655 5.4061L7.78417 5.40788L7.78181 5.40965L7.77946 5.41141L7.77713 5.41317L7.7748 5.41491L7.77248 5.41665L7.77018 5.41838L7.76789 5.4201L7.76561 5.42181L7.76334 5.42351L7.76109 5.4252L7.75884 5.42688L7.75661 5.42856L7.75439 5.43023L7.75218 5.43188L7.74998 5.43353L7.74779 5.43517L7.74562 5.43681L7.74345 5.43843L7.7413 5.44005L7.73916 5.44165L7.73703 5.44325L7.73491 5.44484L7.7328 5.44642L7.7307 5.44799L7.72862 5.44956L7.72654 5.45112L7.72448 5.45266L7.72243 5.4542L7.72039 5.45574L7.71836 5.45726L7.71634 5.45877L7.71433 5.46028L7.71233 5.46178L7.71034 5.46327L7.70837 5.46475L7.7064 5.46623L7.70445 5.46769L7.70251 5.46915L7.70057 5.4706L7.69865 5.47204L7.69674 5.47347L7.69484 5.4749L7.69295 5.47632L7.69107 5.47773L7.6892 5.47913L7.68734 5.48052L7.68549 5.48191L7.68366 5.48329L7.68183 5.48466L7.68001 5.48602L7.67821 5.48738L7.67641 5.48873L7.67463 5.49006L7.67285 5.4914L7.67109 5.49272L7.66933 5.49404L7.66759 5.49535L7.66585 5.49665L7.66413 5.49794L7.66241 5.49923L7.66071 5.5005L7.65902 5.50178L7.65733 5.50304L7.65566 5.50429L7.65399 5.50554L7.65234 5.50678L7.6507 5.50802L7.64906 5.50924L7.64744 5.51046L7.64582 5.51167L7.64422 5.51288L7.64262 5.51407L7.64104 5.51526L7.63946 5.51644L7.6379 5.51762L7.63634 5.51879L7.63479 5.51995L7.63326 5.5211L7.63173 5.52225L7.63021 5.52339L7.6287 5.52452L7.6272 5.52564L7.62571 5.52676L7.62423 5.52787L7.62276 5.52897L7.6213 5.53007L7.61985 5.53116L7.61841 5.53224L7.61697 5.53332L7.61555 5.53439L7.61413 5.53545L7.61273 5.5365L7.61133 5.53755L7.60994 5.53859L7.60856 5.53963L7.60719 5.54065L7.60583 5.54167L7.60448 5.54269L7.60314 5.5437L7.6018 5.5447L7.60048 5.54569L7.59916 5.54668L7.59785 5.54766L7.59656 5.54863L7.59527 5.5496L7.59398 5.55056L7.59271 5.55152L7.59145 5.55246L7.59019 5.55341L7.58895 5.55434L7.58771 5.55527L7.58648 5.55619L7.58526 5.55711L7.58405 5.55802L7.58284 5.55892L7.58165 5.55982L7.58046 5.56071L7.57928 5.56159L7.57811 5.56247L7.57695 5.56334L7.5758 5.56421L7.57465 5.56507L7.57352 5.56592L7.57239 5.56676L7.57127 5.56761L7.57015 5.56844L7.56905 5.56927L7.56795 5.57009L7.56687 5.57091L7.56579 5.57172L7.56471 5.57252L7.56365 5.57332L7.56259 5.57411L7.56155 5.5749L7.5605 5.57568L7.55947 5.57645L7.55845 5.57722L7.55743 5.57799L7.55642 5.57874L7.55542 5.57949L7.55443 5.58024L7.55344 5.58098L7.55246 5.58171L7.55149 5.58244L7.55053 5.58316L7.54957 5.58388L7.54862 5.58459L7.54768 5.5853L7.54675 5.586L7.54582 5.58669L7.54491 5.58738L7.544 5.58807L7.54309 5.58874L7.5422 5.58942L7.54131 5.59008L7.54042 5.59074L7.53955 5.5914L7.53868 5.59205L7.53782 5.5927L7.53697 5.59334L7.53612 5.59397L7.53528 5.5946L7.53445 5.59522L7.53363 5.59584L7.53281 5.59646L7.532 5.59706L7.5312 5.59767L7.5304 5.59827L7.52961 5.59886L7.52883 5.59945L7.52805 5.60003L7.52728 5.60061L7.52652 5.60118L7.52576 5.60175L7.52501 5.60231L7.52427 5.60286L7.52353 5.60342L7.5228 5.60396L7.52208 5.60451L7.52136 5.60504L7.52065 5.60558L7.51995 5.6061L7.51925 5.60663L7.51856 5.60715L7.51788 5.60766L7.5172 5.60817L7.51653 5.60867L7.51586 5.60917L7.5152 5.60966L7.51455 5.61015L7.5139 5.61064L7.51326 5.61112L7.51263 5.6116L7.512 5.61207L7.51138 5.61253L7.51076 5.613L7.51015 5.61345L7.50955 5.61391L7.50895 5.61435L7.50836 5.6148L7.50777 5.61524L7.50719 5.61567L7.50662 5.6161L7.50605 5.61653L7.50549 5.61695L7.50493 5.61737L7.50438 5.61778L7.50384 5.61819L7.5033 5.6186L7.50276 5.619L7.50223 5.61939L7.50171 5.61979L7.50119 5.62017L7.50068 5.62056L7.50018 5.62094L7.49968 5.62131L7.49918 5.62169L7.49869 5.62205L7.49821 5.62242L7.49773 5.62278L7.49725 5.62313L7.49678 5.62348L7.49632 5.62383L7.49586 5.62417L7.49541 5.62451L7.49496 5.62485L7.49452 5.62518L7.49408 5.62551L7.49365 5.62583L7.49322 5.62615L7.4928 5.62647L7.49238 5.62678L7.49197 5.62709L7.49156 5.6274L7.49116 5.6277L7.49076 5.628L7.49037 5.62829L7.48998 5.62859L7.4896 5.62887L7.48922 5.62916L7.48885 5.62944L7.48848 5.62971L7.48811 5.62999L7.48776 5.63026L7.4874 5.63052L7.48705 5.63079L7.4867 5.63105L7.48636 5.6313L7.48603 5.63155L7.48569 5.6318L7.48537 5.63205L7.48504 5.63229L7.48472 5.63253L7.48441 5.63277L7.4841 5.633L7.48379 5.63323L7.48349 5.63346L7.48319 5.63368L7.4829 5.6339L7.48261 5.63412L7.48232 5.63433L7.48204 5.63454L7.48177 5.63475L7.48149 5.63496L7.48122 5.63516L7.48096 5.63536L7.4807 5.63555L7.48044 5.63574L7.48019 5.63593L7.47994 5.63612L7.47969 5.63631L7.47945 5.63649L7.47921 5.63667L7.47898 5.63684L7.47875 5.63701L7.47852 5.63718L7.4783 5.63735L7.47808 5.63752L7.47786 5.63768L7.47765 5.63784L7.47744 5.63799L7.47724 5.63815L7.47703 5.6383L7.47683 5.63845L7.47664 5.6386L7.47645 5.63874L7.47626 5.63888L7.47608 5.63902L7.47589 5.63916L7.47572 5.63929L7.47554 5.63942L7.47537 5.63955L7.4752 5.63968L7.47503 5.6398L7.47487 5.63992L7.47471 5.64004L7.47456 5.64016L7.4744 5.64027L7.47425 5.64039L7.47411 5.6405L7.47396 5.64061L7.47382 5.64071L7.47368 5.64081L7.47355 5.64092L7.47341 5.64102L7.47328 5.64111L7.47316 5.64121L7.47303 5.6413L7.47291 5.64139L7.47279 5.64148L7.47267 5.64157L7.47256 5.64166L7.47245 5.64174L7.47234 5.64182L7.47223 5.6419L7.47213 5.64198L7.47203 5.64205L7.47193 5.64213L7.47183 5.6422L7.47174 5.64227L7.47165 5.64234L7.47156 5.64241L7.47147 5.64247L7.47139 5.64254L7.4713 5.6426L7.47122 5.64266L7.47115 5.64272L7.47107 5.64277L7.471 5.64283L7.47092 5.64288L7.47085 5.64294L7.47079 5.64299L7.47072 5.64304L7.47066 5.64308L7.4706 5.64313L7.47054 5.64318L7.47048 5.64322L7.47042 5.64326L7.47037 5.6433L7.47031 5.64334L7.47026 5.64338L7.47021 5.64342L7.47017 5.64345L7.47012 5.64349L7.47008 5.64352L7.47003 5.64355L7.46999 5.64358L7.46995 5.64361L7.46992 5.64364L7.46988 5.64367L7.46984 5.64369L7.46981 5.64372L7.46978 5.64374L7.46975 5.64377L7.46972 5.64379L7.46969 5.64381L7.46966 5.64383L7.46964 5.64385L7.46961 5.64387L7.46959 5.64388L7.46957 5.6439L7.46955 5.64392L7.46953 5.64393L7.46951 5.64395L7.46949 5.64396L7.46947 5.64397L7.46946 5.64398L7.46944 5.64399L7.46943 5.644L7.46942 5.64401L7.46941 5.64402L7.46939 5.64403L7.46938 5.64404L7.46937 5.64405L7.46936 5.64405L7.46936 5.64406L7.46935 5.64407L7.46934 5.64407L7.46934 5.64408L7.46933 5.64408L7.46932 5.64408L7.46932 5.64409L7.46932 5.64409L7.46931 5.64409L7.46931 5.64409L7.4693 5.6441L7.4693 5.6441L7.46877 5.6434L7.45926 5.65273C7.38713 5.72352 7.32274 5.75187 7.26334 5.75843C7.20213 5.7652 7.13343 5.75024 7.05117 5.71134C6.96849 5.67225 6.87898 5.6123 6.77797 5.53733C6.72781 5.5001 6.67593 5.46002 6.62133 5.41778L6.61543 5.41321C6.56285 5.37253 6.50789 5.33001 6.45087 5.28726L6.45091 5.2872L6.44784 5.28507C6.38442 5.24112 6.28194 5.14814 6.15436 5.02188C6.02855 4.89736 5.88346 4.74568 5.73642 4.58876C5.59308 4.4358 5.44674 4.27659 5.31564 4.13396C5.18068 3.98713 5.06187 3.85788 4.97916 3.77114L2.88415 1.42416L2.88356 1.42351C2.78995 1.32049 2.69338 1.19709 2.59336 1.06927C2.57647 1.04769 2.55949 1.02599 2.54241 1.00424C2.4262 0.856286 2.30528 0.706034 2.18587 0.59066C1.82023 0.225137 1.34048 0.237728 0.991824 0.459566C0.644805 0.680366 0.418397 1.11387 0.553297 1.59404C0.59941 1.75817 0.729638 1.96237 0.892425 2.17641C1.05777 2.39381 1.26616 2.63324 1.48073 2.86984C1.62692 3.03103 1.77518 3.19013 1.91536 3.34056C2.19111 3.63648 2.43557 3.89882 2.57137 4.07738L2.57089 4.07775L2.57853 4.08578L6.22025 7.91211C6.23276 7.92588 6.24556 7.94013 6.25868 7.95473C6.47402 8.1944 6.77583 8.53031 7.31021 8.47018L7.31022 8.47021L7.31282 8.46985C7.35151 8.46446 7.43657 8.43955 7.53222 8.40928C7.63241 8.37757 7.75574 8.33616 7.87818 8.29299C8.00052 8.24986 8.1229 8.20464 8.22096 8.16532C8.26989 8.1457 8.31372 8.12717 8.34883 8.11082C8.38042 8.09612 8.41497 8.07876 8.43732 8.06073C8.46268 8.04027 8.49739 8.00249 8.53598 7.95775C8.57658 7.91067 8.62728 7.84895 8.68636 7.77507C8.8046 7.62718 8.95827 7.42818 9.13534 7.19493C9.48959 6.72828 9.93897 6.12263 10.3888 5.51039C11.2874 4.2876 12.1907 3.03473 12.3424 2.81003C12.3835 2.75026 12.4288 2.68667 12.4756 2.62105C12.5463 2.52176 12.6204 2.41782 12.6884 2.31546C12.8033 2.14249 12.9109 1.95984 12.9789 1.77587C13.047 1.59164 13.0779 1.39892 13.0302 1.20973C12.9821 1.01886 12.8574 0.84554 12.641 0.694669C12.4011 0.521439 12.1791 0.450718 11.9724 0.464163C11.766 0.477585 11.5903 0.573903 11.441 0.704532C11.2924 0.834586 11.1647 1.00306 11.0527 1.17107C10.987 1.26962 10.9226 1.37469 10.8628 1.47234C10.8237 1.53615 10.7865 1.59679 10.7522 1.65038C10.6884 1.73766 10.5749 1.89556 10.4297 2.09744C10.3676 2.18381 10.2997 2.27822 10.2275 2.37859C9.98438 2.71623 9.69134 3.12212 9.40108 3.51863C9.11074 3.91526 8.8236 4.30194 8.59226 4.60136C8.47653 4.75115 8.37534 4.87835 8.295 4.97377C8.25479 5.02151 8.22042 5.06057 8.19246 5.0902C8.16318 5.12125 8.14503 5.13751 8.13653 5.14358Z" fill="#ABFFEB" stroke="#ABFFEB" stroke-width="0.2"/>
</svg>
