<svg width="19" height="20" viewBox="0 0 19 20" fill="none" xmlns="http://www.w3.org/2000/svg">
<mask id="path-1-outside-1_4437_2415" maskUnits="userSpaceOnUse" x="0.290039" y="0" width="19" height="20" fill="black">
<rect fill="white" x="0.290039" width="19" height="20"/>
<path fill-rule="evenodd" clip-rule="evenodd" d="M9.91923 2.76062C11.0411 3.48824 12.4944 4.73174 12.5856 6.17068C12.599 6.38318 12.6967 6.53981 12.8322 6.64027C13.341 8.90497 12.6972 11.3387 10.5007 12.4515C9.25599 13.0822 7.93578 13.2272 6.58379 12.8733C4.96258 12.449 3.95465 11.6173 3.09032 10.1905C2.26404 8.82637 2.06505 7.44867 2.61291 5.92717C3.06252 4.67886 3.91912 3.58293 5.11517 2.97069C6.53697 2.24265 8.49325 1.83588 9.91923 2.76062ZM13.7493 5.56107C13.3862 4.00151 12.0664 2.65962 10.7702 1.81916C9.04257 0.698988 6.97739 0.83381 5.12353 1.58631C2.07195 2.825 -0.0360889 6.85065 1.53161 9.96619C2.44004 11.7716 3.6848 13.3253 5.68142 13.9231C7.34632 14.4216 9.04006 14.4968 10.6527 13.765C11.1756 13.5278 11.6418 13.2379 12.0512 12.9045C13.6984 14.8452 15.3686 16.7691 17.2113 18.5284C17.7959 19.0867 18.6841 18.2011 18.098 17.6417C16.2541 15.8809 14.5826 13.9556 12.9342 12.0135C14.2528 10.3595 14.5859 8.08333 13.9217 5.84732C13.8855 5.72531 13.8249 5.63075 13.7493 5.56107Z"/>
</mask>
<path fill-rule="evenodd" clip-rule="evenodd" d="M9.91923 2.76062C11.0411 3.48824 12.4944 4.73174 12.5856 6.17068C12.599 6.38318 12.6967 6.53981 12.8322 6.64027C13.341 8.90497 12.6972 11.3387 10.5007 12.4515C9.25599 13.0822 7.93578 13.2272 6.58379 12.8733C4.96258 12.449 3.95465 11.6173 3.09032 10.1905C2.26404 8.82637 2.06505 7.44867 2.61291 5.92717C3.06252 4.67886 3.91912 3.58293 5.11517 2.97069C6.53697 2.24265 8.49325 1.83588 9.91923 2.76062ZM13.7493 5.56107C13.3862 4.00151 12.0664 2.65962 10.7702 1.81916C9.04257 0.698988 6.97739 0.83381 5.12353 1.58631C2.07195 2.825 -0.0360889 6.85065 1.53161 9.96619C2.44004 11.7716 3.6848 13.3253 5.68142 13.9231C7.34632 14.4216 9.04006 14.4968 10.6527 13.765C11.1756 13.5278 11.6418 13.2379 12.0512 12.9045C13.6984 14.8452 15.3686 16.7691 17.2113 18.5284C17.7959 19.0867 18.6841 18.2011 18.098 17.6417C16.2541 15.8809 14.5826 13.9556 12.9342 12.0135C14.2528 10.3595 14.5859 8.08333 13.9217 5.84732C13.8855 5.72531 13.8249 5.63075 13.7493 5.56107Z" fill="#ABFFEB"/>
<path d="M12.5856 6.17068L12.9349 6.14856L12.9349 6.14859L12.5856 6.17068ZM9.91923 2.76062L10.1097 2.46696L10.1097 2.46698L9.91923 2.76062ZM12.8322 6.64027L13.0407 6.35912L13.1452 6.43661L13.1737 6.56355L12.8322 6.64027ZM10.5007 12.4515L10.6589 12.7637L10.6589 12.7637L10.5007 12.4515ZM6.58379 12.8733L6.67241 12.5347L6.67242 12.5347L6.58379 12.8733ZM3.09032 10.1905L2.79097 10.3718L2.79096 10.3718L3.09032 10.1905ZM2.61291 5.92717L2.28361 5.80859L2.28362 5.80856L2.61291 5.92717ZM5.11517 2.97069L5.27469 3.28222L5.27465 3.28225L5.11517 2.97069ZM10.7702 1.81916L10.5798 2.11284L10.5798 2.11283L10.7702 1.81916ZM13.7493 5.56107L13.512 5.81831L13.4329 5.74531L13.4084 5.64045L13.7493 5.56107ZM5.12353 1.58631L4.99189 1.26201L4.99189 1.262L5.12353 1.58631ZM1.53161 9.96619L1.84426 9.80887L1.53161 9.96619ZM5.68142 13.9231L5.78181 13.5878L5.78182 13.5878L5.68142 13.9231ZM10.6527 13.765L10.5081 13.4463L10.5081 13.4463L10.6527 13.765ZM12.0512 12.9045L11.8302 12.6331L12.0961 12.4165L12.318 12.678L12.0512 12.9045ZM17.2113 18.5284L17.453 18.2753L17.453 18.2753L17.2113 18.5284ZM18.098 17.6417L17.8563 17.8949L17.8562 17.8948L18.098 17.6417ZM12.9342 12.0135L12.6674 12.2399L12.481 12.0204L12.6605 11.7953L12.9342 12.0135ZM13.9217 5.84732L13.5862 5.94698L13.5861 5.94689L13.9217 5.84732ZM12.2363 6.1928C12.1977 5.58323 11.8667 4.9842 11.3769 4.4309C10.8901 3.88112 10.2743 3.40807 9.72878 3.05426L10.1097 2.46698C10.686 2.84079 11.3578 3.3533 11.901 3.96691C12.4411 4.577 12.8823 5.3192 12.9349 6.14856L12.2363 6.1928ZM12.6238 6.92142C12.4075 6.76103 12.2564 6.51061 12.2363 6.19277L12.9349 6.14859C12.9417 6.25576 12.986 6.31858 13.0407 6.35912L12.6238 6.92142ZM10.3426 12.1393C12.3495 11.1225 12.9773 8.88287 12.4907 6.71699L13.1737 6.56355C13.7047 8.92707 13.0448 11.5549 10.6589 12.7637L10.3426 12.1393ZM6.67242 12.5347C7.94102 12.8668 9.17349 12.7316 10.3426 12.1393L10.6589 12.7637C9.33849 13.4327 7.93053 13.5876 6.49516 13.2119L6.67242 12.5347ZM3.38968 10.0091C4.21272 11.3678 5.14957 12.1362 6.67241 12.5347L6.49517 13.2119C4.77559 12.7619 3.69658 11.8668 2.79097 10.3718L3.38968 10.0091ZM2.94221 6.04574C2.43353 7.45843 2.6127 8.72641 3.38969 10.0091L2.79096 10.3718C1.91539 8.92632 1.69656 7.43891 2.28361 5.80859L2.94221 6.04574ZM5.27465 3.28225C4.17035 3.84752 3.36695 4.86649 2.9422 6.04577L2.28362 5.80856C2.75809 4.49123 3.66788 3.31834 4.95569 2.65914L5.27465 3.28225ZM9.7288 3.05428C8.46402 2.23408 6.66131 2.5722 5.27469 3.28222L4.95565 2.65916C6.41262 1.9131 8.52248 1.43769 10.1097 2.46696L9.7288 3.05428ZM10.9606 1.52549C12.2908 2.38794 13.6974 3.79488 14.0902 5.4817L13.4084 5.64045C13.0749 4.20814 11.8421 2.93129 10.5798 2.11284L10.9606 1.52549ZM4.99189 1.262C6.90851 0.484032 9.10372 0.321499 10.9606 1.52549L10.5798 2.11283C8.98143 1.07648 7.04626 1.18359 5.25517 1.91061L4.99189 1.262ZM1.21896 10.1235C0.376766 8.44979 0.531149 6.55025 1.2773 4.9263C2.0225 3.30445 3.37409 1.9187 4.99189 1.26201L5.25517 1.91061C3.82138 2.49261 2.59317 3.73903 1.91338 5.21856C1.23454 6.69599 1.11876 8.36705 1.84426 9.80887L1.21896 10.1235ZM5.58103 14.2584C3.44988 13.6203 2.14569 11.9652 1.21896 10.1235L1.84426 9.80887C2.73439 11.5779 3.91972 13.0302 5.78181 13.5878L5.58103 14.2584ZM10.7973 14.0838C9.08454 14.861 7.29869 14.7727 5.58102 14.2584L5.78182 13.5878C7.39395 14.0705 8.99558 14.1327 10.5081 13.4463L10.7973 14.0838ZM12.2722 13.1759C11.8388 13.5288 11.3468 13.8345 10.7973 14.0838L10.5081 13.4463C11.0044 13.2211 11.4448 12.9469 11.8302 12.6331L12.2722 13.1759ZM16.9696 18.7816C15.1125 17.0084 13.432 15.0722 11.7844 13.131L12.318 12.678C13.9648 14.6182 15.6247 16.5297 17.453 18.2753L16.9696 18.7816ZM18.3396 17.3885C18.5578 17.5968 18.6552 17.8568 18.6381 18.1175C18.6218 18.3681 18.5024 18.5907 18.341 18.7519C18.1793 18.9133 17.9572 19.0317 17.7085 19.0528C17.4508 19.0747 17.1872 18.9894 16.9695 18.7815L17.453 18.2753C17.5276 18.3466 17.5943 18.36 17.6493 18.3553C17.7132 18.3499 17.7861 18.3167 17.8463 18.2565C17.9068 18.1962 17.936 18.1274 17.9396 18.072C17.9426 18.0268 17.9312 17.9664 17.8563 17.8949L18.3396 17.3885ZM13.201 11.787C14.849 13.7286 16.5103 15.6415 18.3397 17.3886L17.8562 17.8948C15.998 16.1202 14.3163 14.1826 12.6674 12.2399L13.201 11.787ZM14.2572 5.74765C14.9482 8.07402 14.6096 10.4735 13.2079 12.2316L12.6605 11.7953C13.8961 10.2455 14.2235 8.09263 13.5862 5.94698L14.2572 5.74765ZM13.9867 5.30383C14.1113 5.41886 14.2042 5.56907 14.2572 5.74774L13.5861 5.94689C13.5667 5.88155 13.5384 5.84265 13.512 5.81831L13.9867 5.30383Z" fill="#ABFFEB" mask="url(#path-1-outside-1_4437_2415)"/>
</svg>
