<?xml version="1.0" encoding="UTF-8" standalone="no"?>
<svg
   xmlns:dc="http://purl.org/dc/elements/1.1/"
   xmlns:cc="http://creativecommons.org/ns#"
   xmlns:rdf="http://www.w3.org/1999/02/22-rdf-syntax-ns#"
   xmlns:svg="http://www.w3.org/2000/svg"
   xmlns="http://www.w3.org/2000/svg"
   xmlns:sodipodi="http://sodipodi.sourceforge.net/DTD/sodipodi-0.dtd"
   xmlns:inkscape="http://www.inkscape.org/namespaces/inkscape"
   width="19"
   height="20"
   viewBox="0 0 19 20"
   fill="none"
   version="1.1"
   id="svg36"
   sodipodi:docname="s-iconw.svg"
   inkscape:version="1.0.2-2 (e86c870879, 2021-01-15)">
  <metadata
     id="metadata42">
    <rdf:RDF>
      <cc:Work
         rdf:about="">
        <dc:format>image/svg+xml</dc:format>
        <dc:type
           rdf:resource="http://purl.org/dc/dcmitype/StillImage" />
      </cc:Work>
    </rdf:RDF>
  </metadata>
  <defs
     id="defs40" />
  <sodipodi:namedview
     pagecolor="#ffffff"
     bordercolor="#666666"
     borderopacity="1"
     objecttolerance="10"
     gridtolerance="10"
     guidetolerance="10"
     inkscape:pageopacity="0"
     inkscape:pageshadow="2"
     inkscape:window-width="1366"
     inkscape:window-height="705"
     id="namedview38"
     showgrid="false"
     inkscape:zoom="29.8"
     inkscape:cx="9.5"
     inkscape:cy="10"
     inkscape:window-x="-8"
     inkscape:window-y="194"
     inkscape:window-maximized="1"
     inkscape:current-layer="svg36" />
  <mask
     id="path-1-outside-1_4568_10105"
     maskUnits="userSpaceOnUse"
     x="0.289062"
     y="0"
     width="19"
     height="20"
     fill="black">
    <rect
       fill="white"
       x="0.289062"
       width="19"
       height="20"
       id="rect27" />
    <path
       fill-rule="evenodd"
       clip-rule="evenodd"
       d="M9.91825 2.76062C11.0401 3.48824 12.4935 4.73174 12.5846 6.17068C12.598 6.38318 12.6958 6.53981 12.8312 6.64027C13.3401 8.90497 12.6962 11.3387 10.4998 12.4515C9.25501 13.0822 7.9348 13.2272 6.58281 12.8733C4.9616 12.449 3.95367 11.6173 3.08935 10.1905C2.26307 8.82637 2.06407 7.44867 2.61193 5.92717C3.06155 4.67886 3.91814 3.58293 5.11419 2.97069C6.53599 2.24265 8.49227 1.83588 9.91825 2.76062ZM13.7484 5.56107C13.3852 4.00151 12.0655 2.65962 10.7692 1.81916C9.0416 0.698988 6.97641 0.83381 5.12255 1.58631C2.07097 2.825 -0.0370655 6.85065 1.53064 9.96619C2.43907 11.7716 3.68382 13.3253 5.68045 13.9231C7.34534 14.4216 9.03909 14.4968 10.6517 13.765C11.1746 13.5278 11.6409 13.2379 12.0502 12.9045C13.6974 14.8452 15.3676 16.7691 17.2103 18.5284C17.7949 19.0867 18.6831 18.2011 18.097 17.6417C16.2531 15.8809 14.5817 13.9556 12.9332 12.0135C14.2519 10.3595 14.5849 8.08333 13.9207 5.84732C13.8845 5.72531 13.8239 5.63075 13.7484 5.56107Z"
       id="path29" />
  </mask>
  <path
     fill-rule="evenodd"
     clip-rule="evenodd"
     d="M9.91825 2.76062C11.0401 3.48824 12.4935 4.73174 12.5846 6.17068C12.598 6.38318 12.6958 6.53981 12.8312 6.64027C13.3401 8.90497 12.6962 11.3387 10.4998 12.4515C9.25501 13.0822 7.9348 13.2272 6.58281 12.8733C4.9616 12.449 3.95367 11.6173 3.08935 10.1905C2.26307 8.82637 2.06407 7.44867 2.61193 5.92717C3.06155 4.67886 3.91814 3.58293 5.11419 2.97069C6.53599 2.24265 8.49227 1.83588 9.91825 2.76062ZM13.7484 5.56107C13.3852 4.00151 12.0655 2.65962 10.7692 1.81916C9.0416 0.698988 6.97641 0.83381 5.12255 1.58631C2.07097 2.825 -0.0370655 6.85065 1.53064 9.96619C2.43907 11.7716 3.68382 13.3253 5.68045 13.9231C7.34534 14.4216 9.03909 14.4968 10.6517 13.765C11.1746 13.5278 11.6409 13.2379 12.0502 12.9045C13.6974 14.8452 15.3676 16.7691 17.2103 18.5284C17.7949 19.0867 18.6831 18.2011 18.097 17.6417C16.2531 15.8809 14.5817 13.9556 12.9332 12.0135C14.2519 10.3595 14.5849 8.08333 13.9207 5.84732C13.8845 5.72531 13.8239 5.63075 13.7484 5.56107Z"
     fill="white"
     id="path32"
     style="fill:#abffeb;fill-opacity:1" />
  <path
     d="M12.5846 6.17068L12.9339 6.14856L12.9339 6.14859L12.5846 6.17068ZM9.91825 2.76062L10.1087 2.46696L10.1087 2.46698L9.91825 2.76062ZM12.8312 6.64027L13.0397 6.35912L13.1442 6.43661L13.1727 6.56355L12.8312 6.64027ZM10.4998 12.4515L10.6579 12.7637L10.6579 12.7637L10.4998 12.4515ZM6.58281 12.8733L6.67144 12.5347L6.67144 12.5347L6.58281 12.8733ZM3.08935 10.1905L2.78999 10.3718L2.78998 10.3718L3.08935 10.1905ZM2.61193 5.92717L2.28263 5.80859L2.28264 5.80856L2.61193 5.92717ZM5.11419 2.97069L5.27371 3.28222L5.27367 3.28225L5.11419 2.97069ZM10.7692 1.81916L10.5788 2.11284L10.5788 2.11283L10.7692 1.81916ZM13.7484 5.56107L13.511 5.81831L13.4319 5.74531L13.4075 5.64045L13.7484 5.56107ZM5.12255 1.58631L4.99091 1.26201L4.99092 1.262L5.12255 1.58631ZM1.53064 9.96619L1.84329 9.80887L1.53064 9.96619ZM5.68045 13.9231L5.78084 13.5878L5.78084 13.5878L5.68045 13.9231ZM10.6517 13.765L10.5071 13.4463L10.5071 13.4463L10.6517 13.765ZM12.0502 12.9045L11.8292 12.6331L12.0951 12.4165L12.3171 12.678L12.0502 12.9045ZM17.2103 18.5284L17.452 18.2753L17.452 18.2753L17.2103 18.5284ZM18.097 17.6417L17.8553 17.8949L17.8553 17.8948L18.097 17.6417ZM12.9332 12.0135L12.6664 12.2399L12.48 12.0204L12.6596 11.7953L12.9332 12.0135ZM13.9207 5.84732L13.5852 5.94698L13.5852 5.94689L13.9207 5.84732ZM12.2353 6.1928C12.1967 5.58323 11.8657 4.9842 11.3759 4.4309C10.8892 3.88112 10.2733 3.40807 9.7278 3.05426L10.1087 2.46698C10.6851 2.84079 11.3568 3.3533 11.9 3.96691C12.4401 4.577 12.8814 5.3192 12.9339 6.14856L12.2353 6.1928ZM12.6228 6.92142C12.4065 6.76103 12.2554 6.51061 12.2353 6.19277L12.9339 6.14859C12.9407 6.25576 12.985 6.31858 13.0397 6.35912L12.6228 6.92142ZM10.3416 12.1393C12.3485 11.1225 12.9764 8.88287 12.4898 6.71699L13.1727 6.56355C13.7037 8.92707 13.0439 11.5549 10.6579 12.7637L10.3416 12.1393ZM6.67144 12.5347C7.94004 12.8668 9.17251 12.7316 10.3416 12.1393L10.6579 12.7637C9.33751 13.4327 7.92955 13.5876 6.49419 13.2119L6.67144 12.5347ZM3.38871 10.0091C4.21175 11.3678 5.14859 12.1362 6.67144 12.5347L6.49419 13.2119C4.77462 12.7619 3.6956 11.8668 2.78999 10.3718L3.38871 10.0091ZM2.94123 6.04574C2.43256 7.45843 2.61172 8.72641 3.38871 10.0091L2.78998 10.3718C1.91441 8.92632 1.69559 7.43891 2.28263 5.80859L2.94123 6.04574ZM5.27367 3.28225C4.16937 3.84752 3.36598 4.86649 2.94122 6.04577L2.28264 5.80856C2.75712 4.49123 3.66691 3.31834 4.95471 2.65914L5.27367 3.28225ZM9.72782 3.05428C8.46304 2.23408 6.66034 2.5722 5.27371 3.28222L4.95467 2.65916C6.41165 1.9131 8.5215 1.43769 10.1087 2.46696L9.72782 3.05428ZM10.9596 1.52549C12.2898 2.38794 13.6965 3.79488 14.0892 5.4817L13.4075 5.64045C13.074 4.20814 11.8411 2.93129 10.5788 2.11284L10.9596 1.52549ZM4.99092 1.262C6.90754 0.484032 9.10274 0.321499 10.9596 1.52549L10.5788 2.11283C8.98045 1.07648 7.04529 1.18359 5.25419 1.91061L4.99092 1.262ZM1.21799 10.1235C0.37579 8.44979 0.530172 6.55025 1.27633 4.9263C2.02152 3.30445 3.37312 1.9187 4.99091 1.26201L5.25419 1.91061C3.82041 2.49261 2.59219 3.73903 1.9124 5.21856C1.23356 6.69599 1.11778 8.36705 1.84329 9.80887L1.21799 10.1235ZM5.58005 14.2584C3.4489 13.6203 2.14472 11.9652 1.21799 10.1235L1.84329 9.80887C2.73342 11.5779 3.91874 13.0302 5.78084 13.5878L5.58005 14.2584ZM10.7964 14.0838C9.08357 14.861 7.29771 14.7727 5.58005 14.2584L5.78084 13.5878C7.39298 14.0705 8.99461 14.1327 10.5071 13.4463L10.7964 14.0838ZM12.2712 13.1759C11.8379 13.5288 11.3458 13.8345 10.7963 14.0838L10.5071 13.4463C11.0035 13.2211 11.4439 12.9469 11.8292 12.6331L12.2712 13.1759ZM16.9686 18.7816C15.1115 17.0084 13.4311 15.0722 11.7834 13.131L12.3171 12.678C13.9638 14.6182 15.6238 16.5297 17.452 18.2753L16.9686 18.7816ZM18.3386 17.3885C18.5568 17.5968 18.6542 17.8568 18.6372 18.1175C18.6208 18.3681 18.5014 18.5907 18.34 18.7519C18.1783 18.9133 17.9562 19.0317 17.7075 19.0528C17.4498 19.0747 17.1863 18.9894 16.9686 18.7815L17.452 18.2753C17.5266 18.3466 17.5934 18.36 17.6483 18.3553C17.7122 18.3499 17.7851 18.3167 17.8454 18.2565C17.9058 18.1962 17.935 18.1274 17.9387 18.072C17.9416 18.0268 17.9302 17.9664 17.8553 17.8949L18.3386 17.3885ZM13.2001 11.787C14.8481 13.7286 16.5093 15.6415 18.3387 17.3886L17.8553 17.8948C15.997 16.1202 14.3153 14.1826 12.6664 12.2399L13.2001 11.787ZM14.2562 5.74765C14.9473 8.07402 14.6086 10.4735 13.2069 12.2316L12.6596 11.7953C13.8952 10.2455 14.2226 8.09263 13.5852 5.94698L14.2562 5.74765ZM13.9857 5.30383C14.1104 5.41886 14.2032 5.56907 14.2562 5.74774L13.5852 5.94689C13.5658 5.88155 13.5374 5.84265 13.511 5.81831L13.9857 5.30383Z"
     fill="white"
     mask="url(#path-1-outside-1_4568_10105)"
     id="path34"
     style="fill:#abffeb;fill-opacity:1" />
</svg>
