<?xml version="1.0" encoding="UTF-8" standalone="no"?>
<svg
   xmlns:dc="http://purl.org/dc/elements/1.1/"
   xmlns:cc="http://creativecommons.org/ns#"
   xmlns:rdf="http://www.w3.org/1999/02/22-rdf-syntax-ns#"
   xmlns:svg="http://www.w3.org/2000/svg"
   xmlns="http://www.w3.org/2000/svg"
   xmlns:sodipodi="http://sodipodi.sourceforge.net/DTD/sodipodi-0.dtd"
   xmlns:inkscape="http://www.inkscape.org/namespaces/inkscape"
   width="29"
   height="17"
   viewBox="0 0 29 17"
   fill="none"
   version="1.1"
   id="svg22"
   sodipodi:docname="theArrow.svg"
   inkscape:version="1.0.2-2 (e86c870879, 2021-01-15)">
  <metadata
     id="metadata28">
    <rdf:RDF>
      <cc:Work
         rdf:about="">
        <dc:format>image/svg+xml</dc:format>
        <dc:type
           rdf:resource="http://purl.org/dc/dcmitype/StillImage" />
        <dc:title></dc:title>
      </cc:Work>
    </rdf:RDF>
  </metadata>
  <defs
     id="defs26" />
  <sodipodi:namedview
     pagecolor="#ffffff"
     bordercolor="#666666"
     borderopacity="1"
     objecttolerance="10"
     gridtolerance="10"
     guidetolerance="10"
     inkscape:pageopacity="0"
     inkscape:pageshadow="2"
     inkscape:window-width="1366"
     inkscape:window-height="705"
     id="namedview24"
     showgrid="false"
     inkscape:zoom="23.448276"
     inkscape:cx="14.5"
     inkscape:cy="8.5"
     inkscape:window-x="-8"
     inkscape:window-y="-8"
     inkscape:window-maximized="1"
     inkscape:current-layer="svg22" />
  <path
     d="M0.458552 7.60312L0.458567 7.60422C0.463289 7.95429 0.571272 8.21446 0.747085 8.40397C0.921001 8.59143 1.15344 8.70131 1.39341 8.76749C1.63349 8.83369 1.88807 8.85804 2.11328 8.86954C2.21386 8.87467 2.30575 8.87724 2.38852 8.87956C2.49736 8.8826 2.59044 8.88521 2.66678 8.89262L2.66676 8.89285L2.67362 8.89305C3.20233 8.90799 3.7303 8.93194 4.25926 8.95595L4.25988 8.95598C4.78836 8.97996 5.31782 9.00398 5.84832 9.01898L5.84935 9.019L18.2826 9.24164L18.2837 9.24165C18.9221 9.24583 19.5781 9.24093 20.2389 9.236C21.6009 9.22584 22.983 9.21553 24.2715 9.28418C24.2102 9.35439 24.1326 9.4373 24.0425 9.52966C23.8802 9.69593 23.6827 9.88761 23.4785 10.0817C23.279 10.2714 23.0718 10.4645 22.8864 10.6374C22.6955 10.8154 22.5277 10.9719 22.4149 11.081L19.361 13.8466L19.3603 13.8472C19.2254 13.9715 19.0637 14.1 18.8973 14.2321C18.8692 14.2545 18.841 14.2769 18.8127 14.2994C18.6198 14.4532 18.4257 14.6118 18.2774 14.7675C17.8135 15.238 17.8351 15.8487 18.1238 16.2911C18.4113 16.7319 18.9693 17.0148 19.5825 16.8371C19.791 16.7767 20.0532 16.6075 20.332 16.3923C20.6141 16.1745 20.9249 15.9001 21.2325 15.6171C21.441 15.4252 21.6473 15.2303 21.8426 15.0456C22.2284 14.6809 22.5716 14.3565 22.8055 14.176L22.8058 14.1764L22.8138 14.1687L27.7895 9.36483C27.8074 9.34839 27.8258 9.33162 27.8446 9.31448C28.1569 9.02957 28.5825 8.64132 28.499 7.95998L28.4991 7.95998L28.4987 7.95736C28.4916 7.91002 28.4589 7.80206 28.4177 7.67649C28.3749 7.54638 28.3192 7.38612 28.2612 7.22697C28.2031 7.06791 28.1425 6.90906 28.0899 6.78201C28.0636 6.71858 28.039 6.66213 28.0175 6.61716C27.9976 6.5757 27.9759 6.53413 27.9547 6.50847C27.9296 6.4781 27.8818 6.43496 27.8223 6.38485C27.7604 6.33274 27.6792 6.26754 27.5816 6.19139C27.3865 6.039 27.1237 5.8409 26.8156 5.61253C26.1991 5.15568 25.3991 4.57625 24.5903 3.99618C22.9744 2.83723 21.3198 1.67294 21.0241 1.47829C20.9442 1.42458 20.8599 1.36593 20.7731 1.30557C20.6425 1.21473 20.5063 1.12004 20.3713 1.03256C20.1436 0.885039 19.905 0.74827 19.6663 0.662988C19.4273 0.577612 19.1809 0.541257 18.9415 0.603728C18.7005 0.666647 18.4803 0.826182 18.2882 1.10617C18.0667 1.41771 17.9798 1.70177 17.9994 1.96285C18.0189 2.22357 18.1433 2.44572 18.3136 2.63589C18.4833 2.82542 18.7032 2.98836 18.9243 3.13202C19.0543 3.21656 19.1914 3.29845 19.3196 3.37499C19.4042 3.42554 19.485 3.47376 19.5572 3.51886C19.6722 3.60094 19.881 3.74743 20.1482 3.93495C20.2623 4.01502 20.387 4.10257 20.5197 4.19579C20.9657 4.50915 21.5019 4.887 22.0259 5.26133C22.5499 5.63576 23.061 6.00625 23.4571 6.305C23.6552 6.45443 23.8237 6.58535 23.9504 6.68952C23.9773 6.71166 24.0022 6.73248 24.025 6.75192C22.1138 6.83545 20.1416 6.78346 18.1629 6.7184C17.9533 6.7115 17.7435 6.70446 17.5338 6.69742C15.6856 6.63537 13.8368 6.57331 12.0372 6.61177C10.0056 6.63097 7.93794 6.55124 5.8828 6.472C4.82445 6.43119 3.7694 6.3905 2.72428 6.36353C2.67245 6.36219 2.60484 6.35725 2.52567 6.35147C2.24233 6.33079 1.811 6.29929 1.42568 6.38333C1.17521 6.43796 0.930998 6.54306 0.749625 6.73958C0.566605 6.93789 0.457616 7.21835 0.458552 7.60312Z"
     fill="white"
     stroke="white"
     stroke-width="0.2"
     id="path20"
     style="fill:#ffffff" />
</svg>
