<svg width="180" height="59" viewBox="0 0 180 59" fill="none" xmlns="http://www.w3.org/2000/svg">
<path d="M22.981 59L4.77652 5.51337L0 4.43844L0.416103 0H25.495L25.9111 4.43844L20.5624 5.51337L33.5657 44.9045L46.4736 5.51337L40.5527 4.43844L40.9602 0H57.2402L57.6563 4.43844L53.3219 5.51337L35.2127 56.4774L22.981 59Z" fill="#EF4136"/>
<path d="M67.946 37.6652C68.3535 44.1668 72.2197 49.0994 78.3486 49.0994C81.9819 49.0275 85.5248 47.9535 88.5865 45.996L90.8057 50.027C86.0378 54.4654 81.7555 56.4419 74.2743 58.9125C62.1379 58.9125 53.6338 50.7638 53.6338 39.4163C53.6338 31.0336 56.5118 21.4892 74.1962 16.5566C86.0378 16.5566 90.9704 23.8731 90.9704 32.5073V37.7086L67.946 37.6652ZM77.4817 32.568C77.4817 26.3177 76.3288 22.3648 72.9566 22.3648C69.7491 22.3648 67.8593 26.4824 67.8593 33.3048L77.4817 32.568Z" fill="#EF4136"/>
<path d="M114.515 31.4168L122.455 17.3906H131.038V31.2607H120.098L115.174 36.1326V52.1439L124.05 53.2102L123.643 57.7353H97.3245L96.9171 53.2102L101.191 52.1439V24.5077L96.9171 24.6724L96.501 19.9913L107.935 17.7721L113.032 17.4426L114.515 31.4168Z" fill="#EF4136"/>
<path d="M157.191 16.5215C169.44 16.5215 174.13 19.8937 174.13 28.9352V44.8165C174.13 47.946 174.295 49.5064 174.997 50.9887H178.863L179.531 55.5312L163.06 58.886L160.347 52.1417L151.054 58.886C143.156 58.886 137.487 54.4389 137.487 47.5299C137.458 45.815 137.821 44.1162 138.548 42.5629C139.275 41.0095 140.347 39.6426 141.683 38.5663L159.74 32.9922V27.8776C159.74 22.8584 157.928 22.2863 156.038 22.2863C154.672 22.2489 153.326 22.6202 152.172 23.3525L151.236 31.3538H138.683V23.2658L157.191 16.5215ZM159.74 36.9972L153.325 39.5459C152.007 40.8635 151.348 43.4989 151.348 45.5534C151.348 49.333 153.403 51.0581 155.05 51.0581C156.311 50.9792 157.519 50.5231 158.517 49.7491L159.757 48.8822L159.74 36.9972Z" fill="#EF4136"/>
</svg>
