<svg width="180" height="33" viewBox="0 0 180 33" fill="none" xmlns="http://www.w3.org/2000/svg">
<path d="M12.4901 32.0168L2.5958 2.99157L0 2.40956L0.226987 0H13.8462L14.0674 2.40956L11.1573 2.99157L18.2114 24.3575L25.2363 2.99157L22.0178 2.40956L22.2447 0H31.1147L31.3126 2.40956L28.9438 2.99157L19.1251 30.6491L12.4901 32.0168Z" fill="#EF4136"/>
<path d="M36.8593 20.452C37.0863 23.979 39.1874 26.6621 42.4874 26.6621C44.4711 26.6227 46.4051 26.0345 48.0748 24.9627L49.2796 27.151C46.6896 29.5664 44.3673 30.6432 40.299 31.976C33.6873 31.976 29.0894 27.5526 29.0894 21.3891C29.0894 16.8319 30.6492 11.6519 40.2583 8.97461C46.6896 8.97461 49.3669 12.9498 49.3669 17.635V20.452H36.8593ZM42.0451 17.6816C42.0451 14.2884 41.4165 12.1408 39.5832 12.1408C37.8371 12.1408 36.8186 14.3757 36.8186 18.0832L42.0451 17.6816Z" fill="#EF4136"/>
<path d="M62.1534 17.0357L66.4662 9.43457H71.1223V16.9601H65.1857L62.5433 19.6257V28.292L67.3683 28.874L67.1413 31.3301H52.8178L52.5967 28.874L54.9247 28.292V13.2817L52.5967 13.369L52.3755 10.8256L58.5798 9.62082L61.3502 9.44039L62.1534 17.0357Z" fill="#EF4136"/>
<path d="M85.3352 8.95166C91.9935 8.95166 94.5369 10.7792 94.5369 15.6914V24.3169C94.5369 26.0106 94.6301 26.8604 95.0316 27.6635H97.1269L97.4878 30.1255L88.5072 31.953L87.0347 28.2921L81.9828 31.953C77.6991 31.953 74.6144 29.5435 74.6144 25.7894C74.6007 24.8582 74.7983 23.936 75.1925 23.0922C75.5867 22.2484 76.1671 21.505 76.8901 20.918L86.7204 17.8856V15.1152C86.7204 12.3856 85.7368 12.0771 84.7125 12.0771C83.9692 12.0532 83.2364 12.2562 82.6114 12.6591L82.0992 17.001H75.2838V12.6067L85.3352 8.95166ZM86.7204 20.074L83.2283 21.4592C82.5124 22.1693 82.1574 23.6011 82.1574 24.7185C82.1574 26.7731 83.2749 27.7101 84.1712 27.7101C84.8532 27.6634 85.5058 27.4141 86.0453 26.9942L86.7146 26.5519L86.7204 20.074Z" fill="#EF4136"/>
<path d="M107.259 17.7227V17.8227H107.359H108.465H108.565V17.7227V9.97607V9.87607H108.465H107.359H107.259V9.97607V17.7227Z" fill="#EF4136" stroke="#EF4136" stroke-width="0.2"/>
<path d="M112.101 17.7227V17.8227H112.201H113.313H113.413V17.7227V11.6354L117.753 17.7804L117.783 17.8227H117.835H118.941H119.041V17.7227V9.97607V9.87607H118.941H117.835H117.735V9.97607V15.5338L113.767 9.91836L113.737 9.87607H113.685H112.201H112.101V9.97607V17.7227Z" fill="#EF4136" stroke="#EF4136" stroke-width="0.2"/>
<path d="M121.473 15.6469L121.393 15.6828L121.418 15.7665C121.622 16.4526 122.055 17.0481 122.644 17.454C123.233 17.8591 123.942 18.0508 124.655 17.9973C125.601 17.9967 126.339 17.7463 126.843 17.3133C127.349 16.8785 127.608 16.2676 127.608 15.5693C127.608 14.938 127.363 14.4288 126.95 14.044C126.54 13.6613 125.967 13.4049 125.312 13.2657C125.312 13.2656 125.312 13.2656 125.312 13.2656L124.253 13.033C124.253 13.033 124.253 13.033 124.253 13.033C123.837 12.9403 123.551 12.8338 123.368 12.6784C123.193 12.5293 123.104 12.3259 123.104 12.0073C123.104 11.6949 123.224 11.4331 123.452 11.2474C123.681 11.0601 124.029 10.9433 124.494 10.9433V10.9434L124.499 10.9431C124.887 10.9204 125.272 11.0292 125.59 11.2518C125.908 11.4744 126.143 11.7979 126.254 12.17L126.287 12.2796L126.392 12.2322L127.428 11.7608L127.512 11.7226L127.48 11.6359C127.269 11.049 126.872 10.5471 126.35 10.2064C125.828 9.86634 125.21 9.70545 124.589 9.74802C123.759 9.74864 123.063 9.97294 122.574 10.3745C122.081 10.7782 121.804 11.3554 121.804 12.0422C121.804 12.7227 122.015 13.2246 122.392 13.5881C122.765 13.9484 123.291 14.1635 123.902 14.2934L124.925 14.526L124.925 14.526L124.927 14.5264C125.399 14.6247 125.729 14.7446 125.941 14.9184C126.146 15.0861 126.25 15.3115 126.25 15.6507C126.25 15.9856 126.119 16.2644 125.868 16.4619C125.614 16.6614 125.23 16.7846 124.715 16.7846L124.712 16.7847C124.247 16.7976 123.791 16.6504 123.422 16.3677C123.052 16.085 122.791 15.6839 122.682 15.2315L122.653 15.1142L122.543 15.1638L121.473 15.6469Z" fill="#EF4136" stroke="#EF4136" stroke-width="0.2"/>
<path d="M131.733 17.7227V17.8227H131.833H132.968H133.068V17.7227V11.0946H135.75H135.85V10.9946V9.97607V9.87607H135.75H129.097H128.997V9.97607V11.0179V11.1179H129.097H131.733V17.7227Z" fill="#EF4136" stroke="#EF4136" stroke-width="0.2"/>
<path d="M137.972 17.7227V17.8227H138.072H139.178H139.278V17.7227V9.97607V9.87607H139.178H138.072H137.972V9.97607V17.7227Z" fill="#EF4136" stroke="#EF4136" stroke-width="0.2"/>
<path d="M144.13 17.7227V17.8227H144.23H145.335H145.435V17.7227V11.0946H148.147H148.247V10.9946V9.97607V9.87607H148.147H141.494H141.394V9.97607V11.0179V11.1179H141.494H144.13V17.7227Z" fill="#EF4136" stroke="#EF4136" stroke-width="0.2"/>
<path d="M150.358 9.87607H150.258V9.97607V14.7428C150.258 15.8257 150.556 16.6391 151.103 17.1785C151.65 17.7176 152.431 17.9683 153.368 17.9566C154.365 17.9565 155.148 17.6667 155.681 17.1079C156.213 16.5497 156.482 15.7374 156.482 14.7195V9.97607V9.87607H156.382H155.276H155.176V9.97607V14.5566C155.176 15.2342 155.032 15.7777 154.739 16.1498C154.449 16.5179 154.003 16.7323 153.367 16.7323C152.731 16.7323 152.287 16.5232 151.999 16.1584C151.708 15.7895 151.564 15.2464 151.564 14.5566V9.97607V9.87607H151.464H150.358Z" fill="#EF4136" stroke="#EF4136" stroke-width="0.2"/>
<path d="M161.23 17.7227V17.8227H161.33H162.418H162.518V17.7227V11.0946H165.229H165.329V10.9946V9.97607V9.87607H165.229H158.577H158.477V9.97607V11.0179V11.1179H158.577H161.23V17.7227Z" fill="#EF4136" stroke="#EF4136" stroke-width="0.2"/>
<path d="M167.469 17.7227V17.8227H167.569H173.028H173.128V17.7227V16.71V16.61H173.028H168.769V14.3248H171.893H171.993V14.2248V13.2005V13.1005H171.893H168.769V11.0946H173.028H173.128V10.9946V9.97607V9.87607H173.028H167.569H167.469V9.97607V17.7227Z" fill="#EF4136" stroke="#EF4136" stroke-width="0.2"/>
<path d="M112.661 26.6917V26.7917H112.671C112.652 27.5889 112.407 28.2793 111.979 28.7748C111.535 29.2893 110.888 29.6008 110.072 29.6008C109.255 29.6008 108.61 29.2906 108.167 28.777C107.723 28.2618 107.477 27.5343 107.477 26.6917C107.477 25.8492 107.723 25.1202 108.167 24.6034C108.61 24.0884 109.255 23.7769 110.072 23.7769C110.889 23.7769 111.532 24.0829 111.973 24.5948C112.416 25.1083 112.661 25.8371 112.661 26.6917ZM106.336 25.1163C106.148 25.6193 106.066 26.1556 106.095 26.6916C106.065 27.2281 106.145 27.7651 106.332 28.269C106.52 28.7746 106.81 29.2358 107.185 29.6232C107.561 30.0107 108.012 30.3161 108.511 30.52C109.01 30.7237 109.546 30.8216 110.085 30.8077C111.218 30.8074 112.206 30.3933 112.91 29.6686C113.615 28.9437 114.031 27.9138 114.031 26.6917C114.031 25.4696 113.615 24.4397 112.91 23.7148C112.206 22.9901 111.218 22.5761 110.085 22.5758C109.546 22.5636 109.011 22.6628 108.513 22.8671C108.015 23.0716 107.564 23.377 107.189 23.7641C106.815 24.1511 106.524 24.6115 106.336 25.1163Z" fill="#EF4136" stroke="#EF4136" stroke-width="0.2"/>
<path d="M116.618 30.5505V30.6521L116.719 30.6505L117.837 30.6331L117.935 30.6315V30.5331V27.3796H121.391H121.491V27.2796V26.2727V26.1727H121.391H117.935V23.9399H122.334H122.434V23.8399V22.8271V22.7271H122.334H116.718H116.618V22.8271V30.5505Z" fill="#EF4136" stroke="#EF4136" stroke-width="0.2"/>
<path d="M127.287 28.1252L127.209 28.144L127.21 28.224C127.222 29.0089 127.413 29.6576 127.802 30.1114C128.192 30.5679 128.771 30.8135 129.528 30.8135C130.281 30.8135 130.856 30.5945 131.24 30.1273C131.621 29.6642 131.798 28.9746 131.798 28.0653V22.8271V22.7271H131.698H130.598H130.498V22.8271V28.0246C130.498 28.5786 130.424 28.9805 130.266 29.2416C130.115 29.4926 129.879 29.6241 129.516 29.6241C129.332 29.6241 129.185 29.5885 129.065 29.5228C128.946 29.4573 128.85 29.3589 128.773 29.2236C128.617 28.9488 128.545 28.5269 128.545 27.9489V27.8219L128.422 27.8517L127.287 28.1252Z" fill="#EF4136" stroke="#EF4136" stroke-width="0.2"/>
<path d="M134.813 22.7271H134.713V22.8271V27.5706C134.713 28.6536 135.011 29.4668 135.558 30.009C136.105 30.551 136.888 30.8077 137.828 30.8077C138.822 30.8077 139.604 30.5163 140.136 29.9567C140.667 29.3978 140.937 28.5856 140.937 27.5706V22.8271V22.7271H140.837H139.737H139.637V22.8271V27.4367C139.637 28.1146 139.494 28.6565 139.201 29.027C138.913 29.3935 138.467 29.6066 137.828 29.6066C137.188 29.6066 136.742 29.3987 136.454 29.0355C136.162 28.6681 136.019 28.1266 136.019 27.4367V22.8271V22.7271H135.919H134.813Z" fill="#EF4136" stroke="#EF4136" stroke-width="0.2"/>
<path d="M143.286 28.4744L143.207 28.5104L143.232 28.5937C143.435 29.2793 143.866 29.8747 144.455 30.2807C145.043 30.6858 145.751 30.8778 146.463 30.8246C147.409 30.824 148.148 30.5736 148.651 30.1406C149.157 29.7058 149.417 29.0949 149.417 28.3965C149.417 27.7655 149.173 27.2563 148.761 26.8706C148.351 26.4872 147.778 26.2293 147.12 26.0871L147.12 26.0871L146.061 25.8603C145.645 25.7648 145.359 25.6556 145.177 25.4987C145.001 25.3479 144.912 25.1442 144.912 24.8288C144.912 24.5194 145.032 24.2575 145.26 24.071C145.49 23.8829 145.838 23.7647 146.302 23.7647V23.7649L146.307 23.7646C146.696 23.7422 147.081 23.8518 147.399 24.0755C147.718 24.2992 147.952 24.6239 148.063 24.997L148.095 25.1076L148.2 25.0593L149.236 24.582L149.32 24.5436L149.288 24.4571C149.076 23.8714 148.679 23.3708 148.156 23.0313C147.635 22.6924 147.017 22.5323 146.397 22.5753C145.567 22.5759 144.871 22.8018 144.382 23.2041C143.889 23.6083 143.612 24.1855 143.612 24.8695C143.612 25.5472 143.824 26.049 144.2 26.4125C144.574 26.7728 145.099 26.9879 145.71 27.1149L146.734 27.3475L146.734 27.3475L146.735 27.3479C147.206 27.4461 147.537 27.5674 147.749 27.7425C147.954 27.9117 148.058 28.1387 148.058 28.478C148.058 28.8129 147.927 29.0917 147.676 29.2892C147.422 29.4887 147.038 29.6119 146.523 29.6119V29.6119L146.52 29.612C146.055 29.6255 145.599 29.4777 145.23 29.1937C144.861 28.9097 144.602 28.507 144.496 28.0537L144.468 27.9347L144.357 27.9855L143.286 28.4744Z" fill="#EF4136" stroke="#EF4136" stroke-width="0.2"/>
<path d="M153.547 30.5505V30.6505H153.647H154.747H154.847V30.5505V23.9399H157.564H157.664V23.8399V22.8271V22.7271H157.564H150.912H150.812V22.8271V23.8399V23.9399H150.912H153.547V30.5505Z" fill="#EF4136" stroke="#EF4136" stroke-width="0.2"/>
<path d="M159.78 30.5505V30.6505H159.88H160.986H161.086V30.5505V22.8271V22.7271H160.986H159.88H159.78V22.8271V30.5505Z" fill="#EF4136" stroke="#EF4136" stroke-width="0.2"/>
<path d="M170.949 25.0511L171.041 25.0181L171.01 24.9255C170.771 24.2031 170.298 23.5806 169.667 23.1554C169.037 22.7308 168.283 22.5269 167.525 22.5755C165.22 22.5771 163.645 24.3206 163.645 26.6216C163.645 27.773 163.993 28.8194 164.657 29.5758C165.322 30.3331 166.298 30.7921 167.537 30.7783C168.304 30.8317 169.067 30.6243 169.702 30.1896C170.338 29.7541 170.807 29.1161 171.034 28.3796L171.062 28.2906L170.975 28.2569L169.892 27.8379L169.783 27.7954L169.758 27.9106C169.653 28.4108 169.37 28.8558 168.961 29.1625C168.552 29.4692 168.046 29.6167 167.536 29.5775L167.536 29.5772H167.528C166.775 29.5772 166.153 29.2688 165.717 28.7446C165.28 28.2188 165.027 27.4703 165.027 26.5867C165.027 25.7036 165.283 25.002 165.719 24.5223C166.154 24.0435 166.776 23.7766 167.528 23.7766V23.7766L167.532 23.7765C168.024 23.7567 168.509 23.9044 168.906 24.1955C169.303 24.4866 169.59 24.9038 169.719 25.379L169.748 25.4835L169.849 25.4469L170.949 25.0511Z" fill="#EF4136" stroke="#EF4136" stroke-width="0.2"/>
<path d="M173.435 30.5505V30.6505H173.535H179H179.1V30.5505V29.5378V29.4378H179H174.74V27.1526H177.859H177.959V27.0526V26.0515V25.9515H177.859H174.74V23.9399H179H179.1V23.8399V22.8271V22.7271H179H173.535H173.435V22.8271V30.5505Z" fill="#EF4136" stroke="#EF4136" stroke-width="0.2"/>
</svg>
