<?xml version="1.0" encoding="UTF-8" standalone="no"?>
<svg
   xmlns:dc="http://purl.org/dc/elements/1.1/"
   xmlns:cc="http://creativecommons.org/ns#"
   xmlns:rdf="http://www.w3.org/1999/02/22-rdf-syntax-ns#"
   xmlns:svg="http://www.w3.org/2000/svg"
   xmlns="http://www.w3.org/2000/svg"
   xmlns:sodipodi="http://sodipodi.sourceforge.net/DTD/sodipodi-0.dtd"
   xmlns:inkscape="http://www.inkscape.org/namespaces/inkscape"
   id="Layer_1"
   data-name="Layer 1"
   viewBox="0 0 20.06 11.78"
   version="1.1"
   sodipodi:docname="arrow-red - copia.svg"
   inkscape:version="1.0.2-2 (e86c870879, 2021-01-15)">
  <metadata
     id="metadata34">
    <rdf:RDF>
      <cc:Work
         rdf:about="">
        <dc:format>image/svg+xml</dc:format>
        <dc:type
           rdf:resource="http://purl.org/dc/dcmitype/StillImage" />
      </cc:Work>
    </rdf:RDF>
  </metadata>
  <sodipodi:namedview
     pagecolor="#ffffff"
     bordercolor="#666666"
     borderopacity="1"
     objecttolerance="10"
     gridtolerance="10"
     guidetolerance="10"
     inkscape:pageopacity="0"
     inkscape:pageshadow="2"
     inkscape:window-width="1920"
     inkscape:window-height="1017"
     id="namedview32"
     showgrid="false"
     inkscape:zoom="33.898305"
     inkscape:cx="10.03"
     inkscape:cy="5.89"
     inkscape:window-x="1358"
     inkscape:window-y="-8"
     inkscape:window-maximized="1"
     inkscape:current-layer="Layer_1" />
  <defs
     id="defs25">
    <style
       id="style23">.cls-1{fill:#ef4136;fill-rule:evenodd;}</style>
  </defs>
  <title
     id="title27">Arrow2</title>
  <path
     class="cls-1"
     d="m 0.03895156,5.37 v 0 a -0.92,0.92 0 0 1 0.06,-0.22 l 0.11,-0.32 0.12,-0.32 a -0.67,0.67 0 0 1 0.07,-0.14 -0.41,0.41 0 0 1 0.06,-0.11 l 0.11,-0.1 0.17,-0.14 0.55000004,-0.41 1.56,-1.17 c 1.14,-0.82 2.31,-1.64 2.55,-1.78 v 0 l 0.43,-0.29 a -2.65,2.65 0 0 1 0.57,-0.3 -1,1 0 0 1 0.58,0 -1,1 0 0 1 0.54,0.41 v 0 a -1.1,1.1 0 0 1 0.23,0.69 -1,1 0 0 1 -0.35,0.5 -2,2 0 0 1 -0.46,0.37 l -0.44,0.28 -0.68,0.47 -1.06,0.75 -1,0.74 -0.11,0.08 c 1.24,0 2.49,0 3.77,0 1.45,-0.05 2.9100004,-0.11 4.3300004,-0.08 v 0 c 2.17,0 4.39,-0.12 6.57,-0.17 a -3.27,3.27 0 0 1 0.94,0 -1,1 0 0 1 0.55,0.29 -1,1 0 0 1 0.24,0.7 v 0 a -1,1 0 0 1 -0.24,0.65 -1,1 0 0 1 -0.52,0.3 -2.58,2.58 0 0 1 -0.53,0.07 h -0.39 0.03 -1.12 -1.12 v 0 -0.2 0 0.2 L 7.3989516,6.37 v 0 -0.2 0 0.2 c -1.29,0 -2.67,0 -3.94,0 l 0.36,0.35 0.75,0.7 2.13,1.95 -0.13,0.15 v 0 l 0.13,-0.15 v 0 l 0.38,0.32 a -2.57,2.57 0 0 1 0.39,0.34 v 0 a -1,1 0 0 1 0.13,1.23 -1,1 0 0 1 -1.18,0.44 -2,2 0 0 1 -0.57,-0.33 c -0.2,-0.16 -0.43,-0.36 -0.64,-0.56 -0.45,-0.41 -0.86,-0.82 -1.1,-1 v 0 L 0.59895156,6.42 a -1.23,1.23 0 0 1 -0.56,-1.05 z M 6.3989516,2.15 Z M 0.66895156,6.28 Z M 5.4789516,0.83 Z m 6.3000004,3.63 z m 6.62,1.59 v -0.12 0 z M 7.3289516,10.2 Z"
     id="path29" />
</svg>
