<svg width="36" height="21" viewBox="0 0 36 21" fill="none" xmlns="http://www.w3.org/2000/svg">
<path fill-rule="evenodd" clip-rule="evenodd" d="M30.0785 8.37292C25.1367 8.64589 19.855 8.16263 14.8805 8.29664C11.0512 8.35415 7.11133 8.12962 3.29446 8.05231C2.65831 8.03942 0.598365 7.66966 0.612885 9.4838C0.644009 11.1182 2.57735 10.8872 3.25449 10.9492C4.57192 10.9791 5.8852 11.0539 7.20264 11.0838L22.6631 11.2747C25.1667 11.2772 27.9085 11.1655 30.3545 11.2987C30.038 11.7682 28.4481 13.209 27.8976 13.7478L24.1181 17.2089C23.7196 17.5803 23.1363 17.9801 22.783 18.3557C21.727 19.4374 22.8909 21.1301 24.295 20.7147C25.231 20.4378 27.3595 18.0946 28.2426 17.405L34.3971 11.3966C34.7956 11.0252 35.3378 10.5763 35.232 9.75086C35.2034 9.56697 34.696 8.16093 34.573 8.01372C34.2041 7.57208 26.6783 2.30613 25.9482 1.83145C24.9188 1.14809 23.6107 0.0313569 22.7146 1.3543C21.6664 2.84461 23.3279 3.58579 24.2753 4.171C25.0874 4.74383 29.7547 7.93542 30.0785 8.37292Z" fill="white"/>
</svg>
