<svg width="36" height="21" viewBox="0 0 36 21" fill="none" xmlns="http://www.w3.org/2000/svg">
<path fill-rule="evenodd" clip-rule="evenodd" d="M5.92154 12.6273C10.8633 12.3544 16.145 12.8376 21.1195 12.7036C24.9488 12.6461 28.8887 12.8706 32.7055 12.9479C33.3417 12.9608 35.4016 13.3306 35.3871 11.5164C35.356 9.88206 33.4226 10.113 32.7455 10.0511C31.4281 10.0212 30.1148 9.94635 28.7974 9.91644L13.3369 9.72549C10.8333 9.72302 8.09151 9.83472 5.64551 9.70156C5.96203 9.232 7.55188 7.79125 8.10242 7.25246L11.8819 3.79137C12.2804 3.41995 12.8637 3.02011 13.217 2.64456C14.2729 1.56284 13.1091 -0.129861 11.705 0.285513C10.769 0.562429 8.64051 2.90562 7.75738 3.59526L1.60293 9.6036C1.20443 9.97502 0.662198 10.4239 0.768045 11.2494C0.796583 11.4333 1.30404 12.8393 1.42701 12.9865C1.79593 13.4282 9.32172 18.6941 10.0518 19.1688C11.0812 19.8522 12.3893 20.9689 13.2854 19.6459C14.3336 18.1556 12.6721 17.4145 11.7247 16.8292C10.9126 16.2564 6.24532 13.0648 5.92154 12.6273Z" fill="white"/>
</svg>
