<svg width="82" height="334" viewBox="0 0 82 334" fill="none" xmlns="http://www.w3.org/2000/svg">
<line x1="41.5176" y1="4.37114e-08" x2="41.5176" y2="126" stroke="#3E2BB1" stroke-width="2"/>
<line x1="41.5176" y1="207" x2="41.5176" y2="334" stroke="#3E2BB1" stroke-width="2"/>
<path d="M19.4214 159.3C19.4214 162.968 19.4214 166.636 19.4214 170.304C19.4214 171.371 19.4214 172.439 19.4214 173.506C19.4214 173.923 19.3382 175.249 19.9889 174.318" stroke="#3E2BB1" stroke-width="2.5" stroke-linecap="round"/>
<path d="M21.0742 174.354H30.0939" stroke="#3E2BB1" stroke-width="2.5" stroke-linecap="round"/>
<path d="M30.0938 174.354C32.0753 174.401 32.8758 175.712 34.4783 176.598C35.8608 177.363 37.1549 178.32 38.437 179.241C39.452 179.971 41.4321 181.76 42.7213 181.76C43.8557 181.76 43.3978 173.638 43.3978 172.334C43.3978 168.081 43.3978 164.104 43.3978 159.868C43.3978 157.309 43.3978 153.901 43.3978 151.344" stroke="#3E2BB1" stroke-width="2.5" stroke-linecap="round"/>
<path d="M43.1135 151.06C41.5435 152.013 38.6034 153.97 37.0847 154.942C37.0847 154.942 35.3704 156.328 34.3788 156.899C33.5831 157.358 30.0329 160.155 29.418 159.543" stroke="#3E2BB1" stroke-width="2.5" stroke-linecap="round"/>
<path d="M29.4179 159.543C27.2757 159.543 25.1335 159.543 22.9913 159.543C22.5229 159.543 20.1459 159.331 20.6236 159.094" stroke="#3E2BB1" stroke-width="2.5" stroke-linecap="round"/>
<path d="M51.125 159.079C54.3361 160.677 55.4094 163.913 55.4094 167.383C55.4094 169.651 54.952 171.081 53.7432 172.981C53.543 173.295 52.7102 175.026 52.478 174.564" stroke="#3E2BB1" stroke-width="2.5" stroke-linecap="round"/>
<path d="M54.957 151C58.6065 151.797 60.9182 156.352 62.3983 159.403C64.2335 163.187 64.3212 168.2 62.962 172.108C62.0621 174.695 60.0483 177.352 58.1139 179.277C57.5356 179.852 56.8098 180.563 56.31 181.184C56.0792 181.471 55.1825 182.461 55.1825 181.745" stroke="#3E2BB1" stroke-width="2.5" stroke-linecap="round"/>
<rect x="1.32617" y="127" width="79.3876" height="79" rx="39.5" stroke="#3E2BB1" stroke-width="2"/>
</svg>
