<svg width="352" height="64" viewBox="0 0 352 64" fill="none" xmlns="http://www.w3.org/2000/svg">
<line x1="352" y1="33" y2="33" stroke="#3E2BB1" stroke-width="2"/>
<rect x="145" y="1" width="62" height="62" rx="31" fill="#160643" stroke="#3E2BB1" stroke-width="2"/>
<path d="M159.014 26.3109C159.014 29.2091 159.014 32.1074 159.014 35.0057C159.014 35.8491 159.014 36.6924 159.014 37.5358C159.014 37.8653 158.949 38.9126 159.461 38.1772" stroke="#3E2BB1" stroke-width="2.5" stroke-linecap="round"/>
<path d="M160.314 38.2059H167.407" stroke="#3E2BB1" stroke-width="2.5" stroke-linecap="round"/>
<path d="M167.406 38.2058C168.964 38.2429 169.594 39.2789 170.854 39.979C171.941 40.5829 172.959 41.3393 173.967 42.0674C174.765 42.6439 176.322 44.0573 177.336 44.0573C178.228 44.0573 177.868 37.64 177.868 36.6099C177.868 33.2495 177.868 30.1069 177.868 26.7598C177.868 24.7383 177.868 22.0454 177.868 20.025" stroke="#3E2BB1" stroke-width="2.5" stroke-linecap="round"/>
<path d="M177.645 19.8006C176.41 20.5534 174.098 22.1002 172.904 22.8679C172.904 22.8679 171.556 23.9631 170.776 24.4145C170.15 24.7768 167.359 26.9865 166.875 26.5029" stroke="#3E2BB1" stroke-width="2.5" stroke-linecap="round"/>
<path d="M166.875 26.5029C165.191 26.5029 163.506 26.5029 161.822 26.5029C161.453 26.5029 159.584 26.3361 159.96 26.1483" stroke="#3E2BB1" stroke-width="2.5" stroke-linecap="round"/>
<path d="M183.943 26.1367C186.468 27.3992 187.312 29.9564 187.312 32.6974C187.312 34.4895 186.953 35.6197 186.002 37.1206C185.845 37.3692 185.19 38.7369 185.007 38.3716" stroke="#3E2BB1" stroke-width="2.5" stroke-linecap="round"/>
<path d="M186.957 19.7532C189.827 20.3831 191.645 23.9818 192.809 26.3928C194.252 29.3822 194.321 33.3434 193.252 36.431C192.544 38.4753 190.961 40.5742 189.439 42.0953C188.985 42.5501 188.414 43.1112 188.021 43.6025C187.839 43.8293 187.134 44.611 187.134 44.0458" stroke="#3E2BB1" stroke-width="2.5" stroke-linecap="round"/>
</svg>
