<svg width="152" height="20" viewBox="0 0 152 20" fill="none" xmlns="http://www.w3.org/2000/svg">
<path d="M105.909 11.5667C105.622 11.4183 105.348 11.2622 105.022 11.0904C104.839 11.1372 104.618 11.1919 104.409 11.2465C104.304 11.2778 104.109 11.3402 104.083 11.3168C103.652 11.0123 103.091 11.3481 102.595 11.2075C102.386 11.145 102.047 11.2387 101.76 11.2544C101.251 11.2934 100.768 11.4261 100.22 11.27C98.9677 10.903 97.6107 11.0201 96.2798 11.0201C95.5752 11.0201 94.8576 11.0592 94.1921 10.9733C93.7224 10.9186 93.3962 10.9655 93.1482 11.1138C92.5219 10.9342 91.9609 10.7703 91.3606 10.5985C91.2171 10.7078 91.0866 10.8015 90.9301 10.9264C90.8387 10.8796 90.7474 10.8484 90.6822 10.7937C90.2516 10.4502 90.2385 10.4423 89.5992 10.5985C89.3512 10.661 89.1033 10.739 88.8554 10.7703C88.7249 10.7859 88.5553 10.7156 88.3987 10.6766C88.5292 10.6297 88.6597 10.5829 88.7902 10.5282C88.738 10.497 88.6858 10.4736 88.6466 10.4423C88.5684 10.5204 88.5031 10.5985 88.4248 10.6766C88.0464 10.5595 87.7333 10.4658 87.2896 10.6688C87.0026 10.8015 86.5198 10.7859 86.1153 10.8405C85.476 10.7 84.7974 10.5282 84.0928 10.4033C83.8319 10.3565 83.5187 10.4033 83.2317 10.4345C82.9055 10.4736 82.6054 10.5517 82.2922 10.5907C81.9138 10.6375 81.8486 10.4736 81.8616 10.3018C81.6137 10.3018 81.3788 10.3252 81.144 10.294C80.7134 10.2393 80.348 10.2862 79.9436 10.3955C79.0563 10.6375 78.43 10.5907 77.7645 10.3643C77.1774 10.3955 76.7859 10.4267 76.4075 10.4267C75.6507 10.4345 74.907 10.4267 74.1502 10.4267C73.5239 10.4267 72.9106 10.4345 72.2843 10.4189C72.1669 10.4189 72.0364 10.333 71.9451 10.2784C71.4753 9.97388 70.849 9.95045 70.2227 9.93484C70.1183 9.93484 70.0139 9.98168 69.8965 10.0051C69.6355 10.0598 69.3876 10.1222 69.0223 10.2003C69.1267 10.0363 69.1658 9.95826 69.2571 9.81772C68.3699 9.84114 67.5348 9.86457 66.6736 9.88799C66.6736 9.94265 66.6606 10.052 66.6345 10.2081C66.0865 10.0441 65.7081 9.65376 65.1078 9.83334C64.6642 9.97388 63.9596 9.71622 63.7639 10.2628C63.2681 9.7943 62.6678 9.70841 61.9241 9.83334C61.4413 9.91141 60.9324 9.93484 60.3844 9.98949C60.2931 9.91922 60.1887 9.82553 60.0843 9.73183C59.7581 9.83334 59.4841 9.95045 59.184 10.0129C58.7534 10.1066 58.362 10.1456 57.9183 9.94265C57.6443 9.81772 57.2007 9.83334 56.7049 9.77868C56.7049 9.77868 56.6135 9.70841 56.5483 9.63033C56.47 9.55226 56.4178 9.47418 56.3134 9.35706C56.209 9.41952 56.1046 9.45075 56.0525 9.4976C55.7654 9.77087 55.4522 9.86457 54.8651 9.77087C54.1735 9.66156 53.4428 9.53664 52.6991 9.63033C52.5425 9.64595 52.3729 9.66156 52.2424 9.70841C51.6944 9.92703 51.7074 9.93484 51.3943 9.56787C51.0811 9.60691 50.768 9.66937 50.4418 9.6928C49.7241 9.73964 48.9804 9.64595 48.328 9.8958C48.3019 9.90361 48.2627 9.91141 48.2497 9.91141C47.0493 9.56006 45.7053 9.91141 44.4788 9.66937C44.1787 9.60691 43.8133 9.66156 43.2914 9.66156C43.2914 9.66156 43.1348 9.58349 42.9913 9.50541C42.9261 9.52102 42.8347 9.52102 42.8217 9.54445C42.5477 9.86457 42.0779 9.84114 41.5821 9.8021C41.1385 9.76307 40.6948 9.73964 40.2512 9.73183C39.5075 9.71622 38.7768 9.72403 38.033 9.70841C37.6155 9.7006 37.6155 9.68499 37.3154 9.28679C37.1196 9.34925 36.9109 9.41171 36.663 9.48979C36.8456 9.55225 36.9631 9.59129 37.0805 9.63033C37.0544 9.86457 36.7804 9.90361 36.5194 9.84895C36.3237 9.80991 36.1802 9.67718 35.9845 9.56787C35.9062 9.63033 35.7757 9.71622 35.6452 9.80991C35.1102 9.62253 34.5492 9.53664 33.962 9.60691C33.7793 9.63033 33.6358 9.77087 33.4662 9.86457C32.5137 9.78649 31.4568 9.7006 30.3999 9.60691C30.178 9.58349 29.9693 9.4976 29.7475 9.47418C28.9646 9.38829 28.1686 9.31802 27.3857 9.24775C27.3336 9.23994 27.2553 9.30241 27.1509 9.35706C27.5162 9.5991 28.2339 9.34144 28.4687 9.71622C27.8163 9.80991 27.177 9.90361 26.5507 9.98949C26.2897 9.92703 26.0157 9.8021 25.7286 9.8021C24.5935 9.81772 23.4713 9.88018 22.3361 9.91922C21.9577 9.93484 21.5793 9.91922 21.1488 9.91922C21.1748 9.73183 21.1879 9.5991 21.214 9.38829C20.9922 9.46637 20.7704 9.50541 20.7573 9.56006C20.679 9.80991 20.3398 9.84895 20.0266 9.8958C19.2046 10.0129 19.2046 10.0051 18.7609 10.3174C18.5783 10.2706 18.3826 10.2393 18.1999 10.1769C17.8867 10.0676 17.6127 10.0832 17.2735 10.1613C16.9995 10.2237 16.608 10.2628 16.3601 10.1925C15.8382 10.0441 15.4467 10.0988 15.0944 10.3174C14.155 10.0676 13.2546 9.93484 12.276 10.1066C12.002 10.1535 11.6758 10.1222 11.3888 10.1378C11.1017 10.1769 10.7886 10.1535 10.645 10.2315C10.0579 10.5595 9.27497 10.5673 8.58342 10.7156C8.10064 10.8171 7.55262 10.7859 7.03069 10.7703C7.27861 10.5907 7.52652 10.4892 7.94406 10.5907C8.28331 10.6688 8.30941 10.6297 8.49208 10.3487C8.08759 10.3252 7.67005 10.2706 7.27861 10.2862C7.04374 10.294 6.80888 10.4033 6.61316 10.497C6.31305 10.6297 6.05209 10.7859 5.76503 10.9342C5.71284 10.9108 5.66064 10.8874 5.60845 10.8562C5.72588 10.6922 5.84332 10.5282 5.96075 10.3487C5.84332 10.333 5.71284 10.3018 5.68674 10.3174C5.15177 10.6922 4.30364 10.7078 3.65123 10.942C3.35113 11.0514 3.03797 11.2075 2.58129 11.0904C2.39861 11.0435 2.09851 11.1919 1.85059 11.2544C1.10685 11.4417 0.519686 11.2387 0.363108 10.7703C0.271772 10.4892 0.115194 10.2081 0.0108094 9.92703C-0.0152868 9.84895 0.0108094 9.77087 0.0369056 9.68499C0.0890981 9.4976 0.219579 9.31021 0.206531 9.12283C0.180435 8.64655 0.0890981 8.17808 0.0499538 7.70181C0.0369056 7.6003 0.0890981 7.491 0.115194 7.38949C0.206531 7.03033 0.363109 6.66337 0.389205 6.2964C0.428349 5.74986 0.728456 5.50001 1.61573 5.42974C1.90279 5.40631 2.33337 5.44535 2.43776 5.35166C2.63348 5.16427 2.69872 4.91442 2.71177 4.68799C2.71177 4.41472 2.43776 4.12583 2.95968 3.90721C2.99883 3.89941 2.90749 3.78229 2.90749 3.71202C2.92054 3.38409 2.94664 3.04836 2.97273 2.72043C2.98578 2.43154 2.99883 2.13484 3.03797 1.84595C3.06407 1.6898 3.14236 1.53364 3.1815 1.37749C3.27284 1.02614 3.66428 0.909018 4.18621 0.877787C4.83861 0.838748 5.49102 0.807517 6.31305 0.76067C6.03904 0.862171 5.89551 0.924634 5.75198 0.994904C5.75198 1.02614 5.76503 1.05737 5.76503 1.0886C5.98685 1.0886 6.19562 1.09641 6.41743 1.0886C6.92631 1.05737 7.42214 1.01052 7.93101 0.987096C8.41379 0.963673 9.19668 1.15887 9.65337 1.35406C10.2275 1.60391 10.8538 1.64295 11.6758 1.47899C10.9712 1.35406 10.3971 1.25256 9.7708 1.13544C10.2797 0.698207 10.9321 0.682592 11.6106 1.04956C11.7019 0.987096 11.7933 0.924634 11.8063 0.909018C12.4718 0.987096 13.072 1.07298 13.6722 1.11983C13.881 1.13544 14.1158 1.04956 14.3246 0.994904C14.5595 0.932442 14.7813 0.846556 15.0161 0.791901C15.5642 0.666976 16.073 0.6904 16.6472 0.791901C17.3778 0.924634 18.1607 0.940249 18.9567 1.00271C19.1132 0.932442 19.048 0.620129 19.5308 0.807517C19.5177 0.909018 19.4916 1.01833 19.4655 1.15887C19.596 1.14325 19.7004 1.15106 19.7657 1.11983C19.9222 1.04175 20.0397 0.916826 20.2093 0.862171C20.4572 0.776286 20.8095 0.643553 21.0052 0.6904C21.5793 0.823132 21.9838 0.6904 22.4405 0.471781C22.584 0.612322 22.7015 0.721631 22.832 0.854364C23.1321 0.784093 23.4452 0.682592 23.7584 0.643553C23.8628 0.627937 24.0193 0.768478 24.1237 0.823132C25.011 0.635745 25.8461 0.417127 26.7725 0.784093C27.177 0.940249 27.6467 0.948057 28.1164 0.6904C28.5601 0.448358 29.2125 0.331241 29.7344 0.175085C30.152 0.409319 29.6953 0.518628 29.6561 0.674784C30.178 0.651361 30.6739 0.627937 31.2088 0.612322C31.3654 0.448358 31.3915 0.128238 32.0048 0.331241C31.9526 0.432742 31.9134 0.526436 31.8482 0.651361C32.2005 0.6904 32.5398 0.729439 32.9442 0.776285C32.9703 0.666976 32.9964 0.573283 33.0225 0.479589C33.6097 0.409319 34.0794 0.487397 34.2621 0.823132C34.5883 0.643553 34.8754 0.479589 35.2277 0.284394C35.6974 0.432742 36.1671 0.58109 36.6238 0.729439C36.8978 0.807517 37.1457 0.885595 37.4328 0.698207C37.5633 0.635745 37.8373 0.627937 38.02 0.643553C38.3201 0.674784 38.6071 0.76067 38.9203 0.799709C39.651 0.90121 39.7815 0.838748 39.938 0.315625C40.1468 0.307817 40.3686 0.292202 40.6426 0.276586C40.6426 0.401511 40.6426 0.495205 40.6426 0.635745C40.9297 0.635745 41.2037 0.666976 41.4516 0.627937C42.3389 0.495205 43.2262 0.588898 44.1134 0.58109C45.5096 0.573283 46.9057 0.534244 48.3019 0.526436C48.7455 0.526436 49.1761 0.620129 49.6197 0.651361C49.9981 0.674784 50.4026 0.729439 50.5462 0.401511C50.5723 0.331241 50.8854 0.253163 51.0289 0.276586C51.4595 0.339049 51.864 0.456166 52.3337 0.557667C52.2685 0.713823 52.2163 0.862171 52.138 1.07298C52.412 1.06517 52.7121 1.10421 52.8948 1.03394C53.0383 0.979288 53.0514 0.799709 53.1688 0.596706C53.3124 0.565475 53.6125 0.503012 53.8343 0.456166C54.0952 0.549859 54.304 0.620129 54.4997 0.698207L54.4867 0.6904C54.7085 0.659168 55.0347 0.682592 55.1391 0.596706C55.5175 0.276586 56.0394 0.307817 56.5874 0.292202C56.6005 0.635745 55.922 0.393703 55.8437 0.635745C56.3134 0.745054 56.7571 0.666976 57.005 0.432742C57.3703 0.0891988 57.3703 0.0891989 58.3489 0.260971C58.0358 0.354664 57.827 0.417127 57.6704 0.463973C57.7357 0.557667 57.7357 0.604514 57.7748 0.620129C58.2054 0.776285 58.5968 0.768478 59.0144 0.58109C59.4711 0.378088 59.9538 0.167277 60.5541 0.44055C61.089 0.284394 61.624 0.651361 62.1851 0.44055C62.2764 0.409319 62.4982 0.432742 62.5896 0.479589C63.4638 0.893402 64.325 0.6904 65.2122 0.503012C65.4862 0.44055 65.7603 0.346856 66.0343 0.339049C67.0781 0.323433 68.0698 0.112622 69.0875 0.0189286C69.7138 -0.035726 69.7921 0.003313 69.8835 0.471781C70.0792 0.401511 70.2227 0.315625 70.4054 0.284394C70.7707 0.221932 71.1883 0.112622 71.5145 0.175085C72.4539 0.339049 73.3412 0.378088 74.2807 0.198508C74.7896 0.104814 74.8156 0.143853 75.194 0.51082C75.6638 0.0267364 76.3162 0.276586 76.9294 0.346856C77.3731 0.393703 77.7906 0.573283 78.2864 0.417127C78.4169 0.378087 78.6909 0.503012 78.8997 0.557667C79.4347 0.706015 80.0479 0.745054 80.4524 0.51082C81.144 0.12043 81.9008 0.182892 82.6054 0.339049C83.6753 0.565475 84.667 0.487397 85.6978 0.292202C86.037 0.229739 86.4546 0.307817 86.833 0.339049C87.0939 0.354664 87.381 0.456166 87.6028 0.409319C88.8293 0.159469 90.0297 0.37028 91.2302 0.424934C91.9087 0.456166 92.6133 0.479589 93.2918 0.417127C94.1138 0.346856 94.8967 0.378088 95.6665 0.534244C96.071 0.620129 96.4494 0.596706 96.88 0.557667C97.6629 0.487397 98.4588 0.518628 99.2548 0.542051C100.194 0.565475 101.121 0.620129 102.06 0.651361C102.23 0.659168 102.412 0.627937 102.595 0.604514C103.861 0.417127 103.887 0.424934 104.33 1.05737C104.618 0.948057 104.918 0.838748 105.205 0.729439C105.844 1.05737 105.975 1.05737 106.627 0.698207C106.744 0.729439 106.888 0.752862 107.018 0.791901C107.149 0.83094 107.279 0.877787 107.436 0.932442C107.606 0.846556 107.762 0.76067 107.919 0.682592C107.984 0.651361 108.075 0.58109 108.127 0.588898C108.819 0.682592 109.537 0.495205 110.215 0.651361C110.515 0.721631 110.815 0.815325 111.129 0.838748C112.486 0.924634 113.856 0.979288 115.213 1.04956C115.278 1.04956 115.343 1.07298 115.382 1.06517C116.426 0.869979 117.418 1.23695 118.462 1.13544C118.618 1.11983 118.84 1.15887 118.957 1.21352C119.401 1.42433 119.962 1.38529 120.393 1.32283C121.071 1.22914 121.567 1.38529 122.05 1.57268C122.415 1.71322 122.741 1.77568 123.133 1.68199C123.772 1.53364 124.412 1.52583 125.064 1.62734C125.116 1.63514 125.181 1.65857 125.234 1.64295C126.421 1.45556 127.556 1.77568 128.73 1.78349C129.187 1.78349 129.644 1.90842 130.114 1.96307C130.609 2.01773 131.118 2.11923 131.601 2.08019C132.11 2.04115 132.501 2.08019 132.815 2.29881C133.049 2.46277 133.271 2.47058 133.61 2.42373C133.937 2.37688 134.315 2.38469 134.641 2.43154C135.385 2.53304 136.194 2.494 136.833 2.82193C136.899 2.85316 137.055 2.82974 137.173 2.81412C137.264 2.80631 137.368 2.74385 137.42 2.75947C138.36 3.04055 139.443 2.76728 140.382 3.01712C140.591 3.07178 140.787 3.16547 140.983 3.23574C141.009 3.24355 141.009 3.26697 141.035 3.27478C141.635 3.45436 142.235 3.63394 142.835 3.81352C143.162 3.90721 144.375 3.94625 144.858 3.8916C145.445 4.18049 145.928 4.57088 146.828 4.46938C146.893 4.46157 146.985 4.51622 147.05 4.54745C147.089 4.57088 147.102 4.60992 147.154 4.67238C147.011 4.7973 146.841 4.93004 146.646 5.10181C146.88 5.17208 147.063 5.22673 147.22 5.2892C147.781 5.51562 147.911 5.96067 147.481 6.27298C147.207 6.47598 146.867 6.45256 146.502 6.35106C146.228 6.27298 145.967 6.10121 145.615 6.22613C145.589 6.55406 146.124 6.4994 146.293 6.60871C146.489 6.92103 146.646 7.1943 146.867 7.56127C146.476 7.53003 146.215 7.52223 145.98 7.48319C145.08 7.31142 144.427 7.53784 144.258 8.10781C143.684 8.32643 143.162 8.05316 142.705 7.94385C142.066 7.7955 141.478 7.68619 140.8 7.73304C140.278 7.77208 139.834 7.72523 139.639 7.36607C138.817 7.45196 138.06 7.54565 137.303 7.6003C136.872 7.63154 136.39 7.64715 135.985 7.56127C134.928 7.32703 133.845 7.2958 132.749 7.30361C132.436 7.30361 132.188 7.33484 131.966 7.15526C131.718 6.96787 131.379 7.02253 131.066 7.12403C130.727 7.24115 130.401 7.35826 130.048 7.491C129.435 7.22553 128.926 6.83514 128.026 6.98349C127.974 6.81952 127.921 6.67118 127.869 6.51502C127.817 6.51502 127.739 6.4994 127.713 6.51502C127.452 6.68679 127.23 6.87418 126.943 7.03033C126.63 7.1943 126.264 7.33484 125.847 7.50661C125.873 7.53784 125.964 7.63934 126.082 7.76427C126.277 7.68619 126.408 7.63154 126.551 7.57688C127.099 7.35826 127.191 7.38169 127.478 7.82673C127.895 7.53004 128.365 7.45976 128.965 7.63154C129.409 7.75646 129.918 7.81892 130.414 7.897C130.518 7.91262 130.675 7.94385 130.753 7.91262C131.236 7.72523 131.536 7.86577 131.732 8.11562C132.684 7.90481 133.597 7.97508 134.498 8.00631C134.693 8.01412 134.928 8.06096 135.085 8.13124C135.529 8.34205 135.946 8.47478 136.546 8.34985C136.742 8.31081 137.081 8.46697 137.342 8.54505C137.447 8.57628 137.525 8.63093 137.629 8.67778C138.464 9.04475 138.464 9.04475 138.96 8.45916C139.365 8.54505 139.782 8.63874 140.2 8.72463C140.448 8.77147 140.709 8.83394 140.97 8.84175C141.661 8.85736 142.196 8.99009 142.366 9.3961C143.123 9.3961 143.827 9.35706 144.506 9.41171C144.884 9.44295 145.275 9.60691 145.563 9.77868C145.876 9.96607 146.176 10.0129 146.593 10.0129C147.376 10.0129 148.159 10.052 149.007 10.0832C148.955 10.5517 149.947 10.7937 149.49 11.27C149.855 11.4808 150.195 11.6057 150.677 11.5745C150.847 11.5589 151.03 11.6057 151.199 11.6526C151.525 11.7384 151.695 11.9493 151.499 12.0898C151.265 12.2694 151.069 12.4255 150.977 12.652C150.899 12.8706 150.717 13.0736 150.573 13.2766C150.495 13.3703 150.39 13.464 150.26 13.5811C149.686 13.2532 149.255 13.2141 148.655 13.4483C148.029 13.6826 147.272 13.8153 146.659 13.339C146.28 13.0502 145.993 13.261 145.745 13.4718C145.589 13.4483 145.432 13.4405 145.302 13.4015C144.44 13.1126 143.527 13.2297 142.614 13.2375C142.353 13.4952 142.04 13.3 141.739 13.2844C141.544 13.2766 141.309 13.2766 141.126 13.3234C140.591 13.4405 140.056 13.5889 139.534 13.7216C139.247 13.4093 139.821 13.4327 139.9 13.2375C139.756 13.0892 139.586 12.9799 139.208 13.097C138.49 13.3234 137.76 13.3078 137.003 13.1751C136.612 13.1048 136.194 13.058 135.816 13.0033C135.711 13.0814 135.646 13.1204 135.607 13.1595C135.215 13.5499 134.72 13.5733 134.367 13.1829C134.106 12.9018 133.793 12.7066 133.219 12.5895C133.219 12.7456 133.219 12.8628 133.219 12.9877C133.102 12.9877 132.984 13.0111 132.932 12.9877C132.684 12.8862 132.449 12.7847 132.227 12.6676C131.992 12.5426 131.784 12.4724 131.431 12.5348C131.144 12.5817 130.805 12.5036 130.44 12.4802C130.453 12.5505 130.479 12.6363 130.518 12.7925C130.179 12.6988 129.892 12.6285 129.579 12.5426C129.461 12.5973 129.305 12.652 129.187 12.73C128.835 12.9408 128.496 13.0033 128.104 12.7691C127.987 12.6988 127.804 12.652 127.634 12.6285C127.269 12.5661 126.865 12.5583 126.525 12.4724C126.199 12.3943 125.925 12.2459 125.586 12.1054C125.677 11.9961 125.782 11.8634 125.886 11.7384C125.834 11.715 125.782 11.6916 125.716 11.6682C125.429 11.8634 125.142 12.0664 124.803 12.3006C124.646 12.1444 124.516 12.0195 124.385 11.9024C124.32 11.9102 124.242 11.9024 124.216 11.918C123.929 12.1601 123.616 12.4099 123.355 12.6676C123.211 12.8081 123.107 12.9877 122.767 12.8862C122.48 12.8003 122.585 12.6441 122.689 12.5114C122.741 12.449 122.767 12.3865 122.859 12.2616C122.533 12.2694 122.311 12.285 122.089 12.285C121.737 12.2928 121.397 12.2928 121.045 12.3006C120.928 12.3006 120.784 12.285 120.706 12.3162C120.158 12.5192 119.649 12.4411 119.258 12.1913C118.357 11.6135 117.261 11.7775 116.191 11.8712C115.852 11.9024 115.604 11.9336 115.265 11.8399C114.939 11.7462 114.534 11.7228 114.156 11.6838C113.895 11.6604 113.595 11.7072 113.373 11.6447C112.42 11.4027 111.39 11.5823 110.424 11.4417C110.398 11.4339 110.359 11.4261 110.333 11.4339C109.419 11.7853 108.623 11.3402 107.775 11.2856C107.54 11.27 107.305 11.2856 107.279 11.2856C106.81 11.4964 106.483 11.6447 106.105 11.8165C106.027 11.7072 105.975 11.6447 105.922 11.5823C106.04 11.4808 106.51 11.4496 106.027 11.2075C105.961 11.3402 105.935 11.4574 105.909 11.5667ZM64.8991 4.10241C64.599 3.91502 64.4685 4.04775 64.4163 4.25076C64.5859 4.1961 64.7555 4.14145 64.9121 4.08679C64.9904 4.20391 65.0165 4.34445 65.3688 4.25076C65.2253 4.20391 65.0687 4.15706 64.8991 4.10241ZM33.414 5.95286C33.1922 5.97628 32.9703 5.99971 32.7485 6.02313C33.0878 6.17929 33.2574 6.07778 33.4009 5.93724C33.4923 5.94505 33.5836 5.97628 33.6488 5.96067C33.7271 5.94505 33.7663 5.88259 33.8315 5.84355C33.7532 5.82793 33.6488 5.78109 33.6227 5.7967C33.5314 5.83574 33.4792 5.8982 33.414 5.95286ZM72.5844 7.23334C72.8976 7.10841 73.1977 6.97568 73.0542 6.68679C72.9106 6.87418 72.754 7.05376 72.6105 7.24115C72.5061 7.26457 72.4017 7.28018 72.1538 7.32703C72.4278 7.41292 72.5844 7.45976 72.9237 7.56127C72.7279 7.38169 72.6627 7.30361 72.5844 7.23334ZM143.984 10.8015C144.127 10.864 144.271 10.9186 144.414 10.9811C144.44 10.9499 144.453 10.9264 144.48 10.8952C144.31 10.8718 144.14 10.8405 143.958 10.8171C143.905 10.7234 143.866 10.6219 143.814 10.5282C143.697 10.5751 143.579 10.6219 143.344 10.7078C143.671 10.7468 143.827 10.7703 143.984 10.8015ZM88.2813 6.71802C88.0595 6.5931 87.8507 6.46037 87.5637 6.28859C87.6941 6.75706 87.6941 6.75706 88.2682 6.70241C88.7249 6.57748 88.7249 6.57748 88.3987 6.26517C88.3465 6.45256 88.3074 6.58529 88.2813 6.71802ZM35.9323 7.24895C35.8409 7.17868 35.7496 7.03814 35.6583 7.03814C35.2538 7.03814 34.8623 7.07718 34.4187 7.10841C34.3795 7.21772 34.3534 7.32703 34.3143 7.47538C34.8754 7.27238 34.8754 7.27238 35.9584 7.23334C35.7496 7.37388 35.5408 7.50661 35.2668 7.694C35.7496 7.73304 36.1671 7.85796 36.663 7.67838C36.5064 7.45196 36.3237 7.2958 35.9323 7.24895ZM21.5402 1.33064C21.5141 1.18229 21.475 1.01833 21.1488 1.04956C21.0183 1.05737 20.9269 1.16668 20.7051 1.28379C21.0966 1.29941 21.3314 1.31502 21.5663 1.32283C21.6968 1.44776 21.8664 1.5961 22.1143 1.4868C22.4275 1.34626 22.6623 1.36187 23.0016 1.45556C23.4061 1.56487 23.4844 1.40091 23.4452 1.19791C22.7276 1.01833 22.1535 1.27598 21.5402 1.33064ZM40.7601 6.40571C40.747 6.04655 40.747 6.04655 40.1468 6.07778C40.3947 6.20271 40.5774 6.30421 40.7731 6.3979C41.1385 6.80391 41.6865 6.44475 42.2345 6.55406C42.0388 6.24956 42.3389 6.21052 42.652 6.17929C42.8608 6.16367 43.0696 6.17148 43.2653 6.12463C43.3697 6.10121 43.5132 5.99971 43.5002 5.94505C43.4741 5.85917 43.3566 5.73424 43.2262 5.71862C42.7695 5.64835 43.0304 5.93724 42.8086 5.96067C42.1301 6.10901 41.4516 6.25736 40.7601 6.40571ZM115.761 6.48379C115.474 6.45256 115.187 6.42133 114.899 6.3979C114.325 6.34325 113.843 6.24175 113.764 5.83574C113.751 5.77328 113.66 5.71862 113.582 5.64055C113.334 5.70301 113.138 5.76547 112.929 5.82013C113.047 5.9919 113.125 6.14805 113.255 6.28079C113.438 6.46817 113.647 6.63995 114.077 6.61652C114.456 6.60091 114.847 6.62433 115.226 6.60091C115.408 6.5931 115.578 6.52283 115.748 6.47598C116.165 6.4916 116.583 6.51502 117.131 6.53844C116.4 6.10901 116.4 6.10901 115.761 6.48379ZM118.749 6.20271C118.449 6.27298 118.018 6.14025 117.692 6.43694C117.992 6.53844 118.253 6.68679 118.527 6.70241C119.244 6.74145 119.923 6.80391 120.419 7.18649C120.667 7.03033 120.849 6.90541 121.097 6.74145C120.758 6.68679 120.51 6.65556 120.301 6.62433C120.21 6.46817 120.145 6.34325 120.027 6.14025C119.766 6.31983 119.636 6.4994 119.414 6.56187C118.918 6.68679 119.049 6.31983 118.749 6.20271ZM29.6431 5.50781C29.0168 5.55466 28.5079 5.5937 27.986 5.63274C27.986 5.65616 27.999 5.67959 27.999 5.6952C28.6253 5.78889 29.2386 5.88259 29.9301 5.98409C29.7866 6.0934 29.7214 6.14025 29.6561 6.20271C30.3738 6.4916 31.0131 6.2964 31.6916 6.15586C31.5872 5.93724 31.3785 5.87478 31.1306 5.94505C30.4912 6.12463 30.1259 5.94505 29.8127 5.64055C29.7344 5.57808 29.6561 5.52343 29.6431 5.50781ZM39.2204 8.75586C40.0816 8.86517 41.5821 8.84175 41.9735 8.73244C40.7862 8.44355 39.8858 8.44355 39.2204 8.75586ZM49.7894 1.86938C49.7894 1.83034 49.7894 1.7913 49.7894 1.75226C48.5237 1.72884 47.258 1.69761 45.9924 1.6898C45.901 1.6898 45.8227 1.78349 45.6662 1.87719C47.1145 1.86938 48.4585 1.86938 49.7894 1.86938ZM49.0456 6.05436C48.1192 6.18709 47.4016 6.28859 46.5143 6.41352C47.258 6.50721 47.793 6.57748 48.3671 6.65556C48.5759 6.47598 48.7716 6.30421 49.0456 6.05436ZM39.3378 7.16307C39.7032 7.17868 40.1338 7.13964 40.4469 7.22553C40.9427 7.36607 41.1254 7.23334 41.3472 7.01472C39.7162 6.73364 39.6118 6.74145 39.3378 7.16307ZM149.294 12.691C149.164 12.6207 149.007 12.4646 148.772 12.4021C148.551 12.3396 148.224 12.5505 148.211 12.73C148.198 12.933 148.42 13.0111 148.72 13.0267C149.02 13.0423 149.255 12.9955 149.294 12.691ZM60.6584 1.16668C60.4888 0.745054 60.5019 0.752862 59.9408 0.940249C59.732 1.01052 59.4972 1.04175 59.0927 1.12764C59.8886 1.36187 60.5802 1.31502 61.2456 1.32283C61.2717 1.32283 61.3108 1.28379 61.363 1.24475C61.1021 1.21352 60.8672 1.1901 60.6584 1.16668ZM74.7243 8.46697C73.7587 8.62313 72.9628 8.75586 72.1669 8.88859C72.193 8.92763 72.206 8.97448 72.2321 9.01352C73.0802 8.9979 73.9414 8.9979 74.7243 8.46697ZM41.1124 1.13544C41.4125 1.25256 41.6343 1.40872 41.7387 1.38529C42.2215 1.26818 42.8217 1.47118 43.3958 1.17448C42.5998 1.08079 41.9735 0.971481 41.1124 1.13544ZM25.3894 2.54866C25.3633 2.50962 25.3502 2.47058 25.3241 2.42373C24.7892 2.42373 24.2673 2.40812 23.7323 2.43154C23.6148 2.43935 23.5235 2.56427 23.4191 2.63454C23.5496 2.68139 23.6931 2.76728 23.8236 2.75947C24.2281 2.74385 24.6326 2.70481 25.0371 2.65797C25.1676 2.65016 25.285 2.5877 25.3894 2.54866ZM43.9308 8.17808C44.7006 7.88919 45.1181 7.67838 45.1964 7.56127C44.8702 7.56127 44.5049 7.50661 44.2178 7.57688C43.8003 7.68619 43.7872 7.93604 43.9308 8.17808ZM54.578 9.2946C54.1344 8.84955 53.495 8.88859 52.8035 9.37268C53.3906 9.34925 53.9256 9.32583 54.578 9.2946ZM122.689 6.74145C122.963 7.00691 123.603 7.20991 123.968 7.16307C124.098 7.14745 124.19 7.02253 124.398 6.87418C123.772 6.81952 123.302 6.78829 122.689 6.74145ZM26.7333 7.41292C26.107 7.04595 25.6634 7.03033 24.7892 7.28018C25.4155 7.40511 25.9896 7.52223 26.7333 7.41292ZM31.6525 1.25256C30.7913 0.877787 29.9823 1.11202 29.1472 1.25256C29.9823 1.25256 30.8174 1.25256 31.6525 1.25256ZM56.6396 1.16668C56.3134 1.06517 55.935 1.01052 55.5044 1.11202C56.3656 1.55707 57.0441 1.45556 57.3181 0.815324C57.0441 0.955865 56.8614 1.04956 56.6396 1.16668ZM58.0619 2.60331C59.2362 2.85316 59.6276 2.85316 60.6584 2.63454C59.7842 2.697 59.0405 2.34565 58.0619 2.60331ZM20.0266 8.11562C20.6138 8.34985 21.2401 8.11562 21.8533 8.17808C21.3053 7.85015 20.666 8.03754 20.0266 8.11562ZM34.6275 1.29941C34.0403 1.1901 33.6619 1.04956 33.3226 1.0886C33.0225 1.11983 32.5658 1.15106 32.3701 1.42433C32.5137 1.43995 32.605 1.47899 32.6702 1.45556C33.14 1.30722 33.5967 1.21352 34.0794 1.45556C34.1186 1.47118 34.3143 1.3931 34.6275 1.29941ZM31.8482 2.00992C31.6916 1.83815 31.6003 1.6898 31.5351 1.6898C31.0392 1.71322 30.5434 1.76007 30.0606 1.80692C30.0737 1.83815 30.0737 1.86938 30.0867 1.90842C30.5956 1.93184 31.1175 1.96307 31.8482 2.00992ZM47.5973 0.979288C47.0754 0.955865 46.71 0.940249 46.2272 0.924634C46.2533 1.11202 46.2794 1.26037 46.3055 1.4868C46.7752 1.29941 47.1014 1.17448 47.5973 0.979288ZM46.9188 2.64235C46.9057 2.61112 46.8927 2.57208 46.8666 2.54085C46.6187 2.57208 46.3838 2.61893 46.1359 2.63454C45.8619 2.65016 45.5748 2.63454 45.2878 2.63454C45.5618 2.93124 45.5618 2.93905 45.8097 2.8922C46.1881 2.82193 46.5534 2.72824 46.9188 2.64235ZM38.855 2.74385C39.4944 2.7907 39.938 2.82974 40.5122 2.86878C39.5074 2.41592 39.5075 2.41592 38.855 2.74385ZM22.2709 7.34265C22.7667 7.20991 23.0929 7.12403 23.4452 7.03033C23.0277 6.84295 22.6101 6.81952 22.3361 6.9913C22.2578 7.04595 22.297 7.17868 22.2709 7.34265ZM14.2593 6.85856C13.1372 6.74145 12.8371 6.78049 12.1325 7.10061C12.9154 7.00691 13.5939 6.92883 14.2593 6.85856ZM112.394 6.28859C112.029 5.93724 112.029 5.93724 111.455 6.08559C111.938 6.45256 111.938 6.45256 112.394 6.28859ZM69.4137 5.95286C70.2358 6.42133 70.3532 6.42913 70.8099 6.10121C70.3271 6.05436 69.8704 6.00751 69.4137 5.95286ZM29.2386 8.73244C28.7558 8.43574 28.4035 8.47478 27.9599 8.65436C28.3513 8.88078 28.7036 8.84955 29.2386 8.73244ZM17.3778 1.29941C18.4608 1.5883 18.4608 1.5883 18.9175 1.24475C18.3434 1.26037 17.8606 1.27598 17.3778 1.29941ZM21.6707 2.43154C21.2531 2.41592 20.8356 2.40031 20.3398 2.37688C20.8226 2.75947 20.8486 2.75947 21.6707 2.43154ZM88.19 1.68199C88.19 1.64295 88.203 1.60391 88.203 1.56487C87.6028 1.55707 87.0156 1.46337 86.4154 1.68199C87.0026 1.68199 87.5897 1.68199 88.19 1.68199ZM125.703 10.7156C125.09 10.091 125.09 10.091 124.581 10.1847C124.973 10.3721 125.338 10.5438 125.703 10.7156ZM63.7639 1.08079C64.1292 1.35406 64.5468 1.27598 64.9774 1.30722C64.4554 0.885595 64.4554 0.885595 63.7639 1.08079ZM134.72 6.21052C134.472 6.03874 134.198 6.03094 133.884 6.14805C134.237 6.4916 134.237 6.4916 134.72 6.21052ZM26.2897 8.66997C27.1117 8.86517 27.1117 8.86517 27.3988 8.54505C26.9682 8.5919 26.629 8.63093 26.2897 8.66997ZM74.4633 6.78049C74.7504 7.07718 75.0375 7.05376 75.455 6.84295C75.1288 6.71022 74.8939 6.58529 74.4633 6.78049ZM36.0758 2.25977C35.58 2.23634 35.2538 2.13484 35.0189 2.43154C35.3973 2.51743 35.6843 2.54866 36.0758 2.25977ZM74.3068 2.77508C74.6852 2.81412 74.8809 2.84535 75.0766 2.86097C75.1549 2.86878 75.2462 2.84535 75.3245 2.83755C75.1679 2.47839 75.1679 2.47839 74.3068 2.77508ZM25.5068 6.68679C25.5068 6.63214 25.5199 6.58529 25.5199 6.53064C25.1415 6.58529 24.7631 6.28859 24.2412 6.60871C24.75 6.63995 25.1284 6.66337 25.5068 6.68679ZM121.815 6.42913C121.711 6.56187 121.593 6.63994 121.593 6.72583C121.593 6.77268 121.802 6.86637 121.88 6.85076C122.011 6.82733 122.193 6.72583 122.18 6.67898C122.154 6.60091 121.985 6.53844 121.815 6.42913ZM42.2215 1.80692C42.6781 1.93965 43.0696 1.86938 43.5132 1.66638C42.9391 1.47118 42.6259 1.75226 42.2215 1.80692ZM26.4985 1.18229C26.0548 1.09641 25.7678 1.11202 25.4677 1.40872C25.8852 1.3931 26.2114 1.51803 26.4985 1.18229ZM35.2277 1.18229C35.6843 1.18229 35.9584 1.18229 36.2585 1.18229C35.9714 0.862171 35.9714 0.862171 35.2277 1.18229ZM65.9038 7.02253C66.3866 7.24115 66.3866 7.24115 67.039 6.96787C66.6345 6.9913 66.2952 7.00691 65.9038 7.02253ZM47.3363 7.08499C47.7278 7.08499 47.9887 7.08499 48.3541 7.08499C47.8713 6.82733 47.8713 6.82733 47.3363 7.08499ZM8.83133 9.88799C9.26192 10.1066 9.54898 9.96607 9.78385 9.73964C9.47069 9.78649 9.15754 9.84114 8.83133 9.88799ZM45.8749 8.24054C46.2794 8.38889 46.5665 8.33424 46.9971 8.21712C46.5534 8.08439 46.2533 8.06097 45.8749 8.24054ZM54.6172 1.5883C54.565 2.07238 54.6172 2.0958 55.2826 1.9943C55.0738 1.86157 54.8912 1.75226 54.6172 1.5883ZM64.9774 1.88499C64.9513 1.81472 64.9252 1.75226 64.8991 1.68199C64.6381 1.73665 64.3641 1.78349 64.1031 1.83815C64.1162 1.87719 64.1423 1.91622 64.1553 1.96307C64.4163 1.93184 64.6903 1.90842 64.9774 1.88499ZM36.9631 1.13544C37.6546 1.46337 37.6546 1.46337 38.033 1.24475C37.7329 1.22133 37.4589 1.1901 36.9631 1.13544ZM135.228 6.17929C135.359 6.4916 135.555 6.56187 135.816 6.50721C135.881 6.4916 135.907 6.3979 135.959 6.34325C135.763 6.2964 135.568 6.24956 135.228 6.17929ZM134.002 4.60992C134.002 4.57088 134.002 4.53184 134.002 4.4928C133.689 4.45376 133.376 4.39911 133.102 4.60992C133.402 4.60992 133.702 4.60992 134.002 4.60992ZM35.1233 8.78709C35.1233 8.74805 35.1233 8.71682 35.1233 8.67778C34.8101 8.67778 34.497 8.67778 34.1969 8.67778C34.1969 8.71682 34.1969 8.74805 34.1969 8.78709C34.51 8.78709 34.8232 8.78709 35.1233 8.78709ZM45.8358 9.42733C46.2272 9.48979 46.436 9.52102 46.7752 9.57568C46.5926 9.2009 46.3708 9.16187 45.8358 9.42733ZM121.593 10.8249C121.58 10.8718 121.567 10.9108 121.541 10.9577C121.841 11.0045 122.128 11.0982 122.428 10.9889C122.428 10.9499 122.441 10.903 122.441 10.864C122.167 10.8562 121.88 10.8405 121.593 10.8249ZM55.5044 2.79851C54.7868 2.60331 54.7868 2.60331 54.4736 2.90001C54.8259 2.86878 55.0738 2.84535 55.5044 2.79851ZM97.1018 0.854364C96.606 0.932442 96.5147 1.05737 96.7365 1.21352C96.7756 1.23695 96.9583 1.22914 96.9583 1.22133C97.0235 1.10421 97.0496 0.979288 97.1018 0.854364ZM33.7271 6.78829C33.3487 6.81172 33.0878 6.83514 32.7485 6.85856C33.1661 7.10841 33.1661 7.10841 33.7271 6.78829ZM71.3187 6.73364C71.3057 6.78829 71.2926 6.83514 71.2666 6.88979C71.4753 7.03033 71.6971 7.0928 72.0886 6.83514C71.7493 6.78829 71.5275 6.75706 71.3187 6.73364ZM33.4531 3.87598C33.4662 3.93064 33.4792 3.97748 33.4792 4.03214C33.7663 4.00872 34.0533 3.98529 34.4839 3.95406C34.0272 3.68079 33.7402 3.79791 33.4531 3.87598ZM57.0963 3.2904C56.744 3.11082 56.5352 3.21232 56.2351 3.36848C56.6005 3.45436 56.8484 3.4934 57.0963 3.2904ZM42.7564 7.35826C42.8739 7.24895 43.0043 7.17088 42.9913 7.11622C42.9782 7.05376 42.8086 7.01472 42.7042 6.96787C42.6259 7.03033 42.4955 7.0928 42.4824 7.15526C42.4824 7.20211 42.6259 7.26457 42.7564 7.35826ZM37.6938 3.29821C38.2418 3.50902 38.2418 3.50902 38.5419 3.16547C38.1896 3.22013 37.9417 3.25917 37.6938 3.29821ZM53.4689 1.51803C54.1213 1.61953 54.1213 1.61953 54.2257 1.26818C53.9778 1.34626 53.756 1.42433 53.4689 1.51803ZM31.3002 7.51442C30.7913 7.43634 30.4782 7.38169 30.0867 7.31922C30.4129 7.62373 30.4129 7.62373 31.3002 7.51442ZM82.3053 5.70301C82.0704 5.52343 81.8877 5.40631 81.5224 5.53124C81.6529 5.75766 81.8747 5.81232 82.3053 5.70301ZM126.708 2.31442C125.977 2.291 125.977 2.291 126.069 2.5877C126.29 2.494 126.499 2.40031 126.708 2.31442ZM50.768 8.65436C51.329 8.82613 51.329 8.82613 51.7466 8.65436C51.3682 8.65436 51.0681 8.65436 50.768 8.65436ZM51.3421 6.42133C51.0942 6.23394 50.8854 6.18709 50.6505 6.32763C50.5983 6.35886 50.6375 6.44475 50.6244 6.55406C50.8984 6.50721 51.0942 6.46817 51.3421 6.42133ZM111.924 11.0201C111.924 11.0592 111.924 11.106 111.924 11.145C112.29 11.1216 112.668 11.0982 113.034 11.0748C113.034 11.0592 113.021 11.0357 113.021 11.0201C112.655 11.0201 112.29 11.0201 111.924 11.0201ZM111.69 6.9991C111.611 7.17868 111.546 7.32703 111.468 7.51442C111.977 7.35045 111.977 7.35045 111.69 6.9991ZM138.96 10.8327C138.49 10.661 138.269 10.661 137.982 10.942C138.347 10.8952 138.556 10.8718 138.96 10.8327ZM136.129 10.8327C136.063 10.8093 135.998 10.7859 135.92 10.7625C135.868 10.8405 135.75 10.9186 135.776 10.9889C135.789 11.0514 135.933 11.1138 136.037 11.145C136.077 11.1607 136.259 11.0748 136.259 11.0357C136.272 10.9733 136.181 10.903 136.129 10.8327ZM139.038 11.6916C139.078 11.9961 139.312 11.9805 139.769 11.8868C139.417 11.8009 139.234 11.7462 139.038 11.6916ZM50.9767 2.76728C50.3765 2.62673 50.3765 2.62673 50.0634 2.86097C50.3765 2.82974 50.5853 2.80631 50.9767 2.76728ZM13.5417 7.54565C13.5417 7.4988 13.5417 7.45196 13.5548 7.40511C13.2938 7.40511 13.0328 7.40511 12.7719 7.40511C12.7719 7.42853 12.7588 7.45976 12.7588 7.48319C13.0198 7.50661 13.2807 7.52223 13.5417 7.54565ZM143.123 7.41292C143.331 7.66277 143.331 7.66277 143.762 7.58469C143.501 7.51442 143.305 7.45976 143.123 7.41292ZM43.4088 8.64655C43.4219 8.7012 43.448 8.75586 43.461 8.81051C43.6959 8.77928 43.9438 8.74805 44.1787 8.71682C44.1656 8.66997 44.1526 8.62313 44.1395 8.57628C43.9047 8.5997 43.6567 8.62313 43.4088 8.64655ZM112.486 8.66997C112.433 8.71682 112.381 8.77147 112.316 8.81832C112.499 8.88078 112.681 8.94325 112.864 9.00571C112.903 8.96667 112.942 8.93544 112.981 8.8964C112.825 8.82613 112.655 8.74805 112.486 8.66997ZM111.063 3.38409C111.22 3.57148 111.39 3.71983 111.755 3.48559C111.468 3.44655 111.272 3.41532 111.063 3.38409ZM31.7699 2.46277C31.5351 2.48619 31.3002 2.51743 31.0653 2.54085C31.3654 2.72824 31.6133 2.71262 31.7699 2.46277ZM63.1245 5.48439C63.6595 5.6952 63.6595 5.6952 64.0901 5.56247C63.79 5.53904 63.516 5.51562 63.1245 5.48439ZM96.4886 5.95286C96.345 5.87478 96.2537 5.80451 96.1885 5.81232C96.0971 5.82013 95.9666 5.88259 95.9405 5.92944C95.9144 5.97628 96.0319 6.03874 96.0841 6.0934C96.1885 6.05436 96.3059 6.02313 96.4886 5.95286ZM24.8283 6.05436C24.463 5.83574 24.2281 5.83574 23.9802 6.01532C24.202 6.03094 24.4238 6.03874 24.8283 6.05436ZM108.375 5.9919C108.388 6.03094 108.401 6.07778 108.401 6.11682C108.571 6.10901 108.728 6.0934 108.897 6.08559C108.884 6.03874 108.858 5.95286 108.845 5.95286C108.689 5.96067 108.532 5.97628 108.375 5.9919ZM57.4878 6.14025C57.3573 6.07778 57.2659 6.03094 57.1615 5.9919C57.1485 5.98409 57.005 6.06998 57.018 6.08559C57.0833 6.15586 57.1746 6.21052 57.2659 6.27298C57.3181 6.23394 57.3834 6.20271 57.4878 6.14025ZM52.2685 1.93965C52.2816 1.90842 52.3076 1.87719 52.3207 1.84595C52.2294 1.81472 52.1511 1.76788 52.0597 1.75226C51.9553 1.73665 51.8249 1.76007 51.7074 1.76788C51.7074 1.80692 51.7074 1.83815 51.7074 1.86938C51.9032 1.8928 52.0858 1.91622 52.2685 1.93965ZM107.136 7.08499C107.488 7.17088 107.736 7.21772 107.971 7.01472C107.632 6.81952 107.436 6.95226 107.136 7.08499ZM97.6237 6.73364C98.0674 6.71802 98.237 6.65556 98.2501 6.46817C98.2501 6.44475 98.1718 6.42133 98.0804 6.36667C97.9499 6.46817 97.8325 6.56967 97.6237 6.73364ZM53.3124 2.74385C53.3124 2.71262 53.3124 2.68139 53.3124 2.65016C53.0775 2.65016 52.8296 2.65016 52.5947 2.65016C52.5947 2.68139 52.5947 2.71262 52.5947 2.74385C52.8296 2.74385 53.0644 2.74385 53.3124 2.74385ZM55.4261 7.65496C55.4392 7.694 55.4653 7.73304 55.4783 7.77208C55.7393 7.77988 56.0003 7.78769 56.1829 7.4988C55.8567 7.56907 55.6349 7.61592 55.4261 7.65496ZM32.1614 7.94385C32.0831 7.95946 32.0048 7.96727 31.9265 7.98289C31.9526 8.07658 31.9787 8.17027 32.0178 8.26397C32.1222 8.24835 32.2266 8.23274 32.331 8.22493C32.2657 8.12343 32.2136 8.02973 32.1614 7.94385ZM35.6974 6.51502C35.6974 6.46817 35.6974 6.42913 35.7104 6.38229C35.4625 6.38229 35.2277 6.38229 34.9798 6.38229C34.9798 6.41352 34.9798 6.44475 34.9798 6.47598C35.2146 6.4916 35.4495 6.4994 35.6974 6.51502ZM138.673 3.55586C139.13 3.62613 139.13 3.62613 139.339 3.42313C139.078 3.46998 138.869 3.50902 138.673 3.55586ZM34.9145 3.86818C34.9145 3.90721 34.9276 3.94625 34.9276 3.98529C35.1755 3.96968 35.4364 3.95406 35.6844 3.94625C35.6844 3.90721 35.6713 3.87598 35.6713 3.83694C35.4234 3.85256 35.1624 3.86037 34.9145 3.86818ZM54.9434 4.06337C54.6433 4.06337 54.4084 4.06337 54.03 4.06337C54.4084 4.21953 54.6433 4.34445 54.9434 4.06337ZM119.114 10.8796C119.14 10.8405 119.166 10.7937 119.192 10.7547C119.036 10.7234 118.879 10.7 118.71 10.6688C118.696 10.7 118.67 10.7312 118.657 10.7625C118.814 10.7937 118.957 10.8327 119.114 10.8796ZM37.5633 2.43935C37.4198 2.33785 37.3806 2.27538 37.3023 2.25196C37.2501 2.23634 37.0805 2.26758 37.0805 2.28319C37.0805 2.33785 37.0935 2.42373 37.1457 2.44716C37.211 2.47058 37.3415 2.44715 37.5633 2.43935ZM72.754 4.50061C72.5844 4.44595 72.48 4.3913 72.4017 4.39911C72.3235 4.40691 72.2582 4.48499 72.193 4.53184C72.2713 4.57088 72.3495 4.63334 72.4409 4.63334C72.5192 4.63334 72.5975 4.57088 72.754 4.50061ZM70.6011 1.42433C70.575 1.36968 70.5489 1.32283 70.5228 1.26818C70.3662 1.29941 70.1966 1.33845 70.04 1.36968C70.0661 1.40872 70.0792 1.44776 70.1053 1.4868C70.2749 1.46337 70.4315 1.44776 70.6011 1.42433ZM146.867 12.0273C146.789 12.0976 146.711 12.1523 146.698 12.2147C146.685 12.2381 146.802 12.285 146.854 12.3162C146.933 12.2616 147.024 12.2069 147.089 12.1444C147.089 12.1366 146.972 12.082 146.867 12.0273ZM102.295 5.14865C102.256 5.11742 102.217 5.07838 102.178 5.04715C102.021 5.11742 101.864 5.17989 101.721 5.25016C101.76 5.28139 101.799 5.31262 101.838 5.35166C101.982 5.28139 102.138 5.21893 102.295 5.14865ZM138.777 5.18769C138.712 5.21892 138.66 5.25796 138.595 5.2892C138.738 5.37508 138.895 5.46097 139.038 5.54685C139.091 5.51562 139.143 5.48439 139.195 5.46097C139.065 5.37508 138.921 5.28139 138.777 5.18769ZM41.556 5.44535C41.4777 5.50781 41.3994 5.55466 41.3603 5.60932C41.3472 5.63274 41.5038 5.70301 41.5038 5.70301C41.6082 5.65616 41.6865 5.60151 41.7778 5.55466C41.7256 5.52343 41.6604 5.4922 41.556 5.44535ZM40.7079 1.5961C40.7079 1.64295 40.7079 1.68199 40.7209 1.72884C40.9036 1.71322 41.0863 1.69761 41.2689 1.6898C41.2689 1.65857 41.2559 1.62734 41.2559 1.5961C41.0732 1.5961 40.8905 1.5961 40.7079 1.5961ZM19.6091 5.7967C19.3742 5.77328 19.2176 5.74986 19.0611 5.74205C18.9828 5.74205 18.9045 5.76547 18.7218 5.7967C19.0741 5.88259 19.2959 6.01532 19.6091 5.7967ZM15.4076 7.63934C15.4206 7.6003 15.4206 7.56127 15.4337 7.51442C15.2249 7.51442 15.0031 7.51442 14.7943 7.51442C14.7943 7.54565 14.7943 7.56907 14.7813 7.6003C15.0031 7.61592 15.1988 7.62373 15.4076 7.63934ZM104.644 6.11682C104.37 5.99971 104.252 5.93724 104.122 5.8904C104.07 5.87478 103.978 5.8982 103.796 5.92163C103.952 6.00751 104.03 6.07778 104.148 6.10901C104.226 6.13244 104.357 6.11682 104.644 6.11682ZM57.4356 8.24054C57.4225 8.27958 57.4225 8.31862 57.4095 8.35766C57.6704 8.34205 57.9183 8.33424 58.1793 8.31862C58.1793 8.2952 58.1793 8.26397 58.1793 8.24054C57.9314 8.24054 57.6835 8.24054 57.4356 8.24054ZM98.9416 8.95886C98.9677 8.90421 98.9938 8.85736 99.0199 8.80271C98.8633 8.77928 98.7067 8.74805 98.5502 8.72463C98.5371 8.72463 98.4849 8.81051 98.498 8.81051C98.6415 8.86517 98.7981 8.91202 98.9416 8.95886ZM143.41 6.17929C143.462 6.14805 143.514 6.12463 143.579 6.0934C143.475 6.03094 143.37 5.96067 143.253 5.90601C143.253 5.90601 143.149 5.96847 143.096 5.99971C143.201 6.05436 143.305 6.11682 143.41 6.17929ZM18.0694 6.74925C18.1477 6.78049 18.226 6.81172 18.3043 6.83514C18.3304 6.76487 18.3826 6.6946 18.3826 6.62433C18.3826 6.58529 18.2782 6.51502 18.226 6.52283C18.1216 6.52283 18.0303 6.56187 17.9259 6.5931C17.965 6.63994 18.0172 6.6946 18.0694 6.74925ZM79.8653 1.24475C80.3611 1.22914 80.6221 1.22133 80.7003 0.940249C80.4263 1.04175 80.2306 1.11202 79.8653 1.24475ZM90.4212 0.83094C90.4212 0.869979 90.4342 0.909018 90.4342 0.948057C90.5908 0.932442 90.7343 0.916826 90.8909 0.90121C90.8909 0.877787 90.8779 0.846556 90.8779 0.823132C90.7213 0.83094 90.5778 0.83094 90.4212 0.83094ZM62.6678 1.42433C62.6026 1.34626 62.5765 1.27598 62.5374 1.26818C62.433 1.25256 62.3286 1.27598 62.2112 1.28379C62.2373 1.33845 62.2503 1.42433 62.3025 1.43995C62.3938 1.46337 62.5113 1.43214 62.6678 1.42433ZM103.652 1.44776C103.626 1.41653 103.613 1.37749 103.587 1.34626C103.417 1.37749 103.247 1.40091 103.078 1.43214C103.104 1.47118 103.13 1.51803 103.156 1.55707C103.326 1.51803 103.495 1.47899 103.652 1.44776ZM8.76609 1.90842C8.83133 1.78349 8.89657 1.72884 8.88353 1.67418C8.88353 1.63514 8.79219 1.5961 8.75305 1.56487C8.67476 1.60391 8.55732 1.64295 8.54428 1.6898C8.53123 1.72884 8.63561 1.78349 8.76609 1.90842ZM36.4542 1.60391C36.4542 1.55707 36.4542 1.51803 36.4542 1.47118C36.2976 1.47899 36.1541 1.4868 35.9975 1.50241C35.9975 1.53364 36.0106 1.56487 36.0106 1.5961C36.1541 1.5961 36.3107 1.5961 36.4542 1.60391ZM37.224 6.83514C37.1979 6.86637 37.1849 6.8976 37.1588 6.92883C37.3415 6.97568 37.5241 7.03034 37.7068 7.07718C37.7329 7.04595 37.746 7.01472 37.772 6.98349C37.5894 6.93664 37.4067 6.88979 37.224 6.83514ZM105.466 1.68199C105.374 1.74445 105.27 1.78349 105.283 1.80692C105.296 1.84595 105.374 1.90061 105.44 1.90842C105.505 1.91622 105.583 1.87719 105.661 1.85376C105.596 1.80692 105.544 1.75226 105.466 1.68199ZM32.5658 2.22854C32.5528 2.27538 32.5398 2.33004 32.5398 2.37688C32.7224 2.38469 32.8921 2.3925 33.0747 2.3925C33.0747 2.35346 33.0878 2.31442 33.0878 2.27538C32.9051 2.26758 32.7355 2.24415 32.5658 2.22854ZM79.5913 2.57208C79.4216 2.53304 79.3303 2.494 79.2259 2.50181C79.1737 2.50181 79.1085 2.56427 79.0563 2.60331C79.1476 2.63454 79.2259 2.68139 79.3303 2.697C79.3955 2.697 79.4608 2.63454 79.5913 2.57208ZM83.9363 2.76728C84.3669 2.81412 84.5495 2.77508 84.6539 2.64235C84.667 2.62673 84.6278 2.57989 84.5756 2.51743C84.406 2.57989 84.2364 2.64235 83.9363 2.76728ZM81.9269 7.38169C81.9269 7.34265 81.9399 7.31142 81.9399 7.27238C81.705 7.26457 81.4832 7.25676 81.2484 7.24895C81.2484 7.28018 81.2353 7.30361 81.2353 7.33484C81.4702 7.35046 81.705 7.36607 81.9269 7.38169ZM16.3862 2.75947C16.3862 2.78289 16.3862 2.80631 16.3862 2.82974C16.595 2.82974 16.8037 2.82974 17.0125 2.82974C17.0125 2.80631 17.0125 2.78289 17.0125 2.75947C16.8168 2.75947 16.608 2.75947 16.3862 2.75947ZM99.7114 7.54565C99.6853 7.52223 99.6462 7.4988 99.6201 7.47538C99.5027 7.52223 99.3852 7.56907 99.2548 7.61592C99.307 7.64715 99.3461 7.68619 99.3983 7.71742C99.5027 7.65496 99.6071 7.6003 99.7114 7.54565ZM67.0781 2.73604C67.0259 2.77508 66.9868 2.81412 66.9346 2.86097C67.0912 2.92343 67.2477 2.98589 67.4043 3.04836C67.4435 3.01712 67.4696 2.9937 67.5087 2.96247C67.3652 2.88439 67.2216 2.80631 67.0781 2.73604ZM37.4067 8.14685C37.4198 8.1 37.4198 8.05316 37.4328 7.9985C37.2501 7.9985 37.0805 7.9985 36.8978 7.9985C36.8978 8.02973 36.8848 8.06096 36.8848 8.0922C37.0675 8.11562 37.2371 8.13124 37.4067 8.14685ZM107.658 8.03754C107.658 7.9985 107.671 7.95946 107.671 7.92042C107.423 7.92042 107.175 7.92042 106.927 7.92042C106.927 7.94385 106.927 7.96727 106.914 7.98289C107.175 8.00631 107.423 8.02193 107.658 8.03754ZM65.3949 8.01412C65.3949 8.04535 65.3819 8.07658 65.3819 8.10781C65.5515 8.11562 65.7342 8.13124 65.9038 8.13904C65.9038 8.10781 65.9168 8.06877 65.9168 8.03754C65.7472 8.02973 65.5645 8.02193 65.3949 8.01412ZM16.7646 3.61833C16.6211 3.57929 16.5297 3.53244 16.4253 3.53244C16.3731 3.53244 16.3079 3.5949 16.2557 3.62613C16.347 3.66517 16.4123 3.71983 16.5167 3.73544C16.5558 3.74325 16.6472 3.68079 16.7646 3.61833ZM29.63 3.57929C29.5517 3.55586 29.4865 3.54025 29.4082 3.51682C29.356 3.64175 29.3038 3.76667 29.2516 3.88379C29.2908 3.8916 29.3299 3.89941 29.3691 3.90721C29.4604 3.79791 29.5517 3.6886 29.63 3.57929ZM63.2028 4.24295C63.2942 4.18049 63.3855 4.14145 63.4246 4.08679C63.4377 4.06337 63.3463 4.01652 63.2942 3.97748C63.2028 4.02433 63.1115 4.07118 63.0201 4.11803C63.0723 4.14926 63.1245 4.1883 63.2028 4.24295ZM15.0814 8.88078C15.0814 8.91982 15.0814 8.96667 15.0814 9.00571C15.3162 8.98229 15.5381 8.95105 15.7729 8.92763C15.7599 8.90421 15.7599 8.87298 15.7468 8.84955C15.5381 8.85736 15.3032 8.87298 15.0814 8.88078ZM71.6058 9.38048C71.5275 9.36487 71.4623 9.34925 71.384 9.33364C71.3318 9.41952 71.2926 9.4976 71.2405 9.58349C71.3187 9.5991 71.4753 9.62253 71.4753 9.61472C71.5406 9.54445 71.5797 9.45856 71.6058 9.38048ZM134.876 4.72703C135.02 4.76607 135.111 4.80511 135.215 4.80511C135.268 4.80511 135.333 4.75046 135.398 4.71142C135.294 4.67238 135.189 4.62553 135.072 4.60211C135.046 4.60211 134.967 4.66457 134.876 4.72703ZM140.539 10.5595C140.526 10.5282 140.526 10.497 140.513 10.4658C140.382 10.4736 140.239 10.4736 140.108 10.497C140.095 10.497 140.108 10.5829 140.108 10.6297C140.252 10.6063 140.395 10.5829 140.539 10.5595ZM91.2171 5.53124C91.1127 5.47658 91.0344 5.42974 90.9431 5.41412C90.8909 5.3985 90.8126 5.44535 90.7474 5.46877C90.8257 5.52343 90.904 5.58589 90.9953 5.63274C90.9953 5.64055 91.0997 5.58589 91.2171 5.53124ZM109.55 5.46097C109.524 5.50001 109.498 5.53124 109.484 5.57028C109.654 5.60932 109.837 5.64835 110.006 5.68739C110.033 5.65616 110.046 5.62493 110.072 5.5937C109.902 5.54685 109.719 5.50781 109.55 5.46097ZM106.692 5.64835C106.614 5.70301 106.536 5.74986 106.51 5.80451C106.496 5.82013 106.64 5.8982 106.653 5.8904C106.744 5.85136 106.836 5.7967 106.927 5.74986C106.849 5.72643 106.797 5.6952 106.692 5.64835ZM38.0591 8.77147C37.9678 8.73244 37.9025 8.67778 37.8373 8.68559C37.772 8.68559 37.7199 8.74805 37.6546 8.77928C37.7329 8.81832 37.7981 8.86517 37.8895 8.88859C37.9156 8.88859 37.9939 8.81832 38.0591 8.77147ZM68.5917 6.11682C68.6047 6.08559 68.6308 6.06217 68.6439 6.03094C68.5134 6.00751 68.396 5.98409 68.2655 5.96847C68.2524 5.96847 68.2133 6.02313 68.2002 6.04655C68.3307 6.06998 68.4612 6.0934 68.5917 6.11682ZM90.6691 7.60811C90.5908 7.6003 90.5256 7.58469 90.4473 7.57688C90.4212 7.67057 90.3951 7.76427 90.369 7.85796C90.4212 7.86577 90.4603 7.87358 90.5125 7.88139C90.5647 7.78769 90.6169 7.694 90.6691 7.60811ZM30.426 8.22493C30.4912 8.1 30.5434 8.03754 30.5434 7.96727C30.5434 7.93604 30.426 7.85796 30.3999 7.86577C30.3085 7.88919 30.2172 7.92823 30.152 7.97508C30.1389 7.98289 30.2302 8.05316 30.426 8.22493ZM49.959 7.04595C49.9068 7.07718 49.8546 7.10061 49.8024 7.13184C49.8416 7.15526 49.8937 7.1943 49.9198 7.1943C49.9851 7.18649 50.0503 7.14745 50.1156 7.12403C50.0634 7.10061 50.0242 7.08499 49.959 7.04595ZM47.4277 2.0958C47.4146 2.11923 47.4146 2.14265 47.4016 2.16607C47.5581 2.1895 47.7278 2.22073 47.8974 2.24415C47.9104 2.21292 47.9235 2.1895 47.9365 2.15827C47.7539 2.14265 47.5973 2.11923 47.4277 2.0958ZM74.2807 1.9943C74.1632 1.90061 74.111 1.83815 74.0328 1.81472C73.9806 1.79911 73.824 1.83034 73.824 1.84595C73.824 1.90061 73.837 1.97869 73.8892 2.00992C73.9545 2.03334 74.0849 2.00211 74.2807 1.9943ZM69.753 4.67238C69.6747 4.71923 69.6355 4.75046 69.5834 4.7895C69.6616 4.81292 69.7269 4.83634 69.8052 4.84415C69.8443 4.84415 69.8965 4.80511 69.9356 4.7895C69.8835 4.75827 69.8313 4.71923 69.753 4.67238ZM58.362 4.7973C58.362 4.76607 58.375 4.74265 58.375 4.71142C58.2184 4.71142 58.0619 4.71142 57.9053 4.71142C57.9053 4.72703 57.9053 4.74265 57.9053 4.75827C58.0619 4.76607 58.2054 4.78169 58.362 4.7973ZM21.1748 4.57088C21.1618 4.60211 21.1618 4.63334 21.1488 4.66457C21.2792 4.67238 21.4097 4.68799 21.5532 4.6958C21.5663 4.66457 21.5663 4.63334 21.5793 4.60211C21.4358 4.5943 21.3053 4.58649 21.1748 4.57088ZM42.9 4.04775C42.7695 3.97748 42.7173 3.93064 42.652 3.93064C42.5738 3.92283 42.4955 3.96187 42.4172 3.97748C42.4433 4.01652 42.4694 4.0946 42.4955 4.0946C42.5998 4.0946 42.7042 4.07118 42.9 4.04775ZM90.4473 8.77928C90.4342 8.81051 90.4081 8.84175 90.3951 8.86517C90.5125 8.8964 90.643 8.93544 90.7604 8.96667C90.7865 8.92763 90.8257 8.88078 90.8518 8.84175C90.7082 8.81832 90.5778 8.80271 90.4473 8.77928ZM82.4618 3.32944C82.4749 3.2904 82.4749 3.25136 82.4879 3.21232C82.3575 3.21232 82.227 3.21232 82.1095 3.21232C82.1095 3.23574 82.0965 3.25917 82.0965 3.28259C82.2139 3.29821 82.3314 3.31382 82.4618 3.32944ZM33.5445 1.80692C33.5445 1.76007 33.5314 1.71322 33.5314 1.66638C33.3748 1.6898 33.2313 1.70541 33.0747 1.72884C33.0878 1.76007 33.0878 1.7913 33.1008 1.82253C33.2444 1.82253 33.4009 1.81472 33.5445 1.80692ZM60.0974 6.45256C60.0321 6.53064 59.9669 6.58529 59.9538 6.64775C59.9538 6.67118 60.0582 6.71022 60.1104 6.74145C60.1757 6.67898 60.254 6.61652 60.3061 6.55406C60.3192 6.54625 60.2018 6.4994 60.0974 6.45256ZM129.67 11.6526C129.722 11.5979 129.761 11.5667 129.8 11.5276C129.748 11.512 129.696 11.4808 129.657 11.4808C129.592 11.4886 129.526 11.5276 129.461 11.5511C129.513 11.5745 129.579 11.6057 129.67 11.6526ZM42.9782 2.45496C42.9782 2.494 42.9652 2.53304 42.9652 2.57208C43.0957 2.57208 43.2392 2.57208 43.3697 2.57208C43.3697 2.54866 43.3827 2.52523 43.3827 2.50181C43.2523 2.47839 43.1087 2.46277 42.9782 2.45496ZM127.634 11.9102C127.569 11.9571 127.478 11.9883 127.478 12.0195C127.478 12.0586 127.569 12.0898 127.608 12.1288C127.674 12.0898 127.752 12.0508 127.817 12.0117C127.765 11.9883 127.713 11.9571 127.634 11.9102ZM48.1844 4.03995C48.1844 4.07899 48.1975 4.11803 48.1975 4.15706C48.3541 4.14145 48.4976 4.12583 48.6542 4.11022C48.6542 4.08679 48.6411 4.06337 48.6411 4.03995C48.4846 4.03995 48.341 4.03995 48.1844 4.03995ZM60.4366 4.78169C60.3714 4.75046 60.3192 4.71142 60.2931 4.71142C60.2279 4.73484 60.1757 4.76607 60.1235 4.7973C60.1626 4.81292 60.2148 4.85196 60.2409 4.85196C60.3061 4.84415 60.3714 4.81292 60.4366 4.78169ZM102.726 8.13124C102.778 8.05316 102.83 7.9985 102.83 7.95166C102.817 7.91262 102.726 7.85796 102.66 7.85796C102.595 7.85796 102.53 7.91262 102.465 7.94385C102.517 7.99069 102.569 8.02193 102.726 8.13124ZM120.223 8.01412C120.184 7.97508 120.145 7.92042 120.132 7.92823C120.053 7.93604 119.988 7.95946 119.923 7.98289C119.949 8.00631 119.975 8.05316 120.001 8.05316C120.067 8.04535 120.145 8.02193 120.223 8.01412ZM73.3543 8.2952C73.2238 8.26397 73.1455 8.24054 73.0802 8.24054C73.0281 8.24054 72.9889 8.27178 72.9367 8.2952C72.9889 8.32643 73.0411 8.38108 73.0933 8.38889C73.1585 8.38108 73.2368 8.34205 73.3543 8.2952ZM139.926 6.01532C139.874 5.97628 139.847 5.96067 139.808 5.93724C139.756 5.96847 139.691 5.99971 139.639 6.03094C139.639 6.03874 139.717 6.10121 139.73 6.0934C139.795 6.06998 139.86 6.03874 139.926 6.01532ZM47.3755 8.72463C47.258 8.66217 47.1928 8.5997 47.1536 8.60751C47.0623 8.62313 46.984 8.66997 46.8927 8.70121C46.9449 8.73244 46.9971 8.7949 47.0493 8.7949C47.1406 8.7949 47.2319 8.76367 47.3755 8.72463ZM63.2289 8.75586C63.1506 8.73244 63.0854 8.70121 63.0071 8.6934C62.981 8.6934 62.9288 8.73244 62.8897 8.74805C62.9549 8.77147 63.0071 8.81051 63.0723 8.81832C63.1115 8.82613 63.1637 8.78709 63.2289 8.75586ZM66.5823 9.02133C66.4909 8.8964 66.4909 8.83394 66.4388 8.81051C66.3605 8.78709 66.2561 8.80271 66.1647 8.7949C66.1517 8.81832 66.1517 8.84175 66.1386 8.86517C66.243 8.91202 66.3474 8.94325 66.5823 9.02133ZM26.3941 9.41952C26.368 9.38048 26.368 9.32583 26.3419 9.32583C26.2636 9.31802 26.1853 9.32583 26.1201 9.33364C26.1331 9.37268 26.1462 9.43514 26.1853 9.44295C26.2375 9.45075 26.3158 9.43514 26.3941 9.41952ZM58.2706 9.63814C58.101 9.58349 58.0097 9.53664 57.9183 9.52883C57.8792 9.52102 57.827 9.59129 57.7748 9.62253C57.84 9.65376 57.9053 9.7006 57.9705 9.71622C58.0358 9.71622 58.1141 9.67718 58.2706 9.63814ZM52.3729 6.57748C52.4642 6.52283 52.5295 6.48379 52.5686 6.44475C52.5817 6.42913 52.4512 6.35886 52.4251 6.36667C52.3468 6.38229 52.2685 6.42133 52.2424 6.46817C52.2294 6.48379 52.3207 6.52283 52.3729 6.57748ZM22.7798 6.33544C22.6754 6.43694 22.6232 6.47598 22.6101 6.51502C22.6101 6.52283 22.7015 6.56967 22.7406 6.56967C22.8059 6.56187 22.9233 6.53064 22.9233 6.50721C22.9102 6.45256 22.845 6.41352 22.7798 6.33544ZM111.65 10.2706C111.585 10.2393 111.533 10.1925 111.52 10.2003C111.455 10.2159 111.39 10.2471 111.324 10.2784C111.363 10.3018 111.403 10.3408 111.429 10.333C111.507 10.3252 111.572 10.294 111.65 10.2706ZM56.0525 6.4994C55.9872 6.55406 55.935 6.58529 55.922 6.62433C55.922 6.63214 56.0003 6.68679 56.0394 6.67898C56.1046 6.67118 56.1699 6.63994 56.2351 6.62433C56.1829 6.58529 56.1307 6.55406 56.0525 6.4994ZM101.147 6.76487C101.029 6.73364 100.951 6.68679 100.886 6.6946C100.834 6.6946 100.781 6.75706 100.742 6.78829C100.807 6.81952 100.873 6.85856 100.951 6.86637C101.003 6.86637 101.055 6.81172 101.147 6.76487ZM85.0454 1.4946C85.0715 1.52583 85.0976 1.55707 85.1367 1.5883C85.2672 1.52583 85.3846 1.47118 85.5151 1.40872C85.489 1.38529 85.4629 1.36968 85.4368 1.34626C85.3063 1.3931 85.1758 1.44776 85.0454 1.4946ZM14.2593 1.52583C14.1289 1.4946 14.0506 1.47118 13.9853 1.47118C13.9462 1.47118 13.9071 1.51022 13.8549 1.53364C13.9071 1.56487 13.9592 1.61172 14.0114 1.61953C14.0636 1.61953 14.1289 1.57268 14.2593 1.52583ZM34.9015 1.4868C34.9145 1.51803 34.9276 1.54145 34.9276 1.57268C35.058 1.55707 35.1885 1.54145 35.3321 1.52583C35.319 1.4946 35.319 1.47118 35.306 1.43995C35.1755 1.45556 35.045 1.47118 34.9015 1.4868ZM50.9637 1.86938C50.8463 1.86157 50.768 1.84595 50.7027 1.85376C50.6636 1.86157 50.6114 1.91622 50.6114 1.92403C50.6505 1.95526 50.7288 2.00211 50.768 1.9943C50.8463 1.97869 50.8854 1.93184 50.9637 1.86938ZM13.3329 2.00992C13.3329 2.03334 13.3329 2.05677 13.3199 2.088C13.4765 2.0958 13.62 2.10361 13.7766 2.11142C13.7766 2.08019 13.7896 2.04115 13.7896 2.00992C13.633 2.00992 13.4895 2.00992 13.3329 2.00992ZM44.7006 2.87658C44.7136 2.83755 44.7136 2.79851 44.7267 2.75947C44.5832 2.75947 44.4396 2.75947 44.2961 2.75947C44.2961 2.78289 44.2831 2.81412 44.2831 2.83755C44.4135 2.84535 44.5571 2.86097 44.7006 2.87658ZM53.6908 6.94445C53.6516 6.98349 53.5994 7.02253 53.6125 7.03814C53.6386 7.06157 53.7038 7.08499 53.756 7.0928C53.7951 7.0928 53.8343 7.06157 53.8734 7.04595C53.8082 7.00691 53.756 6.97568 53.6908 6.94445ZM43.8133 7.22553C43.7481 7.1943 43.6828 7.15526 43.6828 7.15526C43.6176 7.18649 43.5654 7.22553 43.5132 7.25676C43.5524 7.27238 43.6046 7.31922 43.6306 7.31142C43.6959 7.28799 43.7481 7.25676 43.8133 7.22553ZM81.431 8.18589C81.3788 8.17808 81.3267 8.17027 81.2745 8.15466C81.2745 8.18589 81.2614 8.21712 81.2745 8.24054C81.2745 8.24835 81.3397 8.25616 81.3527 8.25616C81.3788 8.23274 81.4049 8.20931 81.431 8.18589ZM12.7719 8.74805C12.7327 8.76367 12.6675 8.77147 12.6544 8.78709C12.6414 8.81051 12.6805 8.84175 12.7066 8.86517C12.7458 8.84955 12.811 8.84175 12.8241 8.82613C12.8241 8.80271 12.7849 8.77147 12.7719 8.74805ZM29.8127 8.6934C29.7605 8.72463 29.7214 8.76367 29.6692 8.80271C29.7214 8.81832 29.7866 8.85736 29.8127 8.84955C29.8779 8.83394 29.9301 8.7949 29.9823 8.76367C29.9432 8.73244 29.891 8.71682 29.8127 8.6934ZM111.311 9.27117C111.272 9.28679 111.207 9.2946 111.194 9.31021C111.181 9.33364 111.22 9.36487 111.246 9.38829C111.285 9.37268 111.35 9.36487 111.363 9.34925C111.363 9.33364 111.324 9.30241 111.311 9.27117ZM119.401 10.0363C119.453 9.9973 119.518 9.95826 119.505 9.94265C119.466 9.90361 119.414 9.87238 119.362 9.84114C119.336 9.86457 119.271 9.8958 119.284 9.91922C119.284 9.95826 119.349 9.9973 119.401 10.0363ZM147.598 10.333C147.624 10.3565 147.65 10.3721 147.676 10.3955C147.768 10.3565 147.859 10.3096 147.963 10.2706C147.937 10.2471 147.911 10.2237 147.872 10.2003C147.781 10.2472 147.689 10.294 147.598 10.333ZM101.76 10.5829C101.786 10.5595 101.825 10.536 101.838 10.5048C101.838 10.497 101.799 10.4658 101.799 10.4658C101.76 10.4736 101.708 10.497 101.669 10.5048C101.695 10.536 101.721 10.5595 101.76 10.5829ZM147.298 10.739C147.272 10.7156 147.259 10.6688 147.22 10.661C147.18 10.6532 147.115 10.6766 147.076 10.6922C147.115 10.7312 147.141 10.7625 147.18 10.8015C147.22 10.7781 147.259 10.7625 147.298 10.739ZM104.892 10.8484C104.839 10.8171 104.813 10.7937 104.774 10.7703C104.722 10.8015 104.67 10.8327 104.631 10.8718C104.618 10.8796 104.709 10.9342 104.709 10.9342C104.774 10.9108 104.826 10.8796 104.892 10.8484ZM25.3372 3.03274C25.4024 3.00932 25.4677 2.98589 25.5329 2.96247C25.5068 2.93905 25.4546 2.8922 25.4416 2.8922C25.3633 2.90782 25.2981 2.93124 25.2328 2.95466C25.2589 2.97809 25.285 3.00151 25.3372 3.03274ZM36.1802 3.05616C36.2324 3.08739 36.2715 3.13424 36.2846 3.13424C36.3498 3.12643 36.415 3.10301 36.4933 3.07959C36.4672 3.05616 36.4281 3.00932 36.402 3.01712C36.3368 3.01712 36.2585 3.04055 36.1802 3.05616ZM69.2571 3.25136C69.2571 3.22013 69.2441 3.1889 69.2441 3.14986C69.1136 3.16547 68.9962 3.17328 68.8657 3.1889C68.8657 3.21232 68.8788 3.22794 68.8788 3.25136C68.9962 3.25136 69.1267 3.25136 69.2571 3.25136ZM83.7666 1.57268C83.7405 1.54926 83.7145 1.51022 83.6753 1.51022C83.6231 1.51022 83.5709 1.53364 83.5187 1.54926C83.5448 1.57268 83.5709 1.61172 83.597 1.61172C83.6623 1.61172 83.7145 1.5883 83.7666 1.57268ZM38.7768 2.25196C38.7246 2.21292 38.6724 2.16607 38.6724 2.16607C38.6071 2.18169 38.5549 2.21292 38.4897 2.23634C38.5158 2.25977 38.5549 2.30661 38.581 2.30661C38.6463 2.29881 38.7115 2.27538 38.7768 2.25196ZM126.499 4.57088C126.408 4.55526 126.33 4.53965 126.251 4.52403C126.238 4.55526 126.199 4.5943 126.225 4.60992C126.264 4.63334 126.33 4.64896 126.382 4.64896C126.408 4.64115 126.447 4.60992 126.499 4.57088ZM54.852 1.0886C54.9042 1.03394 54.9434 0.994904 54.9695 0.955865C54.9695 0.948057 54.8781 0.90121 54.839 0.909018C54.7737 0.916826 54.7215 0.955865 54.6563 0.979288C54.7085 1.01052 54.7607 1.04175 54.852 1.0886ZM75.5463 4.82854C75.5333 4.85196 75.5202 4.88319 75.5202 4.90661C75.5202 4.91442 75.5724 4.93004 75.5855 4.92223C75.6246 4.90661 75.6507 4.88319 75.6899 4.85977C75.6377 4.85196 75.5985 4.84415 75.5463 4.82854ZM141.987 4.7895C141.987 4.82073 141.987 4.85196 141.987 4.88319C142.105 4.891 142.209 4.89881 142.327 4.91442C142.34 4.891 142.34 4.85977 142.353 4.83634C142.222 4.81292 142.105 4.80511 141.987 4.7895ZM22.7798 2.36908C22.7276 2.43935 22.6754 2.47839 22.6754 2.51743C22.6754 2.54085 22.7406 2.57208 22.7667 2.5955C22.8189 2.57208 22.9233 2.54085 22.9233 2.51743C22.9363 2.47839 22.8581 2.43935 22.7798 2.36908ZM58.5316 5.57808C58.5186 5.60932 58.5055 5.63274 58.4925 5.66397C58.6099 5.68739 58.7404 5.70301 58.8578 5.72643C58.8708 5.70301 58.8839 5.67178 58.8969 5.64835C58.7795 5.61712 58.649 5.60151 58.5316 5.57808ZM100.52 5.71082C100.52 5.68739 100.52 5.67178 100.52 5.64835C100.39 5.65616 100.246 5.65616 100.116 5.66397C100.116 5.67959 100.116 5.6952 100.116 5.71082C100.246 5.71082 100.39 5.71082 100.52 5.71082ZM51.7727 5.8904C51.7074 5.85917 51.6552 5.81232 51.6291 5.82013C51.5639 5.84355 51.5117 5.87478 51.4595 5.90601C51.4987 5.92944 51.5509 5.96847 51.5639 5.96067C51.6552 5.94505 51.7074 5.91382 51.7727 5.8904ZM101.995 5.85917C101.917 5.84355 101.838 5.83574 101.773 5.82793C101.773 5.85917 101.747 5.8982 101.773 5.91382C101.799 5.93724 101.864 5.94505 101.917 5.94505C101.943 5.93724 101.956 5.8982 101.995 5.85917ZM70.575 1.12764C70.6402 1.0886 70.7185 1.04956 70.7838 1.01052C70.7707 0.979288 70.7577 0.924634 70.7316 0.924634C70.6533 0.916826 70.562 0.932442 70.4837 0.940249C70.5098 1.01052 70.5359 1.07298 70.575 1.12764ZM105.609 5.86697C105.622 5.8904 105.635 5.90601 105.648 5.92944C105.766 5.90601 105.883 5.88259 106.001 5.86697C105.988 5.84355 105.975 5.82013 105.961 5.7967C105.844 5.82013 105.727 5.84355 105.609 5.86697ZM44.2439 6.16367C44.2178 6.14025 44.1787 6.10121 44.1526 6.10121C44.1134 6.10121 44.0612 6.13244 44.0221 6.14805C44.0482 6.17148 44.0873 6.21052 44.1134 6.21052C44.1526 6.21052 44.2048 6.17929 44.2439 6.16367ZM88.2682 2.50181C88.2291 2.48619 88.1769 2.47058 88.1378 2.45496C88.1247 2.47839 88.0986 2.50962 88.0856 2.53304C88.0856 2.54085 88.1378 2.55646 88.1508 2.55646C88.203 2.54866 88.2291 2.52523 88.2682 2.50181ZM144.01 6.3979C144.062 6.35886 144.127 6.31983 144.127 6.31202C144.075 6.27298 144.01 6.24175 143.945 6.21052C143.918 6.23394 143.866 6.27298 143.879 6.28859C143.905 6.32763 143.958 6.35886 144.01 6.3979ZM146.228 11.2856C146.202 11.309 146.176 11.3324 146.163 11.3559C146.267 11.3871 146.358 11.4261 146.463 11.4574C146.489 11.4339 146.515 11.4105 146.541 11.3871C146.424 11.3481 146.332 11.3168 146.228 11.2856ZM24.4369 1.52583C24.4369 1.4868 24.4369 1.45556 24.4238 1.41653C24.2933 1.43995 24.1498 1.46337 24.0193 1.4946C24.0324 1.51803 24.0454 1.54145 24.0454 1.56487C24.189 1.54926 24.3064 1.54145 24.4369 1.52583Z" fill="#FF9E44"/>
<path d="M121.894 12.6059C121.841 12.6918 121.802 12.7699 121.737 12.8558C121.737 12.8636 121.594 12.8324 121.528 12.8167C121.581 12.7309 121.62 12.6528 121.672 12.5669C121.75 12.5825 121.815 12.5903 121.894 12.6059Z" fill="#FF9E44"/>
<path d="M8.71444 19.7578C8.6753 19.8359 8.63615 19.9218 8.59701 19.9998C8.54482 19.992 8.49262 19.9842 8.44043 19.9686C8.47957 19.8905 8.51872 19.8046 8.55786 19.7266C8.61006 19.7422 8.66225 19.75 8.71444 19.7578Z" fill="#FF9E44"/>
<path d="M38.2163 0.292955C38.1249 0.363225 38.0466 0.433495 38.0205 0.425687C37.9031 0.402264 37.7987 0.355417 37.6943 0.316378C37.7596 0.285147 37.8118 0.222685 37.877 0.222685C37.9683 0.214877 38.0727 0.253916 38.2163 0.292955Z" fill="#FF9E44"/>
<path d="M138.361 13.5889C138.491 13.5889 138.622 13.5889 138.739 13.5889C138.739 13.6357 138.739 13.7138 138.726 13.7138C138.609 13.7216 138.478 13.7216 138.348 13.7216C138.361 13.6748 138.361 13.6357 138.361 13.5889Z" fill="#FF9E44"/>
<path d="M54.5132 0.707299C54.461 0.597989 54.4089 0.48868 54.3306 0.340332C54.9308 0.449641 54.5915 0.582374 54.5002 0.699491L54.5132 0.707299Z" fill="#FF9E44"/>
<path d="M125.444 12.3795C125.418 12.4108 125.378 12.4578 125.352 12.4578C125.287 12.4499 125.234 12.4265 125.169 12.403C125.208 12.3795 125.247 12.3482 125.3 12.3403C125.339 12.3403 125.391 12.3638 125.444 12.3795Z" fill="#FF9E44"/>
<path d="M106.915 0.159668C106.98 0.183156 107.045 0.198814 107.059 0.222302C107.072 0.24579 107.045 0.292766 107.006 0.308425C106.98 0.324083 106.915 0.308425 106.862 0.300595C106.888 0.261449 106.902 0.214473 106.915 0.159668Z" fill="#FF9E44"/>
</svg>
