<svg width="23" height="249" viewBox="0 0 23 249" fill="none" xmlns="http://www.w3.org/2000/svg">
<path d="M12.0454 4.20969C12.1962 4.51486 12.332 4.8179 12.5237 5.20995C12.69 5.17286 12.9167 5.12413 13.1889 5.06161C13.4707 5.44624 13.6642 5.79802 13.4677 6.49947C13.3425 6.94768 13.5818 7.60991 13.691 8.4968C13.9498 7.74342 14.139 7.20303 14.3477 6.56409C14.5039 6.74848 14.6267 7.00912 14.7457 7.02607C15.5514 7.08011 15.4738 7.79853 15.5133 8.57414C15.569 9.98022 15.6991 11.3969 15.7994 12.8093C15.4439 13.3868 15.2064 14.0014 15.6028 14.8278C16.1701 14.1995 15.8742 13.4684 15.7855 12.7871C15.9978 12.0676 16.2092 11.3683 16.4067 10.6467C16.4621 13.0456 16.235 15.4043 16.0711 17.6909C16.4506 18.2313 16.8161 18.7494 17.1676 19.2453C17.2132 19.2315 17.2587 19.2177 17.3051 19.1838C17.1896 18.7621 17.154 18.2302 16.9586 17.9187C16.6926 17.516 16.6952 17.1314 16.8436 16.8283C17.1889 16.1481 17.1484 15.3926 17.0783 14.6329C16.934 12.8697 17.1736 11.2221 17.5173 9.58924C17.6164 9.05625 17.7908 8.51374 18.3409 8.59215L18.327 8.56989C18.56 9.69729 18.0587 10.5174 17.7146 11.5018C18.187 11.9744 18.1316 12.5338 17.804 13.1558C17.6731 13.4006 17.6129 13.7365 17.614 14.0406C17.6053 14.8904 17.6718 15.7306 17.6928 16.5846C17.7099 17.195 17.6833 17.7788 17.6856 18.387C17.6888 18.9751 17.6928 19.543 17.7008 20.3547C18.0927 19.9647 18.1675 19.3067 18.6742 19.6829C18.7904 19.7602 19.0958 19.2972 19.2834 19.1213C19.6221 19.899 19.9487 20.6143 20.3014 21.4143C20.1081 21.3867 19.9743 21.3676 19.8554 21.3507C19.7025 22.0786 19.5199 22.8023 19.4117 23.5366C19.3673 23.8545 19.4084 24.2656 19.5303 24.5464C19.8114 25.2754 19.7784 26.0002 19.7957 26.9347C19.3197 26.5427 18.973 26.2704 18.5109 25.9006C18.5151 25.1514 17.6493 24.1162 18.603 23.2187C18.8641 23.0736 19.0237 22.8532 18.8449 22.1793C18.7476 22.672 18.6753 22.9454 18.617 23.241C18.5221 23.0248 18.4262 22.8288 18.3592 22.6572C17.3067 23.0948 17.2511 23.33 17.604 24.4542C17.7753 24.9649 17.8546 25.5234 17.9804 26.0479C18.0568 26.3424 18.1323 26.6571 18.2199 27.0343C18.4948 26.9114 18.7243 26.8023 18.9686 26.6953C19.4905 27.722 18.928 28.5739 18.9629 29.4502C18.2503 29.6526 18.0834 28.717 17.6335 28.4097C17.7065 27.7919 17.55 27.2833 17.1809 26.8457C17.1468 27.2664 17.1572 27.6934 17.243 28.1109C17.2672 28.2359 17.5033 28.3101 17.6493 28.3917C17.8196 28.9225 17.5776 29.6377 18.114 30.0181C18.1577 30.0446 18.0799 30.4388 18.0549 30.6581C17.5656 31.2165 17.5269 31.7379 18.0136 32.8812C18.026 31.9508 18.0256 31.3024 18.041 30.6359C18.4338 30.2258 18.7462 30.5945 19.1033 30.9696C19.4481 29.6409 19.0902 27.9689 20.2345 27.1594C20.39 27.6881 20.5613 28.1988 20.7811 28.9596C20.4446 28.7901 20.3126 28.7307 20.1806 28.6714C19.8004 28.4754 19.611 28.6915 19.5732 29.1927C19.5474 29.4322 19.5197 29.7119 19.6007 29.9058C20.0595 31.0046 19.7805 32.2009 19.969 33.3219C19.9792 33.4247 19.9301 33.519 19.8911 33.7161C19.2747 33.1217 19.7545 32.1161 19.3025 31.5249C18.9625 31.7601 19.0362 32.1151 19.1247 32.4721C19.215 32.789 19.455 33.1068 19.1235 33.4851C19.0137 33.2668 18.9039 33.0486 18.7113 32.6767C18.6632 33.0751 18.5788 33.2859 18.6143 33.4936C18.6751 34.1304 18.8638 34.2586 19.7596 34.3052C19.7227 34.7863 19.8885 35.4178 19.2231 35.2419C18.8681 35.1508 18.7614 35.5206 18.7003 35.8766C18.6402 36.2125 18.6376 36.5971 18.5774 36.933C18.534 37.2308 18.4459 37.5222 18.3726 37.8157C19.0205 38.0498 19.0818 38.018 19.1399 37.3982C19.1777 36.897 19.1866 36.3715 19.2205 35.6266C19.4001 35.9561 19.5424 36.1182 19.5796 36.2856C19.8275 37.4151 19.9268 38.5235 19.4294 39.5873C19.2633 39.9486 19.3129 40.5028 19.2611 40.9817C19.3755 41.0993 19.5178 41.2615 19.6749 41.4257C19.5841 41.7775 19.4951 42.089 19.4219 42.3825C19.7364 43.0352 19.9441 42.4164 20.3492 42.3931C20.1312 42.9091 19.8443 43.2937 19.7944 43.7324C19.7436 44.1912 19.9298 44.7041 20.0231 45.2847C19.9126 45.4108 19.7556 45.5708 19.5838 45.7287C19.4043 45.3992 19.2526 45.1141 19.087 44.8068C18.8191 45.7615 18.8637 50.0434 19.1386 51.2375C18.4697 51.4664 18.6291 52.2388 18.661 52.8513C18.709 53.7699 19.1786 54.3029 19.8061 54.6557C19.7507 55.2152 19.5251 55.5681 19.1694 55.8213L19.1833 55.8436C19.3222 55.0934 18.8965 54.9111 18.5228 54.5742C18.3587 55.2195 18.2123 55.8065 18.064 56.4337C18.7804 56.4751 18.2829 57.2147 18.4029 57.5357C18.7069 57.7614 18.9533 57.9384 19.1996 58.1153C19.1951 58.216 19.2063 58.2986 19.2017 58.3993C18.8366 58.5296 18.4575 58.6377 18.0627 58.7638C17.8948 59.1654 17.7083 59.6454 17.4884 60.2017C18.1193 60.1497 18.6741 60.1275 19.41 60.0703C19.3136 60.5428 19.2962 60.9254 19.1654 61.1701C18.3793 62.6588 18.0466 64.0501 18.1249 65.9457C17.9707 66.0453 17.7097 66.1905 17.4636 66.3377C17.5045 66.4246 17.5594 66.5338 17.6003 66.6207C17.7973 66.5677 17.9794 66.5126 18.1606 66.4776C18.4108 66.8983 17.9903 67.5881 17.1571 68.138C17.1166 68.6996 17.2804 69.0471 17.7255 69.1308L17.7116 69.1086C17.5047 69.7072 17.389 70.2784 18.2728 70.5867C17.8883 70.8156 17.7666 70.859 17.657 70.965C17.2976 71.2988 17.3127 71.6251 17.6865 71.9621C18.1336 72.3297 18.4975 73.2124 18.3632 73.8619C18.0715 75.34 18.1059 76.8849 18.0223 78.3927C17.9781 79.0348 17.9042 79.6727 17.8609 80.2947C17.8462 80.6168 17.8316 80.9389 17.8922 81.2515C18.0255 81.9392 17.9813 82.5813 17.8898 83.2774C17.7602 84.1505 17.8965 85.1021 17.4863 85.8946C17.4046 86.0451 17.4643 86.3778 17.5286 86.6099C17.7614 87.413 17.5703 87.9937 17.1144 88.4758C17.3498 88.8943 17.5712 89.2906 17.8623 89.7982C17.9401 89.404 17.9845 89.0861 18.0596 88.7524C18.147 88.8053 18.2511 88.8202 18.3069 88.9092C18.5878 89.3139 18.682 89.8745 18.4703 90.2495C17.7556 91.485 17.9145 92.9261 18.0771 94.2866C18.206 95.3992 18.176 96.3878 17.8923 97.3605C17.7847 97.7504 17.5155 98.0767 17.2537 98.5663C17.2791 98.9954 17.6879 98.8916 18.0086 99.0791C17.9855 99.2582 17.9921 99.4415 17.9393 99.6163C17.8864 99.7912 17.7899 99.9395 17.6906 100.148C17.8543 100.496 18.0181 100.843 18.154 101.146C17.9425 101.846 17.7487 102.487 17.5188 103.265C17.2939 103.273 16.8552 103.048 16.8037 103.852C17.2591 104.038 17.7276 104.267 17.52 105.21C17.2709 105.093 17.0367 104.979 16.7151 104.812C16.7599 105.142 16.7917 105.43 16.8383 105.721C17.0771 105.734 17.2862 105.744 17.4804 105.751C17.6558 106.83 16.8963 107.735 17.4741 108.851C17.1943 108.75 17.0326 108.686 16.7379 108.584C17.3827 109.871 16.7673 110.898 16.6695 112.059C16.4261 112.146 16.1828 112.233 15.8474 112.367C15.9956 113.057 16.1307 113.705 16.265 114.372C16.6561 114.327 16.9581 114.268 16.7905 113.677C16.648 113.191 16.7416 112.779 16.9653 112.466C17.0767 112.32 17.2867 112.309 17.5162 112.2C17.4731 113.146 17.6103 114.078 17.3588 114.67C16.9237 115.682 17.2189 116.757 17.0542 117.747C16.7423 119.668 17.1328 121.608 17.0904 123.527C17.0748 123.869 17.2386 124.217 17.3122 124.572C16.8594 125.642 16.8585 125.662 17.4416 126.333C17.24 126.487 17.0534 126.642 16.8825 126.78C16.8761 126.921 16.8399 127.058 16.8539 127.08C17.2592 127.381 17.3097 127.915 17.1557 128.339C16.9146 129.034 17.1065 129.75 17.0604 130.432C17.0245 130.893 16.9588 131.35 16.9071 131.829C16.884 132.008 16.7977 132.259 16.8535 132.348C17.26 132.953 16.9527 133.457 16.823 134.005C16.7303 134.397 16.6674 134.794 16.5683 135.327C16.8842 135.291 17.0505 135.254 17.2159 135.237L17.202 135.214C17.209 136.046 16.8592 136.827 17.1329 137.717C17.186 137.867 17.1286 138.142 17.0469 138.292C16.593 139.059 16.6819 140.064 16.478 140.927C16.3863 141.299 16.5148 141.763 16.555 142.194C16.5662 142.277 16.636 142.388 16.6202 142.406C16.1617 143.273 16.5961 143.922 16.9227 144.637C17.0595 144.92 17.1128 145.394 17.0395 145.687C16.7995 146.687 17.0893 147.883 16.4672 148.726C16.5376 149.81 16.2299 150.982 16.815 151.937C17.2475 152.627 17.3195 153.346 17.3117 154.176C17.2898 156.3 17.3423 158.435 17.365 160.566C17.3616 160.971 17.3293 161.351 17.3027 161.935C17.0081 161.832 16.772 161.758 16.5359 161.684C17.1344 160.371 17.1418 160.21 16.5706 159.278C16.3231 160.114 16.2288 160.87 16.5517 161.666C16.5583 161.849 16.5009 162.125 16.5576 162.194C16.8589 162.48 17.1768 162.728 17.5524 163.024C17.3493 163.543 17.1804 163.964 17.0106 164.406C16.7709 164.412 16.5033 164.374 16.4822 164.837C16.4474 165.602 16.3986 166.345 16.4242 167.099C16.4571 167.691 16.5941 168.298 16.9717 168.879C16.9985 168.619 17.0188 168.5 17.0234 168.4C17.0096 167.06 17.0106 165.723 16.9967 164.384C17.3295 164.634 17.4329 164.993 17.4249 165.499C17.4161 166.348 17.438 167.182 17.459 168.036C17.4905 169.317 17.2283 170.475 16.848 171.596C16.7274 171.944 16.5938 172.249 16.817 172.605C17.4737 173.631 17.1621 174.559 16.7427 175.553C17.0243 175.613 17.2753 175.69 17.6015 175.756C17.4582 176.932 17.8818 178.147 17.3928 179.354C17.1906 179.852 17.5099 180.728 17.5819 181.448C17.6034 181.633 17.6965 181.889 17.6473 181.984C17.2936 182.521 17.4566 183.213 17.4134 183.835C17.3196 183.923 17.2406 184.013 17.1459 184.121C17.1887 184.167 17.2315 184.214 17.2594 184.259C17.2965 184.102 17.3326 183.965 17.3845 183.81C17.9015 184.289 18.071 184.84 18.0446 185.748C17.9743 187.623 18.0972 189.525 18.1616 191.398C18.2306 193.171 18.3302 194.928 18.4298 196.684C18.4636 197.257 18.5569 197.837 18.6344 198.436C18.5322 198.381 18.3704 198.317 18.165 198.227C18.1508 199.198 18.1699 200.092 18.5199 200.952C18.5869 201.124 18.7273 201.327 18.7051 201.485C18.5268 203.101 19.2285 204.782 18.7213 206.391C18.6684 206.566 18.6259 206.844 18.6947 206.975C19.1432 207.971 18.9023 208.991 18.8704 210.019C18.8649 210.14 18.8427 210.299 18.8846 210.366C19.4008 211.189 19.3234 212.232 19.4012 213.155C19.507 214.446 19.8359 215.77 19.5821 217.071C19.5043 217.465 19.4738 217.805 19.6952 218.202C19.8618 218.489 19.8704 218.956 19.9125 219.347C20.0284 220.417 19.8739 221.51 20.2147 222.571C20.2529 222.719 20.1824 222.952 20.1147 223.124C19.8465 223.755 19.8758 224.428 20.1159 225.07C20.2881 225.56 20.3721 226.018 20.2721 226.571C20.2119 226.907 20.3571 227.333 20.4596 227.712C20.7418 228.746 20.9821 229.712 20.6902 230.866C20.4344 231.883 20.607 233.022 21.4504 233.892C21.2342 234.368 21.0347 234.805 20.8185 235.281C20.9776 235.729 21.7014 235.61 21.6062 236.386C21.5609 236.724 21.2646 236.986 21.0381 237.359C21.0894 237.549 21.177 237.926 21.2803 238.285C21.3316 238.475 21.3931 238.767 21.4814 238.8C22.1589 239.038 21.9402 239.899 22.2137 240.465C21.9008 240.764 21.3804 240.69 21.4069 241.424C21.4379 242.056 21.8774 241.936 22.1507 242.178C21.8423 242.377 21.5655 242.54 21.2878 242.724C21.0408 242.891 20.8493 242.823 20.6521 242.552C20.4122 242.234 20.1565 241.934 19.8161 241.521C20.0259 241.186 20.2357 240.851 20.4288 240.555C20.2668 240.167 20.0603 239.773 19.9151 239.347C19.7307 238.794 19.4638 238.411 18.9507 238.176C18.9427 238.681 18.9532 239.108 18.947 239.574C19.1348 239.722 19.3077 239.868 19.4955 240.016C19.1253 240.916 19.4437 241.812 19.488 242.812C18.7827 242.853 18.5006 243.461 18.507 244.637C18.1433 244.079 17.9191 243.743 17.6392 243.318C17.3003 243.857 16.6546 243.907 16.125 244.034C15.6252 244.166 14.9984 243.469 14.3719 243.096C14.1575 243.531 14.0882 244.068 14.1192 244.701C14.1606 245.436 14.1309 245.432 13.4441 245.395C13.5128 245.202 13.5823 244.989 13.6658 244.798C13.6389 244.734 13.611 244.689 13.584 244.625C13.2914 244.806 12.9848 244.965 12.7062 245.168C12.4276 245.372 12.175 245.66 11.8314 245.976C11.7895 245.909 11.6482 245.727 11.4789 245.5C11.3677 245.97 11.289 246.385 11.1574 246.974C11.4184 246.829 11.5568 246.747 11.7259 246.649C11.7931 247.145 11.7931 247.145 11.2877 248.715C11.1212 248.427 10.9547 248.14 10.7882 247.853C10.7168 248.106 10.6769 248.324 10.6046 248.597C10.4029 248.426 10.2458 248.262 10.044 248.092C9.8555 248.288 9.69123 248.609 9.5121 248.928C9.46841 248.901 9.42471 248.875 9.38102 248.848C9.37807 248.584 9.37603 248.3 9.37674 247.956C8.2679 248.973 7.21608 249.066 6.50471 248.256C7.13978 247.455 7.62983 246.552 6.7602 245.273C7.4245 245.145 8.1148 246.419 8.50148 245.157C8.01814 244.926 7.51901 244.713 6.96224 244.451C7.0931 244.206 7.2036 244.08 7.19148 244.017C7.04329 243.328 6.89602 242.618 6.65587 241.976C6.57674 241.741 6.2542 241.594 6.04512 241.585C5.92617 241.568 5.71547 241.923 5.7063 242.124C5.6724 242.869 5.36973 243.272 4.88589 243.709C5.21209 243.776 5.53554 243.903 5.87844 243.932C6.29568 243.971 6.47706 244.26 6.48298 244.788C6.48135 245.152 6.47881 245.537 6.40468 245.851C6.24245 246.456 6.14061 247.049 6.21446 247.728C6.305 248.369 6.03391 248.736 5.55719 248.688C4.85743 248.609 4.16135 248.449 3.46343 248.329C3.40628 247.612 3.74073 247.497 4.02028 247.274C4.02261 246.565 3.63561 245.861 3.92412 245.112C4.79996 245.926 4.89009 245.918 5.81317 245.037C5.73129 244.863 5.63545 244.667 5.55357 244.493C5.04936 245.05 4.63149 244.038 4.11404 244.227C3.88459 244.336 3.61308 244.055 3.59047 243.565C3.56418 243.156 3.72295 242.956 3.98031 242.891C4.5554 242.75 4.50376 241.912 4.79339 241.467C5.16286 240.912 4.87261 240.384 4.67432 239.809C4.44812 239.189 3.98035 238.616 4.24187 237.802C5.13196 237.645 5.13196 237.645 4.90769 235.668C5.10098 235.695 5.29428 235.723 5.44296 235.744C5.28653 235.236 5.14405 234.749 5.00248 234.243C5.17245 234.125 5.34334 233.987 5.51423 233.85C5.45842 233.761 5.40169 233.692 5.34588 233.603C5.2308 233.83 5.13151 234.038 5.01644 234.265C4.64584 234.516 4.58036 235.297 4.02747 235.279C3.9076 235.282 3.80668 235.855 3.57082 236.106C3.59464 235.582 3.61939 235.039 3.64687 234.435C3.92093 234.332 4.22655 234.193 4.45508 234.104C4.69807 233.369 4.92343 232.692 5.15155 231.954C5.18129 231.958 5.09482 231.885 4.93585 231.761C5.42794 231.142 5.10316 230.387 5.2169 229.532C4.09228 230.567 4.40557 232.233 3.95575 233.567C3.91693 232.447 3.88566 231.49 3.82464 230.529C3.78054 229.854 4.19503 229.954 4.58804 229.868C3.89795 228.918 3.81932 228.016 4.41711 227.047C4.593 227.457 4.78283 227.889 4.98479 228.384C5.4007 227.795 5.0416 227.136 5.1853 226.609C5.32715 226.123 5.49875 225.641 5.72982 225.167C6.0818 226.312 5.61253 227.744 6.45498 228.634C6.53115 228.605 6.60733 228.575 6.68351 228.545C6.63503 228.295 6.63299 228.011 6.53715 227.815C6.19292 227.158 6.20829 226.492 6.41695 225.853C6.53936 225.465 6.50942 225.137 6.48222 224.748C6.40155 223.561 6.41642 223.563 5.77298 222.904C6.0402 222.294 6.36598 221.712 6.54491 221.069C6.6163 220.816 6.36698 220.375 6.27573 220.078C6.36361 219.463 6.45241 218.827 6.56616 217.972C6.5355 217.988 6.70273 217.93 6.82901 217.786C7.08157 217.498 7.17241 217.146 6.92126 216.746C6.87941 216.679 6.85333 216.594 6.81056 216.548C6.0946 215.838 6.09673 214.805 6.14163 213.818C6.17075 212.85 6.29091 211.854 6.48266 210.929C6.63735 210.16 6.65772 210.042 6.2094 209.37C6.04106 209.123 5.96834 208.748 5.86313 208.429C5.74764 208.007 5.64793 207.568 5.49424 206.999C5.85568 206.949 6.26355 206.865 6.77642 206.776C6.64993 206.596 6.58292 206.424 6.47976 206.389C6.31711 206.346 6.1174 206.459 5.95568 206.396C5.57184 206.28 5.4042 205.689 5.61857 205.253C5.68446 205.121 5.80708 205.057 5.88692 204.947C5.96676 204.837 6.03173 204.725 6.09762 204.592C5.53952 203.702 4.84394 202.874 5.71375 201.518C4.97234 201.696 4.60837 202.131 4.3329 202.922C4.12157 202.305 4.22819 201.935 4.4668 201.624C4.94311 201.024 5.18517 200.308 5.04798 199.377C5.01254 199.169 5.12853 198.922 5.16927 198.685C5.32396 197.917 5.55207 197.179 5.30622 196.334C5.25407 196.164 5.27994 195.925 5.31792 195.748C5.49297 194.861 5.25466 194.179 4.69218 193.713C4.73658 193.396 4.77731 193.158 4.82355 192.8C4.05699 192.873 4.26282 193.612 4.1898 194.229C3.64078 194.455 3.37905 194.945 3.53295 195.838C3.60292 196.273 3.50567 196.766 3.47726 197.39C3.97293 198.008 4.22449 199.057 4.47788 200.066C4.74431 201.117 4.57068 201.315 3.70828 201.192C3.6536 201.407 3.59891 201.622 3.52936 201.835C2.97738 201.797 2.97738 201.797 2.52806 202.462C2.65301 201.69 2.75484 201.097 2.84273 200.481C3.75339 200.53 3.78496 200.494 3.65877 199.321C3.50366 199.44 3.37921 199.544 3.25476 199.648C3.14843 199.025 3.14843 199.025 3.38775 198.37C3.09221 198.288 2.79666 198.205 2.53086 198.127C2.53502 197.377 2.53919 196.628 2.55823 195.881C2.56464 195.74 2.61658 195.586 2.6676 195.451C2.95977 194.621 2.95977 194.621 2.23395 194.457C2.80392 192.127 2.69176 189.659 2.78685 187.241C3.33538 187.684 3.35462 187.262 3.32355 186.629C3.11743 186.883 2.95958 187.063 2.80081 187.264C2.48011 187.076 2.36003 186.755 2.41084 186.296C2.55504 185.101 2.71318 183.928 2.44196 182.653C2.29378 181.964 2.54043 181.148 2.63085 180.147C3.18957 182.01 2.50868 183.818 3.27353 185.426C3.29665 185.247 3.33372 185.09 3.34196 184.909C3.34359 184.545 3.28482 184.192 3.30131 183.83C3.35742 182.926 3.44234 182.046 3.20107 181.1C3.0483 180.511 3.02365 179.737 3.38008 179.14C3.4361 179.553 3.15492 180.141 3.69682 180.401C3.84714 180.057 3.96496 179.77 4.08371 179.463C4.12161 180.603 4.12161 180.603 4.71819 180.648C4.63061 180.27 4.55789 179.895 4.43873 179.554C4.41266 179.469 4.20174 179.5 4.06792 179.481C4.09196 179.282 4.07413 179.016 4.15306 178.926C4.51612 178.511 4.51112 177.964 4.46243 177.389C4.45031 177.327 4.39267 177.278 4.32382 177.147C4.22178 177.416 4.13552 177.667 3.98154 178.091C3.78763 177.091 4.10974 176.589 4.56202 176.188C4.40487 176.024 4.28867 175.946 4.20404 175.833C3.97805 175.537 3.75685 175.465 3.47821 175.669C3.18471 175.87 3.184 176.214 3.25672 176.589C3.29216 176.797 3.29787 177 3.30449 177.184C3.17159 177.145 3.05355 177.107 2.92065 177.068C2.93094 177.171 2.95701 177.256 2.9673 177.359C3.07505 177.293 3.18279 177.227 3.29054 177.162C3.70912 177.829 3.67888 178.493 3.3643 179.158C3.25543 178.919 3.14564 178.701 3.00886 178.418C2.87525 178.723 2.76017 178.95 2.59316 179.332C2.481 176.864 2.37363 174.62 2.25598 172.273C1.98946 172.539 1.80095 172.735 1.59758 172.928C1.55481 172.882 1.51295 172.815 1.47017 172.768C1.53881 172.576 1.63627 172.407 1.67517 172.21C1.75756 171.715 1.9152 171.211 1.8768 170.739C1.76089 169.669 1.71629 169.663 2.44811 169.038C1.47797 168.98 1.92687 167.667 1.38384 167.103C1.59476 167.072 1.80475 167.062 2.06119 167.017C2.12025 166.377 2.16444 165.735 2.22808 164.994C2.1407 164.941 2.01055 164.842 1.87948 164.762L1.89343 164.784C1.78914 164.445 1.68485 164.106 1.58056 163.767L1.59451 163.789C1.7375 163.607 1.87956 163.445 2.02255 163.263C1.96744 162.829 1.91234 162.396 1.8497 161.8C2.68165 162.263 2.03192 163.386 2.69847 163.866C2.72526 163.606 2.81151 163.355 2.77698 163.127C2.71435 162.531 2.60618 161.948 2.52867 161.349C2.51747 161.267 2.52297 161.146 2.49415 161.121C1.56911 160.402 1.98573 159.468 2.13288 158.537C2.21618 158.022 2.15171 157.466 2.14467 156.634C1.64413 157.11 1.33026 157.43 0.87707 157.852C0.926759 157.089 1.13176 156.53 0.782029 155.994C0.697397 155.881 0.793733 155.408 0.906979 155.222C1.21606 154.678 1.18041 154.146 0.941176 153.484C1.18753 153.661 1.43389 153.838 1.70907 154.039C1.83677 153.206 1.96172 152.434 2.08575 151.682C2.41928 151.587 2.44606 151.328 2.23381 150.73C2.16722 151.207 2.12648 151.444 2.10062 151.684C1.97892 151.727 1.79958 151.722 1.74947 151.836C1.61677 152.121 1.54264 152.435 1.38225 153C1.16817 152.442 0.986785 152.153 0.941054 151.843C0.898989 151.452 0.960089 151.096 1.34097 150.947C1.98013 150.714 2.01903 150.517 1.94498 149.514C1.92624 149.268 2.01982 148.856 2.12574 148.83C2.74911 148.615 2.58422 147.963 2.595 147.398C2.33836 147.118 2.09659 146.84 1.74044 146.445C1.67913 146.477 1.47942 146.59 1.27971 146.704L1.2955 146.686C0.704204 146.196 0.542271 145.808 0.721198 145.165C0.791669 144.932 0.939234 144.649 1.09067 144.61C1.21145 144.587 1.40862 144.858 1.54998 145.04C1.64857 145.176 1.69888 145.385 1.83199 145.749C1.93953 145.359 2.01 145.126 2.0656 144.891C2.10359 144.714 2.11916 144.371 2.17956 144.36C2.6469 144.285 2.55748 143.948 2.31571 143.67C2.07302 143.412 1.87239 143.546 1.80763 143.983C1.78818 144.081 1.71017 144.151 1.66189 144.225C0.947982 143.799 1.0599 142.984 1.1933 142.355C1.32579 141.746 1.70647 141.273 2.06748 140.575C1.73579 140.629 1.53974 140.662 1.28331 140.706C1.15803 139.513 1.06157 138.344 1.38327 137.195C1.54458 136.61 1.58419 136.068 1.2976 135.46C1.18782 135.242 1.23588 134.844 1.27936 134.546C1.30889 134.226 1.44159 133.941 1.4702 133.641C1.51439 132.999 1.61439 132.446 2.18674 132.365C2.15588 132.057 2.16687 131.815 2.09894 131.664C1.42627 130.332 1.59907 128.837 1.58887 127.417C1.57113 125.834 1.92786 124.243 1.43065 122.673C1.40366 122.608 1.37942 122.483 1.41099 122.447C1.99759 121.396 1.72912 120.061 2.00713 118.885C2.1554 118.258 2.11313 117.543 2.53933 117.056C2.60247 116.984 2.56794 116.756 2.59839 116.416C2.33187 116.682 2.17494 116.842 1.93999 117.072C1.90822 116.784 1.81421 116.548 1.87919 116.435C2.21047 115.733 2.11422 114.888 2.17878 114.128C2.21197 113.727 2.06766 113.281 1.96703 112.861C1.77974 112.044 1.45312 111.329 1.82605 110.369C2.09694 109.678 1.94855 108.664 1.85596 107.739C1.77154 107.95 1.68712 108.161 1.60361 108.352C1.559 108.345 1.49953 108.337 1.45492 108.33C1.43139 107.861 1.31864 107.379 1.39828 106.945C1.59736 105.858 1.52036 104.591 2.27438 103.807C2.35331 103.717 2.48325 103.492 2.44139 103.426C2.06813 102.42 2.57122 101.56 2.58455 100.609C2.59909 98.6458 2.73258 96.6993 2.82329 94.7062C2.71921 94.6914 2.60026 94.6745 2.31775 94.6342C2.6637 93.6096 2.97532 92.6814 3.32126 91.6568C3.11218 91.6472 2.91889 91.6197 2.60572 91.5953C2.7208 91.3685 2.75787 91.2117 2.83496 91.1619C3.34579 90.7889 3.4293 90.5982 3.06379 90.0801C2.81172 89.6997 2.79482 89.4136 2.90327 89.0035C3.04788 88.4568 3.22314 87.8941 3.05734 87.2626L3.04155 87.2806C3.52306 87.5519 3.62785 87.2224 3.59312 86.6703C3.54106 85.1837 3.37005 83.6801 3.46576 82.2349C3.5127 81.5323 3.38671 80.6836 3.81933 80.0563C3.96322 79.854 3.9509 79.4672 4.02778 79.0932C3.27934 78.4394 3.43861 77.5705 3.63861 76.4643C3.8033 76.7917 3.87123 76.9433 3.96706 77.1393C3.98376 77.1011 4.03112 77.0471 4.03387 76.9867C4.13091 76.1698 4.22887 75.3327 4.29618 74.5115C4.39027 73.4307 4.48527 72.3298 4.53475 71.2427C4.58515 70.1354 4.41252 68.9963 4.89228 67.9908C4.99249 67.7619 4.86121 67.3582 4.89074 67.0382C4.93768 66.3357 5.02923 65.6395 5.1059 64.9413C5.1114 64.8205 5.19124 64.7103 5.18096 64.6075C4.85647 62.8592 5.4845 61.2263 5.26502 59.4727C5.18934 58.8338 5.40075 58.1344 5.46073 57.4743C5.54453 56.2907 5.59951 55.0828 5.66844 53.8971C5.6776 53.6958 5.68677 53.4945 5.7108 53.2953C5.89206 51.9432 6.19319 50.588 6.24063 49.2169C6.27728 48.4116 6.37158 47.6551 6.51048 46.9049C6.6059 46.4524 6.70132 46 6.81344 45.5094C6.70753 45.5348 6.55609 45.5741 6.32939 45.6228C6.39903 44.0927 6.27538 42.5351 6.59046 41.2022C6.88701 39.9476 6.82487 38.6825 6.98576 37.4491C7.03566 37.0104 7.11529 36.576 7.19401 36.1617C7.32558 35.5726 7.38006 35.0332 7.24491 34.3858C7.15824 33.9885 7.2397 33.5138 7.2896 33.0751C7.39673 32.0367 7.48806 31.0163 7.63888 30.0044C7.89519 28.3186 8.09203 26.6243 7.88741 24.8728C8.07225 24.7573 8.22552 24.6778 8.34905 24.5941C8.35547 24.4532 8.38887 24.3769 8.3628 24.2921C8.05176 23.2347 8.33823 22.2016 8.44352 21.2034C8.57376 19.986 8.85086 18.83 9.05544 17.6231C9.07672 17.4843 9.02458 17.3147 9.03191 17.1537C9.06877 16.6726 9.1205 16.1937 9.30697 15.7137C9.19809 15.4753 9.08922 15.2369 8.9943 15.0207C9.01467 14.9021 9.01925 14.8014 9.05082 14.7654C9.83642 13.9452 9.4936 12.5995 9.72151 11.5378C9.87253 10.8502 9.77445 10.0459 9.79348 9.29892C9.80265 9.09759 9.85825 8.86236 9.80519 8.71297C9.52868 7.88331 9.74946 7.3069 10.1235 6.65102C10.4001 6.1636 10.4489 5.42081 10.5981 4.77339C10.7649 4.06771 10.9177 3.33978 11.0845 2.63409C11.2152 2.06509 11.6153 1.49396 10.8047 0.892113C10.8808 0.862452 10.9728 0.814774 11.049 0.785098C11.2878 0.798868 11.5424 0.794636 11.8416 0.796762C11.8475 1.32443 11.8432 1.74933 11.8518 2.2166C12.5854 2.86824 12.6041 3.11408 11.9972 4.28387C11.8357 4.54453 11.5412 4.76599 11.9301 5.42929C12.0161 4.85392 12.0308 4.53181 12.0454 4.20969ZM3.35937 93.1211C3.26466 93.2292 3.16903 93.3574 3.07432 93.4655C3.11709 93.5121 3.17473 93.5608 3.21842 93.5873C3.25549 93.4305 3.30835 93.2557 3.34541 93.0988C3.6819 93.2684 3.75146 93.0554 3.70277 92.4811C3.55429 92.7841 3.45683 92.9526 3.35937 93.1211ZM13.8532 181.828C13.6228 181.957 13.3636 182.062 13.7124 182.618C13.7578 182.28 13.7985 182.043 13.8244 181.804C14.1744 181.347 13.9566 180.87 13.8281 180.406C13.6723 180.87 13.6354 181.351 13.8532 181.828ZM13.1801 39.1222C13.4381 38.7132 13.6386 38.2554 13.4254 37.6779C13.4322 38.1855 12.7466 38.4525 13.1959 39.1042C13.1041 39.4761 13.0114 39.8681 12.9048 40.2379C13.439 40.0101 13.5307 39.6382 13.1801 39.1222ZM13.2855 71.659C13.3868 71.7343 13.4742 71.7872 13.5755 71.8625C13.5689 71.6792 13.5771 71.498 13.5705 71.3147C13.5259 71.3083 13.4813 71.302 13.4367 71.2956C13.3857 71.4302 13.3347 71.5647 13.2836 71.6993C13.1757 71.4408 13.0668 71.2023 12.8928 70.752C12.8152 71.4704 12.7625 71.9695 12.7247 72.4707C12.7833 72.4993 12.8428 72.5078 12.9013 72.5364C13.034 72.2514 13.1667 71.9663 13.2855 71.659ZM17.355 92.7247C17.2763 93.139 16.9029 93.4506 17.1328 93.9899C17.7653 93.5735 17.7903 93.3541 17.355 92.7247C17.4207 92.2681 17.5022 91.7934 17.5836 91.3187C17.2215 91.7128 17.1846 92.1939 17.355 92.7247ZM2.93403 122.523C2.80754 122.343 2.68197 122.142 2.48572 121.851C2.40334 122.346 2.34407 122.661 2.2459 123.174C2.55977 122.854 2.74736 122.678 2.92008 122.5C3.28018 121.822 3.01579 121.055 3.01996 120.306C3.41551 119.836 2.9896 119.329 3.08685 118.836C3.02646 118.848 2.95211 118.837 2.89172 118.849C2.94408 119.343 2.99643 119.837 3.04878 120.33C2.79968 120.214 2.56636 120.079 2.24474 119.912C2.30351 120.265 2.31034 120.772 2.42745 120.829C3.14595 121.155 2.87139 121.926 2.93403 122.523ZM15.6066 75.9006C15.5027 76.21 15.3542 76.513 15.3238 76.8531C15.2915 77.2335 15.4663 77.3395 15.73 77.1339C15.6889 76.7228 15.6487 76.2916 15.6066 75.9006C15.7395 75.9398 15.8864 76.0012 16.0332 76.0627C16.0895 75.4831 16.1273 74.9819 16.1827 74.4224C15.9754 74.3726 15.7682 74.3228 15.4727 74.2402C15.5305 74.6132 15.5781 74.8834 15.6117 75.1313C15.6295 75.3973 15.6036 75.6367 15.6066 75.9006ZM3.86689 171.732C3.70425 171.689 3.54161 171.645 3.3641 171.6C3.37368 172.047 3.34232 172.407 3.41687 172.742C3.46627 172.972 3.65315 173.14 3.77872 173.341C3.87801 173.132 4.05165 172.934 4.06081 172.732C4.06152 172.388 3.94328 172.027 3.86873 171.692C4.04349 171.798 4.20246 171.922 4.42 172.074C4.32283 171.25 4.23412 170.569 4.16028 169.89C3.73041 170.456 3.62858 171.05 3.86689 171.732ZM3.18977 189.568C3.09568 190.649 2.98672 191.728 2.9075 192.811C2.90201 192.931 3.07127 193.158 3.18839 193.215C3.30642 193.252 3.50521 193.159 3.57019 193.047C3.70105 192.802 3.7594 192.507 3.84841 192.195C4.235 192.25 4.56211 192.297 5.05279 192.367C4.59123 191.328 4.63613 190.342 4.57511 189.381C4.53763 188.889 4.62938 188.517 4.95446 188.28C5.09378 188.178 5.19307 187.969 5.35092 187.789C5.00944 187.072 4.68007 186.417 4.40652 185.851C4.59003 185.107 4.85909 184.457 4.87537 183.77C4.88066 183.325 4.7613 182.66 4.28345 182.308C4.18599 182.476 4.05971 182.621 4.02264 182.777C3.66775 184.328 3.77562 185.903 4.06283 187.484C4.09735 187.712 4.18769 188.029 4.1218 188.161C3.81089 188.745 3.91905 189.328 4.06999 189.957C4.18273 190.439 4.17469 190.945 4.22246 191.539C3.11005 191.32 3.62413 190.218 3.18977 189.568ZM7.4328 240.688C7.30977 240.103 7.16179 239.738 7.19132 239.418C7.23572 239.1 7.42881 238.803 7.52902 238.574C7.3186 237.936 7.13426 237.383 6.93689 236.788C6.53564 237.055 6.48666 237.473 6.58178 238.014C6.65084 238.469 6.71897 238.945 6.6979 239.408C6.66949 240.032 6.84721 240.402 7.4328 240.688ZM16.7537 38.8615C16.6977 38.4483 16.689 37.981 16.5559 37.6175C16.3446 36.9998 16.4093 36.5632 16.7436 36.1246C17.0927 35.688 17.0264 35.172 16.7974 34.6125C15.9979 35.4104 15.9065 37.7479 16.7537 38.8615ZM16.372 44.9467C16.0664 43.7685 16.8536 42.5838 16.1764 41.3526C16.051 41.4766 15.8977 41.556 15.8932 41.6567C15.827 42.782 15.6995 43.9391 16.372 44.9467ZM7.16284 234.125C7.07363 234.112 6.98533 234.08 6.89612 234.067C6.82698 234.928 6.61465 235.648 6.08437 236.119C5.959 236.243 5.94159 236.626 5.91389 236.906C5.90473 237.107 5.96991 237.319 6.00444 237.547C6.07878 237.557 6.13734 237.586 6.21169 237.596C6.11452 236.772 6.35771 236.361 6.8882 236.214C7.02569 236.152 7.20207 235.894 7.21032 235.712C7.23414 235.189 7.18362 234.655 7.16284 234.125ZM16.7076 75.713C17.6931 75.1037 17.862 74.682 17.7012 73.2813C16.9173 73.7369 16.9161 74.7498 16.7076 75.713ZM14.7228 56.8491C14.1947 57.9289 14.6479 58.8242 14.7962 59.8382C15.2909 58.8348 15.3024 57.9246 14.7228 56.8491ZM13.7344 77.579C12.9297 79.1461 13.0914 80.5268 13.7622 81.8989C13.7488 81.2081 13.5699 80.5342 13.5407 79.8613C13.5272 79.1705 13.6485 78.4786 13.7344 77.579ZM16.4146 65.0535C15.9906 66.1481 15.9876 67.2013 16.0394 68.3637C16.6837 67.3613 16.7899 66.3431 16.4146 65.0535ZM13.3415 170.712C13.4414 171.476 12.8368 171.937 13.259 172.524C13.4134 172.748 13.8231 172.624 14.0164 172.652C14.0123 172.084 14.0158 171.679 14.008 171.192C13.8779 171.092 13.6892 170.964 13.3415 170.712ZM16.6477 191.122C16.2748 192.082 16.2653 193.276 16.6134 194.176C16.7443 193.932 16.9635 193.72 16.9577 193.516C16.9015 192.779 16.7709 192.031 16.6477 191.122ZM12.7485 45.6461C13.2536 45.0697 12.8963 44.3703 12.9554 43.7303C13.0135 43.1105 13.0131 42.462 13.0424 41.8178C12.731 43.0702 12.5534 44.3417 12.7485 45.6461ZM16.1143 173.579C16.6235 173.571 16.5656 173.198 16.4474 172.836C16.2212 172.216 15.9495 171.61 16.1618 170.891C16.1961 170.794 15.9971 170.563 15.8734 170.323C15.5656 171.495 15.9547 172.482 16.1143 173.579ZM16.1549 19.4657C15.8053 20.5708 16.6409 20.9533 16.9378 21.6643C16.9598 21.1812 16.9818 20.698 17.0038 20.2148C16.5717 20.1735 16.5717 20.1735 16.1549 19.4657ZM15.2664 16.2996C14.9859 17.8604 14.9881 18.4686 15.2042 19.3099C15.5744 18.4103 15.623 17.3433 15.2664 16.2996ZM14.6943 23.9382C14.2007 26.5628 14.1945 27.028 14.5275 27.6023C14.5825 26.3944 14.6384 25.1663 14.6943 23.9382ZM2.30331 137.366C2.24138 136.426 2.17945 135.485 2.11752 134.544C1.64896 135.632 1.69989 136.814 2.30331 137.366ZM17.7792 52.8269C17.5649 51.9453 17.3982 51.3339 17.2212 50.6198C16.9864 51.1739 16.7869 51.6116 16.619 52.0132C16.6879 52.1445 16.7139 52.2293 16.7576 52.2558C17.0346 52.4168 17.3126 52.5578 17.7792 52.8269ZM14.3837 16.2954C14.3338 15.417 14.285 14.5185 14.2164 13.3942C13.655 14.5502 13.7791 15.4392 14.3837 16.2954ZM14.2617 17.3317C13.9139 18.3966 13.9547 19.8005 14.3251 20.5422C14.3141 19.4667 14.2884 18.3891 14.2617 17.3317ZM13.6549 145.083C13.8633 145.437 14.1719 145.562 14.3092 145.177C14.4808 144.695 14.6718 144.114 14.415 143.51C13.9337 143.563 14.1523 144.02 14.094 144.315C14.0217 144.589 13.8165 144.823 13.6549 145.083ZM17.9892 63.0085C18.442 61.9383 18.4139 61.5696 17.8809 60.7844C17.3685 61.5219 17.8772 62.182 17.9892 63.0085ZM12.862 83.5943C12.8722 83.6971 12.8965 83.8221 12.9068 83.9249C13.1568 84.0213 13.4217 84.1198 13.7005 84.2406C13.8005 83.6875 14.0446 83.2563 13.6169 82.79C13.3346 83.074 13.0978 83.3442 12.862 83.5943ZM2.97661 115.011C3.20044 113.382 3.21398 112.755 2.97016 112.194C2.85642 113.049 2.74725 113.803 2.66782 114.562C2.64929 114.64 2.80735 114.784 2.97661 115.011ZM13.4736 236.2C13.1391 236.314 12.9115 236.383 12.5622 236.495C12.8357 237.061 13.0684 237.54 13.3838 238.173C13.4186 237.408 13.4424 236.884 13.4736 236.2ZM14.6258 194.116C14.5505 194.126 14.4744 194.155 14.3991 194.165C14.5724 194.959 14.7318 195.732 14.9303 196.631C15.5643 195.526 14.8 194.891 14.6258 194.116ZM8.3512 223.798C8.65233 222.443 8.64204 222.34 8.03771 221.808C7.89972 222.539 8.0971 223.134 8.3512 223.798ZM14.2505 30.3996C14.0288 30.9962 14.0288 30.9962 14.2524 33.3177C14.4575 31.4423 14.4666 31.2409 14.2505 30.3996ZM11.2204 5.89551C11.05 6.68172 11.0717 7.19139 11.4827 7.69576C11.9023 7.0261 11.6688 6.56729 11.2204 5.89551ZM14.0248 71.1971C14.7036 70.4225 14.7091 70.3017 14.1279 69.5907C14.132 70.1587 13.609 70.4691 14.0248 71.1971ZM2.74414 151.026C2.79854 151.803 2.83144 152.396 2.86434 152.988C3.3606 151.62 3.3606 151.62 2.74414 151.026ZM11.0668 8.28489C11.2177 8.9143 11.3435 9.43878 11.5084 10.0904C11.8697 8.39933 11.8315 8.25205 11.0668 8.28489ZM11.954 108.145C12.0266 108.196 12.0833 108.265 12.1558 108.316C12.2533 108.147 12.4594 107.893 12.4184 107.806C12.2714 107.42 12.5747 106.673 11.8759 106.574C11.8949 107.144 11.9323 107.635 11.954 108.145ZM15.9499 130.173C15.6199 131.504 15.6199 131.504 16.0032 132.288C16.1236 131.616 16.376 131.004 15.9499 130.173ZM17.2813 79.2192C17.4351 78.4711 17.4793 77.829 17.1508 77.1541C16.6681 77.8958 16.9547 78.504 17.2813 79.2192ZM20.0424 237.865C20.3331 237.725 20.5234 237.488 20.329 237.157C20.0937 236.738 19.7498 236.73 19.4239 236.987C19.6489 237.303 19.8312 237.572 20.0424 237.865ZM14.278 187.947C14.3412 187.875 14.4043 187.803 14.4674 187.731C14.4357 187.443 14.3881 187.172 14.3442 186.822C14.0098 186.936 13.7506 187.041 13.5072 187.128C13.5035 187.209 13.4998 187.289 13.4962 187.37C13.7574 187.549 14.0177 187.748 14.278 187.947ZM16.0123 21.6135C15.937 21.623 15.8627 21.6124 15.8023 21.6241C15.6847 22.2355 15.5531 22.8246 15.9289 23.4455C15.9573 22.8214 15.9848 22.2174 16.0123 21.6135ZM3.34267 159.905C2.9727 161.129 2.99623 161.598 3.48823 162.297C3.44963 161.501 3.40644 160.806 3.34267 159.905ZM15.2192 20.9533C14.7587 21.5361 14.6875 22.1136 14.9418 23.1022C15.0082 22.3012 15.4363 21.7745 15.2192 20.9533ZM15.1857 68.7081C15.26 68.7187 15.3204 68.707 15.3948 68.7176C15.4278 67.9928 15.4617 67.248 15.4947 66.5232C15.3715 67.2554 14.9826 67.9091 15.1857 68.7081ZM16.904 31.2844C16.8189 31.8396 16.7495 32.3768 17.1077 33.056C17.2615 32.3079 17.3308 31.7707 16.904 31.2844ZM2.837 165.425C2.76265 165.415 2.68739 165.424 2.61305 165.414C2.64595 166.006 2.6649 166.576 2.70168 167.412C3.15649 166.626 3.03346 166.041 2.837 165.425ZM2.8696 124.925C2.94669 124.875 3.02287 124.845 3.09996 124.795C3.05515 124.465 3.01033 124.134 2.92824 123.636C2.66081 123.922 2.51966 124.064 2.33024 124.281C2.55714 124.556 2.71337 124.74 2.8696 124.925ZM9.99936 245.127C10.5463 244.617 10.5626 243.931 10.08 243.355C10.0534 243.939 10.0278 244.503 9.99936 245.127ZM19.1794 225.261C18.864 224.628 19.0727 223.989 18.5445 223.427C18.6007 224.165 18.4227 224.788 19.1794 225.261ZM15.7266 158.752C15.6522 158.742 15.577 158.751 15.5026 158.74C15.3079 159.402 15.457 160.071 15.6358 160.745C15.6661 160.081 15.6963 159.417 15.7266 158.752ZM2.6043 141.604C2.20642 142.783 2.25765 142.973 2.96107 142.972C2.86136 142.532 2.74587 142.11 2.6043 141.604ZM14.0129 11.9468C13.8816 11.5431 13.8034 11.2888 13.7094 11.0525C13.5561 11.132 13.374 11.1871 13.2775 11.3354C13.1977 11.4456 13.2164 11.6915 13.1915 11.9108C13.4609 11.9087 13.6551 11.9161 14.0129 11.9468ZM17.5246 190.598C17.134 191.616 17.1676 191.864 17.8353 192.648C17.7196 191.903 17.6272 191.302 17.5246 190.598ZM15.6126 25.7914C15.6869 25.802 15.7613 25.8126 15.8356 25.8232C15.9477 25.3326 16.3451 24.8219 15.6273 24.1523C15.612 24.8187 15.6197 25.3062 15.6126 25.7914ZM15.1443 62.056C14.307 62.038 14.307 62.0379 14.2777 62.6822C14.5973 62.5656 15.0166 62.8888 15.1443 62.056ZM17.7928 36.4159C18.1964 35.4401 18.1964 35.4401 17.6554 35.1603C17.7096 35.6138 17.7517 36.0048 17.7928 36.4159ZM13.4206 178.18C13.6057 178.388 13.7285 178.649 13.8335 178.644C13.9533 178.641 14.1446 178.384 14.1361 178.241C14.1286 178.078 13.9603 177.831 13.8274 177.792C13.7391 177.759 13.5933 178.002 13.4206 178.18ZM4.05654 164.606C3.68207 164.614 3.4572 164.622 3.17286 164.622C3.62321 165.578 3.62321 165.578 4.05654 164.606ZM17.1599 204.528C17.4157 203.51 17.4167 203.49 16.7505 203.659C16.9012 203.964 17.0232 204.245 17.1599 204.528ZM17.9294 213.269C18.0176 213.302 18.1217 213.317 18.21 213.35C18.3176 212.96 18.4837 212.598 18.1431 211.861C18.0394 212.495 17.9765 212.891 17.9294 213.269ZM15.4639 53.3885C15.1962 54.6674 15.1962 54.6674 15.7521 54.9493C15.67 54.4513 15.5861 53.9935 15.4639 53.3885ZM3.40546 98.3555C3.73033 97.7939 3.64824 97.2959 3.41471 96.8371C3.35432 96.8487 3.27906 96.8583 3.21867 96.8699C3.28589 97.3658 3.33824 97.8596 3.40546 98.3555ZM17.207 96.6347C17.2949 96.019 17.3429 95.6206 17.391 95.2222C17.0176 95.5337 16.6889 95.8516 17.207 96.6347ZM9.07926 66.4194C9.02295 66.999 8.96756 67.5584 8.91124 68.138C9.07164 67.5733 9.51179 67.1092 9.07926 66.4194ZM17.0058 59.6263C16.823 60.0258 16.3131 60.3786 16.9417 61.0356C16.9655 60.5121 16.9856 60.0692 17.0058 59.6263ZM14.5498 78.4044C14.8317 77.472 14.8317 77.4719 14.4243 76.8871C14.4609 77.3988 14.503 77.7898 14.5498 78.4044ZM16.3901 26.7938C16.3708 27.2166 16.3516 27.6394 16.3333 28.042C16.635 27.6595 16.8318 27.2823 16.3901 26.7938ZM2.1863 170.844C2.24394 170.893 2.3025 170.922 2.36014 170.97C2.48368 170.887 2.63603 170.827 2.70192 170.695C2.76873 170.542 2.74907 170.317 2.7731 170.117C2.62075 170.177 2.4414 170.171 2.34578 170.3C2.2362 170.406 2.24007 170.649 2.1863 170.844ZM2.07121 128.985C2.12977 129.014 2.2032 129.044 2.26176 129.073C2.33498 128.78 2.42215 128.508 2.49537 128.215C2.39221 128.18 2.28996 128.125 2.18679 128.09C2.15818 128.39 2.11469 128.687 2.07121 128.985ZM17.007 196.38C17.4563 195.715 17.4563 195.715 16.9858 195.202C16.9944 195.669 16.9928 196.034 17.007 196.38ZM16.8528 154.394C16.5798 154.801 16.4705 155.231 16.9808 155.527C16.9378 155.156 16.8958 154.765 16.8528 154.394ZM11.263 12.8517C11.2195 13.1495 11.1909 13.4493 11.1243 13.9262C11.6017 13.6295 11.7335 13.3646 11.263 12.8517ZM2.21641 126.453C2.96972 126.013 2.96972 126.013 2.59209 125.432C2.48913 125.722 2.388 125.971 2.21641 126.453ZM13.3306 95.6567C13.0172 95.3081 12.9065 95.1099 12.8164 95.1173C12.7114 95.1226 12.5517 95.343 12.562 95.4458C12.5844 95.6111 12.7248 95.8135 12.828 95.8484C12.9302 95.9035 13.0714 95.7616 13.3306 95.6567ZM14.2985 60.2536C14.1935 60.2589 14.0885 60.2642 13.9844 60.2494C14.0022 60.5153 14.0209 60.7611 14.0536 61.0292C14.0527 61.0493 14.2776 61.0409 14.2776 61.0409C14.2895 60.7792 14.3014 60.5174 14.2985 60.2536ZM16.1755 185.056C16.0243 185.42 15.9268 185.588 15.8424 185.799C15.7747 185.972 15.7358 186.169 15.682 186.364C16.0368 186.131 16.3619 185.894 16.1755 185.056ZM16.1736 176.222C16.2479 176.232 16.3222 176.243 16.3966 176.253C16.3973 175.909 16.3989 175.545 16.3996 175.2C16.3402 175.192 16.2807 175.183 16.2212 175.175C16.2047 175.537 16.1891 175.879 16.1736 176.222ZM16.504 117.669C16.0248 118.006 16.0248 118.006 16.2791 118.994C16.3809 118.401 16.4411 118.065 16.504 117.669ZM10.1247 17.1473C10.0494 17.1569 9.97415 17.1664 9.89889 17.1759C9.92608 17.5648 9.95236 17.9738 9.97956 18.3627C10.2218 17.9717 10.4641 17.5807 10.1247 17.1473ZM11.3588 136.347C11.4341 136.338 11.5084 136.348 11.5986 136.341C11.7814 135.941 11.6929 135.584 11.3292 135.026C11.3314 135.634 11.3447 136.001 11.3588 136.347ZM2.72652 108.998C3.10332 108.282 3.10332 108.282 2.59299 107.986C2.65084 108.359 2.6817 108.667 2.72652 108.998ZM16.6389 84.4568C17.133 84.1219 17.0175 83.7002 17.0079 83.2531C16.4914 83.4226 16.7073 83.9397 16.6389 84.4568ZM17.1004 201.561C17.0261 201.55 16.9508 201.56 16.8765 201.549C16.7113 201.89 16.6957 202.232 17.1104 202.656C17.1018 202.189 17.1015 201.865 17.1004 201.561ZM15.2989 69.8387C15.2245 69.8281 15.165 69.8196 15.0907 69.809C14.9125 70.1078 14.8383 70.4214 15.2039 70.9396C15.2556 70.4606 15.2851 70.1406 15.2989 69.8387ZM11.515 148.041C11.4416 148.01 11.3821 148.002 11.3087 147.971C11.0524 148.34 11.0796 148.728 11.4136 149.283C11.4513 148.781 11.4827 148.421 11.515 148.041ZM2.91895 146.856C3.1267 146.237 3.1267 146.237 2.82158 145.708C2.85998 146.179 2.88901 146.528 2.91895 146.856ZM15.9313 215.74C16.1014 215.947 16.2 216.082 16.3162 216.16C16.345 216.184 16.5214 215.926 16.5084 215.883C16.4553 215.734 16.3437 215.556 16.2424 215.481C16.1987 215.454 16.0715 215.618 15.9313 215.74ZM16.4976 145.428C16.4233 145.417 16.3638 145.409 16.2895 145.398C16.2302 145.714 16.0074 146.006 16.4491 146.495C16.4702 146.032 16.4839 145.73 16.4976 145.428ZM11.5838 56.7665C11.4946 56.7538 11.4194 56.7633 11.3301 56.7506C11.3452 57.077 11.3445 57.4213 11.3596 57.7477C11.4191 57.7562 11.4795 57.7445 11.5389 57.753C11.5536 57.4309 11.5692 57.0886 11.5838 56.7665ZM6.72407 230.942C6.32761 231.433 6.32761 231.433 6.53435 232.151C6.61674 231.656 6.66297 231.298 6.72407 230.942ZM12.7048 97.8977C12.654 98.3565 12.6226 98.7168 12.5663 99.2964C12.9488 98.7835 13.2014 98.4953 12.7048 97.8977ZM15.8516 85.6414C15.4142 86.0451 15.3429 86.2983 15.7047 86.897C15.7564 86.4181 15.7832 86.1585 15.8516 85.6414ZM15.1364 126.673C15.3599 126.036 15.3599 126.036 14.9935 125.538C15.0468 126.012 15.0916 126.342 15.1364 126.673ZM11.4422 215.728C11.5564 215.522 11.665 215.436 11.6854 215.317C11.7085 215.138 11.7019 214.955 11.6655 214.767C11.6525 214.725 11.4452 214.675 11.4285 214.713C11.3469 214.864 11.294 215.039 11.2858 215.22C11.2803 215.341 11.3631 215.494 11.4422 215.728ZM16.4603 178.471C16.4777 178.089 16.496 177.686 16.5253 177.042C16.1243 177.633 16.21 178.05 16.4603 178.471ZM16.585 156.99C16.6136 156.69 16.6413 156.41 16.6791 155.909C16.198 156.286 16.1554 156.564 16.585 156.99ZM15.6736 157.286C15.8461 156.783 15.8951 156.365 15.6254 156.043C15.5641 156.075 15.4888 156.084 15.4275 156.116C15.5142 156.513 15.586 156.908 15.6736 157.286ZM8.75091 247.239C8.74154 247.116 8.73217 246.993 8.72372 246.85C8.49793 246.878 8.28702 246.909 8.07611 246.94C8.0864 247.043 8.09668 247.145 8.10697 247.248C8.31605 247.258 8.54092 247.249 8.75091 247.239ZM14.097 185.348C13.9522 185.57 13.8575 185.678 13.8056 185.833C13.7889 185.871 13.9144 186.072 13.9293 186.074C14.037 186.008 14.1597 185.944 14.2404 185.814C14.2729 185.758 14.1762 185.582 14.097 185.348ZM19.0201 40.3597C18.9213 39.8999 18.857 39.6678 18.7573 39.2281C18.5077 39.7801 18.5859 40.0345 19.0201 40.3597ZM14.3609 67.7597C14.4483 67.8127 14.5208 67.8636 14.6091 67.8964C14.6404 67.5362 14.6857 67.1982 14.7171 66.8379C14.6576 66.8294 14.5991 66.8008 14.5396 66.7923C14.4952 67.1102 14.4201 67.444 14.3609 67.7597ZM16.9479 182.553C17.0241 182.523 17.0994 182.513 17.1607 182.482C17.2497 182.17 17.2774 181.89 16.8071 181.702C16.8658 182.055 16.9143 182.305 16.9479 182.553ZM18.3423 215.375C18.4176 215.365 18.4919 215.376 18.5672 215.366C18.5494 215.1 18.5455 214.856 18.5277 214.59C18.4831 214.584 18.4227 214.596 18.3781 214.589C18.3662 214.851 18.3543 215.113 18.3423 215.375ZM15.2131 140.442C15.2069 140.908 15.1393 141.405 15.6877 141.523C15.5118 141.113 15.362 140.788 15.2131 140.442ZM1.97958 155.658C1.74942 156.112 1.7645 156.438 2.25334 156.548C2.1351 156.187 2.05688 155.933 1.97958 155.658ZM17.0795 100.75C17.0043 100.76 16.929 100.769 16.8537 100.779C16.8716 101.045 16.9043 101.313 16.9212 101.599C16.9816 101.587 17.0262 101.594 17.0866 101.582C17.0845 101.298 17.0816 101.034 17.0795 100.75ZM14.2908 128.153C14.3652 128.164 14.4395 128.174 14.513 128.205C14.3956 127.824 14.8127 127.539 14.4471 127.021C14.3982 127.439 14.3371 127.795 14.2908 128.153ZM16.1295 124.91C16.2048 124.9 16.2791 124.911 16.3693 124.903C16.3682 124.599 16.3512 124.313 16.3501 124.009C16.2906 124.001 16.2303 124.012 16.1856 124.006C16.157 124.306 16.1433 124.608 16.1295 124.91ZM12.2627 163.507C12.2032 163.498 12.1289 163.487 12.0703 163.459C12.0268 163.757 11.9843 164.034 11.9408 164.332C12.0142 164.363 12.0737 164.371 12.1471 164.402C12.1757 164.102 12.2192 163.804 12.2627 163.507ZM8.56913 239.067C8.64256 239.098 8.71598 239.129 8.80428 239.161C8.84501 238.924 8.90062 238.689 8.95714 238.433C8.88371 238.403 8.81028 238.372 8.73685 238.341C8.68125 238.576 8.62473 238.832 8.56913 239.067ZM8.58161 78.6682C8.50727 78.6577 8.44779 78.6492 8.37253 78.6587C8.37549 78.9226 8.37753 79.2065 8.38049 79.4704C8.43996 79.4788 8.48457 79.4852 8.54404 79.4937C8.55687 79.2118 8.56878 78.9501 8.58161 78.6682ZM15.4388 137.455C15.1268 137.735 15.0247 138.004 15.4403 138.408C15.4298 137.981 15.4269 137.717 15.4388 137.455ZM15.5427 161.806C15.4194 162.214 15.361 162.509 15.6938 162.76C15.9677 162.332 15.7835 162.104 15.5427 161.806ZM12.3686 167.757C12.2784 167.764 12.2023 167.794 12.1121 167.801C12.1606 168.051 12.2091 168.301 12.2576 168.551C12.318 168.54 12.3783 168.528 12.4387 168.516C12.4051 168.268 12.3864 168.023 12.3686 167.757ZM12.9891 161.685C13.4617 161.165 13.4849 160.986 13.1902 160.883C13.1179 161.156 13.0614 161.412 12.9891 161.685ZM5.64124 176.808C5.59663 176.801 5.55202 176.795 5.52137 176.811C5.50946 177.073 5.48359 177.312 5.50142 177.578C5.49867 177.638 5.60092 177.693 5.74503 177.815C5.70479 177.384 5.67301 177.096 5.64124 176.808ZM16.6382 90.7179C16.5955 90.6713 16.5378 90.6225 16.495 90.5759C16.4161 90.666 16.3074 90.7518 16.2871 90.8705C16.2509 91.0072 16.2882 91.1746 16.2957 91.3377C16.3403 91.3441 16.385 91.3505 16.4286 91.377C16.4982 91.164 16.5678 90.951 16.6382 90.7179ZM11.3294 152.776C11.2541 152.786 11.1789 152.795 11.1027 152.825C11.166 153.077 11.2154 153.307 11.2788 153.559C11.3243 153.545 11.3847 153.534 11.4302 153.52C11.3975 153.252 11.363 153.024 11.3294 152.776ZM16.1589 50.286C16.0029 50.4259 15.8663 50.4672 15.8459 50.5859C15.8265 50.6844 15.8935 50.8561 15.9177 50.9811C16.0097 50.9334 16.1305 50.9101 16.1787 50.8359C16.2288 50.7215 16.1767 50.552 16.1589 50.286ZM15.6276 59.3286C15.7019 59.3391 15.7614 59.3476 15.8367 59.3381C15.8467 59.1166 15.8568 58.8952 15.8669 58.6737C15.7916 58.6833 15.6429 58.6621 15.642 58.6822C15.6171 58.9015 15.6377 59.1071 15.6276 59.3286ZM18.9838 221.666C18.6246 222.324 18.6246 222.324 18.9966 222.702C18.9954 222.398 18.9925 222.134 18.9838 221.666ZM13.5282 169.239C13.4539 169.228 13.3796 169.218 13.3052 169.207C13.31 169.431 13.3157 169.634 13.3502 169.862C13.3493 169.882 13.4543 169.877 13.5129 169.905C13.5081 169.682 13.5182 169.46 13.5282 169.239ZM16.5135 56.9625C16.4252 56.9297 16.3369 56.8968 16.2486 56.864C16.2227 57.1034 16.2126 57.3249 16.1868 57.5643C16.2462 57.5728 16.3048 57.6014 16.3791 57.612C16.419 57.3948 16.4588 57.1776 16.5135 56.9625ZM16.2153 73.0492C16.1567 73.0206 16.0824 73.01 16.0238 72.9814C15.9961 73.2611 15.658 73.4561 16.0208 74.0346C16.1013 73.5801 16.1587 73.3046 16.2153 73.0492ZM17.6391 64.7823C17.6995 64.7706 17.7757 64.7409 17.8361 64.7293C17.7894 64.439 17.7279 64.1465 17.6813 63.8562C17.6209 63.8678 17.5447 63.8975 17.4843 63.9092C17.5309 64.1995 17.5776 64.4898 17.6391 64.7823ZM16.4565 81.2292C16.543 81.3024 16.6146 81.3734 16.701 81.4465C16.8031 81.1773 16.8893 80.9262 16.9914 80.6571C16.9337 80.6083 16.8761 80.5596 16.8185 80.5108C16.7025 80.7577 16.5725 80.9824 16.4565 81.2292ZM11.1501 113.643C11.0748 113.653 10.9838 113.68 10.9085 113.69C10.9421 113.938 10.9766 114.166 10.9954 114.411C11.0558 114.4 11.131 114.39 11.1914 114.379C11.1736 114.113 11.1697 113.869 11.1501 113.643ZM15.0686 180.441C15.1244 180.53 15.1812 180.599 15.2518 180.69C15.3187 180.537 15.4012 180.367 15.4681 180.214C15.469 180.194 15.3983 180.103 15.3704 180.058C15.2599 180.184 15.1643 180.313 15.0686 180.441ZM16.8358 158.383C16.8683 158.327 16.8868 158.249 16.9193 158.193C16.7892 158.093 16.6748 157.975 16.5446 157.876C16.5103 157.972 16.4909 158.071 16.4566 158.167C16.5728 158.245 16.7038 158.324 16.8358 158.383ZM16.5765 33.5477C16.558 33.6261 16.5394 33.7045 16.52 33.803C16.6669 33.8645 16.8277 33.9482 16.9745 34.0096C16.9931 33.9312 17.0116 33.8528 17.0301 33.7744C16.8842 33.6928 16.7234 33.6091 16.5765 33.5477ZM14.4524 95.9989C14.3771 96.0084 14.3028 95.9979 14.2275 96.0074C14.262 96.2352 14.3114 96.4651 14.3469 96.6728C14.4073 96.6612 14.4528 96.6474 14.5132 96.6357C14.4926 96.4302 14.4729 96.2045 14.4524 95.9989ZM14.239 105.289C14.1795 105.281 14.1052 105.27 14.0457 105.262C14.0347 105.503 14.0237 105.745 14.0127 105.987C14.0722 105.995 14.1168 106.001 14.1763 106.01C14.2022 105.77 14.228 105.531 14.239 105.289ZM18.8204 21.73C18.8109 21.2829 18.7921 21.0371 18.7938 20.6725C18.4362 20.9661 18.3797 21.2214 18.8204 21.73ZM15.6911 91.7987C15.6177 91.7679 15.5591 91.7393 15.4866 91.6885C15.4319 91.9036 15.3772 92.1187 15.3374 92.3359C15.3811 92.3624 15.4397 92.391 15.4834 92.4175C15.5529 92.2045 15.6216 92.0117 15.6911 91.7987ZM4.20841 175.408C4.41525 174.809 4.24507 174.603 4.04332 174.432C4.0145 174.408 3.95227 174.46 3.84636 174.485C3.94036 174.721 4.03436 174.958 4.20841 175.408ZM16.9127 56.4115C16.9275 56.4136 16.9424 56.4157 16.9721 56.42C16.9896 56.0375 17.0061 55.6751 17.0235 55.2926C16.9937 55.2883 16.964 55.2841 16.9342 55.2799C16.9168 55.6624 16.9143 56.047 16.9127 56.4115ZM17.939 47.014C17.9845 47.0002 18.0458 46.9684 18.0914 46.9546C18.0122 46.7205 17.934 46.4662 17.8549 46.232C17.8084 46.2659 17.7471 46.2977 17.7016 46.3115C17.7807 46.5456 17.8599 46.7798 17.939 47.014ZM16.2458 96.0519C16.1724 96.0211 16.0989 95.9904 16.0106 95.9576C15.9987 96.2193 15.9877 96.4609 15.9758 96.7226C16.0056 96.7268 16.0492 96.7533 16.079 96.7576C16.1355 96.5022 16.1902 96.2871 16.2458 96.0519ZM12.5886 90.5865C12.5552 90.6628 12.5227 90.719 12.5042 90.7974C12.692 90.9457 12.8798 91.0941 13.0667 91.2625C13.1001 91.1862 13.1325 91.1301 13.1511 91.0517C12.9642 90.8832 12.7764 90.7349 12.5886 90.5865ZM15.5035 128.144C15.4291 128.133 15.3696 128.125 15.2953 128.114C15.301 128.317 15.3207 128.543 15.3264 128.747C15.371 128.753 15.4314 128.741 15.476 128.748C15.4842 128.566 15.4934 128.365 15.5035 128.144ZM7.17875 70.3632C7.25401 70.3536 7.32927 70.3441 7.40453 70.3346C7.35422 70.1248 7.31877 69.9171 7.26846 69.7073C7.22294 69.7211 7.16255 69.7327 7.11702 69.7465C7.12181 69.9701 7.14331 70.1555 7.17875 70.3632ZM2.10228 154.278C2.12743 154.382 2.16838 154.469 2.19353 154.574C2.33193 154.493 2.47125 154.391 2.61057 154.289L2.54447 154.097C2.39212 154.157 2.25463 154.218 2.10228 154.278ZM4.98563 247.107C4.87218 246.97 4.80333 246.838 4.75781 246.852C4.68163 246.882 4.60179 246.992 4.59721 247.092C4.59354 247.173 4.66331 247.284 4.70425 247.371C4.78226 247.301 4.86118 247.211 4.98563 247.107ZM3.2938 102.453C3.23524 102.424 3.17576 102.416 3.1172 102.387C3.0783 102.584 3.05427 102.783 3.01537 102.981C3.07484 102.989 3.11853 103.016 3.17801 103.024C3.21599 102.847 3.25489 102.65 3.2938 102.453ZM16.0014 196.115C16.1675 195.754 16.2631 195.626 16.2528 195.523C16.2444 195.38 16.1458 195.244 16.0779 195.093C16.0323 195.107 15.9859 195.141 15.9404 195.154C15.9452 195.378 15.9648 195.604 16.0014 196.115ZM16.1522 138.55C16.0937 138.521 16.036 138.473 15.9775 138.444C15.9274 138.558 15.8475 138.669 15.8262 138.807C15.8049 138.946 15.858 139.096 15.8804 139.261C15.925 139.267 15.9705 139.254 16.0151 139.26C16.0568 139.002 16.1115 138.787 16.1522 138.55ZM13.8576 194.554C13.9338 194.524 13.9942 194.512 14.0704 194.483C14.02 194.273 13.9688 194.083 13.9185 193.873C13.873 193.887 13.8275 193.901 13.7671 193.913C13.7867 194.138 13.8222 194.346 13.8576 194.554ZM7.0856 222.341C7.06615 222.44 7.03183 222.536 7.01238 222.635C7.14528 222.674 7.29306 222.715 7.42596 222.755C7.44083 222.757 7.47881 222.58 7.47881 222.58C7.34866 222.48 7.21759 222.401 7.0856 222.341ZM11.4059 125.777C11.3456 125.788 11.2852 125.8 11.2239 125.832C11.2611 125.999 11.3133 126.169 11.3506 126.336C11.3961 126.322 11.4416 126.309 11.4871 126.295C11.4508 126.107 11.4284 125.942 11.4059 125.777ZM11.8546 118.222C11.796 118.193 11.7514 118.187 11.6928 118.158C11.6539 118.355 11.6141 118.572 11.5752 118.77C11.6338 118.798 11.6933 118.807 11.7518 118.835C11.7907 118.638 11.8147 118.439 11.8546 118.222ZM11.7749 98.2717C11.9122 97.886 11.992 97.7759 11.9984 97.6349C12.003 97.5343 11.9481 97.4251 11.9081 97.3181C11.8774 97.334 11.8319 97.3478 11.8022 97.3435C11.8079 97.547 11.7978 97.7684 11.7749 98.2717ZM15.7024 105.032C15.7573 105.141 15.7806 105.286 15.8392 105.315C15.8977 105.343 15.9906 105.276 16.0668 105.246C16.0277 105.119 15.9737 104.99 15.9346 104.862C15.8723 104.914 15.811 104.946 15.7024 105.032ZM16.1745 87.7542C16.261 87.8273 16.3186 87.8761 16.3763 87.9248C16.4106 87.8284 16.4746 87.7362 16.4783 87.6557C16.481 87.5953 16.3797 87.52 16.323 87.4512C16.2738 87.5455 16.2395 87.6419 16.1745 87.7542ZM15.2468 152.524C15.3063 152.532 15.3806 152.543 15.4401 152.551C15.4335 152.368 15.4269 152.185 15.4063 151.979C15.3617 151.973 15.3162 151.987 15.2716 151.98C15.2624 152.182 15.2541 152.363 15.2468 152.524ZM9.60004 236.803C9.69475 236.695 9.75698 236.643 9.79129 236.546C9.808 236.508 9.74007 236.357 9.71033 236.352C9.63598 236.342 9.57376 236.394 9.49758 236.423C9.52274 236.528 9.5479 236.633 9.60004 236.803ZM16.0346 134.886C15.9399 134.994 15.8628 135.044 15.8443 135.122C15.8397 135.223 15.8798 135.33 15.9049 135.435C15.9671 135.383 16.0582 135.355 16.0767 135.277C16.111 135.18 16.071 135.073 16.0346 134.886ZM12.9566 154.507C12.874 154.678 12.7793 154.786 12.7924 154.828C12.8463 154.958 12.9328 155.031 13.0035 155.122C13.0518 155.048 13.1613 154.942 13.1483 154.899C13.1389 154.777 13.0534 154.683 12.9566 154.507ZM3.68677 166.154C3.6163 166.388 3.56528 166.522 3.55978 166.643C3.55703 166.703 3.68902 166.763 3.74666 166.811C3.78098 166.715 3.84504 166.623 3.85054 166.502C3.86724 166.464 3.78169 166.371 3.68677 166.154ZM15.3296 132.293C15.2189 132.095 15.1649 131.966 15.0784 131.893C15.0645 131.87 14.9094 131.99 14.9057 132.071C14.9002 132.191 14.969 132.323 15.0072 132.47C15.1001 132.402 15.1921 132.355 15.3296 132.293ZM14.8796 94.1753C15.0207 94.0333 15.0978 93.9836 15.0839 93.9613C15.0596 93.8363 15.0047 93.7271 14.9507 93.5979C14.9434 93.7589 14.9212 93.9179 14.8796 94.1753ZM5.48413 154.942C5.41549 155.135 5.35052 155.247 5.32924 155.386C5.32557 155.466 5.41112 155.56 5.45206 155.647C5.51795 155.514 5.61266 155.406 5.66368 155.271C5.6813 155.213 5.56693 155.096 5.48413 154.942ZM5.22762 247.709C5.32437 247.885 5.36348 248.012 5.42295 248.021C5.4973 248.031 5.58926 247.984 5.62266 247.907C5.65515 247.851 5.58997 247.639 5.5751 247.637C5.47102 247.622 5.37905 247.67 5.22762 247.709ZM12.033 29.7999C11.9875 29.8137 11.928 29.8052 11.8825 29.819C11.8891 30.0023 11.9097 30.2078 11.9312 30.3933C11.9767 30.3795 12.0362 30.388 12.0817 30.3742C12.0611 30.1686 12.0545 29.9853 12.033 29.7999ZM13.5982 159.482C13.5016 159.631 13.406 159.759 13.4051 159.779C13.46 159.888 13.5446 160.001 13.632 160.054C13.6608 160.079 13.8038 159.897 13.7908 159.854C13.7665 159.729 13.681 159.636 13.5982 159.482ZM13.5659 164.138C13.4812 164.025 13.4263 163.916 13.3669 163.907C13.3074 163.899 13.2433 163.991 13.1811 164.043C13.2369 164.132 13.2909 164.261 13.3774 164.334C13.3922 164.336 13.4879 164.208 13.5659 164.138ZM14.7667 74.6259C14.8104 74.6524 14.8383 74.6969 14.8689 74.681C14.8987 74.6852 14.9312 74.6291 14.9172 74.6068C14.8827 74.379 14.8482 74.1512 14.8136 73.9234C14.7681 73.9372 14.7226 73.9509 14.6622 73.9626C14.7116 74.1925 14.7312 74.4182 14.7667 74.6259ZM16.1488 46.232C16.1051 46.2055 16.0624 46.1589 16.0038 46.1303C15.9352 46.3231 15.8823 46.498 15.8137 46.6908C15.8574 46.7173 15.9011 46.7438 15.9438 46.7904C16.0273 46.5997 16.096 46.4068 16.1488 46.232ZM16.6483 23.7507C16.678 23.7549 16.7226 23.7613 16.7524 23.7655C16.7606 23.5843 16.768 23.4232 16.7762 23.2421C16.7465 23.2378 16.7019 23.2315 16.6721 23.2272C16.6639 23.4084 16.6565 23.5695 16.6483 23.7507ZM7.61839 218.527C7.78948 218.713 7.84621 218.782 7.90385 218.831C7.91872 218.833 7.99856 218.723 8.0004 218.683C7.99011 218.58 7.951 218.453 7.89244 218.424C7.83388 218.396 7.75587 218.465 7.61839 218.527ZM13.3466 88.7291C13.3921 88.7153 13.4516 88.7238 13.4971 88.71C13.4765 88.5044 13.4569 88.2787 13.4214 88.071C13.3759 88.0848 13.3164 88.0763 13.2709 88.0901C13.3064 88.2978 13.326 88.5235 13.3466 88.7291ZM11.681 131.57C11.5119 131.668 11.4069 131.673 11.3884 131.752C11.355 131.828 11.3635 131.971 11.3589 132.072C11.4332 132.082 11.5513 132.119 11.5837 132.063C11.6181 131.967 11.6245 131.826 11.681 131.57ZM17.7588 211.097C17.8044 211.083 17.8508 211.049 17.8963 211.036C17.8302 210.844 17.765 210.632 17.7138 210.442C17.6683 210.456 17.6367 210.492 17.5912 210.506C17.6424 210.695 17.7076 210.907 17.7588 211.097ZM18.7881 233.857C18.763 233.752 18.736 233.687 18.7099 233.603C18.6477 233.655 18.5855 233.707 18.5521 233.783C18.5354 233.821 18.5912 233.91 18.6033 233.973C18.6795 233.943 18.7417 233.891 18.7881 233.857ZM2.66837 134.278C2.74272 134.288 2.81706 134.299 2.87745 134.287C2.85505 134.122 2.83172 133.977 2.82418 133.814C2.77866 133.827 2.68853 133.835 2.67275 133.853C2.65146 133.992 2.65992 134.135 2.66837 134.278ZM9.73748 26.3117C9.69379 26.2852 9.65101 26.2386 9.60732 26.2121C9.54143 26.3446 9.47554 26.477 9.40965 26.6095C9.48217 26.6603 9.54073 26.6889 9.61324 26.7398C9.64939 26.6031 9.70041 26.4685 9.73748 26.3117ZM14.3915 11.1903C14.3572 11.2867 14.308 11.381 14.3192 11.4636C14.3174 11.5039 14.4197 11.559 14.4773 11.6078C14.4967 11.5092 14.5311 11.4128 14.5356 11.3121C14.5366 11.292 14.4631 11.2613 14.3915 11.1903ZM11.2236 119.591C11.2487 119.696 11.2581 119.819 11.273 119.821C11.3482 119.811 11.4244 119.781 11.5006 119.752C11.4745 119.667 11.4494 119.562 11.4382 119.479C11.362 119.509 11.2858 119.539 11.2236 119.591ZM13.7791 74.9512C13.7364 74.9046 13.6936 74.8579 13.6517 74.7912C13.6174 74.8876 13.5673 75.002 13.5627 75.1027C13.5581 75.2034 13.5982 75.3104 13.6242 75.3952C13.6865 75.3432 13.7775 75.3157 13.796 75.2373C13.8295 75.161 13.7894 75.054 13.7791 74.9512ZM15.3888 52.081C15.4437 52.1901 15.4846 52.277 15.5255 52.3639C15.5878 52.312 15.6946 52.2664 15.6983 52.1859C15.7168 52.1074 15.647 51.9962 15.6061 51.9093C15.543 51.9814 15.4816 52.0131 15.3888 52.081ZM15.714 56.4433C15.6685 56.4571 15.623 56.4708 15.5774 56.4846C15.612 56.7124 15.6465 56.9402 15.681 57.1681C15.7265 57.1543 15.7721 57.1405 15.8325 57.1289C15.7831 56.8989 15.7485 56.6711 15.714 56.4433ZM15.6261 64.2927C15.5406 64.1995 15.4829 64.1508 15.4262 64.0819C15.3937 64.138 15.3306 64.2101 15.3436 64.2525C15.3539 64.3553 15.4097 64.4443 15.4506 64.5312C15.498 64.4771 15.5463 64.403 15.6261 64.2927ZM8.7214 240.325C8.60998 240.471 8.54593 240.563 8.48187 240.655C8.5386 240.724 8.59257 240.854 8.65205 240.862C8.71152 240.87 8.80624 240.762 8.82477 240.684C8.84239 240.626 8.78749 240.517 8.7214 240.325ZM16.5817 69.2718C16.5223 69.2633 16.447 69.2728 16.3875 69.2644C16.4081 69.4699 16.4287 69.6755 16.4493 69.881C16.479 69.8853 16.5245 69.8715 16.5543 69.8757C16.5634 69.6744 16.5726 69.4731 16.5817 69.2718ZM14.0112 125.418C14.0856 125.429 14.159 125.46 14.2185 125.468C14.2119 125.285 14.2201 125.104 14.2144 124.9C14.1698 124.894 14.1252 124.888 14.0806 124.881C14.0575 125.06 14.0344 125.239 14.0112 125.418ZM12.536 170.982C12.4896 171.016 12.4283 171.048 12.3818 171.082C12.4628 171.275 12.5289 171.467 12.6099 171.661C12.6405 171.645 12.6712 171.629 12.7018 171.613C12.6357 171.422 12.5863 171.192 12.536 170.982ZM14.8574 118.994C14.9187 118.962 14.98 118.931 15.0562 118.901C15.004 118.731 14.9361 118.58 14.8839 118.41C14.8384 118.424 14.8068 118.46 14.7613 118.474C14.7977 118.661 14.835 118.829 14.8574 118.994ZM15.0189 153.586C15.1035 153.699 15.1436 153.806 15.2161 153.857C15.2449 153.881 15.3536 153.795 15.3405 153.753C15.3451 153.652 15.3042 153.565 15.279 153.461C15.2028 153.49 15.1267 153.52 15.0189 153.586ZM15.9 165.464C15.7865 165.326 15.7326 165.197 15.6452 165.144C15.6015 165.117 15.5207 165.247 15.4734 165.301C15.5431 165.413 15.5822 165.54 15.6678 165.633C15.6817 165.655 15.7765 165.547 15.9 165.464ZM17.3063 187.832C17.2301 187.861 17.1846 187.875 17.1242 187.887C17.1493 187.992 17.1587 188.114 17.2006 188.181C17.2285 188.226 17.3371 188.14 17.3975 188.128C17.3724 188.023 17.3314 187.936 17.3063 187.832ZM17.4579 185.158C17.3028 185.278 17.2108 185.326 17.2099 185.346C17.2193 185.469 17.2584 185.596 17.2826 185.721C17.3197 185.564 17.3707 185.429 17.4579 185.158ZM16.7937 63.6284C16.7528 63.5415 16.7258 63.4769 16.7127 63.4345C16.6645 63.5087 16.6022 63.5606 16.5688 63.6369C16.5521 63.675 16.6089 63.7439 16.6359 63.8085C16.6832 63.7545 16.7464 63.6824 16.7937 63.6284ZM12.8522 145.293C12.9694 145.35 13.0419 145.401 13.1171 145.392C13.1469 145.396 13.2137 145.243 13.2146 145.223C13.1736 145.136 13.116 145.088 13.0602 144.999C12.9961 145.091 12.9479 145.165 12.8522 145.293ZM13.1007 137.203C13.1435 137.25 13.1854 137.317 13.2002 137.319C13.2458 137.305 13.2643 137.227 13.2968 137.17C13.254 137.124 13.1964 137.075 13.1545 137.008C13.136 137.087 13.1183 137.145 13.1007 137.203ZM16.0949 70.7626C16.1738 70.6725 16.2676 70.5846 16.2555 70.5221C16.2443 70.4394 16.1605 70.3059 16.1011 70.2975C16.0416 70.289 15.932 70.3949 15.9283 70.4755C15.9405 70.538 16.026 70.6312 16.0949 70.7626ZM16.758 46.9875C16.8174 46.996 16.862 47.0023 16.9215 47.0108C16.9149 46.8275 16.9083 46.6442 16.9017 46.4609C16.8719 46.4567 16.8422 46.4524 16.8115 46.4683C16.7893 46.6273 16.7662 46.8063 16.758 46.9875ZM14.3489 101.232C14.3155 101.309 14.2811 101.405 14.2468 101.501C14.2905 101.528 14.3621 101.599 14.377 101.601C14.4401 101.529 14.4744 101.432 14.5227 101.358C14.4651 101.31 14.4214 101.283 14.3489 101.232ZM16.18 48.5059C16.1336 48.5398 16.0583 48.5493 16.0565 48.5896C16.0389 48.6479 16.0807 48.7146 16.1077 48.7793C16.1542 48.7454 16.2294 48.7358 16.2313 48.6956C16.2331 48.6553 16.1912 48.5885 16.18 48.5059ZM14.4341 84.8923C14.3904 84.8658 14.3607 84.8615 14.317 84.835C14.2966 84.9537 14.2763 85.0724 14.2559 85.1911C14.2559 85.1911 14.3135 85.2398 14.3144 85.2197C14.3645 85.1053 14.3989 85.0088 14.4341 84.8923ZM15.2351 51.512C15.2081 51.4473 15.1978 51.3445 15.169 51.3202C15.1402 51.2958 15.0779 51.3477 15.0166 51.3795C15.0576 51.4664 15.0836 51.5512 15.1097 51.6359C15.1562 51.602 15.2026 51.5681 15.2351 51.512ZM14.7463 64.5524C14.6598 64.4793 14.5882 64.4082 14.5288 64.3998C14.499 64.3955 14.4341 64.5079 14.4471 64.5502C14.4732 64.635 14.529 64.724 14.5699 64.8109C14.6033 64.7346 14.6516 64.6604 14.7463 64.5524ZM10.6454 135.253C10.7143 135.384 10.7701 135.473 10.8119 135.54C10.8444 135.484 10.9215 135.434 10.9233 135.393C10.9279 135.293 10.8879 135.186 10.8767 135.103C10.8154 135.135 10.7532 135.187 10.6454 135.253ZM10.5426 129.949C10.5993 130.018 10.67 130.109 10.6709 130.089C10.7183 130.035 10.7675 129.941 10.8157 129.867C10.773 129.82 10.7171 129.731 10.7014 129.749C10.654 129.803 10.6057 129.877 10.5426 129.949ZM11.5934 103.575C11.624 103.559 11.6547 103.543 11.7011 103.509C11.6481 103.36 11.595 103.21 11.5577 103.043C11.5271 103.059 11.4806 103.093 11.45 103.109C11.4872 103.276 11.5403 103.426 11.5934 103.575ZM11.6294 52.4773C11.6758 52.4434 11.7362 52.4317 11.7538 52.3734C11.7715 52.3151 11.7603 52.2325 11.7481 52.17C11.6868 52.2018 11.6255 52.2336 11.5782 52.2876C11.5624 52.3056 11.6182 52.3946 11.6294 52.4773ZM12.804 7.6004C12.7836 7.71907 12.7633 7.83773 12.7438 7.93628C12.7884 7.94264 12.8609 7.9935 12.8776 7.95535C12.9101 7.8992 12.9287 7.82079 12.9174 7.73814C12.9184 7.718 12.8607 7.66927 12.804 7.6004ZM4.64478 148.723C4.55282 148.771 4.5073 148.785 4.46086 148.819C4.5018 148.905 4.52695 149.01 4.58368 149.079C4.59763 149.101 4.67564 149.031 4.73603 149.02C4.69601 148.913 4.66994 148.828 4.64478 148.723ZM3.86971 160.162C3.89669 160.227 3.90698 160.33 3.9358 160.354C3.97949 160.381 4.02685 160.327 4.08816 160.295C4.06117 160.23 4.05088 160.128 4.02206 160.103C3.97745 160.097 3.9301 160.151 3.86971 160.162ZM2.86601 173.008C2.7713 173.116 2.70816 173.188 2.67476 173.264C2.67293 173.305 2.72599 173.454 2.74086 173.456C2.8152 173.467 2.92112 173.441 2.93873 173.383C2.95818 173.284 2.90329 173.175 2.86601 173.008ZM8.75079 30.8923C8.79632 30.8786 8.84092 30.8849 8.88645 30.8711C8.87891 30.708 8.85558 30.5628 8.84805 30.3996C8.80252 30.4134 8.75792 30.407 8.71239 30.4208C8.71993 30.584 8.72747 30.7472 8.75079 30.8923ZM3.78101 127.587C3.82653 127.574 3.85627 127.578 3.90179 127.564C3.87755 127.439 3.85331 127.314 3.82907 127.189L3.75381 127.199C3.74831 127.319 3.77255 127.444 3.78101 127.587ZM2.26167 130.39C2.33418 130.441 2.39091 130.51 2.46434 130.541C2.47921 130.543 2.5451 130.41 2.54601 130.39C2.48929 130.321 2.43256 130.252 2.36005 130.201C2.32848 130.238 2.29599 130.294 2.26167 130.39ZM14.6705 192.805C14.624 192.839 14.5785 192.853 14.5172 192.885C14.5582 192.972 14.6 193.038 14.6261 193.123C14.6725 193.089 14.7347 193.037 14.7514 192.999C14.77 192.921 14.6984 192.85 14.6705 192.805ZM1.86632 138.419C1.89423 138.463 1.9203 138.548 1.96399 138.574C1.99281 138.599 2.05595 138.527 2.10147 138.513C2.05962 138.446 2.01867 138.359 1.97682 138.293C1.93038 138.326 1.89789 138.383 1.86632 138.419ZM2.55589 105.185C2.56892 105.227 2.58104 105.289 2.57921 105.33C2.65539 105.3 2.74643 105.272 2.82353 105.223C2.82353 105.223 2.82627 105.162 2.82811 105.122C2.73615 105.17 2.64602 105.177 2.55589 105.185ZM14.0722 184.25C14.0221 184.365 13.9738 184.439 13.9543 184.537C13.9525 184.578 14.0223 184.689 14.038 184.671C14.0994 184.639 14.1625 184.567 14.2247 184.515C14.1968 184.471 14.1689 184.426 14.0722 184.25ZM16.014 128.764C15.9685 128.777 15.9239 128.771 15.8635 128.783C15.8841 128.988 15.9055 129.174 15.9261 129.379C15.9716 129.365 16.0162 129.372 16.0618 129.358C16.0561 129.155 16.0355 128.949 16.014 128.764ZM15.9327 119.37C15.8575 119.38 15.7813 119.41 15.706 119.419C15.7172 119.502 15.7433 119.586 15.7545 119.669C15.8307 119.639 15.9069 119.61 15.9691 119.558C15.9839 119.56 15.9588 119.455 15.9327 119.37ZM15.6779 123.326C15.6323 123.34 15.5719 123.351 15.5413 123.367C15.5255 123.385 15.5218 123.466 15.5367 123.468C15.5804 123.494 15.625 123.501 15.6687 123.527C15.6714 123.467 15.6742 123.406 15.6779 123.326ZM15.9407 98.4805C15.9835 98.5271 16.0114 98.5716 16.0542 98.6182C16.0866 98.562 16.1489 98.5101 16.1358 98.4678C16.1228 98.4254 16.0652 98.3766 16.0224 98.33C16.0057 98.3681 15.9732 98.4243 15.9407 98.4805ZM18.1174 48.3565C18.0755 48.2897 18.0188 48.2209 17.9769 48.1541C17.8952 48.3046 17.8284 48.4572 17.7468 48.6076C17.7895 48.6542 17.8174 48.6987 17.8611 48.7252C17.9419 48.5949 18.0226 48.4646 18.1174 48.3565ZM18.0016 44.6521C17.9115 44.6596 17.8223 44.6469 17.8214 44.667C17.787 44.7634 17.7973 44.8662 17.7927 44.9669C17.8383 44.9531 17.9266 44.9859 17.9433 44.9478C17.9618 44.8694 17.9664 44.7687 18.0016 44.6521ZM17.3633 53.4161C17.3372 53.3313 17.3102 53.2666 17.2981 53.2041C17.2359 53.256 17.1885 53.3101 17.1254 53.3821C17.1682 53.4288 17.1933 53.5337 17.2379 53.54C17.2825 53.5464 17.3159 53.4701 17.3633 53.4161Z" fill="#FF9E44"/>
</svg>
