<svg xmlns="http://www.w3.org/2000/svg" width="156" height="52" viewBox="0 0 156 52"><path fill="#FFF" d="M20.25 51.395L4.62 5.476.525 4.557.878.745h21.533l.353 3.812-4.589.919 11.139 33.815 11.1-33.815-5.083-.919.353-3.812h13.979l.353 3.812-3.742.919-15.522 43.753zM59.102 33.08c.353 5.577 3.672 9.812 8.896 9.812 3.671 0 7.202-1.553 8.826-2.682l1.906 3.458c-4.095 3.812-7.766 5.508-14.19 7.625-10.449 0-17.72-6.989-17.72-16.731 0-7.201 2.471-15.392 17.65-19.627 10.166 0 14.402 6.283 14.402 13.696v4.448h-19.77zm8.19-4.378c0-5.365-.988-8.754-3.883-8.754-2.753 0-4.376 3.529-4.376 9.39l8.259-.636zM99.08 27.714l6.816-12.007h7.367l.007 11.919h-9.399l-4.226 4.184v13.695l7.625.918-.353 3.883H84.324l-.353-3.883 3.672-.918V21.783l-3.672.142-.353-4.025 9.814-1.905 4.377-.283zM135.713 14.936c10.52 0 14.544 2.895 14.544 10.66v13.626c0 2.683.141 4.024.776 5.295h3.318l.564 3.883-14.19 2.895-2.33-5.789-7.978 5.789c-6.777 0-11.648-3.812-11.648-9.742 0-3.389 1.553-6.071 3.601-7.695l15.531-4.801V24.68c0-4.307-1.553-4.801-3.177-4.801-1.271 0-2.33.282-3.317.918l-.806 6.869-10.774-.02V20.72l15.886-5.784zm2.188 17.579l-5.507 2.188c-1.129 1.13-1.694 3.389-1.694 5.153 0 3.249 1.765 4.73 3.178 4.73 1.129 0 2.118-.564 2.965-1.129l1.059-.707V32.515z"/></svg>