<?xml version="1.0" encoding="UTF-8" standalone="no"?>
<svg
   xmlns:dc="http://purl.org/dc/elements/1.1/"
   xmlns:cc="http://creativecommons.org/ns#"
   xmlns:rdf="http://www.w3.org/1999/02/22-rdf-syntax-ns#"
   xmlns:svg="http://www.w3.org/2000/svg"
   xmlns="http://www.w3.org/2000/svg"
   xmlns:sodipodi="http://sodipodi.sourceforge.net/DTD/sodipodi-0.dtd"
   xmlns:inkscape="http://www.inkscape.org/namespaces/inkscape"
   width="14"
   height="9"
   viewBox="0 0 14 9"
   fill="none"
   version="1.1"
   id="svg42"
   sodipodi:docname="menu-mobile-open.svg"
   inkscape:version="1.0.2-2 (e86c870879, 2021-01-15)">
  <metadata
     id="metadata48">
    <rdf:RDF>
      <cc:Work
         rdf:about="">
        <dc:format>image/svg+xml</dc:format>
        <dc:type
           rdf:resource="http://purl.org/dc/dcmitype/StillImage" />
        <dc:title></dc:title>
      </cc:Work>
    </rdf:RDF>
  </metadata>
  <defs
     id="defs46" />
  <sodipodi:namedview
     pagecolor="#ffffff"
     bordercolor="#666666"
     borderopacity="1"
     objecttolerance="10"
     gridtolerance="10"
     guidetolerance="10"
     inkscape:pageopacity="0"
     inkscape:pageshadow="2"
     inkscape:window-width="1366"
     inkscape:window-height="705"
     id="namedview44"
     showgrid="false"
     inkscape:zoom="59.777778"
     inkscape:cx="7"
     inkscape:cy="4.5"
     inkscape:window-x="-8"
     inkscape:window-y="-8"
     inkscape:window-maximized="1"
     inkscape:current-layer="svg42" />
  <path
     d="m 5.4304916,3.6362683 2e-5,3e-5 0.00189,-0.00142 0.00389,-0.00292 0.00387,-0.00291 0.00386,-0.00289 0.00385,-0.00289 0.00383,-0.00287 0.00381,-0.00286 0.00381,-0.00286 0.00378,-0.00283 0.00377,-0.00283 0.00375,-0.00282 0.00375,-0.00281 0.00372,-0.00279 0.00371,-0.00278 0.0037,-0.00278 0.00368,-0.00276 0.00366,-0.00275 0.00365,-0.00274 0.00364,-0.00273 0.00362,-0.00271 0.00361,-0.00271 0.00359,-0.00269 0.00358,-0.00269 0.00356,-0.00267 0.00355,-0.00266 0.00354,-0.00266 0.00352,-0.00264 0.0035,-0.00263 0.00349,-0.00261 0.00348,-0.00261 0.00346,-0.0026 0.00345,-0.00259 0.00343,-0.00257 0.00342,-0.00257 0.00341,-0.00255 0.00339,-0.00255 0.00337,-0.00253 0.00337,-0.00252 0.00334,-0.00251 0.00334,-0.0025 0.00332,-0.00249 0.0033,-0.00248 0.0033,-0.00247 0.00327,-0.00246 0.00327,-0.00245 0.00325,-0.00244 0.00323,-0.00243 0.00323,-0.00242 0.00321,-0.0024 0.00319,-0.0024 0.00318,-0.00239 0.00317,-0.00237 0.00315,-0.00237 0.00314,-0.00235 0.00313,-0.00235 0.00311,-0.00233 0.0031,-0.00233 0.00309,-0.00231 0.00307,-0.00231 0.00306,-0.00229 0.00304,-0.00229 0.00303,-0.00227 0.00302,-0.00227 0.00301,-0.00225 0.00299,-0.00224 0.00298,-0.00224 0.00296,-0.00222 0.00295,-0.00222 0.00294,-0.0022 0.00292,-0.0022 0.00292,-0.00218 0.0029,-0.00218 0.00288,-0.00216 0.00287,-0.00215 0.00286,-0.00215 0.00285,-0.00214 0.00283,-0.00212 0.00282,-0.00212 0.00281,-0.0021 0.0028,-0.0021 0.00278,-0.00209 0.00277,-0.00207 0.00275,-0.00207 0.00275,-0.00206 0.00273,-0.00205 0.00271,-0.00204 0.00271,-0.00203 0.00269,-0.00202 0.00268,-0.00201 0.00267,-0.002 0.00265,-0.00199 0.00265,-0.00198 0.00262,-0.00197 0.00262,-0.00197 0.00261,-0.00195 0.00259,-0.00195 0.00258,-0.00193 0.00257,-0.00193 0.00255,-0.00191 0.00254,-0.00191 0.00253,-0.0019 0.00252,-0.00189 0.00251,-0.00188 0.00249,-0.00187 0.00248,-0.00186 0.00247,-0.00185 0.00246,-0.00185 0.00245,-0.00183 0.00243,-0.00183 0.00242,-0.00181 0.00241,-0.00181 0.0024,-0.0018 0.00238,-0.00179 0.00238,-0.00178 0.00236,-0.00177 0.00235,-0.00176 0.00233,-0.00176 0.00233,-0.00174 0.00232,-0.00174 0.0023,-0.00173 0.00229,-0.00172 0.00228,-0.00171 0.00227,-0.0017 0.00225,-0.00169 0.00225,-0.00168 0.00223,-0.00168 0.00222,-0.00167 0.00221,-0.00165 0.0022,-0.00165 0.00219,-0.00164 0.00217,-0.00164 0.00217,-0.00162 0.00215,-0.00162 0.00214,-0.0016 0.00213,-0.0016 0.00212,-0.00159 0.00211,-0.00158 0.0021,-0.00157 0.00208,-0.00157 0.00208,-0.00156 0.00206,-0.00154 0.00205,-0.00154 0.00204,-0.00154 0.00203,-0.00152 0.00202,-0.00151 0.00201,-0.00151 0.002,-0.0015 0.00199,-0.00149 0.00197,-0.00148 0.00197,-0.00148 0.00195,-0.00146 0.00194,-0.00146 0.00194,-0.00145 0.00192,-0.00144 0.00191,-0.00143 0.0019,-0.00143 0.00189,-0.00142 0.00188,-0.00141 0.00187,-0.0014 0.00186,-0.00139 0.00185,-0.00139 0.00183,-0.00138 0.00183,-0.00137 0.00182,-0.00136 0.0018,-0.00136 0.0018,-0.00135 0.00178,-0.00133 0.00178,-0.00134 0.00176,-0.00132 0.00176,-0.00132 0.00174,-0.00131 0.00174,-0.0013 0.00172,-0.00129 0.00172,-0.00129 0.0017,-0.00127 0.00169,-0.00128 0.00169,-0.00126 0.00167,-0.00125 0.00167,-0.00125 0.00165,-0.00124 0.00164,-0.00124 0.00164,-0.00122 0.00162,-0.00122 0.00162,-0.00121 0.0016,-0.00121 0.0016,-0.00119 0.00158,-0.00119 0.00158,-0.00118 0.00156,-0.00118 0.00156,-0.00117 0.00155,-0.00116 0.00153,-0.00115 0.00153,-0.00115 0.00152,-0.00114 0.00151,-0.00113 0.0015,-0.00112 0.00149,-0.00112 0.00148,-0.00111 0.00147,-0.0011 0.00146,-0.0011 0.00145,-0.00109 0.00144,-0.00108 0.00144,-0.00108 0.00142,-0.00107 0.00142,-0.00106 0.0014,-0.00105 0.0014,-0.00105 0.00139,-0.00104 0.00138,-0.00104 0.00137,-0.00102 0.00136,-0.00102 0.00135,-0.00102 0.00134,-0.00101 0.00134,-10e-4 0.00132,-9.9e-4 0.00132,-9.9e-4 0.00131,-9.8e-4 0.00129,-9.7e-4 0.00129,-9.7e-4 0.00129,-9.6e-4 0.00127,-9.6e-4 0.00126,-9.4e-4 0.00126,-9.5e-4 0.00124,-9.3e-4 0.00124,-9.3e-4 0.00123,-9.2e-4 0.00122,-9.2e-4 0.00121,-9.1e-4 0.00121,-9e-4 0.00119,-9e-4 0.00119,-8.9e-4 0.00118,-8.8e-4 0.00117,-8.8e-4 0.00116,-8.7e-4 0.00115,-8.7e-4 0.00115,-8.6e-4 0.00113,-8.5e-4 0.00113,-8.4e-4 0.00112,-8.5e-4 0.00112,-8.3e-4 0.0011,-8.3e-4 0.0011,-8.2e-4 0.00108,-8.2e-4 0.00108,-8.1e-4 0.00108,-8e-4 0.00106,-8e-4 0.00106,-7.9e-4 0.00104,-7.9e-4 0.00105,-7.8e-4 0.00103,-7.7e-4 0.00102,-7.7e-4 0.00102,-7.7e-4 0.00101,-7.5e-4 10e-4,-7.5e-4 9.9e-4,-7.5e-4 9.9e-4,-7.4e-4 9.8e-4,-7.3e-4 9.7e-4,-7.3e-4 9.6e-4,-7.2e-4 9.6e-4,-7.2e-4 9.5e-4,-7.1e-4 9.4e-4,-7.1e-4 9.3e-4,-7e-4 9.3e-4,-6.9e-4 9.1e-4,-6.9e-4 9.1e-4,-6.9e-4 9.1e-4,-6.7e-4 8.9e-4,-6.8e-4 8.9e-4,-6.6e-4 8.9e-4,-6.6e-4 8.7e-4,-6.6e-4 8.7e-4,-6.5e-4 8.6e-4,-6.5e-4 8.5e-4,-6.4e-4 8.5e-4,-6.3e-4 8.4e-4,-6.3e-4 8.3e-4,-6.2e-4 8.2e-4,-6.2e-4 8.2e-4,-6.2e-4 8.1e-4,-6e-4 8e-4,-6.1e-4 8e-4,-6e-4 7.9e-4,-5.9e-4 7.8e-4,-5.9e-4 7.8e-4,-5.8e-4 7.7e-4,-5.8e-4 7.6e-4,-5.7e-4 7.6e-4,-5.7e-4 7.5e-4,-5.6e-4 7.4e-4,-5.5e-4 7.4e-4,-5.6e-4 7.3e-4,-5.4e-4 7.2e-4,-5.5e-4 7.2e-4,-5.3e-4 7.1e-4,-5.4e-4 7e-4,-5.2e-4 7e-4,-5.3e-4 6.9e-4,-5.2e-4 6.8e-4,-5.1e-4 6.8e-4,-5.1e-4 6.7e-4,-5e-4 6.7e-4,-5e-4 6.6e-4,-4.9e-4 6.5e-4,-4.9e-4 6.5e-4,-4.9e-4 6.4e-4,-4.8e-4 6.3e-4,-4.8e-4 6.3e-4,-4.7e-4 6.2e-4,-4.6e-4 6.2e-4,-4.7e-4 6.1e-4,-4.5e-4 6e-4,-4.6e-4 6e-4,-4.4e-4 5.9e-4,-4.5e-4 5.9e-4,-4.4e-4 5.8e-4,-4.3e-4 5.7e-4,-4.3e-4 5.7e-4,-4.3e-4 5.6e-4,-4.2e-4 5.6e-4,-4.2e-4 5.5e-4,-4.1e-4 5.4e-4,-4.1e-4 5.4e-4,-4.1e-4 5.4e-4,-4e-4 5.3e-4,-3.9e-4 5.2e-4,-4e-4 5.2e-4,-3.8e-4 5.1e-4,-3.9e-4 5e-4,-3.8e-4 5e-4,-3.7e-4 5e-4,-3.8e-4 4.9e-4,-3.6e-4 4.8e-4,-3.7e-4 4.8e-4,-3.6e-4 4.8e-4,-3.5e-4 4.7e-4,-3.5e-4 4.6e-4,-3.5e-4 4.6e-4,-3.4e-4 4.5e-4,-3.4e-4 4.5e-4,-3.4e-4 4.4e-4,-3.3e-4 4.4e-4,-3.3e-4 4.3e-4,-3.2e-4 4.3e-4,-3.2e-4 4.2e-4,-3.2e-4 4.2e-4,-3.1e-4 4.1e-4,-3.1e-4 4.1e-4,-3.1e-4 4e-4,-3e-4 4e-4,-3e-4 3.9e-4,-2.9e-4 3.9e-4,-3e-4 3.8e-4,-2.8e-4 3.8e-4,-2.9e-4 3.7e-4,-2.8e-4 3.7e-4,-2.7e-4 3.7e-4,-2.8e-4 3.5e-4,-2.7e-4 3.6e-4,-2.6e-4 3.5e-4,-2.7e-4 3.5e-4,-2.6e-4 3.4e-4,-2.5e-4 3.3e-4,-2.5e-4 3.4e-4,-2.5e-4 3.2e-4,-2.5e-4 3.3e-4,-2.4e-4 3.2e-4,-2.4e-4 3.1e-4,-2.4e-4 3.1e-4,-2.3e-4 3.1e-4,-2.3e-4 3e-4,-2.3e-4 3e-4,-2.2e-4 2.9e-4,-2.2e-4 2.9e-4,-2.2e-4 2.9e-4,-2.1e-4 2.8e-4,-2.1e-4 2.7e-4,-2.1e-4 2.8e-4,-2.1e-4 2.7e-4,-2e-4 2.6e-4,-2e-4 2.6e-4,-1.9e-4 2.6e-4,-1.9e-4 2.5e-4,-1.9e-4 2.5e-4,-1.9e-4 2.5e-4,-1.9e-4 2.4e-4,-1.8e-4 2.4e-4,-1.8e-4 2.3e-4,-1.7e-4 2.3e-4,-1.7e-4 2.3e-4,-1.7e-4 2.2e-4,-1.7e-4 2.2e-4,-1.7e-4 2.2e-4,-1.6e-4 2.1e-4,-1.6e-4 2.1e-4,-1.5e-4 2e-4,-1.6e-4 2.1e-4,-1.5e-4 2e-4,-1.5e-4 1.9e-4,-1.5e-4 1.9e-4,-1.4e-4 1.9e-4,-1.4e-4 1.8e-4,-1.4e-4 1.9e-4,-1.4e-4 1.7e-4,-1.3e-4 1.8e-4,-1.3e-4 1.7e-4,-1.3e-4 1.7e-4,-1.3e-4 1.7e-4,-1.2e-4 1.6e-4,-1.2e-4 1.6e-4,-1.2e-4 1.5e-4,-1.2e-4 1.6e-4,-1.1e-4 1.5e-4,-1.2e-4 1.4e-4,-1.1e-4 1.5e-4,-1.1e-4 1.4e-4,-1e-4 1.4e-4,-10e-5 1.3e-4,-1.1e-4 1.4e-4,-10e-5 1.3e-4,-9e-5 1.2e-4,-10e-5 1.3e-4,-9e-5 1.2e-4,-9e-5 1.2e-4,-9e-5 1.2e-4,-9e-5 1.1e-4,-9e-5 1.1e-4,-8e-5 1.1e-4,-8e-5 1.1e-4,-8e-5 1e-4,-8e-5 10e-5,-7e-5 10e-5,-8e-5 10e-5,-7e-5 9e-5,-7e-5 9e-5,-7e-5 9e-5,-7e-5 9e-5,-6e-5 8e-5,-7e-5 9e-5,-6e-5 8e-5,-6e-5 7e-5,-6e-5 8e-5,-5e-5 7e-5,-6e-5 8e-5,-5e-5 7e-5,-6e-5 6e-5,-5e-5 7e-5,-5e-5 6e-5,-4e-5 6e-5,-5e-5 6e-5,-5e-5 6e-5,-4e-5 6e-5,-4e-5 5e-5,-4e-5 6e-5,-4e-5 5e-5,-4e-5 5e-5,-4e-5 4e-5,-3e-5 5e-5,-4e-5 4e-5,-3e-5 5e-5,-3e-5 4e-5,-3e-5 4e-5,-3e-5 3e-5,-3e-5 4e-5,-3e-5 4e-5,-2e-5 3e-5,-3e-5 3e-5,-2e-5 3e-5,-3e-5 3e-5,-2e-5 3e-5,-2e-5 3e-5,-2e-5 2e-5,-2e-5 3e-5,-2e-5 2e-5,-1e-5 2e-5,-2e-5 2e-5,-2e-5 2e-5,-10e-6 2e-5,-2e-5 2e-5,-1e-5 2e-5,-1e-5 10e-6,-1e-5 2e-5,-10e-6 1e-5,-1e-5 10e-6,-1e-5 10e-6,-1e-5 2e-5,-1e-5 1e-5,-1e-5 10e-6,-1e-5 h 1e-5 v -10e-6 l 10e-6,-1e-5 h 10e-6 v -1e-5 h 1e-5 10e-6 v -1e-5 0 h 1e-5 v 0 l 10e-6,-1e-5 v 0 l 5.3e-4,7e-4 0.00951,-0.00933 c 0.07213,-0.07079 0.13652,-0.09914 0.19592,-0.1057 0.06121,-0.00677 0.12991,0.00819 0.21217,0.04709 0.08268,0.03909 0.17219,0.09904 0.2732,0.17401 0.05016,0.03723 0.10204,0.07731 0.15664,0.11955 l 0.0059,0.00457 c 0.05258,0.04068 0.10754,0.0832 0.16456,0.12595 l -4e-5,6e-5 0.00307,0.00213 c 0.06342,0.04395 0.1659,0.13693 0.29348,0.26319 0.12581,0.12452 0.2709,0.2762 0.41794,0.43312 0.14334,0.15296 0.28968,0.31217 0.42078,0.4548 0.13496,0.14683 0.25377,0.27608 0.33648,0.36282 l 2.0950104,2.34698 5.9e-4,6.5e-4 c 0.09361,0.10302 0.19018,0.22642 0.2902,0.3542399 0.01689,0.02158 0.03387,0.04328 0.05095,0.06503 0.11621,0.147954 0.23713,0.298206 0.35654,0.41358 0.36564,0.365523 0.84539,0.352932 1.194046,0.131094 0.347019,-0.2208 0.573427,-0.654304 0.438527,-1.1344739 -0.04611,-0.16413 -0.176341,-0.36833 -0.339128,-0.58237 -0.165345,-0.2174 -0.373735,-0.45683 -0.588305,-0.69343 -0.14619,-0.16119 -0.29445,-0.32029 -0.43463,-0.47072 -0.27575,-0.29592 -0.52021,-0.55826 -0.65601,-0.73682 l 4.8e-4,-3.7e-4 -0.0076,-0.00803 -3.6417204,-3.82633001 c -0.01251,-0.01377 -0.02531,-0.02802 -0.03843,-0.04262 -0.21534,-0.23967 -0.51715,-0.57558 -1.05153,-0.51545 l -10e-6,-3e-5 -0.0026,3.6e-4 c -0.03869,0.00539 -0.12375,0.0303 -0.2194,0.06057 -0.10019,0.03171 -0.22352,0.07312 -0.34596,0.11629 -0.12234,0.04313 -0.24472,0.08835 -0.34278,0.12767 -0.04893,0.01962 -0.09276,0.03815 -0.12787,0.0545 -0.03159,0.0147 -0.06614,0.03206 -0.08849,0.05009 -0.02536,0.02046 -0.06007,0.05824 -0.09866,0.10298 -0.0406,0.04708 -0.0913,0.1088 -0.15038,0.18268001 -0.11824,0.14789 -0.27191,0.34689 -0.44898,0.58014 -0.35425,0.46665 -0.80363,1.0723 -1.25346,1.68454 -0.8986,1.22279 -1.8019,2.47566 -1.9536,2.70036 -0.0411,0.05977 -0.0864,0.12336 -0.1331997,0.18898 -0.0707,0.09929 -0.14479995,0.20323 -0.21279995,0.30559 -0.1149,0.17297 -0.2225,0.35562 -0.2905,0.53959 -0.0681,0.18423 -0.099,0.37695 -0.0513,0.56614 0.0481,0.1908699 0.1728,0.3641899 0.3892,0.5150609 0.23989995,0.17323 0.46189965,0.243951 0.66859965,0.230506 0.2064,-0.01342 0.3821,-0.10974 0.5314,-0.240369 0.1486,-0.130054 0.2763,-0.298528 0.3883,-0.466538 0.0657,-0.09855 0.1301,-0.2036199 0.1899,-0.3012699 0.0391,-0.06381 0.0763,-0.12445 0.1106,-0.17804 0.0638,-0.08728 0.1773,-0.24518 0.3225,-0.44706 0.0621,-0.08637 0.13,-0.18078 0.2022,-0.28115 0.24312,-0.33764 0.53616,-0.74353 0.82642,-1.14004 0.29034,-0.39663 0.57748,-0.78331 0.80882,-1.08273 0.11573,-0.14979 0.21692,-0.27699 0.29726,-0.37241 0.04021,-0.04774 0.07458,-0.0868 0.10254,-0.11643 0.02928,-0.03105 0.04743,-0.04731 0.05593,-0.05338 z"
     fill="#abffeb"
     stroke="#abffeb"
     stroke-width="0.2"
     id="path40" />
</svg>
