<?xml version="1.0" encoding="utf-8"?>
<!-- Generator: Adobe Illustrator 16.0.0, SVG Export Plug-In . SVG Version: 6.00 Build 0)  -->
<!DOCTYPE svg PUBLIC "-//W3C//DTD SVG 1.1//EN" "http://www.w3.org/Graphics/SVG/1.1/DTD/svg11.dtd">
<svg version="1.1" xmlns="http://www.w3.org/2000/svg" xmlns:xlink="http://www.w3.org/1999/xlink" x="0px" y="0px" width="612px"
	 height="792px" viewBox="0 0 612 792" enable-background="new 0 0 612 792" xml:space="preserve">
<g id="Layer_1">
	<g>
		<g>
			<path fill="#FFFFFF" d="M485.925,82.866l-7.354-21.604l-1.926-0.433l0.166-1.793h10.131l0.166,1.793l-2.159,0.433l5.241,15.909
				l5.222-15.909l-2.392-0.433l0.167-1.793h6.576l0.166,1.793l-1.76,0.433l-7.302,20.585L485.925,82.866z"/>
			<path fill="#FFFFFF" d="M504.203,74.249c0.167,2.625,1.727,4.617,4.185,4.617c1.728,0,3.388-0.73,4.152-1.262l0.896,1.627
				c-1.927,1.794-3.654,2.591-6.676,3.588c-4.916,0-8.337-3.289-8.337-7.872c0-3.389,1.163-7.241,8.304-9.234
				c4.783,0,6.776,2.956,6.776,6.444v2.092H504.203z M508.056,72.19c0-2.525-0.465-4.119-1.827-4.119c-1.295,0-2.06,1.66-2.06,4.418
				L508.056,72.19z"/>
			<path fill="#FFFFFF" d="M523.012,71.725l3.207-5.649h3.466l0.003,5.608h-4.422l-1.989,1.968v6.443l3.587,0.433l-0.166,1.827
				H516.07l-0.166-1.827l1.727-0.433v-11.16l-1.727,0.066l-0.166-1.893l4.617-0.896l2.06-0.134L523.012,71.725z"/>
			<path fill="#FFFFFF" d="M540.247,65.713c4.949,0,6.843,1.362,6.843,5.016v6.41c0,1.263,0.066,1.894,0.365,2.491h1.561
				l0.266,1.827l-6.676,1.362l-1.096-2.725l-3.753,2.725c-3.188,0-5.48-1.794-5.48-4.584c0-1.595,0.731-2.856,1.694-3.621
				l7.307-2.258v-2.06c0-2.026-0.731-2.259-1.495-2.259c-0.598,0-1.096,0.133-1.561,0.432l-0.378,3.232l-5.069-0.01v-3.258
				L540.247,65.713z M541.276,73.983l-2.591,1.029c-0.532,0.532-0.797,1.595-0.797,2.426c0,1.527,0.83,2.225,1.495,2.225
				c0.531,0,0.996-0.266,1.395-0.531l0.498-0.332V73.983z"/>
		</g>
		<g>
			<path fill="#FFFFFF" d="M481.285,89.229h0.712v4.19h-0.712V89.229z"/>
			<path fill="#FFFFFF" d="M485.644,92.211v-2.981h0.688v4.19h-0.754l-1.658-2.981v2.981h-0.688v-4.19h0.754L485.644,92.211z"/>
			<path fill="#FFFFFF" d="M488.068,92.049c0,0.545,0.341,0.856,0.814,0.856c0.383,0,0.688-0.246,0.688-0.623
				c0-0.425-0.377-0.562-0.665-0.664c-0.767-0.27-1.383-0.503-1.383-1.342c0-0.693,0.599-1.148,1.299-1.148
				c0.753,0,1.335,0.532,1.335,1.311h-0.688c0-0.413-0.24-0.694-0.629-0.694c-0.341,0-0.628,0.18-0.628,0.532
				c0,0.342,0.299,0.504,0.611,0.617c0.652,0.233,1.437,0.509,1.437,1.311c0,0.862-0.659,1.317-1.437,1.317
				c-0.761,0-1.443-0.532-1.443-1.473H488.068z"/>
			<path fill="#FFFFFF" d="M491.84,89.846h-1.036v-0.616h2.766v0.616h-1.042v3.574h-0.688V89.846z"/>
			<path fill="#FFFFFF" d="M494.426,89.229h0.712v4.19h-0.712V89.229z"/>
			<path fill="#FFFFFF" d="M497.03,89.846h-1.036v-0.616h2.766v0.616h-1.042v3.574h-0.688V89.846z"/>
			<path fill="#FFFFFF" d="M499.586,89.229h0.688v2.789c0,0.479,0.323,0.887,0.814,0.887c0.503,0,0.826-0.407,0.826-0.887v-2.789
				h0.688v2.789c0,0.814-0.593,1.503-1.515,1.503c-0.904,0-1.503-0.688-1.503-1.503V89.229z"/>
			<path fill="#FFFFFF" d="M504.466,89.846h-1.036v-0.616h2.766v0.616h-1.042v3.574h-0.688V89.846z"/>
			<path fill="#FFFFFF" d="M507.741,89.846v1.186h1.73v0.616h-1.73v1.156h1.73v0.616h-2.419v-4.19h2.419v0.616H507.741z"/>
			<path fill="#FFFFFF" d="M512.32,91.324c0-1.137,0.82-2.196,2.167-2.196s2.167,1.06,2.167,2.196c0,1.138-0.82,2.197-2.167,2.197
				S512.32,92.462,512.32,91.324z M515.93,91.324c0-0.813-0.551-1.58-1.443-1.58s-1.443,0.767-1.443,1.58
				c0,0.814,0.551,1.581,1.443,1.581S515.93,92.139,515.93,91.324z"/>
			<path fill="#FFFFFF" d="M518.366,89.846v1.329h1.73v0.617h-1.73v1.628h-0.688v-4.19h2.418v0.616H518.366z"/>
			<path fill="#FFFFFF" d="M525.479,92.062c0,0.813-0.491,1.46-1.371,1.46c-0.868,0-1.359-0.652-1.359-1.467h0.688
				c0,0.497,0.221,0.851,0.671,0.851c0.455,0,0.683-0.348,0.683-0.844v-2.832h0.688V92.062z"/>
			<path fill="#FFFFFF" d="M526.652,89.229h0.689v2.789c0,0.479,0.323,0.887,0.814,0.887c0.503,0,0.826-0.407,0.826-0.887v-2.789
				h0.688v2.789c0,0.814-0.593,1.503-1.515,1.503c-0.904,0-1.503-0.688-1.503-1.503V89.229z"/>
			<path fill="#FFFFFF" d="M531.375,92.049c0,0.545,0.341,0.856,0.814,0.856c0.383,0,0.688-0.246,0.688-0.623
				c0-0.425-0.377-0.562-0.665-0.664c-0.766-0.27-1.383-0.503-1.383-1.342c0-0.693,0.599-1.148,1.299-1.148
				c0.754,0,1.335,0.532,1.335,1.311h-0.688c0-0.413-0.24-0.694-0.629-0.694c-0.341,0-0.629,0.18-0.629,0.532
				c0,0.342,0.3,0.504,0.611,0.617c0.653,0.233,1.437,0.509,1.437,1.311c0,0.862-0.659,1.317-1.437,1.317
				c-0.76,0-1.443-0.532-1.443-1.473H531.375z"/>
			<path fill="#FFFFFF" d="M535.147,89.846h-1.036v-0.616h2.766v0.616h-1.042v3.574h-0.688V89.846z"/>
			<path fill="#FFFFFF" d="M537.733,89.229h0.712v4.19h-0.712V89.229z"/>
			<path fill="#FFFFFF" d="M543.66,92.073c-0.186,0.814-0.958,1.448-1.987,1.448c-1.371,0-2.203-1.023-2.203-2.203
				c0-1.138,0.813-2.19,2.131-2.19c1.245,0,1.928,0.725,2.059,1.628h-0.724c-0.102-0.575-0.557-1.012-1.245-1.012
				c-0.964,0-1.515,0.755-1.515,1.574c0,0.862,0.568,1.587,1.586,1.587c0.485,0,1.005-0.354,1.143-0.832H543.66z"/>
			<path fill="#FFFFFF" d="M545.366,89.846v1.186h1.73v0.616h-1.73v1.156h1.73v0.616h-2.419v-4.19h2.419v0.616H545.366z"/>
		</g>
	</g>
	<path fill="#FFFFFF" d="M0,0v792h612V0H0z M571.5,751h-531V41h531V751z"/>
	<g>
		<polyline fill="#787D82" points="0,469.113 40.5,256.039 40.5,476.81 		"/>
		<polygon fill="#787D82" points="571.5,412.411 673.538,-124.42 132.363,-227.259 81.374,41 571.5,41 		"/>
		<line fill="#787D82" x1="571.5" y1="412.411" x2="571.5" y2="412.411"/>
		<path fill="#787D82" d="M81.374,41"/>
		<path fill="#787D82" d="M40.5,256.039"/>
	</g>
	<g>
		<polygon fill="#DDDCD8" points="40.5,41 40.5,256.039 81.374,41 		"/>
		<polygon fill="#DDDCD8" points="40.5,476.81 40.5,751 571.5,751 571.5,412.411 541.175,571.955 		"/>
	</g>
</g>
<g id="Layer_2">
</g>
</svg>
