<?xml version="1.0" encoding="utf-8"?>
<!-- Generator: Adobe Illustrator 16.0.0, SVG Export Plug-In . SVG Version: 6.00 Build 0)  -->
<!DOCTYPE svg PUBLIC "-//W3C//DTD SVG 1.1//EN" "http://www.w3.org/Graphics/SVG/1.1/DTD/svg11.dtd">
<svg version="1.1" xmlns="http://www.w3.org/2000/svg" xmlns:xlink="http://www.w3.org/1999/xlink" x="0px" y="0px" width="612px"
	 height="792px" viewBox="0 0 612 792" enable-background="new 0 0 612 792" xml:space="preserve">
<g id="Layer_1">
	<rect x="2.578" fill="#FFFFFF" width="631" height="801"/>
	<g>
		<defs>
			<rect id="SVGID_22_" x="-9.5" y="-7.896" width="631" height="801"/>
		</defs>
		<clipPath id="SVGID_1_">
			<use xlink:href="#SVGID_22_"  overflow="visible"/>
		</clipPath>
		<polygon clip-path="url(#SVGID_1_)" fill="#C3C5C5" points="199.502,-64.706 81.189,45.554 393.775,142.332 		"/>
		<polygon clip-path="url(#SVGID_1_)" fill="#C3C5C5" points="693.207,461.438 540.217,298.396 407.223,727.956 		"/>
		<polygon clip-path="url(#SVGID_1_)" fill="#C3C5C5" points="-189.203,297.542 -58.771,436.544 54.614,70.32 		"/>
		<polygon clip-path="url(#SVGID_1_)" fill="#DDDCD8" points="63.936,40.212 54.614,70.32 81.189,45.554 		"/>
		<polygon clip-path="url(#SVGID_1_)" fill="#DDDCD8" points="571.5,197.356 393.775,142.332 540.217,298.396 		"/>
		<polygon clip-path="url(#SVGID_1_)" fill="#DDDCD8" points="304.501,823.686 -58.771,436.544 -153.974,744.046 353.589,901.189 
			407.223,727.956 		"/>
		<polygon clip-path="url(#SVGID_1_)" fill="#EF4237" points="407.223,727.956 540.217,298.396 393.775,142.332 81.189,45.554 
			54.614,70.32 -58.771,436.544 304.501,823.686 		"/>
	</g>
	<g>
		<g>
			<path fill="#FD4F57" d="M52.47,742.362l-7.354-21.604l-1.926-0.433l0.166-1.794h10.13l0.166,1.794l-2.159,0.433l5.24,15.909
				l5.222-15.909l-2.391-0.433l0.166-1.794h6.576l0.166,1.794l-1.76,0.433l-7.302,20.585L52.47,742.362z"/>
			<path fill="#FD4F57" d="M70.749,733.745c0.166,2.624,1.727,4.617,4.185,4.617c1.728,0,3.388-0.73,4.152-1.262l0.896,1.627
				c-1.926,1.794-3.653,2.591-6.676,3.587c-4.916,0-8.337-3.288-8.337-7.872c0-3.388,1.162-7.24,8.304-9.233
				c4.783,0,6.775,2.956,6.775,6.444v2.092H70.749z M74.601,731.686c0-2.524-0.465-4.118-1.827-4.118
				c-1.295,0-2.059,1.66-2.059,4.418L74.601,731.686z"/>
			<path fill="#FD4F57" d="M89.557,731.221l3.207-5.649h3.466l0.003,5.608h-4.422l-1.988,1.968v6.443l3.587,0.432l-0.166,1.827
				H82.615l-0.166-1.827l1.727-0.432v-11.16l-1.727,0.066l-0.166-1.893l4.617-0.897l2.059-0.133L89.557,731.221z"/>
			<path fill="#FD4F57" d="M106.792,725.209c4.949,0,6.843,1.362,6.843,5.016v6.41c0,1.263,0.066,1.894,0.365,2.491h1.561
				l0.266,1.827l-6.677,1.361l-1.096-2.724l-3.754,2.724c-3.188,0-5.48-1.793-5.48-4.583c0-1.595,0.731-2.857,1.694-3.621
				l7.307-2.258v-2.06c0-2.026-0.731-2.259-1.495-2.259c-0.598,0-1.096,0.133-1.561,0.432l-0.379,3.231l-5.069-0.009v-3.258
				L106.792,725.209z M107.821,733.479l-2.59,1.029c-0.532,0.532-0.797,1.595-0.797,2.425c0,1.528,0.831,2.226,1.495,2.226
				c0.531,0,0.996-0.266,1.395-0.531l0.498-0.332V733.479z"/>
		</g>
		<g>
			<path fill="#FD4F57" d="M47.831,748.726h0.712v4.19h-0.712V748.726z"/>
			<path fill="#FD4F57" d="M52.189,751.706v-2.98h0.688v4.19h-0.755l-1.658-2.981v2.981h-0.688v-4.19h0.754L52.189,751.706z"/>
			<path fill="#FD4F57" d="M54.613,751.545c0,0.545,0.342,0.856,0.814,0.856c0.383,0,0.688-0.246,0.688-0.623
				c0-0.425-0.377-0.562-0.665-0.664c-0.766-0.27-1.383-0.503-1.383-1.342c0-0.694,0.599-1.148,1.299-1.148
				c0.754,0,1.335,0.532,1.335,1.311h-0.688c0-0.413-0.24-0.694-0.629-0.694c-0.341,0-0.628,0.18-0.628,0.532
				c0,0.342,0.299,0.504,0.611,0.617c0.652,0.233,1.437,0.509,1.437,1.311c0,0.862-0.658,1.317-1.437,1.317
				c-0.761,0-1.443-0.532-1.443-1.473H54.613z"/>
			<path fill="#FD4F57" d="M58.385,749.342h-1.036v-0.616h2.766v0.616h-1.042v3.574h-0.688V749.342z"/>
			<path fill="#FD4F57" d="M60.971,748.726h0.712v4.19h-0.712V748.726z"/>
			<path fill="#FD4F57" d="M63.575,749.342H62.54v-0.616h2.766v0.616h-1.042v3.574h-0.689V749.342z"/>
			<path fill="#FD4F57" d="M66.131,748.726h0.688v2.789c0,0.479,0.323,0.887,0.814,0.887c0.503,0,0.826-0.407,0.826-0.887v-2.789
				h0.688v2.789c0,0.814-0.593,1.503-1.515,1.503c-0.904,0-1.503-0.688-1.503-1.503V748.726z"/>
			<path fill="#FD4F57" d="M71.011,749.342h-1.036v-0.616h2.766v0.616h-1.042v3.574h-0.688V749.342z"/>
			<path fill="#FD4F57" d="M74.286,749.342v1.186h1.73v0.616h-1.73v1.156h1.73v0.616h-2.418v-4.19h2.418v0.616H74.286z"/>
			<path fill="#FD4F57" d="M78.865,750.82c0-1.138,0.82-2.196,2.167-2.196s2.167,1.059,2.167,2.196s-0.82,2.197-2.167,2.197
				S78.865,751.958,78.865,750.82z M82.475,750.82c0-0.813-0.551-1.58-1.443-1.58s-1.443,0.767-1.443,1.58
				c0,0.814,0.551,1.581,1.443,1.581S82.475,751.635,82.475,750.82z"/>
			<path fill="#FD4F57" d="M84.912,749.342v1.329h1.73v0.617h-1.73v1.628h-0.688v-4.19h2.419v0.616H84.912z"/>
			<path fill="#FD4F57" d="M92.024,751.557c0,0.814-0.491,1.461-1.371,1.461c-0.868,0-1.359-0.652-1.359-1.467h0.688
				c0,0.497,0.221,0.851,0.67,0.851c0.455,0,0.683-0.348,0.683-0.845v-2.831h0.688V751.557z"/>
			<path fill="#FD4F57" d="M93.197,748.726h0.689v2.789c0,0.479,0.323,0.887,0.814,0.887c0.503,0,0.826-0.407,0.826-0.887v-2.789
				h0.688v2.789c0,0.814-0.593,1.503-1.515,1.503c-0.904,0-1.503-0.688-1.503-1.503V748.726z"/>
			<path fill="#FD4F57" d="M97.92,751.545c0,0.545,0.342,0.856,0.814,0.856c0.383,0,0.688-0.246,0.688-0.623
				c0-0.425-0.377-0.562-0.665-0.664c-0.766-0.27-1.383-0.503-1.383-1.342c0-0.694,0.599-1.148,1.3-1.148
				c0.754,0,1.335,0.532,1.335,1.311h-0.688c0-0.413-0.24-0.694-0.629-0.694c-0.341,0-0.629,0.18-0.629,0.532
				c0,0.342,0.3,0.504,0.611,0.617c0.652,0.233,1.437,0.509,1.437,1.311c0,0.862-0.658,1.317-1.437,1.317
				c-0.761,0-1.443-0.532-1.443-1.473H97.92z"/>
			<path fill="#FD4F57" d="M101.692,749.342h-1.035v-0.616h2.766v0.616h-1.042v3.574h-0.688V749.342z"/>
			<path fill="#FD4F57" d="M104.279,748.726h0.712v4.19h-0.712V748.726z"/>
			<path fill="#FD4F57" d="M110.206,751.569c-0.186,0.813-0.958,1.448-1.988,1.448c-1.371,0-2.203-1.023-2.203-2.203
				c0-1.138,0.814-2.19,2.131-2.19c1.245,0,1.928,0.724,2.06,1.628h-0.725c-0.102-0.575-0.557-1.012-1.245-1.012
				c-0.964,0-1.515,0.754-1.515,1.574c0,0.862,0.568,1.587,1.586,1.587c0.485,0,1.006-0.354,1.143-0.832H110.206z"/>
			<path fill="#FD4F57" d="M111.912,749.342v1.186h1.73v0.616h-1.73v1.156h1.73v0.616h-2.418v-4.19h2.418v0.616H111.912z"/>
		</g>
	</g>
</g>
<g id="Layer_2">
</g>
</svg>
