<svg xmlns="http://www.w3.org/2000/svg">
<defs>
<font id="c20970fef70b88078066c6455c9f7eaf" horiz-adv-x='1024' >
  <font-face 
    font-family="GTSectra-Book"
    font-weight="300"
    font-stretch="normal"
    units-per-em="2048"
    panose-1="2 0 5 3 7 0 0 2 0 3"
    ascent="1536"
    descent="-512"
    x-height="956"
    cap-height="1436"
    bbox="-328 -547 4098 1962"
    underline-thickness="102"
    underline-position="-102"
    unicode-range="U+000D-FB04"
  />
<missing-glyph horiz-adv-x="1280" 
d="M1083 791h11l10 14v14l-21 -8v-20zM944 1085l-16 -8v-18l16 -6l4 14zM786 1315l-16 -19v-39l25 -12l6 35zM377 1020l121 24l-9 25zM657 1065l-8 -25l101 -34l6 8zM895 735v-26l90 8l8 18h-98zM586 512h139v12l-139 8v-20zM745 639h-149v-21h149v21zM360 416l-151 102
l41 -47l102 -84zM745 575l-147 15l-12 -27l159 -8v20zM438 930l2 8l29 4l-27 12l4 15l-40 -2l6 -39l28 -31l25 -12l22 10l33 25l12 24l5 27l-45 -8l12 -21l-25 -27l-28 -2zM1145 639l-12 -6l-68 -55l80 -99v160zM688 932l-14 -23h-25l-10 15l23 16l-31 4v12l-47 9l6 -35
l16 -29l41 -18l27 -2l37 20l12 19l10 41l-61 4l14 -11zM825 688l9 62l-111 10l-6 -72h108zM815 1198l10 -12l39 22l17 -4l12 -49h27l12 12l-19 37l35 58l-30 18v10l-52 15v-41l-26 -11v-18l-19 -12zM1012 639l32 -25l17 4l41 31l26 27l23 37l-14 10h-29l-21 6l-28 14l-35 -6
q-4 -27 -7 -46q-3 -18 -5 -52zM717 438l-131 8v-104l131 -12v108zM360 678l-135 80v-15l-4 -26l2 -55v-99l131 -90l-2 123zM985 678l-111 2l-2 -49v-13l-4 -63l39 -6l-16 -125l-98 6l-17 -12l105 -10l-4 -19h-101l-8 -10l109 -14l-13 -72l56 -2l24 162l8 73l-30 6l-2 17
l41 2l10 6l-58 33l5 10l61 -12l-61 30l10 11l43 -11l8 21zM133 831h-43l39 -28l2 -23l-41 15l37 -37l-8 -15l6 -198l22 -25v369l117 -66l15 21l-140 78v36l121 -69l88 -58l58 -28l6 20l-211 131l-27 15l-84 67l4 -159l39 -35v-11zM1200 952l-16 76l-39 102l-41 74l-47 58
l-70 43h-22l34 -39l52 -21l22 -22l6 -68l-51 27l-31 -60l25 -16v-39l31 6l-25 53l31 -10l20 -41l-10 -24l-16 -15h-47l-7 23l-24 4l2 -45h-29l29 -37l-14 -20l-43 10l-7 -56l84 13l17 35l45 -5l12 -57l-33 -27v-30l17 -13l37 25h47l12 23l-37 12l-10 18l18 86h15l28 -41z

<glyph glyph-name="ff" unicode="ff" horiz-adv-x="1306" 
d="M401 1001v-59h443v29q0 96 27.5 161.5t80.5 131.5l160 190h250v-151h-266l-41 -52q-37 -52 -42 -115t-5 -116v-78h252v-90h-252v-774l243 -12l-10 -68l-295 6l-194 -6l-11 61l103 19v774h-443v-774l179 -12l-11 -68l-229 6l-244 -6l-10 61l152 19v774h-185v33l58 67h127
q0 102 38.5 173t92.5 132l137 166h344l-111 -151h-250l-38 -51q-50 -60 -50 -220z" />
    <glyph glyph-name="fi" unicode="fi" horiz-adv-x="1189" 
d="M401 852v-774l158 -12l-10 -68l-209 6l-244 -6l-10 61l152 19v774h-185v33l58 67h127v19q0 96 28.5 161.5t81.5 131.5l158 190h479v-176h-47l-131 25h-313l-43 -52q-50 -70 -50 -231v-78h367l123 10l94 11v-885l164 -19l-10 -61l-230 6l-180 -6l-10 68l102 12v708l10 80
l-69 -14h-361z" />
    <glyph glyph-name="fl" unicode="fl" horiz-adv-x="1202" 
d="M238 971q0 96 28.5 161.5t81.5 131.5l158 190h282l162 8h58v-1384l163 -19l-10 -61l-229 6l-205 -6l-10 61l127 19v774h-443v-774l179 -12l-11 -68l-229 6l-244 -6l-10 61l152 19v774h-185v33l58 67h127v19zM844 942v401l-117 -40h-233l-43 -52q-50 -70 -50 -231v-78h443
z" />
    <glyph glyph-name="ffi" unicode="ffi" horiz-adv-x="1794" 
d="M844 852h-443v-774l179 -12l-11 -68l-229 6l-244 -6l-10 61l152 19v774h-185v33l58 67h127q0 102 38.5 173t92.5 132l137 166h344l-111 -151h-250l-38 -51q-50 -60 -50 -220v-59h443v29q0 96 27.5 161.5t80.5 131.5l160 190h477v-176h-47l-131 25h-313l-43 -52
q-49 -69 -49 -231v-78h366l123 10l94 11v-885l164 -19l-10 -61l-230 6l-180 -6l-10 68l102 12v708l11 80l-70 -14h-360v-774l157 -12l-10 -68l-209 6l-242 -6l-10 61l152 19v774z" />
    <glyph glyph-name="ffl" unicode="ffl" horiz-adv-x="1806" 
d="M1448 942v401l-117 -40h-233l-43 -52q-37 -52 -42 -115t-5 -116v-78h440zM844 852h-443v-774l179 -12l-11 -68l-229 6l-244 -6l-10 61l152 19v774h-185v33l58 67h127q0 102 38.5 173t92.5 132l137 166h344l-111 -151h-250l-38 -51q-50 -60 -50 -220v-59h443v29
q0 96 27.5 161.5t80.5 131.5l160 190h281l161 8h58v-1384l164 -19l-11 -61l-229 6l-205 -6l-10 61l127 19v774h-440v-774l178 -12l-10 -68l-230 6l-194 -6l-11 61l103 19v774z" />
    <glyph glyph-name="Th" unicode="Th" horiz-adv-x="2185" 
d="M1825 674q0 166 -139 166q-69 0 -230 -99l-67 -41v-620l120 -19l-10 -63l-186 6l-205 -6l-10 63l127 19v1266l-66 -9l-446 6v-1255l241 -27l-10 -63l-321 6l-336 -6l-11 63l254 27v1255l-325 -6l-92 -245h-72v346l575 -4l512 4l207 26l54 -2v-669l297 194
q190 0 236 -65.5t55.5 -135t9.5 -168.5v-538l163 -19l-10 -63l-229 6l-182 -6l-11 63l107 19v594z" />
    <glyph glyph-name="fb" unicode="fb" horiz-adv-x="1748" 
d="M1412 173.5q77 107.5 77 282.5t-64 280.5t-163 105.5q-98 0 -211 -90l-68 -56v-544q73 -86 213 -86q139 0 216 107.5zM401 1008v-66h254v-90h-254v-772l244 -10l-10 -72l-295 6l-244 -6l-10 63l152 19v772h-185v33l58 67h127v19q0 96 28.5 161.5t81.5 131.5l158 190h258
l162 8h57v-669l252 194q182 0 304 -127.5t122 -341.5q0 -377 -198 -456t-304 -93q-140 0 -198 22.5t-84.5 39t-57.5 32.5v1280l-117 -40h-213l-40 -58q-48 -61 -48 -237z" />
    <glyph glyph-name="ffb" unicode="ffb" horiz-adv-x="2353" 
d="M2017 173.5q76 107.5 76 282.5t-64 280.5t-163 105.5q-98 0 -211 -90l-68 -56v-544q73 -86 214 -86q140 0 216 107.5zM2265 518q0 -479 -502 -549q-138 0 -196 22.5t-85.5 39t-58.5 32.5v1280l-116 -40h-211l-43 -58q-45 -57 -45 -237v-66h252v-90h-252v-772l243 -10
l-10 -72l-295 6l-194 -6l-11 61l103 19v774h-443v-774l179 -12l-11 -68l-229 6l-244 -6l-10 61l152 19v774h-185v33l58 67h127q1 102 39 173t92 132l137 166h344l-111 -151h-250l-38 -51q-50 -60 -50 -220v-59h443v29q0 96 27.5 161.5t80.5 131.5l160 190h256l162 8h57v-669
l252 194q181 0 303.5 -126.5t122.5 -342.5z" />
    <glyph glyph-name="ffh" unicode="ffh" horiz-adv-x="2406" 
d="M2046 674q0 166 -139 166q-47 0 -107.5 -31t-122.5 -68l-65 -41v-620l121 -19l-11 -63l-186 6l-205 -6l-10 63l127 19v1263l-117 -40h-235l-43 -58q-45 -57 -45 -237v-66h252v-90h-252v-772l178 -10l-10 -72l-230 6l-194 -6l-11 61l103 19v774h-443v-774l179 -12l-11 -68
l-229 6l-244 -6l-10 61l152 19v774h-185v33l58 67h127q1 102 39 173t92 132l137 166h344l-111 -151h-250l-38 -51q-50 -60 -50 -220v-59h443v29q0 96 27.5 161.5t80.5 131.5l160 190h281l161 8h58v-669l295 194q193 0 247 -79.5t54 -289.5v-538l164 -19l-11 -63l-229 6
l-182 -6l-11 63l107 19v594z" />
    <glyph glyph-name="ffj" unicode="ffj" horiz-adv-x="1705" 
d="M1159 -481v162h191l22 45q14 29 28.5 73.5t14.5 141.5v845l10 80l-69 -14h-350v-774l182 -12l-10 -68l-244 6l-184 -6l-11 61l103 19v774h-441v-774l179 -12l-11 -68l-229 6l-244 -6l-10 61l152 19v774h-185v33l58 67h127q0 102 38.5 173t92.5 132l137 166h344l-111 -151
h-250l-38 -51q-50 -60 -50 -220v-59h441v29q0 96 28.5 161.5t81.5 131.5l158 190h471v-176h-49l-131 25h-303l-43 -52q-49 -69 -49 -231v-78h356l217 21v-994q0 -72 -17.5 -129t-68.5 -121l-172 -200h-162z" />
    <glyph glyph-name="ffk" unicode="ffk" horiz-adv-x="2312" 
d="M1008 1008v-66h252v-90h-252v-772l178 -10l-10 -72l-230 6l-244 -6l-10 63l152 19v772h-443v-774l179 -12l-11 -68l-229 6l-244 -6l-10 61l152 19v774h-185v33l58 67h127q1 102 39 173t92 132l137 166h344l-111 -151h-250l-38 -51q-50 -60 -50 -220v-59h443v29
q0 96 27.5 161.5t80.5 131.5l160 190h281l219 8v-907l55 23l332 299l-43 18v63l158 -6l141 6l10 -63l-104 -18l-398 -326l39 -23l406 -448l94 -19l-8 -63l-152 6l-119 -6l-393 479l-18 41v-438l123 -19l-11 -63l-182 6l-235 -6l-11 63l152 19v1263l-117 -40h-235l-43 -58
q-45 -57 -45 -237z" />
    <glyph glyph-name="fh" unicode="fh" horiz-adv-x="1802" 
d="M1442 674q0 166 -139 166q-47 0 -107.5 -31t-122.5 -68l-65 -41v-620l120 -19l-10 -63l-186 6l-205 -6l-10 63l127 19v1263l-117 -40h-238l-40 -58q-48 -61 -48 -237v-66h254v-90h-254v-772l179 -10l-11 -72l-229 6l-244 -6l-10 63l152 19v772h-185v33l58 67h127v19
q0 96 28.5 161.5t81.5 131.5l158 190h282l162 8h58v-669l295 194q193 0 247 -79.5t54 -289.5v-538l163 -19l-10 -63l-229 6l-182 -6l-11 63l107 19v594z" />
    <glyph glyph-name="fj" unicode="fj" horiz-adv-x="1101" 
d="M555 -481v162h190l23 45q14 29 28.5 73.5t14.5 141.5v845l10 80l-69 -14h-351v-772l183 -12l-11 -70l-245 6l-232 -6l-10 61l152 21v772h-185v33l58 67h127v19q0 96 28.5 161.5t81.5 131.5l158 190h471v-176h-49l-131 25h-303l-43 -52q-50 -70 -50 -231v-78h357l217 21
v-994q0 -72 -17.5 -129t-68.5 -121l-172 -200h-162z" />
    <glyph glyph-name="fk" unicode="fk" horiz-adv-x="1708" 
d="M401 1008v-66h254v-90h-254v-772l179 -10l-11 -72l-229 6l-244 -6l-10 63l152 19v772h-185v33l58 67h127v19q0 96 28.5 161.5t81.5 131.5l158 190h282l220 10v-909l53 23l334 299l-43 18v63l157 -6l142 6l10 -63l-105 -18l-397 -326l37 -23l408 -448l94 -19l-8 -63
l-152 6l-119 -6l-393 479l-18 41v-438l122 -19l-10 -63l-182 6l-236 -6l-10 63l152 19v1263l-117 -40h-238l-40 -58q-48 -61 -48 -237z" />
    <glyph glyph-name="ft" unicode="ft" horiz-adv-x="1345" 
d="M1126 113q76 0 183 57l32 -61l-249 -140q-170 0 -202 49.5t-35 97.5t-3 113v623h-451v-772l220 -10l-11 -72l-270 6l-244 -6l-10 63l152 19v772h-185v33l58 67h127v19q0 96 28.5 161.5t81.5 131.5l158 190h399l-141 -151h-275l-40 -58q-48 -61 -48 -237v-66h459v141
l115 127h39v-274h319v-86h-317v-617q0 -120 110 -120z" />
    <glyph glyph-name="fu" unicode="fu" horiz-adv-x="1775" 
d="M977 276q0 -159 141 -159q65 0 130 35.5t128 78.5l43 27v582l-129 -11l-10 74l217 51l86 9v-699q0 -101 25 -158h106l8 -63l-239 -49l-58 162l-299 -187q-194 0 -243 61.5t-58.5 126t-9.5 152.5v471l6 82l-65 -10h-355v-772l244 -10l-10 -72l-295 6l-244 -6l-10 63
l152 19v772h-185v33l58 67h127v19q0 96 28.5 161.5t81.5 131.5l158 190h250v-151h-267l-40 -58q-48 -61 -48 -237v-66h361l215 21v-687z" />
    <glyph glyph-name="fy" unicode="fy" horiz-adv-x="1658" 
d="M725 -481v182h156l202 319l-49 -14l-346 864h-287v-790l244 -10l-10 -72l-295 6l-244 -6l-10 63l152 19v772h-185v33l58 67h127v19q0 96 28.5 161.5t81.5 131.5l158 190h250v-151h-267l-40 -58q-48 -61 -48 -239v-50h592l11 -61l-144 -21l238 -622l12 -131l266 753
l-94 21l10 63l176 -6l170 6l11 -63l-136 -21l-331 -845l-236 -510h-221z" />
    <glyph glyph-name="gg" unicode="gg" horiz-adv-x="1990" 
d="M1404 899q-79 0 -128 -59.5t-49 -161.5q0 -156 76.5 -205t154.5 -49t128 50t50 145t-33.5 157t-76.5 92.5t-122 30.5zM1204 -213q0 -78 74 -129t189 -51t204.5 75.5t89.5 186.5q0 59 -48 86t-163 27h-233q-108 -123 -110.5 -155t-2.5 -40zM1067 71v138l205 145
q-98 31 -156.5 99.5t-58.5 178.5t88 206t295 149q100 0 181 -33.5t128 -93.5l117 127h114v-164h-122l-70 -35q18 -52 18 -90q0 -123 -89 -218t-296 -148h-27q-28 0 -44 2l-127 -146q0 -29 22.5 -48t57.5 -19h385q129 0 189 -59.5t60 -151.5q0 -116 -133.5 -231t-345.5 -179
q-219 0 -317.5 70t-98.5 213v37l209 178q-184 48 -184 73zM454 899q-78 0 -128 -59.5t-50 -154.5t34 -150.5t77 -83t121 -27.5t128 50t50 146t-34 157t-77 91.5t-121 30.5zM205 -213q0 -78 73.5 -129t188.5 -51t203 76t88 186q0 59 -48 86t-163 27h-217
q-116 -126 -120.5 -156.5t-4.5 -38.5zM856 698q0 -123 -89 -218t-296 -148h-27q-28 0 -45 2l-127 -146q0 -29 21.5 -48t58.5 -19h332q129 0 189.5 -59.5t60.5 -162.5t-131.5 -218t-343.5 -181q-219 0 -317.5 70t-98.5 213v37l221 178q-142 48 -144.5 112t-2.5 95v4l205 145
q-98 31 -157 99.5t-59 178.5t87 206t296 149q100 0 181.5 -33.5t128.5 -93.5l104 127h82l27 -164h-117l-57 -35q18 -52 18 -90z" />
    <glyph glyph-name="ky" unicode="ky" horiz-adv-x="1994" 
d="M1063 -481v182h154l202 319l-49 -14l-346 866l-86 -6l-399 -315l39 -23l405 -446l96 -21l-8 -63l-153 2l-117 -2l-395 479l-19 45v-440l123 -21l-10 -63l-183 6l-235 -6l-10 63l151 21v1249l-151 -4l-11 62l232 65l94 8v-909l53 22l336 297l-43 23v61h598l10 -61
l-143 -21l236 -622l14 -131l264 753l-92 21l10 63l176 -6l168 6l11 -63l-134 -21l-342 -845l-227 -510h-219z" />
    <glyph glyph-name="tt" unicode="tt" horiz-adv-x="1394" 
d="M1133 113q77 0 184 57l33 -61l-252 -140q-170 0 -202 49.5t-34 97.5t-2 113v621h-483v-617q0 -120 110 -120q67 0 179 57l30 -61l-243 -140q-170 0 -202 49.5t-35 97.5t-3 113v621h-203v35l70 69h141v129l115 127h39v-274h491v147l115 127h41v-274h369v-86h-367v-617
q0 -120 109 -120z" />
    <glyph glyph-name="ty" unicode="ty" horiz-adv-x="1677" 
d="M487 113q68 0 189 59l31 -61l-254 -142q-170 0 -202 49.5t-35 97.5t-3 113v615h-203v33l70 69h141v137l115 127h39v-254h637l10 -61l-143 -21l235 -622l14 -131l267 753l-95 21l11 63l176 -6l170 6l10 -63l-135 -21l-340 -845l-227 -510h-222v182h156l201 319l-47 -14
l-348 866h-328v-639q0 -120 110 -120z" />
    <glyph glyph-name="www" unicode="www" horiz-adv-x="4108" 
d="M2066 567l-8 133l-248 -665l-143 -64l-217 621l2 119l-240 -676l-145 -64l-207 596l-10 133l-246 -665l-145 -64l-314 903l-135 21l10 63l213 -6l187 6l10 -63l-121 -21l211 -634l17 -109l243 670l-26 73l-86 21l10 63l164 -6l184 6l10 -63l-118 -21l210 -634l17 -109
l237 660l-28 83l-137 21l10 63l213 -6l186 6l10 -63l-118 -21l211 -634l16 -109l242 670l-27 73l-86 21l10 63l164 -6l186 6l11 -63l-121 -21l211 -634l16 -109l238 660l-29 83l-135 21l10 63l213 -6l184 6l11 -63l-119 -21l211 -634l16 -109l244 670l-29 73l-86 21l10 63
l164 -6l187 6l10 -63l-119 -21l209 -634l16 -109l269 743l-95 21l11 63l137 -6l209 6l10 -63l-135 -21l-338 -839l-143 -64l-207 596l-10 133l-246 -665l-146 -64l-217 621l2 119l-239 -676l-146 -64z" />
    <glyph glyph-name=".notdef" horiz-adv-x="1280" 
d="M1083 791h11l10 14v14l-21 -8v-20zM944 1085l-16 -8v-18l16 -6l4 14zM786 1315l-16 -19v-39l25 -12l6 35zM377 1020l121 24l-9 25zM657 1065l-8 -25l101 -34l6 8zM895 735v-26l90 8l8 18h-98zM586 512h139v12l-139 8v-20zM745 639h-149v-21h149v21zM360 416l-151 102
l41 -47l102 -84zM745 575l-147 15l-12 -27l159 -8v20zM438 930l2 8l29 4l-27 12l4 15l-40 -2l6 -39l28 -31l25 -12l22 10l33 25l12 24l5 27l-45 -8l12 -21l-25 -27l-28 -2zM1145 639l-12 -6l-68 -55l80 -99v160zM688 932l-14 -23h-25l-10 15l23 16l-31 4v12l-47 9l6 -35
l16 -29l41 -18l27 -2l37 20l12 19l10 41l-61 4l14 -11zM825 688l9 62l-111 10l-6 -72h108zM815 1198l10 -12l39 22l17 -4l12 -49h27l12 12l-19 37l35 58l-30 18v10l-52 15v-41l-26 -11v-18l-19 -12zM1012 639l32 -25l17 4l41 31l26 27l23 37l-14 10h-29l-21 6l-28 14l-35 -6
q-4 -27 -7 -46q-3 -18 -5 -52zM717 438l-131 8v-104l131 -12v108zM360 678l-135 80v-15l-4 -26l2 -55v-99l131 -90l-2 123zM985 678l-111 2l-2 -49v-13l-4 -63l39 -6l-16 -125l-98 6l-17 -12l105 -10l-4 -19h-101l-8 -10l109 -14l-13 -72l56 -2l24 162l8 73l-30 6l-2 17
l41 2l10 6l-58 33l5 10l61 -12l-61 30l10 11l43 -11l8 21zM133 831h-43l39 -28l2 -23l-41 15l37 -37l-8 -15l6 -198l22 -25v369l117 -66l15 21l-140 78v36l121 -69l88 -58l58 -28l6 20l-211 131l-27 15l-84 67l4 -159l39 -35v-11zM1200 952l-16 76l-39 102l-41 74l-47 58
l-70 43h-22l34 -39l52 -21l22 -22l6 -68l-51 27l-31 -60l25 -16v-39l31 6l-25 53l31 -10l20 -41l-10 -24l-16 -15h-47l-7 23l-24 4l2 -45h-29l29 -37l-14 -20l-43 10l-7 -56l84 13l17 35l45 -5l12 -57l-33 -27v-30l17 -13l37 25h47l12 23l-37 12l-10 18l18 86h15l28 -41z
M672 1130h16l21 46l22 16l-10 12l-6 17l2 43l-62 -21l-20 -16l-17 10l9 43l28 20l23 23l78 -4l24 27l-8 16h-100l-92 -27l-109 -53l-59 -47l-52 -70l60 25l26 -31l-34 -41l-21 -6l35 -6h10l74 49h65l37 -25l17 7l8 28l14 11l21 -9v-37zM1014 817l-8 14h-420l-135 -6l-15 -18
l-12 -90l-98 41l-23 -8l117 -56l2 -92l-10 -149v-187l37 8l4 82l84 -6l6 19l-90 12v33l98 -13l2 19l-96 14l2 45l88 -6l6 12l-92 19l6 192h151l23 21h-162l4 18h152l16 15h-168l4 45l240 8l287 -8v22zM1239 942l-6 -84l-16 -72l-25 -63l-6 -320l-43 -14l-103 143l-55 -14
l-39 -287l-65 9l-15 -9l-8 -192l62 -39l32 -29l-6 -30l-61 2l-49 37h-29l-16 16l14 156l-8 96l-125 2l-6 -107l-4 -114v-41l-31 -13l-17 13l-61 -21h-66l-2 23l23 22l102 43l-12 197l-201 -12l-301 286l-8 236l-27 20l-20 74v53l31 17l-6 159l188 -127l18 97l21 73l45 72
l57 72l80 59l160 60h45l-139 45l8 34h14l162 -40l-8 104l33 25h65l39 -11l59 -51l66 -16l65 -21l31 -26v-41l-41 -64l62 -57l57 -66l37 -69l31 -84z" />
    <glyph glyph-name=".null" horiz-adv-x="0" 
 />
    <glyph glyph-name=".null" horiz-adv-x="0" 
 />
    <glyph glyph-name="nonmarkingreturn" unicode="&#xd;" horiz-adv-x="655" 
 />
    <glyph glyph-name="space" unicode=" " horiz-adv-x="493" 
 />
    <glyph glyph-name="exclam" unicode="!" horiz-adv-x="538" 
d="M172 197l139 8l58 -8l8 -107l-8 -90l-140 -10l-57 10l-10 106zM342 879l-55 -398h-39l-55 396l-7 577h162z" />
    <glyph glyph-name="quotedbl" unicode="&#x22;" horiz-adv-x="714" 
d="M113 1249l-11 107l11 90l137 8l59 -8l8 -105l-8 -92l-127 -286l-67 26q40 90 55.5 161t15.5 91zM418 1249l-10 107l10 90l139 8l57 -8l9 -105l-9 -92l-125 -286l-69 26q37 84 54.5 158t17.5 94z" />
    <glyph glyph-name="numbersign" unicode="#" horiz-adv-x="1288" 
d="M977 1341l-49 -399h278l-12 -94h-279l-41 -354h275l-12 -95h-277l-47 -399h-100l47 399h-305l-47 -399h-101l47 399h-272l12 95h275l41 354h-271l13 94h270l49 399h100l-49 -399h305l50 399h100zM469 494h305l41 354h-305z" />
    <glyph glyph-name="dollar" unicode="$" horiz-adv-x="1150" 
d="M330 1139q0 -98 57 -155.5t145 -94.5l33 -15v496q-111 -8 -173 -70.5t-62 -160.5zM885 340q0 190 -221 283v-553q109 20 165 94t56 176zM985 1090h-88l-59 186q-69 73 -174 90v-530l94 -39q139 -63 219 -144.5t80 -234.5q0 -218 -140.5 -306.5t-252.5 -121.5v-154h-99
v129q-6 0 -8 -2q-147 0 -244.5 37t-175.5 102l-45 258h133l72 -170q41 -53 114.5 -86.5t153.5 -40.5v603l-149 63q-264 100 -264 338q0 148 114 245t299 144v143h99v-131q184 -9 321 -116v-262z" />
    <glyph glyph-name="percent" unicode="%" horiz-adv-x="1593" 
d="M1010 382q0 -336 186 -335q122 0 143 114.5t21 172.5t-10.5 113t-33 97t-57 66.5t-81.5 24.5q-88 0 -128 -80.5t-40 -172.5zM937.5 578.5q81.5 91.5 268.5 117.5q144 0 224.5 -95t80.5 -251t-77.5 -246.5t-270.5 -117.5q-143 0 -225 96.5t-82 250.5t81.5 245.5zM236 1135
q0 -336 186 -336q120 0 141 113.5t21 171.5t-10.5 113.5t-32 97.5t-57.5 66.5t-83 24.5q-84 0 -124.5 -79.5t-40.5 -171.5zM161.5 1328q79.5 93 270.5 120q141 0 222 -95.5t81 -251.5t-78 -246.5t-270 -117.5q-143 0 -224 98t-81 249t79.5 244zM379 -10h-121l1014 1454h121z
" />
    <glyph glyph-name="ampersand" unicode="&#x26;" horiz-adv-x="1462" 
d="M385 1174q0 -94 164 -291q96 76 127 121t40 78.5t9 78.5q0 90 -45 151.5t-120 61.5t-125 -53t-50 -147zM311.5 588q-45.5 -72 -45.5 -192t87 -206t201 -86q95 0 161 46.5t135 125.5l-399 451q-94 -67 -139.5 -139zM92 342q0 236 135 328t164 118q-86 90 -131 166t-45 162
q0 127 87 208t286 146q137 0 228 -83.5t91 -196.5q0 -144 -120.5 -234t-182.5 -135l354 -397l154 250l-86 18l10 60l148 -7l205 7l10 -60l-144 -20l-225 -320l248 -268l108 -21l-8 -63l-147 2l-127 -2l-184 203q-143 -157 -357 -240q-199 0 -335 106t-136 273z" />
    <glyph glyph-name="quotesingle" unicode="'" horiz-adv-x="399" 
d="M113 1249l-11 107l11 90l137 8l59 -8l8 -105l-8 -92l-127 -286l-67 26q40 90 55.5 161t15.5 91z" />
    <glyph glyph-name="parenleft" unicode="(" horiz-adv-x="548" 
d="M250 530q0 -625 264 -974l-47 -43q-102 147 -173 256.5t-115 218t-63.5 230.5t-19.5 294t19.5 297t63.5 233.5t115 212t173 232.5l47 -43q-146 -193 -205 -407.5t-59 -506.5z" />
    <glyph glyph-name="parenright" unicode=")" horiz-adv-x="548" 
d="M299 530q0 292 -59 506.5t-205 407.5l47 43q102 -129 173 -233.5t115 -212t63.5 -232.5t19.5 -297t-19.5 -294t-63.5 -229.5t-115 -218t-173 -257.5l-47 43q264 349 264 974z" />
    <glyph glyph-name="asterisk" unicode="*" horiz-adv-x="825" 
d="M283 850l-107 76l176 198l-260 58l39 123l238 -101l-21 260h129l-18 -260l235 101l39 -123l-252 -58l168 -198l-104 -76l-133 215z" />
    <glyph glyph-name="plus" unicode="+" 
d="M571 0v455h-465v125h465v475h125v-475h465v-125h-465v-455h-125z" />
    <glyph glyph-name="comma" unicode="," horiz-adv-x="411" 
d="M145 0l-10 106l10 89l138 10l59 -10l8 -105l-8 -90l-127 -289l-68 29q41 93 56.5 162t15.5 90z" />
    <glyph glyph-name="hyphen" unicode="-" horiz-adv-x="788" 
d="M82 621h625v-125h-625v125z" />
    <glyph glyph-name="period" unicode="." horiz-adv-x="444" 
d="M154 197l137 8l59 -8l8 -107l-8 -90l-139 -10l-57 10l-11 106z" />
    <glyph glyph-name="slash" unicode="/" horiz-adv-x="1015" 
d="M102 -471h-122l927 1941h119z" />
    <glyph glyph-name="zero" unicode="0" horiz-adv-x="1200" 
d="M369.5 197q88.5 -125 263.5 -125q132 0 210.5 114t78.5 280t-88.5 292.5t-266.5 126.5q-132 0 -209 -113.5t-77 -281.5t88.5 -293zM1118 502q0 -400 -520 -533q-216 0 -366 141t-150 346q0 204 131 333.5t389 197.5q213 0 364.5 -140.5t151.5 -344.5z" />
    <glyph glyph-name="one" unicode="1" horiz-adv-x="929" 
d="M573 967v-871l326 -35l-10 -63l-404 6l-401 -6l-10 63l325 35v670l11 37l-86 -41l-236 -53l-35 67l461 191h59z" />
    <glyph glyph-name="two" unicode="2" horiz-adv-x="1048" 
d="M987 168v-53l-49 -115h-858l-39 86l367 276q141 106 210.5 182.5t69.5 149.5q0 128 -70.5 157.5t-131.5 29.5t-126 -39l-75 -209h-135v211l372 143q160 0 256 -72.5t96 -189.5q0 -192 -133 -283.5t-217 -142.5l-303 -178l182 47h584z" />
    <glyph glyph-name="three" unicode="3" horiz-adv-x="948" 
d="M621 658q0 110 -56.5 167.5t-133.5 57.5t-148 -39l-76 -211h-133v211l375 143q175 0 262.5 -79t87.5 -198q0 -118 -71 -213.5t-200 -154.5q154 -12 246 -93.5t92 -190.5q0 -194 -107.5 -286t-318.5 -180l-155 -63h-234v168h428q109 48 156 132t47 178q0 93 -100.5 168
t-296.5 75l-21 51l101 43q129 53 192.5 128.5t63.5 185.5z" />
    <glyph glyph-name="four" unicode="4" horiz-adv-x="1150" 
d="M825 135h295v-112h-295v-494h-172v494h-565l-68 63l670 870h195v-61l-690 -786l75 26h383v221l121 105h51v-326z" />
    <glyph glyph-name="five" unicode="5" horiz-adv-x="976" 
d="M915 90q0 -286 -181 -375.5t-269 -124.5l-154 -61h-219v168h414q110 52 166.5 142t56.5 159q0 132 -82.5 216.5t-209.5 84.5t-212 -35l-67 -26l-58 28l82 690h699v-55l-43 -110h-572l-53 -429l227 115q266 0 354.5 -109.5t104.5 -175t16 -102.5z" />
    <glyph glyph-name="six" unicode="6" horiz-adv-x="1099" 
d="M763.5 679q-70.5 85 -171.5 85q-49 0 -95 -24.5t-108 -71.5l-92 -76q0 -359 93.5 -444t163.5 -85t120.5 29t105 105.5t54.5 236.5t-70.5 245zM102 553q0 624 727 924l31 -78q-441 -218 -497 -407t-62 -296l297 219q201 0 305.5 -129t104.5 -328q0 -198 -127 -319
t-353 -170q-196 0 -311 163t-115 421z" />
    <glyph glyph-name="seven" unicode="7" horiz-adv-x="1009" 
d="M41 956h897l29 -34l-572 -1393h-170v49l525 1143l75 72h-784v163z" />
    <glyph glyph-name="eight" unicode="8" horiz-adv-x="1132" 
d="M1026 385q0 -168 -122 -268.5t-361 -147.5q-188 0 -313.5 107t-125.5 262q0 117 73 226.5t231 183.5q-123 72 -189.5 156.5t-66.5 195.5q0 266 436 364q186 0 296.5 -80.5t110.5 -212.5q0 -181 -116.5 -271.5t-178.5 -127.5q164 -101 245 -184t81 -203zM848 317
q0 179 -166 273t-215 123q-108 -74 -144 -136.5t-36 -152.5q0 -162 78 -260t198 -98t202.5 70t82.5 181zM813 1080q0 199 -94 243.5t-178 44.5t-146.5 -60.5t-62.5 -158.5q0 -128 129 -216.5t182 -121.5q170 110 170 269z" />
    <glyph glyph-name="nine" unicode="9" horiz-adv-x="1087" 
d="M985 401q0 -609 -715 -901l-30 78q297 152 413 306t133 378l-297 -217q-201 0 -305 130t-104 324q0 382 479 488q196 0 311 -159t115 -427zM526 893q-123 0 -197.5 -100.5t-74.5 -258.5t70 -246.5t155 -88.5t135 34.5t84 61.5l93 72q0 372 -92.5 449t-172.5 77z" />
    <glyph glyph-name="colon" unicode=":" horiz-adv-x="471" 
d="M164 975l137 8l59 -8l9 -107l-9 -90l-139 -10l-57 10l-10 107zM164 197l137 8l59 -8l9 -107l-9 -90l-139 -10l-57 10l-10 106z" />
    <glyph glyph-name="semicolon" unicode=";" horiz-adv-x="512" 
d="M162 0l-8 106l8 89l139 10l57 -10l11 -105l-11 -90l-125 -289l-69 29q41 92 57.5 161.5t16.5 90.5zM164 975l137 8l59 -8l9 -107l-9 -90l-139 -10l-57 10l-10 107z" />
    <glyph glyph-name="less" unicode="&#x3c;" 
d="M1167 1122v-155l-880 -379l880 -379v-158l-1065 473v123z" />
    <glyph glyph-name="equal" unicode="=" 
d="M1161 240h-1055v125h1055v-125zM1161 639h-1055v125h1055v-125z" />
    <glyph glyph-name="greater" unicode="&#x3e;" 
d="M1167 647v-123l-1065 -473v158l881 379l-881 379v155z" />
    <glyph glyph-name="question" unicode="?" horiz-adv-x="804" 
d="M229 184l140 9l57 -9l8 -106l-8 -90l-139 -11l-58 11l-10 106zM516 1066q0 276 -205 275l-39 -165h-139v243l168 23q199 -22 300 -125t101 -246t-60 -222t-169 -132l-94 -45l-14 -213h-107l-12 278l80 45q98 55 144 136.5t46 147.5z" />
    <glyph glyph-name="at" unicode="@" horiz-adv-x="1873" 
d="M539 471q0 174 97 313.5t263 212.5l223 101l228 -133l-170 -711q68 -2 146.5 34t190 151t111.5 345q0 279 -147.5 414t-405.5 135q-141 0 -284.5 -48t-258 -143t-186.5 -237.5t-72 -322.5q0 -337 211.5 -518t526.5 -181q174 0 366 101l31 -58q-257 -131 -487 -159
q-365 0 -533 158.5t-227.5 299t-59.5 296.5q0 301 195.5 533.5t513.5 325.5l186 54q371 0 578 -177.5t207 -451.5q0 -127 -53.5 -239.5t-139.5 -196.5t-195.5 -134.5t-224.5 -50.5l-120 127l94 256q-111 -144 -320 -387q-119 0 -201.5 80.5t-82.5 210.5zM1020 989
q-309 -126 -309 -473q0 -68 45 -115t121 -47l239 256l74 271z" />
    <glyph glyph-name="A" unicode="A" horiz-adv-x="1529" 
d="M750 1116l-17 109l-227 -650h446zM475 485l-139 -397l184 -27l-10 -63l-254 6l-223 -6l-10 63l170 23l520 1339l75 29l553 -1368l166 -23l-10 -63l-256 6l-278 -6l-11 63l183 27l-148 397h-512z" />
    <glyph glyph-name="B" unicode="B" horiz-adv-x="1312" 
d="M935 626.5q-91 80.5 -247 80.5h-252v-617l201 -8q203 0 296 100t93 232t-91 212.5zM436 797h182q142 0 233 91t91 212t-68.5 184.5t-197.5 67.5l-240 -9v-546zM1044 911q-89 -102 -223 -139q188 -8 294 -108.5t106 -241.5q0 -199 -142.5 -291.5t-414.5 -132.5l-302 6
l-290 -6l-11 63l193 27v1258l-193 26l11 64l290 -6l367 6q194 0 299 -90.5t105 -211.5t-89 -223z" />
    <glyph glyph-name="C" unicode="C" horiz-adv-x="1439" 
d="M86 701q0 343 206.5 535t551.5 234q213 0 338 -71.5t155 -95.5v-252h-104l-66 188q-135 135 -377 135q-92 0 -189 -40t-205.5 -161.5t-108.5 -405.5t161 -491.5t433 -207.5q109 0 175 46t85 60l114 223h105l-57 -270q-167 -81 -299 -118.5t-189 -45.5
q-299 0 -452.5 141.5t-215 279.5t-61.5 317z" />
    <glyph glyph-name="D" unicode="D" horiz-adv-x="1499" 
d="M1063 1176q-145 174 -416 178l-211 -11v-1237l271 -20q223 4 362 176t139 456t-145 458zM1413 758q0 -678 -692 -760l-365 6l-284 -6l-11 63l193 27v1258l-193 26l11 64l282 -6l391 6q313 0 490.5 -175.5t177.5 -502.5z" />
    <glyph glyph-name="E" unicode="E" horiz-adv-x="1280" 
d="M1151 1436l18 -361h-57l-113 266l-563 7v-560l303 9l82 215h62l-21 -248l21 -272h-62l-82 213l-303 8v-627l584 6l137 277h68l-74 -371l-797 6l-282 -6l-11 63l193 27v1258l-193 26l11 64l282 -6z" />
    <glyph glyph-name="F" unicode="F" horiz-adv-x="1200" 
d="M72 -2l-11 63l193 27v1258l-193 26l11 64l282 -6l797 6l18 -357h-57l-113 262l-563 7v-586l303 8l82 213h62l-21 -248l21 -272h-62l-82 215l-303 8v-598l246 -27l-10 -63l-318 6z" />
    <glyph glyph-name="G" unicode="G" horiz-adv-x="1519" 
d="M872 68q145 0 271 120v394l-185 26l11 62l266 -6l221 6l8 -62l-139 -26v-459q-37 -12 -101.5 -34.5t-190.5 -65t-238 -60.5q-302 0 -505.5 198.5t-203.5 539.5t197 530t540 239q220 0 348.5 -70.5t157.5 -94.5v-254h-90l-65 180q-164 143 -372 143q-239 0 -377 -167
t-138 -459q0 -127 41 -250t114.5 -218.5t179 -153.5t250.5 -58z" />
    <glyph glyph-name="H" unicode="H" horiz-adv-x="1548" 
d="M436 791h688v555l-196 26l10 64l279 -6l260 6l10 -64l-180 -26v-1258l180 -27l-10 -63l-260 6l-279 -6l-10 63l196 27v608h-688v-608l185 -27l-11 -63l-264 6l-274 -6l-11 63l193 27v1258l-193 26l11 64l274 -6l264 6l11 -64l-185 -26v-555z" />
    <glyph glyph-name="I" unicode="I" horiz-adv-x="690" 
d="M346 4l-274 -6l-11 65l193 27v1256l-193 26l11 64l274 -6l272 6l11 -64l-193 -26v-1256l193 -27l-11 -65z" />
    <glyph glyph-name="J" unicode="J" horiz-adv-x="675" 
d="M442 178q0 -59 2 -102t-2.5 -92.5t-48.5 -100.5l-217 -241h-178v163h209l18 43q25 56 30 120.5t5 226.5v1151l-225 26l10 64l307 -6l262 6l11 -64l-183 -26v-1168z" />
    <glyph glyph-name="K" unicode="K" horiz-adv-x="1417" 
d="M492 793l575 553l-149 26l10 64l213 -6l192 6l10 -64l-159 -33l-576 -567l39 -27l639 -665l109 -19l-11 -63l-174 6l-135 -6l-610 674l-29 53v-637l158 -27l-10 -63l-238 6l-274 -6l-11 63l193 27v1258l-193 26l11 64l274 -6l238 6l10 -64l-158 -26v-584z" />
    <glyph glyph-name="L" unicode="L" horiz-adv-x="1196" 
d="M354 4l-282 -6l-11 63l193 27v1258l-193 26l11 64l282 -6l264 6l11 -64l-193 -26v-1260l531 6l129 273h71l-69 -367z" />
    <glyph glyph-name="M" unicode="M" horiz-adv-x="1906" 
d="M1448 1436l209 -6l178 6l10 -64l-180 -26v-1258l168 -27l-10 -63l-232 6l-295 -6l-10 63l193 27v934l26 238l-534 -1260h-105l-417 1030l-82 234v-1176l188 -27l-18 -63l-218 6l-235 -6l-10 63l168 27v1251l-181 33l11 64l217 -6l188 6l447 -1104l22 -99z" />
    <glyph glyph-name="N" unicode="N" horiz-adv-x="1523" 
d="M1311 -4h-121l-780 1153l-31 125v-1186l182 -27l-12 -63l-217 6l-260 -6l-11 63l193 27v1239l-182 45l10 64l197 -6l133 6l735 -1071l39 -103v1084l-180 26l10 64l219 -6l258 6l10 -64l-192 -26v-1350z" />
    <glyph glyph-name="O" unicode="O" horiz-adv-x="1579" 
d="M287 759q0 -120 27.5 -241t91 -221t166 -164.5t237.5 -64.5q246 0 364.5 173t118.5 439t-90 410.5t-191.5 210t-237.5 65.5t-226 -49t-147.5 -133t-85 -194.5t-27.5 -230.5zM86 699q0 327 178 519.5t545 251.5q300 0 492 -205t192 -531q0 -658 -723 -771
q-298 0 -491 204.5t-193 531.5z" />
    <glyph glyph-name="P" unicode="P" horiz-adv-x="1193" 
d="M436 713h187q156 0 251 93.5t95 240.5q0 217 -116 262t-202 45l-215 -11v-630zM1171 1068q0 -182 -142 -296.5t-355 -153.5h-238v-530l246 -27l-10 -63l-326 6l-274 -6l-11 63l193 27v1258l-193 26l11 64l268 -6l377 6q317 0 385.5 -136.5t68.5 -231.5z" />
    <glyph glyph-name="Q" unicode="Q" horiz-adv-x="1579" 
d="M287 759q0 -120 27.5 -241t91 -221t166 -164.5t237.5 -64.5q246 0 364.5 173t118.5 439t-90 410.5t-191.5 210t-237.5 65.5t-226 -49t-147.5 -133t-85 -194.5t-27.5 -230.5zM86 699q0 327 178 519.5t545 251.5q300 0 492 -205t192 -520t-152.5 -502.5t-466.5 -258.5
l205 -84l219 -158l109 -33l-8 -59h-291l-338 313q-298 0 -491 204.5t-193 531.5z" />
    <glyph glyph-name="R" unicode="R" horiz-adv-x="1372" 
d="M436 743h148q173 0 279 91t106 230t-88 214.5t-224 75.5l-221 -11v-600zM436 659v-571l180 -27l-10 -63l-260 6l-274 -6l-11 63l193 27v1258l-193 26l11 64l276 -6l344 6q340 0 412 -131t72 -223q0 -298 -414 -410l119 -78l366 -508l115 -29l-8 -59l-150 6l-135 -6
l-446 639l-23 22h-164z" />
    <glyph glyph-name="S" unicode="S" horiz-adv-x="1153" 
d="M588 63q141 0 217 80t76 197q0 155 -89.5 210.5t-134.5 74.5l-245 104q-128 56 -196.5 132t-68.5 200q0 163 135.5 266.5t340.5 142.5q92 0 188 -30.5t170 -87.5v-262h-88l-59 186q-39 41 -92.5 68.5t-163.5 27.5t-181 -63.5t-71 -165.5t57 -159.5t145 -94.5l226 -92
q134 -60 216.5 -144.5t82.5 -234.5q0 -246 -177.5 -336t-322.5 -119q-147 0 -244.5 37t-175.5 102l-45 258h133l72 -170q47 -57 128 -92t167 -35z" />
    <glyph glyph-name="T" unicode="T" horiz-adv-x="1222" 
d="M31 1090v346l575 -6l586 6v-346h-72l-92 251l-326 2v-1255l242 -27l-10 -63l-322 6l-336 -6l-10 63l254 27v1255l-325 -2l-93 -251h-71z" />
    <glyph glyph-name="U" unicode="U" horiz-adv-x="1468" 
d="M418 465q0 -404 348 -404q162 0 249 104.5t87 305.5v875l-189 26l11 64l262 -6l241 6l11 -64l-178 -26v-848q0 -213 -113.5 -341t-403.5 -194q-520 0 -520 543v840l-192 26l10 64l285 -6l264 6l10 -64l-182 -26v-881z" />
    <glyph glyph-name="V" unicode="V" horiz-adv-x="1519" 
d="M739 -29l-561 1379l-168 22l10 64l267 -6l280 6l11 -64l-183 -26l381 -1020l15 -97l413 1117l-184 26l10 64l246 -6l223 6l10 -64l-170 -22l-532 -1344z" />
    <glyph glyph-name="W" unicode="W" horiz-adv-x="1984" 
d="M1294 -29l-284 865l-6 114l-291 -930l-125 -49l-449 1379l-116 22l10 64l219 -6l252 6l10 -64l-182 -26l317 -1049l6 -104l273 911l-82 246l-137 22l10 64l237 -6l254 6l11 -64l-183 -26l318 -1049l4 -102l352 1155l-180 22l10 64l244 -6l166 6l10 -64l-115 -22
l-428 -1330z" />
    <glyph glyph-name="X" unicode="X" horiz-adv-x="1427" 
d="M1407 63l-10 -65l-289 6l-270 -6l-11 65l183 27l-277 455l-37 82l-366 -539l176 -25l-10 -65l-232 6l-233 -6l-11 65l160 23l449 619l-426 647l-168 22l10 64l305 -8l266 8l11 -64l-183 -26l254 -433l27 -75l344 506l-186 26l10 64l231 -6l252 6l10 -64l-163 -22
l-428 -588l454 -676z" />
    <glyph glyph-name="Y" unicode="Y" horiz-adv-x="1447" 
d="M819 553l4 -465l240 -27l-10 -63l-320 6l-334 -6l-10 63l252 27v475l-463 789l-168 22l10 62l277 -6l260 6l10 -62l-182 -26l360 -609l21 -71l352 680l-186 26l10 62l250 -6l235 6l11 -60l-168 -20z" />
    <glyph glyph-name="Z" unicode="Z" horiz-adv-x="1167" 
d="M113 1085v349h958l21 -91l-803 -1183l-76 -76l702 10l132 271h90l-70 -365h-1006l-18 100l799 1178l76 72l-631 -11l-92 -254h-82z" />
    <glyph glyph-name="bracketleft" unicode="[" horiz-adv-x="681" 
d="M326 1006l-7 -418l7 -527q2 -203 4 -450l280 -21v-63l-258 6l-170 -6v1937l170 -6l258 6v-63l-280 -21q-2 -207 -4 -374z" />
    <glyph glyph-name="backslash" unicode="\" horiz-adv-x="882" 
d="M-82 1470h119l928 -1941h-123z" />
    <glyph glyph-name="bracketright" unicode="]" horiz-adv-x="681" 
d="M356 72l2 129l-2 811q-2 166 -4 368l-280 21v63l258 -6l170 6v-1937l-170 6l-258 -6v63l280 21q2 254 4 461z" />
    <glyph glyph-name="asciicircum" unicode="^" horiz-adv-x="800" 
d="M256 942h-154l252 502h92l252 -502h-153l-144 346z" />
    <glyph glyph-name="underscore" unicode="_" horiz-adv-x="1341" 
d="M102 -158h1137v-104h-1137v104z" />
    <glyph glyph-name="grave" unicode="`" horiz-adv-x="1024" 
d="M524 1100l-245 352h208l99 -352h-62z" />
    <glyph glyph-name="a" unicode="a" horiz-adv-x="909" 
d="M752 256q0 -102 36 -154h105l6 -63l-235 -45l-62 156l-248 -181q-129 0 -211 67.5t-82 190.5q0 53 16.5 93t49.5 90l463 155v99q0 107 -22 156.5t-107.5 49.5t-179.5 -39l-37 -147h-150v143l352 160q94 0 153.5 -13t106 -63.5t46.5 -253.5v-401zM264 133q39 -31 93 -31
t135 58l98 67v260l-326 -135q-39 -40 -39 -114t39 -105z" />
    <glyph glyph-name="b" unicode="b" horiz-adv-x="1112" 
d="M776 173.5q76 107.5 76 282.5t-64 280.5t-163 105.5q-98 0 -211 -90l-68 -56v-544q73 -86 214 -86q140 0 216 107.5zM1024 518q0 -479 -502 -549q-138 0 -196 22.5t-85.5 39t-58.5 32.5v1268l-151 -4l-11 62l232 65l94 8v-669l252 194q185 0 305.5 -128t120.5 -341z" />
    <glyph glyph-name="c" unicode="c" horiz-adv-x="903" 
d="M532 -31q-199 0 -321.5 128t-122.5 355.5t134.5 356t340.5 178.5q97 0 172.5 -41t98.5 -61v-187h-123l-49 152q-54 37 -122 37q-123 0 -200.5 -111.5t-77.5 -282.5t87.5 -280t236.5 -109q96 0 241 91l25 -72q-147 -99 -320 -154z" />
    <glyph glyph-name="d" unicode="d" horiz-adv-x="1126" 
d="M538 897q-138 0 -215 -107.5t-77 -288.5t62.5 -282.5t161.5 -101.5t214 92l68 55v545q-76 88 -214 88zM915 264q0 -102 37 -153h123l8 -68l-254 -49l-63 153l-268 -178q-192 0 -308 130.5t-116 357.5q0 226 134.5 363.5t371.5 166.5q45 0 172 -55v401l-152 -4l-10 62
l237 63l88 8v-1198z" />
    <glyph glyph-name="e" unicode="e" horiz-adv-x="960" 
d="M487 893q-100 0 -161.5 -80t-77.5 -209l444 21q0 135 -29.5 182t-69.5 66.5t-106 19.5zM881 604v-78h-635q0 -188 93 -305t263 -117q109 0 256 89l29 -74q-154 -96 -348 -150q-190 0 -326.5 132.5t-136.5 363.5t123.5 356.5t328.5 165.5q353 0 353 -383z" />
    <glyph glyph-name="f" unicode="f" horiz-adv-x="700" 
d="M401 942h254v-90h-254v-772l244 -10l-10 -72l-295 6l-244 -6l-10 63l152 19v772h-185v33l58 67h127v19q0 96 28.5 161.5t81.5 131.5l158 190h250v-151h-267l-40 -58q-48 -61 -48 -237v-66z" />
    <glyph glyph-name="g" unicode="g" horiz-adv-x="1030" 
d="M319 354q-213 74 -213 278q0 110 88.5 206t297.5 149q86 0 166.5 -28.5t127.5 -81.5l117 110h117v-149h-109l-77 -37q23 -49 22 -103q0 -123 -89 -219t-296 -147h-25q-26 0 -43 2l-124 -141q0 -31 18 -51.5t53 -20.5h375q141 0 202.5 -55.5t61.5 -131.5
q0 -135 -142.5 -253.5t-365.5 -182.5q-229 0 -333.5 73t-104.5 218v31l217 180q-132 50 -136.5 111t-4.5 96v4zM328 -20q-125 -136 -125 -204t80 -117.5t205 -49.5t226 75.5t101 190.5q0 59 -48 82t-161 23h-278zM686 614q0 172 -77 228.5t-155 56.5t-128 -58.5t-50 -153.5
t34 -150.5t78 -84t122 -28.5t127 50t49 140z" />
    <glyph glyph-name="h" unicode="h" horiz-adv-x="1183" 
d="M823 674q0 166 -139 166q-71 0 -229 -99l-68 -41v-620l121 -19l-10 -63l-187 6l-229 -6l-10 63l151 19v1253l-149 -4l-11 60l230 65l94 8v-669l297 194q190 0 236.5 -65.5t55.5 -135t9 -168.5v-538l164 -19l-10 -63l-230 6l-182 -6l-10 63l106 19v594z" />
    <glyph glyph-name="i" unicode="i" horiz-adv-x="591" 
d="M215 1409l133 10l53 -10l11 -106l-21 -93l-131 -12l-51 12l-12 107zM311 4l-229 -6l-10 63l151 19v758l-151 -13l-11 64l232 65l94 9v-883l164 -19l-10 -63z" />
    <glyph glyph-name="j" unicode="j" horiz-adv-x="534" 
d="M221 -59v897l-151 -13l-11 64l232 65l94 9v-994q0 -72 -17.5 -129t-68.5 -121l-172 -200h-162v162h191l22 45q14 29 28.5 73.5t14.5 141.5zM213 1409l133 10l53 -10l11 -106l-21 -93l-131 -12l-51 12l-12 107z" />
    <glyph glyph-name="k" unicode="k" horiz-adv-x="1087" 
d="M915 4l-116 -6l-393 479l-21 41v-438l123 -19l-10 -63l-181 6l-237 -6l-10 63l151 19v1249l-149 -4l-11 64l230 65l94 8v-907l55 23l334 299l-43 18v63l156 -6l143 6l10 -63l-106 -18l-395 -326l36 -23l408 -448l94 -19l-8 -63z" />
    <glyph glyph-name="l" unicode="l" horiz-adv-x="581" 
d="M311 4l-229 -6l-10 63l151 19v1249l-149 -4l-11 64l230 65l94 8v-1382l164 -19l-10 -63z" />
    <glyph glyph-name="m" unicode="m" horiz-adv-x="1736" 
d="M801 674q0 164 -127 164q-83 0 -221 -99l-68 -45v-614l111 -19l-11 -63l-170 6l-235 -6l-10 63l151 19v760l-149 -15l-11 64l234 65l78 7l8 -173l285 199q145 0 207.5 -48t78.5 -155l287 203q191 0 236 -65.5t54 -135t9 -168.5v-538l164 -19l-10 -63l-234 6l-182 -6
l-10 63l110 19v594q0 164 -127 164q-83 0 -221 -99l-65 -45v-614l96 -19l-10 -63l-160 6l-176 -6l-11 63l99 19v594z" />
    <glyph glyph-name="n" unicode="n" horiz-adv-x="1183" 
d="M821 674q0 166 -145 166q-57 0 -112.5 -31t-110.5 -68l-68 -43v-618l121 -19l-10 -63l-187 6l-229 -6l-10 63l151 19v760l-149 -15l-11 64l230 65l78 7l12 -175l301 201q190 0 236.5 -59.5t55.5 -124t9 -156.5v-567l166 -19l-10 -63l-230 6l-186 -6l-10 63l108 19v594z
" />
    <glyph glyph-name="o" unicode="o" horiz-adv-x="1097" 
d="M339.5 189.5q91.5 -126.5 231.5 -126.5t210.5 117.5t70.5 296.5t-93.5 297.5t-232.5 118.5t-208.5 -116.5t-69.5 -288.5t91.5 -298.5zM76 457q0 452 491 530q204 0 329.5 -141.5t125.5 -356.5q0 -214 -124 -349.5t-366 -170.5q-203 0 -329.5 139.5t-126.5 348.5z" />
    <glyph glyph-name="p" unicode="p" horiz-adv-x="1112" 
d="M600 66q119 0 190.5 103.5t71.5 279.5t-60.5 289.5t-162.5 113.5q-78 0 -215 -102l-68 -52v-510q37 -57 102.5 -89.5t141.5 -32.5zM1034 504q0 -362 -199 -441.5t-305 -93.5q-96 0 -174 49v-407l224 -21l-11 -63l-286 6l-232 -6l-10 63l152 21v1231l-152 -15l-10 62
l233 65l78 7l10 -170l258 196q215 0 319.5 -128t104.5 -355z" />
    <glyph glyph-name="q" unicode="q" horiz-adv-x="1079" 
d="M918 977v-1366l151 -21l-10 -63l-232 6l-286 -6l-11 63l224 21v524l-244 -166q-198 0 -317 131t-119 363t138 363.5t382 160.5q90 0 229 -88l70 78h25zM554 895q-150 0 -229 -104.5t-79 -286.5t74 -291t180 -109q60 0 123 39l131 93v509q-50 150 -200 150z" />
    <glyph glyph-name="r" unicode="r" horiz-adv-x="796" 
d="M764 977v-180h-133q-57 -6 -122 -63.5t-85 -84.5l-45 -55v-506l213 -18l-10 -72l-279 6l-221 -6l-10 63l151 19v760l-151 -15l-11 64l238 65l74 7l-2 -256l237 272h156z" />
    <glyph glyph-name="s" unicode="s" horiz-adv-x="858" 
d="M332.5 860q-47.5 -35 -47.5 -90t37.5 -90t103.5 -70l160 -82q106 -53 148 -114.5t42 -138.5q0 -137 -93 -200.5t-280 -105.5q-126 0 -208 43t-97 54l-39 210h129l76 -174q76 -39 163 -39t129 50.5t42 115.5t-37 102.5t-119 80.5l-166 86q-70 34 -115.5 93.5t-45.5 135.5
q0 106 98 166.5t258 93.5q105 0 181.5 -40t101.5 -58v-187h-107l-47 154q-12 4 -56 21.5t-104 17.5t-107.5 -35z" />
    <glyph glyph-name="t" unicode="t" horiz-adv-x="698" 
d="M487 113q66 0 162 47l31 -62l-227 -129q-170 0 -202 49.5t-35 97.5t-3 113v621h-203v35l70 67h141v131l115 127h39v-274h319v-86h-317v-617q0 -120 110 -120z" />
    <glyph glyph-name="u" unicode="u" horiz-adv-x="1142" 
d="M344 276q0 -159 140 -159q66 0 130 35.5t129 78.5l43 27v582l-129 -11l-10 74l215 51l88 9v-699q0 -100 23 -158h108l9 -63l-240 -49l-57 162l-301 -187q-194 0 -242.5 61.5t-58 126t-9.5 152.5v531l-153 -11l-11 74l238 51l88 9v-687z" />
    <glyph glyph-name="v" unicode="v" horiz-adv-x="1112" 
d="M569 119l256 755l-94 21l10 63l177 -6l174 6l10 -63l-135 -21l-342 -841l-127 -64l-353 905l-135 21l10 63l224 -6l209 6l10 -63l-144 -21l234 -622z" />
    <glyph glyph-name="w" unicode="w" horiz-adv-x="1693" 
d="M860 567l-10 133l-246 -665l-145 -64l-314 903l-135 21l10 63l213 -6l187 6l10 -63l-121 -21l211 -634l17 -109l243 670l-26 73l-86 21l10 63l164 -6l184 6l10 -63l-118 -21l210 -634l17 -109l266 743l-94 21l10 63l137 -6l209 6l10 -63l-135 -21l-336 -839l-145 -64z
" />
    <glyph glyph-name="x" unicode="x" horiz-adv-x="1083" 
d="M408 61l-11 -63l-143 6l-223 -6l-11 63l154 21l301 383l-297 407l-131 21l10 65l234 -6l166 6l10 -65l-78 -21l160 -241l16 -47l191 288l-109 21l10 65l152 -6l221 6l10 -65l-155 -21l-267 -331l320 -459l135 -21l-10 -63l-242 6l-164 -6l-10 63l84 21l-190 285l-13 39
l-217 -324z" />
    <glyph glyph-name="y" unicode="y" horiz-adv-x="1093" 
d="M172 -481v182h156l200 319l-47 -14l-336 868l-135 21l10 63l224 -6l209 6l10 -63l-144 -21l224 -622l14 -131l254 753l-94 21l10 63l176 -6l170 6l10 -63l-135 -21l-327 -845l-228 -510h-221z" />
    <glyph glyph-name="z" unicode="z" horiz-adv-x="946" 
d="M135 694v262h715l29 -59l-557 -772l-66 -49l446 6l113 190h80l-57 -272h-738l-22 59l549 760l75 62l-428 -9l-65 -178h-74z" />
    <glyph glyph-name="braceleft" unicode="{" horiz-adv-x="712" 
d="M528 1464h99v-63h-107q-104 0 -126.5 -77t-20.5 -138l12 -398q2 -72 -30.5 -136t-139.5 -115l170 -107l-12 -623q-4 -110 40.5 -162.5t106.5 -52.5h107v-63h-95q-131 0 -211.5 78t-80.5 209l2 583l-136 123v29q128 42 132 119.5t4 117.5l-2 390q0 131 78.5 208.5
t209.5 77.5z" />
    <glyph glyph-name="bar" unicode="|" horiz-adv-x="565" 
d="M225 1470h115v-1972h-115v1972z" />
    <glyph glyph-name="braceright" unicode="}" horiz-adv-x="702" 
d="M182 1401h-106v63h98q131 0 210 -77.5t79 -208.5l-2 -531l135 -123v-28q-127 -41 -131 -119t-4 -119l2 -442q0 -131 -81 -209t-212 -78h-94v63h106q100 0 125 76t23 137l-1 31q-1 33 -3 83t-3 108.5t-2.5 109.5t-2.5 86l-1 35q0 82 36 144t134 108l-170 106l13 570
q4 109 -41 162t-107 53z" />
    <glyph glyph-name="asciitilde" unicode="~" horiz-adv-x="1370" 
d="M1204 657h64l-80 -211l-191 -36l-743 114l-88 -129h-64l76 201l201 47l737 -115z" />
    <glyph glyph-name="exclamdown" unicode="&#xa1;" horiz-adv-x="518" 
d="M356 762l-139 -8l-57 8l-8 106l8 90l139 11l57 -11l11 -106zM186 80l56 397h39l55 -395l6 -578h-162z" />
    <glyph glyph-name="cent" unicode="&#xa2;" horiz-adv-x="933" 
d="M604 -164h-86v135q-195 12 -315.5 138.5t-120.5 341.5t131 344t332 184v147h86v-141q85 -13 150 -47.5t83 -52.5v-187h-123l-49 152q-50 37 -128 37q-142 0 -225 -110.5t-83 -281.5t97 -281t267 -110q92 0 238 91l25 -72q-121 -84 -279 -139v-148z" />
    <glyph glyph-name="sterling" unicode="&#xa3;" horiz-adv-x="1183" 
d="M991 1186h-123l-30 129q-65 65 -158 65t-160 -79t-67 -177v-370h405v-101l-405 2v-286q0 -186 -72 -281l534 6l97 223h90l-51 -317l-680 6l-283 -6l-10 72l213 92v491h-180v35l47 64h133v237q0 102 11 175t55 127.5t131 94t237 76.5q192 0 266 -100v-178z" />
    <glyph glyph-name="currency" unicode="&#xa4;" 
d="M188 721q0 152 97 274l-123 123l94 94l125 -127q116 82 255.5 82t258.5 -80l121 121l96 -96l-119 -119q97 -123 97 -271t-82 -263l108 -107l-94 -94l-104 104q-121 -96 -277 -96t-281 94l-110 -110l-96 96l114 115q-80 108 -80 260zM291 716.5q0 -71.5 27.5 -135
t74.5 -110.5t110.5 -74.5t135.5 -27.5t135.5 27.5t110.5 74.5t74.5 110.5t27.5 135t-27.5 135t-74.5 111t-110.5 75t-135.5 27.5t-135.5 -27.5t-110.5 -75t-74.5 -111t-27.5 -135z" />
    <glyph glyph-name="yen" unicode="&#xa5;" horiz-adv-x="1357" 
d="M1102 549v-88h-311v-103h311v-88h-311v-182l239 -27l-10 -63l-322 6l-336 -6l-10 63l252 27v182h-315v88h315v103h-315v88h317l-397 801l-168 22l10 64l277 -6l260 6l10 -64l-182 -26l291 -650l18 -65l272 712l-186 29l10 64l250 -6l236 8l10 -64l-168 -22l-361 -803h314
z" />
    <glyph glyph-name="brokenbar" unicode="&#xa6;" horiz-adv-x="563" 
d="M225 379h113v-881h-113v881zM225 1470h113v-880h-113v880z" />
    <glyph glyph-name="section" unicode="&#xa7;" horiz-adv-x="1081" 
d="M223 648q0 -115 68.5 -191t236.5 -207l172 -141q75 52 117.5 119.5t42.5 179.5v30l-297 224q-25 18 -48 35.5t-65 49.5t-85 72q-61 -25 -101.5 -64t-40.5 -107zM543 -416q213 0 213 158q0 134 -157 238t-258 186t-180 169.5t-79 205.5q0 168 101.5 235.5t140.5 87.5
q-23 27 -47.5 51.5t-58.5 68.5t-34 126q0 131 108.5 224t301.5 128q215 0 289 -100v-215h-107l-26 141q-65 88 -179 88q-168 0 -210 -65.5t-42 -117.5q0 -97 69.5 -170t270.5 -220l340 -248v-66q0 -249 -105.5 -324t-150.5 -97q81 -65 116.5 -113t35.5 -152t-95 -188
t-296 -117q-155 0 -236.5 56.5t-99.5 80.5v211h106l33 -141q55 -73 122 -97t114 -24z" />
    <glyph glyph-name="dieresis" unicode="&#xa8;" horiz-adv-x="1024" 
d="M606 1384l115 9l47 -9l10 -92l-20 -78l-111 -10l-49 10l-8 93zM246 1384l114 9l48 -9l10 -92l-19 -78l-112 -10l-49 10l-9 93z" />
    <glyph glyph-name="copyright" unicode="&#xa9;" horiz-adv-x="1703" 
d="M567.5 1010.5q118.5 109.5 317.5 134.5q81 0 161.5 -29t131.5 -65v-150h-70l-37 103q-23 27 -73 52t-121 25q-131 0 -212 -86t-81 -247t87.5 -276.5t235.5 -115.5q78 0 150 58l65 129h70l-33 -162q-207 -83 -287 -92q-175 0 -299 113.5t-124 305.5q0 193 118.5 302.5z
M102 720q0 324 200.5 509t547.5 235q150 -2 287 -53t301 -207t164 -485t-199.5 -513.5t-548.5 -236.5q-317 4 -473 151.5t-217.5 288t-61.5 311.5zM864 43q110 0 225 45t255.5 180.5t140.5 448.5t-206 493.5t-425 180.5q-260 0 -447.5 -181t-187.5 -481q0 -176 62.5 -306
t158 -214t205 -125t219.5 -41z" />
    <glyph glyph-name="ordfeminine" unicode="&#xaa;" horiz-adv-x="841" 
d="M647 868q0 -76 31 -125h86l6 -55l-195 -35l-51 129l-202 -149q-104 0 -172 56t-68 157q0 58 53 149l379 127v80q0 91 -16 130.5t-82.5 39.5t-153.5 -31l-29 -124h-124v118l290 131q151 0 199.5 -51.5t48.5 -216.5v-330zM217 852q0 -60 32 -84.5t70.5 -24.5t69.5 17.5
t47 27.5l78 58v211l-264 -111q-33 -34 -33 -94z" />
    <glyph glyph-name="guillemotleft" unicode="&#xab;" horiz-adv-x="890" 
d="M401 31l-370 450l372 451h74l-260 -453l260 -448h-76zM754 31l-371 450l373 451h73l-260 -453l260 -448h-75z" />
    <glyph glyph-name="logicalnot" unicode="&#xac;" 
d="M1161 369h-125v274h-930v125h1055v-399z" />
    <glyph glyph-name="softhyphen" unicode="&#xad;" horiz-adv-x="747" 
d="M86 621h576v-132h-576v132z" />
    <glyph glyph-name="registered" unicode="&#xae;" horiz-adv-x="1208" 
d="M522 918h58q53 0 87.5 28.5t34.5 80.5t-31.5 77.5t-78.5 25.5l-70 -6v-206zM228 1240q136 128 374 163q212 0 363 -140.5t151 -366.5t-137 -355t-373 -162q-213 0 -363.5 142t-150.5 367q0 224 136 352zM838 1034q0 -108 -189 -147l90 -39l133 -178l41 -13l-2 -41l-94 2
l-69 -2l-170 244l-13 8h-43v-200l68 -11l-4 -41l-127 2l-131 -2l-4 41l71 11v454l-71 8l4 41l129 -2l190 2q82 0 136.5 -35.5t54.5 -101.5zM612 432q76 0 154 31t173 122t95 304t-137.5 337t-301.5 124q-75 0 -152.5 -31t-173 -122.5t-95.5 -302.5t136.5 -336.5
t301.5 -125.5z" />
    <glyph glyph-name="macron" unicode="&#xaf;" horiz-adv-x="1024" 
d="M229 1405h566v-102h-566v102z" />
    <glyph glyph-name="degree" unicode="&#xb0;" horiz-adv-x="827" 
d="M179.5 1421.5q77.5 68.5 236.5 120.5q125 0 217 -92t92 -220t-71.5 -200.5t-237.5 -109.5q-127 0 -220.5 93.5t-93.5 216.5t77.5 191.5zM271 1092q62 -60 144 -60t142.5 59.5t60.5 140t-61 139.5t-142 59t-143.5 -59t-62.5 -139t62 -140z" />
    <glyph glyph-name="plusminus" unicode="&#xb1;" 
d="M94 125h1084v-125h-1084v125zM559 293v455h-465v124h465v476h125v-476h465v-124h-465v-455h-125z" />
    <glyph glyph-name="twosuperior" unicode="&#xb2;" horiz-adv-x="733" 
d="M651 952v-49l-37 -84h-544l-29 53l227 230q94 96 138.5 167t44.5 139t-30 105t-79 37t-78 -16l-41 -139h-123v145l262 84q119 0 191 -56.5t72 -148.5q0 -143 -97.5 -228t-158.5 -130l-209 -150l112 41h379z" />
    <glyph glyph-name="threesuperior" unicode="&#xb3;" horiz-adv-x="641" 
d="M418 1072q0 64 -49.5 101t-149.5 37l-12 43l49 21q66 25 97.5 61.5t31.5 94.5t-25.5 88t-64.5 30t-72 -14l-39 -139h-123v145l261 84q123 0 173 -46t50 -105q0 -127 -180 -187q113 -8 169 -59t56 -109t-25.5 -94.5t-65.5 -64t-90.5 -49t-99.5 -42.5l-104 -49h-146v142
h285q74 47 74 111z" />
    <glyph glyph-name="acute" unicode="&#xb4;" horiz-adv-x="1024" 
d="M279 1100l98 352h209l-246 -352h-61z" />
    <glyph glyph-name="uni00B5" unicode="&#xb5;" 
d="M156 -471v1427h163v-604q0 -125 53.5 -180t119.5 -55t128 36.5t125 77.5l43 27v698h164v-747q0 -53 34 -93t126 -63l-8 -53h-230l-83 152l-246 -183q-247 0 -281 123v-149l88 -414h-196z" />
    <glyph glyph-name="paragraph" unicode="&#xb6;" horiz-adv-x="980" 
d="M346 860q-124 0 -204.5 70t-80.5 188t114 198.5t173 117.5h551v-99l-102 -20v-1641h-107v1641h-235v-1641h-109v1186z" />
    <glyph glyph-name="periodcentered" unicode="&#xb7;" horiz-adv-x="444" 
d="M123 926l141 8l60 -8l8 -109l-8 -92l-144 -10l-57 10l-10 109z" />
    <glyph glyph-name="cedilla" unicode="&#xb8;" horiz-adv-x="1024" 
d="M557 -410q64 39 64 112t-51 103.5t-121 30.5l143 191l43 -33l-60 -90q61 0 113.5 -35.5t52.5 -92.5q0 -95 -54.5 -151.5t-123.5 -79.5l-104 -32h-117l59 77h156z" />
    <glyph glyph-name="onesuperior" unicode="&#xb9;" horiz-adv-x="628" 
d="M418 1614v-721l180 -19l-6 -57l-254 4l-258 -4l-6 57l180 19v575l10 31l-55 -33l-121 -18l-27 51l277 115h80z" />
    <glyph glyph-name="ordmasculine" unicode="&#xba;" horiz-adv-x="899" 
d="M291 1336.5q-82 -52.5 -82 -269.5q0 -136 73.5 -239t184.5 -103t168 91.5t57 235.5t-74 240.5t-188 96.5q-57 0 -139 -52.5zM827 1073q0 -366 -389 -424q-163 0 -264.5 112.5t-101.5 276.5q0 365 393 426q162 0 262 -111.5t100 -279.5z" />
    <glyph glyph-name="guillemotright" unicode="&#xbb;" horiz-adv-x="890" 
d="M414 31l260 448l-260 453h73l373 -451l-371 -450h-75zM61 31l261 448l-261 453h74l373 -451l-371 -450h-76z" />
    <glyph glyph-name="onequarter" unicode="&#xbc;" horiz-adv-x="1652" 
d="M1413 309h158v-110h-158v-199h-145v199h-318l-47 75l402 514h139v-63l-428 -436l61 20h191v127l110 99h35v-226zM438 1440v-721l180 -19l-6 -57l-254 4l-258 -4l-6 57l180 19v575l11 31l-56 -33l-120 -18l-27 51l276 115h80zM502 -102h-111l793 1556h106z" />
    <glyph glyph-name="onehalf" unicode="&#xbd;" horiz-adv-x="1720" 
d="M1638 133v-49l-36 -84h-545l-29 53l227 230q94 96 138.5 167.5t44.5 139.5t-29 104.5t-79 36.5t-77 -16l-43 -140h-123v146l263 84q119 0 190.5 -56.5t71.5 -148.5q0 -143 -97.5 -228t-158.5 -130l-209 -150l115 41h376zM438 1440v-721l180 -19l-6 -57l-254 4l-258 -4
l-6 57l180 19v575l11 31l-56 -33l-120 -18l-27 51l276 115h80zM502 -102h-111l793 1556h106z" />
    <glyph glyph-name="threequarters" unicode="&#xbe;" horiz-adv-x="1583" 
d="M438 897q0 65 -49 102t-149 37l-13 43l49 21q66 25 98 61.5t32 94.5t-26 88t-65 30t-71 -14l-39 -139h-123v145l260 84q123 0 173 -46t50 -106q0 -127 -180 -186q113 -8 169 -59.5t56 -108.5q0 -96 -66 -141t-214 -109l-105 -49h-145v141h285q73 46 73 111zM1343 309h158
v-110h-158v-199h-145v199h-317l-47 75l401 514h139v-63l-428 -436l62 20h190v127l111 99h34v-226zM432 -102h-110l792 1556h107z" />
    <glyph glyph-name="questiondown" unicode="&#xbf;" horiz-adv-x="733" 
d="M514 758l-139 -8l-58 8l-8 104l8 92l140 11l57 -11l10 -106zM227 -124q0 -276 205 -275l39 166h139v-244l-168 -23q-203 22 -302 126t-99 245q0 197 88 262.5t141 91.5l95 45l14 213h106l13 -278l-80 -45q-98 -57 -144.5 -137.5t-46.5 -146.5z" />
    <glyph glyph-name="Agrave" unicode="&#xc0;" horiz-adv-x="1529" 
d="M750 1116l-17 109l-227 -650h446zM475 485l-139 -397l184 -27l-10 -63l-254 6l-223 -6l-10 63l170 23l520 1339l75 29l553 -1368l166 -23l-10 -63l-256 6l-278 -6l-11 63l183 27l-148 397h-512zM672 1569l-246 270h205l147 -270h-106z" />
    <glyph glyph-name="Aacute" unicode="&#xc1;" horiz-adv-x="1529" 
d="M750 1116l-17 109l-227 -650h446zM475 485l-139 -397l184 -27l-10 -63l-254 6l-223 -6l-10 63l170 23l520 1339l75 29l553 -1368l166 -23l-10 -63l-256 6l-278 -6l-11 63l183 27l-148 397h-512zM733 1569l150 270h204l-247 -270h-107z" />
    <glyph glyph-name="Acircumflex" unicode="&#xc2;" horiz-adv-x="1529" 
d="M750 1116l-17 109l-227 -650h446zM475 485l-139 -397l184 -27l-10 -63l-254 6l-223 -6l-10 63l170 23l520 1339l75 29l553 -1368l166 -23l-10 -63l-256 6l-278 -6l-11 63l183 27l-148 397h-512zM455 1569l215 270h159l215 -270h-102l-170 137l-24 25l-21 -25l-170 -137
h-102z" />
    <glyph glyph-name="Atilde" unicode="&#xc3;" horiz-adv-x="1529" 
d="M750 1116l-17 109l-227 -650h446zM475 485l-139 -397l184 -27l-10 -63l-254 6l-223 -6l-10 63l170 23l520 1339l75 29l553 -1368l166 -23l-10 -63l-256 6l-278 -6l-11 63l183 27l-148 397h-512zM506 1761l153 45l306 -102l75 111h45l-45 -183l-155 -47l-303 103l-78 -111
h-45z" />
    <glyph glyph-name="Adieresis" unicode="&#xc4;" horiz-adv-x="1529" 
d="M750 1116l-17 109l-227 -650h446zM475 485l-139 -397l184 -27l-10 -63l-254 6l-223 -6l-10 63l170 23l520 1339l75 29l553 -1368l166 -23l-10 -63l-256 6l-278 -6l-11 63l183 27l-148 397h-512zM889 1776l115 10l47 -10l10 -90l-19 -80l-112 -9l-49 9l-9 94zM446 1776
l115 10l49 -10l8 -90l-18 -80l-113 -9l-47 9l-10 94z" />
    <glyph glyph-name="Aring" unicode="&#xc5;" horiz-adv-x="1529" 
d="M750 1116l-17 109l-227 -650h446zM475 485l-139 -397l184 -27l-10 -63l-254 6l-223 -6l-10 63l170 23l520 1339l75 29l553 -1368l166 -23l-10 -63l-256 6l-278 -6l-11 63l183 27l-148 397h-512zM621 1671q0 -53 31.5 -85t85 -32t86 32t32.5 85t-32.5 85t-86 32t-85 -32
t-31.5 -85zM891.5 1560q-50.5 -37 -154.5 -71q-81 0 -140.5 44t-59.5 134q0 116 81.5 146t120.5 40q80 0 141.5 -45t61.5 -128t-50.5 -120z" />
    <glyph glyph-name="AE" unicode="&#xc6;" horiz-adv-x="2052" 
d="M1071 647h-407l-342 -559l161 -27l-10 -63l-229 6l-224 -6l-10 63l168 23l873 1352l116 -6l760 6l21 -367h-64l-110 272l-517 7v-621l252 8l82 215h66l-21 -248l21 -272h-66l-82 213l-252 8v-565l537 6l135 283h72l-72 -377l-758 6l-282 -6l-10 63l192 27v559zM1071 725
v610l-362 -610h362z" />
    <glyph glyph-name="Ccedilla" unicode="&#xc7;" horiz-adv-x="1439" 
d="M725 -410q63 41 63 113.5t-50.5 102.5t-121.5 30l103 133q-267 29 -450 223.5t-183 523.5q0 328 206.5 520t551.5 234q213 0 338 -71.5t155 -95.5l-2 -252h-102l-66 188q-135 135 -377 135q-92 0 -189 -40t-205.5 -161.5t-108.5 -405.5t161 -491.5t433 -207.5
q109 0 175 46t85 60l114 223h105l-57 -270q-167 -81 -299 -118.5t-189 -45.5h-31l-41 -59q56 0 111 -35t55 -92q0 -94 -54.5 -151.5t-123.5 -80.5l-104 -32h-117l59 77h156z" />
    <glyph glyph-name="Egrave" unicode="&#xc8;" horiz-adv-x="1280" 
d="M1151 1436l18 -361h-57l-113 266l-563 7v-560l303 9l82 215h62l-21 -248l21 -272h-62l-82 213l-303 8v-627l584 6l137 277h68l-74 -371l-797 6l-282 -6l-11 63l193 27v1258l-193 26l11 64l282 -6zM641 1569l-246 270h205l148 -270h-107z" />
    <glyph glyph-name="Eacute" unicode="&#xc9;" horiz-adv-x="1280" 
d="M1151 1436l18 -361h-57l-113 266l-563 7v-560l303 9l82 215h62l-21 -248l21 -272h-62l-82 213l-303 8v-627l584 6l137 277h68l-74 -371l-797 6l-282 -6l-11 63l193 27v1258l-193 26l11 64l282 -6zM621 1569l149 270h205l-248 -270h-106z" />
    <glyph glyph-name="Ecircumflex" unicode="&#xca;" horiz-adv-x="1280" 
d="M1151 1436l18 -361h-57l-113 266l-563 7v-560l303 9l82 215h62l-21 -248l21 -272h-62l-82 213l-303 8v-627l584 6l137 277h68l-74 -371l-797 6l-282 -6l-11 63l193 27v1258l-193 26l11 64l282 -6zM416 1569l213 270h162l213 -270h-103l-170 137l-22 25l-21 -25l-170 -137
h-102z" />
    <glyph glyph-name="Edieresis" unicode="&#xcb;" horiz-adv-x="1280" 
d="M1151 1436l18 -361h-57l-113 266l-563 7v-560l303 9l82 215h62l-21 -248l21 -272h-62l-82 213l-303 8v-627l584 6l137 277h68l-74 -371l-797 6l-282 -6l-11 63l193 27v1258l-193 26l11 64l282 -6zM856 1776l115 10l47 -10l8 -90l-18 -80l-113 -9l-47 9l-10 94zM414 1776
l114 10l47 -10l9 -90l-19 -80l-112 -9l-47 9l-11 94z" />
    <glyph glyph-name="Igrave" unicode="&#xcc;" horiz-adv-x="690" 
d="M358 4l-274 -6l-10 65l192 27v1256l-192 26l10 64l274 -6l273 6l10 -64l-192 -26v-1256l192 -27l-10 -65zM336 1569l-248 270h205l149 -270h-106z" />
    <glyph glyph-name="Iacute" unicode="&#xcd;" horiz-adv-x="690" 
d="M358 4l-274 -6l-10 65l192 27v1256l-192 26l10 64l274 -6l273 6l10 -64l-192 -26v-1256l192 -27l-10 -65zM303 1569l150 270h204l-247 -270h-107z" />
    <glyph glyph-name="Icircumflex" unicode="&#xce;" horiz-adv-x="690" 
d="M358 4l-274 -6l-10 65l192 27v1256l-192 26l10 64l274 -6l273 6l10 -64l-192 -26v-1256l192 -27l-10 -65zM63 1569l213 270h162l213 -270h-102l-170 137l-23 25l-20 -25l-170 -137h-103z" />
    <glyph glyph-name="Idieresis" unicode="&#xcf;" horiz-adv-x="690" 
d="M358 4l-274 -6l-10 65l192 27v1256l-192 26l10 64l274 -6l273 6l10 -64l-192 -26v-1256l192 -27l-10 -65zM477 1776l115 10l47 -10l10 -90l-20 -80l-113 -9l-47 9l-8 94zM68 1776l114 10l47 -10l11 -90l-21 -80l-113 -9l-47 9l-8 94z" />
    <glyph glyph-name="Eth" unicode="&#xd0;" horiz-adv-x="1499" 
d="M436 780h266v-73h-266v-601l271 -20q223 4 362 176t139 456t-145 458t-416 178l-211 -11v-563zM1413 758q0 -678 -692 -760l-365 6l-284 -6l-11 63l193 27v619h-170v73h170v566l-193 26l11 64l282 -6l391 6q313 0 490.5 -175.5t177.5 -502.5z" />
    <glyph glyph-name="Ntilde" unicode="&#xd1;" horiz-adv-x="1523" 
d="M1311 -4h-121l-780 1153l-31 125v-1186l182 -27l-12 -63l-217 6l-260 -6l-11 63l193 27v1239l-182 45l10 64l197 -6l133 6l735 -1071l39 -103v1084l-180 26l10 64l219 -6l258 6l10 -64l-192 -26v-1350zM524 1761l154 45l305 -102l76 111h45l-45 -183l-154 -47l-305 103
l-76 -111h-45z" />
    <glyph glyph-name="Ograve" unicode="&#xd2;" horiz-adv-x="1579" 
d="M287 759q0 -120 27.5 -241t91 -221t166 -164.5t237.5 -64.5q246 0 364.5 173t118.5 439t-90 410.5t-191.5 210t-237.5 65.5t-226 -49t-147.5 -133t-85 -194.5t-27.5 -230.5zM86 699q0 327 178 519.5t545 251.5q300 0 492 -205t192 -531q0 -658 -723 -771
q-298 0 -491 204.5t-193 531.5zM770 1569l-246 270h205l148 -270h-107z" />
    <glyph glyph-name="Oacute" unicode="&#xd3;" horiz-adv-x="1579" 
d="M287 759q0 -120 27.5 -241t91 -221t166 -164.5t237.5 -64.5q246 0 364.5 173t118.5 439t-90 410.5t-191.5 210t-237.5 65.5t-226 -49t-147.5 -133t-85 -194.5t-27.5 -230.5zM86 699q0 327 178 519.5t545 251.5q300 0 492 -205t192 -531q0 -658 -723 -771
q-298 0 -491 204.5t-193 531.5zM717 1569l149 270h205l-248 -270h-106z" />
    <glyph glyph-name="Ocircumflex" unicode="&#xd4;" horiz-adv-x="1579" 
d="M287 759q0 -120 27.5 -241t91 -221t166 -164.5t237.5 -64.5q246 0 364.5 173t118.5 439t-90 410.5t-191.5 210t-237.5 65.5t-226 -49t-147.5 -133t-85 -194.5t-27.5 -230.5zM86 699q0 327 178 519.5t545 251.5q300 0 492 -205t192 -531q0 -658 -723 -771
q-298 0 -491 204.5t-193 531.5zM512 1569l213 270h162l213 -270h-103l-170 137l-22 25l-21 -25l-170 -137h-102z" />
    <glyph glyph-name="Otilde" unicode="&#xd5;" horiz-adv-x="1579" 
d="M287 759q0 -120 27.5 -241t91 -221t166 -164.5t237.5 -64.5q246 0 364.5 173t118.5 439t-90 410.5t-191.5 210t-237.5 65.5t-226 -49t-147.5 -133t-85 -194.5t-27.5 -230.5zM86 699q0 327 178 519.5t545 251.5q300 0 492 -205t192 -531q0 -658 -723 -771
q-298 0 -491 204.5t-193 531.5zM571 1761l154 45l305 -102l76 111h45l-45 -183l-154 -47l-305 103l-76 -111h-45z" />
    <glyph glyph-name="Odieresis" unicode="&#xd6;" horiz-adv-x="1579" 
d="M287 759q0 -120 27.5 -241t91 -221t166 -164.5t237.5 -64.5q246 0 364.5 173t118.5 439t-90 410.5t-191.5 210t-237.5 65.5t-226 -49t-147.5 -133t-85 -194.5t-27.5 -230.5zM86 699q0 327 178 519.5t545 251.5q300 0 492 -205t192 -531q0 -658 -723 -771
q-298 0 -491 204.5t-193 531.5zM950 1776l115 10l47 -10l8 -90l-18 -80l-113 -9l-47 9l-10 94zM508 1776l115 10l47 -10l8 -90l-19 -80l-112 -9l-47 9l-11 94z" />
    <glyph glyph-name="multiply" unicode="&#xd7;" 
d="M981 39l-348 350l-346 -348l-88 88l348 346l-348 346l88 88l346 -346l348 348l88 -88l-348 -348l348 -348z" />
    <glyph glyph-name="Oslash" unicode="&#xd8;" horiz-adv-x="1579" 
d="M465 219q136 -151 363 -151t345.5 173t118.5 441t-125 463zM1116 1212q-139 154 -365 154q-227 0 -345.5 -173t-118.5 -446t125 -460zM1493 745q0 -338 -179 -531.5t-544 -250.5q-225 0 -403 125l-91 -119h-106l131 174q-102 98 -158.5 237.5t-56.5 307.5
q0 338 178 530.5t545 251.5q230 0 405 -129l93 123h102l-133 -174q104 -98 160.5 -238.5t56.5 -306.5z" />
    <glyph glyph-name="Ugrave" unicode="&#xd9;" horiz-adv-x="1468" 
d="M418 465q0 -404 348 -404q162 0 249 104.5t87 305.5v875l-189 26l11 64l262 -6l241 6l11 -64l-178 -26v-848q0 -213 -113.5 -341t-403.5 -194q-520 0 -520 543v840l-192 26l10 64l285 -6l264 6l10 -64l-182 -26v-881zM727 1569l-246 270h205l148 -270h-107z" />
    <glyph glyph-name="Uacute" unicode="&#xda;" horiz-adv-x="1468" 
d="M418 465q0 -404 348 -404q162 0 249 104.5t87 305.5v875l-189 26l11 64l262 -6l241 6l11 -64l-178 -26v-848q0 -213 -113.5 -341t-403.5 -194q-520 0 -520 543v840l-192 26l10 64l285 -6l264 6l10 -64l-182 -26v-881zM674 1569l149 270h205l-248 -270h-106z" />
    <glyph glyph-name="Ucircumflex" unicode="&#xdb;" horiz-adv-x="1468" 
d="M418 465q0 -404 348 -404q162 0 249 104.5t87 305.5v875l-189 26l11 64l262 -6l241 6l11 -64l-178 -26v-848q0 -213 -113.5 -341t-403.5 -194q-520 0 -520 543v840l-192 26l10 64l285 -6l264 6l10 -64l-182 -26v-881zM958 1569l-170 137l-22 25l-21 -25l-170 -137h-102
l213 270h162l213 -270h-103z" />
    <glyph glyph-name="Udieresis" unicode="&#xdc;" horiz-adv-x="1468" 
d="M418 465q0 -404 348 -404q162 0 249 104.5t87 305.5v875l-189 26l11 64l262 -6l241 6l11 -64l-178 -26v-848q0 -213 -113.5 -341t-403.5 -194q-520 0 -520 543v840l-192 26l10 64l285 -6l264 6l10 -64l-182 -26v-881zM909 1776l115 10l49 -10l8 -90l-18 -80l-113 -9
l-47 9l-10 94zM469 1776l113 10l49 -10l8 -90l-18 -80l-113 -9l-47 9l-10 94z" />
    <glyph glyph-name="Yacute" unicode="&#xdd;" horiz-adv-x="1447" 
d="M819 553l4 -465l240 -27l-10 -63l-320 6l-334 -6l-10 63l252 27v475l-463 789l-168 22l10 62l277 -6l260 6l10 -62l-182 -26l360 -609l21 -71l352 680l-186 26l10 62l250 -6l235 6l11 -60l-168 -20zM696 1569l148 270h205l-246 -270h-107z" />
    <glyph glyph-name="Thorn" unicode="&#xde;" horiz-adv-x="1224" 
d="M446 416h187q158 0 252 94t94 240q0 221 -115.5 266t-201.5 45l-216 -12v-633zM1182 771q0 -182 -144 -297t-354 -152h-238v-232l234 -27l-10 -65l-314 6l-274 -6l-10 65l192 27v1256l-192 26l10 64l274 -6l240 6l10 -64l-160 -26v-209l281 4q316 0 385.5 -137.5
t69.5 -232.5z" />
    <glyph glyph-name="germandbls" unicode="&#xdf;" horiz-adv-x="1202" 
d="M631 1386q-232 0 -232 -360v-1026l-59 4l-244 -6l-10 51l152 21v782h-185v33l58 67h127v101q0 98 65.5 193t194.5 161l125 63q278 0 337.5 -101t59.5 -167t-21.5 -115t-61.5 -91t-98 -81t-128 -84q0 -53 25.5 -106t115.5 -102l129 -72q106 -57 143 -123t37 -133
q0 -125 -101.5 -210t-250.5 -122q-128 0 -196 45t-81 58l-12 198h103l49 -151q33 -20 69.5 -38t82.5 -18q81 0 126 49t45 111q0 122 -145 209l-121 72q-162 96 -162 315l131 84q55 37 101.5 105.5t46.5 160.5t-56 157.5t-159 65.5z" />
    <glyph glyph-name="agrave" unicode="&#xe0;" horiz-adv-x="909" 
d="M752 256q0 -102 36 -154h105l6 -63l-235 -45l-62 156l-248 -181q-129 0 -211 67.5t-82 190.5q0 53 16.5 93t49.5 90l463 155v99q0 107 -22 156.5t-107.5 49.5t-179.5 -39l-37 -147h-150v143l352 160q94 0 153.5 -13t106 -63.5t46.5 -253.5v-401zM264 133q39 -31 93 -31
t135 58l98 67v260l-326 -135q-39 -40 -39 -114t39 -105zM514 1100l-248 352h209l100 -352h-61z" />
    <glyph glyph-name="aacute" unicode="&#xe1;" horiz-adv-x="909" 
d="M752 256q0 -102 36 -154h105l6 -63l-235 -45l-62 156l-248 -181q-129 0 -211 67.5t-82 190.5q0 53 16.5 93t49.5 90l463 155v99q0 107 -22 156.5t-107.5 49.5t-179.5 -39l-37 -147h-150v143l352 160q94 0 153.5 -13t106 -63.5t46.5 -253.5v-401zM264 133q39 -31 93 -31
t135 58l98 67v260l-326 -135q-39 -40 -39 -114t39 -105zM436 1100l99 352h208l-245 -352h-62z" />
    <glyph glyph-name="acircumflex" unicode="&#xe2;" horiz-adv-x="909" 
d="M752 256q0 -102 36 -154h105l6 -63l-235 -45l-62 156l-248 -181q-129 0 -211 67.5t-82 190.5q0 53 16.5 93t49.5 90l463 155v99q0 107 -22 156.5t-107.5 49.5t-179.5 -39l-37 -147h-150v143l352 160q94 0 153.5 -13t106 -63.5t46.5 -253.5v-401zM264 133q39 -31 93 -31
t135 58l98 67v260l-326 -135q-39 -40 -39 -114t39 -105zM164 1100l217 352h137l215 -352h-61l-187 190l-36 41l-37 -41l-187 -190h-61z" />
    <glyph glyph-name="atilde" unicode="&#xe3;" horiz-adv-x="909" 
d="M752 256q0 -102 36 -154h105l6 -63l-235 -45l-62 156l-248 -181q-129 0 -211 67.5t-82 190.5q0 53 16.5 93t49.5 90l463 155v99q0 107 -22 156.5t-107.5 49.5t-179.5 -39l-37 -147h-150v143l352 160q94 0 153.5 -13t106 -63.5t46.5 -253.5v-401zM264 133q39 -31 93 -31
t135 58l98 67v260l-326 -135q-39 -40 -39 -114t39 -105zM182 1382l154 45l309 -116l60 112h57l-47 -194l-152 -35l-311 117l-57 -113h-58z" />
    <glyph glyph-name="adieresis" unicode="&#xe4;" horiz-adv-x="909" 
d="M752 256q0 -102 36 -154h105l6 -63l-235 -45l-62 156l-248 -181q-129 0 -211 67.5t-82 190.5q0 53 16.5 93t49.5 90l463 155v99q0 107 -22 156.5t-107.5 49.5t-179.5 -39l-37 -147h-150v143l352 160q94 0 153.5 -13t106 -63.5t46.5 -253.5v-401zM264 133q39 -31 93 -31
t135 58l98 67v260l-326 -135q-39 -40 -39 -114t39 -105zM551 1384l115 9l47 -9l10 -92l-21 -78l-110 -10l-49 10l-8 93zM190 1384l115 9l47 -9l10 -92l-18 -78l-113 -10l-49 10l-8 93z" />
    <glyph glyph-name="aring" unicode="&#xe5;" horiz-adv-x="909" 
d="M752 256q0 -102 36 -154h105l6 -63l-235 -45l-62 156l-248 -181q-129 0 -211 67.5t-82 190.5q0 53 16.5 93t49.5 90l463 155v99q0 107 -22 156.5t-107.5 49.5t-179.5 -39l-37 -147h-150v143l352 160q94 0 153.5 -13t106 -63.5t46.5 -253.5v-401zM264 133q39 -31 93 -31
t135 58l98 67v260l-326 -135q-39 -40 -39 -114t39 -105zM342 1282q0 -53 32 -85t85 -32t86 32t33 85t-33 85t-86 32t-85 -32t-32 -85zM611.5 1170.5q-50.5 -37.5 -152.5 -70.5q-132 0 -167.5 65.5t-35.5 111.5q0 84 54 122.5t149 64.5q78 0 140.5 -45t62.5 -128
t-50.5 -120.5z" />
    <glyph glyph-name="ae" unicode="&#xe6;" horiz-adv-x="1425" 
d="M225 219q0 -57 40 -89t93 -32t127 60l88 65v269l-309 -136q-23 -23 -31 -51.5t-8 -85.5zM963 895q-100 0 -156.5 -80t-73.5 -213l418 21q0 133 -26.5 182t-63.5 69.5t-98 20.5zM1346 610v-84h-615q0 -186 97 -303t262 -117q95 0 233 91l27 -74q-146 -93 -355 -154
q-111 0 -211 49.5t-166 147.5l-260 -197q-130 0 -213.5 69t-83.5 179q0 61 16.5 102t49.5 91l444 155v99q0 101 -18.5 153.5t-105.5 52.5q-86 0 -164 -39l-37 -155h-154v151l352 160q117 0 177.5 -26.5t89.5 -94.5q113 85 280 121q355 0 355 -377z" />
    <glyph glyph-name="ccedilla" unicode="&#xe7;" horiz-adv-x="903" 
d="M457 -410q63 38 63 111.5t-51 104t-121 30.5l105 139q-162 23 -263.5 145t-101.5 341t134.5 347.5t340.5 178.5q97 0 172.5 -41t98.5 -61v-187h-123l-49 152q-54 37 -122 37q-123 0 -200.5 -111.5t-77.5 -282.5t87.5 -280t236.5 -109q96 0 241 91l25 -72
q-147 -99 -320 -154h-14l-43 -65q57 0 111.5 -35.5t54.5 -92.5q0 -92 -53.5 -150.5t-124.5 -80.5l-105 -32h-116l59 77h156z" />
    <glyph glyph-name="egrave" unicode="&#xe8;" horiz-adv-x="960" 
d="M487 893q-100 0 -161.5 -80t-77.5 -209l444 21q0 135 -29.5 182t-69.5 66.5t-106 19.5zM881 604v-78h-635q0 -188 93 -305t263 -117q109 0 256 89l29 -74q-154 -96 -348 -150q-190 0 -326.5 132.5t-136.5 363.5t123.5 356.5t328.5 165.5q353 0 353 -383zM514 1100
l-246 352h209l98 -352h-61z" />
    <glyph glyph-name="eacute" unicode="&#xe9;" horiz-adv-x="960" 
d="M487 893q-100 0 -161.5 -80t-77.5 -209l444 21q0 135 -29.5 182t-69.5 66.5t-106 19.5zM881 604v-78h-635q0 -188 93 -305t263 -117q109 0 256 89l29 -74q-154 -96 -348 -150q-190 0 -326.5 132.5t-136.5 363.5t123.5 356.5t328.5 165.5q353 0 353 -383zM539 1100l98 352
h209l-246 -352h-61z" />
    <glyph glyph-name="ecircumflex" unicode="&#xea;" horiz-adv-x="960" 
d="M487 893q-100 0 -161.5 -80t-77.5 -209l444 21q0 135 -29.5 182t-69.5 66.5t-106 19.5zM881 604v-78h-635q0 -188 93 -305t263 -117q109 0 256 89l29 -74q-154 -96 -348 -150q-190 0 -326.5 132.5t-136.5 363.5t123.5 356.5t328.5 165.5q353 0 353 -383zM256 1100
l215 352h137l217 -352h-61l-186 190l-37 41l-37 -41l-187 -190h-61z" />
    <glyph glyph-name="edieresis" unicode="&#xeb;" horiz-adv-x="960" 
d="M487 893q-100 0 -161.5 -80t-77.5 -209l444 21q0 135 -29.5 182t-69.5 66.5t-106 19.5zM881 604v-78h-635q0 -188 93 -305t263 -117q109 0 256 89l29 -74q-154 -96 -348 -150q-190 0 -326.5 132.5t-136.5 363.5t123.5 356.5t328.5 165.5q353 0 353 -383zM614 1384l115 9
l49 -9l8 -92l-18 -78l-113 -10l-47 10l-10 93zM256 1384l113 9l49 -9l8 -92l-18 -78l-113 -10l-47 10l-10 93z" />
    <glyph glyph-name="igrave" unicode="&#xec;" horiz-adv-x="591" 
d="M311 4l-229 -6l-10 63l151 19v758l-151 -15l-11 64l232 67l94 9v-883l164 -19l-10 -63zM311 1100l-248 352h209l101 -352h-62z" />
    <glyph glyph-name="iacute" unicode="&#xed;" horiz-adv-x="591" 
d="M311 4l-229 -6l-10 63l151 19v758l-151 -15l-11 64l232 67l94 9v-883l164 -19l-10 -63zM256 1100l98 352h209l-246 -352h-61z" />
    <glyph glyph-name="icircumflex" unicode="&#xee;" horiz-adv-x="591" 
d="M311 4l-229 -6l-10 63l151 19v758l-151 -15l-11 64l232 67l94 9v-883l164 -19l-10 -63zM8 1100l215 352h137l218 -352h-62l-186 190l-37 41l-37 -41l-186 -190h-62z" />
    <glyph glyph-name="idieresis" unicode="&#xef;" horiz-adv-x="591" 
d="M313 4l-229 -6l-10 63l151 19v758l-151 -15l-11 64l232 67l94 9v-883l164 -19l-10 -63zM397 1384l115 9l49 -9l8 -92l-18 -78l-113 -10l-47 10l-10 93zM39 1384l113 9l49 -9l8 -92l-19 -78l-112 -10l-47 10l-11 93z" />
    <glyph glyph-name="eth" unicode="&#xf0;" horiz-adv-x="1081" 
d="M331.5 190q85.5 -124 222.5 -124t210.5 98.5t73.5 270.5q0 171 -87 296t-223 125t-209 -97t-73 -271t85.5 -298zM676 1286q334 -262 334 -778q0 -235 -134 -371.5t-370 -167.5q-200 0 -317 131.5t-117 343.5q0 346 194.5 419t308.5 89l218 -98q-57 213 -234 377
l-256 -125v113l164 79q2 0 -78 45.5t-98 57.5l41 74q176 -78 246 -121l241 116v-112z" />
    <glyph glyph-name="ntilde" unicode="&#xf1;" horiz-adv-x="1183" 
d="M821 674q0 166 -145 166q-57 0 -112.5 -31t-110.5 -68l-68 -43v-618l121 -19l-10 -63l-187 6l-229 -6l-10 63l151 19v760l-149 -15l-11 64l230 65l78 7l12 -175l301 201q190 0 236.5 -59.5t55.5 -124t9 -156.5v-567l166 -19l-10 -63l-230 6l-186 -6l-10 63l108 19v594z
M330 1382l153 45l310 -116l59 112h57l-49 -194l-151 -35l-312 117l-57 -113h-57z" />
    <glyph glyph-name="ograve" unicode="&#xf2;" horiz-adv-x="1097" 
d="M339.5 189.5q91.5 -126.5 231.5 -126.5t210.5 117.5t70.5 296.5t-93.5 297.5t-232.5 118.5t-208.5 -116.5t-69.5 -288.5t91.5 -298.5zM76 457q0 452 491 530q204 0 329.5 -141.5t125.5 -356.5q0 -214 -124 -349.5t-366 -170.5q-203 0 -329.5 139.5t-126.5 348.5z
M590 1100l-248 352h209l100 -352h-61z" />
    <glyph glyph-name="oacute" unicode="&#xf3;" horiz-adv-x="1097" 
d="M339.5 189.5q91.5 -126.5 231.5 -126.5t210.5 117.5t70.5 296.5t-93.5 297.5t-232.5 118.5t-208.5 -116.5t-69.5 -288.5t91.5 -298.5zM76 457q0 452 491 530q204 0 329.5 -141.5t125.5 -356.5q0 -214 -124 -349.5t-366 -170.5q-203 0 -329.5 139.5t-126.5 348.5z
M543 1100l98 352h209l-246 -352h-61z" />
    <glyph glyph-name="ocircumflex" unicode="&#xf4;" horiz-adv-x="1097" 
d="M339.5 189.5q91.5 -126.5 231.5 -126.5t210.5 117.5t70.5 296.5t-93.5 297.5t-232.5 118.5t-208.5 -116.5t-69.5 -288.5t91.5 -298.5zM76 457q0 452 491 530q204 0 329.5 -141.5t125.5 -356.5q0 -214 -124 -349.5t-366 -170.5q-203 0 -329.5 139.5t-126.5 348.5z
M281 1100l215 352h137l215 -352h-62l-184 190l-37 41l-223 -231h-61z" />
    <glyph glyph-name="otilde" unicode="&#xf5;" horiz-adv-x="1097" 
d="M339.5 189.5q91.5 -126.5 231.5 -126.5t210.5 117.5t70.5 296.5t-93.5 297.5t-232.5 118.5t-208.5 -116.5t-69.5 -288.5t91.5 -298.5zM76 457q0 452 491 530q204 0 329.5 -141.5t125.5 -356.5q0 -214 -124 -349.5t-366 -170.5q-203 0 -329.5 139.5t-126.5 348.5z
M307 1382l154 45l309 -116l59 112h58l-49 -194l-152 -35l-311 117l-58 -113h-57z" />
    <glyph glyph-name="odieresis" unicode="&#xf6;" horiz-adv-x="1097" 
d="M339.5 189.5q91.5 -126.5 231.5 -126.5t210.5 117.5t70.5 296.5t-93.5 297.5t-232.5 118.5t-208.5 -116.5t-69.5 -288.5t91.5 -298.5zM76 457q0 452 491 530q204 0 329.5 -141.5t125.5 -356.5q0 -214 -124 -349.5t-366 -170.5q-203 0 -329.5 139.5t-126.5 348.5z
M655 1384l115 9l49 -9l8 -92l-18 -78l-113 -10l-47 10l-10 93zM297 1384l113 9l49 -9l8 -92l-18 -78l-113 -10l-47 10l-10 93z" />
    <glyph glyph-name="divide" unicode="&#xf7;" 
d="M96 555h1075v-125h-1075v125zM539 956l143 9l57 -9l9 -106l-9 -94l-143 -11l-57 11l-11 108zM539 201l143 8l57 -8l9 -107l-9 -94l-143 -10l-57 10l-11 109z" />
    <glyph glyph-name="oslash" unicode="&#xf8;" horiz-adv-x="1097" 
d="M745 788q-92 105 -225 105t-202.5 -116.5t-69.5 -271.5t55 -255zM346 182q97 -119 230 -119q134 0 205 117.5t71 273.5t-61 271zM1022 494q0 -219 -124 -354.5t-366 -170.5q-167 0 -282 94l-70 -83h-100l113 137q-117 135 -117 340q0 452 491 530q153 0 269 -88l65 80h96
l-106 -129q131 -137 131 -356z" />
    <glyph glyph-name="ugrave" unicode="&#xf9;" horiz-adv-x="1142" 
d="M344 276q0 -159 140 -159q66 0 130 35.5t129 78.5l43 27v582l-129 -11l-10 74l215 51l88 9v-699q0 -100 23 -158h108l9 -63l-240 -49l-57 162l-301 -187q-194 0 -242.5 61.5t-58 126t-9.5 152.5v531l-153 -11l-11 74l238 51l88 9v-687zM539 1100l-248 352h209l100 -352
h-61z" />
    <glyph glyph-name="uacute" unicode="&#xfa;" horiz-adv-x="1142" 
d="M344 276q0 -159 140 -159q66 0 130 35.5t129 78.5l43 27v582l-129 -11l-10 74l215 51l88 9v-699q0 -100 23 -158h108l9 -63l-240 -49l-57 162l-301 -187q-194 0 -242.5 61.5t-58 126t-9.5 152.5v531l-153 -11l-11 74l238 51l88 9v-687zM514 1100l100 352h209l-248 -352
h-61z" />
    <glyph glyph-name="ucircumflex" unicode="&#xfb;" horiz-adv-x="1142" 
d="M344 276q0 -159 140 -159q66 0 130 35.5t129 78.5l43 27v582l-129 -11l-10 74l215 51l88 9v-699q0 -100 23 -158h108l9 -63l-240 -49l-57 162l-301 -187q-194 0 -242.5 61.5t-58 126t-9.5 152.5v531l-153 -11l-11 74l238 51l88 9v-687zM784 1100l-186 190l-37 41l-37 -41
l-186 -190h-62l218 352h137l215 -352h-62z" />
    <glyph glyph-name="udieresis" unicode="&#xfc;" horiz-adv-x="1142" 
d="M344 276q0 -159 140 -159q66 0 130 35.5t129 78.5l43 27v582l-129 -11l-10 74l215 51l88 9v-699q0 -100 23 -158h108l9 -63l-240 -49l-57 162l-301 -187q-194 0 -242.5 61.5t-58 126t-9.5 152.5v531l-153 -11l-11 74l238 51l88 9v-687zM659 1384l115 9l49 -9l8 -92
l-18 -78l-113 -10l-47 10l-10 93zM301 1384l113 9l49 -9l8 -92l-18 -78l-113 -10l-47 10l-10 93z" />
    <glyph glyph-name="yacute" unicode="&#xfd;" horiz-adv-x="1093" 
d="M172 -481v182h156l200 319l-47 -14l-336 868l-135 21l10 63l224 -6l209 6l10 -63l-144 -21l224 -622l14 -131l254 753l-94 21l10 63l176 -6l170 6l10 -63l-135 -21l-327 -845l-228 -510h-221zM573 1100l99 352h209l-246 -352h-62z" />
    <glyph glyph-name="thorn" unicode="&#xfe;" horiz-adv-x="1124" 
d="M600 66q119 0 190.5 103.5t71.5 279.5t-60.5 289.5t-162.5 113.5q-78 0 -215 -102l-68 -52v-510q37 -57 102.5 -89.5t141.5 -32.5zM1034 504q0 -362 -199 -441.5t-305 -93.5q-96 0 -174 49v-407l224 -21l-11 -63l-286 6l-232 -6l-10 63l152 21v1728l-152 -12l-10 62
l231 65l94 8v-669l254 194q215 0 319.5 -128t104.5 -355z" />
    <glyph glyph-name="ydieresis" unicode="&#xff;" horiz-adv-x="1093" 
d="M172 -481v182h156l200 319l-47 -14l-336 868l-135 21l10 63l224 -6l209 6l10 -63l-144 -21l224 -622l14 -131l254 753l-94 21l10 63l176 -6l170 6l10 -63l-135 -21l-327 -845l-228 -510h-221zM672 1384l114 9l50 -9l8 -92l-19 -78l-112 -10l-47 10l-11 93zM313 1384
l113 9l49 -9l8 -92l-18 -78l-113 -10l-47 10l-10 93z" />
    <glyph glyph-name="Amacron" unicode="&#x100;" horiz-adv-x="1529" 
d="M750 1116l-17 109l-227 -650h446zM475 485l-139 -397l184 -27l-10 -63l-254 6l-223 -6l-10 63l170 23l520 1339l75 29l553 -1368l166 -23l-10 -63l-256 6l-278 -6l-11 63l183 27l-148 397h-512zM477 1745h565v-103h-565v103z" />
    <glyph glyph-name="amacron" unicode="&#x101;" horiz-adv-x="909" 
d="M752 256q0 -102 36 -154h105l6 -63l-235 -45l-62 156l-248 -181q-129 0 -211 67.5t-82 190.5q0 53 16.5 93t49.5 90l463 155v99q0 107 -22 156.5t-107.5 49.5t-179.5 -39l-37 -147h-150v143l352 160q94 0 153.5 -13t106 -63.5t46.5 -253.5v-401zM264 133q39 -31 93 -31
t135 58l98 67v260l-326 -135q-39 -40 -39 -114t39 -105zM160 1405h565v-102h-565v102z" />
    <glyph glyph-name="Abreve" unicode="&#x102;" horiz-adv-x="1529" 
d="M750 1116l-17 109l-227 -650h446zM475 485l-139 -397l184 -27l-10 -63l-254 6l-223 -6l-10 63l170 23l520 1339l75 29l553 -1368l166 -23l-10 -63l-256 6l-278 -6l-11 63l183 27l-148 397h-512zM753 1659q128 0 230 145l43 -37q-12 -16 -48.5 -90.5t-193.5 -136.5
q-158 0 -221 98.5t-82 128.5l51 37q44 -62 93 -103.5t128 -41.5z" />
    <glyph glyph-name="abreve" unicode="&#x103;" horiz-adv-x="909" 
d="M752 256q0 -102 36 -154h105l6 -63l-235 -45l-62 156l-248 -181q-129 0 -211 67.5t-82 190.5q0 53 16.5 93t49.5 90l463 155v99q0 107 -22 156.5t-107.5 49.5t-179.5 -39l-37 -147h-150v143l352 160q94 0 153.5 -13t106 -63.5t46.5 -253.5v-401zM264 133q39 -31 93 -31
t135 58l98 67v260l-326 -135q-39 -40 -39 -114t39 -105zM448 1235q134 0 211 170l56 -37q-33 -63 -84 -124.5t-154 -127.5q-119 0 -200 81t-107 171l55 37q51 -113 115 -141.5t108 -28.5z" />
    <glyph glyph-name="Aogonek" unicode="&#x104;" horiz-adv-x="1529" 
d="M750 1116l-17 109l-227 -650h446zM1098 -297q0 -106 74.5 -117.5t111.5 -11.5v-61q-193 0 -273.5 51t-80.5 155v103l219 223l-162 440h-512l-139 -397l184 -27l-10 -63l-254 6l-223 -6l-10 63l170 23l520 1339l75 29l553 -1368l166 -23l-10 -63l-301 6l-98 -233v-68z" />
    <glyph glyph-name="aogonek" unicode="&#x105;" horiz-adv-x="909" 
d="M264 133q39 -31 93 -31t135 58l98 67v260l-326 -135q-39 -40 -39 -114t39 -105zM752 256q0 -102 36 -154h105l6 -63l-164 -33l-139 -260v-43q0 -106 74.5 -117.5t111.5 -11.5v-61q-193 0 -273.5 51t-80.5 155v78l236 199l-62 154l-248 -181q-129 0 -211 67.5t-82 190.5
q0 53 16.5 93t49.5 90l463 155v99q0 107 -22 156.5t-107.5 49.5t-179.5 -39l-37 -147h-150v143l352 160q94 0 153.5 -13t106 -63.5t46.5 -253.5v-401z" />
    <glyph glyph-name="Cacute" unicode="&#x106;" horiz-adv-x="1439" 
d="M86 701q0 343 206.5 535t551.5 234q213 0 338 -71.5t155 -95.5v-252h-104l-66 188q-135 135 -377 135q-92 0 -189 -40t-205.5 -161.5t-108.5 -405.5t161 -491.5t433 -207.5q109 0 175 46t85 60l114 223h105l-57 -270q-167 -81 -299 -118.5t-189 -45.5
q-299 0 -452.5 141.5t-215 279.5t-61.5 317zM764 1569l147 270h205l-246 -270h-106z" />
    <glyph glyph-name="cacute" unicode="&#x107;" horiz-adv-x="903" 
d="M532 -31q-199 0 -321.5 128t-122.5 355.5t134.5 356t340.5 178.5q97 0 172.5 -41t98.5 -61v-187h-123l-49 152q-54 37 -122 37q-123 0 -200.5 -111.5t-77.5 -282.5t87.5 -280t236.5 -109q96 0 241 91l25 -72q-147 -99 -320 -154zM481 1100l99 352h208l-245 -352h-62z" />
    <glyph glyph-name="Ccircumflex" unicode="&#x108;" horiz-adv-x="1439" 
d="M86 701q0 343 206.5 535t551.5 234q213 0 338 -71.5t155 -95.5v-252h-104l-66 188q-135 135 -377 135q-92 0 -189 -40t-205.5 -161.5t-108.5 -405.5t161 -491.5t433 -207.5q109 0 175 46t85 60l114 223h105l-57 -270q-167 -81 -299 -118.5t-189 -45.5
q-299 0 -452.5 141.5t-215 279.5t-61.5 317zM543 1569l213 270h162l212 -270h-102l-170 137l-22 25l-21 -25l-170 -137h-102z" />
    <glyph glyph-name="ccircumflex" unicode="&#x109;" horiz-adv-x="903" 
d="M532 -31q-199 0 -321.5 128t-122.5 355.5t134.5 356t340.5 178.5q97 0 172.5 -41t98.5 -61v-187h-123l-49 152q-54 37 -122 37q-123 0 -200.5 -111.5t-77.5 -282.5t87.5 -280t236.5 -109q96 0 241 91l25 -72q-147 -99 -320 -154zM256 1100l217 352h135l217 -352h-61
l-186 190l-37 41l-37 -41l-187 -190h-61z" />
    <glyph glyph-name="Cdotaccent" unicode="&#x10a;" horiz-adv-x="1439" 
d="M86 701q0 343 206.5 535t551.5 234q213 0 338 -71.5t155 -95.5v-252h-104l-66 188q-135 135 -377 135q-92 0 -189 -40t-205.5 -161.5t-108.5 -405.5t161 -491.5t433 -207.5q109 0 175 46t85 60l114 223h105l-57 -270q-167 -81 -299 -118.5t-189 -45.5
q-299 0 -452.5 141.5t-215 279.5t-61.5 317zM727 1790l147 10l48 -10l10 -109l-23 -94l-147 -10l-43 10l-10 109z" />
    <glyph glyph-name="cdotaccent" unicode="&#x10b;" horiz-adv-x="903" 
d="M532 -31q-199 0 -321.5 128t-122.5 355.5t134.5 356t340.5 178.5q97 0 172.5 -41t98.5 -61v-187h-123l-49 152q-54 37 -122 37q-123 0 -200.5 -111.5t-77.5 -282.5t87.5 -280t236.5 -109q96 0 241 91l25 -72q-147 -99 -320 -154zM451 1436l149 10l45 -10l10 -109l-22 -92
l-148 -12l-41 12l-12 108z" />
    <glyph glyph-name="Ccaron" unicode="&#x10c;" horiz-adv-x="1439" 
d="M86 701q0 343 206.5 535t551.5 234q213 0 338 -71.5t155 -95.5v-252h-104l-66 188q-135 135 -377 135q-92 0 -189 -40t-205.5 -161.5t-108.5 -405.5t161 -491.5t433 -207.5q109 0 175 46t85 60l114 223h105l-57 -270q-167 -81 -299 -118.5t-189 -45.5
q-299 0 -452.5 141.5t-215 279.5t-61.5 317zM621 1839l170 -135l20 -27l23 27l170 135h102l-213 -270h-162l-213 270h103z" />
    <glyph glyph-name="ccaron" unicode="&#x10d;" horiz-adv-x="903" 
d="M532 -31q-199 0 -321.5 128t-122.5 355.5t134.5 356t340.5 178.5q97 0 172.5 -41t98.5 -61v-187h-123l-49 152q-54 37 -122 37q-123 0 -200.5 -111.5t-77.5 -282.5t87.5 -280t236.5 -109q96 0 241 91l25 -72q-147 -99 -320 -154zM317 1477l187 -191l37 -41l37 41l186 191
h61l-217 -353h-135l-217 353h61z" />
    <glyph glyph-name="Dcaron" unicode="&#x10e;" horiz-adv-x="1499" 
d="M1063 1176q-145 174 -416 178l-211 -11v-1237l271 -20q223 4 362 176t139 456t-145 458zM1413 758q0 -678 -692 -760l-365 6l-284 -6l-11 63l193 27v1258l-193 26l11 64l282 -6l391 6q313 0 490.5 -175.5t177.5 -502.5zM1012 1839l-213 -270h-162l-213 270h102l170 -135
l21 -27l22 27l170 135h103z" />
    <glyph glyph-name="dcaron" unicode="&#x10f;" horiz-adv-x="1126" 
d="M538 897q-138 0 -215 -107.5t-77 -288.5t62.5 -282.5t161.5 -101.5t214 92l68 55v545q-76 88 -214 88zM915 264q0 -102 37 -153h123l8 -68l-254 -49l-63 153l-268 -178q-192 0 -308 130.5t-116 357.5q0 226 134.5 363.5t371.5 166.5q45 0 172 -55v401l-152 -4l-10 62
l237 63l88 8v-1198zM995 1454h189v-164l-121 -217l-68 21l47 206l-47 72v82z" />
    <glyph glyph-name="Dcroat" unicode="&#x110;" horiz-adv-x="1499" 
d="M436 793h266v-99h-266v-588l271 -20q223 4 362 176t139 456t-145 458t-416 178l-211 -11v-550zM1413 758q0 -678 -692 -760l-365 6l-284 -6l-11 63l193 27v606h-170v99h170v553l-193 26l11 64l282 -6l391 6q313 0 490.5 -175.5t177.5 -502.5z" />
    <glyph glyph-name="dcroat" unicode="&#x111;" horiz-adv-x="1126" 
d="M538 897q-138 0 -215 -107.5t-77 -288.5t62.5 -282.5t161.5 -101.5t214 92l68 55v545q-76 88 -214 88zM752 1147h-283v78h283v108l-152 -4l-10 62l237 63l88 8v-237h166v-78h-166v-883q0 -102 37 -153h123l8 -68l-254 -49l-63 153l-268 -178q-192 0 -308 130.5
t-116 357.5q0 226 134.5 363.5t371.5 166.5q45 0 172 -55v215z" />
    <glyph glyph-name="Emacron" unicode="&#x112;" horiz-adv-x="1280" 
d="M1151 1436l18 -361h-57l-113 266l-563 7v-560l303 9l82 215h62l-21 -248l21 -272h-62l-82 213l-303 8v-627l584 6l137 277h68l-74 -371l-797 6l-282 -6l-11 63l193 27v1258l-193 26l11 64l282 -6zM412 1745h565v-103h-565v103z" />
    <glyph glyph-name="emacron" unicode="&#x113;" horiz-adv-x="960" 
d="M487 893q-100 0 -161.5 -80t-77.5 -209l444 21q0 135 -29.5 182t-69.5 66.5t-106 19.5zM881 604v-78h-635q0 -188 93 -305t263 -117q109 0 256 89l29 -74q-154 -96 -348 -150q-190 0 -326.5 132.5t-136.5 363.5t123.5 356.5t328.5 165.5q353 0 353 -383zM229 1405h566
v-102h-566v102z" />
    <glyph glyph-name="Ebreve" unicode="&#x114;" horiz-adv-x="1280" 
d="M1151 1436l18 -361h-57l-113 266l-563 7v-560l303 9l82 215h62l-21 -248l21 -272h-62l-82 213l-303 8v-627l584 6l137 277h68l-74 -371l-797 6l-282 -6l-11 63l193 27v1258l-193 26l11 64l282 -6zM810.5 1700.5q53.5 41.5 96.5 103.5l43 -37q-12 -16 -48.5 -90
t-192.5 -137q-159 0 -222 98.5t-81 128.5l49 37q45 -65 94.5 -105t128.5 -40t132.5 41.5z" />
    <glyph glyph-name="ebreve" unicode="&#x115;" horiz-adv-x="960" 
d="M487 893q-100 0 -161.5 -80t-77.5 -209l444 21q0 135 -29.5 182t-69.5 66.5t-106 19.5zM881 604v-78h-635q0 -188 93 -305t263 -117q109 0 256 89l29 -74q-154 -96 -348 -150q-190 0 -326.5 132.5t-136.5 363.5t123.5 356.5t328.5 165.5q353 0 353 -383zM512 1237
q140 0 217 170l55 -37q-33 -63 -83 -124.5t-152 -127.5q-119 0 -201.5 82.5t-107.5 169.5l55 37q77 -170 217 -170z" />
    <glyph glyph-name="Edotaccent" unicode="&#x116;" horiz-adv-x="1280" 
d="M1151 1436l18 -361h-57l-113 266l-563 7v-560l303 9l82 215h62l-21 -248l21 -272h-62l-82 213l-303 8v-627l584 6l137 277h68l-74 -371l-797 6l-282 -6l-11 63l193 27v1258l-193 26l11 64l282 -6zM606 1798l148 10l47 -10l8 -108l-21 -95l-147 -10l-43 10l-12 109z" />
    <glyph glyph-name="edotaccent" unicode="&#x117;" horiz-adv-x="960" 
d="M487 893q-100 0 -161.5 -80t-77.5 -209l444 21q0 135 -29.5 182t-69.5 66.5t-106 19.5zM881 604v-78h-635q0 -188 93 -305t263 -117q109 0 256 89l29 -74q-154 -96 -348 -150q-190 0 -326.5 132.5t-136.5 363.5t123.5 356.5t328.5 165.5q353 0 353 -383zM418 1436l149 10
l45 -10l11 -109l-21 -92l-149 -12l-41 12l-13 108z" />
    <glyph glyph-name="Eogonek" unicode="&#x118;" horiz-adv-x="1280" 
d="M938 -297q0 -106 74.5 -117.5t111.5 -11.5v-61q-190 0 -272 52t-82 154v78l201 203l-617 4l-282 -6l-11 63l193 27v1258l-193 26l11 64l282 -6l797 6l18 -361h-57l-113 266l-563 7v-560l303 9l82 215h62l-21 -248l21 -272h-62l-82 213l-303 8v-627l584 6l137 277h68
l-74 -371l-117 2l-96 -254v-43z" />
    <glyph glyph-name="eogonek" unicode="&#x119;" horiz-adv-x="960" 
d="M487 893q-100 0 -161.5 -80t-77.5 -209l444 21q0 135 -29.5 182t-69.5 66.5t-106 19.5zM881 604v-78h-635q0 -188 93 -305t263 -117q109 0 256 89l29 -74q-102 -63 -236 -115l-137 -209v-92q0 -107 85 -118t126 -11v-61q-207 0 -293 51t-86 155v78l193 172
q-190 0 -326.5 132.5t-136.5 363.5t123.5 356.5t328.5 165.5q353 0 353 -383z" />
    <glyph glyph-name="Ecaron" unicode="&#x11a;" horiz-adv-x="1280" 
d="M1151 1436l18 -361h-57l-113 266l-563 7v-560l303 9l82 215h62l-21 -248l21 -272h-62l-82 213l-303 8v-627l584 6l137 277h68l-74 -371l-797 6l-282 -6l-11 63l193 27v1258l-193 26l11 64l282 -6zM494 1839l170 -135l20 -27l23 27l170 135h102l-213 -270h-162l-213 270
h103z" />
    <glyph glyph-name="ecaron" unicode="&#x11b;" horiz-adv-x="960" 
d="M487 893q-100 0 -161.5 -80t-77.5 -209l444 21q0 135 -29.5 182t-69.5 66.5t-106 19.5zM881 604v-78h-635q0 -188 93 -305t263 -117q109 0 256 89l29 -74q-154 -96 -348 -150q-190 0 -326.5 132.5t-136.5 363.5t123.5 356.5t328.5 165.5q353 0 353 -383zM293 1477
l186 -191l37 -41l37 41l186 191h62l-217 -353h-138l-215 353h62z" />
    <glyph glyph-name="Gcircumflex" unicode="&#x11c;" horiz-adv-x="1519" 
d="M872 68q145 0 271 120v394l-185 26l11 62l266 -6l221 6l8 -62l-139 -26v-459q-37 -12 -101.5 -34.5t-190.5 -65t-238 -60.5q-302 0 -505.5 198.5t-203.5 539.5t197 530t540 239q220 0 348.5 -70.5t157.5 -94.5v-254h-90l-65 180q-164 143 -372 143q-239 0 -377 -167
t-138 -459q0 -127 41 -250t114.5 -218.5t179 -153.5t250.5 -58zM543 1569l213 270h162l212 -270h-102l-170 137l-22 25l-21 -25l-170 -137h-102z" />
    <glyph glyph-name="gcircumflex" unicode="&#x11d;" horiz-adv-x="1030" 
d="M319 354q-213 74 -213 278q0 110 88.5 206t297.5 149q86 0 166.5 -28.5t127.5 -81.5l117 110h117v-149h-109l-77 -37q23 -49 22 -103q0 -123 -89 -219t-296 -147h-25q-26 0 -43 2l-124 -141q0 -31 18 -51.5t53 -20.5h375q141 0 202.5 -55.5t61.5 -131.5
q0 -135 -142.5 -253.5t-365.5 -182.5q-229 0 -333.5 73t-104.5 218v31l217 180q-132 50 -136.5 111t-4.5 96v4zM328 -20q-125 -136 -125 -204t80 -117.5t205 -49.5t226 75.5t101 190.5q0 59 -48 82t-161 23h-278zM686 614q0 172 -77 228.5t-155 56.5t-128 -58.5t-50 -153.5
t34 -150.5t78 -84t122 -28.5t127 50t49 140zM250 1100l215 352h137l215 -352h-61l-185 190l-36 41l-224 -231h-61z" />
    <glyph glyph-name="Gbreve" unicode="&#x11e;" horiz-adv-x="1519" 
d="M872 68q145 0 271 120v394l-185 26l11 62l266 -6l221 6l8 -62l-139 -26v-459q-37 -12 -101.5 -34.5t-190.5 -65t-238 -60.5q-302 0 -505.5 198.5t-203.5 539.5t197 530t540 239q220 0 348.5 -70.5t157.5 -94.5v-254h-90l-65 180q-164 143 -372 143q-239 0 -377 -167
t-138 -459q0 -127 41 -250t114.5 -218.5t179 -153.5t250.5 -58zM957 1698.5q51 39.5 100 105.5l43 -37q-12 -16 -48.5 -90.5t-193.5 -136.5q-157 0 -221 98.5t-82 128.5l49 37q46 -65 96 -105t128 -40t129 39.5z" />
    <glyph glyph-name="gbreve" unicode="&#x11f;" horiz-adv-x="1030" 
d="M319 354q-213 74 -213 278q0 110 88.5 206t297.5 149q86 0 166.5 -28.5t127.5 -81.5l117 110h117v-149h-109l-77 -37q23 -49 22 -103q0 -123 -89 -219t-296 -147h-25q-26 0 -43 2l-124 -141q0 -31 18 -51.5t53 -20.5h375q141 0 202.5 -55.5t61.5 -131.5
q0 -135 -142.5 -253.5t-365.5 -182.5q-229 0 -333.5 73t-104.5 218v31l217 180q-132 50 -136.5 111t-4.5 96v4zM328 -20q-125 -136 -125 -204t80 -117.5t205 -49.5t226 75.5t101 190.5q0 59 -48 82t-161 23h-278zM686 614q0 172 -77 228.5t-155 56.5t-128 -58.5t-50 -153.5
t34 -150.5t78 -84t122 -28.5t127 50t49 140zM291 1407q77 -170 217 -170t217 170l55 -37q-33 -63 -84 -124.5t-153 -127.5q-119 0 -203.5 84.5t-103.5 167.5z" />
    <glyph glyph-name="Gdotaccent" unicode="&#x120;" horiz-adv-x="1519" 
d="M872 68q145 0 271 120v394l-185 26l11 62l266 -6l221 6l8 -62l-139 -26v-459q-37 -12 -101.5 -34.5t-190.5 -65t-238 -60.5q-302 0 -505.5 198.5t-203.5 539.5t197 530t540 239q220 0 348.5 -70.5t157.5 -94.5v-254h-90l-65 180q-164 143 -372 143q-239 0 -377 -167
t-138 -459q0 -127 41 -250t114.5 -218.5t179 -153.5t250.5 -58zM752 1794l147 10l47 -10l8 -108l-20 -95l-148 -10l-43 10l-12 109z" />
    <glyph glyph-name="gdotaccent" unicode="&#x121;" horiz-adv-x="1030" 
d="M319 354q-213 74 -213 278q0 110 88.5 206t297.5 149q86 0 166.5 -28.5t127.5 -81.5l117 110h117v-149h-109l-77 -37q23 -49 22 -103q0 -123 -89 -219t-296 -147h-25q-26 0 -43 2l-124 -141q0 -31 18 -51.5t53 -20.5h375q141 0 202.5 -55.5t61.5 -131.5
q0 -135 -142.5 -253.5t-365.5 -182.5q-229 0 -333.5 73t-104.5 218v31l217 180q-132 50 -136.5 111t-4.5 96v4zM328 -20q-125 -136 -125 -204t80 -117.5t205 -49.5t226 75.5t101 190.5q0 59 -48 82t-161 23h-278zM686 614q0 172 -77 228.5t-155 56.5t-128 -58.5t-50 -153.5
t34 -150.5t78 -84t122 -28.5t127 50t49 140zM422 1436l147 10l47 -10l11 -109l-23 -92l-147 -12l-43 12l-11 108z" />
    <glyph glyph-name="Gcommaaccent" unicode="&#x122;" horiz-adv-x="1519" 
d="M872 68q145 0 271 120v394l-185 26l11 62l266 -6l221 6l8 -62l-139 -26v-459q-37 -12 -101.5 -34.5t-190.5 -65t-238 -60.5q-302 0 -505.5 198.5t-203.5 539.5t197 530t540 239q220 0 348.5 -70.5t157.5 -94.5v-254h-90l-65 180q-164 143 -372 143q-239 0 -377 -167
t-138 -459q0 -127 41 -250t114.5 -218.5t179 -153.5t250.5 -58zM694 -102h189v-164l-121 -217l-68 20l47 207l-47 72v82z" />
    <glyph glyph-name="gcommaaccent" unicode="&#x123;" horiz-adv-x="1030" 
d="M319 354q-213 74 -213 278q0 110 88.5 206t297.5 149q86 0 166.5 -28.5t127.5 -81.5l117 110h117v-149h-109l-77 -37q23 -49 22 -103q0 -123 -89 -219t-296 -147h-25q-26 0 -43 2l-124 -141q0 -31 18 -51.5t53 -20.5h375q141 0 202.5 -55.5t61.5 -131.5
q0 -135 -142.5 -253.5t-365.5 -182.5q-229 0 -333.5 73t-104.5 218v31l217 180q-132 50 -136.5 111t-4.5 96v4zM328 -20q-125 -136 -125 -204t80 -117.5t205 -49.5t226 75.5t101 190.5q0 59 -48 82t-161 23h-278zM686 614q0 172 -77 228.5t-155 56.5t-128 -58.5t-50 -153.5
t34 -150.5t78 -84t122 -28.5t127 50t49 140zM618 1108h-188v164l121 209l67 -21l-47 -198l47 -72v-82z" />
    <glyph glyph-name="Hcircumflex" unicode="&#x124;" horiz-adv-x="1548" 
d="M436 791h688v555l-196 26l10 64l279 -6l260 6l10 -64l-180 -26v-1258l180 -27l-10 -63l-260 6l-279 -6l-10 63l196 27v608h-688v-608l185 -27l-11 -63l-264 6l-274 -6l-11 63l193 27v1258l-193 26l11 64l274 -6l264 6l11 -64l-185 -26v-555zM481 1569l215 270h162
l213 -270h-102l-170 137l-23 25l-22 -25l-170 -137h-103z" />
    <glyph glyph-name="hcircumflex" unicode="&#x125;" horiz-adv-x="1183" 
d="M823 674q0 166 -139 166q-71 0 -229 -99l-68 -41v-620l121 -19l-10 -63l-187 6l-229 -6l-10 63l151 19v1253l-149 -4l-11 60l230 65l94 8v-669l297 194q190 0 236.5 -65.5t55.5 -135t9 -168.5v-538l164 -19l-10 -63l-230 6l-182 -6l-10 63l106 19v594zM-2 1569l215 270
h162l213 -270h-103l-170 137l-22 25l-23 -25l-170 -137h-102z" />
    <glyph glyph-name="Hbar" unicode="&#x126;" horiz-adv-x="1548" 
d="M1124 791v172h-688v-172h688zM436 1040h688v306l-196 26l10 64l279 -6l260 6l10 -64l-180 -26v-1258l180 -27l-10 -63l-260 6l-279 -6l-10 63l196 27v608h-688v-608l185 -27l-11 -63l-264 6l-274 -6l-11 63l193 27v1258l-193 26l11 64l274 -6l264 6l11 -64l-185 -26v-306
z" />
    <glyph glyph-name="hbar" unicode="&#x127;" horiz-adv-x="1183" 
d="M823 674q0 166 -139 166q-71 0 -229 -99l-68 -41v-620l121 -19l-10 -63l-187 6l-229 -6l-10 63l151 19v1069h-166v78h166v106l-149 -4l-11 60l230 65l94 8v-235h295v-78h-295v-356l297 194q190 0 236.5 -65.5t55.5 -135t9 -168.5v-538l164 -19l-10 -63l-230 6l-182 -6
l-10 63l106 19v594z" />
    <glyph glyph-name="Itilde" unicode="&#x128;" horiz-adv-x="690" 
d="M358 4l-274 -6l-10 65l192 27v1256l-192 26l10 64l274 -6l273 6l10 -64l-192 -26v-1256l192 -27l-10 -65zM94 1761l154 45l305 -102l76 111h45l-45 -183l-156 -47l-303 103l-78 -111h-45z" />
    <glyph glyph-name="itilde" unicode="&#x129;" horiz-adv-x="591" 
d="M311 4l-229 -6l-10 63l151 19v758l-151 -15l-11 64l232 67l94 9v-883l164 -19l-10 -63zM25 1382l153 45l309 -116l60 112h57l-49 -194l-152 -35l-311 117l-57 -113h-58z" />
    <glyph glyph-name="Imacron" unicode="&#x12a;" horiz-adv-x="690" 
d="M358 4l-274 -6l-10 65l192 27v1256l-192 26l10 64l274 -6l273 6l10 -64l-192 -26v-1256l192 -27l-10 -65zM74 1745h565v-103h-565v103z" />
    <glyph glyph-name="imacron" unicode="&#x12b;" horiz-adv-x="591" 
d="M311 4l-229 -6l-10 63l151 19v758l-151 -15l-11 64l232 67l94 9v-883l164 -19l-10 -63zM12 1405h566v-102h-566v102z" />
    <glyph glyph-name="Ibreve" unicode="&#x12c;" horiz-adv-x="690" 
d="M358 4l-274 -6l-10 65l192 27v1256l-192 26l10 64l274 -6l273 6l10 -64l-192 -26v-1256l192 -27l-10 -65zM480 1698.5q51 39.5 100 105.5l43 -37q-12 -16 -48.5 -90.5t-193.5 -136.5q-159 0 -222 98.5t-81 128.5l49 37q45 -65 94.5 -105t128.5 -40t130 39.5z" />
    <glyph glyph-name="ibreve" unicode="&#x12d;" horiz-adv-x="591" 
d="M311 4l-229 -6l-10 63l151 19v758l-151 -15l-11 64l232 67l94 9v-883l164 -19l-10 -63zM72 1407q77 -170 217 -170t217 170l55 -37q-33 -63 -84 -124.5t-153 -127.5q-119 0 -202.5 83.5t-105.5 168.5z" />
    <glyph glyph-name="Iogonek" unicode="&#x12e;" horiz-adv-x="690" 
d="M276 -297q0 -107 76 -118t111 -11v-61q-190 0 -272 52t-82 154v82l200 201l-237 -4l-11 65l193 27v1256l-193 26l11 64l274 -6l260 6l10 -64l-180 -26v-1256l180 -27l-10 -65l-233 4l-97 -256v-43z" />
    <glyph glyph-name="iogonek" unicode="&#x12f;" horiz-adv-x="591" 
d="M215 1409l133 10l53 -10l9 -106l-21 -93l-129 -12l-51 12l-12 107zM248 -297q0 -106 74.5 -117.5t111.5 -11.5v-61q-193 0 -273.5 51t-80.5 155v82l199 203l-197 -6l-10 63l151 19v758l-151 -15l-11 64l232 67l94 9v-883l164 -19l-10 -63l-199 4l-94 -256v-43z" />
    <glyph glyph-name="Idotaccent" unicode="&#x130;" horiz-adv-x="690" 
d="M358 4l-274 -6l-10 65l192 27v1256l-192 26l10 64l274 -6l273 6l10 -64l-192 -26v-1256l192 -27l-10 -65zM260 1794l148 10l47 -10l8 -108l-21 -95l-147 -10l-43 10l-12 109z" />
    <glyph glyph-name="dotlessi" unicode="&#x131;" horiz-adv-x="591" 
d="M311 4l-229 -6l-10 63l151 19v758l-151 -15l-11 64l232 67l94 9v-883l164 -19l-10 -63z" />
    <glyph glyph-name="IJ" unicode="&#x132;" horiz-adv-x="1208" 
d="M358 6l-274 -6l-10 63l192 27v1256l-192 26l10 64l274 -6l195 6l10 -64l-114 -26v-1256l188 -27l-10 -63zM975 178q0 -57 1 -100t-3.5 -92t-48.5 -103l-219 -241h-175v172h187l31 43q30 47 37.5 110.5t7.5 231.5v1147l-123 28l10 62l205 -6l262 6l10 -64l-182 -26v-1168z
" />
    <glyph glyph-name="ij" unicode="&#x133;" horiz-adv-x="948" 
d="M309 4l-229 -6l-10 63l151 19v758l-151 -15l-11 64l232 67l94 9v-883l164 -19l-10 -63zM635 -57v895l-152 -13l-10 64l232 65l94 9v-992q0 -72 -17.5 -128t-70.5 -122l-170 -200h-162v162h190l23 45q14 29 28.5 73.5t14.5 141.5zM627 1409l133 10l53 -10l10 -106l-22 -93
l-129 -12l-51 12l-13 107zM211 1409l133 10l53 -10l9 -106l-21 -93l-129 -12l-51 12l-12 107z" />
    <glyph glyph-name="Jcircumflex" unicode="&#x134;" horiz-adv-x="675" 
d="M442 178q0 -59 2 -102t-2.5 -92.5t-48.5 -100.5l-217 -241h-178v163h209l18 43q25 56 30 120.5t5 226.5v1151l-225 26l10 64l307 -6l262 6l11 -64l-183 -26v-1168zM37 1569l213 270h162l213 -270h-103l-170 137l-22 25l-21 -25l-170 -137h-102z" />
    <glyph glyph-name="jcircumflex" unicode="&#x135;" horiz-adv-x="534" 
d="M221 -57v897l-151 -15l-11 64l232 65l94 9v-992q0 -72 -16.5 -128t-69.5 -119l-174 -203h-160v164h195l20 43q41 85 41 215zM-6 1100l215 352h137l215 -352h-61l-224 231l-36 -41l-185 -190h-61z" />
    <glyph glyph-name="Kcommaaccent" unicode="&#x136;" horiz-adv-x="1417" 
d="M492 793l575 553l-149 26l10 64l213 -6l192 6l10 -64l-159 -33l-576 -567l39 -27l639 -665l109 -19l-11 -63l-174 6l-135 -6l-610 674l-29 53v-637l158 -27l-10 -63l-238 6l-274 -6l-11 63l193 27v1258l-193 26l11 64l274 -6l238 6l10 -64l-158 -26v-584zM584 -102h188
v-164l-121 -217l-67 20l47 207l-47 72v82z" />
    <glyph glyph-name="kcommaaccent" unicode="&#x137;" horiz-adv-x="1087" 
d="M915 4l-116 -6l-393 479l-21 41v-438l123 -19l-10 -63l-181 6l-237 -6l-10 63l151 19v1249l-149 -4l-11 64l230 65l94 8v-907l55 23l334 299l-43 18v63l156 -6l143 6l10 -63l-106 -18l-395 -326l36 -23l408 -448l94 -19l-8 -63zM465 -102h188v-164l-121 -217l-67 20
l47 207l-47 72v82z" />
    <glyph glyph-name="kgreenlandic" unicode="&#x138;" horiz-adv-x="1087" 
d="M915 4l-116 -6l-393 479l-21 41v-438l123 -19l-10 -63l-181 6l-237 -6l-10 63l151 19v760l-149 -15l-11 64l230 65l94 9v-408l55 23l334 299l-43 18v63l156 -6l143 6l10 -63l-106 -18l-395 -326l36 -23l408 -448l94 -19l-8 -63z" />
    <glyph glyph-name="Lacute" unicode="&#x139;" horiz-adv-x="1196" 
d="M354 4l-282 -6l-11 63l193 27v1258l-193 26l11 64l282 -6l264 6l11 -64l-193 -26v-1260l531 6l129 273h71l-69 -367zM303 1569l150 270h204l-247 -270h-107z" />
    <glyph glyph-name="lacute" unicode="&#x13a;" horiz-adv-x="581" 
d="M311 4l-229 -6l-10 63l151 19v1249l-149 -4l-11 64l230 65l94 8v-1382l164 -19l-10 -63zM285 1520l100 368h205l-248 -368h-57z" />
    <glyph glyph-name="Lcommaaccent" unicode="&#x13b;" horiz-adv-x="1196" 
d="M354 4l-282 -6l-11 63l193 27v1258l-193 26l11 64l282 -6l264 6l11 -64l-193 -26v-1260l531 6l129 273h71l-69 -367zM549 -102h188v-164l-121 -217l-67 20l47 207l-47 72v82z" />
    <glyph glyph-name="lcommaaccent" unicode="&#x13c;" horiz-adv-x="581" 
d="M311 4l-229 -6l-10 63l151 19v1249l-149 -4l-11 64l230 65l94 8v-1382l164 -19l-10 -63zM211 -102h188v-164l-120 -217l-68 20l47 207l-47 72v82z" />
    <glyph glyph-name="Lcaron" unicode="&#x13d;" horiz-adv-x="1210" 
d="M354 4l-282 -6l-11 63l193 27v1258l-193 26l11 64l282 -6l264 6l11 -64l-193 -26v-1260l531 6l129 273h71l-69 -367zM973 1245l-8 109l8 92l143 8l58 -8l8 -109l-8 -92l-127 -287l-70 27q42 93 58 162.5t16 89.5z" />
    <glyph glyph-name="lcaron" unicode="&#x13e;" horiz-adv-x="665" 
d="M311 4l-229 -6l-10 63l151 19v1249l-149 -4l-11 64l230 65l94 8v-1382l164 -19l-10 -63zM477 1454h189v-164l-121 -217l-68 21l47 206l-47 72v82z" />
    <glyph glyph-name="Ldot" unicode="&#x13f;" horiz-adv-x="1196" 
d="M354 4l-282 -6l-11 63l193 27v1258l-193 26l11 64l282 -6l264 6l11 -64l-193 -26v-1260l531 6l129 273h71l-69 -367zM627 926l135 8l53 -8l8 -109l-22 -90l-133 -12l-52 12l-12 107z" />
    <glyph glyph-name="ldot" unicode="&#x140;" horiz-adv-x="755" 
d="M311 4l-229 -6l-10 63l151 19v1249l-149 -4l-11 64l230 65l94 8v-1382l164 -19l-10 -63zM557 926l137 8l51 -8l11 -109l-25 -90l-133 -12l-49 12l-12 107z" />
    <glyph glyph-name="Lslash" unicode="&#x141;" horiz-adv-x="1196" 
d="M354 4l-282 -6l-11 63l193 27v612l-193 -94v90l193 95v555l-193 26l11 64l282 -6l264 6l11 -64l-193 -26v-465l187 92v-90l-187 -92v-705l531 6l129 273h71l-69 -367z" />
    <glyph glyph-name="lslash" unicode="&#x142;" horiz-adv-x="581" 
d="M311 4l-229 -6l-10 63l151 19v649l-147 -72v78l147 72v522l-149 -4l-11 64l230 65l94 8v-575l156 76v-78l-156 -76v-729l164 -19l-10 -63z" />
    <glyph glyph-name="Nacute" unicode="&#x143;" horiz-adv-x="1523" 
d="M1311 -4h-121l-780 1153l-31 125v-1186l182 -27l-12 -63l-217 6l-260 -6l-11 63l193 27v1239l-182 45l10 64l197 -6l133 6l735 -1071l39 -103v1084l-180 26l10 64l219 -6l258 6l10 -64l-192 -26v-1350zM702 1569l150 270h205l-248 -270h-107z" />
    <glyph glyph-name="nacute" unicode="&#x144;" horiz-adv-x="1183" 
d="M821 674q0 166 -145 166q-57 0 -112.5 -31t-110.5 -68l-68 -43v-618l121 -19l-10 -63l-187 6l-229 -6l-10 63l151 19v760l-149 -15l-11 64l230 65l78 7l12 -175l301 201q190 0 236.5 -59.5t55.5 -124t9 -156.5v-567l166 -19l-10 -63l-230 6l-186 -6l-10 63l108 19v594z
M547 1100l98 352h209l-246 -352h-61z" />
    <glyph glyph-name="Ncommaaccent" unicode="&#x145;" horiz-adv-x="1523" 
d="M1311 -4h-121l-780 1153l-31 125v-1186l182 -27l-12 -63l-217 6l-260 -6l-11 63l193 27v1239l-182 45l10 64l197 -6l133 6l735 -1071l39 -103v1084l-180 26l10 64l219 -6l258 6l10 -64l-192 -26v-1350zM692 -102h189v-164l-121 -217l-68 20l47 207l-47 72v82z" />
    <glyph glyph-name="ncommaaccent" unicode="&#x146;" horiz-adv-x="1183" 
d="M821 674q0 166 -145 166q-57 0 -112.5 -31t-110.5 -68l-68 -43v-618l121 -19l-10 -63l-187 6l-229 -6l-10 63l151 19v760l-149 -15l-11 64l230 65l78 7l12 -175l301 201q190 0 236.5 -59.5t55.5 -124t9 -156.5v-567l166 -19l-10 -63l-230 6l-186 -6l-10 63l108 19v594z
M489 -102h189v-164l-121 -217l-68 20l48 207l-48 72v82z" />
    <glyph glyph-name="Ncaron" unicode="&#x147;" horiz-adv-x="1523" 
d="M1311 -4h-121l-780 1153l-31 125v-1186l182 -27l-12 -63l-217 6l-260 -6l-11 63l193 27v1239l-182 45l10 64l197 -6l133 6l735 -1071l39 -103v1084l-180 26l10 64l219 -6l258 6l10 -64l-192 -26v-1350zM571 1839l170 -135l21 -27l22 27l170 135h103l-213 -270h-162
l-213 270h102z" />
    <glyph glyph-name="ncaron" unicode="&#x148;" horiz-adv-x="1183" 
d="M821 674q0 166 -145 166q-57 0 -112.5 -31t-110.5 -68l-68 -43v-618l121 -19l-10 -63l-187 6l-229 -6l-10 63l151 19v760l-149 -15l-11 64l230 65l78 7l12 -175l301 201q190 0 236.5 -59.5t55.5 -124t9 -156.5v-567l166 -19l-10 -63l-230 6l-186 -6l-10 63l108 19v594z
M360 1477l187 -191l37 -41l37 41l186 191h61l-215 -353h-137l-217 353h61z" />
    <glyph glyph-name="napostrophe" unicode="&#x149;" horiz-adv-x="1183" 
d="M821 674q0 166 -145 166q-57 0 -112.5 -31t-110.5 -68l-68 -43v-618l121 -19l-10 -63l-187 6l-229 -6l-10 63l151 19v760l-149 -15l-11 64l230 65l78 7l12 -175l301 201q190 0 236.5 -59.5t55.5 -124t9 -156.5v-567l166 -19l-10 -63l-230 6l-186 -6l-10 63l108 19v594z
M193 1454h188v-164l-121 -217l-67 21l47 206l-47 72v82z" />
    <glyph glyph-name="Eng" unicode="&#x14a;" horiz-adv-x="1523" 
d="M872 -481v162h146l137 268l66 47h-35l-776 1153l-31 137v-1198l174 -27l-10 -63l-215 6l-256 -6l-11 63l193 27v1239l-184 45l10 64l199 -6l137 6l731 -1071l39 -113v1094l-182 26l10 64l223 -6l256 6l10 -64l-192 -26v-1350l-193 -477h-246z" />
    <glyph glyph-name="eng" unicode="&#x14b;" horiz-adv-x="1017" 
d="M821 674q0 166 -145 166q-57 0 -113.5 -30t-109.5 -67l-68 -45v-618l121 -19l-10 -63l-187 6l-229 -6l-10 63l151 19v760l-149 -15l-11 64l230 65l78 7l12 -175l301 201q190 0 236.5 -59.5t55.5 -124t9 -156.5v-678q0 -72 -17.5 -128t-70.5 -122l-170 -200h-160v162h191
l22 45q14 29 28.5 73.5t14.5 141.5v733z" />
    <glyph glyph-name="Omacron" unicode="&#x14c;" horiz-adv-x="1579" 
d="M287 759q0 -120 27.5 -241t91 -221t166 -164.5t237.5 -64.5q246 0 364.5 173t118.5 439t-90 410.5t-191.5 210t-237.5 65.5t-226 -49t-147.5 -133t-85 -194.5t-27.5 -230.5zM86 699q0 327 178 519.5t545 251.5q300 0 492 -205t192 -531q0 -658 -723 -771
q-298 0 -491 204.5t-193 531.5zM510 1745h565v-103h-565v103z" />
    <glyph glyph-name="omacron" unicode="&#x14d;" horiz-adv-x="1097" 
d="M339.5 189.5q91.5 -126.5 231.5 -126.5t210.5 117.5t70.5 296.5t-93.5 297.5t-232.5 118.5t-208.5 -116.5t-69.5 -288.5t91.5 -298.5zM76 457q0 452 491 530q204 0 329.5 -141.5t125.5 -356.5q0 -214 -124 -349.5t-366 -170.5q-203 0 -329.5 139.5t-126.5 348.5z
M258 1405h565v-102h-565v102z" />
    <glyph glyph-name="Obreve" unicode="&#x14e;" horiz-adv-x="1579" 
d="M287 759q0 -120 27.5 -241t91 -221t166 -164.5t237.5 -64.5q246 0 364.5 173t118.5 439t-90 410.5t-191.5 210t-237.5 65.5t-226 -49t-147.5 -133t-85 -194.5t-27.5 -230.5zM86 699q0 327 178 519.5t545 251.5q300 0 492 -205t192 -531q0 -658 -723 -771
q-298 0 -491 204.5t-193 531.5zM956 1714.5q47 31.5 101 89.5l43 -37q-12 -16 -48.5 -90.5t-193.5 -136.5q-157 0 -221 98.5t-82 128.5l51 37q49 -56 94.5 -88.5t126.5 -32.5q82 0 129 31.5z" />
    <glyph glyph-name="obreve" unicode="&#x14f;" horiz-adv-x="1097" 
d="M339.5 189.5q91.5 -126.5 231.5 -126.5t210.5 117.5t70.5 296.5t-93.5 297.5t-232.5 118.5t-208.5 -116.5t-69.5 -288.5t91.5 -298.5zM76 457q0 452 491 530q204 0 329.5 -141.5t125.5 -356.5q0 -214 -124 -349.5t-366 -170.5q-203 0 -329.5 139.5t-126.5 348.5z
M543 1237q127 0 209 170l55 -37q-33 -63 -83 -124.5t-153 -127.5q-120 0 -202.5 83.5t-106.5 168.5l55 37q77 -170 226 -170z" />
    <glyph glyph-name="Ohungarumlaut" unicode="&#x150;" horiz-adv-x="1579" 
d="M287 759q0 -120 27.5 -241t91 -221t166 -164.5t237.5 -64.5q246 0 364.5 173t118.5 439t-90 410.5t-191.5 210t-237.5 65.5t-226 -49t-147.5 -133t-85 -194.5t-27.5 -230.5zM86 699q0 327 178 519.5t545 251.5q300 0 492 -205t192 -531q0 -658 -723 -771
q-298 0 -491 204.5t-193 531.5zM915 1569l150 270h205l-248 -270h-107zM602 1569l148 270h204l-245 -270h-107z" />
    <glyph glyph-name="ohungarumlaut" unicode="&#x151;" horiz-adv-x="1097" 
d="M339.5 189.5q91.5 -126.5 231.5 -126.5t210.5 117.5t70.5 296.5t-93.5 297.5t-232.5 118.5t-208.5 -116.5t-69.5 -288.5t91.5 -298.5zM76 457q0 452 491 530q204 0 329.5 -141.5t125.5 -356.5q0 -214 -124 -349.5t-366 -170.5q-203 0 -329.5 139.5t-126.5 348.5z
M692 1100l99 356h208l-245 -356h-62zM362 1100l99 356h209l-246 -356h-62z" />
    <glyph glyph-name="OE" unicode="&#x152;" horiz-adv-x="1935" 
d="M251 1201q165 176 560 249l256 -18l752 4l18 -367h-61l-113 272l-526 7v-560l252 9l81 215h66l-20 -248l20 -272h-66l-81 213l-252 8v-627l536 6l135 285h72l-72 -379l-753 4l-283 -18q-299 0 -492.5 197t-193.5 520q0 324 165 500zM403.5 335q114.5 -140 215 -192.5
t217.5 -52.5l118 -10v1257l-206 6q-224 0 -341.5 -160.5t-117.5 -433.5q0 -274 114.5 -414z" />
    <glyph glyph-name="oe" unicode="&#x153;" horiz-adv-x="1712" 
d="M1249 895q-100 0 -156.5 -80t-72.5 -213l418 21q0 131 -27 181t-63.5 70.5t-98.5 20.5zM341.5 189.5q91.5 -126.5 229.5 -126.5t208.5 117.5t70.5 295.5t-91 296.5t-230 118.5t-209 -115t-70 -287q0 -173 91.5 -299.5zM1632 610v-84h-614q0 -186 97 -303t261 -117
q99 0 234 91l26 -74q-147 -93 -354 -154q-111 0 -208 47t-163 140q-127 -145 -379 -187q-202 0 -329 137.5t-127 346.5q0 449 491 532q117 0 210 -49t153 -131q119 136 348 182q354 0 354 -377z" />
    <glyph glyph-name="Racute" unicode="&#x154;" horiz-adv-x="1372" 
d="M436 743h148q173 0 279 91t106 230t-88 214.5t-224 75.5l-221 -11v-600zM436 659v-571l180 -27l-10 -63l-260 6l-274 -6l-11 63l193 27v1258l-193 26l11 64l276 -6l344 6q340 0 412 -131t72 -223q0 -298 -414 -410l119 -78l366 -508l115 -29l-8 -59l-150 6l-135 -6
l-446 639l-23 22h-164zM557 1569l150 270h204l-247 -270h-107z" />
    <glyph glyph-name="racute" unicode="&#x155;" horiz-adv-x="796" 
d="M764 977v-180h-133q-57 -6 -122 -63.5t-85 -84.5l-45 -55v-506l213 -18l-10 -72l-279 6l-221 -6l-10 63l151 19v760l-151 -15l-11 64l238 65l74 7l-2 -256l237 272h156zM453 1100l98 352h209l-246 -352h-61z" />
    <glyph glyph-name="Rcommaaccent" unicode="&#x156;" horiz-adv-x="1372" 
d="M436 743h148q173 0 279 91t106 230t-88 214.5t-224 75.5l-221 -11v-600zM436 659v-571l180 -27l-10 -63l-260 6l-274 -6l-11 63l193 27v1258l-193 26l11 64l276 -6l344 6q340 0 412 -131t72 -223q0 -298 -414 -410l119 -78l366 -508l115 -29l-8 -59l-150 6l-135 -6
l-446 639l-23 22h-164zM633 -102h188v-164l-121 -217l-67 20l47 207l-47 72v82z" />
    <glyph glyph-name="rcommaaccent" unicode="&#x157;" horiz-adv-x="796" 
d="M764 977v-180h-133q-57 -6 -122 -63.5t-85 -84.5l-45 -55v-506l213 -18l-10 -72l-279 6l-221 -6l-10 63l151 19v760l-151 -15l-11 64l238 65l74 7l-2 -256l237 272h156zM215 -102h188v-164l-120 -217l-68 20l47 207l-47 72v82z" />
    <glyph glyph-name="Rcaron" unicode="&#x158;" horiz-adv-x="1372" 
d="M436 743h148q173 0 279 91t106 230t-88 214.5t-224 75.5l-221 -11v-600zM436 659v-571l180 -27l-10 -63l-260 6l-274 -6l-11 63l193 27v1258l-193 26l11 64l276 -6l344 6q340 0 412 -131t72 -223q0 -298 -414 -410l119 -78l366 -508l115 -29l-8 -59l-150 6l-135 -6
l-446 639l-23 22h-164zM432 1839l170 -135l21 -27l22 27l170 135h103l-213 -270h-162l-213 270h102z" />
    <glyph glyph-name="rcaron" unicode="&#x159;" horiz-adv-x="796" 
d="M764 977v-180h-133q-57 -6 -122 -63.5t-85 -84.5l-45 -55v-506l213 -18l-10 -72l-279 6l-221 -6l-10 63l151 19v760l-151 -15l-11 64l238 65l74 7l-2 -256l237 272h156zM207 1477l186 -191l37 -41l37 41l186 191h62l-215 -353h-138l-217 353h62z" />
    <glyph glyph-name="Sacute" unicode="&#x15a;" horiz-adv-x="1153" 
d="M588 63q141 0 217 80t76 197q0 155 -89.5 210.5t-134.5 74.5l-245 104q-265 100 -265 332q0 163 135.5 266.5t340.5 142.5q92 0 188 -30.5t170 -87.5v-262h-88l-59 186q-39 41 -92.5 68.5t-163.5 27.5t-181 -63.5t-71 -165.5t57 -159.5t145 -94.5l226 -92
q138 -62 218.5 -144.5t80.5 -234.5q0 -246 -177.5 -336t-322.5 -119q-147 0 -244.5 37t-175.5 102l-45 258h133l72 -170q47 -57 128 -92t167 -35zM547 1569l149 270h205l-248 -270h-106z" />
    <glyph glyph-name="sacute" unicode="&#x15b;" horiz-adv-x="858" 
d="M332.5 860q-47.5 -35 -47.5 -90t37.5 -90t103.5 -70l160 -82q106 -53 148 -114.5t42 -138.5q0 -137 -93 -200.5t-280 -105.5q-126 0 -208 43t-97 54l-39 210h129l76 -174q76 -39 163 -39t129 50.5t42 115.5t-37 102.5t-119 80.5l-166 86q-70 34 -115.5 93.5t-45.5 135.5
q0 106 98 166.5t258 93.5q105 0 181.5 -40t101.5 -58v-187h-107l-47 154q-12 4 -56 21.5t-104 17.5t-107.5 -35zM391 1100l98 352h209l-245 -352h-62z" />
    <glyph glyph-name="Scircumflex" unicode="&#x15c;" horiz-adv-x="1153" 
d="M588 63q141 0 217 80t76 197q0 155 -89.5 210.5t-134.5 74.5l-245 104q-265 100 -265 332q0 163 135.5 266.5t340.5 142.5q92 0 188 -30.5t170 -87.5v-262h-88l-59 186q-39 41 -92.5 68.5t-163.5 27.5t-181 -63.5t-71 -165.5t57 -159.5t145 -94.5l226 -92
q138 -62 218.5 -144.5t80.5 -234.5q0 -246 -177.5 -336t-322.5 -119q-147 0 -244.5 37t-175.5 102l-45 258h133l72 -170q47 -57 128 -92t167 -35zM340 1569l215 270h160l215 -270h-103l-170 137l-24 25l-21 -25l-170 -137h-102z" />
    <glyph glyph-name="scircumflex" unicode="&#x15d;" horiz-adv-x="858" 
d="M332.5 860q-47.5 -35 -47.5 -90t37.5 -90t103.5 -70l160 -82q106 -53 148 -114.5t42 -138.5q0 -137 -93 -200.5t-280 -105.5q-126 0 -208 43t-97 54l-39 210h129l76 -174q76 -39 163 -39t129 50.5t42 115.5t-37 102.5t-119 80.5l-166 86q-70 34 -115.5 93.5t-45.5 135.5
q0 106 98 166.5t258 93.5q105 0 181.5 -40t101.5 -58v-187h-107l-47 154q-12 4 -56 21.5t-104 17.5t-107.5 -35zM176 1100l215 352h137l215 -352h-61l-184 190l-37 41l-223 -231h-62z" />
    <glyph glyph-name="Scedilla" unicode="&#x15e;" horiz-adv-x="1153" 
d="M520 -410q64 39 64 112t-51 103.5t-121 30.5l102 129q-129 4 -218 40t-163 97l-45 258h133l72 -170q47 -57 128 -92t167 -35q141 0 217 80t76 197q0 155 -89.5 210.5t-134.5 74.5l-245 104q-265 100 -265 332q0 163 135.5 266.5t340.5 142.5q92 0 188 -30.5t170 -87.5
v-262h-88l-59 186q-39 41 -92.5 68.5t-163.5 27.5t-181 -63.5t-71 -165.5t57 -159.5t145 -94.5l226 -92q138 -62 218.5 -144.5t80.5 -234.5q0 -234 -165 -325t-298 -122l-51 -67q60 0 113 -36t53 -92q0 -92 -54 -150.5t-125 -80.5l-104 -32h-117l60 77h155z" />
    <glyph glyph-name="scedilla" unicode="&#x15f;" horiz-adv-x="858" 
d="M408 -410q63 41 63 113t-51 102.5t-121 30.5l98 133q-160 7 -299 97l-39 210h129l76 -174q76 -39 163 -39t129 50.5t42 115.5t-37 102.5t-119 80.5l-166 86q-70 34 -115.5 93.5t-45.5 135.5q0 106 98 166.5t258 93.5q105 0 181.5 -40t101.5 -58v-187h-107l-47 154
q-12 4 -56 21.5t-86 17.5q-78 0 -125.5 -35t-47.5 -90t37.5 -90t103.5 -70l160 -82q106 -53 148 -114.5t42 -147.5q0 -119 -81 -181t-214 -97l-55 -84q57 0 111.5 -35.5t54.5 -92.5q0 -93 -53.5 -150t-124.5 -81l-105 -32h-116l59 77h156z" />
    <glyph glyph-name="Scaron" unicode="&#x160;" horiz-adv-x="1153" 
d="M588 63q141 0 217 80t76 197q0 155 -89.5 210.5t-134.5 74.5l-245 104q-265 100 -265 332q0 163 135.5 266.5t340.5 142.5q92 0 188 -30.5t170 -87.5v-262h-88l-59 186q-39 41 -92.5 68.5t-163.5 27.5t-181 -63.5t-71 -165.5t57 -159.5t145 -94.5l226 -92
q138 -62 218.5 -144.5t80.5 -234.5q0 -246 -177.5 -336t-322.5 -119q-147 0 -244.5 37t-175.5 102l-45 258h133l72 -170q47 -57 128 -92t167 -35zM442 1839l170 -135l21 -27l22 27l170 135h103l-213 -270h-162l-213 270h102z" />
    <glyph glyph-name="scaron" unicode="&#x161;" horiz-adv-x="858" 
d="M332.5 860q-47.5 -35 -47.5 -90t37.5 -90t103.5 -70l160 -82q106 -53 148 -114.5t42 -138.5q0 -137 -93 -200.5t-280 -105.5q-126 0 -208 43t-97 54l-39 210h129l76 -174q76 -39 163 -39t129 50.5t42 115.5t-37 102.5t-119 80.5l-166 86q-70 34 -115.5 93.5t-45.5 135.5
q0 106 98 166.5t258 93.5q105 0 181.5 -40t101.5 -58v-187h-107l-47 154q-12 4 -56 21.5t-104 17.5t-107.5 -35zM231 1477l187 -191l37 -41l37 41l186 191h61l-217 -353h-135l-217 353h61z" />
    <glyph glyph-name="Tcommaaccent" unicode="&#x162;" horiz-adv-x="1222" 
d="M31 1090v346l575 -6l586 6v-346h-72l-92 251l-326 2v-1255l242 -27l-10 -63l-322 6l-336 -6l-10 63l254 27v1255l-325 -2l-93 -251h-71zM516 -102h189v-164l-121 -217l-68 20l47 207l-47 72v82z" />
    <glyph glyph-name="tcommaaccent" unicode="&#x163;" horiz-adv-x="698" 
d="M487 113q66 0 162 47l31 -62l-227 -129q-170 0 -202 49.5t-35 97.5t-3 113v621h-203v35l70 67h141v131l115 127h39v-274h319v-86h-317v-617q0 -120 110 -120zM268 -102h189v-164l-121 -217l-68 20l47 207l-47 72v82z" />
    <glyph glyph-name="Tcaron" unicode="&#x164;" horiz-adv-x="1222" 
d="M31 1090v346l575 -6l586 6v-346h-72l-92 251l-326 2v-1255l242 -27l-10 -63l-322 6l-336 -6l-10 63l254 27v1255l-325 -2l-93 -251h-71zM416 1839l170 -135l22 -27l23 27l170 135h102l-213 -270h-162l-215 270h103z" />
    <glyph glyph-name="tcaron" unicode="&#x165;" horiz-adv-x="698" 
d="M487 113q66 0 162 47l31 -62l-227 -129q-170 0 -202 49.5t-35 97.5t-3 113v621h-203v35l70 67h141v131l115 127h39v-274h319v-86h-317v-617q0 -120 110 -120zM481 1454h189v-164l-121 -217l-68 21l47 206l-47 72v82z" />
    <glyph glyph-name="Tbar" unicode="&#x166;" horiz-adv-x="1222" 
d="M520 893h-213v74h213v376l-325 -2l-93 -251h-71v346l575 -6l586 6v-346h-72l-92 251l-326 2v-376h211v-74h-211v-805l242 -27l-10 -63l-322 6l-336 -6l-10 63l254 27v805z" />
    <glyph glyph-name="tbar" unicode="&#x167;" horiz-adv-x="698" 
d="M487 113q66 0 162 47l31 -62l-227 -129q-170 0 -202 49.5t-35 97.5t-3 113v371h-186v76h186v174h-203v35l70 67h141v131l115 127h39v-274h319v-86h-317v-174h262v-76h-262v-367q0 -120 110 -120z" />
    <glyph glyph-name="Utilde" unicode="&#x168;" horiz-adv-x="1468" 
d="M418 465q0 -404 348 -404q162 0 249 104.5t87 305.5v875l-189 26l11 64l262 -6l241 6l11 -64l-178 -26v-848q0 -213 -113.5 -341t-403.5 -194q-520 0 -520 543v840l-192 26l10 64l285 -6l264 6l10 -64l-182 -26v-881zM508 1761l154 45l305 -102l75 111h45l-45 -183
l-153 -47l-305 103l-76 -111h-45z" />
    <glyph glyph-name="utilde" unicode="&#x169;" horiz-adv-x="1142" 
d="M344 276q0 -159 140 -159q66 0 130 35.5t129 78.5l43 27v582l-129 -11l-10 74l215 51l88 9v-699q0 -100 23 -158h108l9 -63l-240 -49l-57 162l-301 -187q-194 0 -242.5 61.5t-58 126t-9.5 152.5v531l-153 -11l-11 74l238 51l88 9v-687zM309 1382l154 45l309 -116l59 112
h58l-47 -194l-152 -35l-311 117l-57 -113h-58z" />
    <glyph glyph-name="Umacron" unicode="&#x16a;" horiz-adv-x="1468" 
d="M418 465q0 -404 348 -404q162 0 249 104.5t87 305.5v875l-189 26l11 64l262 -6l241 6l11 -64l-178 -26v-848q0 -213 -113.5 -341t-403.5 -194q-520 0 -520 543v840l-192 26l10 64l285 -6l264 6l10 -64l-182 -26v-881zM467 1745h565v-103h-565v103z" />
    <glyph glyph-name="umacron" unicode="&#x16b;" horiz-adv-x="1142" 
d="M344 276q0 -159 140 -159q66 0 130 35.5t129 78.5l43 27v582l-129 -11l-10 74l215 51l88 9v-699q0 -100 23 -158h108l9 -63l-240 -49l-57 162l-301 -187q-194 0 -242.5 61.5t-58 126t-9.5 152.5v531l-153 -11l-11 74l238 51l88 9v-687zM279 1405h565v-102h-565v102z" />
    <glyph glyph-name="Ubreve" unicode="&#x16c;" horiz-adv-x="1468" 
d="M418 465q0 -404 348 -404q162 0 249 104.5t87 305.5v875l-189 26l11 64l262 -6l241 6l11 -64l-178 -26v-848q0 -213 -113.5 -341t-403.5 -194q-520 0 -520 543v840l-192 26l10 64l285 -6l264 6l10 -64l-182 -26v-881zM744 1659q130 0 231 145l43 -37q-12 -16 -48.5 -90.5
t-193.5 -136.5q-158 0 -221 98.5t-82 128.5l51 37q44 -62 93 -103.5t127 -41.5z" />
    <glyph glyph-name="ubreve" unicode="&#x16d;" horiz-adv-x="1142" 
d="M344 276q0 -159 140 -159q66 0 130 35.5t129 78.5l43 27v582l-129 -11l-10 74l215 51l88 9v-699q0 -100 23 -158h108l9 -63l-240 -49l-57 162l-301 -187q-194 0 -242.5 61.5t-58 126t-9.5 152.5v531l-153 -11l-11 74l238 51l88 9v-687zM336 1407q77 -170 217 -170
t217 170l55 -37q-33 -63 -84 -124.5t-153 -127.5q-119 0 -203.5 84.5t-103.5 167.5z" />
    <glyph glyph-name="Uring" unicode="&#x16e;" horiz-adv-x="1468" 
d="M418 465q0 -404 348 -404q162 0 249 104.5t87 305.5v875l-189 26l11 64l262 -6l241 6l11 -64l-178 -26v-848q0 -213 -113.5 -341t-403.5 -194q-520 0 -520 543v840l-192 26l10 64l285 -6l264 6l10 -64l-182 -26v-881zM637 1708q0 -53 31.5 -85t85 -32t86 32t32.5 85
t-32.5 85t-86 32t-85 -32t-31.5 -85zM906 1596q-50 -37 -152 -70q-132 0 -167.5 65.5t-35.5 111.5q0 84 54 122.5t149 64.5q78 0 140 -44.5t62 -128.5t-50 -121z" />
    <glyph glyph-name="uring" unicode="&#x16f;" horiz-adv-x="1142" 
d="M344 276q0 -159 140 -159q66 0 130 35.5t129 78.5l43 27v582l-129 -11l-10 74l215 51l88 9v-699q0 -100 23 -158h108l9 -63l-240 -49l-57 162l-301 -187q-194 0 -242.5 61.5t-58 126t-9.5 152.5v531l-153 -11l-11 74l238 51l88 9v-687zM451 1278q0 -47 32.5 -75.5
t79.5 -28.5t81 28.5t34 75.5t-34 80t-81 33t-79.5 -33t-32.5 -80zM362 1275q0 85 54 124.5t145 64.5q86 0 144.5 -40t58.5 -135t-42 -122.5t-78 -39t-77 -27.5q-142 0 -173.5 63.5t-31.5 111.5z" />
    <glyph glyph-name="Uhungarumlaut" unicode="&#x170;" horiz-adv-x="1468" 
d="M418 465q0 -404 348 -404q162 0 249 104.5t87 305.5v875l-189 26l11 64l262 -6l241 6l11 -64l-178 -26v-848q0 -213 -113.5 -341t-403.5 -194q-520 0 -520 543v840l-192 26l10 64l285 -6l264 6l10 -64l-182 -26v-881zM856 1569l150 270h204l-247 -270h-107zM543 1569
l147 270h205l-246 -270h-106z" />
    <glyph glyph-name="uhungarumlaut" unicode="&#x171;" horiz-adv-x="1142" 
d="M344 276q0 -159 140 -159q66 0 130 35.5t129 78.5l43 27v582l-129 -11l-10 74l215 51l88 9v-699q0 -100 23 -158h108l9 -63l-240 -49l-57 162l-301 -187q-194 0 -242.5 61.5t-58 126t-9.5 152.5v531l-153 -11l-11 74l238 51l88 9v-687zM686 1100l100 356h209l-247 -356
h-62zM356 1100l101 356h209l-248 -356h-62z" />
    <glyph glyph-name="Uogonek" unicode="&#x172;" horiz-adv-x="1468" 
d="M418 465q0 -395 348 -395q162 0 249 102t87 299v875l-189 26l11 64l262 -6l241 6l11 -64l-178 -26v-848q0 -262 -119 -351.5t-217 -126.5l-154 -274v-43q0 -129 156 -129v-61q-174 0 -249 51t-75 155v82l189 179q2 2 -3.5 0.5t-44.5 -9.5q-520 0 -520 535v840l-192 26
l10 64l285 -6l264 6l10 -64l-182 -26v-881z" />
    <glyph glyph-name="uogonek" unicode="&#x173;" horiz-adv-x="1142" 
d="M344 276q0 -159 140 -159q66 0 130 35.5t129 78.5l43 27v582l-129 -11l-10 74l215 51l88 9v-699q0 -100 23 -158h108l9 -63l-172 -35l-140 -262v-43q0 -106 75 -117.5t112 -11.5v-61q-193 0 -274 51t-81 155v78l238 199l-55 160l-301 -187q-194 0 -242.5 61.5t-58 126
t-9.5 152.5v531l-153 -11l-11 74l238 51l88 9v-687z" />
    <glyph glyph-name="Wcircumflex" unicode="&#x174;" horiz-adv-x="1984" 
d="M1294 -29l-284 865l-6 114l-291 -930l-125 -49l-449 1379l-116 22l10 64l219 -6l252 6l10 -64l-182 -26l317 -1049l6 -104l273 911l-82 246l-137 22l10 64l237 -6l254 6l11 -64l-183 -26l318 -1049l4 -102l352 1155l-180 22l10 64l244 -6l166 6l10 -64l-115 -22
l-428 -1330zM1169 1569l-170 137l-24 25l-21 -25l-170 -137h-102l215 270h160l215 -270h-103z" />
    <glyph glyph-name="wcircumflex" unicode="&#x175;" horiz-adv-x="1693" 
d="M860 567l-10 133l-246 -665l-145 -64l-314 903l-135 21l10 63l213 -6l187 6l10 -63l-121 -21l211 -634l17 -109l243 670l-26 73l-86 21l10 63l164 -6l184 6l10 -63l-118 -21l210 -634l17 -109l266 743l-94 21l10 63l137 -6l209 6l10 -63l-135 -21l-336 -839l-145 -64z
M563 1100l215 352h137l218 -352h-62l-186 190l-37 41l-37 -41l-186 -190h-62z" />
    <glyph glyph-name="Ycircumflex" unicode="&#x176;" horiz-adv-x="1447" 
d="M819 553l4 -465l240 -27l-10 -63l-320 6l-334 -6l-10 63l252 27v475l-463 789l-168 22l10 62l277 -6l260 6l10 -62l-182 -26l360 -609l21 -71l352 680l-186 26l10 62l250 -6l235 6l11 -60l-168 -20zM946 1569l-170 137l-22 25l-23 -25l-170 -137h-102l215 270h162
l213 -270h-103z" />
    <glyph glyph-name="ycircumflex" unicode="&#x177;" horiz-adv-x="1093" 
d="M172 -481v182h156l200 319l-47 -14l-336 868l-135 21l10 63l224 -6l209 6l10 -63l-144 -21l224 -622l14 -131l254 753l-94 21l10 63l176 -6l170 6l10 -63l-135 -21l-327 -845l-228 -510h-221zM281 1100l217 352h135l217 -352h-62l-186 190l-37 41l-37 -41l-186 -190h-61z
" />
    <glyph glyph-name="Ydieresis" unicode="&#x178;" horiz-adv-x="1447" 
d="M819 553l4 -465l240 -27l-10 -63l-320 6l-334 -6l-10 63l252 27v475l-463 789l-168 22l10 62l277 -6l260 6l10 -62l-182 -26l360 -609l21 -71l352 680l-186 26l10 62l250 -6l235 6l11 -60l-168 -20zM934 1776l115 10l47 -10l10 -90l-21 -80l-112 -9l-47 9l-8 94z
M492 1776l114 10l47 -10l11 -90l-21 -80l-113 -9l-47 9l-8 94z" />
    <glyph glyph-name="Zacute" unicode="&#x179;" horiz-adv-x="1167" 
d="M113 1085v349h958l21 -91l-803 -1183l-76 -76l702 10l132 271h90l-70 -365h-1006l-18 100l799 1178l76 72l-631 -11l-92 -254h-82zM512 1569l147 270h205l-246 -270h-106z" />
    <glyph glyph-name="zacute" unicode="&#x17a;" horiz-adv-x="946" 
d="M135 694v262h715l29 -59l-557 -772l-66 -49l446 6l113 190h80l-57 -272h-738l-22 59l549 760l75 62l-428 -9l-65 -178h-74zM440 1100l101 352h209l-248 -352h-62z" />
    <glyph glyph-name="Zdotaccent" unicode="&#x17b;" horiz-adv-x="1167" 
d="M113 1085v349h958l21 -91l-803 -1183l-76 -76l702 10l132 271h90l-70 -365h-1006l-18 100l799 1178l76 72l-631 -11l-92 -254h-82zM506 1798l147 10l47 -10l9 -108l-21 -95l-147 -10l-43 10l-13 109z" />
    <glyph glyph-name="zdotaccent" unicode="&#x17c;" horiz-adv-x="946" 
d="M135 694v262h715l29 -59l-557 -772l-66 -49l446 6l113 190h80l-57 -272h-738l-22 59l549 760l75 62l-428 -9l-65 -178h-74zM432 1436l150 10l45 -10l10 -109l-21 -92l-149 -12l-41 12l-12 108z" />
    <glyph glyph-name="Zcaron" unicode="&#x17d;" horiz-adv-x="1167" 
d="M113 1085v349h958l21 -91l-803 -1183l-76 -76l702 10l132 271h90l-70 -365h-1006l-18 100l799 1178l76 72l-631 -11l-92 -254h-82zM897 1839l-213 -270h-162l-215 270h103l170 -135l22 -27l23 27l170 135h102z" />
    <glyph glyph-name="zcaron" unicode="&#x17e;" horiz-adv-x="946" 
d="M135 694v262h715l29 -59l-557 -772l-66 -49l446 6l113 190h80l-57 -272h-738l-22 59l549 760l75 62l-428 -9l-65 -178h-74zM268 1481l185 -191l36 -41l224 232h61l-215 -353h-137l-215 353h61z" />
    <glyph glyph-name="longs" unicode="&#x17f;" horiz-adv-x="712" 
d="M238 852h-185v33l58 67h127v19q0 96 28.5 161.5t81.5 131.5l158 190h250v-151h-267l-40 -58q-48 -61 -48 -237v-928l244 -10l-10 -72l-295 6l-244 -6l-10 63l152 19v772z" />
    <glyph glyph-name="florin" unicode="&#x192;" horiz-adv-x="638" 
d="M176 852h-184v33l57 67h127v19q0 96 27.5 161.5t81.5 131.5l159 190h250v-139h-256l-49 -64q-49 -69 -49 -231v-78h254v-90h-254v-883q0 -72 -17.5 -129t-68.5 -121l-174 -200h-123v149h135l35 45q49 58 49 215v924z" />
    <glyph glyph-name="Aringacute" unicode="&#x1fa;" horiz-adv-x="1529" 
d="M750 1116l-17 109l-227 -650h446zM475 485l-139 -397l184 -27l-10 -63l-254 6l-223 -6l-10 63l170 23l520 1339l75 29l553 -1368l166 -23l-10 -63l-256 6l-278 -6l-11 63l183 27l-148 397h-512zM610 1666q0 -52 37 -88t90.5 -36t90 36t36.5 88t-36.5 85t-90 33t-90.5 -33
t-37 -85zM537 1658q0 82 53 121t147 64l107 119h135l-176 -125q55 -14 97 -54.5t42 -98.5q0 -94 -55 -132.5t-150 -64.5q-134 0 -167 62.5t-33 108.5z" />
    <glyph glyph-name="aringacute" unicode="&#x1fb;" horiz-adv-x="909" 
d="M752 256q0 -102 36 -154h105l6 -63l-235 -45l-62 156l-248 -181q-129 0 -211 67.5t-82 190.5q0 53 16.5 93t49.5 90l463 155v99q0 107 -22 156.5t-107.5 49.5t-179.5 -39l-37 -147h-150v143l352 160q94 0 153.5 -13t106 -63.5t46.5 -253.5v-401zM264 133q39 -31 93 -31
t135 58l98 67v260l-326 -135q-39 -40 -39 -114t39 -105zM342 1282q0 -53 32 -85t85 -32t86 32t33 85t-33 85t-86 32t-85 -32t-32 -85zM662 1295q0 -87 -50.5 -124.5t-152.5 -70.5q-132 0 -167.5 65.5t-35.5 111.5q0 84 54.5 123t146.5 64l45 88h205l-144 -110
q41 -18 70 -56.5t29 -90.5z" />
    <glyph glyph-name="AEacute" unicode="&#x1fc;" horiz-adv-x="2052" 
d="M1071 647h-407l-342 -559l161 -27l-10 -63l-229 6l-224 -6l-10 63l168 23l873 1352l116 -6l760 6l21 -367h-64l-110 272l-517 7v-621l252 8l82 215h66l-21 -248l21 -272h-66l-82 213l-252 8v-565l537 6l135 283h72l-72 -377l-758 6l-282 -6l-10 63l192 27v559zM1071 725
v610l-362 -610h362zM1114 1569l150 270h204l-247 -270h-107z" />
    <glyph glyph-name="aeacute" unicode="&#x1fd;" horiz-adv-x="1425" 
d="M225 219q0 -57 40 -89t93 -32t127 60l88 65v269l-309 -136q-23 -23 -31 -51.5t-8 -85.5zM963 895q-100 0 -156.5 -80t-73.5 -213l418 21q0 133 -26.5 182t-63.5 69.5t-98 20.5zM1346 610v-84h-615q0 -186 97 -303t262 -117q95 0 233 91l27 -74q-146 -93 -355 -154
q-111 0 -211 49.5t-166 147.5l-260 -197q-130 0 -213.5 69t-83.5 179q0 61 16.5 102t49.5 91l444 155v99q0 101 -18.5 153.5t-105.5 52.5q-86 0 -164 -39l-37 -155h-154v151l352 160q117 0 177.5 -26.5t89.5 -94.5q113 85 280 121q355 0 355 -377zM713 1100l98 352h209
l-246 -352h-61z" />
    <glyph glyph-name="Oslashacute" unicode="&#x1fe;" horiz-adv-x="1579" 
d="M717 1569l149 270h205l-248 -270h-106zM465 219q136 -151 363 -151t345.5 173t118.5 441t-125 463zM1116 1212q-139 154 -365 154q-227 0 -345.5 -173t-118.5 -446t125 -460zM1493 745q0 -338 -179 -531.5t-544 -250.5q-225 0 -403 125l-91 -119h-106l131 174
q-102 98 -158.5 237.5t-56.5 307.5q0 338 178 530.5t545 251.5q230 0 405 -129l93 123h102l-133 -174q104 -98 160.5 -238.5t56.5 -306.5z" />
    <glyph glyph-name="oslashacute" unicode="&#x1ff;" horiz-adv-x="1097" 
d="M578 1100l98 352h209l-246 -352h-61zM745 788q-92 105 -225 105t-202.5 -116.5t-69.5 -271.5t55 -255zM346 182q97 -119 230 -119q134 0 205 117.5t71 273.5t-61 271zM1022 494q0 -219 -124 -354.5t-366 -170.5q-167 0 -282 94l-70 -83h-100l113 137q-117 135 -117 340
q0 452 491 530q153 0 269 -88l65 80h96l-106 -129q131 -137 131 -356z" />
    <glyph glyph-name="Scommaaccent" unicode="&#x218;" horiz-adv-x="1153" 
d="M588 63q141 0 217 80t76 197q0 155 -89.5 210.5t-134.5 74.5l-245 104q-265 100 -265 332q0 163 135.5 266.5t340.5 142.5q92 0 188 -30.5t170 -87.5v-262h-88l-59 186q-39 41 -92.5 68.5t-163.5 27.5t-181 -63.5t-71 -165.5t57 -159.5t145 -94.5l226 -92
q138 -62 218.5 -144.5t80.5 -234.5q0 -246 -177.5 -336t-322.5 -119q-147 0 -244.5 37t-175.5 102l-45 258h133l72 -170q47 -57 128 -92t167 -35zM487 -102h189v-164l-121 -217l-68 20l48 207l-48 72v82z" />
    <glyph glyph-name="scommaaccent" unicode="&#x219;" horiz-adv-x="858" 
d="M332.5 860q-47.5 -35 -47.5 -90t37.5 -90t103.5 -70l160 -82q106 -53 148 -114.5t42 -138.5q0 -137 -93 -200.5t-280 -105.5q-126 0 -208 43t-97 54l-39 210h129l76 -174q76 -39 163 -39t129 50.5t42 115.5t-37 102.5t-119 80.5l-166 86q-70 34 -115.5 93.5t-45.5 135.5
q0 106 98 166.5t258 93.5q105 0 181.5 -40t101.5 -58v-187h-107l-47 154q-12 4 -56 21.5t-104 17.5t-107.5 -35zM342 -102h188v-164l-120 -217l-68 20l47 207l-47 72v82z" />
    <glyph glyph-name="uni021A" unicode="&#x21a;" horiz-adv-x="1222" 
d="M31 1090v346l575 -6l586 6v-346h-72l-92 251l-326 2v-1255l242 -27l-10 -63l-322 6l-336 -6l-10 63l254 27v1255l-325 -2l-93 -251h-71zM516 -102h189v-164l-121 -217l-68 20l47 207l-47 72v82z" />
    <glyph glyph-name="uni021B" unicode="&#x21b;" horiz-adv-x="698" 
d="M487 113q66 0 162 47l31 -62l-227 -129q-170 0 -202 49.5t-35 97.5t-3 113v621h-203v35l70 67h141v131l115 127h39v-274h319v-86h-317v-617q0 -120 110 -120zM268 -102h189v-164l-121 -217l-68 20l47 207l-47 72v82z" />
    <glyph glyph-name="hsuperior" unicode="&#x2b0;" horiz-adv-x="808" 
d="M686 1202v-315l78 -13l-6 -57l-148 4l-131 -4l-6 57l51 13v307q0 63 -65 63q-43 0 -115 -40l-31 -17v-313l58 -13l-6 -57l-129 4l-148 -4l-6 57l72 13v647l-76 -2l-6 57l170 31l71 2v-350l185 104q111 0 149.5 -36.5t38.5 -137.5z" />
    <glyph glyph-name="jsuperior" unicode="&#x2b2;" horiz-adv-x="368" 
d="M123 858v420l-76 -2l-6 55l168 29l72 4v-487q0 -88 -34 -141.5t-69 -86.5l-104 -94h-105v135h127l8 23q19 57 19 145zM131 1604l111 6l37 -6l8 -78l-17 -68l-106 -6l-37 6l-8 78z" />
    <glyph glyph-name="wsuperior" unicode="&#x2b7;" horiz-adv-x="1067" 
d="M549 1096l-8 80l-138 -342l-124 -31l-203 489l-66 15l6 55l152 -4l127 4l6 -55l-61 -15l112 -284l8 -90l134 317l-25 57l-49 15l6 55l137 -4l127 4l6 -55l-61 -15l110 -284l11 -90l143 374l-57 15l6 55l98 -4l105 4l6 -55l-74 -15l-186 -458l-125 -31z" />
    <glyph glyph-name="ysuperior" unicode="&#x2b8;" horiz-adv-x="696" 
d="M111 555v158h135l123 147l-95 -33l-198 467l-66 13l6 55l158 -4l137 4l6 -55l-69 -13l121 -286l14 -99l133 383l-59 13l6 57l112 -4l105 4l6 -57l-72 -13l-186 -442l-137 -295h-180z" />
    <glyph glyph-name="apostrophemod" unicode="&#x2bc;" horiz-adv-x="364" 
d="M104 1249l-10 107l10 90l138 8l59 -8l8 -105l-8 -92l-127 -286l-68 26q42 94 57 163t15 89z" />
    <glyph glyph-name="circumflex" unicode="&#x2c6;" horiz-adv-x="1024" 
d="M211 1100l221 352h125l221 -352h-61l-221 186l-224 -186h-61z" />
    <glyph glyph-name="caron" unicode="&#x2c7;" horiz-adv-x="1024" 
d="M272 1481l224 -191l221 191h61l-221 -357h-125l-221 357h61z" />
    <glyph glyph-name="breve" unicode="&#x2d8;" horiz-adv-x="1024" 
d="M635 1309.5q44 41.5 90 113.5l55 -37q-12 -18 -49.5 -105t-191.5 -163q-158 0 -221.5 116t-81.5 152l55 37q41 -68 87.5 -111.5t129.5 -43.5t127 41.5z" />
    <glyph glyph-name="dotaccent" unicode="&#x2d9;" horiz-adv-x="1024" 
d="M428 1423l133 11l39 -11l10 -96l-18 -82l-133 -10l-37 10l-10 98z" />
    <glyph glyph-name="ring" unicode="&#x2da;" horiz-adv-x="1024" 
d="M399 1278q0 -47 33 -75.5t80 -28.5t80 28.5t33 75.5t-33 80t-80 33t-80 -33t-33 -80zM309 1278q0 115 81 145.5t120 40.5q86 0 144.5 -40t58.5 -137t-43 -123t-154 -64q-91 0 -149 42t-58 136z" />
    <glyph glyph-name="ogonek" unicode="&#x2db;" horiz-adv-x="1024" 
d="M528 -297q0 -106 75 -117.5t112 -11.5v-61q-193 0 -274 51t-81 155v103l218 223h67l-117 -274v-68z" />
    <glyph glyph-name="tilde" unicode="&#x2dc;" horiz-adv-x="1024" 
d="M244 1382l153 45l310 -116l59 112h57l-47 -194l-151 -35l-312 117l-57 -113h-57z" />
    <glyph glyph-name="hungarumlaut" unicode="&#x2dd;" horiz-adv-x="1024" 
d="M418 1100l100 356h209l-248 -356h-61zM88 1100l100 356h209l-247 -356h-62z" />
    <glyph glyph-name="xsuperior" unicode="&#x2e3;" horiz-adv-x="731" 
d="M272 874l-6 -57l-119 4l-110 -4l-6 57l73 11l183 186l-178 223l-70 11l6 57l141 -4l156 4l6 -57l-49 -11l80 -98l12 -39l121 137l-49 11l6 57l106 -4l111 4l6 -57l-76 -11l-165 -170l196 -239l64 -11l-9 -57l-133 4l-157 -4l-6 57l51 11l-99 106l-16 41l-129 -147z" />
    <glyph glyph-name="Delta" unicode="&#x394;" horiz-adv-x="1384" 
d="M172 94h977l-444 1059l-15 113zM41 0v94l621 1329l92 41l589 -1368v-96h-1302z" />
    <glyph glyph-name="Omega" unicode="&#x3a9;" horiz-adv-x="1474" 
d="M61 0v319h62l49 -139l369 -74v121q-181 41 -320 196.5t-139 403.5t160 400t516 237q275 0 455 -176.5t180 -424.5q0 -236 -122 -394t-333 -215v-148l365 74l49 139h61v-319h-586v319q241 34 307 198.5t66 293.5t-36 228.5t-98 169t-146 108.5t-233 39t-281 -130
t-132 -359t113.5 -378.5t259.5 -169.5v-319h-586z" />
    <glyph glyph-name="mu" unicode="&#x3bc;" 
d="M156 -471v1427h163v-604q0 -125 53.5 -180t119.5 -55t128 36.5t125 77.5l43 27v698h164v-747q0 -53 34 -93t126 -63l-8 -53h-230l-83 152l-246 -183q-247 0 -281 123v-149l88 -414h-196z" />
    <glyph glyph-name="pi" unicode="&#x3c0;" 
d="M950 225q0 -63 30 -105.5t130 -66.5l-8 -53h-230l-88 152v706h-299v-858h-166v858h-118l-78 -203h-57v289h1138v-86h-254v-633z" />
    <glyph glyph-name="Wgrave" unicode="&#x1e80;" horiz-adv-x="1984" 
d="M1294 -29l-284 865l-6 114l-291 -930l-125 -49l-449 1379l-116 22l10 64l219 -6l252 6l10 -64l-182 -26l317 -1049l6 -104l273 911l-82 246l-137 22l10 64l237 -6l254 6l11 -64l-183 -26l318 -1049l4 -102l352 1155l-180 22l10 64l244 -6l166 6l10 -64l-115 -22
l-428 -1330zM938 1569l-246 270h205l147 -270h-106z" />
    <glyph glyph-name="wgrave" unicode="&#x1e81;" horiz-adv-x="1693" 
d="M860 567l-10 133l-246 -665l-145 -64l-314 903l-135 21l10 63l213 -6l187 6l10 -63l-121 -21l211 -634l17 -109l243 670l-26 73l-86 21l10 63l164 -6l184 6l10 -63l-118 -21l210 -634l17 -109l266 743l-94 21l10 63l137 -6l209 6l10 -63l-135 -21l-336 -839l-145 -64z
M844 1100l-248 352h209l100 -352h-61z" />
    <glyph glyph-name="Wacute" unicode="&#x1e82;" horiz-adv-x="1984" 
d="M1294 -29l-284 865l-6 114l-291 -930l-125 -49l-449 1379l-116 22l10 64l219 -6l252 6l10 -64l-182 -26l317 -1049l6 -104l273 911l-82 246l-137 22l10 64l237 -6l254 6l11 -64l-183 -26l318 -1049l4 -102l352 1155l-180 22l10 64l244 -6l166 6l10 -64l-115 -22
l-428 -1330zM913 1569l150 270h205l-248 -270h-107z" />
    <glyph glyph-name="wacute" unicode="&#x1e83;" horiz-adv-x="1693" 
d="M860 567l-10 133l-246 -665l-145 -64l-314 903l-135 21l10 63l213 -6l187 6l10 -63l-121 -21l211 -634l17 -109l243 670l-26 73l-86 21l10 63l164 -6l184 6l10 -63l-118 -21l210 -634l17 -109l266 743l-94 21l10 63l137 -6l209 6l10 -63l-135 -21l-336 -839l-145 -64z
M825 1100l101 352h209l-248 -352h-62z" />
    <glyph glyph-name="Wdieresis" unicode="&#x1e84;" horiz-adv-x="1984" 
d="M1294 -29l-284 865l-6 114l-291 -930l-125 -49l-449 1379l-116 22l10 64l219 -6l252 6l10 -64l-182 -26l317 -1049l6 -104l273 911l-82 246l-137 22l10 64l237 -6l254 6l11 -64l-183 -26l318 -1049l4 -102l352 1155l-180 22l10 64l244 -6l166 6l10 -64l-115 -22
l-428 -1330zM1124 1776l115 10l47 -10l10 -90l-18 -80l-113 -9l-49 9l-8 94zM682 1776l115 10l49 -10l8 -90l-18 -80l-113 -9l-47 9l-10 94z" />
    <glyph glyph-name="wdieresis" unicode="&#x1e85;" horiz-adv-x="1693" 
d="M860 567l-10 133l-246 -665l-145 -64l-314 903l-135 21l10 63l213 -6l187 6l10 -63l-121 -21l211 -634l17 -109l243 670l-26 73l-86 21l10 63l164 -6l184 6l10 -63l-118 -21l210 -634l17 -109l266 743l-94 21l10 63l137 -6l209 6l10 -63l-135 -21l-336 -839l-145 -64z
M946 1384l115 9l47 -9l10 -92l-18 -78l-113 -10l-49 10l-8 93zM586 1384l114 9l50 -9l8 -92l-19 -78l-112 -10l-47 10l-11 93z" />
    <glyph glyph-name="Ygrave" unicode="&#x1ef2;" horiz-adv-x="1447" 
d="M819 553l4 -465l240 -27l-10 -63l-320 6l-334 -6l-10 63l252 27v475l-463 789l-168 22l10 62l277 -6l260 6l10 -62l-182 -26l360 -609l21 -71l352 680l-186 26l10 62l250 -6l235 6l11 -60l-168 -20zM700 1569l-247 270h204l150 -270h-107z" />
    <glyph glyph-name="ygrave" unicode="&#x1ef3;" horiz-adv-x="1093" 
d="M172 -481v182h156l200 319l-47 -14l-336 868l-135 21l10 63l224 -6l209 6l10 -63l-144 -21l224 -622l14 -131l254 753l-94 21l10 63l176 -6l170 6l10 -63l-135 -21l-327 -845l-228 -510h-221zM565 1100l-248 352h209l101 -352h-62z" />
    <glyph glyph-name="endash" unicode="&#x2013;" horiz-adv-x="1095" 
d="M82 614h932v-94h-932v94z" />
    <glyph glyph-name="emdash" unicode="&#x2014;" horiz-adv-x="2027" 
d="M-291 643h2609v-151h-2609v151z" />
    <glyph glyph-name="quoteleft" unicode="&#x2018;" horiz-adv-x="362" 
d="M287 1188l10 -107l-10 -90l-140 -8l-57 8l-8 107l8 90l127 287l68 -27q-41 -93 -56.5 -162t-15.5 -90z" />
    <glyph glyph-name="quoteright" unicode="&#x2019;" horiz-adv-x="364" 
d="M104 1249l-10 107l10 90l138 8l59 -8l8 -105l-8 -92l-127 -286l-68 26q42 94 57 163t15 89z" />
    <glyph glyph-name="quotesinglbase" unicode="&#x201a;" horiz-adv-x="403" 
d="M109 -4l-11 108l11 89l137 8l59 -8l8 -105l-8 -92l-127 -287l-67 29q39 88 55 159.5t16 92.5z" />
    <glyph glyph-name="quotedblleft" unicode="&#x201c;" horiz-adv-x="667" 
d="M594 1188l8 -107l-8 -90l-139 -8l-58 8l-10 107l10 90l125 287l70 -27q-74 -167 -74 -252zM287 1188l10 -107l-10 -90l-140 -8l-57 8l-8 107l8 90l127 287l68 -27q-41 -93 -56.5 -162t-15.5 -90z" />
    <glyph glyph-name="quotedblright" unicode="&#x201d;" horiz-adv-x="669" 
d="M100 1249l-10 107l10 90l138 8l59 -8l8 -105l-8 -92l-127 -286l-68 26q42 94 57 163t15 89zM406 1249l-11 107l11 90l139 8l57 -8l8 -105l-8 -92l-125 -286l-69 26q40 90 55.5 161t15.5 91z" />
    <glyph glyph-name="quotedblbase" unicode="&#x201e;" horiz-adv-x="708" 
d="M109 -4l-11 108l11 89l137 8l59 -8l8 -105l-8 -92l-127 -287l-67 29q39 88 55 159.5t16 92.5zM414 -4l-11 108l11 89l139 8l57 -8l8 -105l-8 -92l-125 -287l-69 29q39 88 55 159.5t16 92.5z" />
    <glyph glyph-name="dagger" unicode="&#x2020;" horiz-adv-x="880" 
d="M55 1122l340 -61l-61 393h201l-62 -393l352 61v-207l-352 62l29 -219l53 -84l-53 -211l-43 -586h-47l-43 586l-54 211l54 84l28 219l-342 -62v207z" />
    <glyph glyph-name="daggerdbl" unicode="&#x2021;" horiz-adv-x="892" 
d="M375 758l28 219l-342 -62v207l340 -61l-61 393h201l-62 -393l352 61v-207l-352 62l29 -219l53 -84l-53 -84l-29 -219l352 61v-207l-352 62l62 -393h-201l61 393l-340 -62v207l342 -61l-28 219l-53 84z" />
    <glyph glyph-name="bullet" unicode="&#x2022;" horiz-adv-x="468" 
d="M113 743l166 11l77 -11l11 -129l-11 -114l-166 -11l-77 11l-11 131z" />
    <glyph glyph-name="ellipsis" unicode="&#x2026;" horiz-adv-x="1517" 
d="M1155 201l141 8l60 -8l8 -109l-8 -92l-144 -10l-57 10l-10 109zM659 201l144 8l57 -8l8 -109l-8 -92l-143 -10l-58 10l-10 109zM164 201l141 8l60 -8l8 -109l-8 -92l-144 -10l-57 10l-10 109z" />
    <glyph glyph-name="perthousand" unicode="&#x2030;" horiz-adv-x="2332" 
d="M1010 382q0 -336 186 -335q122 0 143 114.5t21 172.5t-10.5 113t-33 97t-57 66.5t-81.5 24.5q-88 0 -128 -80.5t-40 -172.5zM1751 382q0 -335 186 -335q82 0 122 80.5t40 172.5t-10 147t-31.5 97t-57.5 66.5t-83 24.5q-86 0 -126 -80.5t-40 -172.5zM937.5 578.5
q81.5 91.5 268.5 117.5q144 0 224.5 -95t80.5 -251t-77.5 -246.5t-270.5 -117.5q-143 0 -225 96.5t-82 250.5t81.5 245.5zM1677 578q80 92 269 118q143 0 224 -95.5t81 -250.5t-78 -246t-270 -118q-145 0 -225.5 97.5t-80.5 250t80 244.5zM236 1135q0 -336 186 -336
q120 0 141 113.5t21 171.5t-10.5 113.5t-32 97.5t-57.5 66.5t-83 24.5q-84 0 -124.5 -79.5t-40.5 -171.5zM161.5 1328q79.5 93 270.5 120q141 0 222 -95.5t81 -251.5t-78 -246.5t-270 -117.5q-143 0 -224 98t-81 249t79.5 244zM379 -10h-121l1014 1454h121z" />
    <glyph glyph-name="guilsinglleft" unicode="&#x2039;" horiz-adv-x="538" 
d="M401 31l-370 450l372 451h74l-260 -453l260 -448h-76z" />
    <glyph glyph-name="guilsinglright" unicode="&#x203a;" horiz-adv-x="538" 
d="M61 31l261 448l-261 453h74l373 -451l-371 -450h-76z" />
    <glyph glyph-name="fraction" unicode="&#x2044;" horiz-adv-x="243" 
d="M-217 -102h-111l793 1556h106z" />
    <glyph glyph-name="zerosuperior" unicode="&#x2070;" horiz-adv-x="839" 
d="M569 1161q0 389 -161 389q-103 0 -121.5 -123.5t-18.5 -194.5t9.5 -136.5t30 -114.5t51 -76.5t70.5 -27.5q72 0 106 88.5t34 195.5zM92 1202q0 176 81 281.5t271 140.5q142 0 223 -111t81 -288q0 -176 -81 -282.5t-272 -139.5q-141 0 -222 111.5t-81 287.5z" />
    <glyph glyph-name="foursuperior" unicode="&#x2074;" horiz-adv-x="729" 
d="M541 1128h157v-110h-157v-199h-146v199h-317l-47 76l401 514h139v-64l-428 -436l62 20h190v127l111 99h35v-226z" />
    <glyph glyph-name="fivesuperior" unicode="&#x2075;" horiz-adv-x="694" 
d="M440 1098q0 55 -36.5 96t-99.5 41t-136 -29l-41 -16l-33 27l51 391h453v-49l-35 -84h-366l-29 -211l170 84q141 0 207.5 -58.5t66.5 -144.5q0 -136 -106.5 -190t-159.5 -78l-115 -58h-139v142h266q82 53 82 137z" />
    <glyph glyph-name="sixsuperior" unicode="&#x2076;" horiz-adv-x="745" 
d="M387 870q53 0 86 43.5t33 125.5t-28.5 123.5t-64.5 41.5t-58.5 -12t-51.5 -31l-45 -31q0 -260 129 -260zM354 803q-129 0 -200.5 85.5t-71.5 237.5t110.5 285t370.5 221l19 -59q-255 -93 -285.5 -201t-32.5 -166l156 121q123 0 188.5 -72t65.5 -184q0 -213 -320 -268z
" />
    <glyph glyph-name="sevensuperior" unicode="&#x2077;" horiz-adv-x="661" 
d="M41 1608h547l33 -39l-363 -750h-137v68l352 590l-10 -9h-422v140z" />
    <glyph glyph-name="eightsuperior" unicode="&#x2078;" horiz-adv-x="729" 
d="M240 1053q0 -79 35 -130t87 -51t88.5 34t36.5 83t-16 77t-42 47.5t-57.5 34.5t-60.5 30q-71 -46 -71 -125zM475 1421q0 51 -27.5 92t-77.5 41t-78 -29.5t-28 -81.5t41 -85t96 -62q74 49 74 125zM457 1260q200 -89 200 -236q0 -82 -76.5 -134t-228.5 -87q-119 0 -199.5 59
t-80.5 134t40 125t144 91q-162 81 -162 201q0 78 72 129t211 82q123 0 195.5 -47t72.5 -119t-52 -116t-136 -82z" />
    <glyph glyph-name="ninesuperior" unicode="&#x2079;" horiz-adv-x="694" 
d="M123 1534q82 63 235 90q129 0 202 -84t73 -227q0 -350 -479 -510l-19 61q253 94 282 200.5t34 162.5l-156 -119q-125 0 -189.5 72t-64.5 181q0 110 82 173zM328 1556q-53 0 -86 -41t-33 -122t28.5 -121.5t64.5 -40.5t58.5 11t51.5 28l43 30q0 256 -127 256z" />
    <glyph glyph-name="plussuperior" unicode="&#x207a;" horiz-adv-x="837" 
d="M375 872v240h-273v90h273v250h90v-250h270v-90h-270v-240h-90z" />
    <glyph glyph-name="minussuperior" unicode="&#x207b;" horiz-adv-x="849" 
d="M102 1233h646v-90h-646v90z" />
    <glyph glyph-name="equalsuperior" unicode="&#x207c;" horiz-adv-x="837" 
d="M735 995h-633v86h633v-86zM735 1214h-633v89h633v-89z" />
    <glyph glyph-name="parenleftsuperior" unicode="&#x207d;" horiz-adv-x="436" 
d="M236 1112q0 -264 159 -475l-37 -33q-141 145 -198.5 259.5t-57.5 286.5t57.5 286.5t198.5 253.5l37 -33q-87 -115 -115 -202t-36 -155.5t-8 -187.5z" />
    <glyph glyph-name="parenrightsuperior" unicode="&#x207e;" horiz-adv-x="374" 
d="M201 1112q0 194 -28 285.5t-58.5 146.5t-73.5 113l37 33q144 -140 200 -254.5t56 -287t-56.5 -285.5t-199.5 -259l-37 33q160 218 160 475z" />
    <glyph glyph-name="nsuperior" unicode="&#x207f;" horiz-adv-x="796" 
d="M676 1204v-317l80 -13l-6 -57l-150 4l-133 -4l-6 57l53 13v307q0 63 -70 63q-45 0 -110 -40l-31 -17v-313l57 -13l-6 -57l-129 4l-149 -4l-6 57l73 13v387l-75 -2l-7 57l170 31l68 4l4 -94l184 106q109 0 149 -36t40 -136z" />
    <glyph glyph-name="zeroinferior" unicode="&#x2080;" horiz-adv-x="839" 
d="M569 34q0 390 -161 390q-103 0 -121.5 -124t-18.5 -194t9.5 -136t30 -115.5t51 -77t70.5 -27.5q72 0 106 88t34 196zM92 75q0 177 81 282.5t271 140.5q141 0 222.5 -111t81.5 -288t-81 -283.5t-272 -139.5q-140 0 -221.5 111t-81.5 288z" />
    <glyph glyph-name="oneinferior" unicode="&#x2081;" horiz-adv-x="628" 
d="M418 487v-720l180 -21l-6 -55l-254 4l-258 -4l-6 55l180 21v575l10 31l-55 -33l-121 -18l-27 51l277 114h80z" />
    <glyph glyph-name="twoinferior" unicode="&#x2082;" horiz-adv-x="733" 
d="M651 -174v-49l-37 -84h-544l-29 53l227 227q94 98 138.5 169.5t44.5 139.5t-30 105t-79 37t-78 -16l-41 -140h-123v146l262 84q119 0 191 -56.5t72 -148.5q0 -145 -97.5 -229t-158.5 -130l-209 -149l112 41h379z" />
    <glyph glyph-name="threeinferior" unicode="&#x2083;" horiz-adv-x="641" 
d="M418 -54q0 64 -49.5 101t-149.5 37l-12 43l49 20q66 25 97.5 62t31.5 95t-25.5 88t-64.5 30t-72 -14l-39 -140h-123v146l261 84q123 0 173 -46t50 -106q0 -127 -180 -186q113 -8 169 -59.5t56 -108.5q0 -95 -68.5 -143t-212.5 -107l-104 -49h-146v139h285q74 50 74 114z
" />
    <glyph glyph-name="fourinferior" unicode="&#x2084;" horiz-adv-x="729" 
d="M541 2h157v-111h-157v-198h-146v198h-317l-47 76l401 514h139v-63l-428 -436l62 20h190v127l111 98h35v-225z" />
    <glyph glyph-name="fiveinferior" unicode="&#x2085;" horiz-adv-x="694" 
d="M440 -29q0 55 -36.5 96.5t-96.5 41.5t-139 -29l-41 -17l-33 27l51 391h453v-49l-35 -84h-366l-29 -211l170 84q141 0 207.5 -58.5t66.5 -144.5q0 -135 -106.5 -189t-159.5 -79l-115 -57h-139v139h266q82 56 82 139z" />
    <glyph glyph-name="sixinferior" unicode="&#x2086;" horiz-adv-x="745" 
d="M590.5 -232.5q-83.5 -63.5 -236.5 -91.5q-129 0 -200.5 85t-71.5 238t110.5 286t370.5 221l19 -60q-255 -93 -285.5 -201t-32.5 -165l156 121q123 0 188.5 -73t65.5 -185t-83.5 -175.5zM387 -256q53 0 86 43t33 125t-28.5 124t-64.5 42t-58.5 -12.5t-51.5 -30.5l-45 -31
q0 -260 129 -260z" />
    <glyph glyph-name="seveninferior" unicode="&#x2087;" horiz-adv-x="661" 
d="M41 481h547l33 -39l-363 -749h-137v67l352 590l-10 -8h-422v139z" />
    <glyph glyph-name="eightinferior" unicode="&#x2088;" horiz-adv-x="729" 
d="M475 295q0 51 -27.5 92t-77.5 41t-78 -29.5t-28 -81.5t41 -85t96 -62q74 49 74 125zM457 133q200 -89 200 -235q0 -82 -76.5 -134.5t-228.5 -87.5q-119 0 -199.5 59t-80.5 134t40 125.5t144 91.5q-162 81 -162 201q0 78 72 129t211 82q123 0 195.5 -47.5t72.5 -119
t-52 -115.5t-136 -83zM240 -74q0 -78 35 -129t87 -51t88.5 34t36.5 83q0 80 -43 112.5t-133 75.5q-71 -47 -71 -125z" />
    <glyph glyph-name="nineinferior" unicode="&#x2089;" horiz-adv-x="694" 
d="M122 406.5q81 61.5 236 91.5q129 0 202 -84t73 -228q0 -350 -479 -510l-19 62q253 94 282 200.5t34 161.5l-156 -118q-125 0 -189.5 71t-64.5 182q0 110 81 171.5zM328 430q-53 0 -86 -41t-33 -122t28.5 -122t64.5 -41t58.5 11.5t51.5 27.5l43 31q0 256 -127 256z" />
    <glyph glyph-name="parenleftinferior" unicode="&#x208d;" horiz-adv-x="436" 
d="M236 -39q0 -264 159 -475l-37 -33q-141 145 -198.5 259.5t-57.5 286.5t57.5 286.5t198.5 253.5l37 -33q-87 -115 -115 -202t-36 -155.5t-8 -187.5z" />
    <glyph glyph-name="parenrightinferior" unicode="&#x208e;" horiz-adv-x="374" 
d="M201 -39q0 194 -28 285.5t-58.5 147t-73.5 112.5l37 33q144 -140 200 -254.5t56 -287t-56.5 -285.5t-199.5 -259l-37 33q160 218 160 475z" />
    <glyph glyph-name="Euro" unicode="&#x20ac;" horiz-adv-x="1378" 
d="M92 526v105h141q-2 18 -2 21v64q0 60 5 87h-144v104h156q65 345 272 437t334 120q231 0 324.5 -64.5t117.5 -84.5v-268h-92l-51 190q-70 90 -165 113.5t-163 23.5q-135 0 -247.5 -129t-145.5 -338h674l-53 -104h-631v-55q0 -59 6 -117h563l-53 -105h-492
q37 -183 156 -297t293 -114q185 0 251 46t89 60l39 -78q-89 -62 -215.5 -109.5t-190.5 -64.5q-264 0 -421.5 143.5t-202.5 413.5h-152z" />
    <glyph glyph-name="afii61289" unicode="&#x2113;" horiz-adv-x="876" 
d="M633 1061q0 143 -37 200.5t-68 57.5l-86 -21v-632q86 68 138.5 160t52.5 235zM795 1116q0 -341 -353 -559v-451l279 107l45 -57l-322 -189l-147 45v469q-59 -27 -105.5 -46t-109.5 -46v86l215 92v709l252 199q125 -4 185.5 -111.5t60.5 -247.5z" />
    <glyph glyph-name="afii61352" unicode="&#x2116;" horiz-adv-x="2066" 
d="M1245 125h729v-125h-729v125zM1423 692q0 -162 57.5 -252t161.5 -90q72 0 112 59.5t40 147.5q0 160 -52 251t-139 91q-88 0 -134 -59.5t-46 -147.5zM1870.5 375.5q-101.5 -88.5 -289.5 -119.5q-153 0 -244.5 97.5t-91.5 256.5q0 257 160 313t252 70q144 0 229.5 -98.5
t85.5 -264.5t-101.5 -254.5zM1094 0h-142l-528 1090l-55 233v-1323h-301l-11 53q6 2 37 13.5t68 19.5t67.5 8t34.5 -20v1255l-180 41l10 64l195 -7l180 7l463 -963l57 -238v1201h273l10 -54q8 2 -16.5 -9t-91.5 -30.5t-70 17.5v-1358z" />
    <glyph glyph-name="trademark" unicode="&#x2122;" horiz-adv-x="2099" 
d="M102 1208v228l365 -4l354 4v-228h-57l-59 158l-156 4v-657l131 -15l-6 -55l-211 4l-215 -4l-6 55l135 15v657l-158 -4l-57 -158h-60zM1698 1436l162 -4l131 4l6 -54l-94 -14v-655l90 -15l-6 -55l-168 4l-179 -4l-6 55l97 15v526l18 135l-289 -729h-104l-242 584l-35 137
v-653l95 -15l-7 -55l-133 4l-135 -4l-6 55l94 15v655l-96 14l6 54l117 -4l186 4l236 -566l2 -92z" />
    <glyph glyph-name="uni2126" unicode="&#x2126;" horiz-adv-x="1474" 
d="M61 0v319h62l49 -139l369 -74v121q-181 41 -320 196.5t-139 403.5t160 400t516 237q275 0 455 -176.5t180 -424.5q0 -236 -122 -394t-333 -215v-148l365 74l49 139h61v-319h-586v319q241 34 307 198.5t66 293.5t-36 228.5t-98 169t-146 108.5t-233 39t-281 -130
t-132 -359t113.5 -378.5t259.5 -169.5v-319h-586z" />
    <glyph glyph-name="estimated" unicode="&#x212e;" horiz-adv-x="1699" 
d="M326 770h1042v119q-59 214 -211.5 342.5t-349.5 128.5q-345 0 -481 -336v-254zM893 74q362 0 475 377h180q-71 -199 -238.5 -304t-480.5 -178q-322 0 -524.5 204.5t-202.5 512.5q0 168 41 289t171 247.5t556 241.5q312 0 513.5 -194t213.5 -492v-98h-1271v-178
q116 -304 290.5 -366t276.5 -62z" />
    <glyph glyph-name="arrowleft" unicode="&#x2190;" horiz-adv-x="1249" 
d="M1147 657v-106h-875l68 -39l315 -309v-152l-553 553l553 553v-151l-315 -308l-68 -41h875z" />
    <glyph glyph-name="arrowup" unicode="&#x2191;" horiz-adv-x="1310" 
d="M709 82h-107v874l-39 -67l-309 -316h-152l553 553l553 -553h-151l-307 316l-41 67v-874z" />
    <glyph glyph-name="arrowright" unicode="&#x2192;" horiz-adv-x="1249" 
d="M102 551v106h875l-68 41l-315 308v151l553 -553l-553 -553v152l315 309l68 39h-875z" />
    <glyph glyph-name="arrowdown" unicode="&#x2193;" horiz-adv-x="1310" 
d="M602 1126h107v-874l41 67l307 316h151l-553 -553l-553 553h152l309 -316l39 -67v874z" />
    <glyph glyph-name="uni2196" unicode="&#x2196;" horiz-adv-x="987" 
d="M102 973h783l-109 -107l-440 6l-78 19l621 -619l-76 -75l-619 620l21 -76l4 -442l-107 -109v783z" />
    <glyph glyph-name="uni2197" unicode="&#x2197;" horiz-adv-x="987" 
d="M885 973v-783l-107 109l4 442l21 76l-619 -620l-75 75l620 619l-78 -19l-440 -6l-109 107h783z" />
    <glyph glyph-name="uni2198" unicode="&#x2198;" horiz-adv-x="987" 
d="M885 197h-783l109 106l440 -8l78 -16l-620 618l75 76l619 -621l-21 76l-4 442l107 109v-782z" />
    <glyph glyph-name="uni2199" unicode="&#x2199;" horiz-adv-x="987" 
d="M102 197v782l107 -109l-4 -442l-21 -76l619 621l76 -76l-621 -618l78 16l440 8l109 -106h-783z" />
    <glyph glyph-name="partialdiff" unicode="&#x2202;" 
d="M338 497q0 -181 86.5 -306t221.5 -125q136 0 210 96.5t74 271.5t-86 298.5t-234 123.5q-189 0 -230.5 -137t-41.5 -222zM1102 482q0 -140 -66 -302.5t-438 -210.5q-198 0 -315 131.5t-117 343.5q0 346 193.5 419t310.5 89l196 -63q-57 195 -155.5 288t-161.5 130l-166 94
l41 74l135 -60q422 -186 482.5 -489.5t60.5 -443.5z" />
    <glyph glyph-name="uni2206" unicode="&#x2206;" horiz-adv-x="1384" 
d="M172 94h977l-444 1059l-15 113zM41 0v94l621 1329l92 41l589 -1368v-96h-1302z" />
    <glyph glyph-name="product" unicode="&#x220f;" horiz-adv-x="1529" 
d="M1124 1333h-708v-1571l190 -26l-10 -64l-270 6l-275 -6l-10 64l192 26v1581l-192 27l10 64l291 -7h875l262 7l10 -64l-182 -27v-1581l182 -26l-10 -64l-262 6l-283 -6l-10 64l200 26v1571z" />
    <glyph glyph-name="summation" unicode="&#x2211;" 
d="M1116 1434v-369h-61l-94 274l-605 11l543 -723v-62l-631 -764l731 31l101 207h69l-71 -367h-955l-45 82l627 768l-606 830l45 82h952z" />
    <glyph glyph-name="minus" unicode="&#x2212;" 
d="M96 621h1075v-125h-1075v125z" />
    <glyph glyph-name="radical" unicode="&#x221a;" 
d="M430 -29l-326 918l-124 20l10 54h262l233 -670l15 -137l534 1659h500l-41 -107h-346l-569 -1677z" />
    <glyph glyph-name="infinity" unicode="&#x221e;" horiz-adv-x="1689" 
d="M1405.5 468q54.5 48 54.5 143q0 200 -215 200q-53 0 -117.5 -21.5t-109.5 -74.5l-74 -90q107 -94 186.5 -149.5t150.5 -55.5q70 0 124.5 48zM461 403q49 0 107.5 25t105.5 72l82 86q-117 146 -204 183.5t-124 37.5q-76 0 -137.5 -50t-61.5 -143q0 -94 60.5 -152.5
t171.5 -58.5zM420 264q-56 0 -114 25.5t-120.5 92.5t-62.5 212q0 182 119.5 260t212.5 109q158 0 267 -106.5t150 -143.5l82 92q59 66 139.5 112t154.5 46q148 0 233.5 -96t85.5 -232q0 -135 -74 -222t-258 -149q-160 0 -267.5 100.5t-144.5 137.5l-86 -92
q-90 -97 -175.5 -121.5t-141.5 -24.5z" />
    <glyph glyph-name="integral" unicode="&#x222b;" 
d="M647 -31q0 -72 -17.5 -128t-70.5 -122l-172 -200h-123v149h133l37 45q49 58 49 215v1030q0 96 22.5 161t74.5 130l161 205h263v-139h-259l-51 -66q-47 -59 -47 -237v-1043z" />
    <glyph glyph-name="approxequal" unicode="&#x2248;" 
d="M1153 442h64l-80 -211l-191 -36l-743 114l-88 -129h-64l76 201l201 47l737 -115zM1155 834h64l-80 -211l-191 -37l-743 114l-88 -129h-64l76 201l201 47l737 -114z" />
    <glyph glyph-name="notequal" unicode="&#x2260;" 
d="M106 240v125h379l232 274h-611v125h715l187 219h137l-184 -219h200v-125h-307l-229 -274h536v-125h-641l-198 -240h-142l201 240h-275z" />
    <glyph glyph-name="lessequal" unicode="&#x2264;" 
d="M1167 1266v-156l-880 -379l880 -379v-157l-1065 473v123zM98 125h1071v-125h-1071v125z" />
    <glyph glyph-name="greaterequal" unicode="&#x2265;" 
d="M1167 791v-123l-1065 -473v157l881 379l-881 379v156zM100 125h1071v-125h-1071v125z" />
    <glyph glyph-name="lozenge" unicode="&#x25ca;" 
d="M655 1262l-14 71l-387 -600l358 -573l15 -72l395 604zM592 1423l92 41l490 -708l-496 -748l-92 -41l-490 709z" />
    <glyph glyph-name="commaaccent" unicode="&#xf6c3;" horiz-adv-x="1024" 
d="M418 -102h188v-164l-121 -217l-67 20l47 207l-47 72v82z" />
    <glyph glyph-name="asuperior" unicode="&#xf6e9;" horiz-adv-x="655" 
d="M549 985q0 -60 18 -82h60l8 -55l-201 -41l-39 88l-143 -92q-86 0 -138.5 41t-52.5 110t54 117l272 80v66q0 51 -13.5 68.5t-55.5 17.5t-76 -17l-21 -121h-141v117l248 94q125 0 173 -36.5t48 -135.5v-219zM221 983q0 -47 20.5 -65.5t48.5 -18.5t60 23l37 18v158l-141 -43
q-25 -25 -25 -72z" />
    <glyph glyph-name="bsuperior" unicode="&#xf6ea;" horiz-adv-x="714" 
d="M506 1072q0 99 -32 140t-72 41t-105 -34l-27 -17v-295q40 -39 100 -39t98 52.5t38 151.5zM674 1114q0 -123 -84 -206t-242 -105q-134 0 -235 47v686l-76 -2l-6 55l168 31l71 2v-352l162 106q96 0 169 -69.5t73 -192.5z" />
    <glyph glyph-name="dsuperior" unicode="&#xf6eb;" horiz-adv-x="735" 
d="M344 1298q-61 0 -98 -52t-37 -141t33 -135t69 -46t58 9t45 19l30 19v293q-39 34 -100 34zM602 969q0 -53 21 -76h57l4 -55l-192 -31l-39 94l-154 -98q-117 0 -187.5 73.5t-70.5 203.5t82 202t215 94q18 0 53 -9t53 -19v184l-75 -2l-7 53l158 37l82 4v-655z" />
    <glyph glyph-name="esuperior" unicode="&#xf6ec;" horiz-adv-x="608" 
d="M318 1305q-52 0 -81.5 -41t-33.5 -111l203 10q0 66 -18 104t-70 38zM41 1060q0 241 293 316q118 0 175.5 -60.5t57.5 -156.5v-61h-362q2 -76 49 -127t127 -51t160 47l24 -54q-76 -63 -229 -110q-123 0 -209 74t-86 183z" />
    <glyph glyph-name="isuperior" unicode="&#xf6ed;" horiz-adv-x="440" 
d="M164 1604l110 6l37 -6l8 -78l-16 -68l-108 -6l-37 6l-8 78zM233 821l-149 -4l-6 57l76 13v391l-76 -2l-6 55l168 29l71 4v-477l78 -13l-6 -57z" />
    <glyph glyph-name="lsuperior" unicode="&#xf6ee;" horiz-adv-x="432" 
d="M236 821l-148 -4l-6 57l72 13v647l-76 -2l-6 57l170 31l71 2v-735l78 -13l-6 -57z" />
    <glyph glyph-name="msuperior" unicode="&#xf6ef;" horiz-adv-x="1144" 
d="M862 1194q0 63 -61 63q-40 0 -109 -38l-28 -17v-315l49 -13l-6 -57l-127 4l-119 -4l-6 57l47 13v307q0 63 -60 63q-41 0 -108 -38l-31 -17v-315l49 -13l-6 -57l-129 4l-141 -4l-6 57l73 13v387l-75 -2l-7 57l162 31l70 4l8 -92l168 104q90 0 134 -22.5t54 -83.5l174 106
q115 0 154 -37t39 -137v-315l80 -13l-6 -57l-146 4l-133 -4l-8 57l51 13v307z" />
    <glyph glyph-name="osuperior" unicode="&#xf6f0;" horiz-adv-x="679" 
d="M324 1309q-115 0 -115 -181q0 -129 41 -193.5t104 -64.5q115 0 115 181q0 135 -43 196.5t-102 61.5zM639 1098q0 -240 -322 -295q-121 0 -198.5 73.5t-77.5 198.5q0 196 125.5 242.5t193.5 58.5q123 0 201 -75t78 -203z" />
    <glyph glyph-name="rsuperior" unicode="&#xf6f1;" horiz-adv-x="575" 
d="M535 1372v-162h-117q-50 -22 -99 -73l-18 -17v-231l129 -15l-6 -57l-201 4l-149 -4l-6 57l77 13v387l-77 -2l-7 57l158 31l62 4l12 -178l131 186h111z" />
    <glyph glyph-name="ssuperior" unicode="&#xf6f2;" horiz-adv-x="598" 
d="M518 1186h-72l-26 82q-33 39 -83 39t-74.5 -15.5t-24.5 -38t21.5 -39t70.5 -40.5l90 -39q117 -51 117 -142q0 -90 -63.5 -128t-186.5 -62q-105 0 -193 43l-22 170h82l34 -90q45 -52 107 -52q86 0 86 62q0 25 -17.5 41t-60.5 35l-94 43q-117 55 -117 145q0 61 54.5 102
t187.5 74q106 0 184 -39v-151z" />
    <glyph glyph-name="tsuperior" unicode="&#xf6f3;" horiz-adv-x="501" 
d="M356 907q45 0 97 29l24 -53l-160 -80q-86 0 -135 31.5t-49 123.5v318h-113v20l46 45h69v80l105 84h51v-166h172v-63h-172v-299q0 -70 65 -70z" />
    <glyph glyph-name="apple" unicode="&#xf8ff;" horiz-adv-x="1402" 
d="M1145 791h10l10 14v14l-20 -8v-20zM1006 1085l-17 -8v-18l17 -6l4 14zM848 1315l-17 -19v-39l25 -12l6 35zM438 1020l121 24l-8 25zM719 1065l-8 -25l100 -34l6 8zM956 735v-26l91 8l8 18h-99zM647 512h139v12l-139 8v-20zM807 639h-150v-21h150v21zM422 416l-152 102
l41 -47l103 -84zM807 575l-148 15l-12 -27l160 -8v20zM500 930l2 8l28 4l-26 12l4 15l-41 -2l6 -39l29 -31l24 -12l23 10l33 25l12 24l4 27l-45 -8l12 -21l-24 -27l-29 -2zM1206 639l-12 -6l-68 -55l80 -99v160zM750 932l-15 -23h-24l-11 15l23 16l-31 4v12l-47 9l6 -35
l17 -29l41 -18l26 -2l37 20l12 19l11 41l-62 4l15 -11zM887 688l8 62l-111 10l-6 -72h109zM877 1198l10 -12l39 22l16 -4l12 -49h27l12 12l-18 37l35 58l-31 18v10l-51 15v-41l-27 -11v-18l-18 -12zM1090 627l16 -13l16 4l41 31l27 27l22 37l-14 10h-29l-20 6l-29 14l-35 -6
q-4 -27 -7 -46t-5 -52zM778 438l-131 8v-104l131 -12v108zM422 678l-135 80v-15l-4 -26l2 -55v-99l131 -90l-2 123zM1047 678l-111 2l-2 -49v-13l-4 -63l39 -6l-17 -125l-98 6l-16 -12l104 -10l-4 -19h-100l-9 -10l109 -14l-12 -72l55 -2l25 162l8 73l-31 6l-2 17l41 2l10 6
l-57 33l4 10l61 -12l-61 30l10 11l43 -11l8 21zM195 831h-43l38 -28l3 -23l-41 15l36 -37l-8 -15l6 -198l23 -25v369l117 -66l14 21l-139 78v36l121 -69l88 -58l57 -28l6 20l-211 131l-26 15l-84 67l4 -159l39 -35v-11zM1262 952l-17 76l-39 102l-41 74l-47 58l-69 43h-23
l35 -39l51 -21l23 -22l6 -68l-51 27l-31 -60l24 -16v-39l31 6l-24 53l30 -10l21 -41l-11 -24l-16 -15h-47l-6 23l-25 4l2 -45h-28l28 -37l-14 -20l-43 10l-6 -56l84 13l16 35l45 -5l13 -57l-33 -27v-30l16 -13l37 25h47l12 23l-36 12l-11 18l19 86h14l29 -41zM733 1130h17
l20 46l23 16l-11 12l-6 17l2 43l-61 -21l-21 -16l-16 10l8 43l29 20l22 23l78 -4l25 27l-8 16h-101l-92 -27l-109 -53l-59 -47l-51 -70l59 25l27 -31l-35 -41l-20 -6l34 -6h11l73 49h66l37 -25l16 7l8 28l15 11l20 -9v-37zM1075 817l-8 14h-420l-135 -6l-14 -18l-13 -90
l-98 41l-22 -8l116 -56l2 -92l-10 -149v-187l37 8l4 82l84 -6l6 19l-90 12v33l98 -13l2 19l-96 14l2 45l88 -6l6 12l-92 19l6 192h152l22 21h-161l4 18h151l17 15h-168l4 45l239 8l287 -8v22zM1300 942l-6 -84l-16 -72l-25 -63l-6 -320l-43 -14l-102 143l-55 -14l-39 -287
l-66 9l-14 -9l-8 -192l61 -39l33 -29l-6 -30l-62 2l-49 37h-29l-16 16l14 156l-8 96l-125 2l-6 -107l-4 -114v-41l-31 -13l-16 13l-62 -21h-65l-2 23l22 22l103 43l-13 197l-200 -12l-301 286l-8 236l-27 20l-21 74v53l31 17l-6 159l188 -127l19 97l20 73l45 72l58 72l80 59
l159 60h45l-139 45l8 34h15l161 -40l-8 104l33 25h66l38 -11l60 -51l65 -16l66 -21l31 -26v-41l-41 -64l61 -57l57 -66l37 -69l31 -84z" />
    <glyph glyph-name="AE.sc" horiz-adv-x="1677" 
d="M872 461h-325l-264 -377l123 -16l-7 -68l-180 4l-176 -4l-8 68l129 16l678 956l121 -2l596 4l16 -272h-51l-90 182l-402 4v-415l197 6l63 158h56l-17 -201l17 -209h-56l-63 158l-197 6v-375l418 4l106 191h60l-55 -281l-607 4l-223 -4l-8 68l149 20v375zM872 539v422
l-286 -422h286z" />
    <glyph glyph-name="AEacute.002" horiz-adv-x="2052" 
d="M1071 647h-407l-342 -559l161 -27l-10 -63l-229 6l-224 -6l-10 63l168 23l873 1352l116 -6l760 6l21 -367h-64l-110 272l-517 7v-621l252 8l82 215h66l-21 -248l21 -272h-66l-82 213l-252 8v-565l537 6l135 283h72l-72 -377l-758 6l-282 -6l-10 63l192 27v559zM1071 725
v610l-362 -610h362zM1051 1540l147 201h205l-246 -201h-106z" />
    <glyph glyph-name="AEacute.sc" horiz-adv-x="1677" 
d="M913 1143l111 200h174l-194 -200h-91zM872 461h-325l-264 -377l123 -16l-7 -68l-180 4l-176 -4l-8 68l129 16l678 956l121 -2l596 4l16 -272h-51l-90 182l-402 4v-413l197 6l63 158h56l-17 -201l17 -209h-56l-63 158l-197 6v-377l418 4l106 191h60l-55 -281l-607 4
l-223 -4l-8 68l149 20v375zM872 539v422l-286 -422h286z" />
    <glyph glyph-name="Aacute.002" horiz-adv-x="1529" 
d="M750 1116l-17 109l-227 -650h446zM475 485l-139 -397l184 -27l-10 -63l-254 6l-223 -6l-10 63l170 23l520 1339l75 29l553 -1368l166 -23l-10 -63l-256 6l-278 -6l-11 63l183 27l-148 397h-512zM721 1540l149 201h205l-248 -201h-106z" />
    <glyph glyph-name="Aacute.sc" horiz-adv-x="1243" 
d="M602 809l-12 84l-178 -475h346zM385 338l-106 -252l143 -20l-8 -68l-195 4l-176 -4l-8 68l129 18l405 936l84 41l426 -979l129 -16l-8 -68l-217 4l-217 -4l-6 68l137 20l-111 252h-401zM588 1143l112 200h172l-194 -200h-90z" />
    <glyph glyph-name="Abreve.002" horiz-adv-x="1529" 
d="M750 1116l-17 109l-227 -650h446zM475 485l-139 -397l184 -27l-10 -63l-254 6l-223 -6l-10 63l170 23l520 1339l75 29l553 -1368l166 -23l-10 -63l-256 6l-278 -6l-11 63l183 27l-148 397h-512zM885.5 1644.5q52.5 40.5 97.5 104.5l43 -33q-12 -14 -49 -86.5t-193 -134.5
q-159 0 -221.5 95.5t-81.5 125.5l51 33q45 -65 93 -105t128 -40t132.5 40.5z" />
    <glyph glyph-name="Abreve.sc" horiz-adv-x="1243" 
d="M602 809l-12 84l-178 -475h346zM385 338l-106 -252l143 -20l-8 -68l-195 4l-176 -4l-8 68l129 18l405 936l84 41l426 -979l129 -16l-8 -68l-217 4l-217 -4l-6 68l137 20l-111 252h-401zM613 1237q73 0 116 34t66 60l39 -39q-25 -58 -65.5 -94.5t-131.5 -69.5
q-131 0 -179 68t-63 96l41 39q23 -27 63.5 -60.5t113.5 -33.5z" />
    <glyph glyph-name="Acircumflex.002" horiz-adv-x="1529" 
d="M750 1116l-17 109l-227 -650h446zM475 485l-139 -397l184 -27l-10 -63l-254 6l-223 -6l-10 63l170 23l520 1339l75 29l553 -1368l166 -23l-10 -63l-256 6l-278 -6l-11 63l183 27l-148 397h-512zM455 1540l215 201h159l215 -201h-102l-170 113l-24 20l-21 -20l-170 -113
h-102z" />
    <glyph glyph-name="Acircumflex.sc" horiz-adv-x="1243" 
d="M602 809l-12 84l-178 -475h346zM385 338l-106 -252l143 -20l-8 -68l-195 4l-176 -4l-8 68l129 18l405 936l84 41l426 -979l129 -16l-8 -68l-217 4l-217 -4l-6 68l137 20l-111 252h-401zM373 1143l170 200h133l172 -200h-90l-129 80l-19 32l-20 -32l-127 -80h-90z" />
    <glyph glyph-name="Adieresis.002" horiz-adv-x="1529" 
d="M750 1116l-17 109l-227 -650h446zM475 485l-139 -397l184 -27l-10 -63l-254 6l-223 -6l-10 63l170 23l520 1339l75 29l553 -1368l166 -23l-10 -63l-256 6l-278 -6l-11 63l183 27l-148 397h-512zM897 1733l117 10l49 -10l8 -93l-18 -79l-115 -11l-49 11l-10 94zM446 1733
l117 10l49 -10l11 -93l-21 -79l-115 -11l-49 11l-8 94z" />
    <glyph glyph-name="Adieresis.sc" horiz-adv-x="1243" 
d="M602 809l-12 84l-178 -475h346zM385 338l-106 -252l143 -20l-8 -68l-195 4l-176 -4l-8 68l129 18l405 936l84 41l426 -979l129 -16l-8 -68l-217 4l-217 -4l-6 68l137 20l-111 252h-401zM723 1309l92 8l43 -8l6 -84l-16 -74l-94 -6l-39 6l-6 86zM369 1309l96 8l39 -8
l6 -84l-14 -74l-95 -6l-41 6l-6 86z" />
    <glyph glyph-name="Agrave.002" horiz-adv-x="1529" 
d="M750 1116l-17 109l-227 -650h446zM475 485l-139 -397l184 -27l-10 -63l-254 6l-223 -6l-10 63l170 23l520 1339l75 29l553 -1368l166 -23l-10 -63l-256 6l-278 -6l-11 63l183 27l-148 397h-512zM692 1540l-246 201h205l148 -201h-107z" />
    <glyph glyph-name="Agrave.sc" horiz-adv-x="1243" 
d="M602 809l-12 84l-178 -475h346zM385 338l-106 -252l143 -20l-8 -68l-195 4l-176 -4l-8 68l129 18l405 936l84 41l426 -979l129 -16l-8 -68l-217 4l-217 -4l-6 68l137 20l-111 252h-401zM549 1143l-195 200h172l113 -200h-90z" />
    <glyph glyph-name="Amacron.002" horiz-adv-x="1529" 
d="M750 1116l-17 109l-227 -650h446zM475 485l-139 -397l184 -27l-10 -63l-254 6l-223 -6l-10 63l170 23l520 1339l75 29l553 -1368l166 -23l-10 -63l-256 6l-278 -6l-11 63l183 27l-148 397h-512zM477 1694h565v-103h-565v103z" />
    <glyph glyph-name="Amacron.sc" horiz-adv-x="1243" 
d="M602 809l-12 84l-178 -475h346zM385 338l-106 -252l143 -20l-8 -68l-195 4l-176 -4l-8 68l129 18l405 936l84 41l426 -979l129 -16l-8 -68l-217 4l-217 -4l-6 68l137 20l-111 252h-401zM389 1282h451v-102h-451v102z" />
    <glyph glyph-name="Aogonek.001" horiz-adv-x="1529" 
d="M1090 -178q0 -141 184 -141v-50q-272 0 -307 78t-35 129v23l215 164l-160 460h-512l-139 -397l184 -27l-10 -63l-254 6l-223 -6l-10 63l170 23l520 1339l75 29l553 -1368l166 -23l-10 -63l-313 6l-94 -158v-24zM750 1116l-17 109l-227 -650h446z" />
    <glyph glyph-name="Aogonek.sc" horiz-adv-x="1243" 
d="M602 809l-12 84l-178 -475h346zM872 -203q0 -41 43 -70.5t109 -29.5v-62q-158 0 -223.5 37t-65.5 113v96l174 174l-123 283h-401l-106 -252l143 -20l-8 -68l-195 4l-176 -4l-8 68l129 18l405 936l84 41l426 -979l129 -16l-8 -68l-250 4l-78 -156v-49z" />
    <glyph glyph-name="Aring.002" horiz-adv-x="1529" 
d="M750 1116l-17 109l-227 -650h446zM475 485l-139 -397l184 -27l-10 -63l-254 6l-223 -6l-10 63l170 23l520 1339l75 29l553 -1368l166 -23l-10 -63l-256 6l-278 -6l-11 63l183 27l-148 397h-512zM662 1611q0 -36 24.5 -59.5t62.5 -23.5t61.5 23.5t23.5 59.5t-24 57.5
t-62 21.5t-62 -21.5t-24 -57.5zM866 1524q-41 -28 -118 -49q-105 0 -132.5 48t-27.5 82q0 59 43.5 88.5t116.5 49.5q57 0 108 -33.5t51 -95.5t-41 -90z" />
    <glyph glyph-name="Aring.sc" horiz-adv-x="1243" 
d="M602 809l-12 84l-178 -475h346zM385 338l-106 -252l143 -20l-8 -68l-195 4l-176 -4l-8 68l129 18l405 936l84 41l426 -979l129 -16l-8 -68l-217 4l-217 -4l-6 68l137 20l-111 252h-401zM766 1246q0 -72 -41.5 -102.5t-124.5 -51.5q-107 0 -134.5 54t-27.5 94
q0 68 41.5 100.5t122.5 58.5q108 0 136 -55.5t28 -97.5zM508 1243q0 -35 26.5 -58.5t67.5 -23.5t67.5 23.5t26.5 58.5t-26.5 60.5t-67.5 25.5t-67.5 -25.5t-26.5 -60.5z" />
    <glyph glyph-name="Aringacute.002" horiz-adv-x="1529" 
d="M750 1116l-17 109l-227 -650h446zM475 485l-139 -397l184 -27l-10 -63l-254 6l-223 -6l-10 63l170 23l520 1339l75 29l553 -1368l166 -23l-10 -63l-256 6l-278 -6l-11 63l183 27l-148 397h-512zM662 1611q0 -36 24.5 -58.5t63.5 -22.5t62.5 22.5t23.5 58.5t-24 58.5
t-62 22.5t-63 -22.5t-25 -58.5zM909 1612q0 -84 -65.5 -106.5t-95.5 -30.5q-61 0 -110.5 34t-49.5 97t45 90.5t115 46.5q48 0 75 -12l58 55h110l-137 -74q55 -35 55 -100z" />
    <glyph glyph-name="Aringacute.sc" horiz-adv-x="1243" 
d="M602 809l-12 84l-178 -475h346zM385 338l-106 -252l143 -20l-8 -68l-195 4l-176 -4l-8 68l129 18l405 936l84 41l426 -979l129 -16l-8 -68l-217 4l-217 -4l-6 68l137 20l-111 252h-401zM659 1378q107 -38 107 -136t-67.5 -118t-98.5 -28q-107 0 -134.5 52t-27.5 91
q0 67 42 100t122 56l78 73h119zM502 1243q0 -35 28.5 -59.5t70.5 -24.5t70.5 24.5t28.5 59.5t-28.5 61.5t-70.5 26.5t-70.5 -26.5t-28.5 -61.5z" />
    <glyph glyph-name="Atilde.002" horiz-adv-x="1529" 
d="M750 1116l-17 109l-227 -650h446zM475 485l-139 -397l184 -27l-10 -63l-254 6l-223 -6l-10 63l170 23l520 1339l75 29l553 -1368l166 -23l-10 -63l-256 6l-278 -6l-11 63l183 27l-148 397h-512zM514 1694l154 37l303 -82l78 90h45l-47 -150l-154 -39l-303 82l-78 -90h-45
z" />
    <glyph glyph-name="Atilde.sc" horiz-adv-x="1243" 
d="M602 809l-12 84l-178 -475h346zM385 338l-106 -252l143 -20l-8 -68l-195 4l-176 -4l-8 68l129 18l405 936l84 41l426 -979l129 -16l-8 -68l-217 4l-217 -4l-6 68l137 20l-111 252h-401zM412 1303l120 32l248 -73l60 75h39l-39 -163l-121 -29l-248 76l-57 -76h-39z" />
    <glyph glyph-name="B.sc" horiz-adv-x="1071" 
d="M567 512h-186v-430l149 -10q154 0 224.5 67.5t70.5 158.5t-67.5 152.5t-190.5 61.5zM381 584h139q109 0 175.5 60.5t66.5 142.5t-52.5 131t-152.5 51l-176 -11v-374zM995 301q0 -248 -434 -303l-256 4l-225 -4l-8 68l147 20v870l-147 19l8 65l225 -4l309 4
q151 0 233.5 -67t82.5 -160q0 -94 -72 -162.5t-182 -93.5q158 -6 238.5 -76.5t80.5 -179.5z" />
    <glyph glyph-name="C.sc" horiz-adv-x="1185" 
d="M88 496q0 481 621 571q219 0 372 -102v-254h-88l-49 151q-35 39 -103.5 75t-163.5 36q-188 0 -300.5 -114.5t-112.5 -316.5t121.5 -337t331.5 -135q124 0 209 100l88 180h88l-45 -270q-106 -55 -389 -107q-238 0 -409 138.5t-171 384.5z" />
    <glyph glyph-name="Cacute.002" horiz-adv-x="1439" 
d="M86 701q0 343 206.5 535t551.5 234q213 0 338 -71.5t155 -95.5v-252h-104l-66 188q-135 135 -377 135q-92 0 -189 -40t-205.5 -161.5t-108.5 -405.5t161 -491.5t433 -207.5q109 0 175 46t85 60l114 223h105l-57 -270q-167 -81 -299 -118.5t-189 -45.5
q-299 0 -452.5 141.5t-215 279.5t-61.5 317zM760 1540l149 201h205l-248 -201h-106z" />
    <glyph glyph-name="Cacute.sc" horiz-adv-x="1185" 
d="M625 1143l112 200h172l-192 -200h-92zM88 496q0 481 621 571q219 0 372 -102v-254h-88l-49 151q-35 39 -103.5 75t-163.5 36q-188 0 -300.5 -114.5t-112.5 -316.5t121.5 -337t331.5 -135q124 0 209 100l88 180h88l-45 -270q-106 -55 -389 -107q-238 0 -409 138.5
t-171 384.5z" />
    <glyph glyph-name="Ccaron.002" horiz-adv-x="1439" 
d="M86 701q0 343 206.5 535t551.5 234q213 0 338 -71.5t155 -95.5v-252h-104l-66 188q-135 135 -377 135q-92 0 -189 -40t-205.5 -161.5t-108.5 -405.5t161 -491.5t433 -207.5q109 0 175 46t85 60l114 223h105l-57 -270q-167 -81 -299 -118.5t-189 -45.5
q-299 0 -452.5 141.5t-215 279.5t-61.5 317zM791 1628l20 -20l23 20l170 113h102l-213 -201h-162l-213 201h103z" />
    <glyph glyph-name="Ccaron.sc" horiz-adv-x="1185" 
d="M522 1343l129 -79l19 -31l18 31l129 79h90l-172 -200h-133l-170 200h90zM88 496q0 481 621 571q219 0 372 -102v-254h-88l-49 151q-35 39 -103.5 75t-163.5 36q-188 0 -300.5 -114.5t-112.5 -316.5t121.5 -337t331.5 -135q124 0 209 100l88 180h88l-45 -270
q-106 -55 -389 -107q-238 0 -409 138.5t-171 384.5z" />
    <glyph glyph-name="Ccedilla.001" horiz-adv-x="1439" 
d="M809 -206q0 52 -72.5 61.5t-101.5 9.5l117 102q-278 21 -472 217t-194 528t206.5 524t551.5 234q213 0 338 -71.5t155 -95.5l-2 -252h-102l-66 188q-135 135 -377 135q-92 0 -189 -40t-205.5 -161.5t-108.5 -405.5t161 -491.5t433 -207.5q109 0 175 46t85 60l114 223h105
l-57 -270q-169 -83 -299 -119.5t-187 -44.5l-31 -26q125 -28 125 -109q0 -57 -41.5 -91.5t-111.5 -60.5l-99 -34h-120l51 75h166q53 25 53 77z" />
    <glyph glyph-name="Ccedilla.sc" horiz-adv-x="1185" 
d="M88 496q0 481 621 571q219 0 372 -102v-254h-88l-49 151q-35 39 -103.5 75t-163.5 36q-188 0 -300.5 -114.5t-112.5 -316.5t121.5 -337t331.5 -135q124 0 209 100l88 180h88l-45 -270q-106 -55 -389 -107h-23l-37 -43q47 0 89 -25.5t42 -68.5q0 -119 -145 -172l-80 -26
h-94l47 65h121q49 34 49 87q0 52 -44 71.5t-87 19.5l84 96q-212 25 -357 159.5t-145 359.5z" />
    <glyph glyph-name="Ccircumflex.002" horiz-adv-x="1439" 
d="M86 701q0 343 206.5 535t551.5 234q213 0 338 -71.5t155 -95.5v-252h-104l-66 188q-135 135 -377 135q-92 0 -189 -40t-205.5 -161.5t-108.5 -405.5t161 -491.5t433 -207.5q109 0 175 46t85 60l114 223h105l-57 -270q-167 -81 -299 -118.5t-189 -45.5
q-299 0 -452.5 141.5t-215 279.5t-61.5 317zM543 1540l213 201h162l212 -201h-102l-170 113l-22 20l-21 -20l-170 -113h-102z" />
    <glyph glyph-name="Ccircumflex.sc" horiz-adv-x="1185" 
d="M451 1143l170 200h131l174 -200h-90l-129 80l-23 32l-16 -32l-127 -80h-90zM88 496q0 481 621 571q219 0 372 -102v-254h-88l-49 151q-35 39 -103.5 75t-163.5 36q-188 0 -300.5 -114.5t-112.5 -316.5t121.5 -337t331.5 -135q124 0 209 100l88 180h88l-45 -270
q-106 -55 -389 -107q-238 0 -409 138.5t-171 384.5z" />
    <glyph glyph-name="Cdotaccent.002" horiz-adv-x="1439" 
d="M86 701q0 343 206.5 535t551.5 234q213 0 338 -71.5t155 -95.5v-252h-104l-66 188q-135 135 -377 135q-92 0 -189 -40t-205.5 -161.5t-108.5 -405.5t161 -491.5t433 -207.5q109 0 175 46t85 60l114 223h105l-57 -270q-167 -81 -299 -118.5t-189 -45.5
q-299 0 -452.5 141.5t-215 279.5t-61.5 317zM727 1741l137 10l43 -10l8 -101l-18 -88l-137 -10l-41 10l-10 103z" />
    <glyph glyph-name="Cdotaccent.sc" horiz-adv-x="1185" 
d="M598 1333l119 6l41 -8l8 -96l-18 -78l-115 -10l-41 10l-8 92zM88 496q0 481 621 571q219 0 372 -102v-254h-88l-49 151q-35 39 -103.5 75t-163.5 36q-188 0 -300.5 -114.5t-112.5 -316.5t121.5 -337t331.5 -135q124 0 209 100l88 180h88l-45 -270q-106 -55 -389 -107
q-238 0 -409 138.5t-171 384.5z" />
    <glyph glyph-name="D.sc" horiz-adv-x="1236" 
d="M859 851q-110 124 -318 116l-160 -9v-872l207 -12q168 -8 274.5 127.5t106.5 330.5t-110 319zM1149 554q0 -234 -140 -381t-409 -175l-301 4l-219 -4l-8 68l147 20v870l-147 19l8 65l219 -4l319 4q246 2 388.5 -125t142.5 -361z" />
    <glyph glyph-name="Dcaron.002" horiz-adv-x="1499" 
d="M1063 1176q-145 174 -416 178l-211 -11v-1237l271 -20q223 4 362 176t139 456t-145 458zM1413 758q0 -678 -692 -760l-365 6l-284 -6l-11 63l193 27v1258l-193 26l11 64l282 -6l391 6q313 0 490.5 -175.5t177.5 -502.5zM684 1628l21 -20l22 20l170 113h102l-213 -201
h-161l-213 201h102z" />
    <glyph glyph-name="Dcaron.sc" horiz-adv-x="1236" 
d="M829 1343l-172 -200h-131l-172 200h88l129 -79l21 -31l20 31l129 79h88zM1149 554q0 -234 -140 -381t-409 -175l-301 4l-219 -4l-8 68l147 20v870l-147 19l8 65l219 -4l319 4q246 2 388.5 -125t142.5 -361zM859 851q-110 124 -318 116l-160 -9v-872l207 -12
q168 -8 274.5 127.5t106.5 330.5t-110 319z" />
    <glyph glyph-name="Dcroat.sc" horiz-adv-x="1236" 
d="M381 580h205v-82h-205v-412l207 -12q168 -8 274.5 127.5t106.5 330.5t-110 319t-318 116l-160 -9v-378zM219 580v376l-147 19l8 65l219 -4l319 4q246 2 388.5 -125t142.5 -361t-140 -381t-409 -175l-301 4l-219 -4l-8 68l147 20v412h-131v82h131z" />
    <glyph glyph-name="E.sc" horiz-adv-x="1058" 
d="M940 1040l16 -282h-51l-90 194l-434 4v-368l231 6l64 158h53l-16 -201l16 -209h-53l-64 158l-231 6v-422l448 4l109 201h59l-57 -291l-639 4l-221 -4l-8 68l147 20v870l-147 19l8 65l221 -4z" />
    <glyph glyph-name="Eacute.002" horiz-adv-x="1280" 
d="M1151 1436l18 -361h-57l-113 266l-563 7v-560l303 9l82 215h62l-21 -248l21 -272h-62l-82 213l-303 8v-627l584 6l137 277h68l-74 -371l-797 6l-282 -6l-11 63l193 27v1258l-193 26l11 64l282 -6zM580 1540l147 201h205l-246 -201h-106z" />
    <glyph glyph-name="Eacute.sc" horiz-adv-x="1058" 
d="M940 1040l16 -282h-51l-90 194l-434 4v-368l231 6l64 158h53l-16 -201l16 -209h-53l-64 158l-231 6v-422l448 4l109 201h59l-57 -291l-639 4l-221 -4l-8 68l147 20v870l-147 19l8 65l221 -4zM508 1143l113 200h172l-193 -200h-92z" />
    <glyph glyph-name="Ebreve.002" horiz-adv-x="1280" 
d="M1151 1436l18 -361h-57l-113 266l-563 7v-560l303 9l82 215h62l-21 -248l21 -272h-62l-82 213l-303 8v-627l584 6l137 277h68l-74 -371l-797 6l-282 -6l-11 63l193 27v1258l-193 26l11 64l282 -6zM797.5 1644.5q52.5 40.5 97.5 104.5l43 -33q-12 -14 -49 -86.5
t-193 -134.5q-159 0 -221.5 95.5t-81.5 125.5l49 33q46 -65 95 -105t128 -40q80 0 132.5 40.5z" />
    <glyph glyph-name="Ebreve.sc" horiz-adv-x="1058" 
d="M940 1040l16 -282h-51l-90 194l-434 4v-368l231 6l64 158h53l-16 -201l16 -209h-53l-64 158l-231 6v-422l448 4l109 201h59l-57 -291l-639 4l-221 -4l-8 68l147 20v870l-147 19l8 65l221 -4zM578 1237q81 0 161 94l37 -39q-25 -58 -66.5 -95.5t-127.5 -68.5
q-160 0 -242 164l41 39q12 -12 50.5 -53t146.5 -41z" />
    <glyph glyph-name="Ecaron.002" horiz-adv-x="1280" 
d="M1151 1436l18 -361h-57l-113 266l-563 7v-560l303 9l82 215h62l-21 -248l21 -272h-62l-82 213l-303 8v-627l584 6l137 277h68l-74 -371l-797 6l-282 -6l-11 63l193 27v1258l-193 26l11 64l282 -6zM676 1628l20 -20l23 20l170 113h102l-213 -201h-162l-213 201h103z" />
    <glyph glyph-name="Ecaron.sc" horiz-adv-x="1058" 
d="M940 1040l16 -282h-51l-90 194l-434 4v-368l231 6l64 158h53l-16 -201l16 -209h-53l-64 158l-231 6v-422l448 4l109 201h59l-57 -291l-639 4l-221 -4l-8 68l147 20v870l-147 19l8 65l221 -4zM416 1343l129 -79l18 -31l19 31l129 79h90l-172 -200h-133l-170 200h90z" />
    <glyph glyph-name="Ecircumflex.002" horiz-adv-x="1280" 
d="M1151 1436l18 -361h-57l-113 266l-563 7v-560l303 9l82 215h62l-21 -248l21 -272h-62l-82 213l-303 8v-627l584 6l137 277h68l-74 -371l-797 6l-282 -6l-11 63l193 27v1258l-193 26l11 64l282 -6zM403 1540l213 201h162l213 -201h-102l-170 113l-23 20l-20 -20l-170 -113
h-103z" />
    <glyph glyph-name="Ecircumflex.sc" horiz-adv-x="1058" 
d="M940 1040l16 -282h-51l-90 194l-434 4v-368l231 6l64 158h53l-16 -201l16 -209h-53l-64 158l-231 6v-422l448 4l109 201h59l-57 -291l-639 4l-221 -4l-8 68l147 20v870l-147 19l8 65l221 -4zM344 1143l170 200h131l174 -200h-90l-129 80l-22 32l-17 -32l-127 -80h-90z
" />
    <glyph glyph-name="Edieresis.002" horiz-adv-x="1280" 
d="M1151 1436l18 -361h-57l-113 266l-563 7v-560l303 9l82 215h62l-21 -248l21 -272h-62l-82 213l-303 8v-627l584 6l137 277h68l-74 -371l-797 6l-282 -6l-11 63l193 27v1258l-193 26l11 64l282 -6zM846 1733l117 10l49 -10l8 -93l-19 -79l-114 -11l-49 11l-11 94z
M395 1733l117 10l49 -10l10 -93l-20 -79l-115 -11l-49 11l-8 94z" />
    <glyph glyph-name="Edieresis.sc" horiz-adv-x="1058" 
d="M940 1040l16 -282h-51l-90 194l-434 4v-368l231 6l64 158h53l-16 -201l16 -209h-53l-64 158l-231 6v-422l448 4l109 201h59l-57 -291l-639 4l-221 -4l-8 68l147 20v870l-147 19l8 65l221 -4zM694 1309l97 8l38 -8l9 -84l-17 -74l-92 -6l-39 6l-10 86zM342 1309l94 8
l39 -8l10 -84l-16 -74l-94 -6l-39 6l-8 86z" />
    <glyph glyph-name="Edotaccent.002" horiz-adv-x="1280" 
d="M1151 1436l18 -361h-57l-113 266l-563 7v-560l303 9l82 215h62l-21 -248l21 -272h-62l-82 213l-303 8v-627l584 6l137 277h68l-74 -371l-797 6l-282 -6l-11 63l193 27v1258l-193 26l11 64l282 -6zM598 1741l137 10l43 -10l8 -101l-18 -88l-137 -10l-41 10l-10 103z" />
    <glyph glyph-name="Edotaccent.sc" horiz-adv-x="1058" 
d="M940 1040l16 -282h-51l-90 194l-434 4v-368l231 6l64 158h53l-16 -201l16 -209h-53l-64 158l-231 6v-422l448 4l109 201h59l-57 -291l-639 4l-221 -4l-8 68l147 20v870l-147 19l8 65l221 -4zM498 1317l116 8l43 -10l9 -94l-19 -82l-115 -11l-40 11l-11 96z" />
    <glyph glyph-name="Egrave.002" horiz-adv-x="1280" 
d="M1151 1436l18 -361h-57l-113 266l-563 7v-560l303 9l82 215h62l-21 -248l21 -272h-62l-82 213l-303 8v-627l584 6l137 277h68l-74 -371l-797 6l-282 -6l-11 63l193 27v1258l-193 26l11 64l282 -6zM668 1540l-246 201h205l147 -201h-106z" />
    <glyph glyph-name="Egrave.sc" horiz-adv-x="1058" 
d="M940 1040l16 -282h-51l-90 194l-434 4v-368l231 6l64 158h53l-16 -201l16 -209h-53l-64 158l-231 6v-422l448 4l109 201h59l-57 -291l-639 4l-221 -4l-8 68l147 20v870l-147 19l8 65l221 -4zM528 1143l-194 200h174l110 -200h-90z" />
    <glyph glyph-name="Emacron.002" horiz-adv-x="1280" 
d="M1151 1436l18 -361h-57l-113 266l-563 7v-560l303 9l82 215h62l-21 -248l21 -272h-62l-82 213l-303 8v-627l584 6l137 277h68l-74 -371l-797 6l-282 -6l-11 63l193 27v1258l-193 26l11 64l282 -6zM399 1694h566v-103h-566v103z" />
    <glyph glyph-name="Emacron.sc" horiz-adv-x="1058" 
d="M940 1040l16 -282h-51l-90 194l-434 4v-368l231 6l64 158h53l-16 -201l16 -209h-53l-64 158l-231 6v-422l448 4l109 201h59l-57 -291l-639 4l-221 -4l-8 68l147 20v870l-147 19l8 65l221 -4zM346 1282h449v-102h-449v102z" />
    <glyph glyph-name="Eng.001" horiz-adv-x="1523" 
d="M872 -358v161h138l137 134l110 59h-71l-776 1153l-31 137v-1198l174 -27l-10 -63l-215 6l-256 -6l-11 63l193 27v1239l-184 45l10 64l199 -6l137 6l731 -1071l39 -113v1094l-182 26l10 64l223 -6l256 6l10 -64l-192 -26v-1350l-193 -354h-246z" />
    <glyph glyph-name="Eng.sc" horiz-adv-x="1267" 
d="M709 -348v139h116l107 162l57 43h-28l-613 795l-26 133v-838l141 -20l-10 -68l-172 4l-201 -4l-8 68l147 20v864l-139 25l8 65l152 -4l114 4l570 -678l32 -120v714l-137 19l6 65l176 -4l199 4l6 -65l-145 -19v-960l-152 -344h-200z" />
    <glyph glyph-name="Eogonek.001" horiz-adv-x="1280" 
d="M1122 -369q-272 0 -307 78t-35 129v23l234 139l-660 4l-282 -6l-11 63l193 27v1258l-193 26l11 64l282 -6l797 6l18 -361h-57l-113 266l-563 7v-560l303 9l82 215h62l-21 -248l21 -272h-62l-82 213l-303 8v-627l584 6l137 277h68l-74 -371l-117 2l-96 -178
q0 -74 52 -107.5t132 -33.5v-50z" />
    <glyph glyph-name="Eogonek.sc" horiz-adv-x="1058" 
d="M772 -203q0 -41 42 -70.5t108 -29.5v-62q-156 0 -221.5 37t-65.5 113v90l153 125l-487 2l-221 -4l-8 68l147 20v870l-147 19l8 65l221 -4l639 4l16 -282h-51l-90 194l-434 4v-368l231 6l64 158h53l-16 -201l16 -209h-53l-64 158l-231 6v-422l448 4l109 201h59l-57 -291
l-96 2l-72 -162v-41z" />
    <glyph glyph-name="Euro.sc" horiz-adv-x="1173" 
d="M1071 727h-80l-39 147q-79 84 -252 84q-106 0 -192 -75.5t-111 -212.5h516l-47 -99h-477v-43q0 -43 4 -61h424l-47 -96h-364q33 -117 120.5 -189.5t226.5 -72.5t195 27.5t74 35.5l33 -68q-108 -72 -324 -127q-429 0 -502 394h-116v96h108q-2 6 -2 9v42q0 37 2 53h-108v99
h120q35 168 160 259t330 134q221 0 348 -121v-215z" />
    <glyph glyph-name="Euro.tlf" 
d="M800 115q83 0 132 11t87 27.5t64.5 35t49.5 32.5l38 -78q-89 -62 -215.5 -109.5t-189.5 -64.5q-262 0 -421 143.5t-204 413.5h-151v105h141q-2 18 -2 21v64q0 60 4 87h-143v104h155q64 345 272 437t335 120q232 0 324.5 -64.5t117.5 -84.5v-268h-92l-49 190
q-53 61 -131 99t-173 38q-94 0 -157.5 -32.5t-146 -130t-113.5 -304.5h672l-54 -104h-631v-55q0 -59 7 -117h563l-53 -105h-492q65 -292 219 -351.5t237 -59.5z" />
    <glyph glyph-name="Euro.tlf.sc" 
d="M1114 727h-78l-39 147q-79 84 -252 84q-108 0 -193 -74.5t-110 -213.5h514l-47 -99h-475v-43q0 -43 4 -61h424l-47 -96h-364q35 -117 118 -189.5t213 -72.5t189 23.5t96 39.5l33 -68q-108 -72 -324 -127q-429 0 -502 394h-116v96h108q-4 6 -4 9v42q0 37 2 53h-106v99h121
q35 168 158.5 259t330.5 134q231 0 346 -121v-215z" />
    <glyph glyph-name="F.sc" horiz-adv-x="997" 
d="M80 -2l-8 68l147 20v870l-147 19l8 65l221 -4l639 4l16 -290h-51l-90 202l-434 4v-393l231 6l64 158h53l-16 -201l16 -207h-53l-64 158l-231 6v-397l192 -20l-6 -68l-266 4z" />
    <glyph glyph-name="G.sc" horiz-adv-x="1247" 
d="M649 -27q-235 0 -398 138.5t-163 386.5q0 247 153.5 383t448.5 186q175 0 270 -44t117 -60v-250h-78l-53 145q-29 47 -101.5 81t-176.5 34q-182 0 -293 -111.5t-111 -314.5t121.5 -340t319.5 -137q132 0 210 51v278l-145 21l8 72l217 -7l181 7l8 -72l-109 -21v-317
q-64 -45 -426 -109z" />
    <glyph glyph-name="Gbreve.002" horiz-adv-x="1519" 
d="M872 68q145 0 271 120v394l-185 26l11 62l266 -6l221 6l8 -62l-139 -26v-459q-37 -12 -101.5 -34.5t-190.5 -65t-238 -60.5q-302 0 -505.5 198.5t-203.5 539.5t197 530t540 239q220 0 348.5 -70.5t157.5 -94.5v-254h-90l-65 180q-164 143 -372 143q-239 0 -377 -167
t-138 -459q0 -127 41 -250t114.5 -218.5t179 -153.5t250.5 -58zM957 1642.5q49 38.5 100 106.5l43 -33q-12 -14 -49 -86.5t-193 -134.5q-158 0 -221.5 95.5t-81.5 125.5l49 33q47 -67 96 -106t128 -39q80 0 129 38.5z" />
    <glyph glyph-name="Gbreve.sc" horiz-adv-x="1247" 
d="M677 1239q73 0 116 33t65 59l39 -39q-17 -54 -55.5 -90.5t-141.5 -73.5q-161 0 -243 164l43 39q23 -27 63.5 -59.5t113.5 -32.5zM649 -27q-235 0 -398 138.5t-163 386.5q0 247 153.5 383t448.5 186q175 0 270 -44t117 -60v-250h-78l-53 145q-29 47 -101.5 81t-176.5 34
q-182 0 -293 -111.5t-111 -314.5t121.5 -340t319.5 -137q132 0 210 51v278l-145 21l8 72l217 -7l181 7l8 -72l-109 -21v-317q-64 -45 -426 -109z" />
    <glyph glyph-name="Gcircumflex.002" horiz-adv-x="1519" 
d="M872 68q145 0 271 120v394l-185 26l11 62l266 -6l221 6l8 -62l-139 -26v-459q-37 -12 -101.5 -34.5t-190.5 -65t-238 -60.5q-302 0 -505.5 198.5t-203.5 539.5t197 530t540 239q220 0 348.5 -70.5t157.5 -94.5v-254h-90l-65 180q-164 143 -372 143q-239 0 -377 -167
t-138 -459q0 -127 41 -250t114.5 -218.5t179 -153.5t250.5 -58zM543 1540l213 201h162l212 -201h-102l-170 113l-22 20l-21 -20l-170 -113h-102z" />
    <glyph glyph-name="Gcircumflex.sc" horiz-adv-x="1247" 
d="M449 1143l172 200h131l172 -200h-90l-127 80l-23 32l-16 -32l-129 -80h-90zM649 -27q-235 0 -398 138.5t-163 386.5q0 247 153.5 383t448.5 186q175 0 270 -44t117 -60v-250h-78l-53 145q-29 47 -101.5 81t-176.5 34q-182 0 -293 -111.5t-111 -314.5t121.5 -340
t319.5 -137q132 0 210 51v278l-145 21l8 72l217 -7l181 7l8 -72l-109 -21v-317q-64 -45 -426 -109z" />
    <glyph glyph-name="Gcommaaccent.001" horiz-adv-x="1519" 
d="M872 68q145 0 271 120v394l-185 26l11 62l266 -6l221 6l8 -62l-139 -26v-459q-37 -12 -101.5 -34.5t-190.5 -65t-238 -60.5q-302 0 -505.5 198.5t-203.5 539.5t197 530t540 239q220 0 348.5 -70.5t157.5 -94.5v-254h-90l-65 180q-164 143 -372 143q-239 0 -377 -167
t-138 -459q0 -127 41 -250t114.5 -218.5t179 -153.5t250.5 -58zM694 -94h189v-148l-123 -125l-58 27l74 102l-82 48v96z" />
    <glyph glyph-name="Gcommaaccent.sc" horiz-adv-x="1247" 
d="M569 -74h156v-121l-98 -178l-58 15l37 172l-37 51v61zM649 -27q-235 0 -398 138.5t-163 386.5q0 247 153.5 383t448.5 186q175 0 270 -44t117 -60v-250h-78l-53 145q-29 47 -101.5 81t-176.5 34q-182 0 -293 -111.5t-111 -314.5t121.5 -340t319.5 -137q132 0 210 51v278
l-145 21l8 72l217 -7l181 7l8 -72l-109 -21v-317q-64 -45 -426 -109z" />
    <glyph glyph-name="Gdotaccent.002" horiz-adv-x="1519" 
d="M872 68q145 0 271 120v394l-185 26l11 62l266 -6l221 6l8 -62l-139 -26v-459q-37 -12 -101.5 -34.5t-190.5 -65t-238 -60.5q-302 0 -505.5 198.5t-203.5 539.5t197 530t540 239q220 0 348.5 -70.5t157.5 -94.5v-254h-90l-65 180q-164 143 -372 143q-239 0 -377 -167
t-138 -459q0 -127 41 -250t114.5 -218.5t179 -153.5t250.5 -58zM764 1741l137 10l43 -10l8 -101l-18 -88l-137 -10l-41 10l-11 103z" />
    <glyph glyph-name="Gdotaccent.sc" horiz-adv-x="1247" 
d="M614 1325l119 8l43 -10l6 -94l-16 -82l-115 -8l-41 8l-10 96zM649 -27q-235 0 -398 138.5t-163 386.5q0 247 153.5 383t448.5 186q175 0 270 -44t117 -60v-250h-78l-53 145q-29 47 -101.5 81t-176.5 34q-182 0 -293 -111.5t-111 -314.5t121.5 -340t319.5 -137
q132 0 210 51v278l-145 21l8 72l217 -7l181 7l8 -72l-109 -21v-317q-64 -45 -426 -109z" />
    <glyph glyph-name="H.sc" horiz-adv-x="1277" 
d="M381 586h524v370l-147 19l8 65l221 -4l211 4l8 -65l-139 -19v-870l139 -20l-8 -68l-211 4l-221 -4l-8 68l147 20v408h-524v-408l141 -20l-8 -68l-213 4l-221 -4l-8 68l147 20v870l-147 19l8 65l221 -4l213 4l8 -65l-141 -19v-370z" />
    <glyph glyph-name="Hbar.sc" horiz-adv-x="1277" 
d="M905 586v112h-524v-112h524zM381 766h524v190l-147 19l8 65l221 -4l211 4l8 -65l-139 -19v-870l139 -20l-8 -68l-211 4l-221 -4l-8 68l147 20v408h-524v-408l141 -20l-8 -68l-213 4l-221 -4l-8 68l147 20v870l-147 19l8 65l221 -4l213 4l8 -65l-141 -19v-190z" />
    <glyph glyph-name="Hcircumflex.002" horiz-adv-x="1548" 
d="M436 791h688v555l-196 26l10 64l279 -6l260 6l10 -64l-180 -26v-1258l180 -27l-10 -63l-260 6l-279 -6l-10 63l196 27v608h-688v-608l185 -27l-11 -63l-264 6l-274 -6l-11 63l193 27v1258l-193 26l11 64l274 -6l264 6l11 -64l-185 -26v-555zM469 1540l215 201h162
l213 -201h-103l-170 113l-22 20l-23 -20l-170 -113h-102z" />
    <glyph glyph-name="Hcircumflex.sc" horiz-adv-x="1277" 
d="M381 586h524v370l-147 19l8 65l221 -4l211 4l8 -65l-139 -19v-870l139 -20l-8 -68l-211 4l-221 -4l-8 68l147 20v408h-524v-408l141 -20l-8 -68l-213 4l-221 -4l-8 68l147 20v870l-147 19l8 65l221 -4l213 4l8 -65l-141 -19v-370zM403 1143l172 200h132l172 -200h-91
l-126 80l-23 32l-16 -32l-129 -80h-91z" />
    <glyph glyph-name="I.sc" horiz-adv-x="602" 
d="M301 2l-221 -4l-8 68l149 20v870l-149 19l8 65l221 -4l221 4l8 -65l-147 -19v-870l147 -20l-8 -68z" />
    <glyph glyph-name="IJ.sc" horiz-adv-x="1011" 
d="M301 4l-221 -6l-8 68l149 20v870l-149 19l8 65l221 -4l162 4l8 -65l-88 -19v-870l141 -20l-8 -68zM811 201q0 -96 -10 -161t-53 -116l-162 -182h-144v184h166l15 31q26 59 26 195v804l-96 19l8 65l170 -2l211 2l8 -65l-139 -19v-755z" />
    <glyph glyph-name="Iacute.002" horiz-adv-x="690" 
d="M346 4l-274 -6l-11 65l193 27v1256l-193 26l11 64l274 -6l272 6l11 -64l-193 -26v-1256l193 -27l-11 -65zM281 1540l149 201h205l-248 -201h-106z" />
    <glyph glyph-name="Iacute.sc" horiz-adv-x="602" 
d="M301 2l-221 -4l-8 68l149 20v870l-149 19l8 65l221 -4l221 4l8 -65l-147 -19v-870l147 -20l-8 -68zM254 1143l111 200h174l-193 -200h-92z" />
    <glyph glyph-name="Ibreve.002" horiz-adv-x="690" 
d="M346 4l-274 -6l-11 65l193 27v1256l-193 26l11 64l274 -6l272 6l11 -64l-193 -26v-1256l193 -27l-11 -65zM470.5 1644.5q51.5 40.5 96.5 104.5l43 -33q-12 -14 -49 -86t-192 -135q-160 0 -222.5 95.5t-80.5 125.5l49 33q47 -67 95 -106t128 -39q81 0 132.5 40.5z" />
    <glyph glyph-name="Ibreve.sc" horiz-adv-x="602" 
d="M301 2l-221 -4l-8 68l149 20v870l-149 19l8 65l221 -4l221 4l8 -65l-147 -19v-870l147 -20l-8 -68zM312 1237q79 0 165 94l37 -39q-22 -54 -59.5 -90t-135.5 -74q-161 0 -243 164l41 39q12 -12 50.5 -53t144.5 -41z" />
    <glyph glyph-name="Icircumflex.002" horiz-adv-x="690" 
d="M346 4l-274 -6l-11 65l193 27v1256l-193 26l11 64l274 -6l272 6l11 -64l-193 -26v-1256l193 -27l-11 -65zM49 1540l213 201h162l215 -201h-102l-170 113l-25 20l-20 -20l-170 -113h-103z" />
    <glyph glyph-name="Icircumflex.sc" horiz-adv-x="602" 
d="M303 2l-221 -4l-8 68l147 20v870l-147 19l8 65l221 -4l219 4l8 -65l-147 -19v-870l147 -20l-8 -68zM63 1143l173 200h133l170 -200h-90l-127 80l-21 32l-18 -32l-129 -80h-91z" />
    <glyph glyph-name="Idieresis.002" horiz-adv-x="690" 
d="M346 4l-274 -6l-11 65l193 27v1256l-193 26l11 64l274 -6l272 6l11 -64l-193 -26v-1256l193 -27l-11 -65zM506 1733l117 10l49 -10l8 -93l-18 -79l-115 -11l-49 11l-11 94zM39 1733l117 10l49 -10l8 -93l-18 -79l-117 -11l-47 11l-11 94z" />
    <glyph glyph-name="Idieresis.sc" horiz-adv-x="602" 
d="M303 2l-221 -4l-8 68l147 20v870l-147 19l8 65l221 -4l219 4l8 -65l-147 -19v-870l147 -20l-8 -68zM397 1309l95 8l38 -8l11 -84l-19 -74l-92 -6l-39 6l-6 86zM74 1309l94 8l41 -8l8 -84l-16 -74l-95 -6l-38 6l-7 86z" />
    <glyph glyph-name="Idotaccent.002" horiz-adv-x="690" 
d="M346 4l-274 -6l-11 65l193 27v1256l-193 26l11 64l274 -6l272 6l11 -64l-193 -26v-1256l193 -27l-11 -65zM252 1741l137 10l43 -10l8 -101l-18 -88l-137 -10l-41 10l-11 103z" />
    <glyph glyph-name="Idotaccent.sc" horiz-adv-x="602" 
d="M301 2l-221 -4l-8 68l149 20v870l-149 19l8 65l221 -4l221 4l8 -65l-147 -19v-870l147 -20l-8 -68zM221 1325l119 8l41 -10l8 -94l-16 -82l-117 -8l-41 8l-8 96z" />
    <glyph glyph-name="Igrave.002" horiz-adv-x="690" 
d="M346 4l-274 -6l-11 65l193 27v1256l-193 26l11 64l274 -6l272 6l11 -64l-193 -26v-1256l193 -27l-11 -65zM324 1540l-248 201h205l149 -201h-106z" />
    <glyph glyph-name="Igrave.sc" horiz-adv-x="602" 
d="M301 2l-221 -4l-8 68l149 20v870l-149 19l8 65l221 -4l221 4l8 -65l-147 -19v-870l147 -20l-8 -68zM279 1143l-195 200h174l111 -200h-90z" />
    <glyph glyph-name="Imacron.002" horiz-adv-x="690" 
d="M346 4l-274 -6l-11 65l193 27v1256l-193 26l11 64l274 -6l272 6l11 -64l-193 -26v-1256l193 -27l-11 -65zM61 1694h566v-103h-566v103z" />
    <glyph glyph-name="Imacron.sc" horiz-adv-x="602" 
d="M301 2l-221 -4l-8 68l149 20v870l-149 19l8 65l221 -4l221 4l8 -65l-147 -19v-870l147 -20l-8 -68zM74 1282h452v-102h-452v102z" />
    <glyph glyph-name="Iogonek.001" horiz-adv-x="690" 
d="M463 -369q-190 0 -266 52.5t-76 154.5v23l211 141l-260 -4l-11 65l193 27v1256l-193 26l11 64l274 -6l260 6l10 -64l-180 -26v-1256l180 -27l-10 -65l-229 4l-101 -168q0 -113 76 -133t111 -20v-50z" />
    <glyph glyph-name="Iogonek.sc" horiz-adv-x="602" 
d="M254 -203q0 -41 42 -70.5t107 -29.5v-62q-156 0 -222 37t-66 113v84l155 133l-190 -4l-8 68l149 20v870l-149 19l8 67l221 -4l211 4l8 -67l-137 -19v-870l137 -20l-8 -68l-184 4l-74 -164v-41z" />
    <glyph glyph-name="Itilde.002" horiz-adv-x="690" 
d="M350 4l-274 -6l-10 65l192 27v1256l-192 26l10 64l274 -6l273 6l10 -64l-193 -26v-1256l193 -27l-10 -65zM86 1694l154 37l303 -82l78 90h45l-48 -150l-153 -39l-303 82l-78 -90h-45z" />
    <glyph glyph-name="Itilde.sc" horiz-adv-x="602" 
d="M303 2l-223 -4l-8 68l149 20v870l-149 19l8 65l223 -4l219 4l8 -65l-147 -19v-870l147 -20l-8 -68zM90 1303l121 32l248 -73l59 75h39l-39 -163l-121 -29l-247 76l-58 -76h-39z" />
    <glyph glyph-name="J.sc" horiz-adv-x="600" 
d="M401 201q0 -96 -11 -161t-52 -116l-164 -182h-143v172h166l14 31q29 66 29 194v817l-179 19l9 65l252 -2l208 2l9 -65l-138 -19v-755z" />
    <glyph glyph-name="Jcircumflex.002" horiz-adv-x="675" 
d="M442 178q0 -59 2 -102t-2.5 -92.5t-48.5 -100.5l-217 -241h-178v163h209l18 43q25 56 30 120.5t5 226.5v1151l-225 26l10 64l307 -6l262 6l11 -64l-183 -26v-1168zM37 1540l213 201h162l213 -201h-103l-170 113l-22 20l-21 -20l-170 -113h-102z" />
    <glyph glyph-name="Jcircumflex.sc" horiz-adv-x="600" 
d="M68 1143l170 200h131l174 -200h-90l-129 80l-23 32l-18 -32l-129 -80h-86zM401 201q0 -96 -11 -161t-52 -116l-164 -182h-143v172h166l14 31q29 66 29 194v817l-179 19l9 65l252 -2l208 2l9 -65l-138 -19v-755z" />
    <glyph glyph-name="K.sc" horiz-adv-x="1181" 
d="M426 582l448 374l-116 19l8 65l168 -4l160 4l8 -65l-127 -23l-453 -385l37 -28l496 -455l86 -18l-8 -68l-138 4l-118 -4l-471 471l-25 57v-440l123 -20l-8 -68l-195 4l-221 -4l-8 68l147 20v870l-147 19l8 65l221 -4l195 4l8 -65l-123 -19v-397z" />
    <glyph glyph-name="Kcommaaccent.001" horiz-adv-x="1417" 
d="M492 793l575 553l-149 26l10 64l213 -6l192 6l10 -64l-159 -33l-576 -567l39 -27l639 -665l109 -19l-11 -63l-174 6l-135 -6l-610 674l-29 53v-637l158 -27l-10 -63l-238 6l-274 -6l-11 63l193 27v1258l-193 26l11 64l274 -6l238 6l10 -64l-158 -26v-584zM584 -45h188
v-148l-123 -161l-57 26l61 140l-69 47v96z" />
    <glyph glyph-name="Kcommaaccent.sc" horiz-adv-x="1181" 
d="M426 582l448 374l-116 19l8 65l168 -4l160 4l8 -65l-127 -23l-453 -385l37 -28l496 -455l86 -18l-8 -68l-138 4l-118 -4l-471 471l-25 57v-440l123 -20l-8 -68l-195 4l-221 -4l-8 68l147 20v870l-147 19l8 65l221 -4l195 4l8 -65l-123 -19v-397zM492 -74h157v-121
l-98 -178l-59 15l38 172l-38 51v61z" />
    <glyph glyph-name="L.sc" horiz-adv-x="987" 
d="M301 4l-221 -6l-8 68l147 20v870l-147 19l8 65l221 -4l219 4l6 -65l-145 -19v-872l407 4l107 209h61l-57 -299z" />
    <glyph glyph-name="Lacute.002" horiz-adv-x="1196" 
d="M354 4l-282 -6l-11 63l193 27v1258l-193 26l11 64l282 -6l264 6l11 -64l-193 -26v-1260l531 6l129 273h71l-69 -367zM268 1540l150 201h205l-248 -201h-107z" />
    <glyph glyph-name="Lacute.sc" horiz-adv-x="987" 
d="M301 4l-221 -6l-8 68l147 20v870l-147 19l8 65l221 -4l219 4l6 -65l-145 -19v-872l407 4l107 209h61l-57 -299zM262 1143l111 200h174l-193 -200h-92z" />
    <glyph glyph-name="Lcaron.sc" horiz-adv-x="997" 
d="M301 4l-221 -6l-8 68l147 20v870l-147 19l8 65l221 -4l219 4l6 -65l-145 -19v-872l407 4l107 209h61l-57 -299zM791 862l-7 99l7 83l120 11l47 -11l9 -98l-9 -84l-104 -237l-59 28q61 152 61 201z" />
    <glyph glyph-name="Lcommaaccent.001" horiz-adv-x="1196" 
d="M354 4l-282 -6l-11 63l193 27v1258l-193 26l11 64l282 -6l264 6l11 -64l-193 -26v-1260l531 6l129 273h71l-69 -367zM537 -57h188v-148l-125 -162l-55 27l61 139l-69 47v97z" />
    <glyph glyph-name="Lcommaaccent.sc" horiz-adv-x="987" 
d="M301 4l-221 -6l-8 68l147 20v870l-147 19l8 65l221 -4l219 4l6 -65l-145 -19v-872l407 4l107 209h61l-57 -299zM451 -74h157v-121l-98 -178l-59 15l38 172l-38 51v61z" />
    <glyph glyph-name="Ldot.sc" horiz-adv-x="987" 
d="M301 4l-221 -6l-8 68l147 20v870l-147 19l8 65l221 -4l219 4l6 -65l-145 -19v-872l407 4l107 209h61l-57 -299zM532 690l115 10l43 -10l8 -98l-18 -84l-111 -10l-45 10l-6 98z" />
    <glyph glyph-name="Lslash.sc" horiz-adv-x="987" 
d="M301 4l-221 -6l-8 68l147 20v393l-145 -71v98l145 72v378l-147 19l8 65l221 -4l219 4l6 -65l-145 -19v-299l145 74v-96l-145 -74v-477l407 4l107 209h61l-57 -299z" />
    <glyph glyph-name="M.sc" horiz-adv-x="1560" 
d="M1159 1040l176 -4l146 4l8 -65l-139 -19v-870l131 -20l-8 -68l-191 4l-235 -4l-9 68l150 20v698l20 177l-413 -963h-95l-327 772l-60 180v-864l144 -20l-13 -68l-172 4l-184 -4l-8 68l131 20v866l-139 23l8 65l166 -4l172 4l342 -743l14 -121z" />
    <glyph glyph-name="N.sc" horiz-adv-x="1267" 
d="M1061 -4h-100l-613 795l-26 133v-838l141 -20l-10 -68l-172 4l-201 -4l-8 68l147 20v864l-139 25l8 65l152 -4l114 4l570 -678l32 -120v714l-137 19l6 65l176 -4l199 4l6 -65l-145 -19v-960z" />
    <glyph glyph-name="Nacute.002" horiz-adv-x="1523" 
d="M1311 -4h-121l-780 1153l-31 125v-1186l182 -27l-12 -63l-217 6l-260 -6l-11 63l193 27v1239l-182 45l10 64l197 -6l133 6l735 -1071l39 -103v1084l-180 26l10 64l219 -6l258 6l10 -64l-192 -26v-1350zM690 1540l150 201h204l-247 -201h-107z" />
    <glyph glyph-name="Nacute.sc" horiz-adv-x="1267" 
d="M573 1143l111 200h172l-192 -200h-91zM1061 -4h-100l-613 795l-26 133v-838l141 -20l-10 -68l-172 4l-201 -4l-8 68l147 20v864l-139 25l8 65l152 -4l114 4l570 -678l32 -120v714l-137 19l6 65l176 -4l199 4l6 -65l-145 -19v-960z" />
    <glyph glyph-name="Ncaron.002" horiz-adv-x="1523" 
d="M1311 -4h-121l-780 1153l-31 125v-1186l182 -27l-12 -63l-217 6l-260 -6l-11 63l193 27v1239l-182 45l10 64l197 -6l133 6l735 -1071l39 -103v1084l-180 26l10 64l219 -6l258 6l10 -64l-192 -26v-1350zM741 1628l21 -20l22 20l170 113h103l-213 -201h-162l-213 201h102z
" />
    <glyph glyph-name="Ncaron.sc" horiz-adv-x="1267" 
d="M477 1343l129 -79l19 -31l22 31l129 79h86l-170 -200h-131l-174 200h90zM1061 -4h-100l-613 795l-26 133v-838l141 -20l-10 -68l-172 4l-201 -4l-8 68l147 20v864l-139 25l8 65l152 -4l114 4l570 -678l32 -120v714l-137 19l6 65l176 -4l199 4l6 -65l-145 -19v-960z" />
    <glyph glyph-name="Ncommaaccent.001" horiz-adv-x="1523" 
d="M1311 -4h-121l-780 1153l-31 125v-1186l182 -27l-12 -63l-217 6l-260 -6l-11 63l193 27v1239l-182 45l10 64l197 -6l133 6l735 -1071l39 -103v1084l-180 26l10 64l219 -6l258 6l10 -64l-192 -26v-1350zM680 -45h188v-148l-123 -161l-57 26l62 140l-70 47v96z" />
    <glyph glyph-name="Ncommaaccent.sc" horiz-adv-x="1267" 
d="M561 -74h160v-121l-100 -178l-60 15l39 172l-39 51v61zM1061 -4h-100l-613 795l-26 133v-838l141 -20l-10 -68l-172 4l-201 -4l-8 68l147 20v864l-139 25l8 65l152 -4l114 4l570 -678l32 -120v714l-137 19l6 65l176 -4l199 4l6 -65l-145 -19v-960z" />
    <glyph glyph-name="Ntilde.002" horiz-adv-x="1523" 
d="M1311 -4h-121l-780 1153l-31 125v-1186l182 -27l-12 -63l-217 6l-260 -6l-11 63l193 27v1239l-182 45l10 64l197 -6l133 6l735 -1071l39 -103v1084l-180 26l10 64l219 -6l258 6l10 -64l-192 -26v-1350zM520 1694l154 37l305 -82l76 90h45l-45 -150l-156 -39l-303 82
l-78 -90h-45z" />
    <glyph glyph-name="Ntilde.sc" horiz-adv-x="1267" 
d="M434 1303l121 32l246 -73l59 75h39l-37 -163l-123 -29l-245 76l-60 -76h-39zM1061 -4h-100l-613 795l-26 133v-838l141 -20l-10 -68l-172 4l-201 -4l-8 68l147 20v864l-139 25l8 65l152 -4l114 4l570 -678l32 -120v714l-137 19l6 65l176 -4l199 4l6 -65l-145 -19v-960z
" />
    <glyph glyph-name="O.sc" horiz-adv-x="1300" 
d="M1071 163.5q-141 -136.5 -436 -190.5q-242 0 -394.5 149t-152.5 385q0 235 140.5 370t437.5 190q240 0 393 -147.5t153 -383.5t-141 -372.5zM364.5 215.5q100.5 -145.5 309.5 -145.5q178 0 268 118t90 303t-99 331.5t-308 146.5q-180 0 -270.5 -118.5t-90.5 -303.5
q0 -186 100.5 -331.5z" />
    <glyph glyph-name="OE.sc" horiz-adv-x="1585" 
d="M217 870q129 129 449 191l206 -23l605 4l14 -272h-51l-90 182l-408 4v-368l195 6l65 158h55l-16 -201l16 -209h-55l-65 158l-195 6v-422l414 4l110 191h58l-56 -281l-606 4l-227 -25q-244 0 -395.5 148t-151.5 382t129 363zM386.5 208.5q120.5 -134.5 297.5 -134.5l96 10
v868l-164 17q-168 0 -259 -121t-91 -313t120.5 -326.5z" />
    <glyph glyph-name="Oacute.002" horiz-adv-x="1579" 
d="M287 759q0 -120 27.5 -241t91 -221t166 -164.5t237.5 -64.5q246 0 364.5 173t118.5 439t-90 410.5t-191.5 210t-237.5 65.5t-226 -49t-147.5 -133t-85 -194.5t-27.5 -230.5zM86 699q0 327 178 519.5t545 251.5q300 0 492 -205t192 -531q0 -658 -723 -771
q-298 0 -491 204.5t-193 531.5zM680 1540l149 201h205l-248 -201h-106z" />
    <glyph glyph-name="Oacute.sc" horiz-adv-x="1300" 
d="M592 1143l113 200h169l-192 -200h-90zM364.5 215.5q100.5 -145.5 309.5 -145.5q178 0 268 118t90 303t-99 331.5t-308 146.5q-180 0 -270.5 -118.5t-90.5 -303.5q0 -186 100.5 -331.5zM1071 163.5q-141 -136.5 -436 -190.5q-242 0 -394.5 149t-152.5 385q0 235 140.5 370
t437.5 190q240 0 393 -147.5t153 -383.5t-141 -372.5z" />
    <glyph glyph-name="Obreve.002" horiz-adv-x="1579" 
d="M287 759q0 -120 27.5 -241t91 -221t166 -164.5t237.5 -64.5q246 0 364.5 173t118.5 439t-90 410.5t-191.5 210t-237.5 65.5t-226 -49t-147.5 -133t-85 -194.5t-27.5 -230.5zM86 699q0 327 178 519.5t545 251.5q300 0 492 -205t192 -531q0 -658 -723 -771
q-298 0 -491 204.5t-193 531.5zM959.5 1733q49.5 33 97.5 88l43 -37q-12 -16 -48.5 -92t-193.5 -138q-157 0 -221 98.5t-82 131.5l51 37q52 -59 95.5 -90t126.5 -31q82 0 131.5 33z" />
    <glyph glyph-name="Obreve.sc" horiz-adv-x="1300" 
d="M677 1243q73 0 116 32t65 56l37 -39q-25 -58 -67 -96t-128 -68q-159 0 -241 164l41 39q23 -25 63.5 -56.5t113.5 -31.5zM1071 163.5q-141 -136.5 -436 -190.5q-242 0 -394.5 149t-152.5 385q0 235 140.5 370t437.5 190q240 0 393 -147.5t153 -383.5t-141 -372.5z
M364.5 215.5q100.5 -145.5 309.5 -145.5q178 0 268 118t90 303t-99 331.5t-308 146.5q-180 0 -270.5 -118.5t-90.5 -303.5q0 -186 100.5 -331.5z" />
    <glyph glyph-name="Ocircumflex.002" horiz-adv-x="1579" 
d="M287 759q0 -120 27.5 -241t91 -221t166 -164.5t237.5 -64.5q246 0 364.5 173t118.5 439t-90 410.5t-191.5 210t-237.5 65.5t-226 -49t-147.5 -133t-85 -194.5t-27.5 -230.5zM86 699q0 327 178 519.5t545 251.5q300 0 492 -205t192 -531q0 -658 -723 -771
q-298 0 -491 204.5t-193 531.5zM512 1540l213 201h162l213 -201h-103l-170 113l-22 20l-21 -20l-170 -113h-102z" />
    <glyph glyph-name="Ocircumflex.sc" horiz-adv-x="1300" 
d="M426 1143l172 200h131l172 -200h-90l-129 80l-18 32l-21 -32l-127 -80h-90zM364.5 215.5q100.5 -145.5 309.5 -145.5q178 0 268 118t90 303t-99 331.5t-308 146.5q-180 0 -270.5 -118.5t-90.5 -303.5q0 -186 100.5 -331.5zM1071 163.5q-141 -136.5 -436 -190.5
q-242 0 -394.5 149t-152.5 385q0 235 140.5 370t437.5 190q240 0 393 -147.5t153 -383.5t-141 -372.5z" />
    <glyph glyph-name="Odieresis.002" horiz-adv-x="1579" 
d="M287 759q0 -120 27.5 -241t91 -221t166 -164.5t237.5 -64.5q246 0 364.5 173t118.5 439t-90 410.5t-191.5 210t-237.5 65.5t-226 -49t-147.5 -133t-85 -194.5t-27.5 -230.5zM86 699q0 327 178 519.5t545 251.5q300 0 492 -205t192 -531q0 -658 -723 -771
q-298 0 -491 204.5t-193 531.5zM952 1733l119 10l47 -10l10 -93l-20 -79l-115 -11l-49 11l-8 94zM504 1733l117 10l49 -10l8 -93l-19 -79l-114 -11l-49 11l-11 94z" />
    <glyph glyph-name="Odieresis.sc" horiz-adv-x="1300" 
d="M774 1309l96 8l39 -8l9 -84l-17 -74l-92 -6l-39 6l-10 86zM422 1309l94 8l39 -8l8 -84l-14 -74l-94 -6l-39 6l-10 86zM364.5 215.5q100.5 -145.5 309.5 -145.5q178 0 268 118t90 303t-99 331.5t-308 146.5q-180 0 -270.5 -118.5t-90.5 -303.5q0 -186 100.5 -331.5z
M1071 163.5q-141 -136.5 -436 -190.5q-242 0 -394.5 149t-152.5 385q0 235 140.5 370t437.5 190q240 0 393 -147.5t153 -383.5t-141 -372.5z" />
    <glyph glyph-name="Ograve.002" horiz-adv-x="1579" 
d="M287 759q0 -120 27.5 -241t91 -221t166 -164.5t237.5 -64.5q246 0 364.5 173t118.5 439t-90 410.5t-191.5 210t-237.5 65.5t-226 -49t-147.5 -133t-85 -194.5t-27.5 -230.5zM86 699q0 327 178 519.5t545 251.5q300 0 492 -205t192 -531q0 -658 -723 -771
q-298 0 -491 204.5t-193 531.5zM766 1581l-246 283h205l147 -283h-106z" />
    <glyph glyph-name="Ograve.sc" horiz-adv-x="1300" 
d="M631 1143l-193 200h174l111 -200h-92zM1071 163.5q-141 -136.5 -436 -190.5q-242 0 -394.5 149t-152.5 385q0 235 140.5 370t437.5 190q240 0 393 -147.5t153 -383.5t-141 -372.5zM364.5 215.5q100.5 -145.5 309.5 -145.5q178 0 268 118t90 303t-99 331.5t-308 146.5
q-180 0 -270.5 -118.5t-90.5 -303.5q0 -186 100.5 -331.5z" />
    <glyph glyph-name="Ohungarumlaut.002" horiz-adv-x="1579" 
d="M287 759q0 -120 27.5 -241t91 -221t166 -164.5t237.5 -64.5q246 0 364.5 173t118.5 439t-90 410.5t-191.5 210t-237.5 65.5t-226 -49t-147.5 -133t-85 -194.5t-27.5 -230.5zM86 699q0 327 178 519.5t545 251.5q300 0 492 -205t192 -531q0 -658 -723 -771
q-298 0 -491 204.5t-193 531.5zM891 1540l149 201h205l-248 -201h-106zM578 1540l147 201h205l-246 -201h-106z" />
    <glyph glyph-name="Ohungarumlaut.sc" horiz-adv-x="1300" 
d="M750 1143l112 200h172l-192 -200h-92zM494 1143l112 200h172l-192 -200h-92zM1071 163.5q-141 -136.5 -436 -190.5q-242 0 -394.5 149t-152.5 385q0 235 140.5 370t437.5 190q240 0 393 -147.5t153 -383.5t-141 -372.5zM364.5 215.5q100.5 -145.5 309.5 -145.5
q178 0 268 118t90 303t-99 331.5t-308 146.5q-180 0 -270.5 -118.5t-90.5 -303.5q0 -186 100.5 -331.5z" />
    <glyph glyph-name="Omacron.002" horiz-adv-x="1579" 
d="M287 759q0 -120 27.5 -241t91 -221t166 -164.5t237.5 -64.5q246 0 364.5 173t118.5 439t-90 410.5t-191.5 210t-237.5 65.5t-226 -49t-147.5 -133t-85 -194.5t-27.5 -230.5zM86 699q0 327 178 519.5t545 251.5q300 0 492 -205t192 -531q0 -658 -723 -771
q-298 0 -491 204.5t-193 531.5zM510 1694h565v-103h-565v103z" />
    <glyph glyph-name="Omacron.sc" horiz-adv-x="1300" 
d="M428 1282h451v-102h-451v102zM364.5 215.5q100.5 -145.5 309.5 -145.5q178 0 268 118t90 303t-99 331.5t-308 146.5q-180 0 -270.5 -118.5t-90.5 -303.5q0 -186 100.5 -331.5zM1071 163.5q-141 -136.5 -436 -190.5q-242 0 -394.5 149t-152.5 385q0 235 140.5 370
t437.5 190q240 0 393 -147.5t153 -383.5t-141 -372.5z" />
    <glyph glyph-name="Oslash.sc" horiz-adv-x="1300" 
d="M401 172q102 -102 276 -102t264.5 118t90.5 305t-94 320zM895 864q-105 105 -277 105t-263 -118.5t-91 -306.5t92 -319zM88 500q0 242 140.5 377t437.5 190q185 0 321 -90l74 86h88l-107 -127q170 -153 170 -395t-141 -378t-436 -190q-186 0 -324 90l-71 -86h-90l108 129
q-170 152 -170 394z" />
    <glyph glyph-name="Oslashacute.002" horiz-adv-x="1579" 
d="M678 1540l147 201h205l-246 -201h-106zM465 219q136 -151 363 -151t345.5 173t118.5 441t-125 463zM1116 1212q-139 154 -365 154q-227 0 -345.5 -173t-118.5 -446t125 -460zM1493 745q0 -338 -179 -531.5t-544 -250.5q-225 0 -403 125l-91 -119h-106l131 174
q-102 98 -158.5 237.5t-56.5 307.5q0 338 178 530.5t545 251.5q230 0 405 -129l93 123h102l-133 -174q104 -98 160.5 -238.5t56.5 -306.5z" />
    <glyph glyph-name="Oslashacute.sc" horiz-adv-x="1300" 
d="M592 1143l113 200h169l-192 -200h-90zM401 172q102 -102 276 -102t264.5 118t90.5 305t-94 320zM895 864q-105 105 -277 105t-263 -118.5t-91 -306.5t92 -319zM88 500q0 242 140.5 377t437.5 190q185 0 321 -90l74 86h88l-107 -127q170 -153 170 -395t-141 -378
t-436 -190q-186 0 -324 90l-71 -86h-90l108 129q-170 152 -170 394z" />
    <glyph glyph-name="Otilde.002" horiz-adv-x="1579" 
d="M287 759q0 -120 27.5 -241t91 -221t166 -164.5t237.5 -64.5q246 0 364.5 173t118.5 439t-90 410.5t-191.5 210t-237.5 65.5t-226 -49t-147.5 -133t-85 -194.5t-27.5 -230.5zM86 699q0 327 178 519.5t545 251.5q300 0 492 -205t192 -531q0 -658 -723 -771
q-298 0 -491 204.5t-193 531.5zM555 1694l154 37l303 -82l78 90h45l-48 -150l-153 -39l-303 82l-78 -90h-45z" />
    <glyph glyph-name="Otilde.sc" horiz-adv-x="1300" 
d="M471 1303l121 32l250 -73l57 75h39l-39 -163l-119 -29l-250 76l-59 -76h-39zM1071 163.5q-141 -136.5 -436 -190.5q-242 0 -394.5 149t-152.5 385q0 235 140.5 370t437.5 190q240 0 393 -147.5t153 -383.5t-141 -372.5zM364.5 215.5q100.5 -145.5 309.5 -145.5
q178 0 268 118t90 303t-99 331.5t-308 146.5q-180 0 -270.5 -118.5t-90.5 -303.5q0 -186 100.5 -331.5z" />
    <glyph glyph-name="P.sc" horiz-adv-x="1007" 
d="M381 532h139q119 0 192.5 60t73.5 162q0 218 -247 217l-158 -13v-426zM963 772q0 -129 -105 -199.5t-297 -130.5h-180v-356l192 -20l-6 -68l-266 4l-221 -4l-8 68l147 20v870l-147 19l8 65l217 -4l307 4q248 0 303.5 -99t55.5 -169z" />
    <glyph glyph-name="Q.sc" horiz-adv-x="1300" 
d="M658 70q191 0 282.5 116.5t91.5 303.5t-94.5 333t-293.5 146t-289.5 -117t-90.5 -305t66.5 -287.5t144 -144.5t183.5 -45zM88 507q0 235 140.5 370t437.5 190q240 0 393 -147.5t153 -374.5t-118.5 -359.5t-366.5 -191.5l166 -45l170 -109l90 -22l-8 -68h-238l-272 223
q-242 0 -394.5 149.5t-152.5 384.5z" />
    <glyph glyph-name="R.sc" horiz-adv-x="1144" 
d="M381 559h115q133 0 211.5 57.5t78.5 155.5t-69.5 147.5t-169.5 51.5l-166 -13v-399zM381 471v-385l139 -20l-8 -68l-211 4l-221 -4l-8 68l147 20v870l-147 19l8 65l221 -4l283 4q263 0 321 -98t58 -160q0 -110 -95 -178t-235 -100l108 -74l281 -342l88 -22l-6 -68l-127 4
l-113 -4l-344 457l-20 16h-119z" />
    <glyph glyph-name="Racute.002" horiz-adv-x="1372" 
d="M436 743h148q173 0 279 91t106 230t-88 214.5t-224 75.5l-221 -11v-600zM436 659v-571l180 -27l-10 -63l-260 6l-274 -6l-11 63l193 27v1258l-193 26l11 64l276 -6l344 6q340 0 412 -131t72 -223q0 -298 -414 -410l119 -78l366 -508l115 -29l-8 -59l-150 6l-135 -6
l-446 639l-23 22h-164zM496 1540l147 201h205l-246 -201h-106z" />
    <glyph glyph-name="Racute.sc" horiz-adv-x="1144" 
d="M469 1143l111 200h174l-193 -200h-92zM381 471v-385l139 -20l-8 -68l-211 4l-221 -4l-8 68l147 20v870l-147 19l8 65l221 -4l283 4q263 0 321 -98t58 -160q0 -110 -95 -178t-235 -100l108 -74l281 -342l88 -22l-6 -68l-127 4l-113 -4l-344 457l-20 16h-119zM381 559h115
q133 0 211.5 57.5t78.5 155.5t-69.5 147.5t-169.5 51.5l-166 -13v-399z" />
    <glyph glyph-name="Rcaron.002" horiz-adv-x="1372" 
d="M436 743h148q173 0 279 91t106 230t-88 214.5t-224 75.5l-221 -11v-600zM436 659v-571l180 -27l-10 -63l-260 6l-274 -6l-11 63l193 27v1258l-193 26l11 64l276 -6l344 6q340 0 412 -131t72 -223q0 -298 -414 -410l119 -78l366 -508l115 -29l-8 -59l-150 6l-135 -6
l-446 639l-23 22h-164zM602 1628l21 -20l22 20l170 113h103l-213 -201h-162l-213 201h102z" />
    </font>
</defs>
</svg>
