<?xml version="1.0" standalone="no"?>
<!DOCTYPE svg PUBLIC "-//W3C//DTD SVG 20010904//EN"
 "http://www.w3.org/TR/2001/REC-SVG-20010904/DTD/svg10.dtd">
<svg version="1.0" xmlns="http://www.w3.org/2000/svg"
 width="700.000000pt" height="700.000000pt" viewBox="0 0 700.000000 700.000000"
 preserveAspectRatio="xMidYMid meet">
<metadata>
Created by potrace 1.14, written by Peter Selinger 2001-2017
</metadata>
<g transform="translate(0.000000,700.000000) scale(0.100000,-0.100000)"
fill="#000000" stroke="none">
<path d="M1228 5638 c-9 -95 -12 -175 -8 -178 5 -3 89 -23 187 -44 98 -22 179
-40 180 -40 1 -1 324 -949 718 -2106 394 -1158 720 -2108 723 -2111 7 -7 950
186 960 196 3 3 326 909 718 2012 l711 2007 167 42 c92 23 170 44 172 47 6 5
-12 252 -22 315 l-5 32 -644 0 -645 0 0 -27 c0 -16 -7 -93 -15 -173 -7 -79
-12 -146 -11 -148 2 -2 107 -22 232 -45 126 -24 228 -47 227 -52 -4 -25 -1006
-3071 -1012 -3078 -7 -7 -1022 3054 -1021 3078 0 6 64 23 143 39 78 15 171 34
207 42 l66 15 -17 172 c-9 95 -17 173 -18 175 -1 1 -446 2 -989 2 l-988 0 -16
-172z"/>
</g>
</svg>
